M48
;DRILL file {KiCad 4.0.6} date Mon May 22 11:22:27 2017
;FORMAT={-:-/ absolute / inch / decimal}
FMAT,2
INCH,TZ
T1C0.008
T2C0.012
T3C0.016
T4C0.028
T5C0.031
T6C0.035
T7C0.039
T8C0.047
T9C0.051
T10C0.055
T11C0.106
T12C0.125
%
G90
G05
M72
T1
X1.4449Y-4.5197
X1.4449Y-4.6654
X1.5276Y-4.0039
X1.5276Y-4.0551
X1.5276Y-4.1024
X1.5276Y-4.2008
X1.5276Y-4.3543
X1.5394Y-4.6654
X1.5591Y-3.2835
X1.563Y-4.5433
X1.5748Y-3.126
X1.5748Y-3.3268
X1.5748Y-3.5315
X1.5748Y-3.7362
X1.5866Y-4.2913
X1.6535Y-3.2283
X1.6732Y-4.311
X1.7008Y-4.311
X1.7126Y-1.6732
X1.7126Y-3.3543
X1.7165Y-1.622
X1.748Y-3.7874
X1.7677Y-2.6614
X1.7677Y-3.126
X1.7677Y-3.2838
X1.7717Y-4.3268
X1.7874Y-2.0433
X1.7953Y-4.3268
X1.8071Y-3.3858
X1.811Y-2.063
X1.811Y-3.2087
X1.8386Y-2.063
X1.8386Y-4.0276
X1.8465Y-4.3071
X1.8465Y-4.3386
X1.8504Y-4.3937
X1.8504Y-4.4213
X1.878Y-4.2897
X1.8858Y-1.7165
X1.9055Y-2.1063
X1.9173Y-2.1732
X1.9173Y-3.2087
X1.9212Y-2.0794
X1.9213Y-2.0472
X1.9213Y-2.4646
X1.9213Y-2.4961
X1.9488Y-4.1732
X1.9581Y-4.0207
X1.9724Y-4.1732
X1.9803Y-3.185
X1.9803Y-3.2874
X1.9803Y-3.3858
X1.9803Y-3.4882
X1.9803Y-4.5197
X1.9882Y-3.6417
X1.9882Y-3.7205
X2.0063Y-2.9222
X2.0079Y-4.1654
X2.0079Y-4.2047
X2.0079Y-4.2598
X2.0118Y-4.5197
X2.0157Y-3.7835
X2.0276Y-4.0157
X2.0315Y-4.2598
X2.0318Y-2.9222
X2.0472Y-4.0354
X2.06Y-2.9522
X2.06Y-2.9777
X2.063Y-3.0433
X2.0669Y-4.2913
X2.0669Y-4.4803
X2.07Y-1.29
X2.07Y-1.39
X2.07Y-1.49
X2.07Y-1.59
X2.07Y-1.69
X2.0786Y-3.303
X2.0866Y-4.5
X2.095Y-2.9972
X2.095Y-3.0227
X2.0984Y-3.2795
X2.0986Y-4.2518
X2.1018Y-2.7998
X2.1102Y-4.3543
X2.1142Y-4.2953
X2.1181Y-3.2559
X2.12Y-1.24
X2.12Y-1.34
X2.12Y-1.44
X2.12Y-1.54
X2.12Y-1.64
X2.122Y-2.8189
X2.1299Y-4.2717
X2.1339Y-3.0827
X2.135Y-2.74
X2.1355Y-2.715
X2.1417Y-3.2323
X2.1457Y-4.2953
X2.1535Y-3.3386
X2.161Y-2.8299
X2.1693Y-3.5433
X2.1693Y-3.748
X2.1693Y-3.874
X2.1693Y-3.9921
X2.1693Y-4.0709
X2.17Y-1.24
X2.17Y-1.29
X2.17Y-1.34
X2.17Y-1.39
X2.17Y-1.44
X2.17Y-1.49
X2.17Y-1.59
X2.17Y-1.64
X2.1732Y-3.3189
X2.185Y-2.8307
X2.22Y-1.24
X2.22Y-1.29
X2.22Y-1.34
X2.22Y-1.39
X2.22Y-1.44
X2.22Y-1.49
X2.22Y-1.54
X2.22Y-1.69
X2.2244Y-3.1181
X2.23Y-2.905
X2.248Y-4.4528
X2.25Y-2.925
X2.2598Y-3.9764
X2.2677Y-4.3268
X2.27Y-1.24
X2.27Y-1.29
X2.27Y-1.34
X2.27Y-1.39
X2.27Y-1.44
X2.27Y-1.49
X2.27Y-1.59
X2.27Y-1.69
X2.27Y-2.965
X2.2835Y-3.9764
X2.2874Y-3.5354
X2.2874Y-3.5669
X2.2874Y-3.5984
X2.2874Y-3.6299
X2.2874Y-3.6614
X2.2874Y-3.6929
X2.2874Y-3.7244
X2.2874Y-3.7559
X2.2874Y-3.7874
X2.2874Y-3.8189
X2.2874Y-3.8504
X2.2874Y-3.8901
X2.2874Y-3.9131
X2.2913Y-4.3268
X2.295Y-2.965
X2.311Y-4.6102
X2.315Y-3.4882
X2.315Y-3.5197
X2.315Y-3.5512
X2.315Y-3.5827
X2.315Y-3.6142
X2.315Y-3.6457
X2.315Y-3.6772
X2.315Y-3.7087
X2.315Y-3.7402
X2.315Y-3.7717
X2.315Y-3.8031
X2.315Y-3.8346
X2.315Y-3.8661
X2.32Y-1.24
X2.32Y-1.29
X2.32Y-1.34
X2.32Y-1.39
X2.32Y-1.44
X2.32Y-1.49
X2.32Y-1.54
X2.32Y-1.64
X2.3346Y-3.9094
X2.3346Y-3.9409
X2.3504Y-3.9724
X2.3661Y-3.5433
X2.3661Y-3.9409
X2.37Y-1.24
X2.37Y-1.29
X2.37Y-1.34
X2.37Y-1.39
X2.37Y-1.44
X2.37Y-1.49
X2.37Y-1.54
X2.37Y-1.59
X2.37Y-1.64
X2.374Y-4.063
X2.3858Y-4.0039
X2.3937Y-3.5276
X2.4134Y-3.5433
X2.42Y-1.24
X2.42Y-1.29
X2.42Y-1.34
X2.42Y-1.39
X2.42Y-1.44
X2.42Y-1.49
X2.42Y-1.59
X2.42Y-1.69
X2.4291Y-3.5787
X2.4291Y-3.6102
X2.4291Y-3.6417
X2.4291Y-3.6732
X2.4291Y-3.7047
X2.4291Y-3.7677
X2.4291Y-3.8307
X2.4291Y-3.8622
X2.4291Y-3.8937
X2.4291Y-3.9252
X2.4291Y-3.9567
X2.4291Y-3.9882
X2.4291Y-4.0197
X2.4291Y-4.0512
X2.4291Y-4.0827
X2.4449Y-3.5433
X2.4606Y-2.5669
X2.4606Y-3.5787
X2.4606Y-3.6102
X2.4606Y-3.6417
X2.4606Y-3.6732
X2.4606Y-3.7047
X2.4606Y-3.7362
X2.4606Y-3.7677
X2.4606Y-3.8622
X2.4606Y-3.8937
X2.4606Y-3.9252
X2.4606Y-3.9567
X2.4606Y-3.9882
X2.4606Y-4.0197
X2.4606Y-4.0512
X2.4606Y-4.0827
X2.47Y-1.24
X2.47Y-1.29
X2.47Y-1.34
X2.47Y-1.39
X2.47Y-1.44
X2.47Y-1.49
X2.47Y-1.54
X2.47Y-1.59
X2.47Y-1.69
X2.4764Y-2.5512
X2.4764Y-3.5433
X2.4842Y-2.485
X2.4842Y-2.51
X2.4843Y-2.2244
X2.4843Y-2.2598
X2.4843Y-2.3543
X2.4843Y-2.3819
X2.4843Y-2.4331
X2.4843Y-2.622
X2.4921Y-3.5787
X2.4921Y-3.6102
X2.4921Y-3.6417
X2.4921Y-3.7047
X2.4921Y-3.7362
X2.4921Y-3.7992
X2.4921Y-3.8307
X2.4921Y-3.8622
X2.4921Y-3.8937
X2.4921Y-3.9252
X2.4921Y-3.9567
X2.4921Y-3.9882
X2.4921Y-4.0197
X2.4921Y-4.0512
X2.4921Y-4.0827
X2.5157Y-3.9055
X2.52Y-1.24
X2.52Y-1.29
X2.52Y-1.34
X2.52Y-1.39
X2.52Y-1.44
X2.52Y-1.49
X2.52Y-1.59
X2.52Y-1.64
X2.5276Y-2.2244
X2.5276Y-2.2677
X2.5276Y-2.3071
X2.5276Y-2.3858
X2.5276Y-2.4252
X2.5276Y-2.4646
X2.5276Y-2.5827
X2.5276Y-2.622
X2.5276Y-2.6614
X2.5276Y-2.7008
X2.5276Y-2.7402
X2.5276Y-2.7795
X2.5276Y-2.8189
X2.5276Y-2.8583
X2.5276Y-2.8976
X2.5276Y-2.937
X2.5276Y-2.9764
X2.5276Y-3.0551
X2.5276Y-3.0945
X2.5276Y-3.1339
X2.5276Y-3.1732
X2.5276Y-3.2126
X2.5276Y-3.252
X2.5357Y-3.9055
X2.5394Y-3.3189
X2.5394Y-4.1024
X2.5394Y-4.5276
X2.5512Y-3.5433
X2.5669Y-2.2244
X2.5669Y-2.3465
X2.5669Y-2.4646
X2.5669Y-2.5433
X2.5669Y-2.5827
X2.5669Y-2.622
X2.5669Y-2.6614
X2.5669Y-2.7008
X2.5669Y-2.7402
X2.5669Y-2.7795
X2.5669Y-2.8189
X2.5669Y-2.8583
X2.5669Y-2.8976
X2.5669Y-2.937
X2.5669Y-2.9764
X2.5669Y-3.0157
X2.5669Y-3.0551
X2.5669Y-3.0945
X2.5669Y-3.1339
X2.5669Y-3.1732
X2.5669Y-3.2126
X2.5669Y-3.252
X2.57Y-1.24
X2.57Y-1.29
X2.57Y-1.34
X2.57Y-1.39
X2.57Y-1.44
X2.57Y-1.49
X2.57Y-1.59
X2.57Y-1.64
X2.5712Y-3.5302
X2.5912Y-3.5394
X2.5984Y-3.3386
X2.6063Y-2.2677
X2.6063Y-2.3071
X2.6063Y-2.4252
X2.6063Y-2.5827
X2.6063Y-2.622
X2.6063Y-2.6614
X2.6063Y-2.7008
X2.6063Y-2.7402
X2.6063Y-2.7795
X2.6063Y-2.8189
X2.6063Y-2.8583
X2.6063Y-2.8976
X2.6063Y-2.937
X2.6063Y-2.9764
X2.6063Y-3.0157
X2.6063Y-3.0551
X2.6063Y-3.0945
X2.6063Y-3.1339
X2.6063Y-3.1732
X2.6063Y-3.2126
X2.6063Y-3.252
X2.6181Y-3.5787
X2.6181Y-3.6102
X2.6181Y-3.6417
X2.6181Y-3.6732
X2.6181Y-3.7047
X2.6181Y-3.7362
X2.6181Y-3.7677
X2.6181Y-3.8307
X2.6181Y-3.8622
X2.6181Y-3.9567
X2.6181Y-3.9882
X2.6181Y-4.0197
X2.6181Y-4.0512
X2.6181Y-4.0827
X2.62Y-1.24
X2.62Y-1.29
X2.62Y-1.34
X2.62Y-1.39
X2.62Y-1.44
X2.62Y-1.49
X2.62Y-1.59
X2.62Y-1.69
X2.6457Y-2.3465
X2.6457Y-2.3858
X2.6457Y-2.5039
X2.6457Y-2.5433
X2.6457Y-2.5827
X2.6457Y-2.622
X2.6457Y-2.6614
X2.6457Y-2.7008
X2.6457Y-2.7402
X2.6457Y-2.7795
X2.6457Y-2.8189
X2.6457Y-2.8583
X2.6457Y-2.8976
X2.6457Y-2.937
X2.6457Y-2.9764
X2.6457Y-3.0157
X2.6457Y-3.0551
X2.6457Y-3.0945
X2.6457Y-3.1339
X2.6457Y-3.1732
X2.6457Y-3.2126
X2.6457Y-3.252
X2.6496Y-3.6102
X2.6496Y-3.6417
X2.6496Y-3.6732
X2.6496Y-3.7047
X2.6496Y-3.7362
X2.6496Y-3.7677
X2.6496Y-3.8307
X2.6496Y-3.8622
X2.6496Y-3.8937
X2.6496Y-3.9252
X2.6496Y-3.9567
X2.6496Y-3.9882
X2.6496Y-4.0197
X2.6496Y-4.0512
X2.6496Y-4.0827
X2.6535Y-4.2677
X2.67Y-1.24
X2.67Y-1.29
X2.67Y-1.34
X2.67Y-1.39
X2.67Y-1.44
X2.67Y-1.49
X2.67Y-1.54
X2.67Y-1.59
X2.67Y-1.69
X2.6811Y-3.5787
X2.6811Y-3.6102
X2.6811Y-3.6417
X2.6811Y-3.6732
X2.6811Y-3.7047
X2.6811Y-3.7677
X2.6811Y-3.8622
X2.6811Y-3.8937
X2.6811Y-3.9252
X2.6811Y-3.9567
X2.6811Y-3.9882
X2.6811Y-4.0197
X2.6811Y-4.0512
X2.6811Y-4.0827
X2.685Y-2.2677
X2.685Y-2.3071
X2.685Y-2.3465
X2.685Y-2.3858
X2.685Y-2.4252
X2.685Y-2.4646
X2.685Y-2.5039
X2.685Y-2.5433
X2.685Y-2.5827
X2.685Y-2.622
X2.685Y-2.6614
X2.685Y-2.7008
X2.685Y-2.7402
X2.685Y-2.7795
X2.685Y-2.8189
X2.685Y-2.8583
X2.685Y-2.8976
X2.685Y-2.937
X2.685Y-2.9764
X2.685Y-3.0157
X2.685Y-3.0551
X2.685Y-3.0945
X2.685Y-3.1339
X2.685Y-3.1732
X2.685Y-3.2126
X2.685Y-3.252
X2.7126Y-3.9016
X2.72Y-1.24
X2.72Y-1.29
X2.72Y-1.34
X2.72Y-1.39
X2.72Y-1.44
X2.72Y-1.49
X2.72Y-1.54
X2.72Y-1.59
X2.72Y-1.64
X2.7205Y-3.5394
X2.7244Y-2.2677
X2.7244Y-2.3071
X2.7244Y-2.3465
X2.7244Y-2.3858
X2.7244Y-2.5039
X2.7244Y-2.5433
X2.7244Y-2.5827
X2.7244Y-2.622
X2.7244Y-2.6614
X2.7244Y-2.7008
X2.7244Y-2.7402
X2.7244Y-2.7795
X2.7244Y-2.8189
X2.7244Y-2.8583
X2.7244Y-2.8976
X2.7244Y-2.937
X2.7244Y-2.9764
X2.7244Y-3.0157
X2.7244Y-3.0551
X2.7244Y-3.0945
X2.7244Y-3.1339
X2.7244Y-3.1732
X2.7244Y-3.2126
X2.7244Y-3.252
X2.7283Y-3.9173
X2.7402Y-2.2244
X2.7441Y-3.9331
X2.752Y-3.5197
X2.7559Y-4.3976
X2.7598Y-4.2683
X2.7638Y-2.2244
X2.7638Y-2.2677
X2.7638Y-2.3071
X2.7638Y-2.3465
X2.7638Y-2.3858
X2.7638Y-2.4252
X2.7638Y-2.4646
X2.7638Y-2.5039
X2.7638Y-2.5433
X2.7638Y-2.5827
X2.7638Y-2.622
X2.7638Y-2.6614
X2.7638Y-2.7008
X2.7638Y-2.7402
X2.7638Y-2.7795
X2.7638Y-2.8189
X2.7638Y-2.8583
X2.7638Y-2.8976
X2.7638Y-2.937
X2.7638Y-2.9764
X2.7638Y-3.0157
X2.7638Y-3.0551
X2.7638Y-3.0945
X2.7638Y-3.1339
X2.7638Y-3.1732
X2.7638Y-3.2126
X2.77Y-1.24
X2.77Y-1.29
X2.77Y-1.34
X2.77Y-1.39
X2.77Y-1.44
X2.77Y-1.49
X2.77Y-1.54
X2.77Y-1.59
X2.77Y-1.64
X2.7717Y-3.5394
X2.7756Y-3.9528
X2.7835Y-4.2677
X2.7913Y-3.48
X2.7913Y-3.5
X2.7913Y-3.5236
X2.7913Y-3.9724
X2.8031Y-2.3465
X2.8031Y-2.3858
X2.8031Y-2.4252
X2.8031Y-2.4646
X2.8031Y-2.5039
X2.8031Y-2.5433
X2.8031Y-2.5827
X2.8031Y-2.622
X2.8031Y-2.6614
X2.8031Y-2.7008
X2.8031Y-2.7402
X2.8031Y-2.7795
X2.8031Y-2.8189
X2.8031Y-2.8583
X2.8031Y-2.8976
X2.8031Y-2.937
X2.8031Y-2.9764
X2.8031Y-3.0157
X2.8031Y-3.0551
X2.8031Y-3.0945
X2.8031Y-3.1339
X2.8031Y-3.1732
X2.8031Y-3.2126
X2.8071Y-3.5394
X2.815Y-4.4488
X2.8189Y-2.2244
X2.82Y-1.24
X2.82Y-1.29
X2.82Y-1.34
X2.82Y-1.39
X2.82Y-1.44
X2.82Y-1.49
X2.82Y-1.54
X2.82Y-1.59
X2.82Y-1.69
X2.8346Y-4.3346
X2.8346Y-4.4724
X2.8386Y-3.5394
X2.8425Y-2.2244
X2.8425Y-2.2677
X2.8425Y-2.3071
X2.8425Y-2.3465
X2.8425Y-2.3858
X2.8425Y-2.5039
X2.8425Y-2.5433
X2.8425Y-2.5827
X2.8425Y-2.622
X2.8425Y-2.6614
X2.8425Y-2.7008
X2.8425Y-2.7402
X2.8425Y-2.7795
X2.8425Y-2.8189
X2.8425Y-2.8583
X2.8425Y-2.8976
X2.8425Y-2.937
X2.8425Y-2.9764
X2.8425Y-3.0157
X2.8425Y-3.0551
X2.8425Y-3.0945
X2.8425Y-3.1339
X2.8425Y-3.1732
X2.8425Y-3.2126
X2.8465Y-3.9252
X2.8465Y-3.9803
X2.8543Y-4.4488
X2.8622Y-3.5394
X2.8622Y-3.9094
X2.8661Y-4.3346
X2.87Y-1.39
X2.87Y-1.24
X2.87Y-1.29
X2.87Y-1.34
X2.87Y-1.44
X2.87Y-1.49
X2.87Y-1.54
X2.87Y-1.59
X2.87Y-1.69
X2.878Y-3.8937
X2.8819Y-2.3465
X2.8819Y-2.3858
X2.8819Y-2.4252
X2.8819Y-2.4646
X2.8819Y-2.5039
X2.8819Y-2.5433
X2.8819Y-2.5827
X2.8819Y-2.622
X2.8819Y-2.6614
X2.8819Y-2.7008
X2.8819Y-2.7402
X2.8819Y-2.7795
X2.8819Y-2.8583
X2.8819Y-2.8976
X2.8819Y-2.937
X2.8819Y-2.9764
X2.8819Y-3.0157
X2.8819Y-3.0551
X2.8819Y-3.0945
X2.8819Y-3.1339
X2.8819Y-3.1732
X2.8819Y-3.3071
X2.8937Y-3.8543
X2.8937Y-4.4488
X2.8976Y-2.2244
X2.9094Y-3.8937
X2.9191Y-4.2835
X2.92Y-1.24
X2.92Y-1.29
X2.92Y-1.34
X2.92Y-1.39
X2.92Y-1.44
X2.92Y-1.49
X2.92Y-1.54
X2.92Y-1.59
X2.92Y-1.64
X2.9213Y-2.2244
X2.9213Y-2.2677
X2.9213Y-2.3071
X2.9213Y-2.3465
X2.9213Y-2.3858
X2.9213Y-2.4252
X2.9213Y-2.4646
X2.9213Y-2.5039
X2.9213Y-2.622
X2.9213Y-2.6614
X2.9213Y-2.7008
X2.9213Y-2.7402
X2.9213Y-2.7795
X2.9213Y-2.937
X2.9213Y-3.0157
X2.9213Y-3.0551
X2.9213Y-3.0945
X2.9213Y-3.1339
X2.9213Y-3.1732
X2.9213Y-3.2126
X2.9213Y-3.252
X2.9213Y-3.2795
X2.9252Y-3.8622
X2.9331Y-3.5394
X2.9331Y-4.3465
X2.9409Y-3.8465
X2.9471Y-4.2835
X2.9567Y-3.5394
X2.959Y-3.252
X2.9606Y-2.3465
X2.9606Y-2.3858
X2.9606Y-2.4252
X2.9606Y-2.4646
X2.9606Y-2.5039
X2.9606Y-2.5433
X2.9606Y-2.5827
X2.9606Y-2.622
X2.9606Y-2.7008
X2.9606Y-2.7402
X2.9606Y-2.8189
X2.9606Y-2.8976
X2.9606Y-2.937
X2.9606Y-3.0157
X2.9606Y-3.0551
X2.9606Y-3.0945
X2.9606Y-3.1339
X2.9606Y-3.1732
X2.9606Y-3.2126
X2.97Y-1.24
X2.97Y-1.29
X2.97Y-1.34
X2.97Y-1.39
X2.97Y-1.44
X2.97Y-1.49
X2.97Y-1.54
X2.97Y-1.59
X2.97Y-1.64
X2.9781Y-4.2835
X2.9803Y-3.5394
X2.9803Y-3.5787
X2.9803Y-3.6102
X2.9803Y-3.6417
X2.9803Y-3.6732
X2.9803Y-3.7047
X2.9803Y-3.7677
X2.9803Y-3.8307
X2.9803Y-3.8622
X2.9803Y-3.8937
X2.9803Y-3.9252
X2.9803Y-3.9567
X2.9803Y-3.9882
X2.9803Y-4.0197
X2.9803Y-4.0512
X2.9803Y-4.0827
X2.9921Y-4.3465
X3.Y-2.2677
X3.Y-2.3465
X3.Y-2.3858
X3.Y-2.3071
X3.Y-2.4252
X3.Y-2.4646
X3.Y-2.5039
X3.Y-2.5433
X3.Y-2.5827
X3.Y-2.622
X3.Y-2.7008
X3.Y-2.7402
X3.Y-2.8189
X3.Y-2.8583
X3.Y-2.8976
X3.Y-2.937
X3.Y-2.9764
X3.Y-3.0157
X3.Y-3.0551
X3.Y-3.0945
X3.Y-3.1339
X3.Y-3.1732
X3.Y-3.2126
X3.0027Y-3.252
X3.0039Y-3.5394
X3.0061Y-4.2835
X3.0118Y-3.5787
X3.0118Y-3.6102
X3.0118Y-3.6417
X3.0118Y-3.6732
X3.0118Y-3.7047
X3.0118Y-3.7362
X3.0118Y-3.7677
X3.0118Y-3.8622
X3.0118Y-3.8937
X3.0118Y-3.9252
X3.0118Y-3.9567
X3.0118Y-3.9882
X3.0118Y-4.0197
X3.0118Y-4.0512
X3.0118Y-4.0827
X3.02Y-1.24
X3.02Y-1.29
X3.02Y-1.34
X3.02Y-1.39
X3.02Y-1.44
X3.02Y-1.49
X3.02Y-1.54
X3.02Y-1.59
X3.02Y-1.69
X3.0276Y-3.5394
X3.0372Y-4.2835
X3.0394Y-2.2362
X3.0394Y-2.2677
X3.0394Y-2.3071
X3.0394Y-2.3465
X3.0394Y-2.3858
X3.0394Y-2.4252
X3.0394Y-2.4646
X3.0394Y-2.5039
X3.0394Y-2.622
X3.0394Y-2.6614
X3.0394Y-2.7008
X3.0394Y-2.7402
X3.0394Y-2.7795
X3.0394Y-2.8583
X3.0394Y-2.8976
X3.0394Y-2.937
X3.0394Y-2.9764
X3.0394Y-3.0157
X3.0394Y-3.0551
X3.0394Y-3.0945
X3.0394Y-3.1339
X3.0394Y-3.1732
X3.0394Y-3.2126
X3.0433Y-3.5787
X3.0433Y-3.6102
X3.0433Y-3.6417
X3.0433Y-3.7047
X3.0433Y-3.7362
X3.0433Y-3.7992
X3.0433Y-3.8307
X3.0433Y-3.8622
X3.0433Y-3.8937
X3.0433Y-3.9252
X3.0433Y-3.9567
X3.0433Y-3.9882
X3.0433Y-4.0197
X3.0433Y-4.0512
X3.0512Y-4.3465
X3.0652Y-4.2835
X3.0669Y-3.9173
X3.0669Y-3.9567
X3.07Y-1.24
X3.07Y-1.29
X3.07Y-1.34
X3.07Y-1.39
X3.07Y-1.44
X3.07Y-1.49
X3.07Y-1.54
X3.07Y-1.59
X3.07Y-1.69
X3.0787Y-2.3071
X3.0787Y-2.3465
X3.0787Y-2.3858
X3.0787Y-2.4252
X3.0787Y-2.4646
X3.0787Y-2.5039
X3.0787Y-2.5433
X3.0787Y-2.5827
X3.0787Y-2.622
X3.0787Y-2.6614
X3.0787Y-2.7008
X3.0787Y-2.7402
X3.0787Y-2.7795
X3.0787Y-2.937
X3.0787Y-3.0157
X3.0787Y-3.0551
X3.0787Y-3.0945
X3.0787Y-3.1339
X3.0787Y-3.1732
X3.0869Y-3.9173
X3.0962Y-4.2835
X3.1102Y-4.3465
X3.1181Y-2.2677
X3.1181Y-2.3071
X3.1181Y-2.3465
X3.1181Y-2.3858
X3.1181Y-2.4252
X3.1181Y-2.4646
X3.1181Y-2.5039
X3.1181Y-2.5433
X3.1181Y-2.622
X3.1181Y-2.7008
X3.1181Y-2.7402
X3.1181Y-2.8976
X3.1181Y-2.937
X3.1181Y-3.0157
X3.1181Y-3.0551
X3.1181Y-3.0945
X3.1181Y-3.1339
X3.1181Y-3.1732
X3.1181Y-3.2126
X3.1181Y-3.2559
X3.1181Y-3.2835
X3.12Y-1.24
X3.12Y-1.29
X3.12Y-1.34
X3.12Y-1.39
X3.12Y-1.44
X3.12Y-1.49
X3.12Y-1.54
X3.12Y-1.59
X3.12Y-1.64
X3.1242Y-4.2835
X3.1575Y-2.2677
X3.1575Y-2.3071
X3.1575Y-2.3465
X3.1575Y-2.3858
X3.1575Y-2.4252
X3.1575Y-2.4646
X3.1575Y-2.5039
X3.1575Y-2.5433
X3.1575Y-2.5827
X3.1575Y-2.622
X3.1575Y-2.8189
X3.1575Y-2.8583
X3.1575Y-2.8976
X3.1575Y-2.937
X3.1575Y-2.9764
X3.1575Y-3.0157
X3.1575Y-3.0551
X3.1575Y-3.0945
X3.1575Y-3.1339
X3.1575Y-3.1732
X3.1693Y-3.5787
X3.1693Y-3.6102
X3.1693Y-3.6417
X3.1693Y-3.6732
X3.1693Y-3.7047
X3.1693Y-3.7362
X3.1693Y-3.7677
X3.1693Y-3.8307
X3.1693Y-3.8622
X3.1693Y-3.9567
X3.1693Y-3.9882
X3.1693Y-4.0197
X3.1693Y-4.0512
X3.1693Y-4.0827
X3.17Y-1.24
X3.17Y-1.29
X3.17Y-1.34
X3.17Y-1.39
X3.17Y-1.44
X3.17Y-1.49
X3.17Y-1.54
X3.17Y-1.59
X3.17Y-1.64
X3.1963Y-2.2283
X3.1969Y-2.2677
X3.1969Y-2.3071
X3.1969Y-2.3465
X3.1969Y-2.3858
X3.1969Y-2.4252
X3.1969Y-2.4646
X3.1969Y-2.5039
X3.1969Y-2.5433
X3.1969Y-2.5827
X3.1969Y-2.622
X3.1969Y-2.6614
X3.1969Y-2.7008
X3.1969Y-2.7795
X3.1969Y-2.8189
X3.1969Y-2.8583
X3.1969Y-2.8976
X3.1969Y-2.937
X3.1969Y-2.9764
X3.1969Y-3.0157
X3.1969Y-3.0551
X3.1969Y-3.0945
X3.1969Y-3.1339
X3.1969Y-3.1732
X3.2008Y-3.6102
X3.2008Y-3.6417
X3.2008Y-3.6732
X3.2008Y-3.7047
X3.2008Y-3.7362
X3.2008Y-3.7677
X3.2008Y-3.8307
X3.2008Y-3.8622
X3.2008Y-3.8937
X3.2008Y-3.9252
X3.2008Y-3.9567
X3.2008Y-3.9882
X3.2008Y-4.0197
X3.2008Y-4.0512
X3.2008Y-4.0827
X3.2185Y-3.2957
X3.22Y-3.2559
X3.22Y-1.24
X3.22Y-1.29
X3.22Y-1.34
X3.22Y-1.39
X3.22Y-1.44
X3.22Y-1.49
X3.22Y-1.54
X3.22Y-1.59
X3.2323Y-3.5787
X3.2323Y-3.6102
X3.2323Y-3.6417
X3.2323Y-3.6732
X3.2323Y-3.7047
X3.2323Y-3.7677
X3.2323Y-3.8622
X3.2323Y-3.8937
X3.2323Y-3.9252
X3.2323Y-3.9567
X3.2323Y-3.9882
X3.2323Y-4.0197
X3.2323Y-4.0512
X3.2323Y-4.0827
X3.2362Y-2.2677
X3.2362Y-2.3071
X3.2362Y-2.3465
X3.2362Y-2.3858
X3.2362Y-2.4252
X3.2362Y-2.4646
X3.2362Y-2.5039
X3.2362Y-2.5433
X3.2362Y-2.5827
X3.2362Y-2.622
X3.2362Y-2.6614
X3.2362Y-2.7795
X3.2362Y-2.8189
X3.2362Y-2.8976
X3.2362Y-2.937
X3.2362Y-2.9764
X3.2362Y-3.0157
X3.2362Y-3.0551
X3.2362Y-3.0945
X3.2362Y-3.1339
X3.2362Y-3.1732
X3.2362Y-3.2126
X3.27Y-1.24
X3.27Y-1.29
X3.27Y-1.34
X3.27Y-1.39
X3.27Y-1.44
X3.27Y-1.49
X3.27Y-1.54
X3.27Y-1.59
X3.27Y-1.69
X3.2756Y-2.3071
X3.2756Y-2.3465
X3.2756Y-2.3858
X3.2756Y-2.4252
X3.2756Y-2.4646
X3.2756Y-2.5039
X3.2756Y-2.5433
X3.2756Y-2.7402
X3.2756Y-2.8976
X3.2756Y-2.937
X3.2756Y-2.9764
X3.2756Y-3.0157
X3.2756Y-3.0551
X3.2756Y-3.0945
X3.2756Y-3.1339
X3.2756Y-3.1732
X3.2756Y-3.2126
X3.2795Y-3.5472
X3.2814Y-1.9664
X3.2953Y-3.2559
X3.2986Y-1.9836
X3.2992Y-4.1535
X3.315Y-2.2677
X3.315Y-2.3071
X3.315Y-2.3465
X3.315Y-2.3858
X3.315Y-2.4252
X3.315Y-2.4646
X3.315Y-2.5039
X3.315Y-2.5433
X3.315Y-2.5827
X3.315Y-2.8583
X3.315Y-2.8976
X3.315Y-2.937
X3.315Y-2.9764
X3.315Y-3.0157
X3.315Y-3.0551
X3.315Y-3.0945
X3.315Y-3.1339
X3.315Y-3.1732
X3.315Y-3.2126
X3.32Y-1.24
X3.32Y-1.29
X3.32Y-1.34
X3.32Y-1.39
X3.32Y-1.44
X3.32Y-1.49
X3.32Y-1.54
X3.32Y-1.59
X3.32Y-1.64
X3.3268Y-3.5236
X3.3268Y-3.6102
X3.3364Y-1.9836
X3.3425Y-3.5472
X3.3536Y-1.9664
X3.3543Y-2.2283
X3.3543Y-2.2677
X3.3543Y-2.3465
X3.3543Y-2.3858
X3.3543Y-2.4252
X3.3543Y-2.4646
X3.3543Y-2.5039
X3.3543Y-2.5433
X3.3543Y-2.5827
X3.3543Y-2.6614
X3.3543Y-2.7795
X3.3543Y-2.8976
X3.3543Y-2.937
X3.3543Y-2.9764
X3.3543Y-3.0157
X3.3543Y-3.0551
X3.3543Y-3.0945
X3.3543Y-3.1339
X3.3543Y-3.1732
X3.3543Y-3.2126
X3.3543Y-3.252
X3.3583Y-3.8386
X3.37Y-1.24
X3.37Y-1.29
X3.37Y-1.34
X3.37Y-1.39
X3.37Y-1.44
X3.37Y-1.49
X3.37Y-1.54
X3.37Y-1.59
X3.37Y-1.64
X3.374Y-3.2953
X3.374Y-3.5472
X3.374Y-3.7047
X3.3898Y-3.5236
X3.3898Y-3.6417
X3.3937Y-2.2283
X3.3937Y-2.2677
X3.3937Y-2.3071
X3.3937Y-2.3465
X3.3937Y-2.3858
X3.3937Y-2.4252
X3.3937Y-2.4646
X3.3937Y-2.5039
X3.3937Y-2.5433
X3.3937Y-2.5827
X3.3937Y-2.7008
X3.3937Y-2.7795
X3.3937Y-2.8189
X3.3937Y-2.8976
X3.3937Y-2.937
X3.3937Y-2.9764
X3.3937Y-3.0157
X3.3937Y-3.0551
X3.3937Y-3.0945
X3.3937Y-3.1339
X3.3937Y-3.1732
X3.3937Y-3.2126
X3.3937Y-3.252
X3.3937Y-3.8386
X3.4055Y-3.5472
X3.4055Y-3.5787
X3.42Y-1.24
X3.42Y-1.29
X3.42Y-1.34
X3.42Y-1.39
X3.42Y-1.44
X3.42Y-1.49
X3.42Y-1.54
X3.42Y-1.59
X3.42Y-1.69
X3.4213Y-3.5236
X3.4213Y-3.6102
X3.4252Y-3.8386
X3.4331Y-2.2677
X3.4331Y-2.3071
X3.4331Y-2.3465
X3.4331Y-2.3858
X3.4331Y-2.4252
X3.4331Y-2.4646
X3.4331Y-2.5039
X3.4331Y-2.5433
X3.4331Y-2.5827
X3.4331Y-2.622
X3.4331Y-2.937
X3.4331Y-2.9764
X3.4331Y-3.0157
X3.4331Y-3.0551
X3.4331Y-3.0945
X3.4331Y-3.1339
X3.4331Y-3.1732
X3.4331Y-3.2126
X3.4331Y-3.252
X3.437Y-3.5472
X3.4488Y-3.6102
X3.4685Y-3.5472
X3.4685Y-3.7362
X3.47Y-1.24
X3.47Y-1.29
X3.47Y-1.34
X3.47Y-1.39
X3.47Y-1.44
X3.47Y-1.49
X3.47Y-1.54
X3.47Y-1.59
X3.47Y-1.69
X3.4724Y-2.3071
X3.4724Y-2.3465
X3.4724Y-2.3858
X3.4724Y-2.4252
X3.4724Y-2.4646
X3.4724Y-2.5039
X3.4724Y-2.5433
X3.4724Y-2.5827
X3.4724Y-2.622
X3.4724Y-2.7402
X3.4724Y-2.8583
X3.4724Y-2.937
X3.4724Y-2.9764
X3.4724Y-3.0551
X3.4724Y-3.1339
X3.4724Y-3.1732
X3.4724Y-3.2126
X3.4724Y-3.252
X3.4843Y-3.5236
X3.4843Y-3.7677
X3.5Y-3.5472
X3.5Y-3.6417
X3.5077Y-3.0946
X3.5118Y-2.2677
X3.5118Y-2.3071
X3.5118Y-2.3465
X3.5118Y-2.3858
X3.5118Y-2.4252
X3.5118Y-2.4646
X3.5118Y-2.5039
X3.5118Y-2.5433
X3.5118Y-2.622
X3.5118Y-2.6614
X3.5118Y-2.8583
X3.5118Y-2.937
X3.5118Y-2.9764
X3.5118Y-3.0157
X3.5118Y-3.0551
X3.5118Y-3.1339
X3.5118Y-3.1732
X3.5118Y-3.2126
X3.5118Y-3.252
X3.5157Y-3.5236
X3.5157Y-3.6732
X3.52Y-1.24
X3.52Y-1.29
X3.52Y-1.34
X3.52Y-1.39
X3.52Y-1.44
X3.52Y-1.49
X3.52Y-1.54
X3.52Y-1.59
X3.52Y-1.64
X3.5315Y-3.5669
X3.5315Y-3.6102
X3.5433Y-3.0748
X3.5472Y-3.5236
X3.5472Y-3.6417
X3.5512Y-2.5433
X3.5519Y-2.3658
X3.563Y-3.5669
X3.563Y-3.7362
X3.5669Y-3.1024
X3.57Y-1.24
X3.57Y-1.29
X3.57Y-1.34
X3.57Y-1.39
X3.57Y-1.44
X3.57Y-1.49
X3.57Y-1.54
X3.57Y-1.59
X3.57Y-1.64
X3.5748Y-2.9685
X3.5774Y-2.3658
X3.5787Y-3.5236
X3.5787Y-3.6732
X3.5945Y-2.9488
X3.5945Y-3.5669
X3.5945Y-3.689
X3.6063Y-2.874
X3.6102Y-3.5236
X3.6102Y-3.7362
X3.6142Y-2.9764
X3.62Y-1.24
X3.62Y-1.29
X3.62Y-1.34
X3.62Y-1.39
X3.62Y-1.44
X3.62Y-1.49
X3.62Y-1.54
X3.62Y-1.59
X3.62Y-1.69
X3.626Y-3.0394
X3.626Y-3.5669
X3.626Y-3.7677
X3.6299Y-2.374
X3.6417Y-2.9764
X3.6417Y-3.5236
X3.6417Y-3.7992
X3.6457Y-3.0591
X3.6575Y-3.
X3.6575Y-3.1181
X3.6575Y-3.5669
X3.6575Y-3.7047
X3.6614Y-2.8622
X3.6654Y-3.0472
X3.6654Y-3.0945
X3.6654Y-4.0669
X3.6654Y-4.1339
X3.6693Y-3.1496
X3.67Y-1.24
X3.67Y-1.29
X3.67Y-1.34
X3.67Y-1.39
X3.67Y-1.44
X3.67Y-1.49
X3.67Y-1.54
X3.67Y-1.59
X3.67Y-1.69
X3.6732Y-3.5236
X3.6732Y-3.7205
X3.6732Y-3.7441
X3.689Y-2.8622
X3.6893Y-3.5473
X3.6927Y-3.8428
X3.6929Y-3.1772
X3.7008Y-2.9724
X3.7047Y-2.9291
X3.7089Y-3.8265
X3.7123Y-3.5473
X3.7165Y-2.8622
X3.7165Y-3.1969
X3.72Y-1.24
X3.72Y-1.29
X3.72Y-1.34
X3.72Y-1.39
X3.72Y-1.44
X3.72Y-1.49
X3.72Y-1.54
X3.72Y-1.59
X3.72Y-1.64
X3.72Y-1.69
X3.7224Y-2.3622
X3.7224Y-2.3858
X3.7283Y-3.5236
X3.7283Y-3.6496
X3.73Y-3.79
X3.7362Y-3.185
X3.7441Y-3.5472
X3.752Y-2.8622
X3.7562Y-3.185
X3.765Y-3.8
X3.7677Y-3.5118
X3.7677Y-2.9134
X3.7677Y-3.3858
X3.7677Y-3.4094
X3.7677Y-3.4331
X3.7677Y-3.4567
X3.7677Y-3.4882
X3.77Y-1.24
X3.77Y-1.29
X3.77Y-1.34
X3.77Y-1.39
X3.77Y-1.44
X3.77Y-1.49
X3.77Y-1.54
X3.77Y-1.59
X3.77Y-1.64
X3.77Y-1.69
X3.77Y-3.645
X3.7795Y-3.185
X3.7835Y-2.8976
X3.7835Y-3.2362
X3.7835Y-3.4724
X3.7992Y-2.9488
X3.7992Y-3.185
X3.8Y-3.78
X3.81Y-3.49
X3.815Y-3.5669
X3.815Y-3.605
X3.8189Y-3.3583
X3.82Y-1.24
X3.82Y-1.29
X3.82Y-1.34
X3.82Y-1.39
X3.82Y-1.44
X3.82Y-1.49
X3.82Y-1.54
X3.82Y-1.59
X3.82Y-1.69
X3.8346Y-2.937
X3.8346Y-3.2362
X3.8346Y-3.7244
X3.835Y-3.49
X3.835Y-3.665
X3.8386Y-2.5943
X3.8386Y-3.3898
X3.8388Y-2.7715
X3.8425Y-3.3583
X3.8543Y-2.8976
X3.8622Y-2.5943
X3.8622Y-2.7715
X3.8622Y-3.2402
X3.87Y-1.24
X3.87Y-1.29
X3.87Y-1.34
X3.87Y-1.39
X3.87Y-1.44
X3.87Y-1.49
X3.87Y-1.54
X3.87Y-1.59
X3.87Y-1.69
X3.87Y-1.715
X3.875Y-3.39
X3.875Y-3.49
X3.875Y-3.755
X3.88Y-1.795
X3.88Y-1.82
X3.8819Y-2.5472
X3.8898Y-3.2402
X3.8937Y-2.9291
X3.895Y-1.715
X3.895Y-3.8
X3.9016Y-4.1339
X3.905Y-3.48
X3.9094Y-2.9921
X3.9094Y-3.0394
X3.9094Y-3.0787
X3.9134Y-2.5118
X3.9134Y-3.3898
X3.915Y-3.8
X3.9173Y-2.8976
X3.92Y-1.24
X3.92Y-1.29
X3.92Y-1.34
X3.92Y-1.39
X3.92Y-1.44
X3.92Y-1.49
X3.92Y-1.54
X3.92Y-1.59
X3.92Y-1.64
X3.92Y-1.69
X3.9213Y-1.9646
X3.9213Y-1.9882
X3.9213Y-2.0276
X3.9213Y-2.0591
X3.9213Y-3.0197
X3.9213Y-3.0591
X3.9213Y-3.0984
X3.9252Y-3.5394
X3.93Y-3.48
X3.9331Y-3.2126
X3.9449Y-3.0669
X3.9488Y-2.937
X3.9528Y-2.8976
X3.9567Y-2.9961
X3.96Y-3.48
X3.9685Y-1.8307
X3.97Y-1.24
X3.97Y-1.29
X3.97Y-1.34
X3.97Y-1.39
X3.97Y-1.44
X3.97Y-1.49
X3.97Y-1.54
X3.97Y-1.59
X3.97Y-1.64
X3.97Y-1.69
X3.975Y-3.755
X3.9764Y-2.8386
X3.985Y-3.48
X3.9882Y-3.5433
X3.9889Y-1.8389
X3.995Y-3.8
X4.0118Y-3.5433
X4.015Y-3.725
X4.015Y-3.8
X4.0197Y-2.1142
X4.02Y-1.29
X4.02Y-1.34
X4.02Y-1.39
X4.02Y-1.49
X4.02Y-1.59
X4.02Y-1.69
X4.0315Y-4.0039
X4.0394Y-3.4921
X4.04Y-3.8
X4.04Y-3.85
X4.0454Y-2.1036
X4.06Y-3.52
X4.065Y-1.39
X4.0669Y-1.5906
X4.0748Y-1.7126
X4.08Y-3.575
X4.08Y-3.615
X4.0807Y-3.655
X4.0827Y-3.7244
X4.0827Y-3.9921
X4.0906Y-4.2244
X4.095Y-3.595
X4.095Y-3.635
X4.1024Y-3.2953
X4.105Y-3.68
X4.1181Y-3.3268
X4.1339Y-3.3425
X4.14Y-3.68
X4.1417Y-2.8071
X4.1417Y-3.6102
X4.1417Y-3.6457
X4.1457Y-2.8661
X4.1457Y-2.9252
X4.1496Y-1.7992
X4.1496Y-3.311
X4.1496Y-3.8583
X4.15Y-3.802
X4.15Y-3.828
X4.165Y-1.615
X4.1654Y-3.2795
X4.1654Y-3.5906
X4.1693Y-4.2244
X4.1803Y-3.7028
X4.1803Y-3.7288
X4.1803Y-3.88
X4.1803Y-3.906
X4.1811Y-3.7795
X4.1811Y-3.8543
X4.185Y-3.9409
X4.185Y-3.0669
X4.1969Y-3.6772
X4.2008Y-3.7638
X4.2008Y-3.7638
X4.215Y-1.545
X4.225Y-4.135
X4.2362Y-1.5276
X4.2677Y-3.9724
X4.27Y-1.545
X4.3Y-1.545
X4.3071Y-3.3386
X4.3071Y-4.0197
X4.31Y-1.765
X4.311Y-3.5588
X4.3268Y-2.8701
X4.33Y-1.545
X4.3307Y-3.9724
X4.3583Y-3.3386
X4.385Y-1.665
X4.3858Y-2.5512
X4.395Y-3.765
X4.405Y-3.825
X4.4055Y-4.2008
X4.4073Y-3.6247
X4.4134Y-2.6063
X4.42Y-3.845
X4.4213Y-3.315
X4.4252Y-2.4567
X4.4333Y-3.6247
X4.435Y-3.18
X4.4685Y-3.2835
X4.4803Y-1.6654
X4.4831Y-3.73
X4.4831Y-3.755
X4.485Y-3.63
X4.485Y-3.705
X4.485Y-3.78
X4.485Y-3.93
X4.485Y-4.005
X4.485Y-4.08
X4.5039Y-2.4882
X4.5039Y-2.5512
X4.5157Y-2.3504
X4.5157Y-2.374
X4.5157Y-2.4291
X4.5787Y-2.5236
X4.59Y-3.175
X4.59Y-3.2
X4.595Y-3.48
X4.595Y-3.555
X4.595Y-3.58
X4.595Y-3.605
X4.595Y-3.63
X4.595Y-3.655
X4.595Y-3.68
X4.595Y-3.705
X4.595Y-3.73
X4.595Y-3.755
X4.595Y-3.78
X4.595Y-3.805
X4.595Y-3.83
X4.595Y-3.88
X4.595Y-3.905
X4.595Y-3.93
X4.595Y-3.955
X4.595Y-3.98
X4.595Y-4.005
X4.595Y-4.03
X4.595Y-4.055
X4.595Y-4.08
X4.595Y-4.105
X4.6024Y-2.5236
X4.735Y-3.48
X4.735Y-3.505
X4.735Y-3.53
X4.735Y-3.555
X4.735Y-3.58
X4.735Y-3.605
X4.735Y-3.63
X4.735Y-3.655
X4.735Y-3.68
X4.735Y-3.705
X4.735Y-3.73
X4.735Y-3.755
X4.735Y-3.78
X4.735Y-3.805
X4.735Y-3.83
X4.735Y-3.855
X4.735Y-3.88
X4.735Y-3.905
X4.735Y-3.93
X4.735Y-3.955
X4.735Y-3.98
X4.735Y-4.005
X4.735Y-4.03
X4.735Y-4.055
X4.735Y-4.08
X4.735Y-4.105
X4.805Y-3.175
X4.8071Y-2.2362
X4.8307Y-2.3346
X4.8307Y-3.0748
X4.8307Y-3.1142
X4.8307Y-3.1378
X4.85Y-3.705
X4.85Y-3.63
X4.85Y-3.78
X4.85Y-3.855
X4.85Y-3.93
X4.85Y-4.005
X4.85Y-4.08
X4.8976Y-3.4685
X4.9134Y-2.0787
X4.915Y-3.617
X4.915Y-3.643
X4.915Y-3.767
X4.915Y-3.793
X4.915Y-3.917
X4.915Y-3.943
X4.9252Y-3.5354
X4.9252Y-3.5591
X4.9291Y-2.189
X4.9291Y-2.252
X4.9291Y-2.2795
X4.9291Y-2.311
X4.9291Y-2.4921
X4.9291Y-2.563
X4.9291Y-2.6457
X4.9331Y-2.2205
X4.935Y-3.685
T2
X1.3701Y-4.
X1.3701Y-4.0512
X1.3701Y-4.1024
X1.3701Y-4.2008
X1.4173Y-1.8701
X1.4173Y-2.2047
X1.5354Y-4.4843
X1.5551Y-2.7087
X1.5787Y-2.2717
X1.622Y-4.315
X1.6417Y-4.6181
X1.6575Y-2.7677
X1.6614Y-2.3189
X1.6693Y-4.3858
X1.6772Y-4.6181
X1.6969Y-4.3583
X1.6969Y-4.4764
X1.6969Y-4.6732
X1.7087Y-2.1732
X1.7165Y-2.3898
X1.7165Y-2.8701
X1.7402Y-3.9409
X1.7402Y-4.0748
X1.748Y-4.6102
X1.752Y-3.5945
X1.7559Y-1.9488
X1.7598Y-3.5512
X1.7598Y-3.8661
X1.7717Y-3.7283
X1.7717Y-3.9409
X1.7717Y-4.0748
X1.7874Y-1.7205
X1.8189Y-3.4488
X1.8189Y-3.4764
X1.8346Y-1.7205
X1.8386Y-4.1772
X1.8465Y-3.4488
X1.8465Y-3.4764
X1.8504Y-4.6102
X1.874Y-3.4488
X1.874Y-3.4764
X1.8976Y-2.1457
X1.9016Y-3.4488
X1.9016Y-3.4764
X1.9016Y-4.6732
X1.9213Y-4.6181
X1.9528Y-4.6181
X1.9803Y-3.1299
X1.9882Y-3.5945
X1.9882Y-3.685
X2.0197Y-3.8543
X2.07Y-1.34
X2.07Y-1.44
X2.07Y-1.54
X2.12Y-1.39
X2.12Y-1.49
X2.12Y-1.59
X2.1378Y-4.6181
X2.1496Y-4.4921
X2.17Y-1.54
X2.1732Y-4.6181
X2.1929Y-4.6732
X2.2008Y-4.4921
X2.2165Y-4.3898
X2.2205Y-4.0827
X2.2441Y-4.6102
X2.27Y-1.54
X2.2874Y-3.9488
X2.3465Y-4.6102
X2.3504Y-4.0945
X2.3583Y-4.4016
X2.3976Y-4.6732
X2.4173Y-4.6181
X2.4449Y-4.4685
X2.4528Y-4.6181
X2.5079Y-4.4685
X2.6063Y-2.4646
X2.6063Y-4.4961
X2.685Y-4.2756
X2.7244Y-4.2756
X2.878Y-4.0472
X2.878Y-4.0945
X2.8819Y-2.8189
X2.9094Y-4.0472
X2.9094Y-4.0945
X2.9213Y-2.8189
X2.9213Y-2.8976
X3.0394Y-2.8189
X3.0787Y-2.8189
X3.0787Y-2.8976
X3.1181Y-2.8189
X3.3937Y-3.9724
X3.3937Y-4.0197
X3.4252Y-3.9724
X3.4252Y-4.0197
X3.85Y-3.5432
X3.9449Y-3.185
X4.015Y-3.665
X4.0551Y-2.7205
X4.0669Y-2.4094
X4.0945Y-2.7205
X4.0984Y-3.0591
X4.0984Y-3.0866
X4.0984Y-3.1142
X4.0984Y-3.1417
X4.126Y-3.0591
X4.126Y-3.0866
X4.126Y-3.1142
X4.1267Y-3.1417
X4.1457Y-2.6299
X4.1457Y-2.7087
X4.1654Y-3.5591
X4.1732Y-2.4134
X4.1811Y-1.9724
X4.189Y-2.3898
X4.2008Y-2.4134
X4.2165Y-2.3898
X4.2205Y-1.9724
X4.2283Y-2.4134
X4.2362Y-1.8307
X4.252Y-2.6299
X4.252Y-2.7087
X4.2559Y-2.4134
X4.2717Y-3.4567
X4.2835Y-2.4134
X4.3071Y-3.4567
X4.311Y-1.8307
X4.311Y-2.4134
X4.3543Y-2.0118
X4.3543Y-2.122
X4.3819Y-2.0118
X4.3819Y-2.0394
X4.3819Y-2.0669
X4.3819Y-2.0945
X4.3819Y-2.122
X4.3858Y-2.6929
X4.3858Y-2.7205
X4.3858Y-2.748
X4.3858Y-2.7756
X4.4134Y-2.6929
X4.4134Y-2.7205
X4.4134Y-2.748
X4.4134Y-2.7756
X4.4134Y-3.5591
X4.4173Y-2.3543
X4.4213Y-2.2638
X4.4291Y-1.8937
X4.4291Y-1.9409
X4.4528Y-3.4567
X4.4724Y-2.2244
X4.4764Y-4.2008
X4.5276Y-1.5906
X4.5276Y-2.0472
X4.575Y-2.95
X4.6102Y-2.7323
X4.6102Y-2.7598
X4.615Y-3.855
X4.6378Y-2.7323
X4.6378Y-2.7598
X4.6378Y-3.3976
X4.6378Y-3.4252
X4.6378Y-3.4803
X4.6378Y-3.5551
X4.6378Y-3.7047
X4.6378Y-3.7795
X4.6378Y-3.9291
X4.6378Y-4.0039
X4.6378Y-4.0315
X4.6378Y-4.0591
X4.6378Y-4.1142
X4.6378Y-4.1417
X4.6378Y-4.1693
X4.6535Y-2.1929
X4.6654Y-2.7323
X4.6654Y-2.7598
X4.6654Y-3.3976
X4.6654Y-3.4252
X4.6654Y-4.1693
X4.6732Y-2.5276
X4.6732Y-2.5551
X4.685Y-2.1929
X4.6929Y-3.4803
X4.6929Y-2.7323
X4.6929Y-2.7598
X4.6929Y-3.3976
X4.6929Y-3.4252
X4.6929Y-3.5551
X4.6929Y-3.7047
X4.6929Y-3.7795
X4.6929Y-3.8543
X4.6929Y-4.0039
X4.6929Y-4.0315
X4.6929Y-4.1142
X4.6929Y-4.1417
X4.6929Y-3.9291
X4.6929Y-4.0591
X4.6929Y-4.1693
X4.7008Y-1.6457
X4.7008Y-1.6732
X4.7047Y-1.9094
X4.752Y-3.252
X4.811Y-1.7402
X4.811Y-1.7677
X4.811Y-1.7953
X4.811Y-1.8228
X4.8228Y-3.252
X4.8346Y-2.3889
X4.8346Y-2.4291
X4.8386Y-1.7402
X4.8386Y-1.7677
X4.8386Y-1.7953
X4.8386Y-1.8228
X4.8504Y-1.5906
X4.8504Y-2.0472
X4.8622Y-2.8504
X4.8622Y-2.878
X4.8622Y-2.9961
X4.905Y-3.73
X4.9094Y-2.8504
X4.9094Y-2.878
X4.9094Y-2.9961
X4.9331Y-2.3425
X4.9331Y-2.4606
T3
X2.2805Y-4.0433
X2.31Y-4.0433
X3.8307Y-2.626
X3.8307Y-2.6654
X3.8307Y-2.8031
X3.8307Y-2.8425
X3.8701Y-2.626
X3.8701Y-2.6654
X3.8701Y-2.8031
X3.8701Y-2.8425
X4.185Y-2.8937
X4.185Y-2.9331
X4.2244Y-2.8937
X4.2244Y-2.9331
X4.2435Y-1.6235
X4.2435Y-1.655
X4.2435Y-1.6865
X4.275Y-1.6235
X4.275Y-1.655
X4.275Y-1.6865
X4.2803Y-3.642
X4.2803Y-3.6912
X4.2803Y-3.7404
X4.2803Y-3.7896
X4.2803Y-3.8388
X4.2803Y-3.888
X4.3065Y-1.6235
X4.3065Y-1.655
X4.3065Y-1.6865
X4.3197Y-3.642
X4.3197Y-3.6912
X4.3197Y-3.7404
X4.3197Y-3.7896
X4.3197Y-3.8388
X4.3197Y-3.888
X4.6622Y-2.9629
X4.6622Y-2.9936
X4.6622Y-3.0243
X4.6622Y-3.055
X4.6622Y-3.0857
X4.6622Y-3.1164
X4.6622Y-3.1471
X4.7047Y-2.9629
X4.7047Y-2.9936
X4.7047Y-3.0243
X4.7047Y-3.055
X4.7047Y-3.0857
X4.7047Y-3.1164
X4.7047Y-3.1471
X4.7472Y-2.9629
X4.7472Y-2.9936
X4.7472Y-3.0243
X4.7472Y-3.055
X4.7472Y-3.0857
X4.7472Y-3.1164
X4.7472Y-3.1471
T4
X1.9311Y-4.3406
X1.9311Y-4.3898
X1.9311Y-4.439
X1.9803Y-4.3406
X1.9803Y-4.3898
X1.9803Y-4.439
X2.0295Y-4.3406
X2.0295Y-4.3898
X2.0295Y-4.439
X3.7559Y-3.0354
X3.7559Y-3.0984
X3.8189Y-3.0354
X3.8189Y-3.0984
X3.8955Y-3.6155
X3.8955Y-3.6745
X3.9545Y-3.6155
X3.9545Y-3.6745
X4.0394Y-3.1929
X4.1142Y-3.1929
X4.2205Y-3.1575
X4.2205Y-3.2205
X4.2205Y-3.2835
X4.2835Y-3.1575
X4.2835Y-3.2205
X4.2835Y-3.2835
X4.3465Y-3.1575
X4.3465Y-3.2205
X4.3465Y-3.2835
X4.5972Y-2.2862
X4.5972Y-2.3369
X4.5972Y-2.3875
X4.5972Y-2.4382
X4.6479Y-2.2862
X4.6479Y-2.3369
X4.6479Y-2.3875
X4.6479Y-2.4382
X4.6986Y-2.2862
X4.6986Y-2.3369
X4.6986Y-2.3875
X4.6986Y-2.4382
X4.7493Y-2.2862
X4.7493Y-2.3369
X4.7493Y-2.3875
X4.7493Y-2.4382
T6
X3.5324Y-4.2656
X3.5824Y-4.2254
X3.6087Y-3.9605
X3.6324Y-4.2656
X3.6487Y-3.9105
X3.6887Y-3.9605
X3.7287Y-3.9105
X3.7687Y-3.9605
X3.8087Y-3.9105
X3.8487Y-3.9605
X3.8887Y-3.9105
X3.9287Y-3.9605
X3.945Y-4.2656
X3.9687Y-3.9105
X3.995Y-4.2254
X4.045Y-4.2656
T7
X1.2441Y-4.0181
X1.2441Y-4.1181
X1.2441Y-4.2181
X1.64Y-1.665
X1.64Y-1.765
X1.64Y-2.
X1.64Y-2.1
X2.0472Y-4.5709
X2.0472Y-4.6709
T8
X1.2881Y-1.7066
X1.2881Y-1.805
X1.2881Y-1.9034
X1.2881Y-2.0416
X1.2881Y-2.14
X1.2881Y-2.2384
X1.2881Y-2.3766
X1.2881Y-2.475
X1.2881Y-2.5734
X1.2881Y-2.6719
X1.2881Y-2.7703
X1.2881Y-2.8687
X1.2881Y-2.9671
X1.2881Y-3.0656
X1.2881Y-3.2016
X1.2881Y-3.3
X1.2881Y-3.3984
X1.2881Y-3.4969
X1.2881Y-3.5953
X1.2881Y-3.6937
X1.2881Y-3.7921
X1.2881Y-3.8906
X1.485Y-1.7066
X1.485Y-1.805
X1.485Y-1.9034
X1.485Y-2.0416
X1.485Y-2.14
X1.485Y-2.2384
X1.485Y-2.3766
X1.485Y-2.475
X1.485Y-2.5734
X1.485Y-2.6719
X1.485Y-2.7703
X1.485Y-2.8687
X1.485Y-2.9671
X1.485Y-3.0656
X1.485Y-3.2016
X1.485Y-3.3
X1.485Y-3.3984
X1.485Y-3.4969
X1.485Y-3.5953
X1.485Y-3.6937
X1.485Y-3.7921
X1.485Y-3.8906
T9
X2.6339Y-4.6319
X2.6575Y-4.437
X3.2283Y-4.437
X3.252Y-4.6319
T10
X4.43Y-4.37
T11
X1.8289Y-1.3629
X4.3093Y-1.3629
T12
X1.3811Y-1.4811
X1.3811Y-4.3811
X4.7563Y-1.3811
X4.7563Y-4.5311
T5
X4.243Y-4.4645G85X4.243Y-4.4172
G05
X4.243Y-4.6495G85X4.243Y-4.6023
G05
X4.4733Y-4.6062G85X4.3867Y-4.6062
G05
X4.617Y-4.4645G85X4.617Y-4.4172
G05
X4.617Y-4.6495G85X4.617Y-4.6023
G05
T7
X3.3917Y-4.5613G85X3.3917Y-4.5849
G05
X4.1857Y-4.5613G85X4.1857Y-4.5849
G05
T0
M30
