G04 #@! TF.GenerationSoftware,KiCad,Pcbnew,5.0.2-bee76a0~70~ubuntu16.04.1*
G04 #@! TF.CreationDate,2020-05-07T16:47:39-03:00*
G04 #@! TF.ProjectId,FPGA para todos,46504741-2070-4617-9261-20746f646f73,1.2*
G04 #@! TF.SameCoordinates,Original*
G04 #@! TF.FileFunction,Legend,Top*
G04 #@! TF.FilePolarity,Positive*
%FSLAX46Y46*%
G04 Gerber Fmt 4.6, Leading zero omitted, Abs format (unit mm)*
G04 Created by KiCad (PCBNEW 5.0.2-bee76a0~70~ubuntu16.04.1) date jue 07 may 2020 16:47:39 -03*
%MOMM*%
%LPD*%
G01*
G04 APERTURE LIST*
%ADD10C,0.110000*%
%ADD11C,0.130000*%
%ADD12C,0.150000*%
%ADD13C,0.200000*%
%ADD14C,0.050000*%
%ADD15C,0.120000*%
%ADD16C,0.100000*%
%ADD17C,0.203200*%
%ADD18C,0.254000*%
G04 APERTURE END LIST*
D10*
X110938095Y-65257142D02*
X111547619Y-65257142D01*
X111928571Y-65257142D02*
X112538095Y-65257142D01*
X112919047Y-65257142D02*
X113528571Y-65257142D01*
X113909523Y-65257142D02*
X114519047Y-65257142D01*
X114899999Y-65257142D02*
X115509523Y-65257142D01*
X115890476Y-65257142D02*
X116499999Y-65257142D01*
X116880952Y-65257142D02*
X117490476Y-65257142D01*
X117871428Y-65257142D02*
X118480952Y-65257142D01*
X118861904Y-65257142D02*
X119471428Y-65257142D01*
X119852380Y-65257142D02*
X120461904Y-65257142D01*
X120842857Y-65257142D02*
X121452380Y-65257142D01*
X121833333Y-65257142D02*
X122442857Y-65257142D01*
X122823809Y-65257142D02*
X123433333Y-65257142D01*
X123814285Y-65257142D02*
X124423809Y-65257142D01*
X124804761Y-65257142D02*
X125414285Y-65257142D01*
X125795238Y-65257142D02*
X126404761Y-65257142D01*
X126785714Y-65257142D02*
X127395238Y-65257142D01*
X127776190Y-65257142D02*
X128385714Y-65257142D01*
X128766666Y-65257142D02*
X129376190Y-65257142D01*
X129757142Y-65257142D02*
X130366666Y-65257142D01*
X130747619Y-65257142D02*
X131357142Y-65257142D01*
X131738095Y-65257142D02*
X132347619Y-65257142D01*
X132728571Y-65257142D02*
X133338095Y-65257142D01*
X133719047Y-65257142D02*
X134328571Y-65257142D01*
X134709523Y-65257142D02*
X135319047Y-65257142D01*
X135699999Y-65257142D02*
X136309523Y-65257142D01*
X136690476Y-65257142D02*
X137299999Y-65257142D01*
X137680952Y-65257142D02*
X138290476Y-65257142D01*
X138671428Y-65257142D02*
X139280952Y-65257142D01*
X139661904Y-65257142D02*
X140271428Y-65257142D01*
X140652380Y-65257142D02*
X141261904Y-65257142D01*
X141642857Y-65257142D02*
X142252380Y-65257142D01*
X142633333Y-65257142D02*
X143242857Y-65257142D01*
X143623809Y-65257142D02*
X144233333Y-65257142D01*
X144614285Y-65257142D02*
X145223809Y-65257142D01*
X145604761Y-65257142D02*
X146214285Y-65257142D01*
X146595238Y-65257142D02*
X147204761Y-65257142D01*
X147585714Y-65257142D02*
X148195238Y-65257142D01*
X148576190Y-65257142D02*
X149185714Y-65257142D01*
X149566666Y-65257142D02*
X150176190Y-65257142D01*
X150557142Y-65257142D02*
X151166666Y-65257142D01*
X151547619Y-65257142D02*
X152157142Y-65257142D01*
X152538095Y-65257142D02*
X153147619Y-65257142D01*
X153528571Y-65257142D02*
X154138095Y-65257142D01*
X154519047Y-65257142D02*
X155128571Y-65257142D01*
X155509523Y-65257142D02*
X156119047Y-65257142D01*
X156500000Y-65257142D02*
X157109523Y-65257142D01*
X157490476Y-65257142D02*
X158100000Y-65257142D01*
X158480952Y-65257142D02*
X159090476Y-65257142D01*
X159471428Y-65257142D02*
X160080952Y-65257142D01*
X160461904Y-65257142D02*
X161071428Y-65257142D01*
X161452380Y-65257142D02*
X162061904Y-65257142D01*
X160600000Y-65966428D02*
X160142857Y-66137857D01*
X160600000Y-66309285D01*
X160885714Y-66137857D02*
X161342857Y-66137857D01*
X161600000Y-66195000D02*
X161885714Y-66195000D01*
X161542857Y-66366428D02*
X161742857Y-65766428D01*
X161942857Y-66366428D01*
X162142857Y-66366428D02*
X162142857Y-65966428D01*
X162142857Y-66080714D02*
X162171428Y-66023571D01*
X162200000Y-65995000D01*
X162257142Y-65966428D01*
X162314285Y-65966428D01*
X162771428Y-66366428D02*
X162771428Y-65766428D01*
X162771428Y-66337857D02*
X162714285Y-66366428D01*
X162600000Y-66366428D01*
X162542857Y-66337857D01*
X162514285Y-66309285D01*
X162485714Y-66252142D01*
X162485714Y-66080714D01*
X162514285Y-66023571D01*
X162542857Y-65995000D01*
X162600000Y-65966428D01*
X162714285Y-65966428D01*
X162771428Y-65995000D01*
X163057142Y-66309285D02*
X163085714Y-66337857D01*
X163057142Y-66366428D01*
X163028571Y-66337857D01*
X163057142Y-66309285D01*
X163057142Y-66366428D01*
X160800000Y-67347857D02*
X160742857Y-67376428D01*
X160628571Y-67376428D01*
X160571428Y-67347857D01*
X160542857Y-67319285D01*
X160514285Y-67262142D01*
X160514285Y-67090714D01*
X160542857Y-67033571D01*
X160571428Y-67005000D01*
X160628571Y-66976428D01*
X160742857Y-66976428D01*
X160800000Y-67005000D01*
X161142857Y-67376428D02*
X161085714Y-67347857D01*
X161057142Y-67319285D01*
X161028571Y-67262142D01*
X161028571Y-67090714D01*
X161057142Y-67033571D01*
X161085714Y-67005000D01*
X161142857Y-66976428D01*
X161228571Y-66976428D01*
X161285714Y-67005000D01*
X161314285Y-67033571D01*
X161342857Y-67090714D01*
X161342857Y-67262142D01*
X161314285Y-67319285D01*
X161285714Y-67347857D01*
X161228571Y-67376428D01*
X161142857Y-67376428D01*
X161600000Y-67376428D02*
X161600000Y-66976428D01*
X161600000Y-67033571D02*
X161628571Y-67005000D01*
X161685714Y-66976428D01*
X161771428Y-66976428D01*
X161828571Y-67005000D01*
X161857142Y-67062142D01*
X161857142Y-67376428D01*
X161857142Y-67062142D02*
X161885714Y-67005000D01*
X161942857Y-66976428D01*
X162028571Y-66976428D01*
X162085714Y-67005000D01*
X162114285Y-67062142D01*
X162114285Y-67376428D01*
X162400000Y-66976428D02*
X162400000Y-67576428D01*
X162400000Y-67005000D02*
X162457142Y-66976428D01*
X162571428Y-66976428D01*
X162628571Y-67005000D01*
X162657142Y-67033571D01*
X162685714Y-67090714D01*
X162685714Y-67262142D01*
X162657142Y-67319285D01*
X162628571Y-67347857D01*
X162571428Y-67376428D01*
X162457142Y-67376428D01*
X162400000Y-67347857D01*
D11*
X164385714Y-68571428D02*
X164042857Y-68571428D01*
X164214285Y-68571428D02*
X164214285Y-67971428D01*
X164157142Y-68057142D01*
X164100000Y-68114285D01*
X164042857Y-68142857D01*
X164642857Y-68514285D02*
X164671428Y-68542857D01*
X164642857Y-68571428D01*
X164614285Y-68542857D01*
X164642857Y-68514285D01*
X164642857Y-68571428D01*
X164900000Y-68028571D02*
X164928571Y-68000000D01*
X164985714Y-67971428D01*
X165128571Y-67971428D01*
X165185714Y-68000000D01*
X165214285Y-68028571D01*
X165242857Y-68085714D01*
X165242857Y-68142857D01*
X165214285Y-68228571D01*
X164871428Y-68571428D01*
X165242857Y-68571428D01*
X165414285Y-67971428D02*
X165614285Y-68571428D01*
X165814285Y-67971428D01*
X176964285Y-77421428D02*
X177335714Y-77421428D01*
X177135714Y-77650000D01*
X177221428Y-77650000D01*
X177278571Y-77678571D01*
X177307142Y-77707142D01*
X177335714Y-77764285D01*
X177335714Y-77907142D01*
X177307142Y-77964285D01*
X177278571Y-77992857D01*
X177221428Y-78021428D01*
X177050000Y-78021428D01*
X176992857Y-77992857D01*
X176964285Y-77964285D01*
X177592857Y-77964285D02*
X177621428Y-77992857D01*
X177592857Y-78021428D01*
X177564285Y-77992857D01*
X177592857Y-77964285D01*
X177592857Y-78021428D01*
X177821428Y-77421428D02*
X178192857Y-77421428D01*
X177992857Y-77650000D01*
X178078571Y-77650000D01*
X178135714Y-77678571D01*
X178164285Y-77707142D01*
X178192857Y-77764285D01*
X178192857Y-77907142D01*
X178164285Y-77964285D01*
X178135714Y-77992857D01*
X178078571Y-78021428D01*
X177907142Y-78021428D01*
X177850000Y-77992857D01*
X177821428Y-77964285D01*
X178364285Y-77421428D02*
X178564285Y-78021428D01*
X178764285Y-77421428D01*
X178635714Y-90971428D02*
X178350000Y-90971428D01*
X178321428Y-91257142D01*
X178350000Y-91228571D01*
X178407142Y-91200000D01*
X178550000Y-91200000D01*
X178607142Y-91228571D01*
X178635714Y-91257142D01*
X178664285Y-91314285D01*
X178664285Y-91457142D01*
X178635714Y-91514285D01*
X178607142Y-91542857D01*
X178550000Y-91571428D01*
X178407142Y-91571428D01*
X178350000Y-91542857D01*
X178321428Y-91514285D01*
X178835714Y-90971428D02*
X179035714Y-91571428D01*
X179235714Y-90971428D01*
X173942857Y-120100000D02*
X173885714Y-120071428D01*
X173800000Y-120071428D01*
X173714285Y-120100000D01*
X173657142Y-120157142D01*
X173628571Y-120214285D01*
X173600000Y-120328571D01*
X173600000Y-120414285D01*
X173628571Y-120528571D01*
X173657142Y-120585714D01*
X173714285Y-120642857D01*
X173800000Y-120671428D01*
X173857142Y-120671428D01*
X173942857Y-120642857D01*
X173971428Y-120614285D01*
X173971428Y-120414285D01*
X173857142Y-120414285D01*
X174228571Y-120671428D02*
X174228571Y-120071428D01*
X174571428Y-120671428D01*
X174571428Y-120071428D01*
X174857142Y-120671428D02*
X174857142Y-120071428D01*
X175000000Y-120071428D01*
X175085714Y-120100000D01*
X175142857Y-120157142D01*
X175171428Y-120214285D01*
X175200000Y-120328571D01*
X175200000Y-120414285D01*
X175171428Y-120528571D01*
X175142857Y-120585714D01*
X175085714Y-120642857D01*
X175000000Y-120671428D01*
X174857142Y-120671428D01*
D12*
X108352380Y-71261904D02*
X108200000Y-71261904D01*
X108123809Y-71300000D01*
X108085714Y-71338095D01*
X108009523Y-71452380D01*
X107971428Y-71604761D01*
X107971428Y-71909523D01*
X108009523Y-71985714D01*
X108047619Y-72023809D01*
X108123809Y-72061904D01*
X108276190Y-72061904D01*
X108352380Y-72023809D01*
X108390476Y-71985714D01*
X108428571Y-71909523D01*
X108428571Y-71719047D01*
X108390476Y-71642857D01*
X108352380Y-71604761D01*
X108276190Y-71566666D01*
X108123809Y-71566666D01*
X108047619Y-71604761D01*
X108009523Y-71642857D01*
X107971428Y-71719047D01*
X108252380Y-94111904D02*
X108100000Y-94111904D01*
X108023809Y-94150000D01*
X107985714Y-94188095D01*
X107909523Y-94302380D01*
X107871428Y-94454761D01*
X107871428Y-94759523D01*
X107909523Y-94835714D01*
X107947619Y-94873809D01*
X108023809Y-94911904D01*
X108176190Y-94911904D01*
X108252380Y-94873809D01*
X108290476Y-94835714D01*
X108328571Y-94759523D01*
X108328571Y-94569047D01*
X108290476Y-94492857D01*
X108252380Y-94454761D01*
X108176190Y-94416666D01*
X108023809Y-94416666D01*
X107947619Y-94454761D01*
X107909523Y-94492857D01*
X107871428Y-94569047D01*
X108428571Y-84761904D02*
X107971428Y-84761904D01*
X108200000Y-84761904D02*
X108200000Y-83961904D01*
X108123809Y-84076190D01*
X108047619Y-84152380D01*
X107971428Y-84190476D01*
X108328571Y-107561904D02*
X107871428Y-107561904D01*
X108100000Y-107561904D02*
X108100000Y-106761904D01*
X108023809Y-106876190D01*
X107947619Y-106952380D01*
X107871428Y-106990476D01*
X123001904Y-118078571D02*
X122201904Y-118078571D01*
X123001904Y-117621428D01*
X122201904Y-117621428D01*
X122925714Y-116783333D02*
X122963809Y-116821428D01*
X123001904Y-116935714D01*
X123001904Y-117011904D01*
X122963809Y-117126190D01*
X122887619Y-117202380D01*
X122811428Y-117240476D01*
X122659047Y-117278571D01*
X122544761Y-117278571D01*
X122392380Y-117240476D01*
X122316190Y-117202380D01*
X122240000Y-117126190D01*
X122201904Y-117011904D01*
X122201904Y-116935714D01*
X122240000Y-116821428D01*
X122278095Y-116783333D01*
X139981904Y-117502380D02*
X139981904Y-117883333D01*
X140362857Y-117921428D01*
X140324761Y-117883333D01*
X140286666Y-117807142D01*
X140286666Y-117616666D01*
X140324761Y-117540476D01*
X140362857Y-117502380D01*
X140439047Y-117464285D01*
X140629523Y-117464285D01*
X140705714Y-117502380D01*
X140743809Y-117540476D01*
X140781904Y-117616666D01*
X140781904Y-117807142D01*
X140743809Y-117883333D01*
X140705714Y-117921428D01*
X139981904Y-117235714D02*
X140781904Y-116969047D01*
X139981904Y-116702380D01*
X137480000Y-118409523D02*
X137441904Y-118485714D01*
X137441904Y-118600000D01*
X137480000Y-118714285D01*
X137556190Y-118790476D01*
X137632380Y-118828571D01*
X137784761Y-118866666D01*
X137899047Y-118866666D01*
X138051428Y-118828571D01*
X138127619Y-118790476D01*
X138203809Y-118714285D01*
X138241904Y-118600000D01*
X138241904Y-118523809D01*
X138203809Y-118409523D01*
X138165714Y-118371428D01*
X137899047Y-118371428D01*
X137899047Y-118523809D01*
X138241904Y-118028571D02*
X137441904Y-118028571D01*
X138241904Y-117571428D01*
X137441904Y-117571428D01*
X138241904Y-117190476D02*
X137441904Y-117190476D01*
X137441904Y-117000000D01*
X137480000Y-116885714D01*
X137556190Y-116809523D01*
X137632380Y-116771428D01*
X137784761Y-116733333D01*
X137899047Y-116733333D01*
X138051428Y-116771428D01*
X138127619Y-116809523D01*
X138203809Y-116885714D01*
X138241904Y-117000000D01*
X138241904Y-117190476D01*
X134940000Y-118409523D02*
X134901904Y-118485714D01*
X134901904Y-118600000D01*
X134940000Y-118714285D01*
X135016190Y-118790476D01*
X135092380Y-118828571D01*
X135244761Y-118866666D01*
X135359047Y-118866666D01*
X135511428Y-118828571D01*
X135587619Y-118790476D01*
X135663809Y-118714285D01*
X135701904Y-118600000D01*
X135701904Y-118523809D01*
X135663809Y-118409523D01*
X135625714Y-118371428D01*
X135359047Y-118371428D01*
X135359047Y-118523809D01*
X135701904Y-118028571D02*
X134901904Y-118028571D01*
X135701904Y-117571428D01*
X134901904Y-117571428D01*
X135701904Y-117190476D02*
X134901904Y-117190476D01*
X134901904Y-117000000D01*
X134940000Y-116885714D01*
X135016190Y-116809523D01*
X135092380Y-116771428D01*
X135244761Y-116733333D01*
X135359047Y-116733333D01*
X135511428Y-116771428D01*
X135587619Y-116809523D01*
X135663809Y-116885714D01*
X135701904Y-117000000D01*
X135701904Y-117190476D01*
X132361904Y-117552380D02*
X132361904Y-117933333D01*
X132742857Y-117971428D01*
X132704761Y-117933333D01*
X132666666Y-117857142D01*
X132666666Y-117666666D01*
X132704761Y-117590476D01*
X132742857Y-117552380D01*
X132819047Y-117514285D01*
X133009523Y-117514285D01*
X133085714Y-117552380D01*
X133123809Y-117590476D01*
X133161904Y-117666666D01*
X133161904Y-117857142D01*
X133123809Y-117933333D01*
X133085714Y-117971428D01*
X132361904Y-117285714D02*
X133161904Y-117019047D01*
X132361904Y-116752380D01*
X129821904Y-119130952D02*
X129821904Y-118635714D01*
X130126666Y-118902380D01*
X130126666Y-118788095D01*
X130164761Y-118711904D01*
X130202857Y-118673809D01*
X130279047Y-118635714D01*
X130469523Y-118635714D01*
X130545714Y-118673809D01*
X130583809Y-118711904D01*
X130621904Y-118788095D01*
X130621904Y-119016666D01*
X130583809Y-119092857D01*
X130545714Y-119130952D01*
X130545714Y-118292857D02*
X130583809Y-118254761D01*
X130621904Y-118292857D01*
X130583809Y-118330952D01*
X130545714Y-118292857D01*
X130621904Y-118292857D01*
X129821904Y-117988095D02*
X129821904Y-117492857D01*
X130126666Y-117759523D01*
X130126666Y-117645238D01*
X130164761Y-117569047D01*
X130202857Y-117530952D01*
X130279047Y-117492857D01*
X130469523Y-117492857D01*
X130545714Y-117530952D01*
X130583809Y-117569047D01*
X130621904Y-117645238D01*
X130621904Y-117873809D01*
X130583809Y-117950000D01*
X130545714Y-117988095D01*
X129821904Y-117264285D02*
X130621904Y-116997619D01*
X129821904Y-116730952D01*
X128081904Y-118238095D02*
X127700952Y-118504761D01*
X128081904Y-118695238D02*
X127281904Y-118695238D01*
X127281904Y-118390476D01*
X127320000Y-118314285D01*
X127358095Y-118276190D01*
X127434285Y-118238095D01*
X127548571Y-118238095D01*
X127624761Y-118276190D01*
X127662857Y-118314285D01*
X127700952Y-118390476D01*
X127700952Y-118695238D01*
X128043809Y-117933333D02*
X128081904Y-117819047D01*
X128081904Y-117628571D01*
X128043809Y-117552380D01*
X128005714Y-117514285D01*
X127929523Y-117476190D01*
X127853333Y-117476190D01*
X127777142Y-117514285D01*
X127739047Y-117552380D01*
X127700952Y-117628571D01*
X127662857Y-117780952D01*
X127624761Y-117857142D01*
X127586666Y-117895238D01*
X127510476Y-117933333D01*
X127434285Y-117933333D01*
X127358095Y-117895238D01*
X127320000Y-117857142D01*
X127281904Y-117780952D01*
X127281904Y-117590476D01*
X127320000Y-117476190D01*
X127281904Y-117247619D02*
X127281904Y-116790476D01*
X128081904Y-117019047D02*
X127281904Y-117019047D01*
X124741904Y-117502380D02*
X124741904Y-117883333D01*
X125122857Y-117921428D01*
X125084761Y-117883333D01*
X125046666Y-117807142D01*
X125046666Y-117616666D01*
X125084761Y-117540476D01*
X125122857Y-117502380D01*
X125199047Y-117464285D01*
X125389523Y-117464285D01*
X125465714Y-117502380D01*
X125503809Y-117540476D01*
X125541904Y-117616666D01*
X125541904Y-117807142D01*
X125503809Y-117883333D01*
X125465714Y-117921428D01*
X124741904Y-117235714D02*
X125541904Y-116969047D01*
X124741904Y-116702380D01*
D13*
X161494975Y-93450000D02*
G75*
G03X161494975Y-93450000I-494975J0D01*
G01*
X138670088Y-112200000D02*
G75*
G03X138670088Y-112200000I-570088J0D01*
G01*
X153930116Y-102850000D02*
G75*
G03X153930116Y-102850000I-430116J0D01*
G01*
D12*
X116409523Y-117983333D02*
X116790476Y-117983333D01*
X116333333Y-118211904D02*
X116600000Y-117411904D01*
X116866666Y-118211904D01*
X113009523Y-117983333D02*
X113390476Y-117983333D01*
X112933333Y-118211904D02*
X113200000Y-117411904D01*
X113466666Y-118211904D01*
X109609523Y-117983333D02*
X109990476Y-117983333D01*
X109533333Y-118211904D02*
X109800000Y-117411904D01*
X110066666Y-118211904D01*
X106209523Y-117983333D02*
X106590476Y-117983333D01*
X106133333Y-118211904D02*
X106400000Y-117411904D01*
X106666666Y-118211904D01*
X133845238Y-97157142D02*
X134454761Y-97157142D01*
X134150000Y-97461904D02*
X134150000Y-96852380D01*
X157945238Y-72407142D02*
X158554761Y-72407142D01*
X158250000Y-72711904D02*
X158250000Y-72102380D01*
X143445238Y-104007142D02*
X144054761Y-104007142D01*
X143750000Y-104311904D02*
X143750000Y-103702380D01*
X148545238Y-101307142D02*
X149154761Y-101307142D01*
X148850000Y-101611904D02*
X148850000Y-101002380D01*
X173595238Y-66157142D02*
X174204761Y-66157142D01*
X173900000Y-66461904D02*
X173900000Y-65852380D01*
X174895238Y-74807142D02*
X175504761Y-74807142D01*
X175200000Y-75111904D02*
X175200000Y-74502380D01*
X173295238Y-82657142D02*
X173904761Y-82657142D01*
X173600000Y-82961904D02*
X173600000Y-82352380D01*
X170595238Y-90757142D02*
X171204761Y-90757142D01*
X170900000Y-91061904D02*
X170900000Y-90452380D01*
X168909523Y-98083333D02*
X169290476Y-98083333D01*
X168833333Y-98311904D02*
X169100000Y-97511904D01*
X169366666Y-98311904D01*
D11*
X150840476Y-118923809D02*
X150954761Y-118961904D01*
X151145238Y-118961904D01*
X151221428Y-118923809D01*
X151259523Y-118885714D01*
X151297619Y-118809523D01*
X151297619Y-118733333D01*
X151259523Y-118657142D01*
X151221428Y-118619047D01*
X151145238Y-118580952D01*
X150992857Y-118542857D01*
X150916666Y-118504761D01*
X150878571Y-118466666D01*
X150840476Y-118390476D01*
X150840476Y-118314285D01*
X150878571Y-118238095D01*
X150916666Y-118200000D01*
X150992857Y-118161904D01*
X151183333Y-118161904D01*
X151297619Y-118200000D01*
X151602380Y-118923809D02*
X151716666Y-118961904D01*
X151907142Y-118961904D01*
X151983333Y-118923809D01*
X152021428Y-118885714D01*
X152059523Y-118809523D01*
X152059523Y-118733333D01*
X152021428Y-118657142D01*
X151983333Y-118619047D01*
X151907142Y-118580952D01*
X151754761Y-118542857D01*
X151678571Y-118504761D01*
X151640476Y-118466666D01*
X151602380Y-118390476D01*
X151602380Y-118314285D01*
X151640476Y-118238095D01*
X151678571Y-118200000D01*
X151754761Y-118161904D01*
X151945238Y-118161904D01*
X152059523Y-118200000D01*
X151000000Y-114561904D02*
X151000000Y-113761904D01*
X151190476Y-113761904D01*
X151304761Y-113800000D01*
X151380952Y-113876190D01*
X151419047Y-113952380D01*
X151457142Y-114104761D01*
X151457142Y-114219047D01*
X151419047Y-114371428D01*
X151380952Y-114447619D01*
X151304761Y-114523809D01*
X151190476Y-114561904D01*
X151000000Y-114561904D01*
X151800000Y-114561904D02*
X151800000Y-113761904D01*
X150808571Y-116711904D02*
X150808571Y-115911904D01*
X151018095Y-115911904D01*
X151143809Y-115950000D01*
X151227619Y-116026190D01*
X151269523Y-116102380D01*
X151311428Y-116254761D01*
X151311428Y-116369047D01*
X151269523Y-116521428D01*
X151227619Y-116597619D01*
X151143809Y-116673809D01*
X151018095Y-116711904D01*
X150808571Y-116711904D01*
X151856190Y-115911904D02*
X152023809Y-115911904D01*
X152107619Y-115950000D01*
X152191428Y-116026190D01*
X152233333Y-116178571D01*
X152233333Y-116445238D01*
X152191428Y-116597619D01*
X152107619Y-116673809D01*
X152023809Y-116711904D01*
X151856190Y-116711904D01*
X151772380Y-116673809D01*
X151688571Y-116597619D01*
X151646666Y-116445238D01*
X151646666Y-116178571D01*
X151688571Y-116026190D01*
X151772380Y-115950000D01*
X151856190Y-115911904D01*
X150921428Y-112673809D02*
X151035714Y-112711904D01*
X151226190Y-112711904D01*
X151302380Y-112673809D01*
X151340476Y-112635714D01*
X151378571Y-112559523D01*
X151378571Y-112483333D01*
X151340476Y-112407142D01*
X151302380Y-112369047D01*
X151226190Y-112330952D01*
X151073809Y-112292857D01*
X150997619Y-112254761D01*
X150959523Y-112216666D01*
X150921428Y-112140476D01*
X150921428Y-112064285D01*
X150959523Y-111988095D01*
X150997619Y-111950000D01*
X151073809Y-111911904D01*
X151264285Y-111911904D01*
X151378571Y-111950000D01*
X151721428Y-112711904D02*
X151721428Y-111911904D01*
X152178571Y-112711904D02*
X151835714Y-112254761D01*
X152178571Y-111911904D02*
X151721428Y-112369047D01*
D12*
X178169047Y-95521428D02*
X178930952Y-95521428D01*
X178550000Y-95902380D02*
X178550000Y-95140476D01*
D14*
G04 #@! TO.C,J1*
X176725000Y-113950000D02*
X176725000Y-106550000D01*
X179825000Y-113950000D02*
X179825000Y-106550000D01*
X177400000Y-113950000D02*
X175375000Y-113950000D01*
X181125000Y-113950000D02*
X179600000Y-113950000D01*
X175375000Y-106550000D02*
X175375000Y-107250000D01*
X177400000Y-106550000D02*
X175375000Y-106550000D01*
X181125000Y-106550000D02*
X179600000Y-106550000D01*
X175375000Y-113950000D02*
X175375000Y-113250000D01*
X181125000Y-113950000D02*
X181125000Y-106550000D01*
G04 #@! TO.C,X1*
X154316228Y-89350000D02*
G75*
G03X154316228Y-89350000I-316228J0D01*
G01*
X158200000Y-90050000D02*
X154400000Y-90050000D01*
X158200000Y-87050000D02*
X158200000Y-90050000D01*
X154400000Y-87050000D02*
X158200000Y-87050000D01*
X154400000Y-90050000D02*
X154400000Y-87050000D01*
D15*
G04 #@! TO.C,J5*
X101930612Y-85730000D02*
X104530612Y-85730000D01*
X101930612Y-85730000D02*
X101930612Y-70370000D01*
X101930612Y-70370000D02*
X107130612Y-70370000D01*
X107130612Y-83130000D02*
X107130612Y-70370000D01*
X104530612Y-83130000D02*
X107130612Y-83130000D01*
X104530612Y-85730000D02*
X104530612Y-83130000D01*
X107130612Y-85730000D02*
X107130612Y-84400000D01*
X105800612Y-85730000D02*
X107130612Y-85730000D01*
G04 #@! TO.C,J6*
X101930612Y-108580000D02*
X104530612Y-108580000D01*
X101930612Y-108580000D02*
X101930612Y-93220000D01*
X101930612Y-93220000D02*
X107130612Y-93220000D01*
X107130612Y-105980000D02*
X107130612Y-93220000D01*
X104530612Y-105980000D02*
X107130612Y-105980000D01*
X104530612Y-108580000D02*
X104530612Y-105980000D01*
X107130612Y-108580000D02*
X107130612Y-107250000D01*
X105800612Y-108580000D02*
X107130612Y-108580000D01*
D16*
G04 #@! TO.C,U3*
X130600000Y-73500000D02*
G75*
G03X130600000Y-73500000I-500000J0D01*
G01*
D17*
X151100000Y-73500000D02*
X150300000Y-73500000D01*
X151100000Y-73500000D02*
X151100000Y-74300000D01*
X151100000Y-93500000D02*
X151100000Y-92700000D01*
X151100000Y-93500000D02*
X150300000Y-93500000D01*
X131100000Y-93500000D02*
X131900000Y-93500000D01*
X131100000Y-93500000D02*
X131100000Y-92700000D01*
X131100000Y-73500000D02*
X131100000Y-74300000D01*
X131100000Y-73500000D02*
X131900000Y-73500000D01*
D18*
X133350000Y-74999900D02*
G75*
G03X133350000Y-74999900I-750100J0D01*
G01*
D15*
G04 #@! TO.C,R36*
X160510000Y-89611252D02*
X160510000Y-89088748D01*
X159090000Y-89611252D02*
X159090000Y-89088748D01*
G04 #@! TO.C,C57*
X164127496Y-83575000D02*
X164650000Y-83575000D01*
X164125000Y-85125000D02*
X164647504Y-85125000D01*
G04 #@! TO.C,C33*
X152325000Y-70977496D02*
X152325000Y-71500000D01*
X150775000Y-70975000D02*
X150775000Y-71497504D01*
G04 #@! TO.C,J3*
X159530000Y-62630000D02*
X159530000Y-63960000D01*
X159530000Y-62630000D02*
X158120000Y-62630000D01*
X159530000Y-65230000D02*
X156930000Y-65230000D01*
X156930000Y-62630000D02*
X156930000Y-65230000D01*
X159530000Y-67830000D02*
X139090000Y-67830000D01*
X139090000Y-62630000D02*
X139090000Y-67830000D01*
X156930000Y-62630000D02*
X139090000Y-62630000D01*
X159530000Y-65230000D02*
X159530000Y-67830000D01*
G04 #@! TO.C,C1*
X173975000Y-99172504D02*
X173975000Y-98650000D01*
X175525000Y-99175000D02*
X175525000Y-98652496D01*
G04 #@! TO.C,C2*
X175475000Y-94177496D02*
X175475000Y-94700000D01*
X173925000Y-94175000D02*
X173925000Y-94697504D01*
G04 #@! TO.C,C5*
X172597504Y-79275000D02*
X172075000Y-79275000D01*
X172600000Y-77725000D02*
X172077496Y-77725000D01*
G04 #@! TO.C,C8*
X122772504Y-84525000D02*
X122250000Y-84525000D01*
X122775000Y-82975000D02*
X122252496Y-82975000D01*
G04 #@! TO.C,C9*
X122675000Y-90827496D02*
X122675000Y-91350000D01*
X121125000Y-90825000D02*
X121125000Y-91347504D01*
G04 #@! TO.C,C10*
X122675000Y-98827496D02*
X122675000Y-99350000D01*
X121125000Y-98825000D02*
X121125000Y-99347504D01*
G04 #@! TO.C,C11*
X122675000Y-106902496D02*
X122675000Y-107425000D01*
X121125000Y-106900000D02*
X121125000Y-107422504D01*
G04 #@! TO.C,C13*
X146372504Y-99775000D02*
X145850000Y-99775000D01*
X146375000Y-98225000D02*
X145852496Y-98225000D01*
G04 #@! TO.C,C15*
X141272504Y-102925000D02*
X140750000Y-102925000D01*
X141275000Y-101375000D02*
X140752496Y-101375000D01*
G04 #@! TO.C,C16*
X165677496Y-100075000D02*
X166200000Y-100075000D01*
X165675000Y-101625000D02*
X166197504Y-101625000D01*
G04 #@! TO.C,C17*
X167175000Y-105822504D02*
X167175000Y-105300000D01*
X168725000Y-105825000D02*
X168725000Y-105302496D01*
G04 #@! TO.C,C18*
X160427496Y-98875000D02*
X160950000Y-98875000D01*
X160425000Y-100425000D02*
X160947504Y-100425000D01*
G04 #@! TO.C,C19*
X153375000Y-100077496D02*
X153375000Y-100600000D01*
X151825000Y-100075000D02*
X151825000Y-100597504D01*
G04 #@! TO.C,C20*
X168725000Y-109677496D02*
X168725000Y-110200000D01*
X167175000Y-109675000D02*
X167175000Y-110197504D01*
G04 #@! TO.C,C21*
X168875000Y-117077496D02*
X168875000Y-117600000D01*
X167325000Y-117075000D02*
X167325000Y-117597504D01*
G04 #@! TO.C,C22*
X171275000Y-117077496D02*
X171275000Y-117600000D01*
X169725000Y-117075000D02*
X169725000Y-117597504D01*
G04 #@! TO.C,C23*
X149972504Y-110125000D02*
X149450000Y-110125000D01*
X149975000Y-108575000D02*
X149452496Y-108575000D01*
G04 #@! TO.C,C24*
X156277496Y-84975000D02*
X156800000Y-84975000D01*
X156275000Y-86525000D02*
X156797504Y-86525000D01*
G04 #@! TO.C,C25*
X126375000Y-110422504D02*
X126375000Y-109900000D01*
X127925000Y-110425000D02*
X127925000Y-109902496D01*
G04 #@! TO.C,C26*
X123975000Y-110422504D02*
X123975000Y-109900000D01*
X125525000Y-110425000D02*
X125525000Y-109902496D01*
G04 #@! TO.C,C27*
X156177496Y-90525000D02*
X156700000Y-90525000D01*
X156175000Y-92075000D02*
X156697504Y-92075000D01*
G04 #@! TO.C,C28*
X156177496Y-92925000D02*
X156700000Y-92925000D01*
X156175000Y-94475000D02*
X156697504Y-94475000D01*
G04 #@! TO.C,C29*
X116975000Y-72322504D02*
X116975000Y-71800000D01*
X118525000Y-72325000D02*
X118525000Y-71802496D01*
G04 #@! TO.C,C30*
X114575000Y-72322504D02*
X114575000Y-71800000D01*
X116125000Y-72325000D02*
X116125000Y-71802496D01*
G04 #@! TO.C,C31*
X112175000Y-72322504D02*
X112175000Y-71800000D01*
X113725000Y-72325000D02*
X113725000Y-71802496D01*
G04 #@! TO.C,C32*
X109775000Y-72322504D02*
X109775000Y-71800000D01*
X111325000Y-72325000D02*
X111325000Y-71802496D01*
G04 #@! TO.C,C34*
X122375000Y-72322504D02*
X122375000Y-71800000D01*
X123925000Y-72325000D02*
X123925000Y-71802496D01*
G04 #@! TO.C,C35*
X124875000Y-72322504D02*
X124875000Y-71800000D01*
X126425000Y-72325000D02*
X126425000Y-71802496D01*
G04 #@! TO.C,C36*
X160732504Y-81645000D02*
X160210000Y-81645000D01*
X160735000Y-80095000D02*
X160212496Y-80095000D01*
G04 #@! TO.C,C37*
X160732504Y-84095000D02*
X160210000Y-84095000D01*
X160735000Y-82545000D02*
X160212496Y-82545000D01*
G04 #@! TO.C,C38*
X156287496Y-82545000D02*
X156810000Y-82545000D01*
X156285000Y-84095000D02*
X156807504Y-84095000D01*
G04 #@! TO.C,C39*
X156727496Y-77675000D02*
X157250000Y-77675000D01*
X156725000Y-79225000D02*
X157247504Y-79225000D01*
G04 #@! TO.C,C40*
X156287496Y-80095000D02*
X156810000Y-80095000D01*
X156285000Y-81645000D02*
X156807504Y-81645000D01*
G04 #@! TO.C,C41*
X136277496Y-104225000D02*
X136800000Y-104225000D01*
X136275000Y-105775000D02*
X136797504Y-105775000D01*
G04 #@! TO.C,C42*
X136277496Y-101625000D02*
X136800000Y-101625000D01*
X136275000Y-103175000D02*
X136797504Y-103175000D01*
G04 #@! TO.C,C43*
X131972504Y-103175000D02*
X131450000Y-103175000D01*
X131975000Y-101625000D02*
X131452496Y-101625000D01*
G04 #@! TO.C,C44*
X131972504Y-105775000D02*
X131450000Y-105775000D01*
X131975000Y-104225000D02*
X131452496Y-104225000D01*
G04 #@! TO.C,C45*
X131972504Y-100625000D02*
X131450000Y-100625000D01*
X131975000Y-99075000D02*
X131452496Y-99075000D01*
G04 #@! TO.C,C46*
X140727496Y-96525000D02*
X141250000Y-96525000D01*
X140725000Y-98075000D02*
X141247504Y-98075000D01*
G04 #@! TO.C,C47*
X140727496Y-98950000D02*
X141250000Y-98950000D01*
X140725000Y-100500000D02*
X141247504Y-100500000D01*
G04 #@! TO.C,C48*
X126422504Y-96175000D02*
X125900000Y-96175000D01*
X126425000Y-94625000D02*
X125902496Y-94625000D01*
G04 #@! TO.C,C49*
X126422504Y-93775000D02*
X125900000Y-93775000D01*
X126425000Y-92225000D02*
X125902496Y-92225000D01*
G04 #@! TO.C,C50*
X126252496Y-74525000D02*
X126775000Y-74525000D01*
X126250000Y-76075000D02*
X126772504Y-76075000D01*
G04 #@! TO.C,C51*
X126422504Y-91025000D02*
X125900000Y-91025000D01*
X126425000Y-89475000D02*
X125902496Y-89475000D01*
G04 #@! TO.C,C52*
X126422504Y-88475000D02*
X125900000Y-88475000D01*
X126425000Y-86925000D02*
X125902496Y-86925000D01*
G04 #@! TO.C,C53*
X166069999Y-65817503D02*
X166069999Y-65294999D01*
X167619999Y-65819999D02*
X167619999Y-65297495D01*
G04 #@! TO.C,C54*
X163625000Y-65822504D02*
X163625000Y-65300000D01*
X165175000Y-65825000D02*
X165175000Y-65302496D01*
G04 #@! TO.C,C55*
X126422504Y-99475000D02*
X125900000Y-99475000D01*
X126425000Y-97925000D02*
X125902496Y-97925000D01*
G04 #@! TO.C,C56*
X126422504Y-102025000D02*
X125900000Y-102025000D01*
X126425000Y-100475000D02*
X125902496Y-100475000D01*
G04 #@! TO.C,C58*
X104772504Y-68875000D02*
X104250000Y-68875000D01*
X104775000Y-67325000D02*
X104252496Y-67325000D01*
G04 #@! TO.C,C59*
X104772504Y-91475000D02*
X104250000Y-91475000D01*
X104775000Y-89925000D02*
X104252496Y-89925000D01*
G04 #@! TO.C,D1*
X169900000Y-103900000D02*
X169900000Y-98500000D01*
X173200000Y-103900000D02*
X173200000Y-98500000D01*
X169900000Y-103900000D02*
X173200000Y-103900000D01*
G04 #@! TO.C,D7*
X157835000Y-72640000D02*
X155150000Y-72640000D01*
X157835000Y-74560000D02*
X157835000Y-72640000D01*
X155150000Y-74560000D02*
X157835000Y-74560000D01*
G04 #@! TO.C,J2*
X137680000Y-62630000D02*
X137680000Y-63960000D01*
X137680000Y-62630000D02*
X136350000Y-62630000D01*
X137680000Y-65230000D02*
X135080000Y-65230000D01*
X135080000Y-62630000D02*
X135080000Y-65230000D01*
X137680000Y-67830000D02*
X112160000Y-67830000D01*
X112160000Y-62630000D02*
X112160000Y-67830000D01*
X135080000Y-62630000D02*
X112160000Y-62630000D01*
X137680000Y-65230000D02*
X137680000Y-67830000D01*
G04 #@! TO.C,J4*
X121310000Y-114750000D02*
X121310000Y-113420000D01*
X121310000Y-113420000D02*
X122640000Y-113420000D01*
X123910000Y-113420000D02*
X141750000Y-113420000D01*
X141750000Y-116080000D02*
X141750000Y-113420000D01*
X123910000Y-116080000D02*
X141750000Y-116080000D01*
X123910000Y-116080000D02*
X123910000Y-113420000D01*
G04 #@! TO.C,R1*
X176640000Y-100713748D02*
X176640000Y-101236252D01*
X178060000Y-100713748D02*
X178060000Y-101236252D01*
G04 #@! TO.C,R2*
X176440000Y-92363748D02*
X176440000Y-92886252D01*
X177860000Y-92363748D02*
X177860000Y-92886252D01*
G04 #@! TO.C,R3*
X171211252Y-62640000D02*
X170688748Y-62640000D01*
X171211252Y-64060000D02*
X170688748Y-64060000D01*
G04 #@! TO.C,R4*
X107090000Y-114038748D02*
X107090000Y-114561252D01*
X108510000Y-114038748D02*
X108510000Y-114561252D01*
G04 #@! TO.C,R5*
X110490000Y-114038748D02*
X110490000Y-114561252D01*
X111910000Y-114038748D02*
X111910000Y-114561252D01*
G04 #@! TO.C,R6*
X113890000Y-114038748D02*
X113890000Y-114561252D01*
X115310000Y-114038748D02*
X115310000Y-114561252D01*
G04 #@! TO.C,R7*
X117290000Y-114038748D02*
X117290000Y-114561252D01*
X118710000Y-114038748D02*
X118710000Y-114561252D01*
G04 #@! TO.C,R8*
X111060000Y-80011252D02*
X111060000Y-79488748D01*
X109640000Y-80011252D02*
X109640000Y-79488748D01*
G04 #@! TO.C,R9*
X122689252Y-79300000D02*
X122166748Y-79300000D01*
X122689252Y-80720000D02*
X122166748Y-80720000D01*
G04 #@! TO.C,R10*
X111060000Y-87861252D02*
X111060000Y-87338748D01*
X109640000Y-87861252D02*
X109640000Y-87338748D01*
G04 #@! TO.C,R11*
X122460000Y-87461252D02*
X122460000Y-86938748D01*
X121040000Y-87461252D02*
X121040000Y-86938748D01*
G04 #@! TO.C,R12*
X111060000Y-95836252D02*
X111060000Y-95313748D01*
X109640000Y-95836252D02*
X109640000Y-95313748D01*
G04 #@! TO.C,R13*
X122460000Y-95461252D02*
X122460000Y-94938748D01*
X121040000Y-95461252D02*
X121040000Y-94938748D01*
G04 #@! TO.C,R14*
X111060000Y-103911252D02*
X111060000Y-103388748D01*
X109640000Y-103911252D02*
X109640000Y-103388748D01*
G04 #@! TO.C,R15*
X122460000Y-103486252D02*
X122460000Y-102963748D01*
X121040000Y-103486252D02*
X121040000Y-102963748D01*
G04 #@! TO.C,R16*
X146188748Y-106210000D02*
X146711252Y-106210000D01*
X146188748Y-104790000D02*
X146711252Y-104790000D01*
G04 #@! TO.C,R17*
X167138748Y-114660000D02*
X167661252Y-114660000D01*
X167138748Y-113240000D02*
X167661252Y-113240000D01*
G04 #@! TO.C,R18*
X156188748Y-97010000D02*
X156711252Y-97010000D01*
X156188748Y-95590000D02*
X156711252Y-95590000D01*
G04 #@! TO.C,R19*
X156188748Y-99160000D02*
X156711252Y-99160000D01*
X156188748Y-97740000D02*
X156711252Y-97740000D01*
G04 #@! TO.C,R20*
X165738748Y-99160000D02*
X166261252Y-99160000D01*
X165738748Y-97740000D02*
X166261252Y-97740000D01*
G04 #@! TO.C,R21*
X165738748Y-96960000D02*
X166261252Y-96960000D01*
X165738748Y-95540000D02*
X166261252Y-95540000D01*
G04 #@! TO.C,R22*
X140738748Y-111360000D02*
X141261252Y-111360000D01*
X140738748Y-109940000D02*
X141261252Y-109940000D01*
G04 #@! TO.C,R23*
X162990000Y-117088748D02*
X162990000Y-117611252D01*
X164410000Y-117088748D02*
X164410000Y-117611252D01*
G04 #@! TO.C,R24*
X166510000Y-117611252D02*
X166510000Y-117088748D01*
X165090000Y-117611252D02*
X165090000Y-117088748D01*
G04 #@! TO.C,R25*
X149061252Y-114090000D02*
X148538748Y-114090000D01*
X149061252Y-115510000D02*
X148538748Y-115510000D01*
G04 #@! TO.C,R26*
X149061252Y-116190000D02*
X148538748Y-116190000D01*
X149061252Y-117610000D02*
X148538748Y-117610000D01*
G04 #@! TO.C,R27*
X149075331Y-111996629D02*
X148552827Y-111996629D01*
X149075331Y-113416629D02*
X148552827Y-113416629D01*
G04 #@! TO.C,R28*
X149075331Y-118296629D02*
X148552827Y-118296629D01*
X149075331Y-119716629D02*
X148552827Y-119716629D01*
G04 #@! TO.C,R29*
X126138748Y-105510000D02*
X126661252Y-105510000D01*
X126138748Y-104090000D02*
X126661252Y-104090000D01*
G04 #@! TO.C,R30*
X160210000Y-117611252D02*
X160210000Y-117088748D01*
X158790000Y-117611252D02*
X158790000Y-117088748D01*
G04 #@! TO.C,R31*
X162310000Y-117611252D02*
X162310000Y-117088748D01*
X160890000Y-117611252D02*
X160890000Y-117088748D01*
G04 #@! TO.C,R32*
X140738748Y-109260000D02*
X141261252Y-109260000D01*
X140738748Y-107840000D02*
X141261252Y-107840000D01*
G04 #@! TO.C,R33*
X126138748Y-107610000D02*
X126661252Y-107610000D01*
X126138748Y-106190000D02*
X126661252Y-106190000D01*
G04 #@! TO.C,R34*
X136761252Y-99290000D02*
X136238748Y-99290000D01*
X136761252Y-100710000D02*
X136238748Y-100710000D01*
G04 #@! TO.C,R35*
X121360000Y-72286252D02*
X121360000Y-71763748D01*
X119940000Y-72286252D02*
X119940000Y-71763748D01*
G04 #@! TO.C,TP1*
X179800000Y-89500000D02*
G75*
G03X179800000Y-89500000I-950000J0D01*
G01*
G04 #@! TO.C,TP2*
X175150000Y-118650000D02*
G75*
G03X175150000Y-118650000I-950000J0D01*
G01*
G04 #@! TO.C,TP3*
X177550000Y-76000000D02*
G75*
G03X177550000Y-76000000I-950000J0D01*
G01*
G04 #@! TO.C,TP4*
X163550000Y-68950000D02*
G75*
G03X163550000Y-68950000I-950000J0D01*
G01*
G04 #@! TO.C,TP5*
X154250000Y-114100000D02*
G75*
G03X154250000Y-114100000I-950000J0D01*
G01*
G04 #@! TO.C,U1*
X168750000Y-83290000D02*
X174760000Y-83290000D01*
X171000000Y-90110000D02*
X174760000Y-90110000D01*
X174760000Y-83290000D02*
X174760000Y-84550000D01*
X174760000Y-90110000D02*
X174760000Y-88850000D01*
G04 #@! TO.C,U2*
X169250000Y-67090000D02*
X175260000Y-67090000D01*
X171500000Y-73910000D02*
X175260000Y-73910000D01*
X175260000Y-67090000D02*
X175260000Y-68350000D01*
X175260000Y-73910000D02*
X175260000Y-72650000D01*
G04 #@! TO.C,U4*
X154390000Y-103590000D02*
X153050000Y-103590000D01*
X154390000Y-102640000D02*
X154390000Y-103590000D01*
X155340000Y-102640000D02*
X154390000Y-102640000D01*
X164610000Y-102640000D02*
X164610000Y-103590000D01*
X163660000Y-102640000D02*
X164610000Y-102640000D01*
X154390000Y-112860000D02*
X154390000Y-111910000D01*
X155340000Y-112860000D02*
X154390000Y-112860000D01*
X164610000Y-112860000D02*
X164610000Y-111910000D01*
X163660000Y-112860000D02*
X164610000Y-112860000D01*
D14*
G04 #@! TO.C,U5*
X167250000Y-86900000D02*
X167250000Y-92500000D01*
X161650000Y-86900000D02*
X167250000Y-86900000D01*
X161650000Y-94100000D02*
X161650000Y-86900000D01*
X167250000Y-94100000D02*
X161650000Y-94100000D01*
X167250000Y-92500000D02*
X167250000Y-94100000D01*
D12*
G04 #@! TO.C,U6*
X135625000Y-111875000D02*
X137025000Y-111875000D01*
X135625000Y-106775000D02*
X131475000Y-106775000D01*
X135625000Y-111925000D02*
X131475000Y-111925000D01*
X135625000Y-106775000D02*
X135625000Y-106920000D01*
X131475000Y-106775000D02*
X131475000Y-106920000D01*
X131475000Y-111925000D02*
X131475000Y-111780000D01*
X135625000Y-111925000D02*
X135625000Y-111875000D01*
G04 #@! TO.C,J1*
X175566666Y-114452380D02*
X175566666Y-115166666D01*
X175519047Y-115309523D01*
X175423809Y-115404761D01*
X175280952Y-115452380D01*
X175185714Y-115452380D01*
X176566666Y-115452380D02*
X175995238Y-115452380D01*
X176280952Y-115452380D02*
X176280952Y-114452380D01*
X176185714Y-114595238D01*
X176090476Y-114690476D01*
X175995238Y-114738095D01*
G04 #@! TO.C,C3*
D11*
X171516666Y-96485714D02*
X171478571Y-96523809D01*
X171364285Y-96561904D01*
X171288095Y-96561904D01*
X171173809Y-96523809D01*
X171097619Y-96447619D01*
X171059523Y-96371428D01*
X171021428Y-96219047D01*
X171021428Y-96104761D01*
X171059523Y-95952380D01*
X171097619Y-95876190D01*
X171173809Y-95800000D01*
X171288095Y-95761904D01*
X171364285Y-95761904D01*
X171478571Y-95800000D01*
X171516666Y-95838095D01*
X171783333Y-95761904D02*
X172278571Y-95761904D01*
X172011904Y-96066666D01*
X172126190Y-96066666D01*
X172202380Y-96104761D01*
X172240476Y-96142857D01*
X172278571Y-96219047D01*
X172278571Y-96409523D01*
X172240476Y-96485714D01*
X172202380Y-96523809D01*
X172126190Y-96561904D01*
X171897619Y-96561904D01*
X171821428Y-96523809D01*
X171783333Y-96485714D01*
G04 #@! TO.C,C4*
X169016666Y-81185714D02*
X168978571Y-81223809D01*
X168864285Y-81261904D01*
X168788095Y-81261904D01*
X168673809Y-81223809D01*
X168597619Y-81147619D01*
X168559523Y-81071428D01*
X168521428Y-80919047D01*
X168521428Y-80804761D01*
X168559523Y-80652380D01*
X168597619Y-80576190D01*
X168673809Y-80500000D01*
X168788095Y-80461904D01*
X168864285Y-80461904D01*
X168978571Y-80500000D01*
X169016666Y-80538095D01*
X169702380Y-80728571D02*
X169702380Y-81261904D01*
X169511904Y-80423809D02*
X169321428Y-80995238D01*
X169816666Y-80995238D01*
G04 #@! TO.C,C6*
X169266666Y-76285714D02*
X169228571Y-76323809D01*
X169114285Y-76361904D01*
X169038095Y-76361904D01*
X168923809Y-76323809D01*
X168847619Y-76247619D01*
X168809523Y-76171428D01*
X168771428Y-76019047D01*
X168771428Y-75904761D01*
X168809523Y-75752380D01*
X168847619Y-75676190D01*
X168923809Y-75600000D01*
X169038095Y-75561904D01*
X169114285Y-75561904D01*
X169228571Y-75600000D01*
X169266666Y-75638095D01*
X169952380Y-75561904D02*
X169800000Y-75561904D01*
X169723809Y-75600000D01*
X169685714Y-75638095D01*
X169609523Y-75752380D01*
X169571428Y-75904761D01*
X169571428Y-76209523D01*
X169609523Y-76285714D01*
X169647619Y-76323809D01*
X169723809Y-76361904D01*
X169876190Y-76361904D01*
X169952380Y-76323809D01*
X169990476Y-76285714D01*
X170028571Y-76209523D01*
X170028571Y-76019047D01*
X169990476Y-75942857D01*
X169952380Y-75904761D01*
X169876190Y-75866666D01*
X169723809Y-75866666D01*
X169647619Y-75904761D01*
X169609523Y-75942857D01*
X169571428Y-76019047D01*
G04 #@! TO.C,C7*
X173966666Y-65385714D02*
X173928571Y-65423809D01*
X173814285Y-65461904D01*
X173738095Y-65461904D01*
X173623809Y-65423809D01*
X173547619Y-65347619D01*
X173509523Y-65271428D01*
X173471428Y-65119047D01*
X173471428Y-65004761D01*
X173509523Y-64852380D01*
X173547619Y-64776190D01*
X173623809Y-64700000D01*
X173738095Y-64661904D01*
X173814285Y-64661904D01*
X173928571Y-64700000D01*
X173966666Y-64738095D01*
X174233333Y-64661904D02*
X174766666Y-64661904D01*
X174423809Y-65461904D01*
G04 #@! TO.C,C12*
X143664285Y-101835714D02*
X143692857Y-101864285D01*
X143721428Y-101950000D01*
X143721428Y-102007142D01*
X143692857Y-102092857D01*
X143635714Y-102150000D01*
X143578571Y-102178571D01*
X143464285Y-102207142D01*
X143378571Y-102207142D01*
X143264285Y-102178571D01*
X143207142Y-102150000D01*
X143150000Y-102092857D01*
X143121428Y-102007142D01*
X143121428Y-101950000D01*
X143150000Y-101864285D01*
X143178571Y-101835714D01*
X143721428Y-101264285D02*
X143721428Y-101607142D01*
X143721428Y-101435714D02*
X143121428Y-101435714D01*
X143207142Y-101492857D01*
X143264285Y-101550000D01*
X143292857Y-101607142D01*
X143178571Y-101035714D02*
X143150000Y-101007142D01*
X143121428Y-100950000D01*
X143121428Y-100807142D01*
X143150000Y-100750000D01*
X143178571Y-100721428D01*
X143235714Y-100692857D01*
X143292857Y-100692857D01*
X143378571Y-100721428D01*
X143721428Y-101064285D01*
X143721428Y-100692857D01*
G04 #@! TO.C,C14*
D16*
X138978571Y-104071428D02*
X139002380Y-104095238D01*
X139026190Y-104166666D01*
X139026190Y-104214285D01*
X139002380Y-104285714D01*
X138954761Y-104333333D01*
X138907142Y-104357142D01*
X138811904Y-104380952D01*
X138740476Y-104380952D01*
X138645238Y-104357142D01*
X138597619Y-104333333D01*
X138550000Y-104285714D01*
X138526190Y-104214285D01*
X138526190Y-104166666D01*
X138550000Y-104095238D01*
X138573809Y-104071428D01*
X139026190Y-103595238D02*
X139026190Y-103880952D01*
X139026190Y-103738095D02*
X138526190Y-103738095D01*
X138597619Y-103785714D01*
X138645238Y-103833333D01*
X138669047Y-103880952D01*
X138692857Y-103166666D02*
X139026190Y-103166666D01*
X138502380Y-103285714D02*
X138859523Y-103404761D01*
X138859523Y-103095238D01*
G04 #@! TO.C,X1*
D11*
X152952380Y-87711904D02*
X153485714Y-88511904D01*
X153485714Y-87711904D02*
X152952380Y-88511904D01*
X154209523Y-88511904D02*
X153752380Y-88511904D01*
X153980952Y-88511904D02*
X153980952Y-87711904D01*
X153904761Y-87826190D01*
X153828571Y-87902380D01*
X153752380Y-87940476D01*
G04 #@! TO.C,S1*
X118640476Y-77973809D02*
X118754761Y-78011904D01*
X118945238Y-78011904D01*
X119021428Y-77973809D01*
X119059523Y-77935714D01*
X119097619Y-77859523D01*
X119097619Y-77783333D01*
X119059523Y-77707142D01*
X119021428Y-77669047D01*
X118945238Y-77630952D01*
X118792857Y-77592857D01*
X118716666Y-77554761D01*
X118678571Y-77516666D01*
X118640476Y-77440476D01*
X118640476Y-77364285D01*
X118678571Y-77288095D01*
X118716666Y-77250000D01*
X118792857Y-77211904D01*
X118983333Y-77211904D01*
X119097619Y-77250000D01*
X119859523Y-78011904D02*
X119402380Y-78011904D01*
X119630952Y-78011904D02*
X119630952Y-77211904D01*
X119554761Y-77326190D01*
X119478571Y-77402380D01*
X119402380Y-77440476D01*
G04 #@! TO.C,S2*
X118640476Y-85723809D02*
X118754761Y-85761904D01*
X118945238Y-85761904D01*
X119021428Y-85723809D01*
X119059523Y-85685714D01*
X119097619Y-85609523D01*
X119097619Y-85533333D01*
X119059523Y-85457142D01*
X119021428Y-85419047D01*
X118945238Y-85380952D01*
X118792857Y-85342857D01*
X118716666Y-85304761D01*
X118678571Y-85266666D01*
X118640476Y-85190476D01*
X118640476Y-85114285D01*
X118678571Y-85038095D01*
X118716666Y-85000000D01*
X118792857Y-84961904D01*
X118983333Y-84961904D01*
X119097619Y-85000000D01*
X119402380Y-85038095D02*
X119440476Y-85000000D01*
X119516666Y-84961904D01*
X119707142Y-84961904D01*
X119783333Y-85000000D01*
X119821428Y-85038095D01*
X119859523Y-85114285D01*
X119859523Y-85190476D01*
X119821428Y-85304761D01*
X119364285Y-85761904D01*
X119859523Y-85761904D01*
G04 #@! TO.C,S3*
X118590476Y-93723809D02*
X118704761Y-93761904D01*
X118895238Y-93761904D01*
X118971428Y-93723809D01*
X119009523Y-93685714D01*
X119047619Y-93609523D01*
X119047619Y-93533333D01*
X119009523Y-93457142D01*
X118971428Y-93419047D01*
X118895238Y-93380952D01*
X118742857Y-93342857D01*
X118666666Y-93304761D01*
X118628571Y-93266666D01*
X118590476Y-93190476D01*
X118590476Y-93114285D01*
X118628571Y-93038095D01*
X118666666Y-93000000D01*
X118742857Y-92961904D01*
X118933333Y-92961904D01*
X119047619Y-93000000D01*
X119314285Y-92961904D02*
X119809523Y-92961904D01*
X119542857Y-93266666D01*
X119657142Y-93266666D01*
X119733333Y-93304761D01*
X119771428Y-93342857D01*
X119809523Y-93419047D01*
X119809523Y-93609523D01*
X119771428Y-93685714D01*
X119733333Y-93723809D01*
X119657142Y-93761904D01*
X119428571Y-93761904D01*
X119352380Y-93723809D01*
X119314285Y-93685714D01*
G04 #@! TO.C,S4*
X118640476Y-102073809D02*
X118754761Y-102111904D01*
X118945238Y-102111904D01*
X119021428Y-102073809D01*
X119059523Y-102035714D01*
X119097619Y-101959523D01*
X119097619Y-101883333D01*
X119059523Y-101807142D01*
X119021428Y-101769047D01*
X118945238Y-101730952D01*
X118792857Y-101692857D01*
X118716666Y-101654761D01*
X118678571Y-101616666D01*
X118640476Y-101540476D01*
X118640476Y-101464285D01*
X118678571Y-101388095D01*
X118716666Y-101350000D01*
X118792857Y-101311904D01*
X118983333Y-101311904D01*
X119097619Y-101350000D01*
X119783333Y-101578571D02*
X119783333Y-102111904D01*
X119592857Y-101273809D02*
X119402380Y-101845238D01*
X119897619Y-101845238D01*
G04 #@! TO.C,J5*
D12*
X102466666Y-86052380D02*
X102466666Y-86766666D01*
X102419047Y-86909523D01*
X102323809Y-87004761D01*
X102180952Y-87052380D01*
X102085714Y-87052380D01*
X103419047Y-86052380D02*
X102942857Y-86052380D01*
X102895238Y-86528571D01*
X102942857Y-86480952D01*
X103038095Y-86433333D01*
X103276190Y-86433333D01*
X103371428Y-86480952D01*
X103419047Y-86528571D01*
X103466666Y-86623809D01*
X103466666Y-86861904D01*
X103419047Y-86957142D01*
X103371428Y-87004761D01*
X103276190Y-87052380D01*
X103038095Y-87052380D01*
X102942857Y-87004761D01*
X102895238Y-86957142D01*
G04 #@! TO.C,J6*
X102466666Y-108902380D02*
X102466666Y-109616666D01*
X102419047Y-109759523D01*
X102323809Y-109854761D01*
X102180952Y-109902380D01*
X102085714Y-109902380D01*
X103371428Y-108902380D02*
X103180952Y-108902380D01*
X103085714Y-108950000D01*
X103038095Y-108997619D01*
X102942857Y-109140476D01*
X102895238Y-109330952D01*
X102895238Y-109711904D01*
X102942857Y-109807142D01*
X102990476Y-109854761D01*
X103085714Y-109902380D01*
X103276190Y-109902380D01*
X103371428Y-109854761D01*
X103419047Y-109807142D01*
X103466666Y-109711904D01*
X103466666Y-109473809D01*
X103419047Y-109378571D01*
X103371428Y-109330952D01*
X103276190Y-109283333D01*
X103085714Y-109283333D01*
X102990476Y-109330952D01*
X102942857Y-109378571D01*
X102895238Y-109473809D01*
G04 #@! TO.C,U3*
D11*
X128840476Y-70511904D02*
X128840476Y-71159523D01*
X128878571Y-71235714D01*
X128916666Y-71273809D01*
X128992857Y-71311904D01*
X129145238Y-71311904D01*
X129221428Y-71273809D01*
X129259523Y-71235714D01*
X129297619Y-71159523D01*
X129297619Y-70511904D01*
X129602380Y-70511904D02*
X130097619Y-70511904D01*
X129830952Y-70816666D01*
X129945238Y-70816666D01*
X130021428Y-70854761D01*
X130059523Y-70892857D01*
X130097619Y-70969047D01*
X130097619Y-71159523D01*
X130059523Y-71235714D01*
X130021428Y-71273809D01*
X129945238Y-71311904D01*
X129716666Y-71311904D01*
X129640476Y-71273809D01*
X129602380Y-71235714D01*
G04 #@! TO.C,D2*
X178259523Y-97061904D02*
X178259523Y-96261904D01*
X178450000Y-96261904D01*
X178564285Y-96300000D01*
X178640476Y-96376190D01*
X178678571Y-96452380D01*
X178716666Y-96604761D01*
X178716666Y-96719047D01*
X178678571Y-96871428D01*
X178640476Y-96947619D01*
X178564285Y-97023809D01*
X178450000Y-97061904D01*
X178259523Y-97061904D01*
X179021428Y-96338095D02*
X179059523Y-96300000D01*
X179135714Y-96261904D01*
X179326190Y-96261904D01*
X179402380Y-96300000D01*
X179440476Y-96338095D01*
X179478571Y-96414285D01*
X179478571Y-96490476D01*
X179440476Y-96604761D01*
X178983333Y-97061904D01*
X179478571Y-97061904D01*
G04 #@! TO.C,D3*
X105509523Y-117061904D02*
X105509523Y-116261904D01*
X105700000Y-116261904D01*
X105814285Y-116300000D01*
X105890476Y-116376190D01*
X105928571Y-116452380D01*
X105966666Y-116604761D01*
X105966666Y-116719047D01*
X105928571Y-116871428D01*
X105890476Y-116947619D01*
X105814285Y-117023809D01*
X105700000Y-117061904D01*
X105509523Y-117061904D01*
X106233333Y-116261904D02*
X106728571Y-116261904D01*
X106461904Y-116566666D01*
X106576190Y-116566666D01*
X106652380Y-116604761D01*
X106690476Y-116642857D01*
X106728571Y-116719047D01*
X106728571Y-116909523D01*
X106690476Y-116985714D01*
X106652380Y-117023809D01*
X106576190Y-117061904D01*
X106347619Y-117061904D01*
X106271428Y-117023809D01*
X106233333Y-116985714D01*
G04 #@! TO.C,D4*
X108959523Y-117061904D02*
X108959523Y-116261904D01*
X109150000Y-116261904D01*
X109264285Y-116300000D01*
X109340476Y-116376190D01*
X109378571Y-116452380D01*
X109416666Y-116604761D01*
X109416666Y-116719047D01*
X109378571Y-116871428D01*
X109340476Y-116947619D01*
X109264285Y-117023809D01*
X109150000Y-117061904D01*
X108959523Y-117061904D01*
X110102380Y-116528571D02*
X110102380Y-117061904D01*
X109911904Y-116223809D02*
X109721428Y-116795238D01*
X110216666Y-116795238D01*
G04 #@! TO.C,D5*
X112409523Y-117061904D02*
X112409523Y-116261904D01*
X112600000Y-116261904D01*
X112714285Y-116300000D01*
X112790476Y-116376190D01*
X112828571Y-116452380D01*
X112866666Y-116604761D01*
X112866666Y-116719047D01*
X112828571Y-116871428D01*
X112790476Y-116947619D01*
X112714285Y-117023809D01*
X112600000Y-117061904D01*
X112409523Y-117061904D01*
X113590476Y-116261904D02*
X113209523Y-116261904D01*
X113171428Y-116642857D01*
X113209523Y-116604761D01*
X113285714Y-116566666D01*
X113476190Y-116566666D01*
X113552380Y-116604761D01*
X113590476Y-116642857D01*
X113628571Y-116719047D01*
X113628571Y-116909523D01*
X113590476Y-116985714D01*
X113552380Y-117023809D01*
X113476190Y-117061904D01*
X113285714Y-117061904D01*
X113209523Y-117023809D01*
X113171428Y-116985714D01*
G04 #@! TO.C,D6*
X115809523Y-117061904D02*
X115809523Y-116261904D01*
X116000000Y-116261904D01*
X116114285Y-116300000D01*
X116190476Y-116376190D01*
X116228571Y-116452380D01*
X116266666Y-116604761D01*
X116266666Y-116719047D01*
X116228571Y-116871428D01*
X116190476Y-116947619D01*
X116114285Y-117023809D01*
X116000000Y-117061904D01*
X115809523Y-117061904D01*
X116952380Y-116261904D02*
X116800000Y-116261904D01*
X116723809Y-116300000D01*
X116685714Y-116338095D01*
X116609523Y-116452380D01*
X116571428Y-116604761D01*
X116571428Y-116909523D01*
X116609523Y-116985714D01*
X116647619Y-117023809D01*
X116723809Y-117061904D01*
X116876190Y-117061904D01*
X116952380Y-117023809D01*
X116990476Y-116985714D01*
X117028571Y-116909523D01*
X117028571Y-116719047D01*
X116990476Y-116642857D01*
X116952380Y-116604761D01*
X116876190Y-116566666D01*
X116723809Y-116566666D01*
X116647619Y-116604761D01*
X116609523Y-116642857D01*
X116571428Y-116719047D01*
G04 #@! TO.C,D8*
X134109523Y-96311904D02*
X134109523Y-95511904D01*
X134300000Y-95511904D01*
X134414285Y-95550000D01*
X134490476Y-95626190D01*
X134528571Y-95702380D01*
X134566666Y-95854761D01*
X134566666Y-95969047D01*
X134528571Y-96121428D01*
X134490476Y-96197619D01*
X134414285Y-96273809D01*
X134300000Y-96311904D01*
X134109523Y-96311904D01*
X135023809Y-95854761D02*
X134947619Y-95816666D01*
X134909523Y-95778571D01*
X134871428Y-95702380D01*
X134871428Y-95664285D01*
X134909523Y-95588095D01*
X134947619Y-95550000D01*
X135023809Y-95511904D01*
X135176190Y-95511904D01*
X135252380Y-95550000D01*
X135290476Y-95588095D01*
X135328571Y-95664285D01*
X135328571Y-95702380D01*
X135290476Y-95778571D01*
X135252380Y-95816666D01*
X135176190Y-95854761D01*
X135023809Y-95854761D01*
X134947619Y-95892857D01*
X134909523Y-95930952D01*
X134871428Y-96007142D01*
X134871428Y-96159523D01*
X134909523Y-96235714D01*
X134947619Y-96273809D01*
X135023809Y-96311904D01*
X135176190Y-96311904D01*
X135252380Y-96273809D01*
X135290476Y-96235714D01*
X135328571Y-96159523D01*
X135328571Y-96007142D01*
X135290476Y-95930952D01*
X135252380Y-95892857D01*
X135176190Y-95854761D01*
G04 #@! TO.C,FB1*
X168042857Y-93766666D02*
X168042857Y-94033333D01*
X168461904Y-94033333D02*
X167661904Y-94033333D01*
X167661904Y-93652380D01*
X168042857Y-93080952D02*
X168080952Y-92966666D01*
X168119047Y-92928571D01*
X168195238Y-92890476D01*
X168309523Y-92890476D01*
X168385714Y-92928571D01*
X168423809Y-92966666D01*
X168461904Y-93042857D01*
X168461904Y-93347619D01*
X167661904Y-93347619D01*
X167661904Y-93080952D01*
X167700000Y-93004761D01*
X167738095Y-92966666D01*
X167814285Y-92928571D01*
X167890476Y-92928571D01*
X167966666Y-92966666D01*
X168004761Y-93004761D01*
X168042857Y-93080952D01*
X168042857Y-93347619D01*
X168461904Y-92128571D02*
X168461904Y-92585714D01*
X168461904Y-92357142D02*
X167661904Y-92357142D01*
X167776190Y-92433333D01*
X167852380Y-92509523D01*
X167890476Y-92585714D01*
G04 #@! TO.C,FB2*
X177583333Y-80392857D02*
X177316666Y-80392857D01*
X177316666Y-80811904D02*
X177316666Y-80011904D01*
X177697619Y-80011904D01*
X178269047Y-80392857D02*
X178383333Y-80430952D01*
X178421428Y-80469047D01*
X178459523Y-80545238D01*
X178459523Y-80659523D01*
X178421428Y-80735714D01*
X178383333Y-80773809D01*
X178307142Y-80811904D01*
X178002380Y-80811904D01*
X178002380Y-80011904D01*
X178269047Y-80011904D01*
X178345238Y-80050000D01*
X178383333Y-80088095D01*
X178421428Y-80164285D01*
X178421428Y-80240476D01*
X178383333Y-80316666D01*
X178345238Y-80354761D01*
X178269047Y-80392857D01*
X178002380Y-80392857D01*
X178764285Y-80088095D02*
X178802380Y-80050000D01*
X178878571Y-80011904D01*
X179069047Y-80011904D01*
X179145238Y-80050000D01*
X179183333Y-80088095D01*
X179221428Y-80164285D01*
X179221428Y-80240476D01*
X179183333Y-80354761D01*
X178726190Y-80811904D01*
X179221428Y-80811904D01*
G04 #@! TO.C,FB3*
X165683333Y-71892857D02*
X165416666Y-71892857D01*
X165416666Y-72311904D02*
X165416666Y-71511904D01*
X165797619Y-71511904D01*
X166369047Y-71892857D02*
X166483333Y-71930952D01*
X166521428Y-71969047D01*
X166559523Y-72045238D01*
X166559523Y-72159523D01*
X166521428Y-72235714D01*
X166483333Y-72273809D01*
X166407142Y-72311904D01*
X166102380Y-72311904D01*
X166102380Y-71511904D01*
X166369047Y-71511904D01*
X166445238Y-71550000D01*
X166483333Y-71588095D01*
X166521428Y-71664285D01*
X166521428Y-71740476D01*
X166483333Y-71816666D01*
X166445238Y-71854761D01*
X166369047Y-71892857D01*
X166102380Y-71892857D01*
X166826190Y-71511904D02*
X167321428Y-71511904D01*
X167054761Y-71816666D01*
X167169047Y-71816666D01*
X167245238Y-71854761D01*
X167283333Y-71892857D01*
X167321428Y-71969047D01*
X167321428Y-72159523D01*
X167283333Y-72235714D01*
X167245238Y-72273809D01*
X167169047Y-72311904D01*
X166940476Y-72311904D01*
X166864285Y-72273809D01*
X166826190Y-72235714D01*
G04 #@! TO.C,FB4*
X148783333Y-102942857D02*
X148516666Y-102942857D01*
X148516666Y-103361904D02*
X148516666Y-102561904D01*
X148897619Y-102561904D01*
X149469047Y-102942857D02*
X149583333Y-102980952D01*
X149621428Y-103019047D01*
X149659523Y-103095238D01*
X149659523Y-103209523D01*
X149621428Y-103285714D01*
X149583333Y-103323809D01*
X149507142Y-103361904D01*
X149202380Y-103361904D01*
X149202380Y-102561904D01*
X149469047Y-102561904D01*
X149545238Y-102600000D01*
X149583333Y-102638095D01*
X149621428Y-102714285D01*
X149621428Y-102790476D01*
X149583333Y-102866666D01*
X149545238Y-102904761D01*
X149469047Y-102942857D01*
X149202380Y-102942857D01*
X150345238Y-102828571D02*
X150345238Y-103361904D01*
X150154761Y-102523809D02*
X149964285Y-103095238D01*
X150459523Y-103095238D01*
G04 #@! TO.C,FB5*
X143750000Y-107157142D02*
X143550000Y-107157142D01*
X143550000Y-107471428D02*
X143550000Y-106871428D01*
X143835714Y-106871428D01*
X144264285Y-107157142D02*
X144350000Y-107185714D01*
X144378571Y-107214285D01*
X144407142Y-107271428D01*
X144407142Y-107357142D01*
X144378571Y-107414285D01*
X144350000Y-107442857D01*
X144292857Y-107471428D01*
X144064285Y-107471428D01*
X144064285Y-106871428D01*
X144264285Y-106871428D01*
X144321428Y-106900000D01*
X144350000Y-106928571D01*
X144378571Y-106985714D01*
X144378571Y-107042857D01*
X144350000Y-107100000D01*
X144321428Y-107128571D01*
X144264285Y-107157142D01*
X144064285Y-107157142D01*
X144950000Y-106871428D02*
X144664285Y-106871428D01*
X144635714Y-107157142D01*
X144664285Y-107128571D01*
X144721428Y-107100000D01*
X144864285Y-107100000D01*
X144921428Y-107128571D01*
X144950000Y-107157142D01*
X144978571Y-107214285D01*
X144978571Y-107357142D01*
X144950000Y-107414285D01*
X144921428Y-107442857D01*
X144864285Y-107471428D01*
X144721428Y-107471428D01*
X144664285Y-107442857D01*
X144635714Y-107414285D01*
G04 #@! TO.C,R36*
D10*
X159314285Y-91971428D02*
X159114285Y-91685714D01*
X158971428Y-91971428D02*
X158971428Y-91371428D01*
X159200000Y-91371428D01*
X159257142Y-91400000D01*
X159285714Y-91428571D01*
X159314285Y-91485714D01*
X159314285Y-91571428D01*
X159285714Y-91628571D01*
X159257142Y-91657142D01*
X159200000Y-91685714D01*
X158971428Y-91685714D01*
X159514285Y-91371428D02*
X159885714Y-91371428D01*
X159685714Y-91600000D01*
X159771428Y-91600000D01*
X159828571Y-91628571D01*
X159857142Y-91657142D01*
X159885714Y-91714285D01*
X159885714Y-91857142D01*
X159857142Y-91914285D01*
X159828571Y-91942857D01*
X159771428Y-91971428D01*
X159600000Y-91971428D01*
X159542857Y-91942857D01*
X159514285Y-91914285D01*
X160400000Y-91371428D02*
X160285714Y-91371428D01*
X160228571Y-91400000D01*
X160200000Y-91428571D01*
X160142857Y-91514285D01*
X160114285Y-91628571D01*
X160114285Y-91857142D01*
X160142857Y-91914285D01*
X160171428Y-91942857D01*
X160228571Y-91971428D01*
X160342857Y-91971428D01*
X160400000Y-91942857D01*
X160428571Y-91914285D01*
X160457142Y-91857142D01*
X160457142Y-91714285D01*
X160428571Y-91657142D01*
X160400000Y-91628571D01*
X160342857Y-91600000D01*
X160228571Y-91600000D01*
X160171428Y-91628571D01*
X160142857Y-91657142D01*
X160114285Y-91714285D01*
G04 #@! TO.C,C57*
D11*
X165835714Y-82935714D02*
X165797619Y-82973809D01*
X165683333Y-83011904D01*
X165607142Y-83011904D01*
X165492857Y-82973809D01*
X165416666Y-82897619D01*
X165378571Y-82821428D01*
X165340476Y-82669047D01*
X165340476Y-82554761D01*
X165378571Y-82402380D01*
X165416666Y-82326190D01*
X165492857Y-82250000D01*
X165607142Y-82211904D01*
X165683333Y-82211904D01*
X165797619Y-82250000D01*
X165835714Y-82288095D01*
X166559523Y-82211904D02*
X166178571Y-82211904D01*
X166140476Y-82592857D01*
X166178571Y-82554761D01*
X166254761Y-82516666D01*
X166445238Y-82516666D01*
X166521428Y-82554761D01*
X166559523Y-82592857D01*
X166597619Y-82669047D01*
X166597619Y-82859523D01*
X166559523Y-82935714D01*
X166521428Y-82973809D01*
X166445238Y-83011904D01*
X166254761Y-83011904D01*
X166178571Y-82973809D01*
X166140476Y-82935714D01*
X166864285Y-82211904D02*
X167397619Y-82211904D01*
X167054761Y-83011904D01*
G04 #@! TO.C,FID1*
X104942857Y-109242857D02*
X104676190Y-109242857D01*
X104676190Y-109661904D02*
X104676190Y-108861904D01*
X105057142Y-108861904D01*
X105361904Y-109661904D02*
X105361904Y-108861904D01*
X105742857Y-109661904D02*
X105742857Y-108861904D01*
X105933333Y-108861904D01*
X106047619Y-108900000D01*
X106123809Y-108976190D01*
X106161904Y-109052380D01*
X106200000Y-109204761D01*
X106200000Y-109319047D01*
X106161904Y-109471428D01*
X106123809Y-109547619D01*
X106047619Y-109623809D01*
X105933333Y-109661904D01*
X105742857Y-109661904D01*
X106961904Y-109661904D02*
X106504761Y-109661904D01*
X106733333Y-109661904D02*
X106733333Y-108861904D01*
X106657142Y-108976190D01*
X106580952Y-109052380D01*
X106504761Y-109090476D01*
G04 #@! TO.C,FID2*
X106742857Y-63842857D02*
X106476190Y-63842857D01*
X106476190Y-64261904D02*
X106476190Y-63461904D01*
X106857142Y-63461904D01*
X107161904Y-64261904D02*
X107161904Y-63461904D01*
X107542857Y-64261904D02*
X107542857Y-63461904D01*
X107733333Y-63461904D01*
X107847619Y-63500000D01*
X107923809Y-63576190D01*
X107961904Y-63652380D01*
X108000000Y-63804761D01*
X108000000Y-63919047D01*
X107961904Y-64071428D01*
X107923809Y-64147619D01*
X107847619Y-64223809D01*
X107733333Y-64261904D01*
X107542857Y-64261904D01*
X108304761Y-63538095D02*
X108342857Y-63500000D01*
X108419047Y-63461904D01*
X108609523Y-63461904D01*
X108685714Y-63500000D01*
X108723809Y-63538095D01*
X108761904Y-63614285D01*
X108761904Y-63690476D01*
X108723809Y-63804761D01*
X108266666Y-64261904D01*
X108761904Y-64261904D01*
G04 #@! TO.C,FID3*
X164842857Y-76942857D02*
X164576190Y-76942857D01*
X164576190Y-77361904D02*
X164576190Y-76561904D01*
X164957142Y-76561904D01*
X165261904Y-77361904D02*
X165261904Y-76561904D01*
X165642857Y-77361904D02*
X165642857Y-76561904D01*
X165833333Y-76561904D01*
X165947619Y-76600000D01*
X166023809Y-76676190D01*
X166061904Y-76752380D01*
X166100000Y-76904761D01*
X166100000Y-77019047D01*
X166061904Y-77171428D01*
X166023809Y-77247619D01*
X165947619Y-77323809D01*
X165833333Y-77361904D01*
X165642857Y-77361904D01*
X166366666Y-76561904D02*
X166861904Y-76561904D01*
X166595238Y-76866666D01*
X166709523Y-76866666D01*
X166785714Y-76904761D01*
X166823809Y-76942857D01*
X166861904Y-77019047D01*
X166861904Y-77209523D01*
X166823809Y-77285714D01*
X166785714Y-77323809D01*
X166709523Y-77361904D01*
X166480952Y-77361904D01*
X166404761Y-77323809D01*
X166366666Y-77285714D01*
G04 #@! TO.C,C33*
X153485714Y-71085714D02*
X153447619Y-71123809D01*
X153333333Y-71161904D01*
X153257142Y-71161904D01*
X153142857Y-71123809D01*
X153066666Y-71047619D01*
X153028571Y-70971428D01*
X152990476Y-70819047D01*
X152990476Y-70704761D01*
X153028571Y-70552380D01*
X153066666Y-70476190D01*
X153142857Y-70400000D01*
X153257142Y-70361904D01*
X153333333Y-70361904D01*
X153447619Y-70400000D01*
X153485714Y-70438095D01*
X153752380Y-70361904D02*
X154247619Y-70361904D01*
X153980952Y-70666666D01*
X154095238Y-70666666D01*
X154171428Y-70704761D01*
X154209523Y-70742857D01*
X154247619Y-70819047D01*
X154247619Y-71009523D01*
X154209523Y-71085714D01*
X154171428Y-71123809D01*
X154095238Y-71161904D01*
X153866666Y-71161904D01*
X153790476Y-71123809D01*
X153752380Y-71085714D01*
X154514285Y-70361904D02*
X155009523Y-70361904D01*
X154742857Y-70666666D01*
X154857142Y-70666666D01*
X154933333Y-70704761D01*
X154971428Y-70742857D01*
X155009523Y-70819047D01*
X155009523Y-71009523D01*
X154971428Y-71085714D01*
X154933333Y-71123809D01*
X154857142Y-71161904D01*
X154628571Y-71161904D01*
X154552380Y-71123809D01*
X154514285Y-71085714D01*
G04 #@! TO.C,J3*
D12*
X160716666Y-63352380D02*
X160716666Y-64066666D01*
X160669047Y-64209523D01*
X160573809Y-64304761D01*
X160430952Y-64352380D01*
X160335714Y-64352380D01*
X161097619Y-63352380D02*
X161716666Y-63352380D01*
X161383333Y-63733333D01*
X161526190Y-63733333D01*
X161621428Y-63780952D01*
X161669047Y-63828571D01*
X161716666Y-63923809D01*
X161716666Y-64161904D01*
X161669047Y-64257142D01*
X161621428Y-64304761D01*
X161526190Y-64352380D01*
X161240476Y-64352380D01*
X161145238Y-64304761D01*
X161097619Y-64257142D01*
G04 #@! TO.C,C1*
D11*
X174616666Y-101735714D02*
X174578571Y-101773809D01*
X174464285Y-101811904D01*
X174388095Y-101811904D01*
X174273809Y-101773809D01*
X174197619Y-101697619D01*
X174159523Y-101621428D01*
X174121428Y-101469047D01*
X174121428Y-101354761D01*
X174159523Y-101202380D01*
X174197619Y-101126190D01*
X174273809Y-101050000D01*
X174388095Y-101011904D01*
X174464285Y-101011904D01*
X174578571Y-101050000D01*
X174616666Y-101088095D01*
X175378571Y-101811904D02*
X174921428Y-101811904D01*
X175150000Y-101811904D02*
X175150000Y-101011904D01*
X175073809Y-101126190D01*
X174997619Y-101202380D01*
X174921428Y-101240476D01*
G04 #@! TO.C,C2*
X174516666Y-92185714D02*
X174478571Y-92223809D01*
X174364285Y-92261904D01*
X174288095Y-92261904D01*
X174173809Y-92223809D01*
X174097619Y-92147619D01*
X174059523Y-92071428D01*
X174021428Y-91919047D01*
X174021428Y-91804761D01*
X174059523Y-91652380D01*
X174097619Y-91576190D01*
X174173809Y-91500000D01*
X174288095Y-91461904D01*
X174364285Y-91461904D01*
X174478571Y-91500000D01*
X174516666Y-91538095D01*
X174821428Y-91538095D02*
X174859523Y-91500000D01*
X174935714Y-91461904D01*
X175126190Y-91461904D01*
X175202380Y-91500000D01*
X175240476Y-91538095D01*
X175278571Y-91614285D01*
X175278571Y-91690476D01*
X175240476Y-91804761D01*
X174783333Y-92261904D01*
X175278571Y-92261904D01*
G04 #@! TO.C,C5*
X169116666Y-78785714D02*
X169078571Y-78823809D01*
X168964285Y-78861904D01*
X168888095Y-78861904D01*
X168773809Y-78823809D01*
X168697619Y-78747619D01*
X168659523Y-78671428D01*
X168621428Y-78519047D01*
X168621428Y-78404761D01*
X168659523Y-78252380D01*
X168697619Y-78176190D01*
X168773809Y-78100000D01*
X168888095Y-78061904D01*
X168964285Y-78061904D01*
X169078571Y-78100000D01*
X169116666Y-78138095D01*
X169840476Y-78061904D02*
X169459523Y-78061904D01*
X169421428Y-78442857D01*
X169459523Y-78404761D01*
X169535714Y-78366666D01*
X169726190Y-78366666D01*
X169802380Y-78404761D01*
X169840476Y-78442857D01*
X169878571Y-78519047D01*
X169878571Y-78709523D01*
X169840476Y-78785714D01*
X169802380Y-78823809D01*
X169726190Y-78861904D01*
X169535714Y-78861904D01*
X169459523Y-78823809D01*
X169421428Y-78785714D01*
G04 #@! TO.C,C8*
X125066666Y-82985714D02*
X125028571Y-83023809D01*
X124914285Y-83061904D01*
X124838095Y-83061904D01*
X124723809Y-83023809D01*
X124647619Y-82947619D01*
X124609523Y-82871428D01*
X124571428Y-82719047D01*
X124571428Y-82604761D01*
X124609523Y-82452380D01*
X124647619Y-82376190D01*
X124723809Y-82300000D01*
X124838095Y-82261904D01*
X124914285Y-82261904D01*
X125028571Y-82300000D01*
X125066666Y-82338095D01*
X125523809Y-82604761D02*
X125447619Y-82566666D01*
X125409523Y-82528571D01*
X125371428Y-82452380D01*
X125371428Y-82414285D01*
X125409523Y-82338095D01*
X125447619Y-82300000D01*
X125523809Y-82261904D01*
X125676190Y-82261904D01*
X125752380Y-82300000D01*
X125790476Y-82338095D01*
X125828571Y-82414285D01*
X125828571Y-82452380D01*
X125790476Y-82528571D01*
X125752380Y-82566666D01*
X125676190Y-82604761D01*
X125523809Y-82604761D01*
X125447619Y-82642857D01*
X125409523Y-82680952D01*
X125371428Y-82757142D01*
X125371428Y-82909523D01*
X125409523Y-82985714D01*
X125447619Y-83023809D01*
X125523809Y-83061904D01*
X125676190Y-83061904D01*
X125752380Y-83023809D01*
X125790476Y-82985714D01*
X125828571Y-82909523D01*
X125828571Y-82757142D01*
X125790476Y-82680952D01*
X125752380Y-82642857D01*
X125676190Y-82604761D01*
G04 #@! TO.C,C9*
X123835714Y-91783333D02*
X123873809Y-91821428D01*
X123911904Y-91935714D01*
X123911904Y-92011904D01*
X123873809Y-92126190D01*
X123797619Y-92202380D01*
X123721428Y-92240476D01*
X123569047Y-92278571D01*
X123454761Y-92278571D01*
X123302380Y-92240476D01*
X123226190Y-92202380D01*
X123150000Y-92126190D01*
X123111904Y-92011904D01*
X123111904Y-91935714D01*
X123150000Y-91821428D01*
X123188095Y-91783333D01*
X123911904Y-91402380D02*
X123911904Y-91250000D01*
X123873809Y-91173809D01*
X123835714Y-91135714D01*
X123721428Y-91059523D01*
X123569047Y-91021428D01*
X123264285Y-91021428D01*
X123188095Y-91059523D01*
X123150000Y-91097619D01*
X123111904Y-91173809D01*
X123111904Y-91326190D01*
X123150000Y-91402380D01*
X123188095Y-91440476D01*
X123264285Y-91478571D01*
X123454761Y-91478571D01*
X123530952Y-91440476D01*
X123569047Y-91402380D01*
X123607142Y-91326190D01*
X123607142Y-91173809D01*
X123569047Y-91097619D01*
X123530952Y-91059523D01*
X123454761Y-91021428D01*
G04 #@! TO.C,C10*
X123935714Y-99114285D02*
X123973809Y-99152380D01*
X124011904Y-99266666D01*
X124011904Y-99342857D01*
X123973809Y-99457142D01*
X123897619Y-99533333D01*
X123821428Y-99571428D01*
X123669047Y-99609523D01*
X123554761Y-99609523D01*
X123402380Y-99571428D01*
X123326190Y-99533333D01*
X123250000Y-99457142D01*
X123211904Y-99342857D01*
X123211904Y-99266666D01*
X123250000Y-99152380D01*
X123288095Y-99114285D01*
X124011904Y-98352380D02*
X124011904Y-98809523D01*
X124011904Y-98580952D02*
X123211904Y-98580952D01*
X123326190Y-98657142D01*
X123402380Y-98733333D01*
X123440476Y-98809523D01*
X123211904Y-97857142D02*
X123211904Y-97780952D01*
X123250000Y-97704761D01*
X123288095Y-97666666D01*
X123364285Y-97628571D01*
X123516666Y-97590476D01*
X123707142Y-97590476D01*
X123859523Y-97628571D01*
X123935714Y-97666666D01*
X123973809Y-97704761D01*
X124011904Y-97780952D01*
X124011904Y-97857142D01*
X123973809Y-97933333D01*
X123935714Y-97971428D01*
X123859523Y-98009523D01*
X123707142Y-98047619D01*
X123516666Y-98047619D01*
X123364285Y-98009523D01*
X123288095Y-97971428D01*
X123250000Y-97933333D01*
X123211904Y-97857142D01*
G04 #@! TO.C,C11*
X121185714Y-109960714D02*
X121147619Y-109998809D01*
X121033333Y-110036904D01*
X120957142Y-110036904D01*
X120842857Y-109998809D01*
X120766666Y-109922619D01*
X120728571Y-109846428D01*
X120690476Y-109694047D01*
X120690476Y-109579761D01*
X120728571Y-109427380D01*
X120766666Y-109351190D01*
X120842857Y-109275000D01*
X120957142Y-109236904D01*
X121033333Y-109236904D01*
X121147619Y-109275000D01*
X121185714Y-109313095D01*
X121947619Y-110036904D02*
X121490476Y-110036904D01*
X121719047Y-110036904D02*
X121719047Y-109236904D01*
X121642857Y-109351190D01*
X121566666Y-109427380D01*
X121490476Y-109465476D01*
X122709523Y-110036904D02*
X122252380Y-110036904D01*
X122480952Y-110036904D02*
X122480952Y-109236904D01*
X122404761Y-109351190D01*
X122328571Y-109427380D01*
X122252380Y-109465476D01*
G04 #@! TO.C,C13*
X148585714Y-99135714D02*
X148547619Y-99173809D01*
X148433333Y-99211904D01*
X148357142Y-99211904D01*
X148242857Y-99173809D01*
X148166666Y-99097619D01*
X148128571Y-99021428D01*
X148090476Y-98869047D01*
X148090476Y-98754761D01*
X148128571Y-98602380D01*
X148166666Y-98526190D01*
X148242857Y-98450000D01*
X148357142Y-98411904D01*
X148433333Y-98411904D01*
X148547619Y-98450000D01*
X148585714Y-98488095D01*
X149347619Y-99211904D02*
X148890476Y-99211904D01*
X149119047Y-99211904D02*
X149119047Y-98411904D01*
X149042857Y-98526190D01*
X148966666Y-98602380D01*
X148890476Y-98640476D01*
X149614285Y-98411904D02*
X150109523Y-98411904D01*
X149842857Y-98716666D01*
X149957142Y-98716666D01*
X150033333Y-98754761D01*
X150071428Y-98792857D01*
X150109523Y-98869047D01*
X150109523Y-99059523D01*
X150071428Y-99135714D01*
X150033333Y-99173809D01*
X149957142Y-99211904D01*
X149728571Y-99211904D01*
X149652380Y-99173809D01*
X149614285Y-99135714D01*
G04 #@! TO.C,C15*
D16*
X138978571Y-102121428D02*
X139002380Y-102145238D01*
X139026190Y-102216666D01*
X139026190Y-102264285D01*
X139002380Y-102335714D01*
X138954761Y-102383333D01*
X138907142Y-102407142D01*
X138811904Y-102430952D01*
X138740476Y-102430952D01*
X138645238Y-102407142D01*
X138597619Y-102383333D01*
X138550000Y-102335714D01*
X138526190Y-102264285D01*
X138526190Y-102216666D01*
X138550000Y-102145238D01*
X138573809Y-102121428D01*
X139026190Y-101645238D02*
X139026190Y-101930952D01*
X139026190Y-101788095D02*
X138526190Y-101788095D01*
X138597619Y-101835714D01*
X138645238Y-101883333D01*
X138669047Y-101930952D01*
X138526190Y-101192857D02*
X138526190Y-101430952D01*
X138764285Y-101454761D01*
X138740476Y-101430952D01*
X138716666Y-101383333D01*
X138716666Y-101264285D01*
X138740476Y-101216666D01*
X138764285Y-101192857D01*
X138811904Y-101169047D01*
X138930952Y-101169047D01*
X138978571Y-101192857D01*
X139002380Y-101216666D01*
X139026190Y-101264285D01*
X139026190Y-101383333D01*
X139002380Y-101430952D01*
X138978571Y-101454761D01*
G04 #@! TO.C,C16*
D11*
X168735714Y-101014285D02*
X168773809Y-101052380D01*
X168811904Y-101166666D01*
X168811904Y-101242857D01*
X168773809Y-101357142D01*
X168697619Y-101433333D01*
X168621428Y-101471428D01*
X168469047Y-101509523D01*
X168354761Y-101509523D01*
X168202380Y-101471428D01*
X168126190Y-101433333D01*
X168050000Y-101357142D01*
X168011904Y-101242857D01*
X168011904Y-101166666D01*
X168050000Y-101052380D01*
X168088095Y-101014285D01*
X168811904Y-100252380D02*
X168811904Y-100709523D01*
X168811904Y-100480952D02*
X168011904Y-100480952D01*
X168126190Y-100557142D01*
X168202380Y-100633333D01*
X168240476Y-100709523D01*
X168011904Y-99566666D02*
X168011904Y-99719047D01*
X168050000Y-99795238D01*
X168088095Y-99833333D01*
X168202380Y-99909523D01*
X168354761Y-99947619D01*
X168659523Y-99947619D01*
X168735714Y-99909523D01*
X168773809Y-99871428D01*
X168811904Y-99795238D01*
X168811904Y-99642857D01*
X168773809Y-99566666D01*
X168735714Y-99528571D01*
X168659523Y-99490476D01*
X168469047Y-99490476D01*
X168392857Y-99528571D01*
X168354761Y-99566666D01*
X168316666Y-99642857D01*
X168316666Y-99795238D01*
X168354761Y-99871428D01*
X168392857Y-99909523D01*
X168469047Y-99947619D01*
G04 #@! TO.C,C17*
X167135714Y-103435714D02*
X167097619Y-103473809D01*
X166983333Y-103511904D01*
X166907142Y-103511904D01*
X166792857Y-103473809D01*
X166716666Y-103397619D01*
X166678571Y-103321428D01*
X166640476Y-103169047D01*
X166640476Y-103054761D01*
X166678571Y-102902380D01*
X166716666Y-102826190D01*
X166792857Y-102750000D01*
X166907142Y-102711904D01*
X166983333Y-102711904D01*
X167097619Y-102750000D01*
X167135714Y-102788095D01*
X167897619Y-103511904D02*
X167440476Y-103511904D01*
X167669047Y-103511904D02*
X167669047Y-102711904D01*
X167592857Y-102826190D01*
X167516666Y-102902380D01*
X167440476Y-102940476D01*
X168164285Y-102711904D02*
X168697619Y-102711904D01*
X168354761Y-103511904D01*
G04 #@! TO.C,C18*
X163264285Y-100135714D02*
X163292857Y-100164285D01*
X163321428Y-100250000D01*
X163321428Y-100307142D01*
X163292857Y-100392857D01*
X163235714Y-100450000D01*
X163178571Y-100478571D01*
X163064285Y-100507142D01*
X162978571Y-100507142D01*
X162864285Y-100478571D01*
X162807142Y-100450000D01*
X162750000Y-100392857D01*
X162721428Y-100307142D01*
X162721428Y-100250000D01*
X162750000Y-100164285D01*
X162778571Y-100135714D01*
X163321428Y-99564285D02*
X163321428Y-99907142D01*
X163321428Y-99735714D02*
X162721428Y-99735714D01*
X162807142Y-99792857D01*
X162864285Y-99850000D01*
X162892857Y-99907142D01*
X162978571Y-99221428D02*
X162950000Y-99278571D01*
X162921428Y-99307142D01*
X162864285Y-99335714D01*
X162835714Y-99335714D01*
X162778571Y-99307142D01*
X162750000Y-99278571D01*
X162721428Y-99221428D01*
X162721428Y-99107142D01*
X162750000Y-99050000D01*
X162778571Y-99021428D01*
X162835714Y-98992857D01*
X162864285Y-98992857D01*
X162921428Y-99021428D01*
X162950000Y-99050000D01*
X162978571Y-99107142D01*
X162978571Y-99221428D01*
X163007142Y-99278571D01*
X163035714Y-99307142D01*
X163092857Y-99335714D01*
X163207142Y-99335714D01*
X163264285Y-99307142D01*
X163292857Y-99278571D01*
X163321428Y-99221428D01*
X163321428Y-99107142D01*
X163292857Y-99050000D01*
X163264285Y-99021428D01*
X163207142Y-98992857D01*
X163092857Y-98992857D01*
X163035714Y-99021428D01*
X163007142Y-99050000D01*
X162978571Y-99107142D01*
G04 #@! TO.C,C19*
X151235714Y-100814285D02*
X151273809Y-100852380D01*
X151311904Y-100966666D01*
X151311904Y-101042857D01*
X151273809Y-101157142D01*
X151197619Y-101233333D01*
X151121428Y-101271428D01*
X150969047Y-101309523D01*
X150854761Y-101309523D01*
X150702380Y-101271428D01*
X150626190Y-101233333D01*
X150550000Y-101157142D01*
X150511904Y-101042857D01*
X150511904Y-100966666D01*
X150550000Y-100852380D01*
X150588095Y-100814285D01*
X151311904Y-100052380D02*
X151311904Y-100509523D01*
X151311904Y-100280952D02*
X150511904Y-100280952D01*
X150626190Y-100357142D01*
X150702380Y-100433333D01*
X150740476Y-100509523D01*
X151311904Y-99671428D02*
X151311904Y-99519047D01*
X151273809Y-99442857D01*
X151235714Y-99404761D01*
X151121428Y-99328571D01*
X150969047Y-99290476D01*
X150664285Y-99290476D01*
X150588095Y-99328571D01*
X150550000Y-99366666D01*
X150511904Y-99442857D01*
X150511904Y-99595238D01*
X150550000Y-99671428D01*
X150588095Y-99709523D01*
X150664285Y-99747619D01*
X150854761Y-99747619D01*
X150930952Y-99709523D01*
X150969047Y-99671428D01*
X151007142Y-99595238D01*
X151007142Y-99442857D01*
X150969047Y-99366666D01*
X150930952Y-99328571D01*
X150854761Y-99290476D01*
G04 #@! TO.C,C20*
X169985714Y-111064285D02*
X170023809Y-111102380D01*
X170061904Y-111216666D01*
X170061904Y-111292857D01*
X170023809Y-111407142D01*
X169947619Y-111483333D01*
X169871428Y-111521428D01*
X169719047Y-111559523D01*
X169604761Y-111559523D01*
X169452380Y-111521428D01*
X169376190Y-111483333D01*
X169300000Y-111407142D01*
X169261904Y-111292857D01*
X169261904Y-111216666D01*
X169300000Y-111102380D01*
X169338095Y-111064285D01*
X169338095Y-110759523D02*
X169300000Y-110721428D01*
X169261904Y-110645238D01*
X169261904Y-110454761D01*
X169300000Y-110378571D01*
X169338095Y-110340476D01*
X169414285Y-110302380D01*
X169490476Y-110302380D01*
X169604761Y-110340476D01*
X170061904Y-110797619D01*
X170061904Y-110302380D01*
X169261904Y-109807142D02*
X169261904Y-109730952D01*
X169300000Y-109654761D01*
X169338095Y-109616666D01*
X169414285Y-109578571D01*
X169566666Y-109540476D01*
X169757142Y-109540476D01*
X169909523Y-109578571D01*
X169985714Y-109616666D01*
X170023809Y-109654761D01*
X170061904Y-109730952D01*
X170061904Y-109807142D01*
X170023809Y-109883333D01*
X169985714Y-109921428D01*
X169909523Y-109959523D01*
X169757142Y-109997619D01*
X169566666Y-109997619D01*
X169414285Y-109959523D01*
X169338095Y-109921428D01*
X169300000Y-109883333D01*
X169261904Y-109807142D01*
G04 #@! TO.C,C21*
X168285714Y-120135714D02*
X168247619Y-120173809D01*
X168133333Y-120211904D01*
X168057142Y-120211904D01*
X167942857Y-120173809D01*
X167866666Y-120097619D01*
X167828571Y-120021428D01*
X167790476Y-119869047D01*
X167790476Y-119754761D01*
X167828571Y-119602380D01*
X167866666Y-119526190D01*
X167942857Y-119450000D01*
X168057142Y-119411904D01*
X168133333Y-119411904D01*
X168247619Y-119450000D01*
X168285714Y-119488095D01*
X168590476Y-119488095D02*
X168628571Y-119450000D01*
X168704761Y-119411904D01*
X168895238Y-119411904D01*
X168971428Y-119450000D01*
X169009523Y-119488095D01*
X169047619Y-119564285D01*
X169047619Y-119640476D01*
X169009523Y-119754761D01*
X168552380Y-120211904D01*
X169047619Y-120211904D01*
X169809523Y-120211904D02*
X169352380Y-120211904D01*
X169580952Y-120211904D02*
X169580952Y-119411904D01*
X169504761Y-119526190D01*
X169428571Y-119602380D01*
X169352380Y-119640476D01*
G04 #@! TO.C,C22*
X171085714Y-120135714D02*
X171047619Y-120173809D01*
X170933333Y-120211904D01*
X170857142Y-120211904D01*
X170742857Y-120173809D01*
X170666666Y-120097619D01*
X170628571Y-120021428D01*
X170590476Y-119869047D01*
X170590476Y-119754761D01*
X170628571Y-119602380D01*
X170666666Y-119526190D01*
X170742857Y-119450000D01*
X170857142Y-119411904D01*
X170933333Y-119411904D01*
X171047619Y-119450000D01*
X171085714Y-119488095D01*
X171390476Y-119488095D02*
X171428571Y-119450000D01*
X171504761Y-119411904D01*
X171695238Y-119411904D01*
X171771428Y-119450000D01*
X171809523Y-119488095D01*
X171847619Y-119564285D01*
X171847619Y-119640476D01*
X171809523Y-119754761D01*
X171352380Y-120211904D01*
X171847619Y-120211904D01*
X172152380Y-119488095D02*
X172190476Y-119450000D01*
X172266666Y-119411904D01*
X172457142Y-119411904D01*
X172533333Y-119450000D01*
X172571428Y-119488095D01*
X172609523Y-119564285D01*
X172609523Y-119640476D01*
X172571428Y-119754761D01*
X172114285Y-120211904D01*
X172609523Y-120211904D01*
G04 #@! TO.C,C23*
X149785714Y-107835714D02*
X149747619Y-107873809D01*
X149633333Y-107911904D01*
X149557142Y-107911904D01*
X149442857Y-107873809D01*
X149366666Y-107797619D01*
X149328571Y-107721428D01*
X149290476Y-107569047D01*
X149290476Y-107454761D01*
X149328571Y-107302380D01*
X149366666Y-107226190D01*
X149442857Y-107150000D01*
X149557142Y-107111904D01*
X149633333Y-107111904D01*
X149747619Y-107150000D01*
X149785714Y-107188095D01*
X150090476Y-107188095D02*
X150128571Y-107150000D01*
X150204761Y-107111904D01*
X150395238Y-107111904D01*
X150471428Y-107150000D01*
X150509523Y-107188095D01*
X150547619Y-107264285D01*
X150547619Y-107340476D01*
X150509523Y-107454761D01*
X150052380Y-107911904D01*
X150547619Y-107911904D01*
X150814285Y-107111904D02*
X151309523Y-107111904D01*
X151042857Y-107416666D01*
X151157142Y-107416666D01*
X151233333Y-107454761D01*
X151271428Y-107492857D01*
X151309523Y-107569047D01*
X151309523Y-107759523D01*
X151271428Y-107835714D01*
X151233333Y-107873809D01*
X151157142Y-107911904D01*
X150928571Y-107911904D01*
X150852380Y-107873809D01*
X150814285Y-107835714D01*
G04 #@! TO.C,C24*
D10*
X153414285Y-86414285D02*
X153385714Y-86442857D01*
X153300000Y-86471428D01*
X153242857Y-86471428D01*
X153157142Y-86442857D01*
X153100000Y-86385714D01*
X153071428Y-86328571D01*
X153042857Y-86214285D01*
X153042857Y-86128571D01*
X153071428Y-86014285D01*
X153100000Y-85957142D01*
X153157142Y-85900000D01*
X153242857Y-85871428D01*
X153300000Y-85871428D01*
X153385714Y-85900000D01*
X153414285Y-85928571D01*
X153642857Y-85928571D02*
X153671428Y-85900000D01*
X153728571Y-85871428D01*
X153871428Y-85871428D01*
X153928571Y-85900000D01*
X153957142Y-85928571D01*
X153985714Y-85985714D01*
X153985714Y-86042857D01*
X153957142Y-86128571D01*
X153614285Y-86471428D01*
X153985714Y-86471428D01*
X154500000Y-86071428D02*
X154500000Y-86471428D01*
X154357142Y-85842857D02*
X154214285Y-86271428D01*
X154585714Y-86271428D01*
G04 #@! TO.C,C25*
D11*
X129185714Y-110364285D02*
X129223809Y-110402380D01*
X129261904Y-110516666D01*
X129261904Y-110592857D01*
X129223809Y-110707142D01*
X129147619Y-110783333D01*
X129071428Y-110821428D01*
X128919047Y-110859523D01*
X128804761Y-110859523D01*
X128652380Y-110821428D01*
X128576190Y-110783333D01*
X128500000Y-110707142D01*
X128461904Y-110592857D01*
X128461904Y-110516666D01*
X128500000Y-110402380D01*
X128538095Y-110364285D01*
X128538095Y-110059523D02*
X128500000Y-110021428D01*
X128461904Y-109945238D01*
X128461904Y-109754761D01*
X128500000Y-109678571D01*
X128538095Y-109640476D01*
X128614285Y-109602380D01*
X128690476Y-109602380D01*
X128804761Y-109640476D01*
X129261904Y-110097619D01*
X129261904Y-109602380D01*
X128461904Y-108878571D02*
X128461904Y-109259523D01*
X128842857Y-109297619D01*
X128804761Y-109259523D01*
X128766666Y-109183333D01*
X128766666Y-108992857D01*
X128804761Y-108916666D01*
X128842857Y-108878571D01*
X128919047Y-108840476D01*
X129109523Y-108840476D01*
X129185714Y-108878571D01*
X129223809Y-108916666D01*
X129261904Y-108992857D01*
X129261904Y-109183333D01*
X129223809Y-109259523D01*
X129185714Y-109297619D01*
G04 #@! TO.C,C26*
X121835714Y-111435714D02*
X121797619Y-111473809D01*
X121683333Y-111511904D01*
X121607142Y-111511904D01*
X121492857Y-111473809D01*
X121416666Y-111397619D01*
X121378571Y-111321428D01*
X121340476Y-111169047D01*
X121340476Y-111054761D01*
X121378571Y-110902380D01*
X121416666Y-110826190D01*
X121492857Y-110750000D01*
X121607142Y-110711904D01*
X121683333Y-110711904D01*
X121797619Y-110750000D01*
X121835714Y-110788095D01*
X122140476Y-110788095D02*
X122178571Y-110750000D01*
X122254761Y-110711904D01*
X122445238Y-110711904D01*
X122521428Y-110750000D01*
X122559523Y-110788095D01*
X122597619Y-110864285D01*
X122597619Y-110940476D01*
X122559523Y-111054761D01*
X122102380Y-111511904D01*
X122597619Y-111511904D01*
X123283333Y-110711904D02*
X123130952Y-110711904D01*
X123054761Y-110750000D01*
X123016666Y-110788095D01*
X122940476Y-110902380D01*
X122902380Y-111054761D01*
X122902380Y-111359523D01*
X122940476Y-111435714D01*
X122978571Y-111473809D01*
X123054761Y-111511904D01*
X123207142Y-111511904D01*
X123283333Y-111473809D01*
X123321428Y-111435714D01*
X123359523Y-111359523D01*
X123359523Y-111169047D01*
X123321428Y-111092857D01*
X123283333Y-111054761D01*
X123207142Y-111016666D01*
X123054761Y-111016666D01*
X122978571Y-111054761D01*
X122940476Y-111092857D01*
X122902380Y-111169047D01*
G04 #@! TO.C,C27*
X154214285Y-91685714D02*
X154242857Y-91714285D01*
X154271428Y-91800000D01*
X154271428Y-91857142D01*
X154242857Y-91942857D01*
X154185714Y-92000000D01*
X154128571Y-92028571D01*
X154014285Y-92057142D01*
X153928571Y-92057142D01*
X153814285Y-92028571D01*
X153757142Y-92000000D01*
X153700000Y-91942857D01*
X153671428Y-91857142D01*
X153671428Y-91800000D01*
X153700000Y-91714285D01*
X153728571Y-91685714D01*
X153728571Y-91457142D02*
X153700000Y-91428571D01*
X153671428Y-91371428D01*
X153671428Y-91228571D01*
X153700000Y-91171428D01*
X153728571Y-91142857D01*
X153785714Y-91114285D01*
X153842857Y-91114285D01*
X153928571Y-91142857D01*
X154271428Y-91485714D01*
X154271428Y-91114285D01*
X153671428Y-90914285D02*
X153671428Y-90514285D01*
X154271428Y-90771428D01*
G04 #@! TO.C,C28*
X152885714Y-94135714D02*
X152847619Y-94173809D01*
X152733333Y-94211904D01*
X152657142Y-94211904D01*
X152542857Y-94173809D01*
X152466666Y-94097619D01*
X152428571Y-94021428D01*
X152390476Y-93869047D01*
X152390476Y-93754761D01*
X152428571Y-93602380D01*
X152466666Y-93526190D01*
X152542857Y-93450000D01*
X152657142Y-93411904D01*
X152733333Y-93411904D01*
X152847619Y-93450000D01*
X152885714Y-93488095D01*
X153190476Y-93488095D02*
X153228571Y-93450000D01*
X153304761Y-93411904D01*
X153495238Y-93411904D01*
X153571428Y-93450000D01*
X153609523Y-93488095D01*
X153647619Y-93564285D01*
X153647619Y-93640476D01*
X153609523Y-93754761D01*
X153152380Y-94211904D01*
X153647619Y-94211904D01*
X154104761Y-93754761D02*
X154028571Y-93716666D01*
X153990476Y-93678571D01*
X153952380Y-93602380D01*
X153952380Y-93564285D01*
X153990476Y-93488095D01*
X154028571Y-93450000D01*
X154104761Y-93411904D01*
X154257142Y-93411904D01*
X154333333Y-93450000D01*
X154371428Y-93488095D01*
X154409523Y-93564285D01*
X154409523Y-93602380D01*
X154371428Y-93678571D01*
X154333333Y-93716666D01*
X154257142Y-93754761D01*
X154104761Y-93754761D01*
X154028571Y-93792857D01*
X153990476Y-93830952D01*
X153952380Y-93907142D01*
X153952380Y-94059523D01*
X153990476Y-94135714D01*
X154028571Y-94173809D01*
X154104761Y-94211904D01*
X154257142Y-94211904D01*
X154333333Y-94173809D01*
X154371428Y-94135714D01*
X154409523Y-94059523D01*
X154409523Y-93907142D01*
X154371428Y-93830952D01*
X154333333Y-93792857D01*
X154257142Y-93754761D01*
G04 #@! TO.C,C29*
X117185714Y-69885714D02*
X117147619Y-69923809D01*
X117033333Y-69961904D01*
X116957142Y-69961904D01*
X116842857Y-69923809D01*
X116766666Y-69847619D01*
X116728571Y-69771428D01*
X116690476Y-69619047D01*
X116690476Y-69504761D01*
X116728571Y-69352380D01*
X116766666Y-69276190D01*
X116842857Y-69200000D01*
X116957142Y-69161904D01*
X117033333Y-69161904D01*
X117147619Y-69200000D01*
X117185714Y-69238095D01*
X117490476Y-69238095D02*
X117528571Y-69200000D01*
X117604761Y-69161904D01*
X117795238Y-69161904D01*
X117871428Y-69200000D01*
X117909523Y-69238095D01*
X117947619Y-69314285D01*
X117947619Y-69390476D01*
X117909523Y-69504761D01*
X117452380Y-69961904D01*
X117947619Y-69961904D01*
X118328571Y-69961904D02*
X118480952Y-69961904D01*
X118557142Y-69923809D01*
X118595238Y-69885714D01*
X118671428Y-69771428D01*
X118709523Y-69619047D01*
X118709523Y-69314285D01*
X118671428Y-69238095D01*
X118633333Y-69200000D01*
X118557142Y-69161904D01*
X118404761Y-69161904D01*
X118328571Y-69200000D01*
X118290476Y-69238095D01*
X118252380Y-69314285D01*
X118252380Y-69504761D01*
X118290476Y-69580952D01*
X118328571Y-69619047D01*
X118404761Y-69657142D01*
X118557142Y-69657142D01*
X118633333Y-69619047D01*
X118671428Y-69580952D01*
X118709523Y-69504761D01*
G04 #@! TO.C,C30*
X114785714Y-69885714D02*
X114747619Y-69923809D01*
X114633333Y-69961904D01*
X114557142Y-69961904D01*
X114442857Y-69923809D01*
X114366666Y-69847619D01*
X114328571Y-69771428D01*
X114290476Y-69619047D01*
X114290476Y-69504761D01*
X114328571Y-69352380D01*
X114366666Y-69276190D01*
X114442857Y-69200000D01*
X114557142Y-69161904D01*
X114633333Y-69161904D01*
X114747619Y-69200000D01*
X114785714Y-69238095D01*
X115052380Y-69161904D02*
X115547619Y-69161904D01*
X115280952Y-69466666D01*
X115395238Y-69466666D01*
X115471428Y-69504761D01*
X115509523Y-69542857D01*
X115547619Y-69619047D01*
X115547619Y-69809523D01*
X115509523Y-69885714D01*
X115471428Y-69923809D01*
X115395238Y-69961904D01*
X115166666Y-69961904D01*
X115090476Y-69923809D01*
X115052380Y-69885714D01*
X116042857Y-69161904D02*
X116119047Y-69161904D01*
X116195238Y-69200000D01*
X116233333Y-69238095D01*
X116271428Y-69314285D01*
X116309523Y-69466666D01*
X116309523Y-69657142D01*
X116271428Y-69809523D01*
X116233333Y-69885714D01*
X116195238Y-69923809D01*
X116119047Y-69961904D01*
X116042857Y-69961904D01*
X115966666Y-69923809D01*
X115928571Y-69885714D01*
X115890476Y-69809523D01*
X115852380Y-69657142D01*
X115852380Y-69466666D01*
X115890476Y-69314285D01*
X115928571Y-69238095D01*
X115966666Y-69200000D01*
X116042857Y-69161904D01*
G04 #@! TO.C,C31*
X112485714Y-69885714D02*
X112447619Y-69923809D01*
X112333333Y-69961904D01*
X112257142Y-69961904D01*
X112142857Y-69923809D01*
X112066666Y-69847619D01*
X112028571Y-69771428D01*
X111990476Y-69619047D01*
X111990476Y-69504761D01*
X112028571Y-69352380D01*
X112066666Y-69276190D01*
X112142857Y-69200000D01*
X112257142Y-69161904D01*
X112333333Y-69161904D01*
X112447619Y-69200000D01*
X112485714Y-69238095D01*
X112752380Y-69161904D02*
X113247619Y-69161904D01*
X112980952Y-69466666D01*
X113095238Y-69466666D01*
X113171428Y-69504761D01*
X113209523Y-69542857D01*
X113247619Y-69619047D01*
X113247619Y-69809523D01*
X113209523Y-69885714D01*
X113171428Y-69923809D01*
X113095238Y-69961904D01*
X112866666Y-69961904D01*
X112790476Y-69923809D01*
X112752380Y-69885714D01*
X114009523Y-69961904D02*
X113552380Y-69961904D01*
X113780952Y-69961904D02*
X113780952Y-69161904D01*
X113704761Y-69276190D01*
X113628571Y-69352380D01*
X113552380Y-69390476D01*
G04 #@! TO.C,C32*
X109885714Y-69885714D02*
X109847619Y-69923809D01*
X109733333Y-69961904D01*
X109657142Y-69961904D01*
X109542857Y-69923809D01*
X109466666Y-69847619D01*
X109428571Y-69771428D01*
X109390476Y-69619047D01*
X109390476Y-69504761D01*
X109428571Y-69352380D01*
X109466666Y-69276190D01*
X109542857Y-69200000D01*
X109657142Y-69161904D01*
X109733333Y-69161904D01*
X109847619Y-69200000D01*
X109885714Y-69238095D01*
X110152380Y-69161904D02*
X110647619Y-69161904D01*
X110380952Y-69466666D01*
X110495238Y-69466666D01*
X110571428Y-69504761D01*
X110609523Y-69542857D01*
X110647619Y-69619047D01*
X110647619Y-69809523D01*
X110609523Y-69885714D01*
X110571428Y-69923809D01*
X110495238Y-69961904D01*
X110266666Y-69961904D01*
X110190476Y-69923809D01*
X110152380Y-69885714D01*
X110952380Y-69238095D02*
X110990476Y-69200000D01*
X111066666Y-69161904D01*
X111257142Y-69161904D01*
X111333333Y-69200000D01*
X111371428Y-69238095D01*
X111409523Y-69314285D01*
X111409523Y-69390476D01*
X111371428Y-69504761D01*
X110914285Y-69961904D01*
X111409523Y-69961904D01*
G04 #@! TO.C,C34*
X122585714Y-69885714D02*
X122547619Y-69923809D01*
X122433333Y-69961904D01*
X122357142Y-69961904D01*
X122242857Y-69923809D01*
X122166666Y-69847619D01*
X122128571Y-69771428D01*
X122090476Y-69619047D01*
X122090476Y-69504761D01*
X122128571Y-69352380D01*
X122166666Y-69276190D01*
X122242857Y-69200000D01*
X122357142Y-69161904D01*
X122433333Y-69161904D01*
X122547619Y-69200000D01*
X122585714Y-69238095D01*
X122852380Y-69161904D02*
X123347619Y-69161904D01*
X123080952Y-69466666D01*
X123195238Y-69466666D01*
X123271428Y-69504761D01*
X123309523Y-69542857D01*
X123347619Y-69619047D01*
X123347619Y-69809523D01*
X123309523Y-69885714D01*
X123271428Y-69923809D01*
X123195238Y-69961904D01*
X122966666Y-69961904D01*
X122890476Y-69923809D01*
X122852380Y-69885714D01*
X124033333Y-69428571D02*
X124033333Y-69961904D01*
X123842857Y-69123809D02*
X123652380Y-69695238D01*
X124147619Y-69695238D01*
G04 #@! TO.C,C35*
X125085714Y-69885714D02*
X125047619Y-69923809D01*
X124933333Y-69961904D01*
X124857142Y-69961904D01*
X124742857Y-69923809D01*
X124666666Y-69847619D01*
X124628571Y-69771428D01*
X124590476Y-69619047D01*
X124590476Y-69504761D01*
X124628571Y-69352380D01*
X124666666Y-69276190D01*
X124742857Y-69200000D01*
X124857142Y-69161904D01*
X124933333Y-69161904D01*
X125047619Y-69200000D01*
X125085714Y-69238095D01*
X125352380Y-69161904D02*
X125847619Y-69161904D01*
X125580952Y-69466666D01*
X125695238Y-69466666D01*
X125771428Y-69504761D01*
X125809523Y-69542857D01*
X125847619Y-69619047D01*
X125847619Y-69809523D01*
X125809523Y-69885714D01*
X125771428Y-69923809D01*
X125695238Y-69961904D01*
X125466666Y-69961904D01*
X125390476Y-69923809D01*
X125352380Y-69885714D01*
X126571428Y-69161904D02*
X126190476Y-69161904D01*
X126152380Y-69542857D01*
X126190476Y-69504761D01*
X126266666Y-69466666D01*
X126457142Y-69466666D01*
X126533333Y-69504761D01*
X126571428Y-69542857D01*
X126609523Y-69619047D01*
X126609523Y-69809523D01*
X126571428Y-69885714D01*
X126533333Y-69923809D01*
X126457142Y-69961904D01*
X126266666Y-69961904D01*
X126190476Y-69923809D01*
X126152380Y-69885714D01*
G04 #@! TO.C,C36*
X162785714Y-79885714D02*
X162747619Y-79923809D01*
X162633333Y-79961904D01*
X162557142Y-79961904D01*
X162442857Y-79923809D01*
X162366666Y-79847619D01*
X162328571Y-79771428D01*
X162290476Y-79619047D01*
X162290476Y-79504761D01*
X162328571Y-79352380D01*
X162366666Y-79276190D01*
X162442857Y-79200000D01*
X162557142Y-79161904D01*
X162633333Y-79161904D01*
X162747619Y-79200000D01*
X162785714Y-79238095D01*
X163052380Y-79161904D02*
X163547619Y-79161904D01*
X163280952Y-79466666D01*
X163395238Y-79466666D01*
X163471428Y-79504761D01*
X163509523Y-79542857D01*
X163547619Y-79619047D01*
X163547619Y-79809523D01*
X163509523Y-79885714D01*
X163471428Y-79923809D01*
X163395238Y-79961904D01*
X163166666Y-79961904D01*
X163090476Y-79923809D01*
X163052380Y-79885714D01*
X164233333Y-79161904D02*
X164080952Y-79161904D01*
X164004761Y-79200000D01*
X163966666Y-79238095D01*
X163890476Y-79352380D01*
X163852380Y-79504761D01*
X163852380Y-79809523D01*
X163890476Y-79885714D01*
X163928571Y-79923809D01*
X164004761Y-79961904D01*
X164157142Y-79961904D01*
X164233333Y-79923809D01*
X164271428Y-79885714D01*
X164309523Y-79809523D01*
X164309523Y-79619047D01*
X164271428Y-79542857D01*
X164233333Y-79504761D01*
X164157142Y-79466666D01*
X164004761Y-79466666D01*
X163928571Y-79504761D01*
X163890476Y-79542857D01*
X163852380Y-79619047D01*
G04 #@! TO.C,C37*
X162935714Y-82735714D02*
X162897619Y-82773809D01*
X162783333Y-82811904D01*
X162707142Y-82811904D01*
X162592857Y-82773809D01*
X162516666Y-82697619D01*
X162478571Y-82621428D01*
X162440476Y-82469047D01*
X162440476Y-82354761D01*
X162478571Y-82202380D01*
X162516666Y-82126190D01*
X162592857Y-82050000D01*
X162707142Y-82011904D01*
X162783333Y-82011904D01*
X162897619Y-82050000D01*
X162935714Y-82088095D01*
X163202380Y-82011904D02*
X163697619Y-82011904D01*
X163430952Y-82316666D01*
X163545238Y-82316666D01*
X163621428Y-82354761D01*
X163659523Y-82392857D01*
X163697619Y-82469047D01*
X163697619Y-82659523D01*
X163659523Y-82735714D01*
X163621428Y-82773809D01*
X163545238Y-82811904D01*
X163316666Y-82811904D01*
X163240476Y-82773809D01*
X163202380Y-82735714D01*
X163964285Y-82011904D02*
X164497619Y-82011904D01*
X164154761Y-82811904D01*
G04 #@! TO.C,C38*
X154464285Y-83785714D02*
X154492857Y-83814285D01*
X154521428Y-83900000D01*
X154521428Y-83957142D01*
X154492857Y-84042857D01*
X154435714Y-84100000D01*
X154378571Y-84128571D01*
X154264285Y-84157142D01*
X154178571Y-84157142D01*
X154064285Y-84128571D01*
X154007142Y-84100000D01*
X153950000Y-84042857D01*
X153921428Y-83957142D01*
X153921428Y-83900000D01*
X153950000Y-83814285D01*
X153978571Y-83785714D01*
X153921428Y-83585714D02*
X153921428Y-83214285D01*
X154150000Y-83414285D01*
X154150000Y-83328571D01*
X154178571Y-83271428D01*
X154207142Y-83242857D01*
X154264285Y-83214285D01*
X154407142Y-83214285D01*
X154464285Y-83242857D01*
X154492857Y-83271428D01*
X154521428Y-83328571D01*
X154521428Y-83500000D01*
X154492857Y-83557142D01*
X154464285Y-83585714D01*
X154178571Y-82871428D02*
X154150000Y-82928571D01*
X154121428Y-82957142D01*
X154064285Y-82985714D01*
X154035714Y-82985714D01*
X153978571Y-82957142D01*
X153950000Y-82928571D01*
X153921428Y-82871428D01*
X153921428Y-82757142D01*
X153950000Y-82700000D01*
X153978571Y-82671428D01*
X154035714Y-82642857D01*
X154064285Y-82642857D01*
X154121428Y-82671428D01*
X154150000Y-82700000D01*
X154178571Y-82757142D01*
X154178571Y-82871428D01*
X154207142Y-82928571D01*
X154235714Y-82957142D01*
X154292857Y-82985714D01*
X154407142Y-82985714D01*
X154464285Y-82957142D01*
X154492857Y-82928571D01*
X154521428Y-82871428D01*
X154521428Y-82757142D01*
X154492857Y-82700000D01*
X154464285Y-82671428D01*
X154407142Y-82642857D01*
X154292857Y-82642857D01*
X154235714Y-82671428D01*
X154207142Y-82700000D01*
X154178571Y-82757142D01*
G04 #@! TO.C,C39*
X156335714Y-76985714D02*
X156297619Y-77023809D01*
X156183333Y-77061904D01*
X156107142Y-77061904D01*
X155992857Y-77023809D01*
X155916666Y-76947619D01*
X155878571Y-76871428D01*
X155840476Y-76719047D01*
X155840476Y-76604761D01*
X155878571Y-76452380D01*
X155916666Y-76376190D01*
X155992857Y-76300000D01*
X156107142Y-76261904D01*
X156183333Y-76261904D01*
X156297619Y-76300000D01*
X156335714Y-76338095D01*
X156602380Y-76261904D02*
X157097619Y-76261904D01*
X156830952Y-76566666D01*
X156945238Y-76566666D01*
X157021428Y-76604761D01*
X157059523Y-76642857D01*
X157097619Y-76719047D01*
X157097619Y-76909523D01*
X157059523Y-76985714D01*
X157021428Y-77023809D01*
X156945238Y-77061904D01*
X156716666Y-77061904D01*
X156640476Y-77023809D01*
X156602380Y-76985714D01*
X157478571Y-77061904D02*
X157630952Y-77061904D01*
X157707142Y-77023809D01*
X157745238Y-76985714D01*
X157821428Y-76871428D01*
X157859523Y-76719047D01*
X157859523Y-76414285D01*
X157821428Y-76338095D01*
X157783333Y-76300000D01*
X157707142Y-76261904D01*
X157554761Y-76261904D01*
X157478571Y-76300000D01*
X157440476Y-76338095D01*
X157402380Y-76414285D01*
X157402380Y-76604761D01*
X157440476Y-76680952D01*
X157478571Y-76719047D01*
X157554761Y-76757142D01*
X157707142Y-76757142D01*
X157783333Y-76719047D01*
X157821428Y-76680952D01*
X157859523Y-76604761D01*
G04 #@! TO.C,C40*
X153250000Y-81050000D02*
X153216666Y-81083333D01*
X153116666Y-81116666D01*
X153050000Y-81116666D01*
X152950000Y-81083333D01*
X152883333Y-81016666D01*
X152850000Y-80950000D01*
X152816666Y-80816666D01*
X152816666Y-80716666D01*
X152850000Y-80583333D01*
X152883333Y-80516666D01*
X152950000Y-80450000D01*
X153050000Y-80416666D01*
X153116666Y-80416666D01*
X153216666Y-80450000D01*
X153250000Y-80483333D01*
X153850000Y-80650000D02*
X153850000Y-81116666D01*
X153683333Y-80383333D02*
X153516666Y-80883333D01*
X153950000Y-80883333D01*
X154350000Y-80416666D02*
X154416666Y-80416666D01*
X154483333Y-80450000D01*
X154516666Y-80483333D01*
X154550000Y-80550000D01*
X154583333Y-80683333D01*
X154583333Y-80850000D01*
X154550000Y-80983333D01*
X154516666Y-81050000D01*
X154483333Y-81083333D01*
X154416666Y-81116666D01*
X154350000Y-81116666D01*
X154283333Y-81083333D01*
X154250000Y-81050000D01*
X154216666Y-80983333D01*
X154183333Y-80850000D01*
X154183333Y-80683333D01*
X154216666Y-80550000D01*
X154250000Y-80483333D01*
X154283333Y-80450000D01*
X154350000Y-80416666D01*
G04 #@! TO.C,C41*
X134414285Y-105585714D02*
X134442857Y-105614285D01*
X134471428Y-105700000D01*
X134471428Y-105757142D01*
X134442857Y-105842857D01*
X134385714Y-105900000D01*
X134328571Y-105928571D01*
X134214285Y-105957142D01*
X134128571Y-105957142D01*
X134014285Y-105928571D01*
X133957142Y-105900000D01*
X133900000Y-105842857D01*
X133871428Y-105757142D01*
X133871428Y-105700000D01*
X133900000Y-105614285D01*
X133928571Y-105585714D01*
X134071428Y-105071428D02*
X134471428Y-105071428D01*
X133842857Y-105214285D02*
X134271428Y-105357142D01*
X134271428Y-104985714D01*
X134471428Y-104442857D02*
X134471428Y-104785714D01*
X134471428Y-104614285D02*
X133871428Y-104614285D01*
X133957142Y-104671428D01*
X134014285Y-104728571D01*
X134042857Y-104785714D01*
G04 #@! TO.C,C42*
X134364285Y-103485714D02*
X134392857Y-103514285D01*
X134421428Y-103600000D01*
X134421428Y-103657142D01*
X134392857Y-103742857D01*
X134335714Y-103800000D01*
X134278571Y-103828571D01*
X134164285Y-103857142D01*
X134078571Y-103857142D01*
X133964285Y-103828571D01*
X133907142Y-103800000D01*
X133850000Y-103742857D01*
X133821428Y-103657142D01*
X133821428Y-103600000D01*
X133850000Y-103514285D01*
X133878571Y-103485714D01*
X134021428Y-102971428D02*
X134421428Y-102971428D01*
X133792857Y-103114285D02*
X134221428Y-103257142D01*
X134221428Y-102885714D01*
X133878571Y-102685714D02*
X133850000Y-102657142D01*
X133821428Y-102600000D01*
X133821428Y-102457142D01*
X133850000Y-102400000D01*
X133878571Y-102371428D01*
X133935714Y-102342857D01*
X133992857Y-102342857D01*
X134078571Y-102371428D01*
X134421428Y-102714285D01*
X134421428Y-102342857D01*
G04 #@! TO.C,C43*
X129614285Y-103485714D02*
X129642857Y-103514285D01*
X129671428Y-103600000D01*
X129671428Y-103657142D01*
X129642857Y-103742857D01*
X129585714Y-103800000D01*
X129528571Y-103828571D01*
X129414285Y-103857142D01*
X129328571Y-103857142D01*
X129214285Y-103828571D01*
X129157142Y-103800000D01*
X129100000Y-103742857D01*
X129071428Y-103657142D01*
X129071428Y-103600000D01*
X129100000Y-103514285D01*
X129128571Y-103485714D01*
X129271428Y-102971428D02*
X129671428Y-102971428D01*
X129042857Y-103114285D02*
X129471428Y-103257142D01*
X129471428Y-102885714D01*
X129071428Y-102714285D02*
X129071428Y-102342857D01*
X129300000Y-102542857D01*
X129300000Y-102457142D01*
X129328571Y-102400000D01*
X129357142Y-102371428D01*
X129414285Y-102342857D01*
X129557142Y-102342857D01*
X129614285Y-102371428D01*
X129642857Y-102400000D01*
X129671428Y-102457142D01*
X129671428Y-102628571D01*
X129642857Y-102685714D01*
X129614285Y-102714285D01*
G04 #@! TO.C,C44*
X129664285Y-105685714D02*
X129692857Y-105714285D01*
X129721428Y-105800000D01*
X129721428Y-105857142D01*
X129692857Y-105942857D01*
X129635714Y-106000000D01*
X129578571Y-106028571D01*
X129464285Y-106057142D01*
X129378571Y-106057142D01*
X129264285Y-106028571D01*
X129207142Y-106000000D01*
X129150000Y-105942857D01*
X129121428Y-105857142D01*
X129121428Y-105800000D01*
X129150000Y-105714285D01*
X129178571Y-105685714D01*
X129321428Y-105171428D02*
X129721428Y-105171428D01*
X129092857Y-105314285D02*
X129521428Y-105457142D01*
X129521428Y-105085714D01*
X129321428Y-104600000D02*
X129721428Y-104600000D01*
X129092857Y-104742857D02*
X129521428Y-104885714D01*
X129521428Y-104514285D01*
G04 #@! TO.C,C45*
X130185714Y-98435714D02*
X130147619Y-98473809D01*
X130033333Y-98511904D01*
X129957142Y-98511904D01*
X129842857Y-98473809D01*
X129766666Y-98397619D01*
X129728571Y-98321428D01*
X129690476Y-98169047D01*
X129690476Y-98054761D01*
X129728571Y-97902380D01*
X129766666Y-97826190D01*
X129842857Y-97750000D01*
X129957142Y-97711904D01*
X130033333Y-97711904D01*
X130147619Y-97750000D01*
X130185714Y-97788095D01*
X130871428Y-97978571D02*
X130871428Y-98511904D01*
X130680952Y-97673809D02*
X130490476Y-98245238D01*
X130985714Y-98245238D01*
X131671428Y-97711904D02*
X131290476Y-97711904D01*
X131252380Y-98092857D01*
X131290476Y-98054761D01*
X131366666Y-98016666D01*
X131557142Y-98016666D01*
X131633333Y-98054761D01*
X131671428Y-98092857D01*
X131709523Y-98169047D01*
X131709523Y-98359523D01*
X131671428Y-98435714D01*
X131633333Y-98473809D01*
X131557142Y-98511904D01*
X131366666Y-98511904D01*
X131290476Y-98473809D01*
X131252380Y-98435714D01*
G04 #@! TO.C,C46*
X142264285Y-96014285D02*
X142235714Y-96042857D01*
X142150000Y-96071428D01*
X142092857Y-96071428D01*
X142007142Y-96042857D01*
X141950000Y-95985714D01*
X141921428Y-95928571D01*
X141892857Y-95814285D01*
X141892857Y-95728571D01*
X141921428Y-95614285D01*
X141950000Y-95557142D01*
X142007142Y-95500000D01*
X142092857Y-95471428D01*
X142150000Y-95471428D01*
X142235714Y-95500000D01*
X142264285Y-95528571D01*
X142778571Y-95671428D02*
X142778571Y-96071428D01*
X142635714Y-95442857D02*
X142492857Y-95871428D01*
X142864285Y-95871428D01*
X143350000Y-95471428D02*
X143235714Y-95471428D01*
X143178571Y-95500000D01*
X143150000Y-95528571D01*
X143092857Y-95614285D01*
X143064285Y-95728571D01*
X143064285Y-95957142D01*
X143092857Y-96014285D01*
X143121428Y-96042857D01*
X143178571Y-96071428D01*
X143292857Y-96071428D01*
X143350000Y-96042857D01*
X143378571Y-96014285D01*
X143407142Y-95957142D01*
X143407142Y-95814285D01*
X143378571Y-95757142D01*
X143350000Y-95728571D01*
X143292857Y-95700000D01*
X143178571Y-95700000D01*
X143121428Y-95728571D01*
X143092857Y-95757142D01*
X143064285Y-95814285D01*
G04 #@! TO.C,C47*
D16*
X138978571Y-99671428D02*
X139002380Y-99695238D01*
X139026190Y-99766666D01*
X139026190Y-99814285D01*
X139002380Y-99885714D01*
X138954761Y-99933333D01*
X138907142Y-99957142D01*
X138811904Y-99980952D01*
X138740476Y-99980952D01*
X138645238Y-99957142D01*
X138597619Y-99933333D01*
X138550000Y-99885714D01*
X138526190Y-99814285D01*
X138526190Y-99766666D01*
X138550000Y-99695238D01*
X138573809Y-99671428D01*
X138692857Y-99242857D02*
X139026190Y-99242857D01*
X138502380Y-99361904D02*
X138859523Y-99480952D01*
X138859523Y-99171428D01*
X138526190Y-99028571D02*
X138526190Y-98695238D01*
X139026190Y-98909523D01*
G04 #@! TO.C,C48*
D11*
X128985714Y-96564285D02*
X129023809Y-96602380D01*
X129061904Y-96716666D01*
X129061904Y-96792857D01*
X129023809Y-96907142D01*
X128947619Y-96983333D01*
X128871428Y-97021428D01*
X128719047Y-97059523D01*
X128604761Y-97059523D01*
X128452380Y-97021428D01*
X128376190Y-96983333D01*
X128300000Y-96907142D01*
X128261904Y-96792857D01*
X128261904Y-96716666D01*
X128300000Y-96602380D01*
X128338095Y-96564285D01*
X128528571Y-95878571D02*
X129061904Y-95878571D01*
X128223809Y-96069047D02*
X128795238Y-96259523D01*
X128795238Y-95764285D01*
X128604761Y-95345238D02*
X128566666Y-95421428D01*
X128528571Y-95459523D01*
X128452380Y-95497619D01*
X128414285Y-95497619D01*
X128338095Y-95459523D01*
X128300000Y-95421428D01*
X128261904Y-95345238D01*
X128261904Y-95192857D01*
X128300000Y-95116666D01*
X128338095Y-95078571D01*
X128414285Y-95040476D01*
X128452380Y-95040476D01*
X128528571Y-95078571D01*
X128566666Y-95116666D01*
X128604761Y-95192857D01*
X128604761Y-95345238D01*
X128642857Y-95421428D01*
X128680952Y-95459523D01*
X128757142Y-95497619D01*
X128909523Y-95497619D01*
X128985714Y-95459523D01*
X129023809Y-95421428D01*
X129061904Y-95345238D01*
X129061904Y-95192857D01*
X129023809Y-95116666D01*
X128985714Y-95078571D01*
X128909523Y-95040476D01*
X128757142Y-95040476D01*
X128680952Y-95078571D01*
X128642857Y-95116666D01*
X128604761Y-95192857D01*
G04 #@! TO.C,C49*
X128935714Y-94014285D02*
X128973809Y-94052380D01*
X129011904Y-94166666D01*
X129011904Y-94242857D01*
X128973809Y-94357142D01*
X128897619Y-94433333D01*
X128821428Y-94471428D01*
X128669047Y-94509523D01*
X128554761Y-94509523D01*
X128402380Y-94471428D01*
X128326190Y-94433333D01*
X128250000Y-94357142D01*
X128211904Y-94242857D01*
X128211904Y-94166666D01*
X128250000Y-94052380D01*
X128288095Y-94014285D01*
X128478571Y-93328571D02*
X129011904Y-93328571D01*
X128173809Y-93519047D02*
X128745238Y-93709523D01*
X128745238Y-93214285D01*
X129011904Y-92871428D02*
X129011904Y-92719047D01*
X128973809Y-92642857D01*
X128935714Y-92604761D01*
X128821428Y-92528571D01*
X128669047Y-92490476D01*
X128364285Y-92490476D01*
X128288095Y-92528571D01*
X128250000Y-92566666D01*
X128211904Y-92642857D01*
X128211904Y-92795238D01*
X128250000Y-92871428D01*
X128288095Y-92909523D01*
X128364285Y-92947619D01*
X128554761Y-92947619D01*
X128630952Y-92909523D01*
X128669047Y-92871428D01*
X128707142Y-92795238D01*
X128707142Y-92642857D01*
X128669047Y-92566666D01*
X128630952Y-92528571D01*
X128554761Y-92490476D01*
G04 #@! TO.C,C50*
X122885714Y-75985714D02*
X122847619Y-76023809D01*
X122733333Y-76061904D01*
X122657142Y-76061904D01*
X122542857Y-76023809D01*
X122466666Y-75947619D01*
X122428571Y-75871428D01*
X122390476Y-75719047D01*
X122390476Y-75604761D01*
X122428571Y-75452380D01*
X122466666Y-75376190D01*
X122542857Y-75300000D01*
X122657142Y-75261904D01*
X122733333Y-75261904D01*
X122847619Y-75300000D01*
X122885714Y-75338095D01*
X123609523Y-75261904D02*
X123228571Y-75261904D01*
X123190476Y-75642857D01*
X123228571Y-75604761D01*
X123304761Y-75566666D01*
X123495238Y-75566666D01*
X123571428Y-75604761D01*
X123609523Y-75642857D01*
X123647619Y-75719047D01*
X123647619Y-75909523D01*
X123609523Y-75985714D01*
X123571428Y-76023809D01*
X123495238Y-76061904D01*
X123304761Y-76061904D01*
X123228571Y-76023809D01*
X123190476Y-75985714D01*
X124142857Y-75261904D02*
X124219047Y-75261904D01*
X124295238Y-75300000D01*
X124333333Y-75338095D01*
X124371428Y-75414285D01*
X124409523Y-75566666D01*
X124409523Y-75757142D01*
X124371428Y-75909523D01*
X124333333Y-75985714D01*
X124295238Y-76023809D01*
X124219047Y-76061904D01*
X124142857Y-76061904D01*
X124066666Y-76023809D01*
X124028571Y-75985714D01*
X123990476Y-75909523D01*
X123952380Y-75757142D01*
X123952380Y-75566666D01*
X123990476Y-75414285D01*
X124028571Y-75338095D01*
X124066666Y-75300000D01*
X124142857Y-75261904D01*
G04 #@! TO.C,C51*
X124064285Y-89385714D02*
X124092857Y-89414285D01*
X124121428Y-89500000D01*
X124121428Y-89557142D01*
X124092857Y-89642857D01*
X124035714Y-89700000D01*
X123978571Y-89728571D01*
X123864285Y-89757142D01*
X123778571Y-89757142D01*
X123664285Y-89728571D01*
X123607142Y-89700000D01*
X123550000Y-89642857D01*
X123521428Y-89557142D01*
X123521428Y-89500000D01*
X123550000Y-89414285D01*
X123578571Y-89385714D01*
X123521428Y-88842857D02*
X123521428Y-89128571D01*
X123807142Y-89157142D01*
X123778571Y-89128571D01*
X123750000Y-89071428D01*
X123750000Y-88928571D01*
X123778571Y-88871428D01*
X123807142Y-88842857D01*
X123864285Y-88814285D01*
X124007142Y-88814285D01*
X124064285Y-88842857D01*
X124092857Y-88871428D01*
X124121428Y-88928571D01*
X124121428Y-89071428D01*
X124092857Y-89128571D01*
X124064285Y-89157142D01*
X124121428Y-88242857D02*
X124121428Y-88585714D01*
X124121428Y-88414285D02*
X123521428Y-88414285D01*
X123607142Y-88471428D01*
X123664285Y-88528571D01*
X123692857Y-88585714D01*
G04 #@! TO.C,C52*
X125864285Y-86314285D02*
X125835714Y-86342857D01*
X125750000Y-86371428D01*
X125692857Y-86371428D01*
X125607142Y-86342857D01*
X125550000Y-86285714D01*
X125521428Y-86228571D01*
X125492857Y-86114285D01*
X125492857Y-86028571D01*
X125521428Y-85914285D01*
X125550000Y-85857142D01*
X125607142Y-85800000D01*
X125692857Y-85771428D01*
X125750000Y-85771428D01*
X125835714Y-85800000D01*
X125864285Y-85828571D01*
X126407142Y-85771428D02*
X126121428Y-85771428D01*
X126092857Y-86057142D01*
X126121428Y-86028571D01*
X126178571Y-86000000D01*
X126321428Y-86000000D01*
X126378571Y-86028571D01*
X126407142Y-86057142D01*
X126435714Y-86114285D01*
X126435714Y-86257142D01*
X126407142Y-86314285D01*
X126378571Y-86342857D01*
X126321428Y-86371428D01*
X126178571Y-86371428D01*
X126121428Y-86342857D01*
X126092857Y-86314285D01*
X126664285Y-85828571D02*
X126692857Y-85800000D01*
X126750000Y-85771428D01*
X126892857Y-85771428D01*
X126950000Y-85800000D01*
X126978571Y-85828571D01*
X127007142Y-85885714D01*
X127007142Y-85942857D01*
X126978571Y-86028571D01*
X126635714Y-86371428D01*
X127007142Y-86371428D01*
G04 #@! TO.C,C53*
X167135714Y-63385714D02*
X167097619Y-63423809D01*
X166983333Y-63461904D01*
X166907142Y-63461904D01*
X166792857Y-63423809D01*
X166716666Y-63347619D01*
X166678571Y-63271428D01*
X166640476Y-63119047D01*
X166640476Y-63004761D01*
X166678571Y-62852380D01*
X166716666Y-62776190D01*
X166792857Y-62700000D01*
X166907142Y-62661904D01*
X166983333Y-62661904D01*
X167097619Y-62700000D01*
X167135714Y-62738095D01*
X167859523Y-62661904D02*
X167478571Y-62661904D01*
X167440476Y-63042857D01*
X167478571Y-63004761D01*
X167554761Y-62966666D01*
X167745238Y-62966666D01*
X167821428Y-63004761D01*
X167859523Y-63042857D01*
X167897619Y-63119047D01*
X167897619Y-63309523D01*
X167859523Y-63385714D01*
X167821428Y-63423809D01*
X167745238Y-63461904D01*
X167554761Y-63461904D01*
X167478571Y-63423809D01*
X167440476Y-63385714D01*
X168164285Y-62661904D02*
X168659523Y-62661904D01*
X168392857Y-62966666D01*
X168507142Y-62966666D01*
X168583333Y-63004761D01*
X168621428Y-63042857D01*
X168659523Y-63119047D01*
X168659523Y-63309523D01*
X168621428Y-63385714D01*
X168583333Y-63423809D01*
X168507142Y-63461904D01*
X168278571Y-63461904D01*
X168202380Y-63423809D01*
X168164285Y-63385714D01*
G04 #@! TO.C,C54*
X163085714Y-63285714D02*
X163047619Y-63323809D01*
X162933333Y-63361904D01*
X162857142Y-63361904D01*
X162742857Y-63323809D01*
X162666666Y-63247619D01*
X162628571Y-63171428D01*
X162590476Y-63019047D01*
X162590476Y-62904761D01*
X162628571Y-62752380D01*
X162666666Y-62676190D01*
X162742857Y-62600000D01*
X162857142Y-62561904D01*
X162933333Y-62561904D01*
X163047619Y-62600000D01*
X163085714Y-62638095D01*
X163809523Y-62561904D02*
X163428571Y-62561904D01*
X163390476Y-62942857D01*
X163428571Y-62904761D01*
X163504761Y-62866666D01*
X163695238Y-62866666D01*
X163771428Y-62904761D01*
X163809523Y-62942857D01*
X163847619Y-63019047D01*
X163847619Y-63209523D01*
X163809523Y-63285714D01*
X163771428Y-63323809D01*
X163695238Y-63361904D01*
X163504761Y-63361904D01*
X163428571Y-63323809D01*
X163390476Y-63285714D01*
X164533333Y-62828571D02*
X164533333Y-63361904D01*
X164342857Y-62523809D02*
X164152380Y-63095238D01*
X164647619Y-63095238D01*
G04 #@! TO.C,C55*
X125585714Y-97385714D02*
X125547619Y-97423809D01*
X125433333Y-97461904D01*
X125357142Y-97461904D01*
X125242857Y-97423809D01*
X125166666Y-97347619D01*
X125128571Y-97271428D01*
X125090476Y-97119047D01*
X125090476Y-97004761D01*
X125128571Y-96852380D01*
X125166666Y-96776190D01*
X125242857Y-96700000D01*
X125357142Y-96661904D01*
X125433333Y-96661904D01*
X125547619Y-96700000D01*
X125585714Y-96738095D01*
X126309523Y-96661904D02*
X125928571Y-96661904D01*
X125890476Y-97042857D01*
X125928571Y-97004761D01*
X126004761Y-96966666D01*
X126195238Y-96966666D01*
X126271428Y-97004761D01*
X126309523Y-97042857D01*
X126347619Y-97119047D01*
X126347619Y-97309523D01*
X126309523Y-97385714D01*
X126271428Y-97423809D01*
X126195238Y-97461904D01*
X126004761Y-97461904D01*
X125928571Y-97423809D01*
X125890476Y-97385714D01*
X127071428Y-96661904D02*
X126690476Y-96661904D01*
X126652380Y-97042857D01*
X126690476Y-97004761D01*
X126766666Y-96966666D01*
X126957142Y-96966666D01*
X127033333Y-97004761D01*
X127071428Y-97042857D01*
X127109523Y-97119047D01*
X127109523Y-97309523D01*
X127071428Y-97385714D01*
X127033333Y-97423809D01*
X126957142Y-97461904D01*
X126766666Y-97461904D01*
X126690476Y-97423809D01*
X126652380Y-97385714D01*
G04 #@! TO.C,C56*
X128885714Y-101664285D02*
X128923809Y-101702380D01*
X128961904Y-101816666D01*
X128961904Y-101892857D01*
X128923809Y-102007142D01*
X128847619Y-102083333D01*
X128771428Y-102121428D01*
X128619047Y-102159523D01*
X128504761Y-102159523D01*
X128352380Y-102121428D01*
X128276190Y-102083333D01*
X128200000Y-102007142D01*
X128161904Y-101892857D01*
X128161904Y-101816666D01*
X128200000Y-101702380D01*
X128238095Y-101664285D01*
X128161904Y-100940476D02*
X128161904Y-101321428D01*
X128542857Y-101359523D01*
X128504761Y-101321428D01*
X128466666Y-101245238D01*
X128466666Y-101054761D01*
X128504761Y-100978571D01*
X128542857Y-100940476D01*
X128619047Y-100902380D01*
X128809523Y-100902380D01*
X128885714Y-100940476D01*
X128923809Y-100978571D01*
X128961904Y-101054761D01*
X128961904Y-101245238D01*
X128923809Y-101321428D01*
X128885714Y-101359523D01*
X128161904Y-100216666D02*
X128161904Y-100369047D01*
X128200000Y-100445238D01*
X128238095Y-100483333D01*
X128352380Y-100559523D01*
X128504761Y-100597619D01*
X128809523Y-100597619D01*
X128885714Y-100559523D01*
X128923809Y-100521428D01*
X128961904Y-100445238D01*
X128961904Y-100292857D01*
X128923809Y-100216666D01*
X128885714Y-100178571D01*
X128809523Y-100140476D01*
X128619047Y-100140476D01*
X128542857Y-100178571D01*
X128504761Y-100216666D01*
X128466666Y-100292857D01*
X128466666Y-100445238D01*
X128504761Y-100521428D01*
X128542857Y-100559523D01*
X128619047Y-100597619D01*
G04 #@! TO.C,C58*
X107185714Y-68385714D02*
X107147619Y-68423809D01*
X107033333Y-68461904D01*
X106957142Y-68461904D01*
X106842857Y-68423809D01*
X106766666Y-68347619D01*
X106728571Y-68271428D01*
X106690476Y-68119047D01*
X106690476Y-68004761D01*
X106728571Y-67852380D01*
X106766666Y-67776190D01*
X106842857Y-67700000D01*
X106957142Y-67661904D01*
X107033333Y-67661904D01*
X107147619Y-67700000D01*
X107185714Y-67738095D01*
X107909523Y-67661904D02*
X107528571Y-67661904D01*
X107490476Y-68042857D01*
X107528571Y-68004761D01*
X107604761Y-67966666D01*
X107795238Y-67966666D01*
X107871428Y-68004761D01*
X107909523Y-68042857D01*
X107947619Y-68119047D01*
X107947619Y-68309523D01*
X107909523Y-68385714D01*
X107871428Y-68423809D01*
X107795238Y-68461904D01*
X107604761Y-68461904D01*
X107528571Y-68423809D01*
X107490476Y-68385714D01*
X108404761Y-68004761D02*
X108328571Y-67966666D01*
X108290476Y-67928571D01*
X108252380Y-67852380D01*
X108252380Y-67814285D01*
X108290476Y-67738095D01*
X108328571Y-67700000D01*
X108404761Y-67661904D01*
X108557142Y-67661904D01*
X108633333Y-67700000D01*
X108671428Y-67738095D01*
X108709523Y-67814285D01*
X108709523Y-67852380D01*
X108671428Y-67928571D01*
X108633333Y-67966666D01*
X108557142Y-68004761D01*
X108404761Y-68004761D01*
X108328571Y-68042857D01*
X108290476Y-68080952D01*
X108252380Y-68157142D01*
X108252380Y-68309523D01*
X108290476Y-68385714D01*
X108328571Y-68423809D01*
X108404761Y-68461904D01*
X108557142Y-68461904D01*
X108633333Y-68423809D01*
X108671428Y-68385714D01*
X108709523Y-68309523D01*
X108709523Y-68157142D01*
X108671428Y-68080952D01*
X108633333Y-68042857D01*
X108557142Y-68004761D01*
G04 #@! TO.C,C59*
X103985714Y-89285714D02*
X103947619Y-89323809D01*
X103833333Y-89361904D01*
X103757142Y-89361904D01*
X103642857Y-89323809D01*
X103566666Y-89247619D01*
X103528571Y-89171428D01*
X103490476Y-89019047D01*
X103490476Y-88904761D01*
X103528571Y-88752380D01*
X103566666Y-88676190D01*
X103642857Y-88600000D01*
X103757142Y-88561904D01*
X103833333Y-88561904D01*
X103947619Y-88600000D01*
X103985714Y-88638095D01*
X104709523Y-88561904D02*
X104328571Y-88561904D01*
X104290476Y-88942857D01*
X104328571Y-88904761D01*
X104404761Y-88866666D01*
X104595238Y-88866666D01*
X104671428Y-88904761D01*
X104709523Y-88942857D01*
X104747619Y-89019047D01*
X104747619Y-89209523D01*
X104709523Y-89285714D01*
X104671428Y-89323809D01*
X104595238Y-89361904D01*
X104404761Y-89361904D01*
X104328571Y-89323809D01*
X104290476Y-89285714D01*
X105128571Y-89361904D02*
X105280952Y-89361904D01*
X105357142Y-89323809D01*
X105395238Y-89285714D01*
X105471428Y-89171428D01*
X105509523Y-89019047D01*
X105509523Y-88714285D01*
X105471428Y-88638095D01*
X105433333Y-88600000D01*
X105357142Y-88561904D01*
X105204761Y-88561904D01*
X105128571Y-88600000D01*
X105090476Y-88638095D01*
X105052380Y-88714285D01*
X105052380Y-88904761D01*
X105090476Y-88980952D01*
X105128571Y-89019047D01*
X105204761Y-89057142D01*
X105357142Y-89057142D01*
X105433333Y-89019047D01*
X105471428Y-88980952D01*
X105509523Y-88904761D01*
G04 #@! TO.C,D1*
X171109523Y-105161904D02*
X171109523Y-104361904D01*
X171300000Y-104361904D01*
X171414285Y-104400000D01*
X171490476Y-104476190D01*
X171528571Y-104552380D01*
X171566666Y-104704761D01*
X171566666Y-104819047D01*
X171528571Y-104971428D01*
X171490476Y-105047619D01*
X171414285Y-105123809D01*
X171300000Y-105161904D01*
X171109523Y-105161904D01*
X172328571Y-105161904D02*
X171871428Y-105161904D01*
X172100000Y-105161904D02*
X172100000Y-104361904D01*
X172023809Y-104476190D01*
X171947619Y-104552380D01*
X171871428Y-104590476D01*
G04 #@! TO.C,D7*
X155309523Y-72311904D02*
X155309523Y-71511904D01*
X155500000Y-71511904D01*
X155614285Y-71550000D01*
X155690476Y-71626190D01*
X155728571Y-71702380D01*
X155766666Y-71854761D01*
X155766666Y-71969047D01*
X155728571Y-72121428D01*
X155690476Y-72197619D01*
X155614285Y-72273809D01*
X155500000Y-72311904D01*
X155309523Y-72311904D01*
X156033333Y-71511904D02*
X156566666Y-71511904D01*
X156223809Y-72311904D01*
G04 #@! TO.C,J2*
D12*
X110266666Y-63352380D02*
X110266666Y-64066666D01*
X110219047Y-64209523D01*
X110123809Y-64304761D01*
X109980952Y-64352380D01*
X109885714Y-64352380D01*
X110695238Y-63447619D02*
X110742857Y-63400000D01*
X110838095Y-63352380D01*
X111076190Y-63352380D01*
X111171428Y-63400000D01*
X111219047Y-63447619D01*
X111266666Y-63542857D01*
X111266666Y-63638095D01*
X111219047Y-63780952D01*
X110647619Y-64352380D01*
X111266666Y-64352380D01*
G04 #@! TO.C,J4*
X142716666Y-116152380D02*
X142716666Y-116866666D01*
X142669047Y-117009523D01*
X142573809Y-117104761D01*
X142430952Y-117152380D01*
X142335714Y-117152380D01*
X143621428Y-116485714D02*
X143621428Y-117152380D01*
X143383333Y-116104761D02*
X143145238Y-116819047D01*
X143764285Y-116819047D01*
G04 #@! TO.C,R1*
D11*
X179316666Y-101761904D02*
X179050000Y-101380952D01*
X178859523Y-101761904D02*
X178859523Y-100961904D01*
X179164285Y-100961904D01*
X179240476Y-101000000D01*
X179278571Y-101038095D01*
X179316666Y-101114285D01*
X179316666Y-101228571D01*
X179278571Y-101304761D01*
X179240476Y-101342857D01*
X179164285Y-101380952D01*
X178859523Y-101380952D01*
X180078571Y-101761904D02*
X179621428Y-101761904D01*
X179850000Y-101761904D02*
X179850000Y-100961904D01*
X179773809Y-101076190D01*
X179697619Y-101152380D01*
X179621428Y-101190476D01*
G04 #@! TO.C,R2*
X179116666Y-93011904D02*
X178850000Y-92630952D01*
X178659523Y-93011904D02*
X178659523Y-92211904D01*
X178964285Y-92211904D01*
X179040476Y-92250000D01*
X179078571Y-92288095D01*
X179116666Y-92364285D01*
X179116666Y-92478571D01*
X179078571Y-92554761D01*
X179040476Y-92592857D01*
X178964285Y-92630952D01*
X178659523Y-92630952D01*
X179421428Y-92288095D02*
X179459523Y-92250000D01*
X179535714Y-92211904D01*
X179726190Y-92211904D01*
X179802380Y-92250000D01*
X179840476Y-92288095D01*
X179878571Y-92364285D01*
X179878571Y-92440476D01*
X179840476Y-92554761D01*
X179383333Y-93011904D01*
X179878571Y-93011904D01*
G04 #@! TO.C,R3*
X173616666Y-63661904D02*
X173350000Y-63280952D01*
X173159523Y-63661904D02*
X173159523Y-62861904D01*
X173464285Y-62861904D01*
X173540476Y-62900000D01*
X173578571Y-62938095D01*
X173616666Y-63014285D01*
X173616666Y-63128571D01*
X173578571Y-63204761D01*
X173540476Y-63242857D01*
X173464285Y-63280952D01*
X173159523Y-63280952D01*
X173883333Y-62861904D02*
X174378571Y-62861904D01*
X174111904Y-63166666D01*
X174226190Y-63166666D01*
X174302380Y-63204761D01*
X174340476Y-63242857D01*
X174378571Y-63319047D01*
X174378571Y-63509523D01*
X174340476Y-63585714D01*
X174302380Y-63623809D01*
X174226190Y-63661904D01*
X173997619Y-63661904D01*
X173921428Y-63623809D01*
X173883333Y-63585714D01*
G04 #@! TO.C,R4*
X105566666Y-113161904D02*
X105300000Y-112780952D01*
X105109523Y-113161904D02*
X105109523Y-112361904D01*
X105414285Y-112361904D01*
X105490476Y-112400000D01*
X105528571Y-112438095D01*
X105566666Y-112514285D01*
X105566666Y-112628571D01*
X105528571Y-112704761D01*
X105490476Y-112742857D01*
X105414285Y-112780952D01*
X105109523Y-112780952D01*
X106252380Y-112628571D02*
X106252380Y-113161904D01*
X106061904Y-112323809D02*
X105871428Y-112895238D01*
X106366666Y-112895238D01*
G04 #@! TO.C,R5*
X109466666Y-112361904D02*
X109200000Y-111980952D01*
X109009523Y-112361904D02*
X109009523Y-111561904D01*
X109314285Y-111561904D01*
X109390476Y-111600000D01*
X109428571Y-111638095D01*
X109466666Y-111714285D01*
X109466666Y-111828571D01*
X109428571Y-111904761D01*
X109390476Y-111942857D01*
X109314285Y-111980952D01*
X109009523Y-111980952D01*
X110190476Y-111561904D02*
X109809523Y-111561904D01*
X109771428Y-111942857D01*
X109809523Y-111904761D01*
X109885714Y-111866666D01*
X110076190Y-111866666D01*
X110152380Y-111904761D01*
X110190476Y-111942857D01*
X110228571Y-112019047D01*
X110228571Y-112209523D01*
X110190476Y-112285714D01*
X110152380Y-112323809D01*
X110076190Y-112361904D01*
X109885714Y-112361904D01*
X109809523Y-112323809D01*
X109771428Y-112285714D01*
G04 #@! TO.C,R6*
X112866666Y-112311904D02*
X112600000Y-111930952D01*
X112409523Y-112311904D02*
X112409523Y-111511904D01*
X112714285Y-111511904D01*
X112790476Y-111550000D01*
X112828571Y-111588095D01*
X112866666Y-111664285D01*
X112866666Y-111778571D01*
X112828571Y-111854761D01*
X112790476Y-111892857D01*
X112714285Y-111930952D01*
X112409523Y-111930952D01*
X113552380Y-111511904D02*
X113400000Y-111511904D01*
X113323809Y-111550000D01*
X113285714Y-111588095D01*
X113209523Y-111702380D01*
X113171428Y-111854761D01*
X113171428Y-112159523D01*
X113209523Y-112235714D01*
X113247619Y-112273809D01*
X113323809Y-112311904D01*
X113476190Y-112311904D01*
X113552380Y-112273809D01*
X113590476Y-112235714D01*
X113628571Y-112159523D01*
X113628571Y-111969047D01*
X113590476Y-111892857D01*
X113552380Y-111854761D01*
X113476190Y-111816666D01*
X113323809Y-111816666D01*
X113247619Y-111854761D01*
X113209523Y-111892857D01*
X113171428Y-111969047D01*
G04 #@! TO.C,R7*
X116366666Y-112361904D02*
X116100000Y-111980952D01*
X115909523Y-112361904D02*
X115909523Y-111561904D01*
X116214285Y-111561904D01*
X116290476Y-111600000D01*
X116328571Y-111638095D01*
X116366666Y-111714285D01*
X116366666Y-111828571D01*
X116328571Y-111904761D01*
X116290476Y-111942857D01*
X116214285Y-111980952D01*
X115909523Y-111980952D01*
X116633333Y-111561904D02*
X117166666Y-111561904D01*
X116823809Y-112361904D01*
G04 #@! TO.C,R8*
X108466666Y-79961904D02*
X108200000Y-79580952D01*
X108009523Y-79961904D02*
X108009523Y-79161904D01*
X108314285Y-79161904D01*
X108390476Y-79200000D01*
X108428571Y-79238095D01*
X108466666Y-79314285D01*
X108466666Y-79428571D01*
X108428571Y-79504761D01*
X108390476Y-79542857D01*
X108314285Y-79580952D01*
X108009523Y-79580952D01*
X108923809Y-79504761D02*
X108847619Y-79466666D01*
X108809523Y-79428571D01*
X108771428Y-79352380D01*
X108771428Y-79314285D01*
X108809523Y-79238095D01*
X108847619Y-79200000D01*
X108923809Y-79161904D01*
X109076190Y-79161904D01*
X109152380Y-79200000D01*
X109190476Y-79238095D01*
X109228571Y-79314285D01*
X109228571Y-79352380D01*
X109190476Y-79428571D01*
X109152380Y-79466666D01*
X109076190Y-79504761D01*
X108923809Y-79504761D01*
X108847619Y-79542857D01*
X108809523Y-79580952D01*
X108771428Y-79657142D01*
X108771428Y-79809523D01*
X108809523Y-79885714D01*
X108847619Y-79923809D01*
X108923809Y-79961904D01*
X109076190Y-79961904D01*
X109152380Y-79923809D01*
X109190476Y-79885714D01*
X109228571Y-79809523D01*
X109228571Y-79657142D01*
X109190476Y-79580952D01*
X109152380Y-79542857D01*
X109076190Y-79504761D01*
G04 #@! TO.C,R9*
X125044666Y-80221904D02*
X124778000Y-79840952D01*
X124587523Y-80221904D02*
X124587523Y-79421904D01*
X124892285Y-79421904D01*
X124968476Y-79460000D01*
X125006571Y-79498095D01*
X125044666Y-79574285D01*
X125044666Y-79688571D01*
X125006571Y-79764761D01*
X124968476Y-79802857D01*
X124892285Y-79840952D01*
X124587523Y-79840952D01*
X125425619Y-80221904D02*
X125578000Y-80221904D01*
X125654190Y-80183809D01*
X125692285Y-80145714D01*
X125768476Y-80031428D01*
X125806571Y-79879047D01*
X125806571Y-79574285D01*
X125768476Y-79498095D01*
X125730380Y-79460000D01*
X125654190Y-79421904D01*
X125501809Y-79421904D01*
X125425619Y-79460000D01*
X125387523Y-79498095D01*
X125349428Y-79574285D01*
X125349428Y-79764761D01*
X125387523Y-79840952D01*
X125425619Y-79879047D01*
X125501809Y-79917142D01*
X125654190Y-79917142D01*
X125730380Y-79879047D01*
X125768476Y-79840952D01*
X125806571Y-79764761D01*
G04 #@! TO.C,R10*
X109835714Y-90561904D02*
X109569047Y-90180952D01*
X109378571Y-90561904D02*
X109378571Y-89761904D01*
X109683333Y-89761904D01*
X109759523Y-89800000D01*
X109797619Y-89838095D01*
X109835714Y-89914285D01*
X109835714Y-90028571D01*
X109797619Y-90104761D01*
X109759523Y-90142857D01*
X109683333Y-90180952D01*
X109378571Y-90180952D01*
X110597619Y-90561904D02*
X110140476Y-90561904D01*
X110369047Y-90561904D02*
X110369047Y-89761904D01*
X110292857Y-89876190D01*
X110216666Y-89952380D01*
X110140476Y-89990476D01*
X111092857Y-89761904D02*
X111169047Y-89761904D01*
X111245238Y-89800000D01*
X111283333Y-89838095D01*
X111321428Y-89914285D01*
X111359523Y-90066666D01*
X111359523Y-90257142D01*
X111321428Y-90409523D01*
X111283333Y-90485714D01*
X111245238Y-90523809D01*
X111169047Y-90561904D01*
X111092857Y-90561904D01*
X111016666Y-90523809D01*
X110978571Y-90485714D01*
X110940476Y-90409523D01*
X110902380Y-90257142D01*
X110902380Y-90066666D01*
X110940476Y-89914285D01*
X110978571Y-89838095D01*
X111016666Y-89800000D01*
X111092857Y-89761904D01*
G04 #@! TO.C,R11*
X123661904Y-87664285D02*
X123280952Y-87930952D01*
X123661904Y-88121428D02*
X122861904Y-88121428D01*
X122861904Y-87816666D01*
X122900000Y-87740476D01*
X122938095Y-87702380D01*
X123014285Y-87664285D01*
X123128571Y-87664285D01*
X123204761Y-87702380D01*
X123242857Y-87740476D01*
X123280952Y-87816666D01*
X123280952Y-88121428D01*
X123661904Y-86902380D02*
X123661904Y-87359523D01*
X123661904Y-87130952D02*
X122861904Y-87130952D01*
X122976190Y-87207142D01*
X123052380Y-87283333D01*
X123090476Y-87359523D01*
X123661904Y-86140476D02*
X123661904Y-86597619D01*
X123661904Y-86369047D02*
X122861904Y-86369047D01*
X122976190Y-86445238D01*
X123052380Y-86521428D01*
X123090476Y-86597619D01*
G04 #@! TO.C,R12*
X109785714Y-98411904D02*
X109519047Y-98030952D01*
X109328571Y-98411904D02*
X109328571Y-97611904D01*
X109633333Y-97611904D01*
X109709523Y-97650000D01*
X109747619Y-97688095D01*
X109785714Y-97764285D01*
X109785714Y-97878571D01*
X109747619Y-97954761D01*
X109709523Y-97992857D01*
X109633333Y-98030952D01*
X109328571Y-98030952D01*
X110547619Y-98411904D02*
X110090476Y-98411904D01*
X110319047Y-98411904D02*
X110319047Y-97611904D01*
X110242857Y-97726190D01*
X110166666Y-97802380D01*
X110090476Y-97840476D01*
X110852380Y-97688095D02*
X110890476Y-97650000D01*
X110966666Y-97611904D01*
X111157142Y-97611904D01*
X111233333Y-97650000D01*
X111271428Y-97688095D01*
X111309523Y-97764285D01*
X111309523Y-97840476D01*
X111271428Y-97954761D01*
X110814285Y-98411904D01*
X111309523Y-98411904D01*
G04 #@! TO.C,R13*
X123114285Y-95471428D02*
X122914285Y-95185714D01*
X122771428Y-95471428D02*
X122771428Y-94871428D01*
X123000000Y-94871428D01*
X123057142Y-94900000D01*
X123085714Y-94928571D01*
X123114285Y-94985714D01*
X123114285Y-95071428D01*
X123085714Y-95128571D01*
X123057142Y-95157142D01*
X123000000Y-95185714D01*
X122771428Y-95185714D01*
X123685714Y-95471428D02*
X123342857Y-95471428D01*
X123514285Y-95471428D02*
X123514285Y-94871428D01*
X123457142Y-94957142D01*
X123400000Y-95014285D01*
X123342857Y-95042857D01*
X123885714Y-94871428D02*
X124257142Y-94871428D01*
X124057142Y-95100000D01*
X124142857Y-95100000D01*
X124200000Y-95128571D01*
X124228571Y-95157142D01*
X124257142Y-95214285D01*
X124257142Y-95357142D01*
X124228571Y-95414285D01*
X124200000Y-95442857D01*
X124142857Y-95471428D01*
X123971428Y-95471428D01*
X123914285Y-95442857D01*
X123885714Y-95414285D01*
G04 #@! TO.C,R14*
X109885714Y-106611904D02*
X109619047Y-106230952D01*
X109428571Y-106611904D02*
X109428571Y-105811904D01*
X109733333Y-105811904D01*
X109809523Y-105850000D01*
X109847619Y-105888095D01*
X109885714Y-105964285D01*
X109885714Y-106078571D01*
X109847619Y-106154761D01*
X109809523Y-106192857D01*
X109733333Y-106230952D01*
X109428571Y-106230952D01*
X110647619Y-106611904D02*
X110190476Y-106611904D01*
X110419047Y-106611904D02*
X110419047Y-105811904D01*
X110342857Y-105926190D01*
X110266666Y-106002380D01*
X110190476Y-106040476D01*
X111333333Y-106078571D02*
X111333333Y-106611904D01*
X111142857Y-105773809D02*
X110952380Y-106345238D01*
X111447619Y-106345238D01*
G04 #@! TO.C,R15*
X123335714Y-103311904D02*
X123069047Y-102930952D01*
X122878571Y-103311904D02*
X122878571Y-102511904D01*
X123183333Y-102511904D01*
X123259523Y-102550000D01*
X123297619Y-102588095D01*
X123335714Y-102664285D01*
X123335714Y-102778571D01*
X123297619Y-102854761D01*
X123259523Y-102892857D01*
X123183333Y-102930952D01*
X122878571Y-102930952D01*
X124097619Y-103311904D02*
X123640476Y-103311904D01*
X123869047Y-103311904D02*
X123869047Y-102511904D01*
X123792857Y-102626190D01*
X123716666Y-102702380D01*
X123640476Y-102740476D01*
X124821428Y-102511904D02*
X124440476Y-102511904D01*
X124402380Y-102892857D01*
X124440476Y-102854761D01*
X124516666Y-102816666D01*
X124707142Y-102816666D01*
X124783333Y-102854761D01*
X124821428Y-102892857D01*
X124859523Y-102969047D01*
X124859523Y-103159523D01*
X124821428Y-103235714D01*
X124783333Y-103273809D01*
X124707142Y-103311904D01*
X124516666Y-103311904D01*
X124440476Y-103273809D01*
X124402380Y-103235714D01*
G04 #@! TO.C,R16*
X144221428Y-105785714D02*
X143935714Y-105985714D01*
X144221428Y-106128571D02*
X143621428Y-106128571D01*
X143621428Y-105900000D01*
X143650000Y-105842857D01*
X143678571Y-105814285D01*
X143735714Y-105785714D01*
X143821428Y-105785714D01*
X143878571Y-105814285D01*
X143907142Y-105842857D01*
X143935714Y-105900000D01*
X143935714Y-106128571D01*
X144221428Y-105214285D02*
X144221428Y-105557142D01*
X144221428Y-105385714D02*
X143621428Y-105385714D01*
X143707142Y-105442857D01*
X143764285Y-105500000D01*
X143792857Y-105557142D01*
X143621428Y-104700000D02*
X143621428Y-104814285D01*
X143650000Y-104871428D01*
X143678571Y-104900000D01*
X143764285Y-104957142D01*
X143878571Y-104985714D01*
X144107142Y-104985714D01*
X144164285Y-104957142D01*
X144192857Y-104928571D01*
X144221428Y-104871428D01*
X144221428Y-104757142D01*
X144192857Y-104700000D01*
X144164285Y-104671428D01*
X144107142Y-104642857D01*
X143964285Y-104642857D01*
X143907142Y-104671428D01*
X143878571Y-104700000D01*
X143850000Y-104757142D01*
X143850000Y-104871428D01*
X143878571Y-104928571D01*
X143907142Y-104957142D01*
X143964285Y-104985714D01*
G04 #@! TO.C,R17*
X169935714Y-114761904D02*
X169669047Y-114380952D01*
X169478571Y-114761904D02*
X169478571Y-113961904D01*
X169783333Y-113961904D01*
X169859523Y-114000000D01*
X169897619Y-114038095D01*
X169935714Y-114114285D01*
X169935714Y-114228571D01*
X169897619Y-114304761D01*
X169859523Y-114342857D01*
X169783333Y-114380952D01*
X169478571Y-114380952D01*
X170697619Y-114761904D02*
X170240476Y-114761904D01*
X170469047Y-114761904D02*
X170469047Y-113961904D01*
X170392857Y-114076190D01*
X170316666Y-114152380D01*
X170240476Y-114190476D01*
X170964285Y-113961904D02*
X171497619Y-113961904D01*
X171154761Y-114761904D01*
G04 #@! TO.C,R18*
X152835714Y-96111904D02*
X152569047Y-95730952D01*
X152378571Y-96111904D02*
X152378571Y-95311904D01*
X152683333Y-95311904D01*
X152759523Y-95350000D01*
X152797619Y-95388095D01*
X152835714Y-95464285D01*
X152835714Y-95578571D01*
X152797619Y-95654761D01*
X152759523Y-95692857D01*
X152683333Y-95730952D01*
X152378571Y-95730952D01*
X153597619Y-96111904D02*
X153140476Y-96111904D01*
X153369047Y-96111904D02*
X153369047Y-95311904D01*
X153292857Y-95426190D01*
X153216666Y-95502380D01*
X153140476Y-95540476D01*
X154054761Y-95654761D02*
X153978571Y-95616666D01*
X153940476Y-95578571D01*
X153902380Y-95502380D01*
X153902380Y-95464285D01*
X153940476Y-95388095D01*
X153978571Y-95350000D01*
X154054761Y-95311904D01*
X154207142Y-95311904D01*
X154283333Y-95350000D01*
X154321428Y-95388095D01*
X154359523Y-95464285D01*
X154359523Y-95502380D01*
X154321428Y-95578571D01*
X154283333Y-95616666D01*
X154207142Y-95654761D01*
X154054761Y-95654761D01*
X153978571Y-95692857D01*
X153940476Y-95730952D01*
X153902380Y-95807142D01*
X153902380Y-95959523D01*
X153940476Y-96035714D01*
X153978571Y-96073809D01*
X154054761Y-96111904D01*
X154207142Y-96111904D01*
X154283333Y-96073809D01*
X154321428Y-96035714D01*
X154359523Y-95959523D01*
X154359523Y-95807142D01*
X154321428Y-95730952D01*
X154283333Y-95692857D01*
X154207142Y-95654761D01*
G04 #@! TO.C,R19*
X152835714Y-98011904D02*
X152569047Y-97630952D01*
X152378571Y-98011904D02*
X152378571Y-97211904D01*
X152683333Y-97211904D01*
X152759523Y-97250000D01*
X152797619Y-97288095D01*
X152835714Y-97364285D01*
X152835714Y-97478571D01*
X152797619Y-97554761D01*
X152759523Y-97592857D01*
X152683333Y-97630952D01*
X152378571Y-97630952D01*
X153597619Y-98011904D02*
X153140476Y-98011904D01*
X153369047Y-98011904D02*
X153369047Y-97211904D01*
X153292857Y-97326190D01*
X153216666Y-97402380D01*
X153140476Y-97440476D01*
X153978571Y-98011904D02*
X154130952Y-98011904D01*
X154207142Y-97973809D01*
X154245238Y-97935714D01*
X154321428Y-97821428D01*
X154359523Y-97669047D01*
X154359523Y-97364285D01*
X154321428Y-97288095D01*
X154283333Y-97250000D01*
X154207142Y-97211904D01*
X154054761Y-97211904D01*
X153978571Y-97250000D01*
X153940476Y-97288095D01*
X153902380Y-97364285D01*
X153902380Y-97554761D01*
X153940476Y-97630952D01*
X153978571Y-97669047D01*
X154054761Y-97707142D01*
X154207142Y-97707142D01*
X154283333Y-97669047D01*
X154321428Y-97630952D01*
X154359523Y-97554761D01*
G04 #@! TO.C,R20*
X162235714Y-98361904D02*
X161969047Y-97980952D01*
X161778571Y-98361904D02*
X161778571Y-97561904D01*
X162083333Y-97561904D01*
X162159523Y-97600000D01*
X162197619Y-97638095D01*
X162235714Y-97714285D01*
X162235714Y-97828571D01*
X162197619Y-97904761D01*
X162159523Y-97942857D01*
X162083333Y-97980952D01*
X161778571Y-97980952D01*
X162540476Y-97638095D02*
X162578571Y-97600000D01*
X162654761Y-97561904D01*
X162845238Y-97561904D01*
X162921428Y-97600000D01*
X162959523Y-97638095D01*
X162997619Y-97714285D01*
X162997619Y-97790476D01*
X162959523Y-97904761D01*
X162502380Y-98361904D01*
X162997619Y-98361904D01*
X163492857Y-97561904D02*
X163569047Y-97561904D01*
X163645238Y-97600000D01*
X163683333Y-97638095D01*
X163721428Y-97714285D01*
X163759523Y-97866666D01*
X163759523Y-98057142D01*
X163721428Y-98209523D01*
X163683333Y-98285714D01*
X163645238Y-98323809D01*
X163569047Y-98361904D01*
X163492857Y-98361904D01*
X163416666Y-98323809D01*
X163378571Y-98285714D01*
X163340476Y-98209523D01*
X163302380Y-98057142D01*
X163302380Y-97866666D01*
X163340476Y-97714285D01*
X163378571Y-97638095D01*
X163416666Y-97600000D01*
X163492857Y-97561904D01*
G04 #@! TO.C,R21*
X162335714Y-95561904D02*
X162069047Y-95180952D01*
X161878571Y-95561904D02*
X161878571Y-94761904D01*
X162183333Y-94761904D01*
X162259523Y-94800000D01*
X162297619Y-94838095D01*
X162335714Y-94914285D01*
X162335714Y-95028571D01*
X162297619Y-95104761D01*
X162259523Y-95142857D01*
X162183333Y-95180952D01*
X161878571Y-95180952D01*
X162640476Y-94838095D02*
X162678571Y-94800000D01*
X162754761Y-94761904D01*
X162945238Y-94761904D01*
X163021428Y-94800000D01*
X163059523Y-94838095D01*
X163097619Y-94914285D01*
X163097619Y-94990476D01*
X163059523Y-95104761D01*
X162602380Y-95561904D01*
X163097619Y-95561904D01*
X163859523Y-95561904D02*
X163402380Y-95561904D01*
X163630952Y-95561904D02*
X163630952Y-94761904D01*
X163554761Y-94876190D01*
X163478571Y-94952380D01*
X163402380Y-94990476D01*
G04 #@! TO.C,R22*
X143585714Y-111261904D02*
X143319047Y-110880952D01*
X143128571Y-111261904D02*
X143128571Y-110461904D01*
X143433333Y-110461904D01*
X143509523Y-110500000D01*
X143547619Y-110538095D01*
X143585714Y-110614285D01*
X143585714Y-110728571D01*
X143547619Y-110804761D01*
X143509523Y-110842857D01*
X143433333Y-110880952D01*
X143128571Y-110880952D01*
X143890476Y-110538095D02*
X143928571Y-110500000D01*
X144004761Y-110461904D01*
X144195238Y-110461904D01*
X144271428Y-110500000D01*
X144309523Y-110538095D01*
X144347619Y-110614285D01*
X144347619Y-110690476D01*
X144309523Y-110804761D01*
X143852380Y-111261904D01*
X144347619Y-111261904D01*
X144652380Y-110538095D02*
X144690476Y-110500000D01*
X144766666Y-110461904D01*
X144957142Y-110461904D01*
X145033333Y-110500000D01*
X145071428Y-110538095D01*
X145109523Y-110614285D01*
X145109523Y-110690476D01*
X145071428Y-110804761D01*
X144614285Y-111261904D01*
X145109523Y-111261904D01*
G04 #@! TO.C,R23*
X163285714Y-120211904D02*
X163019047Y-119830952D01*
X162828571Y-120211904D02*
X162828571Y-119411904D01*
X163133333Y-119411904D01*
X163209523Y-119450000D01*
X163247619Y-119488095D01*
X163285714Y-119564285D01*
X163285714Y-119678571D01*
X163247619Y-119754761D01*
X163209523Y-119792857D01*
X163133333Y-119830952D01*
X162828571Y-119830952D01*
X163590476Y-119488095D02*
X163628571Y-119450000D01*
X163704761Y-119411904D01*
X163895238Y-119411904D01*
X163971428Y-119450000D01*
X164009523Y-119488095D01*
X164047619Y-119564285D01*
X164047619Y-119640476D01*
X164009523Y-119754761D01*
X163552380Y-120211904D01*
X164047619Y-120211904D01*
X164314285Y-119411904D02*
X164809523Y-119411904D01*
X164542857Y-119716666D01*
X164657142Y-119716666D01*
X164733333Y-119754761D01*
X164771428Y-119792857D01*
X164809523Y-119869047D01*
X164809523Y-120059523D01*
X164771428Y-120135714D01*
X164733333Y-120173809D01*
X164657142Y-120211904D01*
X164428571Y-120211904D01*
X164352380Y-120173809D01*
X164314285Y-120135714D01*
G04 #@! TO.C,R24*
X165785714Y-120211904D02*
X165519047Y-119830952D01*
X165328571Y-120211904D02*
X165328571Y-119411904D01*
X165633333Y-119411904D01*
X165709523Y-119450000D01*
X165747619Y-119488095D01*
X165785714Y-119564285D01*
X165785714Y-119678571D01*
X165747619Y-119754761D01*
X165709523Y-119792857D01*
X165633333Y-119830952D01*
X165328571Y-119830952D01*
X166090476Y-119488095D02*
X166128571Y-119450000D01*
X166204761Y-119411904D01*
X166395238Y-119411904D01*
X166471428Y-119450000D01*
X166509523Y-119488095D01*
X166547619Y-119564285D01*
X166547619Y-119640476D01*
X166509523Y-119754761D01*
X166052380Y-120211904D01*
X166547619Y-120211904D01*
X167233333Y-119678571D02*
X167233333Y-120211904D01*
X167042857Y-119373809D02*
X166852380Y-119945238D01*
X167347619Y-119945238D01*
G04 #@! TO.C,R25*
X145035714Y-115161904D02*
X144769047Y-114780952D01*
X144578571Y-115161904D02*
X144578571Y-114361904D01*
X144883333Y-114361904D01*
X144959523Y-114400000D01*
X144997619Y-114438095D01*
X145035714Y-114514285D01*
X145035714Y-114628571D01*
X144997619Y-114704761D01*
X144959523Y-114742857D01*
X144883333Y-114780952D01*
X144578571Y-114780952D01*
X145340476Y-114438095D02*
X145378571Y-114400000D01*
X145454761Y-114361904D01*
X145645238Y-114361904D01*
X145721428Y-114400000D01*
X145759523Y-114438095D01*
X145797619Y-114514285D01*
X145797619Y-114590476D01*
X145759523Y-114704761D01*
X145302380Y-115161904D01*
X145797619Y-115161904D01*
X146521428Y-114361904D02*
X146140476Y-114361904D01*
X146102380Y-114742857D01*
X146140476Y-114704761D01*
X146216666Y-114666666D01*
X146407142Y-114666666D01*
X146483333Y-114704761D01*
X146521428Y-114742857D01*
X146559523Y-114819047D01*
X146559523Y-115009523D01*
X146521428Y-115085714D01*
X146483333Y-115123809D01*
X146407142Y-115161904D01*
X146216666Y-115161904D01*
X146140476Y-115123809D01*
X146102380Y-115085714D01*
G04 #@! TO.C,R26*
X145135714Y-117511904D02*
X144869047Y-117130952D01*
X144678571Y-117511904D02*
X144678571Y-116711904D01*
X144983333Y-116711904D01*
X145059523Y-116750000D01*
X145097619Y-116788095D01*
X145135714Y-116864285D01*
X145135714Y-116978571D01*
X145097619Y-117054761D01*
X145059523Y-117092857D01*
X144983333Y-117130952D01*
X144678571Y-117130952D01*
X145440476Y-116788095D02*
X145478571Y-116750000D01*
X145554761Y-116711904D01*
X145745238Y-116711904D01*
X145821428Y-116750000D01*
X145859523Y-116788095D01*
X145897619Y-116864285D01*
X145897619Y-116940476D01*
X145859523Y-117054761D01*
X145402380Y-117511904D01*
X145897619Y-117511904D01*
X146583333Y-116711904D02*
X146430952Y-116711904D01*
X146354761Y-116750000D01*
X146316666Y-116788095D01*
X146240476Y-116902380D01*
X146202380Y-117054761D01*
X146202380Y-117359523D01*
X146240476Y-117435714D01*
X146278571Y-117473809D01*
X146354761Y-117511904D01*
X146507142Y-117511904D01*
X146583333Y-117473809D01*
X146621428Y-117435714D01*
X146659523Y-117359523D01*
X146659523Y-117169047D01*
X146621428Y-117092857D01*
X146583333Y-117054761D01*
X146507142Y-117016666D01*
X146354761Y-117016666D01*
X146278571Y-117054761D01*
X146240476Y-117092857D01*
X146202380Y-117169047D01*
G04 #@! TO.C,R27*
X144885714Y-113461904D02*
X144619047Y-113080952D01*
X144428571Y-113461904D02*
X144428571Y-112661904D01*
X144733333Y-112661904D01*
X144809523Y-112700000D01*
X144847619Y-112738095D01*
X144885714Y-112814285D01*
X144885714Y-112928571D01*
X144847619Y-113004761D01*
X144809523Y-113042857D01*
X144733333Y-113080952D01*
X144428571Y-113080952D01*
X145190476Y-112738095D02*
X145228571Y-112700000D01*
X145304761Y-112661904D01*
X145495238Y-112661904D01*
X145571428Y-112700000D01*
X145609523Y-112738095D01*
X145647619Y-112814285D01*
X145647619Y-112890476D01*
X145609523Y-113004761D01*
X145152380Y-113461904D01*
X145647619Y-113461904D01*
X145914285Y-112661904D02*
X146447619Y-112661904D01*
X146104761Y-113461904D01*
G04 #@! TO.C,R28*
X145135714Y-119361904D02*
X144869047Y-118980952D01*
X144678571Y-119361904D02*
X144678571Y-118561904D01*
X144983333Y-118561904D01*
X145059523Y-118600000D01*
X145097619Y-118638095D01*
X145135714Y-118714285D01*
X145135714Y-118828571D01*
X145097619Y-118904761D01*
X145059523Y-118942857D01*
X144983333Y-118980952D01*
X144678571Y-118980952D01*
X145440476Y-118638095D02*
X145478571Y-118600000D01*
X145554761Y-118561904D01*
X145745238Y-118561904D01*
X145821428Y-118600000D01*
X145859523Y-118638095D01*
X145897619Y-118714285D01*
X145897619Y-118790476D01*
X145859523Y-118904761D01*
X145402380Y-119361904D01*
X145897619Y-119361904D01*
X146354761Y-118904761D02*
X146278571Y-118866666D01*
X146240476Y-118828571D01*
X146202380Y-118752380D01*
X146202380Y-118714285D01*
X146240476Y-118638095D01*
X146278571Y-118600000D01*
X146354761Y-118561904D01*
X146507142Y-118561904D01*
X146583333Y-118600000D01*
X146621428Y-118638095D01*
X146659523Y-118714285D01*
X146659523Y-118752380D01*
X146621428Y-118828571D01*
X146583333Y-118866666D01*
X146507142Y-118904761D01*
X146354761Y-118904761D01*
X146278571Y-118942857D01*
X146240476Y-118980952D01*
X146202380Y-119057142D01*
X146202380Y-119209523D01*
X146240476Y-119285714D01*
X146278571Y-119323809D01*
X146354761Y-119361904D01*
X146507142Y-119361904D01*
X146583333Y-119323809D01*
X146621428Y-119285714D01*
X146659523Y-119209523D01*
X146659523Y-119057142D01*
X146621428Y-118980952D01*
X146583333Y-118942857D01*
X146507142Y-118904761D01*
G04 #@! TO.C,R29*
X124371428Y-105985714D02*
X124085714Y-106185714D01*
X124371428Y-106328571D02*
X123771428Y-106328571D01*
X123771428Y-106100000D01*
X123800000Y-106042857D01*
X123828571Y-106014285D01*
X123885714Y-105985714D01*
X123971428Y-105985714D01*
X124028571Y-106014285D01*
X124057142Y-106042857D01*
X124085714Y-106100000D01*
X124085714Y-106328571D01*
X123828571Y-105757142D02*
X123800000Y-105728571D01*
X123771428Y-105671428D01*
X123771428Y-105528571D01*
X123800000Y-105471428D01*
X123828571Y-105442857D01*
X123885714Y-105414285D01*
X123942857Y-105414285D01*
X124028571Y-105442857D01*
X124371428Y-105785714D01*
X124371428Y-105414285D01*
X124371428Y-105128571D02*
X124371428Y-105014285D01*
X124342857Y-104957142D01*
X124314285Y-104928571D01*
X124228571Y-104871428D01*
X124114285Y-104842857D01*
X123885714Y-104842857D01*
X123828571Y-104871428D01*
X123800000Y-104900000D01*
X123771428Y-104957142D01*
X123771428Y-105071428D01*
X123800000Y-105128571D01*
X123828571Y-105157142D01*
X123885714Y-105185714D01*
X124028571Y-105185714D01*
X124085714Y-105157142D01*
X124114285Y-105128571D01*
X124142857Y-105071428D01*
X124142857Y-104957142D01*
X124114285Y-104900000D01*
X124085714Y-104871428D01*
X124028571Y-104842857D01*
G04 #@! TO.C,R30*
X157785714Y-120161904D02*
X157519047Y-119780952D01*
X157328571Y-120161904D02*
X157328571Y-119361904D01*
X157633333Y-119361904D01*
X157709523Y-119400000D01*
X157747619Y-119438095D01*
X157785714Y-119514285D01*
X157785714Y-119628571D01*
X157747619Y-119704761D01*
X157709523Y-119742857D01*
X157633333Y-119780952D01*
X157328571Y-119780952D01*
X158052380Y-119361904D02*
X158547619Y-119361904D01*
X158280952Y-119666666D01*
X158395238Y-119666666D01*
X158471428Y-119704761D01*
X158509523Y-119742857D01*
X158547619Y-119819047D01*
X158547619Y-120009523D01*
X158509523Y-120085714D01*
X158471428Y-120123809D01*
X158395238Y-120161904D01*
X158166666Y-120161904D01*
X158090476Y-120123809D01*
X158052380Y-120085714D01*
X159042857Y-119361904D02*
X159119047Y-119361904D01*
X159195238Y-119400000D01*
X159233333Y-119438095D01*
X159271428Y-119514285D01*
X159309523Y-119666666D01*
X159309523Y-119857142D01*
X159271428Y-120009523D01*
X159233333Y-120085714D01*
X159195238Y-120123809D01*
X159119047Y-120161904D01*
X159042857Y-120161904D01*
X158966666Y-120123809D01*
X158928571Y-120085714D01*
X158890476Y-120009523D01*
X158852380Y-119857142D01*
X158852380Y-119666666D01*
X158890476Y-119514285D01*
X158928571Y-119438095D01*
X158966666Y-119400000D01*
X159042857Y-119361904D01*
G04 #@! TO.C,R31*
X160885714Y-120211904D02*
X160619047Y-119830952D01*
X160428571Y-120211904D02*
X160428571Y-119411904D01*
X160733333Y-119411904D01*
X160809523Y-119450000D01*
X160847619Y-119488095D01*
X160885714Y-119564285D01*
X160885714Y-119678571D01*
X160847619Y-119754761D01*
X160809523Y-119792857D01*
X160733333Y-119830952D01*
X160428571Y-119830952D01*
X161152380Y-119411904D02*
X161647619Y-119411904D01*
X161380952Y-119716666D01*
X161495238Y-119716666D01*
X161571428Y-119754761D01*
X161609523Y-119792857D01*
X161647619Y-119869047D01*
X161647619Y-120059523D01*
X161609523Y-120135714D01*
X161571428Y-120173809D01*
X161495238Y-120211904D01*
X161266666Y-120211904D01*
X161190476Y-120173809D01*
X161152380Y-120135714D01*
X162409523Y-120211904D02*
X161952380Y-120211904D01*
X162180952Y-120211904D02*
X162180952Y-119411904D01*
X162104761Y-119526190D01*
X162028571Y-119602380D01*
X161952380Y-119640476D01*
G04 #@! TO.C,R32*
X143685714Y-110111904D02*
X143419047Y-109730952D01*
X143228571Y-110111904D02*
X143228571Y-109311904D01*
X143533333Y-109311904D01*
X143609523Y-109350000D01*
X143647619Y-109388095D01*
X143685714Y-109464285D01*
X143685714Y-109578571D01*
X143647619Y-109654761D01*
X143609523Y-109692857D01*
X143533333Y-109730952D01*
X143228571Y-109730952D01*
X143952380Y-109311904D02*
X144447619Y-109311904D01*
X144180952Y-109616666D01*
X144295238Y-109616666D01*
X144371428Y-109654761D01*
X144409523Y-109692857D01*
X144447619Y-109769047D01*
X144447619Y-109959523D01*
X144409523Y-110035714D01*
X144371428Y-110073809D01*
X144295238Y-110111904D01*
X144066666Y-110111904D01*
X143990476Y-110073809D01*
X143952380Y-110035714D01*
X144752380Y-109388095D02*
X144790476Y-109350000D01*
X144866666Y-109311904D01*
X145057142Y-109311904D01*
X145133333Y-109350000D01*
X145171428Y-109388095D01*
X145209523Y-109464285D01*
X145209523Y-109540476D01*
X145171428Y-109654761D01*
X144714285Y-110111904D01*
X145209523Y-110111904D01*
G04 #@! TO.C,R33*
X124421428Y-107785714D02*
X124135714Y-107985714D01*
X124421428Y-108128571D02*
X123821428Y-108128571D01*
X123821428Y-107900000D01*
X123850000Y-107842857D01*
X123878571Y-107814285D01*
X123935714Y-107785714D01*
X124021428Y-107785714D01*
X124078571Y-107814285D01*
X124107142Y-107842857D01*
X124135714Y-107900000D01*
X124135714Y-108128571D01*
X123821428Y-107585714D02*
X123821428Y-107214285D01*
X124050000Y-107414285D01*
X124050000Y-107328571D01*
X124078571Y-107271428D01*
X124107142Y-107242857D01*
X124164285Y-107214285D01*
X124307142Y-107214285D01*
X124364285Y-107242857D01*
X124392857Y-107271428D01*
X124421428Y-107328571D01*
X124421428Y-107500000D01*
X124392857Y-107557142D01*
X124364285Y-107585714D01*
X123821428Y-107014285D02*
X123821428Y-106642857D01*
X124050000Y-106842857D01*
X124050000Y-106757142D01*
X124078571Y-106700000D01*
X124107142Y-106671428D01*
X124164285Y-106642857D01*
X124307142Y-106642857D01*
X124364285Y-106671428D01*
X124392857Y-106700000D01*
X124421428Y-106757142D01*
X124421428Y-106928571D01*
X124392857Y-106985714D01*
X124364285Y-107014285D01*
G04 #@! TO.C,R34*
X134814285Y-98821428D02*
X134614285Y-98535714D01*
X134471428Y-98821428D02*
X134471428Y-98221428D01*
X134700000Y-98221428D01*
X134757142Y-98250000D01*
X134785714Y-98278571D01*
X134814285Y-98335714D01*
X134814285Y-98421428D01*
X134785714Y-98478571D01*
X134757142Y-98507142D01*
X134700000Y-98535714D01*
X134471428Y-98535714D01*
X135014285Y-98221428D02*
X135385714Y-98221428D01*
X135185714Y-98450000D01*
X135271428Y-98450000D01*
X135328571Y-98478571D01*
X135357142Y-98507142D01*
X135385714Y-98564285D01*
X135385714Y-98707142D01*
X135357142Y-98764285D01*
X135328571Y-98792857D01*
X135271428Y-98821428D01*
X135100000Y-98821428D01*
X135042857Y-98792857D01*
X135014285Y-98764285D01*
X135900000Y-98421428D02*
X135900000Y-98821428D01*
X135757142Y-98192857D02*
X135614285Y-98621428D01*
X135985714Y-98621428D01*
G04 #@! TO.C,R35*
X120085714Y-74961904D02*
X119819047Y-74580952D01*
X119628571Y-74961904D02*
X119628571Y-74161904D01*
X119933333Y-74161904D01*
X120009523Y-74200000D01*
X120047619Y-74238095D01*
X120085714Y-74314285D01*
X120085714Y-74428571D01*
X120047619Y-74504761D01*
X120009523Y-74542857D01*
X119933333Y-74580952D01*
X119628571Y-74580952D01*
X120352380Y-74161904D02*
X120847619Y-74161904D01*
X120580952Y-74466666D01*
X120695238Y-74466666D01*
X120771428Y-74504761D01*
X120809523Y-74542857D01*
X120847619Y-74619047D01*
X120847619Y-74809523D01*
X120809523Y-74885714D01*
X120771428Y-74923809D01*
X120695238Y-74961904D01*
X120466666Y-74961904D01*
X120390476Y-74923809D01*
X120352380Y-74885714D01*
X121571428Y-74161904D02*
X121190476Y-74161904D01*
X121152380Y-74542857D01*
X121190476Y-74504761D01*
X121266666Y-74466666D01*
X121457142Y-74466666D01*
X121533333Y-74504761D01*
X121571428Y-74542857D01*
X121609523Y-74619047D01*
X121609523Y-74809523D01*
X121571428Y-74885714D01*
X121533333Y-74923809D01*
X121457142Y-74961904D01*
X121266666Y-74961904D01*
X121190476Y-74923809D01*
X121152380Y-74885714D01*
G04 #@! TO.C,TP1*
X177990476Y-87061904D02*
X178447619Y-87061904D01*
X178219047Y-87861904D02*
X178219047Y-87061904D01*
X178714285Y-87861904D02*
X178714285Y-87061904D01*
X179019047Y-87061904D01*
X179095238Y-87100000D01*
X179133333Y-87138095D01*
X179171428Y-87214285D01*
X179171428Y-87328571D01*
X179133333Y-87404761D01*
X179095238Y-87442857D01*
X179019047Y-87480952D01*
X178714285Y-87480952D01*
X179933333Y-87861904D02*
X179476190Y-87861904D01*
X179704761Y-87861904D02*
X179704761Y-87061904D01*
X179628571Y-87176190D01*
X179552380Y-87252380D01*
X179476190Y-87290476D01*
G04 #@! TO.C,TP2*
X173240476Y-116411904D02*
X173697619Y-116411904D01*
X173469047Y-117211904D02*
X173469047Y-116411904D01*
X173964285Y-117211904D02*
X173964285Y-116411904D01*
X174269047Y-116411904D01*
X174345238Y-116450000D01*
X174383333Y-116488095D01*
X174421428Y-116564285D01*
X174421428Y-116678571D01*
X174383333Y-116754761D01*
X174345238Y-116792857D01*
X174269047Y-116830952D01*
X173964285Y-116830952D01*
X174726190Y-116488095D02*
X174764285Y-116450000D01*
X174840476Y-116411904D01*
X175030952Y-116411904D01*
X175107142Y-116450000D01*
X175145238Y-116488095D01*
X175183333Y-116564285D01*
X175183333Y-116640476D01*
X175145238Y-116754761D01*
X174688095Y-117211904D01*
X175183333Y-117211904D01*
G04 #@! TO.C,TP3*
X177840476Y-75011904D02*
X178297619Y-75011904D01*
X178069047Y-75811904D02*
X178069047Y-75011904D01*
X178564285Y-75811904D02*
X178564285Y-75011904D01*
X178869047Y-75011904D01*
X178945238Y-75050000D01*
X178983333Y-75088095D01*
X179021428Y-75164285D01*
X179021428Y-75278571D01*
X178983333Y-75354761D01*
X178945238Y-75392857D01*
X178869047Y-75430952D01*
X178564285Y-75430952D01*
X179288095Y-75011904D02*
X179783333Y-75011904D01*
X179516666Y-75316666D01*
X179630952Y-75316666D01*
X179707142Y-75354761D01*
X179745238Y-75392857D01*
X179783333Y-75469047D01*
X179783333Y-75659523D01*
X179745238Y-75735714D01*
X179707142Y-75773809D01*
X179630952Y-75811904D01*
X179402380Y-75811904D01*
X179326190Y-75773809D01*
X179288095Y-75735714D01*
G04 #@! TO.C,TP4*
X161940476Y-70461904D02*
X162397619Y-70461904D01*
X162169047Y-71261904D02*
X162169047Y-70461904D01*
X162664285Y-71261904D02*
X162664285Y-70461904D01*
X162969047Y-70461904D01*
X163045238Y-70500000D01*
X163083333Y-70538095D01*
X163121428Y-70614285D01*
X163121428Y-70728571D01*
X163083333Y-70804761D01*
X163045238Y-70842857D01*
X162969047Y-70880952D01*
X162664285Y-70880952D01*
X163807142Y-70728571D02*
X163807142Y-71261904D01*
X163616666Y-70423809D02*
X163426190Y-70995238D01*
X163921428Y-70995238D01*
G04 #@! TO.C,TP5*
X153440476Y-115511904D02*
X153897619Y-115511904D01*
X153669047Y-116311904D02*
X153669047Y-115511904D01*
X154164285Y-116311904D02*
X154164285Y-115511904D01*
X154469047Y-115511904D01*
X154545238Y-115550000D01*
X154583333Y-115588095D01*
X154621428Y-115664285D01*
X154621428Y-115778571D01*
X154583333Y-115854761D01*
X154545238Y-115892857D01*
X154469047Y-115930952D01*
X154164285Y-115930952D01*
X155345238Y-115511904D02*
X154964285Y-115511904D01*
X154926190Y-115892857D01*
X154964285Y-115854761D01*
X155040476Y-115816666D01*
X155230952Y-115816666D01*
X155307142Y-115854761D01*
X155345238Y-115892857D01*
X155383333Y-115969047D01*
X155383333Y-116159523D01*
X155345238Y-116235714D01*
X155307142Y-116273809D01*
X155230952Y-116311904D01*
X155040476Y-116311904D01*
X154964285Y-116273809D01*
X154926190Y-116235714D01*
G04 #@! TO.C,U1*
X177740476Y-83611904D02*
X177740476Y-84259523D01*
X177778571Y-84335714D01*
X177816666Y-84373809D01*
X177892857Y-84411904D01*
X178045238Y-84411904D01*
X178121428Y-84373809D01*
X178159523Y-84335714D01*
X178197619Y-84259523D01*
X178197619Y-83611904D01*
X178997619Y-84411904D02*
X178540476Y-84411904D01*
X178769047Y-84411904D02*
X178769047Y-83611904D01*
X178692857Y-83726190D01*
X178616666Y-83802380D01*
X178540476Y-83840476D01*
G04 #@! TO.C,U2*
X178240476Y-70061904D02*
X178240476Y-70709523D01*
X178278571Y-70785714D01*
X178316666Y-70823809D01*
X178392857Y-70861904D01*
X178545238Y-70861904D01*
X178621428Y-70823809D01*
X178659523Y-70785714D01*
X178697619Y-70709523D01*
X178697619Y-70061904D01*
X179040476Y-70138095D02*
X179078571Y-70100000D01*
X179154761Y-70061904D01*
X179345238Y-70061904D01*
X179421428Y-70100000D01*
X179459523Y-70138095D01*
X179497619Y-70214285D01*
X179497619Y-70290476D01*
X179459523Y-70404761D01*
X179002380Y-70861904D01*
X179497619Y-70861904D01*
G04 #@! TO.C,U4*
X165290476Y-112061904D02*
X165290476Y-112709523D01*
X165328571Y-112785714D01*
X165366666Y-112823809D01*
X165442857Y-112861904D01*
X165595238Y-112861904D01*
X165671428Y-112823809D01*
X165709523Y-112785714D01*
X165747619Y-112709523D01*
X165747619Y-112061904D01*
X166471428Y-112328571D02*
X166471428Y-112861904D01*
X166280952Y-112023809D02*
X166090476Y-112595238D01*
X166585714Y-112595238D01*
G04 #@! TO.C,U5*
X160990476Y-85761904D02*
X160990476Y-86409523D01*
X161028571Y-86485714D01*
X161066666Y-86523809D01*
X161142857Y-86561904D01*
X161295238Y-86561904D01*
X161371428Y-86523809D01*
X161409523Y-86485714D01*
X161447619Y-86409523D01*
X161447619Y-85761904D01*
X162209523Y-85761904D02*
X161828571Y-85761904D01*
X161790476Y-86142857D01*
X161828571Y-86104761D01*
X161904761Y-86066666D01*
X162095238Y-86066666D01*
X162171428Y-86104761D01*
X162209523Y-86142857D01*
X162247619Y-86219047D01*
X162247619Y-86409523D01*
X162209523Y-86485714D01*
X162171428Y-86523809D01*
X162095238Y-86561904D01*
X161904761Y-86561904D01*
X161828571Y-86523809D01*
X161790476Y-86485714D01*
G04 #@! TO.C,U6*
X128440476Y-111911904D02*
X128440476Y-112559523D01*
X128478571Y-112635714D01*
X128516666Y-112673809D01*
X128592857Y-112711904D01*
X128745238Y-112711904D01*
X128821428Y-112673809D01*
X128859523Y-112635714D01*
X128897619Y-112559523D01*
X128897619Y-111911904D01*
X129621428Y-111911904D02*
X129469047Y-111911904D01*
X129392857Y-111950000D01*
X129354761Y-111988095D01*
X129278571Y-112102380D01*
X129240476Y-112254761D01*
X129240476Y-112559523D01*
X129278571Y-112635714D01*
X129316666Y-112673809D01*
X129392857Y-112711904D01*
X129545238Y-112711904D01*
X129621428Y-112673809D01*
X129659523Y-112635714D01*
X129697619Y-112559523D01*
X129697619Y-112369047D01*
X129659523Y-112292857D01*
X129621428Y-112254761D01*
X129545238Y-112216666D01*
X129392857Y-112216666D01*
X129316666Y-112254761D01*
X129278571Y-112292857D01*
X129240476Y-112369047D01*
G04 #@! TD*
M02*
