G04 #@! TF.GenerationSoftware,KiCad,Pcbnew,5.0.2-bee76a0~70~ubuntu16.04.1*
G04 #@! TF.CreationDate,2020-05-07T16:47:39-03:00*
G04 #@! TF.ProjectId,FPGA para todos,46504741-2070-4617-9261-20746f646f73,1.2*
G04 #@! TF.SameCoordinates,Original*
G04 #@! TF.FileFunction,Legend,Bot*
G04 #@! TF.FilePolarity,Positive*
%FSLAX46Y46*%
G04 Gerber Fmt 4.6, Leading zero omitted, Abs format (unit mm)*
G04 Created by KiCad (PCBNEW 5.0.2-bee76a0~70~ubuntu16.04.1) date jue 07 may 2020 16:47:39 -03*
%MOMM*%
%LPD*%
G01*
G04 APERTURE LIST*
%ADD10C,0.010000*%
%ADD11C,0.130000*%
G04 APERTURE END LIST*
D10*
G04 #@! TO.C,G\002A\002A\002A*
G36*
X114650513Y-88648935D02*
X126649486Y-88648935D01*
X126649486Y-87850090D01*
X125638703Y-87850090D01*
X125623425Y-87944096D01*
X125568651Y-88005030D01*
X125557189Y-88012368D01*
X125464148Y-88069087D01*
X125391977Y-88113119D01*
X125336930Y-88154945D01*
X125333818Y-88191253D01*
X125349646Y-88214052D01*
X125404471Y-88246966D01*
X125496944Y-88246733D01*
X125514858Y-88244091D01*
X125595856Y-88235529D01*
X125631251Y-88249009D01*
X125638703Y-88287167D01*
X125625274Y-88341067D01*
X125576516Y-88371297D01*
X125479730Y-88384121D01*
X125439314Y-88385513D01*
X125308257Y-88361560D01*
X125235527Y-88320509D01*
X125162489Y-88232848D01*
X125150928Y-88139678D01*
X125157456Y-88127240D01*
X125051797Y-88127240D01*
X125050929Y-88256610D01*
X125045551Y-88334074D01*
X125031506Y-88372937D01*
X125004636Y-88386505D01*
X124970282Y-88388087D01*
X124929854Y-88385308D01*
X124905647Y-88368099D01*
X124893502Y-88323155D01*
X124892844Y-88309800D01*
X124796008Y-88309800D01*
X124775818Y-88359353D01*
X124769213Y-88366350D01*
X124717041Y-88383954D01*
X124629761Y-88387080D01*
X124535583Y-88376833D01*
X124462747Y-88354334D01*
X124410690Y-88292205D01*
X124399679Y-88229950D01*
X124413842Y-88160585D01*
X124467216Y-88109796D01*
X124515538Y-88084069D01*
X124587897Y-88035861D01*
X124607704Y-87993707D01*
X124575576Y-87969917D01*
X124509978Y-87972922D01*
X124450135Y-87972343D01*
X124432350Y-87931716D01*
X124432349Y-87931605D01*
X124334467Y-87931605D01*
X124320813Y-87984588D01*
X124301861Y-87996817D01*
X124282285Y-88025931D01*
X124270653Y-88099470D01*
X124269255Y-88141214D01*
X124250886Y-88273609D01*
X124194177Y-88354582D01*
X124096730Y-88387126D01*
X124071291Y-88388087D01*
X123999966Y-88376662D01*
X123976175Y-88336116D01*
X123975802Y-88326678D01*
X124003342Y-88269303D01*
X124041014Y-88248216D01*
X124087362Y-88218598D01*
X124104260Y-88154046D01*
X123940351Y-88154046D01*
X123905745Y-88252267D01*
X123834024Y-88331587D01*
X123733952Y-88380626D01*
X123614294Y-88388003D01*
X123538289Y-88368296D01*
X123493224Y-88322578D01*
X123486714Y-88293329D01*
X123501225Y-88256170D01*
X123555338Y-88247381D01*
X123594496Y-88250735D01*
X123699179Y-88242917D01*
X123745215Y-88211582D01*
X123763364Y-88181353D01*
X123745186Y-88165858D01*
X123679284Y-88160345D01*
X123621130Y-88159846D01*
X123523114Y-88157797D01*
X123473685Y-88145282D01*
X123464001Y-88127240D01*
X123356290Y-88127240D01*
X123355380Y-88256626D01*
X123349935Y-88334102D01*
X123335882Y-88372969D01*
X123309147Y-88386526D01*
X123276402Y-88388087D01*
X123231060Y-88382890D01*
X123205789Y-88356928D01*
X123193151Y-88294647D01*
X123186736Y-88200603D01*
X123178227Y-88093658D01*
X123162995Y-88036919D01*
X123135042Y-88015389D01*
X123111746Y-88013120D01*
X123074108Y-88021547D01*
X123052532Y-88056830D01*
X123041020Y-88133969D01*
X123036755Y-88200603D01*
X123028957Y-88306449D01*
X123014872Y-88362616D01*
X122987212Y-88384630D01*
X122948716Y-88388087D01*
X122904249Y-88382630D01*
X122879410Y-88355907D01*
X122866908Y-88292393D01*
X122860677Y-88200603D01*
X122852168Y-88093658D01*
X122836936Y-88036919D01*
X122808982Y-88015389D01*
X122785687Y-88013120D01*
X122748049Y-88021547D01*
X122726473Y-88056830D01*
X122714961Y-88133969D01*
X122710696Y-88200603D01*
X122702965Y-88306379D01*
X122688975Y-88362508D01*
X122661287Y-88384544D01*
X122621030Y-88388087D01*
X122577892Y-88384108D01*
X122553963Y-88362303D01*
X122543604Y-88307873D01*
X122541917Y-88237169D01*
X122443325Y-88237169D01*
X122418156Y-88327596D01*
X122354224Y-88378502D01*
X122268893Y-88383567D01*
X122179526Y-88336473D01*
X122176893Y-88334125D01*
X122132670Y-88298321D01*
X122118394Y-88308113D01*
X122117266Y-88334125D01*
X122090222Y-88379283D01*
X122052054Y-88388087D01*
X122016033Y-88381143D01*
X121996349Y-88350484D01*
X121991568Y-88309800D01*
X121894082Y-88309800D01*
X121873892Y-88359353D01*
X121867287Y-88366350D01*
X121815116Y-88383954D01*
X121727835Y-88387080D01*
X121633657Y-88376833D01*
X121560822Y-88354334D01*
X121508765Y-88292205D01*
X121497754Y-88229950D01*
X121511916Y-88160585D01*
X121565290Y-88109796D01*
X121613612Y-88084069D01*
X121685971Y-88035861D01*
X121705779Y-87993707D01*
X121673651Y-87969917D01*
X121608052Y-87972922D01*
X121548209Y-87972343D01*
X121530425Y-87931716D01*
X121530359Y-87927083D01*
X121557247Y-87883855D01*
X121624524Y-87865646D01*
X121712113Y-87873058D01*
X121799936Y-87906693D01*
X121818413Y-87918450D01*
X121877515Y-87987292D01*
X121874900Y-88061561D01*
X121812691Y-88133388D01*
X121750245Y-88170781D01*
X121670569Y-88222296D01*
X121652243Y-88262777D01*
X121693080Y-88283957D01*
X121779049Y-88279610D01*
X121859597Y-88280397D01*
X121894082Y-88309800D01*
X121991568Y-88309800D01*
X121988226Y-88281375D01*
X121986842Y-88186868D01*
X121995150Y-88044370D01*
X122021649Y-87953701D01*
X122040804Y-87926021D01*
X122109989Y-87883532D01*
X122201946Y-87867263D01*
X122296199Y-87875047D01*
X122372267Y-87904716D01*
X122409672Y-87954101D01*
X122410719Y-87965181D01*
X122402473Y-88003124D01*
X122365630Y-88004824D01*
X122317709Y-87988651D01*
X122236520Y-87971060D01*
X122167672Y-87976693D01*
X122130110Y-88001380D01*
X122133426Y-88029192D01*
X122177732Y-88053083D01*
X122247285Y-88062028D01*
X122352685Y-88087771D01*
X122422678Y-88156220D01*
X122443325Y-88237169D01*
X122541917Y-88237169D01*
X122541173Y-88206019D01*
X122541142Y-88178478D01*
X122548492Y-88035954D01*
X122571831Y-87947248D01*
X122592380Y-87917631D01*
X122672370Y-87874057D01*
X122762986Y-87873075D01*
X122833841Y-87914393D01*
X122871645Y-87945814D01*
X122910645Y-87925106D01*
X122921677Y-87914393D01*
X123002578Y-87869942D01*
X123100481Y-87885866D01*
X123130192Y-87900146D01*
X123182101Y-87917245D01*
X123193261Y-87900146D01*
X123221157Y-87874776D01*
X123274775Y-87866393D01*
X123315203Y-87869173D01*
X123339411Y-87886382D01*
X123351556Y-87931326D01*
X123355795Y-88017309D01*
X123356290Y-88127240D01*
X123464001Y-88127240D01*
X123456225Y-88112754D01*
X123454108Y-88063877D01*
X123481146Y-87966371D01*
X123551143Y-87900041D01*
X123647422Y-87869674D01*
X123753310Y-87880059D01*
X123852129Y-87935985D01*
X123863164Y-87946426D01*
X123929078Y-88048306D01*
X123940351Y-88154046D01*
X124104260Y-88154046D01*
X124105116Y-88150776D01*
X124106226Y-88113990D01*
X124099339Y-88034060D01*
X124072256Y-88001173D01*
X124041014Y-87996817D01*
X123986520Y-87973761D01*
X123975802Y-87931605D01*
X123998858Y-87877110D01*
X124041014Y-87866393D01*
X124091376Y-87848187D01*
X124106216Y-87784092D01*
X124106226Y-87781390D01*
X124115920Y-87721250D01*
X124150540Y-87713663D01*
X124157802Y-87716178D01*
X124219921Y-87733772D01*
X124239316Y-87735969D01*
X124263649Y-87763302D01*
X124269255Y-87801181D01*
X124282910Y-87854165D01*
X124301861Y-87866393D01*
X124328353Y-87893702D01*
X124334467Y-87931605D01*
X124432349Y-87931605D01*
X124432285Y-87927083D01*
X124459173Y-87883855D01*
X124526450Y-87865646D01*
X124614039Y-87873058D01*
X124701862Y-87906693D01*
X124720338Y-87918450D01*
X124779441Y-87987292D01*
X124776825Y-88061561D01*
X124714617Y-88133388D01*
X124652170Y-88170781D01*
X124572494Y-88222296D01*
X124554169Y-88262777D01*
X124595005Y-88283957D01*
X124680974Y-88279610D01*
X124761523Y-88280397D01*
X124796008Y-88309800D01*
X124892844Y-88309800D01*
X124889262Y-88237171D01*
X124888768Y-88127240D01*
X124889636Y-87997871D01*
X124895014Y-87920407D01*
X124909059Y-87881544D01*
X124935929Y-87867976D01*
X124970282Y-87866393D01*
X125010710Y-87869173D01*
X125034918Y-87886382D01*
X125047063Y-87931326D01*
X125051303Y-88017309D01*
X125051797Y-88127240D01*
X125157456Y-88127240D01*
X125198524Y-88049002D01*
X125302957Y-87968823D01*
X125343269Y-87948801D01*
X125435525Y-87889526D01*
X125469345Y-87831478D01*
X125450483Y-87787398D01*
X125384691Y-87770025D01*
X125277720Y-87792100D01*
X125273266Y-87793757D01*
X125208000Y-87814396D01*
X125185630Y-87799453D01*
X125188408Y-87742030D01*
X125202093Y-87687125D01*
X125046637Y-87687125D01*
X125024598Y-87740631D01*
X124973343Y-87763649D01*
X124962604Y-87762459D01*
X124908187Y-87724859D01*
X124894884Y-87694739D01*
X124909800Y-87639850D01*
X124912846Y-87638152D01*
X121073877Y-87638152D01*
X121073877Y-88388087D01*
X120861938Y-88388087D01*
X120747241Y-88386055D01*
X120683294Y-88377002D01*
X120655689Y-88356494D01*
X120650000Y-88322876D01*
X120660937Y-88280212D01*
X120705143Y-88261356D01*
X120780424Y-88257664D01*
X120864052Y-88253801D01*
X120901229Y-88232869D01*
X120910641Y-88180850D01*
X120910847Y-88159846D01*
X120907691Y-88127240D01*
X120552182Y-88127240D01*
X120551272Y-88256626D01*
X120545828Y-88334102D01*
X120531774Y-88372969D01*
X120505039Y-88386526D01*
X120472295Y-88388087D01*
X120426952Y-88382890D01*
X120401682Y-88356928D01*
X120389043Y-88294647D01*
X120382628Y-88200603D01*
X120374119Y-88093658D01*
X120358887Y-88036919D01*
X120330934Y-88015389D01*
X120307638Y-88013120D01*
X120270000Y-88021547D01*
X120248425Y-88056830D01*
X120236912Y-88133969D01*
X120232648Y-88200603D01*
X120224849Y-88306449D01*
X120210764Y-88362616D01*
X120183104Y-88384630D01*
X120144608Y-88388087D01*
X120100141Y-88382630D01*
X120075302Y-88355907D01*
X120062800Y-88292393D01*
X120056569Y-88200603D01*
X120048060Y-88093658D01*
X120032828Y-88036919D01*
X120004875Y-88015389D01*
X119981579Y-88013120D01*
X119943941Y-88021547D01*
X119922366Y-88056830D01*
X119910853Y-88133969D01*
X119906588Y-88200603D01*
X119898857Y-88306379D01*
X119884867Y-88362508D01*
X119857179Y-88384544D01*
X119816922Y-88388087D01*
X119773784Y-88384108D01*
X119749856Y-88362303D01*
X119739496Y-88307873D01*
X119737066Y-88206019D01*
X119737035Y-88178478D01*
X119744384Y-88035954D01*
X119767723Y-87947248D01*
X119788272Y-87917631D01*
X119868262Y-87874057D01*
X119958878Y-87873075D01*
X120029733Y-87914393D01*
X120067538Y-87945814D01*
X120106537Y-87925106D01*
X120117570Y-87914393D01*
X120198470Y-87869942D01*
X120296373Y-87885866D01*
X120326084Y-87900146D01*
X120377993Y-87917245D01*
X120389153Y-87900146D01*
X120417049Y-87874776D01*
X120470668Y-87866393D01*
X120511095Y-87869173D01*
X120535303Y-87886382D01*
X120547448Y-87931326D01*
X120551688Y-88017309D01*
X120552182Y-88127240D01*
X120907691Y-88127240D01*
X120904485Y-88094126D01*
X120872217Y-88067171D01*
X120796727Y-88062028D01*
X120718072Y-88054734D01*
X120686336Y-88026256D01*
X120682606Y-87996817D01*
X120695372Y-87951871D01*
X120745208Y-87933736D01*
X120796727Y-87931605D01*
X120873902Y-87925515D01*
X120905496Y-87898108D01*
X120910847Y-87850090D01*
X120903728Y-87797571D01*
X120870151Y-87774229D01*
X120791782Y-87768604D01*
X120780424Y-87768575D01*
X120695096Y-87763107D01*
X120657384Y-87741004D01*
X120650000Y-87703363D01*
X120656605Y-87668072D01*
X120686028Y-87648396D01*
X120752678Y-87639902D01*
X120861938Y-87638152D01*
X121073877Y-87638152D01*
X124912846Y-87638152D01*
X124960098Y-87611816D01*
X125017277Y-87624387D01*
X125025712Y-87631630D01*
X125046637Y-87687125D01*
X125202093Y-87687125D01*
X125202305Y-87686275D01*
X125239723Y-87658331D01*
X125319819Y-87645829D01*
X125339762Y-87644298D01*
X125486040Y-87653525D01*
X125584610Y-87704660D01*
X125633468Y-87796324D01*
X125638703Y-87850090D01*
X126649486Y-87850090D01*
X126649486Y-87605546D01*
X119606611Y-87605546D01*
X119606611Y-88388087D01*
X119525096Y-88388087D01*
X119463858Y-88374715D01*
X119443581Y-88348960D01*
X119433957Y-88326276D01*
X119404454Y-88348960D01*
X119326388Y-88385017D01*
X119228296Y-88372612D01*
X119145589Y-88325756D01*
X119090948Y-88247406D01*
X119068717Y-88154046D01*
X118984253Y-88154046D01*
X118949647Y-88252267D01*
X118877926Y-88331587D01*
X118777855Y-88380626D01*
X118658196Y-88388003D01*
X118582192Y-88368296D01*
X118537126Y-88322578D01*
X118530616Y-88293329D01*
X118545128Y-88256170D01*
X118599240Y-88247381D01*
X118638398Y-88250735D01*
X118743082Y-88242917D01*
X118789117Y-88211582D01*
X118807267Y-88181353D01*
X118789088Y-88165858D01*
X118723186Y-88160345D01*
X118665032Y-88159846D01*
X118567016Y-88157797D01*
X118517587Y-88145282D01*
X118500128Y-88112754D01*
X118498010Y-88063877D01*
X118525048Y-87966371D01*
X118595045Y-87900041D01*
X118691325Y-87869674D01*
X118797212Y-87880059D01*
X118896031Y-87935985D01*
X118907066Y-87946426D01*
X118972981Y-88048306D01*
X118984253Y-88154046D01*
X119068717Y-88154046D01*
X119065494Y-88140513D01*
X119070045Y-88029784D01*
X119105420Y-87939930D01*
X119131906Y-87912673D01*
X119232892Y-87870850D01*
X119334305Y-87880566D01*
X119392344Y-87917631D01*
X119421334Y-87940618D01*
X119436717Y-87928019D01*
X119442711Y-87869097D01*
X119443581Y-87787207D01*
X119445635Y-87683669D01*
X119456539Y-87629459D01*
X119483412Y-87608714D01*
X119525096Y-87605546D01*
X118400193Y-87605546D01*
X118400193Y-88388087D01*
X118318678Y-88388087D01*
X118257440Y-88374715D01*
X118237163Y-88348960D01*
X118227539Y-88326276D01*
X118198036Y-88348960D01*
X118119969Y-88385017D01*
X118021878Y-88372612D01*
X117939171Y-88325756D01*
X117884529Y-88247406D01*
X117859075Y-88140513D01*
X117859620Y-88127240D01*
X117748074Y-88127240D01*
X117747206Y-88256610D01*
X117741828Y-88334074D01*
X117727783Y-88372937D01*
X117700913Y-88386505D01*
X117666560Y-88388087D01*
X117626132Y-88385308D01*
X117601924Y-88368099D01*
X117589779Y-88323155D01*
X117585540Y-88237171D01*
X117585045Y-88127240D01*
X117585263Y-88094644D01*
X117474861Y-88094644D01*
X117469251Y-88216690D01*
X117418633Y-88311841D01*
X117335681Y-88369678D01*
X117233067Y-88379780D01*
X117159025Y-88354334D01*
X117107116Y-88337236D01*
X117095956Y-88354334D01*
X117068060Y-88379705D01*
X117014442Y-88388087D01*
X116932927Y-88388087D01*
X116932927Y-88149712D01*
X116822723Y-88149712D01*
X116791796Y-88264409D01*
X116725414Y-88342171D01*
X116636910Y-88374130D01*
X116520276Y-88378156D01*
X116405127Y-88356610D01*
X116321081Y-88311853D01*
X116318972Y-88309800D01*
X116188049Y-88309800D01*
X116167859Y-88359353D01*
X116161254Y-88366350D01*
X116109083Y-88383954D01*
X116021802Y-88387080D01*
X115927624Y-88376833D01*
X115854788Y-88354334D01*
X115802731Y-88292205D01*
X115791720Y-88229950D01*
X115805883Y-88160585D01*
X115859257Y-88109796D01*
X115907579Y-88084069D01*
X115979938Y-88035861D01*
X115999746Y-87993707D01*
X115967617Y-87969917D01*
X115902019Y-87972922D01*
X115842176Y-87972343D01*
X115824391Y-87931716D01*
X115824326Y-87927083D01*
X115851214Y-87883855D01*
X115918491Y-87865646D01*
X116006080Y-87873058D01*
X116093903Y-87906693D01*
X116112379Y-87918450D01*
X116171482Y-87987292D01*
X116168866Y-88061561D01*
X116106658Y-88133388D01*
X116044212Y-88170781D01*
X115964535Y-88222296D01*
X115946210Y-88262777D01*
X115987046Y-88283957D01*
X116073016Y-88279610D01*
X116153564Y-88280397D01*
X116188049Y-88309800D01*
X116318972Y-88309800D01*
X116318947Y-88309776D01*
X116273960Y-88224325D01*
X116264541Y-88113219D01*
X116288991Y-88004316D01*
X116342222Y-87928124D01*
X116451607Y-87875653D01*
X116574292Y-87870621D01*
X116689856Y-87908564D01*
X116777877Y-87985021D01*
X116802179Y-88028639D01*
X116822723Y-88149712D01*
X116932927Y-88149712D01*
X116932927Y-87605546D01*
X117014442Y-87605546D01*
X117062118Y-87610563D01*
X117086335Y-87636533D01*
X117094968Y-87699837D01*
X117095956Y-87775096D01*
X117099147Y-87872444D01*
X117110502Y-87913719D01*
X117132693Y-87907829D01*
X117135083Y-87905520D01*
X117213891Y-87865594D01*
X117303194Y-87876766D01*
X117387412Y-87930362D01*
X117450961Y-88017710D01*
X117474861Y-88094644D01*
X117585263Y-88094644D01*
X117585914Y-87997871D01*
X117591291Y-87920407D01*
X117605336Y-87881544D01*
X117632206Y-87867976D01*
X117666560Y-87866393D01*
X117706988Y-87869173D01*
X117731195Y-87886382D01*
X117743340Y-87931326D01*
X117747580Y-88017309D01*
X117748074Y-88127240D01*
X117859620Y-88127240D01*
X117863626Y-88029784D01*
X117899001Y-87939930D01*
X117925487Y-87912673D01*
X118026474Y-87870850D01*
X118127886Y-87880566D01*
X118185925Y-87917631D01*
X118214916Y-87940618D01*
X118230299Y-87928019D01*
X118236292Y-87869097D01*
X118237163Y-87787207D01*
X118239147Y-87687125D01*
X117742915Y-87687125D01*
X117720876Y-87740631D01*
X117669620Y-87763649D01*
X117658881Y-87762459D01*
X117604464Y-87724859D01*
X117591161Y-87694739D01*
X117606077Y-87639850D01*
X117656375Y-87611816D01*
X117713555Y-87624387D01*
X117721990Y-87631630D01*
X117742915Y-87687125D01*
X118239147Y-87687125D01*
X118239216Y-87683669D01*
X118250120Y-87629459D01*
X118276993Y-87608714D01*
X118318678Y-87605546D01*
X118400193Y-87605546D01*
X119525096Y-87605546D01*
X119606611Y-87605546D01*
X126649486Y-87605546D01*
X126649486Y-86811882D01*
X126147187Y-86811882D01*
X126113392Y-86961692D01*
X126105156Y-86979440D01*
X126046968Y-87067630D01*
X125978253Y-87132344D01*
X125964762Y-87140174D01*
X125851427Y-87172290D01*
X125710824Y-87179429D01*
X125581643Y-87161118D01*
X125540190Y-87142963D01*
X125518096Y-87105628D01*
X125509467Y-87032115D01*
X125508280Y-86949625D01*
X125508280Y-86920822D01*
X125377856Y-86920822D01*
X125376988Y-87050191D01*
X125371610Y-87127655D01*
X125357565Y-87166518D01*
X125330695Y-87180086D01*
X125296341Y-87181669D01*
X125247225Y-87176088D01*
X125223193Y-87148022D01*
X125215399Y-87080484D01*
X125214827Y-87025161D01*
X125201660Y-86894084D01*
X125188315Y-86869584D01*
X124953979Y-86869584D01*
X124946630Y-87012108D01*
X124923291Y-87100813D01*
X124902742Y-87130431D01*
X124822744Y-87173857D01*
X124731195Y-87175737D01*
X124667047Y-87142542D01*
X124634739Y-87119857D01*
X124627920Y-87142542D01*
X124600061Y-87171936D01*
X124546406Y-87181669D01*
X124505978Y-87178889D01*
X124481770Y-87161680D01*
X124469625Y-87116736D01*
X124465385Y-87030753D01*
X124464891Y-86920822D01*
X124465801Y-86791436D01*
X124471246Y-86713959D01*
X124485299Y-86675093D01*
X124512034Y-86661535D01*
X124544778Y-86659974D01*
X124334467Y-86659974D01*
X124334467Y-87409910D01*
X124252952Y-87409910D01*
X124203452Y-87404171D01*
X124179480Y-87375523D01*
X124171917Y-87306821D01*
X124171438Y-87256663D01*
X124168520Y-87181669D01*
X122792642Y-87181669D01*
X122700119Y-87181669D01*
X122626058Y-87166774D01*
X122590208Y-87111388D01*
X122587138Y-87100154D01*
X122565736Y-87048590D01*
X122522495Y-87024834D01*
X122437005Y-87018680D01*
X122424108Y-87018639D01*
X122332708Y-87023476D01*
X122285808Y-87044790D01*
X122262999Y-87092786D01*
X122261079Y-87100154D01*
X122228551Y-87162166D01*
X122160693Y-87181461D01*
X122148291Y-87181669D01*
X122055962Y-87181669D01*
X122184431Y-86821527D01*
X122234747Y-86679285D01*
X122241447Y-86659974D01*
X121986842Y-86659974D01*
X121986842Y-87409910D01*
X121905327Y-87409910D01*
X121855827Y-87404171D01*
X121831855Y-87375523D01*
X121824292Y-87306821D01*
X121823813Y-87256663D01*
X121820293Y-87166202D01*
X121807692Y-87131734D01*
X121784685Y-87142542D01*
X121706748Y-87178394D01*
X121607810Y-87166973D01*
X121538916Y-87131823D01*
X121473044Y-87049878D01*
X121445238Y-86938713D01*
X121455261Y-86821763D01*
X121502879Y-86722463D01*
X121543392Y-86684928D01*
X121629304Y-86661180D01*
X121724132Y-86679339D01*
X121772575Y-86711212D01*
X121811649Y-86745172D01*
X121823249Y-86730660D01*
X121823813Y-86711212D01*
X121851826Y-86669508D01*
X121905327Y-86659974D01*
X121986842Y-86659974D01*
X122241447Y-86659974D01*
X122275818Y-86560909D01*
X122303310Y-86479053D01*
X122312901Y-86446559D01*
X122341456Y-86436540D01*
X122410992Y-86432047D01*
X122418870Y-86432028D01*
X122463858Y-86433955D01*
X122498054Y-86446220D01*
X122527956Y-86478985D01*
X122560068Y-86542412D01*
X122600888Y-86646662D01*
X122656919Y-86801898D01*
X122658741Y-86806996D01*
X122792642Y-87181669D01*
X124168520Y-87181669D01*
X124167918Y-87166202D01*
X124155317Y-87131734D01*
X124132311Y-87142542D01*
X124054373Y-87178394D01*
X123955435Y-87166973D01*
X123886541Y-87131823D01*
X123820670Y-87049878D01*
X123794009Y-86943293D01*
X123702569Y-86943293D01*
X123671642Y-87057991D01*
X123605260Y-87135753D01*
X123516756Y-87167711D01*
X123400122Y-87171738D01*
X123284973Y-87150192D01*
X123200927Y-87105435D01*
X123198793Y-87103357D01*
X123153806Y-87017907D01*
X123144387Y-86906801D01*
X123168837Y-86797897D01*
X123222068Y-86721705D01*
X123331453Y-86669235D01*
X123454138Y-86664202D01*
X123569702Y-86702146D01*
X123657723Y-86778602D01*
X123682025Y-86822221D01*
X123702569Y-86943293D01*
X123794009Y-86943293D01*
X123792863Y-86938713D01*
X123802886Y-86821763D01*
X123850504Y-86722463D01*
X123891017Y-86684928D01*
X123976929Y-86661180D01*
X124071757Y-86679339D01*
X124120200Y-86711212D01*
X124159275Y-86745172D01*
X124170874Y-86730660D01*
X124171438Y-86711212D01*
X124199452Y-86669508D01*
X124252952Y-86659974D01*
X124334467Y-86659974D01*
X124544778Y-86659974D01*
X124590121Y-86665172D01*
X124615392Y-86691134D01*
X124628030Y-86753415D01*
X124634445Y-86847458D01*
X124642954Y-86954404D01*
X124658186Y-87011142D01*
X124686139Y-87032673D01*
X124709435Y-87034942D01*
X124747073Y-87026515D01*
X124768649Y-86991232D01*
X124780161Y-86914093D01*
X124784426Y-86847458D01*
X124792157Y-86741683D01*
X124806147Y-86685554D01*
X124833835Y-86663518D01*
X124874092Y-86659974D01*
X124917230Y-86663954D01*
X124941159Y-86685759D01*
X124951518Y-86740189D01*
X124953948Y-86842042D01*
X124953979Y-86869584D01*
X125188315Y-86869584D01*
X125160055Y-86817704D01*
X125086852Y-86790606D01*
X125077882Y-86790398D01*
X125028389Y-86764513D01*
X125019191Y-86725186D01*
X125043055Y-86673666D01*
X125099244Y-86660352D01*
X125164660Y-86689096D01*
X125175700Y-86699102D01*
X125208008Y-86721786D01*
X125214827Y-86699102D01*
X125242686Y-86669707D01*
X125296341Y-86659974D01*
X125336769Y-86662754D01*
X125360977Y-86679963D01*
X125373122Y-86724907D01*
X125377362Y-86810891D01*
X125377856Y-86920822D01*
X125508280Y-86920822D01*
X125508280Y-86757792D01*
X125655006Y-86757792D01*
X125746699Y-86762059D01*
X125790058Y-86779776D01*
X125801677Y-86818319D01*
X125801733Y-86823004D01*
X125778677Y-86877498D01*
X125736521Y-86888216D01*
X125685385Y-86907321D01*
X125671309Y-86969731D01*
X125685380Y-87032394D01*
X125737984Y-87051129D01*
X125745569Y-87051245D01*
X125860460Y-87024236D01*
X125935781Y-86948020D01*
X125964657Y-86829814D01*
X125964762Y-86821155D01*
X125942813Y-86689083D01*
X125876588Y-86604811D01*
X125765520Y-86567829D01*
X125683328Y-86567601D01*
X125594165Y-86571517D01*
X125553745Y-86560153D01*
X125546216Y-86527193D01*
X125547794Y-86513582D01*
X125561497Y-86476061D01*
X125599465Y-86456397D01*
X125677716Y-86449283D01*
X125743323Y-86448794D01*
X125859581Y-86454319D01*
X125937438Y-86475520D01*
X126003329Y-86521091D01*
X126025596Y-86541659D01*
X126117434Y-86669187D01*
X126147187Y-86811882D01*
X126649486Y-86811882D01*
X126649486Y-86399127D01*
X121334724Y-86399127D01*
X121334724Y-87181669D01*
X121171694Y-87181669D01*
X121171694Y-86920822D01*
X121041271Y-86920822D01*
X121040402Y-87050191D01*
X121035024Y-87127655D01*
X121020979Y-87166518D01*
X120994110Y-87180086D01*
X120959756Y-87181669D01*
X120919328Y-87178889D01*
X120895121Y-87161680D01*
X120882976Y-87116736D01*
X120878736Y-87030753D01*
X120878544Y-86987900D01*
X120773334Y-86987900D01*
X120740784Y-87057292D01*
X120702328Y-87099700D01*
X120618941Y-87155433D01*
X120524275Y-87179939D01*
X120437532Y-87173215D01*
X120377914Y-87135257D01*
X120363448Y-87099764D01*
X120368462Y-87053696D01*
X120412791Y-87036165D01*
X120457230Y-87034552D01*
X120476024Y-87030750D01*
X120291335Y-87030750D01*
X120266166Y-87121178D01*
X120202234Y-87172083D01*
X120116903Y-87177149D01*
X120027536Y-87130055D01*
X120024904Y-87127707D01*
X119980680Y-87091902D01*
X119966404Y-87101694D01*
X119965276Y-87127707D01*
X119938232Y-87172864D01*
X119900064Y-87181669D01*
X119864043Y-87174724D01*
X119844359Y-87144066D01*
X119836236Y-87074957D01*
X119834962Y-86987900D01*
X119729945Y-86987900D01*
X119697395Y-87057292D01*
X119658939Y-87099700D01*
X119575552Y-87155433D01*
X119480886Y-87179939D01*
X119394143Y-87173215D01*
X119334525Y-87135257D01*
X119320059Y-87099764D01*
X119325073Y-87053696D01*
X119369402Y-87036165D01*
X119413842Y-87034552D01*
X119507508Y-87015604D01*
X119553501Y-86977882D01*
X119567526Y-86920822D01*
X119215340Y-86920822D01*
X119214472Y-87050191D01*
X119209094Y-87127655D01*
X119195049Y-87166518D01*
X119168179Y-87180086D01*
X119133825Y-87181669D01*
X119093397Y-87178889D01*
X119069190Y-87161680D01*
X119057045Y-87116736D01*
X119052805Y-87030753D01*
X119052412Y-86943293D01*
X118942107Y-86943293D01*
X118911180Y-87057991D01*
X118844798Y-87135753D01*
X118756294Y-87167711D01*
X118639660Y-87171738D01*
X118524511Y-87150192D01*
X118440465Y-87105435D01*
X118438330Y-87103357D01*
X118393344Y-87017907D01*
X118385114Y-86920822D01*
X118269769Y-86920822D01*
X118268859Y-87050208D01*
X118263414Y-87127684D01*
X118249361Y-87166551D01*
X118222626Y-87180108D01*
X118189881Y-87181669D01*
X118144539Y-87176471D01*
X118119268Y-87150509D01*
X118106630Y-87088229D01*
X118100215Y-86994185D01*
X118091706Y-86887239D01*
X118076474Y-86830501D01*
X118048520Y-86808970D01*
X118025225Y-86806701D01*
X117987586Y-86815129D01*
X117966011Y-86850412D01*
X117954499Y-86927550D01*
X117950234Y-86994185D01*
X117942559Y-87099906D01*
X117928645Y-87156005D01*
X117900926Y-87178058D01*
X117859139Y-87181669D01*
X117817140Y-87178778D01*
X117793594Y-87160733D01*
X117784173Y-87113480D01*
X117784549Y-87022962D01*
X117787403Y-86948692D01*
X117787498Y-86947628D01*
X117680017Y-86947628D01*
X117645411Y-87045848D01*
X117573690Y-87125168D01*
X117473619Y-87174207D01*
X117353960Y-87181585D01*
X117277956Y-87161878D01*
X117232890Y-87116160D01*
X117230047Y-87103382D01*
X117133620Y-87103382D01*
X117113430Y-87152934D01*
X117106825Y-87159932D01*
X117054654Y-87177536D01*
X116967373Y-87180661D01*
X116873195Y-87170414D01*
X116800360Y-87147916D01*
X116748302Y-87085787D01*
X116737291Y-87023531D01*
X116751454Y-86954166D01*
X116758324Y-86947628D01*
X116375781Y-86947628D01*
X116341175Y-87045848D01*
X116269454Y-87125168D01*
X116169382Y-87174207D01*
X116049724Y-87181585D01*
X115973719Y-87161878D01*
X115928654Y-87116160D01*
X115922144Y-87086910D01*
X115936655Y-87049751D01*
X115990768Y-87040963D01*
X116029926Y-87044317D01*
X116134609Y-87036498D01*
X116180645Y-87005164D01*
X116198794Y-86974935D01*
X116180616Y-86959439D01*
X116114714Y-86953926D01*
X116056560Y-86953428D01*
X115958544Y-86951378D01*
X115909115Y-86938864D01*
X115899431Y-86920822D01*
X115791720Y-86920822D01*
X115790810Y-87050208D01*
X115785365Y-87127684D01*
X115771312Y-87166551D01*
X115744577Y-87180108D01*
X115711833Y-87181669D01*
X115666490Y-87176471D01*
X115641219Y-87150509D01*
X115628581Y-87088229D01*
X115622166Y-86994185D01*
X115613657Y-86887239D01*
X115598425Y-86830501D01*
X115570472Y-86808970D01*
X115547176Y-86806701D01*
X115509538Y-86815129D01*
X115487962Y-86850412D01*
X115476450Y-86927550D01*
X115472185Y-86994185D01*
X115464510Y-87099906D01*
X115450597Y-87156005D01*
X115422877Y-87178058D01*
X115381091Y-87181669D01*
X115339092Y-87178778D01*
X115315546Y-87160733D01*
X115306125Y-87113480D01*
X115306501Y-87022962D01*
X115309355Y-86948692D01*
X115322830Y-86797970D01*
X115351964Y-86705034D01*
X115402247Y-86663258D01*
X115479168Y-86666013D01*
X115530043Y-86682287D01*
X115596758Y-86699579D01*
X115628308Y-86692229D01*
X115628691Y-86689748D01*
X115656611Y-86667361D01*
X115710205Y-86659974D01*
X115750633Y-86662754D01*
X115774841Y-86679963D01*
X115786986Y-86724907D01*
X115791226Y-86810891D01*
X115791720Y-86920822D01*
X115899431Y-86920822D01*
X115891655Y-86906336D01*
X115889538Y-86857459D01*
X115916576Y-86759953D01*
X115986573Y-86693622D01*
X116082852Y-86663256D01*
X116188740Y-86673641D01*
X116287559Y-86729566D01*
X116298594Y-86740007D01*
X116364508Y-86841887D01*
X116375781Y-86947628D01*
X116758324Y-86947628D01*
X116804828Y-86903378D01*
X116853150Y-86877651D01*
X116925509Y-86829442D01*
X116945317Y-86787289D01*
X116913189Y-86763499D01*
X116847590Y-86766503D01*
X116787747Y-86765924D01*
X116769963Y-86725298D01*
X116769897Y-86720665D01*
X116796785Y-86677436D01*
X116864062Y-86659227D01*
X116951651Y-86666640D01*
X117039474Y-86700275D01*
X117057951Y-86712032D01*
X117117053Y-86780874D01*
X117114437Y-86855142D01*
X117052229Y-86926970D01*
X116989783Y-86964362D01*
X116910107Y-87015877D01*
X116891781Y-87056359D01*
X116932618Y-87077539D01*
X117018587Y-87073192D01*
X117099135Y-87073979D01*
X117133620Y-87103382D01*
X117230047Y-87103382D01*
X117226380Y-87086910D01*
X117240892Y-87049751D01*
X117295004Y-87040963D01*
X117334162Y-87044317D01*
X117438845Y-87036498D01*
X117484881Y-87005164D01*
X117503031Y-86974935D01*
X117484852Y-86959439D01*
X117418950Y-86953926D01*
X117360796Y-86953428D01*
X117262780Y-86951378D01*
X117213351Y-86938864D01*
X117195892Y-86906336D01*
X117193774Y-86857459D01*
X117220812Y-86759953D01*
X117290809Y-86693622D01*
X117387089Y-86663256D01*
X117492976Y-86673641D01*
X117591795Y-86729566D01*
X117602830Y-86740007D01*
X117668744Y-86841887D01*
X117680017Y-86947628D01*
X117787498Y-86947628D01*
X117800879Y-86797970D01*
X117830013Y-86705034D01*
X117880296Y-86663258D01*
X117957217Y-86666013D01*
X118008092Y-86682287D01*
X118074807Y-86699579D01*
X118106356Y-86692229D01*
X118106739Y-86689748D01*
X118134660Y-86667361D01*
X118188254Y-86659974D01*
X118228682Y-86662754D01*
X118252890Y-86679963D01*
X118265034Y-86724907D01*
X118269274Y-86810891D01*
X118269769Y-86920822D01*
X118385114Y-86920822D01*
X118383925Y-86906801D01*
X118408375Y-86797897D01*
X118461606Y-86721705D01*
X118570991Y-86669235D01*
X118693676Y-86664202D01*
X118809239Y-86702146D01*
X118897261Y-86778602D01*
X118921563Y-86822221D01*
X118942107Y-86943293D01*
X119052412Y-86943293D01*
X119052311Y-86920822D01*
X119053179Y-86791452D01*
X119058557Y-86713988D01*
X119072602Y-86675125D01*
X119099472Y-86661557D01*
X119133825Y-86659974D01*
X119174253Y-86662754D01*
X119198461Y-86679963D01*
X119210606Y-86724907D01*
X119214846Y-86810891D01*
X119215340Y-86920822D01*
X119567526Y-86920822D01*
X119571713Y-86903789D01*
X119535228Y-86843586D01*
X119454554Y-86810122D01*
X119413842Y-86807091D01*
X119342371Y-86799975D01*
X119318788Y-86770284D01*
X119320059Y-86741879D01*
X119337102Y-86700052D01*
X119384138Y-86681747D01*
X119469817Y-86679223D01*
X119596260Y-86698462D01*
X119675586Y-86756163D01*
X119719189Y-86861987D01*
X119725703Y-86896230D01*
X119729945Y-86987900D01*
X119834962Y-86987900D01*
X119834852Y-86980449D01*
X119843160Y-86837951D01*
X119869659Y-86747282D01*
X119888815Y-86719602D01*
X119957999Y-86677113D01*
X120049957Y-86660844D01*
X120144209Y-86668629D01*
X120220278Y-86698297D01*
X120257682Y-86747683D01*
X120258729Y-86758763D01*
X120250483Y-86796705D01*
X120213640Y-86798405D01*
X120165720Y-86782232D01*
X120084530Y-86764642D01*
X120015682Y-86770274D01*
X119978120Y-86794962D01*
X119981437Y-86822774D01*
X120025742Y-86846664D01*
X120095295Y-86855610D01*
X120200695Y-86881353D01*
X120270688Y-86949802D01*
X120291335Y-87030750D01*
X120476024Y-87030750D01*
X120550897Y-87015604D01*
X120596889Y-86977882D01*
X120615102Y-86903789D01*
X120578617Y-86843586D01*
X120497943Y-86810122D01*
X120457230Y-86807091D01*
X120385760Y-86799975D01*
X120362177Y-86770284D01*
X120363448Y-86741879D01*
X120380491Y-86700052D01*
X120427527Y-86681747D01*
X120513206Y-86679223D01*
X120639649Y-86698462D01*
X120718975Y-86756163D01*
X120762578Y-86861987D01*
X120769092Y-86896230D01*
X120773334Y-86987900D01*
X120878544Y-86987900D01*
X120878241Y-86920822D01*
X120879110Y-86791452D01*
X120884488Y-86713988D01*
X120898533Y-86675125D01*
X120925403Y-86661557D01*
X120959756Y-86659974D01*
X121000184Y-86662754D01*
X121024392Y-86679963D01*
X121036536Y-86724907D01*
X121040776Y-86810891D01*
X121041271Y-86920822D01*
X121171694Y-86920822D01*
X121171694Y-86480707D01*
X121036111Y-86480707D01*
X121014072Y-86534213D01*
X120962816Y-86557231D01*
X120952078Y-86556041D01*
X120897661Y-86518441D01*
X120884357Y-86488320D01*
X120886425Y-86480707D01*
X119210180Y-86480707D01*
X119188141Y-86534213D01*
X119136886Y-86557231D01*
X119126147Y-86556041D01*
X119071730Y-86518441D01*
X119058427Y-86488320D01*
X119073343Y-86433431D01*
X119123641Y-86405398D01*
X119180820Y-86417968D01*
X119189255Y-86425212D01*
X119210180Y-86480707D01*
X120886425Y-86480707D01*
X120899274Y-86433431D01*
X120949571Y-86405398D01*
X121006751Y-86417968D01*
X121015186Y-86425212D01*
X121036111Y-86480707D01*
X121171694Y-86480707D01*
X121171694Y-86399127D01*
X121334724Y-86399127D01*
X126649486Y-86399127D01*
X126649486Y-75867420D01*
X126388639Y-75867420D01*
X126388639Y-86170886D01*
X114911361Y-86170886D01*
X114911361Y-75867420D01*
X126388639Y-75867420D01*
X126649486Y-75867420D01*
X126649486Y-75482444D01*
X119997882Y-75482444D01*
X119690439Y-75471145D01*
X119533349Y-75462637D01*
X119425226Y-75448704D01*
X119349862Y-75426121D01*
X119291050Y-75391661D01*
X119291016Y-75391636D01*
X119209817Y-75317303D01*
X119131734Y-75224815D01*
X119122892Y-75212304D01*
X119082170Y-75143321D01*
X119060853Y-75072713D01*
X119054765Y-74978120D01*
X119057711Y-74883214D01*
X118915138Y-74883214D01*
X118905271Y-75082653D01*
X118844988Y-75243549D01*
X118735541Y-75363392D01*
X118650975Y-75412672D01*
X118468781Y-75467637D01*
X118294071Y-75460029D01*
X118139992Y-75402786D01*
X118006761Y-75301308D01*
X117916624Y-75163877D01*
X117870378Y-75004176D01*
X117868819Y-74835883D01*
X117912743Y-74672681D01*
X118002947Y-74528249D01*
X118084676Y-74452471D01*
X118194203Y-74403142D01*
X118337026Y-74380925D01*
X118487516Y-74385881D01*
X118620046Y-74418070D01*
X118681089Y-74451078D01*
X118807082Y-74568115D01*
X118880960Y-74700465D01*
X118914022Y-74868993D01*
X118915138Y-74883214D01*
X119057711Y-74883214D01*
X119058235Y-74866350D01*
X119067592Y-74737204D01*
X119084745Y-74651873D01*
X119116530Y-74588969D01*
X119165133Y-74531933D01*
X119257297Y-74455968D01*
X119370092Y-74405896D01*
X119517237Y-74377834D01*
X119712454Y-74367897D01*
X119745186Y-74367730D01*
X119997882Y-74367548D01*
X119997882Y-75482444D01*
X126649486Y-75482444D01*
X126649486Y-74367548D01*
X123160655Y-74367548D01*
X123160655Y-75476149D01*
X122899807Y-75476149D01*
X122899807Y-75052272D01*
X122443325Y-75052272D01*
X122443325Y-75476149D01*
X122215083Y-75476149D01*
X122073676Y-75476149D01*
X121935032Y-75476149D01*
X121846390Y-75471767D01*
X121801597Y-75449983D01*
X121779438Y-75397837D01*
X121774904Y-75378331D01*
X121760924Y-75326785D01*
X121736919Y-75297538D01*
X121687092Y-75284272D01*
X121595644Y-75280667D01*
X121530359Y-75280514D01*
X121412559Y-75281679D01*
X121344172Y-75289389D01*
X121309402Y-75309962D01*
X121292451Y-75349717D01*
X121285815Y-75378331D01*
X121266462Y-75439515D01*
X121230411Y-75467890D01*
X121156825Y-75475873D01*
X121121656Y-75476149D01*
X120978981Y-75476149D01*
X121054835Y-75272362D01*
X121098324Y-75153587D01*
X121154663Y-74996996D01*
X121215329Y-74826383D01*
X121253454Y-74718062D01*
X121376220Y-74367548D01*
X120845635Y-74367548D01*
X120845635Y-75476149D01*
X120160911Y-75476149D01*
X120160911Y-75280514D01*
X120584788Y-75280514D01*
X120584788Y-75019666D01*
X120405456Y-75019666D01*
X120302934Y-75018024D01*
X120249572Y-75007259D01*
X120229319Y-74978618D01*
X120226123Y-74923344D01*
X120226123Y-74921849D01*
X120229135Y-74865928D01*
X120248869Y-74836821D01*
X120301378Y-74825774D01*
X120402713Y-74824031D01*
X120584788Y-74824031D01*
X120584788Y-74563184D01*
X120193517Y-74563184D01*
X120193517Y-74367548D01*
X120845635Y-74367548D01*
X121376220Y-74367548D01*
X121677086Y-74368382D01*
X121875381Y-74922265D01*
X122073676Y-75476149D01*
X122215083Y-75476149D01*
X122215083Y-74367548D01*
X122443325Y-74367548D01*
X122443325Y-74824031D01*
X122899807Y-74824031D01*
X122899807Y-74367548D01*
X123160655Y-74367548D01*
X126649486Y-74367548D01*
X126649486Y-73943672D01*
X114650513Y-73943672D01*
X114650513Y-88648935D01*
X114650513Y-88648935D01*
G37*
X114650513Y-88648935D02*
X126649486Y-88648935D01*
X126649486Y-87850090D01*
X125638703Y-87850090D01*
X125623425Y-87944096D01*
X125568651Y-88005030D01*
X125557189Y-88012368D01*
X125464148Y-88069087D01*
X125391977Y-88113119D01*
X125336930Y-88154945D01*
X125333818Y-88191253D01*
X125349646Y-88214052D01*
X125404471Y-88246966D01*
X125496944Y-88246733D01*
X125514858Y-88244091D01*
X125595856Y-88235529D01*
X125631251Y-88249009D01*
X125638703Y-88287167D01*
X125625274Y-88341067D01*
X125576516Y-88371297D01*
X125479730Y-88384121D01*
X125439314Y-88385513D01*
X125308257Y-88361560D01*
X125235527Y-88320509D01*
X125162489Y-88232848D01*
X125150928Y-88139678D01*
X125157456Y-88127240D01*
X125051797Y-88127240D01*
X125050929Y-88256610D01*
X125045551Y-88334074D01*
X125031506Y-88372937D01*
X125004636Y-88386505D01*
X124970282Y-88388087D01*
X124929854Y-88385308D01*
X124905647Y-88368099D01*
X124893502Y-88323155D01*
X124892844Y-88309800D01*
X124796008Y-88309800D01*
X124775818Y-88359353D01*
X124769213Y-88366350D01*
X124717041Y-88383954D01*
X124629761Y-88387080D01*
X124535583Y-88376833D01*
X124462747Y-88354334D01*
X124410690Y-88292205D01*
X124399679Y-88229950D01*
X124413842Y-88160585D01*
X124467216Y-88109796D01*
X124515538Y-88084069D01*
X124587897Y-88035861D01*
X124607704Y-87993707D01*
X124575576Y-87969917D01*
X124509978Y-87972922D01*
X124450135Y-87972343D01*
X124432350Y-87931716D01*
X124432349Y-87931605D01*
X124334467Y-87931605D01*
X124320813Y-87984588D01*
X124301861Y-87996817D01*
X124282285Y-88025931D01*
X124270653Y-88099470D01*
X124269255Y-88141214D01*
X124250886Y-88273609D01*
X124194177Y-88354582D01*
X124096730Y-88387126D01*
X124071291Y-88388087D01*
X123999966Y-88376662D01*
X123976175Y-88336116D01*
X123975802Y-88326678D01*
X124003342Y-88269303D01*
X124041014Y-88248216D01*
X124087362Y-88218598D01*
X124104260Y-88154046D01*
X123940351Y-88154046D01*
X123905745Y-88252267D01*
X123834024Y-88331587D01*
X123733952Y-88380626D01*
X123614294Y-88388003D01*
X123538289Y-88368296D01*
X123493224Y-88322578D01*
X123486714Y-88293329D01*
X123501225Y-88256170D01*
X123555338Y-88247381D01*
X123594496Y-88250735D01*
X123699179Y-88242917D01*
X123745215Y-88211582D01*
X123763364Y-88181353D01*
X123745186Y-88165858D01*
X123679284Y-88160345D01*
X123621130Y-88159846D01*
X123523114Y-88157797D01*
X123473685Y-88145282D01*
X123464001Y-88127240D01*
X123356290Y-88127240D01*
X123355380Y-88256626D01*
X123349935Y-88334102D01*
X123335882Y-88372969D01*
X123309147Y-88386526D01*
X123276402Y-88388087D01*
X123231060Y-88382890D01*
X123205789Y-88356928D01*
X123193151Y-88294647D01*
X123186736Y-88200603D01*
X123178227Y-88093658D01*
X123162995Y-88036919D01*
X123135042Y-88015389D01*
X123111746Y-88013120D01*
X123074108Y-88021547D01*
X123052532Y-88056830D01*
X123041020Y-88133969D01*
X123036755Y-88200603D01*
X123028957Y-88306449D01*
X123014872Y-88362616D01*
X122987212Y-88384630D01*
X122948716Y-88388087D01*
X122904249Y-88382630D01*
X122879410Y-88355907D01*
X122866908Y-88292393D01*
X122860677Y-88200603D01*
X122852168Y-88093658D01*
X122836936Y-88036919D01*
X122808982Y-88015389D01*
X122785687Y-88013120D01*
X122748049Y-88021547D01*
X122726473Y-88056830D01*
X122714961Y-88133969D01*
X122710696Y-88200603D01*
X122702965Y-88306379D01*
X122688975Y-88362508D01*
X122661287Y-88384544D01*
X122621030Y-88388087D01*
X122577892Y-88384108D01*
X122553963Y-88362303D01*
X122543604Y-88307873D01*
X122541917Y-88237169D01*
X122443325Y-88237169D01*
X122418156Y-88327596D01*
X122354224Y-88378502D01*
X122268893Y-88383567D01*
X122179526Y-88336473D01*
X122176893Y-88334125D01*
X122132670Y-88298321D01*
X122118394Y-88308113D01*
X122117266Y-88334125D01*
X122090222Y-88379283D01*
X122052054Y-88388087D01*
X122016033Y-88381143D01*
X121996349Y-88350484D01*
X121991568Y-88309800D01*
X121894082Y-88309800D01*
X121873892Y-88359353D01*
X121867287Y-88366350D01*
X121815116Y-88383954D01*
X121727835Y-88387080D01*
X121633657Y-88376833D01*
X121560822Y-88354334D01*
X121508765Y-88292205D01*
X121497754Y-88229950D01*
X121511916Y-88160585D01*
X121565290Y-88109796D01*
X121613612Y-88084069D01*
X121685971Y-88035861D01*
X121705779Y-87993707D01*
X121673651Y-87969917D01*
X121608052Y-87972922D01*
X121548209Y-87972343D01*
X121530425Y-87931716D01*
X121530359Y-87927083D01*
X121557247Y-87883855D01*
X121624524Y-87865646D01*
X121712113Y-87873058D01*
X121799936Y-87906693D01*
X121818413Y-87918450D01*
X121877515Y-87987292D01*
X121874900Y-88061561D01*
X121812691Y-88133388D01*
X121750245Y-88170781D01*
X121670569Y-88222296D01*
X121652243Y-88262777D01*
X121693080Y-88283957D01*
X121779049Y-88279610D01*
X121859597Y-88280397D01*
X121894082Y-88309800D01*
X121991568Y-88309800D01*
X121988226Y-88281375D01*
X121986842Y-88186868D01*
X121995150Y-88044370D01*
X122021649Y-87953701D01*
X122040804Y-87926021D01*
X122109989Y-87883532D01*
X122201946Y-87867263D01*
X122296199Y-87875047D01*
X122372267Y-87904716D01*
X122409672Y-87954101D01*
X122410719Y-87965181D01*
X122402473Y-88003124D01*
X122365630Y-88004824D01*
X122317709Y-87988651D01*
X122236520Y-87971060D01*
X122167672Y-87976693D01*
X122130110Y-88001380D01*
X122133426Y-88029192D01*
X122177732Y-88053083D01*
X122247285Y-88062028D01*
X122352685Y-88087771D01*
X122422678Y-88156220D01*
X122443325Y-88237169D01*
X122541917Y-88237169D01*
X122541173Y-88206019D01*
X122541142Y-88178478D01*
X122548492Y-88035954D01*
X122571831Y-87947248D01*
X122592380Y-87917631D01*
X122672370Y-87874057D01*
X122762986Y-87873075D01*
X122833841Y-87914393D01*
X122871645Y-87945814D01*
X122910645Y-87925106D01*
X122921677Y-87914393D01*
X123002578Y-87869942D01*
X123100481Y-87885866D01*
X123130192Y-87900146D01*
X123182101Y-87917245D01*
X123193261Y-87900146D01*
X123221157Y-87874776D01*
X123274775Y-87866393D01*
X123315203Y-87869173D01*
X123339411Y-87886382D01*
X123351556Y-87931326D01*
X123355795Y-88017309D01*
X123356290Y-88127240D01*
X123464001Y-88127240D01*
X123456225Y-88112754D01*
X123454108Y-88063877D01*
X123481146Y-87966371D01*
X123551143Y-87900041D01*
X123647422Y-87869674D01*
X123753310Y-87880059D01*
X123852129Y-87935985D01*
X123863164Y-87946426D01*
X123929078Y-88048306D01*
X123940351Y-88154046D01*
X124104260Y-88154046D01*
X124105116Y-88150776D01*
X124106226Y-88113990D01*
X124099339Y-88034060D01*
X124072256Y-88001173D01*
X124041014Y-87996817D01*
X123986520Y-87973761D01*
X123975802Y-87931605D01*
X123998858Y-87877110D01*
X124041014Y-87866393D01*
X124091376Y-87848187D01*
X124106216Y-87784092D01*
X124106226Y-87781390D01*
X124115920Y-87721250D01*
X124150540Y-87713663D01*
X124157802Y-87716178D01*
X124219921Y-87733772D01*
X124239316Y-87735969D01*
X124263649Y-87763302D01*
X124269255Y-87801181D01*
X124282910Y-87854165D01*
X124301861Y-87866393D01*
X124328353Y-87893702D01*
X124334467Y-87931605D01*
X124432349Y-87931605D01*
X124432285Y-87927083D01*
X124459173Y-87883855D01*
X124526450Y-87865646D01*
X124614039Y-87873058D01*
X124701862Y-87906693D01*
X124720338Y-87918450D01*
X124779441Y-87987292D01*
X124776825Y-88061561D01*
X124714617Y-88133388D01*
X124652170Y-88170781D01*
X124572494Y-88222296D01*
X124554169Y-88262777D01*
X124595005Y-88283957D01*
X124680974Y-88279610D01*
X124761523Y-88280397D01*
X124796008Y-88309800D01*
X124892844Y-88309800D01*
X124889262Y-88237171D01*
X124888768Y-88127240D01*
X124889636Y-87997871D01*
X124895014Y-87920407D01*
X124909059Y-87881544D01*
X124935929Y-87867976D01*
X124970282Y-87866393D01*
X125010710Y-87869173D01*
X125034918Y-87886382D01*
X125047063Y-87931326D01*
X125051303Y-88017309D01*
X125051797Y-88127240D01*
X125157456Y-88127240D01*
X125198524Y-88049002D01*
X125302957Y-87968823D01*
X125343269Y-87948801D01*
X125435525Y-87889526D01*
X125469345Y-87831478D01*
X125450483Y-87787398D01*
X125384691Y-87770025D01*
X125277720Y-87792100D01*
X125273266Y-87793757D01*
X125208000Y-87814396D01*
X125185630Y-87799453D01*
X125188408Y-87742030D01*
X125202093Y-87687125D01*
X125046637Y-87687125D01*
X125024598Y-87740631D01*
X124973343Y-87763649D01*
X124962604Y-87762459D01*
X124908187Y-87724859D01*
X124894884Y-87694739D01*
X124909800Y-87639850D01*
X124912846Y-87638152D01*
X121073877Y-87638152D01*
X121073877Y-88388087D01*
X120861938Y-88388087D01*
X120747241Y-88386055D01*
X120683294Y-88377002D01*
X120655689Y-88356494D01*
X120650000Y-88322876D01*
X120660937Y-88280212D01*
X120705143Y-88261356D01*
X120780424Y-88257664D01*
X120864052Y-88253801D01*
X120901229Y-88232869D01*
X120910641Y-88180850D01*
X120910847Y-88159846D01*
X120907691Y-88127240D01*
X120552182Y-88127240D01*
X120551272Y-88256626D01*
X120545828Y-88334102D01*
X120531774Y-88372969D01*
X120505039Y-88386526D01*
X120472295Y-88388087D01*
X120426952Y-88382890D01*
X120401682Y-88356928D01*
X120389043Y-88294647D01*
X120382628Y-88200603D01*
X120374119Y-88093658D01*
X120358887Y-88036919D01*
X120330934Y-88015389D01*
X120307638Y-88013120D01*
X120270000Y-88021547D01*
X120248425Y-88056830D01*
X120236912Y-88133969D01*
X120232648Y-88200603D01*
X120224849Y-88306449D01*
X120210764Y-88362616D01*
X120183104Y-88384630D01*
X120144608Y-88388087D01*
X120100141Y-88382630D01*
X120075302Y-88355907D01*
X120062800Y-88292393D01*
X120056569Y-88200603D01*
X120048060Y-88093658D01*
X120032828Y-88036919D01*
X120004875Y-88015389D01*
X119981579Y-88013120D01*
X119943941Y-88021547D01*
X119922366Y-88056830D01*
X119910853Y-88133969D01*
X119906588Y-88200603D01*
X119898857Y-88306379D01*
X119884867Y-88362508D01*
X119857179Y-88384544D01*
X119816922Y-88388087D01*
X119773784Y-88384108D01*
X119749856Y-88362303D01*
X119739496Y-88307873D01*
X119737066Y-88206019D01*
X119737035Y-88178478D01*
X119744384Y-88035954D01*
X119767723Y-87947248D01*
X119788272Y-87917631D01*
X119868262Y-87874057D01*
X119958878Y-87873075D01*
X120029733Y-87914393D01*
X120067538Y-87945814D01*
X120106537Y-87925106D01*
X120117570Y-87914393D01*
X120198470Y-87869942D01*
X120296373Y-87885866D01*
X120326084Y-87900146D01*
X120377993Y-87917245D01*
X120389153Y-87900146D01*
X120417049Y-87874776D01*
X120470668Y-87866393D01*
X120511095Y-87869173D01*
X120535303Y-87886382D01*
X120547448Y-87931326D01*
X120551688Y-88017309D01*
X120552182Y-88127240D01*
X120907691Y-88127240D01*
X120904485Y-88094126D01*
X120872217Y-88067171D01*
X120796727Y-88062028D01*
X120718072Y-88054734D01*
X120686336Y-88026256D01*
X120682606Y-87996817D01*
X120695372Y-87951871D01*
X120745208Y-87933736D01*
X120796727Y-87931605D01*
X120873902Y-87925515D01*
X120905496Y-87898108D01*
X120910847Y-87850090D01*
X120903728Y-87797571D01*
X120870151Y-87774229D01*
X120791782Y-87768604D01*
X120780424Y-87768575D01*
X120695096Y-87763107D01*
X120657384Y-87741004D01*
X120650000Y-87703363D01*
X120656605Y-87668072D01*
X120686028Y-87648396D01*
X120752678Y-87639902D01*
X120861938Y-87638152D01*
X121073877Y-87638152D01*
X124912846Y-87638152D01*
X124960098Y-87611816D01*
X125017277Y-87624387D01*
X125025712Y-87631630D01*
X125046637Y-87687125D01*
X125202093Y-87687125D01*
X125202305Y-87686275D01*
X125239723Y-87658331D01*
X125319819Y-87645829D01*
X125339762Y-87644298D01*
X125486040Y-87653525D01*
X125584610Y-87704660D01*
X125633468Y-87796324D01*
X125638703Y-87850090D01*
X126649486Y-87850090D01*
X126649486Y-87605546D01*
X119606611Y-87605546D01*
X119606611Y-88388087D01*
X119525096Y-88388087D01*
X119463858Y-88374715D01*
X119443581Y-88348960D01*
X119433957Y-88326276D01*
X119404454Y-88348960D01*
X119326388Y-88385017D01*
X119228296Y-88372612D01*
X119145589Y-88325756D01*
X119090948Y-88247406D01*
X119068717Y-88154046D01*
X118984253Y-88154046D01*
X118949647Y-88252267D01*
X118877926Y-88331587D01*
X118777855Y-88380626D01*
X118658196Y-88388003D01*
X118582192Y-88368296D01*
X118537126Y-88322578D01*
X118530616Y-88293329D01*
X118545128Y-88256170D01*
X118599240Y-88247381D01*
X118638398Y-88250735D01*
X118743082Y-88242917D01*
X118789117Y-88211582D01*
X118807267Y-88181353D01*
X118789088Y-88165858D01*
X118723186Y-88160345D01*
X118665032Y-88159846D01*
X118567016Y-88157797D01*
X118517587Y-88145282D01*
X118500128Y-88112754D01*
X118498010Y-88063877D01*
X118525048Y-87966371D01*
X118595045Y-87900041D01*
X118691325Y-87869674D01*
X118797212Y-87880059D01*
X118896031Y-87935985D01*
X118907066Y-87946426D01*
X118972981Y-88048306D01*
X118984253Y-88154046D01*
X119068717Y-88154046D01*
X119065494Y-88140513D01*
X119070045Y-88029784D01*
X119105420Y-87939930D01*
X119131906Y-87912673D01*
X119232892Y-87870850D01*
X119334305Y-87880566D01*
X119392344Y-87917631D01*
X119421334Y-87940618D01*
X119436717Y-87928019D01*
X119442711Y-87869097D01*
X119443581Y-87787207D01*
X119445635Y-87683669D01*
X119456539Y-87629459D01*
X119483412Y-87608714D01*
X119525096Y-87605546D01*
X118400193Y-87605546D01*
X118400193Y-88388087D01*
X118318678Y-88388087D01*
X118257440Y-88374715D01*
X118237163Y-88348960D01*
X118227539Y-88326276D01*
X118198036Y-88348960D01*
X118119969Y-88385017D01*
X118021878Y-88372612D01*
X117939171Y-88325756D01*
X117884529Y-88247406D01*
X117859075Y-88140513D01*
X117859620Y-88127240D01*
X117748074Y-88127240D01*
X117747206Y-88256610D01*
X117741828Y-88334074D01*
X117727783Y-88372937D01*
X117700913Y-88386505D01*
X117666560Y-88388087D01*
X117626132Y-88385308D01*
X117601924Y-88368099D01*
X117589779Y-88323155D01*
X117585540Y-88237171D01*
X117585045Y-88127240D01*
X117585263Y-88094644D01*
X117474861Y-88094644D01*
X117469251Y-88216690D01*
X117418633Y-88311841D01*
X117335681Y-88369678D01*
X117233067Y-88379780D01*
X117159025Y-88354334D01*
X117107116Y-88337236D01*
X117095956Y-88354334D01*
X117068060Y-88379705D01*
X117014442Y-88388087D01*
X116932927Y-88388087D01*
X116932927Y-88149712D01*
X116822723Y-88149712D01*
X116791796Y-88264409D01*
X116725414Y-88342171D01*
X116636910Y-88374130D01*
X116520276Y-88378156D01*
X116405127Y-88356610D01*
X116321081Y-88311853D01*
X116318972Y-88309800D01*
X116188049Y-88309800D01*
X116167859Y-88359353D01*
X116161254Y-88366350D01*
X116109083Y-88383954D01*
X116021802Y-88387080D01*
X115927624Y-88376833D01*
X115854788Y-88354334D01*
X115802731Y-88292205D01*
X115791720Y-88229950D01*
X115805883Y-88160585D01*
X115859257Y-88109796D01*
X115907579Y-88084069D01*
X115979938Y-88035861D01*
X115999746Y-87993707D01*
X115967617Y-87969917D01*
X115902019Y-87972922D01*
X115842176Y-87972343D01*
X115824391Y-87931716D01*
X115824326Y-87927083D01*
X115851214Y-87883855D01*
X115918491Y-87865646D01*
X116006080Y-87873058D01*
X116093903Y-87906693D01*
X116112379Y-87918450D01*
X116171482Y-87987292D01*
X116168866Y-88061561D01*
X116106658Y-88133388D01*
X116044212Y-88170781D01*
X115964535Y-88222296D01*
X115946210Y-88262777D01*
X115987046Y-88283957D01*
X116073016Y-88279610D01*
X116153564Y-88280397D01*
X116188049Y-88309800D01*
X116318972Y-88309800D01*
X116318947Y-88309776D01*
X116273960Y-88224325D01*
X116264541Y-88113219D01*
X116288991Y-88004316D01*
X116342222Y-87928124D01*
X116451607Y-87875653D01*
X116574292Y-87870621D01*
X116689856Y-87908564D01*
X116777877Y-87985021D01*
X116802179Y-88028639D01*
X116822723Y-88149712D01*
X116932927Y-88149712D01*
X116932927Y-87605546D01*
X117014442Y-87605546D01*
X117062118Y-87610563D01*
X117086335Y-87636533D01*
X117094968Y-87699837D01*
X117095956Y-87775096D01*
X117099147Y-87872444D01*
X117110502Y-87913719D01*
X117132693Y-87907829D01*
X117135083Y-87905520D01*
X117213891Y-87865594D01*
X117303194Y-87876766D01*
X117387412Y-87930362D01*
X117450961Y-88017710D01*
X117474861Y-88094644D01*
X117585263Y-88094644D01*
X117585914Y-87997871D01*
X117591291Y-87920407D01*
X117605336Y-87881544D01*
X117632206Y-87867976D01*
X117666560Y-87866393D01*
X117706988Y-87869173D01*
X117731195Y-87886382D01*
X117743340Y-87931326D01*
X117747580Y-88017309D01*
X117748074Y-88127240D01*
X117859620Y-88127240D01*
X117863626Y-88029784D01*
X117899001Y-87939930D01*
X117925487Y-87912673D01*
X118026474Y-87870850D01*
X118127886Y-87880566D01*
X118185925Y-87917631D01*
X118214916Y-87940618D01*
X118230299Y-87928019D01*
X118236292Y-87869097D01*
X118237163Y-87787207D01*
X118239147Y-87687125D01*
X117742915Y-87687125D01*
X117720876Y-87740631D01*
X117669620Y-87763649D01*
X117658881Y-87762459D01*
X117604464Y-87724859D01*
X117591161Y-87694739D01*
X117606077Y-87639850D01*
X117656375Y-87611816D01*
X117713555Y-87624387D01*
X117721990Y-87631630D01*
X117742915Y-87687125D01*
X118239147Y-87687125D01*
X118239216Y-87683669D01*
X118250120Y-87629459D01*
X118276993Y-87608714D01*
X118318678Y-87605546D01*
X118400193Y-87605546D01*
X119525096Y-87605546D01*
X119606611Y-87605546D01*
X126649486Y-87605546D01*
X126649486Y-86811882D01*
X126147187Y-86811882D01*
X126113392Y-86961692D01*
X126105156Y-86979440D01*
X126046968Y-87067630D01*
X125978253Y-87132344D01*
X125964762Y-87140174D01*
X125851427Y-87172290D01*
X125710824Y-87179429D01*
X125581643Y-87161118D01*
X125540190Y-87142963D01*
X125518096Y-87105628D01*
X125509467Y-87032115D01*
X125508280Y-86949625D01*
X125508280Y-86920822D01*
X125377856Y-86920822D01*
X125376988Y-87050191D01*
X125371610Y-87127655D01*
X125357565Y-87166518D01*
X125330695Y-87180086D01*
X125296341Y-87181669D01*
X125247225Y-87176088D01*
X125223193Y-87148022D01*
X125215399Y-87080484D01*
X125214827Y-87025161D01*
X125201660Y-86894084D01*
X125188315Y-86869584D01*
X124953979Y-86869584D01*
X124946630Y-87012108D01*
X124923291Y-87100813D01*
X124902742Y-87130431D01*
X124822744Y-87173857D01*
X124731195Y-87175737D01*
X124667047Y-87142542D01*
X124634739Y-87119857D01*
X124627920Y-87142542D01*
X124600061Y-87171936D01*
X124546406Y-87181669D01*
X124505978Y-87178889D01*
X124481770Y-87161680D01*
X124469625Y-87116736D01*
X124465385Y-87030753D01*
X124464891Y-86920822D01*
X124465801Y-86791436D01*
X124471246Y-86713959D01*
X124485299Y-86675093D01*
X124512034Y-86661535D01*
X124544778Y-86659974D01*
X124334467Y-86659974D01*
X124334467Y-87409910D01*
X124252952Y-87409910D01*
X124203452Y-87404171D01*
X124179480Y-87375523D01*
X124171917Y-87306821D01*
X124171438Y-87256663D01*
X124168520Y-87181669D01*
X122792642Y-87181669D01*
X122700119Y-87181669D01*
X122626058Y-87166774D01*
X122590208Y-87111388D01*
X122587138Y-87100154D01*
X122565736Y-87048590D01*
X122522495Y-87024834D01*
X122437005Y-87018680D01*
X122424108Y-87018639D01*
X122332708Y-87023476D01*
X122285808Y-87044790D01*
X122262999Y-87092786D01*
X122261079Y-87100154D01*
X122228551Y-87162166D01*
X122160693Y-87181461D01*
X122148291Y-87181669D01*
X122055962Y-87181669D01*
X122184431Y-86821527D01*
X122234747Y-86679285D01*
X122241447Y-86659974D01*
X121986842Y-86659974D01*
X121986842Y-87409910D01*
X121905327Y-87409910D01*
X121855827Y-87404171D01*
X121831855Y-87375523D01*
X121824292Y-87306821D01*
X121823813Y-87256663D01*
X121820293Y-87166202D01*
X121807692Y-87131734D01*
X121784685Y-87142542D01*
X121706748Y-87178394D01*
X121607810Y-87166973D01*
X121538916Y-87131823D01*
X121473044Y-87049878D01*
X121445238Y-86938713D01*
X121455261Y-86821763D01*
X121502879Y-86722463D01*
X121543392Y-86684928D01*
X121629304Y-86661180D01*
X121724132Y-86679339D01*
X121772575Y-86711212D01*
X121811649Y-86745172D01*
X121823249Y-86730660D01*
X121823813Y-86711212D01*
X121851826Y-86669508D01*
X121905327Y-86659974D01*
X121986842Y-86659974D01*
X122241447Y-86659974D01*
X122275818Y-86560909D01*
X122303310Y-86479053D01*
X122312901Y-86446559D01*
X122341456Y-86436540D01*
X122410992Y-86432047D01*
X122418870Y-86432028D01*
X122463858Y-86433955D01*
X122498054Y-86446220D01*
X122527956Y-86478985D01*
X122560068Y-86542412D01*
X122600888Y-86646662D01*
X122656919Y-86801898D01*
X122658741Y-86806996D01*
X122792642Y-87181669D01*
X124168520Y-87181669D01*
X124167918Y-87166202D01*
X124155317Y-87131734D01*
X124132311Y-87142542D01*
X124054373Y-87178394D01*
X123955435Y-87166973D01*
X123886541Y-87131823D01*
X123820670Y-87049878D01*
X123794009Y-86943293D01*
X123702569Y-86943293D01*
X123671642Y-87057991D01*
X123605260Y-87135753D01*
X123516756Y-87167711D01*
X123400122Y-87171738D01*
X123284973Y-87150192D01*
X123200927Y-87105435D01*
X123198793Y-87103357D01*
X123153806Y-87017907D01*
X123144387Y-86906801D01*
X123168837Y-86797897D01*
X123222068Y-86721705D01*
X123331453Y-86669235D01*
X123454138Y-86664202D01*
X123569702Y-86702146D01*
X123657723Y-86778602D01*
X123682025Y-86822221D01*
X123702569Y-86943293D01*
X123794009Y-86943293D01*
X123792863Y-86938713D01*
X123802886Y-86821763D01*
X123850504Y-86722463D01*
X123891017Y-86684928D01*
X123976929Y-86661180D01*
X124071757Y-86679339D01*
X124120200Y-86711212D01*
X124159275Y-86745172D01*
X124170874Y-86730660D01*
X124171438Y-86711212D01*
X124199452Y-86669508D01*
X124252952Y-86659974D01*
X124334467Y-86659974D01*
X124544778Y-86659974D01*
X124590121Y-86665172D01*
X124615392Y-86691134D01*
X124628030Y-86753415D01*
X124634445Y-86847458D01*
X124642954Y-86954404D01*
X124658186Y-87011142D01*
X124686139Y-87032673D01*
X124709435Y-87034942D01*
X124747073Y-87026515D01*
X124768649Y-86991232D01*
X124780161Y-86914093D01*
X124784426Y-86847458D01*
X124792157Y-86741683D01*
X124806147Y-86685554D01*
X124833835Y-86663518D01*
X124874092Y-86659974D01*
X124917230Y-86663954D01*
X124941159Y-86685759D01*
X124951518Y-86740189D01*
X124953948Y-86842042D01*
X124953979Y-86869584D01*
X125188315Y-86869584D01*
X125160055Y-86817704D01*
X125086852Y-86790606D01*
X125077882Y-86790398D01*
X125028389Y-86764513D01*
X125019191Y-86725186D01*
X125043055Y-86673666D01*
X125099244Y-86660352D01*
X125164660Y-86689096D01*
X125175700Y-86699102D01*
X125208008Y-86721786D01*
X125214827Y-86699102D01*
X125242686Y-86669707D01*
X125296341Y-86659974D01*
X125336769Y-86662754D01*
X125360977Y-86679963D01*
X125373122Y-86724907D01*
X125377362Y-86810891D01*
X125377856Y-86920822D01*
X125508280Y-86920822D01*
X125508280Y-86757792D01*
X125655006Y-86757792D01*
X125746699Y-86762059D01*
X125790058Y-86779776D01*
X125801677Y-86818319D01*
X125801733Y-86823004D01*
X125778677Y-86877498D01*
X125736521Y-86888216D01*
X125685385Y-86907321D01*
X125671309Y-86969731D01*
X125685380Y-87032394D01*
X125737984Y-87051129D01*
X125745569Y-87051245D01*
X125860460Y-87024236D01*
X125935781Y-86948020D01*
X125964657Y-86829814D01*
X125964762Y-86821155D01*
X125942813Y-86689083D01*
X125876588Y-86604811D01*
X125765520Y-86567829D01*
X125683328Y-86567601D01*
X125594165Y-86571517D01*
X125553745Y-86560153D01*
X125546216Y-86527193D01*
X125547794Y-86513582D01*
X125561497Y-86476061D01*
X125599465Y-86456397D01*
X125677716Y-86449283D01*
X125743323Y-86448794D01*
X125859581Y-86454319D01*
X125937438Y-86475520D01*
X126003329Y-86521091D01*
X126025596Y-86541659D01*
X126117434Y-86669187D01*
X126147187Y-86811882D01*
X126649486Y-86811882D01*
X126649486Y-86399127D01*
X121334724Y-86399127D01*
X121334724Y-87181669D01*
X121171694Y-87181669D01*
X121171694Y-86920822D01*
X121041271Y-86920822D01*
X121040402Y-87050191D01*
X121035024Y-87127655D01*
X121020979Y-87166518D01*
X120994110Y-87180086D01*
X120959756Y-87181669D01*
X120919328Y-87178889D01*
X120895121Y-87161680D01*
X120882976Y-87116736D01*
X120878736Y-87030753D01*
X120878544Y-86987900D01*
X120773334Y-86987900D01*
X120740784Y-87057292D01*
X120702328Y-87099700D01*
X120618941Y-87155433D01*
X120524275Y-87179939D01*
X120437532Y-87173215D01*
X120377914Y-87135257D01*
X120363448Y-87099764D01*
X120368462Y-87053696D01*
X120412791Y-87036165D01*
X120457230Y-87034552D01*
X120476024Y-87030750D01*
X120291335Y-87030750D01*
X120266166Y-87121178D01*
X120202234Y-87172083D01*
X120116903Y-87177149D01*
X120027536Y-87130055D01*
X120024904Y-87127707D01*
X119980680Y-87091902D01*
X119966404Y-87101694D01*
X119965276Y-87127707D01*
X119938232Y-87172864D01*
X119900064Y-87181669D01*
X119864043Y-87174724D01*
X119844359Y-87144066D01*
X119836236Y-87074957D01*
X119834962Y-86987900D01*
X119729945Y-86987900D01*
X119697395Y-87057292D01*
X119658939Y-87099700D01*
X119575552Y-87155433D01*
X119480886Y-87179939D01*
X119394143Y-87173215D01*
X119334525Y-87135257D01*
X119320059Y-87099764D01*
X119325073Y-87053696D01*
X119369402Y-87036165D01*
X119413842Y-87034552D01*
X119507508Y-87015604D01*
X119553501Y-86977882D01*
X119567526Y-86920822D01*
X119215340Y-86920822D01*
X119214472Y-87050191D01*
X119209094Y-87127655D01*
X119195049Y-87166518D01*
X119168179Y-87180086D01*
X119133825Y-87181669D01*
X119093397Y-87178889D01*
X119069190Y-87161680D01*
X119057045Y-87116736D01*
X119052805Y-87030753D01*
X119052412Y-86943293D01*
X118942107Y-86943293D01*
X118911180Y-87057991D01*
X118844798Y-87135753D01*
X118756294Y-87167711D01*
X118639660Y-87171738D01*
X118524511Y-87150192D01*
X118440465Y-87105435D01*
X118438330Y-87103357D01*
X118393344Y-87017907D01*
X118385114Y-86920822D01*
X118269769Y-86920822D01*
X118268859Y-87050208D01*
X118263414Y-87127684D01*
X118249361Y-87166551D01*
X118222626Y-87180108D01*
X118189881Y-87181669D01*
X118144539Y-87176471D01*
X118119268Y-87150509D01*
X118106630Y-87088229D01*
X118100215Y-86994185D01*
X118091706Y-86887239D01*
X118076474Y-86830501D01*
X118048520Y-86808970D01*
X118025225Y-86806701D01*
X117987586Y-86815129D01*
X117966011Y-86850412D01*
X117954499Y-86927550D01*
X117950234Y-86994185D01*
X117942559Y-87099906D01*
X117928645Y-87156005D01*
X117900926Y-87178058D01*
X117859139Y-87181669D01*
X117817140Y-87178778D01*
X117793594Y-87160733D01*
X117784173Y-87113480D01*
X117784549Y-87022962D01*
X117787403Y-86948692D01*
X117787498Y-86947628D01*
X117680017Y-86947628D01*
X117645411Y-87045848D01*
X117573690Y-87125168D01*
X117473619Y-87174207D01*
X117353960Y-87181585D01*
X117277956Y-87161878D01*
X117232890Y-87116160D01*
X117230047Y-87103382D01*
X117133620Y-87103382D01*
X117113430Y-87152934D01*
X117106825Y-87159932D01*
X117054654Y-87177536D01*
X116967373Y-87180661D01*
X116873195Y-87170414D01*
X116800360Y-87147916D01*
X116748302Y-87085787D01*
X116737291Y-87023531D01*
X116751454Y-86954166D01*
X116758324Y-86947628D01*
X116375781Y-86947628D01*
X116341175Y-87045848D01*
X116269454Y-87125168D01*
X116169382Y-87174207D01*
X116049724Y-87181585D01*
X115973719Y-87161878D01*
X115928654Y-87116160D01*
X115922144Y-87086910D01*
X115936655Y-87049751D01*
X115990768Y-87040963D01*
X116029926Y-87044317D01*
X116134609Y-87036498D01*
X116180645Y-87005164D01*
X116198794Y-86974935D01*
X116180616Y-86959439D01*
X116114714Y-86953926D01*
X116056560Y-86953428D01*
X115958544Y-86951378D01*
X115909115Y-86938864D01*
X115899431Y-86920822D01*
X115791720Y-86920822D01*
X115790810Y-87050208D01*
X115785365Y-87127684D01*
X115771312Y-87166551D01*
X115744577Y-87180108D01*
X115711833Y-87181669D01*
X115666490Y-87176471D01*
X115641219Y-87150509D01*
X115628581Y-87088229D01*
X115622166Y-86994185D01*
X115613657Y-86887239D01*
X115598425Y-86830501D01*
X115570472Y-86808970D01*
X115547176Y-86806701D01*
X115509538Y-86815129D01*
X115487962Y-86850412D01*
X115476450Y-86927550D01*
X115472185Y-86994185D01*
X115464510Y-87099906D01*
X115450597Y-87156005D01*
X115422877Y-87178058D01*
X115381091Y-87181669D01*
X115339092Y-87178778D01*
X115315546Y-87160733D01*
X115306125Y-87113480D01*
X115306501Y-87022962D01*
X115309355Y-86948692D01*
X115322830Y-86797970D01*
X115351964Y-86705034D01*
X115402247Y-86663258D01*
X115479168Y-86666013D01*
X115530043Y-86682287D01*
X115596758Y-86699579D01*
X115628308Y-86692229D01*
X115628691Y-86689748D01*
X115656611Y-86667361D01*
X115710205Y-86659974D01*
X115750633Y-86662754D01*
X115774841Y-86679963D01*
X115786986Y-86724907D01*
X115791226Y-86810891D01*
X115791720Y-86920822D01*
X115899431Y-86920822D01*
X115891655Y-86906336D01*
X115889538Y-86857459D01*
X115916576Y-86759953D01*
X115986573Y-86693622D01*
X116082852Y-86663256D01*
X116188740Y-86673641D01*
X116287559Y-86729566D01*
X116298594Y-86740007D01*
X116364508Y-86841887D01*
X116375781Y-86947628D01*
X116758324Y-86947628D01*
X116804828Y-86903378D01*
X116853150Y-86877651D01*
X116925509Y-86829442D01*
X116945317Y-86787289D01*
X116913189Y-86763499D01*
X116847590Y-86766503D01*
X116787747Y-86765924D01*
X116769963Y-86725298D01*
X116769897Y-86720665D01*
X116796785Y-86677436D01*
X116864062Y-86659227D01*
X116951651Y-86666640D01*
X117039474Y-86700275D01*
X117057951Y-86712032D01*
X117117053Y-86780874D01*
X117114437Y-86855142D01*
X117052229Y-86926970D01*
X116989783Y-86964362D01*
X116910107Y-87015877D01*
X116891781Y-87056359D01*
X116932618Y-87077539D01*
X117018587Y-87073192D01*
X117099135Y-87073979D01*
X117133620Y-87103382D01*
X117230047Y-87103382D01*
X117226380Y-87086910D01*
X117240892Y-87049751D01*
X117295004Y-87040963D01*
X117334162Y-87044317D01*
X117438845Y-87036498D01*
X117484881Y-87005164D01*
X117503031Y-86974935D01*
X117484852Y-86959439D01*
X117418950Y-86953926D01*
X117360796Y-86953428D01*
X117262780Y-86951378D01*
X117213351Y-86938864D01*
X117195892Y-86906336D01*
X117193774Y-86857459D01*
X117220812Y-86759953D01*
X117290809Y-86693622D01*
X117387089Y-86663256D01*
X117492976Y-86673641D01*
X117591795Y-86729566D01*
X117602830Y-86740007D01*
X117668744Y-86841887D01*
X117680017Y-86947628D01*
X117787498Y-86947628D01*
X117800879Y-86797970D01*
X117830013Y-86705034D01*
X117880296Y-86663258D01*
X117957217Y-86666013D01*
X118008092Y-86682287D01*
X118074807Y-86699579D01*
X118106356Y-86692229D01*
X118106739Y-86689748D01*
X118134660Y-86667361D01*
X118188254Y-86659974D01*
X118228682Y-86662754D01*
X118252890Y-86679963D01*
X118265034Y-86724907D01*
X118269274Y-86810891D01*
X118269769Y-86920822D01*
X118385114Y-86920822D01*
X118383925Y-86906801D01*
X118408375Y-86797897D01*
X118461606Y-86721705D01*
X118570991Y-86669235D01*
X118693676Y-86664202D01*
X118809239Y-86702146D01*
X118897261Y-86778602D01*
X118921563Y-86822221D01*
X118942107Y-86943293D01*
X119052412Y-86943293D01*
X119052311Y-86920822D01*
X119053179Y-86791452D01*
X119058557Y-86713988D01*
X119072602Y-86675125D01*
X119099472Y-86661557D01*
X119133825Y-86659974D01*
X119174253Y-86662754D01*
X119198461Y-86679963D01*
X119210606Y-86724907D01*
X119214846Y-86810891D01*
X119215340Y-86920822D01*
X119567526Y-86920822D01*
X119571713Y-86903789D01*
X119535228Y-86843586D01*
X119454554Y-86810122D01*
X119413842Y-86807091D01*
X119342371Y-86799975D01*
X119318788Y-86770284D01*
X119320059Y-86741879D01*
X119337102Y-86700052D01*
X119384138Y-86681747D01*
X119469817Y-86679223D01*
X119596260Y-86698462D01*
X119675586Y-86756163D01*
X119719189Y-86861987D01*
X119725703Y-86896230D01*
X119729945Y-86987900D01*
X119834962Y-86987900D01*
X119834852Y-86980449D01*
X119843160Y-86837951D01*
X119869659Y-86747282D01*
X119888815Y-86719602D01*
X119957999Y-86677113D01*
X120049957Y-86660844D01*
X120144209Y-86668629D01*
X120220278Y-86698297D01*
X120257682Y-86747683D01*
X120258729Y-86758763D01*
X120250483Y-86796705D01*
X120213640Y-86798405D01*
X120165720Y-86782232D01*
X120084530Y-86764642D01*
X120015682Y-86770274D01*
X119978120Y-86794962D01*
X119981437Y-86822774D01*
X120025742Y-86846664D01*
X120095295Y-86855610D01*
X120200695Y-86881353D01*
X120270688Y-86949802D01*
X120291335Y-87030750D01*
X120476024Y-87030750D01*
X120550897Y-87015604D01*
X120596889Y-86977882D01*
X120615102Y-86903789D01*
X120578617Y-86843586D01*
X120497943Y-86810122D01*
X120457230Y-86807091D01*
X120385760Y-86799975D01*
X120362177Y-86770284D01*
X120363448Y-86741879D01*
X120380491Y-86700052D01*
X120427527Y-86681747D01*
X120513206Y-86679223D01*
X120639649Y-86698462D01*
X120718975Y-86756163D01*
X120762578Y-86861987D01*
X120769092Y-86896230D01*
X120773334Y-86987900D01*
X120878544Y-86987900D01*
X120878241Y-86920822D01*
X120879110Y-86791452D01*
X120884488Y-86713988D01*
X120898533Y-86675125D01*
X120925403Y-86661557D01*
X120959756Y-86659974D01*
X121000184Y-86662754D01*
X121024392Y-86679963D01*
X121036536Y-86724907D01*
X121040776Y-86810891D01*
X121041271Y-86920822D01*
X121171694Y-86920822D01*
X121171694Y-86480707D01*
X121036111Y-86480707D01*
X121014072Y-86534213D01*
X120962816Y-86557231D01*
X120952078Y-86556041D01*
X120897661Y-86518441D01*
X120884357Y-86488320D01*
X120886425Y-86480707D01*
X119210180Y-86480707D01*
X119188141Y-86534213D01*
X119136886Y-86557231D01*
X119126147Y-86556041D01*
X119071730Y-86518441D01*
X119058427Y-86488320D01*
X119073343Y-86433431D01*
X119123641Y-86405398D01*
X119180820Y-86417968D01*
X119189255Y-86425212D01*
X119210180Y-86480707D01*
X120886425Y-86480707D01*
X120899274Y-86433431D01*
X120949571Y-86405398D01*
X121006751Y-86417968D01*
X121015186Y-86425212D01*
X121036111Y-86480707D01*
X121171694Y-86480707D01*
X121171694Y-86399127D01*
X121334724Y-86399127D01*
X126649486Y-86399127D01*
X126649486Y-75867420D01*
X126388639Y-75867420D01*
X126388639Y-86170886D01*
X114911361Y-86170886D01*
X114911361Y-75867420D01*
X126388639Y-75867420D01*
X126649486Y-75867420D01*
X126649486Y-75482444D01*
X119997882Y-75482444D01*
X119690439Y-75471145D01*
X119533349Y-75462637D01*
X119425226Y-75448704D01*
X119349862Y-75426121D01*
X119291050Y-75391661D01*
X119291016Y-75391636D01*
X119209817Y-75317303D01*
X119131734Y-75224815D01*
X119122892Y-75212304D01*
X119082170Y-75143321D01*
X119060853Y-75072713D01*
X119054765Y-74978120D01*
X119057711Y-74883214D01*
X118915138Y-74883214D01*
X118905271Y-75082653D01*
X118844988Y-75243549D01*
X118735541Y-75363392D01*
X118650975Y-75412672D01*
X118468781Y-75467637D01*
X118294071Y-75460029D01*
X118139992Y-75402786D01*
X118006761Y-75301308D01*
X117916624Y-75163877D01*
X117870378Y-75004176D01*
X117868819Y-74835883D01*
X117912743Y-74672681D01*
X118002947Y-74528249D01*
X118084676Y-74452471D01*
X118194203Y-74403142D01*
X118337026Y-74380925D01*
X118487516Y-74385881D01*
X118620046Y-74418070D01*
X118681089Y-74451078D01*
X118807082Y-74568115D01*
X118880960Y-74700465D01*
X118914022Y-74868993D01*
X118915138Y-74883214D01*
X119057711Y-74883214D01*
X119058235Y-74866350D01*
X119067592Y-74737204D01*
X119084745Y-74651873D01*
X119116530Y-74588969D01*
X119165133Y-74531933D01*
X119257297Y-74455968D01*
X119370092Y-74405896D01*
X119517237Y-74377834D01*
X119712454Y-74367897D01*
X119745186Y-74367730D01*
X119997882Y-74367548D01*
X119997882Y-75482444D01*
X126649486Y-75482444D01*
X126649486Y-74367548D01*
X123160655Y-74367548D01*
X123160655Y-75476149D01*
X122899807Y-75476149D01*
X122899807Y-75052272D01*
X122443325Y-75052272D01*
X122443325Y-75476149D01*
X122215083Y-75476149D01*
X122073676Y-75476149D01*
X121935032Y-75476149D01*
X121846390Y-75471767D01*
X121801597Y-75449983D01*
X121779438Y-75397837D01*
X121774904Y-75378331D01*
X121760924Y-75326785D01*
X121736919Y-75297538D01*
X121687092Y-75284272D01*
X121595644Y-75280667D01*
X121530359Y-75280514D01*
X121412559Y-75281679D01*
X121344172Y-75289389D01*
X121309402Y-75309962D01*
X121292451Y-75349717D01*
X121285815Y-75378331D01*
X121266462Y-75439515D01*
X121230411Y-75467890D01*
X121156825Y-75475873D01*
X121121656Y-75476149D01*
X120978981Y-75476149D01*
X121054835Y-75272362D01*
X121098324Y-75153587D01*
X121154663Y-74996996D01*
X121215329Y-74826383D01*
X121253454Y-74718062D01*
X121376220Y-74367548D01*
X120845635Y-74367548D01*
X120845635Y-75476149D01*
X120160911Y-75476149D01*
X120160911Y-75280514D01*
X120584788Y-75280514D01*
X120584788Y-75019666D01*
X120405456Y-75019666D01*
X120302934Y-75018024D01*
X120249572Y-75007259D01*
X120229319Y-74978618D01*
X120226123Y-74923344D01*
X120226123Y-74921849D01*
X120229135Y-74865928D01*
X120248869Y-74836821D01*
X120301378Y-74825774D01*
X120402713Y-74824031D01*
X120584788Y-74824031D01*
X120584788Y-74563184D01*
X120193517Y-74563184D01*
X120193517Y-74367548D01*
X120845635Y-74367548D01*
X121376220Y-74367548D01*
X121677086Y-74368382D01*
X121875381Y-74922265D01*
X122073676Y-75476149D01*
X122215083Y-75476149D01*
X122215083Y-74367548D01*
X122443325Y-74367548D01*
X122443325Y-74824031D01*
X122899807Y-74824031D01*
X122899807Y-74367548D01*
X123160655Y-74367548D01*
X126649486Y-74367548D01*
X126649486Y-73943672D01*
X114650513Y-73943672D01*
X114650513Y-88648935D01*
G36*
X123601436Y-88004615D02*
X123592520Y-88021271D01*
X123609447Y-88052347D01*
X123678609Y-88062028D01*
X123746949Y-88054378D01*
X123762989Y-88026525D01*
X123758691Y-88011396D01*
X123716698Y-87976234D01*
X123653216Y-87974631D01*
X123601436Y-88004615D01*
X123601436Y-88004615D01*
G37*
X123601436Y-88004615D02*
X123592520Y-88021271D01*
X123609447Y-88052347D01*
X123678609Y-88062028D01*
X123746949Y-88054378D01*
X123762989Y-88026525D01*
X123758691Y-88011396D01*
X123716698Y-87976234D01*
X123653216Y-87974631D01*
X123601436Y-88004615D01*
G36*
X122123091Y-88145543D02*
X122126570Y-88181100D01*
X122156393Y-88218537D01*
X122222266Y-88254874D01*
X122281751Y-88241833D01*
X122296741Y-88224828D01*
X122289519Y-88189034D01*
X122266059Y-88175919D01*
X122188403Y-88151522D01*
X122166175Y-88144566D01*
X122123091Y-88145543D01*
X122123091Y-88145543D01*
G37*
X122123091Y-88145543D02*
X122126570Y-88181100D01*
X122156393Y-88218537D01*
X122222266Y-88254874D01*
X122281751Y-88241833D01*
X122296741Y-88224828D01*
X122289519Y-88189034D01*
X122266059Y-88175919D01*
X122188403Y-88151522D01*
X122166175Y-88144566D01*
X122123091Y-88145543D01*
G36*
X119268552Y-88028778D02*
X119229472Y-88084892D01*
X119222916Y-88155479D01*
X119249246Y-88210321D01*
X119312295Y-88250115D01*
X119385454Y-88254571D01*
X119421844Y-88235927D01*
X119443407Y-88175597D01*
X119433134Y-88095741D01*
X119395946Y-88030702D01*
X119391940Y-88027154D01*
X119327070Y-88003933D01*
X119268552Y-88028778D01*
X119268552Y-88028778D01*
G37*
X119268552Y-88028778D02*
X119229472Y-88084892D01*
X119222916Y-88155479D01*
X119249246Y-88210321D01*
X119312295Y-88250115D01*
X119385454Y-88254571D01*
X119421844Y-88235927D01*
X119443407Y-88175597D01*
X119433134Y-88095741D01*
X119395946Y-88030702D01*
X119391940Y-88027154D01*
X119327070Y-88003933D01*
X119268552Y-88028778D01*
G36*
X118645339Y-88004615D02*
X118636422Y-88021271D01*
X118653349Y-88052347D01*
X118722511Y-88062028D01*
X118790852Y-88054378D01*
X118806891Y-88026525D01*
X118802593Y-88011396D01*
X118760600Y-87976234D01*
X118697118Y-87974631D01*
X118645339Y-88004615D01*
X118645339Y-88004615D01*
G37*
X118645339Y-88004615D02*
X118636422Y-88021271D01*
X118653349Y-88052347D01*
X118722511Y-88062028D01*
X118790852Y-88054378D01*
X118806891Y-88026525D01*
X118802593Y-88011396D01*
X118760600Y-87976234D01*
X118697118Y-87974631D01*
X118645339Y-88004615D01*
G36*
X118062134Y-88028778D02*
X118023054Y-88084892D01*
X118016498Y-88155479D01*
X118042828Y-88210321D01*
X118105877Y-88250115D01*
X118179036Y-88254571D01*
X118215426Y-88235927D01*
X118236988Y-88175597D01*
X118226716Y-88095741D01*
X118189527Y-88030702D01*
X118185521Y-88027154D01*
X118120651Y-88003933D01*
X118062134Y-88028778D01*
X118062134Y-88028778D01*
G37*
X118062134Y-88028778D02*
X118023054Y-88084892D01*
X118016498Y-88155479D01*
X118042828Y-88210321D01*
X118105877Y-88250115D01*
X118179036Y-88254571D01*
X118215426Y-88235927D01*
X118236988Y-88175597D01*
X118226716Y-88095741D01*
X118189527Y-88030702D01*
X118185521Y-88027154D01*
X118120651Y-88003933D01*
X118062134Y-88028778D01*
G36*
X117149297Y-88006907D02*
X117104984Y-88052342D01*
X117097893Y-88123178D01*
X117122092Y-88195923D01*
X117171651Y-88247085D01*
X117212606Y-88257664D01*
X117264198Y-88234958D01*
X117290292Y-88210321D01*
X117318032Y-88136650D01*
X117298048Y-88064088D01*
X117243991Y-88012333D01*
X117169515Y-88001080D01*
X117149297Y-88006907D01*
X117149297Y-88006907D01*
G37*
X117149297Y-88006907D02*
X117104984Y-88052342D01*
X117097893Y-88123178D01*
X117122092Y-88195923D01*
X117171651Y-88247085D01*
X117212606Y-88257664D01*
X117264198Y-88234958D01*
X117290292Y-88210321D01*
X117318032Y-88136650D01*
X117298048Y-88064088D01*
X117243991Y-88012333D01*
X117169515Y-88001080D01*
X117149297Y-88006907D01*
G36*
X116484596Y-88016781D02*
X116429157Y-88080682D01*
X116420596Y-88156408D01*
X116453772Y-88222254D01*
X116523543Y-88256513D01*
X116541656Y-88257664D01*
X116610572Y-88234148D01*
X116638174Y-88210321D01*
X116666677Y-88137589D01*
X116648934Y-88066618D01*
X116598829Y-88014908D01*
X116530248Y-87999955D01*
X116484596Y-88016781D01*
X116484596Y-88016781D01*
G37*
X116484596Y-88016781D02*
X116429157Y-88080682D01*
X116420596Y-88156408D01*
X116453772Y-88222254D01*
X116523543Y-88256513D01*
X116541656Y-88257664D01*
X116610572Y-88234148D01*
X116638174Y-88210321D01*
X116666677Y-88137589D01*
X116648934Y-88066618D01*
X116598829Y-88014908D01*
X116530248Y-87999955D01*
X116484596Y-88016781D01*
G36*
X124003362Y-86810540D02*
X123958478Y-86860155D01*
X123944755Y-86929094D01*
X123975770Y-87002295D01*
X123976154Y-87002760D01*
X124039671Y-87043399D01*
X124112964Y-87048288D01*
X124149700Y-87029508D01*
X124170291Y-86971510D01*
X124163553Y-86892703D01*
X124132686Y-86829903D01*
X124132311Y-86829525D01*
X124065832Y-86795310D01*
X124003362Y-86810540D01*
X124003362Y-86810540D01*
G37*
X124003362Y-86810540D02*
X123958478Y-86860155D01*
X123944755Y-86929094D01*
X123975770Y-87002295D01*
X123976154Y-87002760D01*
X124039671Y-87043399D01*
X124112964Y-87048288D01*
X124149700Y-87029508D01*
X124170291Y-86971510D01*
X124163553Y-86892703D01*
X124132686Y-86829903D01*
X124132311Y-86829525D01*
X124065832Y-86795310D01*
X124003362Y-86810540D01*
G36*
X121655737Y-86810540D02*
X121610853Y-86860155D01*
X121597130Y-86929094D01*
X121628144Y-87002295D01*
X121628529Y-87002760D01*
X121692046Y-87043399D01*
X121765339Y-87048288D01*
X121802075Y-87029508D01*
X121822666Y-86971510D01*
X121815927Y-86892703D01*
X121785061Y-86829903D01*
X121784685Y-86829525D01*
X121718207Y-86795310D01*
X121655737Y-86810540D01*
X121655737Y-86810540D01*
G37*
X121655737Y-86810540D02*
X121610853Y-86860155D01*
X121597130Y-86929094D01*
X121628144Y-87002295D01*
X121628529Y-87002760D01*
X121692046Y-87043399D01*
X121765339Y-87048288D01*
X121802075Y-87029508D01*
X121822666Y-86971510D01*
X121815927Y-86892703D01*
X121785061Y-86829903D01*
X121784685Y-86829525D01*
X121718207Y-86795310D01*
X121655737Y-86810540D01*
G36*
X123364442Y-86810363D02*
X123309003Y-86874264D01*
X123300442Y-86949990D01*
X123333618Y-87015835D01*
X123403389Y-87050094D01*
X123421502Y-87051245D01*
X123490418Y-87027729D01*
X123518020Y-87003903D01*
X123546522Y-86931170D01*
X123528780Y-86860200D01*
X123478675Y-86808490D01*
X123410094Y-86793536D01*
X123364442Y-86810363D01*
X123364442Y-86810363D01*
G37*
X123364442Y-86810363D02*
X123309003Y-86874264D01*
X123300442Y-86949990D01*
X123333618Y-87015835D01*
X123403389Y-87050094D01*
X123421502Y-87051245D01*
X123490418Y-87027729D01*
X123518020Y-87003903D01*
X123546522Y-86931170D01*
X123528780Y-86860200D01*
X123478675Y-86808490D01*
X123410094Y-86793536D01*
X123364442Y-86810363D01*
G36*
X122390405Y-86696291D02*
X122357123Y-86801152D01*
X122354478Y-86859702D01*
X122384846Y-86884399D01*
X122427022Y-86888216D01*
X122488351Y-86881124D01*
X122508537Y-86867544D01*
X122499940Y-86825955D01*
X122478442Y-86746981D01*
X122469439Y-86716377D01*
X122430341Y-86585881D01*
X122390405Y-86696291D01*
X122390405Y-86696291D01*
G37*
X122390405Y-86696291D02*
X122357123Y-86801152D01*
X122354478Y-86859702D01*
X122384846Y-86884399D01*
X122427022Y-86888216D01*
X122488351Y-86881124D01*
X122508537Y-86867544D01*
X122499940Y-86825955D01*
X122478442Y-86746981D01*
X122469439Y-86716377D01*
X122430341Y-86585881D01*
X122390405Y-86696291D01*
G36*
X119971101Y-86939124D02*
X119974580Y-86974681D01*
X120004403Y-87012118D01*
X120070277Y-87048455D01*
X120129761Y-87035414D01*
X120144751Y-87018409D01*
X120137529Y-86982615D01*
X120114069Y-86969500D01*
X120036414Y-86945103D01*
X120014185Y-86938148D01*
X119971101Y-86939124D01*
X119971101Y-86939124D01*
G37*
X119971101Y-86939124D02*
X119974580Y-86974681D01*
X120004403Y-87012118D01*
X120070277Y-87048455D01*
X120129761Y-87035414D01*
X120144751Y-87018409D01*
X120137529Y-86982615D01*
X120114069Y-86969500D01*
X120036414Y-86945103D01*
X120014185Y-86938148D01*
X119971101Y-86939124D01*
G36*
X118603979Y-86810363D02*
X118548541Y-86874264D01*
X118539980Y-86949990D01*
X118573156Y-87015835D01*
X118642927Y-87050094D01*
X118661040Y-87051245D01*
X118729956Y-87027729D01*
X118757558Y-87003903D01*
X118786060Y-86931170D01*
X118768317Y-86860200D01*
X118718213Y-86808490D01*
X118649632Y-86793536D01*
X118603979Y-86810363D01*
X118603979Y-86810363D01*
G37*
X118603979Y-86810363D02*
X118548541Y-86874264D01*
X118539980Y-86949990D01*
X118573156Y-87015835D01*
X118642927Y-87050094D01*
X118661040Y-87051245D01*
X118729956Y-87027729D01*
X118757558Y-87003903D01*
X118786060Y-86931170D01*
X118768317Y-86860200D01*
X118718213Y-86808490D01*
X118649632Y-86793536D01*
X118603979Y-86810363D01*
G36*
X117341103Y-86798196D02*
X117332186Y-86814853D01*
X117349113Y-86845929D01*
X117418275Y-86855610D01*
X117486616Y-86847960D01*
X117502655Y-86820107D01*
X117498357Y-86804977D01*
X117456364Y-86769815D01*
X117392882Y-86768212D01*
X117341103Y-86798196D01*
X117341103Y-86798196D01*
G37*
X117341103Y-86798196D02*
X117332186Y-86814853D01*
X117349113Y-86845929D01*
X117418275Y-86855610D01*
X117486616Y-86847960D01*
X117502655Y-86820107D01*
X117498357Y-86804977D01*
X117456364Y-86769815D01*
X117392882Y-86768212D01*
X117341103Y-86798196D01*
G36*
X116036866Y-86798196D02*
X116027950Y-86814853D01*
X116044877Y-86845929D01*
X116114039Y-86855610D01*
X116182379Y-86847960D01*
X116198419Y-86820107D01*
X116194121Y-86804977D01*
X116152128Y-86769815D01*
X116088646Y-86768212D01*
X116036866Y-86798196D01*
X116036866Y-86798196D01*
G37*
X116036866Y-86798196D02*
X116027950Y-86814853D01*
X116044877Y-86845929D01*
X116114039Y-86855610D01*
X116182379Y-86847960D01*
X116198419Y-86820107D01*
X116194121Y-86804977D01*
X116152128Y-86769815D01*
X116088646Y-86768212D01*
X116036866Y-86798196D01*
G36*
X122889548Y-76769568D02*
X122877446Y-76899020D01*
X122862258Y-77002063D01*
X122846593Y-77062542D01*
X122840816Y-77071172D01*
X122813416Y-77113800D01*
X122788714Y-77187959D01*
X122763748Y-77263734D01*
X122719881Y-77370664D01*
X122663957Y-77494725D01*
X122602820Y-77621894D01*
X122543313Y-77738146D01*
X122492281Y-77829458D01*
X122456566Y-77881806D01*
X122446605Y-77888986D01*
X122413404Y-77913106D01*
X122355327Y-77976029D01*
X122291954Y-78055095D01*
X122219872Y-78134809D01*
X122118990Y-78226918D01*
X122003445Y-78320730D01*
X121887377Y-78405555D01*
X121784925Y-78470699D01*
X121710229Y-78505471D01*
X121692372Y-78508498D01*
X121661528Y-78531296D01*
X121660783Y-78537564D01*
X121633188Y-78565649D01*
X121565161Y-78602555D01*
X121478841Y-78638727D01*
X121396364Y-78664612D01*
X121350367Y-78671528D01*
X121337138Y-78664337D01*
X121326515Y-78638638D01*
X121318226Y-78588236D01*
X121311996Y-78506938D01*
X121307553Y-78388553D01*
X121304622Y-78226887D01*
X121302931Y-78015747D01*
X121302205Y-77748941D01*
X121302118Y-77579230D01*
X121302118Y-76486932D01*
X119737035Y-76486932D01*
X119737035Y-77579230D01*
X119736733Y-77838727D01*
X119735878Y-78076191D01*
X119734541Y-78284080D01*
X119732795Y-78454850D01*
X119730713Y-78580961D01*
X119728366Y-78654870D01*
X119726540Y-78671528D01*
X119675634Y-78660260D01*
X119596584Y-78632541D01*
X119511449Y-78597500D01*
X119442289Y-78564264D01*
X119411162Y-78541962D01*
X119410976Y-78540948D01*
X119384116Y-78512960D01*
X119315231Y-78469953D01*
X119257051Y-78439802D01*
X119149060Y-78372179D01*
X119017442Y-78267220D01*
X118876865Y-78139210D01*
X118741995Y-78002433D01*
X118627498Y-77871177D01*
X118548041Y-77759725D01*
X118535615Y-77737116D01*
X118487968Y-77653888D01*
X118446416Y-77599730D01*
X118433281Y-77590259D01*
X118397998Y-77550429D01*
X118355414Y-77460430D01*
X118309760Y-77334278D01*
X118265264Y-77185991D01*
X118226156Y-77029583D01*
X118196664Y-76879071D01*
X118181522Y-76755931D01*
X118162265Y-76486932D01*
X116606868Y-76486932D01*
X116606868Y-76633659D01*
X116612409Y-76721175D01*
X116626429Y-76773662D01*
X116634759Y-76780385D01*
X116652035Y-76810021D01*
X116669513Y-76887324D01*
X116682157Y-76984172D01*
X116702647Y-77136565D01*
X116735233Y-77307638D01*
X116776563Y-77485907D01*
X116823290Y-77659889D01*
X116872064Y-77818098D01*
X116919535Y-77949052D01*
X116962356Y-78041267D01*
X116997176Y-78083259D01*
X117003091Y-78084621D01*
X117027253Y-78111286D01*
X117030745Y-78136384D01*
X117048478Y-78201354D01*
X117095275Y-78302339D01*
X117161533Y-78422841D01*
X117237650Y-78546363D01*
X117314023Y-78656409D01*
X117378630Y-78734022D01*
X117442895Y-78807373D01*
X117481855Y-78866163D01*
X117487227Y-78883466D01*
X117509431Y-78927514D01*
X117565083Y-78992293D01*
X117590154Y-79016607D01*
X117666836Y-79090034D01*
X117766082Y-79188465D01*
X117859153Y-79283152D01*
X117944462Y-79366763D01*
X118014886Y-79427716D01*
X118056495Y-79454061D01*
X118058715Y-79454333D01*
X118100790Y-79474709D01*
X118169071Y-79526635D01*
X118205442Y-79558742D01*
X118274624Y-79611295D01*
X118380986Y-79679142D01*
X118510009Y-79754445D01*
X118647175Y-79829368D01*
X118777966Y-79896074D01*
X118887866Y-79946726D01*
X118962355Y-79973487D01*
X118977966Y-79975764D01*
X119016565Y-79994025D01*
X119019705Y-80005194D01*
X119048910Y-80028634D01*
X119126230Y-80061716D01*
X119236215Y-80099502D01*
X119363419Y-80137052D01*
X119492394Y-80169426D01*
X119598460Y-80190254D01*
X119692121Y-80215050D01*
X119735461Y-80248942D01*
X119737035Y-80257081D01*
X119728071Y-80267588D01*
X119697851Y-80276373D01*
X119641381Y-80283580D01*
X119553667Y-80289351D01*
X119429716Y-80293828D01*
X119264534Y-80297155D01*
X119053128Y-80299474D01*
X118790504Y-80300929D01*
X118471668Y-80301661D01*
X118171951Y-80301823D01*
X116606868Y-80301823D01*
X116606868Y-81769089D01*
X118171951Y-81769089D01*
X118531581Y-81769150D01*
X118831430Y-81769483D01*
X119076931Y-81770312D01*
X119273516Y-81771861D01*
X119426616Y-81774354D01*
X119541663Y-81778016D01*
X119624090Y-81783071D01*
X119679327Y-81789742D01*
X119712806Y-81798254D01*
X119729960Y-81808832D01*
X119736220Y-81821699D01*
X119737035Y-81833679D01*
X119709713Y-81891905D01*
X119647368Y-81918040D01*
X119489541Y-81956109D01*
X119321054Y-82002207D01*
X119153628Y-82052454D01*
X118998983Y-82102971D01*
X118868841Y-82149879D01*
X118774921Y-82189300D01*
X118728944Y-82217354D01*
X118726252Y-82222889D01*
X118699420Y-82248010D01*
X118628527Y-82293000D01*
X118527978Y-82348839D01*
X118510451Y-82357996D01*
X118393282Y-82422514D01*
X118290856Y-82485599D01*
X118224754Y-82533932D01*
X118223391Y-82535167D01*
X118152820Y-82593575D01*
X118057899Y-82664680D01*
X118016924Y-82693525D01*
X117942608Y-82752573D01*
X117847139Y-82839501D01*
X117741202Y-82943138D01*
X117635485Y-83052314D01*
X117540672Y-83155861D01*
X117467450Y-83242607D01*
X117426506Y-83301384D01*
X117421452Y-83315951D01*
X117399307Y-83359792D01*
X117345873Y-83421487D01*
X117337388Y-83429714D01*
X117281912Y-83497795D01*
X117213258Y-83603643D01*
X117145294Y-83725683D01*
X117138304Y-83739470D01*
X117080482Y-83849315D01*
X117030846Y-83933793D01*
X116998331Y-83977944D01*
X116994127Y-83980856D01*
X116969395Y-84018225D01*
X116965533Y-84047698D01*
X116949593Y-84114033D01*
X116935967Y-84134647D01*
X116905311Y-84191688D01*
X116867426Y-84299168D01*
X116825607Y-84443169D01*
X116783148Y-84609771D01*
X116743341Y-84785057D01*
X116709481Y-84955108D01*
X116684861Y-85106006D01*
X116672775Y-85223831D01*
X116672085Y-85249769D01*
X116663310Y-85321896D01*
X116641942Y-85355435D01*
X116639474Y-85355738D01*
X116619056Y-85384665D01*
X116607699Y-85456926D01*
X116606868Y-85486162D01*
X116606868Y-85616585D01*
X117074644Y-85616585D01*
X117274707Y-85618106D01*
X117481572Y-85622254D01*
X117671907Y-85628413D01*
X117822379Y-85635965D01*
X117832732Y-85636662D01*
X117964655Y-85642918D01*
X118071227Y-85642620D01*
X118136228Y-85636050D01*
X118147497Y-85631227D01*
X118161450Y-85586315D01*
X118170304Y-85499465D01*
X118171951Y-85437034D01*
X118186469Y-85250691D01*
X118226139Y-85048830D01*
X118285139Y-84849896D01*
X118357643Y-84672330D01*
X118437829Y-84534576D01*
X118468871Y-84496752D01*
X118514727Y-84434854D01*
X118530616Y-84392306D01*
X118550817Y-84349014D01*
X118603217Y-84275638D01*
X118661040Y-84205967D01*
X118730307Y-84123066D01*
X118777671Y-84058331D01*
X118791638Y-84030196D01*
X118816398Y-83998833D01*
X118881237Y-83942812D01*
X118972272Y-83874096D01*
X118974974Y-83872170D01*
X119073013Y-83801310D01*
X119152321Y-83742091D01*
X119194889Y-83708039D01*
X119275968Y-83649367D01*
X119391268Y-83583418D01*
X119513520Y-83524306D01*
X119615454Y-83486149D01*
X119631065Y-83482260D01*
X119737035Y-83459414D01*
X119737035Y-85616585D01*
X121302118Y-85616585D01*
X121302118Y-84524288D01*
X121302922Y-84264792D01*
X121305205Y-84027329D01*
X121308774Y-83819442D01*
X121313434Y-83648671D01*
X121318994Y-83522560D01*
X121325259Y-83448649D01*
X121330132Y-83431990D01*
X121385739Y-83447195D01*
X121480903Y-83487209D01*
X121599056Y-83543630D01*
X121723635Y-83608056D01*
X121838072Y-83672087D01*
X121925803Y-83727321D01*
X121953359Y-83748069D01*
X122256104Y-84030965D01*
X122493920Y-84317539D01*
X122666739Y-84607701D01*
X122769683Y-84882953D01*
X122799582Y-84979262D01*
X122828045Y-85046833D01*
X122840901Y-85064560D01*
X122855946Y-85103627D01*
X122871774Y-85191133D01*
X122885579Y-85310402D01*
X122888905Y-85349862D01*
X122909473Y-85616585D01*
X124416001Y-85616585D01*
X124395824Y-85298678D01*
X124381122Y-85118513D01*
X124361017Y-84942895D01*
X124337573Y-84784495D01*
X124312857Y-84655982D01*
X124288935Y-84570026D01*
X124272237Y-84540730D01*
X124251751Y-84503803D01*
X124218902Y-84420717D01*
X124180019Y-84307788D01*
X124171025Y-84279743D01*
X124117743Y-84126121D01*
X124059324Y-83981620D01*
X124001722Y-83858689D01*
X123950889Y-83769778D01*
X123912780Y-83727334D01*
X123905961Y-83725443D01*
X123880417Y-83699327D01*
X123877985Y-83681426D01*
X123859944Y-83631128D01*
X123813935Y-83551712D01*
X123780167Y-83502376D01*
X123724321Y-83421382D01*
X123688908Y-83362524D01*
X123682349Y-83345696D01*
X123660763Y-83313097D01*
X123601930Y-83244102D01*
X123514737Y-83148401D01*
X123408072Y-83035686D01*
X123290823Y-82915650D01*
X123255588Y-82880332D01*
X123152789Y-82785120D01*
X123027194Y-82679711D01*
X122890276Y-82572474D01*
X122753513Y-82471777D01*
X122628377Y-82385990D01*
X122526345Y-82323482D01*
X122458891Y-82292620D01*
X122447214Y-82290783D01*
X122406047Y-82271350D01*
X122344739Y-82224905D01*
X122283590Y-82189466D01*
X122174595Y-82142403D01*
X122032919Y-82088893D01*
X121873727Y-82034112D01*
X121712183Y-81983236D01*
X121563453Y-81941443D01*
X121442701Y-81913908D01*
X121424390Y-81910750D01*
X121338370Y-81887303D01*
X121304220Y-81848480D01*
X121302118Y-81830133D01*
X121304311Y-81816098D01*
X121314505Y-81804394D01*
X121338120Y-81794811D01*
X121380581Y-81787137D01*
X121447307Y-81781161D01*
X121543721Y-81776670D01*
X121675246Y-81773455D01*
X121847302Y-81771303D01*
X122065312Y-81770002D01*
X122334697Y-81769342D01*
X122660880Y-81769110D01*
X122867202Y-81769089D01*
X124432285Y-81769089D01*
X124432285Y-80301823D01*
X122867202Y-80301823D01*
X122531232Y-80301228D01*
X122224940Y-80299508D01*
X121953562Y-80296761D01*
X121722332Y-80293086D01*
X121536486Y-80288581D01*
X121401259Y-80283343D01*
X121321888Y-80277472D01*
X121302118Y-80272469D01*
X121331023Y-80249398D01*
X121405393Y-80221245D01*
X121473299Y-80202850D01*
X121650843Y-80157991D01*
X121808271Y-80112411D01*
X121934796Y-80069758D01*
X122019635Y-80033681D01*
X122052003Y-80007829D01*
X122052054Y-80007060D01*
X122078477Y-79979273D01*
X122100869Y-79975764D01*
X122161255Y-79960278D01*
X122260330Y-79919582D01*
X122381046Y-79862319D01*
X122506354Y-79797129D01*
X122619208Y-79732656D01*
X122702559Y-79677541D01*
X122724012Y-79659874D01*
X122782731Y-79609006D01*
X122818192Y-79584814D01*
X122819881Y-79584493D01*
X122863861Y-79563790D01*
X122942275Y-79508760D01*
X123042308Y-79430024D01*
X123151143Y-79338201D01*
X123255967Y-79243910D01*
X123343965Y-79157772D01*
X123373839Y-79125431D01*
X123453062Y-79036484D01*
X123515599Y-78967844D01*
X123548865Y-78933306D01*
X123549952Y-78932375D01*
X123584068Y-78893363D01*
X123638104Y-78820648D01*
X123700011Y-78731888D01*
X123757741Y-78644744D01*
X123799242Y-78576874D01*
X123812773Y-78547177D01*
X123832959Y-78506871D01*
X123881441Y-78447088D01*
X123927685Y-78379810D01*
X123987826Y-78268289D01*
X124054107Y-78129796D01*
X124118767Y-77981597D01*
X124174048Y-77840961D01*
X124212189Y-77725158D01*
X124220127Y-77693351D01*
X124243034Y-77613159D01*
X124266922Y-77565611D01*
X124270034Y-77562927D01*
X124286301Y-77524346D01*
X124307384Y-77434882D01*
X124331064Y-77308486D01*
X124355124Y-77159106D01*
X124377345Y-77000693D01*
X124395509Y-76847195D01*
X124407396Y-76712561D01*
X124408737Y-76690719D01*
X124420143Y-76486932D01*
X122909493Y-76486932D01*
X122889548Y-76769568D01*
X122889548Y-76769568D01*
G37*
X122889548Y-76769568D02*
X122877446Y-76899020D01*
X122862258Y-77002063D01*
X122846593Y-77062542D01*
X122840816Y-77071172D01*
X122813416Y-77113800D01*
X122788714Y-77187959D01*
X122763748Y-77263734D01*
X122719881Y-77370664D01*
X122663957Y-77494725D01*
X122602820Y-77621894D01*
X122543313Y-77738146D01*
X122492281Y-77829458D01*
X122456566Y-77881806D01*
X122446605Y-77888986D01*
X122413404Y-77913106D01*
X122355327Y-77976029D01*
X122291954Y-78055095D01*
X122219872Y-78134809D01*
X122118990Y-78226918D01*
X122003445Y-78320730D01*
X121887377Y-78405555D01*
X121784925Y-78470699D01*
X121710229Y-78505471D01*
X121692372Y-78508498D01*
X121661528Y-78531296D01*
X121660783Y-78537564D01*
X121633188Y-78565649D01*
X121565161Y-78602555D01*
X121478841Y-78638727D01*
X121396364Y-78664612D01*
X121350367Y-78671528D01*
X121337138Y-78664337D01*
X121326515Y-78638638D01*
X121318226Y-78588236D01*
X121311996Y-78506938D01*
X121307553Y-78388553D01*
X121304622Y-78226887D01*
X121302931Y-78015747D01*
X121302205Y-77748941D01*
X121302118Y-77579230D01*
X121302118Y-76486932D01*
X119737035Y-76486932D01*
X119737035Y-77579230D01*
X119736733Y-77838727D01*
X119735878Y-78076191D01*
X119734541Y-78284080D01*
X119732795Y-78454850D01*
X119730713Y-78580961D01*
X119728366Y-78654870D01*
X119726540Y-78671528D01*
X119675634Y-78660260D01*
X119596584Y-78632541D01*
X119511449Y-78597500D01*
X119442289Y-78564264D01*
X119411162Y-78541962D01*
X119410976Y-78540948D01*
X119384116Y-78512960D01*
X119315231Y-78469953D01*
X119257051Y-78439802D01*
X119149060Y-78372179D01*
X119017442Y-78267220D01*
X118876865Y-78139210D01*
X118741995Y-78002433D01*
X118627498Y-77871177D01*
X118548041Y-77759725D01*
X118535615Y-77737116D01*
X118487968Y-77653888D01*
X118446416Y-77599730D01*
X118433281Y-77590259D01*
X118397998Y-77550429D01*
X118355414Y-77460430D01*
X118309760Y-77334278D01*
X118265264Y-77185991D01*
X118226156Y-77029583D01*
X118196664Y-76879071D01*
X118181522Y-76755931D01*
X118162265Y-76486932D01*
X116606868Y-76486932D01*
X116606868Y-76633659D01*
X116612409Y-76721175D01*
X116626429Y-76773662D01*
X116634759Y-76780385D01*
X116652035Y-76810021D01*
X116669513Y-76887324D01*
X116682157Y-76984172D01*
X116702647Y-77136565D01*
X116735233Y-77307638D01*
X116776563Y-77485907D01*
X116823290Y-77659889D01*
X116872064Y-77818098D01*
X116919535Y-77949052D01*
X116962356Y-78041267D01*
X116997176Y-78083259D01*
X117003091Y-78084621D01*
X117027253Y-78111286D01*
X117030745Y-78136384D01*
X117048478Y-78201354D01*
X117095275Y-78302339D01*
X117161533Y-78422841D01*
X117237650Y-78546363D01*
X117314023Y-78656409D01*
X117378630Y-78734022D01*
X117442895Y-78807373D01*
X117481855Y-78866163D01*
X117487227Y-78883466D01*
X117509431Y-78927514D01*
X117565083Y-78992293D01*
X117590154Y-79016607D01*
X117666836Y-79090034D01*
X117766082Y-79188465D01*
X117859153Y-79283152D01*
X117944462Y-79366763D01*
X118014886Y-79427716D01*
X118056495Y-79454061D01*
X118058715Y-79454333D01*
X118100790Y-79474709D01*
X118169071Y-79526635D01*
X118205442Y-79558742D01*
X118274624Y-79611295D01*
X118380986Y-79679142D01*
X118510009Y-79754445D01*
X118647175Y-79829368D01*
X118777966Y-79896074D01*
X118887866Y-79946726D01*
X118962355Y-79973487D01*
X118977966Y-79975764D01*
X119016565Y-79994025D01*
X119019705Y-80005194D01*
X119048910Y-80028634D01*
X119126230Y-80061716D01*
X119236215Y-80099502D01*
X119363419Y-80137052D01*
X119492394Y-80169426D01*
X119598460Y-80190254D01*
X119692121Y-80215050D01*
X119735461Y-80248942D01*
X119737035Y-80257081D01*
X119728071Y-80267588D01*
X119697851Y-80276373D01*
X119641381Y-80283580D01*
X119553667Y-80289351D01*
X119429716Y-80293828D01*
X119264534Y-80297155D01*
X119053128Y-80299474D01*
X118790504Y-80300929D01*
X118471668Y-80301661D01*
X118171951Y-80301823D01*
X116606868Y-80301823D01*
X116606868Y-81769089D01*
X118171951Y-81769089D01*
X118531581Y-81769150D01*
X118831430Y-81769483D01*
X119076931Y-81770312D01*
X119273516Y-81771861D01*
X119426616Y-81774354D01*
X119541663Y-81778016D01*
X119624090Y-81783071D01*
X119679327Y-81789742D01*
X119712806Y-81798254D01*
X119729960Y-81808832D01*
X119736220Y-81821699D01*
X119737035Y-81833679D01*
X119709713Y-81891905D01*
X119647368Y-81918040D01*
X119489541Y-81956109D01*
X119321054Y-82002207D01*
X119153628Y-82052454D01*
X118998983Y-82102971D01*
X118868841Y-82149879D01*
X118774921Y-82189300D01*
X118728944Y-82217354D01*
X118726252Y-82222889D01*
X118699420Y-82248010D01*
X118628527Y-82293000D01*
X118527978Y-82348839D01*
X118510451Y-82357996D01*
X118393282Y-82422514D01*
X118290856Y-82485599D01*
X118224754Y-82533932D01*
X118223391Y-82535167D01*
X118152820Y-82593575D01*
X118057899Y-82664680D01*
X118016924Y-82693525D01*
X117942608Y-82752573D01*
X117847139Y-82839501D01*
X117741202Y-82943138D01*
X117635485Y-83052314D01*
X117540672Y-83155861D01*
X117467450Y-83242607D01*
X117426506Y-83301384D01*
X117421452Y-83315951D01*
X117399307Y-83359792D01*
X117345873Y-83421487D01*
X117337388Y-83429714D01*
X117281912Y-83497795D01*
X117213258Y-83603643D01*
X117145294Y-83725683D01*
X117138304Y-83739470D01*
X117080482Y-83849315D01*
X117030846Y-83933793D01*
X116998331Y-83977944D01*
X116994127Y-83980856D01*
X116969395Y-84018225D01*
X116965533Y-84047698D01*
X116949593Y-84114033D01*
X116935967Y-84134647D01*
X116905311Y-84191688D01*
X116867426Y-84299168D01*
X116825607Y-84443169D01*
X116783148Y-84609771D01*
X116743341Y-84785057D01*
X116709481Y-84955108D01*
X116684861Y-85106006D01*
X116672775Y-85223831D01*
X116672085Y-85249769D01*
X116663310Y-85321896D01*
X116641942Y-85355435D01*
X116639474Y-85355738D01*
X116619056Y-85384665D01*
X116607699Y-85456926D01*
X116606868Y-85486162D01*
X116606868Y-85616585D01*
X117074644Y-85616585D01*
X117274707Y-85618106D01*
X117481572Y-85622254D01*
X117671907Y-85628413D01*
X117822379Y-85635965D01*
X117832732Y-85636662D01*
X117964655Y-85642918D01*
X118071227Y-85642620D01*
X118136228Y-85636050D01*
X118147497Y-85631227D01*
X118161450Y-85586315D01*
X118170304Y-85499465D01*
X118171951Y-85437034D01*
X118186469Y-85250691D01*
X118226139Y-85048830D01*
X118285139Y-84849896D01*
X118357643Y-84672330D01*
X118437829Y-84534576D01*
X118468871Y-84496752D01*
X118514727Y-84434854D01*
X118530616Y-84392306D01*
X118550817Y-84349014D01*
X118603217Y-84275638D01*
X118661040Y-84205967D01*
X118730307Y-84123066D01*
X118777671Y-84058331D01*
X118791638Y-84030196D01*
X118816398Y-83998833D01*
X118881237Y-83942812D01*
X118972272Y-83874096D01*
X118974974Y-83872170D01*
X119073013Y-83801310D01*
X119152321Y-83742091D01*
X119194889Y-83708039D01*
X119275968Y-83649367D01*
X119391268Y-83583418D01*
X119513520Y-83524306D01*
X119615454Y-83486149D01*
X119631065Y-83482260D01*
X119737035Y-83459414D01*
X119737035Y-85616585D01*
X121302118Y-85616585D01*
X121302118Y-84524288D01*
X121302922Y-84264792D01*
X121305205Y-84027329D01*
X121308774Y-83819442D01*
X121313434Y-83648671D01*
X121318994Y-83522560D01*
X121325259Y-83448649D01*
X121330132Y-83431990D01*
X121385739Y-83447195D01*
X121480903Y-83487209D01*
X121599056Y-83543630D01*
X121723635Y-83608056D01*
X121838072Y-83672087D01*
X121925803Y-83727321D01*
X121953359Y-83748069D01*
X122256104Y-84030965D01*
X122493920Y-84317539D01*
X122666739Y-84607701D01*
X122769683Y-84882953D01*
X122799582Y-84979262D01*
X122828045Y-85046833D01*
X122840901Y-85064560D01*
X122855946Y-85103627D01*
X122871774Y-85191133D01*
X122885579Y-85310402D01*
X122888905Y-85349862D01*
X122909473Y-85616585D01*
X124416001Y-85616585D01*
X124395824Y-85298678D01*
X124381122Y-85118513D01*
X124361017Y-84942895D01*
X124337573Y-84784495D01*
X124312857Y-84655982D01*
X124288935Y-84570026D01*
X124272237Y-84540730D01*
X124251751Y-84503803D01*
X124218902Y-84420717D01*
X124180019Y-84307788D01*
X124171025Y-84279743D01*
X124117743Y-84126121D01*
X124059324Y-83981620D01*
X124001722Y-83858689D01*
X123950889Y-83769778D01*
X123912780Y-83727334D01*
X123905961Y-83725443D01*
X123880417Y-83699327D01*
X123877985Y-83681426D01*
X123859944Y-83631128D01*
X123813935Y-83551712D01*
X123780167Y-83502376D01*
X123724321Y-83421382D01*
X123688908Y-83362524D01*
X123682349Y-83345696D01*
X123660763Y-83313097D01*
X123601930Y-83244102D01*
X123514737Y-83148401D01*
X123408072Y-83035686D01*
X123290823Y-82915650D01*
X123255588Y-82880332D01*
X123152789Y-82785120D01*
X123027194Y-82679711D01*
X122890276Y-82572474D01*
X122753513Y-82471777D01*
X122628377Y-82385990D01*
X122526345Y-82323482D01*
X122458891Y-82292620D01*
X122447214Y-82290783D01*
X122406047Y-82271350D01*
X122344739Y-82224905D01*
X122283590Y-82189466D01*
X122174595Y-82142403D01*
X122032919Y-82088893D01*
X121873727Y-82034112D01*
X121712183Y-81983236D01*
X121563453Y-81941443D01*
X121442701Y-81913908D01*
X121424390Y-81910750D01*
X121338370Y-81887303D01*
X121304220Y-81848480D01*
X121302118Y-81830133D01*
X121304311Y-81816098D01*
X121314505Y-81804394D01*
X121338120Y-81794811D01*
X121380581Y-81787137D01*
X121447307Y-81781161D01*
X121543721Y-81776670D01*
X121675246Y-81773455D01*
X121847302Y-81771303D01*
X122065312Y-81770002D01*
X122334697Y-81769342D01*
X122660880Y-81769110D01*
X122867202Y-81769089D01*
X124432285Y-81769089D01*
X124432285Y-80301823D01*
X122867202Y-80301823D01*
X122531232Y-80301228D01*
X122224940Y-80299508D01*
X121953562Y-80296761D01*
X121722332Y-80293086D01*
X121536486Y-80288581D01*
X121401259Y-80283343D01*
X121321888Y-80277472D01*
X121302118Y-80272469D01*
X121331023Y-80249398D01*
X121405393Y-80221245D01*
X121473299Y-80202850D01*
X121650843Y-80157991D01*
X121808271Y-80112411D01*
X121934796Y-80069758D01*
X122019635Y-80033681D01*
X122052003Y-80007829D01*
X122052054Y-80007060D01*
X122078477Y-79979273D01*
X122100869Y-79975764D01*
X122161255Y-79960278D01*
X122260330Y-79919582D01*
X122381046Y-79862319D01*
X122506354Y-79797129D01*
X122619208Y-79732656D01*
X122702559Y-79677541D01*
X122724012Y-79659874D01*
X122782731Y-79609006D01*
X122818192Y-79584814D01*
X122819881Y-79584493D01*
X122863861Y-79563790D01*
X122942275Y-79508760D01*
X123042308Y-79430024D01*
X123151143Y-79338201D01*
X123255967Y-79243910D01*
X123343965Y-79157772D01*
X123373839Y-79125431D01*
X123453062Y-79036484D01*
X123515599Y-78967844D01*
X123548865Y-78933306D01*
X123549952Y-78932375D01*
X123584068Y-78893363D01*
X123638104Y-78820648D01*
X123700011Y-78731888D01*
X123757741Y-78644744D01*
X123799242Y-78576874D01*
X123812773Y-78547177D01*
X123832959Y-78506871D01*
X123881441Y-78447088D01*
X123927685Y-78379810D01*
X123987826Y-78268289D01*
X124054107Y-78129796D01*
X124118767Y-77981597D01*
X124174048Y-77840961D01*
X124212189Y-77725158D01*
X124220127Y-77693351D01*
X124243034Y-77613159D01*
X124266922Y-77565611D01*
X124270034Y-77562927D01*
X124286301Y-77524346D01*
X124307384Y-77434882D01*
X124331064Y-77308486D01*
X124355124Y-77159106D01*
X124377345Y-77000693D01*
X124395509Y-76847195D01*
X124407396Y-76712561D01*
X124408737Y-76690719D01*
X124420143Y-76486932D01*
X122909493Y-76486932D01*
X122889548Y-76769568D01*
G36*
X121518812Y-74661001D02*
X121485433Y-74748865D01*
X121450049Y-74850986D01*
X121419847Y-74945438D01*
X121402013Y-75010292D01*
X121399936Y-75023766D01*
X121428872Y-75041619D01*
X121501155Y-75051547D01*
X121530359Y-75052272D01*
X121611930Y-75046849D01*
X121657112Y-75033301D01*
X121660340Y-75027818D01*
X121651107Y-74985950D01*
X121627513Y-74901393D01*
X121599340Y-74807728D01*
X121563072Y-74705886D01*
X121534571Y-74656726D01*
X121518812Y-74661001D01*
X121518812Y-74661001D01*
G37*
X121518812Y-74661001D02*
X121485433Y-74748865D01*
X121450049Y-74850986D01*
X121419847Y-74945438D01*
X121402013Y-75010292D01*
X121399936Y-75023766D01*
X121428872Y-75041619D01*
X121501155Y-75051547D01*
X121530359Y-75052272D01*
X121611930Y-75046849D01*
X121657112Y-75033301D01*
X121660340Y-75027818D01*
X121651107Y-74985950D01*
X121627513Y-74901393D01*
X121599340Y-74807728D01*
X121563072Y-74705886D01*
X121534571Y-74656726D01*
X121518812Y-74661001D01*
G36*
X119506939Y-74588421D02*
X119413477Y-74647597D01*
X119354234Y-74705045D01*
X119324281Y-74764522D01*
X119313967Y-74851362D01*
X119313158Y-74910952D01*
X119318385Y-75024013D01*
X119340377Y-75099519D01*
X119388606Y-75164718D01*
X119408467Y-75185204D01*
X119497725Y-75254290D01*
X119597664Y-75279290D01*
X119636709Y-75280514D01*
X119769641Y-75280514D01*
X119769641Y-74563184D01*
X119641719Y-74563184D01*
X119506939Y-74588421D01*
X119506939Y-74588421D01*
G37*
X119506939Y-74588421D02*
X119413477Y-74647597D01*
X119354234Y-74705045D01*
X119324281Y-74764522D01*
X119313967Y-74851362D01*
X119313158Y-74910952D01*
X119318385Y-75024013D01*
X119340377Y-75099519D01*
X119388606Y-75164718D01*
X119408467Y-75185204D01*
X119497725Y-75254290D01*
X119597664Y-75279290D01*
X119636709Y-75280514D01*
X119769641Y-75280514D01*
X119769641Y-74563184D01*
X119641719Y-74563184D01*
X119506939Y-74588421D01*
G36*
X118332085Y-74603120D02*
X118235654Y-74657044D01*
X118163149Y-74754525D01*
X118143241Y-74808689D01*
X118128159Y-74948976D01*
X118157170Y-75071392D01*
X118220307Y-75167761D01*
X118307607Y-75229905D01*
X118409104Y-75249649D01*
X118514832Y-75218815D01*
X118581007Y-75167875D01*
X118642178Y-75064436D01*
X118662169Y-74931361D01*
X118639346Y-74790871D01*
X118613337Y-74728545D01*
X118536086Y-74636287D01*
X118437282Y-74595340D01*
X118332085Y-74603120D01*
X118332085Y-74603120D01*
G37*
X118332085Y-74603120D02*
X118235654Y-74657044D01*
X118163149Y-74754525D01*
X118143241Y-74808689D01*
X118128159Y-74948976D01*
X118157170Y-75071392D01*
X118220307Y-75167761D01*
X118307607Y-75229905D01*
X118409104Y-75249649D01*
X118514832Y-75218815D01*
X118581007Y-75167875D01*
X118642178Y-75064436D01*
X118662169Y-74931361D01*
X118639346Y-74790871D01*
X118613337Y-74728545D01*
X118536086Y-74636287D01*
X118437282Y-74595340D01*
X118332085Y-74603120D01*
G36*
X114778643Y-108705193D02*
X126563902Y-108705193D01*
X126563902Y-107120802D01*
X125428311Y-107120802D01*
X125420940Y-107310563D01*
X125380187Y-107482700D01*
X125300719Y-107656707D01*
X125189444Y-107809696D01*
X125052017Y-107938383D01*
X124894089Y-108039485D01*
X124721313Y-108109716D01*
X124539341Y-108145794D01*
X124353826Y-108144433D01*
X124266415Y-108129793D01*
X124161050Y-108103035D01*
X124094069Y-108076661D01*
X124061443Y-108047643D01*
X124059149Y-108012949D01*
X124073054Y-107984262D01*
X124089339Y-107969909D01*
X124119268Y-107967433D01*
X124172678Y-107977348D01*
X124231402Y-107992501D01*
X124416673Y-108021892D01*
X124597669Y-108011051D01*
X124769372Y-107962285D01*
X124926764Y-107877902D01*
X125064824Y-107760209D01*
X125178535Y-107611513D01*
X125218708Y-107538589D01*
X125256162Y-107460008D01*
X125279531Y-107398669D01*
X125292119Y-107339398D01*
X125297226Y-107267022D01*
X125298157Y-107173535D01*
X125297069Y-107075022D01*
X125291603Y-107003869D01*
X125278458Y-106944904D01*
X125254331Y-106882953D01*
X125218708Y-106808481D01*
X125121757Y-106650006D01*
X125001843Y-106524613D01*
X124852947Y-106426358D01*
X124810596Y-106405387D01*
X124649840Y-106350617D01*
X124477277Y-106327587D01*
X124305877Y-106336897D01*
X124158473Y-106375263D01*
X124124021Y-106368826D01*
X124100204Y-106333475D01*
X124086738Y-106293096D01*
X124101470Y-106270664D01*
X124127521Y-106258794D01*
X120692546Y-106258794D01*
X120692546Y-108088275D01*
X120564907Y-108088275D01*
X120564907Y-108028064D01*
X118200561Y-108028064D01*
X118187640Y-108040278D01*
X118145217Y-108042534D01*
X118137930Y-108041928D01*
X118120745Y-108039457D01*
X118104358Y-108033421D01*
X118086734Y-108020552D01*
X118065834Y-107997583D01*
X118039623Y-107961248D01*
X118006063Y-107908279D01*
X117963116Y-107835409D01*
X117908747Y-107739370D01*
X117840918Y-107616896D01*
X117757591Y-107464719D01*
X117656731Y-107279572D01*
X117616403Y-107205444D01*
X117522406Y-107033374D01*
X117434313Y-106873511D01*
X117354243Y-106729602D01*
X117284317Y-106605395D01*
X117226656Y-106504635D01*
X117183380Y-106431071D01*
X117156609Y-106388447D01*
X117148682Y-106379027D01*
X117135435Y-106397815D01*
X117104137Y-106450265D01*
X117056914Y-106532583D01*
X116995890Y-106640976D01*
X116923194Y-106771648D01*
X116840949Y-106920805D01*
X116751284Y-107084654D01*
X116683820Y-107208676D01*
X116576686Y-107405968D01*
X116487759Y-107569112D01*
X116415003Y-107701385D01*
X116356385Y-107806062D01*
X116309870Y-107886419D01*
X116273424Y-107945731D01*
X116245012Y-107987275D01*
X116222601Y-108014327D01*
X116204156Y-108030161D01*
X116187643Y-108038055D01*
X116171027Y-108041283D01*
X116166475Y-108041759D01*
X116119649Y-108042713D01*
X116097784Y-108036114D01*
X116097571Y-108035084D01*
X116107404Y-108013715D01*
X116135399Y-107959196D01*
X116179299Y-107875705D01*
X116236847Y-107767418D01*
X116305786Y-107638512D01*
X116383858Y-107493164D01*
X116468808Y-107335550D01*
X116558378Y-107169848D01*
X116650311Y-107000233D01*
X116742349Y-106830884D01*
X116832237Y-106665976D01*
X116917717Y-106509687D01*
X116996532Y-106366193D01*
X117066425Y-106239671D01*
X117107299Y-106166218D01*
X116683462Y-106166218D01*
X116683022Y-106199388D01*
X116667423Y-106241654D01*
X116633529Y-106304155D01*
X116613501Y-106338413D01*
X116583233Y-106391103D01*
X116535622Y-106475691D01*
X116473696Y-106586721D01*
X116400481Y-106718739D01*
X116319005Y-106866289D01*
X116232295Y-107023915D01*
X116161928Y-107152262D01*
X116049189Y-107358335D01*
X115955136Y-107530252D01*
X115877859Y-107671084D01*
X115815449Y-107783905D01*
X115765997Y-107871787D01*
X115727594Y-107937802D01*
X115698331Y-107985023D01*
X115676298Y-108016522D01*
X115659585Y-108035373D01*
X115646284Y-108044647D01*
X115634486Y-108047417D01*
X115622281Y-108046755D01*
X115607759Y-108045735D01*
X115606730Y-108045729D01*
X115562568Y-108042043D01*
X115544472Y-108033311D01*
X115554405Y-108011240D01*
X115582655Y-107956511D01*
X115626900Y-107873328D01*
X115684816Y-107765894D01*
X115754081Y-107638413D01*
X115832372Y-107495089D01*
X115917366Y-107340125D01*
X116006741Y-107177726D01*
X116098173Y-107012095D01*
X116189340Y-106847435D01*
X116277918Y-106687951D01*
X116361586Y-106537847D01*
X116438020Y-106401325D01*
X116504898Y-106282590D01*
X116559896Y-106185846D01*
X116600691Y-106115296D01*
X116624962Y-106075144D01*
X116630788Y-106067337D01*
X116648145Y-106084834D01*
X116670329Y-106127320D01*
X116671878Y-106131001D01*
X116683462Y-106166218D01*
X117107299Y-106166218D01*
X117111987Y-106157795D01*
X117150598Y-106088705D01*
X117671781Y-107048034D01*
X117772884Y-107234259D01*
X117867812Y-107409357D01*
X117954627Y-107569734D01*
X118031391Y-107711800D01*
X118096165Y-107831960D01*
X118147010Y-107926623D01*
X118181989Y-107992196D01*
X118199163Y-108025085D01*
X118200561Y-108028064D01*
X120564907Y-108028064D01*
X120564907Y-106258794D01*
X120692546Y-106258794D01*
X124127521Y-106258794D01*
X124133643Y-106256005D01*
X124280071Y-106215796D01*
X124441771Y-106199888D01*
X124597768Y-106210306D01*
X124601213Y-106210887D01*
X124793688Y-106263674D01*
X124966111Y-106349902D01*
X125115650Y-106464947D01*
X125239472Y-106604184D01*
X125334744Y-106762989D01*
X125398634Y-106936736D01*
X125428311Y-107120802D01*
X126563902Y-107120802D01*
X126563902Y-96643384D01*
X126266080Y-96643384D01*
X126266080Y-105450419D01*
X123967680Y-105450419D01*
X123963885Y-105441378D01*
X123819681Y-105441378D01*
X123798739Y-105442263D01*
X123737238Y-105443125D01*
X123637164Y-105443958D01*
X123500505Y-105444760D01*
X123329246Y-105445526D01*
X123125375Y-105446252D01*
X122890878Y-105446933D01*
X122627743Y-105447567D01*
X122337955Y-105448148D01*
X122023502Y-105448672D01*
X121686371Y-105449136D01*
X121328547Y-105449534D01*
X120952019Y-105449864D01*
X120558772Y-105450122D01*
X120150793Y-105450302D01*
X119730070Y-105450400D01*
X119448073Y-105450419D01*
X115076465Y-105450419D01*
X115076465Y-98159662D01*
X115262604Y-98188633D01*
X115876768Y-98304874D01*
X116491001Y-98461746D01*
X117101008Y-98657557D01*
X117702492Y-98890616D01*
X118291157Y-99159233D01*
X118862707Y-99461716D01*
X119412844Y-99796374D01*
X119509891Y-99860318D01*
X119836892Y-100085370D01*
X120138016Y-100308129D01*
X120423527Y-100537035D01*
X120703690Y-100780528D01*
X120988770Y-101047050D01*
X121172174Y-101227244D01*
X121423677Y-101484505D01*
X121649450Y-101729174D01*
X121859127Y-101972310D01*
X122062343Y-102224974D01*
X122209192Y-102417832D01*
X122607819Y-102986986D01*
X122968705Y-103575187D01*
X123291373Y-104181563D01*
X123575341Y-104805241D01*
X123716440Y-105159510D01*
X123754019Y-105259439D01*
X123785480Y-105344291D01*
X123808077Y-105406561D01*
X123819061Y-105438747D01*
X123819681Y-105441378D01*
X123963885Y-105441378D01*
X123947585Y-105402555D01*
X123932020Y-105362993D01*
X123905999Y-105294303D01*
X123873606Y-105207339D01*
X123849531Y-105141960D01*
X123722977Y-104817397D01*
X123573369Y-104472196D01*
X123438215Y-104183063D01*
X123126527Y-103582862D01*
X122780194Y-103005267D01*
X122400826Y-102451634D01*
X121990038Y-101923316D01*
X121549441Y-101421667D01*
X121080648Y-100948042D01*
X120585272Y-100503795D01*
X120064924Y-100090281D01*
X119521217Y-99708852D01*
X118955764Y-99360864D01*
X118370178Y-99047671D01*
X117766069Y-98770627D01*
X117145052Y-98531086D01*
X116508739Y-98330402D01*
X116450011Y-98314083D01*
X116237047Y-98257166D01*
X116038280Y-98207803D01*
X115842543Y-98163609D01*
X115638665Y-98122197D01*
X115415480Y-98081184D01*
X115161818Y-98038185D01*
X115145603Y-98035525D01*
X115076465Y-98024203D01*
X115076465Y-94750084D01*
X117820686Y-94750084D01*
X117820686Y-96643384D01*
X126266080Y-96643384D01*
X126563902Y-96643384D01*
X126563902Y-96243834D01*
X125159882Y-96243834D01*
X124846105Y-96235296D01*
X124713422Y-96230638D01*
X124615611Y-96224351D01*
X124545003Y-96215501D01*
X124493929Y-96203156D01*
X124457872Y-96188049D01*
X124335058Y-96101797D01*
X124243065Y-95988509D01*
X124202544Y-95904443D01*
X124166308Y-95757396D01*
X124162931Y-95607141D01*
X124190622Y-95462928D01*
X124247589Y-95334008D01*
X124332041Y-95229632D01*
X124333493Y-95228314D01*
X124397688Y-95174653D01*
X124459345Y-95135604D01*
X124527382Y-95108580D01*
X124610718Y-95090996D01*
X124718271Y-95080267D01*
X124858958Y-95073807D01*
X124867378Y-95073539D01*
X125006148Y-95069180D01*
X123928270Y-95069180D01*
X123921840Y-95553141D01*
X123919576Y-95709408D01*
X123917090Y-95829031D01*
X123913803Y-95917910D01*
X123909134Y-95981946D01*
X123902505Y-96027039D01*
X123893336Y-96059090D01*
X123881048Y-96083999D01*
X123867753Y-96103914D01*
X123788700Y-96180610D01*
X123685004Y-96232880D01*
X123568929Y-96257469D01*
X123452736Y-96251123D01*
X123388219Y-96231180D01*
X123304095Y-96177968D01*
X123229925Y-96101038D01*
X123182844Y-96019763D01*
X123175248Y-95977906D01*
X123168928Y-95899339D01*
X123164143Y-95789885D01*
X123162783Y-95728644D01*
X122947487Y-95728644D01*
X122947487Y-95835009D01*
X122500753Y-95835009D01*
X122500753Y-95728644D01*
X122947487Y-95728644D01*
X123162783Y-95728644D01*
X123161155Y-95655369D01*
X123160217Y-95514528D01*
X123160217Y-95069180D01*
X122330569Y-95069180D01*
X122330569Y-96239196D01*
X122202931Y-96239196D01*
X121543467Y-96239196D01*
X121415829Y-96239196D01*
X121415829Y-95691172D01*
X121219053Y-95682005D01*
X121177802Y-95678423D01*
X120608484Y-95678423D01*
X120589062Y-95812260D01*
X120545427Y-95929972D01*
X120532998Y-95951609D01*
X120480538Y-96023890D01*
X120419315Y-96091651D01*
X120390363Y-96117750D01*
X120265210Y-96193280D01*
X120118242Y-96240862D01*
X119961144Y-96258777D01*
X119805603Y-96245306D01*
X119783850Y-96239196D01*
X119178066Y-96239196D01*
X119108884Y-96239196D01*
X119086010Y-96238390D01*
X119066403Y-96232815D01*
X119047078Y-96217735D01*
X119025050Y-96188414D01*
X118997334Y-96140116D01*
X118960946Y-96068106D01*
X118912900Y-95967648D01*
X118850213Y-95834005D01*
X118840733Y-95813736D01*
X118782412Y-95690200D01*
X118729695Y-95580762D01*
X118685323Y-95490933D01*
X118652038Y-95426225D01*
X118632584Y-95392148D01*
X118629062Y-95388275D01*
X118616768Y-95406675D01*
X118589404Y-95458202D01*
X118549711Y-95537344D01*
X118500431Y-95638589D01*
X118444306Y-95756426D01*
X118417390Y-95813736D01*
X118218421Y-96239196D01*
X118077568Y-96239196D01*
X118195718Y-95989238D01*
X118248480Y-95877356D01*
X118312275Y-95741678D01*
X118380170Y-95596973D01*
X118445231Y-95458010D01*
X118465393Y-95414866D01*
X118516057Y-95307800D01*
X118560894Y-95215690D01*
X118596734Y-95144843D01*
X118620406Y-95101563D01*
X118628308Y-95090986D01*
X118639854Y-95109626D01*
X118667016Y-95162107D01*
X118707479Y-95243687D01*
X118758925Y-95349626D01*
X118819040Y-95475182D01*
X118885506Y-95615614D01*
X118908882Y-95665358D01*
X119178066Y-96239196D01*
X119783850Y-96239196D01*
X119708599Y-96218060D01*
X119577174Y-96147614D01*
X119474280Y-96046333D01*
X119401637Y-95916419D01*
X119363491Y-95776508D01*
X119348605Y-95686097D01*
X119862897Y-95686097D01*
X119862897Y-95739280D01*
X119861237Y-95765034D01*
X119850641Y-95780751D01*
X119822685Y-95788910D01*
X119768946Y-95791988D01*
X119682077Y-95792463D01*
X119586582Y-95794249D01*
X119528463Y-95802461D01*
X119502604Y-95821382D01*
X119503887Y-95855294D01*
X119527197Y-95908478D01*
X119532079Y-95917999D01*
X119606201Y-96019108D01*
X119704203Y-96091298D01*
X119818911Y-96134735D01*
X119943153Y-96149583D01*
X120069753Y-96136007D01*
X120191540Y-96094173D01*
X120301340Y-96024245D01*
X120391979Y-95926388D01*
X120410678Y-95897788D01*
X120466166Y-95769424D01*
X120482742Y-95638894D01*
X120463196Y-95512441D01*
X120410324Y-95396308D01*
X120326918Y-95296738D01*
X120215772Y-95219973D01*
X120086755Y-95173795D01*
X119940438Y-95160818D01*
X119798040Y-95189025D01*
X119657029Y-95259007D01*
X119622839Y-95282280D01*
X119506543Y-95365558D01*
X119466786Y-95321626D01*
X119442974Y-95291703D01*
X119443692Y-95269324D01*
X119472531Y-95239952D01*
X119490733Y-95224662D01*
X119546307Y-95185394D01*
X119620910Y-95141266D01*
X119671440Y-95115086D01*
X119736991Y-95086497D01*
X119797739Y-95069444D01*
X119868802Y-95061177D01*
X119965302Y-95058943D01*
X119979899Y-95058951D01*
X120079184Y-95060903D01*
X120150387Y-95068084D01*
X120207897Y-95083236D01*
X120266105Y-95109103D01*
X120279636Y-95116086D01*
X120411227Y-95208294D01*
X120516910Y-95330582D01*
X120570113Y-95426999D01*
X120602549Y-95544618D01*
X120608484Y-95678423D01*
X121177802Y-95678423D01*
X121085395Y-95670399D01*
X120985873Y-95647822D01*
X120912822Y-95611211D01*
X120858573Y-95557503D01*
X120840596Y-95530835D01*
X120804566Y-95433749D01*
X120804731Y-95330195D01*
X120838452Y-95231079D01*
X120903086Y-95147307D01*
X120940514Y-95118200D01*
X120974953Y-95101114D01*
X121022850Y-95088959D01*
X121092231Y-95080623D01*
X121191119Y-95074994D01*
X121271262Y-95072361D01*
X121543467Y-95064907D01*
X121543467Y-96239196D01*
X122202931Y-96239196D01*
X122202931Y-95664824D01*
X121734924Y-95664824D01*
X121734924Y-95558459D01*
X122202931Y-95558459D01*
X122202931Y-95175545D01*
X121734924Y-95175545D01*
X121734924Y-95069180D01*
X122330569Y-95069180D01*
X123160217Y-95069180D01*
X123262926Y-95069180D01*
X123270073Y-95521231D01*
X123272657Y-95671663D01*
X123275459Y-95785735D01*
X123279143Y-95869633D01*
X123284376Y-95929540D01*
X123291825Y-95971641D01*
X123302155Y-96002120D01*
X123316033Y-96027162D01*
X123326152Y-96041887D01*
X123396432Y-96107047D01*
X123484938Y-96141301D01*
X123580680Y-96144672D01*
X123672670Y-96117184D01*
X123749920Y-96058862D01*
X123764572Y-96040920D01*
X123779382Y-96018305D01*
X123790651Y-95991712D01*
X123798980Y-95955098D01*
X123804969Y-95902417D01*
X123809220Y-95827627D01*
X123812333Y-95724682D01*
X123814910Y-95587538D01*
X123815876Y-95525049D01*
X123822708Y-95069180D01*
X123928270Y-95069180D01*
X125006148Y-95069180D01*
X125159882Y-95064351D01*
X125159882Y-96243834D01*
X126563902Y-96243834D01*
X126563902Y-95069180D01*
X126032077Y-95069180D01*
X126032077Y-96239196D01*
X125351340Y-96239196D01*
X125351340Y-96132831D01*
X125904438Y-96132831D01*
X125904438Y-95664824D01*
X125351340Y-95664824D01*
X125351340Y-95558459D01*
X125904438Y-95558459D01*
X125904438Y-95175545D01*
X125351340Y-95175545D01*
X125351340Y-95069180D01*
X126032077Y-95069180D01*
X126563902Y-95069180D01*
X126563902Y-94452262D01*
X114778643Y-94452262D01*
X114778643Y-108705193D01*
X114778643Y-108705193D01*
G37*
X114778643Y-108705193D02*
X126563902Y-108705193D01*
X126563902Y-107120802D01*
X125428311Y-107120802D01*
X125420940Y-107310563D01*
X125380187Y-107482700D01*
X125300719Y-107656707D01*
X125189444Y-107809696D01*
X125052017Y-107938383D01*
X124894089Y-108039485D01*
X124721313Y-108109716D01*
X124539341Y-108145794D01*
X124353826Y-108144433D01*
X124266415Y-108129793D01*
X124161050Y-108103035D01*
X124094069Y-108076661D01*
X124061443Y-108047643D01*
X124059149Y-108012949D01*
X124073054Y-107984262D01*
X124089339Y-107969909D01*
X124119268Y-107967433D01*
X124172678Y-107977348D01*
X124231402Y-107992501D01*
X124416673Y-108021892D01*
X124597669Y-108011051D01*
X124769372Y-107962285D01*
X124926764Y-107877902D01*
X125064824Y-107760209D01*
X125178535Y-107611513D01*
X125218708Y-107538589D01*
X125256162Y-107460008D01*
X125279531Y-107398669D01*
X125292119Y-107339398D01*
X125297226Y-107267022D01*
X125298157Y-107173535D01*
X125297069Y-107075022D01*
X125291603Y-107003869D01*
X125278458Y-106944904D01*
X125254331Y-106882953D01*
X125218708Y-106808481D01*
X125121757Y-106650006D01*
X125001843Y-106524613D01*
X124852947Y-106426358D01*
X124810596Y-106405387D01*
X124649840Y-106350617D01*
X124477277Y-106327587D01*
X124305877Y-106336897D01*
X124158473Y-106375263D01*
X124124021Y-106368826D01*
X124100204Y-106333475D01*
X124086738Y-106293096D01*
X124101470Y-106270664D01*
X124127521Y-106258794D01*
X120692546Y-106258794D01*
X120692546Y-108088275D01*
X120564907Y-108088275D01*
X120564907Y-108028064D01*
X118200561Y-108028064D01*
X118187640Y-108040278D01*
X118145217Y-108042534D01*
X118137930Y-108041928D01*
X118120745Y-108039457D01*
X118104358Y-108033421D01*
X118086734Y-108020552D01*
X118065834Y-107997583D01*
X118039623Y-107961248D01*
X118006063Y-107908279D01*
X117963116Y-107835409D01*
X117908747Y-107739370D01*
X117840918Y-107616896D01*
X117757591Y-107464719D01*
X117656731Y-107279572D01*
X117616403Y-107205444D01*
X117522406Y-107033374D01*
X117434313Y-106873511D01*
X117354243Y-106729602D01*
X117284317Y-106605395D01*
X117226656Y-106504635D01*
X117183380Y-106431071D01*
X117156609Y-106388447D01*
X117148682Y-106379027D01*
X117135435Y-106397815D01*
X117104137Y-106450265D01*
X117056914Y-106532583D01*
X116995890Y-106640976D01*
X116923194Y-106771648D01*
X116840949Y-106920805D01*
X116751284Y-107084654D01*
X116683820Y-107208676D01*
X116576686Y-107405968D01*
X116487759Y-107569112D01*
X116415003Y-107701385D01*
X116356385Y-107806062D01*
X116309870Y-107886419D01*
X116273424Y-107945731D01*
X116245012Y-107987275D01*
X116222601Y-108014327D01*
X116204156Y-108030161D01*
X116187643Y-108038055D01*
X116171027Y-108041283D01*
X116166475Y-108041759D01*
X116119649Y-108042713D01*
X116097784Y-108036114D01*
X116097571Y-108035084D01*
X116107404Y-108013715D01*
X116135399Y-107959196D01*
X116179299Y-107875705D01*
X116236847Y-107767418D01*
X116305786Y-107638512D01*
X116383858Y-107493164D01*
X116468808Y-107335550D01*
X116558378Y-107169848D01*
X116650311Y-107000233D01*
X116742349Y-106830884D01*
X116832237Y-106665976D01*
X116917717Y-106509687D01*
X116996532Y-106366193D01*
X117066425Y-106239671D01*
X117107299Y-106166218D01*
X116683462Y-106166218D01*
X116683022Y-106199388D01*
X116667423Y-106241654D01*
X116633529Y-106304155D01*
X116613501Y-106338413D01*
X116583233Y-106391103D01*
X116535622Y-106475691D01*
X116473696Y-106586721D01*
X116400481Y-106718739D01*
X116319005Y-106866289D01*
X116232295Y-107023915D01*
X116161928Y-107152262D01*
X116049189Y-107358335D01*
X115955136Y-107530252D01*
X115877859Y-107671084D01*
X115815449Y-107783905D01*
X115765997Y-107871787D01*
X115727594Y-107937802D01*
X115698331Y-107985023D01*
X115676298Y-108016522D01*
X115659585Y-108035373D01*
X115646284Y-108044647D01*
X115634486Y-108047417D01*
X115622281Y-108046755D01*
X115607759Y-108045735D01*
X115606730Y-108045729D01*
X115562568Y-108042043D01*
X115544472Y-108033311D01*
X115554405Y-108011240D01*
X115582655Y-107956511D01*
X115626900Y-107873328D01*
X115684816Y-107765894D01*
X115754081Y-107638413D01*
X115832372Y-107495089D01*
X115917366Y-107340125D01*
X116006741Y-107177726D01*
X116098173Y-107012095D01*
X116189340Y-106847435D01*
X116277918Y-106687951D01*
X116361586Y-106537847D01*
X116438020Y-106401325D01*
X116504898Y-106282590D01*
X116559896Y-106185846D01*
X116600691Y-106115296D01*
X116624962Y-106075144D01*
X116630788Y-106067337D01*
X116648145Y-106084834D01*
X116670329Y-106127320D01*
X116671878Y-106131001D01*
X116683462Y-106166218D01*
X117107299Y-106166218D01*
X117111987Y-106157795D01*
X117150598Y-106088705D01*
X117671781Y-107048034D01*
X117772884Y-107234259D01*
X117867812Y-107409357D01*
X117954627Y-107569734D01*
X118031391Y-107711800D01*
X118096165Y-107831960D01*
X118147010Y-107926623D01*
X118181989Y-107992196D01*
X118199163Y-108025085D01*
X118200561Y-108028064D01*
X120564907Y-108028064D01*
X120564907Y-106258794D01*
X120692546Y-106258794D01*
X124127521Y-106258794D01*
X124133643Y-106256005D01*
X124280071Y-106215796D01*
X124441771Y-106199888D01*
X124597768Y-106210306D01*
X124601213Y-106210887D01*
X124793688Y-106263674D01*
X124966111Y-106349902D01*
X125115650Y-106464947D01*
X125239472Y-106604184D01*
X125334744Y-106762989D01*
X125398634Y-106936736D01*
X125428311Y-107120802D01*
X126563902Y-107120802D01*
X126563902Y-96643384D01*
X126266080Y-96643384D01*
X126266080Y-105450419D01*
X123967680Y-105450419D01*
X123963885Y-105441378D01*
X123819681Y-105441378D01*
X123798739Y-105442263D01*
X123737238Y-105443125D01*
X123637164Y-105443958D01*
X123500505Y-105444760D01*
X123329246Y-105445526D01*
X123125375Y-105446252D01*
X122890878Y-105446933D01*
X122627743Y-105447567D01*
X122337955Y-105448148D01*
X122023502Y-105448672D01*
X121686371Y-105449136D01*
X121328547Y-105449534D01*
X120952019Y-105449864D01*
X120558772Y-105450122D01*
X120150793Y-105450302D01*
X119730070Y-105450400D01*
X119448073Y-105450419D01*
X115076465Y-105450419D01*
X115076465Y-98159662D01*
X115262604Y-98188633D01*
X115876768Y-98304874D01*
X116491001Y-98461746D01*
X117101008Y-98657557D01*
X117702492Y-98890616D01*
X118291157Y-99159233D01*
X118862707Y-99461716D01*
X119412844Y-99796374D01*
X119509891Y-99860318D01*
X119836892Y-100085370D01*
X120138016Y-100308129D01*
X120423527Y-100537035D01*
X120703690Y-100780528D01*
X120988770Y-101047050D01*
X121172174Y-101227244D01*
X121423677Y-101484505D01*
X121649450Y-101729174D01*
X121859127Y-101972310D01*
X122062343Y-102224974D01*
X122209192Y-102417832D01*
X122607819Y-102986986D01*
X122968705Y-103575187D01*
X123291373Y-104181563D01*
X123575341Y-104805241D01*
X123716440Y-105159510D01*
X123754019Y-105259439D01*
X123785480Y-105344291D01*
X123808077Y-105406561D01*
X123819061Y-105438747D01*
X123819681Y-105441378D01*
X123963885Y-105441378D01*
X123947585Y-105402555D01*
X123932020Y-105362993D01*
X123905999Y-105294303D01*
X123873606Y-105207339D01*
X123849531Y-105141960D01*
X123722977Y-104817397D01*
X123573369Y-104472196D01*
X123438215Y-104183063D01*
X123126527Y-103582862D01*
X122780194Y-103005267D01*
X122400826Y-102451634D01*
X121990038Y-101923316D01*
X121549441Y-101421667D01*
X121080648Y-100948042D01*
X120585272Y-100503795D01*
X120064924Y-100090281D01*
X119521217Y-99708852D01*
X118955764Y-99360864D01*
X118370178Y-99047671D01*
X117766069Y-98770627D01*
X117145052Y-98531086D01*
X116508739Y-98330402D01*
X116450011Y-98314083D01*
X116237047Y-98257166D01*
X116038280Y-98207803D01*
X115842543Y-98163609D01*
X115638665Y-98122197D01*
X115415480Y-98081184D01*
X115161818Y-98038185D01*
X115145603Y-98035525D01*
X115076465Y-98024203D01*
X115076465Y-94750084D01*
X117820686Y-94750084D01*
X117820686Y-96643384D01*
X126266080Y-96643384D01*
X126563902Y-96643384D01*
X126563902Y-96243834D01*
X125159882Y-96243834D01*
X124846105Y-96235296D01*
X124713422Y-96230638D01*
X124615611Y-96224351D01*
X124545003Y-96215501D01*
X124493929Y-96203156D01*
X124457872Y-96188049D01*
X124335058Y-96101797D01*
X124243065Y-95988509D01*
X124202544Y-95904443D01*
X124166308Y-95757396D01*
X124162931Y-95607141D01*
X124190622Y-95462928D01*
X124247589Y-95334008D01*
X124332041Y-95229632D01*
X124333493Y-95228314D01*
X124397688Y-95174653D01*
X124459345Y-95135604D01*
X124527382Y-95108580D01*
X124610718Y-95090996D01*
X124718271Y-95080267D01*
X124858958Y-95073807D01*
X124867378Y-95073539D01*
X125006148Y-95069180D01*
X123928270Y-95069180D01*
X123921840Y-95553141D01*
X123919576Y-95709408D01*
X123917090Y-95829031D01*
X123913803Y-95917910D01*
X123909134Y-95981946D01*
X123902505Y-96027039D01*
X123893336Y-96059090D01*
X123881048Y-96083999D01*
X123867753Y-96103914D01*
X123788700Y-96180610D01*
X123685004Y-96232880D01*
X123568929Y-96257469D01*
X123452736Y-96251123D01*
X123388219Y-96231180D01*
X123304095Y-96177968D01*
X123229925Y-96101038D01*
X123182844Y-96019763D01*
X123175248Y-95977906D01*
X123168928Y-95899339D01*
X123164143Y-95789885D01*
X123162783Y-95728644D01*
X122947487Y-95728644D01*
X122947487Y-95835009D01*
X122500753Y-95835009D01*
X122500753Y-95728644D01*
X122947487Y-95728644D01*
X123162783Y-95728644D01*
X123161155Y-95655369D01*
X123160217Y-95514528D01*
X123160217Y-95069180D01*
X122330569Y-95069180D01*
X122330569Y-96239196D01*
X122202931Y-96239196D01*
X121543467Y-96239196D01*
X121415829Y-96239196D01*
X121415829Y-95691172D01*
X121219053Y-95682005D01*
X121177802Y-95678423D01*
X120608484Y-95678423D01*
X120589062Y-95812260D01*
X120545427Y-95929972D01*
X120532998Y-95951609D01*
X120480538Y-96023890D01*
X120419315Y-96091651D01*
X120390363Y-96117750D01*
X120265210Y-96193280D01*
X120118242Y-96240862D01*
X119961144Y-96258777D01*
X119805603Y-96245306D01*
X119783850Y-96239196D01*
X119178066Y-96239196D01*
X119108884Y-96239196D01*
X119086010Y-96238390D01*
X119066403Y-96232815D01*
X119047078Y-96217735D01*
X119025050Y-96188414D01*
X118997334Y-96140116D01*
X118960946Y-96068106D01*
X118912900Y-95967648D01*
X118850213Y-95834005D01*
X118840733Y-95813736D01*
X118782412Y-95690200D01*
X118729695Y-95580762D01*
X118685323Y-95490933D01*
X118652038Y-95426225D01*
X118632584Y-95392148D01*
X118629062Y-95388275D01*
X118616768Y-95406675D01*
X118589404Y-95458202D01*
X118549711Y-95537344D01*
X118500431Y-95638589D01*
X118444306Y-95756426D01*
X118417390Y-95813736D01*
X118218421Y-96239196D01*
X118077568Y-96239196D01*
X118195718Y-95989238D01*
X118248480Y-95877356D01*
X118312275Y-95741678D01*
X118380170Y-95596973D01*
X118445231Y-95458010D01*
X118465393Y-95414866D01*
X118516057Y-95307800D01*
X118560894Y-95215690D01*
X118596734Y-95144843D01*
X118620406Y-95101563D01*
X118628308Y-95090986D01*
X118639854Y-95109626D01*
X118667016Y-95162107D01*
X118707479Y-95243687D01*
X118758925Y-95349626D01*
X118819040Y-95475182D01*
X118885506Y-95615614D01*
X118908882Y-95665358D01*
X119178066Y-96239196D01*
X119783850Y-96239196D01*
X119708599Y-96218060D01*
X119577174Y-96147614D01*
X119474280Y-96046333D01*
X119401637Y-95916419D01*
X119363491Y-95776508D01*
X119348605Y-95686097D01*
X119862897Y-95686097D01*
X119862897Y-95739280D01*
X119861237Y-95765034D01*
X119850641Y-95780751D01*
X119822685Y-95788910D01*
X119768946Y-95791988D01*
X119682077Y-95792463D01*
X119586582Y-95794249D01*
X119528463Y-95802461D01*
X119502604Y-95821382D01*
X119503887Y-95855294D01*
X119527197Y-95908478D01*
X119532079Y-95917999D01*
X119606201Y-96019108D01*
X119704203Y-96091298D01*
X119818911Y-96134735D01*
X119943153Y-96149583D01*
X120069753Y-96136007D01*
X120191540Y-96094173D01*
X120301340Y-96024245D01*
X120391979Y-95926388D01*
X120410678Y-95897788D01*
X120466166Y-95769424D01*
X120482742Y-95638894D01*
X120463196Y-95512441D01*
X120410324Y-95396308D01*
X120326918Y-95296738D01*
X120215772Y-95219973D01*
X120086755Y-95173795D01*
X119940438Y-95160818D01*
X119798040Y-95189025D01*
X119657029Y-95259007D01*
X119622839Y-95282280D01*
X119506543Y-95365558D01*
X119466786Y-95321626D01*
X119442974Y-95291703D01*
X119443692Y-95269324D01*
X119472531Y-95239952D01*
X119490733Y-95224662D01*
X119546307Y-95185394D01*
X119620910Y-95141266D01*
X119671440Y-95115086D01*
X119736991Y-95086497D01*
X119797739Y-95069444D01*
X119868802Y-95061177D01*
X119965302Y-95058943D01*
X119979899Y-95058951D01*
X120079184Y-95060903D01*
X120150387Y-95068084D01*
X120207897Y-95083236D01*
X120266105Y-95109103D01*
X120279636Y-95116086D01*
X120411227Y-95208294D01*
X120516910Y-95330582D01*
X120570113Y-95426999D01*
X120602549Y-95544618D01*
X120608484Y-95678423D01*
X121177802Y-95678423D01*
X121085395Y-95670399D01*
X120985873Y-95647822D01*
X120912822Y-95611211D01*
X120858573Y-95557503D01*
X120840596Y-95530835D01*
X120804566Y-95433749D01*
X120804731Y-95330195D01*
X120838452Y-95231079D01*
X120903086Y-95147307D01*
X120940514Y-95118200D01*
X120974953Y-95101114D01*
X121022850Y-95088959D01*
X121092231Y-95080623D01*
X121191119Y-95074994D01*
X121271262Y-95072361D01*
X121543467Y-95064907D01*
X121543467Y-96239196D01*
X122202931Y-96239196D01*
X122202931Y-95664824D01*
X121734924Y-95664824D01*
X121734924Y-95558459D01*
X122202931Y-95558459D01*
X122202931Y-95175545D01*
X121734924Y-95175545D01*
X121734924Y-95069180D01*
X122330569Y-95069180D01*
X123160217Y-95069180D01*
X123262926Y-95069180D01*
X123270073Y-95521231D01*
X123272657Y-95671663D01*
X123275459Y-95785735D01*
X123279143Y-95869633D01*
X123284376Y-95929540D01*
X123291825Y-95971641D01*
X123302155Y-96002120D01*
X123316033Y-96027162D01*
X123326152Y-96041887D01*
X123396432Y-96107047D01*
X123484938Y-96141301D01*
X123580680Y-96144672D01*
X123672670Y-96117184D01*
X123749920Y-96058862D01*
X123764572Y-96040920D01*
X123779382Y-96018305D01*
X123790651Y-95991712D01*
X123798980Y-95955098D01*
X123804969Y-95902417D01*
X123809220Y-95827627D01*
X123812333Y-95724682D01*
X123814910Y-95587538D01*
X123815876Y-95525049D01*
X123822708Y-95069180D01*
X123928270Y-95069180D01*
X125006148Y-95069180D01*
X125159882Y-95064351D01*
X125159882Y-96243834D01*
X126563902Y-96243834D01*
X126563902Y-95069180D01*
X126032077Y-95069180D01*
X126032077Y-96239196D01*
X125351340Y-96239196D01*
X125351340Y-96132831D01*
X125904438Y-96132831D01*
X125904438Y-95664824D01*
X125351340Y-95664824D01*
X125351340Y-95558459D01*
X125904438Y-95558459D01*
X125904438Y-95175545D01*
X125351340Y-95175545D01*
X125351340Y-95069180D01*
X126032077Y-95069180D01*
X126563902Y-95069180D01*
X126563902Y-94452262D01*
X114778643Y-94452262D01*
X114778643Y-108705193D01*
G36*
X124673794Y-102047174D02*
X124504692Y-102097504D01*
X124345392Y-102180474D01*
X124200686Y-102296263D01*
X124075361Y-102445049D01*
X124022232Y-102530493D01*
X123946337Y-102707476D01*
X123909673Y-102891233D01*
X123910691Y-103076412D01*
X123947840Y-103257662D01*
X124019571Y-103429631D01*
X124124334Y-103586969D01*
X124260577Y-103724325D01*
X124395395Y-103818699D01*
X124551151Y-103887621D01*
X124726770Y-103927360D01*
X124909793Y-103936397D01*
X125087763Y-103913216D01*
X125115159Y-103906356D01*
X125292240Y-103837113D01*
X125451828Y-103730688D01*
X125590557Y-103590032D01*
X125705063Y-103418094D01*
X125731885Y-103365662D01*
X125766635Y-103291028D01*
X125788943Y-103231977D01*
X125801555Y-103174820D01*
X125807219Y-103105868D01*
X125808679Y-103011432D01*
X125808710Y-102982747D01*
X125808019Y-102897541D01*
X125682673Y-102897541D01*
X125681929Y-103067363D01*
X125674742Y-103114360D01*
X125620778Y-103297352D01*
X125532850Y-103458287D01*
X125414355Y-103593407D01*
X125268691Y-103698955D01*
X125099256Y-103771175D01*
X125074274Y-103778293D01*
X124931212Y-103805971D01*
X124797770Y-103805743D01*
X124659117Y-103779380D01*
X124483289Y-103712912D01*
X124332238Y-103613149D01*
X124208828Y-103483267D01*
X124115924Y-103326441D01*
X124056389Y-103145845D01*
X124047801Y-103101769D01*
X124038036Y-102925937D01*
X124067243Y-102756910D01*
X124131893Y-102599503D01*
X124228459Y-102458530D01*
X124353412Y-102338806D01*
X124503224Y-102245146D01*
X124674369Y-102182365D01*
X124730530Y-102170050D01*
X124901549Y-102158480D01*
X125066528Y-102185015D01*
X125221058Y-102245248D01*
X125360731Y-102334767D01*
X125481137Y-102449166D01*
X125577869Y-102584033D01*
X125646517Y-102734962D01*
X125682673Y-102897541D01*
X125808019Y-102897541D01*
X125807877Y-102880087D01*
X125803502Y-102806103D01*
X125792766Y-102746930D01*
X125772852Y-102688705D01*
X125740942Y-102617563D01*
X125729678Y-102593869D01*
X125626060Y-102420692D01*
X125498719Y-102278912D01*
X125352444Y-102168705D01*
X125192024Y-102090250D01*
X125022250Y-102043725D01*
X124847910Y-102029306D01*
X124673794Y-102047174D01*
X124673794Y-102047174D01*
G37*
X124673794Y-102047174D02*
X124504692Y-102097504D01*
X124345392Y-102180474D01*
X124200686Y-102296263D01*
X124075361Y-102445049D01*
X124022232Y-102530493D01*
X123946337Y-102707476D01*
X123909673Y-102891233D01*
X123910691Y-103076412D01*
X123947840Y-103257662D01*
X124019571Y-103429631D01*
X124124334Y-103586969D01*
X124260577Y-103724325D01*
X124395395Y-103818699D01*
X124551151Y-103887621D01*
X124726770Y-103927360D01*
X124909793Y-103936397D01*
X125087763Y-103913216D01*
X125115159Y-103906356D01*
X125292240Y-103837113D01*
X125451828Y-103730688D01*
X125590557Y-103590032D01*
X125705063Y-103418094D01*
X125731885Y-103365662D01*
X125766635Y-103291028D01*
X125788943Y-103231977D01*
X125801555Y-103174820D01*
X125807219Y-103105868D01*
X125808679Y-103011432D01*
X125808710Y-102982747D01*
X125808019Y-102897541D01*
X125682673Y-102897541D01*
X125681929Y-103067363D01*
X125674742Y-103114360D01*
X125620778Y-103297352D01*
X125532850Y-103458287D01*
X125414355Y-103593407D01*
X125268691Y-103698955D01*
X125099256Y-103771175D01*
X125074274Y-103778293D01*
X124931212Y-103805971D01*
X124797770Y-103805743D01*
X124659117Y-103779380D01*
X124483289Y-103712912D01*
X124332238Y-103613149D01*
X124208828Y-103483267D01*
X124115924Y-103326441D01*
X124056389Y-103145845D01*
X124047801Y-103101769D01*
X124038036Y-102925937D01*
X124067243Y-102756910D01*
X124131893Y-102599503D01*
X124228459Y-102458530D01*
X124353412Y-102338806D01*
X124503224Y-102245146D01*
X124674369Y-102182365D01*
X124730530Y-102170050D01*
X124901549Y-102158480D01*
X125066528Y-102185015D01*
X125221058Y-102245248D01*
X125360731Y-102334767D01*
X125481137Y-102449166D01*
X125577869Y-102584033D01*
X125646517Y-102734962D01*
X125682673Y-102897541D01*
X125808019Y-102897541D01*
X125807877Y-102880087D01*
X125803502Y-102806103D01*
X125792766Y-102746930D01*
X125772852Y-102688705D01*
X125740942Y-102617563D01*
X125729678Y-102593869D01*
X125626060Y-102420692D01*
X125498719Y-102278912D01*
X125352444Y-102168705D01*
X125192024Y-102090250D01*
X125022250Y-102043725D01*
X124847910Y-102029306D01*
X124673794Y-102047174D01*
G36*
X123384748Y-97359240D02*
X123241988Y-97371167D01*
X123125635Y-97391563D01*
X123117671Y-97393616D01*
X122932434Y-97456859D01*
X122742900Y-97546437D01*
X122563840Y-97654274D01*
X122410021Y-97772297D01*
X122387291Y-97792936D01*
X122258727Y-97920537D01*
X122157445Y-98040177D01*
X122073615Y-98164705D01*
X122003463Y-98294617D01*
X121902816Y-98544597D01*
X121842372Y-98802225D01*
X121821986Y-99063162D01*
X121841515Y-99323070D01*
X121900814Y-99577610D01*
X121999740Y-99822446D01*
X122057739Y-99929305D01*
X122139315Y-100047424D01*
X122247513Y-100175211D01*
X122371601Y-100301965D01*
X122500849Y-100416981D01*
X122624526Y-100509559D01*
X122664977Y-100534954D01*
X122886595Y-100645025D01*
X123117479Y-100717717D01*
X123365407Y-100755218D01*
X123468676Y-100760784D01*
X123580775Y-100762137D01*
X123688531Y-100760058D01*
X123778494Y-100754993D01*
X123830318Y-100748786D01*
X124080070Y-100683425D01*
X124312435Y-100581289D01*
X124530414Y-100440747D01*
X124737005Y-100260168D01*
X124745843Y-100251315D01*
X124916671Y-100054511D01*
X125050177Y-99843553D01*
X125151143Y-99610299D01*
X125185158Y-99503156D01*
X125217750Y-99345483D01*
X125234574Y-99164073D01*
X125235052Y-99077139D01*
X125110745Y-99077139D01*
X125086366Y-99330129D01*
X125021176Y-99582687D01*
X125019539Y-99587447D01*
X124918569Y-99816216D01*
X124782827Y-100023886D01*
X124616158Y-100207218D01*
X124422406Y-100362973D01*
X124205414Y-100487913D01*
X123969027Y-100578799D01*
X123793355Y-100620551D01*
X123692427Y-100631059D01*
X123564874Y-100633381D01*
X123425672Y-100628242D01*
X123289798Y-100616366D01*
X123172228Y-100598477D01*
X123128308Y-100588399D01*
X122901291Y-100506749D01*
X122686033Y-100388134D01*
X122488819Y-100237768D01*
X122315934Y-100060866D01*
X122173665Y-99862642D01*
X122109035Y-99742857D01*
X122043586Y-99592000D01*
X121999438Y-99452400D01*
X121973315Y-99308918D01*
X121961940Y-99146413D01*
X121960755Y-99057873D01*
X121966294Y-98880571D01*
X121985080Y-98729552D01*
X122020362Y-98589746D01*
X122075394Y-98446082D01*
X122108111Y-98374811D01*
X122235600Y-98156207D01*
X122395493Y-97962432D01*
X122583605Y-97796598D01*
X122795751Y-97661819D01*
X123027747Y-97561208D01*
X123275409Y-97497878D01*
X123289966Y-97495447D01*
X123535283Y-97476729D01*
X123781042Y-97498262D01*
X124021617Y-97558188D01*
X124251381Y-97654647D01*
X124464710Y-97785780D01*
X124651785Y-97945520D01*
X124818042Y-98140750D01*
X124947961Y-98355522D01*
X125040648Y-98585840D01*
X125095208Y-98827711D01*
X125110745Y-99077139D01*
X125235052Y-99077139D01*
X125235619Y-98974306D01*
X125220871Y-98791561D01*
X125190316Y-98631220D01*
X125185937Y-98615428D01*
X125089849Y-98354814D01*
X124959675Y-98118680D01*
X124797458Y-97909039D01*
X124605244Y-97727903D01*
X124385075Y-97577287D01*
X124138998Y-97459204D01*
X123947319Y-97395567D01*
X123835200Y-97373944D01*
X123694981Y-97360660D01*
X123540288Y-97355748D01*
X123384748Y-97359240D01*
X123384748Y-97359240D01*
G37*
X123384748Y-97359240D02*
X123241988Y-97371167D01*
X123125635Y-97391563D01*
X123117671Y-97393616D01*
X122932434Y-97456859D01*
X122742900Y-97546437D01*
X122563840Y-97654274D01*
X122410021Y-97772297D01*
X122387291Y-97792936D01*
X122258727Y-97920537D01*
X122157445Y-98040177D01*
X122073615Y-98164705D01*
X122003463Y-98294617D01*
X121902816Y-98544597D01*
X121842372Y-98802225D01*
X121821986Y-99063162D01*
X121841515Y-99323070D01*
X121900814Y-99577610D01*
X121999740Y-99822446D01*
X122057739Y-99929305D01*
X122139315Y-100047424D01*
X122247513Y-100175211D01*
X122371601Y-100301965D01*
X122500849Y-100416981D01*
X122624526Y-100509559D01*
X122664977Y-100534954D01*
X122886595Y-100645025D01*
X123117479Y-100717717D01*
X123365407Y-100755218D01*
X123468676Y-100760784D01*
X123580775Y-100762137D01*
X123688531Y-100760058D01*
X123778494Y-100754993D01*
X123830318Y-100748786D01*
X124080070Y-100683425D01*
X124312435Y-100581289D01*
X124530414Y-100440747D01*
X124737005Y-100260168D01*
X124745843Y-100251315D01*
X124916671Y-100054511D01*
X125050177Y-99843553D01*
X125151143Y-99610299D01*
X125185158Y-99503156D01*
X125217750Y-99345483D01*
X125234574Y-99164073D01*
X125235052Y-99077139D01*
X125110745Y-99077139D01*
X125086366Y-99330129D01*
X125021176Y-99582687D01*
X125019539Y-99587447D01*
X124918569Y-99816216D01*
X124782827Y-100023886D01*
X124616158Y-100207218D01*
X124422406Y-100362973D01*
X124205414Y-100487913D01*
X123969027Y-100578799D01*
X123793355Y-100620551D01*
X123692427Y-100631059D01*
X123564874Y-100633381D01*
X123425672Y-100628242D01*
X123289798Y-100616366D01*
X123172228Y-100598477D01*
X123128308Y-100588399D01*
X122901291Y-100506749D01*
X122686033Y-100388134D01*
X122488819Y-100237768D01*
X122315934Y-100060866D01*
X122173665Y-99862642D01*
X122109035Y-99742857D01*
X122043586Y-99592000D01*
X121999438Y-99452400D01*
X121973315Y-99308918D01*
X121961940Y-99146413D01*
X121960755Y-99057873D01*
X121966294Y-98880571D01*
X121985080Y-98729552D01*
X122020362Y-98589746D01*
X122075394Y-98446082D01*
X122108111Y-98374811D01*
X122235600Y-98156207D01*
X122395493Y-97962432D01*
X122583605Y-97796598D01*
X122795751Y-97661819D01*
X123027747Y-97561208D01*
X123275409Y-97497878D01*
X123289966Y-97495447D01*
X123535283Y-97476729D01*
X123781042Y-97498262D01*
X124021617Y-97558188D01*
X124251381Y-97654647D01*
X124464710Y-97785780D01*
X124651785Y-97945520D01*
X124818042Y-98140750D01*
X124947961Y-98355522D01*
X125040648Y-98585840D01*
X125095208Y-98827711D01*
X125110745Y-99077139D01*
X125235052Y-99077139D01*
X125235619Y-98974306D01*
X125220871Y-98791561D01*
X125190316Y-98631220D01*
X125185937Y-98615428D01*
X125089849Y-98354814D01*
X124959675Y-98118680D01*
X124797458Y-97909039D01*
X124605244Y-97727903D01*
X124385075Y-97577287D01*
X124138998Y-97459204D01*
X123947319Y-97395567D01*
X123835200Y-97373944D01*
X123694981Y-97360660D01*
X123540288Y-97355748D01*
X123384748Y-97359240D01*
G36*
X119226242Y-97199514D02*
X119049705Y-97260475D01*
X118966610Y-97303813D01*
X118802744Y-97422136D01*
X118671094Y-97564330D01*
X118573063Y-97725466D01*
X118510053Y-97900615D01*
X118483467Y-98084851D01*
X118494707Y-98273244D01*
X118545175Y-98460866D01*
X118602153Y-98584646D01*
X118658481Y-98666939D01*
X118739025Y-98758398D01*
X118831474Y-98847010D01*
X118923519Y-98920763D01*
X118987045Y-98960213D01*
X119168344Y-99029730D01*
X119362771Y-99063270D01*
X119559270Y-99059668D01*
X119692197Y-99034407D01*
X119865130Y-98966715D01*
X120023317Y-98863617D01*
X120160578Y-98731379D01*
X120270732Y-98576271D01*
X120347596Y-98404560D01*
X120362131Y-98355053D01*
X120387441Y-98193291D01*
X120257152Y-98193291D01*
X120246409Y-98265728D01*
X120195729Y-98437000D01*
X120113687Y-98584322D01*
X120018540Y-98694823D01*
X119873340Y-98810596D01*
X119711272Y-98890273D01*
X119538302Y-98932201D01*
X119360397Y-98934725D01*
X119235343Y-98911954D01*
X119059094Y-98843633D01*
X118905333Y-98740152D01*
X118777517Y-98604402D01*
X118684898Y-98451592D01*
X118651910Y-98377891D01*
X118632052Y-98315645D01*
X118622094Y-98248789D01*
X118618808Y-98161260D01*
X118618637Y-98121860D01*
X118620364Y-98022637D01*
X118627685Y-97949747D01*
X118643810Y-97887040D01*
X118671950Y-97818369D01*
X118684191Y-97792128D01*
X118778709Y-97638278D01*
X118901257Y-97509816D01*
X119045624Y-97410057D01*
X119205601Y-97342316D01*
X119374978Y-97309908D01*
X119547545Y-97316148D01*
X119568967Y-97319799D01*
X119746129Y-97372103D01*
X119902712Y-97456532D01*
X120035294Y-97568308D01*
X120140452Y-97702651D01*
X120214762Y-97854782D01*
X120254804Y-98019922D01*
X120257152Y-98193291D01*
X120387441Y-98193291D01*
X120391749Y-98165764D01*
X120383039Y-97984470D01*
X120339918Y-97814122D01*
X120266303Y-97657671D01*
X120166112Y-97518068D01*
X120043262Y-97398264D01*
X119901671Y-97301210D01*
X119745256Y-97229857D01*
X119577934Y-97187156D01*
X119403624Y-97176058D01*
X119226242Y-97199514D01*
X119226242Y-97199514D01*
G37*
X119226242Y-97199514D02*
X119049705Y-97260475D01*
X118966610Y-97303813D01*
X118802744Y-97422136D01*
X118671094Y-97564330D01*
X118573063Y-97725466D01*
X118510053Y-97900615D01*
X118483467Y-98084851D01*
X118494707Y-98273244D01*
X118545175Y-98460866D01*
X118602153Y-98584646D01*
X118658481Y-98666939D01*
X118739025Y-98758398D01*
X118831474Y-98847010D01*
X118923519Y-98920763D01*
X118987045Y-98960213D01*
X119168344Y-99029730D01*
X119362771Y-99063270D01*
X119559270Y-99059668D01*
X119692197Y-99034407D01*
X119865130Y-98966715D01*
X120023317Y-98863617D01*
X120160578Y-98731379D01*
X120270732Y-98576271D01*
X120347596Y-98404560D01*
X120362131Y-98355053D01*
X120387441Y-98193291D01*
X120257152Y-98193291D01*
X120246409Y-98265728D01*
X120195729Y-98437000D01*
X120113687Y-98584322D01*
X120018540Y-98694823D01*
X119873340Y-98810596D01*
X119711272Y-98890273D01*
X119538302Y-98932201D01*
X119360397Y-98934725D01*
X119235343Y-98911954D01*
X119059094Y-98843633D01*
X118905333Y-98740152D01*
X118777517Y-98604402D01*
X118684898Y-98451592D01*
X118651910Y-98377891D01*
X118632052Y-98315645D01*
X118622094Y-98248789D01*
X118618808Y-98161260D01*
X118618637Y-98121860D01*
X118620364Y-98022637D01*
X118627685Y-97949747D01*
X118643810Y-97887040D01*
X118671950Y-97818369D01*
X118684191Y-97792128D01*
X118778709Y-97638278D01*
X118901257Y-97509816D01*
X119045624Y-97410057D01*
X119205601Y-97342316D01*
X119374978Y-97309908D01*
X119547545Y-97316148D01*
X119568967Y-97319799D01*
X119746129Y-97372103D01*
X119902712Y-97456532D01*
X120035294Y-97568308D01*
X120140452Y-97702651D01*
X120214762Y-97854782D01*
X120254804Y-98019922D01*
X120257152Y-98193291D01*
X120387441Y-98193291D01*
X120391749Y-98165764D01*
X120383039Y-97984470D01*
X120339918Y-97814122D01*
X120266303Y-97657671D01*
X120166112Y-97518068D01*
X120043262Y-97398264D01*
X119901671Y-97301210D01*
X119745256Y-97229857D01*
X119577934Y-97187156D01*
X119403624Y-97176058D01*
X119226242Y-97199514D01*
G36*
X124828843Y-95181429D02*
X124675116Y-95198326D01*
X124554886Y-95230502D01*
X124460862Y-95281128D01*
X124385755Y-95353377D01*
X124362631Y-95384297D01*
X124326938Y-95442754D01*
X124305996Y-95500389D01*
X124294973Y-95573922D01*
X124291163Y-95631558D01*
X124296856Y-95780030D01*
X124331373Y-95900669D01*
X124396209Y-95994731D01*
X124492857Y-96063475D01*
X124622811Y-96108160D01*
X124787564Y-96130044D01*
X124886236Y-96132831D01*
X125032244Y-96132831D01*
X125032244Y-95169294D01*
X124828843Y-95181429D01*
X124828843Y-95181429D01*
G37*
X124828843Y-95181429D02*
X124675116Y-95198326D01*
X124554886Y-95230502D01*
X124460862Y-95281128D01*
X124385755Y-95353377D01*
X124362631Y-95384297D01*
X124326938Y-95442754D01*
X124305996Y-95500389D01*
X124294973Y-95573922D01*
X124291163Y-95631558D01*
X124296856Y-95780030D01*
X124331373Y-95900669D01*
X124396209Y-95994731D01*
X124492857Y-96063475D01*
X124622811Y-96108160D01*
X124787564Y-96130044D01*
X124886236Y-96132831D01*
X125032244Y-96132831D01*
X125032244Y-95169294D01*
X124828843Y-95181429D01*
G36*
X121222515Y-95178746D02*
X121129633Y-95183199D01*
X121068757Y-95189839D01*
X121029353Y-95201556D01*
X121000887Y-95221240D01*
X120977875Y-95245868D01*
X120934925Y-95323598D01*
X120926549Y-95377639D01*
X120946332Y-95460964D01*
X120977875Y-95509409D01*
X121005278Y-95537958D01*
X121034824Y-95556128D01*
X121077047Y-95566807D01*
X121142483Y-95572887D01*
X121222515Y-95576531D01*
X121415829Y-95583966D01*
X121415829Y-95171311D01*
X121222515Y-95178746D01*
X121222515Y-95178746D01*
G37*
X121222515Y-95178746D02*
X121129633Y-95183199D01*
X121068757Y-95189839D01*
X121029353Y-95201556D01*
X121000887Y-95221240D01*
X120977875Y-95245868D01*
X120934925Y-95323598D01*
X120926549Y-95377639D01*
X120946332Y-95460964D01*
X120977875Y-95509409D01*
X121005278Y-95537958D01*
X121034824Y-95556128D01*
X121077047Y-95566807D01*
X121142483Y-95572887D01*
X121222515Y-95576531D01*
X121415829Y-95583966D01*
X121415829Y-95171311D01*
X121222515Y-95178746D01*
G04 #@! TO.C,FID4*
D11*
X106557142Y-109242857D02*
X106823809Y-109242857D01*
X106823809Y-109661904D02*
X106823809Y-108861904D01*
X106442857Y-108861904D01*
X106138095Y-109661904D02*
X106138095Y-108861904D01*
X105757142Y-109661904D02*
X105757142Y-108861904D01*
X105566666Y-108861904D01*
X105452380Y-108900000D01*
X105376190Y-108976190D01*
X105338095Y-109052380D01*
X105300000Y-109204761D01*
X105300000Y-109319047D01*
X105338095Y-109471428D01*
X105376190Y-109547619D01*
X105452380Y-109623809D01*
X105566666Y-109661904D01*
X105757142Y-109661904D01*
X104614285Y-109128571D02*
X104614285Y-109661904D01*
X104804761Y-108823809D02*
X104995238Y-109395238D01*
X104500000Y-109395238D01*
G04 #@! TO.C,FID6*
X166607142Y-76892857D02*
X166873809Y-76892857D01*
X166873809Y-77311904D02*
X166873809Y-76511904D01*
X166492857Y-76511904D01*
X166188095Y-77311904D02*
X166188095Y-76511904D01*
X165807142Y-77311904D02*
X165807142Y-76511904D01*
X165616666Y-76511904D01*
X165502380Y-76550000D01*
X165426190Y-76626190D01*
X165388095Y-76702380D01*
X165350000Y-76854761D01*
X165350000Y-76969047D01*
X165388095Y-77121428D01*
X165426190Y-77197619D01*
X165502380Y-77273809D01*
X165616666Y-77311904D01*
X165807142Y-77311904D01*
X164664285Y-76511904D02*
X164816666Y-76511904D01*
X164892857Y-76550000D01*
X164930952Y-76588095D01*
X165007142Y-76702380D01*
X165045238Y-76854761D01*
X165045238Y-77159523D01*
X165007142Y-77235714D01*
X164969047Y-77273809D01*
X164892857Y-77311904D01*
X164740476Y-77311904D01*
X164664285Y-77273809D01*
X164626190Y-77235714D01*
X164588095Y-77159523D01*
X164588095Y-76969047D01*
X164626190Y-76892857D01*
X164664285Y-76854761D01*
X164740476Y-76816666D01*
X164892857Y-76816666D01*
X164969047Y-76854761D01*
X165007142Y-76892857D01*
X165045238Y-76969047D01*
G04 #@! TO.C,FID5*
X108457142Y-67442857D02*
X108723809Y-67442857D01*
X108723809Y-67861904D02*
X108723809Y-67061904D01*
X108342857Y-67061904D01*
X108038095Y-67861904D02*
X108038095Y-67061904D01*
X107657142Y-67861904D02*
X107657142Y-67061904D01*
X107466666Y-67061904D01*
X107352380Y-67100000D01*
X107276190Y-67176190D01*
X107238095Y-67252380D01*
X107200000Y-67404761D01*
X107200000Y-67519047D01*
X107238095Y-67671428D01*
X107276190Y-67747619D01*
X107352380Y-67823809D01*
X107466666Y-67861904D01*
X107657142Y-67861904D01*
X106476190Y-67061904D02*
X106857142Y-67061904D01*
X106895238Y-67442857D01*
X106857142Y-67404761D01*
X106780952Y-67366666D01*
X106590476Y-67366666D01*
X106514285Y-67404761D01*
X106476190Y-67442857D01*
X106438095Y-67519047D01*
X106438095Y-67709523D01*
X106476190Y-67785714D01*
X106514285Y-67823809D01*
X106590476Y-67861904D01*
X106780952Y-67861904D01*
X106857142Y-67823809D01*
X106895238Y-67785714D01*
G04 #@! TD*
M02*
