M48
;DRILL file {KiCad 5.0.2-bee76a0~70~ubuntu16.04.1} date jue 07 may 2020 16:49:29 -03
;FORMAT={-:-/ absolute / inch / decimal}
FMAT,2
INCH,TZ
T1C0.0157
T2C0.0256
T3C0.0325
T4C0.0394
T5C0.1028
%
G90
G05
T1
X4.0787Y-4.3917
X4.0787Y-4.4469
X4.0787Y-4.502
X4.0787Y-4.5571
X4.2441Y-3.4193
X4.2441Y-4.4035
X4.2587Y-3.4654
X4.2598Y-3.9213
X4.2618Y-3.9921
X4.2638Y-2.4646
X4.2641Y-4.0794
X4.2715Y-2.9732
X4.2728Y-3.0125
X4.2756Y-4.1319
X4.2776Y-3.1752
X4.3327Y-3.2717
X4.3524Y-2.4646
X4.3524Y-2.7008
X4.3618Y-3.3075
X4.378Y-4.4035
X4.38Y-3.98
X4.3858Y-2.9705
X4.5118Y-4.4035
X4.5433Y-2.937
X4.6358Y-2.939
X4.6457Y-4.4035
X4.6823Y-3.9854
X4.6969Y-2.7461
X4.7323Y-4.7244
X4.7795Y-3.2402
X4.8189Y-3.1024
X4.8228Y-3.2087
X4.8307Y-4.7244
X4.8543Y-3.7933
X4.8583Y-4.1063
X4.8661Y-3.5551
X4.8681Y-3.7067
X4.9129Y-3.378
X4.9272Y-3.3228
X4.9291Y-4.7244
X4.9508Y-4.0591
X4.956Y-3.2953
X4.9586Y-3.3504
X4.9843Y-3.0335
X4.986Y-3.2677
X5.0157Y-3.2402
X5.0177Y-2.878
X5.0217Y-2.7972
X5.0276Y-4.7244
X5.031Y-3.3938
X5.0512Y-3.2087
X5.0588Y-3.3659
X5.065Y-3.8583
X5.0669Y-3.4232
X5.0669Y-3.5157
X5.0709Y-3.4744
X5.0768Y-3.5551
X5.0768Y-3.5945
X5.2126Y-3.8327
X5.2205Y-3.187
X5.2244Y-2.9252
X5.2303Y-3.5925
X5.2441Y-3.1299
X5.2638Y-2.9252
X5.2657Y-4.3189
X5.2795Y-4.
X5.2933Y-3.5807
X5.2992Y-4.3622
X5.3228Y-3.5512
X5.3524Y-3.5217
X5.3799Y-2.9961
X5.384Y-2.7756
X5.3858Y-3.5
X5.3898Y-2.9528
X5.416Y-2.7985
X5.4252Y-3.874
X5.4272Y-3.2362
X5.4272Y-3.3366
X5.4331Y-3.0321
X5.4429Y-4.313
X5.4429Y-4.3681
X5.4439Y-4.2166
X5.4449Y-4.2657
X5.4567Y-3.7776
X5.4665Y-2.9272
X5.494Y-3.0551
X5.4961Y-3.6437
X5.502Y-3.3917
X5.5315Y-3.6122
X5.5334Y-3.0551
X5.563Y-3.5807
X5.5728Y-3.0551
X5.5945Y-3.5492
X5.6122Y-3.3366
X5.6122Y-3.0551
X5.6161Y-3.6437
X5.626Y-3.5177
X5.6496Y-3.9291
X5.6516Y-3.0551
X5.6555Y-4.0472
X5.6575Y-3.4862
X5.6594Y-4.4232
X5.6772Y-3.8012
X5.6831Y-4.2815
X5.689Y-3.4547
X5.6909Y-3.0551
X5.7165Y-3.8307
X5.7205Y-3.4232
X5.7303Y-4.3957
X5.7303Y-3.0551
X5.7323Y-4.2815
X5.7441Y-4.5689
X5.75Y-3.7717
X5.7697Y-3.0551
X5.7717Y-4.2815
X5.7972Y-4.372
X5.7992Y-4.315
X5.8031Y-3.6437
X5.8091Y-3.0551
X5.8189Y-3.8307
X5.8484Y-3.0551
X5.8563Y-3.7992
X5.8563Y-4.2047
X5.8858Y-4.1083
X5.8878Y-3.0551
X5.8996Y-3.2598
X5.9154Y-2.9311
X5.9331Y-4.1142
X5.9783Y-4.3701
X5.9843Y-4.7129
X5.9902Y-4.2815
X6.Y-4.6358
X6.0453Y-3.2205
X6.0453Y-3.3524
X6.0463Y-3.1348
X6.0669Y-3.0551
X6.0748Y-2.7579
X6.0846Y-4.6339
X6.128Y-3.933
X6.1358Y-4.1988
X6.1358Y-4.2441
X6.1378Y-4.3504
X6.1722Y-3.9321
X6.187Y-4.6594
X6.1988Y-4.2559
X6.2008Y-2.8228
X6.2126Y-4.6201
X6.2303Y-3.939
X6.2421Y-2.8976
X6.2579Y-3.6555
X6.2657Y-3.7913
X6.2736Y-3.3543
X6.2854Y-3.0886
X6.2894Y-4.4075
X6.2913Y-3.4213
X6.2913Y-4.1693
X6.2953Y-2.7205
X6.3189Y-3.7539
X6.3189Y-3.8425
X6.3228Y-2.7756
X6.3228Y-4.1378
X6.3228Y-4.2008
X6.3498Y-2.9325
X6.3504Y-2.8209
X6.3504Y-3.4705
X6.3543Y-4.1063
X6.3543Y-4.2323
X6.3661Y-3.0138
X6.3858Y-4.2638
X6.4075Y-3.7874
X6.4137Y-4.2916
X6.4783Y-4.4941
X6.5177Y-4.0453
X6.5236Y-2.4783
X6.5768Y-3.3209
X6.6122Y-4.4232
X6.6496Y-4.0236
X6.6713Y-3.0433
X6.6713Y-3.128
X6.6791Y-4.1811
X6.6791Y-4.2717
X6.6949Y-4.4547
X6.7618Y-4.3248
X6.7894Y-4.5689
X6.8071Y-3.7894
X6.811Y-4.2598
X6.811Y-4.3248
X6.8484Y-3.5787
X6.8957Y-3.5787
X6.9055Y-4.5787
X7.0669Y-3.935
X7.0669Y-4.0335
T4
X4.8283Y-4.5177
X4.9283Y-4.5177
X5.0283Y-4.5177
X5.1283Y-4.5177
X5.2283Y-4.5177
X5.3283Y-4.5177
X5.4283Y-4.5177
X5.5283Y-4.5177
X4.0654Y-3.7224
X4.0654Y-3.8224
X4.0654Y-3.9224
X4.0654Y-4.0224
X4.0654Y-4.1224
X4.0654Y-4.2224
X4.1654Y-3.7224
X4.1654Y-3.8224
X4.1654Y-3.9224
X4.1654Y-4.0224
X4.1654Y-4.1224
X4.1654Y-4.2224
X5.5283Y-2.5181
X5.5283Y-2.6181
X5.6283Y-2.5181
X5.6283Y-2.6181
X5.7283Y-2.5181
X5.7283Y-2.6181
X5.8283Y-2.5181
X5.8283Y-2.6181
X5.9283Y-2.5181
X5.9283Y-2.6181
X6.0283Y-2.5181
X6.0283Y-2.6181
X6.1283Y-2.5181
X6.1283Y-2.6181
X6.2283Y-2.5181
X6.2283Y-2.6181
X4.0654Y-2.8228
X4.0654Y-2.9228
X4.0654Y-3.0228
X4.0654Y-3.1228
X4.0654Y-3.2228
X4.0654Y-3.3228
X4.1654Y-2.8228
X4.1654Y-2.9228
X4.1654Y-3.0228
X4.1654Y-3.1228
X4.1654Y-3.2228
X4.1654Y-3.3228
X4.4681Y-2.5181
X4.4681Y-2.6181
X4.5681Y-2.5181
X4.5681Y-2.6181
X4.6681Y-2.5181
X4.6681Y-2.6181
X4.7681Y-2.5181
X4.7681Y-2.6181
X4.8681Y-2.5181
X4.8681Y-2.6181
X4.9681Y-2.5181
X4.9681Y-2.6181
X5.0681Y-2.5181
X5.0681Y-2.6181
X5.1681Y-2.5181
X5.1681Y-2.6181
X5.2681Y-2.5181
X5.2681Y-2.6181
X5.3681Y-2.5181
X5.3681Y-2.6181
T5
X4.0787Y-2.5138
X4.0787Y-4.6791
X7.0315Y-2.5138
X7.0315Y-4.6791
T2
X6.9006Y-4.253G85X6.9085Y-4.253
G05
X6.9006Y-4.4281G85X6.9085Y-4.4281
G05
T3
X7.0143Y-4.1791G85X7.0408Y-4.1791
G05
X7.0143Y-4.502G85X7.0408Y-4.502
G05
T0
M30
