G04 #@! TF.GenerationSoftware,KiCad,Pcbnew,5.0.2+dfsg1-1~bpo9+1*
G04 #@! TF.CreationDate,2019-03-29T14:07:49-03:00*
G04 #@! TF.ProjectId,ciaa_acc,63696161-5f61-4636-932e-6b696361645f,V1.1F*
G04 #@! TF.SameCoordinates,Original*
G04 #@! TF.FileFunction,Paste,Top*
G04 #@! TF.FilePolarity,Positive*
%FSLAX46Y46*%
G04 Gerber Fmt 4.6, Leading zero omitted, Abs format (unit mm)*
G04 Created by KiCad (PCBNEW 5.0.2+dfsg1-1~bpo9+1) date Fri 29 Mar 2019 02:07:49 PM -03*
%MOMM*%
%LPD*%
G01*
G04 APERTURE LIST*
%ADD10C,0.101600*%
%ADD11C,0.150000*%
%ADD12C,0.300000*%
%ADD13C,0.400000*%
%ADD14R,0.509200X0.509200*%
%ADD15R,0.799200X0.229200*%
%ADD16R,0.229200X0.799200*%
%ADD17R,1.029200X2.009200*%
%ADD18C,0.584200*%
%ADD19C,0.399200*%
%ADD20R,0.199200X0.649200*%
%ADD21R,0.649200X0.199200*%
%ADD22R,1.069200X1.069200*%
%ADD23R,1.749200X0.949200*%
%ADD24R,0.249200X0.229200*%
%ADD25R,0.449200X0.449200*%
%ADD26R,0.949200X1.749200*%
%ADD27R,0.229200X0.249200*%
%ADD28R,0.533400X0.635000*%
%ADD29R,0.635000X0.533400*%
%ADD30R,0.949200X0.749200*%
%ADD31R,1.346200X0.355600*%
%ADD32R,0.457200X17.221200*%
%ADD33R,0.249200X1.849200*%
%ADD34R,0.349200X1.299200*%
%ADD35R,2.049200X1.549200*%
%ADD36R,1.749200X1.849200*%
%ADD37R,1.849200X1.849200*%
%ADD38R,0.949200X5.449200*%
%ADD39R,1.549200X2.949200*%
%ADD40R,1.949200X1.399200*%
%ADD41R,1.449200X0.749200*%
%ADD42R,0.949960X0.848360*%
%ADD43R,3.549200X1.749200*%
%ADD44R,0.749200X0.949200*%
%ADD45R,0.199200X0.449200*%
%ADD46R,1.949200X1.349200*%
%ADD47R,1.349200X1.949200*%
%ADD48R,2.549200X0.949200*%
%ADD49C,0.711200*%
%ADD50R,0.736600X0.838200*%
%ADD51R,1.049200X0.549200*%
%ADD52R,0.399200X0.899200*%
%ADD53R,0.399200X1.299200*%
%ADD54R,0.549200X1.049200*%
%ADD55R,0.799200X0.219200*%
%ADD56R,0.219200X0.799200*%
%ADD57R,0.824200X0.824200*%
%ADD58R,1.299200X0.399200*%
%ADD59R,0.699200X0.909200*%
%ADD60R,0.699200X0.489200*%
%ADD61R,0.649200X0.649200*%
%ADD62R,1.729200X1.469200*%
%ADD63R,0.799200X0.599200*%
%ADD64R,0.549200X1.499200*%
%ADD65R,0.449200X0.749200*%
%ADD66R,1.549200X0.949200*%
%ADD67R,0.449200X0.199200*%
%ADD68R,1.000000X1.000000*%
%ADD69R,1.949200X0.349200*%
%ADD70R,1.349200X0.699200*%
%ADD71R,0.949200X1.549200*%
%ADD72R,2.349200X0.699200*%
%ADD73R,2.349200X0.689200*%
%ADD74R,3.099200X0.949200*%
G04 APERTURE END LIST*
D10*
D11*
X177002200Y-166007200D02*
X177002200Y-198007200D01*
X285002200Y-198007200D01*
X285002200Y-166007200D01*
X177002200Y-166007200D01*
D10*
D11*
X10000000Y-10000000D02*
X10000000Y-200007200D01*
X287002200Y-200007200D01*
X287002200Y-10000000D01*
X10000000Y-10000000D01*
D10*
D11*
X12000000Y-12000000D02*
X12000000Y-198007200D01*
X285002200Y-198007200D01*
X285002200Y-12000000D01*
X12000000Y-12000000D01*
D10*
D11*
X60000000Y-12000000D02*
X60000000Y-10000000D01*
D10*
D11*
X110000000Y-12000000D02*
X110000000Y-10000000D01*
D10*
D11*
X160000000Y-12000000D02*
X160000000Y-10000000D01*
D10*
D11*
X210000000Y-12000000D02*
X210000000Y-10000000D01*
D10*
D11*
X260000000Y-12000000D02*
X260000000Y-10000000D01*
D10*
D11*
X36065476Y-11588095D02*
X35322619Y-11588095D01*
X35694047Y-11588095D02*
X35694047Y-10288095D01*
X35570238Y-10473809D01*
X35446428Y-10597619D01*
X35322619Y-10659523D01*
D10*
D11*
X85322619Y-10411904D02*
X85384523Y-10350000D01*
X85508333Y-10288095D01*
X85817857Y-10288095D01*
X85941666Y-10350000D01*
X86003571Y-10411904D01*
X86065476Y-10535714D01*
X86065476Y-10659523D01*
X86003571Y-10845238D01*
X85260714Y-11588095D01*
X86065476Y-11588095D01*
D10*
D11*
X135260714Y-10288095D02*
X136065476Y-10288095D01*
X135632142Y-10783333D01*
X135817857Y-10783333D01*
X135941666Y-10845238D01*
X136003571Y-10907142D01*
X136065476Y-11030952D01*
X136065476Y-11340476D01*
X136003571Y-11464285D01*
X135941666Y-11526190D01*
X135817857Y-11588095D01*
X135446428Y-11588095D01*
X135322619Y-11526190D01*
X135260714Y-11464285D01*
D10*
D11*
X185941666Y-10721428D02*
X185941666Y-11588095D01*
X185632142Y-10226190D02*
X185322619Y-11154761D01*
X186127380Y-11154761D01*
D10*
D11*
X236003571Y-10288095D02*
X235384523Y-10288095D01*
X235322619Y-10907142D01*
X235384523Y-10845238D01*
X235508333Y-10783333D01*
X235817857Y-10783333D01*
X235941666Y-10845238D01*
X236003571Y-10907142D01*
X236065476Y-11030952D01*
X236065476Y-11340476D01*
X236003571Y-11464285D01*
X235941666Y-11526190D01*
X235817857Y-11588095D01*
X235508333Y-11588095D01*
X235384523Y-11526190D01*
X235322619Y-11464285D01*
D10*
D11*
X285941666Y-10288095D02*
X285694047Y-10288095D01*
X285570238Y-10350000D01*
X285508333Y-10411904D01*
X285384523Y-10597619D01*
X285322619Y-10845238D01*
X285322619Y-11340476D01*
X285384523Y-11464285D01*
X285446428Y-11526190D01*
X285570238Y-11588095D01*
X285817857Y-11588095D01*
X285941666Y-11526190D01*
X286003571Y-11464285D01*
X286065476Y-11340476D01*
X286065476Y-11030952D01*
X286003571Y-10907142D01*
X285941666Y-10845238D01*
X285817857Y-10783333D01*
X285570238Y-10783333D01*
X285446428Y-10845238D01*
X285384523Y-10907142D01*
X285322619Y-11030952D01*
D10*
D11*
X60000000Y-198007200D02*
X60000000Y-200007200D01*
D10*
D11*
X110000000Y-198007200D02*
X110000000Y-200007200D01*
D10*
D11*
X160000000Y-198007200D02*
X160000000Y-200007200D01*
D10*
D11*
X210000000Y-198007200D02*
X210000000Y-200007200D01*
D10*
D11*
X260000000Y-198007200D02*
X260000000Y-200007200D01*
D10*
D11*
X36065476Y-199595295D02*
X35322619Y-199595295D01*
X35694047Y-199595295D02*
X35694047Y-198295295D01*
X35570238Y-198481009D01*
X35446428Y-198604819D01*
X35322619Y-198666723D01*
D10*
D11*
X85322619Y-198419104D02*
X85384523Y-198357200D01*
X85508333Y-198295295D01*
X85817857Y-198295295D01*
X85941666Y-198357200D01*
X86003571Y-198419104D01*
X86065476Y-198542914D01*
X86065476Y-198666723D01*
X86003571Y-198852438D01*
X85260714Y-199595295D01*
X86065476Y-199595295D01*
D10*
D11*
X135260714Y-198295295D02*
X136065476Y-198295295D01*
X135632142Y-198790533D01*
X135817857Y-198790533D01*
X135941666Y-198852438D01*
X136003571Y-198914342D01*
X136065476Y-199038152D01*
X136065476Y-199347676D01*
X136003571Y-199471485D01*
X135941666Y-199533390D01*
X135817857Y-199595295D01*
X135446428Y-199595295D01*
X135322619Y-199533390D01*
X135260714Y-199471485D01*
D10*
D11*
X185941666Y-198728628D02*
X185941666Y-199595295D01*
X185632142Y-198233390D02*
X185322619Y-199161961D01*
X186127380Y-199161961D01*
D10*
D11*
X236003571Y-198295295D02*
X235384523Y-198295295D01*
X235322619Y-198914342D01*
X235384523Y-198852438D01*
X235508333Y-198790533D01*
X235817857Y-198790533D01*
X235941666Y-198852438D01*
X236003571Y-198914342D01*
X236065476Y-199038152D01*
X236065476Y-199347676D01*
X236003571Y-199471485D01*
X235941666Y-199533390D01*
X235817857Y-199595295D01*
X235508333Y-199595295D01*
X235384523Y-199533390D01*
X235322619Y-199471485D01*
D10*
D11*
X285941666Y-198295295D02*
X285694047Y-198295295D01*
X285570238Y-198357200D01*
X285508333Y-198419104D01*
X285384523Y-198604819D01*
X285322619Y-198852438D01*
X285322619Y-199347676D01*
X285384523Y-199471485D01*
X285446428Y-199533390D01*
X285570238Y-199595295D01*
X285817857Y-199595295D01*
X285941666Y-199533390D01*
X286003571Y-199471485D01*
X286065476Y-199347676D01*
X286065476Y-199038152D01*
X286003571Y-198914342D01*
X285941666Y-198852438D01*
X285817857Y-198790533D01*
X285570238Y-198790533D01*
X285446428Y-198852438D01*
X285384523Y-198914342D01*
X285322619Y-199038152D01*
D10*
D11*
X10000000Y-60000000D02*
X12000000Y-60000000D01*
D10*
D11*
X10000000Y-110000000D02*
X12000000Y-110000000D01*
D10*
D11*
X10000000Y-160000000D02*
X12000000Y-160000000D01*
D10*
D11*
X10690476Y-35216666D02*
X11309523Y-35216666D01*
X10566666Y-35588095D02*
X11000000Y-34288095D01*
X11433333Y-35588095D01*
D10*
D11*
X11092857Y-84907142D02*
X11278571Y-84969047D01*
X11340476Y-85030952D01*
X11402380Y-85154761D01*
X11402380Y-85340476D01*
X11340476Y-85464285D01*
X11278571Y-85526190D01*
X11154761Y-85588095D01*
X10659523Y-85588095D01*
X10659523Y-84288095D01*
X11092857Y-84288095D01*
X11216666Y-84350000D01*
X11278571Y-84411904D01*
X11340476Y-84535714D01*
X11340476Y-84659523D01*
X11278571Y-84783333D01*
X11216666Y-84845238D01*
X11092857Y-84907142D01*
X10659523Y-84907142D01*
D10*
D11*
X11402380Y-135464285D02*
X11340476Y-135526190D01*
X11154761Y-135588095D01*
X11030952Y-135588095D01*
X10845238Y-135526190D01*
X10721428Y-135402380D01*
X10659523Y-135278571D01*
X10597619Y-135030952D01*
X10597619Y-134845238D01*
X10659523Y-134597619D01*
X10721428Y-134473809D01*
X10845238Y-134350000D01*
X11030952Y-134288095D01*
X11154761Y-134288095D01*
X11340476Y-134350000D01*
X11402380Y-134411904D01*
D10*
D11*
X10659523Y-185588095D02*
X10659523Y-184288095D01*
X10969047Y-184288095D01*
X11154761Y-184350000D01*
X11278571Y-184473809D01*
X11340476Y-184597619D01*
X11402380Y-184845238D01*
X11402380Y-185030952D01*
X11340476Y-185278571D01*
X11278571Y-185402380D01*
X11154761Y-185526190D01*
X10969047Y-185588095D01*
X10659523Y-185588095D01*
D10*
D11*
X287002200Y-60000000D02*
X285002200Y-60000000D01*
D10*
D11*
X287002200Y-110000000D02*
X285002200Y-110000000D01*
D10*
D11*
X287002200Y-160000000D02*
X285002200Y-160000000D01*
D10*
D11*
X285692676Y-35216666D02*
X286311723Y-35216666D01*
X285568866Y-35588095D02*
X286002200Y-34288095D01*
X286435533Y-35588095D01*
D10*
D11*
X286095057Y-84907142D02*
X286280771Y-84969047D01*
X286342676Y-85030952D01*
X286404580Y-85154761D01*
X286404580Y-85340476D01*
X286342676Y-85464285D01*
X286280771Y-85526190D01*
X286156961Y-85588095D01*
X285661723Y-85588095D01*
X285661723Y-84288095D01*
X286095057Y-84288095D01*
X286218866Y-84350000D01*
X286280771Y-84411904D01*
X286342676Y-84535714D01*
X286342676Y-84659523D01*
X286280771Y-84783333D01*
X286218866Y-84845238D01*
X286095057Y-84907142D01*
X285661723Y-84907142D01*
D10*
D11*
X286404580Y-135464285D02*
X286342676Y-135526190D01*
X286156961Y-135588095D01*
X286033152Y-135588095D01*
X285847438Y-135526190D01*
X285723628Y-135402380D01*
X285661723Y-135278571D01*
X285599819Y-135030952D01*
X285599819Y-134845238D01*
X285661723Y-134597619D01*
X285723628Y-134473809D01*
X285847438Y-134350000D01*
X286033152Y-134288095D01*
X286156961Y-134288095D01*
X286342676Y-134350000D01*
X286404580Y-134411904D01*
D10*
D11*
X285661723Y-185588095D02*
X285661723Y-184288095D01*
X285971247Y-184288095D01*
X286156961Y-184350000D01*
X286280771Y-184473809D01*
X286342676Y-184597619D01*
X286404580Y-184845238D01*
X286404580Y-185030952D01*
X286342676Y-185278571D01*
X286280771Y-185402380D01*
X286156961Y-185526190D01*
X285971247Y-185588095D01*
X285661723Y-185588095D01*
D10*
D11*
X200434342Y-193785771D02*
X200434342Y-192285771D01*
X200791485Y-192285771D01*
X201005771Y-192357200D01*
X201148628Y-192500057D01*
X201220057Y-192642914D01*
X201291485Y-192928628D01*
X201291485Y-193142914D01*
X201220057Y-193428628D01*
X201148628Y-193571485D01*
X201005771Y-193714342D01*
X200791485Y-193785771D01*
X200434342Y-193785771D01*
X202577200Y-193785771D02*
X202577200Y-193000057D01*
X202505771Y-192857200D01*
X202362914Y-192785771D01*
X202077200Y-192785771D01*
X201934342Y-192857200D01*
X202577200Y-193714342D02*
X202434342Y-193785771D01*
X202077200Y-193785771D01*
X201934342Y-193714342D01*
X201862914Y-193571485D01*
X201862914Y-193428628D01*
X201934342Y-193285771D01*
X202077200Y-193214342D01*
X202434342Y-193214342D01*
X202577200Y-193142914D01*
X203077200Y-192785771D02*
X203648628Y-192785771D01*
X203291485Y-192285771D02*
X203291485Y-193571485D01*
X203362914Y-193714342D01*
X203505771Y-193785771D01*
X203648628Y-193785771D01*
X204720057Y-193714342D02*
X204577200Y-193785771D01*
X204291485Y-193785771D01*
X204148628Y-193714342D01*
X204077200Y-193571485D01*
X204077200Y-193000057D01*
X204148628Y-192857200D01*
X204291485Y-192785771D01*
X204577200Y-192785771D01*
X204720057Y-192857200D01*
X204791485Y-193000057D01*
X204791485Y-193142914D01*
X204077200Y-193285771D01*
X205434342Y-193642914D02*
X205505771Y-193714342D01*
X205434342Y-193785771D01*
X205362914Y-193714342D01*
X205434342Y-193642914D01*
X205434342Y-193785771D01*
X205434342Y-192857200D02*
X205505771Y-192928628D01*
X205434342Y-193000057D01*
X205362914Y-192928628D01*
X205434342Y-192857200D01*
X205434342Y-193000057D01*
X207220057Y-192428628D02*
X207291485Y-192357200D01*
X207434342Y-192285771D01*
X207791485Y-192285771D01*
X207934342Y-192357200D01*
X208005771Y-192428628D01*
X208077200Y-192571485D01*
X208077200Y-192714342D01*
X208005771Y-192928628D01*
X207148628Y-193785771D01*
X208077200Y-193785771D01*
X209005771Y-192285771D02*
X209148628Y-192285771D01*
X209291485Y-192357200D01*
X209362914Y-192428628D01*
X209434342Y-192571485D01*
X209505771Y-192857200D01*
X209505771Y-193214342D01*
X209434342Y-193500057D01*
X209362914Y-193642914D01*
X209291485Y-193714342D01*
X209148628Y-193785771D01*
X209005771Y-193785771D01*
X208862914Y-193714342D01*
X208791485Y-193642914D01*
X208720057Y-193500057D01*
X208648628Y-193214342D01*
X208648628Y-192857200D01*
X208720057Y-192571485D01*
X208791485Y-192428628D01*
X208862914Y-192357200D01*
X209005771Y-192285771D01*
X210934342Y-193785771D02*
X210077200Y-193785771D01*
X210505771Y-193785771D02*
X210505771Y-192285771D01*
X210362914Y-192500057D01*
X210220057Y-192642914D01*
X210077200Y-192714342D01*
X211648628Y-193785771D02*
X211934342Y-193785771D01*
X212077200Y-193714342D01*
X212148628Y-193642914D01*
X212291485Y-193428628D01*
X212362914Y-193142914D01*
X212362914Y-192571485D01*
X212291485Y-192428628D01*
X212220057Y-192357200D01*
X212077200Y-192285771D01*
X211791485Y-192285771D01*
X211648628Y-192357200D01*
X211577200Y-192428628D01*
X211505771Y-192571485D01*
X211505771Y-192928628D01*
X211577200Y-193071485D01*
X211648628Y-193142914D01*
X211791485Y-193214342D01*
X212077200Y-193214342D01*
X212220057Y-193142914D01*
X212291485Y-193071485D01*
X212362914Y-192928628D01*
X213005771Y-193214342D02*
X214148628Y-193214342D01*
X215148628Y-192285771D02*
X215291485Y-192285771D01*
X215434342Y-192357200D01*
X215505771Y-192428628D01*
X215577200Y-192571485D01*
X215648628Y-192857200D01*
X215648628Y-193214342D01*
X215577200Y-193500057D01*
X215505771Y-193642914D01*
X215434342Y-193714342D01*
X215291485Y-193785771D01*
X215148628Y-193785771D01*
X215005771Y-193714342D01*
X214934342Y-193642914D01*
X214862914Y-193500057D01*
X214791485Y-193214342D01*
X214791485Y-192857200D01*
X214862914Y-192571485D01*
X214934342Y-192428628D01*
X215005771Y-192357200D01*
X215148628Y-192285771D01*
X216148628Y-192285771D02*
X217077200Y-192285771D01*
X216577200Y-192857200D01*
X216791485Y-192857200D01*
X216934342Y-192928628D01*
X217005771Y-193000057D01*
X217077200Y-193142914D01*
X217077200Y-193500057D01*
X217005771Y-193642914D01*
X216934342Y-193714342D01*
X216791485Y-193785771D01*
X216362914Y-193785771D01*
X216220057Y-193714342D01*
X216148628Y-193642914D01*
X217720057Y-193214342D02*
X218862914Y-193214342D01*
X219505771Y-192428628D02*
X219577200Y-192357200D01*
X219720057Y-192285771D01*
X220077200Y-192285771D01*
X220220057Y-192357200D01*
X220291485Y-192428628D01*
X220362914Y-192571485D01*
X220362914Y-192714342D01*
X220291485Y-192928628D01*
X219434342Y-193785771D01*
X220362914Y-193785771D01*
X221077200Y-193785771D02*
X221362914Y-193785771D01*
X221505771Y-193714342D01*
X221577200Y-193642914D01*
X221720057Y-193428628D01*
X221791485Y-193142914D01*
X221791485Y-192571485D01*
X221720057Y-192428628D01*
X221648628Y-192357200D01*
X221505771Y-192285771D01*
X221220057Y-192285771D01*
X221077200Y-192357200D01*
X221005771Y-192428628D01*
X220934342Y-192571485D01*
X220934342Y-192928628D01*
X221005771Y-193071485D01*
X221077200Y-193142914D01*
X221220057Y-193214342D01*
X221505771Y-193214342D01*
X221648628Y-193142914D01*
X221720057Y-193071485D01*
X221791485Y-192928628D01*
D10*
D11*
X177002200Y-194507200D02*
X285002200Y-194507200D01*
D10*
D11*
X178434342Y-196585771D02*
X178434342Y-195085771D01*
X179291485Y-196585771D02*
X178648628Y-195728628D01*
X179291485Y-195085771D02*
X178434342Y-195942914D01*
X179934342Y-196585771D02*
X179934342Y-195585771D01*
X179934342Y-195085771D02*
X179862914Y-195157200D01*
X179934342Y-195228628D01*
X180005771Y-195157200D01*
X179934342Y-195085771D01*
X179934342Y-195228628D01*
X181505771Y-196442914D02*
X181434342Y-196514342D01*
X181220057Y-196585771D01*
X181077200Y-196585771D01*
X180862914Y-196514342D01*
X180720057Y-196371485D01*
X180648628Y-196228628D01*
X180577200Y-195942914D01*
X180577200Y-195728628D01*
X180648628Y-195442914D01*
X180720057Y-195300057D01*
X180862914Y-195157200D01*
X181077200Y-195085771D01*
X181220057Y-195085771D01*
X181434342Y-195157200D01*
X181505771Y-195228628D01*
X182791485Y-196585771D02*
X182791485Y-195800057D01*
X182720057Y-195657200D01*
X182577200Y-195585771D01*
X182291485Y-195585771D01*
X182148628Y-195657200D01*
X182791485Y-196514342D02*
X182648628Y-196585771D01*
X182291485Y-196585771D01*
X182148628Y-196514342D01*
X182077200Y-196371485D01*
X182077200Y-196228628D01*
X182148628Y-196085771D01*
X182291485Y-196014342D01*
X182648628Y-196014342D01*
X182791485Y-195942914D01*
X184148628Y-196585771D02*
X184148628Y-195085771D01*
X184148628Y-196514342D02*
X184005771Y-196585771D01*
X183720057Y-196585771D01*
X183577200Y-196514342D01*
X183505771Y-196442914D01*
X183434342Y-196300057D01*
X183434342Y-195871485D01*
X183505771Y-195728628D01*
X183577200Y-195657200D01*
X183720057Y-195585771D01*
X184005771Y-195585771D01*
X184148628Y-195657200D01*
X186005771Y-195800057D02*
X186505771Y-195800057D01*
X186720057Y-196585771D02*
X186005771Y-196585771D01*
X186005771Y-195085771D01*
X186720057Y-195085771D01*
X187362914Y-196442914D02*
X187434342Y-196514342D01*
X187362914Y-196585771D01*
X187291485Y-196514342D01*
X187362914Y-196442914D01*
X187362914Y-196585771D01*
X188077200Y-196585771D02*
X188077200Y-195085771D01*
X188434342Y-195085771D01*
X188648628Y-195157200D01*
X188791485Y-195300057D01*
X188862914Y-195442914D01*
X188934342Y-195728628D01*
X188934342Y-195942914D01*
X188862914Y-196228628D01*
X188791485Y-196371485D01*
X188648628Y-196514342D01*
X188434342Y-196585771D01*
X188077200Y-196585771D01*
X189577200Y-196442914D02*
X189648628Y-196514342D01*
X189577200Y-196585771D01*
X189505771Y-196514342D01*
X189577200Y-196442914D01*
X189577200Y-196585771D01*
X190220057Y-196157200D02*
X190934342Y-196157200D01*
X190077200Y-196585771D02*
X190577200Y-195085771D01*
X191077200Y-196585771D01*
X191577200Y-196442914D02*
X191648628Y-196514342D01*
X191577200Y-196585771D01*
X191505771Y-196514342D01*
X191577200Y-196442914D01*
X191577200Y-196585771D01*
X194577200Y-196585771D02*
X194577200Y-195085771D01*
X194720057Y-196014342D02*
X195148628Y-196585771D01*
X195148628Y-195585771D02*
X194577200Y-196157200D01*
X195791485Y-196585771D02*
X195791485Y-195585771D01*
X195791485Y-195085771D02*
X195720057Y-195157200D01*
X195791485Y-195228628D01*
X195862914Y-195157200D01*
X195791485Y-195085771D01*
X195791485Y-195228628D01*
X197148628Y-196514342D02*
X197005771Y-196585771D01*
X196720057Y-196585771D01*
X196577200Y-196514342D01*
X196505771Y-196442914D01*
X196434342Y-196300057D01*
X196434342Y-195871485D01*
X196505771Y-195728628D01*
X196577200Y-195657200D01*
X196720057Y-195585771D01*
X197005771Y-195585771D01*
X197148628Y-195657200D01*
X198434342Y-196585771D02*
X198434342Y-195800057D01*
X198362914Y-195657200D01*
X198220057Y-195585771D01*
X197934342Y-195585771D01*
X197791485Y-195657200D01*
X198434342Y-196514342D02*
X198291485Y-196585771D01*
X197934342Y-196585771D01*
X197791485Y-196514342D01*
X197720057Y-196371485D01*
X197720057Y-196228628D01*
X197791485Y-196085771D01*
X197934342Y-196014342D01*
X198291485Y-196014342D01*
X198434342Y-195942914D01*
X199791485Y-196585771D02*
X199791485Y-195085771D01*
X199791485Y-196514342D02*
X199648628Y-196585771D01*
X199362914Y-196585771D01*
X199220057Y-196514342D01*
X199148628Y-196442914D01*
X199077200Y-196300057D01*
X199077200Y-195871485D01*
X199148628Y-195728628D01*
X199220057Y-195657200D01*
X199362914Y-195585771D01*
X199648628Y-195585771D01*
X199791485Y-195657200D01*
X202362914Y-195085771D02*
X201648628Y-195085771D01*
X201577200Y-195800057D01*
X201648628Y-195728628D01*
X201791485Y-195657200D01*
X202148628Y-195657200D01*
X202291485Y-195728628D01*
X202362914Y-195800057D01*
X202434342Y-195942914D01*
X202434342Y-196300057D01*
X202362914Y-196442914D01*
X202291485Y-196514342D01*
X202148628Y-196585771D01*
X201791485Y-196585771D01*
X201648628Y-196514342D01*
X201577200Y-196442914D01*
X203077200Y-196442914D02*
X203148628Y-196514342D01*
X203077200Y-196585771D01*
X203005771Y-196514342D01*
X203077200Y-196442914D01*
X203077200Y-196585771D01*
X204077200Y-195085771D02*
X204220057Y-195085771D01*
X204362914Y-195157200D01*
X204434342Y-195228628D01*
X204505771Y-195371485D01*
X204577200Y-195657200D01*
X204577200Y-196014342D01*
X204505771Y-196300057D01*
X204434342Y-196442914D01*
X204362914Y-196514342D01*
X204220057Y-196585771D01*
X204077200Y-196585771D01*
X203934342Y-196514342D01*
X203862914Y-196442914D01*
X203791485Y-196300057D01*
X203720057Y-196014342D01*
X203720057Y-195657200D01*
X203791485Y-195371485D01*
X203862914Y-195228628D01*
X203934342Y-195157200D01*
X204077200Y-195085771D01*
X205220057Y-196442914D02*
X205291485Y-196514342D01*
X205220057Y-196585771D01*
X205148628Y-196514342D01*
X205220057Y-196442914D01*
X205220057Y-196585771D01*
X205862914Y-195228628D02*
X205934342Y-195157200D01*
X206077200Y-195085771D01*
X206434342Y-195085771D01*
X206577200Y-195157200D01*
X206648628Y-195228628D01*
X206720057Y-195371485D01*
X206720057Y-195514342D01*
X206648628Y-195728628D01*
X205791485Y-196585771D01*
X206720057Y-196585771D01*
X207362914Y-196014342D02*
X208505771Y-196014342D01*
X207934342Y-196585771D02*
X207934342Y-195442914D01*
X209862914Y-196585771D02*
X209862914Y-195085771D01*
X209862914Y-196514342D02*
X209720057Y-196585771D01*
X209434342Y-196585771D01*
X209291485Y-196514342D01*
X209220057Y-196442914D01*
X209148628Y-196300057D01*
X209148628Y-195871485D01*
X209220057Y-195728628D01*
X209291485Y-195657200D01*
X209434342Y-195585771D01*
X209720057Y-195585771D01*
X209862914Y-195657200D01*
X210362914Y-195585771D02*
X210934342Y-195585771D01*
X210577200Y-196585771D02*
X210577200Y-195300057D01*
X210648628Y-195157200D01*
X210791485Y-195085771D01*
X210934342Y-195085771D01*
X211362914Y-196514342D02*
X211505771Y-196585771D01*
X211791485Y-196585771D01*
X211934342Y-196514342D01*
X212005771Y-196371485D01*
X212005771Y-196300057D01*
X211934342Y-196157200D01*
X211791485Y-196085771D01*
X211577200Y-196085771D01*
X211434342Y-196014342D01*
X211362914Y-195871485D01*
X211362914Y-195800057D01*
X211434342Y-195657200D01*
X211577200Y-195585771D01*
X211791485Y-195585771D01*
X211934342Y-195657200D01*
X213291485Y-195585771D02*
X213291485Y-196800057D01*
X213220057Y-196942914D01*
X213148628Y-197014342D01*
X213005771Y-197085771D01*
X212791485Y-197085771D01*
X212648628Y-197014342D01*
X213291485Y-196514342D02*
X213148628Y-196585771D01*
X212862914Y-196585771D01*
X212720057Y-196514342D01*
X212648628Y-196442914D01*
X212577200Y-196300057D01*
X212577200Y-195871485D01*
X212648628Y-195728628D01*
X212720057Y-195657200D01*
X212862914Y-195585771D01*
X213148628Y-195585771D01*
X213291485Y-195657200D01*
X214791485Y-196585771D02*
X213934342Y-196585771D01*
X214362914Y-196585771D02*
X214362914Y-195085771D01*
X214220057Y-195300057D01*
X214077200Y-195442914D01*
X213934342Y-195514342D01*
X215434342Y-196014342D02*
X216577200Y-196014342D01*
X218077200Y-196585771D02*
X217220057Y-196585771D01*
X217648628Y-196585771D02*
X217648628Y-195085771D01*
X217505771Y-195300057D01*
X217362914Y-195442914D01*
X217220057Y-195514342D01*
X218362914Y-194677200D02*
X219720057Y-194677200D01*
X218720057Y-196585771D02*
X218720057Y-195085771D01*
X218720057Y-195657200D02*
X218862914Y-195585771D01*
X219148628Y-195585771D01*
X219291485Y-195657200D01*
X219362914Y-195728628D01*
X219434342Y-195871485D01*
X219434342Y-196300057D01*
X219362914Y-196442914D01*
X219291485Y-196514342D01*
X219148628Y-196585771D01*
X218862914Y-196585771D01*
X218720057Y-196514342D01*
X219720057Y-194677200D02*
X221077200Y-194677200D01*
X220077200Y-195585771D02*
X220077200Y-197085771D01*
X220077200Y-195657200D02*
X220220057Y-195585771D01*
X220505771Y-195585771D01*
X220648628Y-195657200D01*
X220720057Y-195728628D01*
X220791485Y-195871485D01*
X220791485Y-196300057D01*
X220720057Y-196442914D01*
X220648628Y-196514342D01*
X220505771Y-196585771D01*
X220220057Y-196585771D01*
X220077200Y-196514342D01*
X221077200Y-194677200D02*
X222434342Y-194677200D01*
X221648628Y-196585771D02*
X221505771Y-196514342D01*
X221434342Y-196442914D01*
X221362914Y-196300057D01*
X221362914Y-195871485D01*
X221434342Y-195728628D01*
X221505771Y-195657200D01*
X221648628Y-195585771D01*
X221862914Y-195585771D01*
X222005771Y-195657200D01*
X222077200Y-195728628D01*
X222148628Y-195871485D01*
X222148628Y-196300057D01*
X222077200Y-196442914D01*
X222005771Y-196514342D01*
X221862914Y-196585771D01*
X221648628Y-196585771D01*
X222434342Y-194677200D02*
X223862914Y-194677200D01*
X222862914Y-196585771D02*
X223148628Y-196585771D01*
X223291485Y-196514342D01*
X223362914Y-196442914D01*
X223505771Y-196228628D01*
X223577200Y-195942914D01*
X223577200Y-195371485D01*
X223505771Y-195228628D01*
X223434342Y-195157200D01*
X223291485Y-195085771D01*
X223005771Y-195085771D01*
X222862914Y-195157200D01*
X222791485Y-195228628D01*
X222720057Y-195371485D01*
X222720057Y-195728628D01*
X222791485Y-195871485D01*
X222862914Y-195942914D01*
X223005771Y-196014342D01*
X223291485Y-196014342D01*
X223434342Y-195942914D01*
X223505771Y-195871485D01*
X223577200Y-195728628D01*
X223862914Y-194677200D02*
X225720057Y-194677200D01*
X224220057Y-196014342D02*
X225362914Y-196014342D01*
X224791485Y-196585771D02*
X224791485Y-195442914D01*
X225720057Y-194677200D02*
X227148628Y-194677200D01*
X226862914Y-196585771D02*
X226005771Y-196585771D01*
X226434342Y-196585771D02*
X226434342Y-195085771D01*
X226291485Y-195300057D01*
X226148628Y-195442914D01*
X226005771Y-195514342D01*
D10*
D11*
X177002200Y-191507200D02*
X285002200Y-191507200D01*
D10*
D12*
X264411485Y-193785771D02*
X263911485Y-193071485D01*
X263554342Y-193785771D02*
X263554342Y-192285771D01*
X264125771Y-192285771D01*
X264268628Y-192357200D01*
X264340057Y-192428628D01*
X264411485Y-192571485D01*
X264411485Y-192785771D01*
X264340057Y-192928628D01*
X264268628Y-193000057D01*
X264125771Y-193071485D01*
X263554342Y-193071485D01*
X265625771Y-193714342D02*
X265482914Y-193785771D01*
X265197200Y-193785771D01*
X265054342Y-193714342D01*
X264982914Y-193571485D01*
X264982914Y-193000057D01*
X265054342Y-192857200D01*
X265197200Y-192785771D01*
X265482914Y-192785771D01*
X265625771Y-192857200D01*
X265697200Y-193000057D01*
X265697200Y-193142914D01*
X264982914Y-193285771D01*
X266197200Y-192785771D02*
X266554342Y-193785771D01*
X266911485Y-192785771D01*
X267482914Y-193642914D02*
X267554342Y-193714342D01*
X267482914Y-193785771D01*
X267411485Y-193714342D01*
X267482914Y-193642914D01*
X267482914Y-193785771D01*
X267482914Y-192857200D02*
X267554342Y-192928628D01*
X267482914Y-193000057D01*
X267411485Y-192928628D01*
X267482914Y-192857200D01*
X267482914Y-193000057D01*
X269125771Y-192285771D02*
X269625771Y-193785771D01*
X270125771Y-192285771D01*
X271411485Y-193785771D02*
X270554342Y-193785771D01*
X270982914Y-193785771D02*
X270982914Y-192285771D01*
X270840057Y-192500057D01*
X270697200Y-192642914D01*
X270554342Y-192714342D01*
X272054342Y-193642914D02*
X272125771Y-193714342D01*
X272054342Y-193785771D01*
X271982914Y-193714342D01*
X272054342Y-193642914D01*
X272054342Y-193785771D01*
X273554342Y-193785771D02*
X272697200Y-193785771D01*
X273125771Y-193785771D02*
X273125771Y-192285771D01*
X272982914Y-192500057D01*
X272840057Y-192642914D01*
X272697200Y-192714342D01*
X274697200Y-193000057D02*
X274197200Y-193000057D01*
X274197200Y-193785771D02*
X274197200Y-192285771D01*
X274911485Y-192285771D01*
D10*
D11*
X178362914Y-193714342D02*
X178577200Y-193785771D01*
X178934342Y-193785771D01*
X179077200Y-193714342D01*
X179148628Y-193642914D01*
X179220057Y-193500057D01*
X179220057Y-193357200D01*
X179148628Y-193214342D01*
X179077200Y-193142914D01*
X178934342Y-193071485D01*
X178648628Y-193000057D01*
X178505771Y-192928628D01*
X178434342Y-192857200D01*
X178362914Y-192714342D01*
X178362914Y-192571485D01*
X178434342Y-192428628D01*
X178505771Y-192357200D01*
X178648628Y-192285771D01*
X179005771Y-192285771D01*
X179220057Y-192357200D01*
X179862914Y-193785771D02*
X179862914Y-192785771D01*
X179862914Y-192285771D02*
X179791485Y-192357200D01*
X179862914Y-192428628D01*
X179934342Y-192357200D01*
X179862914Y-192285771D01*
X179862914Y-192428628D01*
X180434342Y-192785771D02*
X181220057Y-192785771D01*
X180434342Y-193785771D01*
X181220057Y-193785771D01*
X182362914Y-193714342D02*
X182220057Y-193785771D01*
X181934342Y-193785771D01*
X181791485Y-193714342D01*
X181720057Y-193571485D01*
X181720057Y-193000057D01*
X181791485Y-192857200D01*
X181934342Y-192785771D01*
X182220057Y-192785771D01*
X182362914Y-192857200D01*
X182434342Y-193000057D01*
X182434342Y-193142914D01*
X181720057Y-193285771D01*
X183077200Y-193642914D02*
X183148628Y-193714342D01*
X183077200Y-193785771D01*
X183005771Y-193714342D01*
X183077200Y-193642914D01*
X183077200Y-193785771D01*
X183077200Y-192857200D02*
X183148628Y-192928628D01*
X183077200Y-193000057D01*
X183005771Y-192928628D01*
X183077200Y-192857200D01*
X183077200Y-193000057D01*
X184862914Y-193357200D02*
X185577200Y-193357200D01*
X184720057Y-193785771D02*
X185220057Y-192285771D01*
X185720057Y-193785771D01*
X186862914Y-192785771D02*
X186862914Y-193785771D01*
X186505771Y-192214342D02*
X186148628Y-193285771D01*
X187077200Y-193285771D01*
D10*
D11*
X263434342Y-196585771D02*
X263434342Y-195085771D01*
X264791485Y-196585771D02*
X264791485Y-195085771D01*
X264791485Y-196514342D02*
X264648628Y-196585771D01*
X264362914Y-196585771D01*
X264220057Y-196514342D01*
X264148628Y-196442914D01*
X264077200Y-196300057D01*
X264077200Y-195871485D01*
X264148628Y-195728628D01*
X264220057Y-195657200D01*
X264362914Y-195585771D01*
X264648628Y-195585771D01*
X264791485Y-195657200D01*
X265505771Y-196442914D02*
X265577200Y-196514342D01*
X265505771Y-196585771D01*
X265434342Y-196514342D01*
X265505771Y-196442914D01*
X265505771Y-196585771D01*
X265505771Y-195657200D02*
X265577200Y-195728628D01*
X265505771Y-195800057D01*
X265434342Y-195728628D01*
X265505771Y-195657200D01*
X265505771Y-195800057D01*
X268148628Y-196585771D02*
X267291485Y-196585771D01*
X267720057Y-196585771D02*
X267720057Y-195085771D01*
X267577200Y-195300057D01*
X267434342Y-195442914D01*
X267291485Y-195514342D01*
X269862914Y-195014342D02*
X268577200Y-196942914D01*
X271148628Y-196585771D02*
X270291485Y-196585771D01*
X270720057Y-196585771D02*
X270720057Y-195085771D01*
X270577200Y-195300057D01*
X270434342Y-195442914D01*
X270291485Y-195514342D01*
D10*
D11*
X177002200Y-187507200D02*
X285002200Y-187507200D01*
D10*
D13*
X178714580Y-188211961D02*
X179857438Y-188211961D01*
X179036009Y-190211961D02*
X179286009Y-188211961D01*
X180274104Y-190211961D02*
X180440771Y-188878628D01*
X180524104Y-188211961D02*
X180416961Y-188307200D01*
X180500295Y-188402438D01*
X180607438Y-188307200D01*
X180524104Y-188211961D01*
X180500295Y-188402438D01*
X181107438Y-188878628D02*
X181869342Y-188878628D01*
X181476485Y-188211961D02*
X181262200Y-189926247D01*
X181333628Y-190116723D01*
X181512200Y-190211961D01*
X181702676Y-190211961D01*
X182655057Y-190211961D02*
X182476485Y-190116723D01*
X182405057Y-189926247D01*
X182619342Y-188211961D01*
X184190771Y-190116723D02*
X183988390Y-190211961D01*
X183607438Y-190211961D01*
X183428866Y-190116723D01*
X183357438Y-189926247D01*
X183452676Y-189164342D01*
X183571723Y-188973866D01*
X183774104Y-188878628D01*
X184155057Y-188878628D01*
X184333628Y-188973866D01*
X184405057Y-189164342D01*
X184381247Y-189354819D01*
X183405057Y-189545295D01*
X185155057Y-190021485D02*
X185238390Y-190116723D01*
X185131247Y-190211961D01*
X185047914Y-190116723D01*
X185155057Y-190021485D01*
X185131247Y-190211961D01*
X185286009Y-188973866D02*
X185369342Y-189069104D01*
X185262200Y-189164342D01*
X185178866Y-189069104D01*
X185286009Y-188973866D01*
X185262200Y-189164342D01*
X188774104Y-190021485D02*
X188666961Y-190116723D01*
X188369342Y-190211961D01*
X188178866Y-190211961D01*
X187905057Y-190116723D01*
X187738390Y-189926247D01*
X187666961Y-189735771D01*
X187619342Y-189354819D01*
X187655057Y-189069104D01*
X187797914Y-188688152D01*
X187916961Y-188497676D01*
X188131247Y-188307200D01*
X188428866Y-188211961D01*
X188619342Y-188211961D01*
X188893152Y-188307200D01*
X188976485Y-188402438D01*
X190238390Y-188211961D02*
X190619342Y-188211961D01*
X190797914Y-188307200D01*
X190964580Y-188497676D01*
X191012200Y-188878628D01*
X190928866Y-189545295D01*
X190786009Y-189926247D01*
X190571723Y-190116723D01*
X190369342Y-190211961D01*
X189988390Y-190211961D01*
X189809819Y-190116723D01*
X189643152Y-189926247D01*
X189595533Y-189545295D01*
X189678866Y-188878628D01*
X189821723Y-188497676D01*
X190036009Y-188307200D01*
X190238390Y-188211961D01*
X191702676Y-190211961D02*
X191952676Y-188211961D01*
X192440771Y-189640533D01*
X193286009Y-188211961D01*
X193036009Y-190211961D01*
X193988390Y-190211961D02*
X194238390Y-188211961D01*
X195000295Y-188211961D01*
X195178866Y-188307200D01*
X195262200Y-188402438D01*
X195333628Y-188592914D01*
X195297914Y-188878628D01*
X195178866Y-189069104D01*
X195071723Y-189164342D01*
X194869342Y-189259580D01*
X194107438Y-189259580D01*
X196238390Y-188211961D02*
X196036009Y-189831009D01*
X196107438Y-190021485D01*
X196190771Y-190116723D01*
X196369342Y-190211961D01*
X196750295Y-190211961D01*
X196952676Y-190116723D01*
X197059819Y-190021485D01*
X197178866Y-189831009D01*
X197381247Y-188211961D01*
X198047914Y-188211961D02*
X199190771Y-188211961D01*
X198369342Y-190211961D02*
X198619342Y-188211961D01*
X199583628Y-189640533D02*
X200536009Y-189640533D01*
X199321723Y-190211961D02*
X200238390Y-188211961D01*
X200655057Y-190211961D01*
X201321723Y-190211961D02*
X201571723Y-188211961D01*
X202047914Y-188211961D01*
X202321723Y-188307200D01*
X202488390Y-188497676D01*
X202559819Y-188688152D01*
X202607438Y-189069104D01*
X202571723Y-189354819D01*
X202428866Y-189735771D01*
X202309819Y-189926247D01*
X202095533Y-190116723D01*
X201797914Y-190211961D01*
X201321723Y-190211961D01*
X203952676Y-188211961D02*
X204333628Y-188211961D01*
X204512200Y-188307200D01*
X204678866Y-188497676D01*
X204726485Y-188878628D01*
X204643152Y-189545295D01*
X204500295Y-189926247D01*
X204286009Y-190116723D01*
X204083628Y-190211961D01*
X203702676Y-190211961D01*
X203524104Y-190116723D01*
X203357438Y-189926247D01*
X203309819Y-189545295D01*
X203393152Y-188878628D01*
X203536009Y-188497676D01*
X203750295Y-188307200D01*
X203952676Y-188211961D01*
X206559819Y-190211961D02*
X206012200Y-189259580D01*
X205416961Y-190211961D02*
X205666961Y-188211961D01*
X206428866Y-188211961D01*
X206607438Y-188307200D01*
X206690771Y-188402438D01*
X206762200Y-188592914D01*
X206726485Y-188878628D01*
X206607438Y-189069104D01*
X206500295Y-189164342D01*
X206297914Y-189259580D01*
X205536009Y-189259580D01*
X207393152Y-189640533D02*
X208345533Y-189640533D01*
X207131247Y-190211961D02*
X208047914Y-188211961D01*
X208464580Y-190211961D01*
X210655057Y-190211961D02*
X210905057Y-188211961D01*
X211607438Y-190211961D02*
X211857438Y-188211961D01*
X212750295Y-190211961D01*
X213000295Y-188211961D01*
X213702676Y-190211961D02*
X213952676Y-188211961D01*
X214428866Y-188211961D01*
X214702676Y-188307200D01*
X214869342Y-188497676D01*
X214940771Y-188688152D01*
X214988390Y-189069104D01*
X214952676Y-189354819D01*
X214809819Y-189735771D01*
X214690771Y-189926247D01*
X214476485Y-190116723D01*
X214178866Y-190211961D01*
X213702676Y-190211961D01*
X215952676Y-188211961D02*
X215750295Y-189831009D01*
X215821723Y-190021485D01*
X215905057Y-190116723D01*
X216083628Y-190211961D01*
X216464580Y-190211961D01*
X216666961Y-190116723D01*
X216774104Y-190021485D01*
X216893152Y-189831009D01*
X217095533Y-188211961D01*
X217714580Y-190116723D02*
X217988390Y-190211961D01*
X218464580Y-190211961D01*
X218666961Y-190116723D01*
X218774104Y-190021485D01*
X218893152Y-189831009D01*
X218916961Y-189640533D01*
X218845533Y-189450057D01*
X218762200Y-189354819D01*
X218583628Y-189259580D01*
X218214580Y-189164342D01*
X218036009Y-189069104D01*
X217952676Y-188973866D01*
X217881247Y-188783390D01*
X217905057Y-188592914D01*
X218024104Y-188402438D01*
X218131247Y-188307200D01*
X218333628Y-188211961D01*
X218809819Y-188211961D01*
X219083628Y-188307200D01*
X219666961Y-188211961D02*
X220809819Y-188211961D01*
X219988390Y-190211961D02*
X220238390Y-188211961D01*
X222369342Y-190211961D02*
X221821723Y-189259580D01*
X221226485Y-190211961D02*
X221476485Y-188211961D01*
X222238390Y-188211961D01*
X222416961Y-188307200D01*
X222500295Y-188402438D01*
X222571723Y-188592914D01*
X222536009Y-188878628D01*
X222416961Y-189069104D01*
X222309819Y-189164342D01*
X222107438Y-189259580D01*
X221345533Y-189259580D01*
X223226485Y-190211961D02*
X223476485Y-188211961D01*
X224155057Y-189640533D02*
X225107438Y-189640533D01*
X223893152Y-190211961D02*
X224809819Y-188211961D01*
X225226485Y-190211961D01*
X226845533Y-190211961D02*
X225893152Y-190211961D01*
X226143152Y-188211961D01*
X229012200Y-189640533D02*
X229964580Y-189640533D01*
X228750295Y-190211961D02*
X229666961Y-188211961D01*
X230083628Y-190211961D01*
X231547914Y-189164342D02*
X231821723Y-189259580D01*
X231905057Y-189354819D01*
X231976485Y-189545295D01*
X231940771Y-189831009D01*
X231821723Y-190021485D01*
X231714580Y-190116723D01*
X231512200Y-190211961D01*
X230750295Y-190211961D01*
X231000295Y-188211961D01*
X231666961Y-188211961D01*
X231845533Y-188307200D01*
X231928866Y-188402438D01*
X232000295Y-188592914D01*
X231976485Y-188783390D01*
X231857438Y-188973866D01*
X231750295Y-189069104D01*
X231547914Y-189164342D01*
X230881247Y-189164342D01*
X232750295Y-190211961D02*
X233000295Y-188211961D01*
X233833628Y-189164342D02*
X234500295Y-189164342D01*
X234655057Y-190211961D02*
X233702676Y-190211961D01*
X233952676Y-188211961D01*
X234905057Y-188211961D01*
X236655057Y-190211961D02*
X236107438Y-189259580D01*
X235512200Y-190211961D02*
X235762200Y-188211961D01*
X236524104Y-188211961D01*
X236702676Y-188307200D01*
X236786009Y-188402438D01*
X236857438Y-188592914D01*
X236821723Y-188878628D01*
X236702676Y-189069104D01*
X236595533Y-189164342D01*
X236393152Y-189259580D01*
X235631247Y-189259580D01*
X237476485Y-188211961D02*
X238619342Y-188211961D01*
X237797914Y-190211961D02*
X238047914Y-188211961D01*
X239012200Y-189640533D02*
X239964580Y-189640533D01*
X238750295Y-190211961D02*
X239666961Y-188211961D01*
X240083628Y-190211961D01*
X242250295Y-189640533D02*
X243202676Y-189640533D01*
X241988390Y-190211961D02*
X242905057Y-188211961D01*
X243321723Y-190211961D01*
X245131247Y-190211961D02*
X244583628Y-189259580D01*
X243988390Y-190211961D02*
X244238390Y-188211961D01*
X245000295Y-188211961D01*
X245178866Y-188307200D01*
X245262200Y-188402438D01*
X245333628Y-188592914D01*
X245297914Y-188878628D01*
X245178866Y-189069104D01*
X245071723Y-189164342D01*
X244869342Y-189259580D01*
X244107438Y-189259580D01*
X247274104Y-188307200D02*
X247095533Y-188211961D01*
X246809819Y-188211961D01*
X246512200Y-188307200D01*
X246297914Y-188497676D01*
X246178866Y-188688152D01*
X246036009Y-189069104D01*
X246000295Y-189354819D01*
X246047914Y-189735771D01*
X246119342Y-189926247D01*
X246286009Y-190116723D01*
X246559819Y-190211961D01*
X246750295Y-190211961D01*
X247047914Y-190116723D01*
X247155057Y-190021485D01*
X247238390Y-189354819D01*
X246857438Y-189354819D01*
X248119342Y-189164342D02*
X248786009Y-189164342D01*
X248940771Y-190211961D02*
X247988390Y-190211961D01*
X248238390Y-188211961D01*
X249190771Y-188211961D01*
X249797914Y-190211961D02*
X250047914Y-188211961D01*
X250940771Y-190211961D01*
X251190771Y-188211961D01*
X251857438Y-188211961D02*
X253000295Y-188211961D01*
X252178866Y-190211961D02*
X252428866Y-188211961D01*
X253416961Y-190211961D02*
X253666961Y-188211961D01*
X254369342Y-190211961D02*
X254619342Y-188211961D01*
X255512199Y-190211961D01*
X255762199Y-188211961D01*
X256440771Y-189640533D02*
X257393152Y-189640533D01*
X256178866Y-190211961D02*
X257095533Y-188211961D01*
X257512199Y-190211961D01*
X258202676Y-190021485D02*
X258286009Y-190116723D01*
X258178866Y-190211961D01*
X258095533Y-190116723D01*
X258202676Y-190021485D01*
X258178866Y-190211961D01*
X261821723Y-190021485D02*
X261714580Y-190116723D01*
X261416961Y-190211961D01*
X261226485Y-190211961D01*
X260952676Y-190116723D01*
X260786009Y-189926247D01*
X260714580Y-189735771D01*
X260666961Y-189354819D01*
X260702676Y-189069104D01*
X260845533Y-188688152D01*
X260964580Y-188497676D01*
X261178866Y-188307200D01*
X261476485Y-188211961D01*
X261666961Y-188211961D01*
X261940771Y-188307200D01*
X262024104Y-188402438D01*
X262655057Y-190211961D02*
X262905057Y-188211961D01*
X263583628Y-189640533D02*
X264536009Y-189640533D01*
X263321723Y-190211961D02*
X264238390Y-188211961D01*
X264655057Y-190211961D01*
X265297914Y-189640533D02*
X266250295Y-189640533D01*
X265036009Y-190211961D02*
X265952676Y-188211961D01*
X266369342Y-190211961D01*
X267131247Y-189450057D02*
X268655057Y-189450057D01*
X269488390Y-189640533D02*
X270440771Y-189640533D01*
X269226485Y-190211961D02*
X270143152Y-188211961D01*
X270559819Y-190211961D01*
X272393152Y-190021485D02*
X272286009Y-190116723D01*
X271988390Y-190211961D01*
X271797914Y-190211961D01*
X271524104Y-190116723D01*
X271357438Y-189926247D01*
X271286009Y-189735771D01*
X271238390Y-189354819D01*
X271274104Y-189069104D01*
X271416961Y-188688152D01*
X271536009Y-188497676D01*
X271750295Y-188307200D01*
X272047914Y-188211961D01*
X272238390Y-188211961D01*
X272512200Y-188307200D01*
X272595533Y-188402438D01*
X274393152Y-190021485D02*
X274286009Y-190116723D01*
X273988390Y-190211961D01*
X273797914Y-190211961D01*
X273524104Y-190116723D01*
X273357438Y-189926247D01*
X273286009Y-189735771D01*
X273238390Y-189354819D01*
X273274104Y-189069104D01*
X273416961Y-188688152D01*
X273536009Y-188497676D01*
X273750295Y-188307200D01*
X274047914Y-188211961D01*
X274238390Y-188211961D01*
X274512200Y-188307200D01*
X274595533Y-188402438D01*
X277226485Y-190973866D02*
X277143152Y-190878628D01*
X276988390Y-190592914D01*
X276916961Y-190402438D01*
X276857438Y-190116723D01*
X276821723Y-189640533D01*
X276869342Y-189259580D01*
X277024104Y-188783390D01*
X277155057Y-188497676D01*
X277274104Y-188307200D01*
X277500295Y-188021485D01*
X277607438Y-187926247D01*
X278083628Y-190211961D02*
X278333628Y-188211961D01*
X278214580Y-189164342D02*
X279357438Y-189164342D01*
X279226485Y-190211961D02*
X279476485Y-188211961D01*
X280178866Y-190211961D02*
X280428866Y-188211961D01*
X281190771Y-188211961D01*
X281369342Y-188307200D01*
X281452676Y-188402438D01*
X281524104Y-188592914D01*
X281488390Y-188878628D01*
X281369342Y-189069104D01*
X281262200Y-189164342D01*
X281059819Y-189259580D01*
X280297914Y-189259580D01*
X283345533Y-190021485D02*
X283238390Y-190116723D01*
X282940771Y-190211961D01*
X282750295Y-190211961D01*
X282476485Y-190116723D01*
X282309819Y-189926247D01*
X282238390Y-189735771D01*
X282190771Y-189354819D01*
X282226485Y-189069104D01*
X282369342Y-188688152D01*
X282488390Y-188497676D01*
X282702676Y-188307200D01*
X283000295Y-188211961D01*
X283190771Y-188211961D01*
X283464580Y-188307200D01*
X283547914Y-188402438D01*
X283893152Y-190973866D02*
X284000295Y-190878628D01*
X284226485Y-190592914D01*
X284345533Y-190402438D01*
X284476485Y-190116723D01*
X284631247Y-189640533D01*
X284678866Y-189259580D01*
X284643152Y-188783390D01*
X284583628Y-188497676D01*
X284512200Y-188307200D01*
X284357438Y-188021485D01*
X284274104Y-187926247D01*
D10*
D11*
X178934342Y-185600057D02*
X178434342Y-185600057D01*
X178434342Y-186385771D02*
X178434342Y-184885771D01*
X179148628Y-184885771D01*
X179720057Y-186385771D02*
X179720057Y-185385771D01*
X179720057Y-184885771D02*
X179648628Y-184957200D01*
X179720057Y-185028628D01*
X179791485Y-184957200D01*
X179720057Y-184885771D01*
X179720057Y-185028628D01*
X180648628Y-186385771D02*
X180505771Y-186314342D01*
X180434342Y-186171485D01*
X180434342Y-184885771D01*
X181791485Y-186314342D02*
X181648628Y-186385771D01*
X181362914Y-186385771D01*
X181220057Y-186314342D01*
X181148628Y-186171485D01*
X181148628Y-185600057D01*
X181220057Y-185457200D01*
X181362914Y-185385771D01*
X181648628Y-185385771D01*
X181791485Y-185457200D01*
X181862914Y-185600057D01*
X181862914Y-185742914D01*
X181148628Y-185885771D01*
X182505771Y-186242914D02*
X182577200Y-186314342D01*
X182505771Y-186385771D01*
X182434342Y-186314342D01*
X182505771Y-186242914D01*
X182505771Y-186385771D01*
X182505771Y-185457200D02*
X182577200Y-185528628D01*
X182505771Y-185600057D01*
X182434342Y-185528628D01*
X182505771Y-185457200D01*
X182505771Y-185600057D01*
X185005771Y-186314342D02*
X184862914Y-186385771D01*
X184577200Y-186385771D01*
X184434342Y-186314342D01*
X184362914Y-186242914D01*
X184291485Y-186100057D01*
X184291485Y-185671485D01*
X184362914Y-185528628D01*
X184434342Y-185457200D01*
X184577200Y-185385771D01*
X184862914Y-185385771D01*
X185005771Y-185457200D01*
X185648628Y-186385771D02*
X185648628Y-185385771D01*
X185648628Y-184885771D02*
X185577200Y-184957200D01*
X185648628Y-185028628D01*
X185720057Y-184957200D01*
X185648628Y-184885771D01*
X185648628Y-185028628D01*
X187005771Y-186385771D02*
X187005771Y-185600057D01*
X186934342Y-185457200D01*
X186791485Y-185385771D01*
X186505771Y-185385771D01*
X186362914Y-185457200D01*
X187005771Y-186314342D02*
X186862914Y-186385771D01*
X186505771Y-186385771D01*
X186362914Y-186314342D01*
X186291485Y-186171485D01*
X186291485Y-186028628D01*
X186362914Y-185885771D01*
X186505771Y-185814342D01*
X186862914Y-185814342D01*
X187005771Y-185742914D01*
X188362914Y-186385771D02*
X188362914Y-185600057D01*
X188291485Y-185457200D01*
X188148628Y-185385771D01*
X187862914Y-185385771D01*
X187720057Y-185457200D01*
X188362914Y-186314342D02*
X188220057Y-186385771D01*
X187862914Y-186385771D01*
X187720057Y-186314342D01*
X187648628Y-186171485D01*
X187648628Y-186028628D01*
X187720057Y-185885771D01*
X187862914Y-185814342D01*
X188220057Y-185814342D01*
X188362914Y-185742914D01*
X188720057Y-186528628D02*
X189862914Y-186528628D01*
X190862914Y-186385771D02*
X190862914Y-185600057D01*
X190791485Y-185457200D01*
X190648628Y-185385771D01*
X190362914Y-185385771D01*
X190220057Y-185457200D01*
X190862914Y-186314342D02*
X190720057Y-186385771D01*
X190362914Y-186385771D01*
X190220057Y-186314342D01*
X190148628Y-186171485D01*
X190148628Y-186028628D01*
X190220057Y-185885771D01*
X190362914Y-185814342D01*
X190720057Y-185814342D01*
X190862914Y-185742914D01*
X192220057Y-186314342D02*
X192077200Y-186385771D01*
X191791485Y-186385771D01*
X191648628Y-186314342D01*
X191577200Y-186242914D01*
X191505771Y-186100057D01*
X191505771Y-185671485D01*
X191577200Y-185528628D01*
X191648628Y-185457200D01*
X191791485Y-185385771D01*
X192077200Y-185385771D01*
X192220057Y-185457200D01*
X193505771Y-186314342D02*
X193362914Y-186385771D01*
X193077200Y-186385771D01*
X192934342Y-186314342D01*
X192862914Y-186242914D01*
X192791485Y-186100057D01*
X192791485Y-185671485D01*
X192862914Y-185528628D01*
X192934342Y-185457200D01*
X193077200Y-185385771D01*
X193362914Y-185385771D01*
X193505771Y-185457200D01*
X194148628Y-186242914D02*
X194220057Y-186314342D01*
X194148628Y-186385771D01*
X194077200Y-186314342D01*
X194148628Y-186242914D01*
X194148628Y-186385771D01*
X194862914Y-186385771D02*
X194862914Y-184885771D01*
X195005771Y-185814342D02*
X195434342Y-186385771D01*
X195434342Y-185385771D02*
X194862914Y-185957200D01*
X196077200Y-186385771D02*
X196077200Y-185385771D01*
X196077200Y-184885771D02*
X196005771Y-184957200D01*
X196077200Y-185028628D01*
X196148628Y-184957200D01*
X196077200Y-184885771D01*
X196077200Y-185028628D01*
X197434342Y-186314342D02*
X197291485Y-186385771D01*
X197005771Y-186385771D01*
X196862914Y-186314342D01*
X196791485Y-186242914D01*
X196720057Y-186100057D01*
X196720057Y-185671485D01*
X196791485Y-185528628D01*
X196862914Y-185457200D01*
X197005771Y-185385771D01*
X197291485Y-185385771D01*
X197434342Y-185457200D01*
X198720057Y-186385771D02*
X198720057Y-185600057D01*
X198648628Y-185457200D01*
X198505771Y-185385771D01*
X198220057Y-185385771D01*
X198077200Y-185457200D01*
X198720057Y-186314342D02*
X198577200Y-186385771D01*
X198220057Y-186385771D01*
X198077200Y-186314342D01*
X198005771Y-186171485D01*
X198005771Y-186028628D01*
X198077200Y-185885771D01*
X198220057Y-185814342D01*
X198577200Y-185814342D01*
X198720057Y-185742914D01*
X200077200Y-186385771D02*
X200077200Y-184885771D01*
X200077200Y-186314342D02*
X199934342Y-186385771D01*
X199648628Y-186385771D01*
X199505771Y-186314342D01*
X199434342Y-186242914D01*
X199362914Y-186100057D01*
X199362914Y-185671485D01*
X199434342Y-185528628D01*
X199505771Y-185457200D01*
X199648628Y-185385771D01*
X199934342Y-185385771D01*
X200077200Y-185457200D01*
X200434342Y-186528628D02*
X201577200Y-186528628D01*
X201934342Y-185385771D02*
X201934342Y-186885771D01*
X201934342Y-185457200D02*
X202077200Y-185385771D01*
X202362914Y-185385771D01*
X202505771Y-185457200D01*
X202577200Y-185528628D01*
X202648628Y-185671485D01*
X202648628Y-186100057D01*
X202577200Y-186242914D01*
X202505771Y-186314342D01*
X202362914Y-186385771D01*
X202077200Y-186385771D01*
X201934342Y-186314342D01*
X203934342Y-186314342D02*
X203791485Y-186385771D01*
X203505771Y-186385771D01*
X203362914Y-186314342D01*
X203291485Y-186242914D01*
X203220057Y-186100057D01*
X203220057Y-185671485D01*
X203291485Y-185528628D01*
X203362914Y-185457200D01*
X203505771Y-185385771D01*
X203791485Y-185385771D01*
X203934342Y-185457200D01*
X204577200Y-186385771D02*
X204577200Y-184885771D01*
X204577200Y-185457200D02*
X204720057Y-185385771D01*
X205005771Y-185385771D01*
X205148628Y-185457200D01*
X205220057Y-185528628D01*
X205291485Y-185671485D01*
X205291485Y-186100057D01*
X205220057Y-186242914D01*
X205148628Y-186314342D01*
X205005771Y-186385771D01*
X204720057Y-186385771D01*
X204577200Y-186314342D01*
D10*
D11*
X177002200Y-181507200D02*
X285002200Y-181507200D01*
D10*
D11*
X178362914Y-183614342D02*
X178577200Y-183685771D01*
X178934342Y-183685771D01*
X179077200Y-183614342D01*
X179148628Y-183542914D01*
X179220057Y-183400057D01*
X179220057Y-183257200D01*
X179148628Y-183114342D01*
X179077200Y-183042914D01*
X178934342Y-182971485D01*
X178648628Y-182900057D01*
X178505771Y-182828628D01*
X178434342Y-182757200D01*
X178362914Y-182614342D01*
X178362914Y-182471485D01*
X178434342Y-182328628D01*
X178505771Y-182257200D01*
X178648628Y-182185771D01*
X179005771Y-182185771D01*
X179220057Y-182257200D01*
X179862914Y-183685771D02*
X179862914Y-182185771D01*
X180505771Y-183685771D02*
X180505771Y-182900057D01*
X180434342Y-182757200D01*
X180291485Y-182685771D01*
X180077200Y-182685771D01*
X179934342Y-182757200D01*
X179862914Y-182828628D01*
X181791485Y-183614342D02*
X181648628Y-183685771D01*
X181362914Y-183685771D01*
X181220057Y-183614342D01*
X181148628Y-183471485D01*
X181148628Y-182900057D01*
X181220057Y-182757200D01*
X181362914Y-182685771D01*
X181648628Y-182685771D01*
X181791485Y-182757200D01*
X181862914Y-182900057D01*
X181862914Y-183042914D01*
X181148628Y-183185771D01*
X183077200Y-183614342D02*
X182934342Y-183685771D01*
X182648628Y-183685771D01*
X182505771Y-183614342D01*
X182434342Y-183471485D01*
X182434342Y-182900057D01*
X182505771Y-182757200D01*
X182648628Y-182685771D01*
X182934342Y-182685771D01*
X183077200Y-182757200D01*
X183148628Y-182900057D01*
X183148628Y-183042914D01*
X182434342Y-183185771D01*
X183577200Y-182685771D02*
X184148628Y-182685771D01*
X183791485Y-182185771D02*
X183791485Y-183471485D01*
X183862914Y-183614342D01*
X184005771Y-183685771D01*
X184148628Y-183685771D01*
X184648628Y-183542914D02*
X184720057Y-183614342D01*
X184648628Y-183685771D01*
X184577200Y-183614342D01*
X184648628Y-183542914D01*
X184648628Y-183685771D01*
X184648628Y-182757200D02*
X184720057Y-182828628D01*
X184648628Y-182900057D01*
X184577200Y-182828628D01*
X184648628Y-182757200D01*
X184648628Y-182900057D01*
D10*
D12*
X178554342Y-180685771D02*
X178554342Y-179185771D01*
X179268628Y-179685771D02*
X179268628Y-180685771D01*
X179268628Y-179828628D02*
X179340057Y-179757200D01*
X179482914Y-179685771D01*
X179697200Y-179685771D01*
X179840057Y-179757200D01*
X179911485Y-179900057D01*
X179911485Y-180685771D01*
X180554342Y-180614342D02*
X180697200Y-180685771D01*
X180982914Y-180685771D01*
X181125771Y-180614342D01*
X181197200Y-180471485D01*
X181197200Y-180400057D01*
X181125771Y-180257200D01*
X180982914Y-180185771D01*
X180768628Y-180185771D01*
X180625771Y-180114342D01*
X180554342Y-179971485D01*
X180554342Y-179900057D01*
X180625771Y-179757200D01*
X180768628Y-179685771D01*
X180982914Y-179685771D01*
X181125771Y-179757200D01*
X181625771Y-179685771D02*
X182197200Y-179685771D01*
X181840057Y-179185771D02*
X181840057Y-180471485D01*
X181911485Y-180614342D01*
X182054342Y-180685771D01*
X182197200Y-180685771D01*
X182697200Y-180685771D02*
X182697200Y-179685771D01*
X182697200Y-179185771D02*
X182625771Y-179257200D01*
X182697200Y-179328628D01*
X182768628Y-179257200D01*
X182697200Y-179185771D01*
X182697200Y-179328628D01*
X183197200Y-179685771D02*
X183768628Y-179685771D01*
X183411485Y-179185771D02*
X183411485Y-180471485D01*
X183482914Y-180614342D01*
X183625771Y-180685771D01*
X183768628Y-180685771D01*
X184911485Y-179685771D02*
X184911485Y-180685771D01*
X184268628Y-179685771D02*
X184268628Y-180471485D01*
X184340057Y-180614342D01*
X184482914Y-180685771D01*
X184697200Y-180685771D01*
X184840057Y-180614342D01*
X184911485Y-180542914D01*
X185411485Y-179685771D02*
X185982914Y-179685771D01*
X185625771Y-179185771D02*
X185625771Y-180471485D01*
X185697200Y-180614342D01*
X185840057Y-180685771D01*
X185982914Y-180685771D01*
X186697200Y-180685771D02*
X186554342Y-180614342D01*
X186482914Y-180542914D01*
X186411485Y-180400057D01*
X186411485Y-179971485D01*
X186482914Y-179828628D01*
X186554342Y-179757200D01*
X186697200Y-179685771D01*
X186911485Y-179685771D01*
X187054342Y-179757200D01*
X187125771Y-179828628D01*
X187197200Y-179971485D01*
X187197200Y-180400057D01*
X187125771Y-180542914D01*
X187054342Y-180614342D01*
X186911485Y-180685771D01*
X186697200Y-180685771D01*
X188982914Y-180685771D02*
X188982914Y-179185771D01*
X189840057Y-180685771D01*
X189840057Y-179185771D01*
X191197200Y-180685771D02*
X191197200Y-179900057D01*
X191125771Y-179757200D01*
X190982914Y-179685771D01*
X190697200Y-179685771D01*
X190554342Y-179757200D01*
X191197200Y-180614342D02*
X191054342Y-180685771D01*
X190697200Y-180685771D01*
X190554342Y-180614342D01*
X190482914Y-180471485D01*
X190482914Y-180328628D01*
X190554342Y-180185771D01*
X190697200Y-180114342D01*
X191054342Y-180114342D01*
X191197200Y-180042914D01*
X192554342Y-180614342D02*
X192411485Y-180685771D01*
X192125771Y-180685771D01*
X191982914Y-180614342D01*
X191911485Y-180542914D01*
X191840057Y-180400057D01*
X191840057Y-179971485D01*
X191911485Y-179828628D01*
X191982914Y-179757200D01*
X192125771Y-179685771D01*
X192411485Y-179685771D01*
X192554342Y-179757200D01*
X193197200Y-180685771D02*
X193197200Y-179685771D01*
X193197200Y-179185771D02*
X193125771Y-179257200D01*
X193197200Y-179328628D01*
X193268628Y-179257200D01*
X193197200Y-179185771D01*
X193197200Y-179328628D01*
X194125771Y-180685771D02*
X193982914Y-180614342D01*
X193911485Y-180542914D01*
X193840057Y-180400057D01*
X193840057Y-179971485D01*
X193911485Y-179828628D01*
X193982914Y-179757200D01*
X194125771Y-179685771D01*
X194340057Y-179685771D01*
X194482914Y-179757200D01*
X194554342Y-179828628D01*
X194625771Y-179971485D01*
X194625771Y-180400057D01*
X194554342Y-180542914D01*
X194482914Y-180614342D01*
X194340057Y-180685771D01*
X194125771Y-180685771D01*
X195268628Y-179685771D02*
X195268628Y-180685771D01*
X195268628Y-179828628D02*
X195340057Y-179757200D01*
X195482914Y-179685771D01*
X195697200Y-179685771D01*
X195840057Y-179757200D01*
X195911485Y-179900057D01*
X195911485Y-180685771D01*
X197268628Y-180685771D02*
X197268628Y-179900057D01*
X197197200Y-179757200D01*
X197054342Y-179685771D01*
X196768628Y-179685771D01*
X196625771Y-179757200D01*
X197268628Y-180614342D02*
X197125771Y-180685771D01*
X196768628Y-180685771D01*
X196625771Y-180614342D01*
X196554342Y-180471485D01*
X196554342Y-180328628D01*
X196625771Y-180185771D01*
X196768628Y-180114342D01*
X197125771Y-180114342D01*
X197268628Y-180042914D01*
X198197200Y-180685771D02*
X198054342Y-180614342D01*
X197982914Y-180471485D01*
X197982914Y-179185771D01*
X200554342Y-180685771D02*
X200554342Y-179185771D01*
X200554342Y-180614342D02*
X200411485Y-180685771D01*
X200125771Y-180685771D01*
X199982914Y-180614342D01*
X199911485Y-180542914D01*
X199840057Y-180400057D01*
X199840057Y-179971485D01*
X199911485Y-179828628D01*
X199982914Y-179757200D01*
X200125771Y-179685771D01*
X200411485Y-179685771D01*
X200554342Y-179757200D01*
X201840057Y-180614342D02*
X201697200Y-180685771D01*
X201411485Y-180685771D01*
X201268628Y-180614342D01*
X201197200Y-180471485D01*
X201197200Y-179900057D01*
X201268628Y-179757200D01*
X201411485Y-179685771D01*
X201697200Y-179685771D01*
X201840057Y-179757200D01*
X201911485Y-179900057D01*
X201911485Y-180042914D01*
X201197200Y-180185771D01*
X203482914Y-179185771D02*
X204340057Y-179185771D01*
X203911485Y-180685771D02*
X203911485Y-179185771D01*
X205411485Y-180614342D02*
X205268628Y-180685771D01*
X204982914Y-180685771D01*
X204840057Y-180614342D01*
X204768628Y-180471485D01*
X204768628Y-179900057D01*
X204840057Y-179757200D01*
X204982914Y-179685771D01*
X205268628Y-179685771D01*
X205411485Y-179757200D01*
X205482914Y-179900057D01*
X205482914Y-180042914D01*
X204768628Y-180185771D01*
X206768628Y-180614342D02*
X206625771Y-180685771D01*
X206340057Y-180685771D01*
X206197200Y-180614342D01*
X206125771Y-180542914D01*
X206054342Y-180400057D01*
X206054342Y-179971485D01*
X206125771Y-179828628D01*
X206197200Y-179757200D01*
X206340057Y-179685771D01*
X206625771Y-179685771D01*
X206768628Y-179757200D01*
X207411485Y-179685771D02*
X207411485Y-180685771D01*
X207411485Y-179828628D02*
X207482914Y-179757200D01*
X207625771Y-179685771D01*
X207840057Y-179685771D01*
X207982914Y-179757200D01*
X208054342Y-179900057D01*
X208054342Y-180685771D01*
X208982914Y-180685771D02*
X208840057Y-180614342D01*
X208768628Y-180542914D01*
X208697200Y-180400057D01*
X208697200Y-179971485D01*
X208768628Y-179828628D01*
X208840057Y-179757200D01*
X208982914Y-179685771D01*
X209197200Y-179685771D01*
X209340057Y-179757200D01*
X209411485Y-179828628D01*
X209482914Y-179971485D01*
X209482914Y-180400057D01*
X209411485Y-180542914D01*
X209340057Y-180614342D01*
X209197200Y-180685771D01*
X208982914Y-180685771D01*
X210340057Y-180685771D02*
X210197200Y-180614342D01*
X210125771Y-180471485D01*
X210125771Y-179185771D01*
X211125771Y-180685771D02*
X210982914Y-180614342D01*
X210911485Y-180542914D01*
X210840057Y-180400057D01*
X210840057Y-179971485D01*
X210911485Y-179828628D01*
X210982914Y-179757200D01*
X211125771Y-179685771D01*
X211340057Y-179685771D01*
X211482914Y-179757200D01*
X211554342Y-179828628D01*
X211625771Y-179971485D01*
X211625771Y-180400057D01*
X211554342Y-180542914D01*
X211482914Y-180614342D01*
X211340057Y-180685771D01*
X211125771Y-180685771D01*
X212911485Y-179685771D02*
X212911485Y-180900057D01*
X212840057Y-181042914D01*
X212768628Y-181114342D01*
X212625771Y-181185771D01*
X212411485Y-181185771D01*
X212268628Y-181114342D01*
X212911485Y-180614342D02*
X212768628Y-180685771D01*
X212482914Y-180685771D01*
X212340057Y-180614342D01*
X212268628Y-180542914D01*
X212197200Y-180400057D01*
X212197200Y-179971485D01*
X212268628Y-179828628D01*
X212340057Y-179757200D01*
X212482914Y-179685771D01*
X212768628Y-179685771D01*
X212911485Y-179757200D01*
X213625771Y-180685771D02*
X213625771Y-179685771D01*
X213768628Y-179114342D02*
X213554342Y-179328628D01*
X214982914Y-180685771D02*
X214982914Y-179900057D01*
X214911485Y-179757200D01*
X214768628Y-179685771D01*
X214482914Y-179685771D01*
X214340057Y-179757200D01*
X214982914Y-180614342D02*
X214840057Y-180685771D01*
X214482914Y-180685771D01*
X214340057Y-180614342D01*
X214268628Y-180471485D01*
X214268628Y-180328628D01*
X214340057Y-180185771D01*
X214482914Y-180114342D01*
X214840057Y-180114342D01*
X214982914Y-180042914D01*
X216840057Y-180685771D02*
X216840057Y-179185771D01*
X217554342Y-179685771D02*
X217554342Y-180685771D01*
X217554342Y-179828628D02*
X217625771Y-179757200D01*
X217768628Y-179685771D01*
X217982914Y-179685771D01*
X218125771Y-179757200D01*
X218197200Y-179900057D01*
X218197200Y-180685771D01*
X219554342Y-180685771D02*
X219554342Y-179185771D01*
X219554342Y-180614342D02*
X219411485Y-180685771D01*
X219125771Y-180685771D01*
X218982914Y-180614342D01*
X218911485Y-180542914D01*
X218840057Y-180400057D01*
X218840057Y-179971485D01*
X218911485Y-179828628D01*
X218982914Y-179757200D01*
X219125771Y-179685771D01*
X219411485Y-179685771D01*
X219554342Y-179757200D01*
X220911485Y-179685771D02*
X220911485Y-180685771D01*
X220268628Y-179685771D02*
X220268628Y-180471485D01*
X220340057Y-180614342D01*
X220482914Y-180685771D01*
X220697200Y-180685771D01*
X220840057Y-180614342D01*
X220911485Y-180542914D01*
X221554342Y-180614342D02*
X221697200Y-180685771D01*
X221982914Y-180685771D01*
X222125771Y-180614342D01*
X222197200Y-180471485D01*
X222197200Y-180400057D01*
X222125771Y-180257200D01*
X221982914Y-180185771D01*
X221768628Y-180185771D01*
X221625771Y-180114342D01*
X221554342Y-179971485D01*
X221554342Y-179900057D01*
X221625771Y-179757200D01*
X221768628Y-179685771D01*
X221982914Y-179685771D01*
X222125771Y-179757200D01*
X222625771Y-179685771D02*
X223197200Y-179685771D01*
X222840057Y-179185771D02*
X222840057Y-180471485D01*
X222911485Y-180614342D01*
X223054342Y-180685771D01*
X223197200Y-180685771D01*
X223697200Y-180685771D02*
X223697200Y-179685771D01*
X223697200Y-179971485D02*
X223768628Y-179828628D01*
X223840057Y-179757200D01*
X223982914Y-179685771D01*
X224125771Y-179685771D01*
X224625771Y-180685771D02*
X224625771Y-179685771D01*
X224625771Y-179185771D02*
X224554342Y-179257200D01*
X224625771Y-179328628D01*
X224697200Y-179257200D01*
X224625771Y-179185771D01*
X224625771Y-179328628D01*
X225982914Y-180685771D02*
X225982914Y-179900057D01*
X225911485Y-179757200D01*
X225768628Y-179685771D01*
X225482914Y-179685771D01*
X225340057Y-179757200D01*
X225982914Y-180614342D02*
X225840057Y-180685771D01*
X225482914Y-180685771D01*
X225340057Y-180614342D01*
X225268628Y-180471485D01*
X225268628Y-180328628D01*
X225340057Y-180185771D01*
X225482914Y-180114342D01*
X225840057Y-180114342D01*
X225982914Y-180042914D01*
X226911485Y-180685771D02*
X226768628Y-180614342D01*
X226697200Y-180471485D01*
X226697200Y-179185771D01*
X228625771Y-180114342D02*
X229768628Y-180114342D01*
X232482914Y-180542914D02*
X232411485Y-180614342D01*
X232197200Y-180685771D01*
X232054342Y-180685771D01*
X231840057Y-180614342D01*
X231697200Y-180471485D01*
X231625771Y-180328628D01*
X231554342Y-180042914D01*
X231554342Y-179828628D01*
X231625771Y-179542914D01*
X231697200Y-179400057D01*
X231840057Y-179257200D01*
X232054342Y-179185771D01*
X232197200Y-179185771D01*
X232411485Y-179257200D01*
X232482914Y-179328628D01*
X233697200Y-180614342D02*
X233554342Y-180685771D01*
X233268628Y-180685771D01*
X233125771Y-180614342D01*
X233054342Y-180471485D01*
X233054342Y-179900057D01*
X233125771Y-179757200D01*
X233268628Y-179685771D01*
X233554342Y-179685771D01*
X233697200Y-179757200D01*
X233768628Y-179900057D01*
X233768628Y-180042914D01*
X233054342Y-180185771D01*
X234411485Y-179685771D02*
X234411485Y-180685771D01*
X234411485Y-179828628D02*
X234482914Y-179757200D01*
X234625771Y-179685771D01*
X234840057Y-179685771D01*
X234982914Y-179757200D01*
X235054342Y-179900057D01*
X235054342Y-180685771D01*
X235554342Y-179685771D02*
X236125771Y-179685771D01*
X235768628Y-179185771D02*
X235768628Y-180471485D01*
X235840057Y-180614342D01*
X235982914Y-180685771D01*
X236125771Y-180685771D01*
X236625771Y-180685771D02*
X236625771Y-179685771D01*
X236625771Y-179971485D02*
X236697200Y-179828628D01*
X236768628Y-179757200D01*
X236911485Y-179685771D01*
X237054342Y-179685771D01*
X237768628Y-180685771D02*
X237625771Y-180614342D01*
X237554342Y-180542914D01*
X237482914Y-180400057D01*
X237482914Y-179971485D01*
X237554342Y-179828628D01*
X237625771Y-179757200D01*
X237768628Y-179685771D01*
X237982914Y-179685771D01*
X238125771Y-179757200D01*
X238197200Y-179828628D01*
X238268628Y-179971485D01*
X238268628Y-180400057D01*
X238197200Y-180542914D01*
X238125771Y-180614342D01*
X237982914Y-180685771D01*
X237768628Y-180685771D01*
X240697200Y-180685771D02*
X240697200Y-179185771D01*
X240697200Y-180614342D02*
X240554342Y-180685771D01*
X240268628Y-180685771D01*
X240125771Y-180614342D01*
X240054342Y-180542914D01*
X239982914Y-180400057D01*
X239982914Y-179971485D01*
X240054342Y-179828628D01*
X240125771Y-179757200D01*
X240268628Y-179685771D01*
X240554342Y-179685771D01*
X240697200Y-179757200D01*
X241982914Y-180614342D02*
X241840057Y-180685771D01*
X241554342Y-180685771D01*
X241411485Y-180614342D01*
X241340057Y-180471485D01*
X241340057Y-179900057D01*
X241411485Y-179757200D01*
X241554342Y-179685771D01*
X241840057Y-179685771D01*
X241982914Y-179757200D01*
X242054342Y-179900057D01*
X242054342Y-180042914D01*
X241340057Y-180185771D01*
X243840057Y-180685771D02*
X243840057Y-179185771D01*
X244340057Y-180257200D01*
X244840057Y-179185771D01*
X244840057Y-180685771D01*
X245554342Y-180685771D02*
X245554342Y-179685771D01*
X245554342Y-179185771D02*
X245482914Y-179257200D01*
X245554342Y-179328628D01*
X245625771Y-179257200D01*
X245554342Y-179185771D01*
X245554342Y-179328628D01*
X246911485Y-180614342D02*
X246768628Y-180685771D01*
X246482914Y-180685771D01*
X246340057Y-180614342D01*
X246268628Y-180542914D01*
X246197200Y-180400057D01*
X246197200Y-179971485D01*
X246268628Y-179828628D01*
X246340057Y-179757200D01*
X246482914Y-179685771D01*
X246768628Y-179685771D01*
X246911485Y-179757200D01*
X247554342Y-180685771D02*
X247554342Y-179685771D01*
X247554342Y-179971485D02*
X247625771Y-179828628D01*
X247697200Y-179757200D01*
X247840057Y-179685771D01*
X247982914Y-179685771D01*
X248697200Y-180685771D02*
X248554342Y-180614342D01*
X248482914Y-180542914D01*
X248411485Y-180400057D01*
X248411485Y-179971485D01*
X248482914Y-179828628D01*
X248554342Y-179757200D01*
X248697200Y-179685771D01*
X248911485Y-179685771D01*
X249054342Y-179757200D01*
X249125771Y-179828628D01*
X249197200Y-179971485D01*
X249197200Y-180400057D01*
X249125771Y-180542914D01*
X249054342Y-180614342D01*
X248911485Y-180685771D01*
X248697200Y-180685771D01*
X250840057Y-179685771D02*
X251197200Y-180685771D01*
X251554342Y-179685771D02*
X251197200Y-180685771D01*
X251054342Y-181042914D01*
X250982914Y-181114342D01*
X250840057Y-181185771D01*
X253268628Y-180685771D02*
X253268628Y-179185771D01*
X254125771Y-180685771D01*
X254125771Y-179185771D01*
X255482914Y-180685771D02*
X255482914Y-179900057D01*
X255411485Y-179757200D01*
X255268628Y-179685771D01*
X254982914Y-179685771D01*
X254840057Y-179757200D01*
X255482914Y-180614342D02*
X255340057Y-180685771D01*
X254982914Y-180685771D01*
X254840057Y-180614342D01*
X254768628Y-180471485D01*
X254768628Y-180328628D01*
X254840057Y-180185771D01*
X254982914Y-180114342D01*
X255340057Y-180114342D01*
X255482914Y-180042914D01*
X256197200Y-179685771D02*
X256197200Y-180685771D01*
X256197200Y-179828628D02*
X256268628Y-179757200D01*
X256411485Y-179685771D01*
X256625771Y-179685771D01*
X256768628Y-179757200D01*
X256840057Y-179900057D01*
X256840057Y-180685771D01*
X257768628Y-180685771D02*
X257625771Y-180614342D01*
X257554342Y-180542914D01*
X257482914Y-180400057D01*
X257482914Y-179971485D01*
X257554342Y-179828628D01*
X257625771Y-179757200D01*
X257768628Y-179685771D01*
X257982914Y-179685771D01*
X258125771Y-179757200D01*
X258197200Y-179828628D01*
X258268628Y-179971485D01*
X258268628Y-180400057D01*
X258197200Y-180542914D01*
X258125771Y-180614342D01*
X257982914Y-180685771D01*
X257768628Y-180685771D01*
X259482914Y-180614342D02*
X259340057Y-180685771D01*
X259054342Y-180685771D01*
X258911485Y-180614342D01*
X258840057Y-180471485D01*
X258840057Y-179900057D01*
X258911485Y-179757200D01*
X259054342Y-179685771D01*
X259340057Y-179685771D01*
X259482914Y-179757200D01*
X259554342Y-179900057D01*
X259554342Y-180042914D01*
X258840057Y-180185771D01*
X260411485Y-180685771D02*
X260268628Y-180614342D01*
X260197200Y-180471485D01*
X260197200Y-179185771D01*
X261554342Y-180614342D02*
X261411485Y-180685771D01*
X261125771Y-180685771D01*
X260982914Y-180614342D01*
X260911485Y-180471485D01*
X260911485Y-179900057D01*
X260982914Y-179757200D01*
X261125771Y-179685771D01*
X261411485Y-179685771D01*
X261554342Y-179757200D01*
X261625771Y-179900057D01*
X261625771Y-180042914D01*
X260911485Y-180185771D01*
X262911485Y-180614342D02*
X262768628Y-180685771D01*
X262482914Y-180685771D01*
X262340057Y-180614342D01*
X262268628Y-180542914D01*
X262197200Y-180400057D01*
X262197200Y-179971485D01*
X262268628Y-179828628D01*
X262340057Y-179757200D01*
X262482914Y-179685771D01*
X262768628Y-179685771D01*
X262911485Y-179757200D01*
X263340057Y-179685771D02*
X263911485Y-179685771D01*
X263554342Y-179185771D02*
X263554342Y-180471485D01*
X263625771Y-180614342D01*
X263768628Y-180685771D01*
X263911485Y-180685771D01*
X264411485Y-180685771D02*
X264411485Y-179685771D01*
X264411485Y-179971485D02*
X264482914Y-179828628D01*
X264554342Y-179757200D01*
X264697200Y-179685771D01*
X264840057Y-179685771D01*
X265554342Y-180685771D02*
X265411485Y-180614342D01*
X265340057Y-180542914D01*
X265268628Y-180400057D01*
X265268628Y-179971485D01*
X265340057Y-179828628D01*
X265411485Y-179757200D01*
X265554342Y-179685771D01*
X265768628Y-179685771D01*
X265911485Y-179757200D01*
X265982914Y-179828628D01*
X266054342Y-179971485D01*
X266054342Y-180400057D01*
X265982914Y-180542914D01*
X265911485Y-180614342D01*
X265768628Y-180685771D01*
X265554342Y-180685771D01*
X265840057Y-179114342D02*
X265625771Y-179328628D01*
X266697200Y-179685771D02*
X266697200Y-180685771D01*
X266697200Y-179828628D02*
X266768628Y-179757200D01*
X266911485Y-179685771D01*
X267125771Y-179685771D01*
X267268628Y-179757200D01*
X267340057Y-179900057D01*
X267340057Y-180685771D01*
X268054342Y-180685771D02*
X268054342Y-179685771D01*
X268054342Y-179185771D02*
X267982914Y-179257200D01*
X268054342Y-179328628D01*
X268125771Y-179257200D01*
X268054342Y-179185771D01*
X268054342Y-179328628D01*
X269411485Y-180614342D02*
X269268628Y-180685771D01*
X268982914Y-180685771D01*
X268840057Y-180614342D01*
X268768628Y-180542914D01*
X268697200Y-180400057D01*
X268697200Y-179971485D01*
X268768628Y-179828628D01*
X268840057Y-179757200D01*
X268982914Y-179685771D01*
X269268628Y-179685771D01*
X269411485Y-179757200D01*
X270697200Y-180685771D02*
X270697200Y-179900057D01*
X270625771Y-179757200D01*
X270482914Y-179685771D01*
X270197200Y-179685771D01*
X270054342Y-179757200D01*
X270697200Y-180614342D02*
X270554342Y-180685771D01*
X270197200Y-180685771D01*
X270054342Y-180614342D01*
X269982914Y-180471485D01*
X269982914Y-180328628D01*
X270054342Y-180185771D01*
X270197200Y-180114342D01*
X270554342Y-180114342D01*
X270697200Y-180042914D01*
D10*
D11*
X178362914Y-177257200D02*
X179077200Y-177257200D01*
X178220057Y-177685771D02*
X178720057Y-176185771D01*
X179220057Y-177685771D01*
X180362914Y-176685771D02*
X180362914Y-177685771D01*
X179720057Y-176685771D02*
X179720057Y-177471485D01*
X179791485Y-177614342D01*
X179934342Y-177685771D01*
X180148628Y-177685771D01*
X180291485Y-177614342D01*
X180362914Y-177542914D01*
X180862914Y-176685771D02*
X181434342Y-176685771D01*
X181077200Y-176185771D02*
X181077200Y-177471485D01*
X181148628Y-177614342D01*
X181291485Y-177685771D01*
X181434342Y-177685771D01*
X181934342Y-177685771D02*
X181934342Y-176185771D01*
X182577200Y-177685771D02*
X182577200Y-176900057D01*
X182505771Y-176757200D01*
X182362914Y-176685771D01*
X182148628Y-176685771D01*
X182005771Y-176757200D01*
X181934342Y-176828628D01*
X183505771Y-177685771D02*
X183362914Y-177614342D01*
X183291485Y-177542914D01*
X183220057Y-177400057D01*
X183220057Y-176971485D01*
X183291485Y-176828628D01*
X183362914Y-176757200D01*
X183505771Y-176685771D01*
X183720057Y-176685771D01*
X183862914Y-176757200D01*
X183934342Y-176828628D01*
X184005771Y-176971485D01*
X184005771Y-177400057D01*
X183934342Y-177542914D01*
X183862914Y-177614342D01*
X183720057Y-177685771D01*
X183505771Y-177685771D01*
X184648628Y-177685771D02*
X184648628Y-176685771D01*
X184648628Y-176971485D02*
X184720057Y-176828628D01*
X184791485Y-176757200D01*
X184934342Y-176685771D01*
X185077200Y-176685771D01*
X185505771Y-177614342D02*
X185648628Y-177685771D01*
X185934342Y-177685771D01*
X186077200Y-177614342D01*
X186148628Y-177471485D01*
X186148628Y-177400057D01*
X186077200Y-177257200D01*
X185934342Y-177185771D01*
X185720057Y-177185771D01*
X185577200Y-177114342D01*
X185505771Y-176971485D01*
X185505771Y-176900057D01*
X185577200Y-176757200D01*
X185720057Y-176685771D01*
X185934342Y-176685771D01*
X186077200Y-176757200D01*
X186791485Y-177542914D02*
X186862914Y-177614342D01*
X186791485Y-177685771D01*
X186720057Y-177614342D01*
X186791485Y-177542914D01*
X186791485Y-177685771D01*
X186791485Y-176757200D02*
X186862914Y-176828628D01*
X186791485Y-176900057D01*
X186720057Y-176828628D01*
X186791485Y-176757200D01*
X186791485Y-176900057D01*
X188577200Y-177614342D02*
X188791485Y-177685771D01*
X189148628Y-177685771D01*
X189291485Y-177614342D01*
X189362914Y-177542914D01*
X189434342Y-177400057D01*
X189434342Y-177257200D01*
X189362914Y-177114342D01*
X189291485Y-177042914D01*
X189148628Y-176971485D01*
X188862914Y-176900057D01*
X188720057Y-176828628D01*
X188648628Y-176757200D01*
X188577200Y-176614342D01*
X188577200Y-176471485D01*
X188648628Y-176328628D01*
X188720057Y-176257200D01*
X188862914Y-176185771D01*
X189220057Y-176185771D01*
X189434342Y-176257200D01*
X190648628Y-177614342D02*
X190505771Y-177685771D01*
X190220057Y-177685771D01*
X190077200Y-177614342D01*
X190005771Y-177471485D01*
X190005771Y-176900057D01*
X190077200Y-176757200D01*
X190220057Y-176685771D01*
X190505771Y-176685771D01*
X190648628Y-176757200D01*
X190720057Y-176900057D01*
X190720057Y-177042914D01*
X190005771Y-177185771D01*
X191934342Y-177614342D02*
X191791485Y-177685771D01*
X191505771Y-177685771D01*
X191362914Y-177614342D01*
X191291485Y-177471485D01*
X191291485Y-176900057D01*
X191362914Y-176757200D01*
X191505771Y-176685771D01*
X191791485Y-176685771D01*
X191934342Y-176757200D01*
X192005771Y-176900057D01*
X192005771Y-177042914D01*
X191291485Y-177185771D01*
X193862914Y-176185771D02*
X193720057Y-176471485D01*
X195148628Y-177685771D02*
X195148628Y-176185771D01*
X195148628Y-177614342D02*
X195005771Y-177685771D01*
X194720057Y-177685771D01*
X194577200Y-177614342D01*
X194505771Y-177542914D01*
X194434342Y-177400057D01*
X194434342Y-176971485D01*
X194505771Y-176828628D01*
X194577200Y-176757200D01*
X194720057Y-176685771D01*
X195005771Y-176685771D01*
X195148628Y-176757200D01*
X196077200Y-177685771D02*
X195934342Y-177614342D01*
X195862914Y-177542914D01*
X195791485Y-177400057D01*
X195791485Y-176971485D01*
X195862914Y-176828628D01*
X195934342Y-176757200D01*
X196077200Y-176685771D01*
X196291485Y-176685771D01*
X196434342Y-176757200D01*
X196505771Y-176828628D01*
X196577200Y-176971485D01*
X196577200Y-177400057D01*
X196505771Y-177542914D01*
X196434342Y-177614342D01*
X196291485Y-177685771D01*
X196077200Y-177685771D01*
X197862914Y-177614342D02*
X197720057Y-177685771D01*
X197434342Y-177685771D01*
X197291485Y-177614342D01*
X197220057Y-177542914D01*
X197148628Y-177400057D01*
X197148628Y-176971485D01*
X197220057Y-176828628D01*
X197291485Y-176757200D01*
X197434342Y-176685771D01*
X197720057Y-176685771D01*
X197862914Y-176757200D01*
X199577200Y-176114342D02*
X198291485Y-178042914D01*
X200934342Y-177542914D02*
X200862914Y-177614342D01*
X200648628Y-177685771D01*
X200505771Y-177685771D01*
X200291485Y-177614342D01*
X200148628Y-177471485D01*
X200077200Y-177328628D01*
X200005771Y-177042914D01*
X200005771Y-176828628D01*
X200077200Y-176542914D01*
X200148628Y-176400057D01*
X200291485Y-176257200D01*
X200505771Y-176185771D01*
X200648628Y-176185771D01*
X200862914Y-176257200D01*
X200934342Y-176328628D01*
X201577200Y-177685771D02*
X201577200Y-176185771D01*
X201577200Y-176900057D02*
X202434342Y-176900057D01*
X202434342Y-177685771D02*
X202434342Y-176185771D01*
X203077200Y-177257200D02*
X203791485Y-177257200D01*
X202934342Y-177685771D02*
X203434342Y-176185771D01*
X203934342Y-177685771D01*
X204434342Y-177685771D02*
X204434342Y-176185771D01*
X205291485Y-177685771D01*
X205291485Y-176185771D01*
X206791485Y-176257200D02*
X206648628Y-176185771D01*
X206434342Y-176185771D01*
X206220057Y-176257200D01*
X206077200Y-176400057D01*
X206005771Y-176542914D01*
X205934342Y-176828628D01*
X205934342Y-177042914D01*
X206005771Y-177328628D01*
X206077200Y-177471485D01*
X206220057Y-177614342D01*
X206434342Y-177685771D01*
X206577200Y-177685771D01*
X206791485Y-177614342D01*
X206862914Y-177542914D01*
X206862914Y-177042914D01*
X206577200Y-177042914D01*
X207505771Y-176900057D02*
X208005771Y-176900057D01*
X208220057Y-177685771D02*
X207505771Y-177685771D01*
X207505771Y-176185771D01*
X208220057Y-176185771D01*
X208791485Y-177614342D02*
X209005771Y-177685771D01*
X209362914Y-177685771D01*
X209505771Y-177614342D01*
X209577200Y-177542914D01*
X209648628Y-177400057D01*
X209648628Y-177257200D01*
X209577200Y-177114342D01*
X209505771Y-177042914D01*
X209362914Y-176971485D01*
X209077200Y-176900057D01*
X208934342Y-176828628D01*
X208862914Y-176757200D01*
X208791485Y-176614342D01*
X208791485Y-176471485D01*
X208862914Y-176328628D01*
X208934342Y-176257200D01*
X209077200Y-176185771D01*
X209434342Y-176185771D01*
X209648628Y-176257200D01*
X210291485Y-177542914D02*
X210362914Y-177614342D01*
X210291485Y-177685771D01*
X210220057Y-177614342D01*
X210291485Y-177542914D01*
X210291485Y-177685771D01*
X210791485Y-176685771D02*
X211362914Y-176685771D01*
X211005771Y-176185771D02*
X211005771Y-177471485D01*
X211077200Y-177614342D01*
X211220057Y-177685771D01*
X211362914Y-177685771D01*
X211720057Y-177685771D02*
X212505771Y-176685771D01*
X211720057Y-176685771D02*
X212505771Y-177685771D01*
X212862914Y-176685771D02*
X213434342Y-176685771D01*
X213077200Y-176185771D02*
X213077200Y-177471485D01*
X213148628Y-177614342D01*
X213291485Y-177685771D01*
X213434342Y-177685771D01*
X214005771Y-176185771D02*
X213862914Y-176471485D01*
X215577200Y-176685771D02*
X216148628Y-176685771D01*
X215791485Y-177685771D02*
X215791485Y-176400057D01*
X215862914Y-176257200D01*
X216005771Y-176185771D01*
X216148628Y-176185771D01*
X216648628Y-177685771D02*
X216648628Y-176685771D01*
X216648628Y-176185771D02*
X216577200Y-176257200D01*
X216648628Y-176328628D01*
X216720057Y-176257200D01*
X216648628Y-176185771D01*
X216648628Y-176328628D01*
X217577200Y-177685771D02*
X217434342Y-177614342D01*
X217362914Y-177471485D01*
X217362914Y-176185771D01*
X218720057Y-177614342D02*
X218577200Y-177685771D01*
X218291485Y-177685771D01*
X218148628Y-177614342D01*
X218077200Y-177471485D01*
X218077200Y-176900057D01*
X218148628Y-176757200D01*
X218291485Y-176685771D01*
X218577200Y-176685771D01*
X218720057Y-176757200D01*
X218791485Y-176900057D01*
X218791485Y-177042914D01*
X218077200Y-177185771D01*
X219434342Y-177542914D02*
X219505771Y-177614342D01*
X219434342Y-177685771D01*
X219362914Y-177614342D01*
X219434342Y-177542914D01*
X219434342Y-177685771D01*
X227720057Y-177685771D02*
X227005771Y-177685771D01*
X227005771Y-176185771D01*
X228220057Y-177685771D02*
X228220057Y-176685771D01*
X228220057Y-176185771D02*
X228148628Y-176257200D01*
X228220057Y-176328628D01*
X228291485Y-176257200D01*
X228220057Y-176185771D01*
X228220057Y-176328628D01*
X229577200Y-177614342D02*
X229434342Y-177685771D01*
X229148628Y-177685771D01*
X229005771Y-177614342D01*
X228934342Y-177542914D01*
X228862914Y-177400057D01*
X228862914Y-176971485D01*
X228934342Y-176828628D01*
X229005771Y-176757200D01*
X229148628Y-176685771D01*
X229434342Y-176685771D01*
X229577200Y-176757200D01*
X230791485Y-177614342D02*
X230648628Y-177685771D01*
X230362914Y-177685771D01*
X230220057Y-177614342D01*
X230148628Y-177471485D01*
X230148628Y-176900057D01*
X230220057Y-176757200D01*
X230362914Y-176685771D01*
X230648628Y-176685771D01*
X230791485Y-176757200D01*
X230862914Y-176900057D01*
X230862914Y-177042914D01*
X230148628Y-177185771D01*
X231505771Y-176685771D02*
X231505771Y-177685771D01*
X231505771Y-176828628D02*
X231577200Y-176757200D01*
X231720057Y-176685771D01*
X231934342Y-176685771D01*
X232077200Y-176757200D01*
X232148628Y-176900057D01*
X232148628Y-177685771D01*
X232791485Y-177614342D02*
X232934342Y-177685771D01*
X233220057Y-177685771D01*
X233362914Y-177614342D01*
X233434342Y-177471485D01*
X233434342Y-177400057D01*
X233362914Y-177257200D01*
X233220057Y-177185771D01*
X233005771Y-177185771D01*
X232862914Y-177114342D01*
X232791485Y-176971485D01*
X232791485Y-176900057D01*
X232862914Y-176757200D01*
X233005771Y-176685771D01*
X233220057Y-176685771D01*
X233362914Y-176757200D01*
X234648628Y-177614342D02*
X234505771Y-177685771D01*
X234220057Y-177685771D01*
X234077200Y-177614342D01*
X234005771Y-177471485D01*
X234005771Y-176900057D01*
X234077200Y-176757200D01*
X234220057Y-176685771D01*
X234505771Y-176685771D01*
X234648628Y-176757200D01*
X234720057Y-176900057D01*
X234720057Y-177042914D01*
X234005771Y-177185771D01*
X235362914Y-177542914D02*
X235434342Y-177614342D01*
X235362914Y-177685771D01*
X235291485Y-177614342D01*
X235362914Y-177542914D01*
X235362914Y-177685771D01*
X235362914Y-176757200D02*
X235434342Y-176828628D01*
X235362914Y-176900057D01*
X235291485Y-176828628D01*
X235362914Y-176757200D01*
X235362914Y-176900057D01*
X237148628Y-177614342D02*
X237362914Y-177685771D01*
X237720057Y-177685771D01*
X237862914Y-177614342D01*
X237934342Y-177542914D01*
X238005771Y-177400057D01*
X238005771Y-177257200D01*
X237934342Y-177114342D01*
X237862914Y-177042914D01*
X237720057Y-176971485D01*
X237434342Y-176900057D01*
X237291485Y-176828628D01*
X237220057Y-176757200D01*
X237148628Y-176614342D01*
X237148628Y-176471485D01*
X237220057Y-176328628D01*
X237291485Y-176257200D01*
X237434342Y-176185771D01*
X237791485Y-176185771D01*
X238005771Y-176257200D01*
X239220057Y-177614342D02*
X239077200Y-177685771D01*
X238791485Y-177685771D01*
X238648628Y-177614342D01*
X238577200Y-177471485D01*
X238577200Y-176900057D01*
X238648628Y-176757200D01*
X238791485Y-176685771D01*
X239077200Y-176685771D01*
X239220057Y-176757200D01*
X239291485Y-176900057D01*
X239291485Y-177042914D01*
X238577200Y-177185771D01*
X240505771Y-177614342D02*
X240362914Y-177685771D01*
X240077200Y-177685771D01*
X239934342Y-177614342D01*
X239862914Y-177471485D01*
X239862914Y-176900057D01*
X239934342Y-176757200D01*
X240077200Y-176685771D01*
X240362914Y-176685771D01*
X240505771Y-176757200D01*
X240577200Y-176900057D01*
X240577200Y-177042914D01*
X239862914Y-177185771D01*
X242434342Y-176185771D02*
X242291485Y-176471485D01*
X243720057Y-177685771D02*
X243720057Y-176185771D01*
X243720057Y-177614342D02*
X243577200Y-177685771D01*
X243291485Y-177685771D01*
X243148628Y-177614342D01*
X243077200Y-177542914D01*
X243005771Y-177400057D01*
X243005771Y-176971485D01*
X243077200Y-176828628D01*
X243148628Y-176757200D01*
X243291485Y-176685771D01*
X243577200Y-176685771D01*
X243720057Y-176757200D01*
X244648628Y-177685771D02*
X244505771Y-177614342D01*
X244434342Y-177542914D01*
X244362914Y-177400057D01*
X244362914Y-176971485D01*
X244434342Y-176828628D01*
X244505771Y-176757200D01*
X244648628Y-176685771D01*
X244862914Y-176685771D01*
X245005771Y-176757200D01*
X245077200Y-176828628D01*
X245148628Y-176971485D01*
X245148628Y-177400057D01*
X245077200Y-177542914D01*
X245005771Y-177614342D01*
X244862914Y-177685771D01*
X244648628Y-177685771D01*
X246434342Y-177614342D02*
X246291485Y-177685771D01*
X246005771Y-177685771D01*
X245862914Y-177614342D01*
X245791485Y-177542914D01*
X245720057Y-177400057D01*
X245720057Y-176971485D01*
X245791485Y-176828628D01*
X245862914Y-176757200D01*
X246005771Y-176685771D01*
X246291485Y-176685771D01*
X246434342Y-176757200D01*
X248148628Y-176114342D02*
X246862914Y-178042914D01*
X249362914Y-177685771D02*
X248648628Y-177685771D01*
X248648628Y-176185771D01*
X249862914Y-177685771D02*
X249862914Y-176185771D01*
X251434342Y-177542914D02*
X251362914Y-177614342D01*
X251148628Y-177685771D01*
X251005771Y-177685771D01*
X250791485Y-177614342D01*
X250648628Y-177471485D01*
X250577200Y-177328628D01*
X250505771Y-177042914D01*
X250505771Y-176828628D01*
X250577200Y-176542914D01*
X250648628Y-176400057D01*
X250791485Y-176257200D01*
X251005771Y-176185771D01*
X251148628Y-176185771D01*
X251362914Y-176257200D01*
X251434342Y-176328628D01*
X252077200Y-176900057D02*
X252577200Y-176900057D01*
X252791485Y-177685771D02*
X252077200Y-177685771D01*
X252077200Y-176185771D01*
X252791485Y-176185771D01*
X253434342Y-177685771D02*
X253434342Y-176185771D01*
X254291485Y-177685771D01*
X254291485Y-176185771D01*
X255862914Y-177542914D02*
X255791485Y-177614342D01*
X255577200Y-177685771D01*
X255434342Y-177685771D01*
X255220057Y-177614342D01*
X255077200Y-177471485D01*
X255005771Y-177328628D01*
X254934342Y-177042914D01*
X254934342Y-176828628D01*
X255005771Y-176542914D01*
X255077200Y-176400057D01*
X255220057Y-176257200D01*
X255434342Y-176185771D01*
X255577200Y-176185771D01*
X255791485Y-176257200D01*
X255862914Y-176328628D01*
X256505771Y-177685771D02*
X256505771Y-176185771D01*
X257148628Y-177257200D02*
X257862914Y-177257200D01*
X257005771Y-177685771D02*
X257505771Y-176185771D01*
X258005771Y-177685771D01*
X258148628Y-177828628D02*
X259291485Y-177828628D01*
X260505771Y-177542914D02*
X260434342Y-177614342D01*
X260220057Y-177685771D01*
X260077200Y-177685771D01*
X259862914Y-177614342D01*
X259720057Y-177471485D01*
X259648628Y-177328628D01*
X259577200Y-177042914D01*
X259577200Y-176828628D01*
X259648628Y-176542914D01*
X259720057Y-176400057D01*
X259862914Y-176257200D01*
X260077200Y-176185771D01*
X260220057Y-176185771D01*
X260434342Y-176257200D01*
X260505771Y-176328628D01*
X261148628Y-177685771D02*
X261148628Y-176185771D01*
X261791485Y-177257200D02*
X262505771Y-177257200D01*
X261648628Y-177685771D02*
X262148628Y-176185771D01*
X262648628Y-177685771D01*
X263077200Y-177257200D02*
X263791485Y-177257200D01*
X262934342Y-177685771D02*
X263434342Y-176185771D01*
X263934342Y-177685771D01*
X264077200Y-177828628D02*
X265220057Y-177828628D01*
X265505771Y-177257200D02*
X266220057Y-177257200D01*
X265362914Y-177685771D02*
X265862914Y-176185771D01*
X266362914Y-177685771D01*
X267720057Y-177542914D02*
X267648628Y-177614342D01*
X267434342Y-177685771D01*
X267291485Y-177685771D01*
X267077200Y-177614342D01*
X266934342Y-177471485D01*
X266862914Y-177328628D01*
X266791485Y-177042914D01*
X266791485Y-176828628D01*
X266862914Y-176542914D01*
X266934342Y-176400057D01*
X267077200Y-176257200D01*
X267291485Y-176185771D01*
X267434342Y-176185771D01*
X267648628Y-176257200D01*
X267720057Y-176328628D01*
X269220057Y-177542914D02*
X269148628Y-177614342D01*
X268934342Y-177685771D01*
X268791485Y-177685771D01*
X268577200Y-177614342D01*
X268434342Y-177471485D01*
X268362914Y-177328628D01*
X268291485Y-177042914D01*
X268291485Y-176828628D01*
X268362914Y-176542914D01*
X268434342Y-176400057D01*
X268577200Y-176257200D01*
X268791485Y-176185771D01*
X268934342Y-176185771D01*
X269148628Y-176257200D01*
X269220057Y-176328628D01*
X269862914Y-177542914D02*
X269934342Y-177614342D01*
X269862914Y-177685771D01*
X269791485Y-177614342D01*
X269862914Y-177542914D01*
X269862914Y-177685771D01*
X270362914Y-176685771D02*
X270934342Y-176685771D01*
X270577200Y-176185771D02*
X270577200Y-177471485D01*
X270648628Y-177614342D01*
X270791485Y-177685771D01*
X270934342Y-177685771D01*
X271291485Y-177685771D02*
X272077200Y-176685771D01*
X271291485Y-176685771D02*
X272077200Y-177685771D01*
X272434342Y-176685771D02*
X273005771Y-176685771D01*
X272648628Y-176185771D02*
X272648628Y-177471485D01*
X272720057Y-177614342D01*
X272862914Y-177685771D01*
X273005771Y-177685771D01*
X273577200Y-176185771D02*
X273434342Y-176471485D01*
X275148628Y-176685771D02*
X275720057Y-176685771D01*
X275362914Y-177685771D02*
X275362914Y-176400057D01*
X275434342Y-176257200D01*
X275577200Y-176185771D01*
X275720057Y-176185771D01*
X276220057Y-177685771D02*
X276220057Y-176685771D01*
X276220057Y-176185771D02*
X276148628Y-176257200D01*
X276220057Y-176328628D01*
X276291485Y-176257200D01*
X276220057Y-176185771D01*
X276220057Y-176328628D01*
X277148628Y-177685771D02*
X277005771Y-177614342D01*
X276934342Y-177471485D01*
X276934342Y-176185771D01*
X278291485Y-177614342D02*
X278148628Y-177685771D01*
X277862914Y-177685771D01*
X277720057Y-177614342D01*
X277648628Y-177471485D01*
X277648628Y-176900057D01*
X277720057Y-176757200D01*
X277862914Y-176685771D01*
X278148628Y-176685771D01*
X278291485Y-176757200D01*
X278362914Y-176900057D01*
X278362914Y-177042914D01*
X277648628Y-177185771D01*
X279005771Y-177542914D02*
X279077200Y-177614342D01*
X279005771Y-177685771D01*
X278934342Y-177614342D01*
X279005771Y-177542914D01*
X279005771Y-177685771D01*
D10*
D11*
X197002200Y-191507200D02*
X197002200Y-194507200D01*
D10*
D11*
X261002200Y-191507200D02*
X261002200Y-198007200D01*
D14*
G04 #@! TO.C,U46*
X107785000Y-41237000D03*
X108585000Y-41237000D03*
X109385000Y-41237000D03*
X109385000Y-42037000D03*
X108585000Y-42037000D03*
X107785000Y-42037000D03*
X107785000Y-42837000D03*
X108585000Y-42837000D03*
X109385000Y-42837000D03*
D15*
X106610000Y-43287000D03*
X106610000Y-42787000D03*
X106610000Y-42287000D03*
X106610000Y-41787000D03*
X106610000Y-41287000D03*
X106610000Y-40787000D03*
D16*
X107335000Y-40062000D03*
X107835000Y-40062000D03*
X108335000Y-40062000D03*
X109835000Y-40062000D03*
X109335000Y-40062000D03*
X108835000Y-40062000D03*
D15*
X110560000Y-40787000D03*
X110560000Y-41287000D03*
X110560000Y-41787000D03*
X110560000Y-42287000D03*
X110560000Y-42787000D03*
X110560000Y-43287000D03*
D16*
X107335000Y-44012000D03*
X107835000Y-44012000D03*
X108335000Y-44012000D03*
X109335000Y-44012000D03*
X108835000Y-44012000D03*
X109835000Y-44012000D03*
G04 #@! TD*
D17*
G04 #@! TO.C,J17*
X105308000Y-119126000D03*
X87158000Y-119126000D03*
G04 #@! TD*
D18*
G04 #@! TO.C,J5*
X53180000Y-30901700D03*
X53180000Y-32171700D03*
X53180000Y-33441700D03*
X53180000Y-34711700D03*
X53180000Y-35981700D03*
X53180000Y-37251700D03*
X53180000Y-38521700D03*
X53180000Y-39791700D03*
X53180000Y-41061700D03*
X53180000Y-42331700D03*
X54450000Y-30901700D03*
X54450000Y-32171700D03*
X54450000Y-33441700D03*
X54450000Y-34711700D03*
X54450000Y-35981700D03*
X54450000Y-37251700D03*
X54450000Y-38521700D03*
X54450000Y-39791700D03*
X54450000Y-41061700D03*
X54450000Y-42331700D03*
X55720000Y-30901700D03*
X55720000Y-32171700D03*
X55720000Y-33441700D03*
X55720000Y-34711700D03*
X55720000Y-35981700D03*
X55720000Y-37251700D03*
X55720000Y-38521700D03*
X55720000Y-39791700D03*
X55720000Y-41061700D03*
X55720000Y-42331700D03*
X56990000Y-30901700D03*
X56990000Y-32171700D03*
X56990000Y-33441700D03*
X56990000Y-34711700D03*
X56990000Y-35981700D03*
X56990000Y-37251700D03*
X56990000Y-38521700D03*
X56990000Y-39791700D03*
X56990000Y-41061700D03*
X56990000Y-42331700D03*
X58260000Y-30901700D03*
X58260000Y-32171700D03*
X58260000Y-33441700D03*
X58260000Y-34711700D03*
X58260000Y-35981700D03*
X58260000Y-37251700D03*
X58260000Y-38521700D03*
X58260000Y-39791700D03*
X58260000Y-41061700D03*
X58260000Y-42331700D03*
X59530000Y-30901700D03*
X59530000Y-32171700D03*
X59530000Y-33441700D03*
X59530000Y-34711700D03*
X59530000Y-35981700D03*
X59530000Y-37251700D03*
X59530000Y-38521700D03*
X59530000Y-39791700D03*
X59530000Y-41061700D03*
X59530000Y-42331700D03*
X60800000Y-30901700D03*
X60800000Y-32171700D03*
X60800000Y-33441700D03*
X60800000Y-34711700D03*
X60800000Y-35981700D03*
X60800000Y-37251700D03*
X60800000Y-38521700D03*
X60800000Y-39791700D03*
X60800000Y-41061700D03*
X60800000Y-42331700D03*
X62070000Y-30901700D03*
X62070000Y-32171700D03*
X62070000Y-33441700D03*
X62070000Y-34711700D03*
X62070000Y-35981700D03*
X62070000Y-37251700D03*
X62070000Y-38521700D03*
X62070000Y-39791700D03*
X62070000Y-41061700D03*
X62070000Y-42331700D03*
X63340000Y-30901700D03*
X63340000Y-32171700D03*
X63340000Y-33441700D03*
X63340000Y-34711700D03*
X63340000Y-35981700D03*
X63340000Y-37251700D03*
X63340000Y-38521700D03*
X63340000Y-39791700D03*
X63340000Y-41061700D03*
X63340000Y-42331700D03*
X64610000Y-30901700D03*
X64610000Y-32171700D03*
X64610000Y-33441700D03*
X64610000Y-34711700D03*
X64610000Y-35981700D03*
X64610000Y-37251700D03*
X64610000Y-38521700D03*
X64610000Y-39791700D03*
X64610000Y-41061700D03*
X64610000Y-42331700D03*
X65880000Y-30901700D03*
X65880000Y-32171700D03*
X65880000Y-33441700D03*
X65880000Y-34711700D03*
X65880000Y-35981700D03*
X65880000Y-37251700D03*
X65880000Y-38521700D03*
X65880000Y-39791700D03*
X65880000Y-41061700D03*
X65880000Y-42331700D03*
X67150000Y-30901700D03*
X67150000Y-32171700D03*
X67150000Y-33441700D03*
X67150000Y-34711700D03*
X67150000Y-35981700D03*
X67150000Y-37251700D03*
X67150000Y-38521700D03*
X67150000Y-39791700D03*
X67150000Y-41061700D03*
X67150000Y-42331700D03*
X68420000Y-30901700D03*
X68420000Y-32171700D03*
X68420000Y-33441700D03*
X68420000Y-34711700D03*
X68420000Y-35981700D03*
X68420000Y-37251700D03*
X68420000Y-38521700D03*
X68420000Y-39791700D03*
X68420000Y-41061700D03*
X68420000Y-42331700D03*
X69690000Y-30901700D03*
X69690000Y-32171700D03*
X69690000Y-33441700D03*
X69690000Y-34711700D03*
X69690000Y-35981700D03*
X69690000Y-37251700D03*
X69690000Y-38521700D03*
X69690000Y-39791700D03*
X69690000Y-41061700D03*
X69690000Y-42331700D03*
X70960000Y-30901700D03*
X70960000Y-32171700D03*
X70960000Y-33441700D03*
X70960000Y-34711700D03*
X70960000Y-35981700D03*
X70960000Y-37251700D03*
X70960000Y-38521700D03*
X70960000Y-39791700D03*
X70960000Y-41061700D03*
X70960000Y-42331700D03*
X72230000Y-30901700D03*
X72230000Y-32171700D03*
X72230000Y-33441700D03*
X72230000Y-34711700D03*
X72230000Y-35981700D03*
X72230000Y-37251700D03*
X72230000Y-38521700D03*
X72230000Y-39791700D03*
X72230000Y-41061700D03*
X72230000Y-42331700D03*
X73500000Y-30901700D03*
X73500000Y-32171700D03*
X73500000Y-33441700D03*
X73500000Y-34711700D03*
X73500000Y-35981700D03*
X73500000Y-37251700D03*
X73500000Y-38521700D03*
X73500000Y-39791700D03*
X73500000Y-41061700D03*
X73500000Y-42331700D03*
X74770000Y-30901700D03*
X74770000Y-32171700D03*
X74770000Y-33441700D03*
X74770000Y-34711700D03*
X74770000Y-35981700D03*
X74770000Y-37251700D03*
X74770000Y-38521700D03*
X74770000Y-39791700D03*
X74770000Y-41061700D03*
X74770000Y-42331700D03*
X76040000Y-30901700D03*
X76040000Y-32171700D03*
X76040000Y-33441700D03*
X76040000Y-34711700D03*
X76040000Y-35981700D03*
X76040000Y-37251700D03*
X76040000Y-38521700D03*
X76040000Y-39791700D03*
X76040000Y-41061700D03*
X76040000Y-42331700D03*
X77310000Y-30901700D03*
X77310000Y-32171700D03*
X77310000Y-33441700D03*
X77310000Y-34711700D03*
X77310000Y-35981700D03*
X77310000Y-37251700D03*
X77310000Y-38521700D03*
X77310000Y-39791700D03*
X77310000Y-41061700D03*
X77310000Y-42331700D03*
X78580000Y-30901700D03*
X78580000Y-32171700D03*
X78580000Y-33441700D03*
X78580000Y-34711700D03*
X78580000Y-35981700D03*
X78580000Y-37251700D03*
X78580000Y-38521700D03*
X78580000Y-39791700D03*
X78580000Y-41061700D03*
X78580000Y-42331700D03*
X79850000Y-30901700D03*
X79850000Y-32171700D03*
X79850000Y-33441700D03*
X79850000Y-34711700D03*
X79850000Y-35981700D03*
X79850000Y-37251700D03*
X79850000Y-38521700D03*
X79850000Y-39791700D03*
X79850000Y-41061700D03*
X79850000Y-42331700D03*
X81120000Y-30901700D03*
X81120000Y-32171700D03*
X81120000Y-33441700D03*
X81120000Y-34711700D03*
X81120000Y-35981700D03*
X81120000Y-37251700D03*
X81120000Y-38521700D03*
X81120000Y-39791700D03*
X81120000Y-41061700D03*
X81120000Y-42331700D03*
X82390000Y-30901700D03*
X82390000Y-32171700D03*
X82390000Y-33441700D03*
X82390000Y-34711700D03*
X82390000Y-35981700D03*
X82390000Y-37251700D03*
X82390000Y-38521700D03*
X82390000Y-39791700D03*
X82390000Y-41061700D03*
X82390000Y-42331700D03*
X83660000Y-30901700D03*
X83660000Y-32171700D03*
X83660000Y-33441700D03*
X83660000Y-34711700D03*
X83660000Y-35981700D03*
X83660000Y-37251700D03*
X83660000Y-38521700D03*
X83660000Y-39791700D03*
X83660000Y-41061700D03*
X83660000Y-42331700D03*
X84930000Y-30901700D03*
X84930000Y-32171700D03*
X84930000Y-33441700D03*
X84930000Y-34711700D03*
X84930000Y-35981700D03*
X84930000Y-37251700D03*
X84930000Y-38521700D03*
X84930000Y-39791700D03*
X84930000Y-41061700D03*
X84930000Y-42331700D03*
X86200000Y-30901700D03*
X86200000Y-32171700D03*
X86200000Y-33441700D03*
X86200000Y-34711700D03*
X86200000Y-35981700D03*
X86200000Y-37251700D03*
X86200000Y-38521700D03*
X86200000Y-39791700D03*
X86200000Y-41061700D03*
X86200000Y-42331700D03*
X87470000Y-30901700D03*
X87470000Y-32171700D03*
X87470000Y-33441700D03*
X87470000Y-34711700D03*
X87470000Y-35981700D03*
X87470000Y-37251700D03*
X87470000Y-38521700D03*
X87470000Y-39791700D03*
X87470000Y-41061700D03*
X87470000Y-42331700D03*
X88740000Y-30901700D03*
X88740000Y-32171700D03*
X88740000Y-33441700D03*
X88740000Y-34711700D03*
X88740000Y-35981700D03*
X88740000Y-37251700D03*
X88740000Y-38521700D03*
X88740000Y-39791700D03*
X88740000Y-41061700D03*
X88740000Y-42331700D03*
X90010000Y-30901700D03*
X90010000Y-32171700D03*
X90010000Y-33441700D03*
X90010000Y-34711700D03*
X90010000Y-35981700D03*
X90010000Y-37251700D03*
X90010000Y-38521700D03*
X90010000Y-39791700D03*
X90010000Y-41061700D03*
X90010000Y-42331700D03*
X91280000Y-30901700D03*
X91280000Y-32171700D03*
X91280000Y-33441700D03*
X91280000Y-34711700D03*
X91280000Y-35981700D03*
X91280000Y-37251700D03*
X91280000Y-38521700D03*
X91280000Y-39791700D03*
X91280000Y-41061700D03*
X91280000Y-42331700D03*
X92550000Y-30901700D03*
X92550000Y-32171700D03*
X92550000Y-33441700D03*
X92550000Y-34711700D03*
X92550000Y-35981700D03*
X92550000Y-37251700D03*
X92550000Y-38521700D03*
X92550000Y-39791700D03*
X92550000Y-41061700D03*
X92550000Y-42331700D03*
X93820000Y-30901700D03*
X93820000Y-32171700D03*
X93820000Y-33441700D03*
X93820000Y-34711700D03*
X93820000Y-35981700D03*
X93820000Y-37251700D03*
X93820000Y-38521700D03*
X93820000Y-39791700D03*
X93820000Y-41061700D03*
X93820000Y-42331700D03*
X95090000Y-30901700D03*
X95090000Y-32171700D03*
X95090000Y-33441700D03*
X95090000Y-34711700D03*
X95090000Y-35981700D03*
X95090000Y-37251700D03*
X95090000Y-38521700D03*
X95090000Y-39791700D03*
X95090000Y-41061700D03*
X95090000Y-42331700D03*
X96360000Y-30901700D03*
X96360000Y-32171700D03*
X96360000Y-33441700D03*
X96360000Y-34711700D03*
X96360000Y-35981700D03*
X96360000Y-37251700D03*
X96360000Y-38521700D03*
X96360000Y-39791700D03*
X96360000Y-41061700D03*
X96360000Y-42331700D03*
X97630000Y-30901700D03*
X97630000Y-32171700D03*
X97630000Y-33441700D03*
X97630000Y-34711700D03*
X97630000Y-35981700D03*
X97630000Y-37251700D03*
X97630000Y-38521700D03*
X97630000Y-39791700D03*
X97630000Y-41061700D03*
X97630000Y-42331700D03*
X98900000Y-30901700D03*
X98900000Y-32171700D03*
X98900000Y-33441700D03*
X98900000Y-34711700D03*
X98900000Y-35981700D03*
X98900000Y-37251700D03*
X98900000Y-38521700D03*
X98900000Y-39791700D03*
X98900000Y-41061700D03*
X98900000Y-42331700D03*
X100170000Y-30901700D03*
X100170000Y-32171700D03*
X100170000Y-33441700D03*
X100170000Y-34711700D03*
X100170000Y-35981700D03*
X100170000Y-37251700D03*
X100170000Y-38521700D03*
X100170000Y-39791700D03*
X100170000Y-41061700D03*
X100170000Y-42331700D03*
X101440000Y-30901700D03*
X101440000Y-32171700D03*
X101440000Y-33441700D03*
X101440000Y-34711700D03*
X101440000Y-35981700D03*
X101440000Y-37251700D03*
X101440000Y-38521700D03*
X101440000Y-39791700D03*
X101440000Y-41061700D03*
X101440000Y-42331700D03*
X102710000Y-30901700D03*
X102710000Y-32171700D03*
X102710000Y-33441700D03*
X102710000Y-34711700D03*
X102710000Y-35981700D03*
X102710000Y-37251700D03*
X102710000Y-38521700D03*
X102710000Y-39791700D03*
X102710000Y-41061700D03*
X102710000Y-42331700D03*
G04 #@! TD*
D19*
G04 #@! TO.C,U1*
X63700000Y-82100000D03*
X63700000Y-81100000D03*
X63700000Y-80100000D03*
X63700000Y-79100000D03*
X63700000Y-78100000D03*
X63700000Y-77100000D03*
X63700000Y-76100000D03*
X63700000Y-75100000D03*
X63700000Y-74100000D03*
X63700000Y-73100000D03*
X63700000Y-72100000D03*
X63700000Y-71100000D03*
X63700000Y-70100000D03*
X63700000Y-69100000D03*
X63700000Y-68100000D03*
X63700000Y-67100000D03*
X63700000Y-66100000D03*
X63700000Y-65100000D03*
X63700000Y-64100000D03*
X63700000Y-63100000D03*
X63700000Y-62100000D03*
X63700000Y-61100000D03*
X63700000Y-60100000D03*
X63700000Y-59100000D03*
X63700000Y-58100000D03*
X63700000Y-57100000D03*
X64700000Y-82100000D03*
X64700000Y-81100000D03*
X64700000Y-80100000D03*
X64700000Y-79100000D03*
X64700000Y-78100000D03*
X64700000Y-77100000D03*
X64700000Y-76100000D03*
X64700000Y-75100000D03*
X64700000Y-74100000D03*
X64700000Y-73100000D03*
X64700000Y-72100000D03*
X64700000Y-71100000D03*
X64700000Y-70100000D03*
X64700000Y-69100000D03*
X64700000Y-68100000D03*
X64700000Y-67100000D03*
X64700000Y-66100000D03*
X64700000Y-65100000D03*
X64700000Y-64100000D03*
X64700000Y-63100000D03*
X64700000Y-62100000D03*
X64700000Y-61100000D03*
X64700000Y-60100000D03*
X64700000Y-59100000D03*
X64700000Y-58100000D03*
X64700000Y-57100000D03*
X65700000Y-82100000D03*
X65700000Y-81100000D03*
X65700000Y-80100000D03*
X65700000Y-79100000D03*
X65700000Y-78100000D03*
X65700000Y-77100000D03*
X65700000Y-76100000D03*
X65700000Y-75100000D03*
X65700000Y-74100000D03*
X65700000Y-73100000D03*
X65700000Y-72100000D03*
X65700000Y-71100000D03*
X65700000Y-70100000D03*
X65700000Y-69100000D03*
X65700000Y-68100000D03*
X65700000Y-67100000D03*
X65700000Y-66100000D03*
X65700000Y-65100000D03*
X65700000Y-64100000D03*
X65700000Y-63100000D03*
X65700000Y-62100000D03*
X65700000Y-61100000D03*
X65700000Y-60100000D03*
X65700000Y-59100000D03*
X65700000Y-58100000D03*
X65700000Y-57100000D03*
X66700000Y-82100000D03*
X66700000Y-81100000D03*
X66700000Y-80100000D03*
X66700000Y-79100000D03*
X66700000Y-78100000D03*
X66700000Y-77100000D03*
X66700000Y-76100000D03*
X66700000Y-75100000D03*
X66700000Y-74100000D03*
X66700000Y-73100000D03*
X66700000Y-72100000D03*
X66700000Y-71100000D03*
X66700000Y-70100000D03*
X66700000Y-69100000D03*
X66700000Y-68100000D03*
X66700000Y-67100000D03*
X66700000Y-66100000D03*
X66700000Y-65100000D03*
X66700000Y-64100000D03*
X66700000Y-63100000D03*
X66700000Y-62100000D03*
X66700000Y-61100000D03*
X66700000Y-60100000D03*
X66700000Y-59100000D03*
X66700000Y-58100000D03*
X66700000Y-57100000D03*
X67700000Y-82100000D03*
X67700000Y-81100000D03*
X67700000Y-80100000D03*
X67700000Y-79100000D03*
X67700000Y-78100000D03*
X67700000Y-77100000D03*
X67700000Y-76100000D03*
X67700000Y-75100000D03*
X67700000Y-74100000D03*
X67700000Y-73100000D03*
X67700000Y-72100000D03*
X67700000Y-71100000D03*
X67700000Y-70100000D03*
X67700000Y-69100000D03*
X67700000Y-68100000D03*
X67700000Y-67100000D03*
X67700000Y-66100000D03*
X67700000Y-65100000D03*
X67700000Y-64100000D03*
X67700000Y-63100000D03*
X67700000Y-62100000D03*
X67700000Y-61100000D03*
X67700000Y-60100000D03*
X67700000Y-59100000D03*
X67700000Y-58100000D03*
X67700000Y-57100000D03*
X68700000Y-82100000D03*
X68700000Y-81100000D03*
X68700000Y-80100000D03*
X68700000Y-79100000D03*
X68700000Y-78100000D03*
X68700000Y-77100000D03*
X68700000Y-76100000D03*
X68700000Y-75100000D03*
X68700000Y-74100000D03*
X68700000Y-73100000D03*
X68700000Y-72100000D03*
X68700000Y-71100000D03*
X68700000Y-70100000D03*
X68700000Y-69100000D03*
X68700000Y-68100000D03*
X68700000Y-67100000D03*
X68700000Y-66100000D03*
X68700000Y-65100000D03*
X68700000Y-64100000D03*
X68700000Y-63100000D03*
X68700000Y-62100000D03*
X68700000Y-61100000D03*
X68700000Y-60100000D03*
X68700000Y-59100000D03*
X68700000Y-58100000D03*
X68700000Y-57100000D03*
X69700000Y-82100000D03*
X69700000Y-81100000D03*
X69700000Y-80100000D03*
X69700000Y-79100000D03*
X69700000Y-78100000D03*
X69700000Y-77100000D03*
X69700000Y-76100000D03*
X69700000Y-75100000D03*
X69700000Y-74100000D03*
X69700000Y-73100000D03*
X69700000Y-72100000D03*
X69700000Y-71100000D03*
X69700000Y-70100000D03*
X69700000Y-69100000D03*
X69700000Y-68100000D03*
X69700000Y-67100000D03*
X69700000Y-66100000D03*
X69700000Y-65100000D03*
X69700000Y-64100000D03*
X69700000Y-63100000D03*
X69700000Y-62100000D03*
X69700000Y-61100000D03*
X69700000Y-60100000D03*
X69700000Y-59100000D03*
X69700000Y-58100000D03*
X69700000Y-57100000D03*
X70700000Y-82100000D03*
X70700000Y-81100000D03*
X70700000Y-80100000D03*
X70700000Y-79100000D03*
X70700000Y-78100000D03*
X70700000Y-77100000D03*
X70700000Y-76100000D03*
X70700000Y-75100000D03*
X70700000Y-74100000D03*
X70700000Y-73100000D03*
X70700000Y-72100000D03*
X70700000Y-71100000D03*
X70700000Y-70100000D03*
X70700000Y-69100000D03*
X70700000Y-68100000D03*
X70700000Y-67100000D03*
X70700000Y-66100000D03*
X70700000Y-65100000D03*
X70700000Y-64100000D03*
X70700000Y-63100000D03*
X70700000Y-62100000D03*
X70700000Y-61100000D03*
X70700000Y-60100000D03*
X70700000Y-59100000D03*
X70700000Y-58100000D03*
X70700000Y-57100000D03*
X71700000Y-82100000D03*
X71700000Y-81100000D03*
X71700000Y-80100000D03*
X71700000Y-79100000D03*
X71700000Y-78100000D03*
X71700000Y-77100000D03*
X71700000Y-76100000D03*
X71700000Y-75100000D03*
X71700000Y-74100000D03*
X71700000Y-73100000D03*
X71700000Y-72100000D03*
X71700000Y-71100000D03*
X71700000Y-70100000D03*
X71700000Y-69100000D03*
X71700000Y-68100000D03*
X71700000Y-67100000D03*
X71700000Y-66100000D03*
X71700000Y-65100000D03*
X71700000Y-64100000D03*
X71700000Y-63100000D03*
X71700000Y-62100000D03*
X71700000Y-61100000D03*
X71700000Y-60100000D03*
X71700000Y-59100000D03*
X71700000Y-58100000D03*
X71700000Y-57100000D03*
X72700000Y-82100000D03*
X72700000Y-81100000D03*
X72700000Y-80100000D03*
X72700000Y-79100000D03*
X72700000Y-78100000D03*
X72700000Y-77100000D03*
X72700000Y-76100000D03*
X72700000Y-75100000D03*
X72700000Y-74100000D03*
X72700000Y-73100000D03*
X72700000Y-72100000D03*
X72700000Y-71100000D03*
X72700000Y-70100000D03*
X72700000Y-69100000D03*
X72700000Y-68100000D03*
X72700000Y-67100000D03*
X72700000Y-66100000D03*
X72700000Y-65100000D03*
X72700000Y-64100000D03*
X72700000Y-63100000D03*
X72700000Y-62100000D03*
X72700000Y-61100000D03*
X72700000Y-60100000D03*
X72700000Y-59100000D03*
X72700000Y-58100000D03*
X72700000Y-57100000D03*
X73700000Y-82100000D03*
X73700000Y-81100000D03*
X73700000Y-80100000D03*
X73700000Y-79100000D03*
X73700000Y-78100000D03*
X73700000Y-77100000D03*
X73700000Y-76100000D03*
X73700000Y-75100000D03*
X73700000Y-74100000D03*
X73700000Y-73100000D03*
X73700000Y-72100000D03*
X73700000Y-71100000D03*
X73700000Y-70100000D03*
X73700000Y-69100000D03*
X73700000Y-68100000D03*
X73700000Y-67100000D03*
X73700000Y-66100000D03*
X73700000Y-65100000D03*
X73700000Y-64100000D03*
X73700000Y-63100000D03*
X73700000Y-62100000D03*
X73700000Y-61100000D03*
X73700000Y-60100000D03*
X73700000Y-59100000D03*
X73700000Y-58100000D03*
X73700000Y-57100000D03*
X74700000Y-82100000D03*
X74700000Y-81100000D03*
X74700000Y-80100000D03*
X74700000Y-79100000D03*
X74700000Y-78100000D03*
X74700000Y-77100000D03*
X74700000Y-76100000D03*
X74700000Y-75100000D03*
X74700000Y-74100000D03*
X74700000Y-73100000D03*
X74700000Y-72100000D03*
X74700000Y-71100000D03*
X74700000Y-70100000D03*
X74700000Y-69100000D03*
X74700000Y-68100000D03*
X74700000Y-67100000D03*
X74700000Y-66100000D03*
X74700000Y-65100000D03*
X74700000Y-64100000D03*
X74700000Y-63100000D03*
X74700000Y-62100000D03*
X74700000Y-61100000D03*
X74700000Y-60100000D03*
X74700000Y-59100000D03*
X74700000Y-58100000D03*
X74700000Y-57100000D03*
X75700000Y-82100000D03*
X75700000Y-81100000D03*
X75700000Y-80100000D03*
X75700000Y-79100000D03*
X75700000Y-78100000D03*
X75700000Y-77100000D03*
X75700000Y-76100000D03*
X75700000Y-75100000D03*
X75700000Y-74100000D03*
X75700000Y-73100000D03*
X75700000Y-72100000D03*
X75700000Y-71100000D03*
X75700000Y-70100000D03*
X75700000Y-69100000D03*
X75700000Y-68100000D03*
X75700000Y-67100000D03*
X75700000Y-66100000D03*
X75700000Y-65100000D03*
X75700000Y-64100000D03*
X75700000Y-63100000D03*
X75700000Y-62100000D03*
X75700000Y-61100000D03*
X75700000Y-60100000D03*
X75700000Y-59100000D03*
X75700000Y-58100000D03*
X75700000Y-57100000D03*
X76700000Y-82100000D03*
X76700000Y-81100000D03*
X76700000Y-80100000D03*
X76700000Y-79100000D03*
X76700000Y-78100000D03*
X76700000Y-77100000D03*
X76700000Y-76100000D03*
X76700000Y-75100000D03*
X76700000Y-74100000D03*
X76700000Y-73100000D03*
X76700000Y-72100000D03*
X76700000Y-71100000D03*
X76700000Y-70100000D03*
X76700000Y-69100000D03*
X76700000Y-68100000D03*
X76700000Y-67100000D03*
X76700000Y-66100000D03*
X76700000Y-65100000D03*
X76700000Y-64100000D03*
X76700000Y-63100000D03*
X76700000Y-62100000D03*
X76700000Y-61100000D03*
X76700000Y-60100000D03*
X76700000Y-59100000D03*
X76700000Y-58100000D03*
X76700000Y-57100000D03*
X77700000Y-82100000D03*
X77700000Y-81100000D03*
X77700000Y-80100000D03*
X77700000Y-79100000D03*
X77700000Y-78100000D03*
X77700000Y-77100000D03*
X77700000Y-76100000D03*
X77700000Y-75100000D03*
X77700000Y-74100000D03*
X77700000Y-73100000D03*
X77700000Y-72100000D03*
X77700000Y-71100000D03*
X77700000Y-70100000D03*
X77700000Y-69100000D03*
X77700000Y-68100000D03*
X77700000Y-67100000D03*
X77700000Y-66100000D03*
X77700000Y-65100000D03*
X77700000Y-64100000D03*
X77700000Y-63100000D03*
X77700000Y-62100000D03*
X77700000Y-61100000D03*
X77700000Y-60100000D03*
X77700000Y-59100000D03*
X77700000Y-58100000D03*
X77700000Y-57100000D03*
X78700000Y-82100000D03*
X78700000Y-81100000D03*
X78700000Y-80100000D03*
X78700000Y-79100000D03*
X78700000Y-78100000D03*
X78700000Y-77100000D03*
X78700000Y-76100000D03*
X78700000Y-75100000D03*
X78700000Y-74100000D03*
X78700000Y-73100000D03*
X78700000Y-72100000D03*
X78700000Y-71100000D03*
X78700000Y-70100000D03*
X78700000Y-69100000D03*
X78700000Y-68100000D03*
X78700000Y-67100000D03*
X78700000Y-66100000D03*
X78700000Y-65100000D03*
X78700000Y-64100000D03*
X78700000Y-63100000D03*
X78700000Y-62100000D03*
X78700000Y-61100000D03*
X78700000Y-60100000D03*
X78700000Y-59100000D03*
X78700000Y-58100000D03*
X78700000Y-57100000D03*
X79700000Y-82100000D03*
X79700000Y-81100000D03*
X79700000Y-80100000D03*
X79700000Y-79100000D03*
X79700000Y-78100000D03*
X79700000Y-77100000D03*
X79700000Y-76100000D03*
X79700000Y-75100000D03*
X79700000Y-74100000D03*
X79700000Y-73100000D03*
X79700000Y-72100000D03*
X79700000Y-71100000D03*
X79700000Y-70100000D03*
X79700000Y-69100000D03*
X79700000Y-68100000D03*
X79700000Y-67100000D03*
X79700000Y-66100000D03*
X79700000Y-65100000D03*
X79700000Y-64100000D03*
X79700000Y-63100000D03*
X79700000Y-62100000D03*
X79700000Y-61100000D03*
X79700000Y-60100000D03*
X79700000Y-59100000D03*
X79700000Y-58100000D03*
X79700000Y-57100000D03*
X80700000Y-82100000D03*
X80700000Y-81100000D03*
X80700000Y-80100000D03*
X80700000Y-79100000D03*
X80700000Y-78100000D03*
X80700000Y-77100000D03*
X80700000Y-76100000D03*
X80700000Y-75100000D03*
X80700000Y-74100000D03*
X80700000Y-73100000D03*
X80700000Y-72100000D03*
X80700000Y-71100000D03*
X80700000Y-70100000D03*
X80700000Y-69100000D03*
X80700000Y-68100000D03*
X80700000Y-67100000D03*
X80700000Y-66100000D03*
X80700000Y-65100000D03*
X80700000Y-64100000D03*
X80700000Y-63100000D03*
X80700000Y-62100000D03*
X80700000Y-61100000D03*
X80700000Y-60100000D03*
X80700000Y-59100000D03*
X80700000Y-58100000D03*
X80700000Y-57100000D03*
X81700000Y-82100000D03*
X81700000Y-81100000D03*
X81700000Y-80100000D03*
X81700000Y-79100000D03*
X81700000Y-78100000D03*
X81700000Y-77100000D03*
X81700000Y-76100000D03*
X81700000Y-75100000D03*
X81700000Y-74100000D03*
X81700000Y-73100000D03*
X81700000Y-72100000D03*
X81700000Y-71100000D03*
X81700000Y-70100000D03*
X81700000Y-69100000D03*
X81700000Y-68100000D03*
X81700000Y-67100000D03*
X81700000Y-66100000D03*
X81700000Y-65100000D03*
X81700000Y-64100000D03*
X81700000Y-63100000D03*
X81700000Y-62100000D03*
X81700000Y-61100000D03*
X81700000Y-60100000D03*
X81700000Y-59100000D03*
X81700000Y-58100000D03*
X81700000Y-57100000D03*
X82700000Y-82100000D03*
X82700000Y-81100000D03*
X82700000Y-80100000D03*
X82700000Y-79100000D03*
X82700000Y-78100000D03*
X82700000Y-77100000D03*
X82700000Y-76100000D03*
X82700000Y-75100000D03*
X82700000Y-74100000D03*
X82700000Y-73100000D03*
X82700000Y-72100000D03*
X82700000Y-71100000D03*
X82700000Y-70100000D03*
X82700000Y-69100000D03*
X82700000Y-68100000D03*
X82700000Y-67100000D03*
X82700000Y-66100000D03*
X82700000Y-65100000D03*
X82700000Y-64100000D03*
X82700000Y-63100000D03*
X82700000Y-62100000D03*
X82700000Y-61100000D03*
X82700000Y-60100000D03*
X82700000Y-59100000D03*
X82700000Y-58100000D03*
X82700000Y-57100000D03*
X83700000Y-82100000D03*
X83700000Y-81100000D03*
X83700000Y-80100000D03*
X83700000Y-79100000D03*
X83700000Y-78100000D03*
X83700000Y-77100000D03*
X83700000Y-76100000D03*
X83700000Y-75100000D03*
X83700000Y-74100000D03*
X83700000Y-73100000D03*
X83700000Y-72100000D03*
X83700000Y-71100000D03*
X83700000Y-70100000D03*
X83700000Y-69100000D03*
X83700000Y-68100000D03*
X83700000Y-67100000D03*
X83700000Y-66100000D03*
X83700000Y-65100000D03*
X83700000Y-64100000D03*
X83700000Y-63100000D03*
X83700000Y-62100000D03*
X83700000Y-61100000D03*
X83700000Y-60100000D03*
X83700000Y-59100000D03*
X83700000Y-58100000D03*
X83700000Y-57100000D03*
X84700000Y-82100000D03*
X84700000Y-81100000D03*
X84700000Y-80100000D03*
X84700000Y-79100000D03*
X84700000Y-78100000D03*
X84700000Y-77100000D03*
X84700000Y-76100000D03*
X84700000Y-75100000D03*
X84700000Y-74100000D03*
X84700000Y-73100000D03*
X84700000Y-72100000D03*
X84700000Y-71100000D03*
X84700000Y-70100000D03*
X84700000Y-69100000D03*
X84700000Y-68100000D03*
X84700000Y-67100000D03*
X84700000Y-66100000D03*
X84700000Y-65100000D03*
X84700000Y-64100000D03*
X84700000Y-63100000D03*
X84700000Y-62100000D03*
X84700000Y-61100000D03*
X84700000Y-60100000D03*
X84700000Y-59100000D03*
X84700000Y-58100000D03*
X84700000Y-57100000D03*
X85700000Y-82100000D03*
X85700000Y-81100000D03*
X85700000Y-80100000D03*
X85700000Y-79100000D03*
X85700000Y-78100000D03*
X85700000Y-77100000D03*
X85700000Y-76100000D03*
X85700000Y-75100000D03*
X85700000Y-74100000D03*
X85700000Y-73100000D03*
X85700000Y-72100000D03*
X85700000Y-71100000D03*
X85700000Y-70100000D03*
X85700000Y-69100000D03*
X85700000Y-68100000D03*
X85700000Y-67100000D03*
X85700000Y-66100000D03*
X85700000Y-65100000D03*
X85700000Y-64100000D03*
X85700000Y-63100000D03*
X85700000Y-62100000D03*
X85700000Y-61100000D03*
X85700000Y-60100000D03*
X85700000Y-59100000D03*
X85700000Y-58100000D03*
X85700000Y-57100000D03*
X86700000Y-82100000D03*
X86700000Y-81100000D03*
X86700000Y-80100000D03*
X86700000Y-79100000D03*
X86700000Y-78100000D03*
X86700000Y-77100000D03*
X86700000Y-76100000D03*
X86700000Y-75100000D03*
X86700000Y-74100000D03*
X86700000Y-73100000D03*
X86700000Y-72100000D03*
X86700000Y-71100000D03*
X86700000Y-70100000D03*
X86700000Y-69100000D03*
X86700000Y-68100000D03*
X86700000Y-67100000D03*
X86700000Y-66100000D03*
X86700000Y-65100000D03*
X86700000Y-64100000D03*
X86700000Y-63100000D03*
X86700000Y-62100000D03*
X86700000Y-61100000D03*
X86700000Y-60100000D03*
X86700000Y-59100000D03*
X86700000Y-58100000D03*
X86700000Y-57100000D03*
X87700000Y-82100000D03*
X87700000Y-81100000D03*
X87700000Y-80100000D03*
X87700000Y-79100000D03*
X87700000Y-78100000D03*
X87700000Y-77100000D03*
X87700000Y-76100000D03*
X87700000Y-75100000D03*
X87700000Y-74100000D03*
X87700000Y-73100000D03*
X87700000Y-72100000D03*
X87700000Y-71100000D03*
X87700000Y-70100000D03*
X87700000Y-69100000D03*
X87700000Y-68100000D03*
X87700000Y-67100000D03*
X87700000Y-66100000D03*
X87700000Y-65100000D03*
X87700000Y-64100000D03*
X87700000Y-63100000D03*
X87700000Y-62100000D03*
X87700000Y-61100000D03*
X87700000Y-60100000D03*
X87700000Y-59100000D03*
X87700000Y-58100000D03*
X87700000Y-57100000D03*
X88700000Y-82100000D03*
X88700000Y-81100000D03*
X88700000Y-80100000D03*
X88700000Y-79100000D03*
X88700000Y-78100000D03*
X88700000Y-77100000D03*
X88700000Y-76100000D03*
X88700000Y-75100000D03*
X88700000Y-74100000D03*
X88700000Y-73100000D03*
X88700000Y-72100000D03*
X88700000Y-71100000D03*
X88700000Y-70100000D03*
X88700000Y-69100000D03*
X88700000Y-68100000D03*
X88700000Y-67100000D03*
X88700000Y-66100000D03*
X88700000Y-65100000D03*
X88700000Y-64100000D03*
X88700000Y-63100000D03*
X88700000Y-62100000D03*
X88700000Y-61100000D03*
X88700000Y-60100000D03*
X88700000Y-59100000D03*
X88700000Y-58100000D03*
X88700000Y-57100000D03*
G04 #@! TD*
G04 #@! TO.C,U3*
X61300000Y-91300000D03*
X62100000Y-91300000D03*
X62900000Y-91300000D03*
X66100000Y-91300000D03*
X66900000Y-91300000D03*
X67700000Y-91300000D03*
X61300000Y-92100000D03*
X62100000Y-92100000D03*
X62900000Y-92100000D03*
X66100000Y-92100000D03*
X66900000Y-92100000D03*
X67700000Y-92100000D03*
X61300000Y-92900000D03*
X62100000Y-92900000D03*
X62900000Y-92900000D03*
X66100000Y-92900000D03*
X66900000Y-92900000D03*
X67700000Y-92900000D03*
X61300000Y-93700000D03*
X62100000Y-93700000D03*
X62900000Y-93700000D03*
X66100000Y-93700000D03*
X66900000Y-93700000D03*
X67700000Y-93700000D03*
X61300000Y-94500000D03*
X62100000Y-94500000D03*
X62900000Y-94500000D03*
X66100000Y-94500000D03*
X66900000Y-94500000D03*
X67700000Y-94500000D03*
X61300000Y-95300000D03*
X62100000Y-95300000D03*
X62900000Y-95300000D03*
X66100000Y-95300000D03*
X66900000Y-95300000D03*
X67700000Y-95300000D03*
X61300000Y-96100000D03*
X62100000Y-96100000D03*
X62900000Y-96100000D03*
X66100000Y-96100000D03*
X66900000Y-96100000D03*
X67700000Y-96100000D03*
X61300000Y-96900000D03*
X62100000Y-96900000D03*
X62900000Y-96900000D03*
X66100000Y-96900000D03*
X66900000Y-96900000D03*
X67700000Y-96900000D03*
X61300000Y-97700000D03*
X62100000Y-97700000D03*
X62900000Y-97700000D03*
X66100000Y-97700000D03*
X66900000Y-97700000D03*
X67700000Y-97700000D03*
X61300000Y-98500000D03*
X62100000Y-98500000D03*
X62900000Y-98500000D03*
X66100000Y-98500000D03*
X66900000Y-98500000D03*
X67700000Y-98500000D03*
X61300000Y-99300000D03*
X62100000Y-99300000D03*
X62900000Y-99300000D03*
X66100000Y-99300000D03*
X66900000Y-99300000D03*
X67700000Y-99300000D03*
X61300000Y-100100000D03*
X62100000Y-100100000D03*
X62900000Y-100100000D03*
X66100000Y-100100000D03*
X66900000Y-100100000D03*
X67700000Y-100100000D03*
X61300000Y-100900000D03*
X62100000Y-100900000D03*
X62900000Y-100900000D03*
X66100000Y-100900000D03*
X66900000Y-100900000D03*
X67700000Y-100900000D03*
X61300000Y-101700000D03*
X62100000Y-101700000D03*
X62900000Y-101700000D03*
X66100000Y-101700000D03*
X66900000Y-101700000D03*
X67700000Y-101700000D03*
X61300000Y-102500000D03*
X62100000Y-102500000D03*
X62900000Y-102500000D03*
X66100000Y-102500000D03*
X66900000Y-102500000D03*
X67700000Y-102500000D03*
X61300000Y-103300000D03*
X62100000Y-103300000D03*
X62900000Y-103300000D03*
X66100000Y-103300000D03*
X66900000Y-103300000D03*
X67700000Y-103300000D03*
G04 #@! TD*
G04 #@! TO.C,U2*
X75300000Y-91300000D03*
X76100000Y-91300000D03*
X76900000Y-91300000D03*
X80100000Y-91300000D03*
X80900000Y-91300000D03*
X81700000Y-91300000D03*
X75300000Y-92100000D03*
X76100000Y-92100000D03*
X76900000Y-92100000D03*
X80100000Y-92100000D03*
X80900000Y-92100000D03*
X81700000Y-92100000D03*
X75300000Y-92900000D03*
X76100000Y-92900000D03*
X76900000Y-92900000D03*
X80100000Y-92900000D03*
X80900000Y-92900000D03*
X81700000Y-92900000D03*
X75300000Y-93700000D03*
X76100000Y-93700000D03*
X76900000Y-93700000D03*
X80100000Y-93700000D03*
X80900000Y-93700000D03*
X81700000Y-93700000D03*
X75300000Y-94500000D03*
X76100000Y-94500000D03*
X76900000Y-94500000D03*
X80100000Y-94500000D03*
X80900000Y-94500000D03*
X81700000Y-94500000D03*
X75300000Y-95300000D03*
X76100000Y-95300000D03*
X76900000Y-95300000D03*
X80100000Y-95300000D03*
X80900000Y-95300000D03*
X81700000Y-95300000D03*
X75300000Y-96100000D03*
X76100000Y-96100000D03*
X76900000Y-96100000D03*
X80100000Y-96100000D03*
X80900000Y-96100000D03*
X81700000Y-96100000D03*
X75300000Y-96900000D03*
X76100000Y-96900000D03*
X76900000Y-96900000D03*
X80100000Y-96900000D03*
X80900000Y-96900000D03*
X81700000Y-96900000D03*
X75300000Y-97700000D03*
X76100000Y-97700000D03*
X76900000Y-97700000D03*
X80100000Y-97700000D03*
X80900000Y-97700000D03*
X81700000Y-97700000D03*
X75300000Y-98500000D03*
X76100000Y-98500000D03*
X76900000Y-98500000D03*
X80100000Y-98500000D03*
X80900000Y-98500000D03*
X81700000Y-98500000D03*
X75300000Y-99300000D03*
X76100000Y-99300000D03*
X76900000Y-99300000D03*
X80100000Y-99300000D03*
X80900000Y-99300000D03*
X81700000Y-99300000D03*
X75300000Y-100100000D03*
X76100000Y-100100000D03*
X76900000Y-100100000D03*
X80100000Y-100100000D03*
X80900000Y-100100000D03*
X81700000Y-100100000D03*
X75300000Y-100900000D03*
X76100000Y-100900000D03*
X76900000Y-100900000D03*
X80100000Y-100900000D03*
X80900000Y-100900000D03*
X81700000Y-100900000D03*
X75300000Y-101700000D03*
X76100000Y-101700000D03*
X76900000Y-101700000D03*
X80100000Y-101700000D03*
X80900000Y-101700000D03*
X81700000Y-101700000D03*
X75300000Y-102500000D03*
X76100000Y-102500000D03*
X76900000Y-102500000D03*
X80100000Y-102500000D03*
X80900000Y-102500000D03*
X81700000Y-102500000D03*
X75300000Y-103300000D03*
X76100000Y-103300000D03*
X76900000Y-103300000D03*
X80100000Y-103300000D03*
X80900000Y-103300000D03*
X81700000Y-103300000D03*
G04 #@! TD*
D20*
G04 #@! TO.C,U41*
X97950000Y-75500000D03*
X97450000Y-75500000D03*
X96950000Y-75500000D03*
X96450000Y-75500000D03*
X95950000Y-75500000D03*
X95450000Y-75500000D03*
X94950000Y-75500000D03*
X94450000Y-75500000D03*
D21*
X93800000Y-76150000D03*
X93800000Y-76650000D03*
X93800000Y-77150000D03*
X93800000Y-77650000D03*
X93800000Y-78150000D03*
X93800000Y-78650000D03*
X93800000Y-79150000D03*
X93800000Y-79650000D03*
D20*
X94450000Y-80300000D03*
X94950000Y-80300000D03*
X95450000Y-80300000D03*
X95950000Y-80300000D03*
X96450000Y-80300000D03*
X96950000Y-80300000D03*
X97450000Y-80300000D03*
X97950000Y-80300000D03*
D21*
X98600000Y-79650000D03*
X98600000Y-79150000D03*
X98600000Y-78650000D03*
X98600000Y-78150000D03*
X98600000Y-77650000D03*
X98600000Y-77150000D03*
X98600000Y-76650000D03*
X98600000Y-76150000D03*
D22*
X95400000Y-78700000D03*
X97000000Y-78700000D03*
X95400000Y-77100000D03*
X97000000Y-77100000D03*
G04 #@! TD*
D23*
G04 #@! TO.C,C1*
X86600000Y-103000000D03*
X86600000Y-100000000D03*
G04 #@! TD*
G04 #@! TO.C,C56*
X56100000Y-102200000D03*
X56100000Y-99200000D03*
G04 #@! TD*
D24*
G04 #@! TO.C,C59*
X55100000Y-94765000D03*
X55100000Y-94235000D03*
G04 #@! TD*
G04 #@! TO.C,C61*
X55100000Y-97435000D03*
X55100000Y-97965000D03*
G04 #@! TD*
D25*
G04 #@! TO.C,C67*
X121920000Y-76716000D03*
X121920000Y-77716000D03*
G04 #@! TD*
G04 #@! TO.C,C72*
X116967000Y-74922000D03*
X116967000Y-73922000D03*
G04 #@! TD*
D26*
G04 #@! TO.C,C86*
X117753000Y-63754000D03*
X120753000Y-63754000D03*
G04 #@! TD*
D24*
G04 #@! TO.C,C89*
X48600000Y-100565000D03*
X48600000Y-100035000D03*
G04 #@! TD*
D27*
G04 #@! TO.C,C93*
X49535000Y-103800000D03*
X50065000Y-103800000D03*
G04 #@! TD*
G04 #@! TO.C,C110*
X110635000Y-95631000D03*
X111165000Y-95631000D03*
G04 #@! TD*
D24*
G04 #@! TO.C,C112*
X41200000Y-113965000D03*
X41200000Y-113435000D03*
G04 #@! TD*
G04 #@! TO.C,C113*
X41900000Y-113965000D03*
X41900000Y-113435000D03*
G04 #@! TD*
D27*
G04 #@! TO.C,C115*
X71865000Y-106200000D03*
X71335000Y-106200000D03*
G04 #@! TD*
D24*
G04 #@! TO.C,C116*
X72700000Y-109035000D03*
X72700000Y-109565000D03*
G04 #@! TD*
D25*
G04 #@! TO.C,C120*
X49400000Y-55800000D03*
X49400000Y-56800000D03*
G04 #@! TD*
G04 #@! TO.C,C121*
X44100000Y-41200000D03*
X45100000Y-41200000D03*
G04 #@! TD*
G04 #@! TO.C,C129*
X53200000Y-55200000D03*
X52200000Y-55200000D03*
G04 #@! TD*
D24*
G04 #@! TO.C,C146*
X45800000Y-87065000D03*
X45800000Y-86535000D03*
G04 #@! TD*
G04 #@! TO.C,C147*
X49200000Y-82565000D03*
X49200000Y-82035000D03*
G04 #@! TD*
D27*
G04 #@! TO.C,C148*
X44165000Y-87600000D03*
X43635000Y-87600000D03*
G04 #@! TD*
D24*
G04 #@! TO.C,C149*
X45700000Y-82565000D03*
X45700000Y-82035000D03*
G04 #@! TD*
G04 #@! TO.C,C150*
X92700000Y-81435000D03*
X92700000Y-81965000D03*
G04 #@! TD*
D25*
G04 #@! TO.C,C159*
X112300000Y-84700000D03*
X112300000Y-85700000D03*
G04 #@! TD*
D26*
G04 #@! TO.C,C216*
X80200000Y-53900000D03*
X83200000Y-53900000D03*
G04 #@! TD*
D23*
G04 #@! TO.C,C218*
X91900000Y-58600000D03*
X91900000Y-61600000D03*
G04 #@! TD*
D24*
G04 #@! TO.C,C243*
X102700000Y-77965000D03*
X102700000Y-77435000D03*
G04 #@! TD*
D27*
G04 #@! TO.C,C248*
X103748000Y-93853000D03*
X104278000Y-93853000D03*
G04 #@! TD*
G04 #@! TO.C,C250*
X96531000Y-96520000D03*
X96001000Y-96520000D03*
G04 #@! TD*
D24*
G04 #@! TO.C,C251*
X102616000Y-96890000D03*
X102616000Y-97420000D03*
G04 #@! TD*
G04 #@! TO.C,C259*
X92800000Y-92435000D03*
X92800000Y-92965000D03*
G04 #@! TD*
G04 #@! TO.C,C267*
X98298000Y-44058000D03*
X98298000Y-44588000D03*
G04 #@! TD*
G04 #@! TO.C,C268*
X98933000Y-44058000D03*
X98933000Y-44588000D03*
G04 #@! TD*
D28*
G04 #@! TO.C,D3*
X110555000Y-108700000D03*
X108445000Y-108700000D03*
G04 #@! TD*
D29*
G04 #@! TO.C,D4*
X103800000Y-74155000D03*
X103800000Y-72045000D03*
G04 #@! TD*
G04 #@! TO.C,D5*
X109900000Y-74155000D03*
X109900000Y-72045000D03*
G04 #@! TD*
D28*
G04 #@! TO.C,D6*
X94045000Y-61900000D03*
X96155000Y-61900000D03*
G04 #@! TD*
D30*
G04 #@! TO.C,DS2*
X56900000Y-59225000D03*
X56900000Y-57575000D03*
G04 #@! TD*
G04 #@! TO.C,DS3*
X55400000Y-57575000D03*
X55400000Y-59225000D03*
G04 #@! TD*
G04 #@! TO.C,DS4*
X58400000Y-59225000D03*
X58400000Y-57575000D03*
G04 #@! TD*
G04 #@! TO.C,DS5*
X36700000Y-117575000D03*
X36700000Y-119225000D03*
G04 #@! TD*
G04 #@! TO.C,DS6*
X39100000Y-117575000D03*
X39100000Y-119225000D03*
G04 #@! TD*
G04 #@! TO.C,DS7*
X40894000Y-83375000D03*
X40894000Y-81725000D03*
G04 #@! TD*
G04 #@! TO.C,DS8*
X40894000Y-88455000D03*
X40894000Y-86805000D03*
G04 #@! TD*
G04 #@! TO.C,DS9*
X40894000Y-93726000D03*
X40894000Y-92076000D03*
G04 #@! TD*
G04 #@! TO.C,DS10*
X40894000Y-98869000D03*
X40894000Y-97219000D03*
G04 #@! TD*
G04 #@! TO.C,DS11*
X64200000Y-118925000D03*
X64200000Y-117275000D03*
G04 #@! TD*
G04 #@! TO.C,DS12*
X55400000Y-69175000D03*
X55400000Y-70825000D03*
G04 #@! TD*
G04 #@! TO.C,DS13*
X56900000Y-69175000D03*
X56900000Y-70825000D03*
G04 #@! TD*
D31*
G04 #@! TO.C,J2*
X115154500Y-104293000D03*
X115154500Y-103658000D03*
X115154500Y-103023000D03*
X115154500Y-102388000D03*
X115154500Y-101753000D03*
X115154500Y-101118000D03*
X115154500Y-100483000D03*
X115154500Y-99848000D03*
X115154500Y-99213000D03*
X115154500Y-98578000D03*
X115154500Y-97943000D03*
X115154500Y-97308000D03*
X115154500Y-96673000D03*
X115154500Y-96038000D03*
X115154500Y-95403000D03*
X115154500Y-94768000D03*
X115154500Y-94133000D03*
X115154500Y-93498000D03*
X115154500Y-92863000D03*
X115154500Y-92228000D03*
X115154500Y-91593000D03*
X115154500Y-90958000D03*
X115154500Y-90323000D03*
X115154500Y-89688000D03*
X115154500Y-89053000D03*
X115154500Y-88418000D03*
X121885500Y-103658000D03*
X121885500Y-101753000D03*
X121885500Y-103023000D03*
X121885500Y-104293000D03*
X121885500Y-102388000D03*
X121885500Y-90323000D03*
X121885500Y-90958000D03*
X121885500Y-89053000D03*
X121885500Y-88418000D03*
X121885500Y-89688000D03*
X121885500Y-98578000D03*
X121885500Y-97943000D03*
X121885500Y-100483000D03*
X121885500Y-99848000D03*
X121885500Y-101118000D03*
X121885500Y-99213000D03*
X121885500Y-96038000D03*
X121885500Y-97308000D03*
X121885500Y-94768000D03*
X121885500Y-95403000D03*
X121885500Y-96673000D03*
X121885500Y-94133000D03*
X121885500Y-92228000D03*
X121885500Y-93498000D03*
X121885500Y-92863000D03*
X121885500Y-91593000D03*
D32*
X118520000Y-96355500D03*
G04 #@! TD*
D33*
G04 #@! TO.C,J4*
X70500000Y-111700000D03*
X79500000Y-111700000D03*
X71000000Y-111700000D03*
X71500000Y-111700000D03*
X72000000Y-111700000D03*
X72500000Y-111700000D03*
X73000000Y-111700000D03*
X73500000Y-111700000D03*
X74000000Y-111700000D03*
X74500000Y-111700000D03*
X75000000Y-111700000D03*
X75500000Y-111700000D03*
X76000000Y-111700000D03*
X76500000Y-111700000D03*
X77000000Y-111700000D03*
X77500000Y-111700000D03*
X78000000Y-111700000D03*
X78500000Y-111700000D03*
X79000000Y-111700000D03*
G04 #@! TD*
D34*
G04 #@! TO.C,J8*
X45700000Y-116025000D03*
X45050000Y-116025000D03*
X46350000Y-116025000D03*
X44400000Y-116025000D03*
X47000000Y-116025000D03*
D35*
X42600000Y-116150000D03*
X48800000Y-116150000D03*
D36*
X41700000Y-118700000D03*
X49700000Y-118700000D03*
D37*
X44500000Y-118700000D03*
X46900000Y-118700000D03*
G04 #@! TD*
D38*
G04 #@! TO.C,J9*
X110500000Y-104300000D03*
X108500000Y-104300000D03*
D39*
X106250000Y-102050000D03*
X112750000Y-102050000D03*
G04 #@! TD*
D34*
G04 #@! TO.C,J16*
X58300000Y-116000000D03*
X57650000Y-116000000D03*
X58950000Y-116000000D03*
X57000000Y-116000000D03*
X59600000Y-116000000D03*
D35*
X55200000Y-116125000D03*
X61400000Y-116125000D03*
D36*
X54300000Y-118675000D03*
X62300000Y-118675000D03*
D37*
X57100000Y-118675000D03*
X59500000Y-118675000D03*
G04 #@! TD*
D40*
G04 #@! TO.C,J18*
X123276000Y-53128000D03*
X123276000Y-39328000D03*
X114976000Y-53128000D03*
X114976000Y-39328000D03*
D41*
X120676000Y-50728000D03*
X120676000Y-49628000D03*
X120676000Y-48528000D03*
X120676000Y-47428000D03*
X120676000Y-46328000D03*
X120676000Y-45228000D03*
X120676000Y-44128000D03*
X120676000Y-43028000D03*
G04 #@! TD*
D42*
G04 #@! TO.C,JP4*
X112649000Y-81661000D03*
X112649000Y-79961000D03*
X112649000Y-83361000D03*
G04 #@! TD*
D43*
G04 #@! TO.C,L2*
X47300000Y-98600000D03*
X47300000Y-89600000D03*
G04 #@! TD*
D30*
G04 #@! TO.C,Q1*
X47600000Y-108050000D03*
X45600000Y-107100000D03*
X47600000Y-106150000D03*
G04 #@! TD*
D44*
G04 #@! TO.C,Q2*
X111850000Y-107600000D03*
X112800000Y-105600000D03*
X113750000Y-107600000D03*
G04 #@! TD*
G04 #@! TO.C,Q3*
X53250000Y-78300000D03*
X54200000Y-76300000D03*
X55150000Y-78300000D03*
G04 #@! TD*
G04 #@! TO.C,Q4*
X56550000Y-78300000D03*
X57500000Y-76300000D03*
X58450000Y-78300000D03*
G04 #@! TD*
D25*
G04 #@! TO.C,R3*
X56000000Y-94200000D03*
X57000000Y-94200000D03*
G04 #@! TD*
G04 #@! TO.C,R4*
X56000000Y-91800000D03*
X57000000Y-91800000D03*
G04 #@! TD*
G04 #@! TO.C,R7*
X56000000Y-92600000D03*
X57000000Y-92600000D03*
G04 #@! TD*
G04 #@! TO.C,R9*
X56000000Y-90200000D03*
X57000000Y-90200000D03*
G04 #@! TD*
G04 #@! TO.C,R11*
X56000000Y-88600000D03*
X57000000Y-88600000D03*
G04 #@! TD*
G04 #@! TO.C,R14*
X56000000Y-91000000D03*
X57000000Y-91000000D03*
G04 #@! TD*
G04 #@! TO.C,R15*
X56000000Y-95000000D03*
X57000000Y-95000000D03*
G04 #@! TD*
G04 #@! TO.C,R17*
X56000000Y-89400000D03*
X57000000Y-89400000D03*
G04 #@! TD*
G04 #@! TO.C,R18*
X56000000Y-95800000D03*
X57000000Y-95800000D03*
G04 #@! TD*
G04 #@! TO.C,R19*
X56000000Y-93400000D03*
X57000000Y-93400000D03*
G04 #@! TD*
G04 #@! TO.C,R21*
X56000000Y-96600000D03*
X57000000Y-96600000D03*
G04 #@! TD*
G04 #@! TO.C,R24*
X56000000Y-97400000D03*
X57000000Y-97400000D03*
G04 #@! TD*
G04 #@! TO.C,R25*
X56000000Y-98200000D03*
X57000000Y-98200000D03*
G04 #@! TD*
G04 #@! TO.C,R28*
X89000000Y-91000000D03*
X88000000Y-91000000D03*
G04 #@! TD*
G04 #@! TO.C,R36*
X117221000Y-80145000D03*
X117221000Y-81145000D03*
G04 #@! TD*
G04 #@! TO.C,R37*
X121277000Y-81153000D03*
X120277000Y-81153000D03*
G04 #@! TD*
G04 #@! TO.C,R40*
X121920000Y-79621000D03*
X121920000Y-78621000D03*
G04 #@! TD*
G04 #@! TO.C,R41*
X118245000Y-81153000D03*
X119245000Y-81153000D03*
G04 #@! TD*
G04 #@! TO.C,R42*
X117991000Y-73914000D03*
X118991000Y-73914000D03*
G04 #@! TD*
G04 #@! TO.C,R49*
X50400000Y-98600000D03*
X50400000Y-99600000D03*
G04 #@! TD*
G04 #@! TO.C,R50*
X51300000Y-98600000D03*
X51300000Y-99600000D03*
G04 #@! TD*
G04 #@! TO.C,R64*
X124400000Y-90400000D03*
X123400000Y-90400000D03*
G04 #@! TD*
G04 #@! TO.C,R65*
X107495000Y-95631000D03*
X107495000Y-94631000D03*
G04 #@! TD*
G04 #@! TO.C,R68*
X79600000Y-107000000D03*
X79600000Y-108000000D03*
G04 #@! TD*
G04 #@! TO.C,R69*
X78800000Y-107000000D03*
X78800000Y-108000000D03*
G04 #@! TD*
G04 #@! TO.C,R70*
X78000000Y-107000000D03*
X78000000Y-108000000D03*
G04 #@! TD*
G04 #@! TO.C,R71*
X77200000Y-107000000D03*
X77200000Y-108000000D03*
G04 #@! TD*
G04 #@! TO.C,R72*
X76300000Y-107000000D03*
X76300000Y-108000000D03*
G04 #@! TD*
G04 #@! TO.C,R73*
X75500000Y-107000000D03*
X75500000Y-108000000D03*
G04 #@! TD*
G04 #@! TO.C,R74*
X74700000Y-107000000D03*
X74700000Y-108000000D03*
G04 #@! TD*
G04 #@! TO.C,R76*
X73900000Y-107000000D03*
X73900000Y-108000000D03*
G04 #@! TD*
G04 #@! TO.C,R77*
X73000000Y-108000000D03*
X73000000Y-107000000D03*
G04 #@! TD*
G04 #@! TO.C,R89*
X48600000Y-107600000D03*
X48600000Y-106600000D03*
G04 #@! TD*
G04 #@! TO.C,R90*
X50200000Y-106600000D03*
X50200000Y-107600000D03*
G04 #@! TD*
G04 #@! TO.C,R91*
X49400000Y-106600000D03*
X49400000Y-107600000D03*
G04 #@! TD*
G04 #@! TO.C,R92*
X49400000Y-53500000D03*
X49400000Y-54500000D03*
G04 #@! TD*
G04 #@! TO.C,R93*
X56900000Y-56100000D03*
X56900000Y-55100000D03*
G04 #@! TD*
G04 #@! TO.C,R94*
X55900000Y-56100000D03*
X55900000Y-55100000D03*
G04 #@! TD*
G04 #@! TO.C,R95*
X57900000Y-56100000D03*
X57900000Y-55100000D03*
G04 #@! TD*
G04 #@! TO.C,R96*
X36700000Y-116400000D03*
X36700000Y-115400000D03*
G04 #@! TD*
G04 #@! TO.C,R97*
X39100000Y-116400000D03*
X39100000Y-115400000D03*
G04 #@! TD*
G04 #@! TO.C,R98*
X112300000Y-108700000D03*
X113300000Y-108700000D03*
G04 #@! TD*
G04 #@! TO.C,R103*
X40640000Y-80383000D03*
X40640000Y-79383000D03*
G04 #@! TD*
G04 #@! TO.C,R104*
X40640000Y-85463000D03*
X40640000Y-84463000D03*
G04 #@! TD*
G04 #@! TO.C,R105*
X40640000Y-90670000D03*
X40640000Y-89670000D03*
G04 #@! TD*
G04 #@! TO.C,R106*
X40640000Y-95877000D03*
X40640000Y-94877000D03*
G04 #@! TD*
G04 #@! TO.C,R107*
X41529000Y-79375000D03*
X41529000Y-80375000D03*
G04 #@! TD*
G04 #@! TO.C,R108*
X41529000Y-84463000D03*
X41529000Y-85463000D03*
G04 #@! TD*
G04 #@! TO.C,R109*
X41529000Y-89670000D03*
X41529000Y-90670000D03*
G04 #@! TD*
G04 #@! TO.C,R110*
X41529000Y-94877000D03*
X41529000Y-95877000D03*
G04 #@! TD*
G04 #@! TO.C,R111*
X40894000Y-59436000D03*
X40894000Y-58436000D03*
G04 #@! TD*
G04 #@! TO.C,R112*
X40894000Y-64508000D03*
X40894000Y-63508000D03*
G04 #@! TD*
G04 #@! TO.C,R113*
X40894000Y-69588000D03*
X40894000Y-68588000D03*
G04 #@! TD*
G04 #@! TO.C,R114*
X40894000Y-74668000D03*
X40894000Y-73668000D03*
G04 #@! TD*
G04 #@! TO.C,R116*
X91400000Y-79800000D03*
X90400000Y-79800000D03*
G04 #@! TD*
G04 #@! TO.C,R117*
X52400000Y-107600000D03*
X52400000Y-106600000D03*
G04 #@! TD*
G04 #@! TO.C,R118*
X51600000Y-107600000D03*
X51600000Y-106600000D03*
G04 #@! TD*
G04 #@! TO.C,R119*
X124400000Y-88800000D03*
X123400000Y-88800000D03*
G04 #@! TD*
G04 #@! TO.C,R120*
X124400000Y-89600000D03*
X123400000Y-89600000D03*
G04 #@! TD*
G04 #@! TO.C,R122*
X105400000Y-88000000D03*
X105400000Y-89000000D03*
G04 #@! TD*
G04 #@! TO.C,R123*
X109300000Y-76800000D03*
X108300000Y-76800000D03*
G04 #@! TD*
G04 #@! TO.C,R125*
X49149000Y-50427000D03*
X49149000Y-51427000D03*
G04 #@! TD*
G04 #@! TO.C,R126*
X104500000Y-89000000D03*
X104500000Y-88000000D03*
G04 #@! TD*
G04 #@! TO.C,R127*
X42156000Y-46990000D03*
X41156000Y-46990000D03*
G04 #@! TD*
G04 #@! TO.C,R128*
X41156000Y-55499000D03*
X42156000Y-55499000D03*
G04 #@! TD*
G04 #@! TO.C,R129*
X112300000Y-88000000D03*
X112300000Y-89000000D03*
G04 #@! TD*
G04 #@! TO.C,R130*
X112500000Y-78900000D03*
X112500000Y-77900000D03*
G04 #@! TD*
G04 #@! TO.C,R132*
X105410000Y-44077000D03*
X105410000Y-45077000D03*
G04 #@! TD*
G04 #@! TO.C,R134*
X63200000Y-115800000D03*
X64200000Y-115800000D03*
G04 #@! TD*
G04 #@! TO.C,R135*
X96900000Y-81600000D03*
X95900000Y-81600000D03*
G04 #@! TD*
G04 #@! TO.C,R136*
X98100000Y-81600000D03*
X99100000Y-81600000D03*
G04 #@! TD*
G04 #@! TO.C,R137*
X99600000Y-79600000D03*
X100600000Y-79600000D03*
G04 #@! TD*
G04 #@! TO.C,R140*
X96647000Y-86876000D03*
X96647000Y-87876000D03*
G04 #@! TD*
G04 #@! TO.C,R141*
X97536000Y-86876000D03*
X97536000Y-87876000D03*
G04 #@! TD*
G04 #@! TO.C,R142*
X98425000Y-86876000D03*
X98425000Y-87876000D03*
G04 #@! TD*
G04 #@! TO.C,R143*
X95496000Y-94615000D03*
X94496000Y-94615000D03*
G04 #@! TD*
G04 #@! TO.C,R144*
X94496000Y-95631000D03*
X95496000Y-95631000D03*
G04 #@! TD*
G04 #@! TO.C,R154*
X54200000Y-75100000D03*
X54200000Y-74100000D03*
G04 #@! TD*
G04 #@! TO.C,R155*
X55700000Y-74100000D03*
X55700000Y-75100000D03*
G04 #@! TD*
D45*
G04 #@! TO.C,RP1*
X100953000Y-87749000D03*
X100453000Y-87749000D03*
X99953000Y-87749000D03*
X99453000Y-87749000D03*
X100953000Y-86749000D03*
X100453000Y-86749000D03*
X99953000Y-86749000D03*
X99453000Y-86749000D03*
G04 #@! TD*
D46*
G04 #@! TO.C,SW1*
X51700000Y-63100000D03*
X51700000Y-66100000D03*
X58700000Y-63100000D03*
X58700000Y-66100000D03*
G04 #@! TD*
D47*
G04 #@! TO.C,SW3*
X93100000Y-54900000D03*
X96100000Y-54900000D03*
X93100000Y-47900000D03*
X96100000Y-47900000D03*
G04 #@! TD*
D48*
G04 #@! TO.C,TH1*
X106400000Y-105900000D03*
X106400000Y-108900000D03*
G04 #@! TD*
G04 #@! TO.C,TH2*
X113100000Y-58500000D03*
X113100000Y-55500000D03*
G04 #@! TD*
D49*
G04 #@! TO.C,TP3*
X125000000Y-53700000D03*
G04 #@! TD*
G04 #@! TO.C,TP4*
X111400000Y-72100000D03*
G04 #@! TD*
G04 #@! TO.C,TP5*
X102400000Y-72100000D03*
G04 #@! TD*
G04 #@! TO.C,TP7*
X51800000Y-90900000D03*
G04 #@! TD*
G04 #@! TO.C,TP8*
X52000000Y-97000000D03*
G04 #@! TD*
D50*
G04 #@! TO.C,TR1*
X45833400Y-110850900D03*
X44766600Y-110850900D03*
X45833400Y-109149100D03*
X44766600Y-109149100D03*
G04 #@! TD*
G04 #@! TO.C,TR2*
X58433400Y-110850900D03*
X57366600Y-110850900D03*
X58433400Y-109149100D03*
X57366600Y-109149100D03*
G04 #@! TD*
D51*
G04 #@! TO.C,U8*
X44800000Y-100850000D03*
X44800000Y-102750000D03*
X44800000Y-101800000D03*
X47600000Y-102750000D03*
X47600000Y-100850000D03*
X47600000Y-101800000D03*
G04 #@! TD*
D52*
G04 #@! TO.C,U10*
X49450000Y-102900000D03*
X50100000Y-102900000D03*
X50750000Y-102900000D03*
X50750000Y-100700000D03*
X49450000Y-100700000D03*
X50100000Y-100700000D03*
G04 #@! TD*
D53*
G04 #@! TO.C,U12*
X41225000Y-108525000D03*
X41875000Y-108525000D03*
X42525000Y-108525000D03*
X43175000Y-108525000D03*
X41225000Y-112475000D03*
X41875000Y-112475000D03*
X42525000Y-112475000D03*
X43175000Y-112475000D03*
G04 #@! TD*
D52*
G04 #@! TO.C,U13*
X71950000Y-107100000D03*
X71300000Y-107100000D03*
X70650000Y-107100000D03*
X70650000Y-109300000D03*
X71950000Y-109300000D03*
X71300000Y-109300000D03*
G04 #@! TD*
D54*
G04 #@! TO.C,U14*
X69350000Y-107100000D03*
X67450000Y-107100000D03*
X68400000Y-107100000D03*
X67450000Y-109900000D03*
X69350000Y-109900000D03*
G04 #@! TD*
D55*
G04 #@! TO.C,U17*
X52850000Y-113250000D03*
X52850000Y-112750000D03*
X52850000Y-112250000D03*
X52850000Y-111750000D03*
X52850000Y-111250000D03*
X52850000Y-110750000D03*
X52850000Y-110250000D03*
X52850000Y-109750000D03*
D56*
X52050000Y-108950000D03*
X51550000Y-108950000D03*
X51050000Y-108950000D03*
X50550000Y-108950000D03*
X50050000Y-108950000D03*
X49550000Y-108950000D03*
X49050000Y-108950000D03*
X48550000Y-108950000D03*
D55*
X47750000Y-109750000D03*
X47750000Y-110250000D03*
X47750000Y-110750000D03*
X47750000Y-111250000D03*
X47750000Y-111750000D03*
X47750000Y-112250000D03*
X47750000Y-112750000D03*
X47750000Y-113250000D03*
D56*
X48550000Y-114050000D03*
X49050000Y-114050000D03*
X49550000Y-114050000D03*
X50050000Y-114050000D03*
X50550000Y-114050000D03*
X51050000Y-114050000D03*
X51550000Y-114050000D03*
X52050000Y-114050000D03*
D57*
X49050000Y-110250000D03*
X49050000Y-112750000D03*
X51550000Y-110250000D03*
X50300000Y-112750000D03*
X49050000Y-111500000D03*
X50300000Y-111500000D03*
X51550000Y-111500000D03*
X50300000Y-110250000D03*
X51550000Y-112750000D03*
G04 #@! TD*
D58*
G04 #@! TO.C,U18*
X50725000Y-54175000D03*
X50725000Y-53525000D03*
X50725000Y-52875000D03*
X50725000Y-52225000D03*
X54675000Y-54175000D03*
X54675000Y-53525000D03*
X54675000Y-52875000D03*
X54675000Y-52225000D03*
G04 #@! TD*
D59*
G04 #@! TO.C,U19*
X46275000Y-114060000D03*
D60*
X44325000Y-112340000D03*
X46275000Y-112340000D03*
X44325000Y-114260000D03*
G04 #@! TD*
D15*
G04 #@! TO.C,U20*
X96075000Y-67200000D03*
X96075000Y-66700000D03*
X96075000Y-66200000D03*
X96075000Y-67700000D03*
X96075000Y-68200000D03*
X99525000Y-67200000D03*
X99525000Y-66700000D03*
X99525000Y-66200000D03*
X99525000Y-67700000D03*
X99525000Y-68200000D03*
D16*
X98550000Y-65475000D03*
X97050000Y-65475000D03*
X97050000Y-68925000D03*
X98550000Y-68925000D03*
D61*
X98300000Y-66700000D03*
X98300000Y-67700000D03*
X97300000Y-67700000D03*
X97300000Y-66700000D03*
G04 #@! TD*
D15*
G04 #@! TO.C,U21*
X96075000Y-71700000D03*
X96075000Y-71200000D03*
X96075000Y-70700000D03*
X96075000Y-72200000D03*
X96075000Y-72700000D03*
X99525000Y-71700000D03*
X99525000Y-71200000D03*
X99525000Y-70700000D03*
X99525000Y-72200000D03*
X99525000Y-72700000D03*
D16*
X98550000Y-69975000D03*
X97050000Y-69975000D03*
X97050000Y-73425000D03*
X98550000Y-73425000D03*
D61*
X98300000Y-71200000D03*
X98300000Y-72200000D03*
X97300000Y-72200000D03*
X97300000Y-71200000D03*
G04 #@! TD*
D16*
G04 #@! TO.C,U22*
X106800000Y-75725000D03*
X106300000Y-75725000D03*
X105800000Y-75725000D03*
X107300000Y-75725000D03*
X107800000Y-75725000D03*
X106800000Y-72275000D03*
X106300000Y-72275000D03*
X105800000Y-72275000D03*
X107300000Y-72275000D03*
X107800000Y-72275000D03*
D15*
X105075000Y-73250000D03*
X105075000Y-74750000D03*
X108525000Y-74750000D03*
X108525000Y-73250000D03*
D61*
X106300000Y-73500000D03*
X107300000Y-73500000D03*
X107300000Y-74500000D03*
X106300000Y-74500000D03*
G04 #@! TD*
D53*
G04 #@! TO.C,U26*
X48375000Y-86475000D03*
X47725000Y-86475000D03*
X47075000Y-86475000D03*
X46425000Y-86475000D03*
X48375000Y-82525000D03*
X47725000Y-82525000D03*
X47075000Y-82525000D03*
X46425000Y-82525000D03*
G04 #@! TD*
G04 #@! TO.C,U27*
X44875000Y-86475000D03*
X44225000Y-86475000D03*
X43575000Y-86475000D03*
X42925000Y-86475000D03*
X44875000Y-82525000D03*
X44225000Y-82525000D03*
X43575000Y-82525000D03*
X42925000Y-82525000D03*
G04 #@! TD*
D62*
G04 #@! TO.C,U28*
X43561000Y-68389000D03*
X43561000Y-58865000D03*
X46101000Y-58865000D03*
X48641000Y-58865000D03*
X48641000Y-68389000D03*
X46101000Y-68389000D03*
G04 #@! TD*
G04 #@! TO.C,U30*
X43561000Y-80073000D03*
X43561000Y-70549000D03*
X46101000Y-70549000D03*
X48641000Y-70549000D03*
X48641000Y-80073000D03*
X46101000Y-80073000D03*
G04 #@! TD*
D63*
G04 #@! TO.C,U32*
X90475000Y-80875000D03*
X91925000Y-82525000D03*
X90475000Y-82525000D03*
X91925000Y-80875000D03*
G04 #@! TD*
D64*
G04 #@! TO.C,U35*
X47879000Y-50894000D03*
X46609000Y-50894000D03*
X45339000Y-50894000D03*
X44069000Y-50894000D03*
X44069000Y-56294000D03*
X45339000Y-56294000D03*
X46609000Y-56294000D03*
X47879000Y-56294000D03*
G04 #@! TD*
G04 #@! TO.C,U36*
X47879000Y-42512000D03*
X46609000Y-42512000D03*
X45339000Y-42512000D03*
X44069000Y-42512000D03*
X44069000Y-47912000D03*
X45339000Y-47912000D03*
X46609000Y-47912000D03*
X47879000Y-47912000D03*
G04 #@! TD*
D65*
G04 #@! TO.C,U37*
X109435000Y-77900000D03*
X108165000Y-77900000D03*
X106895000Y-77900000D03*
X110705000Y-77900000D03*
X110705000Y-85700000D03*
X109435000Y-85700000D03*
X108165000Y-85700000D03*
X106895000Y-85700000D03*
D22*
X108800000Y-81800000D03*
X110400000Y-81800000D03*
X110400000Y-83400000D03*
X108800000Y-83400000D03*
X107200000Y-83400000D03*
X107200000Y-81800000D03*
X107200000Y-80200000D03*
X108800000Y-80200000D03*
X110400000Y-80200000D03*
G04 #@! TD*
D66*
G04 #@! TO.C,J7*
X110750000Y-89100000D03*
X110750000Y-87350000D03*
X110750000Y-90850000D03*
X107050000Y-87350000D03*
X107050000Y-89100000D03*
X107050000Y-90850000D03*
G04 #@! TD*
D63*
G04 #@! TO.C,U42*
X101925000Y-78525000D03*
X100475000Y-76875000D03*
X101925000Y-76875000D03*
X100475000Y-78525000D03*
G04 #@! TD*
D58*
G04 #@! TO.C,U43*
X64975000Y-112225000D03*
X64975000Y-112875000D03*
X64975000Y-113525000D03*
X64975000Y-114175000D03*
X61025000Y-112225000D03*
X61025000Y-112875000D03*
X61025000Y-113525000D03*
X61025000Y-114175000D03*
G04 #@! TD*
D59*
G04 #@! TO.C,U44*
X58875000Y-114060000D03*
D60*
X56925000Y-112340000D03*
X58875000Y-112340000D03*
X56925000Y-114260000D03*
G04 #@! TD*
D67*
G04 #@! TO.C,U45*
X96295000Y-95333000D03*
X96295000Y-94833000D03*
X96295000Y-94333000D03*
X96295000Y-93833000D03*
X96295000Y-93333000D03*
X96295000Y-92833000D03*
X96295000Y-92333000D03*
X96295000Y-91833000D03*
X96295000Y-91333000D03*
X96295000Y-90833000D03*
X96295000Y-90333000D03*
X96295000Y-89833000D03*
D45*
X96945000Y-89183000D03*
X99445000Y-89183000D03*
X98945000Y-89183000D03*
X98445000Y-89183000D03*
X97945000Y-89183000D03*
X97445000Y-89183000D03*
X99945000Y-89183000D03*
X100445000Y-89183000D03*
X100945000Y-89183000D03*
X101445000Y-89183000D03*
X101945000Y-89183000D03*
X102445000Y-89183000D03*
D67*
X103095000Y-92333000D03*
X103095000Y-91833000D03*
X103095000Y-91333000D03*
X103095000Y-90833000D03*
X103095000Y-90333000D03*
X103095000Y-89833000D03*
X103095000Y-92833000D03*
X103095000Y-93333000D03*
X103095000Y-93833000D03*
X103095000Y-94333000D03*
X103095000Y-94833000D03*
X103095000Y-95333000D03*
D45*
X99945000Y-95983000D03*
X99445000Y-95983000D03*
X98945000Y-95983000D03*
X98445000Y-95983000D03*
X97945000Y-95983000D03*
X97445000Y-95983000D03*
X96945000Y-95983000D03*
X100445000Y-95983000D03*
X100945000Y-95983000D03*
X101445000Y-95983000D03*
X101945000Y-95983000D03*
X102445000Y-95983000D03*
D68*
X98945000Y-93333000D03*
X98945000Y-91833000D03*
X100445000Y-91833000D03*
X100445000Y-93333000D03*
G04 #@! TD*
D63*
G04 #@! TO.C,U47*
X95086000Y-93535000D03*
X93636000Y-91885000D03*
X95086000Y-91885000D03*
X93636000Y-93535000D03*
G04 #@! TD*
D69*
G04 #@! TO.C,X1*
X54900000Y-111500000D03*
X54900000Y-112700000D03*
X54900000Y-110300000D03*
G04 #@! TD*
D70*
G04 #@! TO.C,Y1*
X39800000Y-112825000D03*
X39800000Y-111375000D03*
G04 #@! TD*
D27*
G04 #@! TO.C,C274*
X113803000Y-90297000D03*
X113273000Y-90297000D03*
G04 #@! TD*
G04 #@! TO.C,C275*
X114449000Y-87757000D03*
X113919000Y-87757000D03*
G04 #@! TD*
G04 #@! TO.C,C241*
X65465000Y-115000000D03*
X64935000Y-115000000D03*
G04 #@! TD*
D26*
G04 #@! TO.C,C276*
X117245000Y-56134000D03*
X120245000Y-56134000D03*
G04 #@! TD*
D24*
G04 #@! TO.C,C157*
X48700000Y-56135000D03*
X48700000Y-56665000D03*
G04 #@! TD*
D27*
G04 #@! TO.C,C158*
X46239000Y-41200000D03*
X45709000Y-41200000D03*
G04 #@! TD*
D30*
G04 #@! TO.C,DS14*
X40894000Y-62420000D03*
X40894000Y-60770000D03*
G04 #@! TD*
G04 #@! TO.C,DS15*
X40894000Y-67500000D03*
X40894000Y-65850000D03*
G04 #@! TD*
G04 #@! TO.C,DS16*
X40894000Y-72580000D03*
X40894000Y-70930000D03*
G04 #@! TD*
G04 #@! TO.C,DS17*
X40894000Y-77660000D03*
X40894000Y-76010000D03*
G04 #@! TD*
D71*
G04 #@! TO.C,J20*
X62357000Y-47632000D03*
X64107000Y-45332000D03*
X60607000Y-45332000D03*
G04 #@! TD*
D72*
G04 #@! TO.C,J6*
X36450000Y-101660000D03*
D73*
X40350000Y-101660000D03*
D72*
X36450000Y-102930000D03*
D73*
X40350000Y-102930000D03*
X36450000Y-104200000D03*
X40350000Y-104200000D03*
X36450000Y-105470000D03*
D72*
X40350000Y-105470000D03*
X36450000Y-106740000D03*
D73*
X40350000Y-106740000D03*
G04 #@! TD*
D74*
G04 #@! TO.C,J10*
X104155000Y-70358000D03*
X104155000Y-47498000D03*
X109205000Y-70358000D03*
X109205000Y-47498000D03*
X104155000Y-67818000D03*
X104155000Y-65278000D03*
X104155000Y-62738000D03*
X104155000Y-60198000D03*
X104155000Y-57658000D03*
X104155000Y-55118000D03*
X104155000Y-52578000D03*
X104155000Y-50038000D03*
X109205000Y-67818000D03*
X109205000Y-65278000D03*
X109205000Y-62738000D03*
X109205000Y-60198000D03*
X109205000Y-57658000D03*
X109205000Y-55118000D03*
X109205000Y-52578000D03*
X109205000Y-50038000D03*
G04 #@! TD*
D24*
G04 #@! TO.C,C114*
X40300000Y-108565000D03*
X40300000Y-108035000D03*
G04 #@! TD*
D27*
G04 #@! TO.C,C118*
X68135000Y-111000000D03*
X68665000Y-111000000D03*
G04 #@! TD*
G04 #@! TO.C,C117*
X68635000Y-106200000D03*
X69165000Y-106200000D03*
G04 #@! TD*
D25*
G04 #@! TO.C,C31*
X86200000Y-98000000D03*
X86200000Y-99000000D03*
G04 #@! TD*
G04 #@! TO.C,C34*
X87000000Y-98000000D03*
X87000000Y-99000000D03*
G04 #@! TD*
G04 #@! TO.C,C57*
X55100000Y-89500000D03*
X55100000Y-88500000D03*
G04 #@! TD*
G04 #@! TO.C,C68*
X57000000Y-104200000D03*
X57000000Y-103200000D03*
G04 #@! TD*
G04 #@! TO.C,C77*
X43700000Y-102300000D03*
X43700000Y-101300000D03*
G04 #@! TD*
G04 #@! TO.C,C90*
X44700000Y-88200000D03*
X44700000Y-89200000D03*
G04 #@! TD*
D24*
G04 #@! TO.C,C245*
X56700000Y-113565000D03*
X56700000Y-113035000D03*
G04 #@! TD*
M02*
