M48
;DRILL file {KiCad 5.0.2+dfsg1-1~bpo9+1} date Fri 29 Mar 2019 01:54:34 PM -03
;FORMAT={-:-/ absolute / metric / decimal}
FMAT,2
METRIC,TZ
T1C0.203
T2C0.305
T3C0.400
T4C0.711
T5C0.800
T6C0.900
T7C1.000
T8C1.200
T9C1.300
T10C1.400
T11C2.700
T12C3.180
%
G90
G05
T1
X36.7Y-114.8
X36.7Y-118.5
X38.8Y-101.7
X38.8Y-103.
X38.8Y-104.2
X38.8Y-106.7
X38.8Y-110.6
X39.1Y-118.5
X39.6Y-83.4
X39.7Y-115.4
X40.Y-79.4
X40.Y-84.5
X40.Y-89.7
X40.Y-94.9
X40.3Y-109.
X42.Y-82.
X42.5Y-109.5
X43.2Y-109.5
X43.5Y-42.5
X43.5Y-85.2
X43.6Y-41.2
X44.4Y-96.2
X44.9Y-67.6
X44.9Y-79.4
X44.9Y-83.409
X45.Y-109.9
X45.4Y-51.9
X45.6Y-109.9
X45.9Y-86.
X46.Y-52.4
X46.Y-81.5
X46.7Y-52.4
X46.7Y-102.3
X46.9Y-109.4
X46.9Y-110.2
X47.Y-111.6
X47.Y-112.3
X47.7Y-108.958
X47.9Y-43.6
X48.4Y-53.5
X48.7Y-55.2
X48.7Y-81.5
X48.798Y-52.816
X48.8Y-52.
X48.8Y-62.6
X48.8Y-63.4
X49.5Y-106.
X49.735Y-102.126
X50.1Y-106.
X50.3Y-80.9
X50.3Y-83.5
X50.3Y-86.
X50.3Y-88.6
X50.3Y-114.8
X50.5Y-92.5
X50.5Y-94.5
X50.961Y-74.223
X51.Y-105.8
X51.Y-106.8
X51.Y-108.2
X51.1Y-114.8
X51.2Y-96.1
X51.5Y-102.
X51.6Y-108.2
X51.609Y-74.223
X52.Y-102.5
X52.324Y-74.987
X52.324Y-75.635
X52.4Y-77.3
X52.5Y-109.
X52.5Y-113.8
X52.578Y-32.766
X52.578Y-35.306
X52.578Y-37.846
X52.578Y-40.386
X52.578Y-42.926
X52.797Y-83.897
X53.Y-114.3
X53.213Y-76.13
X53.213Y-76.778
X53.3Y-83.3
X53.303Y-107.997
X53.385Y-71.115
X53.6Y-110.6
X53.7Y-109.1
X53.8Y-82.7
X53.848Y-31.496
X53.848Y-34.036
X53.848Y-36.576
X53.848Y-39.116
X53.848Y-41.656
X53.9Y-71.6
X54.1Y-108.5
X54.2Y-78.3
X54.229Y-69.596
X54.242Y-68.961
X54.4Y-82.1
X54.5Y-109.1
X54.7Y-84.8
X54.889Y-71.88
X55.1Y-90.
X55.1Y-95.2
X55.1Y-98.4
X55.1Y-101.4
X55.1Y-103.4
X55.118Y-31.496
X55.118Y-32.766
X55.118Y-34.036
X55.118Y-35.306
X55.118Y-36.576
X55.118Y-37.846
X55.118Y-40.386
X55.118Y-41.656
X55.2Y-84.3
X55.5Y-71.9
X56.388Y-31.496
X56.388Y-32.766
X56.388Y-34.036
X56.388Y-35.306
X56.388Y-36.576
X56.388Y-37.846
X56.388Y-39.116
X56.388Y-42.926
X56.5Y-79.2
X56.642Y-73.787
X57.1Y-113.1
X57.15Y-74.295
X57.4Y-101.
X57.6Y-109.9
X57.658Y-31.496
X57.658Y-32.766
X57.658Y-34.036
X57.658Y-35.306
X57.658Y-36.576
X57.658Y-37.846
X57.658Y-40.386
X57.658Y-42.926
X57.658Y-75.311
X58.Y-101.
X58.1Y-89.8
X58.1Y-90.6
X58.1Y-91.4
X58.1Y-92.2
X58.1Y-93.
X58.1Y-93.8
X58.1Y-94.6
X58.1Y-95.4
X58.1Y-96.2
X58.1Y-97.
X58.1Y-97.8
X58.1Y-98.808
X58.1Y-99.392
X58.2Y-109.9
X58.293Y-75.311
X58.7Y-117.1
X58.8Y-88.6
X58.8Y-89.4
X58.8Y-90.2
X58.8Y-91.
X58.8Y-91.8
X58.8Y-92.6
X58.8Y-93.4
X58.8Y-94.2
X58.8Y-95.
X58.8Y-95.8
X58.8Y-96.6
X58.8Y-97.4
X58.8Y-98.2
X58.928Y-31.496
X58.928Y-32.766
X58.928Y-34.036
X58.928Y-35.306
X58.928Y-36.576
X58.928Y-37.846
X58.928Y-39.116
X58.928Y-41.656
X59.3Y-99.3
X59.3Y-100.1
X59.7Y-100.9
X60.1Y-90.
X60.1Y-100.1
X60.198Y-31.496
X60.198Y-32.766
X60.198Y-34.036
X60.198Y-35.306
X60.198Y-36.576
X60.198Y-37.846
X60.198Y-39.116
X60.198Y-40.386
X60.198Y-41.656
X60.3Y-103.2
X60.6Y-101.7
X60.8Y-89.6
X61.3Y-90.
X61.468Y-31.496
X61.468Y-32.766
X61.468Y-34.036
X61.468Y-35.306
X61.468Y-36.576
X61.468Y-37.846
X61.468Y-40.386
X61.468Y-42.926
X61.7Y-90.9
X61.7Y-91.7
X61.7Y-92.5
X61.7Y-93.3
X61.7Y-94.1
X61.7Y-95.7
X61.7Y-97.3
X61.7Y-98.1
X61.7Y-98.9
X61.7Y-99.7
X61.7Y-100.5
X61.7Y-101.3
X61.7Y-102.1
X61.7Y-102.9
X61.7Y-103.7
X62.1Y-90.
X62.5Y-65.2
X62.5Y-90.9
X62.5Y-91.7
X62.5Y-92.5
X62.5Y-93.3
X62.5Y-94.1
X62.5Y-94.9
X62.5Y-95.7
X62.5Y-98.1
X62.5Y-98.9
X62.5Y-99.7
X62.5Y-100.5
X62.5Y-101.3
X62.5Y-102.1
X62.5Y-102.9
X62.5Y-103.7
X62.738Y-31.496
X62.738Y-32.766
X62.738Y-34.036
X62.738Y-35.306
X62.738Y-36.576
X62.738Y-37.846
X62.738Y-39.116
X62.738Y-40.386
X62.738Y-42.926
X62.9Y-64.8
X62.9Y-90.
X63.098Y-63.119
X63.098Y-63.754
X63.1Y-56.5
X63.1Y-57.4
X63.1Y-59.8
X63.1Y-60.5
X63.1Y-61.8
X63.1Y-66.6
X63.3Y-90.9
X63.3Y-91.7
X63.3Y-92.5
X63.3Y-94.1
X63.3Y-94.9
X63.3Y-96.5
X63.3Y-97.3
X63.3Y-98.1
X63.3Y-98.9
X63.3Y-99.7
X63.3Y-100.5
X63.3Y-101.3
X63.3Y-102.1
X63.3Y-102.9
X63.3Y-103.7
X63.9Y-99.2
X64.008Y-31.496
X64.008Y-32.766
X64.008Y-34.036
X64.008Y-35.306
X64.008Y-36.576
X64.008Y-37.846
X64.008Y-40.386
X64.008Y-41.656
X64.2Y-56.5
X64.2Y-57.6
X64.2Y-58.6
X64.2Y-60.6
X64.2Y-61.6
X64.2Y-62.6
X64.2Y-65.6
X64.2Y-66.6
X64.2Y-67.6
X64.2Y-68.6
X64.2Y-69.6
X64.2Y-70.6
X64.2Y-71.6
X64.2Y-72.6
X64.2Y-73.6
X64.2Y-74.6
X64.2Y-75.6
X64.2Y-77.6
X64.2Y-78.6
X64.2Y-79.6
X64.2Y-80.6
X64.2Y-81.6
X64.2Y-82.6
X64.408Y-99.2
X64.5Y-84.3
X64.5Y-104.2
X64.5Y-115.
X64.8Y-90.
X65.2Y-56.5
X65.2Y-59.6
X65.2Y-62.6
X65.2Y-64.6
X65.2Y-65.6
X65.2Y-66.6
X65.2Y-67.6
X65.2Y-68.6
X65.2Y-69.6
X65.2Y-70.6
X65.2Y-71.6
X65.2Y-72.6
X65.2Y-73.6
X65.2Y-74.6
X65.2Y-75.6
X65.2Y-76.6
X65.2Y-77.6
X65.2Y-78.6
X65.2Y-79.6
X65.2Y-80.6
X65.2Y-81.6
X65.2Y-82.6
X65.278Y-31.496
X65.278Y-32.766
X65.278Y-34.036
X65.278Y-35.306
X65.278Y-36.576
X65.278Y-37.846
X65.278Y-40.386
X65.278Y-41.656
X65.308Y-89.668
X65.816Y-89.9
X66.Y-84.8
X66.2Y-57.6
X66.2Y-58.6
X66.2Y-61.6
X66.2Y-65.6
X66.2Y-66.6
X66.2Y-67.6
X66.2Y-68.6
X66.2Y-69.6
X66.2Y-70.6
X66.2Y-71.6
X66.2Y-72.6
X66.2Y-73.6
X66.2Y-74.6
X66.2Y-75.6
X66.2Y-76.6
X66.2Y-77.6
X66.2Y-78.6
X66.2Y-79.6
X66.2Y-80.6
X66.2Y-81.6
X66.2Y-82.6
X66.5Y-90.9
X66.5Y-91.7
X66.5Y-92.5
X66.5Y-93.3
X66.5Y-94.1
X66.5Y-94.9
X66.5Y-95.7
X66.5Y-97.3
X66.5Y-98.1
X66.5Y-100.5
X66.5Y-101.3
X66.5Y-102.1
X66.5Y-102.9
X66.5Y-103.7
X66.548Y-31.496
X66.548Y-32.766
X66.548Y-34.036
X66.548Y-35.306
X66.548Y-36.576
X66.548Y-37.846
X66.548Y-40.386
X66.548Y-42.926
X67.2Y-59.6
X67.2Y-60.6
X67.2Y-63.6
X67.2Y-64.6
X67.2Y-65.6
X67.2Y-66.6
X67.2Y-67.6
X67.2Y-68.6
X67.2Y-69.6
X67.2Y-70.6
X67.2Y-71.6
X67.2Y-72.6
X67.2Y-73.6
X67.2Y-74.6
X67.2Y-75.6
X67.2Y-76.6
X67.2Y-77.6
X67.2Y-78.6
X67.2Y-79.6
X67.2Y-80.6
X67.2Y-81.6
X67.2Y-82.6
X67.3Y-91.7
X67.3Y-92.5
X67.3Y-93.3
X67.3Y-94.1
X67.3Y-94.9
X67.3Y-95.7
X67.3Y-97.3
X67.3Y-98.1
X67.3Y-98.9
X67.3Y-99.7
X67.3Y-100.5
X67.3Y-101.3
X67.3Y-102.1
X67.3Y-102.9
X67.3Y-103.7
X67.4Y-108.4
X67.818Y-31.496
X67.818Y-32.766
X67.818Y-34.036
X67.818Y-35.306
X67.818Y-36.576
X67.818Y-37.846
X67.818Y-39.116
X67.818Y-40.386
X67.818Y-42.926
X68.1Y-90.9
X68.1Y-91.7
X68.1Y-92.5
X68.1Y-93.3
X68.1Y-94.1
X68.1Y-95.7
X68.1Y-98.1
X68.1Y-98.9
X68.1Y-99.7
X68.1Y-100.5
X68.1Y-101.3
X68.1Y-102.1
X68.1Y-102.9
X68.1Y-103.7
X68.2Y-57.6
X68.2Y-58.6
X68.2Y-59.6
X68.2Y-60.6
X68.2Y-61.6
X68.2Y-62.6
X68.2Y-63.6
X68.2Y-64.6
X68.2Y-65.6
X68.2Y-66.6
X68.2Y-67.6
X68.2Y-68.6
X68.2Y-69.6
X68.2Y-70.6
X68.2Y-71.6
X68.2Y-72.6
X68.2Y-73.6
X68.2Y-74.6
X68.2Y-75.6
X68.2Y-76.6
X68.2Y-77.6
X68.2Y-78.6
X68.2Y-79.6
X68.2Y-80.6
X68.2Y-81.6
X68.2Y-82.6
X68.9Y-99.1
X69.088Y-31.496
X69.088Y-32.766
X69.088Y-34.036
X69.088Y-35.306
X69.088Y-36.576
X69.088Y-37.846
X69.088Y-39.116
X69.088Y-40.386
X69.088Y-41.656
X69.1Y-89.9
X69.2Y-57.6
X69.2Y-58.6
X69.2Y-59.6
X69.2Y-60.6
X69.2Y-63.6
X69.2Y-64.6
X69.2Y-65.6
X69.2Y-66.6
X69.2Y-67.6
X69.2Y-68.6
X69.2Y-69.6
X69.2Y-70.6
X69.2Y-71.6
X69.2Y-72.6
X69.2Y-73.6
X69.2Y-74.6
X69.2Y-75.6
X69.2Y-76.6
X69.2Y-77.6
X69.2Y-78.6
X69.2Y-79.6
X69.2Y-80.6
X69.2Y-81.6
X69.2Y-82.6
X69.3Y-99.5
X69.6Y-56.5
X69.7Y-99.9
X69.9Y-89.4
X70.Y-111.7
X70.1Y-108.414
X70.2Y-56.5
X70.2Y-57.6
X70.2Y-58.6
X70.2Y-59.6
X70.2Y-60.6
X70.2Y-61.6
X70.2Y-62.6
X70.2Y-63.6
X70.2Y-64.6
X70.2Y-65.6
X70.2Y-66.6
X70.2Y-67.6
X70.2Y-68.6
X70.2Y-69.6
X70.2Y-70.6
X70.2Y-71.6
X70.2Y-72.6
X70.2Y-73.6
X70.2Y-74.6
X70.2Y-75.6
X70.2Y-76.6
X70.2Y-77.6
X70.2Y-78.6
X70.2Y-79.6
X70.2Y-80.6
X70.2Y-81.6
X70.358Y-31.496
X70.358Y-32.766
X70.358Y-34.036
X70.358Y-35.306
X70.358Y-36.576
X70.358Y-37.846
X70.358Y-39.116
X70.358Y-40.386
X70.358Y-41.656
X70.4Y-89.9
X70.5Y-100.4
X70.7Y-108.4
X70.9Y-88.392
X70.9Y-88.9
X70.9Y-89.5
X70.9Y-100.9
X71.2Y-59.6
X71.2Y-60.6
X71.2Y-61.6
X71.2Y-62.6
X71.2Y-63.6
X71.2Y-64.6
X71.2Y-65.6
X71.2Y-66.6
X71.2Y-67.6
X71.2Y-68.6
X71.2Y-69.6
X71.2Y-70.6
X71.2Y-71.6
X71.2Y-72.6
X71.2Y-73.6
X71.2Y-74.6
X71.2Y-75.6
X71.2Y-76.6
X71.2Y-77.6
X71.2Y-78.6
X71.2Y-79.6
X71.2Y-80.6
X71.2Y-81.6
X71.3Y-89.9
X71.5Y-113.
X71.6Y-56.5
X71.628Y-31.496
X71.628Y-32.766
X71.628Y-34.036
X71.628Y-35.306
X71.628Y-36.576
X71.628Y-37.846
X71.628Y-39.116
X71.628Y-40.386
X71.628Y-42.926
X72.Y-110.1
X72.Y-113.6
X72.1Y-89.9
X72.2Y-56.5
X72.2Y-57.6
X72.2Y-58.6
X72.2Y-59.6
X72.2Y-60.6
X72.2Y-63.6
X72.2Y-64.6
X72.2Y-65.6
X72.2Y-66.6
X72.2Y-67.6
X72.2Y-68.6
X72.2Y-69.6
X72.2Y-70.6
X72.2Y-71.6
X72.2Y-72.6
X72.2Y-73.6
X72.2Y-74.6
X72.2Y-75.6
X72.2Y-76.6
X72.2Y-77.6
X72.2Y-78.6
X72.2Y-79.6
X72.2Y-80.6
X72.2Y-81.6
X72.3Y-99.7
X72.3Y-101.1
X72.5Y-113.
X72.7Y-89.9
X72.7Y-99.3
X72.8Y-110.1
X72.898Y-35.306
X72.898Y-31.496
X72.898Y-32.766
X72.898Y-34.036
X72.898Y-36.576
X72.898Y-37.846
X72.898Y-39.116
X72.898Y-40.386
X72.898Y-42.926
X73.1Y-98.9
X73.2Y-59.6
X73.2Y-60.6
X73.2Y-61.6
X73.2Y-62.6
X73.2Y-63.6
X73.2Y-64.6
X73.2Y-65.6
X73.2Y-66.6
X73.2Y-67.6
X73.2Y-68.6
X73.2Y-69.6
X73.2Y-70.6
X73.2Y-72.6
X73.2Y-73.6
X73.2Y-74.6
X73.2Y-75.6
X73.2Y-76.6
X73.2Y-77.6
X73.2Y-78.6
X73.2Y-79.6
X73.2Y-80.6
X73.2Y-84.
X73.5Y-97.9
X73.5Y-113.
X73.6Y-56.5
X73.9Y-98.9
X74.144Y-108.8
X74.168Y-31.496
X74.168Y-32.766
X74.168Y-34.036
X74.168Y-35.306
X74.168Y-36.576
X74.168Y-37.846
X74.168Y-39.116
X74.168Y-40.386
X74.168Y-41.656
X74.2Y-56.5
X74.2Y-57.6
X74.2Y-58.6
X74.2Y-59.6
X74.2Y-60.6
X74.2Y-61.6
X74.2Y-62.6
X74.2Y-63.6
X74.2Y-66.6
X74.2Y-67.6
X74.2Y-68.6
X74.2Y-69.6
X74.2Y-70.6
X74.2Y-74.6
X74.2Y-76.6
X74.2Y-77.6
X74.2Y-78.6
X74.2Y-79.6
X74.2Y-80.6
X74.2Y-81.6
X74.2Y-82.6
X74.2Y-83.3
X74.3Y-98.1
X74.5Y-89.9
X74.5Y-110.4
X74.7Y-97.7
X74.856Y-108.8
X75.1Y-89.9
X75.159Y-82.6
X75.2Y-59.6
X75.2Y-60.6
X75.2Y-61.6
X75.2Y-62.6
X75.2Y-63.6
X75.2Y-64.6
X75.2Y-65.6
X75.2Y-66.6
X75.2Y-68.6
X75.2Y-69.6
X75.2Y-71.6
X75.2Y-73.6
X75.2Y-74.6
X75.2Y-76.6
X75.2Y-77.6
X75.2Y-78.6
X75.2Y-79.6
X75.2Y-80.6
X75.2Y-81.6
X75.438Y-31.496
X75.438Y-32.766
X75.438Y-34.036
X75.438Y-35.306
X75.438Y-36.576
X75.438Y-37.846
X75.438Y-39.116
X75.438Y-40.386
X75.438Y-41.656
X75.644Y-108.8
X75.7Y-89.9
X75.7Y-90.9
X75.7Y-91.7
X75.7Y-92.5
X75.7Y-93.3
X75.7Y-94.1
X75.7Y-95.7
X75.7Y-97.3
X75.7Y-98.1
X75.7Y-98.9
X75.7Y-99.7
X75.7Y-100.5
X75.7Y-101.3
X75.7Y-102.1
X75.7Y-102.9
X75.7Y-103.7
X76.Y-110.4
X76.2Y-57.6
X76.2Y-59.6
X76.2Y-60.6
X76.2Y-58.6
X76.2Y-61.6
X76.2Y-62.6
X76.2Y-63.6
X76.2Y-64.6
X76.2Y-65.6
X76.2Y-66.6
X76.2Y-68.6
X76.2Y-69.6
X76.2Y-71.6
X76.2Y-72.6
X76.2Y-73.6
X76.2Y-74.6
X76.2Y-75.6
X76.2Y-76.6
X76.2Y-77.6
X76.2Y-78.6
X76.2Y-79.6
X76.2Y-80.6
X76.2Y-81.6
X76.268Y-82.6
X76.3Y-89.9
X76.356Y-108.8
X76.5Y-90.9
X76.5Y-91.7
X76.5Y-92.5
X76.5Y-93.3
X76.5Y-94.1
X76.5Y-94.9
X76.5Y-95.7
X76.5Y-98.1
X76.5Y-98.9
X76.5Y-99.7
X76.5Y-100.5
X76.5Y-101.3
X76.5Y-102.1
X76.5Y-102.9
X76.5Y-103.7
X76.708Y-31.496
X76.708Y-32.766
X76.708Y-34.036
X76.708Y-35.306
X76.708Y-36.576
X76.708Y-37.846
X76.708Y-39.116
X76.708Y-40.386
X76.708Y-42.926
X76.9Y-89.9
X77.144Y-108.8
X77.2Y-56.8
X77.2Y-57.6
X77.2Y-58.6
X77.2Y-59.6
X77.2Y-60.6
X77.2Y-61.6
X77.2Y-62.6
X77.2Y-63.6
X77.2Y-66.6
X77.2Y-67.6
X77.2Y-68.6
X77.2Y-69.6
X77.2Y-70.6
X77.2Y-72.6
X77.2Y-73.6
X77.2Y-74.6
X77.2Y-75.6
X77.2Y-76.6
X77.2Y-77.6
X77.2Y-78.6
X77.2Y-79.6
X77.2Y-80.6
X77.2Y-81.6
X77.3Y-90.9
X77.3Y-91.7
X77.3Y-92.5
X77.3Y-94.1
X77.3Y-94.9
X77.3Y-96.5
X77.3Y-97.3
X77.3Y-98.1
X77.3Y-98.9
X77.3Y-99.7
X77.3Y-100.5
X77.3Y-101.3
X77.3Y-102.1
X77.3Y-102.9
X77.5Y-110.4
X77.856Y-108.8
X77.9Y-99.5
X77.9Y-100.5
X77.978Y-31.496
X77.978Y-32.766
X77.978Y-34.036
X77.978Y-35.306
X77.978Y-36.576
X77.978Y-37.846
X77.978Y-39.116
X77.978Y-40.386
X77.978Y-42.926
X78.2Y-58.6
X78.2Y-59.6
X78.2Y-60.6
X78.2Y-61.6
X78.2Y-62.6
X78.2Y-63.6
X78.2Y-64.6
X78.2Y-65.6
X78.2Y-66.6
X78.2Y-67.6
X78.2Y-68.6
X78.2Y-69.6
X78.2Y-70.6
X78.2Y-74.6
X78.2Y-76.6
X78.2Y-77.6
X78.2Y-78.6
X78.2Y-79.6
X78.2Y-80.6
X78.408Y-99.5
X78.644Y-108.8
X79.Y-110.4
X79.2Y-57.6
X79.2Y-58.6
X79.2Y-59.6
X79.2Y-60.6
X79.2Y-61.6
X79.2Y-62.6
X79.2Y-63.6
X79.2Y-64.6
X79.2Y-66.6
X79.2Y-68.6
X79.2Y-69.6
X79.2Y-73.6
X79.2Y-74.6
X79.2Y-76.6
X79.2Y-77.6
X79.2Y-78.6
X79.2Y-79.6
X79.2Y-80.6
X79.2Y-81.6
X79.2Y-82.7
X79.2Y-83.4
X79.248Y-31.496
X79.248Y-32.766
X79.248Y-34.036
X79.248Y-35.306
X79.248Y-36.576
X79.248Y-37.846
X79.248Y-39.116
X79.248Y-40.386
X79.248Y-41.656
X79.356Y-108.8
X80.2Y-57.6
X80.2Y-58.6
X80.2Y-59.6
X80.2Y-60.6
X80.2Y-61.6
X80.2Y-62.6
X80.2Y-63.6
X80.2Y-64.6
X80.2Y-65.6
X80.2Y-66.6
X80.2Y-71.6
X80.2Y-72.6
X80.2Y-73.6
X80.2Y-74.6
X80.2Y-75.6
X80.2Y-76.6
X80.2Y-77.6
X80.2Y-78.6
X80.2Y-79.6
X80.2Y-80.6
X80.5Y-90.9
X80.5Y-91.7
X80.5Y-92.5
X80.5Y-93.3
X80.5Y-94.1
X80.5Y-94.9
X80.5Y-95.7
X80.5Y-97.3
X80.5Y-98.1
X80.5Y-100.5
X80.5Y-101.3
X80.5Y-102.1
X80.5Y-102.9
X80.5Y-103.7
X80.518Y-31.496
X80.518Y-32.766
X80.518Y-34.036
X80.518Y-35.306
X80.518Y-36.576
X80.518Y-37.846
X80.518Y-39.116
X80.518Y-40.386
X80.518Y-41.656
X81.186Y-56.6
X81.2Y-57.6
X81.2Y-58.6
X81.2Y-59.6
X81.2Y-60.6
X81.2Y-61.6
X81.2Y-62.6
X81.2Y-63.6
X81.2Y-64.6
X81.2Y-65.6
X81.2Y-66.6
X81.2Y-67.6
X81.2Y-68.6
X81.2Y-70.6
X81.2Y-71.6
X81.2Y-72.6
X81.2Y-73.6
X81.2Y-74.6
X81.2Y-75.6
X81.2Y-76.6
X81.2Y-77.6
X81.2Y-78.6
X81.2Y-79.6
X81.2Y-80.6
X81.3Y-91.7
X81.3Y-92.5
X81.3Y-93.3
X81.3Y-94.1
X81.3Y-94.9
X81.3Y-95.7
X81.3Y-97.3
X81.3Y-98.1
X81.3Y-98.9
X81.3Y-99.7
X81.3Y-100.5
X81.3Y-101.3
X81.3Y-102.1
X81.3Y-102.9
X81.3Y-103.7
X81.75Y-83.71
X81.787Y-82.7
X81.788Y-31.496
X81.788Y-32.766
X81.788Y-34.036
X81.788Y-35.306
X81.788Y-36.576
X81.788Y-37.846
X81.788Y-39.116
X81.788Y-40.386
X82.1Y-90.9
X82.1Y-91.7
X82.1Y-92.5
X82.1Y-93.3
X82.1Y-94.1
X82.1Y-95.7
X82.1Y-98.1
X82.1Y-98.9
X82.1Y-99.7
X82.1Y-100.5
X82.1Y-101.3
X82.1Y-102.1
X82.1Y-102.9
X82.1Y-103.7
X82.2Y-57.6
X82.2Y-58.6
X82.2Y-59.6
X82.2Y-60.6
X82.2Y-61.6
X82.2Y-62.6
X82.2Y-63.6
X82.2Y-64.6
X82.2Y-65.6
X82.2Y-66.6
X82.2Y-67.6
X82.2Y-70.6
X82.2Y-71.6
X82.2Y-73.6
X82.2Y-74.6
X82.2Y-75.6
X82.2Y-76.6
X82.2Y-77.6
X82.2Y-78.6
X82.2Y-79.6
X82.2Y-80.6
X82.2Y-81.6
X83.058Y-31.496
X83.058Y-32.766
X83.058Y-34.036
X83.058Y-35.306
X83.058Y-36.576
X83.058Y-37.846
X83.058Y-39.116
X83.058Y-40.386
X83.058Y-42.926
X83.2Y-58.6
X83.2Y-59.6
X83.2Y-60.6
X83.2Y-61.6
X83.2Y-62.6
X83.2Y-63.6
X83.2Y-64.6
X83.2Y-69.6
X83.2Y-73.6
X83.2Y-74.6
X83.2Y-75.6
X83.2Y-76.6
X83.2Y-77.6
X83.2Y-78.6
X83.2Y-79.6
X83.2Y-80.6
X83.2Y-81.6
X83.3Y-90.1
X83.348Y-49.947
X83.7Y-82.7
X83.784Y-50.383
X83.8Y-105.5
X84.2Y-57.6
X84.2Y-58.6
X84.2Y-59.6
X84.2Y-60.6
X84.2Y-61.6
X84.2Y-62.6
X84.2Y-63.6
X84.2Y-64.6
X84.2Y-65.6
X84.2Y-72.6
X84.2Y-73.6
X84.2Y-74.6
X84.2Y-75.6
X84.2Y-76.6
X84.2Y-77.6
X84.2Y-78.6
X84.2Y-79.6
X84.2Y-80.6
X84.2Y-81.6
X84.328Y-31.496
X84.328Y-32.766
X84.328Y-34.036
X84.328Y-35.306
X84.328Y-36.576
X84.328Y-37.846
X84.328Y-39.116
X84.328Y-40.386
X84.328Y-41.656
X84.5Y-89.5
X84.5Y-91.7
X84.745Y-50.383
X84.9Y-90.1
X85.181Y-49.947
X85.2Y-56.6
X85.2Y-57.6
X85.2Y-59.6
X85.2Y-60.6
X85.2Y-61.6
X85.2Y-62.6
X85.2Y-63.6
X85.2Y-64.6
X85.2Y-65.6
X85.2Y-67.6
X85.2Y-70.6
X85.2Y-73.6
X85.2Y-74.6
X85.2Y-75.6
X85.2Y-76.6
X85.2Y-77.6
X85.2Y-78.6
X85.2Y-79.6
X85.2Y-80.6
X85.2Y-81.6
X85.2Y-82.6
X85.3Y-97.5
X85.598Y-31.496
X85.598Y-32.766
X85.598Y-34.036
X85.598Y-35.306
X85.598Y-36.576
X85.598Y-37.846
X85.598Y-39.116
X85.598Y-40.386
X85.598Y-41.656
X85.7Y-83.7
X85.7Y-90.1
X85.7Y-94.1
X86.1Y-89.5
X86.1Y-92.5
X86.2Y-56.6
X86.2Y-57.6
X86.2Y-58.6
X86.2Y-59.6
X86.2Y-60.6
X86.2Y-61.6
X86.2Y-62.6
X86.2Y-63.6
X86.2Y-64.6
X86.2Y-65.6
X86.2Y-68.6
X86.2Y-70.6
X86.2Y-71.6
X86.2Y-73.6
X86.2Y-74.6
X86.2Y-75.6
X86.2Y-76.6
X86.2Y-77.6
X86.2Y-78.6
X86.2Y-79.6
X86.2Y-80.6
X86.2Y-81.6
X86.2Y-82.6
X86.2Y-97.5
X86.5Y-90.1
X86.5Y-90.9
X86.868Y-31.496
X86.868Y-32.766
X86.868Y-34.036
X86.868Y-35.306
X86.868Y-36.576
X86.868Y-37.846
X86.868Y-39.116
X86.868Y-40.386
X86.868Y-42.926
X86.9Y-89.5
X86.9Y-91.7
X87.Y-97.5
X87.2Y-57.6
X87.2Y-58.6
X87.2Y-59.6
X87.2Y-60.6
X87.2Y-61.6
X87.2Y-62.6
X87.2Y-63.6
X87.2Y-64.6
X87.2Y-65.6
X87.2Y-66.6
X87.2Y-74.6
X87.2Y-75.6
X87.2Y-76.6
X87.2Y-77.6
X87.2Y-78.6
X87.2Y-79.6
X87.2Y-80.6
X87.2Y-81.6
X87.2Y-82.6
X87.3Y-90.1
X87.6Y-91.7
X88.1Y-90.1
X88.1Y-94.9
X88.138Y-31.496
X88.138Y-32.766
X88.138Y-34.036
X88.138Y-35.306
X88.138Y-36.576
X88.138Y-37.846
X88.138Y-39.116
X88.138Y-40.386
X88.138Y-42.926
X88.2Y-58.6
X88.2Y-59.6
X88.2Y-60.6
X88.2Y-61.6
X88.2Y-62.6
X88.2Y-63.6
X88.2Y-64.6
X88.2Y-65.6
X88.2Y-66.6
X88.2Y-69.6
X88.2Y-72.6
X88.2Y-74.6
X88.2Y-75.6
X88.2Y-77.6
X88.2Y-79.6
X88.2Y-80.6
X88.2Y-81.6
X88.2Y-82.6
X88.5Y-89.5
X88.5Y-95.7
X88.9Y-90.1
X88.9Y-92.5
X89.097Y-78.603
X89.2Y-57.6
X89.2Y-58.6
X89.2Y-59.6
X89.2Y-60.6
X89.2Y-61.6
X89.2Y-62.6
X89.2Y-63.6
X89.2Y-64.6
X89.2Y-66.6
X89.2Y-67.6
X89.2Y-72.6
X89.2Y-74.6
X89.2Y-75.6
X89.2Y-76.6
X89.2Y-77.6
X89.2Y-79.6
X89.2Y-80.6
X89.2Y-81.6
X89.2Y-82.6
X89.3Y-89.5
X89.3Y-93.3
X89.408Y-31.496
X89.408Y-32.766
X89.408Y-34.036
X89.408Y-35.306
X89.408Y-36.576
X89.408Y-37.846
X89.408Y-39.116
X89.408Y-40.386
X89.408Y-41.656
X89.7Y-90.6
X89.7Y-91.7
X90.Y-78.1
X90.1Y-89.5
X90.1Y-92.5
X90.2Y-64.6
X90.219Y-60.091
X90.5Y-90.6
X90.5Y-94.9
X90.6Y-78.8
X90.678Y-31.496
X90.678Y-32.766
X90.678Y-34.036
X90.678Y-35.306
X90.678Y-36.576
X90.678Y-37.846
X90.678Y-39.116
X90.678Y-40.386
X90.678Y-41.656
X90.8Y-75.4
X90.867Y-60.091
X90.9Y-89.5
X90.9Y-93.3
X91.3Y-74.9
X91.3Y-90.6
X91.3Y-93.7
X91.6Y-73.
X91.7Y-89.5
X91.7Y-94.9
X91.8Y-75.6
X91.948Y-31.496
X91.948Y-32.766
X91.948Y-34.036
X91.948Y-35.306
X91.948Y-36.576
X91.948Y-37.846
X91.948Y-39.116
X91.948Y-40.386
X91.948Y-42.926
X92.1Y-77.2
X92.1Y-90.6
X92.1Y-95.7
X92.2Y-60.3
X92.5Y-75.6
X92.5Y-89.5
X92.5Y-96.5
X92.6Y-77.7
X92.9Y-76.2
X92.9Y-79.2
X92.9Y-90.6
X92.9Y-94.1
X93.Y-72.7
X93.1Y-77.4
X93.1Y-78.6
X93.1Y-103.3
X93.1Y-105.
X93.2Y-80.
X93.218Y-31.496
X93.218Y-32.766
X93.218Y-34.036
X93.218Y-35.306
X93.218Y-36.576
X93.218Y-37.846
X93.218Y-39.116
X93.218Y-40.386
X93.218Y-42.926
X93.3Y-89.5
X93.3Y-94.5
X93.3Y-95.1
X93.7Y-72.7
X93.709Y-90.101
X93.793Y-97.607
X93.8Y-80.7
X94.Y-75.5
X94.1Y-74.4
X94.207Y-97.193
X94.293Y-90.101
X94.4Y-72.7
X94.4Y-81.2
X94.488Y-31.496
X94.488Y-32.766
X94.488Y-34.036
X94.488Y-35.306
X94.488Y-36.576
X94.488Y-37.846
X94.488Y-39.116
X94.488Y-40.386
X94.488Y-41.656
X94.488Y-42.926
X94.55Y-60.
X94.55Y-60.6
X94.7Y-89.5
X94.7Y-92.7
X94.742Y-96.266
X94.9Y-80.9
X95.1Y-90.1
X95.3Y-72.7
X95.408Y-80.9
X95.631Y-96.52
X95.7Y-89.2
X95.7Y-74.
X95.7Y-86.
X95.7Y-86.6
X95.7Y-87.2
X95.7Y-87.8
X95.7Y-88.6
X95.758Y-31.496
X95.758Y-32.766
X95.758Y-34.036
X95.758Y-35.306
X95.758Y-36.576
X95.758Y-37.846
X95.758Y-39.116
X95.758Y-40.386
X95.758Y-41.656
X95.758Y-42.926
X95.758Y-92.583
X96.Y-80.9
X96.1Y-73.6
X96.1Y-82.2
X96.1Y-88.2
X96.5Y-74.9
X96.5Y-80.9
X96.52Y-96.012
X96.774Y-88.646
X96.9Y-90.6
X96.901Y-91.567
X97.Y-85.3
X97.028Y-31.496
X97.028Y-32.766
X97.028Y-34.036
X97.028Y-35.306
X97.028Y-36.576
X97.028Y-37.846
X97.028Y-39.116
X97.028Y-40.386
X97.028Y-42.926
X97.4Y-74.6
X97.4Y-82.2
X97.4Y-94.6
X97.409Y-88.646
X97.409Y-93.091
X97.5Y-65.895
X97.5Y-86.1
X97.506Y-70.395
X97.6Y-85.3
X97.9Y-73.6
X98.1Y-65.895
X98.1Y-70.395
X98.1Y-82.3
X98.298Y-31.496
X98.298Y-32.766
X98.298Y-34.036
X98.298Y-35.306
X98.298Y-36.576
X98.298Y-37.846
X98.298Y-39.116
X98.298Y-40.386
X98.298Y-42.926
X98.298Y-43.561
X98.425Y-86.106
X98.425Y-88.646
X98.425Y-95.377
X98.552Y-45.593
X98.552Y-46.228
X98.6Y-64.7
X98.8Y-82.3
X98.9Y-74.4
X98.933Y-43.561
X98.933Y-96.52
X99.1Y-105.
X99.187Y-88.392
X99.3Y-76.
X99.3Y-77.2
X99.3Y-78.2
X99.4Y-63.8
X99.4Y-86.1
X99.441Y-96.52
X99.5Y-73.6
X99.568Y-31.496
X99.568Y-32.766
X99.568Y-34.036
X99.568Y-35.306
X99.568Y-36.576
X99.568Y-37.846
X99.568Y-39.116
X99.568Y-40.386
X99.568Y-41.656
X99.568Y-42.926
X99.6Y-49.9
X99.6Y-50.5
X99.6Y-51.5
X99.6Y-52.3
X99.6Y-76.7
X99.6Y-77.7
X99.6Y-78.7
X99.7Y-89.9
X99.822Y-88.392
X99.9Y-81.6
X100.2Y-77.9
X100.3Y-74.6
X100.4Y-73.6
X100.5Y-76.1
X100.584Y-88.392
X100.8Y-46.5
X100.838Y-31.496
X100.838Y-32.766
X100.838Y-34.036
X100.838Y-35.306
X100.838Y-36.576
X100.838Y-37.846
X100.838Y-39.116
X100.838Y-40.386
X100.838Y-41.656
X100.838Y-42.926
X100.965Y-95.377
X101.Y-72.1
X101.219Y-88.392
X101.3Y-90.
X101.319Y-46.708
X101.473Y-96.52
X101.9Y-90.
X101.981Y-94.615
X101.981Y-96.52
X102.1Y-53.7
X102.108Y-32.766
X102.108Y-34.036
X102.108Y-35.306
X102.108Y-37.846
X102.108Y-40.386
X102.108Y-42.926
X102.4Y-101.7
X102.6Y-88.7
X102.616Y-96.52
X102.616Y-97.79
X102.752Y-53.432
X103.124Y-89.408
X103.251Y-35.306
X103.3Y-40.4
X103.5Y-43.5
X103.632Y-90.805
X103.632Y-91.821
X103.65Y-92.837
X103.7Y-94.6
X103.7Y-101.4
X103.9Y-107.3
X104.013Y-91.313
X104.013Y-92.329
X104.2Y-83.7
X104.267Y-93.472
X104.6Y-84.5
X105.Y-84.9
X105.156Y-93.472
X105.2Y-71.3
X105.2Y-91.7
X105.2Y-92.6
X105.3Y-72.8
X105.3Y-74.3
X105.4Y-45.7
X105.4Y-84.1
X105.4Y-98.
X105.41Y-96.571
X105.41Y-97.231
X105.791Y-41.021
X105.8Y-83.3
X105.8Y-91.2
X105.9Y-107.3
X106.18Y-94.051
X106.18Y-94.711
X106.18Y-98.551
X106.18Y-99.211
X106.2Y-96.
X106.2Y-97.9
X106.3Y-100.1
X106.3Y-77.9
X106.6Y-93.4
X106.7Y-95.6
X106.7Y-95.6
X107.061Y-39.243
X107.315Y-105.029
X107.6Y-38.8
X108.4Y-100.9
X108.458Y-39.243
X109.22Y-39.243
X109.4Y-84.8
X109.4Y-102.1
X109.474Y-44.831
X109.5Y-90.393
X109.9Y-72.9
X109.982Y-39.243
X110.Y-100.9
X110.7Y-84.8
X111.379Y-42.291
X111.4Y-64.8
X111.633Y-95.631
X111.887Y-97.155
X111.9Y-106.7
X111.946Y-92.067
X112.1Y-66.2
X112.268Y-97.663
X112.3Y-84.2
X112.4Y-62.4
X112.606Y-92.067
X112.649Y-80.772
X113.5Y-83.4
X113.8Y-42.3
X113.872Y-94.742
X113.872Y-95.377
X113.919Y-92.202
X113.919Y-94.107
X113.919Y-96.012
X113.919Y-99.822
X113.919Y-101.727
X113.919Y-103.632
X114.4Y-63.2
X114.4Y-64.8
X114.7Y-59.7
X114.7Y-60.3
X114.7Y-61.7
X116.3Y-64.1
X116.586Y-80.645
X116.586Y-81.28
X116.713Y-88.392
X116.713Y-90.297
X116.713Y-90.932
X116.713Y-91.567
X116.713Y-92.202
X116.713Y-92.837
X116.713Y-93.472
X116.713Y-94.107
X116.713Y-94.742
X116.713Y-95.377
X116.713Y-96.012
X116.713Y-96.647
X116.713Y-97.282
X116.713Y-98.552
X116.713Y-99.187
X116.713Y-99.822
X116.713Y-100.457
X116.713Y-101.092
X116.713Y-101.727
X116.713Y-102.362
X116.713Y-102.997
X116.713Y-103.632
X116.713Y-104.267
X116.9Y-64.1
X120.269Y-88.392
X120.269Y-89.027
X120.269Y-89.662
X120.269Y-90.297
X120.269Y-90.932
X120.269Y-91.567
X120.269Y-92.202
X120.269Y-92.837
X120.269Y-93.472
X120.269Y-94.107
X120.269Y-94.742
X120.269Y-95.377
X120.269Y-96.012
X120.269Y-96.647
X120.269Y-97.282
X120.269Y-97.917
X120.269Y-98.552
X120.269Y-99.187
X120.269Y-99.822
X120.269Y-100.457
X120.269Y-101.092
X120.269Y-101.727
X120.269Y-102.362
X120.269Y-102.997
X120.269Y-103.632
X120.269Y-104.267
X122.047Y-80.645
X122.1Y-56.8
X122.7Y-59.3
X122.7Y-78.1
X122.7Y-79.1
X122.7Y-79.7
X123.189Y-94.108
X123.19Y-92.202
X123.19Y-96.012
X123.19Y-97.917
X123.19Y-99.822
X123.19Y-101.727
X123.19Y-103.632
X124.4Y-88.1
X124.8Y-52.8
X124.841Y-91.872
X124.841Y-92.532
X124.841Y-95.682
X124.841Y-96.342
X124.841Y-99.492
X124.841Y-100.152
X125.1Y-89.8
X125.1Y-90.4
X125.2Y-55.6
X125.2Y-57.2
X125.2Y-57.9
X125.2Y-58.7
X125.2Y-63.3
X125.2Y-65.1
X125.2Y-67.2
X125.3Y-56.4
X125.349Y-93.599
T2
X34.8Y-101.6
X34.8Y-102.9
X34.8Y-104.2
X34.8Y-106.7
X36.Y-47.5
X36.Y-56.
X39.Y-113.9
X39.5Y-68.8
X40.1Y-57.7
X41.2Y-109.6
X41.7Y-117.3
X42.1Y-70.3
X42.2Y-58.9
X42.4Y-111.4
X42.6Y-117.3
X43.1Y-110.7
X43.1Y-113.7
X43.1Y-118.7
X43.4Y-55.2
X43.6Y-60.7
X43.6Y-72.9
X44.2Y-100.1
X44.2Y-103.5
X44.4Y-117.1
X44.5Y-91.3
X44.6Y-49.5
X44.7Y-90.2
X44.7Y-98.2
X45.Y-94.7
X45.Y-100.1
X45.Y-103.5
X45.4Y-43.7
X46.2Y-87.6
X46.2Y-88.3
X46.6Y-43.7
X46.7Y-106.1
X46.9Y-87.6
X46.9Y-88.3
X47.Y-117.1
X47.6Y-87.6
X47.6Y-88.3
X48.2Y-54.5
X48.3Y-87.6
X48.3Y-88.3
X48.3Y-118.7
X48.8Y-117.3
X49.6Y-117.3
X50.3Y-79.5
X50.5Y-91.3
X50.5Y-93.6
X51.3Y-97.9
X52.578Y-34.036
X52.578Y-36.576
X52.578Y-39.116
X53.848Y-35.306
X53.848Y-37.846
X53.848Y-40.386
X54.3Y-117.3
X54.6Y-114.1
X55.118Y-39.116
X55.2Y-117.3
X55.7Y-118.7
X55.9Y-114.1
X56.3Y-111.5
X56.4Y-103.7
X57.Y-117.1
X57.658Y-39.116
X58.1Y-100.3
X59.6Y-117.1
X59.7Y-104.
X59.9Y-111.8
X60.9Y-118.7
X61.4Y-117.3
X62.1Y-113.5
X62.3Y-117.3
X63.7Y-113.5
X66.2Y-62.6
X66.2Y-114.2
X68.2Y-108.6
X69.2Y-108.6
X73.1Y-102.8
X73.1Y-104.
X73.2Y-71.6
X73.9Y-102.8
X73.9Y-104.
X74.2Y-71.6
X74.2Y-73.6
X77.2Y-71.6
X78.2Y-71.6
X78.2Y-73.6
X79.2Y-71.6
X86.2Y-100.9
X86.2Y-102.1
X87.Y-100.9
X87.Y-102.1
X97.79Y-89.998
X100.2Y-80.9
X101.981Y-93.091
X103.Y-69.1
X103.3Y-61.2
X104.Y-69.1
X104.1Y-77.7
X104.1Y-78.4
X104.1Y-79.1
X104.1Y-79.8
X104.8Y-77.7
X104.8Y-78.4
X104.8Y-79.1
X104.817Y-79.8
X105.3Y-66.8
X105.3Y-68.8
X105.8Y-90.4
X106.Y-61.3
X106.2Y-50.1
X106.4Y-60.7
X106.7Y-61.3
X107.1Y-60.7
X107.2Y-50.1
X107.4Y-61.3
X107.6Y-46.5
X108.Y-66.8
X108.Y-68.8
X108.1Y-61.3
X108.5Y-87.8
X108.8Y-61.3
X109.4Y-87.8
X109.5Y-46.5
X109.5Y-61.3
X110.6Y-51.1
X110.6Y-53.9
X111.3Y-51.1
X111.3Y-51.8
X111.3Y-52.5
X111.3Y-53.2
X111.3Y-53.9
X111.4Y-68.4
X111.4Y-69.1
X111.4Y-69.8
X111.4Y-70.5
X112.1Y-68.4
X112.1Y-69.1
X112.1Y-69.8
X112.1Y-70.5
X112.1Y-90.4
X112.2Y-59.8
X112.3Y-57.5
X112.5Y-48.1
X112.5Y-49.3
X113.1Y-87.8
X113.6Y-56.5
X113.7Y-106.7
X115.Y-40.4
X115.Y-52.
X116.205Y-74.93
X117.1Y-69.4
X117.1Y-70.1
X117.221Y-97.917
X117.8Y-69.4
X117.8Y-70.1
X117.8Y-86.3
X117.8Y-87.
X117.8Y-88.4
X117.8Y-90.3
X117.8Y-94.1
X117.8Y-96.
X117.8Y-99.8
X117.8Y-101.7
X117.8Y-102.4
X117.8Y-103.1
X117.8Y-104.5
X117.8Y-105.2
X117.8Y-105.9
X118.2Y-55.7
X118.5Y-69.4
X118.5Y-70.1
X118.5Y-86.3
X118.5Y-87.
X118.5Y-105.9
X118.7Y-64.2
X118.7Y-64.9
X119.Y-55.7
X119.2Y-88.4
X119.2Y-69.4
X119.2Y-70.1
X119.2Y-86.3
X119.2Y-87.
X119.2Y-90.3
X119.2Y-94.1
X119.2Y-96.
X119.2Y-97.9
X119.2Y-101.7
X119.2Y-102.4
X119.2Y-104.5
X119.2Y-105.2
X119.2Y-99.8
X119.2Y-103.1
X119.2Y-105.9
X119.4Y-41.8
X119.4Y-42.5
X119.5Y-48.5
X120.7Y-82.6
X122.2Y-44.2
X122.2Y-44.9
X122.2Y-45.6
X122.2Y-46.3
X122.5Y-82.6
X122.8Y-60.678
X122.8Y-61.7
X122.9Y-44.2
X122.9Y-44.9
X122.9Y-45.6
X122.9Y-46.3
X123.2Y-40.4
X123.2Y-52.
X123.5Y-72.4
X123.5Y-73.1
X123.5Y-76.1
X124.587Y-94.742
X124.7Y-72.4
X124.7Y-73.1
X124.7Y-76.1
X125.3Y-59.5
X125.3Y-62.5
T3
X118.42Y-75.257
X118.42Y-76.037
X118.42Y-76.817
X118.42Y-77.597
X118.42Y-78.377
X118.42Y-79.157
X118.42Y-79.937
X119.5Y-75.257
X119.5Y-76.037
X119.5Y-76.817
X119.5Y-77.597
X119.5Y-78.377
X119.5Y-79.157
X119.5Y-79.937
X120.58Y-75.257
X120.58Y-76.037
X120.58Y-76.817
X120.58Y-77.597
X120.58Y-78.377
X120.58Y-79.157
X120.58Y-79.937
X97.3Y-71.2
X97.3Y-72.2
X98.3Y-71.2
X98.3Y-72.2
X57.925Y-102.7
X58.675Y-102.7
X108.72Y-92.506
X108.72Y-93.756
X108.72Y-95.006
X108.72Y-96.256
X108.72Y-97.506
X108.72Y-98.756
X109.72Y-92.506
X109.72Y-93.756
X109.72Y-95.006
X109.72Y-96.256
X109.72Y-97.506
X109.72Y-98.756
X97.3Y-66.7
X97.3Y-67.7
X98.3Y-66.7
X98.3Y-67.7
X106.3Y-73.5
X106.3Y-74.5
X107.3Y-73.5
X107.3Y-74.5
X107.785Y-41.237
X107.785Y-42.037
X107.785Y-42.837
X108.585Y-41.237
X108.585Y-42.037
X108.585Y-42.837
X109.385Y-41.237
X109.385Y-42.037
X109.385Y-42.837
T4
X102.6Y-81.1
X104.5Y-81.1
X49.05Y-110.25
X49.05Y-111.5
X49.05Y-112.75
X50.3Y-110.25
X50.3Y-111.5
X50.3Y-112.75
X51.55Y-110.25
X51.55Y-111.5
X51.55Y-112.75
X107.2Y-80.2
X107.2Y-81.8
X107.2Y-83.4
X108.8Y-80.2
X108.8Y-81.8
X108.8Y-83.4
X110.4Y-80.2
X110.4Y-81.8
X110.4Y-83.4
X116.769Y-58.069
X116.769Y-59.356
X116.769Y-60.644
X116.769Y-61.931
X118.056Y-58.069
X118.056Y-59.356
X118.056Y-60.644
X118.056Y-61.931
X119.344Y-58.069
X119.344Y-59.356
X119.344Y-60.644
X119.344Y-61.931
X120.631Y-58.069
X120.631Y-59.356
X120.631Y-60.644
X120.631Y-61.931
X98.945Y-91.833
X98.945Y-93.333
X100.445Y-91.833
X100.445Y-93.333
X95.4Y-77.1
X95.4Y-78.7
X97.Y-77.1
X97.Y-78.7
T6
X89.723Y-108.346
X90.993Y-107.326
X91.661Y-100.596
X92.263Y-108.346
X92.677Y-99.326
X93.693Y-100.596
X94.709Y-99.326
X95.725Y-100.596
X96.741Y-99.326
X97.757Y-100.596
X98.773Y-99.326
X99.789Y-100.596
X100.203Y-108.346
X100.805Y-99.326
X101.473Y-107.326
X102.743Y-108.346
T7
X41.656Y-42.291
X41.656Y-44.831
X41.656Y-50.8
X41.656Y-53.34
X31.6Y-102.06
X31.6Y-104.6
X31.6Y-107.14
X52.Y-116.1
X52.Y-118.64
T8
X32.719Y-60.365
X32.719Y-62.865
X32.719Y-65.365
X32.719Y-67.865
X32.719Y-70.365
X32.719Y-72.865
X32.719Y-75.365
X32.719Y-77.865
X37.719Y-60.365
X37.719Y-62.865
X37.719Y-65.365
X37.719Y-67.865
X37.719Y-70.365
X37.719Y-72.865
X37.719Y-75.365
X37.719Y-77.865
X32.719Y-43.347
X32.719Y-45.847
X32.719Y-48.347
X37.719Y-43.347
X37.719Y-45.847
X37.719Y-48.347
X32.719Y-81.32
X32.719Y-83.82
X32.719Y-86.32
X32.719Y-88.82
X32.719Y-91.32
X32.719Y-93.82
X32.719Y-96.32
X32.719Y-98.82
X37.719Y-81.32
X37.719Y-83.82
X37.719Y-86.32
X37.719Y-88.82
X37.719Y-91.32
X37.719Y-93.82
X37.719Y-96.32
X37.719Y-98.82
X32.719Y-51.856
X32.719Y-54.356
X32.719Y-56.856
X37.719Y-51.856
X37.719Y-54.356
X37.719Y-56.856
T9
X66.9Y-117.65
X67.5Y-112.7
X82.Y-112.7
X82.6Y-117.65
T10
X112.522Y-110.998
T11
X46.454Y-34.617
X109.456Y-34.617
T12
X120.81Y-115.09
X35.08Y-111.28
X120.81Y-35.08
X35.08Y-37.62
T5
X107.772Y-113.398G85X107.772Y-112.198
G05
X107.772Y-118.098G85X107.772Y-116.898
G05
X113.622Y-116.998G85X111.422Y-116.998
G05
X117.272Y-113.398G85X117.272Y-112.198
G05
X117.272Y-118.098G85X117.272Y-116.898
G05
T7
X86.148Y-115.856G85X86.148Y-116.456
G05
X106.318Y-115.856G85X106.318Y-116.456
G05
T0
M30
