G04 #@! TF.GenerationSoftware,KiCad,Pcbnew,5.0.2+dfsg1-1~bpo9+1*
G04 #@! TF.CreationDate,2019-03-29T14:07:49-03:00*
G04 #@! TF.ProjectId,ciaa_acc,63696161-5f61-4636-932e-6b696361645f,V1.1F*
G04 #@! TF.SameCoordinates,Original*
G04 #@! TF.FileFunction,Profile,NP*
%FSLAX46Y46*%
G04 Gerber Fmt 4.6, Leading zero omitted, Abs format (unit mm)*
G04 Created by KiCad (PCBNEW 5.0.2+dfsg1-1~bpo9+1) date Fri 29 Mar 2019 02:07:49 PM -03*
%MOMM*%
%LPD*%
G01*
G04 APERTURE LIST*
%ADD10C,0.101600*%
%ADD11C,0.150000*%
%ADD12C,0.300000*%
%ADD13C,0.400000*%
G04 APERTURE END LIST*
D10*
D11*
X177002200Y-166007200D02*
X177002200Y-198007200D01*
X285002200Y-198007200D01*
X285002200Y-166007200D01*
X177002200Y-166007200D01*
D10*
D11*
X10000000Y-10000000D02*
X10000000Y-200007200D01*
X287002200Y-200007200D01*
X287002200Y-10000000D01*
X10000000Y-10000000D01*
D10*
D11*
X12000000Y-12000000D02*
X12000000Y-198007200D01*
X285002200Y-198007200D01*
X285002200Y-12000000D01*
X12000000Y-12000000D01*
D10*
D11*
X60000000Y-12000000D02*
X60000000Y-10000000D01*
D10*
D11*
X110000000Y-12000000D02*
X110000000Y-10000000D01*
D10*
D11*
X160000000Y-12000000D02*
X160000000Y-10000000D01*
D10*
D11*
X210000000Y-12000000D02*
X210000000Y-10000000D01*
D10*
D11*
X260000000Y-12000000D02*
X260000000Y-10000000D01*
D10*
D11*
X36065476Y-11588095D02*
X35322619Y-11588095D01*
X35694047Y-11588095D02*
X35694047Y-10288095D01*
X35570238Y-10473809D01*
X35446428Y-10597619D01*
X35322619Y-10659523D01*
D10*
D11*
X85322619Y-10411904D02*
X85384523Y-10350000D01*
X85508333Y-10288095D01*
X85817857Y-10288095D01*
X85941666Y-10350000D01*
X86003571Y-10411904D01*
X86065476Y-10535714D01*
X86065476Y-10659523D01*
X86003571Y-10845238D01*
X85260714Y-11588095D01*
X86065476Y-11588095D01*
D10*
D11*
X135260714Y-10288095D02*
X136065476Y-10288095D01*
X135632142Y-10783333D01*
X135817857Y-10783333D01*
X135941666Y-10845238D01*
X136003571Y-10907142D01*
X136065476Y-11030952D01*
X136065476Y-11340476D01*
X136003571Y-11464285D01*
X135941666Y-11526190D01*
X135817857Y-11588095D01*
X135446428Y-11588095D01*
X135322619Y-11526190D01*
X135260714Y-11464285D01*
D10*
D11*
X185941666Y-10721428D02*
X185941666Y-11588095D01*
X185632142Y-10226190D02*
X185322619Y-11154761D01*
X186127380Y-11154761D01*
D10*
D11*
X236003571Y-10288095D02*
X235384523Y-10288095D01*
X235322619Y-10907142D01*
X235384523Y-10845238D01*
X235508333Y-10783333D01*
X235817857Y-10783333D01*
X235941666Y-10845238D01*
X236003571Y-10907142D01*
X236065476Y-11030952D01*
X236065476Y-11340476D01*
X236003571Y-11464285D01*
X235941666Y-11526190D01*
X235817857Y-11588095D01*
X235508333Y-11588095D01*
X235384523Y-11526190D01*
X235322619Y-11464285D01*
D10*
D11*
X285941666Y-10288095D02*
X285694047Y-10288095D01*
X285570238Y-10350000D01*
X285508333Y-10411904D01*
X285384523Y-10597619D01*
X285322619Y-10845238D01*
X285322619Y-11340476D01*
X285384523Y-11464285D01*
X285446428Y-11526190D01*
X285570238Y-11588095D01*
X285817857Y-11588095D01*
X285941666Y-11526190D01*
X286003571Y-11464285D01*
X286065476Y-11340476D01*
X286065476Y-11030952D01*
X286003571Y-10907142D01*
X285941666Y-10845238D01*
X285817857Y-10783333D01*
X285570238Y-10783333D01*
X285446428Y-10845238D01*
X285384523Y-10907142D01*
X285322619Y-11030952D01*
D10*
D11*
X60000000Y-198007200D02*
X60000000Y-200007200D01*
D10*
D11*
X110000000Y-198007200D02*
X110000000Y-200007200D01*
D10*
D11*
X160000000Y-198007200D02*
X160000000Y-200007200D01*
D10*
D11*
X210000000Y-198007200D02*
X210000000Y-200007200D01*
D10*
D11*
X260000000Y-198007200D02*
X260000000Y-200007200D01*
D10*
D11*
X36065476Y-199595295D02*
X35322619Y-199595295D01*
X35694047Y-199595295D02*
X35694047Y-198295295D01*
X35570238Y-198481009D01*
X35446428Y-198604819D01*
X35322619Y-198666723D01*
D10*
D11*
X85322619Y-198419104D02*
X85384523Y-198357200D01*
X85508333Y-198295295D01*
X85817857Y-198295295D01*
X85941666Y-198357200D01*
X86003571Y-198419104D01*
X86065476Y-198542914D01*
X86065476Y-198666723D01*
X86003571Y-198852438D01*
X85260714Y-199595295D01*
X86065476Y-199595295D01*
D10*
D11*
X135260714Y-198295295D02*
X136065476Y-198295295D01*
X135632142Y-198790533D01*
X135817857Y-198790533D01*
X135941666Y-198852438D01*
X136003571Y-198914342D01*
X136065476Y-199038152D01*
X136065476Y-199347676D01*
X136003571Y-199471485D01*
X135941666Y-199533390D01*
X135817857Y-199595295D01*
X135446428Y-199595295D01*
X135322619Y-199533390D01*
X135260714Y-199471485D01*
D10*
D11*
X185941666Y-198728628D02*
X185941666Y-199595295D01*
X185632142Y-198233390D02*
X185322619Y-199161961D01*
X186127380Y-199161961D01*
D10*
D11*
X236003571Y-198295295D02*
X235384523Y-198295295D01*
X235322619Y-198914342D01*
X235384523Y-198852438D01*
X235508333Y-198790533D01*
X235817857Y-198790533D01*
X235941666Y-198852438D01*
X236003571Y-198914342D01*
X236065476Y-199038152D01*
X236065476Y-199347676D01*
X236003571Y-199471485D01*
X235941666Y-199533390D01*
X235817857Y-199595295D01*
X235508333Y-199595295D01*
X235384523Y-199533390D01*
X235322619Y-199471485D01*
D10*
D11*
X285941666Y-198295295D02*
X285694047Y-198295295D01*
X285570238Y-198357200D01*
X285508333Y-198419104D01*
X285384523Y-198604819D01*
X285322619Y-198852438D01*
X285322619Y-199347676D01*
X285384523Y-199471485D01*
X285446428Y-199533390D01*
X285570238Y-199595295D01*
X285817857Y-199595295D01*
X285941666Y-199533390D01*
X286003571Y-199471485D01*
X286065476Y-199347676D01*
X286065476Y-199038152D01*
X286003571Y-198914342D01*
X285941666Y-198852438D01*
X285817857Y-198790533D01*
X285570238Y-198790533D01*
X285446428Y-198852438D01*
X285384523Y-198914342D01*
X285322619Y-199038152D01*
D10*
D11*
X10000000Y-60000000D02*
X12000000Y-60000000D01*
D10*
D11*
X10000000Y-110000000D02*
X12000000Y-110000000D01*
D10*
D11*
X10000000Y-160000000D02*
X12000000Y-160000000D01*
D10*
D11*
X10690476Y-35216666D02*
X11309523Y-35216666D01*
X10566666Y-35588095D02*
X11000000Y-34288095D01*
X11433333Y-35588095D01*
D10*
D11*
X11092857Y-84907142D02*
X11278571Y-84969047D01*
X11340476Y-85030952D01*
X11402380Y-85154761D01*
X11402380Y-85340476D01*
X11340476Y-85464285D01*
X11278571Y-85526190D01*
X11154761Y-85588095D01*
X10659523Y-85588095D01*
X10659523Y-84288095D01*
X11092857Y-84288095D01*
X11216666Y-84350000D01*
X11278571Y-84411904D01*
X11340476Y-84535714D01*
X11340476Y-84659523D01*
X11278571Y-84783333D01*
X11216666Y-84845238D01*
X11092857Y-84907142D01*
X10659523Y-84907142D01*
D10*
D11*
X11402380Y-135464285D02*
X11340476Y-135526190D01*
X11154761Y-135588095D01*
X11030952Y-135588095D01*
X10845238Y-135526190D01*
X10721428Y-135402380D01*
X10659523Y-135278571D01*
X10597619Y-135030952D01*
X10597619Y-134845238D01*
X10659523Y-134597619D01*
X10721428Y-134473809D01*
X10845238Y-134350000D01*
X11030952Y-134288095D01*
X11154761Y-134288095D01*
X11340476Y-134350000D01*
X11402380Y-134411904D01*
D10*
D11*
X10659523Y-185588095D02*
X10659523Y-184288095D01*
X10969047Y-184288095D01*
X11154761Y-184350000D01*
X11278571Y-184473809D01*
X11340476Y-184597619D01*
X11402380Y-184845238D01*
X11402380Y-185030952D01*
X11340476Y-185278571D01*
X11278571Y-185402380D01*
X11154761Y-185526190D01*
X10969047Y-185588095D01*
X10659523Y-185588095D01*
D10*
D11*
X287002200Y-60000000D02*
X285002200Y-60000000D01*
D10*
D11*
X287002200Y-110000000D02*
X285002200Y-110000000D01*
D10*
D11*
X287002200Y-160000000D02*
X285002200Y-160000000D01*
D10*
D11*
X285692676Y-35216666D02*
X286311723Y-35216666D01*
X285568866Y-35588095D02*
X286002200Y-34288095D01*
X286435533Y-35588095D01*
D10*
D11*
X286095057Y-84907142D02*
X286280771Y-84969047D01*
X286342676Y-85030952D01*
X286404580Y-85154761D01*
X286404580Y-85340476D01*
X286342676Y-85464285D01*
X286280771Y-85526190D01*
X286156961Y-85588095D01*
X285661723Y-85588095D01*
X285661723Y-84288095D01*
X286095057Y-84288095D01*
X286218866Y-84350000D01*
X286280771Y-84411904D01*
X286342676Y-84535714D01*
X286342676Y-84659523D01*
X286280771Y-84783333D01*
X286218866Y-84845238D01*
X286095057Y-84907142D01*
X285661723Y-84907142D01*
D10*
D11*
X286404580Y-135464285D02*
X286342676Y-135526190D01*
X286156961Y-135588095D01*
X286033152Y-135588095D01*
X285847438Y-135526190D01*
X285723628Y-135402380D01*
X285661723Y-135278571D01*
X285599819Y-135030952D01*
X285599819Y-134845238D01*
X285661723Y-134597619D01*
X285723628Y-134473809D01*
X285847438Y-134350000D01*
X286033152Y-134288095D01*
X286156961Y-134288095D01*
X286342676Y-134350000D01*
X286404580Y-134411904D01*
D10*
D11*
X285661723Y-185588095D02*
X285661723Y-184288095D01*
X285971247Y-184288095D01*
X286156961Y-184350000D01*
X286280771Y-184473809D01*
X286342676Y-184597619D01*
X286404580Y-184845238D01*
X286404580Y-185030952D01*
X286342676Y-185278571D01*
X286280771Y-185402380D01*
X286156961Y-185526190D01*
X285971247Y-185588095D01*
X285661723Y-185588095D01*
D10*
D11*
X200434342Y-193785771D02*
X200434342Y-192285771D01*
X200791485Y-192285771D01*
X201005771Y-192357200D01*
X201148628Y-192500057D01*
X201220057Y-192642914D01*
X201291485Y-192928628D01*
X201291485Y-193142914D01*
X201220057Y-193428628D01*
X201148628Y-193571485D01*
X201005771Y-193714342D01*
X200791485Y-193785771D01*
X200434342Y-193785771D01*
X202577200Y-193785771D02*
X202577200Y-193000057D01*
X202505771Y-192857200D01*
X202362914Y-192785771D01*
X202077200Y-192785771D01*
X201934342Y-192857200D01*
X202577200Y-193714342D02*
X202434342Y-193785771D01*
X202077200Y-193785771D01*
X201934342Y-193714342D01*
X201862914Y-193571485D01*
X201862914Y-193428628D01*
X201934342Y-193285771D01*
X202077200Y-193214342D01*
X202434342Y-193214342D01*
X202577200Y-193142914D01*
X203077200Y-192785771D02*
X203648628Y-192785771D01*
X203291485Y-192285771D02*
X203291485Y-193571485D01*
X203362914Y-193714342D01*
X203505771Y-193785771D01*
X203648628Y-193785771D01*
X204720057Y-193714342D02*
X204577200Y-193785771D01*
X204291485Y-193785771D01*
X204148628Y-193714342D01*
X204077200Y-193571485D01*
X204077200Y-193000057D01*
X204148628Y-192857200D01*
X204291485Y-192785771D01*
X204577200Y-192785771D01*
X204720057Y-192857200D01*
X204791485Y-193000057D01*
X204791485Y-193142914D01*
X204077200Y-193285771D01*
X205434342Y-193642914D02*
X205505771Y-193714342D01*
X205434342Y-193785771D01*
X205362914Y-193714342D01*
X205434342Y-193642914D01*
X205434342Y-193785771D01*
X205434342Y-192857200D02*
X205505771Y-192928628D01*
X205434342Y-193000057D01*
X205362914Y-192928628D01*
X205434342Y-192857200D01*
X205434342Y-193000057D01*
X207220057Y-192428628D02*
X207291485Y-192357200D01*
X207434342Y-192285771D01*
X207791485Y-192285771D01*
X207934342Y-192357200D01*
X208005771Y-192428628D01*
X208077200Y-192571485D01*
X208077200Y-192714342D01*
X208005771Y-192928628D01*
X207148628Y-193785771D01*
X208077200Y-193785771D01*
X209005771Y-192285771D02*
X209148628Y-192285771D01*
X209291485Y-192357200D01*
X209362914Y-192428628D01*
X209434342Y-192571485D01*
X209505771Y-192857200D01*
X209505771Y-193214342D01*
X209434342Y-193500057D01*
X209362914Y-193642914D01*
X209291485Y-193714342D01*
X209148628Y-193785771D01*
X209005771Y-193785771D01*
X208862914Y-193714342D01*
X208791485Y-193642914D01*
X208720057Y-193500057D01*
X208648628Y-193214342D01*
X208648628Y-192857200D01*
X208720057Y-192571485D01*
X208791485Y-192428628D01*
X208862914Y-192357200D01*
X209005771Y-192285771D01*
X210934342Y-193785771D02*
X210077200Y-193785771D01*
X210505771Y-193785771D02*
X210505771Y-192285771D01*
X210362914Y-192500057D01*
X210220057Y-192642914D01*
X210077200Y-192714342D01*
X211648628Y-193785771D02*
X211934342Y-193785771D01*
X212077200Y-193714342D01*
X212148628Y-193642914D01*
X212291485Y-193428628D01*
X212362914Y-193142914D01*
X212362914Y-192571485D01*
X212291485Y-192428628D01*
X212220057Y-192357200D01*
X212077200Y-192285771D01*
X211791485Y-192285771D01*
X211648628Y-192357200D01*
X211577200Y-192428628D01*
X211505771Y-192571485D01*
X211505771Y-192928628D01*
X211577200Y-193071485D01*
X211648628Y-193142914D01*
X211791485Y-193214342D01*
X212077200Y-193214342D01*
X212220057Y-193142914D01*
X212291485Y-193071485D01*
X212362914Y-192928628D01*
X213005771Y-193214342D02*
X214148628Y-193214342D01*
X215148628Y-192285771D02*
X215291485Y-192285771D01*
X215434342Y-192357200D01*
X215505771Y-192428628D01*
X215577200Y-192571485D01*
X215648628Y-192857200D01*
X215648628Y-193214342D01*
X215577200Y-193500057D01*
X215505771Y-193642914D01*
X215434342Y-193714342D01*
X215291485Y-193785771D01*
X215148628Y-193785771D01*
X215005771Y-193714342D01*
X214934342Y-193642914D01*
X214862914Y-193500057D01*
X214791485Y-193214342D01*
X214791485Y-192857200D01*
X214862914Y-192571485D01*
X214934342Y-192428628D01*
X215005771Y-192357200D01*
X215148628Y-192285771D01*
X216148628Y-192285771D02*
X217077200Y-192285771D01*
X216577200Y-192857200D01*
X216791485Y-192857200D01*
X216934342Y-192928628D01*
X217005771Y-193000057D01*
X217077200Y-193142914D01*
X217077200Y-193500057D01*
X217005771Y-193642914D01*
X216934342Y-193714342D01*
X216791485Y-193785771D01*
X216362914Y-193785771D01*
X216220057Y-193714342D01*
X216148628Y-193642914D01*
X217720057Y-193214342D02*
X218862914Y-193214342D01*
X219505771Y-192428628D02*
X219577200Y-192357200D01*
X219720057Y-192285771D01*
X220077200Y-192285771D01*
X220220057Y-192357200D01*
X220291485Y-192428628D01*
X220362914Y-192571485D01*
X220362914Y-192714342D01*
X220291485Y-192928628D01*
X219434342Y-193785771D01*
X220362914Y-193785771D01*
X221077200Y-193785771D02*
X221362914Y-193785771D01*
X221505771Y-193714342D01*
X221577200Y-193642914D01*
X221720057Y-193428628D01*
X221791485Y-193142914D01*
X221791485Y-192571485D01*
X221720057Y-192428628D01*
X221648628Y-192357200D01*
X221505771Y-192285771D01*
X221220057Y-192285771D01*
X221077200Y-192357200D01*
X221005771Y-192428628D01*
X220934342Y-192571485D01*
X220934342Y-192928628D01*
X221005771Y-193071485D01*
X221077200Y-193142914D01*
X221220057Y-193214342D01*
X221505771Y-193214342D01*
X221648628Y-193142914D01*
X221720057Y-193071485D01*
X221791485Y-192928628D01*
D10*
D11*
X177002200Y-194507200D02*
X285002200Y-194507200D01*
D10*
D11*
X178434342Y-196585771D02*
X178434342Y-195085771D01*
X179291485Y-196585771D02*
X178648628Y-195728628D01*
X179291485Y-195085771D02*
X178434342Y-195942914D01*
X179934342Y-196585771D02*
X179934342Y-195585771D01*
X179934342Y-195085771D02*
X179862914Y-195157200D01*
X179934342Y-195228628D01*
X180005771Y-195157200D01*
X179934342Y-195085771D01*
X179934342Y-195228628D01*
X181505771Y-196442914D02*
X181434342Y-196514342D01*
X181220057Y-196585771D01*
X181077200Y-196585771D01*
X180862914Y-196514342D01*
X180720057Y-196371485D01*
X180648628Y-196228628D01*
X180577200Y-195942914D01*
X180577200Y-195728628D01*
X180648628Y-195442914D01*
X180720057Y-195300057D01*
X180862914Y-195157200D01*
X181077200Y-195085771D01*
X181220057Y-195085771D01*
X181434342Y-195157200D01*
X181505771Y-195228628D01*
X182791485Y-196585771D02*
X182791485Y-195800057D01*
X182720057Y-195657200D01*
X182577200Y-195585771D01*
X182291485Y-195585771D01*
X182148628Y-195657200D01*
X182791485Y-196514342D02*
X182648628Y-196585771D01*
X182291485Y-196585771D01*
X182148628Y-196514342D01*
X182077200Y-196371485D01*
X182077200Y-196228628D01*
X182148628Y-196085771D01*
X182291485Y-196014342D01*
X182648628Y-196014342D01*
X182791485Y-195942914D01*
X184148628Y-196585771D02*
X184148628Y-195085771D01*
X184148628Y-196514342D02*
X184005771Y-196585771D01*
X183720057Y-196585771D01*
X183577200Y-196514342D01*
X183505771Y-196442914D01*
X183434342Y-196300057D01*
X183434342Y-195871485D01*
X183505771Y-195728628D01*
X183577200Y-195657200D01*
X183720057Y-195585771D01*
X184005771Y-195585771D01*
X184148628Y-195657200D01*
X186005771Y-195800057D02*
X186505771Y-195800057D01*
X186720057Y-196585771D02*
X186005771Y-196585771D01*
X186005771Y-195085771D01*
X186720057Y-195085771D01*
X187362914Y-196442914D02*
X187434342Y-196514342D01*
X187362914Y-196585771D01*
X187291485Y-196514342D01*
X187362914Y-196442914D01*
X187362914Y-196585771D01*
X188077200Y-196585771D02*
X188077200Y-195085771D01*
X188434342Y-195085771D01*
X188648628Y-195157200D01*
X188791485Y-195300057D01*
X188862914Y-195442914D01*
X188934342Y-195728628D01*
X188934342Y-195942914D01*
X188862914Y-196228628D01*
X188791485Y-196371485D01*
X188648628Y-196514342D01*
X188434342Y-196585771D01*
X188077200Y-196585771D01*
X189577200Y-196442914D02*
X189648628Y-196514342D01*
X189577200Y-196585771D01*
X189505771Y-196514342D01*
X189577200Y-196442914D01*
X189577200Y-196585771D01*
X190220057Y-196157200D02*
X190934342Y-196157200D01*
X190077200Y-196585771D02*
X190577200Y-195085771D01*
X191077200Y-196585771D01*
X191577200Y-196442914D02*
X191648628Y-196514342D01*
X191577200Y-196585771D01*
X191505771Y-196514342D01*
X191577200Y-196442914D01*
X191577200Y-196585771D01*
X194577200Y-196585771D02*
X194577200Y-195085771D01*
X194720057Y-196014342D02*
X195148628Y-196585771D01*
X195148628Y-195585771D02*
X194577200Y-196157200D01*
X195791485Y-196585771D02*
X195791485Y-195585771D01*
X195791485Y-195085771D02*
X195720057Y-195157200D01*
X195791485Y-195228628D01*
X195862914Y-195157200D01*
X195791485Y-195085771D01*
X195791485Y-195228628D01*
X197148628Y-196514342D02*
X197005771Y-196585771D01*
X196720057Y-196585771D01*
X196577200Y-196514342D01*
X196505771Y-196442914D01*
X196434342Y-196300057D01*
X196434342Y-195871485D01*
X196505771Y-195728628D01*
X196577200Y-195657200D01*
X196720057Y-195585771D01*
X197005771Y-195585771D01*
X197148628Y-195657200D01*
X198434342Y-196585771D02*
X198434342Y-195800057D01*
X198362914Y-195657200D01*
X198220057Y-195585771D01*
X197934342Y-195585771D01*
X197791485Y-195657200D01*
X198434342Y-196514342D02*
X198291485Y-196585771D01*
X197934342Y-196585771D01*
X197791485Y-196514342D01*
X197720057Y-196371485D01*
X197720057Y-196228628D01*
X197791485Y-196085771D01*
X197934342Y-196014342D01*
X198291485Y-196014342D01*
X198434342Y-195942914D01*
X199791485Y-196585771D02*
X199791485Y-195085771D01*
X199791485Y-196514342D02*
X199648628Y-196585771D01*
X199362914Y-196585771D01*
X199220057Y-196514342D01*
X199148628Y-196442914D01*
X199077200Y-196300057D01*
X199077200Y-195871485D01*
X199148628Y-195728628D01*
X199220057Y-195657200D01*
X199362914Y-195585771D01*
X199648628Y-195585771D01*
X199791485Y-195657200D01*
X202362914Y-195085771D02*
X201648628Y-195085771D01*
X201577200Y-195800057D01*
X201648628Y-195728628D01*
X201791485Y-195657200D01*
X202148628Y-195657200D01*
X202291485Y-195728628D01*
X202362914Y-195800057D01*
X202434342Y-195942914D01*
X202434342Y-196300057D01*
X202362914Y-196442914D01*
X202291485Y-196514342D01*
X202148628Y-196585771D01*
X201791485Y-196585771D01*
X201648628Y-196514342D01*
X201577200Y-196442914D01*
X203077200Y-196442914D02*
X203148628Y-196514342D01*
X203077200Y-196585771D01*
X203005771Y-196514342D01*
X203077200Y-196442914D01*
X203077200Y-196585771D01*
X204077200Y-195085771D02*
X204220057Y-195085771D01*
X204362914Y-195157200D01*
X204434342Y-195228628D01*
X204505771Y-195371485D01*
X204577200Y-195657200D01*
X204577200Y-196014342D01*
X204505771Y-196300057D01*
X204434342Y-196442914D01*
X204362914Y-196514342D01*
X204220057Y-196585771D01*
X204077200Y-196585771D01*
X203934342Y-196514342D01*
X203862914Y-196442914D01*
X203791485Y-196300057D01*
X203720057Y-196014342D01*
X203720057Y-195657200D01*
X203791485Y-195371485D01*
X203862914Y-195228628D01*
X203934342Y-195157200D01*
X204077200Y-195085771D01*
X205220057Y-196442914D02*
X205291485Y-196514342D01*
X205220057Y-196585771D01*
X205148628Y-196514342D01*
X205220057Y-196442914D01*
X205220057Y-196585771D01*
X205862914Y-195228628D02*
X205934342Y-195157200D01*
X206077200Y-195085771D01*
X206434342Y-195085771D01*
X206577200Y-195157200D01*
X206648628Y-195228628D01*
X206720057Y-195371485D01*
X206720057Y-195514342D01*
X206648628Y-195728628D01*
X205791485Y-196585771D01*
X206720057Y-196585771D01*
X207362914Y-196014342D02*
X208505771Y-196014342D01*
X207934342Y-196585771D02*
X207934342Y-195442914D01*
X209862914Y-196585771D02*
X209862914Y-195085771D01*
X209862914Y-196514342D02*
X209720057Y-196585771D01*
X209434342Y-196585771D01*
X209291485Y-196514342D01*
X209220057Y-196442914D01*
X209148628Y-196300057D01*
X209148628Y-195871485D01*
X209220057Y-195728628D01*
X209291485Y-195657200D01*
X209434342Y-195585771D01*
X209720057Y-195585771D01*
X209862914Y-195657200D01*
X210362914Y-195585771D02*
X210934342Y-195585771D01*
X210577200Y-196585771D02*
X210577200Y-195300057D01*
X210648628Y-195157200D01*
X210791485Y-195085771D01*
X210934342Y-195085771D01*
X211362914Y-196514342D02*
X211505771Y-196585771D01*
X211791485Y-196585771D01*
X211934342Y-196514342D01*
X212005771Y-196371485D01*
X212005771Y-196300057D01*
X211934342Y-196157200D01*
X211791485Y-196085771D01*
X211577200Y-196085771D01*
X211434342Y-196014342D01*
X211362914Y-195871485D01*
X211362914Y-195800057D01*
X211434342Y-195657200D01*
X211577200Y-195585771D01*
X211791485Y-195585771D01*
X211934342Y-195657200D01*
X213291485Y-195585771D02*
X213291485Y-196800057D01*
X213220057Y-196942914D01*
X213148628Y-197014342D01*
X213005771Y-197085771D01*
X212791485Y-197085771D01*
X212648628Y-197014342D01*
X213291485Y-196514342D02*
X213148628Y-196585771D01*
X212862914Y-196585771D01*
X212720057Y-196514342D01*
X212648628Y-196442914D01*
X212577200Y-196300057D01*
X212577200Y-195871485D01*
X212648628Y-195728628D01*
X212720057Y-195657200D01*
X212862914Y-195585771D01*
X213148628Y-195585771D01*
X213291485Y-195657200D01*
X214791485Y-196585771D02*
X213934342Y-196585771D01*
X214362914Y-196585771D02*
X214362914Y-195085771D01*
X214220057Y-195300057D01*
X214077200Y-195442914D01*
X213934342Y-195514342D01*
X215434342Y-196014342D02*
X216577200Y-196014342D01*
X218077200Y-196585771D02*
X217220057Y-196585771D01*
X217648628Y-196585771D02*
X217648628Y-195085771D01*
X217505771Y-195300057D01*
X217362914Y-195442914D01*
X217220057Y-195514342D01*
X218362914Y-194677200D02*
X219720057Y-194677200D01*
X218720057Y-196585771D02*
X218720057Y-195085771D01*
X218720057Y-195657200D02*
X218862914Y-195585771D01*
X219148628Y-195585771D01*
X219291485Y-195657200D01*
X219362914Y-195728628D01*
X219434342Y-195871485D01*
X219434342Y-196300057D01*
X219362914Y-196442914D01*
X219291485Y-196514342D01*
X219148628Y-196585771D01*
X218862914Y-196585771D01*
X218720057Y-196514342D01*
X219720057Y-194677200D02*
X221077200Y-194677200D01*
X220077200Y-195585771D02*
X220077200Y-197085771D01*
X220077200Y-195657200D02*
X220220057Y-195585771D01*
X220505771Y-195585771D01*
X220648628Y-195657200D01*
X220720057Y-195728628D01*
X220791485Y-195871485D01*
X220791485Y-196300057D01*
X220720057Y-196442914D01*
X220648628Y-196514342D01*
X220505771Y-196585771D01*
X220220057Y-196585771D01*
X220077200Y-196514342D01*
X221077200Y-194677200D02*
X222434342Y-194677200D01*
X221648628Y-196585771D02*
X221505771Y-196514342D01*
X221434342Y-196442914D01*
X221362914Y-196300057D01*
X221362914Y-195871485D01*
X221434342Y-195728628D01*
X221505771Y-195657200D01*
X221648628Y-195585771D01*
X221862914Y-195585771D01*
X222005771Y-195657200D01*
X222077200Y-195728628D01*
X222148628Y-195871485D01*
X222148628Y-196300057D01*
X222077200Y-196442914D01*
X222005771Y-196514342D01*
X221862914Y-196585771D01*
X221648628Y-196585771D01*
X222434342Y-194677200D02*
X223862914Y-194677200D01*
X222862914Y-196585771D02*
X223148628Y-196585771D01*
X223291485Y-196514342D01*
X223362914Y-196442914D01*
X223505771Y-196228628D01*
X223577200Y-195942914D01*
X223577200Y-195371485D01*
X223505771Y-195228628D01*
X223434342Y-195157200D01*
X223291485Y-195085771D01*
X223005771Y-195085771D01*
X222862914Y-195157200D01*
X222791485Y-195228628D01*
X222720057Y-195371485D01*
X222720057Y-195728628D01*
X222791485Y-195871485D01*
X222862914Y-195942914D01*
X223005771Y-196014342D01*
X223291485Y-196014342D01*
X223434342Y-195942914D01*
X223505771Y-195871485D01*
X223577200Y-195728628D01*
X223862914Y-194677200D02*
X225720057Y-194677200D01*
X224220057Y-196014342D02*
X225362914Y-196014342D01*
X224791485Y-196585771D02*
X224791485Y-195442914D01*
X225720057Y-194677200D02*
X227148628Y-194677200D01*
X226862914Y-196585771D02*
X226005771Y-196585771D01*
X226434342Y-196585771D02*
X226434342Y-195085771D01*
X226291485Y-195300057D01*
X226148628Y-195442914D01*
X226005771Y-195514342D01*
D10*
D11*
X177002200Y-191507200D02*
X285002200Y-191507200D01*
D10*
D12*
X264411485Y-193785771D02*
X263911485Y-193071485D01*
X263554342Y-193785771D02*
X263554342Y-192285771D01*
X264125771Y-192285771D01*
X264268628Y-192357200D01*
X264340057Y-192428628D01*
X264411485Y-192571485D01*
X264411485Y-192785771D01*
X264340057Y-192928628D01*
X264268628Y-193000057D01*
X264125771Y-193071485D01*
X263554342Y-193071485D01*
X265625771Y-193714342D02*
X265482914Y-193785771D01*
X265197200Y-193785771D01*
X265054342Y-193714342D01*
X264982914Y-193571485D01*
X264982914Y-193000057D01*
X265054342Y-192857200D01*
X265197200Y-192785771D01*
X265482914Y-192785771D01*
X265625771Y-192857200D01*
X265697200Y-193000057D01*
X265697200Y-193142914D01*
X264982914Y-193285771D01*
X266197200Y-192785771D02*
X266554342Y-193785771D01*
X266911485Y-192785771D01*
X267482914Y-193642914D02*
X267554342Y-193714342D01*
X267482914Y-193785771D01*
X267411485Y-193714342D01*
X267482914Y-193642914D01*
X267482914Y-193785771D01*
X267482914Y-192857200D02*
X267554342Y-192928628D01*
X267482914Y-193000057D01*
X267411485Y-192928628D01*
X267482914Y-192857200D01*
X267482914Y-193000057D01*
X269125771Y-192285771D02*
X269625771Y-193785771D01*
X270125771Y-192285771D01*
X271411485Y-193785771D02*
X270554342Y-193785771D01*
X270982914Y-193785771D02*
X270982914Y-192285771D01*
X270840057Y-192500057D01*
X270697200Y-192642914D01*
X270554342Y-192714342D01*
X272054342Y-193642914D02*
X272125771Y-193714342D01*
X272054342Y-193785771D01*
X271982914Y-193714342D01*
X272054342Y-193642914D01*
X272054342Y-193785771D01*
X273554342Y-193785771D02*
X272697200Y-193785771D01*
X273125771Y-193785771D02*
X273125771Y-192285771D01*
X272982914Y-192500057D01*
X272840057Y-192642914D01*
X272697200Y-192714342D01*
X274697200Y-193000057D02*
X274197200Y-193000057D01*
X274197200Y-193785771D02*
X274197200Y-192285771D01*
X274911485Y-192285771D01*
D10*
D11*
X178362914Y-193714342D02*
X178577200Y-193785771D01*
X178934342Y-193785771D01*
X179077200Y-193714342D01*
X179148628Y-193642914D01*
X179220057Y-193500057D01*
X179220057Y-193357200D01*
X179148628Y-193214342D01*
X179077200Y-193142914D01*
X178934342Y-193071485D01*
X178648628Y-193000057D01*
X178505771Y-192928628D01*
X178434342Y-192857200D01*
X178362914Y-192714342D01*
X178362914Y-192571485D01*
X178434342Y-192428628D01*
X178505771Y-192357200D01*
X178648628Y-192285771D01*
X179005771Y-192285771D01*
X179220057Y-192357200D01*
X179862914Y-193785771D02*
X179862914Y-192785771D01*
X179862914Y-192285771D02*
X179791485Y-192357200D01*
X179862914Y-192428628D01*
X179934342Y-192357200D01*
X179862914Y-192285771D01*
X179862914Y-192428628D01*
X180434342Y-192785771D02*
X181220057Y-192785771D01*
X180434342Y-193785771D01*
X181220057Y-193785771D01*
X182362914Y-193714342D02*
X182220057Y-193785771D01*
X181934342Y-193785771D01*
X181791485Y-193714342D01*
X181720057Y-193571485D01*
X181720057Y-193000057D01*
X181791485Y-192857200D01*
X181934342Y-192785771D01*
X182220057Y-192785771D01*
X182362914Y-192857200D01*
X182434342Y-193000057D01*
X182434342Y-193142914D01*
X181720057Y-193285771D01*
X183077200Y-193642914D02*
X183148628Y-193714342D01*
X183077200Y-193785771D01*
X183005771Y-193714342D01*
X183077200Y-193642914D01*
X183077200Y-193785771D01*
X183077200Y-192857200D02*
X183148628Y-192928628D01*
X183077200Y-193000057D01*
X183005771Y-192928628D01*
X183077200Y-192857200D01*
X183077200Y-193000057D01*
X184862914Y-193357200D02*
X185577200Y-193357200D01*
X184720057Y-193785771D02*
X185220057Y-192285771D01*
X185720057Y-193785771D01*
X186862914Y-192785771D02*
X186862914Y-193785771D01*
X186505771Y-192214342D02*
X186148628Y-193285771D01*
X187077200Y-193285771D01*
D10*
D11*
X263434342Y-196585771D02*
X263434342Y-195085771D01*
X264791485Y-196585771D02*
X264791485Y-195085771D01*
X264791485Y-196514342D02*
X264648628Y-196585771D01*
X264362914Y-196585771D01*
X264220057Y-196514342D01*
X264148628Y-196442914D01*
X264077200Y-196300057D01*
X264077200Y-195871485D01*
X264148628Y-195728628D01*
X264220057Y-195657200D01*
X264362914Y-195585771D01*
X264648628Y-195585771D01*
X264791485Y-195657200D01*
X265505771Y-196442914D02*
X265577200Y-196514342D01*
X265505771Y-196585771D01*
X265434342Y-196514342D01*
X265505771Y-196442914D01*
X265505771Y-196585771D01*
X265505771Y-195657200D02*
X265577200Y-195728628D01*
X265505771Y-195800057D01*
X265434342Y-195728628D01*
X265505771Y-195657200D01*
X265505771Y-195800057D01*
X268148628Y-196585771D02*
X267291485Y-196585771D01*
X267720057Y-196585771D02*
X267720057Y-195085771D01*
X267577200Y-195300057D01*
X267434342Y-195442914D01*
X267291485Y-195514342D01*
X269862914Y-195014342D02*
X268577200Y-196942914D01*
X271148628Y-196585771D02*
X270291485Y-196585771D01*
X270720057Y-196585771D02*
X270720057Y-195085771D01*
X270577200Y-195300057D01*
X270434342Y-195442914D01*
X270291485Y-195514342D01*
D10*
D11*
X177002200Y-187507200D02*
X285002200Y-187507200D01*
D10*
D13*
X178714580Y-188211961D02*
X179857438Y-188211961D01*
X179036009Y-190211961D02*
X179286009Y-188211961D01*
X180274104Y-190211961D02*
X180440771Y-188878628D01*
X180524104Y-188211961D02*
X180416961Y-188307200D01*
X180500295Y-188402438D01*
X180607438Y-188307200D01*
X180524104Y-188211961D01*
X180500295Y-188402438D01*
X181107438Y-188878628D02*
X181869342Y-188878628D01*
X181476485Y-188211961D02*
X181262200Y-189926247D01*
X181333628Y-190116723D01*
X181512200Y-190211961D01*
X181702676Y-190211961D01*
X182655057Y-190211961D02*
X182476485Y-190116723D01*
X182405057Y-189926247D01*
X182619342Y-188211961D01*
X184190771Y-190116723D02*
X183988390Y-190211961D01*
X183607438Y-190211961D01*
X183428866Y-190116723D01*
X183357438Y-189926247D01*
X183452676Y-189164342D01*
X183571723Y-188973866D01*
X183774104Y-188878628D01*
X184155057Y-188878628D01*
X184333628Y-188973866D01*
X184405057Y-189164342D01*
X184381247Y-189354819D01*
X183405057Y-189545295D01*
X185155057Y-190021485D02*
X185238390Y-190116723D01*
X185131247Y-190211961D01*
X185047914Y-190116723D01*
X185155057Y-190021485D01*
X185131247Y-190211961D01*
X185286009Y-188973866D02*
X185369342Y-189069104D01*
X185262200Y-189164342D01*
X185178866Y-189069104D01*
X185286009Y-188973866D01*
X185262200Y-189164342D01*
X188774104Y-190021485D02*
X188666961Y-190116723D01*
X188369342Y-190211961D01*
X188178866Y-190211961D01*
X187905057Y-190116723D01*
X187738390Y-189926247D01*
X187666961Y-189735771D01*
X187619342Y-189354819D01*
X187655057Y-189069104D01*
X187797914Y-188688152D01*
X187916961Y-188497676D01*
X188131247Y-188307200D01*
X188428866Y-188211961D01*
X188619342Y-188211961D01*
X188893152Y-188307200D01*
X188976485Y-188402438D01*
X190238390Y-188211961D02*
X190619342Y-188211961D01*
X190797914Y-188307200D01*
X190964580Y-188497676D01*
X191012200Y-188878628D01*
X190928866Y-189545295D01*
X190786009Y-189926247D01*
X190571723Y-190116723D01*
X190369342Y-190211961D01*
X189988390Y-190211961D01*
X189809819Y-190116723D01*
X189643152Y-189926247D01*
X189595533Y-189545295D01*
X189678866Y-188878628D01*
X189821723Y-188497676D01*
X190036009Y-188307200D01*
X190238390Y-188211961D01*
X191702676Y-190211961D02*
X191952676Y-188211961D01*
X192440771Y-189640533D01*
X193286009Y-188211961D01*
X193036009Y-190211961D01*
X193988390Y-190211961D02*
X194238390Y-188211961D01*
X195000295Y-188211961D01*
X195178866Y-188307200D01*
X195262200Y-188402438D01*
X195333628Y-188592914D01*
X195297914Y-188878628D01*
X195178866Y-189069104D01*
X195071723Y-189164342D01*
X194869342Y-189259580D01*
X194107438Y-189259580D01*
X196238390Y-188211961D02*
X196036009Y-189831009D01*
X196107438Y-190021485D01*
X196190771Y-190116723D01*
X196369342Y-190211961D01*
X196750295Y-190211961D01*
X196952676Y-190116723D01*
X197059819Y-190021485D01*
X197178866Y-189831009D01*
X197381247Y-188211961D01*
X198047914Y-188211961D02*
X199190771Y-188211961D01*
X198369342Y-190211961D02*
X198619342Y-188211961D01*
X199583628Y-189640533D02*
X200536009Y-189640533D01*
X199321723Y-190211961D02*
X200238390Y-188211961D01*
X200655057Y-190211961D01*
X201321723Y-190211961D02*
X201571723Y-188211961D01*
X202047914Y-188211961D01*
X202321723Y-188307200D01*
X202488390Y-188497676D01*
X202559819Y-188688152D01*
X202607438Y-189069104D01*
X202571723Y-189354819D01*
X202428866Y-189735771D01*
X202309819Y-189926247D01*
X202095533Y-190116723D01*
X201797914Y-190211961D01*
X201321723Y-190211961D01*
X203952676Y-188211961D02*
X204333628Y-188211961D01*
X204512200Y-188307200D01*
X204678866Y-188497676D01*
X204726485Y-188878628D01*
X204643152Y-189545295D01*
X204500295Y-189926247D01*
X204286009Y-190116723D01*
X204083628Y-190211961D01*
X203702676Y-190211961D01*
X203524104Y-190116723D01*
X203357438Y-189926247D01*
X203309819Y-189545295D01*
X203393152Y-188878628D01*
X203536009Y-188497676D01*
X203750295Y-188307200D01*
X203952676Y-188211961D01*
X206559819Y-190211961D02*
X206012200Y-189259580D01*
X205416961Y-190211961D02*
X205666961Y-188211961D01*
X206428866Y-188211961D01*
X206607438Y-188307200D01*
X206690771Y-188402438D01*
X206762200Y-188592914D01*
X206726485Y-188878628D01*
X206607438Y-189069104D01*
X206500295Y-189164342D01*
X206297914Y-189259580D01*
X205536009Y-189259580D01*
X207393152Y-189640533D02*
X208345533Y-189640533D01*
X207131247Y-190211961D02*
X208047914Y-188211961D01*
X208464580Y-190211961D01*
X210655057Y-190211961D02*
X210905057Y-188211961D01*
X211607438Y-190211961D02*
X211857438Y-188211961D01*
X212750295Y-190211961D01*
X213000295Y-188211961D01*
X213702676Y-190211961D02*
X213952676Y-188211961D01*
X214428866Y-188211961D01*
X214702676Y-188307200D01*
X214869342Y-188497676D01*
X214940771Y-188688152D01*
X214988390Y-189069104D01*
X214952676Y-189354819D01*
X214809819Y-189735771D01*
X214690771Y-189926247D01*
X214476485Y-190116723D01*
X214178866Y-190211961D01*
X213702676Y-190211961D01*
X215952676Y-188211961D02*
X215750295Y-189831009D01*
X215821723Y-190021485D01*
X215905057Y-190116723D01*
X216083628Y-190211961D01*
X216464580Y-190211961D01*
X216666961Y-190116723D01*
X216774104Y-190021485D01*
X216893152Y-189831009D01*
X217095533Y-188211961D01*
X217714580Y-190116723D02*
X217988390Y-190211961D01*
X218464580Y-190211961D01*
X218666961Y-190116723D01*
X218774104Y-190021485D01*
X218893152Y-189831009D01*
X218916961Y-189640533D01*
X218845533Y-189450057D01*
X218762200Y-189354819D01*
X218583628Y-189259580D01*
X218214580Y-189164342D01*
X218036009Y-189069104D01*
X217952676Y-188973866D01*
X217881247Y-188783390D01*
X217905057Y-188592914D01*
X218024104Y-188402438D01*
X218131247Y-188307200D01*
X218333628Y-188211961D01*
X218809819Y-188211961D01*
X219083628Y-188307200D01*
X219666961Y-188211961D02*
X220809819Y-188211961D01*
X219988390Y-190211961D02*
X220238390Y-188211961D01*
X222369342Y-190211961D02*
X221821723Y-189259580D01*
X221226485Y-190211961D02*
X221476485Y-188211961D01*
X222238390Y-188211961D01*
X222416961Y-188307200D01*
X222500295Y-188402438D01*
X222571723Y-188592914D01*
X222536009Y-188878628D01*
X222416961Y-189069104D01*
X222309819Y-189164342D01*
X222107438Y-189259580D01*
X221345533Y-189259580D01*
X223226485Y-190211961D02*
X223476485Y-188211961D01*
X224155057Y-189640533D02*
X225107438Y-189640533D01*
X223893152Y-190211961D02*
X224809819Y-188211961D01*
X225226485Y-190211961D01*
X226845533Y-190211961D02*
X225893152Y-190211961D01*
X226143152Y-188211961D01*
X229012200Y-189640533D02*
X229964580Y-189640533D01*
X228750295Y-190211961D02*
X229666961Y-188211961D01*
X230083628Y-190211961D01*
X231547914Y-189164342D02*
X231821723Y-189259580D01*
X231905057Y-189354819D01*
X231976485Y-189545295D01*
X231940771Y-189831009D01*
X231821723Y-190021485D01*
X231714580Y-190116723D01*
X231512200Y-190211961D01*
X230750295Y-190211961D01*
X231000295Y-188211961D01*
X231666961Y-188211961D01*
X231845533Y-188307200D01*
X231928866Y-188402438D01*
X232000295Y-188592914D01*
X231976485Y-188783390D01*
X231857438Y-188973866D01*
X231750295Y-189069104D01*
X231547914Y-189164342D01*
X230881247Y-189164342D01*
X232750295Y-190211961D02*
X233000295Y-188211961D01*
X233833628Y-189164342D02*
X234500295Y-189164342D01*
X234655057Y-190211961D02*
X233702676Y-190211961D01*
X233952676Y-188211961D01*
X234905057Y-188211961D01*
X236655057Y-190211961D02*
X236107438Y-189259580D01*
X235512200Y-190211961D02*
X235762200Y-188211961D01*
X236524104Y-188211961D01*
X236702676Y-188307200D01*
X236786009Y-188402438D01*
X236857438Y-188592914D01*
X236821723Y-188878628D01*
X236702676Y-189069104D01*
X236595533Y-189164342D01*
X236393152Y-189259580D01*
X235631247Y-189259580D01*
X237476485Y-188211961D02*
X238619342Y-188211961D01*
X237797914Y-190211961D02*
X238047914Y-188211961D01*
X239012200Y-189640533D02*
X239964580Y-189640533D01*
X238750295Y-190211961D02*
X239666961Y-188211961D01*
X240083628Y-190211961D01*
X242250295Y-189640533D02*
X243202676Y-189640533D01*
X241988390Y-190211961D02*
X242905057Y-188211961D01*
X243321723Y-190211961D01*
X245131247Y-190211961D02*
X244583628Y-189259580D01*
X243988390Y-190211961D02*
X244238390Y-188211961D01*
X245000295Y-188211961D01*
X245178866Y-188307200D01*
X245262200Y-188402438D01*
X245333628Y-188592914D01*
X245297914Y-188878628D01*
X245178866Y-189069104D01*
X245071723Y-189164342D01*
X244869342Y-189259580D01*
X244107438Y-189259580D01*
X247274104Y-188307200D02*
X247095533Y-188211961D01*
X246809819Y-188211961D01*
X246512200Y-188307200D01*
X246297914Y-188497676D01*
X246178866Y-188688152D01*
X246036009Y-189069104D01*
X246000295Y-189354819D01*
X246047914Y-189735771D01*
X246119342Y-189926247D01*
X246286009Y-190116723D01*
X246559819Y-190211961D01*
X246750295Y-190211961D01*
X247047914Y-190116723D01*
X247155057Y-190021485D01*
X247238390Y-189354819D01*
X246857438Y-189354819D01*
X248119342Y-189164342D02*
X248786009Y-189164342D01*
X248940771Y-190211961D02*
X247988390Y-190211961D01*
X248238390Y-188211961D01*
X249190771Y-188211961D01*
X249797914Y-190211961D02*
X250047914Y-188211961D01*
X250940771Y-190211961D01*
X251190771Y-188211961D01*
X251857438Y-188211961D02*
X253000295Y-188211961D01*
X252178866Y-190211961D02*
X252428866Y-188211961D01*
X253416961Y-190211961D02*
X253666961Y-188211961D01*
X254369342Y-190211961D02*
X254619342Y-188211961D01*
X255512199Y-190211961D01*
X255762199Y-188211961D01*
X256440771Y-189640533D02*
X257393152Y-189640533D01*
X256178866Y-190211961D02*
X257095533Y-188211961D01*
X257512199Y-190211961D01*
X258202676Y-190021485D02*
X258286009Y-190116723D01*
X258178866Y-190211961D01*
X258095533Y-190116723D01*
X258202676Y-190021485D01*
X258178866Y-190211961D01*
X261821723Y-190021485D02*
X261714580Y-190116723D01*
X261416961Y-190211961D01*
X261226485Y-190211961D01*
X260952676Y-190116723D01*
X260786009Y-189926247D01*
X260714580Y-189735771D01*
X260666961Y-189354819D01*
X260702676Y-189069104D01*
X260845533Y-188688152D01*
X260964580Y-188497676D01*
X261178866Y-188307200D01*
X261476485Y-188211961D01*
X261666961Y-188211961D01*
X261940771Y-188307200D01*
X262024104Y-188402438D01*
X262655057Y-190211961D02*
X262905057Y-188211961D01*
X263583628Y-189640533D02*
X264536009Y-189640533D01*
X263321723Y-190211961D02*
X264238390Y-188211961D01*
X264655057Y-190211961D01*
X265297914Y-189640533D02*
X266250295Y-189640533D01*
X265036009Y-190211961D02*
X265952676Y-188211961D01*
X266369342Y-190211961D01*
X267131247Y-189450057D02*
X268655057Y-189450057D01*
X269488390Y-189640533D02*
X270440771Y-189640533D01*
X269226485Y-190211961D02*
X270143152Y-188211961D01*
X270559819Y-190211961D01*
X272393152Y-190021485D02*
X272286009Y-190116723D01*
X271988390Y-190211961D01*
X271797914Y-190211961D01*
X271524104Y-190116723D01*
X271357438Y-189926247D01*
X271286009Y-189735771D01*
X271238390Y-189354819D01*
X271274104Y-189069104D01*
X271416961Y-188688152D01*
X271536009Y-188497676D01*
X271750295Y-188307200D01*
X272047914Y-188211961D01*
X272238390Y-188211961D01*
X272512200Y-188307200D01*
X272595533Y-188402438D01*
X274393152Y-190021485D02*
X274286009Y-190116723D01*
X273988390Y-190211961D01*
X273797914Y-190211961D01*
X273524104Y-190116723D01*
X273357438Y-189926247D01*
X273286009Y-189735771D01*
X273238390Y-189354819D01*
X273274104Y-189069104D01*
X273416961Y-188688152D01*
X273536009Y-188497676D01*
X273750295Y-188307200D01*
X274047914Y-188211961D01*
X274238390Y-188211961D01*
X274512200Y-188307200D01*
X274595533Y-188402438D01*
X277226485Y-190973866D02*
X277143152Y-190878628D01*
X276988390Y-190592914D01*
X276916961Y-190402438D01*
X276857438Y-190116723D01*
X276821723Y-189640533D01*
X276869342Y-189259580D01*
X277024104Y-188783390D01*
X277155057Y-188497676D01*
X277274104Y-188307200D01*
X277500295Y-188021485D01*
X277607438Y-187926247D01*
X278083628Y-190211961D02*
X278333628Y-188211961D01*
X278214580Y-189164342D02*
X279357438Y-189164342D01*
X279226485Y-190211961D02*
X279476485Y-188211961D01*
X280178866Y-190211961D02*
X280428866Y-188211961D01*
X281190771Y-188211961D01*
X281369342Y-188307200D01*
X281452676Y-188402438D01*
X281524104Y-188592914D01*
X281488390Y-188878628D01*
X281369342Y-189069104D01*
X281262200Y-189164342D01*
X281059819Y-189259580D01*
X280297914Y-189259580D01*
X283345533Y-190021485D02*
X283238390Y-190116723D01*
X282940771Y-190211961D01*
X282750295Y-190211961D01*
X282476485Y-190116723D01*
X282309819Y-189926247D01*
X282238390Y-189735771D01*
X282190771Y-189354819D01*
X282226485Y-189069104D01*
X282369342Y-188688152D01*
X282488390Y-188497676D01*
X282702676Y-188307200D01*
X283000295Y-188211961D01*
X283190771Y-188211961D01*
X283464580Y-188307200D01*
X283547914Y-188402438D01*
X283893152Y-190973866D02*
X284000295Y-190878628D01*
X284226485Y-190592914D01*
X284345533Y-190402438D01*
X284476485Y-190116723D01*
X284631247Y-189640533D01*
X284678866Y-189259580D01*
X284643152Y-188783390D01*
X284583628Y-188497676D01*
X284512200Y-188307200D01*
X284357438Y-188021485D01*
X284274104Y-187926247D01*
D10*
D11*
X178934342Y-185600057D02*
X178434342Y-185600057D01*
X178434342Y-186385771D02*
X178434342Y-184885771D01*
X179148628Y-184885771D01*
X179720057Y-186385771D02*
X179720057Y-185385771D01*
X179720057Y-184885771D02*
X179648628Y-184957200D01*
X179720057Y-185028628D01*
X179791485Y-184957200D01*
X179720057Y-184885771D01*
X179720057Y-185028628D01*
X180648628Y-186385771D02*
X180505771Y-186314342D01*
X180434342Y-186171485D01*
X180434342Y-184885771D01*
X181791485Y-186314342D02*
X181648628Y-186385771D01*
X181362914Y-186385771D01*
X181220057Y-186314342D01*
X181148628Y-186171485D01*
X181148628Y-185600057D01*
X181220057Y-185457200D01*
X181362914Y-185385771D01*
X181648628Y-185385771D01*
X181791485Y-185457200D01*
X181862914Y-185600057D01*
X181862914Y-185742914D01*
X181148628Y-185885771D01*
X182505771Y-186242914D02*
X182577200Y-186314342D01*
X182505771Y-186385771D01*
X182434342Y-186314342D01*
X182505771Y-186242914D01*
X182505771Y-186385771D01*
X182505771Y-185457200D02*
X182577200Y-185528628D01*
X182505771Y-185600057D01*
X182434342Y-185528628D01*
X182505771Y-185457200D01*
X182505771Y-185600057D01*
X185005771Y-186314342D02*
X184862914Y-186385771D01*
X184577200Y-186385771D01*
X184434342Y-186314342D01*
X184362914Y-186242914D01*
X184291485Y-186100057D01*
X184291485Y-185671485D01*
X184362914Y-185528628D01*
X184434342Y-185457200D01*
X184577200Y-185385771D01*
X184862914Y-185385771D01*
X185005771Y-185457200D01*
X185648628Y-186385771D02*
X185648628Y-185385771D01*
X185648628Y-184885771D02*
X185577200Y-184957200D01*
X185648628Y-185028628D01*
X185720057Y-184957200D01*
X185648628Y-184885771D01*
X185648628Y-185028628D01*
X187005771Y-186385771D02*
X187005771Y-185600057D01*
X186934342Y-185457200D01*
X186791485Y-185385771D01*
X186505771Y-185385771D01*
X186362914Y-185457200D01*
X187005771Y-186314342D02*
X186862914Y-186385771D01*
X186505771Y-186385771D01*
X186362914Y-186314342D01*
X186291485Y-186171485D01*
X186291485Y-186028628D01*
X186362914Y-185885771D01*
X186505771Y-185814342D01*
X186862914Y-185814342D01*
X187005771Y-185742914D01*
X188362914Y-186385771D02*
X188362914Y-185600057D01*
X188291485Y-185457200D01*
X188148628Y-185385771D01*
X187862914Y-185385771D01*
X187720057Y-185457200D01*
X188362914Y-186314342D02*
X188220057Y-186385771D01*
X187862914Y-186385771D01*
X187720057Y-186314342D01*
X187648628Y-186171485D01*
X187648628Y-186028628D01*
X187720057Y-185885771D01*
X187862914Y-185814342D01*
X188220057Y-185814342D01*
X188362914Y-185742914D01*
X188720057Y-186528628D02*
X189862914Y-186528628D01*
X190862914Y-186385771D02*
X190862914Y-185600057D01*
X190791485Y-185457200D01*
X190648628Y-185385771D01*
X190362914Y-185385771D01*
X190220057Y-185457200D01*
X190862914Y-186314342D02*
X190720057Y-186385771D01*
X190362914Y-186385771D01*
X190220057Y-186314342D01*
X190148628Y-186171485D01*
X190148628Y-186028628D01*
X190220057Y-185885771D01*
X190362914Y-185814342D01*
X190720057Y-185814342D01*
X190862914Y-185742914D01*
X192220057Y-186314342D02*
X192077200Y-186385771D01*
X191791485Y-186385771D01*
X191648628Y-186314342D01*
X191577200Y-186242914D01*
X191505771Y-186100057D01*
X191505771Y-185671485D01*
X191577200Y-185528628D01*
X191648628Y-185457200D01*
X191791485Y-185385771D01*
X192077200Y-185385771D01*
X192220057Y-185457200D01*
X193505771Y-186314342D02*
X193362914Y-186385771D01*
X193077200Y-186385771D01*
X192934342Y-186314342D01*
X192862914Y-186242914D01*
X192791485Y-186100057D01*
X192791485Y-185671485D01*
X192862914Y-185528628D01*
X192934342Y-185457200D01*
X193077200Y-185385771D01*
X193362914Y-185385771D01*
X193505771Y-185457200D01*
X194148628Y-186242914D02*
X194220057Y-186314342D01*
X194148628Y-186385771D01*
X194077200Y-186314342D01*
X194148628Y-186242914D01*
X194148628Y-186385771D01*
X194862914Y-186385771D02*
X194862914Y-184885771D01*
X195005771Y-185814342D02*
X195434342Y-186385771D01*
X195434342Y-185385771D02*
X194862914Y-185957200D01*
X196077200Y-186385771D02*
X196077200Y-185385771D01*
X196077200Y-184885771D02*
X196005771Y-184957200D01*
X196077200Y-185028628D01*
X196148628Y-184957200D01*
X196077200Y-184885771D01*
X196077200Y-185028628D01*
X197434342Y-186314342D02*
X197291485Y-186385771D01*
X197005771Y-186385771D01*
X196862914Y-186314342D01*
X196791485Y-186242914D01*
X196720057Y-186100057D01*
X196720057Y-185671485D01*
X196791485Y-185528628D01*
X196862914Y-185457200D01*
X197005771Y-185385771D01*
X197291485Y-185385771D01*
X197434342Y-185457200D01*
X198720057Y-186385771D02*
X198720057Y-185600057D01*
X198648628Y-185457200D01*
X198505771Y-185385771D01*
X198220057Y-185385771D01*
X198077200Y-185457200D01*
X198720057Y-186314342D02*
X198577200Y-186385771D01*
X198220057Y-186385771D01*
X198077200Y-186314342D01*
X198005771Y-186171485D01*
X198005771Y-186028628D01*
X198077200Y-185885771D01*
X198220057Y-185814342D01*
X198577200Y-185814342D01*
X198720057Y-185742914D01*
X200077200Y-186385771D02*
X200077200Y-184885771D01*
X200077200Y-186314342D02*
X199934342Y-186385771D01*
X199648628Y-186385771D01*
X199505771Y-186314342D01*
X199434342Y-186242914D01*
X199362914Y-186100057D01*
X199362914Y-185671485D01*
X199434342Y-185528628D01*
X199505771Y-185457200D01*
X199648628Y-185385771D01*
X199934342Y-185385771D01*
X200077200Y-185457200D01*
X200434342Y-186528628D02*
X201577200Y-186528628D01*
X201934342Y-185385771D02*
X201934342Y-186885771D01*
X201934342Y-185457200D02*
X202077200Y-185385771D01*
X202362914Y-185385771D01*
X202505771Y-185457200D01*
X202577200Y-185528628D01*
X202648628Y-185671485D01*
X202648628Y-186100057D01*
X202577200Y-186242914D01*
X202505771Y-186314342D01*
X202362914Y-186385771D01*
X202077200Y-186385771D01*
X201934342Y-186314342D01*
X203934342Y-186314342D02*
X203791485Y-186385771D01*
X203505771Y-186385771D01*
X203362914Y-186314342D01*
X203291485Y-186242914D01*
X203220057Y-186100057D01*
X203220057Y-185671485D01*
X203291485Y-185528628D01*
X203362914Y-185457200D01*
X203505771Y-185385771D01*
X203791485Y-185385771D01*
X203934342Y-185457200D01*
X204577200Y-186385771D02*
X204577200Y-184885771D01*
X204577200Y-185457200D02*
X204720057Y-185385771D01*
X205005771Y-185385771D01*
X205148628Y-185457200D01*
X205220057Y-185528628D01*
X205291485Y-185671485D01*
X205291485Y-186100057D01*
X205220057Y-186242914D01*
X205148628Y-186314342D01*
X205005771Y-186385771D01*
X204720057Y-186385771D01*
X204577200Y-186314342D01*
D10*
D11*
X177002200Y-181507200D02*
X285002200Y-181507200D01*
D10*
D11*
X178362914Y-183614342D02*
X178577200Y-183685771D01*
X178934342Y-183685771D01*
X179077200Y-183614342D01*
X179148628Y-183542914D01*
X179220057Y-183400057D01*
X179220057Y-183257200D01*
X179148628Y-183114342D01*
X179077200Y-183042914D01*
X178934342Y-182971485D01*
X178648628Y-182900057D01*
X178505771Y-182828628D01*
X178434342Y-182757200D01*
X178362914Y-182614342D01*
X178362914Y-182471485D01*
X178434342Y-182328628D01*
X178505771Y-182257200D01*
X178648628Y-182185771D01*
X179005771Y-182185771D01*
X179220057Y-182257200D01*
X179862914Y-183685771D02*
X179862914Y-182185771D01*
X180505771Y-183685771D02*
X180505771Y-182900057D01*
X180434342Y-182757200D01*
X180291485Y-182685771D01*
X180077200Y-182685771D01*
X179934342Y-182757200D01*
X179862914Y-182828628D01*
X181791485Y-183614342D02*
X181648628Y-183685771D01*
X181362914Y-183685771D01*
X181220057Y-183614342D01*
X181148628Y-183471485D01*
X181148628Y-182900057D01*
X181220057Y-182757200D01*
X181362914Y-182685771D01*
X181648628Y-182685771D01*
X181791485Y-182757200D01*
X181862914Y-182900057D01*
X181862914Y-183042914D01*
X181148628Y-183185771D01*
X183077200Y-183614342D02*
X182934342Y-183685771D01*
X182648628Y-183685771D01*
X182505771Y-183614342D01*
X182434342Y-183471485D01*
X182434342Y-182900057D01*
X182505771Y-182757200D01*
X182648628Y-182685771D01*
X182934342Y-182685771D01*
X183077200Y-182757200D01*
X183148628Y-182900057D01*
X183148628Y-183042914D01*
X182434342Y-183185771D01*
X183577200Y-182685771D02*
X184148628Y-182685771D01*
X183791485Y-182185771D02*
X183791485Y-183471485D01*
X183862914Y-183614342D01*
X184005771Y-183685771D01*
X184148628Y-183685771D01*
X184648628Y-183542914D02*
X184720057Y-183614342D01*
X184648628Y-183685771D01*
X184577200Y-183614342D01*
X184648628Y-183542914D01*
X184648628Y-183685771D01*
X184648628Y-182757200D02*
X184720057Y-182828628D01*
X184648628Y-182900057D01*
X184577200Y-182828628D01*
X184648628Y-182757200D01*
X184648628Y-182900057D01*
D10*
D12*
X178554342Y-180685771D02*
X178554342Y-179185771D01*
X179268628Y-179685771D02*
X179268628Y-180685771D01*
X179268628Y-179828628D02*
X179340057Y-179757200D01*
X179482914Y-179685771D01*
X179697200Y-179685771D01*
X179840057Y-179757200D01*
X179911485Y-179900057D01*
X179911485Y-180685771D01*
X180554342Y-180614342D02*
X180697200Y-180685771D01*
X180982914Y-180685771D01*
X181125771Y-180614342D01*
X181197200Y-180471485D01*
X181197200Y-180400057D01*
X181125771Y-180257200D01*
X180982914Y-180185771D01*
X180768628Y-180185771D01*
X180625771Y-180114342D01*
X180554342Y-179971485D01*
X180554342Y-179900057D01*
X180625771Y-179757200D01*
X180768628Y-179685771D01*
X180982914Y-179685771D01*
X181125771Y-179757200D01*
X181625771Y-179685771D02*
X182197200Y-179685771D01*
X181840057Y-179185771D02*
X181840057Y-180471485D01*
X181911485Y-180614342D01*
X182054342Y-180685771D01*
X182197200Y-180685771D01*
X182697200Y-180685771D02*
X182697200Y-179685771D01*
X182697200Y-179185771D02*
X182625771Y-179257200D01*
X182697200Y-179328628D01*
X182768628Y-179257200D01*
X182697200Y-179185771D01*
X182697200Y-179328628D01*
X183197200Y-179685771D02*
X183768628Y-179685771D01*
X183411485Y-179185771D02*
X183411485Y-180471485D01*
X183482914Y-180614342D01*
X183625771Y-180685771D01*
X183768628Y-180685771D01*
X184911485Y-179685771D02*
X184911485Y-180685771D01*
X184268628Y-179685771D02*
X184268628Y-180471485D01*
X184340057Y-180614342D01*
X184482914Y-180685771D01*
X184697200Y-180685771D01*
X184840057Y-180614342D01*
X184911485Y-180542914D01*
X185411485Y-179685771D02*
X185982914Y-179685771D01*
X185625771Y-179185771D02*
X185625771Y-180471485D01*
X185697200Y-180614342D01*
X185840057Y-180685771D01*
X185982914Y-180685771D01*
X186697200Y-180685771D02*
X186554342Y-180614342D01*
X186482914Y-180542914D01*
X186411485Y-180400057D01*
X186411485Y-179971485D01*
X186482914Y-179828628D01*
X186554342Y-179757200D01*
X186697200Y-179685771D01*
X186911485Y-179685771D01*
X187054342Y-179757200D01*
X187125771Y-179828628D01*
X187197200Y-179971485D01*
X187197200Y-180400057D01*
X187125771Y-180542914D01*
X187054342Y-180614342D01*
X186911485Y-180685771D01*
X186697200Y-180685771D01*
X188982914Y-180685771D02*
X188982914Y-179185771D01*
X189840057Y-180685771D01*
X189840057Y-179185771D01*
X191197200Y-180685771D02*
X191197200Y-179900057D01*
X191125771Y-179757200D01*
X190982914Y-179685771D01*
X190697200Y-179685771D01*
X190554342Y-179757200D01*
X191197200Y-180614342D02*
X191054342Y-180685771D01*
X190697200Y-180685771D01*
X190554342Y-180614342D01*
X190482914Y-180471485D01*
X190482914Y-180328628D01*
X190554342Y-180185771D01*
X190697200Y-180114342D01*
X191054342Y-180114342D01*
X191197200Y-180042914D01*
X192554342Y-180614342D02*
X192411485Y-180685771D01*
X192125771Y-180685771D01*
X191982914Y-180614342D01*
X191911485Y-180542914D01*
X191840057Y-180400057D01*
X191840057Y-179971485D01*
X191911485Y-179828628D01*
X191982914Y-179757200D01*
X192125771Y-179685771D01*
X192411485Y-179685771D01*
X192554342Y-179757200D01*
X193197200Y-180685771D02*
X193197200Y-179685771D01*
X193197200Y-179185771D02*
X193125771Y-179257200D01*
X193197200Y-179328628D01*
X193268628Y-179257200D01*
X193197200Y-179185771D01*
X193197200Y-179328628D01*
X194125771Y-180685771D02*
X193982914Y-180614342D01*
X193911485Y-180542914D01*
X193840057Y-180400057D01*
X193840057Y-179971485D01*
X193911485Y-179828628D01*
X193982914Y-179757200D01*
X194125771Y-179685771D01*
X194340057Y-179685771D01*
X194482914Y-179757200D01*
X194554342Y-179828628D01*
X194625771Y-179971485D01*
X194625771Y-180400057D01*
X194554342Y-180542914D01*
X194482914Y-180614342D01*
X194340057Y-180685771D01*
X194125771Y-180685771D01*
X195268628Y-179685771D02*
X195268628Y-180685771D01*
X195268628Y-179828628D02*
X195340057Y-179757200D01*
X195482914Y-179685771D01*
X195697200Y-179685771D01*
X195840057Y-179757200D01*
X195911485Y-179900057D01*
X195911485Y-180685771D01*
X197268628Y-180685771D02*
X197268628Y-179900057D01*
X197197200Y-179757200D01*
X197054342Y-179685771D01*
X196768628Y-179685771D01*
X196625771Y-179757200D01*
X197268628Y-180614342D02*
X197125771Y-180685771D01*
X196768628Y-180685771D01*
X196625771Y-180614342D01*
X196554342Y-180471485D01*
X196554342Y-180328628D01*
X196625771Y-180185771D01*
X196768628Y-180114342D01*
X197125771Y-180114342D01*
X197268628Y-180042914D01*
X198197200Y-180685771D02*
X198054342Y-180614342D01*
X197982914Y-180471485D01*
X197982914Y-179185771D01*
X200554342Y-180685771D02*
X200554342Y-179185771D01*
X200554342Y-180614342D02*
X200411485Y-180685771D01*
X200125771Y-180685771D01*
X199982914Y-180614342D01*
X199911485Y-180542914D01*
X199840057Y-180400057D01*
X199840057Y-179971485D01*
X199911485Y-179828628D01*
X199982914Y-179757200D01*
X200125771Y-179685771D01*
X200411485Y-179685771D01*
X200554342Y-179757200D01*
X201840057Y-180614342D02*
X201697200Y-180685771D01*
X201411485Y-180685771D01*
X201268628Y-180614342D01*
X201197200Y-180471485D01*
X201197200Y-179900057D01*
X201268628Y-179757200D01*
X201411485Y-179685771D01*
X201697200Y-179685771D01*
X201840057Y-179757200D01*
X201911485Y-179900057D01*
X201911485Y-180042914D01*
X201197200Y-180185771D01*
X203482914Y-179185771D02*
X204340057Y-179185771D01*
X203911485Y-180685771D02*
X203911485Y-179185771D01*
X205411485Y-180614342D02*
X205268628Y-180685771D01*
X204982914Y-180685771D01*
X204840057Y-180614342D01*
X204768628Y-180471485D01*
X204768628Y-179900057D01*
X204840057Y-179757200D01*
X204982914Y-179685771D01*
X205268628Y-179685771D01*
X205411485Y-179757200D01*
X205482914Y-179900057D01*
X205482914Y-180042914D01*
X204768628Y-180185771D01*
X206768628Y-180614342D02*
X206625771Y-180685771D01*
X206340057Y-180685771D01*
X206197200Y-180614342D01*
X206125771Y-180542914D01*
X206054342Y-180400057D01*
X206054342Y-179971485D01*
X206125771Y-179828628D01*
X206197200Y-179757200D01*
X206340057Y-179685771D01*
X206625771Y-179685771D01*
X206768628Y-179757200D01*
X207411485Y-179685771D02*
X207411485Y-180685771D01*
X207411485Y-179828628D02*
X207482914Y-179757200D01*
X207625771Y-179685771D01*
X207840057Y-179685771D01*
X207982914Y-179757200D01*
X208054342Y-179900057D01*
X208054342Y-180685771D01*
X208982914Y-180685771D02*
X208840057Y-180614342D01*
X208768628Y-180542914D01*
X208697200Y-180400057D01*
X208697200Y-179971485D01*
X208768628Y-179828628D01*
X208840057Y-179757200D01*
X208982914Y-179685771D01*
X209197200Y-179685771D01*
X209340057Y-179757200D01*
X209411485Y-179828628D01*
X209482914Y-179971485D01*
X209482914Y-180400057D01*
X209411485Y-180542914D01*
X209340057Y-180614342D01*
X209197200Y-180685771D01*
X208982914Y-180685771D01*
X210340057Y-180685771D02*
X210197200Y-180614342D01*
X210125771Y-180471485D01*
X210125771Y-179185771D01*
X211125771Y-180685771D02*
X210982914Y-180614342D01*
X210911485Y-180542914D01*
X210840057Y-180400057D01*
X210840057Y-179971485D01*
X210911485Y-179828628D01*
X210982914Y-179757200D01*
X211125771Y-179685771D01*
X211340057Y-179685771D01*
X211482914Y-179757200D01*
X211554342Y-179828628D01*
X211625771Y-179971485D01*
X211625771Y-180400057D01*
X211554342Y-180542914D01*
X211482914Y-180614342D01*
X211340057Y-180685771D01*
X211125771Y-180685771D01*
X212911485Y-179685771D02*
X212911485Y-180900057D01*
X212840057Y-181042914D01*
X212768628Y-181114342D01*
X212625771Y-181185771D01*
X212411485Y-181185771D01*
X212268628Y-181114342D01*
X212911485Y-180614342D02*
X212768628Y-180685771D01*
X212482914Y-180685771D01*
X212340057Y-180614342D01*
X212268628Y-180542914D01*
X212197200Y-180400057D01*
X212197200Y-179971485D01*
X212268628Y-179828628D01*
X212340057Y-179757200D01*
X212482914Y-179685771D01*
X212768628Y-179685771D01*
X212911485Y-179757200D01*
X213625771Y-180685771D02*
X213625771Y-179685771D01*
X213768628Y-179114342D02*
X213554342Y-179328628D01*
X214982914Y-180685771D02*
X214982914Y-179900057D01*
X214911485Y-179757200D01*
X214768628Y-179685771D01*
X214482914Y-179685771D01*
X214340057Y-179757200D01*
X214982914Y-180614342D02*
X214840057Y-180685771D01*
X214482914Y-180685771D01*
X214340057Y-180614342D01*
X214268628Y-180471485D01*
X214268628Y-180328628D01*
X214340057Y-180185771D01*
X214482914Y-180114342D01*
X214840057Y-180114342D01*
X214982914Y-180042914D01*
X216840057Y-180685771D02*
X216840057Y-179185771D01*
X217554342Y-179685771D02*
X217554342Y-180685771D01*
X217554342Y-179828628D02*
X217625771Y-179757200D01*
X217768628Y-179685771D01*
X217982914Y-179685771D01*
X218125771Y-179757200D01*
X218197200Y-179900057D01*
X218197200Y-180685771D01*
X219554342Y-180685771D02*
X219554342Y-179185771D01*
X219554342Y-180614342D02*
X219411485Y-180685771D01*
X219125771Y-180685771D01*
X218982914Y-180614342D01*
X218911485Y-180542914D01*
X218840057Y-180400057D01*
X218840057Y-179971485D01*
X218911485Y-179828628D01*
X218982914Y-179757200D01*
X219125771Y-179685771D01*
X219411485Y-179685771D01*
X219554342Y-179757200D01*
X220911485Y-179685771D02*
X220911485Y-180685771D01*
X220268628Y-179685771D02*
X220268628Y-180471485D01*
X220340057Y-180614342D01*
X220482914Y-180685771D01*
X220697200Y-180685771D01*
X220840057Y-180614342D01*
X220911485Y-180542914D01*
X221554342Y-180614342D02*
X221697200Y-180685771D01*
X221982914Y-180685771D01*
X222125771Y-180614342D01*
X222197200Y-180471485D01*
X222197200Y-180400057D01*
X222125771Y-180257200D01*
X221982914Y-180185771D01*
X221768628Y-180185771D01*
X221625771Y-180114342D01*
X221554342Y-179971485D01*
X221554342Y-179900057D01*
X221625771Y-179757200D01*
X221768628Y-179685771D01*
X221982914Y-179685771D01*
X222125771Y-179757200D01*
X222625771Y-179685771D02*
X223197200Y-179685771D01*
X222840057Y-179185771D02*
X222840057Y-180471485D01*
X222911485Y-180614342D01*
X223054342Y-180685771D01*
X223197200Y-180685771D01*
X223697200Y-180685771D02*
X223697200Y-179685771D01*
X223697200Y-179971485D02*
X223768628Y-179828628D01*
X223840057Y-179757200D01*
X223982914Y-179685771D01*
X224125771Y-179685771D01*
X224625771Y-180685771D02*
X224625771Y-179685771D01*
X224625771Y-179185771D02*
X224554342Y-179257200D01*
X224625771Y-179328628D01*
X224697200Y-179257200D01*
X224625771Y-179185771D01*
X224625771Y-179328628D01*
X225982914Y-180685771D02*
X225982914Y-179900057D01*
X225911485Y-179757200D01*
X225768628Y-179685771D01*
X225482914Y-179685771D01*
X225340057Y-179757200D01*
X225982914Y-180614342D02*
X225840057Y-180685771D01*
X225482914Y-180685771D01*
X225340057Y-180614342D01*
X225268628Y-180471485D01*
X225268628Y-180328628D01*
X225340057Y-180185771D01*
X225482914Y-180114342D01*
X225840057Y-180114342D01*
X225982914Y-180042914D01*
X226911485Y-180685771D02*
X226768628Y-180614342D01*
X226697200Y-180471485D01*
X226697200Y-179185771D01*
X228625771Y-180114342D02*
X229768628Y-180114342D01*
X232482914Y-180542914D02*
X232411485Y-180614342D01*
X232197200Y-180685771D01*
X232054342Y-180685771D01*
X231840057Y-180614342D01*
X231697200Y-180471485D01*
X231625771Y-180328628D01*
X231554342Y-180042914D01*
X231554342Y-179828628D01*
X231625771Y-179542914D01*
X231697200Y-179400057D01*
X231840057Y-179257200D01*
X232054342Y-179185771D01*
X232197200Y-179185771D01*
X232411485Y-179257200D01*
X232482914Y-179328628D01*
X233697200Y-180614342D02*
X233554342Y-180685771D01*
X233268628Y-180685771D01*
X233125771Y-180614342D01*
X233054342Y-180471485D01*
X233054342Y-179900057D01*
X233125771Y-179757200D01*
X233268628Y-179685771D01*
X233554342Y-179685771D01*
X233697200Y-179757200D01*
X233768628Y-179900057D01*
X233768628Y-180042914D01*
X233054342Y-180185771D01*
X234411485Y-179685771D02*
X234411485Y-180685771D01*
X234411485Y-179828628D02*
X234482914Y-179757200D01*
X234625771Y-179685771D01*
X234840057Y-179685771D01*
X234982914Y-179757200D01*
X235054342Y-179900057D01*
X235054342Y-180685771D01*
X235554342Y-179685771D02*
X236125771Y-179685771D01*
X235768628Y-179185771D02*
X235768628Y-180471485D01*
X235840057Y-180614342D01*
X235982914Y-180685771D01*
X236125771Y-180685771D01*
X236625771Y-180685771D02*
X236625771Y-179685771D01*
X236625771Y-179971485D02*
X236697200Y-179828628D01*
X236768628Y-179757200D01*
X236911485Y-179685771D01*
X237054342Y-179685771D01*
X237768628Y-180685771D02*
X237625771Y-180614342D01*
X237554342Y-180542914D01*
X237482914Y-180400057D01*
X237482914Y-179971485D01*
X237554342Y-179828628D01*
X237625771Y-179757200D01*
X237768628Y-179685771D01*
X237982914Y-179685771D01*
X238125771Y-179757200D01*
X238197200Y-179828628D01*
X238268628Y-179971485D01*
X238268628Y-180400057D01*
X238197200Y-180542914D01*
X238125771Y-180614342D01*
X237982914Y-180685771D01*
X237768628Y-180685771D01*
X240697200Y-180685771D02*
X240697200Y-179185771D01*
X240697200Y-180614342D02*
X240554342Y-180685771D01*
X240268628Y-180685771D01*
X240125771Y-180614342D01*
X240054342Y-180542914D01*
X239982914Y-180400057D01*
X239982914Y-179971485D01*
X240054342Y-179828628D01*
X240125771Y-179757200D01*
X240268628Y-179685771D01*
X240554342Y-179685771D01*
X240697200Y-179757200D01*
X241982914Y-180614342D02*
X241840057Y-180685771D01*
X241554342Y-180685771D01*
X241411485Y-180614342D01*
X241340057Y-180471485D01*
X241340057Y-179900057D01*
X241411485Y-179757200D01*
X241554342Y-179685771D01*
X241840057Y-179685771D01*
X241982914Y-179757200D01*
X242054342Y-179900057D01*
X242054342Y-180042914D01*
X241340057Y-180185771D01*
X243840057Y-180685771D02*
X243840057Y-179185771D01*
X244340057Y-180257200D01*
X244840057Y-179185771D01*
X244840057Y-180685771D01*
X245554342Y-180685771D02*
X245554342Y-179685771D01*
X245554342Y-179185771D02*
X245482914Y-179257200D01*
X245554342Y-179328628D01*
X245625771Y-179257200D01*
X245554342Y-179185771D01*
X245554342Y-179328628D01*
X246911485Y-180614342D02*
X246768628Y-180685771D01*
X246482914Y-180685771D01*
X246340057Y-180614342D01*
X246268628Y-180542914D01*
X246197200Y-180400057D01*
X246197200Y-179971485D01*
X246268628Y-179828628D01*
X246340057Y-179757200D01*
X246482914Y-179685771D01*
X246768628Y-179685771D01*
X246911485Y-179757200D01*
X247554342Y-180685771D02*
X247554342Y-179685771D01*
X247554342Y-179971485D02*
X247625771Y-179828628D01*
X247697200Y-179757200D01*
X247840057Y-179685771D01*
X247982914Y-179685771D01*
X248697200Y-180685771D02*
X248554342Y-180614342D01*
X248482914Y-180542914D01*
X248411485Y-180400057D01*
X248411485Y-179971485D01*
X248482914Y-179828628D01*
X248554342Y-179757200D01*
X248697200Y-179685771D01*
X248911485Y-179685771D01*
X249054342Y-179757200D01*
X249125771Y-179828628D01*
X249197200Y-179971485D01*
X249197200Y-180400057D01*
X249125771Y-180542914D01*
X249054342Y-180614342D01*
X248911485Y-180685771D01*
X248697200Y-180685771D01*
X250840057Y-179685771D02*
X251197200Y-180685771D01*
X251554342Y-179685771D02*
X251197200Y-180685771D01*
X251054342Y-181042914D01*
X250982914Y-181114342D01*
X250840057Y-181185771D01*
X253268628Y-180685771D02*
X253268628Y-179185771D01*
X254125771Y-180685771D01*
X254125771Y-179185771D01*
X255482914Y-180685771D02*
X255482914Y-179900057D01*
X255411485Y-179757200D01*
X255268628Y-179685771D01*
X254982914Y-179685771D01*
X254840057Y-179757200D01*
X255482914Y-180614342D02*
X255340057Y-180685771D01*
X254982914Y-180685771D01*
X254840057Y-180614342D01*
X254768628Y-180471485D01*
X254768628Y-180328628D01*
X254840057Y-180185771D01*
X254982914Y-180114342D01*
X255340057Y-180114342D01*
X255482914Y-180042914D01*
X256197200Y-179685771D02*
X256197200Y-180685771D01*
X256197200Y-179828628D02*
X256268628Y-179757200D01*
X256411485Y-179685771D01*
X256625771Y-179685771D01*
X256768628Y-179757200D01*
X256840057Y-179900057D01*
X256840057Y-180685771D01*
X257768628Y-180685771D02*
X257625771Y-180614342D01*
X257554342Y-180542914D01*
X257482914Y-180400057D01*
X257482914Y-179971485D01*
X257554342Y-179828628D01*
X257625771Y-179757200D01*
X257768628Y-179685771D01*
X257982914Y-179685771D01*
X258125771Y-179757200D01*
X258197200Y-179828628D01*
X258268628Y-179971485D01*
X258268628Y-180400057D01*
X258197200Y-180542914D01*
X258125771Y-180614342D01*
X257982914Y-180685771D01*
X257768628Y-180685771D01*
X259482914Y-180614342D02*
X259340057Y-180685771D01*
X259054342Y-180685771D01*
X258911485Y-180614342D01*
X258840057Y-180471485D01*
X258840057Y-179900057D01*
X258911485Y-179757200D01*
X259054342Y-179685771D01*
X259340057Y-179685771D01*
X259482914Y-179757200D01*
X259554342Y-179900057D01*
X259554342Y-180042914D01*
X258840057Y-180185771D01*
X260411485Y-180685771D02*
X260268628Y-180614342D01*
X260197200Y-180471485D01*
X260197200Y-179185771D01*
X261554342Y-180614342D02*
X261411485Y-180685771D01*
X261125771Y-180685771D01*
X260982914Y-180614342D01*
X260911485Y-180471485D01*
X260911485Y-179900057D01*
X260982914Y-179757200D01*
X261125771Y-179685771D01*
X261411485Y-179685771D01*
X261554342Y-179757200D01*
X261625771Y-179900057D01*
X261625771Y-180042914D01*
X260911485Y-180185771D01*
X262911485Y-180614342D02*
X262768628Y-180685771D01*
X262482914Y-180685771D01*
X262340057Y-180614342D01*
X262268628Y-180542914D01*
X262197200Y-180400057D01*
X262197200Y-179971485D01*
X262268628Y-179828628D01*
X262340057Y-179757200D01*
X262482914Y-179685771D01*
X262768628Y-179685771D01*
X262911485Y-179757200D01*
X263340057Y-179685771D02*
X263911485Y-179685771D01*
X263554342Y-179185771D02*
X263554342Y-180471485D01*
X263625771Y-180614342D01*
X263768628Y-180685771D01*
X263911485Y-180685771D01*
X264411485Y-180685771D02*
X264411485Y-179685771D01*
X264411485Y-179971485D02*
X264482914Y-179828628D01*
X264554342Y-179757200D01*
X264697200Y-179685771D01*
X264840057Y-179685771D01*
X265554342Y-180685771D02*
X265411485Y-180614342D01*
X265340057Y-180542914D01*
X265268628Y-180400057D01*
X265268628Y-179971485D01*
X265340057Y-179828628D01*
X265411485Y-179757200D01*
X265554342Y-179685771D01*
X265768628Y-179685771D01*
X265911485Y-179757200D01*
X265982914Y-179828628D01*
X266054342Y-179971485D01*
X266054342Y-180400057D01*
X265982914Y-180542914D01*
X265911485Y-180614342D01*
X265768628Y-180685771D01*
X265554342Y-180685771D01*
X265840057Y-179114342D02*
X265625771Y-179328628D01*
X266697200Y-179685771D02*
X266697200Y-180685771D01*
X266697200Y-179828628D02*
X266768628Y-179757200D01*
X266911485Y-179685771D01*
X267125771Y-179685771D01*
X267268628Y-179757200D01*
X267340057Y-179900057D01*
X267340057Y-180685771D01*
X268054342Y-180685771D02*
X268054342Y-179685771D01*
X268054342Y-179185771D02*
X267982914Y-179257200D01*
X268054342Y-179328628D01*
X268125771Y-179257200D01*
X268054342Y-179185771D01*
X268054342Y-179328628D01*
X269411485Y-180614342D02*
X269268628Y-180685771D01*
X268982914Y-180685771D01*
X268840057Y-180614342D01*
X268768628Y-180542914D01*
X268697200Y-180400057D01*
X268697200Y-179971485D01*
X268768628Y-179828628D01*
X268840057Y-179757200D01*
X268982914Y-179685771D01*
X269268628Y-179685771D01*
X269411485Y-179757200D01*
X270697200Y-180685771D02*
X270697200Y-179900057D01*
X270625771Y-179757200D01*
X270482914Y-179685771D01*
X270197200Y-179685771D01*
X270054342Y-179757200D01*
X270697200Y-180614342D02*
X270554342Y-180685771D01*
X270197200Y-180685771D01*
X270054342Y-180614342D01*
X269982914Y-180471485D01*
X269982914Y-180328628D01*
X270054342Y-180185771D01*
X270197200Y-180114342D01*
X270554342Y-180114342D01*
X270697200Y-180042914D01*
D10*
D11*
X178362914Y-177257200D02*
X179077200Y-177257200D01*
X178220057Y-177685771D02*
X178720057Y-176185771D01*
X179220057Y-177685771D01*
X180362914Y-176685771D02*
X180362914Y-177685771D01*
X179720057Y-176685771D02*
X179720057Y-177471485D01*
X179791485Y-177614342D01*
X179934342Y-177685771D01*
X180148628Y-177685771D01*
X180291485Y-177614342D01*
X180362914Y-177542914D01*
X180862914Y-176685771D02*
X181434342Y-176685771D01*
X181077200Y-176185771D02*
X181077200Y-177471485D01*
X181148628Y-177614342D01*
X181291485Y-177685771D01*
X181434342Y-177685771D01*
X181934342Y-177685771D02*
X181934342Y-176185771D01*
X182577200Y-177685771D02*
X182577200Y-176900057D01*
X182505771Y-176757200D01*
X182362914Y-176685771D01*
X182148628Y-176685771D01*
X182005771Y-176757200D01*
X181934342Y-176828628D01*
X183505771Y-177685771D02*
X183362914Y-177614342D01*
X183291485Y-177542914D01*
X183220057Y-177400057D01*
X183220057Y-176971485D01*
X183291485Y-176828628D01*
X183362914Y-176757200D01*
X183505771Y-176685771D01*
X183720057Y-176685771D01*
X183862914Y-176757200D01*
X183934342Y-176828628D01*
X184005771Y-176971485D01*
X184005771Y-177400057D01*
X183934342Y-177542914D01*
X183862914Y-177614342D01*
X183720057Y-177685771D01*
X183505771Y-177685771D01*
X184648628Y-177685771D02*
X184648628Y-176685771D01*
X184648628Y-176971485D02*
X184720057Y-176828628D01*
X184791485Y-176757200D01*
X184934342Y-176685771D01*
X185077200Y-176685771D01*
X185505771Y-177614342D02*
X185648628Y-177685771D01*
X185934342Y-177685771D01*
X186077200Y-177614342D01*
X186148628Y-177471485D01*
X186148628Y-177400057D01*
X186077200Y-177257200D01*
X185934342Y-177185771D01*
X185720057Y-177185771D01*
X185577200Y-177114342D01*
X185505771Y-176971485D01*
X185505771Y-176900057D01*
X185577200Y-176757200D01*
X185720057Y-176685771D01*
X185934342Y-176685771D01*
X186077200Y-176757200D01*
X186791485Y-177542914D02*
X186862914Y-177614342D01*
X186791485Y-177685771D01*
X186720057Y-177614342D01*
X186791485Y-177542914D01*
X186791485Y-177685771D01*
X186791485Y-176757200D02*
X186862914Y-176828628D01*
X186791485Y-176900057D01*
X186720057Y-176828628D01*
X186791485Y-176757200D01*
X186791485Y-176900057D01*
X188577200Y-177614342D02*
X188791485Y-177685771D01*
X189148628Y-177685771D01*
X189291485Y-177614342D01*
X189362914Y-177542914D01*
X189434342Y-177400057D01*
X189434342Y-177257200D01*
X189362914Y-177114342D01*
X189291485Y-177042914D01*
X189148628Y-176971485D01*
X188862914Y-176900057D01*
X188720057Y-176828628D01*
X188648628Y-176757200D01*
X188577200Y-176614342D01*
X188577200Y-176471485D01*
X188648628Y-176328628D01*
X188720057Y-176257200D01*
X188862914Y-176185771D01*
X189220057Y-176185771D01*
X189434342Y-176257200D01*
X190648628Y-177614342D02*
X190505771Y-177685771D01*
X190220057Y-177685771D01*
X190077200Y-177614342D01*
X190005771Y-177471485D01*
X190005771Y-176900057D01*
X190077200Y-176757200D01*
X190220057Y-176685771D01*
X190505771Y-176685771D01*
X190648628Y-176757200D01*
X190720057Y-176900057D01*
X190720057Y-177042914D01*
X190005771Y-177185771D01*
X191934342Y-177614342D02*
X191791485Y-177685771D01*
X191505771Y-177685771D01*
X191362914Y-177614342D01*
X191291485Y-177471485D01*
X191291485Y-176900057D01*
X191362914Y-176757200D01*
X191505771Y-176685771D01*
X191791485Y-176685771D01*
X191934342Y-176757200D01*
X192005771Y-176900057D01*
X192005771Y-177042914D01*
X191291485Y-177185771D01*
X193862914Y-176185771D02*
X193720057Y-176471485D01*
X195148628Y-177685771D02*
X195148628Y-176185771D01*
X195148628Y-177614342D02*
X195005771Y-177685771D01*
X194720057Y-177685771D01*
X194577200Y-177614342D01*
X194505771Y-177542914D01*
X194434342Y-177400057D01*
X194434342Y-176971485D01*
X194505771Y-176828628D01*
X194577200Y-176757200D01*
X194720057Y-176685771D01*
X195005771Y-176685771D01*
X195148628Y-176757200D01*
X196077200Y-177685771D02*
X195934342Y-177614342D01*
X195862914Y-177542914D01*
X195791485Y-177400057D01*
X195791485Y-176971485D01*
X195862914Y-176828628D01*
X195934342Y-176757200D01*
X196077200Y-176685771D01*
X196291485Y-176685771D01*
X196434342Y-176757200D01*
X196505771Y-176828628D01*
X196577200Y-176971485D01*
X196577200Y-177400057D01*
X196505771Y-177542914D01*
X196434342Y-177614342D01*
X196291485Y-177685771D01*
X196077200Y-177685771D01*
X197862914Y-177614342D02*
X197720057Y-177685771D01*
X197434342Y-177685771D01*
X197291485Y-177614342D01*
X197220057Y-177542914D01*
X197148628Y-177400057D01*
X197148628Y-176971485D01*
X197220057Y-176828628D01*
X197291485Y-176757200D01*
X197434342Y-176685771D01*
X197720057Y-176685771D01*
X197862914Y-176757200D01*
X199577200Y-176114342D02*
X198291485Y-178042914D01*
X200934342Y-177542914D02*
X200862914Y-177614342D01*
X200648628Y-177685771D01*
X200505771Y-177685771D01*
X200291485Y-177614342D01*
X200148628Y-177471485D01*
X200077200Y-177328628D01*
X200005771Y-177042914D01*
X200005771Y-176828628D01*
X200077200Y-176542914D01*
X200148628Y-176400057D01*
X200291485Y-176257200D01*
X200505771Y-176185771D01*
X200648628Y-176185771D01*
X200862914Y-176257200D01*
X200934342Y-176328628D01*
X201577200Y-177685771D02*
X201577200Y-176185771D01*
X201577200Y-176900057D02*
X202434342Y-176900057D01*
X202434342Y-177685771D02*
X202434342Y-176185771D01*
X203077200Y-177257200D02*
X203791485Y-177257200D01*
X202934342Y-177685771D02*
X203434342Y-176185771D01*
X203934342Y-177685771D01*
X204434342Y-177685771D02*
X204434342Y-176185771D01*
X205291485Y-177685771D01*
X205291485Y-176185771D01*
X206791485Y-176257200D02*
X206648628Y-176185771D01*
X206434342Y-176185771D01*
X206220057Y-176257200D01*
X206077200Y-176400057D01*
X206005771Y-176542914D01*
X205934342Y-176828628D01*
X205934342Y-177042914D01*
X206005771Y-177328628D01*
X206077200Y-177471485D01*
X206220057Y-177614342D01*
X206434342Y-177685771D01*
X206577200Y-177685771D01*
X206791485Y-177614342D01*
X206862914Y-177542914D01*
X206862914Y-177042914D01*
X206577200Y-177042914D01*
X207505771Y-176900057D02*
X208005771Y-176900057D01*
X208220057Y-177685771D02*
X207505771Y-177685771D01*
X207505771Y-176185771D01*
X208220057Y-176185771D01*
X208791485Y-177614342D02*
X209005771Y-177685771D01*
X209362914Y-177685771D01*
X209505771Y-177614342D01*
X209577200Y-177542914D01*
X209648628Y-177400057D01*
X209648628Y-177257200D01*
X209577200Y-177114342D01*
X209505771Y-177042914D01*
X209362914Y-176971485D01*
X209077200Y-176900057D01*
X208934342Y-176828628D01*
X208862914Y-176757200D01*
X208791485Y-176614342D01*
X208791485Y-176471485D01*
X208862914Y-176328628D01*
X208934342Y-176257200D01*
X209077200Y-176185771D01*
X209434342Y-176185771D01*
X209648628Y-176257200D01*
X210291485Y-177542914D02*
X210362914Y-177614342D01*
X210291485Y-177685771D01*
X210220057Y-177614342D01*
X210291485Y-177542914D01*
X210291485Y-177685771D01*
X210791485Y-176685771D02*
X211362914Y-176685771D01*
X211005771Y-176185771D02*
X211005771Y-177471485D01*
X211077200Y-177614342D01*
X211220057Y-177685771D01*
X211362914Y-177685771D01*
X211720057Y-177685771D02*
X212505771Y-176685771D01*
X211720057Y-176685771D02*
X212505771Y-177685771D01*
X212862914Y-176685771D02*
X213434342Y-176685771D01*
X213077200Y-176185771D02*
X213077200Y-177471485D01*
X213148628Y-177614342D01*
X213291485Y-177685771D01*
X213434342Y-177685771D01*
X214005771Y-176185771D02*
X213862914Y-176471485D01*
X215577200Y-176685771D02*
X216148628Y-176685771D01*
X215791485Y-177685771D02*
X215791485Y-176400057D01*
X215862914Y-176257200D01*
X216005771Y-176185771D01*
X216148628Y-176185771D01*
X216648628Y-177685771D02*
X216648628Y-176685771D01*
X216648628Y-176185771D02*
X216577200Y-176257200D01*
X216648628Y-176328628D01*
X216720057Y-176257200D01*
X216648628Y-176185771D01*
X216648628Y-176328628D01*
X217577200Y-177685771D02*
X217434342Y-177614342D01*
X217362914Y-177471485D01*
X217362914Y-176185771D01*
X218720057Y-177614342D02*
X218577200Y-177685771D01*
X218291485Y-177685771D01*
X218148628Y-177614342D01*
X218077200Y-177471485D01*
X218077200Y-176900057D01*
X218148628Y-176757200D01*
X218291485Y-176685771D01*
X218577200Y-176685771D01*
X218720057Y-176757200D01*
X218791485Y-176900057D01*
X218791485Y-177042914D01*
X218077200Y-177185771D01*
X219434342Y-177542914D02*
X219505771Y-177614342D01*
X219434342Y-177685771D01*
X219362914Y-177614342D01*
X219434342Y-177542914D01*
X219434342Y-177685771D01*
X227720057Y-177685771D02*
X227005771Y-177685771D01*
X227005771Y-176185771D01*
X228220057Y-177685771D02*
X228220057Y-176685771D01*
X228220057Y-176185771D02*
X228148628Y-176257200D01*
X228220057Y-176328628D01*
X228291485Y-176257200D01*
X228220057Y-176185771D01*
X228220057Y-176328628D01*
X229577200Y-177614342D02*
X229434342Y-177685771D01*
X229148628Y-177685771D01*
X229005771Y-177614342D01*
X228934342Y-177542914D01*
X228862914Y-177400057D01*
X228862914Y-176971485D01*
X228934342Y-176828628D01*
X229005771Y-176757200D01*
X229148628Y-176685771D01*
X229434342Y-176685771D01*
X229577200Y-176757200D01*
X230791485Y-177614342D02*
X230648628Y-177685771D01*
X230362914Y-177685771D01*
X230220057Y-177614342D01*
X230148628Y-177471485D01*
X230148628Y-176900057D01*
X230220057Y-176757200D01*
X230362914Y-176685771D01*
X230648628Y-176685771D01*
X230791485Y-176757200D01*
X230862914Y-176900057D01*
X230862914Y-177042914D01*
X230148628Y-177185771D01*
X231505771Y-176685771D02*
X231505771Y-177685771D01*
X231505771Y-176828628D02*
X231577200Y-176757200D01*
X231720057Y-176685771D01*
X231934342Y-176685771D01*
X232077200Y-176757200D01*
X232148628Y-176900057D01*
X232148628Y-177685771D01*
X232791485Y-177614342D02*
X232934342Y-177685771D01*
X233220057Y-177685771D01*
X233362914Y-177614342D01*
X233434342Y-177471485D01*
X233434342Y-177400057D01*
X233362914Y-177257200D01*
X233220057Y-177185771D01*
X233005771Y-177185771D01*
X232862914Y-177114342D01*
X232791485Y-176971485D01*
X232791485Y-176900057D01*
X232862914Y-176757200D01*
X233005771Y-176685771D01*
X233220057Y-176685771D01*
X233362914Y-176757200D01*
X234648628Y-177614342D02*
X234505771Y-177685771D01*
X234220057Y-177685771D01*
X234077200Y-177614342D01*
X234005771Y-177471485D01*
X234005771Y-176900057D01*
X234077200Y-176757200D01*
X234220057Y-176685771D01*
X234505771Y-176685771D01*
X234648628Y-176757200D01*
X234720057Y-176900057D01*
X234720057Y-177042914D01*
X234005771Y-177185771D01*
X235362914Y-177542914D02*
X235434342Y-177614342D01*
X235362914Y-177685771D01*
X235291485Y-177614342D01*
X235362914Y-177542914D01*
X235362914Y-177685771D01*
X235362914Y-176757200D02*
X235434342Y-176828628D01*
X235362914Y-176900057D01*
X235291485Y-176828628D01*
X235362914Y-176757200D01*
X235362914Y-176900057D01*
X237148628Y-177614342D02*
X237362914Y-177685771D01*
X237720057Y-177685771D01*
X237862914Y-177614342D01*
X237934342Y-177542914D01*
X238005771Y-177400057D01*
X238005771Y-177257200D01*
X237934342Y-177114342D01*
X237862914Y-177042914D01*
X237720057Y-176971485D01*
X237434342Y-176900057D01*
X237291485Y-176828628D01*
X237220057Y-176757200D01*
X237148628Y-176614342D01*
X237148628Y-176471485D01*
X237220057Y-176328628D01*
X237291485Y-176257200D01*
X237434342Y-176185771D01*
X237791485Y-176185771D01*
X238005771Y-176257200D01*
X239220057Y-177614342D02*
X239077200Y-177685771D01*
X238791485Y-177685771D01*
X238648628Y-177614342D01*
X238577200Y-177471485D01*
X238577200Y-176900057D01*
X238648628Y-176757200D01*
X238791485Y-176685771D01*
X239077200Y-176685771D01*
X239220057Y-176757200D01*
X239291485Y-176900057D01*
X239291485Y-177042914D01*
X238577200Y-177185771D01*
X240505771Y-177614342D02*
X240362914Y-177685771D01*
X240077200Y-177685771D01*
X239934342Y-177614342D01*
X239862914Y-177471485D01*
X239862914Y-176900057D01*
X239934342Y-176757200D01*
X240077200Y-176685771D01*
X240362914Y-176685771D01*
X240505771Y-176757200D01*
X240577200Y-176900057D01*
X240577200Y-177042914D01*
X239862914Y-177185771D01*
X242434342Y-176185771D02*
X242291485Y-176471485D01*
X243720057Y-177685771D02*
X243720057Y-176185771D01*
X243720057Y-177614342D02*
X243577200Y-177685771D01*
X243291485Y-177685771D01*
X243148628Y-177614342D01*
X243077200Y-177542914D01*
X243005771Y-177400057D01*
X243005771Y-176971485D01*
X243077200Y-176828628D01*
X243148628Y-176757200D01*
X243291485Y-176685771D01*
X243577200Y-176685771D01*
X243720057Y-176757200D01*
X244648628Y-177685771D02*
X244505771Y-177614342D01*
X244434342Y-177542914D01*
X244362914Y-177400057D01*
X244362914Y-176971485D01*
X244434342Y-176828628D01*
X244505771Y-176757200D01*
X244648628Y-176685771D01*
X244862914Y-176685771D01*
X245005771Y-176757200D01*
X245077200Y-176828628D01*
X245148628Y-176971485D01*
X245148628Y-177400057D01*
X245077200Y-177542914D01*
X245005771Y-177614342D01*
X244862914Y-177685771D01*
X244648628Y-177685771D01*
X246434342Y-177614342D02*
X246291485Y-177685771D01*
X246005771Y-177685771D01*
X245862914Y-177614342D01*
X245791485Y-177542914D01*
X245720057Y-177400057D01*
X245720057Y-176971485D01*
X245791485Y-176828628D01*
X245862914Y-176757200D01*
X246005771Y-176685771D01*
X246291485Y-176685771D01*
X246434342Y-176757200D01*
X248148628Y-176114342D02*
X246862914Y-178042914D01*
X249362914Y-177685771D02*
X248648628Y-177685771D01*
X248648628Y-176185771D01*
X249862914Y-177685771D02*
X249862914Y-176185771D01*
X251434342Y-177542914D02*
X251362914Y-177614342D01*
X251148628Y-177685771D01*
X251005771Y-177685771D01*
X250791485Y-177614342D01*
X250648628Y-177471485D01*
X250577200Y-177328628D01*
X250505771Y-177042914D01*
X250505771Y-176828628D01*
X250577200Y-176542914D01*
X250648628Y-176400057D01*
X250791485Y-176257200D01*
X251005771Y-176185771D01*
X251148628Y-176185771D01*
X251362914Y-176257200D01*
X251434342Y-176328628D01*
X252077200Y-176900057D02*
X252577200Y-176900057D01*
X252791485Y-177685771D02*
X252077200Y-177685771D01*
X252077200Y-176185771D01*
X252791485Y-176185771D01*
X253434342Y-177685771D02*
X253434342Y-176185771D01*
X254291485Y-177685771D01*
X254291485Y-176185771D01*
X255862914Y-177542914D02*
X255791485Y-177614342D01*
X255577200Y-177685771D01*
X255434342Y-177685771D01*
X255220057Y-177614342D01*
X255077200Y-177471485D01*
X255005771Y-177328628D01*
X254934342Y-177042914D01*
X254934342Y-176828628D01*
X255005771Y-176542914D01*
X255077200Y-176400057D01*
X255220057Y-176257200D01*
X255434342Y-176185771D01*
X255577200Y-176185771D01*
X255791485Y-176257200D01*
X255862914Y-176328628D01*
X256505771Y-177685771D02*
X256505771Y-176185771D01*
X257148628Y-177257200D02*
X257862914Y-177257200D01*
X257005771Y-177685771D02*
X257505771Y-176185771D01*
X258005771Y-177685771D01*
X258148628Y-177828628D02*
X259291485Y-177828628D01*
X260505771Y-177542914D02*
X260434342Y-177614342D01*
X260220057Y-177685771D01*
X260077200Y-177685771D01*
X259862914Y-177614342D01*
X259720057Y-177471485D01*
X259648628Y-177328628D01*
X259577200Y-177042914D01*
X259577200Y-176828628D01*
X259648628Y-176542914D01*
X259720057Y-176400057D01*
X259862914Y-176257200D01*
X260077200Y-176185771D01*
X260220057Y-176185771D01*
X260434342Y-176257200D01*
X260505771Y-176328628D01*
X261148628Y-177685771D02*
X261148628Y-176185771D01*
X261791485Y-177257200D02*
X262505771Y-177257200D01*
X261648628Y-177685771D02*
X262148628Y-176185771D01*
X262648628Y-177685771D01*
X263077200Y-177257200D02*
X263791485Y-177257200D01*
X262934342Y-177685771D02*
X263434342Y-176185771D01*
X263934342Y-177685771D01*
X264077200Y-177828628D02*
X265220057Y-177828628D01*
X265505771Y-177257200D02*
X266220057Y-177257200D01*
X265362914Y-177685771D02*
X265862914Y-176185771D01*
X266362914Y-177685771D01*
X267720057Y-177542914D02*
X267648628Y-177614342D01*
X267434342Y-177685771D01*
X267291485Y-177685771D01*
X267077200Y-177614342D01*
X266934342Y-177471485D01*
X266862914Y-177328628D01*
X266791485Y-177042914D01*
X266791485Y-176828628D01*
X266862914Y-176542914D01*
X266934342Y-176400057D01*
X267077200Y-176257200D01*
X267291485Y-176185771D01*
X267434342Y-176185771D01*
X267648628Y-176257200D01*
X267720057Y-176328628D01*
X269220057Y-177542914D02*
X269148628Y-177614342D01*
X268934342Y-177685771D01*
X268791485Y-177685771D01*
X268577200Y-177614342D01*
X268434342Y-177471485D01*
X268362914Y-177328628D01*
X268291485Y-177042914D01*
X268291485Y-176828628D01*
X268362914Y-176542914D01*
X268434342Y-176400057D01*
X268577200Y-176257200D01*
X268791485Y-176185771D01*
X268934342Y-176185771D01*
X269148628Y-176257200D01*
X269220057Y-176328628D01*
X269862914Y-177542914D02*
X269934342Y-177614342D01*
X269862914Y-177685771D01*
X269791485Y-177614342D01*
X269862914Y-177542914D01*
X269862914Y-177685771D01*
X270362914Y-176685771D02*
X270934342Y-176685771D01*
X270577200Y-176185771D02*
X270577200Y-177471485D01*
X270648628Y-177614342D01*
X270791485Y-177685771D01*
X270934342Y-177685771D01*
X271291485Y-177685771D02*
X272077200Y-176685771D01*
X271291485Y-176685771D02*
X272077200Y-177685771D01*
X272434342Y-176685771D02*
X273005771Y-176685771D01*
X272648628Y-176185771D02*
X272648628Y-177471485D01*
X272720057Y-177614342D01*
X272862914Y-177685771D01*
X273005771Y-177685771D01*
X273577200Y-176185771D02*
X273434342Y-176471485D01*
X275148628Y-176685771D02*
X275720057Y-176685771D01*
X275362914Y-177685771D02*
X275362914Y-176400057D01*
X275434342Y-176257200D01*
X275577200Y-176185771D01*
X275720057Y-176185771D01*
X276220057Y-177685771D02*
X276220057Y-176685771D01*
X276220057Y-176185771D02*
X276148628Y-176257200D01*
X276220057Y-176328628D01*
X276291485Y-176257200D01*
X276220057Y-176185771D01*
X276220057Y-176328628D01*
X277148628Y-177685771D02*
X277005771Y-177614342D01*
X276934342Y-177471485D01*
X276934342Y-176185771D01*
X278291485Y-177614342D02*
X278148628Y-177685771D01*
X277862914Y-177685771D01*
X277720057Y-177614342D01*
X277648628Y-177471485D01*
X277648628Y-176900057D01*
X277720057Y-176757200D01*
X277862914Y-176685771D01*
X278148628Y-176685771D01*
X278291485Y-176757200D01*
X278362914Y-176900057D01*
X278362914Y-177042914D01*
X277648628Y-177185771D01*
X279005771Y-177542914D02*
X279077200Y-177614342D01*
X279005771Y-177685771D01*
X278934342Y-177614342D01*
X279005771Y-177542914D01*
X279005771Y-177685771D01*
D10*
D11*
X197002200Y-191507200D02*
X197002200Y-194507200D01*
D10*
D11*
X261002200Y-191507200D02*
X261002200Y-198007200D01*
X87693500Y-120170000D02*
X30000000Y-120170000D01*
X104775000Y-120170000D02*
X125890000Y-120170000D01*
X87693500Y-109791500D02*
X87693500Y-120170000D01*
X104775000Y-109791500D02*
X87693500Y-109791500D01*
X104775000Y-120170000D02*
X104775000Y-109791500D01*
X30000000Y-120170000D02*
X30000000Y-30000000D01*
X125890000Y-30000000D02*
X125890000Y-120170000D01*
X30000000Y-30000000D02*
X125890000Y-30000000D01*
M02*
