*
%FSLAX26Y26*%
%MOIN*%
%ADD10C,0.015717*%
%ADD11R,0.007843X0.007843*%
%ADD12R,0.042094X0.042094*%
%ADD13R,0.040520X0.040520*%
%ADD14R,0.037370X0.037370*%
%ADD15R,0.009024X0.009024*%
%ADD16R,0.017685X0.017685*%
%ADD17R,0.021000X0.021000*%
%ADD18R,0.029496X0.029496*%
%ADD19R,0.014000X0.014000*%
%ADD20R,0.018000X0.018000*%
%ADD21R,0.009811X0.009811*%
%ADD22R,0.013748X0.013748*%
%ADD23R,0.060992X0.060992*%
%ADD24R,0.068866X0.068866*%
%ADD25R,0.072803X0.072803*%
%ADD26R,0.055087X0.055087*%
%ADD27R,0.033400X0.033400*%
%ADD28R,0.053118X0.053118*%
%ADD29C,0.028000*%
%ADD30R,0.029000X0.029000*%
%ADD31R,0.021622X0.021622*%
%ADD32R,0.015717X0.015717*%
%ADD33R,0.008630X0.008630*%
%ADD34R,0.032449X0.032449*%
%ADD35R,0.027528X0.027528*%
%ADD36R,0.019260X0.019260*%
%ADD37R,0.025559X0.025559*%
%ADD38R,0.057843X0.057843*%
%ADD39R,0.023591X0.023591*%
%ADD40R,0.039370X0.039370*%
%ADD41R,0.020047X0.020047*%
%ADD42C,0.023000*%
%ADD43R,0.027134X0.027134*%
%ADD44C,0.010000*%
%IPPOS*%
%LNciaa_acc-f.paste.gbr*%
%LPD*%
G75*
G54D10*
X02507874Y-03232283D03*
Y-03192913D03*
Y-03153543D03*
Y-03114173D03*
Y-03074803D03*
Y-03035433D03*
Y-02996063D03*
Y-02956693D03*
Y-02917323D03*
Y-02877953D03*
Y-02838583D03*
Y-02799213D03*
Y-02759843D03*
Y-02720472D03*
Y-02681102D03*
Y-02641732D03*
Y-02602362D03*
Y-02562992D03*
Y-02523622D03*
Y-02484252D03*
Y-02444882D03*
Y-02405512D03*
Y-02366142D03*
Y-02326772D03*
Y-02287402D03*
Y-02248031D03*
X02547244Y-03232283D03*
Y-03192913D03*
Y-03153543D03*
Y-03114173D03*
Y-03074803D03*
Y-03035433D03*
Y-02996063D03*
Y-02956693D03*
Y-02917323D03*
Y-02877953D03*
Y-02838583D03*
Y-02799213D03*
Y-02759843D03*
Y-02720472D03*
Y-02681102D03*
Y-02641732D03*
Y-02602362D03*
Y-02562992D03*
Y-02523622D03*
Y-02484252D03*
Y-02444882D03*
Y-02405512D03*
Y-02366142D03*
Y-02326772D03*
Y-02287402D03*
Y-02248031D03*
X02586614Y-03232283D03*
Y-03192913D03*
Y-03153543D03*
Y-03114173D03*
Y-03074803D03*
Y-03035433D03*
Y-02996063D03*
Y-02956693D03*
Y-02917323D03*
Y-02877953D03*
Y-02838583D03*
Y-02799213D03*
Y-02759843D03*
Y-02720472D03*
Y-02681102D03*
Y-02641732D03*
Y-02602362D03*
Y-02562992D03*
Y-02523622D03*
Y-02484252D03*
Y-02444882D03*
Y-02405512D03*
Y-02366142D03*
Y-02326772D03*
Y-02287402D03*
Y-02248031D03*
X02625984Y-03232283D03*
Y-03192913D03*
Y-03153543D03*
Y-03114173D03*
Y-03074803D03*
Y-03035433D03*
Y-02996063D03*
Y-02956693D03*
Y-02917323D03*
Y-02877953D03*
Y-02838583D03*
Y-02799213D03*
Y-02759843D03*
Y-02720472D03*
Y-02681102D03*
Y-02641732D03*
Y-02602362D03*
Y-02562992D03*
Y-02523622D03*
Y-02484252D03*
Y-02444882D03*
Y-02405512D03*
Y-02366142D03*
Y-02326772D03*
Y-02287402D03*
Y-02248031D03*
X02665354Y-03232283D03*
Y-03192913D03*
Y-03153543D03*
Y-03114173D03*
Y-03074803D03*
Y-03035433D03*
Y-02996063D03*
Y-02956693D03*
Y-02917323D03*
Y-02877953D03*
Y-02838583D03*
Y-02799213D03*
Y-02759843D03*
Y-02720472D03*
Y-02681102D03*
Y-02641732D03*
Y-02602362D03*
Y-02562992D03*
Y-02523622D03*
Y-02484252D03*
Y-02444882D03*
Y-02405512D03*
Y-02366142D03*
Y-02326772D03*
Y-02287402D03*
Y-02248031D03*
X02704724Y-03232283D03*
Y-03192913D03*
Y-03153543D03*
Y-03114173D03*
Y-03074803D03*
Y-03035433D03*
Y-02996063D03*
Y-02956693D03*
Y-02917323D03*
Y-02877953D03*
Y-02838583D03*
Y-02799213D03*
Y-02759843D03*
Y-02720472D03*
Y-02681102D03*
Y-02641732D03*
Y-02602362D03*
Y-02562992D03*
Y-02523622D03*
Y-02484252D03*
Y-02444882D03*
Y-02405512D03*
Y-02366142D03*
Y-02326772D03*
Y-02287402D03*
Y-02248031D03*
X02744094Y-03232283D03*
Y-03192913D03*
Y-03153543D03*
Y-03114173D03*
Y-03074803D03*
Y-03035433D03*
Y-02996063D03*
Y-02956693D03*
Y-02917323D03*
Y-02877953D03*
Y-02838583D03*
Y-02799213D03*
Y-02759843D03*
Y-02720472D03*
Y-02681102D03*
Y-02641732D03*
Y-02602362D03*
Y-02562992D03*
Y-02523622D03*
Y-02484252D03*
Y-02444882D03*
Y-02405512D03*
Y-02366142D03*
Y-02326772D03*
Y-02287402D03*
Y-02248031D03*
X02783465Y-03232283D03*
Y-03192913D03*
Y-03153543D03*
Y-03114173D03*
Y-03074803D03*
Y-03035433D03*
Y-02996063D03*
Y-02956693D03*
Y-02917323D03*
Y-02877953D03*
Y-02838583D03*
Y-02799213D03*
Y-02759843D03*
Y-02720472D03*
Y-02681102D03*
Y-02641732D03*
Y-02602362D03*
Y-02562992D03*
Y-02523622D03*
Y-02484252D03*
Y-02444882D03*
Y-02405512D03*
Y-02366142D03*
Y-02326772D03*
Y-02287402D03*
Y-02248031D03*
X02822835Y-03232283D03*
Y-03192913D03*
Y-03153543D03*
Y-03114173D03*
Y-03074803D03*
Y-03035433D03*
Y-02996063D03*
Y-02956693D03*
Y-02917323D03*
Y-02877953D03*
Y-02838583D03*
Y-02799213D03*
Y-02759843D03*
Y-02720472D03*
Y-02681102D03*
Y-02641732D03*
Y-02602362D03*
Y-02562992D03*
Y-02523622D03*
Y-02484252D03*
Y-02444882D03*
Y-02405512D03*
Y-02366142D03*
Y-02326772D03*
Y-02287402D03*
Y-02248031D03*
X02862205Y-03232283D03*
Y-03192913D03*
Y-03153543D03*
Y-03114173D03*
Y-03074803D03*
Y-03035433D03*
Y-02996063D03*
Y-02956693D03*
Y-02917323D03*
Y-02877953D03*
Y-02838583D03*
Y-02799213D03*
Y-02759843D03*
Y-02720472D03*
Y-02681102D03*
Y-02641732D03*
Y-02602362D03*
Y-02562992D03*
Y-02523622D03*
Y-02484252D03*
Y-02444882D03*
Y-02405512D03*
Y-02366142D03*
Y-02326772D03*
Y-02287402D03*
Y-02248031D03*
X02901575Y-03232283D03*
Y-03192913D03*
Y-03153543D03*
Y-03114173D03*
Y-03074803D03*
Y-03035433D03*
Y-02996063D03*
Y-02956693D03*
Y-02917323D03*
Y-02877953D03*
Y-02838583D03*
Y-02799213D03*
Y-02759843D03*
Y-02720472D03*
Y-02681102D03*
Y-02641732D03*
Y-02602362D03*
Y-02562992D03*
Y-02523622D03*
Y-02484252D03*
Y-02444882D03*
Y-02405512D03*
Y-02366142D03*
Y-02326772D03*
Y-02287402D03*
Y-02248031D03*
X02940945Y-03232283D03*
Y-03192913D03*
Y-03153543D03*
Y-03114173D03*
Y-03074803D03*
Y-03035433D03*
Y-02996063D03*
Y-02956693D03*
Y-02917323D03*
Y-02877953D03*
Y-02838583D03*
Y-02799213D03*
Y-02759843D03*
Y-02720472D03*
Y-02681102D03*
Y-02641732D03*
Y-02602362D03*
Y-02562992D03*
Y-02523622D03*
Y-02484252D03*
Y-02444882D03*
Y-02405512D03*
Y-02366142D03*
Y-02326772D03*
Y-02287402D03*
Y-02248031D03*
X02980315Y-03232283D03*
Y-03192913D03*
Y-03153543D03*
Y-03114173D03*
Y-03074803D03*
Y-03035433D03*
Y-02996063D03*
Y-02956693D03*
Y-02917323D03*
Y-02877953D03*
Y-02838583D03*
Y-02799213D03*
Y-02759843D03*
Y-02720472D03*
Y-02681102D03*
Y-02641732D03*
Y-02602362D03*
Y-02562992D03*
Y-02523622D03*
Y-02484252D03*
Y-02444882D03*
Y-02405512D03*
Y-02366142D03*
Y-02326772D03*
Y-02287402D03*
Y-02248031D03*
X03019685Y-03232283D03*
Y-03192913D03*
Y-03153543D03*
Y-03114173D03*
Y-03074803D03*
Y-03035433D03*
Y-02996063D03*
Y-02956693D03*
Y-02917323D03*
Y-02877953D03*
Y-02838583D03*
Y-02799213D03*
Y-02759843D03*
Y-02720472D03*
Y-02681102D03*
Y-02641732D03*
Y-02602362D03*
Y-02562992D03*
Y-02523622D03*
Y-02484252D03*
Y-02444882D03*
Y-02405512D03*
Y-02366142D03*
Y-02326772D03*
Y-02287402D03*
Y-02248031D03*
X03059055Y-03232283D03*
Y-03192913D03*
Y-03153543D03*
Y-03114173D03*
Y-03074803D03*
Y-03035433D03*
Y-02996063D03*
Y-02956693D03*
Y-02917323D03*
Y-02877953D03*
Y-02838583D03*
Y-02799213D03*
Y-02759843D03*
Y-02720472D03*
Y-02681102D03*
Y-02641732D03*
Y-02602362D03*
Y-02562992D03*
Y-02523622D03*
Y-02484252D03*
Y-02444882D03*
Y-02405512D03*
Y-02366142D03*
Y-02326772D03*
Y-02287402D03*
Y-02248031D03*
X03098425Y-03232283D03*
Y-03192913D03*
Y-03153543D03*
Y-03114173D03*
Y-03074803D03*
Y-03035433D03*
Y-02996063D03*
Y-02956693D03*
Y-02917323D03*
Y-02877953D03*
Y-02838583D03*
Y-02799213D03*
Y-02759843D03*
Y-02720472D03*
Y-02681102D03*
Y-02641732D03*
Y-02602362D03*
Y-02562992D03*
Y-02523622D03*
Y-02484252D03*
Y-02444882D03*
Y-02405512D03*
Y-02366142D03*
Y-02326772D03*
Y-02287402D03*
Y-02248031D03*
X03137795Y-03232283D03*
Y-03192913D03*
Y-03153543D03*
Y-03114173D03*
Y-03074803D03*
Y-03035433D03*
Y-02996063D03*
Y-02956693D03*
Y-02917323D03*
Y-02877953D03*
Y-02838583D03*
Y-02799213D03*
Y-02759843D03*
Y-02720472D03*
Y-02681102D03*
Y-02641732D03*
Y-02602362D03*
Y-02562992D03*
Y-02523622D03*
Y-02484252D03*
Y-02444882D03*
Y-02405512D03*
Y-02366142D03*
Y-02326772D03*
Y-02287402D03*
Y-02248031D03*
X03177165Y-03232283D03*
Y-03192913D03*
Y-03153543D03*
Y-03114173D03*
Y-03074803D03*
Y-03035433D03*
Y-02996063D03*
Y-02956693D03*
Y-02917323D03*
Y-02877953D03*
Y-02838583D03*
Y-02799213D03*
Y-02759843D03*
Y-02720472D03*
Y-02681102D03*
Y-02641732D03*
Y-02602362D03*
Y-02562992D03*
Y-02523622D03*
Y-02484252D03*
Y-02444882D03*
Y-02405512D03*
Y-02366142D03*
Y-02326772D03*
Y-02287402D03*
Y-02248031D03*
X03216535Y-03232283D03*
Y-03192913D03*
Y-03153543D03*
Y-03114173D03*
Y-03074803D03*
Y-03035433D03*
Y-02996063D03*
Y-02956693D03*
Y-02917323D03*
Y-02877953D03*
Y-02838583D03*
Y-02799213D03*
Y-02759843D03*
Y-02720472D03*
Y-02681102D03*
Y-02641732D03*
Y-02602362D03*
Y-02562992D03*
Y-02523622D03*
Y-02484252D03*
Y-02444882D03*
Y-02405512D03*
Y-02366142D03*
Y-02326772D03*
Y-02287402D03*
Y-02248031D03*
X03255906Y-03232283D03*
Y-03192913D03*
Y-03153543D03*
Y-03114173D03*
Y-03074803D03*
Y-03035433D03*
Y-02996063D03*
Y-02956693D03*
Y-02917323D03*
Y-02877953D03*
Y-02838583D03*
Y-02799213D03*
Y-02759843D03*
Y-02720472D03*
Y-02681102D03*
Y-02641732D03*
Y-02602362D03*
Y-02562992D03*
Y-02523622D03*
Y-02484252D03*
Y-02444882D03*
Y-02405512D03*
Y-02366142D03*
Y-02326772D03*
Y-02287402D03*
Y-02248031D03*
X03295276Y-03232283D03*
Y-03192913D03*
Y-03153543D03*
Y-03114173D03*
Y-03074803D03*
Y-03035433D03*
Y-02996063D03*
Y-02956693D03*
Y-02917323D03*
Y-02877953D03*
Y-02838583D03*
Y-02799213D03*
Y-02759843D03*
Y-02720472D03*
Y-02681102D03*
Y-02641732D03*
Y-02602362D03*
Y-02562992D03*
Y-02523622D03*
Y-02484252D03*
Y-02444882D03*
Y-02405512D03*
Y-02366142D03*
Y-02326772D03*
Y-02287402D03*
Y-02248031D03*
X03334646Y-03232283D03*
Y-03192913D03*
Y-03153543D03*
Y-03114173D03*
Y-03074803D03*
Y-03035433D03*
Y-02996063D03*
Y-02956693D03*
Y-02917323D03*
Y-02877953D03*
Y-02838583D03*
Y-02799213D03*
Y-02759843D03*
Y-02720472D03*
Y-02681102D03*
Y-02641732D03*
Y-02602362D03*
Y-02562992D03*
Y-02523622D03*
Y-02484252D03*
Y-02444882D03*
Y-02405512D03*
Y-02366142D03*
Y-02326772D03*
Y-02287402D03*
Y-02248031D03*
X03374016Y-03232283D03*
Y-03192913D03*
Y-03153543D03*
Y-03114173D03*
Y-03074803D03*
Y-03035433D03*
Y-02996063D03*
Y-02956693D03*
Y-02917323D03*
Y-02877953D03*
Y-02838583D03*
Y-02799213D03*
Y-02759843D03*
Y-02720472D03*
Y-02681102D03*
Y-02641732D03*
Y-02602362D03*
Y-02562992D03*
Y-02523622D03*
Y-02484252D03*
Y-02444882D03*
Y-02405512D03*
Y-02366142D03*
Y-02326772D03*
Y-02287402D03*
Y-02248031D03*
X03413386Y-03232283D03*
Y-03192913D03*
Y-03153543D03*
Y-03114173D03*
Y-03074803D03*
Y-03035433D03*
Y-02996063D03*
Y-02956693D03*
Y-02917323D03*
Y-02877953D03*
Y-02838583D03*
Y-02799213D03*
Y-02759843D03*
Y-02720472D03*
Y-02681102D03*
Y-02641732D03*
Y-02602362D03*
Y-02562992D03*
Y-02523622D03*
Y-02484252D03*
Y-02444882D03*
Y-02405512D03*
Y-02366142D03*
Y-02326772D03*
Y-02287402D03*
Y-02248031D03*
X03452756Y-03232283D03*
Y-03192913D03*
Y-03153543D03*
Y-03114173D03*
Y-03074803D03*
Y-03035433D03*
Y-02996063D03*
Y-02956693D03*
Y-02917323D03*
Y-02877953D03*
Y-02838583D03*
Y-02799213D03*
Y-02759843D03*
Y-02720472D03*
Y-02681102D03*
Y-02641732D03*
Y-02602362D03*
Y-02562992D03*
Y-02523622D03*
Y-02484252D03*
Y-02444882D03*
Y-02405512D03*
Y-02366142D03*
Y-02326772D03*
Y-02287402D03*
Y-02248031D03*
X03492126Y-03232283D03*
Y-03192913D03*
Y-03153543D03*
Y-03114173D03*
Y-03074803D03*
Y-03035433D03*
Y-02996063D03*
Y-02956693D03*
Y-02917323D03*
Y-02877953D03*
Y-02838583D03*
Y-02799213D03*
Y-02759843D03*
Y-02720472D03*
Y-02681102D03*
Y-02641732D03*
Y-02602362D03*
Y-02562992D03*
Y-02523622D03*
Y-02484252D03*
Y-02444882D03*
Y-02405512D03*
Y-02366142D03*
Y-02326772D03*
Y-02287402D03*
Y-02248031D03*
X02413386Y-03594488D03*
X02444882D03*
X02476378D03*
X02602362D03*
X02633858D03*
X02665354D03*
X02413386Y-03625984D03*
X02444882D03*
X02476378D03*
X02602362D03*
X02633858D03*
X02665354D03*
X02413386Y-03657480D03*
X02444882D03*
X02476378D03*
X02602362D03*
X02633858D03*
X02665354D03*
X02413386Y-03688976D03*
X02444882D03*
X02476378D03*
X02602362D03*
X02633858D03*
X02665354D03*
X02413386Y-03720472D03*
X02444882D03*
X02476378D03*
X02602362D03*
X02633858D03*
X02665354D03*
X02413386Y-03751969D03*
X02444882D03*
X02476378D03*
X02602362D03*
X02633858D03*
X02665354D03*
X02413386Y-03783465D03*
X02444882D03*
X02476378D03*
X02602362D03*
X02633858D03*
X02665354D03*
X02413386Y-03814961D03*
X02444882D03*
X02476378D03*
X02602362D03*
X02633858D03*
X02665354D03*
X02413386Y-03846457D03*
X02444882D03*
X02476378D03*
X02602362D03*
X02633858D03*
X02665354D03*
X02413386Y-03877953D03*
X02444882D03*
X02476378D03*
X02602362D03*
X02633858D03*
X02665354D03*
X02413386Y-03909449D03*
X02444882D03*
X02476378D03*
X02602362D03*
X02633858D03*
X02665354D03*
X02413386Y-03940945D03*
X02444882D03*
X02476378D03*
X02602362D03*
X02633858D03*
X02665354D03*
X02413386Y-03972441D03*
X02444882D03*
X02476378D03*
X02602362D03*
X02633858D03*
X02665354D03*
X02413386Y-04003937D03*
X02444882D03*
X02476378D03*
X02602362D03*
X02633858D03*
X02665354D03*
X02413386Y-04035433D03*
X02444882D03*
X02476378D03*
X02602362D03*
X02633858D03*
X02665354D03*
X02413386Y-04066929D03*
X02444882D03*
X02476378D03*
X02602362D03*
X02633858D03*
X02665354D03*
X02964567Y-03594488D03*
X02996063D03*
X03027559D03*
X03153543D03*
X03185039D03*
X03216535D03*
X02964567Y-03625984D03*
X02996063D03*
X03027559D03*
X03153543D03*
X03185039D03*
X03216535D03*
X02964567Y-03657480D03*
X02996063D03*
X03027559D03*
X03153543D03*
X03185039D03*
X03216535D03*
X02964567Y-03688976D03*
X02996063D03*
X03027559D03*
X03153543D03*
X03185039D03*
X03216535D03*
X02964567Y-03720472D03*
X02996063D03*
X03027559D03*
X03153543D03*
X03185039D03*
X03216535D03*
X02964567Y-03751969D03*
X02996063D03*
X03027559D03*
X03153543D03*
X03185039D03*
X03216535D03*
X02964567Y-03783465D03*
X02996063D03*
X03027559D03*
X03153543D03*
X03185039D03*
X03216535D03*
X02964567Y-03814961D03*
X02996063D03*
X03027559D03*
X03153543D03*
X03185039D03*
X03216535D03*
X02964567Y-03846457D03*
X02996063D03*
X03027559D03*
X03153543D03*
X03185039D03*
X03216535D03*
X02964567Y-03877953D03*
X02996063D03*
X03027559D03*
X03153543D03*
X03185039D03*
X03216535D03*
X02964567Y-03909449D03*
X02996063D03*
X03027559D03*
X03153543D03*
X03185039D03*
X03216535D03*
X02964567Y-03940945D03*
X02996063D03*
X03027559D03*
X03153543D03*
X03185039D03*
X03216535D03*
X02964567Y-03972441D03*
X02996063D03*
X03027559D03*
X03153543D03*
X03185039D03*
X03216535D03*
X02964567Y-04003937D03*
X02996063D03*
X03027559D03*
X03153543D03*
X03185039D03*
X03216535D03*
X02964567Y-04035433D03*
X02996063D03*
X03027559D03*
X03153543D03*
X03185039D03*
X03216535D03*
X02964567Y-04066929D03*
X02996063D03*
X03027559D03*
X03153543D03*
X03185039D03*
X03216535D03*
G54D11*
X03856299Y-02981299D02*
Y-02963583D01*
X03836614Y-02981299D02*
Y-02963583D01*
X03816929Y-02981299D02*
Y-02963583D01*
X03797244Y-02981299D02*
Y-02963583D01*
X03777559Y-02981299D02*
Y-02963583D01*
X03757874Y-02981299D02*
Y-02963583D01*
X03738189Y-02981299D02*
Y-02963583D01*
X03718504Y-02981299D02*
Y-02963583D01*
X03684055Y-02998031D02*
X03701771D01*
X03684055Y-03017717D02*
X03701771D01*
X03684055Y-03037402D02*
X03701771D01*
X03684055Y-03057087D02*
X03701771D01*
X03684055Y-03076772D02*
X03701771D01*
X03684055Y-03096457D02*
X03701771D01*
X03684055Y-03116142D02*
X03701771D01*
X03684055Y-03135827D02*
X03701771D01*
X03718504Y-03170275D02*
Y-03152559D01*
X03738189Y-03170275D02*
Y-03152559D01*
X03757874Y-03170275D02*
Y-03152559D01*
X03777559Y-03170275D02*
Y-03152559D01*
X03797244Y-03170275D02*
Y-03152559D01*
X03816929Y-03170275D02*
Y-03152559D01*
X03836614Y-03170275D02*
Y-03152559D01*
X03856299Y-03170275D02*
Y-03152559D01*
X03873032Y-03135827D02*
X03890748D01*
X03873032Y-03116142D02*
X03890748D01*
X03873032Y-03096457D02*
X03890748D01*
X03873032Y-03076772D02*
X03890748D01*
X03873032Y-03057087D02*
X03890748D01*
X03873032Y-03037402D02*
X03890748D01*
X03873032Y-03017717D02*
X03890748D01*
X03873032Y-02998031D02*
X03890748D01*
G54D12*
X03755906Y-03098425D03*
X03818898D03*
X03755906Y-03035433D03*
X03818898D03*
G54D13*
X03431417Y-04709291D02*
Y-04670709D01*
X04145984Y-04709291D02*
Y-04670709D01*
G54D14*
X03393701Y-04055118D02*
X03425197D01*
X03393701Y-03937008D02*
X03425197D01*
X02192913Y-04023622D02*
X02224409D01*
X02192913Y-03905512D02*
X02224409D01*
G54D15*
X02168898Y-03730906D02*
X02169685D01*
X02168898Y-03710039D02*
X02169685D01*
X02168898Y-03836024D02*
X02169685D01*
X02168898Y-03856890D02*
X02169685D01*
G54D16*
X04800000Y-03020315D03*
Y-03059685D03*
X04605000Y-02949685D03*
Y-02910315D03*
G54D14*
X04635945Y-02525748D02*
Y-02494252D01*
X04754055Y-02525748D02*
Y-02494252D01*
G54D15*
X01912992Y-03959252D02*
X01913779D01*
X01912992Y-03938386D02*
X01913779D01*
X01950197Y-04087008D02*
Y-04086221D01*
X01971063Y-04087008D02*
Y-04086221D01*
X04355709Y-03765394D02*
Y-03764606D01*
X04376575Y-03765394D02*
Y-03764606D01*
X01621654Y-04486811D02*
X01622441D01*
X01621654Y-04465945D02*
X01622441D01*
X01649213Y-04486811D02*
X01650000D01*
X01649213Y-04465945D02*
X01650000D01*
X02829331Y-04181496D02*
Y-04180709D01*
X02808465Y-04181496D02*
Y-04180709D01*
X02861811Y-04292717D02*
X02862598D01*
X02861811Y-04313583D02*
X02862598D01*
G54D16*
X01944882Y-02196850D03*
Y-02236220D03*
X01736220Y-01622047D03*
X01775591D03*
X02094488Y-02173228D03*
X02055118D03*
G54D15*
X01802756Y-03427756D02*
X01803543D01*
X01802756Y-03406890D02*
X01803543D01*
X01936614Y-03250591D02*
X01937401D01*
X01936614Y-03229724D02*
X01937401D01*
X01738780Y-03449212D02*
Y-03448425D01*
X01717913Y-03449212D02*
Y-03448425D01*
X01798819Y-03250591D02*
X01799606D01*
X01798819Y-03229724D02*
X01799606D01*
X03649213Y-03206102D02*
X03650000D01*
X03649213Y-03226969D02*
X03650000D01*
G54D16*
X04421260Y-03334646D03*
Y-03374016D03*
G54D14*
X03157480Y-02137795D02*
Y-02106299D01*
X03275591Y-02137795D02*
Y-02106299D01*
X03602362Y-02307087D02*
X03633858D01*
X03602362Y-02425197D02*
X03633858D01*
G54D15*
X04042914Y-03069488D02*
X04043701D01*
X04042914Y-03048622D02*
X04043701D01*
X04084567Y-03695394D02*
Y-03694606D01*
X04105433Y-03695394D02*
Y-03694606D01*
X03800433Y-03800394D02*
Y-03799606D01*
X03779567Y-03800394D02*
Y-03799606D01*
X04039606Y-03814567D02*
X04040394D01*
X04039606Y-03835433D02*
X04040394D01*
X03653150Y-03639173D02*
X03653937D01*
X03653150Y-03660039D02*
X03653937D01*
X03869606Y-01734567D02*
X03870394D01*
X03869606Y-01755433D02*
X03870394D01*
X03894606Y-01734567D02*
X03895394D01*
X03894606Y-01755433D02*
X03895394D01*
G54D17*
X04352559Y-04281528D02*
Y-04277528D01*
X04269488Y-04281528D02*
Y-04277528D01*
X04084614Y-02919488D02*
X04088614D01*
X04084614Y-02836417D02*
X04088614D01*
X04324772Y-02919488D02*
X04328772D01*
X04324772Y-02836417D02*
X04328772D01*
X03702559Y-02439008D02*
Y-02435008D01*
X03785630Y-02439008D02*
Y-02435008D01*
G54D18*
X02236220Y-02331693D02*
X02244094D01*
X02236220Y-02266732D02*
X02244094D01*
X02177165D02*
X02185039D01*
X02177165Y-02331693D02*
X02185039D01*
X02295276D02*
X02303150D01*
X02295276Y-02266732D02*
X02303150D01*
X01440945Y-04628937D02*
X01448819D01*
X01440945Y-04693898D02*
X01448819D01*
X01535433Y-04628937D02*
X01543307D01*
X01535433Y-04693898D02*
X01543307D01*
X01606063Y-03282480D02*
X01613937D01*
X01606063Y-03217520D02*
X01613937D01*
X01606063Y-03482480D02*
X01613937D01*
X01606063Y-03417520D02*
X01613937D01*
X01606063Y-03690000D02*
X01613937D01*
X01606063Y-03625039D02*
X01613937D01*
X01606063Y-03892480D02*
X01613937D01*
X01606063Y-03827520D02*
X01613937D01*
X02523622Y-04682087D02*
X02531496D01*
X02523622Y-04617126D02*
X02531496D01*
X02177165Y-02723425D02*
X02185039D01*
X02177165Y-02788386D02*
X02185039D01*
X02236220Y-02723425D02*
X02244094D01*
X02236220Y-02788386D02*
X02244094D01*
G54D19*
X04514142Y-04106024D02*
X04553142D01*
X04514142Y-04081024D02*
X04553142D01*
X04514142Y-04056024D02*
X04553142D01*
X04514142Y-04031024D02*
X04553142D01*
X04514142Y-04006024D02*
X04553142D01*
X04514142Y-03981024D02*
X04553142D01*
X04514142Y-03956024D02*
X04553142D01*
X04514142Y-03931024D02*
X04553142D01*
X04514142Y-03906024D02*
X04553142D01*
X04514142Y-03881024D02*
X04553142D01*
X04514142Y-03856024D02*
X04553142D01*
X04514142Y-03831024D02*
X04553142D01*
X04514142Y-03806024D02*
X04553142D01*
X04514142Y-03781024D02*
X04553142D01*
X04514142Y-03756024D02*
X04553142D01*
X04514142Y-03731024D02*
X04553142D01*
X04514142Y-03706024D02*
X04553142D01*
X04514142Y-03681024D02*
X04553142D01*
X04514142Y-03656024D02*
X04553142D01*
X04514142Y-03631024D02*
X04553142D01*
X04514142Y-03606024D02*
X04553142D01*
X04514142Y-03581024D02*
X04553142D01*
X04514142Y-03556024D02*
X04553142D01*
X04514142Y-03531024D02*
X04553142D01*
X04514142Y-03506024D02*
X04553142D01*
X04514142Y-03481024D02*
X04553142D01*
X04779142Y-04081024D02*
X04818142D01*
X04779142Y-04006024D02*
X04818142D01*
X04779142Y-04056024D02*
X04818142D01*
X04779142Y-04106024D02*
X04818142D01*
X04779142Y-04031024D02*
X04818142D01*
X04779142Y-03556024D02*
X04818142D01*
X04779142Y-03581024D02*
X04818142D01*
X04779142Y-03506024D02*
X04818142D01*
X04779142Y-03481024D02*
X04818142D01*
X04779142Y-03531024D02*
X04818142D01*
X04779142Y-03881024D02*
X04818142D01*
X04779142Y-03856024D02*
X04818142D01*
X04779142Y-03956024D02*
X04818142D01*
X04779142Y-03931024D02*
X04818142D01*
X04779142Y-03981024D02*
X04818142D01*
X04779142Y-03906024D02*
X04818142D01*
X04779142Y-03781024D02*
X04818142D01*
X04779142Y-03831024D02*
X04818142D01*
X04779142Y-03731024D02*
X04818142D01*
X04779142Y-03756024D02*
X04818142D01*
X04779142Y-03806024D02*
X04818142D01*
X04779142Y-03706024D02*
X04818142D01*
X04779142Y-03631024D02*
X04818142D01*
X04779142Y-03681024D02*
X04818142D01*
X04779142Y-03656024D02*
X04818142D01*
X04779142Y-03606024D02*
X04818142D01*
G54D20*
X04666142Y-04123524D02*
Y-03463524D01*
G54D21*
X02775591Y-04429134D02*
Y-04366142D01*
X03129921Y-04429134D02*
Y-04366142D01*
X02795276Y-04429134D02*
Y-04366142D01*
X02814961Y-04429134D02*
Y-04366142D01*
X02834646Y-04429134D02*
Y-04366142D01*
X02854331Y-04429134D02*
Y-04366142D01*
X02874016Y-04429134D02*
Y-04366142D01*
X02893701Y-04429134D02*
Y-04366142D01*
X02913386Y-04429134D02*
Y-04366142D01*
X02933071Y-04429134D02*
Y-04366142D01*
X02952756Y-04429134D02*
Y-04366142D01*
X02972441Y-04429134D02*
Y-04366142D01*
X02992126Y-04429134D02*
Y-04366142D01*
X03011811Y-04429134D02*
Y-04366142D01*
X03031496Y-04429134D02*
Y-04366142D01*
X03051181Y-04429134D02*
Y-04366142D01*
X03070866Y-04429134D02*
Y-04366142D01*
X03090551Y-04429134D02*
Y-04366142D01*
X03110236Y-04429134D02*
Y-04366142D01*
G54D22*
X01799213Y-04586614D02*
Y-04549212D01*
X01773622Y-04586614D02*
Y-04549212D01*
X01824803Y-04586614D02*
Y-04549212D01*
X01748031Y-04586614D02*
Y-04549212D01*
X01850394Y-04586614D02*
Y-04549212D01*
G54D23*
X01667323Y-04572835D02*
X01687008D01*
X01911417D02*
X01931102D01*
G54D24*
X01641732Y-04675197D02*
Y-04671260D01*
X01956693Y-04675197D02*
Y-04671260D01*
G54D25*
X01751969Y-04673228D03*
X01846457D03*
G54D14*
X04350394Y-04194882D02*
Y-04017717D01*
X04271654Y-04194882D02*
Y-04017717D01*
G54D23*
X04183071Y-04045275D02*
Y-03990158D01*
X04438976Y-04045275D02*
Y-03990158D01*
G54D22*
X02295276Y-04585630D02*
Y-04548228D01*
X02269685Y-04585630D02*
Y-04548228D01*
X02320866Y-04585630D02*
Y-04548228D01*
X02244094Y-04585630D02*
Y-04548228D01*
X02346457Y-04585630D02*
Y-04548228D01*
G54D23*
X02163386Y-04571850D02*
X02183071D01*
X02407480D02*
X02427165D01*
G54D24*
X02137795Y-04674213D02*
Y-04670276D01*
X02452756Y-04674213D02*
Y-04670276D01*
G54D25*
X02248031Y-04672244D03*
X02342520D03*
G54D26*
X04842559Y-02091654D02*
X04864212D01*
X04842559Y-01548346D02*
X04864212D01*
X04515788Y-02091654D02*
X04537441D01*
X04515788Y-01548346D02*
X04537441D01*
G54D18*
X04737244Y-01997165D02*
X04764803D01*
X04737244Y-01953858D02*
X04764803D01*
X04737244Y-01910551D02*
X04764803D01*
X04737244Y-01867244D02*
X04764803D01*
X04737244Y-01823937D02*
X04764803D01*
X04737244Y-01780630D02*
X04764803D01*
X04737244Y-01737323D02*
X04764803D01*
X04737244Y-01694016D02*
X04764803D01*
G54D27*
X04433000Y-03215000D02*
X04437000D01*
X04433000Y-03148071D02*
X04437000D01*
X04433000Y-03281929D02*
X04437000D01*
G54D24*
X01826772Y-03881890D02*
X01897638D01*
X01826772Y-03527559D02*
X01897638D01*
G54D18*
X01870079Y-04253937D02*
X01877953D01*
X01791339Y-04216535D02*
X01799213D01*
X01870079Y-04179134D02*
X01877953D01*
X04403543Y-04240157D02*
Y-04232283D01*
X04440945Y-04161417D02*
Y-04153543D01*
X04478346Y-04240157D02*
Y-04232283D01*
X02096457Y-03086614D02*
Y-03078740D01*
X02133858Y-03007874D02*
Y-03000000D01*
X02171260Y-03086614D02*
Y-03078740D01*
X02226378Y-03086614D02*
Y-03078740D01*
X02263780Y-03007874D02*
Y-03000000D01*
X02301181Y-03086614D02*
Y-03078740D01*
G54D16*
X02204724Y-03708661D03*
X02244094D03*
X02204724Y-03614173D03*
X02244094D03*
X02204724Y-03645669D03*
X02244094D03*
X02204724Y-03551181D03*
X02244094D03*
X02204724Y-03488189D03*
X02244094D03*
X02204724Y-03582677D03*
X02244094D03*
X02204724Y-03740157D03*
X02244094D03*
X02204724Y-03519685D03*
X02244094D03*
X02204724Y-03771654D03*
X02244094D03*
X02204724Y-03677165D03*
X02244094D03*
X02204724Y-03803150D03*
X02244094D03*
X02204724Y-03834646D03*
X02244094D03*
X02204724Y-03866142D03*
X02244094D03*
X03503937Y-03582677D03*
X03464567D03*
X04615000Y-03155315D03*
Y-03194685D03*
X04774685Y-03195000D03*
X04735315D03*
X04800000Y-03134685D03*
Y-03095315D03*
X04655315Y-03195000D03*
X04694685D03*
X04645315Y-02910000D03*
X04684685D03*
X01984252Y-03881890D03*
Y-03921260D03*
X02019685Y-03881890D03*
Y-03921260D03*
X04897638Y-03559055D03*
X04858268D03*
X04232087Y-03765000D03*
Y-03725630D03*
X03133858Y-04212598D03*
Y-04251969D03*
X03102362Y-04212598D03*
Y-04251969D03*
X03070866Y-04212598D03*
Y-04251969D03*
X03039370Y-04212598D03*
Y-04251969D03*
X03003937Y-04212598D03*
Y-04251969D03*
X02972441Y-04212598D03*
Y-04251969D03*
X02940945Y-04212598D03*
Y-04251969D03*
X02909449Y-04212598D03*
Y-04251969D03*
X02874016D03*
Y-04212598D03*
X01913386Y-04236220D03*
Y-04196850D03*
X01976378D03*
Y-04236220D03*
X01944882Y-04196850D03*
Y-04236220D03*
Y-02106299D03*
Y-02145669D03*
X02240157Y-02208661D03*
Y-02169291D03*
X02200787Y-02208661D03*
Y-02169291D03*
X02279528Y-02208661D03*
Y-02169291D03*
X01444882Y-04582677D03*
Y-04543307D03*
X01539370Y-04582677D03*
Y-04543307D03*
X04421260Y-04279528D03*
X04460630D03*
X01600000Y-03164685D03*
Y-03125315D03*
Y-03364685D03*
Y-03325315D03*
Y-03569685D03*
Y-03530315D03*
Y-03774685D03*
Y-03735315D03*
X01635000Y-03125000D03*
Y-03164370D03*
Y-03325315D03*
Y-03364685D03*
Y-03530315D03*
Y-03569685D03*
Y-03735315D03*
Y-03774685D03*
X01610000Y-02340000D03*
Y-02300630D03*
Y-02539685D03*
Y-02500315D03*
Y-02739685D03*
Y-02700315D03*
Y-02939685D03*
Y-02900315D03*
X03598425Y-03141732D03*
X03559055D03*
X02062992Y-04236220D03*
Y-04196850D03*
X02031496Y-04236220D03*
Y-04196850D03*
X04897638Y-03496063D03*
X04858268D03*
X04897638Y-03527559D03*
X04858268D03*
X04149606Y-03464567D03*
Y-03503937D03*
X04303150Y-03023622D03*
X04263780D03*
X01935000Y-01985315D03*
Y-02024685D03*
X04114173Y-03503937D03*
Y-03464567D03*
X01659685Y-01850000D03*
X01620315D03*
Y-02185000D03*
X01659685D03*
X04421260Y-03464567D03*
Y-03503937D03*
X04429134Y-03106299D03*
Y-03066929D03*
X04150000Y-01735315D03*
Y-01774685D03*
X02488189Y-04559055D03*
X02527559D03*
X03814961Y-03212598D03*
X03775591D03*
X03862205D03*
X03901575D03*
X03921260Y-03133858D03*
X03960630D03*
X03805000Y-03420315D03*
Y-03459685D03*
X03840000Y-03420315D03*
Y-03459685D03*
X03875000Y-03420315D03*
Y-03459685D03*
X03759685Y-03725000D03*
X03720315D03*
Y-03765000D03*
X03759685D03*
X02133858Y-02956693D03*
Y-02917323D03*
X02192913D03*
Y-02956693D03*
G54D11*
X03974528Y-03459606D02*
Y-03449764D01*
X03954843Y-03459606D02*
Y-03449764D01*
X03935157Y-03459606D02*
Y-03449764D01*
X03915472Y-03459606D02*
Y-03449764D01*
X03974528Y-03420236D02*
Y-03410394D01*
X03954843Y-03420236D02*
Y-03410394D01*
X03935157Y-03420236D02*
Y-03410394D01*
X03915472Y-03420236D02*
Y-03410394D01*
G54D28*
X02023622Y-02484252D02*
X02047244D01*
X02023622Y-02602362D02*
X02047244D01*
X02299213Y-02484252D02*
X02322835D01*
X02299213Y-02602362D02*
X02322835D01*
X03665354Y-02173228D02*
Y-02149606D01*
X03783465Y-02173228D02*
Y-02149606D01*
X03665354Y-01897638D02*
Y-01874016D01*
X03783465Y-01897638D02*
Y-01874016D01*
G54D14*
X04157480Y-04169291D02*
X04220472D01*
X04157480Y-04287402D02*
X04220472D01*
X04421260Y-02303150D02*
X04484252D01*
X04421260Y-02185039D02*
X04484252D01*
G54D29*
X04921260Y-02114173D03*
X04385827Y-02838583D03*
X04031496D03*
X02039370Y-03578740D03*
X02047244Y-03818898D03*
G54D30*
X01804465Y-04366209D02*
Y-04362209D01*
X01762465Y-04366209D02*
Y-04362209D01*
X01804465Y-04299209D02*
Y-04295209D01*
X01762465Y-04299209D02*
Y-04295209D01*
X02300528Y-04366209D02*
Y-04362209D01*
X02258528Y-04366209D02*
Y-04362209D01*
X02300528Y-04299209D02*
Y-04295209D01*
X02258528Y-04299209D02*
Y-04295209D01*
G54D31*
X01753937Y-03970472D02*
X01773622D01*
X01753937Y-04045276D02*
X01773622D01*
X01753937Y-04007874D02*
X01773622D01*
X01864173Y-04045276D02*
X01883858D01*
X01864173Y-03970472D02*
X01883858D01*
X01864173Y-04007874D02*
X01883858D01*
G54D32*
X01946850Y-04061024D02*
Y-04041339D01*
X01972441Y-04061024D02*
Y-04041339D01*
X01998031Y-04061024D02*
Y-04041339D01*
Y-03974409D02*
Y-03954725D01*
X01946850Y-03974409D02*
Y-03954725D01*
X01972441Y-03974409D02*
Y-03954725D01*
X01623031Y-04290354D02*
Y-04254921D01*
X01648622Y-04290354D02*
Y-04254921D01*
X01674213Y-04290354D02*
Y-04254921D01*
X01699803Y-04290354D02*
Y-04254921D01*
X01623031Y-04445866D02*
Y-04410433D01*
X01648622Y-04445866D02*
Y-04410433D01*
X01674213Y-04445866D02*
Y-04410433D01*
X01699803Y-04445866D02*
Y-04410433D01*
X02832677Y-04226378D02*
Y-04206693D01*
X02807087Y-04226378D02*
Y-04206693D01*
X02781496Y-04226378D02*
Y-04206693D01*
Y-04312992D02*
Y-04293307D01*
X02832677Y-04312992D02*
Y-04293307D01*
X02807087Y-04312992D02*
Y-04293307D01*
G54D31*
X02730315Y-04226378D02*
Y-04206693D01*
X02655512Y-04226378D02*
Y-04206693D01*
X02692913Y-04226378D02*
Y-04206693D01*
X02655512Y-04336614D02*
Y-04316929D01*
X02730315Y-04336614D02*
Y-04316929D01*
G54D33*
X02069291Y-04458661D02*
X02092126D01*
X02069291Y-04438976D02*
X02092126D01*
X02069291Y-04419291D02*
X02092126D01*
X02069291Y-04399606D02*
X02092126D01*
X02069291Y-04379921D02*
X02092126D01*
X02069291Y-04360236D02*
X02092126D01*
X02069291Y-04340551D02*
X02092126D01*
X02069291Y-04320866D02*
X02092126D01*
X02049213Y-04300788D02*
Y-04277953D01*
X02029528Y-04300788D02*
Y-04277953D01*
X02009843Y-04300788D02*
Y-04277953D01*
X01990157Y-04300788D02*
Y-04277953D01*
X01970472Y-04300788D02*
Y-04277953D01*
X01950787Y-04300788D02*
Y-04277953D01*
X01931102Y-04300788D02*
Y-04277953D01*
X01911417Y-04300788D02*
Y-04277953D01*
X01868504Y-04320866D02*
X01891339D01*
X01868504Y-04340551D02*
X01891339D01*
X01868504Y-04360236D02*
X01891339D01*
X01868504Y-04379921D02*
X01891339D01*
X01868504Y-04399606D02*
X01891339D01*
X01868504Y-04419291D02*
X01891339D01*
X01868504Y-04438976D02*
X01891339D01*
X01868504Y-04458661D02*
X01891339D01*
X01911417Y-04501575D02*
Y-04478740D01*
X01931102Y-04501575D02*
Y-04478740D01*
X01950787Y-04501575D02*
Y-04478740D01*
X01970472Y-04501575D02*
Y-04478740D01*
X01990157Y-04501575D02*
Y-04478740D01*
X02009843Y-04501575D02*
Y-04478740D01*
X02029528Y-04501575D02*
Y-04478740D01*
X02049213Y-04501575D02*
Y-04478740D01*
G54D34*
X01931102Y-04340551D03*
Y-04438976D03*
X02029528Y-04340551D03*
X01980315Y-04438976D03*
X01931102Y-04389764D03*
X01980315D03*
X02029528D03*
X01980315Y-04340551D03*
X02029528Y-04438976D03*
G54D32*
X01979331Y-02132874D02*
X02014764D01*
X01979331Y-02107283D02*
X02014764D01*
X01979331Y-02081693D02*
X02014764D01*
X01979331Y-02056102D02*
X02014764D01*
X02134843Y-02132874D02*
X02170275D01*
X02134843Y-02107283D02*
X02170275D01*
X02134843Y-02081693D02*
X02170275D01*
X02134843Y-02056102D02*
X02170275D01*
G54D35*
X01821850Y-04494685D02*
Y-04486418D01*
G54D36*
X01740945Y-04422835D02*
X01749213D01*
X01817716D02*
X01825984D01*
X01740945Y-04498425D02*
X01749213D01*
G54D15*
X03771260Y-02645669D02*
X03793701D01*
X03771260Y-02625984D02*
X03793701D01*
X03771260Y-02606299D02*
X03793701D01*
X03771260Y-02665354D02*
X03793701D01*
X03771260Y-02685039D02*
X03793701D01*
X03907087Y-02645669D02*
X03929528D01*
X03907087Y-02625984D02*
X03929528D01*
X03907087Y-02606299D02*
X03929528D01*
X03907087Y-02665354D02*
X03929528D01*
X03907087Y-02685039D02*
X03929528D01*
X03879921Y-02588976D02*
Y-02566535D01*
X03820866Y-02588976D02*
Y-02566535D01*
Y-02724803D02*
Y-02702362D01*
X03879921Y-02724803D02*
Y-02702362D01*
G54D37*
X03870079Y-02625984D03*
Y-02665354D03*
X03830709D03*
Y-02625984D03*
G54D15*
X03771260Y-02822835D02*
X03793701D01*
X03771260Y-02803150D02*
X03793701D01*
X03771260Y-02783465D02*
X03793701D01*
X03771260Y-02842520D02*
X03793701D01*
X03771260Y-02862205D02*
X03793701D01*
X03907087Y-02822835D02*
X03929528D01*
X03907087Y-02803150D02*
X03929528D01*
X03907087Y-02783465D02*
X03929528D01*
X03907087Y-02842520D02*
X03929528D01*
X03907087Y-02862205D02*
X03929528D01*
X03879921Y-02766142D02*
Y-02743701D01*
X03820866Y-02766142D02*
Y-02743701D01*
Y-02901969D02*
Y-02879528D01*
X03879921Y-02901969D02*
Y-02879528D01*
G54D37*
X03870079Y-02803150D03*
Y-02842520D03*
X03830709D03*
Y-02803150D03*
G54D15*
X04204724Y-02992520D02*
Y-02970079D01*
X04185039Y-02992520D02*
Y-02970079D01*
X04165354Y-02992520D02*
Y-02970079D01*
X04224409Y-02992520D02*
Y-02970079D01*
X04244094Y-02992520D02*
Y-02970079D01*
X04204724Y-02856693D02*
Y-02834252D01*
X04185039Y-02856693D02*
Y-02834252D01*
X04165354Y-02856693D02*
Y-02834252D01*
X04224409Y-02856693D02*
Y-02834252D01*
X04244094Y-02856693D02*
Y-02834252D01*
X04125591Y-02883858D02*
X04148031D01*
X04125591Y-02942913D02*
X04148031D01*
X04261417D02*
X04283858D01*
X04261417Y-02883858D02*
X04283858D01*
G54D37*
X04185039Y-02893701D03*
X04224409D03*
Y-02933071D03*
X04185039D03*
G54D32*
X01904528Y-03422244D02*
Y-03386811D01*
X01878937Y-03422244D02*
Y-03386811D01*
X01853346Y-03422244D02*
Y-03386811D01*
X01827756Y-03422244D02*
Y-03386811D01*
X01904528Y-03266732D02*
Y-03231299D01*
X01878937Y-03266732D02*
Y-03231299D01*
X01853346Y-03266732D02*
Y-03231299D01*
X01827756Y-03266732D02*
Y-03231299D01*
X01766732Y-03422244D02*
Y-03386811D01*
X01741142Y-03422244D02*
Y-03386811D01*
X01715551Y-03422244D02*
Y-03386811D01*
X01689961Y-03422244D02*
Y-03386811D01*
X01766732Y-03266732D02*
Y-03231299D01*
X01741142Y-03266732D02*
Y-03231299D01*
X01715551Y-03266732D02*
Y-03231299D01*
X01689961Y-03266732D02*
Y-03231299D01*
G54D38*
X01709882Y-02692480D02*
X01720118D01*
X01709882Y-02317520D02*
X01720118D01*
X01809882D02*
X01820118D01*
X01909882D02*
X01920118D01*
X01909882Y-02692480D02*
X01920118D01*
X01809882D02*
X01820118D01*
X01709882Y-03152480D02*
X01720118D01*
X01709882Y-02777520D02*
X01720118D01*
X01809882D02*
X01820118D01*
X01909882D02*
X01920118D01*
X01909882Y-03152480D02*
X01920118D01*
X01809882D02*
X01820118D01*
G54D39*
X03558071Y-03184055D02*
X03565945D01*
X03615158Y-03249016D02*
X03623031D01*
X03558071D02*
X03565945D01*
X03615158Y-03184055D02*
X03623031D01*
G54D31*
X01885000Y-02022402D02*
Y-01985000D01*
X01835000Y-02022402D02*
Y-01985000D01*
X01785000Y-02022402D02*
Y-01985000D01*
X01735000Y-02022402D02*
Y-01985000D01*
Y-02235000D02*
Y-02197598D01*
X01785000Y-02235000D02*
Y-02197598D01*
X01835000Y-02235000D02*
Y-02197598D01*
X01885000Y-02235000D02*
Y-02197598D01*
Y-01692402D02*
Y-01655000D01*
X01835000Y-01692402D02*
Y-01655000D01*
X01785000Y-01692402D02*
Y-01655000D01*
X01735000Y-01692402D02*
Y-01655000D01*
Y-01905000D02*
Y-01867598D01*
X01785000Y-01905000D02*
Y-01867598D01*
X01835000Y-01905000D02*
Y-01867598D01*
X01885000Y-01905000D02*
Y-01867598D01*
G54D16*
X04308465Y-03072835D02*
Y-03061024D01*
X04258465Y-03072835D02*
Y-03061024D01*
X04208465Y-03072835D02*
Y-03061024D01*
X04358465Y-03072835D02*
Y-03061024D01*
Y-03379921D02*
Y-03368110D01*
X04308465Y-03379921D02*
Y-03368110D01*
X04258465Y-03379921D02*
Y-03368110D01*
X04208465Y-03379921D02*
Y-03368110D01*
G54D12*
X04283465Y-03220472D03*
X04346457D03*
Y-03283465D03*
X04283465D03*
X04220472D03*
Y-03220472D03*
Y-03157480D03*
X04283465D03*
X04346457D03*
G54D14*
X04348425Y-03507874D02*
X04372047D01*
X04348425Y-03438976D02*
X04372047D01*
X04348425Y-03576772D02*
X04372047D01*
X04202756Y-03438976D02*
X04226378D01*
X04202756Y-03507874D02*
X04226378D01*
X04202756Y-03576772D02*
X04226378D01*
G54D39*
X04008858Y-03091535D02*
X04016732D01*
X03951772Y-03026575D02*
X03959646D01*
X04008858D02*
X04016732D01*
X03951772Y-03091535D02*
X03959646D01*
G54D32*
X02540354Y-04418307D02*
X02575787D01*
X02540354Y-04443898D02*
X02575787D01*
X02540354Y-04469488D02*
X02575787D01*
X02540354Y-04495079D02*
X02575787D01*
X02384843Y-04418307D02*
X02420275D01*
X02384843Y-04443898D02*
X02420275D01*
X02384843Y-04469488D02*
X02420275D01*
X02384843Y-04495079D02*
X02420275D01*
G54D35*
X02317913Y-04494685D02*
Y-04486418D01*
G54D36*
X02237008Y-04422835D02*
X02245276D01*
X02313779D02*
X02322047D01*
X02237008Y-04498425D02*
X02245276D01*
G54D11*
X03786221Y-03753268D02*
X03796063D01*
X03786221Y-03733583D02*
X03796063D01*
X03786221Y-03713898D02*
X03796063D01*
X03786221Y-03694213D02*
X03796063D01*
X03786221Y-03674528D02*
X03796063D01*
X03786221Y-03654843D02*
X03796063D01*
X03786221Y-03635157D02*
X03796063D01*
X03786221Y-03615472D02*
X03796063D01*
X03786221Y-03595787D02*
X03796063D01*
X03786221Y-03576102D02*
X03796063D01*
X03786221Y-03556417D02*
X03796063D01*
X03786221Y-03536732D02*
X03796063D01*
X03816732Y-03516063D02*
Y-03506221D01*
X03915157Y-03516063D02*
Y-03506221D01*
X03895472Y-03516063D02*
Y-03506221D01*
X03875787Y-03516063D02*
Y-03506221D01*
X03856102Y-03516063D02*
Y-03506221D01*
X03836417Y-03516063D02*
Y-03506221D01*
X03934843Y-03516063D02*
Y-03506221D01*
X03954528Y-03516063D02*
Y-03506221D01*
X03974213Y-03516063D02*
Y-03506221D01*
X03993898Y-03516063D02*
Y-03506221D01*
X04013583Y-03516063D02*
Y-03506221D01*
X04033268Y-03516063D02*
Y-03506221D01*
X04053937Y-03635157D02*
X04063779D01*
X04053937Y-03615472D02*
X04063779D01*
X04053937Y-03595787D02*
X04063779D01*
X04053937Y-03576102D02*
X04063779D01*
X04053937Y-03556417D02*
X04063779D01*
X04053937Y-03536732D02*
X04063779D01*
X04053937Y-03654843D02*
X04063779D01*
X04053937Y-03674528D02*
X04063779D01*
X04053937Y-03694213D02*
X04063779D01*
X04053937Y-03713898D02*
X04063779D01*
X04053937Y-03733583D02*
X04063779D01*
X04053937Y-03753268D02*
X04063779D01*
X03934843Y-03783779D02*
Y-03773937D01*
X03915157Y-03783779D02*
Y-03773937D01*
X03895472Y-03783779D02*
Y-03773937D01*
X03875787Y-03783779D02*
Y-03773937D01*
X03856102Y-03783779D02*
Y-03773937D01*
X03836417Y-03783779D02*
Y-03773937D01*
X03816732Y-03783779D02*
Y-03773937D01*
X03954528Y-03783779D02*
Y-03773937D01*
X03974213Y-03783779D02*
Y-03773937D01*
X03993898Y-03783779D02*
Y-03773937D01*
X04013583Y-03783779D02*
Y-03773937D01*
X04033268Y-03783779D02*
Y-03773937D01*
G54D40*
X03895472Y-03674528D03*
Y-03615472D03*
X03954528D03*
Y-03674528D03*
G54D15*
X04324213Y-01743976D02*
Y-01721535D01*
X04284843Y-01743976D02*
Y-01721535D01*
X04304528Y-01743976D02*
Y-01721535D01*
X04265157Y-01743976D02*
Y-01721535D01*
X04245472Y-01743976D02*
Y-01721535D01*
X04225787Y-01743976D02*
Y-01721535D01*
X04341535Y-01704213D02*
X04363976D01*
X04341535Y-01684528D02*
X04363976D01*
X04341535Y-01664843D02*
X04363976D01*
X04341535Y-01645157D02*
X04363976D01*
X04341535Y-01625472D02*
X04363976D01*
X04341535Y-01605787D02*
X04363976D01*
X04284843Y-01588465D02*
Y-01566024D01*
X04304528Y-01588465D02*
Y-01566024D01*
X04324213Y-01588465D02*
Y-01566024D01*
X04265157Y-01588465D02*
Y-01566024D01*
X04245472Y-01588465D02*
Y-01566024D01*
X04225787Y-01588465D02*
Y-01566024D01*
X04186024Y-01605787D02*
X04208465D01*
X04186024Y-01625472D02*
X04208465D01*
X04186024Y-01645157D02*
X04208465D01*
X04186024Y-01664843D02*
X04208465D01*
X04186024Y-01684528D02*
X04208465D01*
X04186024Y-01704213D02*
X04208465D01*
G54D41*
X04306496Y-01686496D03*
X04275000D03*
X04243504D03*
Y-01655000D03*
X04275000D03*
X04306496D03*
Y-01623504D03*
X04275000D03*
X04243504D03*
G54D39*
X03739606Y-03682480D02*
X03747480D01*
X03682520Y-03617520D02*
X03690394D01*
X03739606D02*
X03747480D01*
X03682520Y-03682480D02*
X03690394D01*
G54D22*
X02129921Y-04389764D02*
X02192913D01*
X02129921Y-04437008D02*
X02192913D01*
X02129921Y-04342520D02*
X02192913D01*
G54D35*
X01554134Y-04441929D02*
X01579724D01*
X01554134Y-04384843D02*
X01579724D01*
G54D42*
X04043701Y-01666602D03*
Y-01616602D03*
Y-01566602D03*
Y-01516602D03*
Y-01466602D03*
Y-01416602D03*
Y-01366602D03*
Y-01316602D03*
Y-01266602D03*
Y-01216602D03*
X03993701Y-01666602D03*
Y-01616602D03*
Y-01566602D03*
Y-01516602D03*
Y-01466602D03*
Y-01416602D03*
Y-01366602D03*
Y-01316602D03*
Y-01266602D03*
Y-01216602D03*
X03943701Y-01666602D03*
Y-01616602D03*
Y-01566602D03*
Y-01516602D03*
Y-01466602D03*
Y-01416602D03*
Y-01366602D03*
Y-01316602D03*
Y-01266602D03*
Y-01216602D03*
X03893701Y-01666602D03*
Y-01616602D03*
Y-01566602D03*
Y-01516602D03*
Y-01466602D03*
Y-01416602D03*
Y-01366602D03*
Y-01316602D03*
Y-01266602D03*
Y-01216602D03*
X03843701Y-01666602D03*
Y-01616602D03*
Y-01566602D03*
Y-01516602D03*
Y-01466602D03*
Y-01416602D03*
Y-01366602D03*
Y-01316602D03*
Y-01266602D03*
Y-01216602D03*
X03793701Y-01666602D03*
Y-01616602D03*
Y-01566602D03*
Y-01516602D03*
Y-01466602D03*
Y-01416602D03*
Y-01366602D03*
Y-01316602D03*
Y-01266602D03*
Y-01216602D03*
X03743701Y-01666602D03*
Y-01616602D03*
Y-01566602D03*
Y-01516602D03*
Y-01466602D03*
Y-01416602D03*
Y-01366602D03*
Y-01316602D03*
Y-01266602D03*
Y-01216602D03*
X03693701Y-01666602D03*
Y-01616602D03*
Y-01566602D03*
Y-01516602D03*
Y-01466602D03*
Y-01416602D03*
Y-01366602D03*
Y-01316602D03*
Y-01266602D03*
Y-01216602D03*
X03643701Y-01666602D03*
Y-01616602D03*
Y-01566602D03*
Y-01516602D03*
Y-01466602D03*
Y-01416602D03*
Y-01366602D03*
Y-01316602D03*
Y-01266602D03*
Y-01216602D03*
X03593701Y-01666602D03*
Y-01616602D03*
Y-01566602D03*
Y-01516602D03*
Y-01466602D03*
Y-01416602D03*
Y-01366602D03*
Y-01316602D03*
Y-01266602D03*
Y-01216602D03*
X03543701Y-01666602D03*
Y-01616602D03*
Y-01566602D03*
Y-01516602D03*
Y-01466602D03*
Y-01416602D03*
Y-01366602D03*
Y-01316602D03*
Y-01266602D03*
Y-01216602D03*
X03493701Y-01666602D03*
Y-01616602D03*
Y-01566602D03*
Y-01516602D03*
Y-01466602D03*
Y-01416602D03*
Y-01366602D03*
Y-01316602D03*
Y-01266602D03*
Y-01216602D03*
X03443701Y-01666602D03*
Y-01616602D03*
Y-01566602D03*
Y-01516602D03*
Y-01466602D03*
Y-01416602D03*
Y-01366602D03*
Y-01316602D03*
Y-01266602D03*
Y-01216602D03*
X03393701Y-01666602D03*
Y-01616602D03*
Y-01566602D03*
Y-01516602D03*
Y-01466602D03*
Y-01416602D03*
Y-01366602D03*
Y-01316602D03*
Y-01266602D03*
Y-01216602D03*
X03343701Y-01666602D03*
Y-01616602D03*
Y-01566602D03*
Y-01516602D03*
Y-01466602D03*
Y-01416602D03*
Y-01366602D03*
Y-01316602D03*
Y-01266602D03*
Y-01216602D03*
X03293701Y-01666602D03*
Y-01616602D03*
Y-01566602D03*
Y-01516602D03*
Y-01466602D03*
Y-01416602D03*
Y-01366602D03*
Y-01316602D03*
Y-01266602D03*
Y-01216602D03*
X03243701Y-01666602D03*
Y-01616602D03*
Y-01566602D03*
Y-01516602D03*
Y-01466602D03*
Y-01416602D03*
Y-01366602D03*
Y-01316602D03*
Y-01266602D03*
Y-01216602D03*
X03193701Y-01666602D03*
Y-01616602D03*
Y-01566602D03*
Y-01516602D03*
Y-01466602D03*
Y-01416602D03*
Y-01366602D03*
Y-01316602D03*
Y-01266602D03*
Y-01216602D03*
X03143701Y-01666602D03*
Y-01616602D03*
Y-01566602D03*
Y-01516602D03*
Y-01466602D03*
Y-01416602D03*
Y-01366602D03*
Y-01316602D03*
Y-01266602D03*
Y-01216602D03*
X03093701Y-01666602D03*
Y-01616602D03*
Y-01566602D03*
Y-01516602D03*
Y-01466602D03*
Y-01416602D03*
Y-01366602D03*
Y-01316602D03*
Y-01266602D03*
Y-01216602D03*
X03043701Y-01666602D03*
Y-01616602D03*
Y-01566602D03*
Y-01516602D03*
Y-01466602D03*
Y-01416602D03*
Y-01366602D03*
Y-01316602D03*
Y-01266602D03*
Y-01216602D03*
X02993701Y-01666602D03*
Y-01616602D03*
Y-01566602D03*
Y-01516602D03*
Y-01466602D03*
Y-01416602D03*
Y-01366602D03*
Y-01316602D03*
Y-01266602D03*
Y-01216602D03*
X02943701Y-01666602D03*
Y-01616602D03*
Y-01566602D03*
Y-01516602D03*
Y-01466602D03*
Y-01416602D03*
Y-01366602D03*
Y-01316602D03*
Y-01266602D03*
Y-01216602D03*
X02893701Y-01666602D03*
Y-01616602D03*
Y-01566602D03*
Y-01516602D03*
Y-01466602D03*
Y-01416602D03*
Y-01366602D03*
Y-01316602D03*
Y-01266602D03*
Y-01216602D03*
X02843701Y-01666602D03*
Y-01616602D03*
Y-01566602D03*
Y-01516602D03*
Y-01466602D03*
Y-01416602D03*
Y-01366602D03*
Y-01316602D03*
Y-01266602D03*
Y-01216602D03*
X02793701Y-01666602D03*
Y-01616602D03*
Y-01566602D03*
Y-01516602D03*
Y-01466602D03*
Y-01416602D03*
Y-01366602D03*
Y-01316602D03*
Y-01266602D03*
Y-01216602D03*
X02743701Y-01666602D03*
Y-01616602D03*
Y-01566602D03*
Y-01516602D03*
Y-01466602D03*
Y-01416602D03*
Y-01366602D03*
Y-01316602D03*
Y-01266602D03*
Y-01216602D03*
X02693701Y-01666602D03*
Y-01616602D03*
Y-01566602D03*
Y-01516602D03*
Y-01466602D03*
Y-01416602D03*
Y-01366602D03*
Y-01316602D03*
Y-01266602D03*
Y-01216602D03*
X02643701Y-01666602D03*
Y-01616602D03*
Y-01566602D03*
Y-01516602D03*
Y-01466602D03*
Y-01416602D03*
Y-01366602D03*
Y-01316602D03*
Y-01266602D03*
Y-01216602D03*
X02593701Y-01666602D03*
Y-01616602D03*
Y-01566602D03*
Y-01516602D03*
Y-01466602D03*
Y-01416602D03*
Y-01366602D03*
Y-01316602D03*
Y-01266602D03*
Y-01216602D03*
X02543701Y-01666602D03*
Y-01616602D03*
Y-01566602D03*
Y-01516602D03*
Y-01466602D03*
Y-01416602D03*
Y-01366602D03*
Y-01316602D03*
Y-01266602D03*
Y-01216602D03*
X02493701Y-01666602D03*
Y-01616602D03*
Y-01566602D03*
Y-01516602D03*
Y-01466602D03*
Y-01416602D03*
Y-01366602D03*
Y-01316602D03*
Y-01266602D03*
Y-01216602D03*
X02443701Y-01666602D03*
Y-01616602D03*
Y-01566602D03*
Y-01516602D03*
Y-01466602D03*
Y-01416602D03*
Y-01366602D03*
Y-01316602D03*
Y-01266602D03*
Y-01216602D03*
X02393701Y-01666602D03*
Y-01616602D03*
Y-01566602D03*
Y-01516602D03*
Y-01466602D03*
Y-01416602D03*
Y-01366602D03*
Y-01316602D03*
Y-01266602D03*
Y-01216602D03*
X02343701Y-01666602D03*
Y-01616602D03*
Y-01566602D03*
Y-01516602D03*
Y-01466602D03*
Y-01416602D03*
Y-01366602D03*
Y-01316602D03*
Y-01266602D03*
Y-01216602D03*
X02293701Y-01666602D03*
Y-01616602D03*
Y-01566602D03*
Y-01516602D03*
Y-01466602D03*
Y-01416602D03*
Y-01366602D03*
Y-01316602D03*
Y-01266602D03*
Y-01216602D03*
X02243701Y-01666602D03*
Y-01616602D03*
Y-01566602D03*
Y-01516602D03*
Y-01466602D03*
Y-01416602D03*
Y-01366602D03*
Y-01316602D03*
Y-01266602D03*
Y-01216602D03*
X02193701Y-01666602D03*
Y-01616602D03*
Y-01566602D03*
Y-01516602D03*
Y-01466602D03*
Y-01416602D03*
Y-01366602D03*
Y-01316602D03*
Y-01266602D03*
Y-01216602D03*
X02143701Y-01666602D03*
Y-01616602D03*
Y-01566602D03*
Y-01516602D03*
Y-01466602D03*
Y-01416602D03*
Y-01366602D03*
Y-01316602D03*
Y-01266602D03*
Y-01216602D03*
X02093701Y-01666602D03*
Y-01616602D03*
Y-01566602D03*
Y-01516602D03*
Y-01466602D03*
Y-01416602D03*
Y-01366602D03*
Y-01316602D03*
Y-01266602D03*
Y-01216602D03*
G54D15*
X04480433Y-03555394D02*
Y-03554606D01*
X04459567Y-03555394D02*
Y-03554606D01*
X04505866Y-03455394D02*
Y-03454606D01*
X04485000Y-03455394D02*
Y-03454606D01*
X02577362Y-04527953D02*
Y-04527166D01*
X02556496Y-04527953D02*
Y-04527166D01*
G54D14*
X04615945Y-02225748D02*
Y-02194252D01*
X04734055Y-02225748D02*
Y-02194252D01*
G54D15*
X01916929Y-02210039D02*
X01917716D01*
X01916929Y-02230906D02*
X01917716D01*
X01820433Y-01622441D02*
Y-01621654D01*
X01799567Y-01622441D02*
Y-01621654D01*
G54D18*
X01606063Y-02457480D02*
X01613937D01*
X01606063Y-02392520D02*
X01613937D01*
X01606063Y-02657480D02*
X01613937D01*
X01606063Y-02592520D02*
X01613937D01*
X01606063Y-02857480D02*
X01613937D01*
X01606063Y-02792520D02*
X01613937D01*
X01606063Y-03057480D02*
X01613937D01*
X01606063Y-02992520D02*
X01613937D01*
G54D14*
X02455000Y-01887087D02*
Y-01863465D01*
X02523898Y-01796535D02*
Y-01772913D01*
X02386102Y-01796535D02*
Y-01772913D01*
G54D35*
X01402559Y-04002362D02*
X01467519D01*
G54D43*
X01555906D02*
X01621260D01*
G54D35*
X01402559Y-04052362D02*
X01467519D01*
G54D43*
X01555906D02*
X01621260D01*
X01402362Y-04102362D02*
X01467716D01*
X01555906D02*
X01621260D01*
X01402362Y-04152362D02*
X01467716D01*
G54D35*
X01556103D02*
X01621063D01*
X01402559Y-04202362D02*
X01467519D01*
G54D43*
X01555906D02*
X01621260D01*
G54D14*
X04058268Y-02770000D02*
X04142914D01*
X04058268Y-01870000D02*
X04142914D01*
X04257086Y-02770000D02*
X04341732D01*
X04257086Y-01870000D02*
X04341732D01*
X04058268Y-02670000D02*
X04142914D01*
X04058268Y-02570000D02*
X04142914D01*
X04058268Y-02470000D02*
X04142914D01*
X04058268Y-02370000D02*
X04142914D01*
X04058268Y-02270000D02*
X04142914D01*
X04058268Y-02170000D02*
X04142914D01*
X04058268Y-02070000D02*
X04142914D01*
X04058268Y-01970000D02*
X04142914D01*
X04257086Y-02670000D02*
X04341732D01*
X04257086Y-02570000D02*
X04341732D01*
X04257086Y-02470000D02*
X04341732D01*
X04257086Y-02370000D02*
X04341732D01*
X04257086Y-02270000D02*
X04341732D01*
X04257086Y-02170000D02*
X04341732D01*
X04257086Y-02070000D02*
X04341732D01*
X04257086Y-01970000D02*
X04341732D01*
G54D15*
X01586221Y-04274213D02*
X01587008D01*
X01586221Y-04253346D02*
X01587008D01*
X02682480Y-04370472D02*
Y-04369685D01*
X02703346Y-04370472D02*
Y-04369685D01*
X02702165Y-04181496D02*
Y-04180709D01*
X02723031Y-04181496D02*
Y-04180709D01*
G54D16*
X03393701Y-03858268D03*
Y-03897638D03*
X03425197Y-03858268D03*
Y-03897638D03*
X02169291Y-03523622D03*
Y-03484252D03*
X02244094Y-04102362D03*
Y-04062992D03*
X01720472Y-04027559D03*
Y-03988189D03*
X01759843Y-03472441D03*
Y-03511811D03*
G54D15*
X02231890Y-04471063D02*
X02232677D01*
X02231890Y-04450197D02*
X02232677D01*
G54D44*
X01200787Y-04731102D02*
X03432815D01*
X03437186Y-04730611D01*
X03441339Y-04729161D01*
X03445066Y-04726826D01*
X03448181Y-04723721D01*
X03450530Y-04720001D01*
X03451994Y-04715854D01*
X03452500Y-04711484D01*
X03452500Y-04711417D01*
Y-04322500D01*
X04125000D01*
Y-04711417D01*
X04125491Y-04715788D01*
X04126941Y-04719941D01*
X04129277Y-04723668D01*
X04132382Y-04726784D01*
X04136101Y-04729132D01*
X04140249Y-04730596D01*
X04144618Y-04731102D01*
X04144685Y-04731102D01*
X04936614D01*
X04940985Y-04730611D01*
X04945138Y-04729161D01*
X04948865Y-04726826D01*
X04951981Y-04723721D01*
X04954329Y-04720001D01*
X04955793Y-04715854D01*
X04956299Y-04711484D01*
X04956299Y-04711417D01*
Y-01200787D01*
X04955808Y-01196416D01*
X04954358Y-01192264D01*
X04952022Y-01188536D01*
X04948917Y-01185421D01*
X04945198Y-01183073D01*
X04941050Y-01181609D01*
X04936681Y-01181102D01*
X04936614Y-01181102D01*
X01200787D01*
X01196416Y-01181594D01*
X01192264Y-01183044D01*
X01188536Y-01185379D01*
X01185421Y-01188484D01*
X01183073Y-01192203D01*
X01181609Y-01196351D01*
X01181102Y-01200721D01*
X01181102Y-01200787D01*
Y-04711417D01*
X01181594Y-04715788D01*
X01183044Y-04719941D01*
X01185379Y-04723668D01*
X01188484Y-04726784D01*
X01192203Y-04729132D01*
X01196351Y-04730596D01*
X01200721Y-04731102D01*
X01200787Y-04731102D01*
M02*
