*
%FSLAX26Y26*%
%MOIN*%
%ADD10R,0.018000X0.018000*%
%ADD11R,0.014000X0.014000*%
%ADD12R,0.009024X0.009024*%
%ADD13R,0.037370X0.037370*%
%ADD14R,0.017685X0.017685*%
%ADD15R,0.068866X0.068866*%
%ADD16R,0.029496X0.029496*%
%ADD17R,0.021000X0.021000*%
%ADD18R,0.120047X0.120047*%
%ADD19R,0.076740X0.076740*%
%ADD20R,0.100362X0.100362*%
%ADD21C,0.028000*%
%ADD22R,0.007055X0.007055*%
%ADD23R,0.018669X0.018669*%
%ADD24R,0.019496X0.019496*%
%ADD25R,0.049181X0.049181*%
%ADD26R,0.007843X0.007843*%
%ADD27R,0.033482X0.033482*%
%ADD28R,0.025559X0.025559*%
%ADD29R,0.009811X0.009811*%
%ADD30R,0.021622X0.021622*%
%ADD31R,0.057843X0.057843*%
%ADD32R,0.015717X0.015717*%
%ADD33R,0.023591X0.023591*%
%ADD34R,0.045244X0.045244*%
%ADD35C,0.010000*%
%IPPOS*%
%LNciaa_acc-b.paste.gbr*%
%LPD*%
G75*
G54D10*
X04666142Y-04138524D02*
Y-03448524D01*
G54D11*
X04504142Y-03481024D02*
X04573142D01*
X04504142Y-03506024D02*
X04573142D01*
X04504142Y-03531024D02*
X04573142D01*
X04504142Y-03556024D02*
X04573142D01*
X04504142Y-03581024D02*
X04573142D01*
X04504142Y-03606024D02*
X04573142D01*
X04504142Y-03631024D02*
X04573142D01*
X04504142Y-03656024D02*
X04573142D01*
X04504142Y-03681024D02*
X04573142D01*
X04504142Y-03706024D02*
X04573142D01*
X04504142Y-03731024D02*
X04573142D01*
X04504142Y-03756024D02*
X04573142D01*
X04504142Y-03781024D02*
X04573142D01*
X04504142Y-03806024D02*
X04573142D01*
X04504142Y-03831024D02*
X04573142D01*
X04504142Y-03856024D02*
X04573142D01*
X04504142Y-03881024D02*
X04573142D01*
X04504142Y-03906024D02*
X04573142D01*
X04504142Y-03931024D02*
X04573142D01*
X04504142Y-03956024D02*
X04573142D01*
X04504142Y-03981024D02*
X04573142D01*
X04504142Y-04006024D02*
X04573142D01*
X04504142Y-04031024D02*
X04573142D01*
X04504142Y-04056024D02*
X04573142D01*
X04504142Y-04081024D02*
X04573142D01*
X04504142Y-04106024D02*
X04573142D01*
X04759142Y-03481024D02*
X04828142D01*
X04759142Y-03506024D02*
X04828142D01*
X04759142Y-03531024D02*
X04828142D01*
X04759142Y-03556024D02*
X04828142D01*
X04759142Y-03581024D02*
X04828142D01*
X04759142Y-03606024D02*
X04828142D01*
X04759142Y-03631024D02*
X04828142D01*
X04759142Y-03656024D02*
X04828142D01*
X04759142Y-03681024D02*
X04828142D01*
X04759142Y-03706024D02*
X04828142D01*
X04759142Y-03731024D02*
X04828142D01*
X04759142Y-03756024D02*
X04828142D01*
X04759142Y-03781024D02*
X04828142D01*
X04759142Y-03806024D02*
X04828142D01*
X04759142Y-03831024D02*
X04828142D01*
X04759142Y-03856024D02*
X04828142D01*
X04759142Y-03881024D02*
X04828142D01*
X04759142Y-03906024D02*
X04828142D01*
X04759142Y-03931024D02*
X04828142D01*
X04759142Y-03956024D02*
X04828142D01*
X04759142Y-03981024D02*
X04828142D01*
X04759142Y-04006024D02*
X04828142D01*
X04759142Y-04031024D02*
X04828142D01*
X04759142Y-04056024D02*
X04828142D01*
X04759142Y-04081024D02*
X04828142D01*
X04759142Y-04106024D02*
X04828142D01*
G54D12*
X02448425Y-03809646D02*
X02449212D01*
X02448425Y-03788780D02*
X02449212D01*
X02598032Y-04061614D02*
X02598819D01*
X02598032Y-04040748D02*
X02598819D01*
X02434449Y-04102756D02*
Y-04101969D01*
X02455315Y-04102756D02*
Y-04101969D01*
X02594095Y-03967126D02*
X02594882D01*
X02594095Y-03946260D02*
X02594882D01*
X02409055Y-04021063D02*
X02409842D01*
X02409055Y-04041929D02*
X02409842D01*
X02629528Y-03883268D02*
X02630315D01*
X02629528Y-03904134D02*
X02630315D01*
X02409055Y-03587992D02*
X02409842D01*
X02409055Y-03608858D02*
X02409842D01*
X02408071Y-03988582D02*
Y-03987795D01*
X02387205Y-03988582D02*
Y-03987795D01*
X02700394Y-03615551D02*
X02701181D01*
X02700394Y-03636417D02*
X02701181D01*
X02409055Y-03832087D02*
X02409842D01*
X02409055Y-03852953D02*
X02409842D01*
X02409055Y-03951378D02*
X02409842D01*
X02409055Y-03930512D02*
X02409842D01*
X02700394Y-03678543D02*
X02701181D01*
X02700394Y-03699409D02*
X02701181D01*
X02450197Y-03842913D02*
Y-03842126D01*
X02471063Y-03842913D02*
Y-03842126D01*
X02409055Y-03867520D02*
X02409842D01*
X02409055Y-03888386D02*
X02409842D01*
X02657087Y-03788780D02*
X02657874D01*
X02657087Y-03809646D02*
X02657874D01*
X02700394Y-03576181D02*
X02701181D01*
X02700394Y-03597047D02*
X02701181D01*
X02468110Y-03788780D02*
X02468897D01*
X02468110Y-03809646D02*
X02468897D01*
X02700394Y-03930512D02*
X02701181D01*
X02700394Y-03951378D02*
X02701181D01*
X02637402Y-03809646D02*
X02638189D01*
X02637402Y-03788780D02*
X02638189D01*
X02409055Y-03678543D02*
X02409842D01*
X02409055Y-03699409D02*
X02409842D01*
X02700394Y-04014370D02*
X02701181D01*
X02700394Y-03993504D02*
X02701181D01*
X02720079Y-04056496D02*
X02720866D01*
X02720079Y-04077362D02*
X02720866D01*
X02409055Y-03631299D02*
X02409842D01*
X02409055Y-03652165D02*
X02409842D01*
X02700394Y-04077362D02*
X02701181D01*
X02700394Y-04056496D02*
X02701181D01*
G54D13*
X02874016Y-04129921D02*
X02905512D01*
X02874016Y-04011811D02*
X02905512D01*
G54D12*
X02999606Y-03809646D02*
X03000394D01*
X02999606Y-03788780D02*
X03000394D01*
X03149213Y-04061614D02*
X03150000D01*
X03149213Y-04040748D02*
X03150000D01*
X02985630Y-04102756D02*
Y-04101969D01*
X03006496Y-04102756D02*
Y-04101969D01*
X03149213Y-03967126D02*
X03150000D01*
X03149213Y-03946260D02*
X03150000D01*
X02960236Y-04025000D02*
X02961023D01*
X02960236Y-04045866D02*
X02961023D01*
X03180709Y-03883268D02*
X03181496D01*
X03180709Y-03904134D02*
X03181496D01*
X02960236Y-03587992D02*
X02961023D01*
X02960236Y-03608858D02*
X02961023D01*
X02959252Y-03988582D02*
Y-03987795D01*
X02938386Y-03988582D02*
Y-03987795D01*
X03251575Y-03615551D02*
X03252362D01*
X03251575Y-03636417D02*
X03252362D01*
X02960236Y-03832087D02*
X02961023D01*
X02960236Y-03852953D02*
X02961023D01*
X02960236Y-03951378D02*
X02961023D01*
X02960236Y-03930512D02*
X02961023D01*
X03251575Y-03678543D02*
X03252362D01*
X03251575Y-03699409D02*
X03252362D01*
X03001378Y-03842913D02*
Y-03842126D01*
X03022244Y-03842913D02*
Y-03842126D01*
X02960236Y-03867520D02*
X02961023D01*
X02960236Y-03888386D02*
X02961023D01*
X03208268Y-03788780D02*
X03209055D01*
X03208268Y-03809646D02*
X03209055D01*
X03251575Y-03576181D02*
X03252362D01*
X03251575Y-03597047D02*
X03252362D01*
X03019292Y-03788780D02*
X03020079D01*
X03019292Y-03809646D02*
X03020079D01*
X03251575Y-03930512D02*
X03252362D01*
X03251575Y-03951378D02*
X03252362D01*
X03188583Y-03809646D02*
X03189370D01*
X03188583Y-03788780D02*
X03189370D01*
X02960236Y-03678543D02*
X02961023D01*
X02960236Y-03699409D02*
X02961023D01*
X03251575Y-04014370D02*
X03252362D01*
X03251575Y-03993504D02*
X03252362D01*
X03271260Y-04056496D02*
X03272047D01*
X03271260Y-04077362D02*
X03272047D01*
X02960236Y-03631299D02*
X02961023D01*
X02960236Y-03652165D02*
X02961023D01*
X03251575Y-04077362D02*
X03252362D01*
X03251575Y-04056496D02*
X03252362D01*
G54D13*
X02192913Y-04023622D02*
X02224409D01*
X02192913Y-03905512D02*
X02224409D01*
G54D12*
X02168898Y-03730906D02*
X02169685D01*
X02168898Y-03710039D02*
X02169685D01*
X02168898Y-03836024D02*
X02169685D01*
X02168898Y-03856890D02*
X02169685D01*
X02700394Y-03884449D02*
X02701181D01*
X02700394Y-03863583D02*
X02701181D01*
X03251575Y-03888386D02*
X03252362D01*
X03251575Y-03867520D02*
X03252362D01*
G54D13*
X04870079Y-02913386D02*
X04901575D01*
X04870079Y-03031496D02*
X04901575D01*
X04669291Y-03244094D02*
Y-03212598D01*
X04787402Y-03244094D02*
Y-03212598D01*
G54D12*
X02243701Y-04077362D02*
X02244488D01*
X02243701Y-04056496D02*
X02244488D01*
G54D14*
X02354331Y-04023622D03*
Y-04062992D03*
X04545000Y-03043307D03*
Y-03082677D03*
X04551181Y-03224409D03*
X04511811D03*
X04586614D03*
X04625984D03*
G54D15*
X04181536Y-03507480D02*
X04198464D01*
X04181536Y-03392520D02*
X04198464D01*
X04421536Y-03507480D02*
X04438464D01*
X04421536Y-03392520D02*
X04438464D01*
X04301536Y-03507480D02*
X04318464D01*
X04301536Y-03392520D02*
X04318464D01*
G54D13*
X04870079Y-02814961D02*
X04901575D01*
X04870079Y-02696850D02*
X04901575D01*
X04216535Y-02787402D02*
X04248031D01*
X04216535Y-02669291D02*
X04248031D01*
X04393701Y-01933071D02*
Y-01901575D01*
X04275591Y-01933071D02*
Y-01901575D01*
X04665354Y-01692913D02*
Y-01661417D01*
X04783465Y-01692913D02*
Y-01661417D01*
G54D14*
X04484252Y-02326772D03*
X04444882D03*
X04905512Y-02460630D03*
X04866142D03*
X04444882Y-02263780D03*
X04484252D03*
X04904685Y-02562992D03*
X04865315D03*
X04444882Y-02354331D03*
X04484252D03*
X04905512Y-02492126D03*
X04866142D03*
G54D12*
X04542914Y-02207283D02*
X04543701D01*
X04542914Y-02186417D02*
X04543701D01*
X04723031Y-02527953D02*
Y-02527166D01*
X04702165Y-02527953D02*
Y-02527166D01*
G54D14*
X04905512Y-02279528D03*
X04866142D03*
X04444882Y-02456693D03*
X04484252D03*
G54D16*
X04931102Y-02379921D02*
Y-02375984D01*
X04872047Y-02379921D02*
Y-02375984D01*
G54D14*
X04905512Y-02188976D03*
X04866142D03*
X04484252Y-02551181D03*
X04444882D03*
G54D16*
X04931102Y-02423228D02*
Y-02419291D01*
X04872047Y-02423228D02*
Y-02419291D01*
G54D14*
X04905512Y-02251969D03*
X04866142D03*
X04484252Y-02488189D03*
X04444882D03*
G54D12*
X04782087Y-02197244D02*
Y-02196457D01*
X04761220Y-02197244D02*
Y-02196457D01*
X04623425Y-02527953D02*
Y-02527166D01*
X04644291Y-02527953D02*
Y-02527166D01*
X04179567Y-03825394D02*
Y-03824606D01*
X04200433Y-03825394D02*
Y-03824606D01*
X04179567Y-03805394D02*
Y-03804606D01*
X04200433Y-03805394D02*
Y-03804606D01*
X04349016Y-03559449D02*
Y-03558662D01*
X04328150Y-03559449D02*
Y-03558662D01*
X04288780Y-03972834D02*
Y-03972047D01*
X04309646Y-03972834D02*
Y-03972047D01*
G54D14*
X02031496Y-04488189D03*
X01992126D03*
X01818898Y-04610236D03*
X01779528D03*
G54D12*
X04262402Y-02838976D02*
Y-02838189D01*
X04241535Y-02838976D02*
Y-02838189D01*
X04167116Y-02838976D02*
Y-02838189D01*
X04187983Y-02838976D02*
Y-02838189D01*
X03821457Y-02768110D02*
Y-02767323D01*
X03800591Y-02768110D02*
Y-02767323D01*
X03879331Y-02768110D02*
Y-02767323D01*
X03900197Y-02768110D02*
Y-02767323D01*
X03821457Y-02590945D02*
Y-02590158D01*
X03800591Y-02590945D02*
Y-02590158D01*
X03879331Y-02590945D02*
Y-02590158D01*
X03900197Y-02590945D02*
Y-02590158D01*
G54D14*
X02035000Y-03165315D03*
Y-03204685D03*
Y-03265315D03*
Y-03304685D03*
Y-03365315D03*
Y-03404685D03*
X01944882Y-03555118D03*
X01984252D03*
G54D12*
X01922638Y-03728740D02*
Y-03727953D01*
X01943504Y-03728740D02*
Y-03727953D01*
X01788780Y-03878346D02*
Y-03877559D01*
X01809646Y-03878346D02*
Y-03877559D01*
X01963189Y-03583071D02*
Y-03582284D01*
X01942323Y-03583071D02*
Y-03582284D01*
X01776969Y-03583071D02*
Y-03582284D01*
X01797835Y-03583071D02*
Y-03582284D01*
G54D13*
X03122047Y-02775591D02*
X03153543D01*
X03122047Y-02657480D02*
X03153543D01*
G54D15*
X03286811Y-02805512D02*
X03303740D01*
X03286811Y-02690551D02*
X03303740D01*
G54D13*
X02956693Y-02775591D02*
X02988189D01*
X02956693Y-02657480D02*
X02988189D01*
G54D15*
X03680512Y-02805512D02*
X03697441D01*
X03680512Y-02690551D02*
X03697441D01*
G54D13*
X02574803Y-02385827D02*
X02606299D01*
X02574803Y-02503937D02*
X02606299D01*
G54D15*
X03444291Y-02805512D02*
X03461220D01*
X03444291Y-02690551D02*
X03461220D01*
X03562402Y-02805512D02*
X03579331D01*
X03562402Y-02690551D02*
X03579331D01*
G54D13*
X03082677Y-02858268D02*
X03114173D01*
X03082677Y-02976378D02*
X03114173D01*
X02917323Y-02858268D02*
X02940945D01*
X02913386Y-02976378D02*
X02944882D01*
X02921260Y-02578740D02*
Y-02547244D01*
X03039370Y-02578740D02*
Y-02547244D01*
X03169291Y-03279528D02*
Y-03248031D01*
X03051181Y-03279528D02*
Y-03248031D01*
X03433071Y-02901575D02*
Y-02870079D01*
X03551181Y-02901575D02*
Y-02870079D01*
G54D12*
X03148228Y-03035827D02*
Y-03035040D01*
X03127362Y-03035827D02*
Y-03035040D01*
X03087992Y-03075197D02*
Y-03074410D01*
X03108858Y-03075197D02*
Y-03074410D01*
G54D13*
X02724409Y-02460630D02*
Y-02429134D01*
X02842520Y-02460630D02*
Y-02429134D01*
G54D14*
X03787402Y-03157480D03*
X03826772D03*
X03700787Y-03106299D03*
Y-03066929D03*
X03881890Y-03122047D03*
Y-03161417D03*
X03700787Y-02996063D03*
Y-03035433D03*
G54D12*
X03216142Y-02927756D02*
X03216929D01*
X03216142Y-02906890D02*
X03216929D01*
G54D16*
X02198819Y-04584646D02*
X02202756D01*
X02198819Y-04525591D02*
X02202756D01*
G54D12*
X03822441Y-03525000D02*
X03823228D01*
X03822441Y-03545866D02*
X03823228D01*
X03789606Y-03575433D02*
X03790394D01*
X03789606Y-03554567D02*
X03790394D01*
X04015433Y-03515394D02*
Y-03514606D01*
X03994567Y-03515394D02*
Y-03514606D01*
X03924803Y-03556496D02*
X03925590D01*
X03924803Y-03577362D02*
X03925590D01*
G54D14*
X04244094Y-01590551D03*
Y-01551181D03*
G54D12*
X03874606Y-03735433D02*
X03875394D01*
X03874606Y-03714567D02*
X03875394D01*
X03974606Y-03735433D02*
X03975394D01*
X03974606Y-03714567D02*
X03975394D01*
G54D14*
X04350394Y-01625984D03*
Y-01665354D03*
G54D12*
X04168898Y-03990748D02*
X04169685D01*
X04168898Y-03969882D02*
X04169685D01*
X04204331Y-04187598D02*
X04205118D01*
X04204331Y-04166732D02*
X04205118D01*
X03814567Y-03660039D02*
X03815354D01*
X03814567Y-03639173D02*
X03815354D01*
G54D17*
X02954921Y-04399638D02*
Y-04395638D01*
X02871850Y-04399638D02*
Y-04395638D01*
X02482252Y-02958858D02*
X02486252D01*
X02482252Y-02875787D02*
X02486252D01*
X03875953Y-03084843D02*
X03879953D01*
X03875953Y-03001772D02*
X03879953D01*
X02372244Y-04576803D02*
Y-04572803D01*
X02289173Y-04576803D02*
Y-04572803D01*
X03734220Y-03580906D02*
X03738220D01*
X03734220Y-03497835D02*
X03738220D01*
G54D16*
X01848425Y-04557087D02*
Y-04553150D01*
X01907480Y-04557087D02*
Y-04553150D01*
X01414528Y-01906969D02*
Y-01903031D01*
X01355472Y-01906969D02*
Y-01903031D01*
X01414528Y-02241969D02*
Y-02238031D01*
X01355472Y-02241969D02*
Y-02238031D01*
X02147638Y-04525591D02*
X02151575D01*
X02147638Y-04584646D02*
X02151575D01*
X04064961Y-03694882D02*
X04068898D01*
X04064961Y-03753937D02*
X04068898D01*
X04013031Y-03695472D02*
X04016969D01*
X04013031Y-03754528D02*
X04016969D01*
X03833031D02*
X03836969D01*
X03833031Y-03695472D02*
X03836969D01*
G54D18*
X04458504Y-03103937D02*
Y-03096063D01*
X04021496Y-03103937D02*
Y-03096063D01*
G54D19*
X04466535Y-02161417D02*
Y-02003937D01*
X04297244Y-02161417D02*
Y-02003937D01*
G54D20*
X04600393Y-02643701D02*
X04785433D01*
X04600393Y-02828740D02*
X04785433D01*
G54D15*
X04689567Y-02122165D02*
X04760433D01*
X04689567Y-01767835D02*
X04760433D01*
G54D19*
X04490157Y-02799212D02*
Y-02641732D01*
X04320866Y-02799212D02*
Y-02641732D01*
G54D14*
X02862205Y-03035433D03*
X02901575D03*
X02783465D03*
X02822835D03*
X02204724Y-03598425D03*
X02244094D03*
X02204724Y-03724409D03*
X02244094D03*
X02204724Y-03661417D03*
X02244094D03*
X02204724Y-03566929D03*
X02244094D03*
X02204724Y-03629921D03*
X02244094D03*
X02204724Y-03787402D03*
X02244094D03*
X02204724Y-03535433D03*
X02244094D03*
X02204724Y-03692913D03*
X02244094D03*
X02204724Y-03818898D03*
X02244094D03*
X02204724Y-03850394D03*
X02244094D03*
X02204724Y-03755906D03*
X02244094D03*
X02263780Y-03881890D03*
Y-03921260D03*
X02984252Y-03736220D03*
X02944882D03*
X02433071D03*
X02393701D03*
X02314961Y-04122047D03*
X02275591D03*
X04822835Y-02909449D03*
X04783465D03*
X04700787D03*
X04740157D03*
X04664685Y-02910000D03*
X04625315D03*
X04545000Y-03153543D03*
Y-03114173D03*
X04511811Y-03192913D03*
X04551181D03*
X04031496Y-04031496D03*
Y-04070866D03*
X04551181Y-03255906D03*
X04511811D03*
X04625984D03*
X04586614D03*
X03771654Y-04212598D03*
X03811024D03*
X04444882Y-02295000D03*
X04484252D03*
X04905512Y-02527559D03*
X04866142D03*
X04330709Y-02224409D03*
X04370079D03*
X04405512D03*
X04444882D03*
X04866142Y-02645669D03*
Y-02606299D03*
X04905512D03*
Y-02645669D03*
Y-02220472D03*
X04866142D03*
X04444882Y-02519685D03*
X04484252D03*
X04866142Y-02311024D03*
X04905512D03*
X04484252Y-02385827D03*
X04444882D03*
Y-02421260D03*
X04484252D03*
X04877953Y-02102362D03*
Y-02141732D03*
X04913386D03*
Y-02102362D03*
X04338583Y-02578740D03*
X04377953D03*
X04413386Y-02543307D03*
Y-02582677D03*
X04885000Y-03669291D03*
Y-03708661D03*
X02755906Y-04437008D03*
X02716535D03*
X02586614Y-02917323D03*
X02547244D03*
X02822835Y-02562992D03*
Y-02523622D03*
X01779528Y-04535433D03*
Y-04574803D03*
X01811024D03*
Y-04535433D03*
G54D13*
X01609252Y-03309055D02*
X01640748D01*
X01609252Y-03190945D02*
X01640748D01*
X01609252Y-03509055D02*
X01640748D01*
X01609252Y-03390945D02*
X01640748D01*
X01609252Y-03704055D02*
X01640748D01*
X01609252Y-03585945D02*
X01640748D01*
X01609252Y-03889055D02*
X01640748D01*
X01609252Y-03770945D02*
X01640748D01*
G54D14*
X02665354Y-02484252D03*
Y-02523622D03*
X01854331Y-02181102D03*
X01814961D03*
X03811024Y-03385827D03*
Y-03425197D03*
X03452756Y-03074803D03*
Y-03035433D03*
X03948819Y-02964567D03*
X03909449D03*
X03255906Y-02877953D03*
Y-02917323D03*
X03216535Y-02956693D03*
X03255906D03*
X03790000Y-03625315D03*
Y-03664685D03*
X04248031Y-04059055D03*
Y-04019685D03*
X04212598Y-04059055D03*
Y-04019685D03*
X04413386Y-01665354D03*
X04452756D03*
X03724409Y-04287402D03*
X03685039D03*
X03724409Y-04251969D03*
X03685039D03*
X03255906Y-02602362D03*
Y-02562992D03*
X03295276Y-02484252D03*
X03255906D03*
G54D13*
X04389764Y-01838583D02*
Y-01775591D01*
X04271654Y-01838583D02*
Y-01775591D01*
G54D21*
X02035433Y-03948819D03*
X04511811Y-02224409D03*
X01964567Y-03948819D03*
G54D22*
X02263780Y-04093898D02*
Y-04075394D01*
X02279528Y-04093898D02*
Y-04075394D01*
X02295276Y-04093898D02*
Y-04075394D01*
X02311024Y-04093898D02*
Y-04075394D01*
X02326772Y-04093898D02*
Y-04075394D01*
X02263780Y-04011220D02*
Y-03992717D01*
X02279528Y-04011220D02*
Y-03992717D01*
X02295276Y-04011220D02*
Y-03992717D01*
X02311024Y-04011220D02*
Y-03992717D01*
X02326772Y-04011220D02*
Y-03992717D01*
G54D23*
X02280512Y-04045374D02*
Y-04041240D01*
X02310039Y-04045374D02*
Y-04041240D01*
G54D12*
X04790945Y-03055000D02*
X04813386D01*
X04790945Y-03074685D02*
X04813386D01*
X04790945Y-03094370D02*
X04813386D01*
X04790945Y-03114055D02*
X04813386D01*
X04790945Y-03133740D02*
X04813386D01*
X04790945Y-03153425D02*
X04813386D01*
X04790945Y-03035315D02*
X04813386D01*
X04790945Y-03015630D02*
X04813386D01*
X04790945Y-02995945D02*
X04813386D01*
X04790945Y-02976260D02*
X04813386D01*
X04790945Y-02956575D02*
X04813386D01*
X04596063Y-03153425D02*
X04618504D01*
X04596063Y-03133740D02*
X04618504D01*
X04596063Y-03114055D02*
X04618504D01*
X04596063Y-03094370D02*
X04618504D01*
X04596063Y-03074685D02*
X04618504D01*
X04596063Y-03055000D02*
X04618504D01*
X04596063Y-03035315D02*
X04618504D01*
X04596063Y-03015630D02*
X04618504D01*
X04596063Y-02995945D02*
X04618504D01*
X04596063Y-02976260D02*
X04618504D01*
X04596063Y-02956575D02*
X04618504D01*
G54D24*
X04743110Y-03147126D02*
X04751378D01*
X04700590D02*
X04708858D01*
X04658071D02*
X04666339D01*
X04743110Y-03116417D02*
X04751378D01*
X04743110Y-03085709D02*
X04751378D01*
X04743110Y-03055000D02*
X04751378D01*
X04743110Y-03024291D02*
X04751378D01*
X04743110Y-02993583D02*
X04751378D01*
X04743110Y-02962874D02*
X04751378D01*
X04700590D02*
X04708858D01*
X04700590Y-02993583D02*
X04708858D01*
X04700590Y-03024291D02*
X04708858D01*
X04700590Y-03055000D02*
X04708858D01*
X04700590Y-03085709D02*
X04708858D01*
X04700590Y-03116417D02*
X04708858D01*
X04658071D02*
X04666339D01*
X04658071Y-03085709D02*
X04666339D01*
X04658071Y-03055000D02*
X04666339D01*
X04658071Y-03024291D02*
X04666339D01*
X04658071Y-02993583D02*
X04666339D01*
X04658071Y-02962874D02*
X04666339D01*
G54D25*
X03614173Y-04052362D02*
Y-04044488D01*
Y-04152362D02*
Y-04144488D01*
X03968504Y-04052362D02*
Y-04044488D01*
Y-04152362D02*
Y-04144488D01*
G54D26*
X04564961Y-02237204D02*
Y-02219488D01*
X04584646Y-02237204D02*
Y-02219488D01*
X04604331Y-02237204D02*
Y-02219488D01*
X04624016Y-02237204D02*
Y-02219488D01*
X04643701Y-02237204D02*
Y-02219488D01*
X04663386Y-02237204D02*
Y-02219488D01*
X04683071Y-02237204D02*
Y-02219488D01*
X04702756Y-02237204D02*
Y-02219488D01*
X04722441Y-02237204D02*
Y-02219488D01*
X04742126Y-02237204D02*
Y-02219488D01*
X04761811Y-02237204D02*
Y-02219488D01*
X04781496Y-02237204D02*
Y-02219488D01*
X04798229Y-02253937D02*
X04815945D01*
X04798229Y-02273622D02*
X04815945D01*
X04798229Y-02293307D02*
X04815945D01*
X04798229Y-02312992D02*
X04815945D01*
X04798229Y-02332677D02*
X04815945D01*
X04798229Y-02352362D02*
X04815945D01*
X04798229Y-02372047D02*
X04815945D01*
X04798229Y-02391732D02*
X04815945D01*
X04798229Y-02411417D02*
X04815945D01*
X04798229Y-02431102D02*
X04815945D01*
X04798229Y-02450787D02*
X04815945D01*
X04798229Y-02470472D02*
X04815945D01*
X04781496Y-02504921D02*
Y-02487205D01*
X04761811Y-02504921D02*
Y-02487205D01*
X04742126Y-02504921D02*
Y-02487205D01*
X04722441Y-02504921D02*
Y-02487205D01*
X04702756Y-02504921D02*
Y-02487205D01*
X04683071Y-02504921D02*
Y-02487205D01*
X04663386Y-02504921D02*
Y-02487205D01*
X04643701Y-02504921D02*
Y-02487205D01*
X04624016Y-02504921D02*
Y-02487205D01*
X04604331Y-02504921D02*
Y-02487205D01*
X04584646Y-02504921D02*
Y-02487205D01*
X04564961Y-02504921D02*
Y-02487205D01*
X04530512Y-02470472D02*
X04548228D01*
X04530512Y-02450787D02*
X04548228D01*
X04530512Y-02431102D02*
X04548228D01*
X04530512Y-02411417D02*
X04548228D01*
X04530512Y-02391732D02*
X04548228D01*
X04530512Y-02372047D02*
X04548228D01*
X04530512Y-02352362D02*
X04548228D01*
X04530512Y-02332677D02*
X04548228D01*
X04530512Y-02312992D02*
X04548228D01*
X04530512Y-02293307D02*
X04548228D01*
X04530512Y-02273622D02*
X04548228D01*
X04530512Y-02253937D02*
X04548228D01*
G54D27*
X04749262Y-02438238D03*
X04698573D03*
X04647884D03*
X04597195D03*
X04749262Y-02387549D03*
X04698573D03*
X04647884D03*
X04597195D03*
X04749262Y-02336860D03*
X04698573D03*
X04647884D03*
X04597195D03*
X04749262Y-02286171D03*
X04698573D03*
X04647884D03*
X04597195D03*
G54D28*
X04319685Y-03842264D02*
Y-03835374D01*
G54D29*
X04357086Y-03765000D02*
X04378740D01*
X04357086Y-03784685D02*
X04378740D01*
X04357086Y-03804370D02*
X04378740D01*
X04357086Y-03824055D02*
X04378740D01*
X04357086Y-03843740D02*
X04378740D01*
X04357086Y-03863425D02*
X04378740D01*
X04357086Y-03883110D02*
X04378740D01*
X04357086Y-03902795D02*
X04378740D01*
X04357086Y-03922480D02*
X04378740D01*
X04357086Y-03745315D02*
X04378740D01*
X04357086Y-03725630D02*
X04378740D01*
X04357086Y-03705945D02*
X04378740D01*
X04357086Y-03686260D02*
X04378740D01*
X04357086Y-03666575D02*
X04378740D01*
X04357086Y-03646890D02*
X04378740D01*
X04357086Y-03627205D02*
X04378740D01*
X04357086Y-03607520D02*
X04378740D01*
X04221260Y-03765000D02*
X04242914D01*
X04221260Y-03745315D02*
X04242914D01*
X04221260Y-03725630D02*
X04242914D01*
X04221260Y-03705945D02*
X04242914D01*
X04221260Y-03686260D02*
X04242914D01*
X04221260Y-03666575D02*
X04242914D01*
X04221260Y-03646890D02*
X04242914D01*
X04221260Y-03627205D02*
X04242914D01*
X04221260Y-03607520D02*
X04242914D01*
X04221260Y-03784685D02*
X04242914D01*
X04221260Y-03804370D02*
X04242914D01*
X04221260Y-03824055D02*
X04242914D01*
X04221260Y-03843740D02*
X04242914D01*
X04221260Y-03863425D02*
X04242914D01*
X04221260Y-03883110D02*
X04242914D01*
X04221260Y-03902795D02*
X04242914D01*
X04221260Y-03922480D02*
X04242914D01*
X04329528Y-03952008D02*
Y-03930354D01*
X04309843Y-03952008D02*
Y-03930354D01*
X04290157Y-03952008D02*
Y-03930354D01*
X04270472Y-03952008D02*
Y-03930354D01*
X04329528Y-03599646D02*
Y-03577992D01*
X04309843Y-03599646D02*
Y-03577992D01*
X04290157Y-03599646D02*
Y-03577992D01*
X04270472Y-03599646D02*
Y-03577992D01*
G54D28*
X04319685Y-03793051D02*
Y-03786161D01*
Y-03891476D02*
Y-03884587D01*
X04280315Y-03891476D02*
Y-03884587D01*
Y-03842264D02*
Y-03835374D01*
Y-03793051D02*
Y-03786161D01*
Y-03743839D02*
Y-03736949D01*
Y-03694626D02*
Y-03687736D01*
Y-03645413D02*
Y-03638524D01*
X04319685Y-03645413D02*
Y-03638524D01*
Y-03694626D02*
Y-03687736D01*
Y-03743839D02*
Y-03736949D01*
G54D30*
X01750984Y-03510000D02*
X01786417D01*
X01750984Y-03460000D02*
X01786417D01*
X01750984Y-03410000D02*
X01786417D01*
X01750984Y-03360000D02*
X01786417D01*
X01750984Y-03310000D02*
X01786417D01*
X01750984Y-03260000D02*
X01786417D01*
X01750984Y-03210000D02*
X01786417D01*
X01750984Y-03160000D02*
X01786417D01*
X01963583D02*
X01999016D01*
X01963583Y-03210000D02*
X01999016D01*
X01963583Y-03260000D02*
X01999016D01*
X01963583Y-03310000D02*
X01999016D01*
X01963583Y-03360000D02*
X01999016D01*
X01963583Y-03410000D02*
X01999016D01*
X01963583Y-03460000D02*
X01999016D01*
X01963583Y-03510000D02*
X01999016D01*
G54D31*
X01627165Y-02241654D02*
X01637401D01*
X01627165Y-02616614D02*
X01637401D01*
X01727165D02*
X01737401D01*
X01827165D02*
X01837401D01*
X01827165Y-02241654D02*
X01837401D01*
X01727165D02*
X01737401D01*
X01627165Y-02702283D02*
X01637401D01*
X01627165Y-03077244D02*
X01637401D01*
X01727165D02*
X01737401D01*
X01827165D02*
X01837401D01*
X01827165Y-02702283D02*
X01837401D01*
X01727165D02*
X01737401D01*
G54D32*
X01926181Y-03837598D02*
X01961614D01*
X01926181Y-03812008D02*
X01961614D01*
X01926181Y-03786417D02*
X01961614D01*
X01926181Y-03760827D02*
X01961614D01*
X01770669Y-03837598D02*
X01806102D01*
X01770669Y-03812008D02*
X01806102D01*
X01770669Y-03786417D02*
X01806102D01*
X01770669Y-03760827D02*
X01806102D01*
X01770669Y-03615157D02*
X01806102D01*
X01770669Y-03640748D02*
X01806102D01*
X01770669Y-03666339D02*
X01806102D01*
X01770669Y-03691929D02*
X01806102D01*
X01926181Y-03615157D02*
X01961614D01*
X01926181Y-03640748D02*
X01961614D01*
X01926181Y-03666339D02*
X01961614D01*
X01926181Y-03691929D02*
X01961614D01*
G54D16*
X01420433Y-01722598D02*
X01428307D01*
X01341693Y-01760000D02*
X01349567D01*
X01420433Y-01797402D02*
X01428307D01*
X01420433Y-02052598D02*
X01428307D01*
X01341693Y-02090000D02*
X01349567D01*
X01420433Y-02127402D02*
X01428307D01*
G54D32*
X04168307Y-04050197D02*
Y-04014764D01*
X04142717Y-04050197D02*
Y-04014764D01*
X04117126Y-04050197D02*
Y-04014764D01*
X04091535Y-04050197D02*
Y-04014764D01*
X04168307Y-04205709D02*
Y-04170276D01*
X04142717Y-04205709D02*
Y-04170276D01*
X04117126Y-04205709D02*
Y-04170276D01*
X04091535Y-04205709D02*
Y-04170276D01*
G54D33*
X03552165Y-02436024D02*
X03560039D01*
X03552165Y-02500984D02*
X03560039D01*
X03613189Y-02436024D02*
X03621063D01*
X03613189Y-02500984D02*
X03621063D01*
G54D26*
X03544291Y-02468504D02*
X03567913D01*
X03605315D02*
X03628937D01*
G54D12*
X04914567Y-03700394D02*
Y-03699606D01*
X04935433Y-03700394D02*
Y-03699606D01*
X04914567Y-03670394D02*
Y-03669606D01*
X04935433Y-03670394D02*
Y-03669606D01*
X04867520Y-03559449D02*
Y-03558662D01*
X04888386Y-03559449D02*
Y-03558662D01*
X02822441Y-03064370D02*
X02823228D01*
X02822441Y-03085236D02*
X02823228D01*
X02971063Y-03075197D02*
Y-03074410D01*
X02950197Y-03075197D02*
Y-03074410D01*
X02792717Y-03193307D02*
Y-03192520D01*
X02813583Y-03193307D02*
Y-03192520D01*
X02861811Y-03162795D02*
X02862598D01*
X02861811Y-03183661D02*
X02862598D01*
X02979921Y-03123425D02*
X02980708D01*
X02979921Y-03144291D02*
X02980708D01*
X03216142Y-03044685D02*
X03216929D01*
X03216142Y-03065551D02*
X03216929D01*
X02910827Y-03153937D02*
Y-03153150D01*
X02931693Y-03153937D02*
Y-03153150D01*
X02753346Y-03075197D02*
Y-03074410D01*
X02774213Y-03075197D02*
Y-03074410D01*
X02901181Y-02415945D02*
X02901968D01*
X02901181Y-02395079D02*
X02901968D01*
X02861811Y-02788780D02*
X02862598D01*
X02861811Y-02809646D02*
X02862598D01*
X02901181Y-02650984D02*
X02901968D01*
X02901181Y-02671850D02*
X02901968D01*
X03058662Y-02631299D02*
X03059449D01*
X03058662Y-02652165D02*
X03059449D01*
X02861811Y-02927756D02*
X02862598D01*
X02861811Y-02906890D02*
X02862598D01*
X02901181Y-02730906D02*
X02901968D01*
X02901181Y-02710039D02*
X02901968D01*
X03127362Y-02602756D02*
Y-02601969D01*
X03148228Y-02602756D02*
Y-02601969D01*
X02704331Y-02573425D02*
X02705118D01*
X02704331Y-02552559D02*
X02705118D01*
X03019292Y-02615551D02*
X03020079D01*
X03019292Y-02636417D02*
X03020079D01*
X02979921Y-02975000D02*
X02980708D01*
X02979921Y-02954134D02*
X02980708D01*
X02979921Y-02871457D02*
X02980708D01*
X02979921Y-02892323D02*
X02980708D01*
X02951378Y-02445275D02*
Y-02444488D01*
X02930512Y-02445275D02*
Y-02444488D01*
X02861811Y-02946260D02*
X02862598D01*
X02861811Y-02967126D02*
X02862598D01*
X02851772Y-02878346D02*
Y-02877559D01*
X02872638Y-02878346D02*
Y-02877559D01*
X02891142Y-02760236D02*
Y-02759449D01*
X02912008Y-02760236D02*
Y-02759449D01*
X03048622Y-02760236D02*
Y-02759449D01*
X03069488Y-02760236D02*
Y-02759449D01*
X02664961Y-02573425D02*
X02665748D01*
X02664961Y-02552559D02*
X02665748D01*
X03343898Y-02878346D02*
Y-02877559D01*
X03364764Y-02878346D02*
Y-02877559D01*
X02979921Y-02828150D02*
X02980708D01*
X02979921Y-02849016D02*
X02980708D01*
X02951378Y-02484645D02*
Y-02483858D01*
X02930512Y-02484645D02*
Y-02483858D01*
X03068307Y-03212992D02*
Y-03212205D01*
X03089173Y-03212992D02*
Y-03212205D01*
X03255512Y-03223031D02*
X03256299D01*
X03255512Y-03202165D02*
X03256299D01*
X03089173Y-03035827D02*
Y-03035040D01*
X03068307Y-03035827D02*
Y-03035040D01*
X03028937Y-03114567D02*
Y-03113780D01*
X03049803Y-03114567D02*
Y-03113780D01*
X03265157Y-03035827D02*
Y-03035040D01*
X03286024Y-03035827D02*
Y-03035040D01*
X03373622Y-02947441D02*
X03374409D01*
X03373622Y-02926575D02*
X03374409D01*
X03649213Y-02478937D02*
X03650000D01*
X03649213Y-02458071D02*
X03650000D01*
G54D14*
X02519685Y-04090551D03*
Y-04051181D03*
X02870079Y-03972441D03*
X02909449D03*
X02169291Y-03562992D03*
Y-03602362D03*
X02311024Y-03929134D03*
Y-03968504D03*
X04905512Y-02342520D03*
X04866142D03*
X03177165Y-02956693D03*
Y-02917323D03*
X03059055Y-02720472D03*
Y-02681102D03*
X02665354Y-02405512D03*
Y-02444882D03*
X02783465Y-02799213D03*
Y-02838583D03*
X03216535Y-02877953D03*
X03177165D03*
X02822835D03*
Y-02838583D03*
X02862205Y-02602362D03*
Y-02641732D03*
X03019685Y-03035433D03*
Y-02996063D03*
X02862205Y-02681102D03*
Y-02720472D03*
X03019685Y-02877953D03*
Y-02838583D03*
X02822835Y-02996063D03*
Y-02956693D03*
X02862205Y-02326772D03*
Y-02366142D03*
X02527559Y-02555118D03*
Y-02515748D03*
X02940945Y-02326772D03*
Y-02366142D03*
X02657480Y-02267717D03*
Y-02307087D03*
X02704724Y-02366142D03*
X02744094D03*
Y-02523622D03*
X02783465D03*
X02822835Y-02720472D03*
Y-02681102D03*
Y-02799213D03*
Y-02759843D03*
X03137795Y-03074803D03*
X03177165D03*
X03255906Y-03114173D03*
X03216535D03*
X02586614Y-02681102D03*
X02547244D03*
X02744094Y-03153543D03*
X02704724D03*
X03413386D03*
X03452756D03*
X03374016Y-03114173D03*
Y-03153543D03*
Y-02996063D03*
X03413386D03*
X03708661Y-03677165D03*
Y-03716535D03*
X03889764Y-03527559D03*
Y-03566929D03*
X04015748Y-03633858D03*
Y-03594488D03*
X04271654Y-01728346D03*
X04311024D03*
X03838583Y-03633858D03*
Y-03594488D03*
X01748031Y-04535433D03*
Y-04574803D03*
X03019685Y-02917323D03*
Y-02956693D03*
X02244094Y-04535433D03*
Y-04574803D03*
G54D12*
X02783071Y-02355709D02*
X02783858D01*
X02783071Y-02376575D02*
X02783858D01*
X02715157Y-02524016D02*
Y-02523229D01*
X02694291Y-02524016D02*
Y-02523229D01*
X02783071Y-02276969D02*
X02783858D01*
X02783071Y-02297835D02*
X02783858D01*
X02664961Y-02355709D02*
X02665748D01*
X02664961Y-02376575D02*
X02665748D01*
X02861811Y-02276969D02*
X02862598D01*
X02861811Y-02297835D02*
X02862598D01*
X02586221Y-02276969D02*
X02587008D01*
X02586221Y-02297835D02*
X02587008D01*
X02940551Y-02276969D02*
X02941338D01*
X02940551Y-02297835D02*
X02941338D01*
X02507481Y-02276969D02*
X02508268D01*
X02507481Y-02297835D02*
X02508268D01*
X03364764Y-02287795D02*
Y-02287008D01*
X03343898Y-02287795D02*
Y-02287008D01*
X03147047Y-02287795D02*
Y-02287008D01*
X03167913Y-02287795D02*
Y-02287008D01*
X03304528Y-02366535D02*
Y-02365748D01*
X03325394Y-02366535D02*
Y-02365748D01*
X03028937Y-02327165D02*
Y-02326378D01*
X03049803Y-02327165D02*
Y-02326378D01*
X03491732Y-02296654D02*
X03492519D01*
X03491732Y-02317520D02*
X03492519D01*
X03186417Y-02405905D02*
Y-02405118D01*
X03207283Y-02405905D02*
Y-02405118D01*
X03462008Y-02445275D02*
Y-02444488D01*
X03482874Y-02445275D02*
Y-02444488D01*
X03068307Y-02445275D02*
Y-02444488D01*
X03089173Y-02445275D02*
Y-02444488D01*
X03373622Y-02809646D02*
X03374409D01*
X03373622Y-02788780D02*
X03374409D01*
X03443504Y-02524016D02*
Y-02523229D01*
X03422638Y-02524016D02*
Y-02523229D01*
X03287008Y-02589173D02*
X03287795D01*
X03287008Y-02568307D02*
X03287795D01*
X03176772Y-02532874D02*
X03177559D01*
X03176772Y-02553740D02*
X03177559D01*
G54D20*
X02257481Y-01885827D02*
X02299212D01*
X01637795D02*
X01674803D01*
G54D34*
X04122047Y-02303150D02*
X04133858D01*
X04122047Y-02401575D02*
X04133858D01*
X04122047Y-02500000D02*
X04133858D01*
X04377953Y-02303150D02*
X04389764D01*
X04377953Y-02401575D02*
X04389764D01*
X04377953Y-02500000D02*
X04389764D01*
G54D12*
X02068307Y-04354724D02*
Y-04353937D01*
X02089173Y-04354724D02*
Y-04353937D01*
X01950197Y-04488582D02*
Y-04487795D01*
X01971063Y-04488582D02*
Y-04487795D01*
G54D35*
X01200787Y-04731102D02*
X03432815D01*
X03437186Y-04730611D01*
X03441339Y-04729161D01*
X03445066Y-04726826D01*
X03448181Y-04723721D01*
X03450530Y-04720001D01*
X03451994Y-04715854D01*
X03452500Y-04711484D01*
X03452500Y-04711417D01*
Y-04322500D01*
X04125000D01*
Y-04711417D01*
X04125491Y-04715788D01*
X04126941Y-04719941D01*
X04129277Y-04723668D01*
X04132382Y-04726784D01*
X04136101Y-04729132D01*
X04140249Y-04730596D01*
X04144618Y-04731102D01*
X04144685Y-04731102D01*
X04936614D01*
X04940985Y-04730611D01*
X04945138Y-04729161D01*
X04948865Y-04726826D01*
X04951981Y-04723721D01*
X04954329Y-04720001D01*
X04955793Y-04715854D01*
X04956299Y-04711484D01*
X04956299Y-04711417D01*
Y-01200787D01*
X04955808Y-01196416D01*
X04954358Y-01192264D01*
X04952022Y-01188536D01*
X04948917Y-01185421D01*
X04945198Y-01183073D01*
X04941050Y-01181609D01*
X04936681Y-01181102D01*
X04936614Y-01181102D01*
X01200787D01*
X01196416Y-01181594D01*
X01192264Y-01183044D01*
X01188536Y-01185379D01*
X01185421Y-01188484D01*
X01183073Y-01192203D01*
X01181609Y-01196351D01*
X01181102Y-01200721D01*
X01181102Y-01200787D01*
Y-04711417D01*
X01181594Y-04715788D01*
X01183044Y-04719941D01*
X01185379Y-04723668D01*
X01188484Y-04726784D01*
X01192203Y-04729132D01*
X01196351Y-04730596D01*
X01200721Y-04731102D01*
X01200787Y-04731102D01*
M02*
