*
%FSLAX26Y26*%
%MOIN*%
%ADD10C,0.023200*%
%ADD11R,0.015350X0.015350*%
%ADD12R,0.048000X0.048000*%
%ADD13R,0.044950X0.044950*%
%ADD14R,0.016600X0.016600*%
%ADD15R,0.025200X0.025200*%
%ADD16R,0.043450X0.043450*%
%ADD17R,0.015100X0.015100*%
%ADD18R,0.028500X0.028500*%
%ADD19R,0.037100X0.037100*%
%ADD20R,0.021500X0.021500*%
%ADD21R,0.024000X0.024000*%
%ADD22R,0.017300X0.017300*%
%ADD23R,0.021250X0.021250*%
%ADD24R,0.068500X0.068500*%
%ADD25R,0.076350X0.076350*%
%ADD26R,0.080300X0.080300*%
%ADD27R,0.062600X0.062600*%
%ADD28R,0.037000X0.037000*%
%ADD29R,0.040900X0.040900*%
%ADD30R,0.023700X0.023700*%
%ADD31R,0.060600X0.060600*%
%ADD32C,0.035500*%
%ADD33R,0.036500X0.036500*%
%ADD34R,0.029200X0.029200*%
%ADD35R,0.023200X0.023200*%
%ADD36R,0.021700X0.021700*%
%ADD37R,0.016150X0.016150*%
%ADD38R,0.035050X0.035050*%
%ADD39R,0.026750X0.026750*%
%ADD40R,0.065350X0.065350*%
%ADD41R,0.031100X0.031100*%
%ADD42R,0.019750X0.019750*%
%ADD43C,0.030500*%
%ADD44R,0.034650X0.034650*%
%ADD45C,0.157500*%
%ADD46R,0.067000X0.067000*%
%ADD47R,0.068000X0.068000*%
%ADD48C,0.068000*%
%ADD49R,0.034709X0.034709*%
%ADD50R,0.054700X0.054700*%
%ADD51R,0.043400X0.043400*%
%ADD52R,0.053200X0.053200*%
%ADD53R,0.043350X0.043350*%
%ADD54R,0.063050X0.063050*%
%ADD55R,0.035500X0.035500*%
%ADD56C,0.231350*%
%ADD57C,0.073850*%
%ADD58C,0.121100*%
%ADD59C,0.058100*%
%ADD60C,0.081750*%
%ADD61C,0.239200*%
%ADD62C,0.053400*%
%ADD63C,0.058450*%
%ADD64R,0.034700X0.034700*%
%ADD65R,0.036700X0.036700*%
%ADD66R,0.038700X0.038700*%
%ADD67C,0.057400*%
%ADD68C,0.074150*%
%ADD69C,0.062500*%
%ADD70C,0.054250*%
%ADD71C,0.058200*%
%ADD72C,0.070000*%
%ADD73C,0.085750*%
%ADD74C,0.066050*%
%ADD75C,0.045465*%
%ADD76C,0.055307*%
%ADD77C,0.031685*%
%ADD78C,0.001000*%
%ADD79C,0.003000*%
%ADD80R,0.003000X0.003000*%
%ADD81C,0.002200*%
%ADD82C,0.003200*%
%ADD83C,0.002800*%
%ADD84C,0.003950*%
%ADD85R,0.000650X0.000650*%
%ADD86C,0.001750*%
%ADD87C,0.003750*%
%ADD88R,0.000700X0.000700*%
%ADD89R,0.000800X0.000800*%
%ADD90C,0.003050*%
%ADD91C,0.003500*%
%ADD92R,0.003500X0.003500*%
%ADD93R,0.000550X0.000550*%
%ADD94C,0.000500*%
%ADD95C,0.000600*%
%ADD96C,0.001050*%
%ADD97C,0.000950*%
%ADD98R,0.000600X0.000600*%
%ADD99C,0.001250*%
%ADD100C,0.000550*%
%ADD101R,0.000500X0.000500*%
%ADD102C,0.001150*%
%ADD103C,0.001900*%
%ADD104C,0.057244*%
%ADD105C,0.061181*%
%ADD106C,0.072992*%
%ADD107C,0.088740*%
%ADD108C,0.069055*%
%ADD109C,0.029685*%
%ADD110C,0.001800*%
%ADD111C,0.039496*%
%ADD112C,0.015874*%
%ADD113C,0.012000*%
%IPPOS*%
%LNciaa_acc-f.mask.gbr*%
%LPD*%
G75*
G54D10*
X02507874Y-03232283D03*
Y-03192913D03*
Y-03153543D03*
Y-03114173D03*
Y-03074803D03*
Y-03035433D03*
Y-02996063D03*
Y-02956693D03*
Y-02917323D03*
Y-02877953D03*
Y-02838583D03*
Y-02799213D03*
Y-02759843D03*
Y-02720472D03*
Y-02681102D03*
Y-02641732D03*
Y-02602362D03*
Y-02562992D03*
Y-02523622D03*
Y-02484252D03*
Y-02444882D03*
Y-02405512D03*
Y-02366142D03*
Y-02326772D03*
Y-02287402D03*
Y-02248031D03*
X02547244Y-03232283D03*
Y-03192913D03*
Y-03153543D03*
Y-03114173D03*
Y-03074803D03*
Y-03035433D03*
Y-02996063D03*
Y-02956693D03*
Y-02917323D03*
Y-02877953D03*
Y-02838583D03*
Y-02799213D03*
Y-02759843D03*
Y-02720472D03*
Y-02681102D03*
Y-02641732D03*
Y-02602362D03*
Y-02562992D03*
Y-02523622D03*
Y-02484252D03*
Y-02444882D03*
Y-02405512D03*
Y-02366142D03*
Y-02326772D03*
Y-02287402D03*
Y-02248031D03*
X02586614Y-03232283D03*
Y-03192913D03*
Y-03153543D03*
Y-03114173D03*
Y-03074803D03*
Y-03035433D03*
Y-02996063D03*
Y-02956693D03*
Y-02917323D03*
Y-02877953D03*
Y-02838583D03*
Y-02799213D03*
Y-02759843D03*
Y-02720472D03*
Y-02681102D03*
Y-02641732D03*
Y-02602362D03*
Y-02562992D03*
Y-02523622D03*
Y-02484252D03*
Y-02444882D03*
Y-02405512D03*
Y-02366142D03*
Y-02326772D03*
Y-02287402D03*
Y-02248031D03*
X02625984Y-03232283D03*
Y-03192913D03*
Y-03153543D03*
Y-03114173D03*
Y-03074803D03*
Y-03035433D03*
Y-02996063D03*
Y-02956693D03*
Y-02917323D03*
Y-02877953D03*
Y-02838583D03*
Y-02799213D03*
Y-02759843D03*
Y-02720472D03*
Y-02681102D03*
Y-02641732D03*
Y-02602362D03*
Y-02562992D03*
Y-02523622D03*
Y-02484252D03*
Y-02444882D03*
Y-02405512D03*
Y-02366142D03*
Y-02326772D03*
Y-02287402D03*
Y-02248031D03*
X02665354Y-03232283D03*
Y-03192913D03*
Y-03153543D03*
Y-03114173D03*
Y-03074803D03*
Y-03035433D03*
Y-02996063D03*
Y-02956693D03*
Y-02917323D03*
Y-02877953D03*
Y-02838583D03*
Y-02799213D03*
Y-02759843D03*
Y-02720472D03*
Y-02681102D03*
Y-02641732D03*
Y-02602362D03*
Y-02562992D03*
Y-02523622D03*
Y-02484252D03*
Y-02444882D03*
Y-02405512D03*
Y-02366142D03*
Y-02326772D03*
Y-02287402D03*
Y-02248031D03*
X02704724Y-03232283D03*
Y-03192913D03*
Y-03153543D03*
Y-03114173D03*
Y-03074803D03*
Y-03035433D03*
Y-02996063D03*
Y-02956693D03*
Y-02917323D03*
Y-02877953D03*
Y-02838583D03*
Y-02799213D03*
Y-02759843D03*
Y-02720472D03*
Y-02681102D03*
Y-02641732D03*
Y-02602362D03*
Y-02562992D03*
Y-02523622D03*
Y-02484252D03*
Y-02444882D03*
Y-02405512D03*
Y-02366142D03*
Y-02326772D03*
Y-02287402D03*
Y-02248031D03*
X02744094Y-03232283D03*
Y-03192913D03*
Y-03153543D03*
Y-03114173D03*
Y-03074803D03*
Y-03035433D03*
Y-02996063D03*
Y-02956693D03*
Y-02917323D03*
Y-02877953D03*
Y-02838583D03*
Y-02799213D03*
Y-02759843D03*
Y-02720472D03*
Y-02681102D03*
Y-02641732D03*
Y-02602362D03*
Y-02562992D03*
Y-02523622D03*
Y-02484252D03*
Y-02444882D03*
Y-02405512D03*
Y-02366142D03*
Y-02326772D03*
Y-02287402D03*
Y-02248031D03*
X02783465Y-03232283D03*
Y-03192913D03*
Y-03153543D03*
Y-03114173D03*
Y-03074803D03*
Y-03035433D03*
Y-02996063D03*
Y-02956693D03*
Y-02917323D03*
Y-02877953D03*
Y-02838583D03*
Y-02799213D03*
Y-02759843D03*
Y-02720472D03*
Y-02681102D03*
Y-02641732D03*
Y-02602362D03*
Y-02562992D03*
Y-02523622D03*
Y-02484252D03*
Y-02444882D03*
Y-02405512D03*
Y-02366142D03*
Y-02326772D03*
Y-02287402D03*
Y-02248031D03*
X02822835Y-03232283D03*
Y-03192913D03*
Y-03153543D03*
Y-03114173D03*
Y-03074803D03*
Y-03035433D03*
Y-02996063D03*
Y-02956693D03*
Y-02917323D03*
Y-02877953D03*
Y-02838583D03*
Y-02799213D03*
Y-02759843D03*
Y-02720472D03*
Y-02681102D03*
Y-02641732D03*
Y-02602362D03*
Y-02562992D03*
Y-02523622D03*
Y-02484252D03*
Y-02444882D03*
Y-02405512D03*
Y-02366142D03*
Y-02326772D03*
Y-02287402D03*
Y-02248031D03*
X02862205Y-03232283D03*
Y-03192913D03*
Y-03153543D03*
Y-03114173D03*
Y-03074803D03*
Y-03035433D03*
Y-02996063D03*
Y-02956693D03*
Y-02917323D03*
Y-02877953D03*
Y-02838583D03*
Y-02799213D03*
Y-02759843D03*
Y-02720472D03*
Y-02681102D03*
Y-02641732D03*
Y-02602362D03*
Y-02562992D03*
Y-02523622D03*
Y-02484252D03*
Y-02444882D03*
Y-02405512D03*
Y-02366142D03*
Y-02326772D03*
Y-02287402D03*
Y-02248031D03*
X02901575Y-03232283D03*
Y-03192913D03*
Y-03153543D03*
Y-03114173D03*
Y-03074803D03*
Y-03035433D03*
Y-02996063D03*
Y-02956693D03*
Y-02917323D03*
Y-02877953D03*
Y-02838583D03*
Y-02799213D03*
Y-02759843D03*
Y-02720472D03*
Y-02681102D03*
Y-02641732D03*
Y-02602362D03*
Y-02562992D03*
Y-02523622D03*
Y-02484252D03*
Y-02444882D03*
Y-02405512D03*
Y-02366142D03*
Y-02326772D03*
Y-02287402D03*
Y-02248031D03*
X02940945Y-03232283D03*
Y-03192913D03*
Y-03153543D03*
Y-03114173D03*
Y-03074803D03*
Y-03035433D03*
Y-02996063D03*
Y-02956693D03*
Y-02917323D03*
Y-02877953D03*
Y-02838583D03*
Y-02799213D03*
Y-02759843D03*
Y-02720472D03*
Y-02681102D03*
Y-02641732D03*
Y-02602362D03*
Y-02562992D03*
Y-02523622D03*
Y-02484252D03*
Y-02444882D03*
Y-02405512D03*
Y-02366142D03*
Y-02326772D03*
Y-02287402D03*
Y-02248031D03*
X02980315Y-03232283D03*
Y-03192913D03*
Y-03153543D03*
Y-03114173D03*
Y-03074803D03*
Y-03035433D03*
Y-02996063D03*
Y-02956693D03*
Y-02917323D03*
Y-02877953D03*
Y-02838583D03*
Y-02799213D03*
Y-02759843D03*
Y-02720472D03*
Y-02681102D03*
Y-02641732D03*
Y-02602362D03*
Y-02562992D03*
Y-02523622D03*
Y-02484252D03*
Y-02444882D03*
Y-02405512D03*
Y-02366142D03*
Y-02326772D03*
Y-02287402D03*
Y-02248031D03*
X03019685Y-03232283D03*
Y-03192913D03*
Y-03153543D03*
Y-03114173D03*
Y-03074803D03*
Y-03035433D03*
Y-02996063D03*
Y-02956693D03*
Y-02917323D03*
Y-02877953D03*
Y-02838583D03*
Y-02799213D03*
Y-02759843D03*
Y-02720472D03*
Y-02681102D03*
Y-02641732D03*
Y-02602362D03*
Y-02562992D03*
Y-02523622D03*
Y-02484252D03*
Y-02444882D03*
Y-02405512D03*
Y-02366142D03*
Y-02326772D03*
Y-02287402D03*
Y-02248031D03*
X03059055Y-03232283D03*
Y-03192913D03*
Y-03153543D03*
Y-03114173D03*
Y-03074803D03*
Y-03035433D03*
Y-02996063D03*
Y-02956693D03*
Y-02917323D03*
Y-02877953D03*
Y-02838583D03*
Y-02799213D03*
Y-02759843D03*
Y-02720472D03*
Y-02681102D03*
Y-02641732D03*
Y-02602362D03*
Y-02562992D03*
Y-02523622D03*
Y-02484252D03*
Y-02444882D03*
Y-02405512D03*
Y-02366142D03*
Y-02326772D03*
Y-02287402D03*
Y-02248031D03*
X03098425Y-03232283D03*
Y-03192913D03*
Y-03153543D03*
Y-03114173D03*
Y-03074803D03*
Y-03035433D03*
Y-02996063D03*
Y-02956693D03*
Y-02917323D03*
Y-02877953D03*
Y-02838583D03*
Y-02799213D03*
Y-02759843D03*
Y-02720472D03*
Y-02681102D03*
Y-02641732D03*
Y-02602362D03*
Y-02562992D03*
Y-02523622D03*
Y-02484252D03*
Y-02444882D03*
Y-02405512D03*
Y-02366142D03*
Y-02326772D03*
Y-02287402D03*
Y-02248031D03*
X03137795Y-03232283D03*
Y-03192913D03*
Y-03153543D03*
Y-03114173D03*
Y-03074803D03*
Y-03035433D03*
Y-02996063D03*
Y-02956693D03*
Y-02917323D03*
Y-02877953D03*
Y-02838583D03*
Y-02799213D03*
Y-02759843D03*
Y-02720472D03*
Y-02681102D03*
Y-02641732D03*
Y-02602362D03*
Y-02562992D03*
Y-02523622D03*
Y-02484252D03*
Y-02444882D03*
Y-02405512D03*
Y-02366142D03*
Y-02326772D03*
Y-02287402D03*
Y-02248031D03*
X03177165Y-03232283D03*
Y-03192913D03*
Y-03153543D03*
Y-03114173D03*
Y-03074803D03*
Y-03035433D03*
Y-02996063D03*
Y-02956693D03*
Y-02917323D03*
Y-02877953D03*
Y-02838583D03*
Y-02799213D03*
Y-02759843D03*
Y-02720472D03*
Y-02681102D03*
Y-02641732D03*
Y-02602362D03*
Y-02562992D03*
Y-02523622D03*
Y-02484252D03*
Y-02444882D03*
Y-02405512D03*
Y-02366142D03*
Y-02326772D03*
Y-02287402D03*
Y-02248031D03*
X03216535Y-03232283D03*
Y-03192913D03*
Y-03153543D03*
Y-03114173D03*
Y-03074803D03*
Y-03035433D03*
Y-02996063D03*
Y-02956693D03*
Y-02917323D03*
Y-02877953D03*
Y-02838583D03*
Y-02799213D03*
Y-02759843D03*
Y-02720472D03*
Y-02681102D03*
Y-02641732D03*
Y-02602362D03*
Y-02562992D03*
Y-02523622D03*
Y-02484252D03*
Y-02444882D03*
Y-02405512D03*
Y-02366142D03*
Y-02326772D03*
Y-02287402D03*
Y-02248031D03*
X03255906Y-03232283D03*
Y-03192913D03*
Y-03153543D03*
Y-03114173D03*
Y-03074803D03*
Y-03035433D03*
Y-02996063D03*
Y-02956693D03*
Y-02917323D03*
Y-02877953D03*
Y-02838583D03*
Y-02799213D03*
Y-02759843D03*
Y-02720472D03*
Y-02681102D03*
Y-02641732D03*
Y-02602362D03*
Y-02562992D03*
Y-02523622D03*
Y-02484252D03*
Y-02444882D03*
Y-02405512D03*
Y-02366142D03*
Y-02326772D03*
Y-02287402D03*
Y-02248031D03*
X03295276Y-03232283D03*
Y-03192913D03*
Y-03153543D03*
Y-03114173D03*
Y-03074803D03*
Y-03035433D03*
Y-02996063D03*
Y-02956693D03*
Y-02917323D03*
Y-02877953D03*
Y-02838583D03*
Y-02799213D03*
Y-02759843D03*
Y-02720472D03*
Y-02681102D03*
Y-02641732D03*
Y-02602362D03*
Y-02562992D03*
Y-02523622D03*
Y-02484252D03*
Y-02444882D03*
Y-02405512D03*
Y-02366142D03*
Y-02326772D03*
Y-02287402D03*
Y-02248031D03*
X03334646Y-03232283D03*
Y-03192913D03*
Y-03153543D03*
Y-03114173D03*
Y-03074803D03*
Y-03035433D03*
Y-02996063D03*
Y-02956693D03*
Y-02917323D03*
Y-02877953D03*
Y-02838583D03*
Y-02799213D03*
Y-02759843D03*
Y-02720472D03*
Y-02681102D03*
Y-02641732D03*
Y-02602362D03*
Y-02562992D03*
Y-02523622D03*
Y-02484252D03*
Y-02444882D03*
Y-02405512D03*
Y-02366142D03*
Y-02326772D03*
Y-02287402D03*
Y-02248031D03*
X03374016Y-03232283D03*
Y-03192913D03*
Y-03153543D03*
Y-03114173D03*
Y-03074803D03*
Y-03035433D03*
Y-02996063D03*
Y-02956693D03*
Y-02917323D03*
Y-02877953D03*
Y-02838583D03*
Y-02799213D03*
Y-02759843D03*
Y-02720472D03*
Y-02681102D03*
Y-02641732D03*
Y-02602362D03*
Y-02562992D03*
Y-02523622D03*
Y-02484252D03*
Y-02444882D03*
Y-02405512D03*
Y-02366142D03*
Y-02326772D03*
Y-02287402D03*
Y-02248031D03*
X03413386Y-03232283D03*
Y-03192913D03*
Y-03153543D03*
Y-03114173D03*
Y-03074803D03*
Y-03035433D03*
Y-02996063D03*
Y-02956693D03*
Y-02917323D03*
Y-02877953D03*
Y-02838583D03*
Y-02799213D03*
Y-02759843D03*
Y-02720472D03*
Y-02681102D03*
Y-02641732D03*
Y-02602362D03*
Y-02562992D03*
Y-02523622D03*
Y-02484252D03*
Y-02444882D03*
Y-02405512D03*
Y-02366142D03*
Y-02326772D03*
Y-02287402D03*
Y-02248031D03*
X03452756Y-03232283D03*
Y-03192913D03*
Y-03153543D03*
Y-03114173D03*
Y-03074803D03*
Y-03035433D03*
Y-02996063D03*
Y-02956693D03*
Y-02917323D03*
Y-02877953D03*
Y-02838583D03*
Y-02799213D03*
Y-02759843D03*
Y-02720472D03*
Y-02681102D03*
Y-02641732D03*
Y-02602362D03*
Y-02562992D03*
Y-02523622D03*
Y-02484252D03*
Y-02444882D03*
Y-02405512D03*
Y-02366142D03*
Y-02326772D03*
Y-02287402D03*
Y-02248031D03*
X03492126Y-03232283D03*
Y-03192913D03*
Y-03153543D03*
Y-03114173D03*
Y-03074803D03*
Y-03035433D03*
Y-02996063D03*
Y-02956693D03*
Y-02917323D03*
Y-02877953D03*
Y-02838583D03*
Y-02799213D03*
Y-02759843D03*
Y-02720472D03*
Y-02681102D03*
Y-02641732D03*
Y-02602362D03*
Y-02562992D03*
Y-02523622D03*
Y-02484252D03*
Y-02444882D03*
Y-02405512D03*
Y-02366142D03*
Y-02326772D03*
Y-02287402D03*
Y-02248031D03*
X02413386Y-03594488D03*
X02444882D03*
X02476378D03*
X02602362D03*
X02633858D03*
X02665354D03*
X02413386Y-03625984D03*
X02444882D03*
X02476378D03*
X02602362D03*
X02633858D03*
X02665354D03*
X02413386Y-03657480D03*
X02444882D03*
X02476378D03*
X02602362D03*
X02633858D03*
X02665354D03*
X02413386Y-03688976D03*
X02444882D03*
X02476378D03*
X02602362D03*
X02633858D03*
X02665354D03*
X02413386Y-03720472D03*
X02444882D03*
X02476378D03*
X02602362D03*
X02633858D03*
X02665354D03*
X02413386Y-03751969D03*
X02444882D03*
X02476378D03*
X02602362D03*
X02633858D03*
X02665354D03*
X02413386Y-03783465D03*
X02444882D03*
X02476378D03*
X02602362D03*
X02633858D03*
X02665354D03*
X02413386Y-03814961D03*
X02444882D03*
X02476378D03*
X02602362D03*
X02633858D03*
X02665354D03*
X02413386Y-03846457D03*
X02444882D03*
X02476378D03*
X02602362D03*
X02633858D03*
X02665354D03*
X02413386Y-03877953D03*
X02444882D03*
X02476378D03*
X02602362D03*
X02633858D03*
X02665354D03*
X02413386Y-03909449D03*
X02444882D03*
X02476378D03*
X02602362D03*
X02633858D03*
X02665354D03*
X02413386Y-03940945D03*
X02444882D03*
X02476378D03*
X02602362D03*
X02633858D03*
X02665354D03*
X02413386Y-03972441D03*
X02444882D03*
X02476378D03*
X02602362D03*
X02633858D03*
X02665354D03*
X02413386Y-04003937D03*
X02444882D03*
X02476378D03*
X02602362D03*
X02633858D03*
X02665354D03*
X02413386Y-04035433D03*
X02444882D03*
X02476378D03*
X02602362D03*
X02633858D03*
X02665354D03*
X02413386Y-04066929D03*
X02444882D03*
X02476378D03*
X02602362D03*
X02633858D03*
X02665354D03*
X02964567Y-03594488D03*
X02996063D03*
X03027559D03*
X03153543D03*
X03185039D03*
X03216535D03*
X02964567Y-03625984D03*
X02996063D03*
X03027559D03*
X03153543D03*
X03185039D03*
X03216535D03*
X02964567Y-03657480D03*
X02996063D03*
X03027559D03*
X03153543D03*
X03185039D03*
X03216535D03*
X02964567Y-03688976D03*
X02996063D03*
X03027559D03*
X03153543D03*
X03185039D03*
X03216535D03*
X02964567Y-03720472D03*
X02996063D03*
X03027559D03*
X03153543D03*
X03185039D03*
X03216535D03*
X02964567Y-03751969D03*
X02996063D03*
X03027559D03*
X03153543D03*
X03185039D03*
X03216535D03*
X02964567Y-03783465D03*
X02996063D03*
X03027559D03*
X03153543D03*
X03185039D03*
X03216535D03*
X02964567Y-03814961D03*
X02996063D03*
X03027559D03*
X03153543D03*
X03185039D03*
X03216535D03*
X02964567Y-03846457D03*
X02996063D03*
X03027559D03*
X03153543D03*
X03185039D03*
X03216535D03*
X02964567Y-03877953D03*
X02996063D03*
X03027559D03*
X03153543D03*
X03185039D03*
X03216535D03*
X02964567Y-03909449D03*
X02996063D03*
X03027559D03*
X03153543D03*
X03185039D03*
X03216535D03*
X02964567Y-03940945D03*
X02996063D03*
X03027559D03*
X03153543D03*
X03185039D03*
X03216535D03*
X02964567Y-03972441D03*
X02996063D03*
X03027559D03*
X03153543D03*
X03185039D03*
X03216535D03*
X02964567Y-04003937D03*
X02996063D03*
X03027559D03*
X03153543D03*
X03185039D03*
X03216535D03*
X02964567Y-04035433D03*
X02996063D03*
X03027559D03*
X03153543D03*
X03185039D03*
X03216535D03*
X02964567Y-04066929D03*
X02996063D03*
X03027559D03*
X03153543D03*
X03185039D03*
X03216535D03*
G54D11*
X03856299Y-02981291D02*
Y-02963591D01*
X03836614Y-02981291D02*
Y-02963591D01*
X03816929Y-02981291D02*
Y-02963591D01*
X03797244Y-02981291D02*
Y-02963591D01*
X03777559Y-02981291D02*
Y-02963591D01*
X03757874Y-02981291D02*
Y-02963591D01*
X03738189Y-02981291D02*
Y-02963591D01*
X03718504Y-02981291D02*
Y-02963591D01*
X03684063Y-02998031D02*
X03701763D01*
X03684063Y-03017717D02*
X03701763D01*
X03684063Y-03037402D02*
X03701763D01*
X03684063Y-03057087D02*
X03701763D01*
X03684063Y-03076772D02*
X03701763D01*
X03684063Y-03096457D02*
X03701763D01*
X03684063Y-03116142D02*
X03701763D01*
X03684063Y-03135827D02*
X03701763D01*
X03718504Y-03170267D02*
Y-03152567D01*
X03738189Y-03170267D02*
Y-03152567D01*
X03757874Y-03170267D02*
Y-03152567D01*
X03777559Y-03170267D02*
Y-03152567D01*
X03797244Y-03170267D02*
Y-03152567D01*
X03816929Y-03170267D02*
Y-03152567D01*
X03836614Y-03170267D02*
Y-03152567D01*
X03856299Y-03170267D02*
Y-03152567D01*
X03873040Y-03135827D02*
X03890740D01*
X03873040Y-03116142D02*
X03890740D01*
X03873040Y-03096457D02*
X03890740D01*
X03873040Y-03076772D02*
X03890740D01*
X03873040Y-03057087D02*
X03890740D01*
X03873040Y-03037402D02*
X03890740D01*
X03873040Y-03017717D02*
X03890740D01*
X03873040Y-02998031D02*
X03890740D01*
G54D12*
X03431417Y-04709300D02*
Y-04670700D01*
G54D13*
X03393699Y-04055118D02*
X03425199D01*
X03393699Y-03937008D02*
X03425199D01*
X02192911Y-04023622D02*
X02224411D01*
X02192911Y-03905512D02*
X02224411D01*
G54D14*
X02168891Y-03730906D02*
X02169691D01*
X02168891Y-03710039D02*
X02169691D01*
X02168891Y-03836024D02*
X02169691D01*
X02168891Y-03856890D02*
X02169691D01*
G54D15*
X04800000Y-03020315D03*
Y-03059685D03*
X04605000Y-02949685D03*
Y-02910315D03*
G54D16*
X04635945Y-02525750D02*
Y-02494250D01*
G54D13*
X04754055Y-02525750D02*
Y-02494250D01*
G54D14*
X01912986Y-03959252D02*
X01913786D01*
X01912986Y-03938386D02*
X01913786D01*
X01950197Y-04087014D02*
Y-04086214D01*
X01971063Y-04087014D02*
Y-04086214D01*
X04355709Y-03765400D02*
Y-03764600D01*
X04376575Y-03765400D02*
Y-03764600D01*
G54D17*
X01621647Y-04486811D02*
X01622447D01*
G54D14*
X01621647Y-04465945D02*
X01622447D01*
G54D17*
X01649206Y-04486811D02*
X01650006D01*
G54D14*
X01649206Y-04465945D02*
X01650006D01*
G54D17*
X02829331Y-04181502D02*
Y-04180702D01*
G54D14*
X02808465Y-04181502D02*
Y-04180702D01*
X02861805Y-04292717D02*
X02862605D01*
X02861805Y-04313583D02*
X02862605D01*
G54D15*
X01944882Y-02196850D03*
Y-02236220D03*
X01736220Y-01622047D03*
X01775591D03*
X02094488Y-02173228D03*
X02055118D03*
G54D14*
X01802750Y-03427756D02*
X01803550D01*
X01802750Y-03406890D02*
X01803550D01*
X01936608Y-03250591D02*
X01937408D01*
X01936608Y-03229724D02*
X01937408D01*
X01738780Y-03449219D02*
Y-03448419D01*
X01717913Y-03449219D02*
Y-03448419D01*
X01798813Y-03250591D02*
X01799613D01*
X01798813Y-03229724D02*
X01799613D01*
X03649206Y-03206102D02*
X03650006D01*
X03649206Y-03226969D02*
X03650006D01*
G54D15*
X04421260Y-03334646D03*
Y-03374016D03*
G54D13*
X03157480Y-02137797D02*
Y-02106297D01*
X03275591Y-02137797D02*
Y-02106297D01*
X03602360Y-02307087D02*
X03633860D01*
X03602360Y-02425197D02*
X03633860D01*
G54D14*
X04042907Y-03069488D02*
X04043707D01*
X04042907Y-03048622D02*
X04043707D01*
X04084567Y-03695400D02*
Y-03694600D01*
X04105433Y-03695400D02*
Y-03694600D01*
X03800433Y-03800400D02*
Y-03799600D01*
X03779567Y-03800400D02*
Y-03799600D01*
X04039600Y-03814567D02*
X04040400D01*
X04039600Y-03835433D02*
X04040400D01*
X03653143Y-03639173D02*
X03653943D01*
X03653143Y-03660039D02*
X03653943D01*
X03869600Y-01734567D02*
X03870400D01*
X03869600Y-01755433D02*
X03870400D01*
X03894600Y-01734567D02*
X03895400D01*
X03894600Y-01755433D02*
X03895400D01*
G54D18*
X04352559Y-04281528D02*
Y-04277528D01*
X04269488Y-04281528D02*
Y-04277528D01*
X04084614Y-02919488D02*
X04088614D01*
X04084614Y-02836417D02*
X04088614D01*
X04324772Y-02919488D02*
X04328772D01*
X04324772Y-02836417D02*
X04328772D01*
X03702559Y-02439008D02*
Y-02435008D01*
X03785630Y-02439008D02*
Y-02435008D01*
G54D19*
X02236232Y-02331693D02*
X02244082D01*
X02236232Y-02266732D02*
X02244082D01*
X02177177D02*
X02185027D01*
X02177177Y-02331693D02*
X02185027D01*
X02295288D02*
X02303138D01*
X02295288Y-02266732D02*
X02303138D01*
X01440957Y-04628937D02*
X01448807D01*
X01440957Y-04693898D02*
X01448807D01*
X01535445Y-04628937D02*
X01543295D01*
X01535445Y-04693898D02*
X01543295D01*
X01606075Y-03282480D02*
X01613925D01*
X01606075Y-03217520D02*
X01613925D01*
X01606075Y-03482480D02*
X01613925D01*
X01606075Y-03417520D02*
X01613925D01*
X01606075Y-03690000D02*
X01613925D01*
X01606075Y-03625039D02*
X01613925D01*
X01606075Y-03892480D02*
X01613925D01*
X01606075Y-03827520D02*
X01613925D01*
X02523634Y-04682087D02*
X02531484D01*
X02523634Y-04617126D02*
X02531484D01*
X02177177Y-02723425D02*
X02185027D01*
X02177177Y-02788386D02*
X02185027D01*
X02236232Y-02723425D02*
X02244082D01*
X02236232Y-02788386D02*
X02244082D01*
G54D20*
X04514142Y-04106024D02*
X04553142D01*
X04514142Y-04081024D02*
X04553142D01*
X04514142Y-04056024D02*
X04553142D01*
X04514142Y-04031024D02*
X04553142D01*
X04514142Y-04006024D02*
X04553142D01*
X04514142Y-03981024D02*
X04553142D01*
X04514142Y-03956024D02*
X04553142D01*
X04514142Y-03931024D02*
X04553142D01*
X04514142Y-03906024D02*
X04553142D01*
X04514142Y-03881024D02*
X04553142D01*
X04514142Y-03856024D02*
X04553142D01*
X04514142Y-03831024D02*
X04553142D01*
X04514142Y-03806024D02*
X04553142D01*
X04514142Y-03781024D02*
X04553142D01*
X04514142Y-03756024D02*
X04553142D01*
X04514142Y-03731024D02*
X04553142D01*
X04514142Y-03706024D02*
X04553142D01*
X04514142Y-03681024D02*
X04553142D01*
X04514142Y-03656024D02*
X04553142D01*
X04514142Y-03631024D02*
X04553142D01*
X04514142Y-03606024D02*
X04553142D01*
X04514142Y-03581024D02*
X04553142D01*
X04514142Y-03556024D02*
X04553142D01*
X04514142Y-03531024D02*
X04553142D01*
X04514142Y-03506024D02*
X04553142D01*
X04514142Y-03481024D02*
X04553142D01*
X04779142Y-04081024D02*
X04818142D01*
X04779142Y-04006024D02*
X04818142D01*
X04779142Y-04056024D02*
X04818142D01*
X04779142Y-04106024D02*
X04818142D01*
X04779142Y-04031024D02*
X04818142D01*
X04779142Y-03556024D02*
X04818142D01*
X04779142Y-03581024D02*
X04818142D01*
X04779142Y-03506024D02*
X04818142D01*
X04779142Y-03481024D02*
X04818142D01*
X04779142Y-03531024D02*
X04818142D01*
X04779142Y-03881024D02*
X04818142D01*
X04779142Y-03856024D02*
X04818142D01*
X04779142Y-03956024D02*
X04818142D01*
X04779142Y-03931024D02*
X04818142D01*
X04779142Y-03981024D02*
X04818142D01*
X04779142Y-03906024D02*
X04818142D01*
X04779142Y-03781024D02*
X04818142D01*
X04779142Y-03831024D02*
X04818142D01*
X04779142Y-03731024D02*
X04818142D01*
X04779142Y-03756024D02*
X04818142D01*
X04779142Y-03806024D02*
X04818142D01*
X04779142Y-03706024D02*
X04818142D01*
X04779142Y-03631024D02*
X04818142D01*
X04779142Y-03681024D02*
X04818142D01*
X04779142Y-03656024D02*
X04818142D01*
X04779142Y-03606024D02*
X04818142D01*
G54D21*
X04666142Y-04123524D02*
Y-03463524D01*
G54D22*
X02775591Y-04429138D02*
Y-04366138D01*
X03129921Y-04429138D02*
Y-04366138D01*
X02795276Y-04429138D02*
Y-04366138D01*
X02814961Y-04429138D02*
Y-04366138D01*
X02834646Y-04429138D02*
Y-04366138D01*
X02854331Y-04429138D02*
Y-04366138D01*
X02874016Y-04429138D02*
Y-04366138D01*
X02893701Y-04429138D02*
Y-04366138D01*
X02913386Y-04429138D02*
Y-04366138D01*
X02933071Y-04429138D02*
Y-04366138D01*
X02952756Y-04429138D02*
Y-04366138D01*
X02972441Y-04429138D02*
Y-04366138D01*
X02992126Y-04429138D02*
Y-04366138D01*
X03011811Y-04429138D02*
Y-04366138D01*
X03031496Y-04429138D02*
Y-04366138D01*
X03051181Y-04429138D02*
Y-04366138D01*
X03070866Y-04429138D02*
Y-04366138D01*
X03090551Y-04429138D02*
Y-04366138D01*
X03110236Y-04429138D02*
Y-04366138D01*
G54D23*
X01799213Y-04586613D02*
Y-04549213D01*
X01773622Y-04586613D02*
Y-04549213D01*
X01824803Y-04586613D02*
Y-04549213D01*
X01748031Y-04586613D02*
Y-04549213D01*
X01850394Y-04586613D02*
Y-04549213D01*
G54D24*
X01667315Y-04572835D02*
X01687015D01*
X01911410D02*
X01931110D01*
G54D25*
X01641732Y-04675203D02*
Y-04671253D01*
X01956693Y-04675203D02*
Y-04671253D01*
G54D26*
X01751969Y-04673228D03*
X01846457D03*
G54D13*
X04350394Y-04194899D02*
Y-04017699D01*
X04271654Y-04194899D02*
Y-04017699D01*
G54D24*
X04183071Y-04045267D02*
Y-03990167D01*
X04438976Y-04045267D02*
Y-03990167D01*
G54D23*
X02295276Y-04585629D02*
Y-04548229D01*
X02269685Y-04585629D02*
Y-04548229D01*
X02320866Y-04585629D02*
Y-04548229D01*
X02244094Y-04585629D02*
Y-04548229D01*
X02346457Y-04585629D02*
Y-04548229D01*
G54D24*
X02163378Y-04571850D02*
X02183078D01*
X02407473D02*
X02427173D01*
G54D25*
X02137795Y-04674219D02*
Y-04670269D01*
X02452756Y-04674219D02*
Y-04670269D01*
G54D26*
X02248031Y-04672244D03*
X02342520D03*
G54D27*
X04842561Y-02091654D02*
X04864211D01*
X04842561Y-01548346D02*
X04864211D01*
X04515789Y-02091654D02*
X04537439D01*
X04515789Y-01548346D02*
X04537439D01*
G54D28*
X04737249Y-01997165D02*
X04764799D01*
X04737249Y-01953858D02*
X04764799D01*
X04737249Y-01910551D02*
X04764799D01*
X04737249Y-01867244D02*
X04764799D01*
X04737249Y-01823937D02*
X04764799D01*
X04737249Y-01780630D02*
X04764799D01*
X04737249Y-01737323D02*
X04764799D01*
X04737249Y-01694016D02*
X04764799D01*
G54D29*
X04433000Y-03215000D02*
X04437000D01*
X04433000Y-03148071D02*
X04437000D01*
X04433000Y-03281929D02*
X04437000D01*
G54D25*
X01826755Y-03881890D02*
X01897655D01*
X01826755Y-03527559D02*
X01897655D01*
G54D19*
X01870091Y-04253937D02*
X01877941D01*
X01791351Y-04216535D02*
X01799201D01*
X01870091Y-04179134D02*
X01877941D01*
X04403543Y-04240145D02*
Y-04232295D01*
X04440945Y-04161405D02*
Y-04153555D01*
X04478346Y-04240145D02*
Y-04232295D01*
X02096457Y-03086602D02*
Y-03078752D01*
X02133858Y-03007862D02*
Y-03000012D01*
X02171260Y-03086602D02*
Y-03078752D01*
X02226378Y-03086602D02*
Y-03078752D01*
X02263780Y-03007862D02*
Y-03000012D01*
X02301181Y-03086602D02*
Y-03078752D01*
G54D30*
X02204724Y-03708661D03*
G54D15*
X02244094D03*
G54D30*
X02204724Y-03614173D03*
G54D15*
X02244094D03*
G54D30*
X02204724Y-03645669D03*
G54D15*
X02244094D03*
G54D30*
X02204724Y-03551181D03*
G54D15*
X02244094D03*
G54D30*
X02204724Y-03488189D03*
G54D15*
X02244094D03*
G54D30*
X02204724Y-03582677D03*
G54D15*
X02244094D03*
G54D30*
X02204724Y-03740157D03*
G54D15*
X02244094D03*
G54D30*
X02204724Y-03519685D03*
G54D15*
X02244094D03*
G54D30*
X02204724Y-03771654D03*
G54D15*
X02244094D03*
G54D30*
X02204724Y-03677165D03*
G54D15*
X02244094D03*
G54D30*
X02204724Y-03803150D03*
G54D15*
X02244094D03*
G54D30*
X02204724Y-03834646D03*
G54D15*
X02244094D03*
G54D30*
X02204724Y-03866142D03*
G54D15*
X02244094D03*
X03503937Y-03582677D03*
X03464567D03*
X04615000Y-03155315D03*
Y-03194685D03*
X04774685Y-03195000D03*
X04735315D03*
X04800000Y-03134685D03*
Y-03095315D03*
X04655315Y-03195000D03*
X04694685D03*
X04645315Y-02910000D03*
X04684685D03*
X01984252Y-03881890D03*
Y-03921260D03*
X02019685Y-03881890D03*
Y-03921260D03*
X04897638Y-03559055D03*
X04858268D03*
X04232087Y-03765000D03*
Y-03725630D03*
X03133858Y-04212598D03*
Y-04251969D03*
X03102362Y-04212598D03*
Y-04251969D03*
X03070866Y-04212598D03*
Y-04251969D03*
X03039370Y-04212598D03*
Y-04251969D03*
X03003937Y-04212598D03*
Y-04251969D03*
X02972441Y-04212598D03*
Y-04251969D03*
X02940945Y-04212598D03*
Y-04251969D03*
X02909449Y-04212598D03*
Y-04251969D03*
X02874016D03*
Y-04212598D03*
X01913386Y-04236220D03*
Y-04196850D03*
X01976378D03*
Y-04236220D03*
X01944882Y-04196850D03*
Y-04236220D03*
Y-02106299D03*
Y-02145669D03*
X02240157Y-02208661D03*
Y-02169291D03*
X02200787Y-02208661D03*
Y-02169291D03*
X02279528Y-02208661D03*
Y-02169291D03*
X01444882Y-04582677D03*
Y-04543307D03*
X01539370Y-04582677D03*
Y-04543307D03*
X04421260Y-04279528D03*
X04460630D03*
X01600000Y-03164685D03*
Y-03125315D03*
Y-03364685D03*
Y-03325315D03*
Y-03569685D03*
Y-03530315D03*
Y-03774685D03*
Y-03735315D03*
X01635000Y-03125000D03*
Y-03164370D03*
Y-03325315D03*
Y-03364685D03*
Y-03530315D03*
Y-03569685D03*
Y-03735315D03*
Y-03774685D03*
X01610000Y-02340000D03*
Y-02300630D03*
Y-02539685D03*
Y-02500315D03*
Y-02739685D03*
Y-02700315D03*
Y-02939685D03*
Y-02900315D03*
X03598425Y-03141732D03*
X03559055D03*
X02062992Y-04236220D03*
Y-04196850D03*
X02031496Y-04236220D03*
Y-04196850D03*
X04897638Y-03496063D03*
X04858268D03*
X04897638Y-03527559D03*
X04858268D03*
X04149606Y-03464567D03*
Y-03503937D03*
X04303150Y-03023622D03*
X04263780D03*
X01935000Y-01985315D03*
Y-02024685D03*
X04114173Y-03503937D03*
Y-03464567D03*
X01659685Y-01850000D03*
X01620315D03*
Y-02185000D03*
X01659685D03*
X04421260Y-03464567D03*
Y-03503937D03*
X04429134Y-03106299D03*
Y-03066929D03*
X04150000Y-01735315D03*
Y-01774685D03*
X02488189Y-04559055D03*
X02527559D03*
X03814961Y-03212598D03*
X03775591D03*
X03862205D03*
X03901575D03*
X03921260Y-03133858D03*
X03960630D03*
X03805000Y-03420315D03*
Y-03459685D03*
X03840000Y-03420315D03*
Y-03459685D03*
X03875000Y-03420315D03*
Y-03459685D03*
X03759685Y-03725000D03*
X03720315D03*
Y-03765000D03*
X03759685D03*
X02133858Y-02956693D03*
Y-02917323D03*
X02192913D03*
Y-02956693D03*
G54D11*
X03974528Y-03459610D02*
Y-03449760D01*
X03954843Y-03459610D02*
Y-03449760D01*
X03935157Y-03459610D02*
Y-03449760D01*
X03915472Y-03459610D02*
Y-03449760D01*
X03974528Y-03420240D02*
Y-03410390D01*
X03954843Y-03420240D02*
Y-03410390D01*
X03935157Y-03420240D02*
Y-03410390D01*
X03915472Y-03420240D02*
Y-03410390D01*
G54D31*
X02023608Y-02484252D02*
X02047258D01*
X02023608Y-02602362D02*
X02047258D01*
X02299199Y-02484252D02*
X02322848D01*
X02299199Y-02602362D02*
X02322848D01*
X03665354Y-02173242D02*
Y-02149593D01*
X03783465Y-02173242D02*
Y-02149593D01*
X03665354Y-01897652D02*
Y-01874002D01*
X03783465Y-01897652D02*
Y-01874002D01*
G54D13*
X04157476Y-04169291D02*
X04220476D01*
X04157476Y-04287402D02*
X04220476D01*
X04421256Y-02303150D02*
X04484256D01*
X04421256Y-02185039D02*
X04484256D01*
G54D32*
X04921260Y-02114173D03*
X04385827Y-02838583D03*
X04031496D03*
X02039370Y-03578740D03*
X02047244Y-03818898D03*
G54D33*
X01804465Y-04366209D02*
Y-04362209D01*
X01762465Y-04366209D02*
Y-04362209D01*
X01804465Y-04299209D02*
Y-04295209D01*
X01762465Y-04299209D02*
Y-04295209D01*
X02300528Y-04366209D02*
Y-04362209D01*
X02258528Y-04366209D02*
Y-04362209D01*
X02300528Y-04299209D02*
Y-04295209D01*
X02258528Y-04299209D02*
Y-04295209D01*
G54D34*
X01753930Y-03970472D02*
X01773630D01*
X01753930Y-04045276D02*
X01773630D01*
X01753930Y-04007874D02*
X01773630D01*
X01864166Y-04045276D02*
X01883866D01*
X01864166Y-03970472D02*
X01883866D01*
X01864166Y-04007874D02*
X01883866D01*
G54D35*
X01946850Y-04061031D02*
Y-04041331D01*
X01972441Y-04061031D02*
Y-04041331D01*
X01998031Y-04061031D02*
Y-04041331D01*
Y-03974417D02*
Y-03954717D01*
X01946850Y-03974417D02*
Y-03954717D01*
X01972441Y-03974417D02*
Y-03954717D01*
X01623031Y-04290363D02*
Y-04254913D01*
X01648622Y-04290363D02*
Y-04254913D01*
X01674213Y-04290363D02*
Y-04254913D01*
X01699803Y-04290363D02*
Y-04254913D01*
X01623031Y-04445875D02*
Y-04410425D01*
X01648622Y-04445875D02*
Y-04410425D01*
X01674213Y-04445875D02*
Y-04410425D01*
G54D36*
X01699803Y-04445875D02*
Y-04410425D01*
G54D35*
X02832677Y-04226385D02*
Y-04206685D01*
X02807087Y-04226385D02*
Y-04206685D01*
X02781496Y-04226385D02*
Y-04206685D01*
Y-04313000D02*
Y-04293300D01*
X02832677Y-04313000D02*
Y-04293300D01*
X02807087Y-04313000D02*
Y-04293300D01*
G54D34*
X02730315Y-04226385D02*
Y-04206685D01*
X02655512Y-04226385D02*
Y-04206685D01*
X02692913Y-04226385D02*
Y-04206685D01*
X02655512Y-04336622D02*
Y-04316922D01*
X02730315Y-04336622D02*
Y-04316922D01*
G54D37*
X02069309Y-04458661D02*
X02092109D01*
X02069309Y-04438976D02*
X02092109D01*
X02069309Y-04419291D02*
X02092109D01*
X02069309Y-04399606D02*
X02092109D01*
X02069309Y-04379921D02*
X02092109D01*
X02069309Y-04360236D02*
X02092109D01*
X02069309Y-04340551D02*
X02092109D01*
X02069309Y-04320866D02*
X02092109D01*
X02049213Y-04300770D02*
Y-04277970D01*
X02029528Y-04300770D02*
Y-04277970D01*
X02009843Y-04300770D02*
Y-04277970D01*
X01990157Y-04300770D02*
Y-04277970D01*
X01970472Y-04300770D02*
Y-04277970D01*
X01950787Y-04300770D02*
Y-04277970D01*
X01931102Y-04300770D02*
Y-04277970D01*
X01911417Y-04300770D02*
Y-04277970D01*
X01868521Y-04320866D02*
X01891321D01*
X01868521Y-04340551D02*
X01891321D01*
X01868521Y-04360236D02*
X01891321D01*
X01868521Y-04379921D02*
X01891321D01*
X01868521Y-04399606D02*
X01891321D01*
X01868521Y-04419291D02*
X01891321D01*
X01868521Y-04438976D02*
X01891321D01*
X01868521Y-04458661D02*
X01891321D01*
X01911417Y-04501557D02*
Y-04478757D01*
X01931102Y-04501557D02*
Y-04478757D01*
X01950787Y-04501557D02*
Y-04478757D01*
X01970472Y-04501557D02*
Y-04478757D01*
X01990157Y-04501557D02*
Y-04478757D01*
X02009843Y-04501557D02*
Y-04478757D01*
X02029528Y-04501557D02*
Y-04478757D01*
X02049213Y-04501557D02*
Y-04478757D01*
G54D35*
X01979322Y-02132874D02*
X02014772D01*
X01979322Y-02107283D02*
X02014772D01*
X01979322Y-02081693D02*
X02014772D01*
X01979322Y-02056102D02*
X02014772D01*
X02134834Y-02132874D02*
X02170284D01*
X02134834Y-02107283D02*
X02170284D01*
X02134834Y-02081693D02*
X02170284D01*
X02134834Y-02056102D02*
X02170284D01*
G54D38*
X01821850Y-04494676D02*
Y-04486426D01*
G54D39*
X01740929Y-04422835D02*
X01749229D01*
X01817700D02*
X01826000D01*
X01740929Y-04498425D02*
X01749229D01*
G54D14*
X03771255Y-02645669D02*
X03793705D01*
X03771255Y-02625984D02*
X03793705D01*
X03771255Y-02606299D02*
X03793705D01*
X03771255Y-02665354D02*
X03793705D01*
X03771255Y-02685039D02*
X03793705D01*
X03907082Y-02645669D02*
X03929532D01*
X03907082Y-02625984D02*
X03929532D01*
X03907082Y-02606299D02*
X03929532D01*
X03907082Y-02665354D02*
X03929532D01*
X03907082Y-02685039D02*
X03929532D01*
X03879921Y-02588981D02*
Y-02566531D01*
X03820866Y-02588981D02*
Y-02566531D01*
Y-02724808D02*
Y-02702358D01*
X03879921Y-02724808D02*
Y-02702358D01*
X03771255Y-02822835D02*
X03793705D01*
X03771255Y-02803150D02*
X03793705D01*
X03771255Y-02783465D02*
X03793705D01*
X03771255Y-02842520D02*
X03793705D01*
X03771255Y-02862205D02*
X03793705D01*
X03907082Y-02822835D02*
X03929532D01*
X03907082Y-02803150D02*
X03929532D01*
X03907082Y-02783465D02*
X03929532D01*
X03907082Y-02842520D02*
X03929532D01*
X03907082Y-02862205D02*
X03929532D01*
X03879921Y-02766146D02*
Y-02743696D01*
X03820866Y-02766146D02*
Y-02743696D01*
Y-02901973D02*
Y-02879523D01*
X03879921Y-02901973D02*
Y-02879523D01*
X04204724Y-02992524D02*
Y-02970074D01*
X04185039Y-02992524D02*
Y-02970074D01*
X04165354Y-02992524D02*
Y-02970074D01*
X04224409Y-02992524D02*
Y-02970074D01*
X04244094Y-02992524D02*
Y-02970074D01*
X04204724Y-02856697D02*
Y-02834247D01*
X04185039Y-02856697D02*
Y-02834247D01*
X04165354Y-02856697D02*
Y-02834247D01*
X04224409Y-02856697D02*
Y-02834247D01*
X04244094Y-02856697D02*
Y-02834247D01*
X04125586Y-02883858D02*
X04148036D01*
X04125586Y-02942913D02*
X04148036D01*
X04261413D02*
X04283863D01*
X04261413Y-02883858D02*
X04283863D01*
G54D35*
X01904528Y-03422253D02*
Y-03386803D01*
X01878937Y-03422253D02*
Y-03386803D01*
X01853346Y-03422253D02*
Y-03386803D01*
X01827756Y-03422253D02*
Y-03386803D01*
X01904528Y-03266741D02*
Y-03231291D01*
X01878937Y-03266741D02*
Y-03231291D01*
X01853346Y-03266741D02*
Y-03231291D01*
X01827756Y-03266741D02*
Y-03231291D01*
X01766732Y-03422253D02*
Y-03386803D01*
X01741142Y-03422253D02*
Y-03386803D01*
X01715551Y-03422253D02*
Y-03386803D01*
X01689961Y-03422253D02*
Y-03386803D01*
X01766732Y-03266741D02*
Y-03231291D01*
X01741142Y-03266741D02*
Y-03231291D01*
X01715551Y-03266741D02*
Y-03231291D01*
X01689961Y-03266741D02*
Y-03231291D01*
G54D40*
X01709875Y-02692480D02*
X01720125D01*
X01709875Y-02317520D02*
X01720125D01*
X01809875D02*
X01820125D01*
X01909875D02*
X01920125D01*
X01909875Y-02692480D02*
X01920125D01*
X01809875D02*
X01820125D01*
X01709875Y-03152480D02*
X01720125D01*
X01709875Y-02777520D02*
X01720125D01*
X01809875D02*
X01820125D01*
X01909875D02*
X01920125D01*
X01909875Y-03152480D02*
X01920125D01*
X01809875D02*
X01820125D01*
G54D41*
X03558083Y-03184055D02*
X03565933D01*
X03615169Y-03249016D02*
X03623019D01*
X03558083D02*
X03565933D01*
X03615169Y-03184055D02*
X03623019D01*
G54D34*
X01885000Y-02022401D02*
Y-01985001D01*
X01835000Y-02022401D02*
Y-01985001D01*
X01785000Y-02022401D02*
Y-01985001D01*
X01735000Y-02022401D02*
Y-01985001D01*
Y-02234999D02*
Y-02197599D01*
X01785000Y-02234999D02*
Y-02197599D01*
X01835000Y-02234999D02*
Y-02197599D01*
X01885000Y-02234999D02*
Y-02197599D01*
Y-01692401D02*
Y-01655001D01*
X01835000Y-01692401D02*
Y-01655001D01*
X01785000Y-01692401D02*
Y-01655001D01*
X01735000Y-01692401D02*
Y-01655001D01*
Y-01904999D02*
Y-01867599D01*
X01785000Y-01904999D02*
Y-01867599D01*
X01835000Y-01904999D02*
Y-01867599D01*
X01885000Y-01904999D02*
Y-01867599D01*
G54D15*
X04308465Y-03072829D02*
Y-03061029D01*
X04258465Y-03072829D02*
Y-03061029D01*
X04208465Y-03072829D02*
Y-03061029D01*
X04358465Y-03072829D02*
Y-03061029D01*
Y-03379916D02*
Y-03368116D01*
X04308465Y-03379916D02*
Y-03368116D01*
X04258465Y-03379916D02*
Y-03368116D01*
X04208465Y-03379916D02*
Y-03368116D01*
G54D13*
X04348411Y-03507874D02*
X04372061D01*
X04348411Y-03438976D02*
X04372061D01*
X04348411Y-03576772D02*
X04372061D01*
X04202742Y-03438976D02*
X04226392D01*
X04202742Y-03507874D02*
X04226392D01*
X04202742Y-03576772D02*
X04226392D01*
G54D41*
X04008870Y-03091535D02*
X04016720D01*
X03951784Y-03026575D02*
X03959634D01*
X04008870D02*
X04016720D01*
X03951784Y-03091535D02*
X03959634D01*
G54D35*
X02540346Y-04418307D02*
X02575796D01*
X02540346Y-04443898D02*
X02575796D01*
X02540346Y-04469488D02*
X02575796D01*
X02540346Y-04495079D02*
X02575796D01*
X02384834Y-04418307D02*
X02420284D01*
X02384834Y-04443898D02*
X02420284D01*
X02384834Y-04469488D02*
X02420284D01*
X02384834Y-04495079D02*
X02420284D01*
G54D38*
X02317913Y-04494676D02*
Y-04486426D01*
G54D39*
X02236992Y-04422835D02*
X02245292D01*
X02313763D02*
X02322063D01*
X02236992Y-04498425D02*
X02245292D01*
G54D11*
X03786217Y-03753268D02*
X03796067D01*
X03786217Y-03733583D02*
X03796067D01*
X03786217Y-03713898D02*
X03796067D01*
X03786217Y-03694213D02*
X03796067D01*
X03786217Y-03674528D02*
X03796067D01*
X03786217Y-03654843D02*
X03796067D01*
X03786217Y-03635157D02*
X03796067D01*
X03786217Y-03615472D02*
X03796067D01*
X03786217Y-03595787D02*
X03796067D01*
X03786217Y-03576102D02*
X03796067D01*
X03786217Y-03556417D02*
X03796067D01*
X03786217Y-03536732D02*
X03796067D01*
X03816732Y-03516067D02*
Y-03506217D01*
X03915157Y-03516067D02*
Y-03506217D01*
X03895472Y-03516067D02*
Y-03506217D01*
X03875787Y-03516067D02*
Y-03506217D01*
X03856102Y-03516067D02*
Y-03506217D01*
X03836417Y-03516067D02*
Y-03506217D01*
X03934843Y-03516067D02*
Y-03506217D01*
X03954528Y-03516067D02*
Y-03506217D01*
X03974213Y-03516067D02*
Y-03506217D01*
X03993898Y-03516067D02*
Y-03506217D01*
X04013583Y-03516067D02*
Y-03506217D01*
X04033268Y-03516067D02*
Y-03506217D01*
X04053933Y-03635157D02*
X04063783D01*
X04053933Y-03615472D02*
X04063783D01*
X04053933Y-03595787D02*
X04063783D01*
X04053933Y-03576102D02*
X04063783D01*
X04053933Y-03556417D02*
X04063783D01*
X04053933Y-03536732D02*
X04063783D01*
X04053933Y-03654843D02*
X04063783D01*
X04053933Y-03674528D02*
X04063783D01*
X04053933Y-03694213D02*
X04063783D01*
X04053933Y-03713898D02*
X04063783D01*
X04053933Y-03733583D02*
X04063783D01*
X04053933Y-03753268D02*
X04063783D01*
X03934843Y-03783783D02*
Y-03773933D01*
X03915157Y-03783783D02*
Y-03773933D01*
X03895472Y-03783783D02*
Y-03773933D01*
X03875787Y-03783783D02*
Y-03773933D01*
X03856102Y-03783783D02*
Y-03773933D01*
X03836417Y-03783783D02*
Y-03773933D01*
X03816732Y-03783783D02*
Y-03773933D01*
X03954528Y-03783783D02*
Y-03773933D01*
X03974213Y-03783783D02*
Y-03773933D01*
X03993898Y-03783783D02*
Y-03773933D01*
X04013583Y-03783783D02*
Y-03773933D01*
X04033268Y-03783783D02*
Y-03773933D01*
G54D14*
X04324213Y-01743981D02*
Y-01721531D01*
X04284843Y-01743981D02*
Y-01721531D01*
X04304528Y-01743981D02*
Y-01721531D01*
X04265157Y-01743981D02*
Y-01721531D01*
X04245472Y-01743981D02*
Y-01721531D01*
X04225787Y-01743981D02*
Y-01721531D01*
X04341531Y-01704213D02*
X04363981D01*
X04341531Y-01684528D02*
X04363981D01*
X04341531Y-01664843D02*
X04363981D01*
X04341531Y-01645157D02*
X04363981D01*
X04341531Y-01625472D02*
X04363981D01*
X04341531Y-01605787D02*
X04363981D01*
X04284843Y-01588469D02*
Y-01566019D01*
X04304528Y-01588469D02*
Y-01566019D01*
X04324213Y-01588469D02*
Y-01566019D01*
X04265157Y-01588469D02*
Y-01566019D01*
X04245472Y-01588469D02*
Y-01566019D01*
X04225787Y-01588469D02*
Y-01566019D01*
X04186019Y-01605787D02*
X04208469D01*
X04186019Y-01625472D02*
X04208469D01*
X04186019Y-01645157D02*
X04208469D01*
X04186019Y-01664843D02*
X04208469D01*
X04186019Y-01684528D02*
X04208469D01*
X04186019Y-01704213D02*
X04208469D01*
G54D41*
X03739618Y-03682480D02*
X03747468D01*
X03682532Y-03617520D02*
X03690382D01*
X03739618D02*
X03747468D01*
X03682532Y-03682480D02*
X03690382D01*
G54D42*
X02129917Y-04389764D02*
X02192917D01*
G54D23*
X02129917Y-04437008D02*
X02192917D01*
X02129917Y-04342520D02*
X02192917D01*
G54D38*
X01554154Y-04441929D02*
X01579704D01*
X01554154Y-04384843D02*
X01579704D01*
G54D43*
X04043701Y-01666602D03*
Y-01616602D03*
Y-01566602D03*
Y-01516602D03*
Y-01466602D03*
Y-01416602D03*
Y-01366602D03*
Y-01316602D03*
Y-01266602D03*
Y-01216602D03*
X03993701Y-01666602D03*
Y-01616602D03*
Y-01566602D03*
Y-01516602D03*
Y-01466602D03*
Y-01416602D03*
Y-01366602D03*
Y-01316602D03*
Y-01266602D03*
Y-01216602D03*
X03943701Y-01666602D03*
Y-01616602D03*
Y-01566602D03*
Y-01516602D03*
Y-01466602D03*
Y-01416602D03*
Y-01366602D03*
Y-01316602D03*
Y-01266602D03*
Y-01216602D03*
X03893701Y-01666602D03*
Y-01616602D03*
Y-01566602D03*
Y-01516602D03*
Y-01466602D03*
Y-01416602D03*
Y-01366602D03*
Y-01316602D03*
Y-01266602D03*
Y-01216602D03*
X03843701Y-01666602D03*
Y-01616602D03*
Y-01566602D03*
Y-01516602D03*
Y-01466602D03*
Y-01416602D03*
Y-01366602D03*
Y-01316602D03*
Y-01266602D03*
Y-01216602D03*
X03793701Y-01666602D03*
Y-01616602D03*
Y-01566602D03*
Y-01516602D03*
Y-01466602D03*
Y-01416602D03*
Y-01366602D03*
Y-01316602D03*
Y-01266602D03*
Y-01216602D03*
X03743701Y-01666602D03*
Y-01616602D03*
Y-01566602D03*
Y-01516602D03*
Y-01466602D03*
Y-01416602D03*
Y-01366602D03*
Y-01316602D03*
Y-01266602D03*
Y-01216602D03*
X03693701Y-01666602D03*
Y-01616602D03*
Y-01566602D03*
Y-01516602D03*
Y-01466602D03*
Y-01416602D03*
Y-01366602D03*
Y-01316602D03*
Y-01266602D03*
Y-01216602D03*
X03643701Y-01666602D03*
Y-01616602D03*
Y-01566602D03*
Y-01516602D03*
Y-01466602D03*
Y-01416602D03*
Y-01366602D03*
Y-01316602D03*
Y-01266602D03*
Y-01216602D03*
X03593701Y-01666602D03*
Y-01616602D03*
Y-01566602D03*
Y-01516602D03*
Y-01466602D03*
Y-01416602D03*
Y-01366602D03*
Y-01316602D03*
Y-01266602D03*
Y-01216602D03*
X03543701Y-01666602D03*
Y-01616602D03*
Y-01566602D03*
Y-01516602D03*
Y-01466602D03*
Y-01416602D03*
Y-01366602D03*
Y-01316602D03*
Y-01266602D03*
Y-01216602D03*
X03493701Y-01666602D03*
Y-01616602D03*
Y-01566602D03*
Y-01516602D03*
Y-01466602D03*
Y-01416602D03*
Y-01366602D03*
Y-01316602D03*
Y-01266602D03*
Y-01216602D03*
X03443701Y-01666602D03*
Y-01616602D03*
Y-01566602D03*
Y-01516602D03*
Y-01466602D03*
Y-01416602D03*
Y-01366602D03*
Y-01316602D03*
Y-01266602D03*
Y-01216602D03*
X03393701Y-01666602D03*
Y-01616602D03*
Y-01566602D03*
Y-01516602D03*
Y-01466602D03*
Y-01416602D03*
Y-01366602D03*
Y-01316602D03*
Y-01266602D03*
Y-01216602D03*
X03343701Y-01666602D03*
Y-01616602D03*
Y-01566602D03*
Y-01516602D03*
Y-01466602D03*
Y-01416602D03*
Y-01366602D03*
Y-01316602D03*
Y-01266602D03*
Y-01216602D03*
X03293701Y-01666602D03*
Y-01616602D03*
Y-01566602D03*
Y-01516602D03*
Y-01466602D03*
Y-01416602D03*
Y-01366602D03*
Y-01316602D03*
Y-01266602D03*
Y-01216602D03*
X03243701Y-01666602D03*
Y-01616602D03*
Y-01566602D03*
Y-01516602D03*
Y-01466602D03*
Y-01416602D03*
Y-01366602D03*
Y-01316602D03*
Y-01266602D03*
Y-01216602D03*
X03193701Y-01666602D03*
Y-01616602D03*
Y-01566602D03*
Y-01516602D03*
Y-01466602D03*
Y-01416602D03*
Y-01366602D03*
Y-01316602D03*
Y-01266602D03*
Y-01216602D03*
X03143701Y-01666602D03*
Y-01616602D03*
Y-01566602D03*
Y-01516602D03*
Y-01466602D03*
Y-01416602D03*
Y-01366602D03*
Y-01316602D03*
Y-01266602D03*
Y-01216602D03*
X03093701Y-01666602D03*
Y-01616602D03*
Y-01566602D03*
Y-01516602D03*
Y-01466602D03*
Y-01416602D03*
Y-01366602D03*
Y-01316602D03*
Y-01266602D03*
Y-01216602D03*
X03043701Y-01666602D03*
Y-01616602D03*
Y-01566602D03*
Y-01516602D03*
Y-01466602D03*
Y-01416602D03*
Y-01366602D03*
Y-01316602D03*
Y-01266602D03*
Y-01216602D03*
X02993701Y-01666602D03*
Y-01616602D03*
Y-01566602D03*
Y-01516602D03*
Y-01466602D03*
Y-01416602D03*
Y-01366602D03*
Y-01316602D03*
Y-01266602D03*
Y-01216602D03*
X02943701Y-01666602D03*
Y-01616602D03*
Y-01566602D03*
Y-01516602D03*
Y-01466602D03*
Y-01416602D03*
Y-01366602D03*
Y-01316602D03*
Y-01266602D03*
Y-01216602D03*
X02893701Y-01666602D03*
Y-01616602D03*
Y-01566602D03*
Y-01516602D03*
Y-01466602D03*
Y-01416602D03*
Y-01366602D03*
Y-01316602D03*
Y-01266602D03*
Y-01216602D03*
X02843701Y-01666602D03*
Y-01616602D03*
Y-01566602D03*
Y-01516602D03*
Y-01466602D03*
Y-01416602D03*
Y-01366602D03*
Y-01316602D03*
Y-01266602D03*
Y-01216602D03*
X02793701Y-01666602D03*
Y-01616602D03*
Y-01566602D03*
Y-01516602D03*
Y-01466602D03*
Y-01416602D03*
Y-01366602D03*
Y-01316602D03*
Y-01266602D03*
Y-01216602D03*
X02743701Y-01666602D03*
Y-01616602D03*
Y-01566602D03*
Y-01516602D03*
Y-01466602D03*
Y-01416602D03*
Y-01366602D03*
Y-01316602D03*
Y-01266602D03*
Y-01216602D03*
X02693701Y-01666602D03*
Y-01616602D03*
Y-01566602D03*
Y-01516602D03*
Y-01466602D03*
Y-01416602D03*
Y-01366602D03*
Y-01316602D03*
Y-01266602D03*
Y-01216602D03*
X02643701Y-01666602D03*
Y-01616602D03*
Y-01566602D03*
Y-01516602D03*
Y-01466602D03*
Y-01416602D03*
Y-01366602D03*
Y-01316602D03*
Y-01266602D03*
Y-01216602D03*
X02593701Y-01666602D03*
Y-01616602D03*
Y-01566602D03*
Y-01516602D03*
Y-01466602D03*
Y-01416602D03*
Y-01366602D03*
Y-01316602D03*
Y-01266602D03*
Y-01216602D03*
X02543701Y-01666602D03*
Y-01616602D03*
Y-01566602D03*
Y-01516602D03*
Y-01466602D03*
Y-01416602D03*
Y-01366602D03*
Y-01316602D03*
Y-01266602D03*
Y-01216602D03*
X02493701Y-01666602D03*
Y-01616602D03*
Y-01566602D03*
Y-01516602D03*
Y-01466602D03*
Y-01416602D03*
Y-01366602D03*
Y-01316602D03*
Y-01266602D03*
Y-01216602D03*
X02443701Y-01666602D03*
Y-01616602D03*
Y-01566602D03*
Y-01516602D03*
Y-01466602D03*
Y-01416602D03*
Y-01366602D03*
Y-01316602D03*
Y-01266602D03*
Y-01216602D03*
X02393701Y-01666602D03*
Y-01616602D03*
Y-01566602D03*
Y-01516602D03*
Y-01466602D03*
Y-01416602D03*
Y-01366602D03*
Y-01316602D03*
Y-01266602D03*
Y-01216602D03*
X02343701Y-01666602D03*
Y-01616602D03*
Y-01566602D03*
Y-01516602D03*
Y-01466602D03*
Y-01416602D03*
Y-01366602D03*
Y-01316602D03*
Y-01266602D03*
Y-01216602D03*
X02293701Y-01666602D03*
Y-01616602D03*
Y-01566602D03*
Y-01516602D03*
Y-01466602D03*
Y-01416602D03*
Y-01366602D03*
Y-01316602D03*
Y-01266602D03*
Y-01216602D03*
X02243701Y-01666602D03*
Y-01616602D03*
Y-01566602D03*
Y-01516602D03*
Y-01466602D03*
Y-01416602D03*
Y-01366602D03*
Y-01316602D03*
Y-01266602D03*
Y-01216602D03*
X02193701Y-01666602D03*
Y-01616602D03*
Y-01566602D03*
Y-01516602D03*
Y-01466602D03*
Y-01416602D03*
Y-01366602D03*
Y-01316602D03*
Y-01266602D03*
Y-01216602D03*
X02143701Y-01666602D03*
Y-01616602D03*
Y-01566602D03*
Y-01516602D03*
Y-01466602D03*
Y-01416602D03*
Y-01366602D03*
Y-01316602D03*
Y-01266602D03*
Y-01216602D03*
X02093701Y-01666602D03*
Y-01616602D03*
Y-01566602D03*
Y-01516602D03*
Y-01466602D03*
Y-01416602D03*
Y-01366602D03*
Y-01316602D03*
Y-01266602D03*
Y-01216602D03*
G54D14*
X04480433Y-03555400D02*
Y-03554600D01*
X04459567Y-03555400D02*
Y-03554600D01*
X04505866Y-03455400D02*
Y-03454600D01*
X04485000Y-03455400D02*
Y-03454600D01*
X02577362Y-04527959D02*
Y-04527159D01*
X02556496Y-04527959D02*
Y-04527159D01*
G54D16*
X04615945Y-02225750D02*
Y-02194250D01*
G54D13*
X04734055Y-02225750D02*
Y-02194250D01*
G54D14*
X01916923Y-02210039D02*
X01917723D01*
X01916923Y-02230906D02*
X01917723D01*
X01820433Y-01622447D02*
Y-01621647D01*
X01799567Y-01622447D02*
Y-01621647D01*
G54D19*
X01606075Y-02457480D02*
X01613925D01*
X01606075Y-02392520D02*
X01613925D01*
X01606075Y-02657480D02*
X01613925D01*
X01606075Y-02592520D02*
X01613925D01*
X01606075Y-02857480D02*
X01613925D01*
X01606075Y-02792520D02*
X01613925D01*
X01606075Y-03057480D02*
X01613925D01*
X01606075Y-02992520D02*
X01613925D01*
G54D13*
X02455000Y-01887101D02*
Y-01863451D01*
X02523898Y-01796549D02*
Y-01772899D01*
X02386102Y-01796549D02*
Y-01772899D01*
G54D38*
X01402564Y-04002362D02*
X01467514D01*
G54D44*
X01555908D02*
X01621258D01*
G54D38*
X01402564Y-04052362D02*
X01467514D01*
G54D44*
X01555908D02*
X01621258D01*
X01402364Y-04102362D02*
X01467714D01*
X01555908D02*
X01621258D01*
X01402364Y-04152362D02*
X01467714D01*
G54D38*
X01556108D02*
X01621058D01*
X01402564Y-04202362D02*
X01467514D01*
G54D44*
X01555908D02*
X01621258D01*
G54D13*
X04058266Y-02770000D02*
X04142916D01*
X04058266Y-01870000D02*
X04142916D01*
X04257084Y-02770000D02*
X04341734D01*
X04257084Y-01870000D02*
X04341734D01*
X04058266Y-02670000D02*
X04142916D01*
X04058266Y-02570000D02*
X04142916D01*
X04058266Y-02470000D02*
X04142916D01*
X04058266Y-02370000D02*
X04142916D01*
X04058266Y-02270000D02*
X04142916D01*
X04058266Y-02170000D02*
X04142916D01*
X04058266Y-02070000D02*
X04142916D01*
X04058266Y-01970000D02*
X04142916D01*
X04257084Y-02670000D02*
X04341734D01*
X04257084Y-02570000D02*
X04341734D01*
X04257084Y-02470000D02*
X04341734D01*
X04257084Y-02370000D02*
X04341734D01*
X04257084Y-02270000D02*
X04341734D01*
X04257084Y-02170000D02*
X04341734D01*
X04257084Y-02070000D02*
X04341734D01*
X04257084Y-01970000D02*
X04341734D01*
G54D14*
X01586214Y-04274213D02*
X01587014D01*
X01586214Y-04253346D02*
X01587014D01*
X02682480Y-04370479D02*
Y-04369679D01*
X02703346Y-04370479D02*
Y-04369679D01*
X02702165Y-04181502D02*
Y-04180702D01*
X02723031Y-04181502D02*
Y-04180702D01*
G54D15*
X03393701Y-03858268D03*
Y-03897638D03*
X03425197Y-03858268D03*
Y-03897638D03*
X02169291Y-03523622D03*
Y-03484252D03*
X02244094Y-04102362D03*
Y-04062992D03*
X01720472Y-04027559D03*
Y-03988189D03*
X01759843Y-03472441D03*
Y-03511811D03*
G54D14*
X02231883Y-04471063D02*
X02232683D01*
X02231883Y-04450197D02*
X02232683D01*
G54D45*
X02244094Y-01968504D03*
X03582677Y-03405512D03*
G54D46*
X03755900Y-03098400D03*
X03818900D03*
X03755900Y-03035400D03*
X03818900D03*
G54D47*
X01244100Y-04218100D03*
G54D48*
Y-04118100D03*
Y-04018100D03*
G54D47*
X02047200Y-04670900D03*
G54D48*
Y-04570900D03*
G54D47*
X01640000Y-01765000D03*
G54D48*
Y-01665000D03*
G54D47*
Y-02100000D03*
G54D48*
Y-02000000D03*
G54D49*
X04741294Y-03116400D02*
X04753106D01*
X04741294Y-03085700D02*
X04753106D01*
X04741294Y-03055000D02*
X04753106D01*
X04741294Y-03024300D02*
X04753106D01*
X04741294Y-02993600D02*
X04753106D01*
X04698794D02*
X04710606D01*
X04698794Y-03024300D02*
X04710606D01*
X04698794Y-03055000D02*
X04710606D01*
X04698794Y-03085700D02*
X04710606D01*
X04698794Y-03116400D02*
X04710606D01*
X04656294D02*
X04668106D01*
X04656294Y-03085700D02*
X04668106D01*
X04656294Y-03055000D02*
X04668106D01*
X04656294Y-03024300D02*
X04668106D01*
X04656294Y-02993600D02*
X04668106D01*
G54D50*
X04749300Y-02438200D03*
X04698600D03*
X04647900D03*
X04597200D03*
X04749300Y-02387500D03*
X04698600D03*
X04647900D03*
X04597200D03*
X04749300Y-02336900D03*
X04698600D03*
X04647900D03*
X04597200D03*
X04749300Y-02286200D03*
X04698600D03*
X04647900D03*
X04597200D03*
G54D51*
X04319700Y-03843725D02*
Y-03833875D01*
Y-03794525D02*
Y-03784675D01*
Y-03892925D02*
Y-03883075D01*
X04280300Y-03892925D02*
Y-03883075D01*
Y-03843725D02*
Y-03833875D01*
Y-03794525D02*
Y-03784675D01*
Y-03745325D02*
Y-03735475D01*
Y-03696125D02*
Y-03686275D01*
Y-03646925D02*
Y-03637075D01*
X04319700Y-03646925D02*
Y-03637075D01*
Y-03696125D02*
Y-03686275D01*
Y-03745325D02*
Y-03735475D01*
G54D52*
X01931100Y-04340600D03*
Y-04439000D03*
X02029500Y-04340600D03*
X01980300Y-04439000D03*
X01931100Y-04389800D03*
X01980300D03*
X02029500D03*
X01980300Y-04340600D03*
X02029500Y-04439000D03*
G54D53*
X03870100Y-02626000D03*
Y-02665400D03*
X03830700D03*
Y-02626000D03*
X03870100Y-02803100D03*
Y-02842500D03*
X03830700D03*
Y-02803100D03*
X04185000Y-02893700D03*
X04224400D03*
Y-02933100D03*
X04185000D03*
G54D46*
X04283500Y-03220500D03*
X04346500D03*
Y-03283500D03*
X04283500D03*
X04220500D03*
Y-03220500D03*
Y-03157500D03*
X04283500D03*
X04346500D03*
G54D54*
X03895500Y-03674500D03*
Y-03615500D03*
X03954500D03*
Y-03674500D03*
G54D55*
X04275000Y-01655000D03*
G54D56*
X01828900Y-01362900D03*
X04309300D03*
G54D57*
X01288100Y-02671900D03*
Y-02573400D03*
Y-02475000D03*
Y-02376600D03*
Y-02770300D03*
Y-02868700D03*
Y-02967100D03*
Y-03065600D03*
X01485000Y-02376600D03*
Y-02475000D03*
Y-02573400D03*
Y-02671900D03*
Y-02770300D03*
Y-02868700D03*
Y-02967100D03*
Y-03065600D03*
X01288100Y-03496900D03*
Y-03398400D03*
Y-03300000D03*
Y-03201600D03*
Y-03595300D03*
Y-03693700D03*
Y-03792100D03*
Y-03890600D03*
X01485000Y-03201600D03*
Y-03300000D03*
Y-03398400D03*
Y-03496900D03*
Y-03595300D03*
Y-03693700D03*
Y-03792100D03*
Y-03890600D03*
X01288100Y-02238400D03*
Y-02140000D03*
Y-02041600D03*
X01485000D03*
Y-02140000D03*
Y-02238400D03*
X01288100Y-01903400D03*
Y-01805000D03*
Y-01706600D03*
X01485000D03*
Y-01805000D03*
Y-01903400D03*
G54D58*
X04430000Y-04370000D03*
G54D59*
X04242992Y-04649530D02*
Y-04602281D01*
Y-04464491D02*
Y-04417241D01*
X04617008Y-04649530D02*
Y-04602281D01*
Y-04464491D02*
Y-04417241D01*
G54D60*
X04390625Y-04606220D02*
X04469375D01*
G54D61*
X04756300Y-04531100D03*
X01381100Y-04381100D03*
X04756300Y-01381100D03*
X01381100Y-01481100D03*
G54D62*
X03648700Y-03910500D03*
X03888700D03*
G54D63*
X04185748Y-04584871D02*
Y-04561271D01*
G54D64*
X02280500Y-04046250D02*
Y-04040350D01*
G54D65*
X04741275Y-03147100D02*
X04753125D01*
G54D66*
X02310000Y-04046250D02*
Y-04040350D01*
X04243500Y-01623500D03*
Y-01655000D03*
Y-01686500D03*
X04275000Y-01623500D03*
Y-01686500D03*
X04306500Y-01623500D03*
Y-01655000D03*
Y-01686500D03*
X04656275Y-02962900D02*
X04668125D01*
X04656275Y-03147100D02*
X04668125D01*
X04698775Y-02962900D02*
X04710625D01*
X04698775Y-03147100D02*
X04710625D01*
X04741275Y-02962900D02*
X04753125D01*
G54D67*
X03532400Y-04265600D03*
X03582400Y-04225400D03*
X03608700Y-03960500D03*
X03632400Y-04265600D03*
X03688700Y-03960500D03*
X03728700Y-03910500D03*
X03768700Y-03960500D03*
X03808700Y-03910500D03*
X03848700Y-03960500D03*
X03928700D03*
X03945000Y-04265600D03*
X03968700Y-03910500D03*
X03995000Y-04225400D03*
X04045000Y-04265600D03*
G54D68*
X02633900Y-04631900D03*
X02657500Y-04437000D03*
X03228300D03*
X03252000Y-04631900D03*
G54D69*
X03391654Y-04584871D02*
Y-04561271D01*
G54D12*
X04145984Y-04709300D02*
Y-04670700D01*
G54D70*
X04591100Y-03426000D03*
Y-04161000D03*
X04746100Y-03388500D03*
Y-04198500D03*
G54D71*
X01998200Y-01441600D03*
X04139200Y-01561600D03*
G54D72*
X04430000Y-04734200D03*
G54D73*
X03532800Y-03945100D03*
X04044600D03*
G54D74*
X03452700Y-04352000D02*
X03511700D01*
X04065700D02*
X04124700D01*
G54D75*
X04243000Y-04464500D02*
Y-04417200D01*
Y-04649500D02*
Y-04602300D01*
X04473300Y-04606200D02*
X04386700D01*
X04617000Y-04464500D02*
Y-04417200D01*
Y-04649500D02*
Y-04602300D01*
G54D76*
X03391700Y-04561300D02*
Y-04584900D01*
X04185700Y-04561300D02*
Y-04584900D01*
G54D77*
X03391700Y-04549488D03*
Y-04596711D03*
X04185700Y-04549488D03*
Y-04596711D03*
%LPC*%
G75*
X04185700Y-04596711D02*
G54D78*
X02155917Y-03472432D02*
X02157471Y-03470877D01*
G54D79*
X03709379Y-03145326D02*
X03711263Y-03143443D01*
G54D80*
X01633681Y-04457572D02*
X01612381D01*
X01659272D02*
X01637972D01*
G54D79*
X01729789Y-03458861D02*
X01773032Y-03458598D01*
G54D80*
X03639763Y-03169380D02*
Y-03213477D01*
Y-03219594D02*
Y-03263691D01*
X04033464Y-03062113D02*
Y-03106210D01*
Y-03011900D02*
Y-03055997D01*
X02743965Y-04190931D02*
X02715706D01*
X02709490D02*
X02679263D01*
X03804292Y-03586695D02*
X03777992D01*
X03804292Y-03565510D02*
X03777992D01*
G54D79*
X04216520Y-04586850D02*
X04212412Y-04600358D01*
G54D81*
X03674833Y-03141657D02*
X03677811Y-03145012D01*
G54D82*
X02168520Y-04001666D02*
X02178721Y-03998541D01*
G54D83*
X02168780Y-03883310D02*
X02180801Y-03880729D01*
G54D84*
X02869285Y-04281825D02*
X02873933Y-04289157D01*
G54D85*
X03993011Y-03075726D02*
X04032580D01*
G54D86*
X03777389Y-03727280D02*
X03779914Y-03724756D01*
G54D87*
X03775487Y-03653956D02*
X03779440Y-03644799D01*
G36*
X03798223Y-03585777D02*
G02X03798328Y-03585666I00001913J-00001696D01*
G01X03805631Y-03578364D01*
G02X03805742Y-03578259I00001808J-00001808D01*
G01Y-03585484D01*
X03805449Y-03585777D01*
X03798223D01*
G37*
G36*
G02X03798328Y-03585666I00001913J-00001696D01*
G01X03805631Y-03578364D01*
G02X03805742Y-03578259I00001808J-00001808D01*
G01Y-03585484D01*
X03805449Y-03585777D01*
X03798223D01*
G37*
G54D88*
X04071636Y-03646940D02*
Y-03662745D01*
G54D89*
X02204540Y-04330847D02*
Y-04354192D01*
G54D90*
X02116786Y-04344779D02*
X02119719Y-04354991D01*
G54D91*
X03863738Y-02990592D02*
X03865600Y-02988730D01*
X03709203D02*
X03711065Y-02990592D01*
X03709203Y-03145128D02*
X03711065Y-03143266D01*
X03865600Y-03145128D02*
X03863738Y-03143266D01*
G54D92*
X01789729Y-01633477D02*
Y-01610617D01*
G54D91*
X01738283Y-03459303D02*
X01757129Y-03457980D01*
G54D92*
X01687383Y-04456275D02*
Y-04400025D01*
X03800805Y-02635827D02*
X03764155D01*
Y-02655512D02*
X03800805D01*
Y-02616142D02*
X03764155D01*
Y-02675197D02*
X03800805D01*
X03936632Y-02635827D02*
X03899982D01*
Y-02655512D02*
X03936632D01*
Y-02616142D02*
X03899982D01*
Y-02675197D02*
X03936632D01*
X03800805Y-02812992D02*
X03764155D01*
Y-02832677D02*
X03800805D01*
Y-02793307D02*
X03764155D01*
Y-02852362D02*
X03800805D01*
X03936632Y-02812992D02*
X03899982D01*
Y-02832677D02*
X03936632D01*
Y-02793307D02*
X03899982D01*
Y-02852362D02*
X03936632D01*
X04194882Y-02962974D02*
Y-02999624D01*
X04214567D02*
Y-02962974D01*
X04175197D02*
Y-02999624D01*
X04234252D02*
Y-02962974D01*
X04194882Y-02827147D02*
Y-02863797D01*
X04214567D02*
Y-02827147D01*
X04175197D02*
Y-02863797D01*
X04234252D02*
Y-02827147D01*
X04314370Y-01714431D02*
Y-01751081D01*
X04294685D02*
Y-01714431D01*
X04275000D02*
Y-01751081D01*
X04255315Y-01714431D02*
Y-01751081D01*
X04235630Y-01714431D02*
Y-01751081D01*
X04371081Y-01694370D02*
X04334431D01*
X04371081Y-01674685D02*
X04334431D01*
X04371081Y-01655000D02*
X04334431D01*
X04371081Y-01635315D02*
X04334431D01*
X04371081Y-01615630D02*
X04334431D01*
X04294685Y-01595569D02*
Y-01558919D01*
X04275000D02*
Y-01595569D01*
X04314370D02*
Y-01558919D01*
X04255315D02*
Y-01595569D01*
X04235630Y-01558919D02*
Y-01595569D01*
X04178919Y-01615630D02*
X04215569D01*
X04178919Y-01635315D02*
X04215569D01*
X04178919Y-01655000D02*
X04215569D01*
X04178919Y-01674685D02*
X04215569D01*
X04178919Y-01694370D02*
X04215569D01*
G54D80*
X03639738Y-03169455D02*
Y-03213452D01*
Y-03219619D02*
Y-03263616D01*
X04033439Y-03062138D02*
Y-03106135D01*
Y-03011975D02*
Y-03055972D01*
X02785433Y-04436838D02*
Y-04358438D01*
X03120079D02*
Y-04436838D01*
X02805118D02*
Y-04358438D01*
X02824803Y-04436838D02*
Y-04358438D01*
X02844488Y-04436838D02*
Y-04358438D01*
X02864173Y-04436838D02*
Y-04358438D01*
X02883858Y-04436838D02*
Y-04358438D01*
X02903543Y-04436838D02*
Y-04358438D01*
X02923228Y-04436838D02*
Y-04358438D01*
X02942913Y-04436838D02*
Y-04358438D01*
X02962598Y-04436838D02*
Y-04358438D01*
X02982283Y-04436838D02*
Y-04358438D01*
X03001969Y-04436838D02*
Y-04358438D01*
X03021654Y-04436838D02*
Y-04358438D01*
X03041339Y-04436838D02*
Y-04358438D01*
X03061024Y-04436838D02*
Y-04358438D01*
X03080709Y-04436838D02*
Y-04358438D01*
X03100394Y-04436838D02*
Y-04358438D01*
X01959646Y-04071681D02*
Y-04030681D01*
X01985236Y-04071681D02*
Y-04030681D01*
Y-03944067D02*
Y-03985067D01*
X01959646D02*
Y-03944067D01*
X01635827Y-04301013D02*
Y-04244263D01*
X01661417Y-04301013D02*
Y-04244263D01*
X01687008Y-04301013D02*
Y-04244263D01*
X01635827Y-04456525D02*
Y-04399775D01*
X01661417Y-04456525D02*
Y-04399775D01*
X02819882Y-04196035D02*
Y-04237035D01*
X02794291Y-04196035D02*
Y-04237035D01*
Y-04323650D02*
Y-04282650D01*
X02819882D02*
Y-04323650D01*
X02743965Y-04190944D02*
X02715681D01*
X02709515D02*
X02679263D01*
X02025422Y-02120079D02*
X01968672D01*
X02025422Y-02094488D02*
X01968672D01*
X02025422Y-02068898D02*
X01968672D01*
X02180934Y-02120079D02*
X02124184D01*
X02180934Y-02094488D02*
X02124184D01*
X02180934Y-02068898D02*
X02124184D01*
X03813516Y-02734252D02*
X03828216D01*
X03872571D02*
X03887271D01*
X01891732Y-03376153D02*
Y-03432903D01*
X01866142Y-03376153D02*
Y-03432903D01*
X01840551Y-03376153D02*
Y-03432903D01*
X01891732Y-03220641D02*
Y-03277391D01*
X01866142Y-03220641D02*
Y-03277391D01*
X01840551Y-03220641D02*
Y-03277391D01*
X01753937Y-03376153D02*
Y-03432903D01*
X01728346Y-03376153D02*
Y-03432903D01*
X01702756Y-03376153D02*
Y-03432903D01*
X01753937Y-03220641D02*
Y-03277391D01*
X01728346Y-03220641D02*
Y-03277391D01*
X01702756Y-03220641D02*
Y-03277391D01*
X02529696Y-04431102D02*
X02586446D01*
X02529696Y-04456693D02*
X02586446D01*
X02529696Y-04482283D02*
X02586446D01*
X02374184Y-04431102D02*
X02430934D01*
X02374184Y-04456693D02*
X02430934D01*
X02374184Y-04482283D02*
X02430934D01*
G54D79*
X04333962Y-01713962D02*
X04331781Y-01711781D01*
X04218219D02*
X04216038Y-01713962D01*
X04333962Y-01596038D02*
X04331781Y-01598219D01*
X04216038Y-01596038D02*
X04218219Y-01598219D01*
X04216491Y-04586901D02*
X04212417Y-04600299D01*
G54D93*
X02795307Y-02246187D02*
Y-02249876D01*
X02874050Y-02246221D02*
Y-02249842D01*
X02952782Y-02246122D02*
Y-02249941D01*
G54D94*
X03445798Y-02848383D02*
X03442956Y-02845540D01*
G54D95*
X02423516Y-03601060D02*
X02419960Y-03604618D01*
X02434753Y-03587914D02*
X02438311Y-03584357D01*
X02438287Y-03604604D02*
X02434737Y-03601038D01*
X02455013Y-03601059D02*
X02451457Y-03604617D01*
X02466249Y-03587913D02*
X02469808Y-03584356D01*
X02486509Y-03601059D02*
X02482955Y-03604615D01*
X02469783Y-03604604D02*
X02466235Y-03601041D01*
X02612498Y-03601053D02*
X02608943Y-03604613D01*
X02623734Y-03587906D02*
X02627295Y-03584352D01*
X02627270Y-03604608D02*
X02623719Y-03601047D01*
X02643994Y-03601052D02*
X02640441Y-03604612D01*
X02675491Y-03601051D02*
X02671939Y-03604611D01*
X02658767Y-03604609D02*
X02655216Y-03601048D01*
X02423516Y-03632557D02*
X02419959Y-03636114D01*
X02434752Y-03619411D02*
X02438310Y-03615853D01*
X02438288Y-03636100D02*
X02434739Y-03632537D01*
X02455012Y-03632557D02*
X02451457Y-03636113D01*
X02466249Y-03619409D02*
X02469807Y-03615853D01*
X02486509Y-03632555D02*
X02482953Y-03636113D01*
X02469785Y-03636101D02*
X02466235Y-03632537D01*
X02612496Y-03632551D02*
X02608943Y-03636109D01*
X02623734Y-03619403D02*
X02627294Y-03615849D01*
X02627271Y-03636105D02*
X02623720Y-03632544D01*
X02643993Y-03632549D02*
X02640440Y-03636108D01*
X02655230Y-03619402D02*
X02658790Y-03615848D01*
X02675491Y-03632548D02*
X02671937Y-03636108D01*
X02658769Y-03636106D02*
X02655217Y-03632545D01*
X02423514Y-03664056D02*
X02419957Y-03667611D01*
X02438288Y-03667597D02*
X02434739Y-03664034D01*
X02455012Y-03664054D02*
X02451455Y-03667611D01*
X02434753Y-03650906D02*
X02438308Y-03647351D01*
X02469786Y-03667598D02*
X02466236Y-03664035D01*
X02466249Y-03650906D02*
X02469805Y-03647351D01*
X02612496Y-03664048D02*
X02608941Y-03667606D01*
X02627272Y-03667602D02*
X02623720Y-03664040D01*
X02643993Y-03664046D02*
X02640438Y-03667606D01*
X02623733Y-03650900D02*
X02627292Y-03647346D01*
X02675490Y-03664045D02*
X02671936Y-03667605D01*
X02658770Y-03667603D02*
X02655218Y-03664043D01*
X02655230Y-03650899D02*
X02658790Y-03647345D01*
X02423513Y-03695553D02*
X02419957Y-03699107D01*
X02434752Y-03682404D02*
X02438306Y-03678848D01*
X02438289Y-03699093D02*
X02434740Y-03695531D01*
X02455010Y-03695551D02*
X02451454Y-03699107D01*
X02466248Y-03682403D02*
X02469803Y-03678848D01*
X02469787Y-03699095D02*
X02466236Y-03695532D01*
X02612495Y-03695545D02*
X02608939Y-03699104D01*
X02623732Y-03682398D02*
X02627291Y-03678843D01*
X02627274Y-03699099D02*
X02623722Y-03695539D01*
X02643991Y-03695544D02*
X02640438Y-03699102D01*
X02655229Y-03682397D02*
X02658788Y-03678842D01*
X02675489Y-03695543D02*
X02671935Y-03699101D01*
X02658772Y-03699100D02*
X02655218Y-03695539D01*
X02434750Y-03713902D02*
X02438306Y-03710344D01*
X02455009Y-03727049D02*
X02451452Y-03730604D01*
X02466247Y-03713901D02*
X02469803Y-03710344D01*
X02482935Y-03710332D02*
X02486497Y-03713883D01*
X02486507Y-03727047D02*
X02482949Y-03730604D01*
X02469788Y-03730591D02*
X02466238Y-03727030D01*
X02612494Y-03727043D02*
X02608939Y-03730600D01*
X02623731Y-03713895D02*
X02627289Y-03710340D01*
X02627275Y-03730596D02*
X02623722Y-03727036D01*
X02643991Y-03727041D02*
X02640435Y-03730600D01*
X02655229Y-03713893D02*
X02658787Y-03710339D01*
X02658773Y-03730597D02*
X02655219Y-03727036D01*
X02423512Y-03758547D02*
X02419953Y-03762102D01*
X02438292Y-03762087D02*
X02434742Y-03758526D01*
X02455009Y-03758547D02*
X02451451Y-03762101D01*
X02466246Y-03745399D02*
X02469802Y-03741840D01*
X02469789Y-03762088D02*
X02466239Y-03758528D01*
X02612494Y-03758539D02*
X02608937Y-03762098D01*
X02623731Y-03745392D02*
X02627288Y-03741837D01*
X02627277Y-03762093D02*
X02623723Y-03758533D01*
X02643989Y-03758539D02*
X02640435Y-03762095D01*
X02655228Y-03745391D02*
X02658784Y-03741837D01*
X02675486Y-03758538D02*
X02671933Y-03762095D01*
X02658773Y-03762093D02*
X02655221Y-03758535D01*
X02434748Y-03776898D02*
X02438303Y-03773338D01*
X02466245Y-03776895D02*
X02469801Y-03773337D01*
X02623730Y-03776889D02*
X02627287Y-03773334D01*
X02655227Y-03776888D02*
X02658784Y-03773333D01*
X02423510Y-03821543D02*
X02419952Y-03825095D01*
X02482939Y-03804823D02*
X02486499Y-03808375D01*
X02627280Y-03825087D02*
X02623724Y-03821528D01*
X02658776Y-03825087D02*
X02655222Y-03821529D01*
X02419945Y-03836318D02*
X02423506Y-03839869D01*
X02434746Y-03839892D02*
X02438300Y-03836332D01*
X02438297Y-03856579D02*
X02434744Y-03853018D01*
X02482940Y-03836320D02*
X02486500Y-03839872D01*
X02469794Y-03856579D02*
X02466241Y-03853019D01*
X02608930Y-03836324D02*
X02612488Y-03839877D01*
X02623729Y-03839884D02*
X02627284Y-03836327D01*
X02640427Y-03836324D02*
X02643985Y-03839879D01*
X02627280Y-03856583D02*
X02623726Y-03853026D01*
X02655225Y-03839883D02*
X02658782Y-03836326D01*
X02658777Y-03856584D02*
X02655222Y-03853027D01*
X02419947Y-03867815D02*
X02423507Y-03871367D01*
X02434746Y-03871389D02*
X02438300Y-03867829D01*
X02451444Y-03867816D02*
X02455004Y-03871368D01*
X02438297Y-03888075D02*
X02434745Y-03884515D01*
X02466243Y-03871388D02*
X02469796Y-03867829D01*
X02482941Y-03867816D02*
X02486502Y-03871370D01*
X02469795Y-03888076D02*
X02466242Y-03884516D01*
X02608931Y-03867820D02*
X02612488Y-03871374D01*
X02623727Y-03871382D02*
X02627284Y-03867824D01*
X02640429Y-03867822D02*
X02643985Y-03871376D01*
X02655224Y-03871380D02*
X02658780Y-03867824D01*
X02671925Y-03867822D02*
X02675483Y-03871378D01*
X02658779Y-03888081D02*
X02655224Y-03884524D01*
X02419948Y-03899312D02*
X02423508Y-03902864D01*
X02434746Y-03902886D02*
X02438298Y-03899326D01*
X02451445Y-03899313D02*
X02455005Y-03902866D01*
X02438299Y-03919572D02*
X02434746Y-03916012D01*
X02466243Y-03902884D02*
X02469795Y-03899326D01*
X02482942Y-03899313D02*
X02486502Y-03902867D01*
X02469797Y-03919573D02*
X02466243Y-03916014D01*
X02640429Y-03899317D02*
X02643987Y-03902873D01*
X02655224Y-03902877D02*
X02658779Y-03899321D01*
X02671926Y-03899318D02*
X02675483Y-03902874D01*
X02658780Y-03919578D02*
X02655224Y-03916021D01*
X02419949Y-03930808D02*
X02423510Y-03934362D01*
X02434745Y-03934383D02*
X02438296Y-03930823D01*
X02451447Y-03930810D02*
X02455006Y-03934363D01*
X02438300Y-03951069D02*
X02434746Y-03947509D01*
X02466241Y-03934382D02*
X02469794Y-03930822D01*
X02482944Y-03930810D02*
X02486503Y-03934364D01*
X02469797Y-03951070D02*
X02466244Y-03947511D01*
X02640430Y-03930814D02*
X02643987Y-03934371D01*
X02627284Y-03951074D02*
X02623728Y-03947518D01*
X02655223Y-03934374D02*
X02658777Y-03930818D01*
X02671928Y-03930815D02*
X02675484Y-03934371D01*
X02658782Y-03951075D02*
X02655225Y-03947519D01*
X02419950Y-03962305D02*
X02423510Y-03965859D01*
X02434744Y-03965881D02*
X02438296Y-03962319D01*
X02451448Y-03962307D02*
X02455006Y-03965859D01*
X02438301Y-03982566D02*
X02434747Y-03979007D01*
X02466241Y-03965879D02*
X02469792Y-03962319D01*
X02482946Y-03962308D02*
X02486503Y-03965861D01*
X02469798Y-03982566D02*
X02466244Y-03979008D01*
X02608934Y-03962311D02*
X02612491Y-03965866D01*
X02623725Y-03965874D02*
X02627279Y-03962315D01*
X02640432Y-03962311D02*
X02643988Y-03965868D01*
X02627285Y-03982571D02*
X02623729Y-03979015D01*
X02655222Y-03965872D02*
X02658777Y-03962314D01*
X02671928Y-03962312D02*
X02675485Y-03965869D01*
X02658782Y-03982571D02*
X02655226Y-03979017D01*
X02419952Y-03993803D02*
X02423511Y-03997357D01*
X02434743Y-03997378D02*
X02438295Y-03993816D01*
X02451449Y-03993803D02*
X02455008Y-03997358D01*
X02438302Y-04014062D02*
X02434748Y-04010504D01*
X02466239Y-03997378D02*
X02469792Y-03993815D01*
X02482945Y-03993803D02*
X02486505Y-03997359D01*
X02469800Y-04014064D02*
X02466245Y-04010505D01*
X02608936Y-03993807D02*
X02612492Y-03997363D01*
X02623724Y-03997370D02*
X02627279Y-03993811D01*
X02640434Y-03993809D02*
X02643988Y-03997365D01*
X02627287Y-04014068D02*
X02623730Y-04010512D01*
X02655221Y-03997369D02*
X02658775Y-03993811D01*
X02671931Y-03993810D02*
X02675485Y-03997366D01*
X02658783Y-04014068D02*
X02655226Y-04010513D01*
X02419952Y-04025299D02*
X02423512Y-04028854D01*
X02434742Y-04028875D02*
X02438293Y-04025314D01*
X02451450Y-04025300D02*
X02455009Y-04028855D01*
X02438304Y-04045560D02*
X02434750Y-04042002D01*
X02466239Y-04028875D02*
X02469790Y-04025313D01*
X02482948Y-04025301D02*
X02486506Y-04028857D01*
X02469801Y-04045560D02*
X02466246Y-04042003D01*
X02608937Y-04025304D02*
X02612493Y-04028862D01*
X02623723Y-04028868D02*
X02627277Y-04025308D01*
X02640435Y-04025306D02*
X02643990Y-04028863D01*
X02627287Y-04045564D02*
X02623731Y-04042010D01*
X02655220Y-04028867D02*
X02658775Y-04025308D01*
X02671931Y-04025306D02*
X02675487Y-04028864D01*
X02658785Y-04045565D02*
X02655227Y-04042011D01*
X02419955Y-04056797D02*
X02423512Y-04060351D01*
X02434741Y-04060373D02*
X02438292Y-04056810D01*
X02438305Y-04077057D02*
X02434750Y-04073500D01*
X02451452Y-04056797D02*
X02455009Y-04060352D01*
X02466238Y-04060372D02*
X02469790Y-04056809D01*
X02469802Y-04077057D02*
X02466247Y-04073500D01*
X02482948Y-04056798D02*
X02486506Y-04060353D01*
X02608938Y-04056801D02*
X02612494Y-04060359D01*
X02623723Y-04060364D02*
X02627275Y-04056806D01*
X02627289Y-04077061D02*
X02623731Y-04073507D01*
X02640435Y-04056802D02*
X02643990Y-04060359D01*
X02671932Y-04056802D02*
X02675488Y-04060361D01*
X02655219Y-04060364D02*
X02658774Y-04056804D01*
X02658787Y-04077062D02*
X02655228Y-04073507D01*
X02974701Y-03601054D02*
X02971147Y-03604614D01*
X02985938Y-03587907D02*
X02989498Y-03584353D01*
X02989473Y-03604607D02*
X02985923Y-03601045D01*
X03006197Y-03601055D02*
X03002645Y-03604612D01*
X03017435Y-03587906D02*
X03020996Y-03584352D01*
X03037695Y-03601052D02*
X03034141Y-03604612D01*
X03020970Y-03604608D02*
X03017420Y-03601047D01*
X03163682Y-03601047D02*
X03160131Y-03604608D01*
X03174920Y-03587899D02*
X03178481Y-03584349D01*
X03178457Y-03604612D02*
X03174904Y-03601052D01*
X03195179Y-03601046D02*
X03191628Y-03604608D01*
X03226676Y-03601044D02*
X03223125Y-03604607D01*
X03209955Y-03604613D02*
X03206400Y-03601053D01*
X02974700Y-03632552D02*
X02971146Y-03636110D01*
X02985937Y-03619404D02*
X02989497Y-03615850D01*
X02989474Y-03636104D02*
X02985924Y-03632543D01*
X03006197Y-03632551D02*
X03002643Y-03636110D01*
X03017434Y-03619403D02*
X03020995Y-03615849D01*
X03037694Y-03632549D02*
X03034141Y-03636108D01*
X03020972Y-03636105D02*
X03017421Y-03632544D01*
X03163681Y-03632545D02*
X03160130Y-03636105D01*
X03174919Y-03619397D02*
X03178480Y-03615846D01*
X03178459Y-03636110D02*
X03174904Y-03632550D01*
X03195178Y-03632543D02*
X03191627Y-03636105D01*
X03206416Y-03619395D02*
X03209978Y-03615844D01*
X03226675Y-03632542D02*
X03223124Y-03636104D01*
X03209956Y-03636110D02*
X03206402Y-03632551D01*
X02974699Y-03664050D02*
X02971145Y-03667607D01*
X02989476Y-03667601D02*
X02985925Y-03664040D01*
X03006197Y-03664048D02*
X03002641Y-03667607D01*
X02985936Y-03650902D02*
X02989496Y-03647346D01*
X03020973Y-03667601D02*
X03017422Y-03664042D01*
X03017434Y-03650900D02*
X03020992Y-03647347D01*
X03163680Y-03664042D02*
X03160129Y-03667602D01*
X03178460Y-03667606D02*
X03174905Y-03664047D01*
X03195177Y-03664041D02*
X03191626Y-03667601D01*
X03174918Y-03650894D02*
X03178479Y-03647343D01*
X03226674Y-03664039D02*
X03223123Y-03667600D01*
X03209957Y-03667606D02*
X03206402Y-03664049D01*
X03206415Y-03650893D02*
X03209977Y-03647341D01*
X02974699Y-03695547D02*
X02971143Y-03699104D01*
X02985936Y-03682398D02*
X02989493Y-03678845D01*
X02989477Y-03699098D02*
X02985925Y-03695537D01*
X03006195Y-03695545D02*
X03002641Y-03699103D01*
X03017433Y-03682398D02*
X03020992Y-03678843D01*
X03020975Y-03699099D02*
X03017422Y-03695538D01*
X03163680Y-03695539D02*
X03160128Y-03699099D01*
X03174918Y-03682391D02*
X03178478Y-03678839D01*
X03178461Y-03699102D02*
X03174906Y-03695544D01*
X03195176Y-03695538D02*
X03191625Y-03699098D01*
X03206414Y-03682390D02*
X03209975Y-03678839D01*
X03226674Y-03695536D02*
X03223121Y-03699099D01*
X03209958Y-03699104D02*
X03206402Y-03695545D01*
X02985935Y-03713897D02*
X02989493Y-03710341D01*
X03006195Y-03727043D02*
X03002640Y-03730600D01*
X03017432Y-03713895D02*
X03020990Y-03710340D01*
X03034122Y-03710336D02*
X03037682Y-03713889D01*
X03037692Y-03727041D02*
X03034136Y-03730600D01*
X03020976Y-03730596D02*
X03017422Y-03727035D01*
X03163679Y-03727036D02*
X03160126Y-03730596D01*
X03174917Y-03713888D02*
X03178477Y-03710336D01*
X03178462Y-03730599D02*
X03174907Y-03727042D01*
X03195176Y-03727035D02*
X03191624Y-03730595D01*
X03206414Y-03713887D02*
X03209974Y-03710335D01*
X03209959Y-03730600D02*
X03206404Y-03727043D01*
X02974697Y-03758542D02*
X02971141Y-03762098D01*
X02989479Y-03762091D02*
X02985927Y-03758532D01*
X03006193Y-03758541D02*
X03002638Y-03762097D01*
X03017431Y-03745392D02*
X03020989Y-03741837D01*
X03020977Y-03762092D02*
X03017424Y-03758533D01*
X03163678Y-03758534D02*
X03160125Y-03762093D01*
X03174916Y-03745386D02*
X03178474Y-03741834D01*
X03178464Y-03762097D02*
X03174908Y-03758539D01*
X03195176Y-03758532D02*
X03191621Y-03762093D01*
X03206413Y-03745384D02*
X03209972Y-03741832D01*
X03226672Y-03758531D02*
X03223119Y-03762092D01*
X03209960Y-03762097D02*
X03206406Y-03758541D01*
X02985933Y-03776891D02*
X02989490Y-03773334D01*
X03017430Y-03776890D02*
X03020987Y-03773334D01*
X03174915Y-03776883D02*
X03178474Y-03773330D01*
X03206412Y-03776882D02*
X03209970Y-03773330D01*
X02974695Y-03821536D02*
X02971138Y-03825092D01*
X03034126Y-03804826D02*
X03037685Y-03808381D01*
X03178466Y-03825091D02*
X03174910Y-03821534D01*
X03209963Y-03825091D02*
X03206407Y-03821536D01*
X02971133Y-03836322D02*
X02974692Y-03839875D01*
X02985933Y-03839885D02*
X02989486Y-03836329D01*
X02989483Y-03856582D02*
X02985929Y-03853024D01*
X03034127Y-03836323D02*
X03037685Y-03839878D01*
X03020981Y-03856583D02*
X03017426Y-03853025D01*
X03160116Y-03836327D02*
X03163673Y-03839884D01*
X03174913Y-03839878D02*
X03178472Y-03836323D01*
X03191614Y-03836328D02*
X03195170Y-03839884D01*
X03178467Y-03856587D02*
X03174910Y-03853031D01*
X03206411Y-03839876D02*
X03209969Y-03836323D01*
X03209965Y-03856588D02*
X03206407Y-03853032D01*
X02971133Y-03867819D02*
X02974693Y-03871373D01*
X02985931Y-03871383D02*
X02989487Y-03867825D01*
X03002631Y-03867819D02*
X03006189Y-03871374D01*
X02989485Y-03888080D02*
X02985930Y-03884521D01*
X03017428Y-03871382D02*
X03020984Y-03867824D01*
X03034129Y-03867821D02*
X03037686Y-03871375D01*
X03020982Y-03888080D02*
X03017427Y-03884522D01*
X03160118Y-03867824D02*
X03163674Y-03871380D01*
X03174913Y-03871375D02*
X03178470Y-03867820D01*
X03191615Y-03867825D02*
X03195170Y-03871381D01*
X03206410Y-03871374D02*
X03209967Y-03867820D01*
X03223113Y-03867826D02*
X03226668Y-03871383D01*
X03209966Y-03888085D02*
X03206408Y-03884530D01*
X02971135Y-03899315D02*
X02974694Y-03902871D01*
X02985931Y-03902879D02*
X02989485Y-03899322D01*
X03002633Y-03899317D02*
X03006190Y-03902872D01*
X02989486Y-03919576D02*
X02985930Y-03916018D01*
X03017428Y-03902878D02*
X03020982Y-03899321D01*
X03034130Y-03899318D02*
X03037687Y-03902873D01*
X03020983Y-03919576D02*
X03017428Y-03916020D01*
X03191617Y-03899322D02*
X03195171Y-03902879D01*
X03206409Y-03902870D02*
X03209966Y-03899317D01*
X03223114Y-03899322D02*
X03226669Y-03902881D01*
X03209968Y-03919582D02*
X03206409Y-03916027D01*
X02971136Y-03930813D02*
X02974694Y-03934367D01*
X02985930Y-03934377D02*
X02989483Y-03930820D01*
X03002633Y-03930813D02*
X03006191Y-03934369D01*
X02989486Y-03951072D02*
X02985931Y-03947515D01*
X03017426Y-03934376D02*
X03020982Y-03930818D01*
X03034131Y-03930814D02*
X03037688Y-03934371D01*
X03020984Y-03951074D02*
X03017429Y-03947517D01*
X03191618Y-03930818D02*
X03195173Y-03934377D01*
X03178472Y-03951078D02*
X03174913Y-03947524D01*
X03206408Y-03934368D02*
X03209964Y-03930814D01*
X03223115Y-03930819D02*
X03226669Y-03934378D01*
X03209969Y-03951079D02*
X03206410Y-03947525D01*
X02971139Y-03962310D02*
X02974695Y-03965865D01*
X02985928Y-03965875D02*
X02989483Y-03962316D01*
X03002635Y-03962311D02*
X03006191Y-03965865D01*
X02989488Y-03982570D02*
X02985933Y-03979013D01*
X03017425Y-03965874D02*
X03020980Y-03962315D01*
X03034132Y-03962311D02*
X03037689Y-03965868D01*
X03020986Y-03982571D02*
X03017429Y-03979014D01*
X03160122Y-03962314D02*
X03163677Y-03965873D01*
X03174910Y-03965868D02*
X03178467Y-03962311D01*
X03191619Y-03962315D02*
X03195174Y-03965874D01*
X03178473Y-03982575D02*
X03174914Y-03979020D01*
X03206407Y-03965866D02*
X03209964Y-03962310D01*
X03223116Y-03962316D02*
X03226671Y-03965876D01*
X03209970Y-03982576D02*
X03206410Y-03979022D01*
X02971139Y-03993807D02*
X02974695Y-03997361D01*
X02985927Y-03997373D02*
X02989482Y-03993812D01*
X03002636Y-03993807D02*
X03006193Y-03997364D01*
X02989490Y-04014067D02*
X02985933Y-04010510D01*
X03017424Y-03997371D02*
X03020979Y-03993812D01*
X03034134Y-03993808D02*
X03037690Y-03997366D01*
X03020987Y-04014067D02*
X03017430Y-04010512D01*
X03160122Y-03993811D02*
X03163678Y-03997370D01*
X03174909Y-03997364D02*
X03178466Y-03993807D01*
X03191620Y-03993812D02*
X03195174Y-03997372D01*
X03178474Y-04014072D02*
X03174915Y-04010519D01*
X03206406Y-03997364D02*
X03209963Y-03993807D01*
X03223117Y-03993813D02*
X03226672Y-03997374D01*
X03209972Y-04014073D02*
X03206411Y-04010519D01*
X02971140Y-04025303D02*
X02974697Y-04028860D01*
X02985928Y-04028869D02*
X02989480Y-04025310D01*
X03002638Y-04025304D02*
X03006194Y-04028862D01*
X02989491Y-04045563D02*
X02985934Y-04042008D01*
X03017424Y-04028868D02*
X03020977Y-04025309D01*
X03034135Y-04025305D02*
X03037690Y-04028862D01*
X03020988Y-04045564D02*
X03017432Y-04042010D01*
X03160124Y-04025308D02*
X03163678Y-04028868D01*
X03174908Y-04028863D02*
X03178464Y-04025304D01*
X03191621Y-04025309D02*
X03195175Y-04028869D01*
X03178474Y-04045568D02*
X03174916Y-04042016D01*
X03206405Y-04028861D02*
X03209962Y-04025303D01*
X03223119Y-04025310D02*
X03226672Y-04028870D01*
X03209973Y-04045570D02*
X03206412Y-04042017D01*
X02971142Y-04056801D02*
X02974697Y-04060356D01*
X02985926Y-04060366D02*
X02989478Y-04056807D01*
X02989493Y-04077061D02*
X02985935Y-04073505D01*
X03002639Y-04056801D02*
X03006194Y-04060358D01*
X03017424Y-04060365D02*
X03020976Y-04056806D01*
X03020990Y-04077061D02*
X03017432Y-04073507D01*
X03034136Y-04056802D02*
X03037691Y-04060359D01*
X03160125Y-04056805D02*
X03163679Y-04060365D01*
X03174908Y-04060359D02*
X03178462Y-04056802D01*
X03178476Y-04077065D02*
X03174916Y-04073513D01*
X03191623Y-04056806D02*
X03195176Y-04060367D01*
X03206405Y-04060358D02*
X03209961Y-04056800D01*
X03209973Y-04077066D02*
X03206413Y-04073514D01*
X03223120Y-04056807D02*
X03226672Y-04060367D01*
G54D96*
X04069606Y-02932948D02*
X04071154Y-02934496D01*
G54D97*
X01976520Y-04510235D02*
X01979205Y-04509477D01*
G54D98*
X01867076Y-03278552D02*
X01890798D01*
X01841485D02*
X01865208D01*
X01815895D02*
X01839617D01*
G54D99*
X04179440Y-03460454D02*
X04181264Y-03462279D01*
X04179440Y-03417499D02*
X04181264Y-03415674D01*
G54D79*
X03800886Y-03585224D02*
X03805188Y-03580922D01*
G54D94*
X02653150Y-01604136D02*
X02656167Y-01607154D01*
G54D93*
X02659166Y-01564251D02*
Y-01568953D01*
G54D100*
X02602856Y-01603876D02*
X02606427Y-01607447D01*
G54D101*
X02609189Y-01564586D02*
Y-01568619D01*
G54D94*
X02606200Y-01576015D02*
X02603113Y-01579101D01*
X02531161Y-01607236D02*
X02534334Y-01604062D01*
X02553080Y-01504073D02*
X02556230Y-01507224D01*
G54D98*
X02509163Y-01664215D02*
Y-01668989D01*
X02491226Y-01501147D02*
X02496175D01*
G54D94*
X02453107Y-01604097D02*
X02456206Y-01607197D01*
G54D100*
X02459342Y-01565854D02*
X02458872Y-01570482D01*
X02353016Y-01604016D02*
X02356287Y-01607288D01*
G54D93*
X02359168Y-01614275D02*
Y-01618930D01*
G54D102*
X02155850Y-03472631D02*
X02157670Y-03470811D01*
G54D103*
X02230363Y-04072998D02*
X02232668Y-04076592D01*
G54D95*
X03627240Y-03893923D02*
X03632123Y-03889040D01*
%LPD*%
G75*
X03632123Y-03889040D02*
G54D104*
X04591100Y-03426000D03*
Y-04161000D03*
X04746100Y-03388500D03*
Y-04198500D03*
G54D105*
X01998200Y-01441600D03*
X04139200Y-01561600D03*
G54D106*
X04430000Y-04734200D03*
G54D107*
X03532800Y-03945100D03*
X04044600D03*
G54D108*
X03452700Y-04352000D02*
X03511700D01*
X04124700D02*
X04065700D01*
G54D109*
X03433015D03*
X03531385D03*
X04144385D03*
X04046015D03*
%LPC*%
G75*
X04046015Y-04352000D02*
G54D79*
X03807173Y-03789432D02*
X03811350Y-03794805D01*
G54D86*
X01950296Y-04028220D02*
X01953012Y-04028857D01*
X01959011Y-04031668D01*
X01956106Y-04028952D02*
X01958539Y-04030251D01*
G54D110*
X03869849Y-02777702D02*
X03867538Y-02779775D01*
X03864696Y-02781026D01*
X03861606Y-02781330D01*
X03858576Y-02780656D01*
X03855905Y-02779073D01*
X03853861Y-02776737D01*
X03852645Y-02773881D01*
X03852377Y-02772195D01*
X03848122Y-02774673D02*
X03846671Y-02777418D01*
X03844438Y-02779574D01*
X03841644Y-02780928D01*
X03838567Y-02781345D01*
X03835514Y-02780783D01*
X03832787Y-02779299D01*
X03832266Y-02778868D01*
X03848045Y-02597085D02*
X03846709Y-02599888D01*
X03844566Y-02602134D01*
X03841831Y-02603602D01*
X03838774Y-02604146D01*
X03835700Y-02603711D01*
X03832915Y-02602341D01*
X03832874Y-02602312D01*
X03869217Y-02601209D02*
X03866717Y-02603050D01*
X03863769Y-02604022D01*
X03860664Y-02604027D01*
X03857712Y-02603066D01*
X03855206Y-02601233D01*
X03853396Y-02598711D01*
X03852460Y-02595751D01*
X03852357Y-02594602D01*
G54D80*
X01959646Y-04071681D02*
Y-04030681D01*
%LPD*%
G75*
X01959646Y-04030681D02*
G54D111*
X04039400Y-03192900D03*
X04114200D03*
%LPC*%
G75*
X04114200Y-03192900D02*
G54D112*
X01712600Y-01673200D03*
X01716500Y-01622000D03*
X01767700Y-03284800D03*
X01787400Y-02043300D03*
X02169300Y-03543300D03*
X02248000Y-04452800D03*
X03393700Y-03838600D03*
X03425200D03*
X03735700Y-03185000D03*
X03756700D03*
X03765000Y-03800000D03*
X03778500Y-03185000D03*
X03799200Y-02948800D03*
X03800200Y-03185000D03*
X04039400Y-03492100D03*
X04040000Y-03800000D03*
Y-03850000D03*
X04105000Y-03680000D03*
X04421300Y-03315000D03*
%LPD*%
G75*
X04421300Y-03315000D02*
G54D113*
X01200787Y-04731102D02*
X03432815D01*
X03437186Y-04730611D01*
X03441339Y-04729161D01*
X03445066Y-04726826D01*
X03448181Y-04723721D01*
X03450530Y-04720001D01*
X03451994Y-04715854D01*
X03452500Y-04711484D01*
X03452500Y-04711417D01*
Y-04322500D01*
X04125000D01*
Y-04711417D01*
X04125491Y-04715788D01*
X04126941Y-04719941D01*
X04129277Y-04723668D01*
X04132382Y-04726784D01*
X04136101Y-04729132D01*
X04140249Y-04730596D01*
X04144618Y-04731102D01*
X04144685Y-04731102D01*
X04936614D01*
X04940985Y-04730611D01*
X04945138Y-04729161D01*
X04948865Y-04726826D01*
X04951981Y-04723721D01*
X04954329Y-04720001D01*
X04955793Y-04715854D01*
X04956299Y-04711484D01*
X04956299Y-04711417D01*
Y-01200787D01*
X04955808Y-01196416D01*
X04954358Y-01192264D01*
X04952022Y-01188536D01*
X04948917Y-01185421D01*
X04945198Y-01183073D01*
X04941050Y-01181609D01*
X04936681Y-01181102D01*
X04936614Y-01181102D01*
X01200787D01*
X01196416Y-01181594D01*
X01192264Y-01183044D01*
X01188536Y-01185379D01*
X01185421Y-01188484D01*
X01183073Y-01192203D01*
X01181609Y-01196351D01*
X01181102Y-01200721D01*
X01181102Y-01200787D01*
Y-04711417D01*
X01181594Y-04715788D01*
X01183044Y-04719941D01*
X01185379Y-04723668D01*
X01188484Y-04726784D01*
X01192203Y-04729132D01*
X01196351Y-04730596D01*
X01200721Y-04731102D01*
X01200787Y-04731102D01*
M02*
