G04 #@! TF.FileFunction,Legend,Top*
%FSLAX46Y46*%
G04 Gerber Fmt 4.6, Leading zero omitted, Abs format (unit mm)*
G04 Created by KiCad (PCBNEW (2015-01-17 BZR 5377)-product) date vie 17 abr 2015 16:14:53 ART*
%MOMM*%
G01*
G04 APERTURE LIST*
%ADD10C,0.100000*%
%ADD11C,0.300000*%
%ADD12C,0.250000*%
%ADD13C,0.150000*%
%ADD14C,0.099060*%
%ADD15C,0.127000*%
%ADD16C,0.066040*%
%ADD17C,0.203200*%
%ADD18C,0.304800*%
%ADD19C,0.152400*%
%ADD20C,0.177800*%
%ADD21C,0.088900*%
%ADD22C,0.200000*%
G04 APERTURE END LIST*
D10*
D11*
X22621857Y-80458571D02*
X23479000Y-80458571D01*
X23050429Y-81958571D02*
X23050429Y-80458571D01*
X23764714Y-80458571D02*
X24621857Y-80458571D01*
X24193286Y-81958571D02*
X24193286Y-80458571D01*
X25407571Y-81244286D02*
X25407571Y-81958571D01*
X24907571Y-80458571D02*
X25407571Y-81244286D01*
X25907571Y-80458571D01*
X23121857Y-67250571D02*
X23407571Y-67250571D01*
X23550429Y-67322000D01*
X23693286Y-67464857D01*
X23764714Y-67750571D01*
X23764714Y-68250571D01*
X23693286Y-68536286D01*
X23550429Y-68679143D01*
X23407571Y-68750571D01*
X23121857Y-68750571D01*
X22979000Y-68679143D01*
X22836143Y-68536286D01*
X22764714Y-68250571D01*
X22764714Y-67750571D01*
X22836143Y-67464857D01*
X22979000Y-67322000D01*
X23121857Y-67250571D01*
X24193286Y-67250571D02*
X25050429Y-67250571D01*
X24621858Y-68750571D02*
X24621858Y-67250571D01*
X26336143Y-67322000D02*
X26193286Y-67250571D01*
X25979000Y-67250571D01*
X25764715Y-67322000D01*
X25621857Y-67464857D01*
X25550429Y-67607714D01*
X25479000Y-67893429D01*
X25479000Y-68107714D01*
X25550429Y-68393429D01*
X25621857Y-68536286D01*
X25764715Y-68679143D01*
X25979000Y-68750571D01*
X26121857Y-68750571D01*
X26336143Y-68679143D01*
X26407572Y-68607714D01*
X26407572Y-68107714D01*
X26121857Y-68107714D01*
X98274429Y-92817143D02*
X99417286Y-92817143D01*
X98845857Y-93388571D02*
X98845857Y-92245714D01*
X100845858Y-91888571D02*
X100131572Y-91888571D01*
X100060143Y-92602857D01*
X100131572Y-92531429D01*
X100274429Y-92460000D01*
X100631572Y-92460000D01*
X100774429Y-92531429D01*
X100845858Y-92602857D01*
X100917286Y-92745714D01*
X100917286Y-93102857D01*
X100845858Y-93245714D01*
X100774429Y-93317143D01*
X100631572Y-93388571D01*
X100274429Y-93388571D01*
X100131572Y-93317143D01*
X100060143Y-93245714D01*
X101345857Y-91888571D02*
X101845857Y-93388571D01*
X102345857Y-91888571D01*
X59224601Y-40683571D02*
X59224601Y-39683571D01*
X59224601Y-39826429D02*
X59296029Y-39755000D01*
X59438887Y-39683571D01*
X59653172Y-39683571D01*
X59796029Y-39755000D01*
X59867458Y-39897857D01*
X59867458Y-40683571D01*
X59867458Y-39897857D02*
X59938887Y-39755000D01*
X60081744Y-39683571D01*
X60296029Y-39683571D01*
X60438887Y-39755000D01*
X60510315Y-39897857D01*
X60510315Y-40683571D01*
X61224601Y-40683571D02*
X61224601Y-39683571D01*
X61224601Y-39183571D02*
X61153172Y-39255000D01*
X61224601Y-39326429D01*
X61296029Y-39255000D01*
X61224601Y-39183571D01*
X61224601Y-39326429D01*
X62581744Y-40612143D02*
X62438887Y-40683571D01*
X62153173Y-40683571D01*
X62010315Y-40612143D01*
X61938887Y-40540714D01*
X61867458Y-40397857D01*
X61867458Y-39969286D01*
X61938887Y-39826429D01*
X62010315Y-39755000D01*
X62153173Y-39683571D01*
X62438887Y-39683571D01*
X62581744Y-39755000D01*
X63224601Y-40683571D02*
X63224601Y-39683571D01*
X63224601Y-39969286D02*
X63296029Y-39826429D01*
X63367458Y-39755000D01*
X63510315Y-39683571D01*
X63653172Y-39683571D01*
X64367458Y-40683571D02*
X64224600Y-40612143D01*
X64153172Y-40540714D01*
X64081743Y-40397857D01*
X64081743Y-39969286D01*
X64153172Y-39826429D01*
X64224600Y-39755000D01*
X64367458Y-39683571D01*
X64581743Y-39683571D01*
X64724600Y-39755000D01*
X64796029Y-39826429D01*
X64867458Y-39969286D01*
X64867458Y-40397857D01*
X64796029Y-40540714D01*
X64724600Y-40612143D01*
X64581743Y-40683571D01*
X64367458Y-40683571D01*
X65438886Y-40612143D02*
X65653172Y-40683571D01*
X66010315Y-40683571D01*
X66153172Y-40612143D01*
X66224601Y-40540714D01*
X66296029Y-40397857D01*
X66296029Y-40255000D01*
X66224601Y-40112143D01*
X66153172Y-40040714D01*
X66010315Y-39969286D01*
X65724601Y-39897857D01*
X65581743Y-39826429D01*
X65510315Y-39755000D01*
X65438886Y-39612143D01*
X65438886Y-39469286D01*
X65510315Y-39326429D01*
X65581743Y-39255000D01*
X65724601Y-39183571D01*
X66081743Y-39183571D01*
X66296029Y-39255000D01*
X66938886Y-40683571D02*
X66938886Y-39183571D01*
X67296029Y-39183571D01*
X67510314Y-39255000D01*
X67653172Y-39397857D01*
X67724600Y-39540714D01*
X67796029Y-39826429D01*
X67796029Y-40040714D01*
X67724600Y-40326429D01*
X67653172Y-40469286D01*
X67510314Y-40612143D01*
X67296029Y-40683571D01*
X66938886Y-40683571D01*
D12*
X101076476Y-56704286D02*
X101838381Y-56704286D01*
X101457429Y-57313810D02*
X101457429Y-56094762D01*
X102790762Y-55713810D02*
X102314571Y-55713810D01*
X102266952Y-56475714D01*
X102314571Y-56399524D01*
X102409809Y-56323333D01*
X102647905Y-56323333D01*
X102743143Y-56399524D01*
X102790762Y-56475714D01*
X102838381Y-56628095D01*
X102838381Y-57009048D01*
X102790762Y-57161429D01*
X102743143Y-57237619D01*
X102647905Y-57313810D01*
X102409809Y-57313810D01*
X102314571Y-57237619D01*
X102266952Y-57161429D01*
X103124095Y-55713810D02*
X103457428Y-57313810D01*
X103790762Y-55713810D01*
X99647905Y-59194286D02*
X100409810Y-59194286D01*
X100028858Y-59803810D02*
X100028858Y-58584762D01*
X100790762Y-58203810D02*
X101409810Y-58203810D01*
X101076476Y-58813333D01*
X101219334Y-58813333D01*
X101314572Y-58889524D01*
X101362191Y-58965714D01*
X101409810Y-59118095D01*
X101409810Y-59499048D01*
X101362191Y-59651429D01*
X101314572Y-59727619D01*
X101219334Y-59803810D01*
X100933619Y-59803810D01*
X100838381Y-59727619D01*
X100790762Y-59651429D01*
X101838381Y-59651429D02*
X101886000Y-59727619D01*
X101838381Y-59803810D01*
X101790762Y-59727619D01*
X101838381Y-59651429D01*
X101838381Y-59803810D01*
X102219333Y-58203810D02*
X102838381Y-58203810D01*
X102505047Y-58813333D01*
X102647905Y-58813333D01*
X102743143Y-58889524D01*
X102790762Y-58965714D01*
X102838381Y-59118095D01*
X102838381Y-59499048D01*
X102790762Y-59651429D01*
X102743143Y-59727619D01*
X102647905Y-59803810D01*
X102362190Y-59803810D01*
X102266952Y-59727619D01*
X102219333Y-59651429D01*
X103124095Y-58203810D02*
X103457428Y-59803810D01*
X103790762Y-58203810D01*
X99647905Y-61684286D02*
X100409810Y-61684286D01*
X100028858Y-62293810D02*
X100028858Y-61074762D01*
X101409810Y-62293810D02*
X100838381Y-62293810D01*
X101124095Y-62293810D02*
X101124095Y-60693810D01*
X101028857Y-60922381D01*
X100933619Y-61074762D01*
X100838381Y-61150952D01*
X101838381Y-62141429D02*
X101886000Y-62217619D01*
X101838381Y-62293810D01*
X101790762Y-62217619D01*
X101838381Y-62141429D01*
X101838381Y-62293810D01*
X102457428Y-61379524D02*
X102362190Y-61303333D01*
X102314571Y-61227143D01*
X102266952Y-61074762D01*
X102266952Y-60998571D01*
X102314571Y-60846190D01*
X102362190Y-60770000D01*
X102457428Y-60693810D01*
X102647905Y-60693810D01*
X102743143Y-60770000D01*
X102790762Y-60846190D01*
X102838381Y-60998571D01*
X102838381Y-61074762D01*
X102790762Y-61227143D01*
X102743143Y-61303333D01*
X102647905Y-61379524D01*
X102457428Y-61379524D01*
X102362190Y-61455714D01*
X102314571Y-61531905D01*
X102266952Y-61684286D01*
X102266952Y-61989048D01*
X102314571Y-62141429D01*
X102362190Y-62217619D01*
X102457428Y-62293810D01*
X102647905Y-62293810D01*
X102743143Y-62217619D01*
X102790762Y-62141429D01*
X102838381Y-61989048D01*
X102838381Y-61684286D01*
X102790762Y-61531905D01*
X102743143Y-61455714D01*
X102647905Y-61379524D01*
X103124095Y-60693810D02*
X103457428Y-62293810D01*
X103790762Y-60693810D01*
X101600286Y-63260000D02*
X101505048Y-63183810D01*
X101362191Y-63183810D01*
X101219333Y-63260000D01*
X101124095Y-63412381D01*
X101076476Y-63564762D01*
X101028857Y-63869524D01*
X101028857Y-64098095D01*
X101076476Y-64402857D01*
X101124095Y-64555238D01*
X101219333Y-64707619D01*
X101362191Y-64783810D01*
X101457429Y-64783810D01*
X101600286Y-64707619D01*
X101647905Y-64631429D01*
X101647905Y-64098095D01*
X101457429Y-64098095D01*
X102076476Y-64783810D02*
X102076476Y-63183810D01*
X102647905Y-64783810D01*
X102647905Y-63183810D01*
X103124095Y-64783810D02*
X103124095Y-63183810D01*
X103362190Y-63183810D01*
X103505048Y-63260000D01*
X103600286Y-63412381D01*
X103647905Y-63564762D01*
X103695524Y-63869524D01*
X103695524Y-64098095D01*
X103647905Y-64402857D01*
X103600286Y-64555238D01*
X103505048Y-64707619D01*
X103362190Y-64783810D01*
X103124095Y-64783810D01*
D11*
X54004286Y-95720857D02*
X54504286Y-95720857D01*
X54718572Y-96506571D02*
X54004286Y-96506571D01*
X54004286Y-95006571D01*
X54718572Y-95006571D01*
X55361429Y-96506571D02*
X55361429Y-95006571D01*
X55718572Y-95006571D01*
X55932857Y-95078000D01*
X56075715Y-95220857D01*
X56147143Y-95363714D01*
X56218572Y-95649429D01*
X56218572Y-95863714D01*
X56147143Y-96149429D01*
X56075715Y-96292286D01*
X55932857Y-96435143D01*
X55718572Y-96506571D01*
X55361429Y-96506571D01*
X56861429Y-95006571D02*
X56861429Y-96220857D01*
X56932857Y-96363714D01*
X57004286Y-96435143D01*
X57147143Y-96506571D01*
X57432857Y-96506571D01*
X57575715Y-96435143D01*
X57647143Y-96363714D01*
X57718572Y-96220857D01*
X57718572Y-95006571D01*
X58432858Y-95935143D02*
X59575715Y-95935143D01*
X61147144Y-96363714D02*
X61075715Y-96435143D01*
X60861429Y-96506571D01*
X60718572Y-96506571D01*
X60504287Y-96435143D01*
X60361429Y-96292286D01*
X60290001Y-96149429D01*
X60218572Y-95863714D01*
X60218572Y-95649429D01*
X60290001Y-95363714D01*
X60361429Y-95220857D01*
X60504287Y-95078000D01*
X60718572Y-95006571D01*
X60861429Y-95006571D01*
X61075715Y-95078000D01*
X61147144Y-95149429D01*
X61790001Y-96506571D02*
X61790001Y-95006571D01*
X62432858Y-96078000D02*
X63147144Y-96078000D01*
X62290001Y-96506571D02*
X62790001Y-95006571D01*
X63290001Y-96506571D01*
X63718572Y-96078000D02*
X64432858Y-96078000D01*
X63575715Y-96506571D02*
X64075715Y-95006571D01*
X64575715Y-96506571D01*
X65075715Y-95935143D02*
X66218572Y-95935143D01*
X66932858Y-96506571D02*
X66932858Y-95006571D01*
X67647144Y-96506571D02*
X67647144Y-95006571D01*
X68504287Y-96506571D01*
X68504287Y-95006571D01*
X69004287Y-95006571D02*
X69861430Y-95006571D01*
X69432859Y-96506571D02*
X69432859Y-95006571D01*
X70361430Y-95720857D02*
X70861430Y-95720857D01*
X71075716Y-96506571D02*
X70361430Y-96506571D01*
X70361430Y-95006571D01*
X71075716Y-95006571D01*
X72432859Y-96506571D02*
X71718573Y-96506571D01*
X71718573Y-95006571D01*
X73932859Y-95506571D02*
X74290002Y-96506571D01*
X74647144Y-95506571D01*
X76004287Y-96506571D02*
X75147144Y-96506571D01*
X75575716Y-96506571D02*
X75575716Y-95006571D01*
X75432859Y-95220857D01*
X75290001Y-95363714D01*
X75147144Y-95435143D01*
X76647144Y-96363714D02*
X76718572Y-96435143D01*
X76647144Y-96506571D01*
X76575715Y-96435143D01*
X76647144Y-96363714D01*
X76647144Y-96506571D01*
X78147144Y-96506571D02*
X77290001Y-96506571D01*
X77718573Y-96506571D02*
X77718573Y-95006571D01*
X77575716Y-95220857D01*
X77432858Y-95363714D01*
X77290001Y-95435143D01*
X60754287Y-98478000D02*
X61468573Y-98478000D01*
X60611430Y-98906571D02*
X61111430Y-97406571D01*
X61611430Y-98906571D01*
X62111430Y-97906571D02*
X62111430Y-99406571D01*
X62111430Y-97978000D02*
X62254287Y-97906571D01*
X62540001Y-97906571D01*
X62682858Y-97978000D01*
X62754287Y-98049429D01*
X62825716Y-98192286D01*
X62825716Y-98620857D01*
X62754287Y-98763714D01*
X62682858Y-98835143D01*
X62540001Y-98906571D01*
X62254287Y-98906571D01*
X62111430Y-98835143D01*
X63468573Y-98906571D02*
X63468573Y-97906571D01*
X63468573Y-98192286D02*
X63540001Y-98049429D01*
X63611430Y-97978000D01*
X63754287Y-97906571D01*
X63897144Y-97906571D01*
X64397144Y-98763714D02*
X64468572Y-98835143D01*
X64397144Y-98906571D01*
X64325715Y-98835143D01*
X64397144Y-98763714D01*
X64397144Y-98906571D01*
X66182858Y-97549429D02*
X66254287Y-97478000D01*
X66397144Y-97406571D01*
X66754287Y-97406571D01*
X66897144Y-97478000D01*
X66968573Y-97549429D01*
X67040001Y-97692286D01*
X67040001Y-97835143D01*
X66968573Y-98049429D01*
X66111430Y-98906571D01*
X67040001Y-98906571D01*
X67968572Y-97406571D02*
X68111429Y-97406571D01*
X68254286Y-97478000D01*
X68325715Y-97549429D01*
X68397144Y-97692286D01*
X68468572Y-97978000D01*
X68468572Y-98335143D01*
X68397144Y-98620857D01*
X68325715Y-98763714D01*
X68254286Y-98835143D01*
X68111429Y-98906571D01*
X67968572Y-98906571D01*
X67825715Y-98835143D01*
X67754286Y-98763714D01*
X67682858Y-98620857D01*
X67611429Y-98335143D01*
X67611429Y-97978000D01*
X67682858Y-97692286D01*
X67754286Y-97549429D01*
X67825715Y-97478000D01*
X67968572Y-97406571D01*
X69897143Y-98906571D02*
X69040000Y-98906571D01*
X69468572Y-98906571D02*
X69468572Y-97406571D01*
X69325715Y-97620857D01*
X69182857Y-97763714D01*
X69040000Y-97835143D01*
X71254286Y-97406571D02*
X70540000Y-97406571D01*
X70468571Y-98120857D01*
X70540000Y-98049429D01*
X70682857Y-97978000D01*
X71040000Y-97978000D01*
X71182857Y-98049429D01*
X71254286Y-98120857D01*
X71325714Y-98263714D01*
X71325714Y-98620857D01*
X71254286Y-98763714D01*
X71182857Y-98835143D01*
X71040000Y-98906571D01*
X70682857Y-98906571D01*
X70540000Y-98835143D01*
X70468571Y-98763714D01*
X36830000Y-29972000D02*
X39370000Y-29972000D01*
X36830000Y-32512000D02*
X39370000Y-32512000D01*
X36830000Y-37592000D02*
X39370000Y-37592000D01*
X36830000Y-35052000D02*
X39370000Y-35052000D01*
X36830000Y-45212000D02*
X39370000Y-45212000D01*
X36830000Y-47752000D02*
X39370000Y-47752000D01*
X36830000Y-42672000D02*
X39370000Y-42672000D01*
X36830000Y-40132000D02*
X39370000Y-40132000D01*
X36830000Y-50292000D02*
X39370000Y-50292000D01*
X36830000Y-52832000D02*
X39370000Y-52832000D01*
X36830000Y-55372000D02*
X39370000Y-55372000D01*
X38100000Y-31242000D02*
G75*
G03X38100000Y-31242000I-635000J0D01*
G01*
X36830000Y-55372000D02*
X36830000Y-29972000D01*
X39370000Y-29972000D02*
X39370000Y-55372000D01*
X39370000Y-55372000D02*
X38100000Y-55372000D01*
X38100000Y-55372000D02*
X38100000Y-29972000D01*
X95504000Y-51308000D02*
X95504000Y-25908000D01*
X96774000Y-51308000D02*
X95504000Y-51308000D01*
X96774000Y-25908000D02*
X96774000Y-51308000D01*
X94234000Y-51308000D02*
X94234000Y-25908000D01*
X94396858Y-25316571D02*
X94396858Y-23816571D01*
X94968286Y-23816571D01*
X95111144Y-23888000D01*
X95182572Y-23959429D01*
X95254001Y-24102286D01*
X95254001Y-24316571D01*
X95182572Y-24459429D01*
X95111144Y-24530857D01*
X94968286Y-24602286D01*
X94396858Y-24602286D01*
X95825429Y-23959429D02*
X95896858Y-23888000D01*
X96039715Y-23816571D01*
X96396858Y-23816571D01*
X96539715Y-23888000D01*
X96611144Y-23959429D01*
X96682572Y-24102286D01*
X96682572Y-24245143D01*
X96611144Y-24459429D01*
X95754001Y-25316571D01*
X96682572Y-25316571D01*
X95504000Y-27178000D02*
G75*
G03X95504000Y-27178000I-635000J0D01*
G01*
X94234000Y-51308000D02*
X96774000Y-51308000D01*
X94234000Y-48768000D02*
X96774000Y-48768000D01*
X94234000Y-46228000D02*
X96774000Y-46228000D01*
X94234000Y-36068000D02*
X96774000Y-36068000D01*
X94234000Y-38608000D02*
X96774000Y-38608000D01*
X94234000Y-43688000D02*
X96774000Y-43688000D01*
X94234000Y-41148000D02*
X96774000Y-41148000D01*
X94234000Y-30988000D02*
X96774000Y-30988000D01*
X94234000Y-33528000D02*
X96774000Y-33528000D01*
X94234000Y-28448000D02*
X96774000Y-28448000D01*
X94234000Y-25908000D02*
X96774000Y-25908000D01*
D12*
X97647095Y-26526810D02*
X97647095Y-27822048D01*
X97694714Y-27974429D01*
X97742333Y-28050619D01*
X97837571Y-28126810D01*
X98028048Y-28126810D01*
X98123286Y-28050619D01*
X98170905Y-27974429D01*
X98218524Y-27822048D01*
X98218524Y-26526810D01*
X98647095Y-27669667D02*
X99123286Y-27669667D01*
X98551857Y-28126810D02*
X98885190Y-26526810D01*
X99218524Y-28126810D01*
X100123286Y-28126810D02*
X99789952Y-27364905D01*
X99551857Y-28126810D02*
X99551857Y-26526810D01*
X99932810Y-26526810D01*
X100028048Y-26603000D01*
X100075667Y-26679190D01*
X100123286Y-26831571D01*
X100123286Y-27060143D01*
X100075667Y-27212524D01*
X100028048Y-27288714D01*
X99932810Y-27364905D01*
X99551857Y-27364905D01*
X100409000Y-26526810D02*
X100980429Y-26526810D01*
X100694714Y-28126810D02*
X100694714Y-26526810D01*
X101075667Y-28279190D02*
X101837572Y-28279190D01*
X102647096Y-27974429D02*
X102599477Y-28050619D01*
X102456620Y-28126810D01*
X102361382Y-28126810D01*
X102218524Y-28050619D01*
X102123286Y-27898238D01*
X102075667Y-27745857D01*
X102028048Y-27441095D01*
X102028048Y-27212524D01*
X102075667Y-26907762D01*
X102123286Y-26755381D01*
X102218524Y-26603000D01*
X102361382Y-26526810D01*
X102456620Y-26526810D01*
X102599477Y-26603000D01*
X102647096Y-26679190D01*
X102932810Y-26526810D02*
X103504239Y-26526810D01*
X103218524Y-28126810D02*
X103218524Y-26526810D01*
X103789953Y-28050619D02*
X103932810Y-28126810D01*
X104170906Y-28126810D01*
X104266144Y-28050619D01*
X104313763Y-27974429D01*
X104361382Y-27822048D01*
X104361382Y-27669667D01*
X104313763Y-27517286D01*
X104266144Y-27441095D01*
X104170906Y-27364905D01*
X103980429Y-27288714D01*
X103885191Y-27212524D01*
X103837572Y-27136333D01*
X103789953Y-26983952D01*
X103789953Y-26831571D01*
X103837572Y-26679190D01*
X103885191Y-26603000D01*
X103980429Y-26526810D01*
X104218525Y-26526810D01*
X104361382Y-26603000D01*
X97647095Y-29016810D02*
X97647095Y-30312048D01*
X97694714Y-30464429D01*
X97742333Y-30540619D01*
X97837571Y-30616810D01*
X98028048Y-30616810D01*
X98123286Y-30540619D01*
X98170905Y-30464429D01*
X98218524Y-30312048D01*
X98218524Y-29016810D01*
X98647095Y-30159667D02*
X99123286Y-30159667D01*
X98551857Y-30616810D02*
X98885190Y-29016810D01*
X99218524Y-30616810D01*
X100123286Y-30616810D02*
X99789952Y-29854905D01*
X99551857Y-30616810D02*
X99551857Y-29016810D01*
X99932810Y-29016810D01*
X100028048Y-29093000D01*
X100075667Y-29169190D01*
X100123286Y-29321571D01*
X100123286Y-29550143D01*
X100075667Y-29702524D01*
X100028048Y-29778714D01*
X99932810Y-29854905D01*
X99551857Y-29854905D01*
X100409000Y-29016810D02*
X100980429Y-29016810D01*
X100694714Y-30616810D02*
X100694714Y-29016810D01*
X101075667Y-30769190D02*
X101837572Y-30769190D01*
X102647096Y-30616810D02*
X102313762Y-29854905D01*
X102075667Y-30616810D02*
X102075667Y-29016810D01*
X102456620Y-29016810D01*
X102551858Y-29093000D01*
X102599477Y-29169190D01*
X102647096Y-29321571D01*
X102647096Y-29550143D01*
X102599477Y-29702524D01*
X102551858Y-29778714D01*
X102456620Y-29854905D01*
X102075667Y-29854905D01*
X102980429Y-29016810D02*
X103647096Y-30616810D01*
X103647096Y-29016810D02*
X102980429Y-30616810D01*
X97599476Y-33030619D02*
X97742333Y-33106810D01*
X97980429Y-33106810D01*
X98075667Y-33030619D01*
X98123286Y-32954429D01*
X98170905Y-32802048D01*
X98170905Y-32649667D01*
X98123286Y-32497286D01*
X98075667Y-32421095D01*
X97980429Y-32344905D01*
X97789952Y-32268714D01*
X97694714Y-32192524D01*
X97647095Y-32116333D01*
X97599476Y-31963952D01*
X97599476Y-31811571D01*
X97647095Y-31659190D01*
X97694714Y-31583000D01*
X97789952Y-31506810D01*
X98028048Y-31506810D01*
X98170905Y-31583000D01*
X98599476Y-33106810D02*
X98599476Y-31506810D01*
X98980429Y-31506810D01*
X99075667Y-31583000D01*
X99123286Y-31659190D01*
X99170905Y-31811571D01*
X99170905Y-32040143D01*
X99123286Y-32192524D01*
X99075667Y-32268714D01*
X98980429Y-32344905D01*
X98599476Y-32344905D01*
X99599476Y-33106810D02*
X99599476Y-31506810D01*
X99837571Y-33259190D02*
X100599476Y-33259190D01*
X100837571Y-33106810D02*
X100837571Y-31506810D01*
X101170905Y-32649667D01*
X101504238Y-31506810D01*
X101504238Y-33106810D01*
X102170904Y-31506810D02*
X102361381Y-31506810D01*
X102456619Y-31583000D01*
X102551857Y-31735381D01*
X102599476Y-32040143D01*
X102599476Y-32573476D01*
X102551857Y-32878238D01*
X102456619Y-33030619D01*
X102361381Y-33106810D01*
X102170904Y-33106810D01*
X102075666Y-33030619D01*
X101980428Y-32878238D01*
X101932809Y-32573476D01*
X101932809Y-32040143D01*
X101980428Y-31735381D01*
X102075666Y-31583000D01*
X102170904Y-31506810D01*
X102980428Y-33030619D02*
X103123285Y-33106810D01*
X103361381Y-33106810D01*
X103456619Y-33030619D01*
X103504238Y-32954429D01*
X103551857Y-32802048D01*
X103551857Y-32649667D01*
X103504238Y-32497286D01*
X103456619Y-32421095D01*
X103361381Y-32344905D01*
X103170904Y-32268714D01*
X103075666Y-32192524D01*
X103028047Y-32116333D01*
X102980428Y-31963952D01*
X102980428Y-31811571D01*
X103028047Y-31659190D01*
X103075666Y-31583000D01*
X103170904Y-31506810D01*
X103409000Y-31506810D01*
X103551857Y-31583000D01*
X103980428Y-33106810D02*
X103980428Y-31506810D01*
X97599476Y-35520619D02*
X97742333Y-35596810D01*
X97980429Y-35596810D01*
X98075667Y-35520619D01*
X98123286Y-35444429D01*
X98170905Y-35292048D01*
X98170905Y-35139667D01*
X98123286Y-34987286D01*
X98075667Y-34911095D01*
X97980429Y-34834905D01*
X97789952Y-34758714D01*
X97694714Y-34682524D01*
X97647095Y-34606333D01*
X97599476Y-34453952D01*
X97599476Y-34301571D01*
X97647095Y-34149190D01*
X97694714Y-34073000D01*
X97789952Y-33996810D01*
X98028048Y-33996810D01*
X98170905Y-34073000D01*
X98599476Y-35596810D02*
X98599476Y-33996810D01*
X98980429Y-33996810D01*
X99075667Y-34073000D01*
X99123286Y-34149190D01*
X99170905Y-34301571D01*
X99170905Y-34530143D01*
X99123286Y-34682524D01*
X99075667Y-34758714D01*
X98980429Y-34834905D01*
X98599476Y-34834905D01*
X99599476Y-35596810D02*
X99599476Y-33996810D01*
X99837571Y-35749190D02*
X100599476Y-35749190D01*
X101409000Y-35444429D02*
X101361381Y-35520619D01*
X101218524Y-35596810D01*
X101123286Y-35596810D01*
X100980428Y-35520619D01*
X100885190Y-35368238D01*
X100837571Y-35215857D01*
X100789952Y-34911095D01*
X100789952Y-34682524D01*
X100837571Y-34377762D01*
X100885190Y-34225381D01*
X100980428Y-34073000D01*
X101123286Y-33996810D01*
X101218524Y-33996810D01*
X101361381Y-34073000D01*
X101409000Y-34149190D01*
X101789952Y-35520619D02*
X101932809Y-35596810D01*
X102170905Y-35596810D01*
X102266143Y-35520619D01*
X102313762Y-35444429D01*
X102361381Y-35292048D01*
X102361381Y-35139667D01*
X102313762Y-34987286D01*
X102266143Y-34911095D01*
X102170905Y-34834905D01*
X101980428Y-34758714D01*
X101885190Y-34682524D01*
X101837571Y-34606333D01*
X101789952Y-34453952D01*
X101789952Y-34301571D01*
X101837571Y-34149190D01*
X101885190Y-34073000D01*
X101980428Y-33996810D01*
X102218524Y-33996810D01*
X102361381Y-34073000D01*
X102980428Y-33996810D02*
X103075667Y-33996810D01*
X103170905Y-34073000D01*
X103218524Y-34149190D01*
X103266143Y-34301571D01*
X103313762Y-34606333D01*
X103313762Y-34987286D01*
X103266143Y-35292048D01*
X103218524Y-35444429D01*
X103170905Y-35520619D01*
X103075667Y-35596810D01*
X102980428Y-35596810D01*
X102885190Y-35520619D01*
X102837571Y-35444429D01*
X102789952Y-35292048D01*
X102742333Y-34987286D01*
X102742333Y-34606333D01*
X102789952Y-34301571D01*
X102837571Y-34149190D01*
X102885190Y-34073000D01*
X102980428Y-33996810D01*
X97647095Y-38086810D02*
X97647095Y-36486810D01*
X98075666Y-36639190D02*
X98123285Y-36563000D01*
X98218523Y-36486810D01*
X98456619Y-36486810D01*
X98551857Y-36563000D01*
X98599476Y-36639190D01*
X98647095Y-36791571D01*
X98647095Y-36943952D01*
X98599476Y-37172524D01*
X98028047Y-38086810D01*
X98647095Y-38086810D01*
X99647095Y-37934429D02*
X99599476Y-38010619D01*
X99456619Y-38086810D01*
X99361381Y-38086810D01*
X99218523Y-38010619D01*
X99123285Y-37858238D01*
X99075666Y-37705857D01*
X99028047Y-37401095D01*
X99028047Y-37172524D01*
X99075666Y-36867762D01*
X99123285Y-36715381D01*
X99218523Y-36563000D01*
X99361381Y-36486810D01*
X99456619Y-36486810D01*
X99599476Y-36563000D01*
X99647095Y-36639190D01*
X100028047Y-36639190D02*
X100075666Y-36563000D01*
X100170904Y-36486810D01*
X100409000Y-36486810D01*
X100504238Y-36563000D01*
X100551857Y-36639190D01*
X100599476Y-36791571D01*
X100599476Y-36943952D01*
X100551857Y-37172524D01*
X99980428Y-38086810D01*
X100599476Y-38086810D01*
X100789952Y-38239190D02*
X101551857Y-38239190D01*
X101742333Y-38010619D02*
X101885190Y-38086810D01*
X102123286Y-38086810D01*
X102218524Y-38010619D01*
X102266143Y-37934429D01*
X102313762Y-37782048D01*
X102313762Y-37629667D01*
X102266143Y-37477286D01*
X102218524Y-37401095D01*
X102123286Y-37324905D01*
X101932809Y-37248714D01*
X101837571Y-37172524D01*
X101789952Y-37096333D01*
X101742333Y-36943952D01*
X101742333Y-36791571D01*
X101789952Y-36639190D01*
X101837571Y-36563000D01*
X101932809Y-36486810D01*
X102170905Y-36486810D01*
X102313762Y-36563000D01*
X103313762Y-37934429D02*
X103266143Y-38010619D01*
X103123286Y-38086810D01*
X103028048Y-38086810D01*
X102885190Y-38010619D01*
X102789952Y-37858238D01*
X102742333Y-37705857D01*
X102694714Y-37401095D01*
X102694714Y-37172524D01*
X102742333Y-36867762D01*
X102789952Y-36715381D01*
X102885190Y-36563000D01*
X103028048Y-36486810D01*
X103123286Y-36486810D01*
X103266143Y-36563000D01*
X103313762Y-36639190D01*
X104218524Y-38086810D02*
X103742333Y-38086810D01*
X103742333Y-36486810D01*
X97647095Y-40576810D02*
X97647095Y-38976810D01*
X98075666Y-39129190D02*
X98123285Y-39053000D01*
X98218523Y-38976810D01*
X98456619Y-38976810D01*
X98551857Y-39053000D01*
X98599476Y-39129190D01*
X98647095Y-39281571D01*
X98647095Y-39433952D01*
X98599476Y-39662524D01*
X98028047Y-40576810D01*
X98647095Y-40576810D01*
X99647095Y-40424429D02*
X99599476Y-40500619D01*
X99456619Y-40576810D01*
X99361381Y-40576810D01*
X99218523Y-40500619D01*
X99123285Y-40348238D01*
X99075666Y-40195857D01*
X99028047Y-39891095D01*
X99028047Y-39662524D01*
X99075666Y-39357762D01*
X99123285Y-39205381D01*
X99218523Y-39053000D01*
X99361381Y-38976810D01*
X99456619Y-38976810D01*
X99599476Y-39053000D01*
X99647095Y-39129190D01*
X100599476Y-40576810D02*
X100028047Y-40576810D01*
X100313761Y-40576810D02*
X100313761Y-38976810D01*
X100218523Y-39205381D01*
X100123285Y-39357762D01*
X100028047Y-39433952D01*
X100789952Y-40729190D02*
X101551857Y-40729190D01*
X101742333Y-40500619D02*
X101885190Y-40576810D01*
X102123286Y-40576810D01*
X102218524Y-40500619D01*
X102266143Y-40424429D01*
X102313762Y-40272048D01*
X102313762Y-40119667D01*
X102266143Y-39967286D01*
X102218524Y-39891095D01*
X102123286Y-39814905D01*
X101932809Y-39738714D01*
X101837571Y-39662524D01*
X101789952Y-39586333D01*
X101742333Y-39433952D01*
X101742333Y-39281571D01*
X101789952Y-39129190D01*
X101837571Y-39053000D01*
X101932809Y-38976810D01*
X102170905Y-38976810D01*
X102313762Y-39053000D01*
X103313762Y-40424429D02*
X103266143Y-40500619D01*
X103123286Y-40576810D01*
X103028048Y-40576810D01*
X102885190Y-40500619D01*
X102789952Y-40348238D01*
X102742333Y-40195857D01*
X102694714Y-39891095D01*
X102694714Y-39662524D01*
X102742333Y-39357762D01*
X102789952Y-39205381D01*
X102885190Y-39053000D01*
X103028048Y-38976810D01*
X103123286Y-38976810D01*
X103266143Y-39053000D01*
X103313762Y-39129190D01*
X104218524Y-40576810D02*
X103742333Y-40576810D01*
X103742333Y-38976810D01*
X98170905Y-41543000D02*
X98075667Y-41466810D01*
X97932810Y-41466810D01*
X97789952Y-41543000D01*
X97694714Y-41695381D01*
X97647095Y-41847762D01*
X97599476Y-42152524D01*
X97599476Y-42381095D01*
X97647095Y-42685857D01*
X97694714Y-42838238D01*
X97789952Y-42990619D01*
X97932810Y-43066810D01*
X98028048Y-43066810D01*
X98170905Y-42990619D01*
X98218524Y-42914429D01*
X98218524Y-42381095D01*
X98028048Y-42381095D01*
X98647095Y-43066810D02*
X98647095Y-41466810D01*
X99028048Y-41466810D01*
X99123286Y-41543000D01*
X99170905Y-41619190D01*
X99218524Y-41771571D01*
X99218524Y-42000143D01*
X99170905Y-42152524D01*
X99123286Y-42228714D01*
X99028048Y-42304905D01*
X98647095Y-42304905D01*
X99647095Y-43066810D02*
X99647095Y-41466810D01*
X100313761Y-41466810D02*
X100504238Y-41466810D01*
X100599476Y-41543000D01*
X100694714Y-41695381D01*
X100742333Y-42000143D01*
X100742333Y-42533476D01*
X100694714Y-42838238D01*
X100599476Y-42990619D01*
X100504238Y-43066810D01*
X100313761Y-43066810D01*
X100218523Y-42990619D01*
X100123285Y-42838238D01*
X100075666Y-42533476D01*
X100075666Y-42000143D01*
X100123285Y-41695381D01*
X100218523Y-41543000D01*
X100313761Y-41466810D01*
X101694714Y-43066810D02*
X101123285Y-43066810D01*
X101408999Y-43066810D02*
X101408999Y-41466810D01*
X101313761Y-41695381D01*
X101218523Y-41847762D01*
X101123285Y-41923952D01*
X102266142Y-42152524D02*
X102170904Y-42076333D01*
X102123285Y-42000143D01*
X102075666Y-41847762D01*
X102075666Y-41771571D01*
X102123285Y-41619190D01*
X102170904Y-41543000D01*
X102266142Y-41466810D01*
X102456619Y-41466810D01*
X102551857Y-41543000D01*
X102599476Y-41619190D01*
X102647095Y-41771571D01*
X102647095Y-41847762D01*
X102599476Y-42000143D01*
X102551857Y-42076333D01*
X102456619Y-42152524D01*
X102266142Y-42152524D01*
X102170904Y-42228714D01*
X102123285Y-42304905D01*
X102075666Y-42457286D01*
X102075666Y-42762048D01*
X102123285Y-42914429D01*
X102170904Y-42990619D01*
X102266142Y-43066810D01*
X102456619Y-43066810D01*
X102551857Y-42990619D01*
X102599476Y-42914429D01*
X102647095Y-42762048D01*
X102647095Y-42457286D01*
X102599476Y-42304905D01*
X102551857Y-42228714D01*
X102456619Y-42152524D01*
X102980428Y-41466810D02*
X103599476Y-41466810D01*
X103266142Y-42076333D01*
X103409000Y-42076333D01*
X103504238Y-42152524D01*
X103551857Y-42228714D01*
X103599476Y-42381095D01*
X103599476Y-42762048D01*
X103551857Y-42914429D01*
X103504238Y-42990619D01*
X103409000Y-43066810D01*
X103123285Y-43066810D01*
X103028047Y-42990619D01*
X102980428Y-42914429D01*
X98170905Y-44033000D02*
X98075667Y-43956810D01*
X97932810Y-43956810D01*
X97789952Y-44033000D01*
X97694714Y-44185381D01*
X97647095Y-44337762D01*
X97599476Y-44642524D01*
X97599476Y-44871095D01*
X97647095Y-45175857D01*
X97694714Y-45328238D01*
X97789952Y-45480619D01*
X97932810Y-45556810D01*
X98028048Y-45556810D01*
X98170905Y-45480619D01*
X98218524Y-45404429D01*
X98218524Y-44871095D01*
X98028048Y-44871095D01*
X98647095Y-45556810D02*
X98647095Y-43956810D01*
X99028048Y-43956810D01*
X99123286Y-44033000D01*
X99170905Y-44109190D01*
X99218524Y-44261571D01*
X99218524Y-44490143D01*
X99170905Y-44642524D01*
X99123286Y-44718714D01*
X99028048Y-44794905D01*
X98647095Y-44794905D01*
X99647095Y-45556810D02*
X99647095Y-43956810D01*
X100313761Y-43956810D02*
X100504238Y-43956810D01*
X100599476Y-44033000D01*
X100694714Y-44185381D01*
X100742333Y-44490143D01*
X100742333Y-45023476D01*
X100694714Y-45328238D01*
X100599476Y-45480619D01*
X100504238Y-45556810D01*
X100313761Y-45556810D01*
X100218523Y-45480619D01*
X100123285Y-45328238D01*
X100075666Y-45023476D01*
X100075666Y-44490143D01*
X100123285Y-44185381D01*
X100218523Y-44033000D01*
X100313761Y-43956810D01*
X101694714Y-45556810D02*
X101123285Y-45556810D01*
X101408999Y-45556810D02*
X101408999Y-43956810D01*
X101313761Y-44185381D01*
X101218523Y-44337762D01*
X101123285Y-44413952D01*
X102075666Y-44109190D02*
X102123285Y-44033000D01*
X102218523Y-43956810D01*
X102456619Y-43956810D01*
X102551857Y-44033000D01*
X102599476Y-44109190D01*
X102647095Y-44261571D01*
X102647095Y-44413952D01*
X102599476Y-44642524D01*
X102028047Y-45556810D01*
X102647095Y-45556810D01*
X98170905Y-46523000D02*
X98075667Y-46446810D01*
X97932810Y-46446810D01*
X97789952Y-46523000D01*
X97694714Y-46675381D01*
X97647095Y-46827762D01*
X97599476Y-47132524D01*
X97599476Y-47361095D01*
X97647095Y-47665857D01*
X97694714Y-47818238D01*
X97789952Y-47970619D01*
X97932810Y-48046810D01*
X98028048Y-48046810D01*
X98170905Y-47970619D01*
X98218524Y-47894429D01*
X98218524Y-47361095D01*
X98028048Y-47361095D01*
X98647095Y-48046810D02*
X98647095Y-46446810D01*
X99028048Y-46446810D01*
X99123286Y-46523000D01*
X99170905Y-46599190D01*
X99218524Y-46751571D01*
X99218524Y-46980143D01*
X99170905Y-47132524D01*
X99123286Y-47208714D01*
X99028048Y-47284905D01*
X98647095Y-47284905D01*
X99647095Y-48046810D02*
X99647095Y-46446810D01*
X100313761Y-46446810D02*
X100504238Y-46446810D01*
X100599476Y-46523000D01*
X100694714Y-46675381D01*
X100742333Y-46980143D01*
X100742333Y-47513476D01*
X100694714Y-47818238D01*
X100599476Y-47970619D01*
X100504238Y-48046810D01*
X100313761Y-48046810D01*
X100218523Y-47970619D01*
X100123285Y-47818238D01*
X100075666Y-47513476D01*
X100075666Y-46980143D01*
X100123285Y-46675381D01*
X100218523Y-46523000D01*
X100313761Y-46446810D01*
X101694714Y-48046810D02*
X101123285Y-48046810D01*
X101408999Y-48046810D02*
X101408999Y-46446810D01*
X101313761Y-46675381D01*
X101218523Y-46827762D01*
X101123285Y-46903952D01*
X102028047Y-46446810D02*
X102647095Y-46446810D01*
X102313761Y-47056333D01*
X102456619Y-47056333D01*
X102551857Y-47132524D01*
X102599476Y-47208714D01*
X102647095Y-47361095D01*
X102647095Y-47742048D01*
X102599476Y-47894429D01*
X102551857Y-47970619D01*
X102456619Y-48046810D01*
X102170904Y-48046810D01*
X102075666Y-47970619D01*
X102028047Y-47894429D01*
X103551857Y-46446810D02*
X103075666Y-46446810D01*
X103028047Y-47208714D01*
X103075666Y-47132524D01*
X103170904Y-47056333D01*
X103409000Y-47056333D01*
X103504238Y-47132524D01*
X103551857Y-47208714D01*
X103599476Y-47361095D01*
X103599476Y-47742048D01*
X103551857Y-47894429D01*
X103504238Y-47970619D01*
X103409000Y-48046810D01*
X103170904Y-48046810D01*
X103075666Y-47970619D01*
X103028047Y-47894429D01*
X98218524Y-50384429D02*
X98170905Y-50460619D01*
X98028048Y-50536810D01*
X97932810Y-50536810D01*
X97789952Y-50460619D01*
X97694714Y-50308238D01*
X97647095Y-50155857D01*
X97599476Y-49851095D01*
X97599476Y-49622524D01*
X97647095Y-49317762D01*
X97694714Y-49165381D01*
X97789952Y-49013000D01*
X97932810Y-48936810D01*
X98028048Y-48936810D01*
X98170905Y-49013000D01*
X98218524Y-49089190D01*
X99123286Y-50536810D02*
X98647095Y-50536810D01*
X98647095Y-48936810D01*
X99456619Y-50536810D02*
X99456619Y-48936810D01*
X100028048Y-50536810D02*
X99599476Y-49622524D01*
X100028048Y-48936810D02*
X99456619Y-49851095D01*
X100218524Y-50689190D02*
X100980429Y-50689190D01*
X101123286Y-48936810D02*
X101742334Y-48936810D01*
X101409000Y-49546333D01*
X101551858Y-49546333D01*
X101647096Y-49622524D01*
X101694715Y-49698714D01*
X101742334Y-49851095D01*
X101742334Y-50232048D01*
X101694715Y-50384429D01*
X101647096Y-50460619D01*
X101551858Y-50536810D01*
X101266143Y-50536810D01*
X101170905Y-50460619D01*
X101123286Y-50384429D01*
X102123286Y-49089190D02*
X102170905Y-49013000D01*
X102266143Y-48936810D01*
X102504239Y-48936810D01*
X102599477Y-49013000D01*
X102647096Y-49089190D01*
X102694715Y-49241571D01*
X102694715Y-49393952D01*
X102647096Y-49622524D01*
X102075667Y-50536810D01*
X102694715Y-50536810D01*
X103123286Y-50536810D02*
X103123286Y-48936810D01*
X103218524Y-49927286D02*
X103504239Y-50536810D01*
X103504239Y-49470143D02*
X103123286Y-50079667D01*
X86360905Y-27974429D02*
X86313286Y-28050619D01*
X86170429Y-28126810D01*
X86075191Y-28126810D01*
X85932333Y-28050619D01*
X85837095Y-27898238D01*
X85789476Y-27745857D01*
X85741857Y-27441095D01*
X85741857Y-27212524D01*
X85789476Y-26907762D01*
X85837095Y-26755381D01*
X85932333Y-26603000D01*
X86075191Y-26526810D01*
X86170429Y-26526810D01*
X86313286Y-26603000D01*
X86360905Y-26679190D01*
X87265667Y-28126810D02*
X86789476Y-28126810D01*
X86789476Y-26526810D01*
X87599000Y-28126810D02*
X87599000Y-26526810D01*
X88170429Y-28126810D02*
X87741857Y-27212524D01*
X88170429Y-26526810D02*
X87599000Y-27441095D01*
X88360905Y-28279190D02*
X89122810Y-28279190D01*
X89884715Y-28126810D02*
X89313286Y-28126810D01*
X89599000Y-28126810D02*
X89599000Y-26526810D01*
X89503762Y-26755381D01*
X89408524Y-26907762D01*
X89313286Y-26983952D01*
X90360905Y-28126810D02*
X90551381Y-28126810D01*
X90646620Y-28050619D01*
X90694239Y-27974429D01*
X90789477Y-27745857D01*
X90837096Y-27441095D01*
X90837096Y-26831571D01*
X90789477Y-26679190D01*
X90741858Y-26603000D01*
X90646620Y-26526810D01*
X90456143Y-26526810D01*
X90360905Y-26603000D01*
X90313286Y-26679190D01*
X90265667Y-26831571D01*
X90265667Y-27212524D01*
X90313286Y-27364905D01*
X90360905Y-27441095D01*
X90456143Y-27517286D01*
X90646620Y-27517286D01*
X90741858Y-27441095D01*
X90789477Y-27364905D01*
X90837096Y-27212524D01*
X91265667Y-27974429D02*
X91313286Y-28050619D01*
X91265667Y-28126810D01*
X91218048Y-28050619D01*
X91265667Y-27974429D01*
X91265667Y-28126810D01*
X91694238Y-26679190D02*
X91741857Y-26603000D01*
X91837095Y-26526810D01*
X92075191Y-26526810D01*
X92170429Y-26603000D01*
X92218048Y-26679190D01*
X92265667Y-26831571D01*
X92265667Y-26983952D01*
X92218048Y-27212524D01*
X91646619Y-28126810D01*
X92265667Y-28126810D01*
X92694238Y-28126810D02*
X92694238Y-26526810D01*
X93027572Y-27669667D01*
X93360905Y-26526810D01*
X93360905Y-28126810D01*
X86694237Y-29016810D02*
X86694237Y-30312048D01*
X86741856Y-30464429D01*
X86789475Y-30540619D01*
X86884713Y-30616810D01*
X87075190Y-30616810D01*
X87170428Y-30540619D01*
X87218047Y-30464429D01*
X87265666Y-30312048D01*
X87265666Y-29016810D01*
X87694237Y-30159667D02*
X88170428Y-30159667D01*
X87598999Y-30616810D02*
X87932332Y-29016810D01*
X88265666Y-30616810D01*
X89170428Y-30616810D02*
X88837094Y-29854905D01*
X88598999Y-30616810D02*
X88598999Y-29016810D01*
X88979952Y-29016810D01*
X89075190Y-29093000D01*
X89122809Y-29169190D01*
X89170428Y-29321571D01*
X89170428Y-29550143D01*
X89122809Y-29702524D01*
X89075190Y-29778714D01*
X88979952Y-29854905D01*
X88598999Y-29854905D01*
X89456142Y-29016810D02*
X90027571Y-29016810D01*
X89741856Y-30616810D02*
X89741856Y-29016810D01*
X90122809Y-30769190D02*
X90884714Y-30769190D01*
X91694238Y-30616810D02*
X91360904Y-29854905D01*
X91122809Y-30616810D02*
X91122809Y-29016810D01*
X91503762Y-29016810D01*
X91599000Y-29093000D01*
X91646619Y-29169190D01*
X91694238Y-29321571D01*
X91694238Y-29550143D01*
X91646619Y-29702524D01*
X91599000Y-29778714D01*
X91503762Y-29854905D01*
X91122809Y-29854905D01*
X91979952Y-29016810D02*
X92551381Y-29016810D01*
X92265666Y-30616810D02*
X92265666Y-29016810D01*
X92837095Y-30540619D02*
X92979952Y-30616810D01*
X93218048Y-30616810D01*
X93313286Y-30540619D01*
X93360905Y-30464429D01*
X93408524Y-30312048D01*
X93408524Y-30159667D01*
X93360905Y-30007286D01*
X93313286Y-29931095D01*
X93218048Y-29854905D01*
X93027571Y-29778714D01*
X92932333Y-29702524D01*
X92884714Y-29626333D01*
X92837095Y-29473952D01*
X92837095Y-29321571D01*
X92884714Y-29169190D01*
X92932333Y-29093000D01*
X93027571Y-29016810D01*
X93265667Y-29016810D01*
X93408524Y-29093000D01*
X86979953Y-33030619D02*
X87122810Y-33106810D01*
X87360906Y-33106810D01*
X87456144Y-33030619D01*
X87503763Y-32954429D01*
X87551382Y-32802048D01*
X87551382Y-32649667D01*
X87503763Y-32497286D01*
X87456144Y-32421095D01*
X87360906Y-32344905D01*
X87170429Y-32268714D01*
X87075191Y-32192524D01*
X87027572Y-32116333D01*
X86979953Y-31963952D01*
X86979953Y-31811571D01*
X87027572Y-31659190D01*
X87075191Y-31583000D01*
X87170429Y-31506810D01*
X87408525Y-31506810D01*
X87551382Y-31583000D01*
X87979953Y-33106810D02*
X87979953Y-31506810D01*
X88360906Y-31506810D01*
X88456144Y-31583000D01*
X88503763Y-31659190D01*
X88551382Y-31811571D01*
X88551382Y-32040143D01*
X88503763Y-32192524D01*
X88456144Y-32268714D01*
X88360906Y-32344905D01*
X87979953Y-32344905D01*
X88979953Y-33106810D02*
X88979953Y-31506810D01*
X89218048Y-33259190D02*
X89979953Y-33259190D01*
X90218048Y-33106810D02*
X90218048Y-31506810D01*
X90551382Y-32649667D01*
X90884715Y-31506810D01*
X90884715Y-33106810D01*
X91360905Y-33106810D02*
X91360905Y-31506810D01*
X91789476Y-33030619D02*
X91932333Y-33106810D01*
X92170429Y-33106810D01*
X92265667Y-33030619D01*
X92313286Y-32954429D01*
X92360905Y-32802048D01*
X92360905Y-32649667D01*
X92313286Y-32497286D01*
X92265667Y-32421095D01*
X92170429Y-32344905D01*
X91979952Y-32268714D01*
X91884714Y-32192524D01*
X91837095Y-32116333D01*
X91789476Y-31963952D01*
X91789476Y-31811571D01*
X91837095Y-31659190D01*
X91884714Y-31583000D01*
X91979952Y-31506810D01*
X92218048Y-31506810D01*
X92360905Y-31583000D01*
X92979952Y-31506810D02*
X93170429Y-31506810D01*
X93265667Y-31583000D01*
X93360905Y-31735381D01*
X93408524Y-32040143D01*
X93408524Y-32573476D01*
X93360905Y-32878238D01*
X93265667Y-33030619D01*
X93170429Y-33106810D01*
X92979952Y-33106810D01*
X92884714Y-33030619D01*
X92789476Y-32878238D01*
X92741857Y-32573476D01*
X92741857Y-32040143D01*
X92789476Y-31735381D01*
X92884714Y-31583000D01*
X92979952Y-31506810D01*
X87789476Y-35520619D02*
X87932333Y-35596810D01*
X88170429Y-35596810D01*
X88265667Y-35520619D01*
X88313286Y-35444429D01*
X88360905Y-35292048D01*
X88360905Y-35139667D01*
X88313286Y-34987286D01*
X88265667Y-34911095D01*
X88170429Y-34834905D01*
X87979952Y-34758714D01*
X87884714Y-34682524D01*
X87837095Y-34606333D01*
X87789476Y-34453952D01*
X87789476Y-34301571D01*
X87837095Y-34149190D01*
X87884714Y-34073000D01*
X87979952Y-33996810D01*
X88218048Y-33996810D01*
X88360905Y-34073000D01*
X88789476Y-35596810D02*
X88789476Y-33996810D01*
X89170429Y-33996810D01*
X89265667Y-34073000D01*
X89313286Y-34149190D01*
X89360905Y-34301571D01*
X89360905Y-34530143D01*
X89313286Y-34682524D01*
X89265667Y-34758714D01*
X89170429Y-34834905D01*
X88789476Y-34834905D01*
X89789476Y-35596810D02*
X89789476Y-33996810D01*
X90027571Y-35749190D02*
X90789476Y-35749190D01*
X91599000Y-35444429D02*
X91551381Y-35520619D01*
X91408524Y-35596810D01*
X91313286Y-35596810D01*
X91170428Y-35520619D01*
X91075190Y-35368238D01*
X91027571Y-35215857D01*
X90979952Y-34911095D01*
X90979952Y-34682524D01*
X91027571Y-34377762D01*
X91075190Y-34225381D01*
X91170428Y-34073000D01*
X91313286Y-33996810D01*
X91408524Y-33996810D01*
X91551381Y-34073000D01*
X91599000Y-34149190D01*
X92503762Y-35596810D02*
X92027571Y-35596810D01*
X92027571Y-33996810D01*
X92837095Y-35596810D02*
X92837095Y-33996810D01*
X93408524Y-35596810D02*
X92979952Y-34682524D01*
X93408524Y-33996810D02*
X92837095Y-34911095D01*
X86884714Y-38086810D02*
X86884714Y-36486810D01*
X87313285Y-36639190D02*
X87360904Y-36563000D01*
X87456142Y-36486810D01*
X87694238Y-36486810D01*
X87789476Y-36563000D01*
X87837095Y-36639190D01*
X87884714Y-36791571D01*
X87884714Y-36943952D01*
X87837095Y-37172524D01*
X87265666Y-38086810D01*
X87884714Y-38086810D01*
X88884714Y-37934429D02*
X88837095Y-38010619D01*
X88694238Y-38086810D01*
X88599000Y-38086810D01*
X88456142Y-38010619D01*
X88360904Y-37858238D01*
X88313285Y-37705857D01*
X88265666Y-37401095D01*
X88265666Y-37172524D01*
X88313285Y-36867762D01*
X88360904Y-36715381D01*
X88456142Y-36563000D01*
X88599000Y-36486810D01*
X88694238Y-36486810D01*
X88837095Y-36563000D01*
X88884714Y-36639190D01*
X89265666Y-36639190D02*
X89313285Y-36563000D01*
X89408523Y-36486810D01*
X89646619Y-36486810D01*
X89741857Y-36563000D01*
X89789476Y-36639190D01*
X89837095Y-36791571D01*
X89837095Y-36943952D01*
X89789476Y-37172524D01*
X89218047Y-38086810D01*
X89837095Y-38086810D01*
X90027571Y-38239190D02*
X90789476Y-38239190D01*
X90979952Y-38010619D02*
X91122809Y-38086810D01*
X91360905Y-38086810D01*
X91456143Y-38010619D01*
X91503762Y-37934429D01*
X91551381Y-37782048D01*
X91551381Y-37629667D01*
X91503762Y-37477286D01*
X91456143Y-37401095D01*
X91360905Y-37324905D01*
X91170428Y-37248714D01*
X91075190Y-37172524D01*
X91027571Y-37096333D01*
X90979952Y-36943952D01*
X90979952Y-36791571D01*
X91027571Y-36639190D01*
X91075190Y-36563000D01*
X91170428Y-36486810D01*
X91408524Y-36486810D01*
X91551381Y-36563000D01*
X91979952Y-38086810D02*
X91979952Y-36486810D01*
X92218047Y-36486810D01*
X92360905Y-36563000D01*
X92456143Y-36715381D01*
X92503762Y-36867762D01*
X92551381Y-37172524D01*
X92551381Y-37401095D01*
X92503762Y-37705857D01*
X92456143Y-37858238D01*
X92360905Y-38010619D01*
X92218047Y-38086810D01*
X91979952Y-38086810D01*
X92932333Y-37629667D02*
X93408524Y-37629667D01*
X92837095Y-38086810D02*
X93170428Y-36486810D01*
X93503762Y-38086810D01*
X86884714Y-40576810D02*
X86884714Y-38976810D01*
X87313285Y-39129190D02*
X87360904Y-39053000D01*
X87456142Y-38976810D01*
X87694238Y-38976810D01*
X87789476Y-39053000D01*
X87837095Y-39129190D01*
X87884714Y-39281571D01*
X87884714Y-39433952D01*
X87837095Y-39662524D01*
X87265666Y-40576810D01*
X87884714Y-40576810D01*
X88884714Y-40424429D02*
X88837095Y-40500619D01*
X88694238Y-40576810D01*
X88599000Y-40576810D01*
X88456142Y-40500619D01*
X88360904Y-40348238D01*
X88313285Y-40195857D01*
X88265666Y-39891095D01*
X88265666Y-39662524D01*
X88313285Y-39357762D01*
X88360904Y-39205381D01*
X88456142Y-39053000D01*
X88599000Y-38976810D01*
X88694238Y-38976810D01*
X88837095Y-39053000D01*
X88884714Y-39129190D01*
X89837095Y-40576810D02*
X89265666Y-40576810D01*
X89551380Y-40576810D02*
X89551380Y-38976810D01*
X89456142Y-39205381D01*
X89360904Y-39357762D01*
X89265666Y-39433952D01*
X90027571Y-40729190D02*
X90789476Y-40729190D01*
X90979952Y-40500619D02*
X91122809Y-40576810D01*
X91360905Y-40576810D01*
X91456143Y-40500619D01*
X91503762Y-40424429D01*
X91551381Y-40272048D01*
X91551381Y-40119667D01*
X91503762Y-39967286D01*
X91456143Y-39891095D01*
X91360905Y-39814905D01*
X91170428Y-39738714D01*
X91075190Y-39662524D01*
X91027571Y-39586333D01*
X90979952Y-39433952D01*
X90979952Y-39281571D01*
X91027571Y-39129190D01*
X91075190Y-39053000D01*
X91170428Y-38976810D01*
X91408524Y-38976810D01*
X91551381Y-39053000D01*
X91979952Y-40576810D02*
X91979952Y-38976810D01*
X92218047Y-38976810D01*
X92360905Y-39053000D01*
X92456143Y-39205381D01*
X92503762Y-39357762D01*
X92551381Y-39662524D01*
X92551381Y-39891095D01*
X92503762Y-40195857D01*
X92456143Y-40348238D01*
X92360905Y-40500619D01*
X92218047Y-40576810D01*
X91979952Y-40576810D01*
X92932333Y-40119667D02*
X93408524Y-40119667D01*
X92837095Y-40576810D02*
X93170428Y-38976810D01*
X93503762Y-40576810D01*
X87694238Y-42990619D02*
X87837095Y-43066810D01*
X88075191Y-43066810D01*
X88170429Y-42990619D01*
X88218048Y-42914429D01*
X88265667Y-42762048D01*
X88265667Y-42609667D01*
X88218048Y-42457286D01*
X88170429Y-42381095D01*
X88075191Y-42304905D01*
X87884714Y-42228714D01*
X87789476Y-42152524D01*
X87741857Y-42076333D01*
X87694238Y-41923952D01*
X87694238Y-41771571D01*
X87741857Y-41619190D01*
X87789476Y-41543000D01*
X87884714Y-41466810D01*
X88122810Y-41466810D01*
X88265667Y-41543000D01*
X88694238Y-43066810D02*
X88694238Y-41466810D01*
X89075191Y-41466810D01*
X89170429Y-41543000D01*
X89218048Y-41619190D01*
X89265667Y-41771571D01*
X89265667Y-42000143D01*
X89218048Y-42152524D01*
X89170429Y-42228714D01*
X89075191Y-42304905D01*
X88694238Y-42304905D01*
X89694238Y-43066810D02*
X89694238Y-41466810D01*
X89932333Y-43219190D02*
X90694238Y-43219190D01*
X91503762Y-42914429D02*
X91456143Y-42990619D01*
X91313286Y-43066810D01*
X91218048Y-43066810D01*
X91075190Y-42990619D01*
X90979952Y-42838238D01*
X90932333Y-42685857D01*
X90884714Y-42381095D01*
X90884714Y-42152524D01*
X90932333Y-41847762D01*
X90979952Y-41695381D01*
X91075190Y-41543000D01*
X91218048Y-41466810D01*
X91313286Y-41466810D01*
X91456143Y-41543000D01*
X91503762Y-41619190D01*
X91884714Y-42990619D02*
X92027571Y-43066810D01*
X92265667Y-43066810D01*
X92360905Y-42990619D01*
X92408524Y-42914429D01*
X92456143Y-42762048D01*
X92456143Y-42609667D01*
X92408524Y-42457286D01*
X92360905Y-42381095D01*
X92265667Y-42304905D01*
X92075190Y-42228714D01*
X91979952Y-42152524D01*
X91932333Y-42076333D01*
X91884714Y-41923952D01*
X91884714Y-41771571D01*
X91932333Y-41619190D01*
X91979952Y-41543000D01*
X92075190Y-41466810D01*
X92313286Y-41466810D01*
X92456143Y-41543000D01*
X93408524Y-43066810D02*
X92837095Y-43066810D01*
X93122809Y-43066810D02*
X93122809Y-41466810D01*
X93027571Y-41695381D01*
X92932333Y-41847762D01*
X92837095Y-41923952D01*
X87979953Y-44033000D02*
X87884715Y-43956810D01*
X87741858Y-43956810D01*
X87599000Y-44033000D01*
X87503762Y-44185381D01*
X87456143Y-44337762D01*
X87408524Y-44642524D01*
X87408524Y-44871095D01*
X87456143Y-45175857D01*
X87503762Y-45328238D01*
X87599000Y-45480619D01*
X87741858Y-45556810D01*
X87837096Y-45556810D01*
X87979953Y-45480619D01*
X88027572Y-45404429D01*
X88027572Y-44871095D01*
X87837096Y-44871095D01*
X88456143Y-45556810D02*
X88456143Y-43956810D01*
X88837096Y-43956810D01*
X88932334Y-44033000D01*
X88979953Y-44109190D01*
X89027572Y-44261571D01*
X89027572Y-44490143D01*
X88979953Y-44642524D01*
X88932334Y-44718714D01*
X88837096Y-44794905D01*
X88456143Y-44794905D01*
X89456143Y-45556810D02*
X89456143Y-43956810D01*
X90122809Y-43956810D02*
X90313286Y-43956810D01*
X90408524Y-44033000D01*
X90503762Y-44185381D01*
X90551381Y-44490143D01*
X90551381Y-45023476D01*
X90503762Y-45328238D01*
X90408524Y-45480619D01*
X90313286Y-45556810D01*
X90122809Y-45556810D01*
X90027571Y-45480619D01*
X89932333Y-45328238D01*
X89884714Y-45023476D01*
X89884714Y-44490143D01*
X89932333Y-44185381D01*
X90027571Y-44033000D01*
X90122809Y-43956810D01*
X91503762Y-45556810D02*
X90932333Y-45556810D01*
X91218047Y-45556810D02*
X91218047Y-43956810D01*
X91122809Y-44185381D01*
X91027571Y-44337762D01*
X90932333Y-44413952D01*
X92075190Y-44642524D02*
X91979952Y-44566333D01*
X91932333Y-44490143D01*
X91884714Y-44337762D01*
X91884714Y-44261571D01*
X91932333Y-44109190D01*
X91979952Y-44033000D01*
X92075190Y-43956810D01*
X92265667Y-43956810D01*
X92360905Y-44033000D01*
X92408524Y-44109190D01*
X92456143Y-44261571D01*
X92456143Y-44337762D01*
X92408524Y-44490143D01*
X92360905Y-44566333D01*
X92265667Y-44642524D01*
X92075190Y-44642524D01*
X91979952Y-44718714D01*
X91932333Y-44794905D01*
X91884714Y-44947286D01*
X91884714Y-45252048D01*
X91932333Y-45404429D01*
X91979952Y-45480619D01*
X92075190Y-45556810D01*
X92265667Y-45556810D01*
X92360905Y-45480619D01*
X92408524Y-45404429D01*
X92456143Y-45252048D01*
X92456143Y-44947286D01*
X92408524Y-44794905D01*
X92360905Y-44718714D01*
X92265667Y-44642524D01*
X92837095Y-44109190D02*
X92884714Y-44033000D01*
X92979952Y-43956810D01*
X93218048Y-43956810D01*
X93313286Y-44033000D01*
X93360905Y-44109190D01*
X93408524Y-44261571D01*
X93408524Y-44413952D01*
X93360905Y-44642524D01*
X92789476Y-45556810D01*
X93408524Y-45556810D01*
X88932334Y-46523000D02*
X88837096Y-46446810D01*
X88694239Y-46446810D01*
X88551381Y-46523000D01*
X88456143Y-46675381D01*
X88408524Y-46827762D01*
X88360905Y-47132524D01*
X88360905Y-47361095D01*
X88408524Y-47665857D01*
X88456143Y-47818238D01*
X88551381Y-47970619D01*
X88694239Y-48046810D01*
X88789477Y-48046810D01*
X88932334Y-47970619D01*
X88979953Y-47894429D01*
X88979953Y-47361095D01*
X88789477Y-47361095D01*
X89408524Y-48046810D02*
X89408524Y-46446810D01*
X89789477Y-46446810D01*
X89884715Y-46523000D01*
X89932334Y-46599190D01*
X89979953Y-46751571D01*
X89979953Y-46980143D01*
X89932334Y-47132524D01*
X89884715Y-47208714D01*
X89789477Y-47284905D01*
X89408524Y-47284905D01*
X90408524Y-48046810D02*
X90408524Y-46446810D01*
X91075190Y-46446810D02*
X91265667Y-46446810D01*
X91360905Y-46523000D01*
X91456143Y-46675381D01*
X91503762Y-46980143D01*
X91503762Y-47513476D01*
X91456143Y-47818238D01*
X91360905Y-47970619D01*
X91265667Y-48046810D01*
X91075190Y-48046810D01*
X90979952Y-47970619D01*
X90884714Y-47818238D01*
X90837095Y-47513476D01*
X90837095Y-46980143D01*
X90884714Y-46675381D01*
X90979952Y-46523000D01*
X91075190Y-46446810D01*
X92456143Y-48046810D02*
X91884714Y-48046810D01*
X92170428Y-48046810D02*
X92170428Y-46446810D01*
X92075190Y-46675381D01*
X91979952Y-46827762D01*
X91884714Y-46903952D01*
X92789476Y-46446810D02*
X93408524Y-46446810D01*
X93075190Y-47056333D01*
X93218048Y-47056333D01*
X93313286Y-47132524D01*
X93360905Y-47208714D01*
X93408524Y-47361095D01*
X93408524Y-47742048D01*
X93360905Y-47894429D01*
X93313286Y-47970619D01*
X93218048Y-48046810D01*
X92932333Y-48046810D01*
X92837095Y-47970619D01*
X92789476Y-47894429D01*
X87979953Y-49013000D02*
X87884715Y-48936810D01*
X87741858Y-48936810D01*
X87599000Y-49013000D01*
X87503762Y-49165381D01*
X87456143Y-49317762D01*
X87408524Y-49622524D01*
X87408524Y-49851095D01*
X87456143Y-50155857D01*
X87503762Y-50308238D01*
X87599000Y-50460619D01*
X87741858Y-50536810D01*
X87837096Y-50536810D01*
X87979953Y-50460619D01*
X88027572Y-50384429D01*
X88027572Y-49851095D01*
X87837096Y-49851095D01*
X88456143Y-50536810D02*
X88456143Y-48936810D01*
X88837096Y-48936810D01*
X88932334Y-49013000D01*
X88979953Y-49089190D01*
X89027572Y-49241571D01*
X89027572Y-49470143D01*
X88979953Y-49622524D01*
X88932334Y-49698714D01*
X88837096Y-49774905D01*
X88456143Y-49774905D01*
X89456143Y-50536810D02*
X89456143Y-48936810D01*
X90122809Y-48936810D02*
X90313286Y-48936810D01*
X90408524Y-49013000D01*
X90503762Y-49165381D01*
X90551381Y-49470143D01*
X90551381Y-50003476D01*
X90503762Y-50308238D01*
X90408524Y-50460619D01*
X90313286Y-50536810D01*
X90122809Y-50536810D01*
X90027571Y-50460619D01*
X89932333Y-50308238D01*
X89884714Y-50003476D01*
X89884714Y-49470143D01*
X89932333Y-49165381D01*
X90027571Y-49013000D01*
X90122809Y-48936810D01*
X91503762Y-50536810D02*
X90932333Y-50536810D01*
X91218047Y-50536810D02*
X91218047Y-48936810D01*
X91122809Y-49165381D01*
X91027571Y-49317762D01*
X90932333Y-49393952D01*
X92360905Y-48936810D02*
X92170428Y-48936810D01*
X92075190Y-49013000D01*
X92027571Y-49089190D01*
X91932333Y-49317762D01*
X91884714Y-49622524D01*
X91884714Y-50232048D01*
X91932333Y-50384429D01*
X91979952Y-50460619D01*
X92075190Y-50536810D01*
X92265667Y-50536810D01*
X92360905Y-50460619D01*
X92408524Y-50384429D01*
X92456143Y-50232048D01*
X92456143Y-49851095D01*
X92408524Y-49698714D01*
X92360905Y-49622524D01*
X92265667Y-49546333D01*
X92075190Y-49546333D01*
X91979952Y-49622524D01*
X91932333Y-49698714D01*
X91884714Y-49851095D01*
X93360905Y-48936810D02*
X92884714Y-48936810D01*
X92837095Y-49698714D01*
X92884714Y-49622524D01*
X92979952Y-49546333D01*
X93218048Y-49546333D01*
X93313286Y-49622524D01*
X93360905Y-49698714D01*
X93408524Y-49851095D01*
X93408524Y-50232048D01*
X93360905Y-50384429D01*
X93313286Y-50460619D01*
X93218048Y-50536810D01*
X92979952Y-50536810D01*
X92884714Y-50460619D01*
X92837095Y-50384429D01*
D11*
X36992858Y-29380571D02*
X36992858Y-27880571D01*
X37564286Y-27880571D01*
X37707144Y-27952000D01*
X37778572Y-28023429D01*
X37850001Y-28166286D01*
X37850001Y-28380571D01*
X37778572Y-28523429D01*
X37707144Y-28594857D01*
X37564286Y-28666286D01*
X36992858Y-28666286D01*
X39278572Y-29380571D02*
X38421429Y-29380571D01*
X38850001Y-29380571D02*
X38850001Y-27880571D01*
X38707144Y-28094857D01*
X38564286Y-28237714D01*
X38421429Y-28309143D01*
D12*
X33099762Y-30590810D02*
X33718810Y-30590810D01*
X33385476Y-31200333D01*
X33528334Y-31200333D01*
X33623572Y-31276524D01*
X33671191Y-31352714D01*
X33718810Y-31505095D01*
X33718810Y-31886048D01*
X33671191Y-32038429D01*
X33623572Y-32114619D01*
X33528334Y-32190810D01*
X33242619Y-32190810D01*
X33147381Y-32114619D01*
X33099762Y-32038429D01*
X34147381Y-32038429D02*
X34195000Y-32114619D01*
X34147381Y-32190810D01*
X34099762Y-32114619D01*
X34147381Y-32038429D01*
X34147381Y-32190810D01*
X34528333Y-30590810D02*
X35147381Y-30590810D01*
X34814047Y-31200333D01*
X34956905Y-31200333D01*
X35052143Y-31276524D01*
X35099762Y-31352714D01*
X35147381Y-31505095D01*
X35147381Y-31886048D01*
X35099762Y-32038429D01*
X35052143Y-32114619D01*
X34956905Y-32190810D01*
X34671190Y-32190810D01*
X34575952Y-32114619D01*
X34528333Y-32038429D01*
X35433095Y-30590810D02*
X35766428Y-32190810D01*
X36099762Y-30590810D01*
X30575952Y-34680810D02*
X30575952Y-33080810D01*
X31004523Y-33233190D02*
X31052142Y-33157000D01*
X31147380Y-33080810D01*
X31385476Y-33080810D01*
X31480714Y-33157000D01*
X31528333Y-33233190D01*
X31575952Y-33385571D01*
X31575952Y-33537952D01*
X31528333Y-33766524D01*
X30956904Y-34680810D01*
X31575952Y-34680810D01*
X31956904Y-34604619D02*
X32099761Y-34680810D01*
X32337857Y-34680810D01*
X32433095Y-34604619D01*
X32480714Y-34528429D01*
X32528333Y-34376048D01*
X32528333Y-34223667D01*
X32480714Y-34071286D01*
X32433095Y-33995095D01*
X32337857Y-33918905D01*
X32147380Y-33842714D01*
X32052142Y-33766524D01*
X32004523Y-33690333D01*
X31956904Y-33537952D01*
X31956904Y-33385571D01*
X32004523Y-33233190D01*
X32052142Y-33157000D01*
X32147380Y-33080810D01*
X32385476Y-33080810D01*
X32528333Y-33157000D01*
X32718809Y-34833190D02*
X33480714Y-34833190D01*
X33575952Y-33080810D02*
X34147381Y-33080810D01*
X33861666Y-34680810D02*
X33861666Y-33080810D01*
X34385476Y-33080810D02*
X35052143Y-34680810D01*
X35052143Y-33080810D02*
X34385476Y-34680810D01*
X35433095Y-34680810D02*
X35433095Y-33080810D01*
X35671190Y-33080810D01*
X35814048Y-33157000D01*
X35909286Y-33309381D01*
X35956905Y-33461762D01*
X36004524Y-33766524D01*
X36004524Y-33995095D01*
X35956905Y-34299857D01*
X35909286Y-34452238D01*
X35814048Y-34604619D01*
X35671190Y-34680810D01*
X35433095Y-34680810D01*
X30480714Y-37170810D02*
X30480714Y-35570810D01*
X30909285Y-35723190D02*
X30956904Y-35647000D01*
X31052142Y-35570810D01*
X31290238Y-35570810D01*
X31385476Y-35647000D01*
X31433095Y-35723190D01*
X31480714Y-35875571D01*
X31480714Y-36027952D01*
X31433095Y-36256524D01*
X30861666Y-37170810D01*
X31480714Y-37170810D01*
X31861666Y-37094619D02*
X32004523Y-37170810D01*
X32242619Y-37170810D01*
X32337857Y-37094619D01*
X32385476Y-37018429D01*
X32433095Y-36866048D01*
X32433095Y-36713667D01*
X32385476Y-36561286D01*
X32337857Y-36485095D01*
X32242619Y-36408905D01*
X32052142Y-36332714D01*
X31956904Y-36256524D01*
X31909285Y-36180333D01*
X31861666Y-36027952D01*
X31861666Y-35875571D01*
X31909285Y-35723190D01*
X31956904Y-35647000D01*
X32052142Y-35570810D01*
X32290238Y-35570810D01*
X32433095Y-35647000D01*
X32623571Y-37323190D02*
X33385476Y-37323190D01*
X34195000Y-37018429D02*
X34147381Y-37094619D01*
X34004524Y-37170810D01*
X33909286Y-37170810D01*
X33766428Y-37094619D01*
X33671190Y-36942238D01*
X33623571Y-36789857D01*
X33575952Y-36485095D01*
X33575952Y-36256524D01*
X33623571Y-35951762D01*
X33671190Y-35799381D01*
X33766428Y-35647000D01*
X33909286Y-35570810D01*
X34004524Y-35570810D01*
X34147381Y-35647000D01*
X34195000Y-35723190D01*
X35099762Y-37170810D02*
X34623571Y-37170810D01*
X34623571Y-35570810D01*
X35433095Y-37170810D02*
X35433095Y-35570810D01*
X36004524Y-37170810D02*
X35575952Y-36256524D01*
X36004524Y-35570810D02*
X35433095Y-36485095D01*
X31528334Y-38137000D02*
X31433096Y-38060810D01*
X31290239Y-38060810D01*
X31147381Y-38137000D01*
X31052143Y-38289381D01*
X31004524Y-38441762D01*
X30956905Y-38746524D01*
X30956905Y-38975095D01*
X31004524Y-39279857D01*
X31052143Y-39432238D01*
X31147381Y-39584619D01*
X31290239Y-39660810D01*
X31385477Y-39660810D01*
X31528334Y-39584619D01*
X31575953Y-39508429D01*
X31575953Y-38975095D01*
X31385477Y-38975095D01*
X32004524Y-39660810D02*
X32004524Y-38060810D01*
X32385477Y-38060810D01*
X32480715Y-38137000D01*
X32528334Y-38213190D01*
X32575953Y-38365571D01*
X32575953Y-38594143D01*
X32528334Y-38746524D01*
X32480715Y-38822714D01*
X32385477Y-38898905D01*
X32004524Y-38898905D01*
X33004524Y-39660810D02*
X33004524Y-38060810D01*
X33671190Y-38060810D02*
X33861667Y-38060810D01*
X33956905Y-38137000D01*
X34052143Y-38289381D01*
X34099762Y-38594143D01*
X34099762Y-39127476D01*
X34052143Y-39432238D01*
X33956905Y-39584619D01*
X33861667Y-39660810D01*
X33671190Y-39660810D01*
X33575952Y-39584619D01*
X33480714Y-39432238D01*
X33433095Y-39127476D01*
X33433095Y-38594143D01*
X33480714Y-38289381D01*
X33575952Y-38137000D01*
X33671190Y-38060810D01*
X35052143Y-39660810D02*
X34480714Y-39660810D01*
X34766428Y-39660810D02*
X34766428Y-38060810D01*
X34671190Y-38289381D01*
X34575952Y-38441762D01*
X34480714Y-38517952D01*
X35909286Y-38594143D02*
X35909286Y-39660810D01*
X35671190Y-37984619D02*
X35433095Y-39127476D01*
X36052143Y-39127476D01*
X31528334Y-40627000D02*
X31433096Y-40550810D01*
X31290239Y-40550810D01*
X31147381Y-40627000D01*
X31052143Y-40779381D01*
X31004524Y-40931762D01*
X30956905Y-41236524D01*
X30956905Y-41465095D01*
X31004524Y-41769857D01*
X31052143Y-41922238D01*
X31147381Y-42074619D01*
X31290239Y-42150810D01*
X31385477Y-42150810D01*
X31528334Y-42074619D01*
X31575953Y-41998429D01*
X31575953Y-41465095D01*
X31385477Y-41465095D01*
X32004524Y-42150810D02*
X32004524Y-40550810D01*
X32385477Y-40550810D01*
X32480715Y-40627000D01*
X32528334Y-40703190D01*
X32575953Y-40855571D01*
X32575953Y-41084143D01*
X32528334Y-41236524D01*
X32480715Y-41312714D01*
X32385477Y-41388905D01*
X32004524Y-41388905D01*
X33004524Y-42150810D02*
X33004524Y-40550810D01*
X33671190Y-40550810D02*
X33861667Y-40550810D01*
X33956905Y-40627000D01*
X34052143Y-40779381D01*
X34099762Y-41084143D01*
X34099762Y-41617476D01*
X34052143Y-41922238D01*
X33956905Y-42074619D01*
X33861667Y-42150810D01*
X33671190Y-42150810D01*
X33575952Y-42074619D01*
X33480714Y-41922238D01*
X33433095Y-41617476D01*
X33433095Y-41084143D01*
X33480714Y-40779381D01*
X33575952Y-40627000D01*
X33671190Y-40550810D01*
X35052143Y-42150810D02*
X34480714Y-42150810D01*
X34766428Y-42150810D02*
X34766428Y-40550810D01*
X34671190Y-40779381D01*
X34575952Y-40931762D01*
X34480714Y-41007952D01*
X35956905Y-40550810D02*
X35480714Y-40550810D01*
X35433095Y-41312714D01*
X35480714Y-41236524D01*
X35575952Y-41160333D01*
X35814048Y-41160333D01*
X35909286Y-41236524D01*
X35956905Y-41312714D01*
X36004524Y-41465095D01*
X36004524Y-41846048D01*
X35956905Y-41998429D01*
X35909286Y-42074619D01*
X35814048Y-42150810D01*
X35575952Y-42150810D01*
X35480714Y-42074619D01*
X35433095Y-41998429D01*
X31528334Y-43117000D02*
X31433096Y-43040810D01*
X31290239Y-43040810D01*
X31147381Y-43117000D01*
X31052143Y-43269381D01*
X31004524Y-43421762D01*
X30956905Y-43726524D01*
X30956905Y-43955095D01*
X31004524Y-44259857D01*
X31052143Y-44412238D01*
X31147381Y-44564619D01*
X31290239Y-44640810D01*
X31385477Y-44640810D01*
X31528334Y-44564619D01*
X31575953Y-44488429D01*
X31575953Y-43955095D01*
X31385477Y-43955095D01*
X32004524Y-44640810D02*
X32004524Y-43040810D01*
X32385477Y-43040810D01*
X32480715Y-43117000D01*
X32528334Y-43193190D01*
X32575953Y-43345571D01*
X32575953Y-43574143D01*
X32528334Y-43726524D01*
X32480715Y-43802714D01*
X32385477Y-43878905D01*
X32004524Y-43878905D01*
X33004524Y-44640810D02*
X33004524Y-43040810D01*
X33671190Y-43040810D02*
X33861667Y-43040810D01*
X33956905Y-43117000D01*
X34052143Y-43269381D01*
X34099762Y-43574143D01*
X34099762Y-44107476D01*
X34052143Y-44412238D01*
X33956905Y-44564619D01*
X33861667Y-44640810D01*
X33671190Y-44640810D01*
X33575952Y-44564619D01*
X33480714Y-44412238D01*
X33433095Y-44107476D01*
X33433095Y-43574143D01*
X33480714Y-43269381D01*
X33575952Y-43117000D01*
X33671190Y-43040810D01*
X34956905Y-43574143D02*
X34956905Y-44640810D01*
X34718809Y-42964619D02*
X34480714Y-44107476D01*
X35099762Y-44107476D01*
X35528333Y-44640810D02*
X35718809Y-44640810D01*
X35814048Y-44564619D01*
X35861667Y-44488429D01*
X35956905Y-44259857D01*
X36004524Y-43955095D01*
X36004524Y-43345571D01*
X35956905Y-43193190D01*
X35909286Y-43117000D01*
X35814048Y-43040810D01*
X35623571Y-43040810D01*
X35528333Y-43117000D01*
X35480714Y-43193190D01*
X35433095Y-43345571D01*
X35433095Y-43726524D01*
X35480714Y-43878905D01*
X35528333Y-43955095D01*
X35623571Y-44031286D01*
X35814048Y-44031286D01*
X35909286Y-43955095D01*
X35956905Y-43878905D01*
X36004524Y-43726524D01*
X31528334Y-45607000D02*
X31433096Y-45530810D01*
X31290239Y-45530810D01*
X31147381Y-45607000D01*
X31052143Y-45759381D01*
X31004524Y-45911762D01*
X30956905Y-46216524D01*
X30956905Y-46445095D01*
X31004524Y-46749857D01*
X31052143Y-46902238D01*
X31147381Y-47054619D01*
X31290239Y-47130810D01*
X31385477Y-47130810D01*
X31528334Y-47054619D01*
X31575953Y-46978429D01*
X31575953Y-46445095D01*
X31385477Y-46445095D01*
X32004524Y-47130810D02*
X32004524Y-45530810D01*
X32385477Y-45530810D01*
X32480715Y-45607000D01*
X32528334Y-45683190D01*
X32575953Y-45835571D01*
X32575953Y-46064143D01*
X32528334Y-46216524D01*
X32480715Y-46292714D01*
X32385477Y-46368905D01*
X32004524Y-46368905D01*
X33004524Y-47130810D02*
X33004524Y-45530810D01*
X33671190Y-45530810D02*
X33861667Y-45530810D01*
X33956905Y-45607000D01*
X34052143Y-45759381D01*
X34099762Y-46064143D01*
X34099762Y-46597476D01*
X34052143Y-46902238D01*
X33956905Y-47054619D01*
X33861667Y-47130810D01*
X33671190Y-47130810D01*
X33575952Y-47054619D01*
X33480714Y-46902238D01*
X33433095Y-46597476D01*
X33433095Y-46064143D01*
X33480714Y-45759381D01*
X33575952Y-45607000D01*
X33671190Y-45530810D01*
X34956905Y-46064143D02*
X34956905Y-47130810D01*
X34718809Y-45454619D02*
X34480714Y-46597476D01*
X35099762Y-46597476D01*
X35385476Y-45530810D02*
X36052143Y-45530810D01*
X35623571Y-47130810D01*
X31528334Y-48097000D02*
X31433096Y-48020810D01*
X31290239Y-48020810D01*
X31147381Y-48097000D01*
X31052143Y-48249381D01*
X31004524Y-48401762D01*
X30956905Y-48706524D01*
X30956905Y-48935095D01*
X31004524Y-49239857D01*
X31052143Y-49392238D01*
X31147381Y-49544619D01*
X31290239Y-49620810D01*
X31385477Y-49620810D01*
X31528334Y-49544619D01*
X31575953Y-49468429D01*
X31575953Y-48935095D01*
X31385477Y-48935095D01*
X32004524Y-49620810D02*
X32004524Y-48020810D01*
X32385477Y-48020810D01*
X32480715Y-48097000D01*
X32528334Y-48173190D01*
X32575953Y-48325571D01*
X32575953Y-48554143D01*
X32528334Y-48706524D01*
X32480715Y-48782714D01*
X32385477Y-48858905D01*
X32004524Y-48858905D01*
X33004524Y-49620810D02*
X33004524Y-48020810D01*
X33671190Y-48020810D02*
X33861667Y-48020810D01*
X33956905Y-48097000D01*
X34052143Y-48249381D01*
X34099762Y-48554143D01*
X34099762Y-49087476D01*
X34052143Y-49392238D01*
X33956905Y-49544619D01*
X33861667Y-49620810D01*
X33671190Y-49620810D01*
X33575952Y-49544619D01*
X33480714Y-49392238D01*
X33433095Y-49087476D01*
X33433095Y-48554143D01*
X33480714Y-48249381D01*
X33575952Y-48097000D01*
X33671190Y-48020810D01*
X34956905Y-48554143D02*
X34956905Y-49620810D01*
X34718809Y-47944619D02*
X34480714Y-49087476D01*
X35099762Y-49087476D01*
X35956905Y-48020810D02*
X35480714Y-48020810D01*
X35433095Y-48782714D01*
X35480714Y-48706524D01*
X35575952Y-48630333D01*
X35814048Y-48630333D01*
X35909286Y-48706524D01*
X35956905Y-48782714D01*
X36004524Y-48935095D01*
X36004524Y-49316048D01*
X35956905Y-49468429D01*
X35909286Y-49544619D01*
X35814048Y-49620810D01*
X35575952Y-49620810D01*
X35480714Y-49544619D01*
X35433095Y-49468429D01*
X30575953Y-50587000D02*
X30480715Y-50510810D01*
X30337858Y-50510810D01*
X30195000Y-50587000D01*
X30099762Y-50739381D01*
X30052143Y-50891762D01*
X30004524Y-51196524D01*
X30004524Y-51425095D01*
X30052143Y-51729857D01*
X30099762Y-51882238D01*
X30195000Y-52034619D01*
X30337858Y-52110810D01*
X30433096Y-52110810D01*
X30575953Y-52034619D01*
X30623572Y-51958429D01*
X30623572Y-51425095D01*
X30433096Y-51425095D01*
X31052143Y-52110810D02*
X31052143Y-50510810D01*
X31433096Y-50510810D01*
X31528334Y-50587000D01*
X31575953Y-50663190D01*
X31623572Y-50815571D01*
X31623572Y-51044143D01*
X31575953Y-51196524D01*
X31528334Y-51272714D01*
X31433096Y-51348905D01*
X31052143Y-51348905D01*
X32052143Y-52110810D02*
X32052143Y-50510810D01*
X32718809Y-50510810D02*
X32909286Y-50510810D01*
X33004524Y-50587000D01*
X33099762Y-50739381D01*
X33147381Y-51044143D01*
X33147381Y-51577476D01*
X33099762Y-51882238D01*
X33004524Y-52034619D01*
X32909286Y-52110810D01*
X32718809Y-52110810D01*
X32623571Y-52034619D01*
X32528333Y-51882238D01*
X32480714Y-51577476D01*
X32480714Y-51044143D01*
X32528333Y-50739381D01*
X32623571Y-50587000D01*
X32718809Y-50510810D01*
X34099762Y-52110810D02*
X33528333Y-52110810D01*
X33814047Y-52110810D02*
X33814047Y-50510810D01*
X33718809Y-50739381D01*
X33623571Y-50891762D01*
X33528333Y-50967952D01*
X34433095Y-50510810D02*
X35052143Y-50510810D01*
X34718809Y-51120333D01*
X34861667Y-51120333D01*
X34956905Y-51196524D01*
X35004524Y-51272714D01*
X35052143Y-51425095D01*
X35052143Y-51806048D01*
X35004524Y-51958429D01*
X34956905Y-52034619D01*
X34861667Y-52110810D01*
X34575952Y-52110810D01*
X34480714Y-52034619D01*
X34433095Y-51958429D01*
X35909286Y-51044143D02*
X35909286Y-52110810D01*
X35671190Y-50434619D02*
X35433095Y-51577476D01*
X36052143Y-51577476D01*
X33718810Y-54600810D02*
X33147381Y-54600810D01*
X33433095Y-54600810D02*
X33433095Y-53000810D01*
X33337857Y-53229381D01*
X33242619Y-53381762D01*
X33147381Y-53457952D01*
X34147381Y-54448429D02*
X34195000Y-54524619D01*
X34147381Y-54600810D01*
X34099762Y-54524619D01*
X34147381Y-54448429D01*
X34147381Y-54600810D01*
X34766428Y-53686524D02*
X34671190Y-53610333D01*
X34623571Y-53534143D01*
X34575952Y-53381762D01*
X34575952Y-53305571D01*
X34623571Y-53153190D01*
X34671190Y-53077000D01*
X34766428Y-53000810D01*
X34956905Y-53000810D01*
X35052143Y-53077000D01*
X35099762Y-53153190D01*
X35147381Y-53305571D01*
X35147381Y-53381762D01*
X35099762Y-53534143D01*
X35052143Y-53610333D01*
X34956905Y-53686524D01*
X34766428Y-53686524D01*
X34671190Y-53762714D01*
X34623571Y-53838905D01*
X34575952Y-53991286D01*
X34575952Y-54296048D01*
X34623571Y-54448429D01*
X34671190Y-54524619D01*
X34766428Y-54600810D01*
X34956905Y-54600810D01*
X35052143Y-54524619D01*
X35099762Y-54448429D01*
X35147381Y-54296048D01*
X35147381Y-53991286D01*
X35099762Y-53838905D01*
X35052143Y-53762714D01*
X34956905Y-53686524D01*
X35433095Y-53000810D02*
X35766428Y-54600810D01*
X36099762Y-53000810D01*
X40719286Y-30590810D02*
X40243095Y-30590810D01*
X40195476Y-31352714D01*
X40243095Y-31276524D01*
X40338333Y-31200333D01*
X40576429Y-31200333D01*
X40671667Y-31276524D01*
X40719286Y-31352714D01*
X40766905Y-31505095D01*
X40766905Y-31886048D01*
X40719286Y-32038429D01*
X40671667Y-32114619D01*
X40576429Y-32190810D01*
X40338333Y-32190810D01*
X40243095Y-32114619D01*
X40195476Y-32038429D01*
X41052619Y-30590810D02*
X41385952Y-32190810D01*
X41719286Y-30590810D01*
X40766905Y-33157000D02*
X40671667Y-33080810D01*
X40528810Y-33080810D01*
X40385952Y-33157000D01*
X40290714Y-33309381D01*
X40243095Y-33461762D01*
X40195476Y-33766524D01*
X40195476Y-33995095D01*
X40243095Y-34299857D01*
X40290714Y-34452238D01*
X40385952Y-34604619D01*
X40528810Y-34680810D01*
X40624048Y-34680810D01*
X40766905Y-34604619D01*
X40814524Y-34528429D01*
X40814524Y-33995095D01*
X40624048Y-33995095D01*
X41243095Y-34680810D02*
X41243095Y-33080810D01*
X41624048Y-33080810D01*
X41719286Y-33157000D01*
X41766905Y-33233190D01*
X41814524Y-33385571D01*
X41814524Y-33614143D01*
X41766905Y-33766524D01*
X41719286Y-33842714D01*
X41624048Y-33918905D01*
X41243095Y-33918905D01*
X42243095Y-34680810D02*
X42243095Y-33080810D01*
X42909761Y-33080810D02*
X43100238Y-33080810D01*
X43195476Y-33157000D01*
X43290714Y-33309381D01*
X43338333Y-33614143D01*
X43338333Y-34147476D01*
X43290714Y-34452238D01*
X43195476Y-34604619D01*
X43100238Y-34680810D01*
X42909761Y-34680810D01*
X42814523Y-34604619D01*
X42719285Y-34452238D01*
X42671666Y-34147476D01*
X42671666Y-33614143D01*
X42719285Y-33309381D01*
X42814523Y-33157000D01*
X42909761Y-33080810D01*
X43671666Y-33080810D02*
X44338333Y-33080810D01*
X43909761Y-34680810D01*
X44624047Y-33080810D02*
X45290714Y-33080810D01*
X44862142Y-34680810D01*
X40243095Y-37170810D02*
X40243095Y-35570810D01*
X40671666Y-35723190D02*
X40719285Y-35647000D01*
X40814523Y-35570810D01*
X41052619Y-35570810D01*
X41147857Y-35647000D01*
X41195476Y-35723190D01*
X41243095Y-35875571D01*
X41243095Y-36027952D01*
X41195476Y-36256524D01*
X40624047Y-37170810D01*
X41243095Y-37170810D01*
X41624047Y-37094619D02*
X41766904Y-37170810D01*
X42005000Y-37170810D01*
X42100238Y-37094619D01*
X42147857Y-37018429D01*
X42195476Y-36866048D01*
X42195476Y-36713667D01*
X42147857Y-36561286D01*
X42100238Y-36485095D01*
X42005000Y-36408905D01*
X41814523Y-36332714D01*
X41719285Y-36256524D01*
X41671666Y-36180333D01*
X41624047Y-36027952D01*
X41624047Y-35875571D01*
X41671666Y-35723190D01*
X41719285Y-35647000D01*
X41814523Y-35570810D01*
X42052619Y-35570810D01*
X42195476Y-35647000D01*
X42385952Y-37323190D02*
X43147857Y-37323190D01*
X43719286Y-36332714D02*
X43385952Y-36332714D01*
X43385952Y-37170810D02*
X43385952Y-35570810D01*
X43862143Y-35570810D01*
X44195476Y-37094619D02*
X44338333Y-37170810D01*
X44576429Y-37170810D01*
X44671667Y-37094619D01*
X44719286Y-37018429D01*
X44766905Y-36866048D01*
X44766905Y-36713667D01*
X44719286Y-36561286D01*
X44671667Y-36485095D01*
X44576429Y-36408905D01*
X44385952Y-36332714D01*
X44290714Y-36256524D01*
X44243095Y-36180333D01*
X44195476Y-36027952D01*
X44195476Y-35875571D01*
X44243095Y-35723190D01*
X44290714Y-35647000D01*
X44385952Y-35570810D01*
X44624048Y-35570810D01*
X44766905Y-35647000D01*
X40243095Y-39660810D02*
X40243095Y-38060810D01*
X40671666Y-38213190D02*
X40719285Y-38137000D01*
X40814523Y-38060810D01*
X41052619Y-38060810D01*
X41147857Y-38137000D01*
X41195476Y-38213190D01*
X41243095Y-38365571D01*
X41243095Y-38517952D01*
X41195476Y-38746524D01*
X40624047Y-39660810D01*
X41243095Y-39660810D01*
X41624047Y-39584619D02*
X41766904Y-39660810D01*
X42005000Y-39660810D01*
X42100238Y-39584619D01*
X42147857Y-39508429D01*
X42195476Y-39356048D01*
X42195476Y-39203667D01*
X42147857Y-39051286D01*
X42100238Y-38975095D01*
X42005000Y-38898905D01*
X41814523Y-38822714D01*
X41719285Y-38746524D01*
X41671666Y-38670333D01*
X41624047Y-38517952D01*
X41624047Y-38365571D01*
X41671666Y-38213190D01*
X41719285Y-38137000D01*
X41814523Y-38060810D01*
X42052619Y-38060810D01*
X42195476Y-38137000D01*
X42385952Y-39813190D02*
X43147857Y-39813190D01*
X43957381Y-39660810D02*
X43624047Y-38898905D01*
X43385952Y-39660810D02*
X43385952Y-38060810D01*
X43766905Y-38060810D01*
X43862143Y-38137000D01*
X43909762Y-38213190D01*
X43957381Y-38365571D01*
X43957381Y-38594143D01*
X43909762Y-38746524D01*
X43862143Y-38822714D01*
X43766905Y-38898905D01*
X43385952Y-38898905D01*
X44290714Y-38060810D02*
X44957381Y-39660810D01*
X44957381Y-38060810D02*
X44290714Y-39660810D01*
X45338333Y-39660810D02*
X45338333Y-38060810D01*
X45576428Y-38060810D01*
X45719286Y-38137000D01*
X45814524Y-38289381D01*
X45862143Y-38441762D01*
X45909762Y-38746524D01*
X45909762Y-38975095D01*
X45862143Y-39279857D01*
X45814524Y-39432238D01*
X45719286Y-39584619D01*
X45576428Y-39660810D01*
X45338333Y-39660810D01*
X40243095Y-40550810D02*
X40243095Y-41846048D01*
X40290714Y-41998429D01*
X40338333Y-42074619D01*
X40433571Y-42150810D01*
X40624048Y-42150810D01*
X40719286Y-42074619D01*
X40766905Y-41998429D01*
X40814524Y-41846048D01*
X40814524Y-40550810D01*
X41243095Y-41693667D02*
X41719286Y-41693667D01*
X41147857Y-42150810D02*
X41481190Y-40550810D01*
X41814524Y-42150810D01*
X42719286Y-42150810D02*
X42385952Y-41388905D01*
X42147857Y-42150810D02*
X42147857Y-40550810D01*
X42528810Y-40550810D01*
X42624048Y-40627000D01*
X42671667Y-40703190D01*
X42719286Y-40855571D01*
X42719286Y-41084143D01*
X42671667Y-41236524D01*
X42624048Y-41312714D01*
X42528810Y-41388905D01*
X42147857Y-41388905D01*
X43005000Y-40550810D02*
X43576429Y-40550810D01*
X43290714Y-42150810D02*
X43290714Y-40550810D01*
X43671667Y-42303190D02*
X44433572Y-42303190D01*
X44528810Y-40550810D02*
X45100239Y-40550810D01*
X44814524Y-42150810D02*
X44814524Y-40550810D01*
X45338334Y-40550810D02*
X46005001Y-42150810D01*
X46005001Y-40550810D02*
X45338334Y-42150810D01*
X40814524Y-44640810D02*
X40481190Y-43878905D01*
X40243095Y-44640810D02*
X40243095Y-43040810D01*
X40624048Y-43040810D01*
X40719286Y-43117000D01*
X40766905Y-43193190D01*
X40814524Y-43345571D01*
X40814524Y-43574143D01*
X40766905Y-43726524D01*
X40719286Y-43802714D01*
X40624048Y-43878905D01*
X40243095Y-43878905D01*
X41195476Y-44564619D02*
X41338333Y-44640810D01*
X41576429Y-44640810D01*
X41671667Y-44564619D01*
X41719286Y-44488429D01*
X41766905Y-44336048D01*
X41766905Y-44183667D01*
X41719286Y-44031286D01*
X41671667Y-43955095D01*
X41576429Y-43878905D01*
X41385952Y-43802714D01*
X41290714Y-43726524D01*
X41243095Y-43650333D01*
X41195476Y-43497952D01*
X41195476Y-43345571D01*
X41243095Y-43193190D01*
X41290714Y-43117000D01*
X41385952Y-43040810D01*
X41624048Y-43040810D01*
X41766905Y-43117000D01*
X42052619Y-43040810D02*
X42624048Y-43040810D01*
X42338333Y-44640810D02*
X42338333Y-43040810D01*
X42719286Y-44793190D02*
X43481191Y-44793190D01*
X43909762Y-43040810D02*
X44100239Y-43040810D01*
X44195477Y-43117000D01*
X44290715Y-43269381D01*
X44338334Y-43574143D01*
X44338334Y-44107476D01*
X44290715Y-44412238D01*
X44195477Y-44564619D01*
X44100239Y-44640810D01*
X43909762Y-44640810D01*
X43814524Y-44564619D01*
X43719286Y-44412238D01*
X43671667Y-44107476D01*
X43671667Y-43574143D01*
X43719286Y-43269381D01*
X43814524Y-43117000D01*
X43909762Y-43040810D01*
X44766905Y-43040810D02*
X44766905Y-44336048D01*
X44814524Y-44488429D01*
X44862143Y-44564619D01*
X44957381Y-44640810D01*
X45147858Y-44640810D01*
X45243096Y-44564619D01*
X45290715Y-44488429D01*
X45338334Y-44336048D01*
X45338334Y-43040810D01*
X45671667Y-43040810D02*
X46243096Y-43040810D01*
X45957381Y-44640810D02*
X45957381Y-43040810D01*
X40766905Y-45607000D02*
X40671667Y-45530810D01*
X40528810Y-45530810D01*
X40385952Y-45607000D01*
X40290714Y-45759381D01*
X40243095Y-45911762D01*
X40195476Y-46216524D01*
X40195476Y-46445095D01*
X40243095Y-46749857D01*
X40290714Y-46902238D01*
X40385952Y-47054619D01*
X40528810Y-47130810D01*
X40624048Y-47130810D01*
X40766905Y-47054619D01*
X40814524Y-46978429D01*
X40814524Y-46445095D01*
X40624048Y-46445095D01*
X41243095Y-47130810D02*
X41243095Y-45530810D01*
X41624048Y-45530810D01*
X41719286Y-45607000D01*
X41766905Y-45683190D01*
X41814524Y-45835571D01*
X41814524Y-46064143D01*
X41766905Y-46216524D01*
X41719286Y-46292714D01*
X41624048Y-46368905D01*
X41243095Y-46368905D01*
X42243095Y-47130810D02*
X42243095Y-45530810D01*
X42909761Y-45530810D02*
X43100238Y-45530810D01*
X43195476Y-45607000D01*
X43290714Y-45759381D01*
X43338333Y-46064143D01*
X43338333Y-46597476D01*
X43290714Y-46902238D01*
X43195476Y-47054619D01*
X43100238Y-47130810D01*
X42909761Y-47130810D01*
X42814523Y-47054619D01*
X42719285Y-46902238D01*
X42671666Y-46597476D01*
X42671666Y-46064143D01*
X42719285Y-45759381D01*
X42814523Y-45607000D01*
X42909761Y-45530810D01*
X44195476Y-46064143D02*
X44195476Y-47130810D01*
X43957380Y-45454619D02*
X43719285Y-46597476D01*
X44338333Y-46597476D01*
X44862142Y-46216524D02*
X44766904Y-46140333D01*
X44719285Y-46064143D01*
X44671666Y-45911762D01*
X44671666Y-45835571D01*
X44719285Y-45683190D01*
X44766904Y-45607000D01*
X44862142Y-45530810D01*
X45052619Y-45530810D01*
X45147857Y-45607000D01*
X45195476Y-45683190D01*
X45243095Y-45835571D01*
X45243095Y-45911762D01*
X45195476Y-46064143D01*
X45147857Y-46140333D01*
X45052619Y-46216524D01*
X44862142Y-46216524D01*
X44766904Y-46292714D01*
X44719285Y-46368905D01*
X44671666Y-46521286D01*
X44671666Y-46826048D01*
X44719285Y-46978429D01*
X44766904Y-47054619D01*
X44862142Y-47130810D01*
X45052619Y-47130810D01*
X45147857Y-47054619D01*
X45195476Y-46978429D01*
X45243095Y-46826048D01*
X45243095Y-46521286D01*
X45195476Y-46368905D01*
X45147857Y-46292714D01*
X45052619Y-46216524D01*
X40766905Y-48097000D02*
X40671667Y-48020810D01*
X40528810Y-48020810D01*
X40385952Y-48097000D01*
X40290714Y-48249381D01*
X40243095Y-48401762D01*
X40195476Y-48706524D01*
X40195476Y-48935095D01*
X40243095Y-49239857D01*
X40290714Y-49392238D01*
X40385952Y-49544619D01*
X40528810Y-49620810D01*
X40624048Y-49620810D01*
X40766905Y-49544619D01*
X40814524Y-49468429D01*
X40814524Y-48935095D01*
X40624048Y-48935095D01*
X41243095Y-49620810D02*
X41243095Y-48020810D01*
X41624048Y-48020810D01*
X41719286Y-48097000D01*
X41766905Y-48173190D01*
X41814524Y-48325571D01*
X41814524Y-48554143D01*
X41766905Y-48706524D01*
X41719286Y-48782714D01*
X41624048Y-48858905D01*
X41243095Y-48858905D01*
X42243095Y-49620810D02*
X42243095Y-48020810D01*
X42909761Y-48020810D02*
X43100238Y-48020810D01*
X43195476Y-48097000D01*
X43290714Y-48249381D01*
X43338333Y-48554143D01*
X43338333Y-49087476D01*
X43290714Y-49392238D01*
X43195476Y-49544619D01*
X43100238Y-49620810D01*
X42909761Y-49620810D01*
X42814523Y-49544619D01*
X42719285Y-49392238D01*
X42671666Y-49087476D01*
X42671666Y-48554143D01*
X42719285Y-48249381D01*
X42814523Y-48097000D01*
X42909761Y-48020810D01*
X44195476Y-48554143D02*
X44195476Y-49620810D01*
X43957380Y-47944619D02*
X43719285Y-49087476D01*
X44338333Y-49087476D01*
X45147857Y-48020810D02*
X44957380Y-48020810D01*
X44862142Y-48097000D01*
X44814523Y-48173190D01*
X44719285Y-48401762D01*
X44671666Y-48706524D01*
X44671666Y-49316048D01*
X44719285Y-49468429D01*
X44766904Y-49544619D01*
X44862142Y-49620810D01*
X45052619Y-49620810D01*
X45147857Y-49544619D01*
X45195476Y-49468429D01*
X45243095Y-49316048D01*
X45243095Y-48935095D01*
X45195476Y-48782714D01*
X45147857Y-48706524D01*
X45052619Y-48630333D01*
X44862142Y-48630333D01*
X44766904Y-48706524D01*
X44719285Y-48782714D01*
X44671666Y-48935095D01*
X40766905Y-50587000D02*
X40671667Y-50510810D01*
X40528810Y-50510810D01*
X40385952Y-50587000D01*
X40290714Y-50739381D01*
X40243095Y-50891762D01*
X40195476Y-51196524D01*
X40195476Y-51425095D01*
X40243095Y-51729857D01*
X40290714Y-51882238D01*
X40385952Y-52034619D01*
X40528810Y-52110810D01*
X40624048Y-52110810D01*
X40766905Y-52034619D01*
X40814524Y-51958429D01*
X40814524Y-51425095D01*
X40624048Y-51425095D01*
X41243095Y-52110810D02*
X41243095Y-50510810D01*
X41624048Y-50510810D01*
X41719286Y-50587000D01*
X41766905Y-50663190D01*
X41814524Y-50815571D01*
X41814524Y-51044143D01*
X41766905Y-51196524D01*
X41719286Y-51272714D01*
X41624048Y-51348905D01*
X41243095Y-51348905D01*
X42243095Y-52110810D02*
X42243095Y-50510810D01*
X42909761Y-50510810D02*
X43100238Y-50510810D01*
X43195476Y-50587000D01*
X43290714Y-50739381D01*
X43338333Y-51044143D01*
X43338333Y-51577476D01*
X43290714Y-51882238D01*
X43195476Y-52034619D01*
X43100238Y-52110810D01*
X42909761Y-52110810D01*
X42814523Y-52034619D01*
X42719285Y-51882238D01*
X42671666Y-51577476D01*
X42671666Y-51044143D01*
X42719285Y-50739381D01*
X42814523Y-50587000D01*
X42909761Y-50510810D01*
X44195476Y-51044143D02*
X44195476Y-52110810D01*
X43957380Y-50434619D02*
X43719285Y-51577476D01*
X44338333Y-51577476D01*
X45147857Y-51044143D02*
X45147857Y-52110810D01*
X44909761Y-50434619D02*
X44671666Y-51577476D01*
X45290714Y-51577476D01*
X40766905Y-53077000D02*
X40671667Y-53000810D01*
X40528810Y-53000810D01*
X40385952Y-53077000D01*
X40290714Y-53229381D01*
X40243095Y-53381762D01*
X40195476Y-53686524D01*
X40195476Y-53915095D01*
X40243095Y-54219857D01*
X40290714Y-54372238D01*
X40385952Y-54524619D01*
X40528810Y-54600810D01*
X40624048Y-54600810D01*
X40766905Y-54524619D01*
X40814524Y-54448429D01*
X40814524Y-53915095D01*
X40624048Y-53915095D01*
X41243095Y-54600810D02*
X41243095Y-53000810D01*
X41814524Y-54600810D01*
X41814524Y-53000810D01*
X42290714Y-54600810D02*
X42290714Y-53000810D01*
X42528809Y-53000810D01*
X42671667Y-53077000D01*
X42766905Y-53229381D01*
X42814524Y-53381762D01*
X42862143Y-53686524D01*
X42862143Y-53915095D01*
X42814524Y-54219857D01*
X42766905Y-54372238D01*
X42671667Y-54524619D01*
X42528809Y-54600810D01*
X42290714Y-54600810D01*
D13*
X84645500Y-83121500D02*
X84645500Y-85661500D01*
X82105500Y-83121500D02*
X82105500Y-85661500D01*
X82105500Y-85661500D02*
X84645500Y-85661500D01*
X84645500Y-85661500D02*
X87185500Y-85661500D01*
X87185500Y-85661500D02*
X87185500Y-83121500D01*
X87185500Y-83121500D02*
X82105500Y-83121500D01*
X83327240Y-41282620D02*
X83327240Y-40584120D01*
X83327240Y-42283380D02*
X83327240Y-42981880D01*
X82026760Y-41282620D02*
X82026760Y-40584120D01*
X82026760Y-42981880D02*
X82026760Y-42283380D01*
X82042000Y-40584120D02*
X83312000Y-40584120D01*
X83312000Y-42981880D02*
X82042000Y-42981880D01*
X85359240Y-41282620D02*
X85359240Y-40584120D01*
X85359240Y-42283380D02*
X85359240Y-42981880D01*
X84058760Y-41282620D02*
X84058760Y-40584120D01*
X84058760Y-42981880D02*
X84058760Y-42283380D01*
X84074000Y-40584120D02*
X85344000Y-40584120D01*
X85344000Y-42981880D02*
X84074000Y-42981880D01*
X83327240Y-62745620D02*
X83327240Y-62047120D01*
X83327240Y-63746380D02*
X83327240Y-64444880D01*
X82026760Y-62745620D02*
X82026760Y-62047120D01*
X82026760Y-64444880D02*
X82026760Y-63746380D01*
X82042000Y-62047120D02*
X83312000Y-62047120D01*
X83312000Y-64444880D02*
X82042000Y-64444880D01*
X85486240Y-62745620D02*
X85486240Y-62047120D01*
X85486240Y-63746380D02*
X85486240Y-64444880D01*
X84185760Y-62745620D02*
X84185760Y-62047120D01*
X84185760Y-64444880D02*
X84185760Y-63746380D01*
X84201000Y-62047120D02*
X85471000Y-62047120D01*
X85471000Y-64444880D02*
X84201000Y-64444880D01*
X45577760Y-78859380D02*
X45577760Y-79557880D01*
X45577760Y-77858620D02*
X45577760Y-77160120D01*
X46878240Y-78859380D02*
X46878240Y-79557880D01*
X46878240Y-77160120D02*
X46878240Y-77858620D01*
X46863000Y-79557880D02*
X45593000Y-79557880D01*
X45593000Y-77160120D02*
X46863000Y-77160120D01*
X43418760Y-78859380D02*
X43418760Y-79557880D01*
X43418760Y-77858620D02*
X43418760Y-77160120D01*
X44719240Y-78859380D02*
X44719240Y-79557880D01*
X44719240Y-77160120D02*
X44719240Y-77858620D01*
X44704000Y-79557880D02*
X43434000Y-79557880D01*
X43434000Y-77160120D02*
X44704000Y-77160120D01*
X45704760Y-66413380D02*
X45704760Y-67111880D01*
X45704760Y-65412620D02*
X45704760Y-64714120D01*
X47005240Y-66413380D02*
X47005240Y-67111880D01*
X47005240Y-64714120D02*
X47005240Y-65412620D01*
X46990000Y-67111880D02*
X45720000Y-67111880D01*
X45720000Y-64714120D02*
X46990000Y-64714120D01*
X43418760Y-66413380D02*
X43418760Y-67111880D01*
X43418760Y-65412620D02*
X43418760Y-64714120D01*
X44719240Y-66413380D02*
X44719240Y-67111880D01*
X44719240Y-64714120D02*
X44719240Y-65412620D01*
X44704000Y-67111880D02*
X43434000Y-67111880D01*
X43434000Y-64714120D02*
X44704000Y-64714120D01*
X31376620Y-78216760D02*
X30678120Y-78216760D01*
X32377380Y-78216760D02*
X33075880Y-78216760D01*
X31376620Y-79517240D02*
X30678120Y-79517240D01*
X33075880Y-79517240D02*
X32377380Y-79517240D01*
X30678120Y-79502000D02*
X30678120Y-78232000D01*
X33075880Y-78232000D02*
X33075880Y-79502000D01*
X40647620Y-82788760D02*
X39949120Y-82788760D01*
X41648380Y-82788760D02*
X42346880Y-82788760D01*
X40647620Y-84089240D02*
X39949120Y-84089240D01*
X42346880Y-84089240D02*
X41648380Y-84089240D01*
X39949120Y-84074000D02*
X39949120Y-82804000D01*
X42346880Y-82804000D02*
X42346880Y-84074000D01*
X40759380Y-92471240D02*
X41457880Y-92471240D01*
X39758620Y-92471240D02*
X39060120Y-92471240D01*
X40759380Y-91170760D02*
X41457880Y-91170760D01*
X39060120Y-91170760D02*
X39758620Y-91170760D01*
X41457880Y-91186000D02*
X41457880Y-92456000D01*
X39060120Y-92456000D02*
X39060120Y-91186000D01*
X34043620Y-89392760D02*
X33345120Y-89392760D01*
X35044380Y-89392760D02*
X35742880Y-89392760D01*
X34043620Y-90693240D02*
X33345120Y-90693240D01*
X35742880Y-90693240D02*
X35044380Y-90693240D01*
X33345120Y-90678000D02*
X33345120Y-89408000D01*
X35742880Y-89408000D02*
X35742880Y-90678000D01*
X59832240Y-46362620D02*
X59832240Y-45664120D01*
X59832240Y-47363380D02*
X59832240Y-48061880D01*
X58531760Y-46362620D02*
X58531760Y-45664120D01*
X58531760Y-48061880D02*
X58531760Y-47363380D01*
X58547000Y-45664120D02*
X59817000Y-45664120D01*
X59817000Y-48061880D02*
X58547000Y-48061880D01*
X58531760Y-51935380D02*
X58531760Y-52633880D01*
X58531760Y-50934620D02*
X58531760Y-50236120D01*
X59832240Y-51935380D02*
X59832240Y-52633880D01*
X59832240Y-50236120D02*
X59832240Y-50934620D01*
X59817000Y-52633880D02*
X58547000Y-52633880D01*
X58547000Y-50236120D02*
X59817000Y-50236120D01*
X97292160Y-84576920D02*
X97292160Y-80777080D01*
X90591640Y-84576920D02*
X95590360Y-84576920D01*
X90594180Y-80777080D02*
X95592900Y-80777080D01*
X97795080Y-85580220D02*
X97795080Y-84480400D01*
X98394520Y-85079840D02*
X97195640Y-85079840D01*
X97292160Y-74924920D02*
X97292160Y-71125080D01*
X90591640Y-74924920D02*
X95590360Y-74924920D01*
X90594180Y-71125080D02*
X95592900Y-71125080D01*
X97795080Y-75928220D02*
X97795080Y-74828400D01*
X98394520Y-75427840D02*
X97195640Y-75427840D01*
X97292160Y-79750920D02*
X97292160Y-75951080D01*
X90591640Y-79750920D02*
X95590360Y-79750920D01*
X90594180Y-75951080D02*
X95592900Y-75951080D01*
X97795080Y-80754220D02*
X97795080Y-79654400D01*
X98394520Y-80253840D02*
X97195640Y-80253840D01*
X85275420Y-77284580D02*
X85275420Y-76385420D01*
X85275420Y-76385420D02*
X84876640Y-76385420D01*
X84876640Y-77284580D02*
X84876640Y-76385420D01*
X85275420Y-77284580D02*
X84876640Y-77284580D01*
X86573360Y-77284580D02*
X86573360Y-76385420D01*
X86573360Y-76385420D02*
X86174580Y-76385420D01*
X86174580Y-77284580D02*
X86174580Y-76385420D01*
X86573360Y-77284580D02*
X86174580Y-77284580D01*
X85725000Y-77284580D02*
X85725000Y-77134720D01*
X85725000Y-77134720D02*
X85425280Y-77134720D01*
X85425280Y-77284580D02*
X85425280Y-77134720D01*
X85725000Y-77284580D02*
X85425280Y-77284580D01*
X85725000Y-76535280D02*
X85725000Y-76385420D01*
X85725000Y-76385420D02*
X85425280Y-76385420D01*
X85425280Y-76535280D02*
X85425280Y-76385420D01*
X85725000Y-76535280D02*
X85425280Y-76535280D01*
X85725000Y-76984860D02*
X85725000Y-76685140D01*
X85725000Y-76685140D02*
X85425280Y-76685140D01*
X85425280Y-76984860D02*
X85425280Y-76685140D01*
X85725000Y-76984860D02*
X85425280Y-76984860D01*
X85275420Y-77233780D02*
X86174580Y-77233780D01*
X85275420Y-76436220D02*
X86174580Y-76436220D01*
D14*
X45834300Y-83124040D02*
X45834300Y-81721960D01*
X45984160Y-83124040D02*
X44185840Y-83124040D01*
X44185840Y-83124040D02*
X44185840Y-81721960D01*
X44185840Y-81721960D02*
X45984160Y-81721960D01*
X45984160Y-81721960D02*
X45984160Y-83124040D01*
X45834300Y-84775040D02*
X45834300Y-83372960D01*
X45984160Y-84775040D02*
X44185840Y-84775040D01*
X44185840Y-84775040D02*
X44185840Y-83372960D01*
X44185840Y-83372960D02*
X45984160Y-83372960D01*
X45984160Y-83372960D02*
X45984160Y-84775040D01*
X93103700Y-88325960D02*
X93103700Y-89728040D01*
X92953840Y-88325960D02*
X94752160Y-88325960D01*
X94752160Y-88325960D02*
X94752160Y-89728040D01*
X94752160Y-89728040D02*
X92953840Y-89728040D01*
X92953840Y-89728040D02*
X92953840Y-88325960D01*
D13*
X87942420Y-89720420D02*
X88841580Y-89720420D01*
X88841580Y-89720420D02*
X88841580Y-89321640D01*
X87942420Y-89321640D02*
X88841580Y-89321640D01*
X87942420Y-89720420D02*
X87942420Y-89321640D01*
X87942420Y-91018360D02*
X88841580Y-91018360D01*
X88841580Y-91018360D02*
X88841580Y-90619580D01*
X87942420Y-90619580D02*
X88841580Y-90619580D01*
X87942420Y-91018360D02*
X87942420Y-90619580D01*
X87942420Y-90170000D02*
X88092280Y-90170000D01*
X88092280Y-90170000D02*
X88092280Y-89870280D01*
X87942420Y-89870280D02*
X88092280Y-89870280D01*
X87942420Y-90170000D02*
X87942420Y-89870280D01*
X88691720Y-90170000D02*
X88841580Y-90170000D01*
X88841580Y-90170000D02*
X88841580Y-89870280D01*
X88691720Y-89870280D02*
X88841580Y-89870280D01*
X88691720Y-90170000D02*
X88691720Y-89870280D01*
X88242140Y-90170000D02*
X88541860Y-90170000D01*
X88541860Y-90170000D02*
X88541860Y-89870280D01*
X88242140Y-89870280D02*
X88541860Y-89870280D01*
X88242140Y-90170000D02*
X88242140Y-89870280D01*
X87993220Y-89720420D02*
X87993220Y-90619580D01*
X88790780Y-89720420D02*
X88790780Y-90619580D01*
X32385000Y-72263000D02*
X30099000Y-72263000D01*
X30099000Y-72263000D02*
X30099000Y-70993000D01*
X30099000Y-70993000D02*
X32385000Y-70993000D01*
X32385000Y-70993000D02*
X32385000Y-72263000D01*
X29083000Y-81407000D02*
X26797000Y-81407000D01*
X26797000Y-81407000D02*
X26797000Y-80137000D01*
X26797000Y-80137000D02*
X29083000Y-80137000D01*
X29083000Y-80137000D02*
X29083000Y-81407000D01*
X32258000Y-84836000D02*
X29972000Y-84836000D01*
X29972000Y-84836000D02*
X29972000Y-83566000D01*
X29972000Y-83566000D02*
X32258000Y-83566000D01*
X32258000Y-83566000D02*
X32258000Y-84836000D01*
X31115000Y-91186000D02*
X28829000Y-91186000D01*
X28829000Y-91186000D02*
X28829000Y-89916000D01*
X28829000Y-89916000D02*
X31115000Y-89916000D01*
X31115000Y-89916000D02*
X31115000Y-91186000D01*
D15*
X57130000Y-23737200D02*
G75*
G03X56730000Y-24137200I0J-400000D01*
G01*
X67730000Y-24137200D02*
G75*
G03X67330000Y-23737200I-400000J0D01*
G01*
X67330000Y-23737200D02*
X57130000Y-23737200D01*
X56730000Y-24487200D02*
X56730000Y-24137200D01*
X67730000Y-24487200D02*
X67730000Y-24137200D01*
X56805000Y-24837200D02*
X56705000Y-24387200D01*
X56927189Y-24961704D02*
G75*
G02X56805000Y-24837200I27811J149504D01*
G01*
X56505000Y-24237200D02*
G75*
G02X56705000Y-24387200I25000J-175000D01*
G01*
X67955000Y-24237200D02*
G75*
G03X67755000Y-24387200I-25000J-175000D01*
G01*
X67655000Y-24837200D02*
X67755000Y-24387200D01*
X69030000Y-24237200D02*
X67955000Y-24237200D01*
X67532811Y-24961704D02*
G75*
G03X67655000Y-24837200I-27811J149504D01*
G01*
X56926951Y-24961388D02*
G75*
G03X67530000Y-24962200I5303049J19924188D01*
G01*
X55430000Y-24237200D02*
X56505000Y-24237200D01*
X69030000Y-36162200D02*
X69030000Y-38737200D01*
X69030000Y-38737200D02*
X55430000Y-38737200D01*
X55430000Y-38737200D02*
X55430000Y-36162200D01*
X55430000Y-24237200D02*
X55430000Y-25712200D01*
X69030000Y-24237200D02*
X69030000Y-25712200D01*
X55430000Y-27862200D02*
X55430000Y-34012200D01*
X69030000Y-34012200D02*
X69030000Y-27862200D01*
D13*
X53213000Y-52959000D02*
X53213000Y-50419000D01*
X55753000Y-52959000D02*
X55753000Y-50419000D01*
X55753000Y-50419000D02*
X53213000Y-50419000D01*
X53213000Y-50419000D02*
X50673000Y-50419000D01*
X50673000Y-50419000D02*
X50673000Y-52959000D01*
X50673000Y-52959000D02*
X55753000Y-52959000D01*
X27940000Y-55118000D02*
X27940000Y-29718000D01*
X22860000Y-32258000D02*
X22860000Y-55118000D01*
X27940000Y-55118000D02*
X22860000Y-55118000D01*
X27940000Y-29718000D02*
X25400000Y-29718000D01*
X22860000Y-29718000D02*
X22860000Y-32258000D01*
X25400000Y-29718000D02*
X25400000Y-32258000D01*
X25400000Y-32258000D02*
X22860000Y-32258000D01*
X22860000Y-29718000D02*
X25400000Y-29718000D01*
X109220000Y-55118000D02*
X109220000Y-29718000D01*
X104140000Y-32258000D02*
X104140000Y-55118000D01*
X109220000Y-55118000D02*
X104140000Y-55118000D01*
X109220000Y-29718000D02*
X106680000Y-29718000D01*
X104140000Y-29718000D02*
X104140000Y-32258000D01*
X106680000Y-29718000D02*
X106680000Y-32258000D01*
X106680000Y-32258000D02*
X104140000Y-32258000D01*
X104140000Y-29718000D02*
X106680000Y-29718000D01*
X81977550Y-74642980D02*
G75*
G03X81977550Y-74642980I-159070J0D01*
G01*
X82677000Y-77089000D02*
X81661000Y-77089000D01*
X82677000Y-74485500D02*
X81661000Y-74485500D01*
X81661000Y-77089000D02*
X81661000Y-74485500D01*
X82677000Y-74485500D02*
X82677000Y-77089000D01*
D16*
X87030560Y-58590180D02*
X86730840Y-58590180D01*
X86730840Y-58590180D02*
X86730840Y-59090560D01*
X87030560Y-59090560D02*
X86730840Y-59090560D01*
X87030560Y-58590180D02*
X87030560Y-59090560D01*
X86382860Y-58590180D02*
X86083140Y-58590180D01*
X86083140Y-58590180D02*
X86083140Y-59090560D01*
X86382860Y-59090560D02*
X86083140Y-59090560D01*
X86382860Y-58590180D02*
X86382860Y-59090560D01*
X85735160Y-58590180D02*
X85435440Y-58590180D01*
X85435440Y-58590180D02*
X85435440Y-59090560D01*
X85735160Y-59090560D02*
X85435440Y-59090560D01*
X85735160Y-58590180D02*
X85735160Y-59090560D01*
X85735160Y-60289440D02*
X85435440Y-60289440D01*
X85435440Y-60289440D02*
X85435440Y-60789820D01*
X85735160Y-60789820D02*
X85435440Y-60789820D01*
X85735160Y-60289440D02*
X85735160Y-60789820D01*
X86382860Y-60289440D02*
X86083140Y-60289440D01*
X86083140Y-60289440D02*
X86083140Y-60789820D01*
X86382860Y-60789820D02*
X86083140Y-60789820D01*
X86382860Y-60289440D02*
X86382860Y-60789820D01*
X87030560Y-60289440D02*
X86730840Y-60289440D01*
X86730840Y-60289440D02*
X86730840Y-60789820D01*
X87030560Y-60789820D02*
X86730840Y-60789820D01*
X87030560Y-60289440D02*
X87030560Y-60789820D01*
D17*
X87231220Y-60238640D02*
X85234780Y-60238640D01*
X85234780Y-60238640D02*
X85234780Y-59141360D01*
X85234780Y-59141360D02*
X87231220Y-59141360D01*
X87231220Y-59141360D02*
X87231220Y-60238640D01*
D13*
X87035671Y-59441080D02*
G75*
G03X87035671Y-59441080I-104171J0D01*
G01*
D16*
X87030560Y-52621180D02*
X86730840Y-52621180D01*
X86730840Y-52621180D02*
X86730840Y-53121560D01*
X87030560Y-53121560D02*
X86730840Y-53121560D01*
X87030560Y-52621180D02*
X87030560Y-53121560D01*
X86382860Y-52621180D02*
X86083140Y-52621180D01*
X86083140Y-52621180D02*
X86083140Y-53121560D01*
X86382860Y-53121560D02*
X86083140Y-53121560D01*
X86382860Y-52621180D02*
X86382860Y-53121560D01*
X85735160Y-52621180D02*
X85435440Y-52621180D01*
X85435440Y-52621180D02*
X85435440Y-53121560D01*
X85735160Y-53121560D02*
X85435440Y-53121560D01*
X85735160Y-52621180D02*
X85735160Y-53121560D01*
X85735160Y-54320440D02*
X85435440Y-54320440D01*
X85435440Y-54320440D02*
X85435440Y-54820820D01*
X85735160Y-54820820D02*
X85435440Y-54820820D01*
X85735160Y-54320440D02*
X85735160Y-54820820D01*
X86382860Y-54320440D02*
X86083140Y-54320440D01*
X86083140Y-54320440D02*
X86083140Y-54820820D01*
X86382860Y-54820820D02*
X86083140Y-54820820D01*
X86382860Y-54320440D02*
X86382860Y-54820820D01*
X87030560Y-54320440D02*
X86730840Y-54320440D01*
X86730840Y-54320440D02*
X86730840Y-54820820D01*
X87030560Y-54820820D02*
X86730840Y-54820820D01*
X87030560Y-54320440D02*
X87030560Y-54820820D01*
D17*
X87231220Y-54269640D02*
X85234780Y-54269640D01*
X85234780Y-54269640D02*
X85234780Y-53172360D01*
X85234780Y-53172360D02*
X87231220Y-53172360D01*
X87231220Y-53172360D02*
X87231220Y-54269640D01*
D13*
X87035671Y-53472080D02*
G75*
G03X87035671Y-53472080I-104171J0D01*
G01*
X80065880Y-87503000D02*
X80772000Y-87503000D01*
X80772000Y-87503000D02*
X80772000Y-86106000D01*
X80772000Y-86106000D02*
X80065880Y-86106000D01*
X78359000Y-87503000D02*
X79065120Y-87503000D01*
X78359000Y-87503000D02*
X78359000Y-86106000D01*
X78359000Y-86106000D02*
X79065120Y-86106000D01*
X80065880Y-85344000D02*
X80772000Y-85344000D01*
X80772000Y-85344000D02*
X80772000Y-83947000D01*
X80772000Y-83947000D02*
X80065880Y-83947000D01*
X78359000Y-85344000D02*
X79065120Y-85344000D01*
X78359000Y-85344000D02*
X78359000Y-83947000D01*
X78359000Y-83947000D02*
X79065120Y-83947000D01*
X86098380Y-75628500D02*
X86804500Y-75628500D01*
X86804500Y-75628500D02*
X86804500Y-74231500D01*
X86804500Y-74231500D02*
X86098380Y-74231500D01*
X84391500Y-75628500D02*
X85097620Y-75628500D01*
X84391500Y-75628500D02*
X84391500Y-74231500D01*
X84391500Y-74231500D02*
X85097620Y-74231500D01*
X79819500Y-75191620D02*
X79819500Y-74485500D01*
X79819500Y-74485500D02*
X78422500Y-74485500D01*
X78422500Y-74485500D02*
X78422500Y-75191620D01*
X79819500Y-76898500D02*
X79819500Y-76192380D01*
X79819500Y-76898500D02*
X78422500Y-76898500D01*
X78422500Y-76898500D02*
X78422500Y-76192380D01*
X79065120Y-78613000D02*
X78359000Y-78613000D01*
X78359000Y-78613000D02*
X78359000Y-80010000D01*
X78359000Y-80010000D02*
X79065120Y-80010000D01*
X80772000Y-78613000D02*
X80065880Y-78613000D01*
X80772000Y-78613000D02*
X80772000Y-80010000D01*
X80772000Y-80010000D02*
X80065880Y-80010000D01*
X83629500Y-59189620D02*
X83629500Y-58483500D01*
X83629500Y-58483500D02*
X82232500Y-58483500D01*
X82232500Y-58483500D02*
X82232500Y-59189620D01*
X83629500Y-60896500D02*
X83629500Y-60190380D01*
X83629500Y-60896500D02*
X82232500Y-60896500D01*
X82232500Y-60896500D02*
X82232500Y-60190380D01*
X88582500Y-60190380D02*
X88582500Y-60896500D01*
X88582500Y-60896500D02*
X89979500Y-60896500D01*
X89979500Y-60896500D02*
X89979500Y-60190380D01*
X88582500Y-58483500D02*
X88582500Y-59189620D01*
X88582500Y-58483500D02*
X89979500Y-58483500D01*
X89979500Y-58483500D02*
X89979500Y-59189620D01*
X91249500Y-60190380D02*
X91249500Y-60896500D01*
X91249500Y-60896500D02*
X92646500Y-60896500D01*
X92646500Y-60896500D02*
X92646500Y-60190380D01*
X91249500Y-58483500D02*
X91249500Y-59189620D01*
X91249500Y-58483500D02*
X92646500Y-58483500D01*
X92646500Y-58483500D02*
X92646500Y-59189620D01*
X81343500Y-59189620D02*
X81343500Y-58483500D01*
X81343500Y-58483500D02*
X79946500Y-58483500D01*
X79946500Y-58483500D02*
X79946500Y-59189620D01*
X81343500Y-60896500D02*
X81343500Y-60190380D01*
X81343500Y-60896500D02*
X79946500Y-60896500D01*
X79946500Y-60896500D02*
X79946500Y-60190380D01*
X83629500Y-53220620D02*
X83629500Y-52514500D01*
X83629500Y-52514500D02*
X82232500Y-52514500D01*
X82232500Y-52514500D02*
X82232500Y-53220620D01*
X83629500Y-54927500D02*
X83629500Y-54221380D01*
X83629500Y-54927500D02*
X82232500Y-54927500D01*
X82232500Y-54927500D02*
X82232500Y-54221380D01*
X88582500Y-54221380D02*
X88582500Y-54927500D01*
X88582500Y-54927500D02*
X89979500Y-54927500D01*
X89979500Y-54927500D02*
X89979500Y-54221380D01*
X88582500Y-52514500D02*
X88582500Y-53220620D01*
X88582500Y-52514500D02*
X89979500Y-52514500D01*
X89979500Y-52514500D02*
X89979500Y-53220620D01*
X91249500Y-54221380D02*
X91249500Y-54927500D01*
X91249500Y-54927500D02*
X92646500Y-54927500D01*
X92646500Y-54927500D02*
X92646500Y-54221380D01*
X91249500Y-52514500D02*
X91249500Y-53220620D01*
X91249500Y-52514500D02*
X92646500Y-52514500D01*
X92646500Y-52514500D02*
X92646500Y-53220620D01*
X81343500Y-53220620D02*
X81343500Y-52514500D01*
X81343500Y-52514500D02*
X79946500Y-52514500D01*
X79946500Y-52514500D02*
X79946500Y-53220620D01*
X81343500Y-54927500D02*
X81343500Y-54221380D01*
X81343500Y-54927500D02*
X79946500Y-54927500D01*
X79946500Y-54927500D02*
X79946500Y-54221380D01*
X36314380Y-84137500D02*
X37020500Y-84137500D01*
X37020500Y-84137500D02*
X37020500Y-82740500D01*
X37020500Y-82740500D02*
X36314380Y-82740500D01*
X34607500Y-84137500D02*
X35313620Y-84137500D01*
X34607500Y-84137500D02*
X34607500Y-82740500D01*
X34607500Y-82740500D02*
X35313620Y-82740500D01*
X38036500Y-80637380D02*
X38036500Y-81343500D01*
X38036500Y-81343500D02*
X39433500Y-81343500D01*
X39433500Y-81343500D02*
X39433500Y-80637380D01*
X38036500Y-78930500D02*
X38036500Y-79636620D01*
X38036500Y-78930500D02*
X39433500Y-78930500D01*
X39433500Y-78930500D02*
X39433500Y-79636620D01*
X32377380Y-81470500D02*
X33083500Y-81470500D01*
X33083500Y-81470500D02*
X33083500Y-80073500D01*
X33083500Y-80073500D02*
X32377380Y-80073500D01*
X30670500Y-81470500D02*
X31376620Y-81470500D01*
X30670500Y-81470500D02*
X30670500Y-80073500D01*
X30670500Y-80073500D02*
X31376620Y-80073500D01*
X53093620Y-48323500D02*
X52387500Y-48323500D01*
X52387500Y-48323500D02*
X52387500Y-49720500D01*
X52387500Y-49720500D02*
X53093620Y-49720500D01*
X54800500Y-48323500D02*
X54094380Y-48323500D01*
X54800500Y-48323500D02*
X54800500Y-49720500D01*
X54800500Y-49720500D02*
X54094380Y-49720500D01*
X91686380Y-91503500D02*
X92392500Y-91503500D01*
X92392500Y-91503500D02*
X92392500Y-90106500D01*
X92392500Y-90106500D02*
X91686380Y-90106500D01*
X89979500Y-91503500D02*
X90685620Y-91503500D01*
X89979500Y-91503500D02*
X89979500Y-90106500D01*
X89979500Y-90106500D02*
X90685620Y-90106500D01*
X84645500Y-88201500D02*
X84645500Y-85661500D01*
X87185500Y-88201500D02*
X87185500Y-85661500D01*
X87185500Y-85661500D02*
X84645500Y-85661500D01*
X84645500Y-85661500D02*
X82105500Y-85661500D01*
X82105500Y-85661500D02*
X82105500Y-88201500D01*
X82105500Y-88201500D02*
X87185500Y-88201500D01*
X84645500Y-83121500D02*
X84645500Y-80581500D01*
X87185500Y-83121500D02*
X87185500Y-80581500D01*
X87185500Y-80581500D02*
X84645500Y-80581500D01*
X84645500Y-80581500D02*
X82105500Y-80581500D01*
X82105500Y-80581500D02*
X82105500Y-83121500D01*
X82105500Y-83121500D02*
X87185500Y-83121500D01*
X84645500Y-80581500D02*
X84645500Y-78041500D01*
X87185500Y-80581500D02*
X87185500Y-78041500D01*
X87185500Y-78041500D02*
X84645500Y-78041500D01*
X84645500Y-78041500D02*
X82105500Y-78041500D01*
X82105500Y-78041500D02*
X82105500Y-80581500D01*
X82105500Y-80581500D02*
X87185500Y-80581500D01*
X32261000Y-73060000D02*
X30261000Y-73060000D01*
X30261000Y-73060000D02*
X30261000Y-75860000D01*
X30261000Y-75860000D02*
X32261000Y-75860000D01*
X32261000Y-75860000D02*
X32261000Y-73060000D01*
X30261000Y-72860000D02*
G75*
G03X30261000Y-72860000I-200000J0D01*
G01*
X32134000Y-85506000D02*
X30134000Y-85506000D01*
X30134000Y-85506000D02*
X30134000Y-88306000D01*
X30134000Y-88306000D02*
X32134000Y-88306000D01*
X32134000Y-88306000D02*
X32134000Y-85506000D01*
X30134000Y-85306000D02*
G75*
G03X30134000Y-85306000I-200000J0D01*
G01*
X69883500Y-77635500D02*
X69883500Y-90745500D01*
X69883500Y-77635500D02*
X75663500Y-77635500D01*
X50663500Y-55245500D02*
X50663500Y-90745500D01*
X75663500Y-55245500D02*
X75663500Y-90745500D01*
X50663500Y-55245500D02*
X75663500Y-55245500D01*
X50663500Y-90745500D02*
X75663500Y-90745500D01*
D17*
X73791140Y-59215720D02*
X73791140Y-76015280D01*
X73791140Y-76015280D02*
X70915860Y-76015280D01*
X70915860Y-76015280D02*
X70915860Y-59215720D01*
X70915860Y-59215720D02*
X73791140Y-59215720D01*
D18*
X73450780Y-74915460D02*
G75*
G03X73450780Y-74915460I-99060J0D01*
G01*
D11*
X34798000Y-78729000D02*
X36798000Y-78729000D01*
X34798000Y-81829000D02*
X36798000Y-81829000D01*
D17*
X33899400Y-78929740D02*
G75*
G03X33899400Y-78929740I-200660J0D01*
G01*
D19*
X35643820Y-74503280D02*
X35544760Y-74503280D01*
X35544760Y-74503280D02*
X35544760Y-74101960D01*
X35544760Y-74101960D02*
X35643820Y-74101960D01*
X35643820Y-74404220D02*
X36045140Y-74404220D01*
X36045140Y-74302620D02*
X35643820Y-74302620D01*
X35643820Y-74203560D02*
X36045140Y-74203560D01*
X36045140Y-74503280D02*
X35643820Y-74503280D01*
X35643820Y-74503280D02*
X35643820Y-74101960D01*
X35643820Y-74101960D02*
X35844480Y-74101960D01*
X33243520Y-75504040D02*
X33042860Y-75504040D01*
X33042860Y-75504040D02*
X33042860Y-74101960D01*
X33042860Y-74101960D02*
X33243520Y-74101960D01*
X34744660Y-74101960D02*
X33944560Y-74101960D01*
X35143440Y-75504040D02*
X33944560Y-75504040D01*
X36045140Y-75504040D02*
X35844480Y-75504040D01*
X36045140Y-75504040D02*
X36045140Y-74101960D01*
X36045140Y-74101960D02*
X35844480Y-74101960D01*
D13*
X37338000Y-90678000D02*
X37338000Y-85090000D01*
X37338000Y-85090000D02*
X37465000Y-85090000D01*
X42926000Y-85598000D02*
X42926000Y-90678000D01*
X42926000Y-90678000D02*
X37338000Y-90678000D01*
X37465000Y-85090000D02*
X42418000Y-85090000D01*
X42418000Y-85090000D02*
X42926000Y-85598000D01*
X42636440Y-85631020D02*
G75*
G03X42636440Y-85631020I-251460J0D01*
G01*
D19*
X35643820Y-86187280D02*
X35544760Y-86187280D01*
X35544760Y-86187280D02*
X35544760Y-85785960D01*
X35544760Y-85785960D02*
X35643820Y-85785960D01*
X35643820Y-86088220D02*
X36045140Y-86088220D01*
X36045140Y-85986620D02*
X35643820Y-85986620D01*
X35643820Y-85887560D02*
X36045140Y-85887560D01*
X36045140Y-86187280D02*
X35643820Y-86187280D01*
X35643820Y-86187280D02*
X35643820Y-85785960D01*
X35643820Y-85785960D02*
X35844480Y-85785960D01*
X33243520Y-87188040D02*
X33042860Y-87188040D01*
X33042860Y-87188040D02*
X33042860Y-85785960D01*
X33042860Y-85785960D02*
X33243520Y-85785960D01*
X34744660Y-85785960D02*
X33944560Y-85785960D01*
X35143440Y-87188040D02*
X33944560Y-87188040D01*
X36045140Y-87188040D02*
X35844480Y-87188040D01*
X36045140Y-87188040D02*
X36045140Y-85785960D01*
X36045140Y-85785960D02*
X35844480Y-85785960D01*
D13*
X102235000Y-66294000D02*
X99187000Y-66294000D01*
X99187000Y-66294000D02*
X99187000Y-73406000D01*
X99187000Y-73406000D02*
X102235000Y-73406000D01*
X105283000Y-66294000D02*
X106045000Y-66294000D01*
X106045000Y-66294000D02*
X108331000Y-67818000D01*
X108331000Y-67818000D02*
X108331000Y-71882000D01*
X108331000Y-71882000D02*
X106045000Y-73406000D01*
X106045000Y-73406000D02*
X105283000Y-73406000D01*
X102235000Y-74041000D02*
X99187000Y-74041000D01*
X99187000Y-74041000D02*
X99187000Y-81153000D01*
X99187000Y-81153000D02*
X102235000Y-81153000D01*
X105283000Y-74041000D02*
X106045000Y-74041000D01*
X106045000Y-74041000D02*
X108331000Y-75565000D01*
X108331000Y-75565000D02*
X108331000Y-79629000D01*
X108331000Y-79629000D02*
X106045000Y-81153000D01*
X106045000Y-81153000D02*
X105283000Y-81153000D01*
D20*
X94071440Y-87459820D02*
X94071440Y-85260180D01*
X94173040Y-85359240D02*
X94973140Y-85359240D01*
X94973140Y-85559900D02*
X94173040Y-85559900D01*
X94173040Y-85460840D02*
X94973140Y-85460840D01*
X94973140Y-85658960D02*
X94173040Y-85658960D01*
X94973140Y-87061040D02*
X94173040Y-87061040D01*
X94173040Y-87160100D02*
X94973140Y-87160100D01*
X94973140Y-87259160D02*
X94173040Y-87259160D01*
X94173040Y-87360760D02*
X94973140Y-87360760D01*
X94173040Y-87459820D02*
X94173040Y-85260180D01*
X94973140Y-85260180D02*
X94973140Y-85658960D01*
X94973140Y-87459820D02*
X94973140Y-87061040D01*
X91970860Y-87459820D02*
X91970860Y-87061040D01*
X91970860Y-85260180D02*
X91970860Y-85658960D01*
X94973140Y-85260180D02*
X91970860Y-85260180D01*
X94973140Y-87459820D02*
X91970860Y-87459820D01*
X26687780Y-76395580D02*
X26687780Y-75895200D01*
X26687780Y-72194420D02*
X26687780Y-72694800D01*
X24688800Y-70495160D02*
X25488900Y-70495160D01*
X24688800Y-78094840D02*
X25488900Y-78094840D01*
X22189440Y-70495160D02*
X22189440Y-78094840D01*
X22189440Y-78094840D02*
X22588220Y-78094840D01*
X22189440Y-70495160D02*
X22588220Y-70495160D01*
X26687780Y-89476580D02*
X26687780Y-88976200D01*
X26687780Y-85275420D02*
X26687780Y-85775800D01*
X24688800Y-83576160D02*
X25488900Y-83576160D01*
X24688800Y-91175840D02*
X25488900Y-91175840D01*
X22189440Y-83576160D02*
X22189440Y-91175840D01*
X22189440Y-91175840D02*
X22588220Y-91175840D01*
X22189440Y-83576160D02*
X22588220Y-83576160D01*
D13*
X104140000Y-57658000D02*
X104140000Y-65278000D01*
X104140000Y-65278000D02*
X109220000Y-65278000D01*
X109220000Y-65278000D02*
X109220000Y-55118000D01*
X109220000Y-55118000D02*
X106680000Y-55118000D01*
X104140000Y-55118000D02*
X104140000Y-57658000D01*
X106680000Y-55118000D02*
X106680000Y-57658000D01*
X106680000Y-57658000D02*
X104140000Y-57658000D01*
X104140000Y-55118000D02*
X106680000Y-55118000D01*
X109220000Y-82804000D02*
X109220000Y-92964000D01*
X110490000Y-82804000D02*
X102870000Y-82804000D01*
X102870000Y-82804000D02*
X102870000Y-92964000D01*
X102870000Y-92964000D02*
X110490000Y-92964000D01*
X110490000Y-92964000D02*
X110490000Y-82804000D01*
X98298000Y-87630000D02*
X100838000Y-87630000D01*
X98298000Y-90170000D02*
X100838000Y-90170000D01*
X100838000Y-90170000D02*
X100838000Y-87630000D01*
X100838000Y-87630000D02*
X100838000Y-85090000D01*
X100838000Y-85090000D02*
X98298000Y-85090000D01*
X98298000Y-85090000D02*
X98298000Y-90170000D01*
X81241000Y-43869000D02*
X81241000Y-43894000D01*
X85891000Y-43869000D02*
X85891000Y-43894000D01*
X85891000Y-50619000D02*
X85891000Y-50594000D01*
X81241000Y-50619000D02*
X81241000Y-50594000D01*
X81241000Y-43869000D02*
X85891000Y-43869000D01*
X81241000Y-50619000D02*
X85891000Y-50619000D01*
X81241000Y-43894000D02*
X80166000Y-43894000D01*
X81685500Y-65586000D02*
X81685500Y-65611000D01*
X86335500Y-65586000D02*
X86335500Y-65611000D01*
X86335500Y-72336000D02*
X86335500Y-72311000D01*
X81685500Y-72336000D02*
X81685500Y-72311000D01*
X81685500Y-65586000D02*
X86335500Y-65586000D01*
X81685500Y-72336000D02*
X86335500Y-72336000D01*
X81685500Y-65611000D02*
X80610500Y-65611000D01*
X47727500Y-75955500D02*
X47727500Y-75930500D01*
X43077500Y-75955500D02*
X43077500Y-75930500D01*
X43077500Y-69205500D02*
X43077500Y-69230500D01*
X47727500Y-69205500D02*
X47727500Y-69230500D01*
X47727500Y-75955500D02*
X43077500Y-75955500D01*
X47727500Y-69205500D02*
X43077500Y-69205500D01*
X47727500Y-75930500D02*
X48802500Y-75930500D01*
X47791000Y-63827000D02*
X47791000Y-63802000D01*
X43141000Y-63827000D02*
X43141000Y-63802000D01*
X43141000Y-57077000D02*
X43141000Y-57102000D01*
X47791000Y-57077000D02*
X47791000Y-57102000D01*
X47791000Y-63827000D02*
X43141000Y-63827000D01*
X47791000Y-57077000D02*
X43141000Y-57077000D01*
X47791000Y-63802000D02*
X48866000Y-63802000D01*
X61776000Y-51270800D02*
X61801000Y-51270800D01*
X61776000Y-46620800D02*
X61801000Y-46620800D01*
X68526000Y-46620800D02*
X68501000Y-46620800D01*
X68526000Y-51270800D02*
X68501000Y-51270800D01*
X61776000Y-51270800D02*
X61776000Y-46620800D01*
X68526000Y-51270800D02*
X68526000Y-46620800D01*
X61801000Y-51270800D02*
X61801000Y-52345800D01*
X87860286Y-84510571D02*
X88003143Y-84558190D01*
X88050762Y-84605810D01*
X88098381Y-84701048D01*
X88098381Y-84843905D01*
X88050762Y-84939143D01*
X88003143Y-84986762D01*
X87907905Y-85034381D01*
X87526952Y-85034381D01*
X87526952Y-84034381D01*
X87860286Y-84034381D01*
X87955524Y-84082000D01*
X88003143Y-84129619D01*
X88050762Y-84224857D01*
X88050762Y-84320095D01*
X88003143Y-84415333D01*
X87955524Y-84462952D01*
X87860286Y-84510571D01*
X87526952Y-84510571D01*
X88384095Y-84034381D02*
X88955524Y-84034381D01*
X88669809Y-85034381D02*
X88669809Y-84034381D01*
X89812667Y-85034381D02*
X89241238Y-85034381D01*
X89526952Y-85034381D02*
X89526952Y-84034381D01*
X89431714Y-84177238D01*
X89336476Y-84272476D01*
X89241238Y-84320095D01*
X82383334Y-39981143D02*
X82335715Y-40028762D01*
X82192858Y-40076381D01*
X82097620Y-40076381D01*
X81954762Y-40028762D01*
X81859524Y-39933524D01*
X81811905Y-39838286D01*
X81764286Y-39647810D01*
X81764286Y-39504952D01*
X81811905Y-39314476D01*
X81859524Y-39219238D01*
X81954762Y-39124000D01*
X82097620Y-39076381D01*
X82192858Y-39076381D01*
X82335715Y-39124000D01*
X82383334Y-39171619D01*
X82764286Y-39171619D02*
X82811905Y-39124000D01*
X82907143Y-39076381D01*
X83145239Y-39076381D01*
X83240477Y-39124000D01*
X83288096Y-39171619D01*
X83335715Y-39266857D01*
X83335715Y-39362095D01*
X83288096Y-39504952D01*
X82716667Y-40076381D01*
X83335715Y-40076381D01*
X84415334Y-39981143D02*
X84367715Y-40028762D01*
X84224858Y-40076381D01*
X84129620Y-40076381D01*
X83986762Y-40028762D01*
X83891524Y-39933524D01*
X83843905Y-39838286D01*
X83796286Y-39647810D01*
X83796286Y-39504952D01*
X83843905Y-39314476D01*
X83891524Y-39219238D01*
X83986762Y-39124000D01*
X84129620Y-39076381D01*
X84224858Y-39076381D01*
X84367715Y-39124000D01*
X84415334Y-39171619D01*
X84748667Y-39076381D02*
X85367715Y-39076381D01*
X85034381Y-39457333D01*
X85177239Y-39457333D01*
X85272477Y-39504952D01*
X85320096Y-39552571D01*
X85367715Y-39647810D01*
X85367715Y-39885905D01*
X85320096Y-39981143D01*
X85272477Y-40028762D01*
X85177239Y-40076381D01*
X84891524Y-40076381D01*
X84796286Y-40028762D01*
X84748667Y-39981143D01*
X81637143Y-63412666D02*
X81684762Y-63460285D01*
X81732381Y-63603142D01*
X81732381Y-63698380D01*
X81684762Y-63841238D01*
X81589524Y-63936476D01*
X81494286Y-63984095D01*
X81303810Y-64031714D01*
X81160952Y-64031714D01*
X80970476Y-63984095D01*
X80875238Y-63936476D01*
X80780000Y-63841238D01*
X80732381Y-63698380D01*
X80732381Y-63603142D01*
X80780000Y-63460285D01*
X80827619Y-63412666D01*
X80732381Y-62555523D02*
X80732381Y-62746000D01*
X80780000Y-62841238D01*
X80827619Y-62888857D01*
X80970476Y-62984095D01*
X81160952Y-63031714D01*
X81541905Y-63031714D01*
X81637143Y-62984095D01*
X81684762Y-62936476D01*
X81732381Y-62841238D01*
X81732381Y-62650761D01*
X81684762Y-62555523D01*
X81637143Y-62507904D01*
X81541905Y-62460285D01*
X81303810Y-62460285D01*
X81208571Y-62507904D01*
X81160952Y-62555523D01*
X81113333Y-62650761D01*
X81113333Y-62841238D01*
X81160952Y-62936476D01*
X81208571Y-62984095D01*
X81303810Y-63031714D01*
X86717143Y-63412666D02*
X86764762Y-63460285D01*
X86812381Y-63603142D01*
X86812381Y-63698380D01*
X86764762Y-63841238D01*
X86669524Y-63936476D01*
X86574286Y-63984095D01*
X86383810Y-64031714D01*
X86240952Y-64031714D01*
X86050476Y-63984095D01*
X85955238Y-63936476D01*
X85860000Y-63841238D01*
X85812381Y-63698380D01*
X85812381Y-63603142D01*
X85860000Y-63460285D01*
X85907619Y-63412666D01*
X85812381Y-63079333D02*
X85812381Y-62412666D01*
X86812381Y-62841238D01*
X47839334Y-79097143D02*
X47791715Y-79144762D01*
X47648858Y-79192381D01*
X47553620Y-79192381D01*
X47410762Y-79144762D01*
X47315524Y-79049524D01*
X47267905Y-78954286D01*
X47220286Y-78763810D01*
X47220286Y-78620952D01*
X47267905Y-78430476D01*
X47315524Y-78335238D01*
X47410762Y-78240000D01*
X47553620Y-78192381D01*
X47648858Y-78192381D01*
X47791715Y-78240000D01*
X47839334Y-78287619D01*
X48410762Y-78620952D02*
X48315524Y-78573333D01*
X48267905Y-78525714D01*
X48220286Y-78430476D01*
X48220286Y-78382857D01*
X48267905Y-78287619D01*
X48315524Y-78240000D01*
X48410762Y-78192381D01*
X48601239Y-78192381D01*
X48696477Y-78240000D01*
X48744096Y-78287619D01*
X48791715Y-78382857D01*
X48791715Y-78430476D01*
X48744096Y-78525714D01*
X48696477Y-78573333D01*
X48601239Y-78620952D01*
X48410762Y-78620952D01*
X48315524Y-78668571D01*
X48267905Y-78716190D01*
X48220286Y-78811429D01*
X48220286Y-79001905D01*
X48267905Y-79097143D01*
X48315524Y-79144762D01*
X48410762Y-79192381D01*
X48601239Y-79192381D01*
X48696477Y-79144762D01*
X48744096Y-79097143D01*
X48791715Y-79001905D01*
X48791715Y-78811429D01*
X48744096Y-78716190D01*
X48696477Y-78668571D01*
X48601239Y-78620952D01*
X42251334Y-79097143D02*
X42203715Y-79144762D01*
X42060858Y-79192381D01*
X41965620Y-79192381D01*
X41822762Y-79144762D01*
X41727524Y-79049524D01*
X41679905Y-78954286D01*
X41632286Y-78763810D01*
X41632286Y-78620952D01*
X41679905Y-78430476D01*
X41727524Y-78335238D01*
X41822762Y-78240000D01*
X41965620Y-78192381D01*
X42060858Y-78192381D01*
X42203715Y-78240000D01*
X42251334Y-78287619D01*
X42727524Y-79192381D02*
X42918000Y-79192381D01*
X43013239Y-79144762D01*
X43060858Y-79097143D01*
X43156096Y-78954286D01*
X43203715Y-78763810D01*
X43203715Y-78382857D01*
X43156096Y-78287619D01*
X43108477Y-78240000D01*
X43013239Y-78192381D01*
X42822762Y-78192381D01*
X42727524Y-78240000D01*
X42679905Y-78287619D01*
X42632286Y-78382857D01*
X42632286Y-78620952D01*
X42679905Y-78716190D01*
X42727524Y-78763810D01*
X42822762Y-78811429D01*
X43013239Y-78811429D01*
X43108477Y-78763810D01*
X43156096Y-78716190D01*
X43203715Y-78620952D01*
X47871143Y-66397143D02*
X47823524Y-66444762D01*
X47680667Y-66492381D01*
X47585429Y-66492381D01*
X47442571Y-66444762D01*
X47347333Y-66349524D01*
X47299714Y-66254286D01*
X47252095Y-66063810D01*
X47252095Y-65920952D01*
X47299714Y-65730476D01*
X47347333Y-65635238D01*
X47442571Y-65540000D01*
X47585429Y-65492381D01*
X47680667Y-65492381D01*
X47823524Y-65540000D01*
X47871143Y-65587619D01*
X48823524Y-66492381D02*
X48252095Y-66492381D01*
X48537809Y-66492381D02*
X48537809Y-65492381D01*
X48442571Y-65635238D01*
X48347333Y-65730476D01*
X48252095Y-65778095D01*
X49442571Y-65492381D02*
X49537810Y-65492381D01*
X49633048Y-65540000D01*
X49680667Y-65587619D01*
X49728286Y-65682857D01*
X49775905Y-65873333D01*
X49775905Y-66111429D01*
X49728286Y-66301905D01*
X49680667Y-66397143D01*
X49633048Y-66444762D01*
X49537810Y-66492381D01*
X49442571Y-66492381D01*
X49347333Y-66444762D01*
X49299714Y-66397143D01*
X49252095Y-66301905D01*
X49204476Y-66111429D01*
X49204476Y-65873333D01*
X49252095Y-65682857D01*
X49299714Y-65587619D01*
X49347333Y-65540000D01*
X49442571Y-65492381D01*
X41013143Y-66397143D02*
X40965524Y-66444762D01*
X40822667Y-66492381D01*
X40727429Y-66492381D01*
X40584571Y-66444762D01*
X40489333Y-66349524D01*
X40441714Y-66254286D01*
X40394095Y-66063810D01*
X40394095Y-65920952D01*
X40441714Y-65730476D01*
X40489333Y-65635238D01*
X40584571Y-65540000D01*
X40727429Y-65492381D01*
X40822667Y-65492381D01*
X40965524Y-65540000D01*
X41013143Y-65587619D01*
X41965524Y-66492381D02*
X41394095Y-66492381D01*
X41679809Y-66492381D02*
X41679809Y-65492381D01*
X41584571Y-65635238D01*
X41489333Y-65730476D01*
X41394095Y-65778095D01*
X42917905Y-66492381D02*
X42346476Y-66492381D01*
X42632190Y-66492381D02*
X42632190Y-65492381D01*
X42536952Y-65635238D01*
X42441714Y-65730476D01*
X42346476Y-65778095D01*
X30329143Y-79382857D02*
X30376762Y-79430476D01*
X30424381Y-79573333D01*
X30424381Y-79668571D01*
X30376762Y-79811429D01*
X30281524Y-79906667D01*
X30186286Y-79954286D01*
X29995810Y-80001905D01*
X29852952Y-80001905D01*
X29662476Y-79954286D01*
X29567238Y-79906667D01*
X29472000Y-79811429D01*
X29424381Y-79668571D01*
X29424381Y-79573333D01*
X29472000Y-79430476D01*
X29519619Y-79382857D01*
X30424381Y-78430476D02*
X30424381Y-79001905D01*
X30424381Y-78716191D02*
X29424381Y-78716191D01*
X29567238Y-78811429D01*
X29662476Y-78906667D01*
X29710095Y-79001905D01*
X29519619Y-78049524D02*
X29472000Y-78001905D01*
X29424381Y-77906667D01*
X29424381Y-77668571D01*
X29472000Y-77573333D01*
X29519619Y-77525714D01*
X29614857Y-77478095D01*
X29710095Y-77478095D01*
X29852952Y-77525714D01*
X30424381Y-78097143D01*
X30424381Y-77478095D01*
X40505143Y-82399143D02*
X40457524Y-82446762D01*
X40314667Y-82494381D01*
X40219429Y-82494381D01*
X40076571Y-82446762D01*
X39981333Y-82351524D01*
X39933714Y-82256286D01*
X39886095Y-82065810D01*
X39886095Y-81922952D01*
X39933714Y-81732476D01*
X39981333Y-81637238D01*
X40076571Y-81542000D01*
X40219429Y-81494381D01*
X40314667Y-81494381D01*
X40457524Y-81542000D01*
X40505143Y-81589619D01*
X41457524Y-82494381D02*
X40886095Y-82494381D01*
X41171809Y-82494381D02*
X41171809Y-81494381D01*
X41076571Y-81637238D01*
X40981333Y-81732476D01*
X40886095Y-81780095D01*
X41790857Y-81494381D02*
X42409905Y-81494381D01*
X42076571Y-81875333D01*
X42219429Y-81875333D01*
X42314667Y-81922952D01*
X42362286Y-81970571D01*
X42409905Y-82065810D01*
X42409905Y-82303905D01*
X42362286Y-82399143D01*
X42314667Y-82446762D01*
X42219429Y-82494381D01*
X41933714Y-82494381D01*
X41838476Y-82446762D01*
X41790857Y-82399143D01*
X42283143Y-92051143D02*
X42235524Y-92098762D01*
X42092667Y-92146381D01*
X41997429Y-92146381D01*
X41854571Y-92098762D01*
X41759333Y-92003524D01*
X41711714Y-91908286D01*
X41664095Y-91717810D01*
X41664095Y-91574952D01*
X41711714Y-91384476D01*
X41759333Y-91289238D01*
X41854571Y-91194000D01*
X41997429Y-91146381D01*
X42092667Y-91146381D01*
X42235524Y-91194000D01*
X42283143Y-91241619D01*
X43235524Y-92146381D02*
X42664095Y-92146381D01*
X42949809Y-92146381D02*
X42949809Y-91146381D01*
X42854571Y-91289238D01*
X42759333Y-91384476D01*
X42664095Y-91432095D01*
X44092667Y-91479714D02*
X44092667Y-92146381D01*
X43854571Y-91098762D02*
X43616476Y-91813048D01*
X44235524Y-91813048D01*
X33901143Y-91797143D02*
X33853524Y-91844762D01*
X33710667Y-91892381D01*
X33615429Y-91892381D01*
X33472571Y-91844762D01*
X33377333Y-91749524D01*
X33329714Y-91654286D01*
X33282095Y-91463810D01*
X33282095Y-91320952D01*
X33329714Y-91130476D01*
X33377333Y-91035238D01*
X33472571Y-90940000D01*
X33615429Y-90892381D01*
X33710667Y-90892381D01*
X33853524Y-90940000D01*
X33901143Y-90987619D01*
X34853524Y-91892381D02*
X34282095Y-91892381D01*
X34567809Y-91892381D02*
X34567809Y-90892381D01*
X34472571Y-91035238D01*
X34377333Y-91130476D01*
X34282095Y-91178095D01*
X35758286Y-90892381D02*
X35282095Y-90892381D01*
X35234476Y-91368571D01*
X35282095Y-91320952D01*
X35377333Y-91273333D01*
X35615429Y-91273333D01*
X35710667Y-91320952D01*
X35758286Y-91368571D01*
X35805905Y-91463810D01*
X35805905Y-91701905D01*
X35758286Y-91797143D01*
X35710667Y-91844762D01*
X35615429Y-91892381D01*
X35377333Y-91892381D01*
X35282095Y-91844762D01*
X35234476Y-91797143D01*
X58475643Y-45188143D02*
X58428024Y-45235762D01*
X58285167Y-45283381D01*
X58189929Y-45283381D01*
X58047071Y-45235762D01*
X57951833Y-45140524D01*
X57904214Y-45045286D01*
X57856595Y-44854810D01*
X57856595Y-44711952D01*
X57904214Y-44521476D01*
X57951833Y-44426238D01*
X58047071Y-44331000D01*
X58189929Y-44283381D01*
X58285167Y-44283381D01*
X58428024Y-44331000D01*
X58475643Y-44378619D01*
X59428024Y-45283381D02*
X58856595Y-45283381D01*
X59142309Y-45283381D02*
X59142309Y-44283381D01*
X59047071Y-44426238D01*
X58951833Y-44521476D01*
X58856595Y-44569095D01*
X60285167Y-44283381D02*
X60094690Y-44283381D01*
X59999452Y-44331000D01*
X59951833Y-44378619D01*
X59856595Y-44521476D01*
X59808976Y-44711952D01*
X59808976Y-45092905D01*
X59856595Y-45188143D01*
X59904214Y-45235762D01*
X59999452Y-45283381D01*
X60189929Y-45283381D01*
X60285167Y-45235762D01*
X60332786Y-45188143D01*
X60380405Y-45092905D01*
X60380405Y-44854810D01*
X60332786Y-44759571D01*
X60285167Y-44711952D01*
X60189929Y-44664333D01*
X59999452Y-44664333D01*
X59904214Y-44711952D01*
X59856595Y-44759571D01*
X59808976Y-44854810D01*
X58602643Y-53760643D02*
X58555024Y-53808262D01*
X58412167Y-53855881D01*
X58316929Y-53855881D01*
X58174071Y-53808262D01*
X58078833Y-53713024D01*
X58031214Y-53617786D01*
X57983595Y-53427310D01*
X57983595Y-53284452D01*
X58031214Y-53093976D01*
X58078833Y-52998738D01*
X58174071Y-52903500D01*
X58316929Y-52855881D01*
X58412167Y-52855881D01*
X58555024Y-52903500D01*
X58602643Y-52951119D01*
X59555024Y-53855881D02*
X58983595Y-53855881D01*
X59269309Y-53855881D02*
X59269309Y-52855881D01*
X59174071Y-52998738D01*
X59078833Y-53093976D01*
X58983595Y-53141595D01*
X59888357Y-52855881D02*
X60555024Y-52855881D01*
X60126452Y-53855881D01*
X98401143Y-83192857D02*
X98448762Y-83240476D01*
X98496381Y-83383333D01*
X98496381Y-83478571D01*
X98448762Y-83621429D01*
X98353524Y-83716667D01*
X98258286Y-83764286D01*
X98067810Y-83811905D01*
X97924952Y-83811905D01*
X97734476Y-83764286D01*
X97639238Y-83716667D01*
X97544000Y-83621429D01*
X97496381Y-83478571D01*
X97496381Y-83383333D01*
X97544000Y-83240476D01*
X97591619Y-83192857D01*
X98496381Y-82240476D02*
X98496381Y-82811905D01*
X98496381Y-82526191D02*
X97496381Y-82526191D01*
X97639238Y-82621429D01*
X97734476Y-82716667D01*
X97782095Y-82811905D01*
X98496381Y-81764286D02*
X98496381Y-81573810D01*
X98448762Y-81478571D01*
X98401143Y-81430952D01*
X98258286Y-81335714D01*
X98067810Y-81288095D01*
X97686857Y-81288095D01*
X97591619Y-81335714D01*
X97544000Y-81383333D01*
X97496381Y-81478571D01*
X97496381Y-81669048D01*
X97544000Y-81764286D01*
X97591619Y-81811905D01*
X97686857Y-81859524D01*
X97924952Y-81859524D01*
X98020190Y-81811905D01*
X98067810Y-81764286D01*
X98115429Y-81669048D01*
X98115429Y-81478571D01*
X98067810Y-81383333D01*
X98020190Y-81335714D01*
X97924952Y-81288095D01*
X97411588Y-85148729D02*
X98173493Y-85148729D01*
X97792541Y-85529681D02*
X97792541Y-84767776D01*
X98401143Y-73540857D02*
X98448762Y-73588476D01*
X98496381Y-73731333D01*
X98496381Y-73826571D01*
X98448762Y-73969429D01*
X98353524Y-74064667D01*
X98258286Y-74112286D01*
X98067810Y-74159905D01*
X97924952Y-74159905D01*
X97734476Y-74112286D01*
X97639238Y-74064667D01*
X97544000Y-73969429D01*
X97496381Y-73826571D01*
X97496381Y-73731333D01*
X97544000Y-73588476D01*
X97591619Y-73540857D01*
X97591619Y-73159905D02*
X97544000Y-73112286D01*
X97496381Y-73017048D01*
X97496381Y-72778952D01*
X97544000Y-72683714D01*
X97591619Y-72636095D01*
X97686857Y-72588476D01*
X97782095Y-72588476D01*
X97924952Y-72636095D01*
X98496381Y-73207524D01*
X98496381Y-72588476D01*
X97496381Y-71969429D02*
X97496381Y-71874190D01*
X97544000Y-71778952D01*
X97591619Y-71731333D01*
X97686857Y-71683714D01*
X97877333Y-71636095D01*
X98115429Y-71636095D01*
X98305905Y-71683714D01*
X98401143Y-71731333D01*
X98448762Y-71778952D01*
X98496381Y-71874190D01*
X98496381Y-71969429D01*
X98448762Y-72064667D01*
X98401143Y-72112286D01*
X98305905Y-72159905D01*
X98115429Y-72207524D01*
X97877333Y-72207524D01*
X97686857Y-72159905D01*
X97591619Y-72112286D01*
X97544000Y-72064667D01*
X97496381Y-71969429D01*
X97411588Y-75496729D02*
X98173493Y-75496729D01*
X97792541Y-75877681D02*
X97792541Y-75115776D01*
X98401143Y-78620857D02*
X98448762Y-78668476D01*
X98496381Y-78811333D01*
X98496381Y-78906571D01*
X98448762Y-79049429D01*
X98353524Y-79144667D01*
X98258286Y-79192286D01*
X98067810Y-79239905D01*
X97924952Y-79239905D01*
X97734476Y-79192286D01*
X97639238Y-79144667D01*
X97544000Y-79049429D01*
X97496381Y-78906571D01*
X97496381Y-78811333D01*
X97544000Y-78668476D01*
X97591619Y-78620857D01*
X97591619Y-78239905D02*
X97544000Y-78192286D01*
X97496381Y-78097048D01*
X97496381Y-77858952D01*
X97544000Y-77763714D01*
X97591619Y-77716095D01*
X97686857Y-77668476D01*
X97782095Y-77668476D01*
X97924952Y-77716095D01*
X98496381Y-78287524D01*
X98496381Y-77668476D01*
X98496381Y-76716095D02*
X98496381Y-77287524D01*
X98496381Y-77001810D02*
X97496381Y-77001810D01*
X97639238Y-77097048D01*
X97734476Y-77192286D01*
X97782095Y-77287524D01*
X97411588Y-80322729D02*
X98173493Y-80322729D01*
X97792541Y-80703681D02*
X97792541Y-79941776D01*
X87272905Y-77287381D02*
X87272905Y-76287381D01*
X87511000Y-76287381D01*
X87653858Y-76335000D01*
X87749096Y-76430238D01*
X87796715Y-76525476D01*
X87844334Y-76715952D01*
X87844334Y-76858810D01*
X87796715Y-77049286D01*
X87749096Y-77144524D01*
X87653858Y-77239762D01*
X87511000Y-77287381D01*
X87272905Y-77287381D01*
X88796715Y-77287381D02*
X88225286Y-77287381D01*
X88511000Y-77287381D02*
X88511000Y-76287381D01*
X88415762Y-76430238D01*
X88320524Y-76525476D01*
X88225286Y-76573095D01*
D18*
X47389143Y-82985429D02*
X47389143Y-81461429D01*
X47752000Y-81461429D01*
X47969715Y-81534000D01*
X48114857Y-81679143D01*
X48187429Y-81824286D01*
X48260000Y-82114571D01*
X48260000Y-82332286D01*
X48187429Y-82622571D01*
X48114857Y-82767714D01*
X47969715Y-82912857D01*
X47752000Y-82985429D01*
X47389143Y-82985429D01*
X48840572Y-81606571D02*
X48913143Y-81534000D01*
X49058286Y-81461429D01*
X49421143Y-81461429D01*
X49566286Y-81534000D01*
X49638857Y-81606571D01*
X49711429Y-81751714D01*
X49711429Y-81896857D01*
X49638857Y-82114571D01*
X48768000Y-82985429D01*
X49711429Y-82985429D01*
X47389143Y-85017429D02*
X47389143Y-83493429D01*
X47752000Y-83493429D01*
X47969715Y-83566000D01*
X48114857Y-83711143D01*
X48187429Y-83856286D01*
X48260000Y-84146571D01*
X48260000Y-84364286D01*
X48187429Y-84654571D01*
X48114857Y-84799714D01*
X47969715Y-84944857D01*
X47752000Y-85017429D01*
X47389143Y-85017429D01*
X48768000Y-83493429D02*
X49711429Y-83493429D01*
X49203429Y-84074000D01*
X49421143Y-84074000D01*
X49566286Y-84146571D01*
X49638857Y-84219143D01*
X49711429Y-84364286D01*
X49711429Y-84727143D01*
X49638857Y-84872286D01*
X49566286Y-84944857D01*
X49421143Y-85017429D01*
X48985715Y-85017429D01*
X48840572Y-84944857D01*
X48768000Y-84872286D01*
X93871143Y-91621429D02*
X93871143Y-90097429D01*
X94234000Y-90097429D01*
X94451715Y-90170000D01*
X94596857Y-90315143D01*
X94669429Y-90460286D01*
X94742000Y-90750571D01*
X94742000Y-90968286D01*
X94669429Y-91258571D01*
X94596857Y-91403714D01*
X94451715Y-91548857D01*
X94234000Y-91621429D01*
X93871143Y-91621429D01*
X96048286Y-90605429D02*
X96048286Y-91621429D01*
X95685429Y-90024857D02*
X95322572Y-91113429D01*
X96266000Y-91113429D01*
D13*
X87907905Y-88844381D02*
X87907905Y-87844381D01*
X88146000Y-87844381D01*
X88288858Y-87892000D01*
X88384096Y-87987238D01*
X88431715Y-88082476D01*
X88479334Y-88272952D01*
X88479334Y-88415810D01*
X88431715Y-88606286D01*
X88384096Y-88701524D01*
X88288858Y-88796762D01*
X88146000Y-88844381D01*
X87907905Y-88844381D01*
X89384096Y-87844381D02*
X88907905Y-87844381D01*
X88860286Y-88320571D01*
X88907905Y-88272952D01*
X89003143Y-88225333D01*
X89241239Y-88225333D01*
X89336477Y-88272952D01*
X89384096Y-88320571D01*
X89431715Y-88415810D01*
X89431715Y-88653905D01*
X89384096Y-88749143D01*
X89336477Y-88796762D01*
X89241239Y-88844381D01*
X89003143Y-88844381D01*
X88907905Y-88796762D01*
X88860286Y-88749143D01*
X30408667Y-70032571D02*
X30075333Y-70032571D01*
X30075333Y-70556381D02*
X30075333Y-69556381D01*
X30551524Y-69556381D01*
X31265810Y-70032571D02*
X31408667Y-70080190D01*
X31456286Y-70127810D01*
X31503905Y-70223048D01*
X31503905Y-70365905D01*
X31456286Y-70461143D01*
X31408667Y-70508762D01*
X31313429Y-70556381D01*
X30932476Y-70556381D01*
X30932476Y-69556381D01*
X31265810Y-69556381D01*
X31361048Y-69604000D01*
X31408667Y-69651619D01*
X31456286Y-69746857D01*
X31456286Y-69842095D01*
X31408667Y-69937333D01*
X31361048Y-69984952D01*
X31265810Y-70032571D01*
X30932476Y-70032571D01*
X32456286Y-70556381D02*
X31884857Y-70556381D01*
X32170571Y-70556381D02*
X32170571Y-69556381D01*
X32075333Y-69699238D01*
X31980095Y-69794476D01*
X31884857Y-69842095D01*
X27106667Y-82224571D02*
X26773333Y-82224571D01*
X26773333Y-82748381D02*
X26773333Y-81748381D01*
X27249524Y-81748381D01*
X27963810Y-82224571D02*
X28106667Y-82272190D01*
X28154286Y-82319810D01*
X28201905Y-82415048D01*
X28201905Y-82557905D01*
X28154286Y-82653143D01*
X28106667Y-82700762D01*
X28011429Y-82748381D01*
X27630476Y-82748381D01*
X27630476Y-81748381D01*
X27963810Y-81748381D01*
X28059048Y-81796000D01*
X28106667Y-81843619D01*
X28154286Y-81938857D01*
X28154286Y-82034095D01*
X28106667Y-82129333D01*
X28059048Y-82176952D01*
X27963810Y-82224571D01*
X27630476Y-82224571D01*
X28582857Y-81843619D02*
X28630476Y-81796000D01*
X28725714Y-81748381D01*
X28963810Y-81748381D01*
X29059048Y-81796000D01*
X29106667Y-81843619D01*
X29154286Y-81938857D01*
X29154286Y-82034095D01*
X29106667Y-82176952D01*
X28535238Y-82748381D01*
X29154286Y-82748381D01*
X28884571Y-85161333D02*
X28884571Y-85494667D01*
X29408381Y-85494667D02*
X28408381Y-85494667D01*
X28408381Y-85018476D01*
X28884571Y-84304190D02*
X28932190Y-84161333D01*
X28979810Y-84113714D01*
X29075048Y-84066095D01*
X29217905Y-84066095D01*
X29313143Y-84113714D01*
X29360762Y-84161333D01*
X29408381Y-84256571D01*
X29408381Y-84637524D01*
X28408381Y-84637524D01*
X28408381Y-84304190D01*
X28456000Y-84208952D01*
X28503619Y-84161333D01*
X28598857Y-84113714D01*
X28694095Y-84113714D01*
X28789333Y-84161333D01*
X28836952Y-84208952D01*
X28884571Y-84304190D01*
X28884571Y-84637524D01*
X28408381Y-83732762D02*
X28408381Y-83113714D01*
X28789333Y-83447048D01*
X28789333Y-83304190D01*
X28836952Y-83208952D01*
X28884571Y-83161333D01*
X28979810Y-83113714D01*
X29217905Y-83113714D01*
X29313143Y-83161333D01*
X29360762Y-83208952D01*
X29408381Y-83304190D01*
X29408381Y-83589905D01*
X29360762Y-83685143D01*
X29313143Y-83732762D01*
X29265667Y-89209571D02*
X28932333Y-89209571D01*
X28932333Y-89733381D02*
X28932333Y-88733381D01*
X29408524Y-88733381D01*
X30122810Y-89209571D02*
X30265667Y-89257190D01*
X30313286Y-89304810D01*
X30360905Y-89400048D01*
X30360905Y-89542905D01*
X30313286Y-89638143D01*
X30265667Y-89685762D01*
X30170429Y-89733381D01*
X29789476Y-89733381D01*
X29789476Y-88733381D01*
X30122810Y-88733381D01*
X30218048Y-88781000D01*
X30265667Y-88828619D01*
X30313286Y-88923857D01*
X30313286Y-89019095D01*
X30265667Y-89114333D01*
X30218048Y-89161952D01*
X30122810Y-89209571D01*
X29789476Y-89209571D01*
X31218048Y-89066714D02*
X31218048Y-89733381D01*
X30979952Y-88685762D02*
X30741857Y-89400048D01*
X31360905Y-89400048D01*
X69643667Y-37755581D02*
X69643667Y-38469867D01*
X69596047Y-38612724D01*
X69500809Y-38707962D01*
X69357952Y-38755581D01*
X69262714Y-38755581D01*
X70024619Y-37755581D02*
X70643667Y-37755581D01*
X70310333Y-38136533D01*
X70453191Y-38136533D01*
X70548429Y-38184152D01*
X70596048Y-38231771D01*
X70643667Y-38327010D01*
X70643667Y-38565105D01*
X70596048Y-38660343D01*
X70548429Y-38707962D01*
X70453191Y-38755581D01*
X70167476Y-38755581D01*
X70072238Y-38707962D01*
X70024619Y-38660343D01*
X48442667Y-51014381D02*
X48442667Y-51728667D01*
X48395047Y-51871524D01*
X48299809Y-51966762D01*
X48156952Y-52014381D01*
X48061714Y-52014381D01*
X48918857Y-52014381D02*
X48918857Y-51014381D01*
X49299810Y-51014381D01*
X49395048Y-51062000D01*
X49442667Y-51109619D01*
X49490286Y-51204857D01*
X49490286Y-51347714D01*
X49442667Y-51442952D01*
X49395048Y-51490571D01*
X49299810Y-51538190D01*
X48918857Y-51538190D01*
X50442667Y-52014381D02*
X49871238Y-52014381D01*
X50156952Y-52014381D02*
X50156952Y-51014381D01*
X50061714Y-51157238D01*
X49966476Y-51252476D01*
X49871238Y-51300095D01*
X24661905Y-56586381D02*
X24661905Y-55586381D01*
X25042858Y-55586381D01*
X25138096Y-55634000D01*
X25185715Y-55681619D01*
X25233334Y-55776857D01*
X25233334Y-55919714D01*
X25185715Y-56014952D01*
X25138096Y-56062571D01*
X25042858Y-56110190D01*
X24661905Y-56110190D01*
X26185715Y-56586381D02*
X25614286Y-56586381D01*
X25900000Y-56586381D02*
X25900000Y-55586381D01*
X25804762Y-55729238D01*
X25709524Y-55824476D01*
X25614286Y-55872095D01*
X107719905Y-29281381D02*
X107719905Y-28281381D01*
X108100858Y-28281381D01*
X108196096Y-28329000D01*
X108243715Y-28376619D01*
X108291334Y-28471857D01*
X108291334Y-28614714D01*
X108243715Y-28709952D01*
X108196096Y-28757571D01*
X108100858Y-28805190D01*
X107719905Y-28805190D01*
X108672286Y-28376619D02*
X108719905Y-28329000D01*
X108815143Y-28281381D01*
X109053239Y-28281381D01*
X109148477Y-28329000D01*
X109196096Y-28376619D01*
X109243715Y-28471857D01*
X109243715Y-28567095D01*
X109196096Y-28709952D01*
X108624667Y-29281381D01*
X109243715Y-29281381D01*
X82200762Y-74334619D02*
X82105524Y-74287000D01*
X82010286Y-74191762D01*
X81867429Y-74048905D01*
X81772190Y-74001286D01*
X81676952Y-74001286D01*
X81724571Y-74239381D02*
X81629333Y-74191762D01*
X81534095Y-74096524D01*
X81486476Y-73906048D01*
X81486476Y-73572714D01*
X81534095Y-73382238D01*
X81629333Y-73287000D01*
X81724571Y-73239381D01*
X81915048Y-73239381D01*
X82010286Y-73287000D01*
X82105524Y-73382238D01*
X82153143Y-73572714D01*
X82153143Y-73906048D01*
X82105524Y-74096524D01*
X82010286Y-74191762D01*
X81915048Y-74239381D01*
X81724571Y-74239381D01*
X83105524Y-74239381D02*
X82534095Y-74239381D01*
X82819809Y-74239381D02*
X82819809Y-73239381D01*
X82724571Y-73382238D01*
X82629333Y-73477476D01*
X82534095Y-73525095D01*
D21*
X87509048Y-62417476D02*
X87388095Y-62357000D01*
X87267143Y-62236048D01*
X87085714Y-62054619D01*
X86964762Y-61994143D01*
X86843810Y-61994143D01*
X86904286Y-62296524D02*
X86783333Y-62236048D01*
X86662381Y-62115095D01*
X86601905Y-61873190D01*
X86601905Y-61449857D01*
X86662381Y-61207952D01*
X86783333Y-61087000D01*
X86904286Y-61026524D01*
X87146190Y-61026524D01*
X87267143Y-61087000D01*
X87388095Y-61207952D01*
X87448571Y-61449857D01*
X87448571Y-61873190D01*
X87388095Y-62115095D01*
X87267143Y-62236048D01*
X87146190Y-62296524D01*
X86904286Y-62296524D01*
X87932381Y-61147476D02*
X87992857Y-61087000D01*
X88113809Y-61026524D01*
X88416190Y-61026524D01*
X88537143Y-61087000D01*
X88597619Y-61147476D01*
X88658095Y-61268429D01*
X88658095Y-61389381D01*
X88597619Y-61570810D01*
X87871905Y-62296524D01*
X88658095Y-62296524D01*
X85985048Y-56829476D02*
X85864095Y-56769000D01*
X85743143Y-56648048D01*
X85561714Y-56466619D01*
X85440762Y-56406143D01*
X85319810Y-56406143D01*
X85380286Y-56708524D02*
X85259333Y-56648048D01*
X85138381Y-56527095D01*
X85077905Y-56285190D01*
X85077905Y-55861857D01*
X85138381Y-55619952D01*
X85259333Y-55499000D01*
X85380286Y-55438524D01*
X85622190Y-55438524D01*
X85743143Y-55499000D01*
X85864095Y-55619952D01*
X85924571Y-55861857D01*
X85924571Y-56285190D01*
X85864095Y-56527095D01*
X85743143Y-56648048D01*
X85622190Y-56708524D01*
X85380286Y-56708524D01*
X86347905Y-55438524D02*
X87134095Y-55438524D01*
X86710762Y-55922333D01*
X86892190Y-55922333D01*
X87013143Y-55982810D01*
X87073619Y-56043286D01*
X87134095Y-56164238D01*
X87134095Y-56466619D01*
X87073619Y-56587571D01*
X87013143Y-56648048D01*
X86892190Y-56708524D01*
X86529333Y-56708524D01*
X86408381Y-56648048D01*
X86347905Y-56587571D01*
D13*
X76985834Y-87256881D02*
X76652500Y-86780690D01*
X76414405Y-87256881D02*
X76414405Y-86256881D01*
X76795358Y-86256881D01*
X76890596Y-86304500D01*
X76938215Y-86352119D01*
X76985834Y-86447357D01*
X76985834Y-86590214D01*
X76938215Y-86685452D01*
X76890596Y-86733071D01*
X76795358Y-86780690D01*
X76414405Y-86780690D01*
X77938215Y-87256881D02*
X77366786Y-87256881D01*
X77652500Y-87256881D02*
X77652500Y-86256881D01*
X77557262Y-86399738D01*
X77462024Y-86494976D01*
X77366786Y-86542595D01*
X76985834Y-85097881D02*
X76652500Y-84621690D01*
X76414405Y-85097881D02*
X76414405Y-84097881D01*
X76795358Y-84097881D01*
X76890596Y-84145500D01*
X76938215Y-84193119D01*
X76985834Y-84288357D01*
X76985834Y-84431214D01*
X76938215Y-84526452D01*
X76890596Y-84574071D01*
X76795358Y-84621690D01*
X76414405Y-84621690D01*
X77366786Y-84193119D02*
X77414405Y-84145500D01*
X77509643Y-84097881D01*
X77747739Y-84097881D01*
X77842977Y-84145500D01*
X77890596Y-84193119D01*
X77938215Y-84288357D01*
X77938215Y-84383595D01*
X77890596Y-84526452D01*
X77319167Y-85097881D01*
X77938215Y-85097881D01*
X87717334Y-75382381D02*
X87384000Y-74906190D01*
X87145905Y-75382381D02*
X87145905Y-74382381D01*
X87526858Y-74382381D01*
X87622096Y-74430000D01*
X87669715Y-74477619D01*
X87717334Y-74572857D01*
X87717334Y-74715714D01*
X87669715Y-74810952D01*
X87622096Y-74858571D01*
X87526858Y-74906190D01*
X87145905Y-74906190D01*
X88050667Y-74382381D02*
X88669715Y-74382381D01*
X88336381Y-74763333D01*
X88479239Y-74763333D01*
X88574477Y-74810952D01*
X88622096Y-74858571D01*
X88669715Y-74953810D01*
X88669715Y-75191905D01*
X88622096Y-75287143D01*
X88574477Y-75334762D01*
X88479239Y-75382381D01*
X88193524Y-75382381D01*
X88098286Y-75334762D01*
X88050667Y-75287143D01*
X79081334Y-74239381D02*
X78748000Y-73763190D01*
X78509905Y-74239381D02*
X78509905Y-73239381D01*
X78890858Y-73239381D01*
X78986096Y-73287000D01*
X79033715Y-73334619D01*
X79081334Y-73429857D01*
X79081334Y-73572714D01*
X79033715Y-73667952D01*
X78986096Y-73715571D01*
X78890858Y-73763190D01*
X78509905Y-73763190D01*
X79938477Y-73572714D02*
X79938477Y-74239381D01*
X79700381Y-73191762D02*
X79462286Y-73906048D01*
X80081334Y-73906048D01*
X76985834Y-79763881D02*
X76652500Y-79287690D01*
X76414405Y-79763881D02*
X76414405Y-78763881D01*
X76795358Y-78763881D01*
X76890596Y-78811500D01*
X76938215Y-78859119D01*
X76985834Y-78954357D01*
X76985834Y-79097214D01*
X76938215Y-79192452D01*
X76890596Y-79240071D01*
X76795358Y-79287690D01*
X76414405Y-79287690D01*
X77890596Y-78763881D02*
X77414405Y-78763881D01*
X77366786Y-79240071D01*
X77414405Y-79192452D01*
X77509643Y-79144833D01*
X77747739Y-79144833D01*
X77842977Y-79192452D01*
X77890596Y-79240071D01*
X77938215Y-79335310D01*
X77938215Y-79573405D01*
X77890596Y-79668643D01*
X77842977Y-79716262D01*
X77747739Y-79763881D01*
X77509643Y-79763881D01*
X77414405Y-79716262D01*
X77366786Y-79668643D01*
X82713534Y-58288181D02*
X82380200Y-57811990D01*
X82142105Y-58288181D02*
X82142105Y-57288181D01*
X82523058Y-57288181D01*
X82618296Y-57335800D01*
X82665915Y-57383419D01*
X82713534Y-57478657D01*
X82713534Y-57621514D01*
X82665915Y-57716752D01*
X82618296Y-57764371D01*
X82523058Y-57811990D01*
X82142105Y-57811990D01*
X83570677Y-57288181D02*
X83380200Y-57288181D01*
X83284962Y-57335800D01*
X83237343Y-57383419D01*
X83142105Y-57526276D01*
X83094486Y-57716752D01*
X83094486Y-58097705D01*
X83142105Y-58192943D01*
X83189724Y-58240562D01*
X83284962Y-58288181D01*
X83475439Y-58288181D01*
X83570677Y-58240562D01*
X83618296Y-58192943D01*
X83665915Y-58097705D01*
X83665915Y-57859610D01*
X83618296Y-57764371D01*
X83570677Y-57716752D01*
X83475439Y-57669133D01*
X83284962Y-57669133D01*
X83189724Y-57716752D01*
X83142105Y-57764371D01*
X83094486Y-57859610D01*
X88987334Y-58364381D02*
X88654000Y-57888190D01*
X88415905Y-58364381D02*
X88415905Y-57364381D01*
X88796858Y-57364381D01*
X88892096Y-57412000D01*
X88939715Y-57459619D01*
X88987334Y-57554857D01*
X88987334Y-57697714D01*
X88939715Y-57792952D01*
X88892096Y-57840571D01*
X88796858Y-57888190D01*
X88415905Y-57888190D01*
X89320667Y-57364381D02*
X89987334Y-57364381D01*
X89558762Y-58364381D01*
X91781334Y-58364381D02*
X91448000Y-57888190D01*
X91209905Y-58364381D02*
X91209905Y-57364381D01*
X91590858Y-57364381D01*
X91686096Y-57412000D01*
X91733715Y-57459619D01*
X91781334Y-57554857D01*
X91781334Y-57697714D01*
X91733715Y-57792952D01*
X91686096Y-57840571D01*
X91590858Y-57888190D01*
X91209905Y-57888190D01*
X92352762Y-57792952D02*
X92257524Y-57745333D01*
X92209905Y-57697714D01*
X92162286Y-57602476D01*
X92162286Y-57554857D01*
X92209905Y-57459619D01*
X92257524Y-57412000D01*
X92352762Y-57364381D01*
X92543239Y-57364381D01*
X92638477Y-57412000D01*
X92686096Y-57459619D01*
X92733715Y-57554857D01*
X92733715Y-57602476D01*
X92686096Y-57697714D01*
X92638477Y-57745333D01*
X92543239Y-57792952D01*
X92352762Y-57792952D01*
X92257524Y-57840571D01*
X92209905Y-57888190D01*
X92162286Y-57983429D01*
X92162286Y-58173905D01*
X92209905Y-58269143D01*
X92257524Y-58316762D01*
X92352762Y-58364381D01*
X92543239Y-58364381D01*
X92638477Y-58316762D01*
X92686096Y-58269143D01*
X92733715Y-58173905D01*
X92733715Y-57983429D01*
X92686096Y-57888190D01*
X92638477Y-57840571D01*
X92543239Y-57792952D01*
X80478334Y-58262781D02*
X80145000Y-57786590D01*
X79906905Y-58262781D02*
X79906905Y-57262781D01*
X80287858Y-57262781D01*
X80383096Y-57310400D01*
X80430715Y-57358019D01*
X80478334Y-57453257D01*
X80478334Y-57596114D01*
X80430715Y-57691352D01*
X80383096Y-57738971D01*
X80287858Y-57786590D01*
X79906905Y-57786590D01*
X80954524Y-58262781D02*
X81145000Y-58262781D01*
X81240239Y-58215162D01*
X81287858Y-58167543D01*
X81383096Y-58024686D01*
X81430715Y-57834210D01*
X81430715Y-57453257D01*
X81383096Y-57358019D01*
X81335477Y-57310400D01*
X81240239Y-57262781D01*
X81049762Y-57262781D01*
X80954524Y-57310400D01*
X80906905Y-57358019D01*
X80859286Y-57453257D01*
X80859286Y-57691352D01*
X80906905Y-57786590D01*
X80954524Y-57834210D01*
X81049762Y-57881829D01*
X81240239Y-57881829D01*
X81335477Y-57834210D01*
X81383096Y-57786590D01*
X81430715Y-57691352D01*
X82669143Y-52268381D02*
X82335809Y-51792190D01*
X82097714Y-52268381D02*
X82097714Y-51268381D01*
X82478667Y-51268381D01*
X82573905Y-51316000D01*
X82621524Y-51363619D01*
X82669143Y-51458857D01*
X82669143Y-51601714D01*
X82621524Y-51696952D01*
X82573905Y-51744571D01*
X82478667Y-51792190D01*
X82097714Y-51792190D01*
X83621524Y-52268381D02*
X83050095Y-52268381D01*
X83335809Y-52268381D02*
X83335809Y-51268381D01*
X83240571Y-51411238D01*
X83145333Y-51506476D01*
X83050095Y-51554095D01*
X84240571Y-51268381D02*
X84335810Y-51268381D01*
X84431048Y-51316000D01*
X84478667Y-51363619D01*
X84526286Y-51458857D01*
X84573905Y-51649333D01*
X84573905Y-51887429D01*
X84526286Y-52077905D01*
X84478667Y-52173143D01*
X84431048Y-52220762D01*
X84335810Y-52268381D01*
X84240571Y-52268381D01*
X84145333Y-52220762D01*
X84097714Y-52173143D01*
X84050095Y-52077905D01*
X84002476Y-51887429D01*
X84002476Y-51649333D01*
X84050095Y-51458857D01*
X84097714Y-51363619D01*
X84145333Y-51316000D01*
X84240571Y-51268381D01*
X88384143Y-56078381D02*
X88050809Y-55602190D01*
X87812714Y-56078381D02*
X87812714Y-55078381D01*
X88193667Y-55078381D01*
X88288905Y-55126000D01*
X88336524Y-55173619D01*
X88384143Y-55268857D01*
X88384143Y-55411714D01*
X88336524Y-55506952D01*
X88288905Y-55554571D01*
X88193667Y-55602190D01*
X87812714Y-55602190D01*
X89336524Y-56078381D02*
X88765095Y-56078381D01*
X89050809Y-56078381D02*
X89050809Y-55078381D01*
X88955571Y-55221238D01*
X88860333Y-55316476D01*
X88765095Y-55364095D01*
X90288905Y-56078381D02*
X89717476Y-56078381D01*
X90003190Y-56078381D02*
X90003190Y-55078381D01*
X89907952Y-55221238D01*
X89812714Y-55316476D01*
X89717476Y-55364095D01*
X91813143Y-56078381D02*
X91479809Y-55602190D01*
X91241714Y-56078381D02*
X91241714Y-55078381D01*
X91622667Y-55078381D01*
X91717905Y-55126000D01*
X91765524Y-55173619D01*
X91813143Y-55268857D01*
X91813143Y-55411714D01*
X91765524Y-55506952D01*
X91717905Y-55554571D01*
X91622667Y-55602190D01*
X91241714Y-55602190D01*
X92765524Y-56078381D02*
X92194095Y-56078381D01*
X92479809Y-56078381D02*
X92479809Y-55078381D01*
X92384571Y-55221238D01*
X92289333Y-55316476D01*
X92194095Y-55364095D01*
X93146476Y-55173619D02*
X93194095Y-55126000D01*
X93289333Y-55078381D01*
X93527429Y-55078381D01*
X93622667Y-55126000D01*
X93670286Y-55173619D01*
X93717905Y-55268857D01*
X93717905Y-55364095D01*
X93670286Y-55506952D01*
X93098857Y-56078381D01*
X93717905Y-56078381D01*
X79367143Y-52268381D02*
X79033809Y-51792190D01*
X78795714Y-52268381D02*
X78795714Y-51268381D01*
X79176667Y-51268381D01*
X79271905Y-51316000D01*
X79319524Y-51363619D01*
X79367143Y-51458857D01*
X79367143Y-51601714D01*
X79319524Y-51696952D01*
X79271905Y-51744571D01*
X79176667Y-51792190D01*
X78795714Y-51792190D01*
X80319524Y-52268381D02*
X79748095Y-52268381D01*
X80033809Y-52268381D02*
X80033809Y-51268381D01*
X79938571Y-51411238D01*
X79843333Y-51506476D01*
X79748095Y-51554095D01*
X80652857Y-51268381D02*
X81271905Y-51268381D01*
X80938571Y-51649333D01*
X81081429Y-51649333D01*
X81176667Y-51696952D01*
X81224286Y-51744571D01*
X81271905Y-51839810D01*
X81271905Y-52077905D01*
X81224286Y-52173143D01*
X81176667Y-52220762D01*
X81081429Y-52268381D01*
X80795714Y-52268381D01*
X80700476Y-52220762D01*
X80652857Y-52173143D01*
X38298381Y-84208857D02*
X37822190Y-84542191D01*
X38298381Y-84780286D02*
X37298381Y-84780286D01*
X37298381Y-84399333D01*
X37346000Y-84304095D01*
X37393619Y-84256476D01*
X37488857Y-84208857D01*
X37631714Y-84208857D01*
X37726952Y-84256476D01*
X37774571Y-84304095D01*
X37822190Y-84399333D01*
X37822190Y-84780286D01*
X38298381Y-83256476D02*
X38298381Y-83827905D01*
X38298381Y-83542191D02*
X37298381Y-83542191D01*
X37441238Y-83637429D01*
X37536476Y-83732667D01*
X37584095Y-83827905D01*
X37631714Y-82399333D02*
X38298381Y-82399333D01*
X37250762Y-82637429D02*
X37965048Y-82875524D01*
X37965048Y-82256476D01*
X38473143Y-78684381D02*
X38139809Y-78208190D01*
X37901714Y-78684381D02*
X37901714Y-77684381D01*
X38282667Y-77684381D01*
X38377905Y-77732000D01*
X38425524Y-77779619D01*
X38473143Y-77874857D01*
X38473143Y-78017714D01*
X38425524Y-78112952D01*
X38377905Y-78160571D01*
X38282667Y-78208190D01*
X37901714Y-78208190D01*
X39425524Y-78684381D02*
X38854095Y-78684381D01*
X39139809Y-78684381D02*
X39139809Y-77684381D01*
X39044571Y-77827238D01*
X38949333Y-77922476D01*
X38854095Y-77970095D01*
X40330286Y-77684381D02*
X39854095Y-77684381D01*
X39806476Y-78160571D01*
X39854095Y-78112952D01*
X39949333Y-78065333D01*
X40187429Y-78065333D01*
X40282667Y-78112952D01*
X40330286Y-78160571D01*
X40377905Y-78255810D01*
X40377905Y-78493905D01*
X40330286Y-78589143D01*
X40282667Y-78636762D01*
X40187429Y-78684381D01*
X39949333Y-78684381D01*
X39854095Y-78636762D01*
X39806476Y-78589143D01*
X31107143Y-82748381D02*
X30773809Y-82272190D01*
X30535714Y-82748381D02*
X30535714Y-81748381D01*
X30916667Y-81748381D01*
X31011905Y-81796000D01*
X31059524Y-81843619D01*
X31107143Y-81938857D01*
X31107143Y-82081714D01*
X31059524Y-82176952D01*
X31011905Y-82224571D01*
X30916667Y-82272190D01*
X30535714Y-82272190D01*
X32059524Y-82748381D02*
X31488095Y-82748381D01*
X31773809Y-82748381D02*
X31773809Y-81748381D01*
X31678571Y-81891238D01*
X31583333Y-81986476D01*
X31488095Y-82034095D01*
X32916667Y-81748381D02*
X32726190Y-81748381D01*
X32630952Y-81796000D01*
X32583333Y-81843619D01*
X32488095Y-81986476D01*
X32440476Y-82176952D01*
X32440476Y-82557905D01*
X32488095Y-82653143D01*
X32535714Y-82700762D01*
X32630952Y-82748381D01*
X32821429Y-82748381D01*
X32916667Y-82700762D01*
X32964286Y-82653143D01*
X33011905Y-82557905D01*
X33011905Y-82319810D01*
X32964286Y-82224571D01*
X32916667Y-82176952D01*
X32821429Y-82129333D01*
X32630952Y-82129333D01*
X32535714Y-82176952D01*
X32488095Y-82224571D01*
X32440476Y-82319810D01*
X50157143Y-49474381D02*
X49823809Y-48998190D01*
X49585714Y-49474381D02*
X49585714Y-48474381D01*
X49966667Y-48474381D01*
X50061905Y-48522000D01*
X50109524Y-48569619D01*
X50157143Y-48664857D01*
X50157143Y-48807714D01*
X50109524Y-48902952D01*
X50061905Y-48950571D01*
X49966667Y-48998190D01*
X49585714Y-48998190D01*
X51109524Y-49474381D02*
X50538095Y-49474381D01*
X50823809Y-49474381D02*
X50823809Y-48474381D01*
X50728571Y-48617238D01*
X50633333Y-48712476D01*
X50538095Y-48760095D01*
X51680952Y-48902952D02*
X51585714Y-48855333D01*
X51538095Y-48807714D01*
X51490476Y-48712476D01*
X51490476Y-48664857D01*
X51538095Y-48569619D01*
X51585714Y-48522000D01*
X51680952Y-48474381D01*
X51871429Y-48474381D01*
X51966667Y-48522000D01*
X52014286Y-48569619D01*
X52061905Y-48664857D01*
X52061905Y-48712476D01*
X52014286Y-48807714D01*
X51966667Y-48855333D01*
X51871429Y-48902952D01*
X51680952Y-48902952D01*
X51585714Y-48950571D01*
X51538095Y-48998190D01*
X51490476Y-49093429D01*
X51490476Y-49283905D01*
X51538095Y-49379143D01*
X51585714Y-49426762D01*
X51680952Y-49474381D01*
X51871429Y-49474381D01*
X51966667Y-49426762D01*
X52014286Y-49379143D01*
X52061905Y-49283905D01*
X52061905Y-49093429D01*
X52014286Y-48998190D01*
X51966667Y-48950571D01*
X51871429Y-48902952D01*
X90543143Y-92654381D02*
X90209809Y-92178190D01*
X89971714Y-92654381D02*
X89971714Y-91654381D01*
X90352667Y-91654381D01*
X90447905Y-91702000D01*
X90495524Y-91749619D01*
X90543143Y-91844857D01*
X90543143Y-91987714D01*
X90495524Y-92082952D01*
X90447905Y-92130571D01*
X90352667Y-92178190D01*
X89971714Y-92178190D01*
X91495524Y-92654381D02*
X90924095Y-92654381D01*
X91209809Y-92654381D02*
X91209809Y-91654381D01*
X91114571Y-91797238D01*
X91019333Y-91892476D01*
X90924095Y-91940095D01*
X91971714Y-92654381D02*
X92162190Y-92654381D01*
X92257429Y-92606762D01*
X92305048Y-92559143D01*
X92400286Y-92416286D01*
X92447905Y-92225810D01*
X92447905Y-91844857D01*
X92400286Y-91749619D01*
X92352667Y-91702000D01*
X92257429Y-91654381D01*
X92066952Y-91654381D01*
X91971714Y-91702000D01*
X91924095Y-91749619D01*
X91876476Y-91844857D01*
X91876476Y-92082952D01*
X91924095Y-92178190D01*
X91971714Y-92225810D01*
X92066952Y-92273429D01*
X92257429Y-92273429D01*
X92352667Y-92225810D01*
X92400286Y-92178190D01*
X92447905Y-92082952D01*
X81978667Y-89304762D02*
X82121524Y-89352381D01*
X82359620Y-89352381D01*
X82454858Y-89304762D01*
X82502477Y-89257143D01*
X82550096Y-89161905D01*
X82550096Y-89066667D01*
X82502477Y-88971429D01*
X82454858Y-88923810D01*
X82359620Y-88876190D01*
X82169143Y-88828571D01*
X82073905Y-88780952D01*
X82026286Y-88733333D01*
X81978667Y-88638095D01*
X81978667Y-88542857D01*
X82026286Y-88447619D01*
X82073905Y-88400000D01*
X82169143Y-88352381D01*
X82407239Y-88352381D01*
X82550096Y-88400000D01*
X82883429Y-88352381D02*
X83121524Y-89352381D01*
X83312001Y-88638095D01*
X83502477Y-89352381D01*
X83740572Y-88352381D01*
X84645334Y-89352381D02*
X84073905Y-89352381D01*
X84359619Y-89352381D02*
X84359619Y-88352381D01*
X84264381Y-88495238D01*
X84169143Y-88590476D01*
X84073905Y-88638095D01*
X79184667Y-82192762D02*
X79327524Y-82240381D01*
X79565620Y-82240381D01*
X79660858Y-82192762D01*
X79708477Y-82145143D01*
X79756096Y-82049905D01*
X79756096Y-81954667D01*
X79708477Y-81859429D01*
X79660858Y-81811810D01*
X79565620Y-81764190D01*
X79375143Y-81716571D01*
X79279905Y-81668952D01*
X79232286Y-81621333D01*
X79184667Y-81526095D01*
X79184667Y-81430857D01*
X79232286Y-81335619D01*
X79279905Y-81288000D01*
X79375143Y-81240381D01*
X79613239Y-81240381D01*
X79756096Y-81288000D01*
X80089429Y-81240381D02*
X80327524Y-82240381D01*
X80518001Y-81526095D01*
X80708477Y-82240381D01*
X80946572Y-81240381D01*
X81279905Y-81335619D02*
X81327524Y-81288000D01*
X81422762Y-81240381D01*
X81660858Y-81240381D01*
X81756096Y-81288000D01*
X81803715Y-81335619D01*
X81851334Y-81430857D01*
X81851334Y-81526095D01*
X81803715Y-81668952D01*
X81232286Y-82240381D01*
X81851334Y-82240381D01*
X87312667Y-80414762D02*
X87455524Y-80462381D01*
X87693620Y-80462381D01*
X87788858Y-80414762D01*
X87836477Y-80367143D01*
X87884096Y-80271905D01*
X87884096Y-80176667D01*
X87836477Y-80081429D01*
X87788858Y-80033810D01*
X87693620Y-79986190D01*
X87503143Y-79938571D01*
X87407905Y-79890952D01*
X87360286Y-79843333D01*
X87312667Y-79748095D01*
X87312667Y-79652857D01*
X87360286Y-79557619D01*
X87407905Y-79510000D01*
X87503143Y-79462381D01*
X87741239Y-79462381D01*
X87884096Y-79510000D01*
X88217429Y-79462381D02*
X88455524Y-80462381D01*
X88646001Y-79748095D01*
X88836477Y-80462381D01*
X89074572Y-79462381D01*
X89360286Y-79462381D02*
X89979334Y-79462381D01*
X89646000Y-79843333D01*
X89788858Y-79843333D01*
X89884096Y-79890952D01*
X89931715Y-79938571D01*
X89979334Y-80033810D01*
X89979334Y-80271905D01*
X89931715Y-80367143D01*
X89884096Y-80414762D01*
X89788858Y-80462381D01*
X89503143Y-80462381D01*
X89407905Y-80414762D01*
X89360286Y-80367143D01*
X29170381Y-75937905D02*
X29170381Y-75366476D01*
X30170381Y-75652191D02*
X29170381Y-75652191D01*
X30170381Y-74461714D02*
X29694190Y-74795048D01*
X30170381Y-75033143D02*
X29170381Y-75033143D01*
X29170381Y-74652190D01*
X29218000Y-74556952D01*
X29265619Y-74509333D01*
X29360857Y-74461714D01*
X29503714Y-74461714D01*
X29598952Y-74509333D01*
X29646571Y-74556952D01*
X29694190Y-74652190D01*
X29694190Y-75033143D01*
X30170381Y-73509333D02*
X30170381Y-74080762D01*
X30170381Y-73795048D02*
X29170381Y-73795048D01*
X29313238Y-73890286D01*
X29408476Y-73985524D01*
X29456095Y-74080762D01*
X28916381Y-88383905D02*
X28916381Y-87812476D01*
X29916381Y-88098191D02*
X28916381Y-88098191D01*
X29916381Y-86907714D02*
X29440190Y-87241048D01*
X29916381Y-87479143D02*
X28916381Y-87479143D01*
X28916381Y-87098190D01*
X28964000Y-87002952D01*
X29011619Y-86955333D01*
X29106857Y-86907714D01*
X29249714Y-86907714D01*
X29344952Y-86955333D01*
X29392571Y-87002952D01*
X29440190Y-87098190D01*
X29440190Y-87479143D01*
X29011619Y-86526762D02*
X28964000Y-86479143D01*
X28916381Y-86383905D01*
X28916381Y-86145809D01*
X28964000Y-86050571D01*
X29011619Y-86002952D01*
X29106857Y-85955333D01*
X29202095Y-85955333D01*
X29344952Y-86002952D01*
X29916381Y-86574381D01*
X29916381Y-85955333D01*
D22*
X71882095Y-53808381D02*
X71882095Y-54617905D01*
X71929714Y-54713143D01*
X71977333Y-54760762D01*
X72072571Y-54808381D01*
X72263048Y-54808381D01*
X72358286Y-54760762D01*
X72405905Y-54713143D01*
X72453524Y-54617905D01*
X72453524Y-53808381D01*
X72882095Y-53903619D02*
X72929714Y-53856000D01*
X73024952Y-53808381D01*
X73263048Y-53808381D01*
X73358286Y-53856000D01*
X73405905Y-53903619D01*
X73453524Y-53998857D01*
X73453524Y-54094095D01*
X73405905Y-54236952D01*
X72834476Y-54808381D01*
X73453524Y-54808381D01*
D17*
X35194724Y-77532895D02*
X35194724Y-78190876D01*
X35233429Y-78268286D01*
X35272133Y-78306990D01*
X35349543Y-78345695D01*
X35504362Y-78345695D01*
X35581771Y-78306990D01*
X35620476Y-78268286D01*
X35659181Y-78190876D01*
X35659181Y-77532895D01*
X36394572Y-77532895D02*
X36239753Y-77532895D01*
X36162343Y-77571600D01*
X36123638Y-77610305D01*
X36046229Y-77726419D01*
X36007524Y-77881238D01*
X36007524Y-78190876D01*
X36046229Y-78268286D01*
X36084934Y-78306990D01*
X36162343Y-78345695D01*
X36317162Y-78345695D01*
X36394572Y-78306990D01*
X36433276Y-78268286D01*
X36471981Y-78190876D01*
X36471981Y-77997352D01*
X36433276Y-77919943D01*
X36394572Y-77881238D01*
X36317162Y-77842533D01*
X36162343Y-77842533D01*
X36084934Y-77881238D01*
X36046229Y-77919943D01*
X36007524Y-77997352D01*
D22*
X36322095Y-74382381D02*
X36322095Y-75191905D01*
X36369714Y-75287143D01*
X36417333Y-75334762D01*
X36512571Y-75382381D01*
X36703048Y-75382381D01*
X36798286Y-75334762D01*
X36845905Y-75287143D01*
X36893524Y-75191905D01*
X36893524Y-74382381D01*
X37274476Y-74382381D02*
X37941143Y-74382381D01*
X37512571Y-75382381D01*
D13*
X43180095Y-85558381D02*
X43180095Y-86367905D01*
X43227714Y-86463143D01*
X43275333Y-86510762D01*
X43370571Y-86558381D01*
X43561048Y-86558381D01*
X43656286Y-86510762D01*
X43703905Y-86463143D01*
X43751524Y-86367905D01*
X43751524Y-85558381D01*
X44370571Y-85986952D02*
X44275333Y-85939333D01*
X44227714Y-85891714D01*
X44180095Y-85796476D01*
X44180095Y-85748857D01*
X44227714Y-85653619D01*
X44275333Y-85606000D01*
X44370571Y-85558381D01*
X44561048Y-85558381D01*
X44656286Y-85606000D01*
X44703905Y-85653619D01*
X44751524Y-85748857D01*
X44751524Y-85796476D01*
X44703905Y-85891714D01*
X44656286Y-85939333D01*
X44561048Y-85986952D01*
X44370571Y-85986952D01*
X44275333Y-86034571D01*
X44227714Y-86082190D01*
X44180095Y-86177429D01*
X44180095Y-86367905D01*
X44227714Y-86463143D01*
X44275333Y-86510762D01*
X44370571Y-86558381D01*
X44561048Y-86558381D01*
X44656286Y-86510762D01*
X44703905Y-86463143D01*
X44751524Y-86367905D01*
X44751524Y-86177429D01*
X44703905Y-86082190D01*
X44656286Y-86034571D01*
X44561048Y-85986952D01*
D10*
X36028381Y-87121905D02*
X36837905Y-87121905D01*
X36933143Y-87074286D01*
X36980762Y-87026667D01*
X37028381Y-86931429D01*
X37028381Y-86740952D01*
X36980762Y-86645714D01*
X36933143Y-86598095D01*
X36837905Y-86550476D01*
X36028381Y-86550476D01*
X37028381Y-86026667D02*
X37028381Y-85836191D01*
X36980762Y-85740952D01*
X36933143Y-85693333D01*
X36790286Y-85598095D01*
X36599810Y-85550476D01*
X36218857Y-85550476D01*
X36123619Y-85598095D01*
X36076000Y-85645714D01*
X36028381Y-85740952D01*
X36028381Y-85931429D01*
X36076000Y-86026667D01*
X36123619Y-86074286D01*
X36218857Y-86121905D01*
X36456952Y-86121905D01*
X36552190Y-86074286D01*
X36599810Y-86026667D01*
X36647429Y-85931429D01*
X36647429Y-85740952D01*
X36599810Y-85645714D01*
X36552190Y-85598095D01*
X36456952Y-85550476D01*
D13*
X107219905Y-72858381D02*
X107219905Y-73667905D01*
X107267524Y-73763143D01*
X107315143Y-73810762D01*
X107410381Y-73858381D01*
X107600858Y-73858381D01*
X107696096Y-73810762D01*
X107743715Y-73763143D01*
X107791334Y-73667905D01*
X107791334Y-72858381D01*
X108791334Y-73858381D02*
X108219905Y-73858381D01*
X108505619Y-73858381D02*
X108505619Y-72858381D01*
X108410381Y-73001238D01*
X108315143Y-73096476D01*
X108219905Y-73144095D01*
X109743715Y-73858381D02*
X109172286Y-73858381D01*
X109458000Y-73858381D02*
X109458000Y-72858381D01*
X109362762Y-73001238D01*
X109267524Y-73096476D01*
X109172286Y-73144095D01*
X107219905Y-80732381D02*
X107219905Y-81541905D01*
X107267524Y-81637143D01*
X107315143Y-81684762D01*
X107410381Y-81732381D01*
X107600858Y-81732381D01*
X107696096Y-81684762D01*
X107743715Y-81637143D01*
X107791334Y-81541905D01*
X107791334Y-80732381D01*
X108791334Y-81732381D02*
X108219905Y-81732381D01*
X108505619Y-81732381D02*
X108505619Y-80732381D01*
X108410381Y-80875238D01*
X108315143Y-80970476D01*
X108219905Y-81018095D01*
X109172286Y-80827619D02*
X109219905Y-80780000D01*
X109315143Y-80732381D01*
X109553239Y-80732381D01*
X109648477Y-80780000D01*
X109696096Y-80827619D01*
X109743715Y-80922857D01*
X109743715Y-81018095D01*
X109696096Y-81160952D01*
X109124667Y-81732381D01*
X109743715Y-81732381D01*
D22*
X89876381Y-87598095D02*
X89876381Y-86931428D01*
X90876381Y-87598095D01*
X90876381Y-86931428D01*
X90590667Y-86598095D02*
X90590667Y-86121904D01*
X90876381Y-86693333D02*
X89876381Y-86360000D01*
X90876381Y-86026666D01*
X90876381Y-85169523D02*
X90876381Y-85740952D01*
X90876381Y-85455238D02*
X89876381Y-85455238D01*
X90019238Y-85550476D01*
X90114476Y-85645714D01*
X90162095Y-85740952D01*
D19*
X26085800Y-78914171D02*
X26085800Y-79349600D01*
X26056772Y-79436686D01*
X25998715Y-79494743D01*
X25911629Y-79523771D01*
X25853572Y-79523771D01*
X26695400Y-79523771D02*
X26347057Y-79523771D01*
X26521229Y-79523771D02*
X26521229Y-78914171D01*
X26463172Y-79001257D01*
X26405114Y-79059314D01*
X26347057Y-79088343D01*
X26085800Y-91995171D02*
X26085800Y-92430600D01*
X26056772Y-92517686D01*
X25998715Y-92575743D01*
X25911629Y-92604771D01*
X25853572Y-92604771D01*
X26347057Y-92053229D02*
X26376086Y-92024200D01*
X26434143Y-91995171D01*
X26579286Y-91995171D01*
X26637343Y-92024200D01*
X26666372Y-92053229D01*
X26695400Y-92111286D01*
X26695400Y-92169343D01*
X26666372Y-92256429D01*
X26318029Y-92604771D01*
X26695400Y-92604771D01*
D13*
X107211905Y-66619381D02*
X107211905Y-65619381D01*
X107592858Y-65619381D01*
X107688096Y-65667000D01*
X107735715Y-65714619D01*
X107783334Y-65809857D01*
X107783334Y-65952714D01*
X107735715Y-66047952D01*
X107688096Y-66095571D01*
X107592858Y-66143190D01*
X107211905Y-66143190D01*
X108116667Y-65619381D02*
X108735715Y-65619381D01*
X108402381Y-66000333D01*
X108545239Y-66000333D01*
X108640477Y-66047952D01*
X108688096Y-66095571D01*
X108735715Y-66190810D01*
X108735715Y-66428905D01*
X108688096Y-66524143D01*
X108640477Y-66571762D01*
X108545239Y-66619381D01*
X108259524Y-66619381D01*
X108164286Y-66571762D01*
X108116667Y-66524143D01*
X101115905Y-84272381D02*
X101115905Y-83272381D01*
X101496858Y-83272381D01*
X101592096Y-83320000D01*
X101639715Y-83367619D01*
X101687334Y-83462857D01*
X101687334Y-83605714D01*
X101639715Y-83700952D01*
X101592096Y-83748571D01*
X101496858Y-83796190D01*
X101115905Y-83796190D01*
X102544477Y-83605714D02*
X102544477Y-84272381D01*
X102306381Y-83224762D02*
X102068286Y-83939048D01*
X102687334Y-83939048D01*
X98829905Y-91384381D02*
X98829905Y-90384381D01*
X99210858Y-90384381D01*
X99306096Y-90432000D01*
X99353715Y-90479619D01*
X99401334Y-90574857D01*
X99401334Y-90717714D01*
X99353715Y-90812952D01*
X99306096Y-90860571D01*
X99210858Y-90908190D01*
X98829905Y-90908190D01*
X100306096Y-90384381D02*
X99829905Y-90384381D01*
X99782286Y-90860571D01*
X99829905Y-90812952D01*
X99925143Y-90765333D01*
X100163239Y-90765333D01*
X100258477Y-90812952D01*
X100306096Y-90860571D01*
X100353715Y-90955810D01*
X100353715Y-91193905D01*
X100306096Y-91289143D01*
X100258477Y-91336762D01*
X100163239Y-91384381D01*
X99925143Y-91384381D01*
X99829905Y-91336762D01*
X99782286Y-91289143D01*
X28702095Y-97480381D02*
X28702095Y-96480381D01*
X28702095Y-96956571D02*
X29273524Y-96956571D01*
X29273524Y-97480381D02*
X29273524Y-96480381D01*
X30273524Y-97480381D02*
X29702095Y-97480381D01*
X29987809Y-97480381D02*
X29987809Y-96480381D01*
X29892571Y-96623238D01*
X29797333Y-96718476D01*
X29702095Y-96766095D01*
X101600095Y-97480381D02*
X101600095Y-96480381D01*
X101600095Y-96956571D02*
X102171524Y-96956571D01*
X102171524Y-97480381D02*
X102171524Y-96480381D01*
X102600095Y-96575619D02*
X102647714Y-96528000D01*
X102742952Y-96480381D01*
X102981048Y-96480381D01*
X103076286Y-96528000D01*
X103123905Y-96575619D01*
X103171524Y-96670857D01*
X103171524Y-96766095D01*
X103123905Y-96908952D01*
X102552476Y-97480381D01*
X103171524Y-97480381D01*
X28702095Y-25090381D02*
X28702095Y-24090381D01*
X28702095Y-24566571D02*
X29273524Y-24566571D01*
X29273524Y-25090381D02*
X29273524Y-24090381D01*
X29654476Y-24090381D02*
X30273524Y-24090381D01*
X29940190Y-24471333D01*
X30083048Y-24471333D01*
X30178286Y-24518952D01*
X30225905Y-24566571D01*
X30273524Y-24661810D01*
X30273524Y-24899905D01*
X30225905Y-24995143D01*
X30178286Y-25042762D01*
X30083048Y-25090381D01*
X29797333Y-25090381D01*
X29702095Y-25042762D01*
X29654476Y-24995143D01*
X101854095Y-25090381D02*
X101854095Y-24090381D01*
X101854095Y-24566571D02*
X102425524Y-24566571D01*
X102425524Y-25090381D02*
X102425524Y-24090381D01*
X103330286Y-24423714D02*
X103330286Y-25090381D01*
X103092190Y-24042762D02*
X102854095Y-24757048D01*
X103473143Y-24757048D01*
X79756095Y-42378381D02*
X79756095Y-43187905D01*
X79803714Y-43283143D01*
X79851333Y-43330762D01*
X79946571Y-43378381D01*
X80137048Y-43378381D01*
X80232286Y-43330762D01*
X80279905Y-43283143D01*
X80327524Y-43187905D01*
X80327524Y-42378381D01*
X81327524Y-43378381D02*
X80756095Y-43378381D01*
X81041809Y-43378381D02*
X81041809Y-42378381D01*
X80946571Y-42521238D01*
X80851333Y-42616476D01*
X80756095Y-42664095D01*
X80060895Y-64323981D02*
X80060895Y-65133505D01*
X80108514Y-65228743D01*
X80156133Y-65276362D01*
X80251371Y-65323981D01*
X80441848Y-65323981D01*
X80537086Y-65276362D01*
X80584705Y-65228743D01*
X80632324Y-65133505D01*
X80632324Y-64323981D01*
X81013276Y-64323981D02*
X81632324Y-64323981D01*
X81298990Y-64704933D01*
X81441848Y-64704933D01*
X81537086Y-64752552D01*
X81584705Y-64800171D01*
X81632324Y-64895410D01*
X81632324Y-65133505D01*
X81584705Y-65228743D01*
X81537086Y-65276362D01*
X81441848Y-65323981D01*
X81156133Y-65323981D01*
X81060895Y-65276362D01*
X81013276Y-65228743D01*
X48107695Y-76185781D02*
X48107695Y-76995305D01*
X48155314Y-77090543D01*
X48202933Y-77138162D01*
X48298171Y-77185781D01*
X48488648Y-77185781D01*
X48583886Y-77138162D01*
X48631505Y-77090543D01*
X48679124Y-76995305D01*
X48679124Y-76185781D01*
X49583886Y-76519114D02*
X49583886Y-77185781D01*
X49345790Y-76138162D02*
X49107695Y-76852448D01*
X49726743Y-76852448D01*
X48133095Y-64095381D02*
X48133095Y-64904905D01*
X48180714Y-65000143D01*
X48228333Y-65047762D01*
X48323571Y-65095381D01*
X48514048Y-65095381D01*
X48609286Y-65047762D01*
X48656905Y-65000143D01*
X48704524Y-64904905D01*
X48704524Y-64095381D01*
X49656905Y-64095381D02*
X49180714Y-64095381D01*
X49133095Y-64571571D01*
X49180714Y-64523952D01*
X49275952Y-64476333D01*
X49514048Y-64476333D01*
X49609286Y-64523952D01*
X49656905Y-64571571D01*
X49704524Y-64666810D01*
X49704524Y-64904905D01*
X49656905Y-65000143D01*
X49609286Y-65047762D01*
X49514048Y-65095381D01*
X49275952Y-65095381D01*
X49180714Y-65047762D01*
X49133095Y-65000143D01*
X60303381Y-50183895D02*
X61112905Y-50183895D01*
X61208143Y-50136276D01*
X61255762Y-50088657D01*
X61303381Y-49993419D01*
X61303381Y-49802942D01*
X61255762Y-49707704D01*
X61208143Y-49660085D01*
X61112905Y-49612466D01*
X60303381Y-49612466D01*
X61303381Y-48612466D02*
X61303381Y-49183895D01*
X61303381Y-48898181D02*
X60303381Y-48898181D01*
X60446238Y-48993419D01*
X60541476Y-49088657D01*
X60589095Y-49183895D01*
X60303381Y-47993419D02*
X60303381Y-47898180D01*
X60351000Y-47802942D01*
X60398619Y-47755323D01*
X60493857Y-47707704D01*
X60684333Y-47660085D01*
X60922429Y-47660085D01*
X61112905Y-47707704D01*
X61208143Y-47755323D01*
X61255762Y-47802942D01*
X61303381Y-47898180D01*
X61303381Y-47993419D01*
X61255762Y-48088657D01*
X61208143Y-48136276D01*
X61112905Y-48183895D01*
X60922429Y-48231514D01*
X60684333Y-48231514D01*
X60493857Y-48183895D01*
X60398619Y-48136276D01*
X60351000Y-48088657D01*
X60303381Y-47993419D01*
M02*
