G04 #@! TF.FileFunction,Soldermask,Bot*
%FSLAX46Y46*%
G04 Gerber Fmt 4.6, Leading zero omitted, Abs format (unit mm)*
G04 Created by KiCad (PCBNEW (2015-01-17 BZR 5377)-product) date lun 20 abr 2015 12:47:35 ART*
%MOMM*%
G01*
G04 APERTURE LIST*
%ADD10C,0.100000*%
%ADD11R,2.032000X2.032000*%
%ADD12O,2.032000X2.032000*%
%ADD13R,0.635000X1.143000*%
%ADD14R,1.143000X0.635000*%
%ADD15R,1.270000X0.965200*%
%ADD16R,1.727200X1.727200*%
%ADD17O,1.727200X1.727200*%
%ADD18C,3.000000*%
%ADD19R,3.500120X3.500120*%
G04 APERTURE END LIST*
D10*
D11*
X83375500Y-84391500D03*
D12*
X85915500Y-84391500D03*
D13*
X66802000Y-74676000D03*
X65278000Y-74676000D03*
D14*
X64516000Y-77216000D03*
X64516000Y-78740000D03*
X66421000Y-77216000D03*
X66421000Y-78740000D03*
D13*
X62280800Y-32435800D03*
X63804800Y-32435800D03*
D15*
X54356000Y-75565000D03*
X54356000Y-74295000D03*
X54356000Y-73025000D03*
X77978000Y-68961000D03*
X77978000Y-70231000D03*
X77978000Y-71501000D03*
X54483000Y-62103000D03*
X54483000Y-60833000D03*
X54483000Y-59563000D03*
D11*
X54483000Y-51689000D03*
D12*
X51943000Y-51689000D03*
D16*
X24130000Y-30988000D03*
D17*
X26670000Y-30988000D03*
X24130000Y-33528000D03*
X26670000Y-33528000D03*
X24130000Y-36068000D03*
X26670000Y-36068000D03*
X24130000Y-38608000D03*
X26670000Y-38608000D03*
X24130000Y-41148000D03*
X26670000Y-41148000D03*
X24130000Y-43688000D03*
X26670000Y-43688000D03*
X24130000Y-46228000D03*
X26670000Y-46228000D03*
X24130000Y-48768000D03*
X26670000Y-48768000D03*
X24130000Y-51308000D03*
X26670000Y-51308000D03*
X24130000Y-53848000D03*
X26670000Y-53848000D03*
D16*
X105410000Y-30988000D03*
D17*
X107950000Y-30988000D03*
X105410000Y-33528000D03*
X107950000Y-33528000D03*
X105410000Y-36068000D03*
X107950000Y-36068000D03*
X105410000Y-38608000D03*
X107950000Y-38608000D03*
X105410000Y-41148000D03*
X107950000Y-41148000D03*
X105410000Y-43688000D03*
X107950000Y-43688000D03*
X105410000Y-46228000D03*
X107950000Y-46228000D03*
X105410000Y-48768000D03*
X107950000Y-48768000D03*
X105410000Y-51308000D03*
X107950000Y-51308000D03*
X105410000Y-53848000D03*
X107950000Y-53848000D03*
D11*
X85915500Y-86931500D03*
D12*
X83375500Y-86931500D03*
D11*
X85915500Y-81851500D03*
D12*
X83375500Y-81851500D03*
D11*
X85915500Y-79311500D03*
D12*
X83375500Y-79311500D03*
D18*
X72733500Y-57225500D03*
X52133500Y-85915500D03*
D16*
X105410000Y-56388000D03*
D17*
X107950000Y-56388000D03*
X105410000Y-58928000D03*
X107950000Y-58928000D03*
X105410000Y-61468000D03*
X107950000Y-61468000D03*
X105410000Y-64008000D03*
X107950000Y-64008000D03*
D11*
X95377000Y-91186000D03*
D12*
X95377000Y-93726000D03*
D19*
X99971860Y-88773000D03*
X105971340Y-88773000D03*
X102971600Y-84074000D03*
M02*
