M48
;DRILL file {kicad (2015-01-17 BZR 5377)-product} date vie 17 abr 2015 16:14:40 ART
;FORMAT={-:-/ absolute / inch / decimal}
FMAT,2
INCH,TZ
T1C0.020
T2C0.040
T3C0.060
T4C0.079
T5C0.118
%
G90
G05
M72
T1
X1.12Y-2.95
X1.14Y-2.605
X1.16Y-3.18
X1.21Y-3.045
X1.285Y-3.015
X1.305Y-3.315
X1.35Y-2.865
X1.37Y-3.215
X1.385Y-3.085
X1.42Y-3.605
X1.435Y-3.45
X1.44Y-3.355
X1.455Y-2.92
X1.46Y-3.09
X1.485Y-3.185
X1.52Y-3.615
X1.53Y-3.315
X1.58Y-3.46
X1.62Y-3.33
X1.665Y-3.055
X1.67Y-2.715
X1.675Y-2.23
X1.675Y-3.6
X1.68Y-3.285
X1.685Y-3.245
X1.72Y-3.43
X1.725Y-3.35
X1.73Y-3.53
X1.735Y-2.67
X1.775Y-3.215
X1.785Y-2.768
X1.825Y-2.675
X1.827Y-2.471
X1.837Y-2.198
X1.875Y-3.055
X1.895Y-3.55
X1.952Y-2.29
X1.96Y-2.975
X2.155Y-1.67
X2.195Y-2.95
X2.455Y-1.218
X2.48Y-3.1
X2.52Y-2.46
X2.629Y-1.995
X2.653Y-1.865
X2.655Y-2.088
X2.66Y-1.969
X2.66Y-2.44
X2.67Y-2.41
X2.67Y-2.865
X2.705Y-2.93
X2.745Y-2.085
X2.84Y-2.41
X2.84Y-2.44
X2.84Y-2.92
X2.844Y-2.599
X2.845Y-2.49
X2.845Y-2.66
X2.845Y-2.75
X2.845Y-2.79
X2.845Y-2.85
X2.85Y-2.38
X2.85Y-2.89
X2.95Y-2.7
X2.955Y-2.915
X2.965Y-2.83
X2.965Y-2.855
X2.995Y-2.56
X3.005Y-2.965
X3.01Y-2.715
X3.02Y-2.855
X3.025Y-2.57
X3.055Y-2.575
X3.065Y-2.86
X3.08Y-3.27
X3.085Y-2.58
X3.125Y-2.745
X3.125Y-2.805
X3.125Y-3.19
X3.13Y-2.38
X3.135Y-2.185
X3.165Y-2.865
X3.22Y-2.085
X3.225Y-2.145
X3.225Y-2.38
X3.255Y-1.745
X3.255Y-1.975
X3.255Y-2.265
X3.255Y-2.595
X3.255Y-3.055
X3.3Y-2.56
X3.305Y-1.935
X3.335Y-1.745
X3.395Y-2.05
X3.395Y-2.185
X3.395Y-2.275
X3.395Y-2.42
X3.41Y-3.56
X3.45Y-2.47
X3.475Y-2.52
X3.515Y-2.04
X3.515Y-2.275
X3.62Y-2.05
X3.67Y-2.32
X3.865Y-2.79
X3.865Y-3.065
T2
X0.95Y-1.22
X0.95Y-1.32
X0.95Y-1.42
X0.95Y-1.52
X0.95Y-1.62
X0.95Y-1.72
X0.95Y-1.82
X0.95Y-1.92
X0.95Y-2.02
X0.95Y-2.12
X1.05Y-1.22
X1.05Y-1.32
X1.05Y-1.42
X1.05Y-1.52
X1.05Y-1.62
X1.05Y-1.72
X1.05Y-1.82
X1.05Y-1.92
X1.05Y-2.02
X1.05Y-2.12
X2.045Y-2.035
X2.145Y-2.035
X3.2825Y-3.1225
X3.2825Y-3.2225
X3.2825Y-3.3225
X3.2825Y-3.4225
X3.3825Y-3.1225
X3.3825Y-3.2225
X3.3825Y-3.3225
X3.3825Y-3.4225
X3.92Y-3.4
X3.92Y-3.5
X4.15Y-1.22
X4.15Y-1.32
X4.15Y-1.42
X4.15Y-1.52
X4.15Y-1.62
X4.15Y-1.72
X4.15Y-1.82
X4.15Y-1.92
X4.15Y-2.02
X4.15Y-2.12
X4.15Y-2.22
X4.15Y-2.32
X4.15Y-2.42
X4.15Y-2.52
X4.25Y-1.22
X4.25Y-1.32
X4.25Y-1.42
X4.25Y-1.52
X4.25Y-1.62
X4.25Y-1.72
X4.25Y-1.82
X4.25Y-1.92
X4.25Y-2.02
X4.25Y-2.12
X4.25Y-2.22
X4.25Y-2.32
X4.25Y-2.42
X4.25Y-2.52
T3
X4.2Y-3.36
X4.2Y-3.56
T4
X2.0525Y-3.3825
X2.8635Y-2.253
T5
X1.Y-0.97
X1.Y-3.82
X4.2Y-0.97
X4.2Y-3.82
T0
M30
