M48
;DRILL file {KiCad 4.0.2+e4-6225~38~ubuntu14.04.1-stable} date Wed 15 Jun 2016 03:03:27 PM ART
;FORMAT={-:-/ absolute / inch / decimal}
FMAT,2
INCH,TZ
T1C0.016
T2C0.031
T3C0.102
%
G90
G05
M72
T1
X2.0666Y-4.2536
X2.0689Y-4.9911
X2.0738Y-4.0778
X2.0768Y-4.5827
X2.0768Y-4.6299
X2.0827Y-4.189
X2.0965Y-4.4547
X2.1024Y-4.685
X2.1063Y-5.
X2.1102Y-4.8858
X2.1142Y-4.311
X2.1413Y-4.4264
X2.1516Y-4.376
X2.1516Y-4.3253
X2.185Y-4.8819
X2.1929Y-4.7677
X2.2313Y-4.5659
X2.2441Y-4.2028
X2.2441Y-4.8819
X2.2449Y-4.6831
X2.265Y-4.311
X2.2894Y-4.1614
X2.3063Y-4.4008
X2.3129Y-4.185
X2.3307Y-4.8858
X2.3531Y-4.727
X2.3858Y-4.7598
X2.3957Y-4.8947
X2.4291Y-4.3583
X2.4429Y-4.7272
X2.448Y-4.6102
X2.4518Y-4.8425
X2.4626Y-4.3228
X2.4646Y-4.4341
X2.4705Y-4.2766
X2.4902Y-4.503
X2.4911Y-4.4646
X2.5256Y-5.0463
X2.5413Y-4.2608
X2.5433Y-4.6398
X2.5719Y-4.752
X2.6697Y-4.6461
X2.6742Y-4.7884
X2.6803Y-4.9559
X2.7697Y-4.8701
X2.8345Y-4.4172
X2.8632Y-4.2195
X2.9006Y-4.2205
X2.9055Y-4.4764
X2.9213Y-4.5285
X2.9409Y-4.2195
X2.9488Y-4.4774
X2.9783Y-4.2195
X2.9843Y-4.4734
X3.0197Y-4.2205
X3.0217Y-4.4715
X3.0472Y-4.3602
X3.0581Y-4.4705
X3.0866Y-4.3602
X3.0899Y-4.6794
X3.1113Y-4.658
X3.1161Y-4.4921
X3.1358Y-4.1614
X3.1421Y-4.3245
X3.179Y-4.2382
X3.2756Y-4.5
X3.3051Y-4.6713
X3.3425Y-4.6732
X3.3681Y-4.4665
X3.377Y-4.812
X3.3773Y-4.6288
X3.378Y-4.5866
X3.3799Y-4.8839
X3.4016Y-4.7874
X3.435Y-4.6722
X3.439Y-4.7894
X3.4429Y-4.5768
X3.5394Y-4.3465
X3.5394Y-4.4783
X3.5394Y-4.5197
X3.5413Y-4.6791
X3.5433Y-4.5787
X3.5472Y-4.1811
X3.563Y-4.2323
X3.5768Y-4.6319
X3.5994Y-4.9685
X3.6421Y-4.2307
X3.6831Y-4.3425
X3.6972Y-4.5083
X3.7087Y-4.3661
T2
X2.3787Y-4.0205
X2.3803Y-4.1248
X2.4575Y-4.0205
X2.4591Y-4.1248
X2.5362Y-4.0205
X2.5378Y-4.1248
X2.6165Y-4.1248
X2.6565Y-4.2333
X2.6565Y-4.312
X2.6565Y-4.3907
X2.6732Y-4.0197
X2.6953Y-4.1248
X2.7352Y-4.2333
X2.7352Y-4.312
X2.7352Y-4.3907
X2.752Y-4.0197
X2.774Y-4.1248
X2.9006Y-4.0049
X2.9006Y-4.0837
X2.9793Y-4.0049
X2.9793Y-4.0837
X3.0581Y-4.0049
X3.0581Y-4.0837
X3.0679Y-4.9724
X3.0679Y-5.0512
X3.1368Y-4.0049
X3.1368Y-4.0837
X3.1467Y-4.9724
X3.1467Y-5.0512
X3.2156Y-4.0049
X3.2156Y-4.0837
X3.2254Y-4.9724
X3.2254Y-5.0512
X3.2943Y-4.0049
X3.2943Y-4.0837
X3.3041Y-4.9724
X3.3041Y-5.0512
X3.373Y-4.0049
X3.373Y-4.0837
X3.3829Y-4.9724
X3.3829Y-5.0512
X3.4518Y-4.0049
X3.4518Y-4.0837
X3.5305Y-4.0049
X3.5305Y-4.0837
X3.6093Y-4.0049
X3.6093Y-4.0837
X3.7913Y-4.3455
X3.7913Y-4.4242
X3.7913Y-4.503
X3.7913Y-4.5817
X3.7913Y-4.6604
X3.7913Y-4.7392
X3.7913Y-4.8179
X3.8701Y-4.3455
X3.8701Y-4.4242
X3.8701Y-4.503
X3.8701Y-4.5817
X3.8701Y-4.6604
X3.8701Y-4.7392
X3.8701Y-4.8179
T3
X3.8228Y-4.0512
X3.8228Y-5.0039
T0
M30
