G04 #@! TF.FileFunction,Soldermask,Bot*
%FSLAX46Y46*%
G04 Gerber Fmt 4.6, Leading zero omitted, Abs format (unit mm)*
G04 Created by KiCad (PCBNEW 4.0.2+e4-6225~38~ubuntu14.04.1-stable) date Wed 15 Jun 2016 03:03:26 PM ART*
%MOMM*%
G01*
G04 APERTURE LIST*
%ADD10C,0.100000*%
%ADD11R,0.900000X0.500000*%
%ADD12R,1.905000X1.270000*%
%ADD13R,1.800000X1.230000*%
%ADD14R,0.800000X0.750000*%
%ADD15R,0.750000X0.800000*%
%ADD16R,0.500000X0.900000*%
%ADD17R,2.500000X0.800000*%
%ADD18R,1.399540X1.198880*%
%ADD19R,1.399540X1.000760*%
%ADD20R,0.900000X1.700000*%
%ADD21R,1.000000X0.900000*%
%ADD22R,6.104800X6.104800*%
%ADD23R,0.650000X1.060000*%
%ADD24R,1.350000X1.350000*%
%ADD25C,1.350000*%
%ADD26R,0.800100X0.800100*%
G04 APERTURE END LIST*
D10*
D11*
X84900000Y-117950000D03*
X84900000Y-116450000D03*
X83200000Y-117950000D03*
X83200000Y-116450000D03*
X68550000Y-119520000D03*
X68550000Y-118020000D03*
D12*
X87400000Y-106100000D03*
X87400000Y-111688000D03*
X84225000Y-111688000D03*
X84225000Y-106100000D03*
D13*
X56990000Y-126400000D03*
X59610000Y-126400000D03*
D14*
X55330000Y-114820000D03*
X56830000Y-114820000D03*
D15*
X58140000Y-108810000D03*
X58140000Y-107310000D03*
X60750000Y-111780000D03*
X60750000Y-110280000D03*
X59705000Y-107315000D03*
X59705000Y-108815000D03*
X61280000Y-107315000D03*
X61280000Y-108815000D03*
X81800000Y-106150000D03*
X81800000Y-107650000D03*
D14*
X91050000Y-106200000D03*
X92550000Y-106200000D03*
X88950000Y-117100000D03*
X87450000Y-117100000D03*
X88950000Y-115500000D03*
X87450000Y-115500000D03*
D15*
X86500000Y-120350000D03*
X86500000Y-118850000D03*
X91100000Y-114850000D03*
X91100000Y-116350000D03*
X89900000Y-111150000D03*
X89900000Y-112650000D03*
D14*
X84050000Y-114300000D03*
X85550000Y-114300000D03*
D16*
X65325000Y-128175000D03*
X66825000Y-128175000D03*
X88450000Y-113800000D03*
X86950000Y-113800000D03*
D17*
X50450000Y-103600000D03*
X50450000Y-104400000D03*
X50450000Y-105200000D03*
X50450000Y-106000000D03*
X50450000Y-106800000D03*
X50450000Y-107600000D03*
X50450000Y-108400000D03*
X50450000Y-109200000D03*
X50450000Y-113200000D03*
X50450000Y-114000000D03*
X50450000Y-114800000D03*
X50450000Y-115600000D03*
X50450000Y-116400000D03*
X50450000Y-117200000D03*
X50450000Y-118000000D03*
X50450000Y-118800000D03*
X50450000Y-119600000D03*
X50450000Y-120400000D03*
X50450000Y-121200000D03*
X50450000Y-122000000D03*
X50450000Y-122800000D03*
X50450000Y-123600000D03*
X50450000Y-124400000D03*
X50450000Y-125200000D03*
X50450000Y-126000000D03*
X50450000Y-126800000D03*
D16*
X85050000Y-120300000D03*
X83550000Y-120300000D03*
X62045000Y-118965000D03*
X63545000Y-118965000D03*
X67020000Y-116430000D03*
X65520000Y-116430000D03*
D18*
X59199820Y-121230380D03*
D19*
X59199820Y-122949960D03*
X57000180Y-122949960D03*
X57000180Y-121050040D03*
D20*
X58200000Y-102100000D03*
X55300000Y-102100000D03*
D21*
X59380000Y-111780000D03*
X57530000Y-111780000D03*
X59380000Y-110230000D03*
X57530000Y-110230000D03*
D22*
X97100000Y-127100000D03*
X97100000Y-102900000D03*
D14*
X65350000Y-126400000D03*
X66850000Y-126400000D03*
D23*
X61750000Y-124200000D03*
X62700000Y-124200000D03*
X63650000Y-124200000D03*
X63650000Y-126400000D03*
X61750000Y-126400000D03*
D14*
X55330000Y-113260000D03*
X56830000Y-113260000D03*
D24*
X96300000Y-110375000D03*
D25*
X96300000Y-112375000D03*
X96300000Y-114375000D03*
X96300000Y-116375000D03*
X96300000Y-118375000D03*
X96300000Y-120375000D03*
X96300000Y-122375000D03*
X98300000Y-110375000D03*
X98300000Y-112375000D03*
X98300000Y-114375000D03*
X98300000Y-116375000D03*
X98300000Y-118375000D03*
X98300000Y-120375000D03*
X98300000Y-122375000D03*
D24*
X69900000Y-102100000D03*
D25*
X67900000Y-102100000D03*
D24*
X77925000Y-128300000D03*
D25*
X79925000Y-128300000D03*
X81925000Y-128300000D03*
X83925000Y-128300000D03*
X85925000Y-128300000D03*
X77925000Y-126300000D03*
X79925000Y-126300000D03*
X81925000Y-126300000D03*
X83925000Y-126300000D03*
X85925000Y-126300000D03*
D24*
X60460000Y-104770000D03*
D25*
X62460000Y-104770000D03*
X64460000Y-104770000D03*
X66460000Y-104770000D03*
X68460000Y-104770000D03*
X70460000Y-104770000D03*
D26*
X67020760Y-118010000D03*
X67020760Y-119910000D03*
X65021780Y-118960000D03*
D13*
X68110000Y-124200000D03*
X65490000Y-124200000D03*
D24*
X64420000Y-102120000D03*
D25*
X62420000Y-102120000D03*
X60420000Y-102120000D03*
D24*
X91675000Y-101725000D03*
D25*
X89675000Y-101725000D03*
X87675000Y-101725000D03*
X85675000Y-101725000D03*
X83675000Y-101725000D03*
X81675000Y-101725000D03*
X79675000Y-101725000D03*
X77675000Y-101725000D03*
X75675000Y-101725000D03*
X73675000Y-101725000D03*
X91675000Y-103725000D03*
X89675000Y-103725000D03*
X87675000Y-103725000D03*
X85675000Y-103725000D03*
X83675000Y-103725000D03*
X81675000Y-103725000D03*
X79675000Y-103725000D03*
X77675000Y-103725000D03*
X75675000Y-103725000D03*
X73675000Y-103725000D03*
D24*
X67475000Y-107525000D03*
D25*
X67475000Y-109525000D03*
X67475000Y-111525000D03*
X69475000Y-107525000D03*
X69475000Y-109525000D03*
X69475000Y-111525000D03*
D11*
X66300000Y-113550000D03*
X66300000Y-115050000D03*
X67800000Y-113550000D03*
X67800000Y-115050000D03*
M02*
