G04 #@! TF.FileFunction,Copper,L2,Bot,Signal*
%FSLAX46Y46*%
G04 Gerber Fmt 4.6, Leading zero omitted, Abs format (unit mm)*
G04 Created by KiCad (PCBNEW 4.0.2+e4-6225~38~ubuntu14.04.1-stable) date Wed 15 Jun 2016 03:03:26 PM ART*
%MOMM*%
G01*
G04 APERTURE LIST*
%ADD10C,0.100000*%
%ADD11R,0.900000X0.500000*%
%ADD12R,1.905000X1.270000*%
%ADD13R,1.800000X1.230000*%
%ADD14R,0.800000X0.750000*%
%ADD15R,0.750000X0.800000*%
%ADD16R,0.500000X0.900000*%
%ADD17R,2.300000X0.600000*%
%ADD18R,1.399540X1.198880*%
%ADD19R,1.399540X1.000760*%
%ADD20R,0.900000X1.700000*%
%ADD21R,1.000000X0.900000*%
%ADD22R,5.800000X5.800000*%
%ADD23R,0.650000X1.060000*%
%ADD24R,1.350000X1.350000*%
%ADD25C,1.350000*%
%ADD26R,0.800100X0.800100*%
%ADD27C,0.600000*%
%ADD28C,0.250000*%
%ADD29C,0.750000*%
%ADD30C,0.500000*%
%ADD31C,0.254000*%
G04 APERTURE END LIST*
D10*
D11*
X84900000Y-117950000D03*
X84900000Y-116450000D03*
X83200000Y-117950000D03*
X83200000Y-116450000D03*
X68550000Y-119520000D03*
X68550000Y-118020000D03*
D12*
X87400000Y-106100000D03*
X87400000Y-111688000D03*
X84225000Y-111688000D03*
X84225000Y-106100000D03*
D13*
X56990000Y-126400000D03*
X59610000Y-126400000D03*
D14*
X55330000Y-114820000D03*
X56830000Y-114820000D03*
D15*
X58140000Y-108810000D03*
X58140000Y-107310000D03*
X60750000Y-111780000D03*
X60750000Y-110280000D03*
X59705000Y-107315000D03*
X59705000Y-108815000D03*
X61280000Y-107315000D03*
X61280000Y-108815000D03*
X81800000Y-106150000D03*
X81800000Y-107650000D03*
D14*
X91050000Y-106200000D03*
X92550000Y-106200000D03*
X88950000Y-117100000D03*
X87450000Y-117100000D03*
X88950000Y-115500000D03*
X87450000Y-115500000D03*
D15*
X86500000Y-120350000D03*
X86500000Y-118850000D03*
X91100000Y-114850000D03*
X91100000Y-116350000D03*
X89900000Y-111150000D03*
X89900000Y-112650000D03*
D14*
X84050000Y-114300000D03*
X85550000Y-114300000D03*
D16*
X65325000Y-128175000D03*
X66825000Y-128175000D03*
X88450000Y-113800000D03*
X86950000Y-113800000D03*
D17*
X50450000Y-103600000D03*
X50450000Y-104400000D03*
X50450000Y-105200000D03*
X50450000Y-106000000D03*
X50450000Y-106800000D03*
X50450000Y-107600000D03*
X50450000Y-108400000D03*
X50450000Y-109200000D03*
X50450000Y-113200000D03*
X50450000Y-114000000D03*
X50450000Y-114800000D03*
X50450000Y-115600000D03*
X50450000Y-116400000D03*
X50450000Y-117200000D03*
X50450000Y-118000000D03*
X50450000Y-118800000D03*
X50450000Y-119600000D03*
X50450000Y-120400000D03*
X50450000Y-121200000D03*
X50450000Y-122000000D03*
X50450000Y-122800000D03*
X50450000Y-123600000D03*
X50450000Y-124400000D03*
X50450000Y-125200000D03*
X50450000Y-126000000D03*
X50450000Y-126800000D03*
D16*
X85050000Y-120300000D03*
X83550000Y-120300000D03*
X62045000Y-118965000D03*
X63545000Y-118965000D03*
X67020000Y-116430000D03*
X65520000Y-116430000D03*
D18*
X59199820Y-121230380D03*
D19*
X59199820Y-122949960D03*
X57000180Y-122949960D03*
X57000180Y-121050040D03*
D20*
X58200000Y-102100000D03*
X55300000Y-102100000D03*
D21*
X59380000Y-111780000D03*
X57530000Y-111780000D03*
X59380000Y-110230000D03*
X57530000Y-110230000D03*
D22*
X97100000Y-127100000D03*
X97100000Y-102900000D03*
D14*
X65350000Y-126400000D03*
X66850000Y-126400000D03*
D23*
X61750000Y-124200000D03*
X62700000Y-124200000D03*
X63650000Y-124200000D03*
X63650000Y-126400000D03*
X61750000Y-126400000D03*
D14*
X55330000Y-113260000D03*
X56830000Y-113260000D03*
D24*
X96300000Y-110375000D03*
D25*
X96300000Y-112375000D03*
X96300000Y-114375000D03*
X96300000Y-116375000D03*
X96300000Y-118375000D03*
X96300000Y-120375000D03*
X96300000Y-122375000D03*
X98300000Y-110375000D03*
X98300000Y-112375000D03*
X98300000Y-114375000D03*
X98300000Y-116375000D03*
X98300000Y-118375000D03*
X98300000Y-120375000D03*
X98300000Y-122375000D03*
D24*
X69900000Y-102100000D03*
D25*
X67900000Y-102100000D03*
D24*
X77925000Y-128300000D03*
D25*
X79925000Y-128300000D03*
X81925000Y-128300000D03*
X83925000Y-128300000D03*
X85925000Y-128300000D03*
X77925000Y-126300000D03*
X79925000Y-126300000D03*
X81925000Y-126300000D03*
X83925000Y-126300000D03*
X85925000Y-126300000D03*
D24*
X60460000Y-104770000D03*
D25*
X62460000Y-104770000D03*
X64460000Y-104770000D03*
X66460000Y-104770000D03*
X68460000Y-104770000D03*
X70460000Y-104770000D03*
D26*
X67020760Y-118010000D03*
X67020760Y-119910000D03*
X65021780Y-118960000D03*
D13*
X68110000Y-124200000D03*
X65490000Y-124200000D03*
D24*
X64420000Y-102120000D03*
D25*
X62420000Y-102120000D03*
X60420000Y-102120000D03*
D24*
X91675000Y-101725000D03*
D25*
X89675000Y-101725000D03*
X87675000Y-101725000D03*
X85675000Y-101725000D03*
X83675000Y-101725000D03*
X81675000Y-101725000D03*
X79675000Y-101725000D03*
X77675000Y-101725000D03*
X75675000Y-101725000D03*
X73675000Y-101725000D03*
X91675000Y-103725000D03*
X89675000Y-103725000D03*
X87675000Y-103725000D03*
X85675000Y-103725000D03*
X83675000Y-103725000D03*
X81675000Y-103725000D03*
X79675000Y-103725000D03*
X77675000Y-103725000D03*
X75675000Y-103725000D03*
X73675000Y-103725000D03*
D24*
X67475000Y-107525000D03*
D25*
X67475000Y-109525000D03*
X67475000Y-111525000D03*
X69475000Y-107525000D03*
X69475000Y-109525000D03*
X69475000Y-111525000D03*
D11*
X66300000Y-113550000D03*
X66300000Y-115050000D03*
X67800000Y-113550000D03*
X67800000Y-115050000D03*
D27*
X57000000Y-106750000D03*
X77400000Y-110750000D03*
X61700000Y-110700000D03*
X52491709Y-108041709D03*
X79150000Y-114100000D03*
X80745446Y-107650000D03*
X79808290Y-109841710D03*
X85850000Y-124050000D03*
X87350000Y-121650000D03*
X70350000Y-123700000D03*
X52900000Y-106400000D03*
X53500000Y-127000000D03*
X52750000Y-116400000D03*
X52750000Y-117600000D03*
X53400000Y-119000000D03*
X53250000Y-113150000D03*
X54650000Y-111150000D03*
X67925000Y-121625000D03*
X87250000Y-118675000D03*
X85550000Y-113450000D03*
X68080000Y-125880000D03*
X92510000Y-107460000D03*
X93910000Y-114510000D03*
X60850000Y-124325000D03*
X87450000Y-116250000D03*
X89900000Y-113750000D03*
X90850000Y-117650000D03*
X57019599Y-118950766D03*
X78400000Y-110750000D03*
X62550000Y-109800000D03*
X91425000Y-126199998D03*
X64600000Y-117850000D03*
X65325000Y-120700000D03*
X54390000Y-112430000D03*
X89900000Y-114800000D03*
X85800000Y-116500000D03*
X89900000Y-110400000D03*
X86400000Y-121600000D03*
X83200000Y-114300000D03*
X57530000Y-109500000D03*
X58580000Y-111780000D03*
X90500000Y-107500000D03*
X90100000Y-106200000D03*
X90000000Y-116300000D03*
X64150000Y-128175000D03*
X60600000Y-120900000D03*
X52550000Y-126775000D03*
X52675000Y-103575000D03*
X79650000Y-105700000D03*
X76700000Y-107200000D03*
X77675000Y-113550000D03*
X78484130Y-118857465D03*
X75650000Y-107175000D03*
X76750000Y-113575000D03*
X79027717Y-118313879D03*
X85775000Y-122225000D03*
X84900000Y-118700000D03*
X89950000Y-118850000D03*
X83950000Y-118650000D03*
X94200000Y-110899998D03*
X58150000Y-105700000D03*
X62180000Y-117100000D03*
X59770000Y-120065000D03*
X57000000Y-124000000D03*
X62050000Y-120070000D03*
X59200000Y-124100000D03*
X55500000Y-124000000D03*
X75800000Y-113625000D03*
X74700000Y-107175000D03*
X74900000Y-113725000D03*
X73675000Y-107200000D03*
X73800000Y-113700000D03*
X72725000Y-107175000D03*
X62600000Y-112625000D03*
X63275000Y-113400000D03*
X62750000Y-108625000D03*
X63250000Y-114375000D03*
X67810000Y-118010000D03*
X71995798Y-112195798D03*
X74200000Y-115025000D03*
X85784018Y-117572348D03*
X64550000Y-108225000D03*
X56675001Y-115974999D03*
X53600000Y-124100000D03*
X54650356Y-109862580D03*
X53699998Y-109500000D03*
X58747410Y-106300000D03*
X93550000Y-110300000D03*
X62275000Y-123000000D03*
X55700000Y-121100000D03*
D28*
X58140000Y-107310000D02*
X57135736Y-107310000D01*
X57135736Y-107310000D02*
X57000000Y-107174264D01*
X57000000Y-106750000D02*
X57000000Y-107174264D01*
X79808290Y-109841710D02*
X79808290Y-110541710D01*
X79808290Y-110541710D02*
X79150000Y-111200000D01*
X79150000Y-111200000D02*
X79150000Y-114100000D01*
X77400000Y-110750000D02*
X78308290Y-109841710D01*
X78308290Y-109841710D02*
X79808290Y-109841710D01*
X67900000Y-102100000D02*
X67900000Y-102325000D01*
X67900000Y-102325000D02*
X70345000Y-104770000D01*
X70345000Y-104770000D02*
X70460000Y-104770000D01*
X60750000Y-110280000D02*
X61280000Y-110280000D01*
X61280000Y-110280000D02*
X61700000Y-110700000D01*
X53975001Y-110850001D02*
X52491709Y-109366709D01*
X52491709Y-109366709D02*
X52491709Y-108041709D01*
X54650000Y-111150000D02*
X54350001Y-110850001D01*
X54350001Y-110850001D02*
X53975001Y-110850001D01*
X81800000Y-107650000D02*
X80745446Y-107650000D01*
X70350000Y-123700000D02*
X70350000Y-124124264D01*
X70350000Y-124124264D02*
X70274264Y-124200000D01*
X70274264Y-124200000D02*
X69260000Y-124200000D01*
X69260000Y-124200000D02*
X68110000Y-124200000D01*
X87250000Y-118675000D02*
X86675000Y-118675000D01*
X86675000Y-118675000D02*
X86500000Y-118850000D01*
X61280000Y-108815000D02*
X59705000Y-108815000D01*
X59380000Y-110230000D02*
X59380000Y-109140000D01*
X59380000Y-109140000D02*
X59705000Y-108815000D01*
X59705000Y-108815000D02*
X59705000Y-108790000D01*
X59705000Y-108790000D02*
X59700000Y-108785000D01*
X59700000Y-108785000D02*
X59700000Y-108300000D01*
X59700000Y-108300000D02*
X59450000Y-108050000D01*
X59450000Y-108050000D02*
X58230000Y-108050000D01*
X58230000Y-108050000D02*
X58140000Y-107960000D01*
X58140000Y-107960000D02*
X58140000Y-107310000D01*
X50450000Y-104400000D02*
X52450000Y-104400000D01*
X52450000Y-104400000D02*
X52900000Y-104850000D01*
X52900000Y-104850000D02*
X52900000Y-106400000D01*
X52850000Y-126000000D02*
X52550000Y-125700000D01*
X52550000Y-125700000D02*
X52550000Y-125300000D01*
X52924264Y-126000000D02*
X52850000Y-126000000D01*
X53500000Y-127000000D02*
X53500000Y-126575736D01*
X53500000Y-126575736D02*
X52924264Y-126000000D01*
X52924264Y-126000000D02*
X51850000Y-126000000D01*
X51850000Y-126000000D02*
X50450000Y-126000000D01*
X50450000Y-116400000D02*
X52750000Y-116400000D01*
X50450000Y-119600000D02*
X52800000Y-119600000D01*
X52800000Y-119600000D02*
X53400000Y-119000000D01*
X50450000Y-113200000D02*
X53200000Y-113200000D01*
X53200000Y-113200000D02*
X53250000Y-113150000D01*
X57530000Y-111780000D02*
X57530000Y-113210000D01*
X57530000Y-113210000D02*
X57480000Y-113260000D01*
X57480000Y-113260000D02*
X56830000Y-113260000D01*
X50450000Y-122000000D02*
X52550000Y-122000000D01*
X52550000Y-122000000D02*
X52800000Y-122000000D01*
X52550000Y-125300000D02*
X52550000Y-122000000D01*
X54525000Y-125325000D02*
X55600000Y-126400000D01*
X55600000Y-126400000D02*
X56990000Y-126400000D01*
X54525000Y-123725000D02*
X54525000Y-125325000D01*
X52800000Y-122000000D02*
X54525000Y-123725000D01*
X80745446Y-107650000D02*
X77865446Y-104770000D01*
X77865446Y-104770000D02*
X71414594Y-104770000D01*
X71414594Y-104770000D02*
X70460000Y-104770000D01*
X85550000Y-115000000D02*
X86050000Y-115500000D01*
X85550000Y-114300000D02*
X85550000Y-115000000D01*
X86050000Y-115500000D02*
X87450000Y-115500000D01*
X85550000Y-113450000D02*
X85550000Y-114300000D01*
X68110000Y-124200000D02*
X68110000Y-125850000D01*
X68110000Y-125850000D02*
X68080000Y-125880000D01*
X92550000Y-107420000D02*
X92510000Y-107460000D01*
X92550000Y-106200000D02*
X92550000Y-107420000D01*
X56990000Y-126400000D02*
X56990000Y-125440000D01*
X60360000Y-125270000D02*
X60850000Y-124780000D01*
X57160000Y-125270000D02*
X60360000Y-125270000D01*
X56990000Y-125440000D02*
X57160000Y-125270000D01*
X62700000Y-124975000D02*
X62700000Y-124200000D01*
X60850000Y-124780000D02*
X60850000Y-125025000D01*
X60850000Y-125025000D02*
X61100000Y-125275000D01*
X61100000Y-125275000D02*
X62400000Y-125275000D01*
X62400000Y-125275000D02*
X62700000Y-124975000D01*
X60850000Y-124325000D02*
X60850000Y-124780000D01*
D29*
X95300000Y-128900000D02*
X97100000Y-127100000D01*
D28*
X87450000Y-116250000D02*
X87450000Y-117100000D01*
X89900000Y-113750000D02*
X89900000Y-112650000D01*
X83550000Y-120300000D02*
X83550000Y-124675000D01*
X83550000Y-124675000D02*
X81925000Y-126300000D01*
X57019599Y-118030401D02*
X57019599Y-118526502D01*
X57019599Y-118526502D02*
X57019599Y-118950766D01*
X57200000Y-117850000D02*
X57019599Y-118030401D01*
X78400000Y-111174264D02*
X78400000Y-110750000D01*
X78400000Y-114775000D02*
X78400000Y-111174264D01*
X80075000Y-116450000D02*
X78400000Y-114775000D01*
X67800000Y-115050000D02*
X68900000Y-115050000D01*
X68900000Y-115050000D02*
X69700000Y-115850000D01*
X69700000Y-115850000D02*
X69700000Y-119520000D01*
X68550000Y-119520000D02*
X69700000Y-119520000D01*
X69700000Y-119520000D02*
X77005000Y-119520000D01*
X66300000Y-115050000D02*
X67800000Y-115050000D01*
X83200000Y-116450000D02*
X84025000Y-116450000D01*
X84025000Y-116450000D02*
X84900000Y-116450000D01*
X84050000Y-114300000D02*
X84050000Y-116425000D01*
X84050000Y-116425000D02*
X84025000Y-116450000D01*
X84900000Y-116450000D02*
X85750000Y-116450000D01*
X85750000Y-116450000D02*
X85800000Y-116500000D01*
X62150001Y-109400001D02*
X62250001Y-109500001D01*
X62150001Y-108210001D02*
X62150001Y-109400001D01*
X61280000Y-107315000D02*
X61280000Y-107340000D01*
X61280000Y-107340000D02*
X62150001Y-108210001D01*
X62250001Y-109500001D02*
X62550000Y-109800000D01*
X77005000Y-119520000D02*
X80075000Y-116450000D01*
X80075000Y-116450000D02*
X83200000Y-116450000D01*
X91000736Y-126199998D02*
X91425000Y-126199998D01*
X86400000Y-121600000D02*
X90999998Y-126199998D01*
X90999998Y-126199998D02*
X91000736Y-126199998D01*
X69625000Y-100900000D02*
X63640000Y-100900000D01*
X63640000Y-100900000D02*
X62420000Y-102120000D01*
X69900000Y-102100000D02*
X69900000Y-101175000D01*
X69900000Y-101175000D02*
X69625000Y-100900000D01*
X55330000Y-114820000D02*
X55330000Y-115980000D01*
X55330000Y-115980000D02*
X57200000Y-117850000D01*
X57200000Y-117850000D02*
X64600000Y-117850000D01*
X64600000Y-117850000D02*
X65610810Y-117850000D01*
X65610810Y-117850000D02*
X67020760Y-119259950D01*
X67020760Y-119259950D02*
X67020760Y-119910000D01*
X67020760Y-119910000D02*
X66115000Y-119910000D01*
X66115000Y-119910000D02*
X65325000Y-120700000D01*
X68550000Y-119520000D02*
X67955000Y-119520000D01*
X67955000Y-119520000D02*
X67565000Y-119910000D01*
X67565000Y-119910000D02*
X67020760Y-119910000D01*
X59705000Y-107315000D02*
X61280000Y-107315000D01*
X54390000Y-113150000D02*
X54500000Y-113260000D01*
X54500000Y-113260000D02*
X55330000Y-113260000D01*
X54390000Y-112430000D02*
X54390000Y-113150000D01*
X55330000Y-114820000D02*
X55330000Y-113260000D01*
X86950000Y-113800000D02*
X86950000Y-113200000D01*
X89300000Y-111150000D02*
X89900000Y-111150000D01*
X89050000Y-111400000D02*
X89300000Y-111150000D01*
X89050000Y-112400000D02*
X89050000Y-111400000D01*
X88600000Y-112850000D02*
X89050000Y-112400000D01*
X87300000Y-112850000D02*
X88600000Y-112850000D01*
X86950000Y-113200000D02*
X87300000Y-112850000D01*
X85050000Y-120300000D02*
X86450000Y-120300000D01*
X86450000Y-120300000D02*
X86500000Y-120350000D01*
X91100000Y-114850000D02*
X89950000Y-114850000D01*
X89950000Y-114850000D02*
X89900000Y-114800000D01*
X89900000Y-110400000D02*
X89900000Y-111150000D01*
X86500000Y-120350000D02*
X86500000Y-121500000D01*
X86500000Y-121500000D02*
X86400000Y-121600000D01*
X83200000Y-114300000D02*
X84050000Y-114300000D01*
X58110000Y-109344264D02*
X58110000Y-108840000D01*
X58110000Y-108840000D02*
X58140000Y-108810000D01*
X57530000Y-109500000D02*
X57954264Y-109500000D01*
X57954264Y-109500000D02*
X58110000Y-109344264D01*
X57530000Y-109500000D02*
X57530000Y-110230000D01*
X60750000Y-111780000D02*
X59380000Y-111780000D01*
X58580000Y-111780000D02*
X59380000Y-111780000D01*
X84225000Y-107125000D02*
X84225000Y-106100000D01*
X84600000Y-107500000D02*
X84225000Y-107125000D01*
X90500000Y-107500000D02*
X84600000Y-107500000D01*
X84275000Y-106050000D02*
X84225000Y-106100000D01*
X84225000Y-106100000D02*
X81850000Y-106100000D01*
X81850000Y-106100000D02*
X81800000Y-106150000D01*
X84225000Y-105575000D02*
X84225000Y-106100000D01*
X90100000Y-106200000D02*
X87500000Y-106200000D01*
X87500000Y-106200000D02*
X87400000Y-106100000D01*
X90100000Y-106200000D02*
X91050000Y-106200000D01*
X88450000Y-113800000D02*
X88450000Y-114450000D01*
X88950000Y-114950000D02*
X88950000Y-115500000D01*
X88450000Y-114450000D02*
X88950000Y-114950000D01*
X90000000Y-116300000D02*
X88950000Y-116300000D01*
X88950000Y-116300000D02*
X89000000Y-116300000D01*
X89000000Y-116300000D02*
X88950000Y-116300000D01*
X88950000Y-117100000D02*
X88950000Y-116300000D01*
X88950000Y-116300000D02*
X88950000Y-115500000D01*
D30*
X64150000Y-128175000D02*
X65325000Y-128175000D01*
X60269620Y-121230380D02*
X59199820Y-121230380D01*
X60600000Y-120900000D02*
X60269620Y-121230380D01*
D28*
X52525000Y-126800000D02*
X52550000Y-126775000D01*
X50450000Y-126800000D02*
X52525000Y-126800000D01*
D30*
X50450000Y-103600000D02*
X52720000Y-103600000D01*
X52720000Y-103600000D02*
X54220000Y-102100000D01*
X54220000Y-102100000D02*
X55300000Y-102100000D01*
X58200000Y-102100000D02*
X60420000Y-102100000D01*
D28*
X79650000Y-105700000D02*
X77675000Y-103725000D01*
X77675000Y-113550000D02*
X76725000Y-112600000D01*
X76725000Y-112600000D02*
X76725000Y-107225000D01*
X76725000Y-107225000D02*
X76700000Y-107200000D01*
X77925000Y-128300000D02*
X77000000Y-128300000D01*
X77000000Y-128300000D02*
X76633298Y-127933298D01*
X76633298Y-127933298D02*
X76633298Y-125891702D01*
X78475000Y-118866595D02*
X78484130Y-118857465D01*
X76633298Y-125891702D02*
X78475000Y-124050000D01*
X78475000Y-124050000D02*
X78475000Y-118866595D01*
X76750000Y-113575000D02*
X75650000Y-112475000D01*
X75650000Y-112475000D02*
X75650000Y-107175000D01*
X77925000Y-126300000D02*
X79327716Y-124897284D01*
X79327716Y-118613878D02*
X79027717Y-118313879D01*
X79327716Y-124897284D02*
X79327716Y-118613878D01*
X93350000Y-123425000D02*
X97250000Y-123425000D01*
X97250000Y-123425000D02*
X98300000Y-122375000D01*
X92300000Y-124475000D02*
X93350000Y-123425000D01*
X92300000Y-126350000D02*
X92300000Y-124475000D01*
X91872601Y-126777399D02*
X92300000Y-126350000D01*
X85775000Y-122225000D02*
X90327399Y-126777399D01*
X90327399Y-126777399D02*
X91872601Y-126777399D01*
X84900000Y-118700000D02*
X84900000Y-117950000D01*
X90899264Y-119375000D02*
X97300000Y-119375000D01*
X97300000Y-119375000D02*
X98300000Y-120375000D01*
X89950000Y-118850000D02*
X90374264Y-118850000D01*
X90374264Y-118850000D02*
X90899264Y-119375000D01*
X83200000Y-117950000D02*
X83200000Y-118400000D01*
X83450000Y-118650000D02*
X83950000Y-118650000D01*
X83200000Y-118400000D02*
X83450000Y-118650000D01*
X93400000Y-108950000D02*
X94200000Y-109750000D01*
X94200000Y-110475734D02*
X94200000Y-110899998D01*
X58150000Y-105700000D02*
X58574264Y-105700000D01*
X80550000Y-108950000D02*
X93400000Y-108950000D01*
X58574264Y-105700000D02*
X58596665Y-105722401D01*
X58596665Y-105722401D02*
X77322401Y-105722401D01*
X77322401Y-105722401D02*
X80550000Y-108950000D01*
X94200000Y-109750000D02*
X94200000Y-110475734D01*
X65350000Y-126400000D02*
X63650000Y-126400000D01*
X62180000Y-117100000D02*
X62850000Y-116430000D01*
X62850000Y-116430000D02*
X65520000Y-116430000D01*
X57000180Y-122949960D02*
X57199570Y-122949960D01*
X57199570Y-122949960D02*
X58070000Y-122079530D01*
X58070000Y-122079530D02*
X58070000Y-120210000D01*
X58070000Y-120210000D02*
X58215000Y-120065000D01*
X58215000Y-120065000D02*
X59345736Y-120065000D01*
X59345736Y-120065000D02*
X59770000Y-120065000D01*
X55599960Y-122949960D02*
X53050000Y-120400000D01*
X53050000Y-120400000D02*
X50450000Y-120400000D01*
X57000000Y-124000000D02*
X57000180Y-123999820D01*
X57000180Y-123999820D02*
X57000180Y-122949960D01*
X50466700Y-120383300D02*
X50450000Y-120400000D01*
X57000180Y-122949960D02*
X55599960Y-122949960D01*
X59199820Y-122949960D02*
X60430040Y-122949960D01*
X62050000Y-121330000D02*
X62050000Y-120070000D01*
X60430040Y-122949960D02*
X62050000Y-121330000D01*
X62045000Y-118965000D02*
X62045000Y-120065000D01*
X62045000Y-120065000D02*
X62050000Y-120070000D01*
X62070000Y-118990000D02*
X62045000Y-118965000D01*
X59200000Y-124100000D02*
X59199820Y-124099820D01*
X59199820Y-124099820D02*
X59199820Y-122949960D01*
X55500000Y-123450000D02*
X53250000Y-121200000D01*
X53250000Y-121200000D02*
X52700000Y-121200000D01*
X52700000Y-121200000D02*
X50450000Y-121200000D01*
X55500000Y-124000000D02*
X55500000Y-123450000D01*
X74700000Y-107175000D02*
X74700000Y-112525000D01*
X74700000Y-112525000D02*
X75800000Y-113625000D01*
X73675000Y-107200000D02*
X73675000Y-112500000D01*
X73675000Y-112500000D02*
X74900000Y-113725000D01*
X72725000Y-112625000D02*
X73800000Y-113700000D01*
X72725000Y-107175000D02*
X72725000Y-112625000D01*
X67800000Y-113550000D02*
X67800000Y-113050000D01*
X67800000Y-113050000D02*
X68427401Y-112422599D01*
X68427401Y-112422599D02*
X68427401Y-110477401D01*
X68427401Y-110477401D02*
X68149999Y-110199999D01*
X68149999Y-110199999D02*
X67475000Y-109525000D01*
X62600000Y-112625000D02*
X65700000Y-109525000D01*
X65700000Y-109525000D02*
X67475000Y-109525000D01*
X65125000Y-111525000D02*
X66300000Y-111525000D01*
X66300000Y-111525000D02*
X67475000Y-111525000D01*
X66300000Y-113550000D02*
X66300000Y-111525000D01*
X63275000Y-113400000D02*
X63275000Y-113375000D01*
X63275000Y-113375000D02*
X65125000Y-111525000D01*
X62750000Y-108625000D02*
X63850000Y-107525000D01*
X63850000Y-107525000D02*
X67475000Y-107525000D01*
X63250000Y-114375000D02*
X68375000Y-114375000D01*
X68375000Y-114375000D02*
X69475000Y-113275000D01*
X69475000Y-113275000D02*
X69475000Y-111525000D01*
X67020760Y-118010000D02*
X67810000Y-118010000D01*
X67810000Y-118010000D02*
X68540000Y-118010000D01*
X68540000Y-118010000D02*
X68550000Y-118020000D01*
X67020000Y-116430000D02*
X67020000Y-118009240D01*
X67020000Y-118009240D02*
X67020760Y-118010000D01*
D30*
X63545000Y-118965000D02*
X65016780Y-118965000D01*
X65016780Y-118965000D02*
X65021780Y-118960000D01*
D28*
X71995798Y-112820798D02*
X71995798Y-112620062D01*
X74200000Y-115025000D02*
X71995798Y-112820798D01*
X71995798Y-112620062D02*
X71995798Y-112195798D01*
X92550000Y-122375000D02*
X87927401Y-117752401D01*
X87927401Y-117752401D02*
X85964071Y-117752401D01*
X85964071Y-117752401D02*
X85784018Y-117572348D01*
X96300000Y-122375000D02*
X92550000Y-122375000D01*
X64550000Y-108649264D02*
X64550000Y-108225000D01*
X64550000Y-109550000D02*
X64550000Y-108649264D01*
X58125001Y-115974999D02*
X64550000Y-109550000D01*
X56675001Y-115974999D02*
X58125001Y-115974999D01*
X59250000Y-127675000D02*
X59610000Y-127315000D01*
X59610000Y-127315000D02*
X59610000Y-126400000D01*
X55350000Y-127675000D02*
X59250000Y-127675000D01*
X53600000Y-125925000D02*
X55350000Y-127675000D01*
X53600000Y-124100000D02*
X53600000Y-125925000D01*
X59610000Y-126400000D02*
X61750000Y-126400000D01*
X54650356Y-109438316D02*
X54650356Y-109862580D01*
X65210000Y-103520000D02*
X59150000Y-103520000D01*
X66460000Y-104770000D02*
X65210000Y-103520000D01*
X54650356Y-108019644D02*
X54650356Y-109438316D01*
X59150000Y-103520000D02*
X54650356Y-108019644D01*
X53699998Y-109075736D02*
X53699998Y-109500000D01*
X53699998Y-108400909D02*
X53699998Y-109075736D01*
X58990907Y-103110000D02*
X53699998Y-108400909D01*
X68460000Y-104770000D02*
X66800000Y-103110000D01*
X66800000Y-103110000D02*
X58990907Y-103110000D01*
X59171674Y-106300000D02*
X58747410Y-106300000D01*
X59194273Y-106277401D02*
X59171674Y-106300000D01*
X80430906Y-109400000D02*
X77308307Y-106277401D01*
X77308307Y-106277401D02*
X59194273Y-106277401D01*
X93550000Y-110300000D02*
X92650000Y-109400000D01*
X92650000Y-109400000D02*
X80430906Y-109400000D01*
D30*
X65200000Y-123000000D02*
X64825000Y-122625000D01*
X65490000Y-124200000D02*
X65490000Y-123290000D01*
X65490000Y-123290000D02*
X65200000Y-123000000D01*
X62650000Y-122625000D02*
X62275000Y-123000000D01*
X64825000Y-122625000D02*
X62650000Y-122625000D01*
X62275000Y-123000000D02*
X62300000Y-123000000D01*
X61750000Y-123550000D02*
X62300000Y-123000000D01*
X61750000Y-124200000D02*
X61750000Y-123550000D01*
X63650000Y-124200000D02*
X65490000Y-124200000D01*
D28*
X55749960Y-121050040D02*
X57000180Y-121050040D01*
X55700000Y-121100000D02*
X55749960Y-121050040D01*
D31*
G36*
X82471546Y-116970865D02*
X82598866Y-117057859D01*
X82750000Y-117088464D01*
X83650000Y-117088464D01*
X83791190Y-117061897D01*
X83920865Y-116978454D01*
X83936207Y-116956000D01*
X84161981Y-116956000D01*
X84171546Y-116970865D01*
X84298866Y-117057859D01*
X84450000Y-117088464D01*
X85304826Y-117088464D01*
X85207031Y-117186089D01*
X85154940Y-117311536D01*
X84450000Y-117311536D01*
X84308810Y-117338103D01*
X84179135Y-117421546D01*
X84092141Y-117548866D01*
X84061536Y-117700000D01*
X84061536Y-117969097D01*
X84038464Y-117969077D01*
X84038464Y-117700000D01*
X84011897Y-117558810D01*
X83928454Y-117429135D01*
X83801134Y-117342141D01*
X83650000Y-117311536D01*
X82750000Y-117311536D01*
X82608810Y-117338103D01*
X82479135Y-117421546D01*
X82392141Y-117548866D01*
X82361536Y-117700000D01*
X82361536Y-118200000D01*
X82388103Y-118341190D01*
X82471546Y-118470865D01*
X82598866Y-118557859D01*
X82730711Y-118584558D01*
X82732517Y-118593638D01*
X82842204Y-118757796D01*
X83092204Y-119007796D01*
X83256362Y-119117483D01*
X83450000Y-119156000D01*
X83492877Y-119156000D01*
X83563741Y-119226987D01*
X83813946Y-119330882D01*
X84084865Y-119331118D01*
X84335252Y-119227661D01*
X84399989Y-119163037D01*
X84513741Y-119276987D01*
X84763946Y-119380882D01*
X85034865Y-119381118D01*
X85285252Y-119277661D01*
X85476987Y-119086259D01*
X85522355Y-118977002D01*
X85648748Y-118977002D01*
X85490000Y-119135750D01*
X85490000Y-119376309D01*
X85572260Y-119574903D01*
X85451134Y-119492141D01*
X85300000Y-119461536D01*
X84800000Y-119461536D01*
X84658810Y-119488103D01*
X84529135Y-119571546D01*
X84442141Y-119698866D01*
X84411536Y-119850000D01*
X84411536Y-120750000D01*
X84438103Y-120891190D01*
X84521546Y-121020865D01*
X84648866Y-121107859D01*
X84800000Y-121138464D01*
X85300000Y-121138464D01*
X85441190Y-121111897D01*
X85570865Y-121028454D01*
X85657859Y-120901134D01*
X85677124Y-120806000D01*
X85747073Y-120806000D01*
X85763103Y-120891190D01*
X85846546Y-121020865D01*
X85947278Y-121089692D01*
X85823013Y-121213741D01*
X85719118Y-121463946D01*
X85719048Y-121543951D01*
X85640135Y-121543882D01*
X85389748Y-121647339D01*
X85198013Y-121838741D01*
X85094118Y-122088946D01*
X85093882Y-122359865D01*
X85197339Y-122610252D01*
X85388741Y-122801987D01*
X85638946Y-122905882D01*
X85740378Y-122905970D01*
X89969603Y-127135195D01*
X90133761Y-127244882D01*
X90327399Y-127283399D01*
X91872601Y-127283399D01*
X92066239Y-127244882D01*
X92230397Y-127135195D01*
X92657796Y-126707796D01*
X92767483Y-126543638D01*
X92806000Y-126350000D01*
X92806000Y-124684592D01*
X93559592Y-123931000D01*
X93624104Y-123931000D01*
X93565000Y-124073690D01*
X93565000Y-126814250D01*
X93723750Y-126973000D01*
X96973000Y-126973000D01*
X96973000Y-126953000D01*
X97227000Y-126953000D01*
X97227000Y-126973000D01*
X97247000Y-126973000D01*
X97247000Y-127227000D01*
X97227000Y-127227000D01*
X97227000Y-127247000D01*
X96973000Y-127247000D01*
X96973000Y-127227000D01*
X93723750Y-127227000D01*
X93565000Y-127385750D01*
X93565000Y-129569000D01*
X86317281Y-129569000D01*
X86603781Y-129450328D01*
X86662542Y-129217147D01*
X85925000Y-128479605D01*
X85187458Y-129217147D01*
X85246219Y-129450328D01*
X85585212Y-129569000D01*
X52681000Y-129569000D01*
X52681000Y-128650000D01*
X52672719Y-128608367D01*
X52672719Y-128565917D01*
X52611823Y-128259770D01*
X52547468Y-128104402D01*
X52547464Y-128104398D01*
X52377000Y-127849281D01*
X52377000Y-127440541D01*
X52413946Y-127455882D01*
X52684865Y-127456118D01*
X52935252Y-127352661D01*
X53126987Y-127161259D01*
X53230882Y-126911054D01*
X53231118Y-126640135D01*
X53127661Y-126389748D01*
X52936259Y-126198013D01*
X52686054Y-126094118D01*
X52415135Y-126093882D01*
X52377000Y-126109639D01*
X52377000Y-124234865D01*
X52918882Y-124234865D01*
X53022339Y-124485252D01*
X53094000Y-124557038D01*
X53094000Y-125925000D01*
X53132517Y-126118638D01*
X53242204Y-126282796D01*
X54992204Y-128032796D01*
X55156362Y-128142483D01*
X55350000Y-128181000D01*
X59250000Y-128181000D01*
X59443638Y-128142483D01*
X59607796Y-128032796D01*
X59967796Y-127672796D01*
X60077483Y-127508638D01*
X60098403Y-127403464D01*
X60510000Y-127403464D01*
X60651190Y-127376897D01*
X60780865Y-127293454D01*
X60867859Y-127166134D01*
X60898464Y-127015000D01*
X60898464Y-126906000D01*
X61036536Y-126906000D01*
X61036536Y-126930000D01*
X61063103Y-127071190D01*
X61146546Y-127200865D01*
X61273866Y-127287859D01*
X61425000Y-127318464D01*
X62075000Y-127318464D01*
X62216190Y-127291897D01*
X62345865Y-127208454D01*
X62432859Y-127081134D01*
X62463464Y-126930000D01*
X62463464Y-125870000D01*
X62936536Y-125870000D01*
X62936536Y-126930000D01*
X62963103Y-127071190D01*
X63046546Y-127200865D01*
X63173866Y-127287859D01*
X63325000Y-127318464D01*
X63975000Y-127318464D01*
X64116190Y-127291897D01*
X64245865Y-127208454D01*
X64332859Y-127081134D01*
X64363464Y-126930000D01*
X64363464Y-126906000D01*
X64586186Y-126906000D01*
X64588103Y-126916190D01*
X64671546Y-127045865D01*
X64798866Y-127132859D01*
X64950000Y-127163464D01*
X65750000Y-127163464D01*
X65891190Y-127136897D01*
X65908081Y-127126028D01*
X65911673Y-127134699D01*
X66089475Y-127312500D01*
X66036673Y-127365301D01*
X65940000Y-127598690D01*
X65940000Y-127600301D01*
X65936897Y-127583810D01*
X65853454Y-127454135D01*
X65726134Y-127367141D01*
X65575000Y-127336536D01*
X65075000Y-127336536D01*
X64933810Y-127363103D01*
X64804135Y-127446546D01*
X64737548Y-127544000D01*
X64406182Y-127544000D01*
X64286054Y-127494118D01*
X64015135Y-127493882D01*
X63764748Y-127597339D01*
X63573013Y-127788741D01*
X63469118Y-128038946D01*
X63468882Y-128309865D01*
X63572339Y-128560252D01*
X63763741Y-128751987D01*
X64013946Y-128855882D01*
X64284865Y-128856118D01*
X64406161Y-128806000D01*
X64738720Y-128806000D01*
X64796546Y-128895865D01*
X64923866Y-128982859D01*
X65075000Y-129013464D01*
X65575000Y-129013464D01*
X65716190Y-128986897D01*
X65845865Y-128903454D01*
X65932859Y-128776134D01*
X65940000Y-128740870D01*
X65940000Y-128751310D01*
X66036673Y-128984699D01*
X66215302Y-129163327D01*
X66448691Y-129260000D01*
X66541250Y-129260000D01*
X66700000Y-129101250D01*
X66700000Y-128302000D01*
X66950000Y-128302000D01*
X66950000Y-129101250D01*
X67108750Y-129260000D01*
X67201309Y-129260000D01*
X67434698Y-129163327D01*
X67613327Y-128984699D01*
X67710000Y-128751310D01*
X67710000Y-128460750D01*
X67551250Y-128302000D01*
X66950000Y-128302000D01*
X66700000Y-128302000D01*
X66678000Y-128302000D01*
X66678000Y-128048000D01*
X66700000Y-128048000D01*
X66700000Y-127274250D01*
X66723000Y-127251250D01*
X66723000Y-127248750D01*
X66950000Y-127248750D01*
X66950000Y-128048000D01*
X67551250Y-128048000D01*
X67710000Y-127889250D01*
X67710000Y-127598690D01*
X67613327Y-127365301D01*
X67575513Y-127327487D01*
X67609698Y-127313327D01*
X67788327Y-127134699D01*
X67885000Y-126901310D01*
X67885000Y-126685750D01*
X67726250Y-126527000D01*
X66977000Y-126527000D01*
X66977000Y-127221750D01*
X66950000Y-127248750D01*
X66723000Y-127248750D01*
X66723000Y-126527000D01*
X66703000Y-126527000D01*
X66703000Y-126273000D01*
X66723000Y-126273000D01*
X66723000Y-125548750D01*
X66564250Y-125390000D01*
X66323691Y-125390000D01*
X66090302Y-125486673D01*
X65911673Y-125665301D01*
X65908754Y-125672348D01*
X65901134Y-125667141D01*
X65750000Y-125636536D01*
X64950000Y-125636536D01*
X64808810Y-125663103D01*
X64679135Y-125746546D01*
X64592141Y-125873866D01*
X64588064Y-125894000D01*
X64363464Y-125894000D01*
X64363464Y-125870000D01*
X64336897Y-125728810D01*
X64253454Y-125599135D01*
X64126134Y-125512141D01*
X63975000Y-125481536D01*
X63325000Y-125481536D01*
X63183810Y-125508103D01*
X63054135Y-125591546D01*
X62967141Y-125718866D01*
X62936536Y-125870000D01*
X62463464Y-125870000D01*
X62436897Y-125728810D01*
X62353454Y-125599135D01*
X62226134Y-125512141D01*
X62075000Y-125481536D01*
X61425000Y-125481536D01*
X61283810Y-125508103D01*
X61154135Y-125591546D01*
X61067141Y-125718866D01*
X61036536Y-125870000D01*
X61036536Y-125894000D01*
X60898464Y-125894000D01*
X60898464Y-125785000D01*
X60871897Y-125643810D01*
X60788454Y-125514135D01*
X60661134Y-125427141D01*
X60510000Y-125396536D01*
X58710000Y-125396536D01*
X58568810Y-125423103D01*
X58457172Y-125494939D01*
X58428327Y-125425301D01*
X58249698Y-125246673D01*
X58016309Y-125150000D01*
X57275750Y-125150000D01*
X57117000Y-125308750D01*
X57117000Y-126273000D01*
X57137000Y-126273000D01*
X57137000Y-126527000D01*
X57117000Y-126527000D01*
X57117000Y-126547000D01*
X56863000Y-126547000D01*
X56863000Y-126527000D01*
X55613750Y-126527000D01*
X55455000Y-126685750D01*
X55455000Y-127064408D01*
X54106000Y-125715408D01*
X54106000Y-125658690D01*
X55455000Y-125658690D01*
X55455000Y-126114250D01*
X55613750Y-126273000D01*
X56863000Y-126273000D01*
X56863000Y-125308750D01*
X56704250Y-125150000D01*
X55963691Y-125150000D01*
X55730302Y-125246673D01*
X55551673Y-125425301D01*
X55455000Y-125658690D01*
X54106000Y-125658690D01*
X54106000Y-124557123D01*
X54176987Y-124486259D01*
X54280882Y-124236054D01*
X54281118Y-123965135D01*
X54177661Y-123714748D01*
X53986259Y-123523013D01*
X53736054Y-123419118D01*
X53465135Y-123418882D01*
X53214748Y-123522339D01*
X53023013Y-123713741D01*
X52919118Y-123963946D01*
X52918882Y-124234865D01*
X52377000Y-124234865D01*
X52377000Y-121706000D01*
X53040408Y-121706000D01*
X54935592Y-123601184D01*
X54923013Y-123613741D01*
X54819118Y-123863946D01*
X54818882Y-124134865D01*
X54922339Y-124385252D01*
X55113741Y-124576987D01*
X55363946Y-124680882D01*
X55634865Y-124681118D01*
X55885252Y-124577661D01*
X56076987Y-124386259D01*
X56180882Y-124136054D01*
X56181118Y-123865135D01*
X56158352Y-123810037D01*
X56300410Y-123838804D01*
X56329558Y-123838804D01*
X56319118Y-123863946D01*
X56318882Y-124134865D01*
X56422339Y-124385252D01*
X56613741Y-124576987D01*
X56863946Y-124680882D01*
X57134865Y-124681118D01*
X57385252Y-124577661D01*
X57576987Y-124386259D01*
X57680882Y-124136054D01*
X57681118Y-123865135D01*
X57670238Y-123838804D01*
X57699950Y-123838804D01*
X57841140Y-123812237D01*
X57970815Y-123728794D01*
X58057809Y-123601474D01*
X58088414Y-123450340D01*
X58088414Y-122776708D01*
X58111586Y-122753536D01*
X58111586Y-123450340D01*
X58138153Y-123591530D01*
X58221596Y-123721205D01*
X58348916Y-123808199D01*
X58500050Y-123838804D01*
X58571082Y-123838804D01*
X58519118Y-123963946D01*
X58518882Y-124234865D01*
X58622339Y-124485252D01*
X58813741Y-124676987D01*
X59063946Y-124780882D01*
X59334865Y-124781118D01*
X59585252Y-124677661D01*
X59776987Y-124486259D01*
X59880882Y-124236054D01*
X59881118Y-123965135D01*
X59828919Y-123838804D01*
X59899590Y-123838804D01*
X60040780Y-123812237D01*
X60170455Y-123728794D01*
X60210627Y-123670000D01*
X61036536Y-123670000D01*
X61036536Y-124730000D01*
X61063103Y-124871190D01*
X61146546Y-125000865D01*
X61273866Y-125087859D01*
X61425000Y-125118464D01*
X61865439Y-125118464D01*
X62015301Y-125268327D01*
X62248690Y-125365000D01*
X62414250Y-125365000D01*
X62573000Y-125206250D01*
X62573000Y-124327000D01*
X62553000Y-124327000D01*
X62553000Y-124073000D01*
X62573000Y-124073000D01*
X62573000Y-124053000D01*
X62827000Y-124053000D01*
X62827000Y-124073000D01*
X62847000Y-124073000D01*
X62847000Y-124327000D01*
X62827000Y-124327000D01*
X62827000Y-125206250D01*
X62985750Y-125365000D01*
X63151310Y-125365000D01*
X63384699Y-125268327D01*
X63534561Y-125118464D01*
X63975000Y-125118464D01*
X64116190Y-125091897D01*
X64245865Y-125008454D01*
X64254037Y-124996493D01*
X64311546Y-125085865D01*
X64438866Y-125172859D01*
X64590000Y-125203464D01*
X66390000Y-125203464D01*
X66531190Y-125176897D01*
X66642828Y-125105061D01*
X66671673Y-125174699D01*
X66850302Y-125353327D01*
X67078076Y-125447674D01*
X66977000Y-125548750D01*
X66977000Y-126273000D01*
X67726250Y-126273000D01*
X67885000Y-126114250D01*
X67885000Y-125898690D01*
X67788327Y-125665301D01*
X67609698Y-125486673D01*
X67521162Y-125450000D01*
X67824250Y-125450000D01*
X67983000Y-125291250D01*
X67983000Y-124327000D01*
X68237000Y-124327000D01*
X68237000Y-125291250D01*
X68395750Y-125450000D01*
X69136309Y-125450000D01*
X69369698Y-125353327D01*
X69548327Y-125174699D01*
X69645000Y-124941310D01*
X69645000Y-124485750D01*
X69486250Y-124327000D01*
X68237000Y-124327000D01*
X67983000Y-124327000D01*
X67963000Y-124327000D01*
X67963000Y-124073000D01*
X67983000Y-124073000D01*
X67983000Y-123108750D01*
X68237000Y-123108750D01*
X68237000Y-124073000D01*
X69486250Y-124073000D01*
X69645000Y-123914250D01*
X69645000Y-123458690D01*
X69548327Y-123225301D01*
X69369698Y-123046673D01*
X69136309Y-122950000D01*
X68395750Y-122950000D01*
X68237000Y-123108750D01*
X67983000Y-123108750D01*
X67824250Y-122950000D01*
X67083691Y-122950000D01*
X66850302Y-123046673D01*
X66671673Y-123225301D01*
X66642283Y-123296253D01*
X66541134Y-123227141D01*
X66390000Y-123196536D01*
X66102409Y-123196536D01*
X66072968Y-123048527D01*
X65936184Y-122843816D01*
X65271184Y-122178816D01*
X65066473Y-122042032D01*
X64825000Y-121994000D01*
X62650000Y-121994000D01*
X62408527Y-122042032D01*
X62203816Y-122178816D01*
X62009965Y-122372667D01*
X61889748Y-122422339D01*
X61698013Y-122613741D01*
X61629930Y-122777701D01*
X61303816Y-123103816D01*
X61167032Y-123308527D01*
X61149033Y-123399013D01*
X61067141Y-123518866D01*
X61036536Y-123670000D01*
X60210627Y-123670000D01*
X60257449Y-123601474D01*
X60286916Y-123455960D01*
X60430040Y-123455960D01*
X60623678Y-123417443D01*
X60787836Y-123307756D01*
X62407796Y-121687796D01*
X62517483Y-121523638D01*
X62556000Y-121330000D01*
X62556000Y-120527123D01*
X62626987Y-120456259D01*
X62730882Y-120206054D01*
X62731118Y-119935135D01*
X62627661Y-119684748D01*
X62594506Y-119651536D01*
X62652859Y-119566134D01*
X62683464Y-119415000D01*
X62683464Y-118515000D01*
X62656897Y-118373810D01*
X62645437Y-118356000D01*
X62942516Y-118356000D01*
X62937141Y-118363866D01*
X62906536Y-118515000D01*
X62906536Y-119415000D01*
X62933103Y-119556190D01*
X63016546Y-119685865D01*
X63143866Y-119772859D01*
X63295000Y-119803464D01*
X63795000Y-119803464D01*
X63936190Y-119776897D01*
X64065865Y-119693454D01*
X64132452Y-119596000D01*
X64320809Y-119596000D01*
X64343276Y-119630915D01*
X64470596Y-119717909D01*
X64621730Y-119748514D01*
X65421830Y-119748514D01*
X65563020Y-119721947D01*
X65631574Y-119677834D01*
X65290439Y-120018969D01*
X65190135Y-120018882D01*
X64939748Y-120122339D01*
X64748013Y-120313741D01*
X64644118Y-120563946D01*
X64643882Y-120834865D01*
X64747339Y-121085252D01*
X64938741Y-121276987D01*
X65188946Y-121380882D01*
X65459865Y-121381118D01*
X65710252Y-121277661D01*
X65901987Y-121086259D01*
X66005882Y-120836054D01*
X66005970Y-120734622D01*
X66270770Y-120469822D01*
X66342256Y-120580915D01*
X66469576Y-120667909D01*
X66620710Y-120698514D01*
X67420810Y-120698514D01*
X67562000Y-120671947D01*
X67691675Y-120588504D01*
X67778669Y-120461184D01*
X67801405Y-120348907D01*
X67922796Y-120267796D01*
X68043558Y-120147034D01*
X68100000Y-120158464D01*
X69000000Y-120158464D01*
X69141190Y-120131897D01*
X69270865Y-120048454D01*
X69286207Y-120026000D01*
X77005000Y-120026000D01*
X77198638Y-119987483D01*
X77362796Y-119877796D01*
X77952132Y-119288460D01*
X77969000Y-119305357D01*
X77969000Y-123840408D01*
X76275502Y-125533906D01*
X76165815Y-125698064D01*
X76127298Y-125891702D01*
X76127298Y-127933298D01*
X76165815Y-128126936D01*
X76275502Y-128291094D01*
X76642204Y-128657796D01*
X76806362Y-128767483D01*
X76861536Y-128778458D01*
X76861536Y-128975000D01*
X76888103Y-129116190D01*
X76971546Y-129245865D01*
X77098866Y-129332859D01*
X77250000Y-129363464D01*
X78600000Y-129363464D01*
X78741190Y-129336897D01*
X78870865Y-129253454D01*
X78957859Y-129126134D01*
X78988464Y-128975000D01*
X78988464Y-128798697D01*
X79029245Y-128897394D01*
X79326043Y-129194711D01*
X79714027Y-129355816D01*
X80134130Y-129356183D01*
X80522394Y-129195755D01*
X80819711Y-128898957D01*
X80925060Y-128645248D01*
X81029245Y-128897394D01*
X81326043Y-129194711D01*
X81714027Y-129355816D01*
X82134130Y-129356183D01*
X82522394Y-129195755D01*
X82819711Y-128898957D01*
X82925060Y-128645248D01*
X83029245Y-128897394D01*
X83326043Y-129194711D01*
X83714027Y-129355816D01*
X84134130Y-129356183D01*
X84522394Y-129195755D01*
X84764455Y-128954116D01*
X84774672Y-128978781D01*
X85007853Y-129037542D01*
X85745395Y-128300000D01*
X86104605Y-128300000D01*
X86842147Y-129037542D01*
X87075328Y-128978781D01*
X87247522Y-128486900D01*
X87218375Y-127966566D01*
X87075328Y-127621219D01*
X86842147Y-127562458D01*
X86104605Y-128300000D01*
X85745395Y-128300000D01*
X85007853Y-127562458D01*
X84774672Y-127621219D01*
X84765543Y-127647297D01*
X84523957Y-127405289D01*
X84270248Y-127299940D01*
X84522394Y-127195755D01*
X84819711Y-126898957D01*
X84925060Y-126645248D01*
X85029245Y-126897394D01*
X85270884Y-127139455D01*
X85246219Y-127149672D01*
X85187458Y-127382853D01*
X85925000Y-128120395D01*
X86662542Y-127382853D01*
X86603781Y-127149672D01*
X86577703Y-127140543D01*
X86819711Y-126898957D01*
X86980816Y-126510973D01*
X86981183Y-126090870D01*
X86820755Y-125702606D01*
X86523957Y-125405289D01*
X86135973Y-125244184D01*
X85715870Y-125243817D01*
X85327606Y-125404245D01*
X85030289Y-125701043D01*
X84924940Y-125954752D01*
X84820755Y-125702606D01*
X84523957Y-125405289D01*
X84135973Y-125244184D01*
X83715870Y-125243817D01*
X83683329Y-125257263D01*
X83907796Y-125032796D01*
X84017483Y-124868638D01*
X84056000Y-124675000D01*
X84056000Y-121038019D01*
X84070865Y-121028454D01*
X84157859Y-120901134D01*
X84188464Y-120750000D01*
X84188464Y-119850000D01*
X84161897Y-119708810D01*
X84078454Y-119579135D01*
X83951134Y-119492141D01*
X83800000Y-119461536D01*
X83300000Y-119461536D01*
X83158810Y-119488103D01*
X83029135Y-119571546D01*
X82942141Y-119698866D01*
X82911536Y-119850000D01*
X82911536Y-120750000D01*
X82938103Y-120891190D01*
X83021546Y-121020865D01*
X83044000Y-121036207D01*
X83044000Y-124465408D01*
X82227301Y-125282107D01*
X82135973Y-125244184D01*
X81715870Y-125243817D01*
X81327606Y-125404245D01*
X81030289Y-125701043D01*
X80924940Y-125954752D01*
X80820755Y-125702606D01*
X80523957Y-125405289D01*
X80135973Y-125244184D01*
X79715870Y-125243817D01*
X79683329Y-125257263D01*
X79685512Y-125255080D01*
X79795199Y-125090922D01*
X79833716Y-124897284D01*
X79833716Y-118613878D01*
X79795199Y-118420240D01*
X79708738Y-118290842D01*
X79708835Y-118179014D01*
X79605378Y-117928627D01*
X79458799Y-117781793D01*
X80284592Y-116956000D01*
X82461981Y-116956000D01*
X82471546Y-116970865D01*
X82471546Y-116970865D01*
G37*
X82471546Y-116970865D02*
X82598866Y-117057859D01*
X82750000Y-117088464D01*
X83650000Y-117088464D01*
X83791190Y-117061897D01*
X83920865Y-116978454D01*
X83936207Y-116956000D01*
X84161981Y-116956000D01*
X84171546Y-116970865D01*
X84298866Y-117057859D01*
X84450000Y-117088464D01*
X85304826Y-117088464D01*
X85207031Y-117186089D01*
X85154940Y-117311536D01*
X84450000Y-117311536D01*
X84308810Y-117338103D01*
X84179135Y-117421546D01*
X84092141Y-117548866D01*
X84061536Y-117700000D01*
X84061536Y-117969097D01*
X84038464Y-117969077D01*
X84038464Y-117700000D01*
X84011897Y-117558810D01*
X83928454Y-117429135D01*
X83801134Y-117342141D01*
X83650000Y-117311536D01*
X82750000Y-117311536D01*
X82608810Y-117338103D01*
X82479135Y-117421546D01*
X82392141Y-117548866D01*
X82361536Y-117700000D01*
X82361536Y-118200000D01*
X82388103Y-118341190D01*
X82471546Y-118470865D01*
X82598866Y-118557859D01*
X82730711Y-118584558D01*
X82732517Y-118593638D01*
X82842204Y-118757796D01*
X83092204Y-119007796D01*
X83256362Y-119117483D01*
X83450000Y-119156000D01*
X83492877Y-119156000D01*
X83563741Y-119226987D01*
X83813946Y-119330882D01*
X84084865Y-119331118D01*
X84335252Y-119227661D01*
X84399989Y-119163037D01*
X84513741Y-119276987D01*
X84763946Y-119380882D01*
X85034865Y-119381118D01*
X85285252Y-119277661D01*
X85476987Y-119086259D01*
X85522355Y-118977002D01*
X85648748Y-118977002D01*
X85490000Y-119135750D01*
X85490000Y-119376309D01*
X85572260Y-119574903D01*
X85451134Y-119492141D01*
X85300000Y-119461536D01*
X84800000Y-119461536D01*
X84658810Y-119488103D01*
X84529135Y-119571546D01*
X84442141Y-119698866D01*
X84411536Y-119850000D01*
X84411536Y-120750000D01*
X84438103Y-120891190D01*
X84521546Y-121020865D01*
X84648866Y-121107859D01*
X84800000Y-121138464D01*
X85300000Y-121138464D01*
X85441190Y-121111897D01*
X85570865Y-121028454D01*
X85657859Y-120901134D01*
X85677124Y-120806000D01*
X85747073Y-120806000D01*
X85763103Y-120891190D01*
X85846546Y-121020865D01*
X85947278Y-121089692D01*
X85823013Y-121213741D01*
X85719118Y-121463946D01*
X85719048Y-121543951D01*
X85640135Y-121543882D01*
X85389748Y-121647339D01*
X85198013Y-121838741D01*
X85094118Y-122088946D01*
X85093882Y-122359865D01*
X85197339Y-122610252D01*
X85388741Y-122801987D01*
X85638946Y-122905882D01*
X85740378Y-122905970D01*
X89969603Y-127135195D01*
X90133761Y-127244882D01*
X90327399Y-127283399D01*
X91872601Y-127283399D01*
X92066239Y-127244882D01*
X92230397Y-127135195D01*
X92657796Y-126707796D01*
X92767483Y-126543638D01*
X92806000Y-126350000D01*
X92806000Y-124684592D01*
X93559592Y-123931000D01*
X93624104Y-123931000D01*
X93565000Y-124073690D01*
X93565000Y-126814250D01*
X93723750Y-126973000D01*
X96973000Y-126973000D01*
X96973000Y-126953000D01*
X97227000Y-126953000D01*
X97227000Y-126973000D01*
X97247000Y-126973000D01*
X97247000Y-127227000D01*
X97227000Y-127227000D01*
X97227000Y-127247000D01*
X96973000Y-127247000D01*
X96973000Y-127227000D01*
X93723750Y-127227000D01*
X93565000Y-127385750D01*
X93565000Y-129569000D01*
X86317281Y-129569000D01*
X86603781Y-129450328D01*
X86662542Y-129217147D01*
X85925000Y-128479605D01*
X85187458Y-129217147D01*
X85246219Y-129450328D01*
X85585212Y-129569000D01*
X52681000Y-129569000D01*
X52681000Y-128650000D01*
X52672719Y-128608367D01*
X52672719Y-128565917D01*
X52611823Y-128259770D01*
X52547468Y-128104402D01*
X52547464Y-128104398D01*
X52377000Y-127849281D01*
X52377000Y-127440541D01*
X52413946Y-127455882D01*
X52684865Y-127456118D01*
X52935252Y-127352661D01*
X53126987Y-127161259D01*
X53230882Y-126911054D01*
X53231118Y-126640135D01*
X53127661Y-126389748D01*
X52936259Y-126198013D01*
X52686054Y-126094118D01*
X52415135Y-126093882D01*
X52377000Y-126109639D01*
X52377000Y-124234865D01*
X52918882Y-124234865D01*
X53022339Y-124485252D01*
X53094000Y-124557038D01*
X53094000Y-125925000D01*
X53132517Y-126118638D01*
X53242204Y-126282796D01*
X54992204Y-128032796D01*
X55156362Y-128142483D01*
X55350000Y-128181000D01*
X59250000Y-128181000D01*
X59443638Y-128142483D01*
X59607796Y-128032796D01*
X59967796Y-127672796D01*
X60077483Y-127508638D01*
X60098403Y-127403464D01*
X60510000Y-127403464D01*
X60651190Y-127376897D01*
X60780865Y-127293454D01*
X60867859Y-127166134D01*
X60898464Y-127015000D01*
X60898464Y-126906000D01*
X61036536Y-126906000D01*
X61036536Y-126930000D01*
X61063103Y-127071190D01*
X61146546Y-127200865D01*
X61273866Y-127287859D01*
X61425000Y-127318464D01*
X62075000Y-127318464D01*
X62216190Y-127291897D01*
X62345865Y-127208454D01*
X62432859Y-127081134D01*
X62463464Y-126930000D01*
X62463464Y-125870000D01*
X62936536Y-125870000D01*
X62936536Y-126930000D01*
X62963103Y-127071190D01*
X63046546Y-127200865D01*
X63173866Y-127287859D01*
X63325000Y-127318464D01*
X63975000Y-127318464D01*
X64116190Y-127291897D01*
X64245865Y-127208454D01*
X64332859Y-127081134D01*
X64363464Y-126930000D01*
X64363464Y-126906000D01*
X64586186Y-126906000D01*
X64588103Y-126916190D01*
X64671546Y-127045865D01*
X64798866Y-127132859D01*
X64950000Y-127163464D01*
X65750000Y-127163464D01*
X65891190Y-127136897D01*
X65908081Y-127126028D01*
X65911673Y-127134699D01*
X66089475Y-127312500D01*
X66036673Y-127365301D01*
X65940000Y-127598690D01*
X65940000Y-127600301D01*
X65936897Y-127583810D01*
X65853454Y-127454135D01*
X65726134Y-127367141D01*
X65575000Y-127336536D01*
X65075000Y-127336536D01*
X64933810Y-127363103D01*
X64804135Y-127446546D01*
X64737548Y-127544000D01*
X64406182Y-127544000D01*
X64286054Y-127494118D01*
X64015135Y-127493882D01*
X63764748Y-127597339D01*
X63573013Y-127788741D01*
X63469118Y-128038946D01*
X63468882Y-128309865D01*
X63572339Y-128560252D01*
X63763741Y-128751987D01*
X64013946Y-128855882D01*
X64284865Y-128856118D01*
X64406161Y-128806000D01*
X64738720Y-128806000D01*
X64796546Y-128895865D01*
X64923866Y-128982859D01*
X65075000Y-129013464D01*
X65575000Y-129013464D01*
X65716190Y-128986897D01*
X65845865Y-128903454D01*
X65932859Y-128776134D01*
X65940000Y-128740870D01*
X65940000Y-128751310D01*
X66036673Y-128984699D01*
X66215302Y-129163327D01*
X66448691Y-129260000D01*
X66541250Y-129260000D01*
X66700000Y-129101250D01*
X66700000Y-128302000D01*
X66950000Y-128302000D01*
X66950000Y-129101250D01*
X67108750Y-129260000D01*
X67201309Y-129260000D01*
X67434698Y-129163327D01*
X67613327Y-128984699D01*
X67710000Y-128751310D01*
X67710000Y-128460750D01*
X67551250Y-128302000D01*
X66950000Y-128302000D01*
X66700000Y-128302000D01*
X66678000Y-128302000D01*
X66678000Y-128048000D01*
X66700000Y-128048000D01*
X66700000Y-127274250D01*
X66723000Y-127251250D01*
X66723000Y-127248750D01*
X66950000Y-127248750D01*
X66950000Y-128048000D01*
X67551250Y-128048000D01*
X67710000Y-127889250D01*
X67710000Y-127598690D01*
X67613327Y-127365301D01*
X67575513Y-127327487D01*
X67609698Y-127313327D01*
X67788327Y-127134699D01*
X67885000Y-126901310D01*
X67885000Y-126685750D01*
X67726250Y-126527000D01*
X66977000Y-126527000D01*
X66977000Y-127221750D01*
X66950000Y-127248750D01*
X66723000Y-127248750D01*
X66723000Y-126527000D01*
X66703000Y-126527000D01*
X66703000Y-126273000D01*
X66723000Y-126273000D01*
X66723000Y-125548750D01*
X66564250Y-125390000D01*
X66323691Y-125390000D01*
X66090302Y-125486673D01*
X65911673Y-125665301D01*
X65908754Y-125672348D01*
X65901134Y-125667141D01*
X65750000Y-125636536D01*
X64950000Y-125636536D01*
X64808810Y-125663103D01*
X64679135Y-125746546D01*
X64592141Y-125873866D01*
X64588064Y-125894000D01*
X64363464Y-125894000D01*
X64363464Y-125870000D01*
X64336897Y-125728810D01*
X64253454Y-125599135D01*
X64126134Y-125512141D01*
X63975000Y-125481536D01*
X63325000Y-125481536D01*
X63183810Y-125508103D01*
X63054135Y-125591546D01*
X62967141Y-125718866D01*
X62936536Y-125870000D01*
X62463464Y-125870000D01*
X62436897Y-125728810D01*
X62353454Y-125599135D01*
X62226134Y-125512141D01*
X62075000Y-125481536D01*
X61425000Y-125481536D01*
X61283810Y-125508103D01*
X61154135Y-125591546D01*
X61067141Y-125718866D01*
X61036536Y-125870000D01*
X61036536Y-125894000D01*
X60898464Y-125894000D01*
X60898464Y-125785000D01*
X60871897Y-125643810D01*
X60788454Y-125514135D01*
X60661134Y-125427141D01*
X60510000Y-125396536D01*
X58710000Y-125396536D01*
X58568810Y-125423103D01*
X58457172Y-125494939D01*
X58428327Y-125425301D01*
X58249698Y-125246673D01*
X58016309Y-125150000D01*
X57275750Y-125150000D01*
X57117000Y-125308750D01*
X57117000Y-126273000D01*
X57137000Y-126273000D01*
X57137000Y-126527000D01*
X57117000Y-126527000D01*
X57117000Y-126547000D01*
X56863000Y-126547000D01*
X56863000Y-126527000D01*
X55613750Y-126527000D01*
X55455000Y-126685750D01*
X55455000Y-127064408D01*
X54106000Y-125715408D01*
X54106000Y-125658690D01*
X55455000Y-125658690D01*
X55455000Y-126114250D01*
X55613750Y-126273000D01*
X56863000Y-126273000D01*
X56863000Y-125308750D01*
X56704250Y-125150000D01*
X55963691Y-125150000D01*
X55730302Y-125246673D01*
X55551673Y-125425301D01*
X55455000Y-125658690D01*
X54106000Y-125658690D01*
X54106000Y-124557123D01*
X54176987Y-124486259D01*
X54280882Y-124236054D01*
X54281118Y-123965135D01*
X54177661Y-123714748D01*
X53986259Y-123523013D01*
X53736054Y-123419118D01*
X53465135Y-123418882D01*
X53214748Y-123522339D01*
X53023013Y-123713741D01*
X52919118Y-123963946D01*
X52918882Y-124234865D01*
X52377000Y-124234865D01*
X52377000Y-121706000D01*
X53040408Y-121706000D01*
X54935592Y-123601184D01*
X54923013Y-123613741D01*
X54819118Y-123863946D01*
X54818882Y-124134865D01*
X54922339Y-124385252D01*
X55113741Y-124576987D01*
X55363946Y-124680882D01*
X55634865Y-124681118D01*
X55885252Y-124577661D01*
X56076987Y-124386259D01*
X56180882Y-124136054D01*
X56181118Y-123865135D01*
X56158352Y-123810037D01*
X56300410Y-123838804D01*
X56329558Y-123838804D01*
X56319118Y-123863946D01*
X56318882Y-124134865D01*
X56422339Y-124385252D01*
X56613741Y-124576987D01*
X56863946Y-124680882D01*
X57134865Y-124681118D01*
X57385252Y-124577661D01*
X57576987Y-124386259D01*
X57680882Y-124136054D01*
X57681118Y-123865135D01*
X57670238Y-123838804D01*
X57699950Y-123838804D01*
X57841140Y-123812237D01*
X57970815Y-123728794D01*
X58057809Y-123601474D01*
X58088414Y-123450340D01*
X58088414Y-122776708D01*
X58111586Y-122753536D01*
X58111586Y-123450340D01*
X58138153Y-123591530D01*
X58221596Y-123721205D01*
X58348916Y-123808199D01*
X58500050Y-123838804D01*
X58571082Y-123838804D01*
X58519118Y-123963946D01*
X58518882Y-124234865D01*
X58622339Y-124485252D01*
X58813741Y-124676987D01*
X59063946Y-124780882D01*
X59334865Y-124781118D01*
X59585252Y-124677661D01*
X59776987Y-124486259D01*
X59880882Y-124236054D01*
X59881118Y-123965135D01*
X59828919Y-123838804D01*
X59899590Y-123838804D01*
X60040780Y-123812237D01*
X60170455Y-123728794D01*
X60210627Y-123670000D01*
X61036536Y-123670000D01*
X61036536Y-124730000D01*
X61063103Y-124871190D01*
X61146546Y-125000865D01*
X61273866Y-125087859D01*
X61425000Y-125118464D01*
X61865439Y-125118464D01*
X62015301Y-125268327D01*
X62248690Y-125365000D01*
X62414250Y-125365000D01*
X62573000Y-125206250D01*
X62573000Y-124327000D01*
X62553000Y-124327000D01*
X62553000Y-124073000D01*
X62573000Y-124073000D01*
X62573000Y-124053000D01*
X62827000Y-124053000D01*
X62827000Y-124073000D01*
X62847000Y-124073000D01*
X62847000Y-124327000D01*
X62827000Y-124327000D01*
X62827000Y-125206250D01*
X62985750Y-125365000D01*
X63151310Y-125365000D01*
X63384699Y-125268327D01*
X63534561Y-125118464D01*
X63975000Y-125118464D01*
X64116190Y-125091897D01*
X64245865Y-125008454D01*
X64254037Y-124996493D01*
X64311546Y-125085865D01*
X64438866Y-125172859D01*
X64590000Y-125203464D01*
X66390000Y-125203464D01*
X66531190Y-125176897D01*
X66642828Y-125105061D01*
X66671673Y-125174699D01*
X66850302Y-125353327D01*
X67078076Y-125447674D01*
X66977000Y-125548750D01*
X66977000Y-126273000D01*
X67726250Y-126273000D01*
X67885000Y-126114250D01*
X67885000Y-125898690D01*
X67788327Y-125665301D01*
X67609698Y-125486673D01*
X67521162Y-125450000D01*
X67824250Y-125450000D01*
X67983000Y-125291250D01*
X67983000Y-124327000D01*
X68237000Y-124327000D01*
X68237000Y-125291250D01*
X68395750Y-125450000D01*
X69136309Y-125450000D01*
X69369698Y-125353327D01*
X69548327Y-125174699D01*
X69645000Y-124941310D01*
X69645000Y-124485750D01*
X69486250Y-124327000D01*
X68237000Y-124327000D01*
X67983000Y-124327000D01*
X67963000Y-124327000D01*
X67963000Y-124073000D01*
X67983000Y-124073000D01*
X67983000Y-123108750D01*
X68237000Y-123108750D01*
X68237000Y-124073000D01*
X69486250Y-124073000D01*
X69645000Y-123914250D01*
X69645000Y-123458690D01*
X69548327Y-123225301D01*
X69369698Y-123046673D01*
X69136309Y-122950000D01*
X68395750Y-122950000D01*
X68237000Y-123108750D01*
X67983000Y-123108750D01*
X67824250Y-122950000D01*
X67083691Y-122950000D01*
X66850302Y-123046673D01*
X66671673Y-123225301D01*
X66642283Y-123296253D01*
X66541134Y-123227141D01*
X66390000Y-123196536D01*
X66102409Y-123196536D01*
X66072968Y-123048527D01*
X65936184Y-122843816D01*
X65271184Y-122178816D01*
X65066473Y-122042032D01*
X64825000Y-121994000D01*
X62650000Y-121994000D01*
X62408527Y-122042032D01*
X62203816Y-122178816D01*
X62009965Y-122372667D01*
X61889748Y-122422339D01*
X61698013Y-122613741D01*
X61629930Y-122777701D01*
X61303816Y-123103816D01*
X61167032Y-123308527D01*
X61149033Y-123399013D01*
X61067141Y-123518866D01*
X61036536Y-123670000D01*
X60210627Y-123670000D01*
X60257449Y-123601474D01*
X60286916Y-123455960D01*
X60430040Y-123455960D01*
X60623678Y-123417443D01*
X60787836Y-123307756D01*
X62407796Y-121687796D01*
X62517483Y-121523638D01*
X62556000Y-121330000D01*
X62556000Y-120527123D01*
X62626987Y-120456259D01*
X62730882Y-120206054D01*
X62731118Y-119935135D01*
X62627661Y-119684748D01*
X62594506Y-119651536D01*
X62652859Y-119566134D01*
X62683464Y-119415000D01*
X62683464Y-118515000D01*
X62656897Y-118373810D01*
X62645437Y-118356000D01*
X62942516Y-118356000D01*
X62937141Y-118363866D01*
X62906536Y-118515000D01*
X62906536Y-119415000D01*
X62933103Y-119556190D01*
X63016546Y-119685865D01*
X63143866Y-119772859D01*
X63295000Y-119803464D01*
X63795000Y-119803464D01*
X63936190Y-119776897D01*
X64065865Y-119693454D01*
X64132452Y-119596000D01*
X64320809Y-119596000D01*
X64343276Y-119630915D01*
X64470596Y-119717909D01*
X64621730Y-119748514D01*
X65421830Y-119748514D01*
X65563020Y-119721947D01*
X65631574Y-119677834D01*
X65290439Y-120018969D01*
X65190135Y-120018882D01*
X64939748Y-120122339D01*
X64748013Y-120313741D01*
X64644118Y-120563946D01*
X64643882Y-120834865D01*
X64747339Y-121085252D01*
X64938741Y-121276987D01*
X65188946Y-121380882D01*
X65459865Y-121381118D01*
X65710252Y-121277661D01*
X65901987Y-121086259D01*
X66005882Y-120836054D01*
X66005970Y-120734622D01*
X66270770Y-120469822D01*
X66342256Y-120580915D01*
X66469576Y-120667909D01*
X66620710Y-120698514D01*
X67420810Y-120698514D01*
X67562000Y-120671947D01*
X67691675Y-120588504D01*
X67778669Y-120461184D01*
X67801405Y-120348907D01*
X67922796Y-120267796D01*
X68043558Y-120147034D01*
X68100000Y-120158464D01*
X69000000Y-120158464D01*
X69141190Y-120131897D01*
X69270865Y-120048454D01*
X69286207Y-120026000D01*
X77005000Y-120026000D01*
X77198638Y-119987483D01*
X77362796Y-119877796D01*
X77952132Y-119288460D01*
X77969000Y-119305357D01*
X77969000Y-123840408D01*
X76275502Y-125533906D01*
X76165815Y-125698064D01*
X76127298Y-125891702D01*
X76127298Y-127933298D01*
X76165815Y-128126936D01*
X76275502Y-128291094D01*
X76642204Y-128657796D01*
X76806362Y-128767483D01*
X76861536Y-128778458D01*
X76861536Y-128975000D01*
X76888103Y-129116190D01*
X76971546Y-129245865D01*
X77098866Y-129332859D01*
X77250000Y-129363464D01*
X78600000Y-129363464D01*
X78741190Y-129336897D01*
X78870865Y-129253454D01*
X78957859Y-129126134D01*
X78988464Y-128975000D01*
X78988464Y-128798697D01*
X79029245Y-128897394D01*
X79326043Y-129194711D01*
X79714027Y-129355816D01*
X80134130Y-129356183D01*
X80522394Y-129195755D01*
X80819711Y-128898957D01*
X80925060Y-128645248D01*
X81029245Y-128897394D01*
X81326043Y-129194711D01*
X81714027Y-129355816D01*
X82134130Y-129356183D01*
X82522394Y-129195755D01*
X82819711Y-128898957D01*
X82925060Y-128645248D01*
X83029245Y-128897394D01*
X83326043Y-129194711D01*
X83714027Y-129355816D01*
X84134130Y-129356183D01*
X84522394Y-129195755D01*
X84764455Y-128954116D01*
X84774672Y-128978781D01*
X85007853Y-129037542D01*
X85745395Y-128300000D01*
X86104605Y-128300000D01*
X86842147Y-129037542D01*
X87075328Y-128978781D01*
X87247522Y-128486900D01*
X87218375Y-127966566D01*
X87075328Y-127621219D01*
X86842147Y-127562458D01*
X86104605Y-128300000D01*
X85745395Y-128300000D01*
X85007853Y-127562458D01*
X84774672Y-127621219D01*
X84765543Y-127647297D01*
X84523957Y-127405289D01*
X84270248Y-127299940D01*
X84522394Y-127195755D01*
X84819711Y-126898957D01*
X84925060Y-126645248D01*
X85029245Y-126897394D01*
X85270884Y-127139455D01*
X85246219Y-127149672D01*
X85187458Y-127382853D01*
X85925000Y-128120395D01*
X86662542Y-127382853D01*
X86603781Y-127149672D01*
X86577703Y-127140543D01*
X86819711Y-126898957D01*
X86980816Y-126510973D01*
X86981183Y-126090870D01*
X86820755Y-125702606D01*
X86523957Y-125405289D01*
X86135973Y-125244184D01*
X85715870Y-125243817D01*
X85327606Y-125404245D01*
X85030289Y-125701043D01*
X84924940Y-125954752D01*
X84820755Y-125702606D01*
X84523957Y-125405289D01*
X84135973Y-125244184D01*
X83715870Y-125243817D01*
X83683329Y-125257263D01*
X83907796Y-125032796D01*
X84017483Y-124868638D01*
X84056000Y-124675000D01*
X84056000Y-121038019D01*
X84070865Y-121028454D01*
X84157859Y-120901134D01*
X84188464Y-120750000D01*
X84188464Y-119850000D01*
X84161897Y-119708810D01*
X84078454Y-119579135D01*
X83951134Y-119492141D01*
X83800000Y-119461536D01*
X83300000Y-119461536D01*
X83158810Y-119488103D01*
X83029135Y-119571546D01*
X82942141Y-119698866D01*
X82911536Y-119850000D01*
X82911536Y-120750000D01*
X82938103Y-120891190D01*
X83021546Y-121020865D01*
X83044000Y-121036207D01*
X83044000Y-124465408D01*
X82227301Y-125282107D01*
X82135973Y-125244184D01*
X81715870Y-125243817D01*
X81327606Y-125404245D01*
X81030289Y-125701043D01*
X80924940Y-125954752D01*
X80820755Y-125702606D01*
X80523957Y-125405289D01*
X80135973Y-125244184D01*
X79715870Y-125243817D01*
X79683329Y-125257263D01*
X79685512Y-125255080D01*
X79795199Y-125090922D01*
X79833716Y-124897284D01*
X79833716Y-118613878D01*
X79795199Y-118420240D01*
X79708738Y-118290842D01*
X79708835Y-118179014D01*
X79605378Y-117928627D01*
X79458799Y-117781793D01*
X80284592Y-116956000D01*
X82461981Y-116956000D01*
X82471546Y-116970865D01*
G36*
X92192204Y-122732796D02*
X92356362Y-122842483D01*
X92550000Y-122881000D01*
X95366482Y-122881000D01*
X95382183Y-122919000D01*
X93350000Y-122919000D01*
X93156362Y-122957517D01*
X92992204Y-123067204D01*
X91942204Y-124117204D01*
X91832517Y-124281362D01*
X91794000Y-124475000D01*
X91794000Y-125615844D01*
X91561054Y-125519116D01*
X91290135Y-125518880D01*
X91109223Y-125593631D01*
X87081031Y-121565439D01*
X87081118Y-121465135D01*
X87006000Y-121283334D01*
X87006000Y-121113814D01*
X87016190Y-121111897D01*
X87145865Y-121028454D01*
X87232859Y-120901134D01*
X87263464Y-120750000D01*
X87263464Y-119950000D01*
X87236897Y-119808810D01*
X87226028Y-119791919D01*
X87234699Y-119788327D01*
X87413327Y-119609698D01*
X87510000Y-119376309D01*
X87510000Y-119135750D01*
X87351250Y-118977000D01*
X86627000Y-118977000D01*
X86627000Y-118997000D01*
X86373000Y-118997000D01*
X86373000Y-118977000D01*
X86353000Y-118977000D01*
X86353000Y-118723000D01*
X86373000Y-118723000D01*
X86373000Y-118703000D01*
X86627000Y-118703000D01*
X86627000Y-118723000D01*
X87351250Y-118723000D01*
X87510000Y-118564250D01*
X87510000Y-118323691D01*
X87482956Y-118258401D01*
X87717809Y-118258401D01*
X92192204Y-122732796D01*
X92192204Y-122732796D01*
G37*
X92192204Y-122732796D02*
X92356362Y-122842483D01*
X92550000Y-122881000D01*
X95366482Y-122881000D01*
X95382183Y-122919000D01*
X93350000Y-122919000D01*
X93156362Y-122957517D01*
X92992204Y-123067204D01*
X91942204Y-124117204D01*
X91832517Y-124281362D01*
X91794000Y-124475000D01*
X91794000Y-125615844D01*
X91561054Y-125519116D01*
X91290135Y-125518880D01*
X91109223Y-125593631D01*
X87081031Y-121565439D01*
X87081118Y-121465135D01*
X87006000Y-121283334D01*
X87006000Y-121113814D01*
X87016190Y-121111897D01*
X87145865Y-121028454D01*
X87232859Y-120901134D01*
X87263464Y-120750000D01*
X87263464Y-119950000D01*
X87236897Y-119808810D01*
X87226028Y-119791919D01*
X87234699Y-119788327D01*
X87413327Y-119609698D01*
X87510000Y-119376309D01*
X87510000Y-119135750D01*
X87351250Y-118977000D01*
X86627000Y-118977000D01*
X86627000Y-118997000D01*
X86373000Y-118997000D01*
X86373000Y-118977000D01*
X86353000Y-118977000D01*
X86353000Y-118723000D01*
X86373000Y-118723000D01*
X86373000Y-118703000D01*
X86627000Y-118703000D01*
X86627000Y-118723000D01*
X87351250Y-118723000D01*
X87510000Y-118564250D01*
X87510000Y-118323691D01*
X87482956Y-118258401D01*
X87717809Y-118258401D01*
X92192204Y-122732796D01*
G36*
X93565000Y-102614250D02*
X93723750Y-102773000D01*
X96973000Y-102773000D01*
X96973000Y-102753000D01*
X97227000Y-102753000D01*
X97227000Y-102773000D01*
X97247000Y-102773000D01*
X97247000Y-103027000D01*
X97227000Y-103027000D01*
X97227000Y-106276250D01*
X97385750Y-106435000D01*
X99569000Y-106435000D01*
X99569000Y-123565000D01*
X97825592Y-123565000D01*
X97997699Y-123392893D01*
X98089027Y-123430816D01*
X98509130Y-123431183D01*
X98897394Y-123270755D01*
X99194711Y-122973957D01*
X99355816Y-122585973D01*
X99356183Y-122165870D01*
X99195755Y-121777606D01*
X98898957Y-121480289D01*
X98645248Y-121374940D01*
X98897394Y-121270755D01*
X99194711Y-120973957D01*
X99355816Y-120585973D01*
X99356183Y-120165870D01*
X99195755Y-119777606D01*
X98898957Y-119480289D01*
X98645248Y-119374940D01*
X98897394Y-119270755D01*
X99194711Y-118973957D01*
X99355816Y-118585973D01*
X99356183Y-118165870D01*
X99195755Y-117777606D01*
X98898957Y-117480289D01*
X98645248Y-117374940D01*
X98897394Y-117270755D01*
X99194711Y-116973957D01*
X99355816Y-116585973D01*
X99356183Y-116165870D01*
X99195755Y-115777606D01*
X98898957Y-115480289D01*
X98645248Y-115374940D01*
X98897394Y-115270755D01*
X99194711Y-114973957D01*
X99355816Y-114585973D01*
X99356183Y-114165870D01*
X99195755Y-113777606D01*
X98898957Y-113480289D01*
X98645248Y-113374940D01*
X98897394Y-113270755D01*
X99194711Y-112973957D01*
X99355816Y-112585973D01*
X99356183Y-112165870D01*
X99195755Y-111777606D01*
X98898957Y-111480289D01*
X98645248Y-111374940D01*
X98897394Y-111270755D01*
X99194711Y-110973957D01*
X99355816Y-110585973D01*
X99356183Y-110165870D01*
X99195755Y-109777606D01*
X98898957Y-109480289D01*
X98510973Y-109319184D01*
X98090870Y-109318817D01*
X97702606Y-109479245D01*
X97405289Y-109776043D01*
X97363464Y-109876769D01*
X97363464Y-109700000D01*
X97336897Y-109558810D01*
X97253454Y-109429135D01*
X97126134Y-109342141D01*
X96975000Y-109311536D01*
X95625000Y-109311536D01*
X95483810Y-109338103D01*
X95354135Y-109421546D01*
X95267141Y-109548866D01*
X95236536Y-109700000D01*
X95236536Y-111050000D01*
X95263103Y-111191190D01*
X95346546Y-111320865D01*
X95473866Y-111407859D01*
X95625000Y-111438464D01*
X95801303Y-111438464D01*
X95702606Y-111479245D01*
X95405289Y-111776043D01*
X95244184Y-112164027D01*
X95243817Y-112584130D01*
X95404245Y-112972394D01*
X95701043Y-113269711D01*
X95954752Y-113375060D01*
X95702606Y-113479245D01*
X95405289Y-113776043D01*
X95244184Y-114164027D01*
X95243817Y-114584130D01*
X95404245Y-114972394D01*
X95701043Y-115269711D01*
X95954752Y-115375060D01*
X95702606Y-115479245D01*
X95405289Y-115776043D01*
X95244184Y-116164027D01*
X95243817Y-116584130D01*
X95404245Y-116972394D01*
X95701043Y-117269711D01*
X95954752Y-117375060D01*
X95702606Y-117479245D01*
X95405289Y-117776043D01*
X95244184Y-118164027D01*
X95243817Y-118584130D01*
X95361523Y-118869000D01*
X91108856Y-118869000D01*
X90732060Y-118492204D01*
X90567902Y-118382517D01*
X90415264Y-118352155D01*
X90336259Y-118273013D01*
X90086054Y-118169118D01*
X89815135Y-118168882D01*
X89564748Y-118272339D01*
X89373013Y-118463741D01*
X89367532Y-118476940D01*
X88754056Y-117863464D01*
X89350000Y-117863464D01*
X89491190Y-117836897D01*
X89620865Y-117753454D01*
X89707859Y-117626134D01*
X89738464Y-117475000D01*
X89738464Y-116928777D01*
X89863946Y-116980882D01*
X90133413Y-116981117D01*
X90186673Y-117109698D01*
X90365301Y-117288327D01*
X90598690Y-117385000D01*
X90814250Y-117385000D01*
X90973000Y-117226250D01*
X90973000Y-116477000D01*
X91227000Y-116477000D01*
X91227000Y-117226250D01*
X91385750Y-117385000D01*
X91601310Y-117385000D01*
X91834699Y-117288327D01*
X92013327Y-117109698D01*
X92110000Y-116876309D01*
X92110000Y-116635750D01*
X91951250Y-116477000D01*
X91227000Y-116477000D01*
X90973000Y-116477000D01*
X90953000Y-116477000D01*
X90953000Y-116223000D01*
X90973000Y-116223000D01*
X90973000Y-116203000D01*
X91227000Y-116203000D01*
X91227000Y-116223000D01*
X91951250Y-116223000D01*
X92110000Y-116064250D01*
X92110000Y-115823691D01*
X92013327Y-115590302D01*
X91834699Y-115411673D01*
X91827652Y-115408754D01*
X91832859Y-115401134D01*
X91863464Y-115250000D01*
X91863464Y-114450000D01*
X91836897Y-114308810D01*
X91753454Y-114179135D01*
X91626134Y-114092141D01*
X91475000Y-114061536D01*
X90725000Y-114061536D01*
X90583810Y-114088103D01*
X90454135Y-114171546D01*
X90367141Y-114298866D01*
X90366271Y-114303164D01*
X90286259Y-114223013D01*
X90036054Y-114119118D01*
X89765135Y-114118882D01*
X89514748Y-114222339D01*
X89323013Y-114413741D01*
X89266186Y-114550594D01*
X89067772Y-114352180D01*
X89088464Y-114250000D01*
X89088464Y-113511490D01*
X89165301Y-113588327D01*
X89398690Y-113685000D01*
X89614250Y-113685000D01*
X89773000Y-113526250D01*
X89773000Y-112777000D01*
X90027000Y-112777000D01*
X90027000Y-113526250D01*
X90185750Y-113685000D01*
X90401310Y-113685000D01*
X90634699Y-113588327D01*
X90813327Y-113409698D01*
X90910000Y-113176309D01*
X90910000Y-112935750D01*
X90751250Y-112777000D01*
X90027000Y-112777000D01*
X89773000Y-112777000D01*
X89753000Y-112777000D01*
X89753000Y-112523000D01*
X89773000Y-112523000D01*
X89773000Y-112503000D01*
X90027000Y-112503000D01*
X90027000Y-112523000D01*
X90751250Y-112523000D01*
X90910000Y-112364250D01*
X90910000Y-112123691D01*
X90813327Y-111890302D01*
X90634699Y-111711673D01*
X90627652Y-111708754D01*
X90632859Y-111701134D01*
X90663464Y-111550000D01*
X90663464Y-110750000D01*
X90636897Y-110608810D01*
X90580894Y-110521779D01*
X90581118Y-110265135D01*
X90477661Y-110014748D01*
X90369102Y-109906000D01*
X92440408Y-109906000D01*
X92868969Y-110334561D01*
X92868882Y-110434865D01*
X92972339Y-110685252D01*
X93163741Y-110876987D01*
X93413946Y-110980882D01*
X93518929Y-110980973D01*
X93518882Y-111034863D01*
X93622339Y-111285250D01*
X93813741Y-111476985D01*
X94063946Y-111580880D01*
X94334865Y-111581116D01*
X94585252Y-111477659D01*
X94776987Y-111286257D01*
X94880882Y-111036052D01*
X94881118Y-110765133D01*
X94777661Y-110514746D01*
X94706000Y-110442960D01*
X94706000Y-109750000D01*
X94667483Y-109556362D01*
X94557796Y-109392204D01*
X93757796Y-108592204D01*
X93593638Y-108482517D01*
X93400000Y-108444000D01*
X82679025Y-108444000D01*
X82713327Y-108409698D01*
X82810000Y-108176309D01*
X82810000Y-107935750D01*
X82651250Y-107777000D01*
X81927000Y-107777000D01*
X81927000Y-107797000D01*
X81673000Y-107797000D01*
X81673000Y-107777000D01*
X80948750Y-107777000D01*
X80790000Y-107935750D01*
X80790000Y-108176309D01*
X80886673Y-108409698D01*
X80920975Y-108444000D01*
X80759592Y-108444000D01*
X79439283Y-107123691D01*
X80790000Y-107123691D01*
X80790000Y-107364250D01*
X80948750Y-107523000D01*
X81673000Y-107523000D01*
X81673000Y-107503000D01*
X81927000Y-107503000D01*
X81927000Y-107523000D01*
X82651250Y-107523000D01*
X82810000Y-107364250D01*
X82810000Y-107123691D01*
X82713327Y-106890302D01*
X82534699Y-106711673D01*
X82527652Y-106708754D01*
X82532859Y-106701134D01*
X82552124Y-106606000D01*
X82884036Y-106606000D01*
X82884036Y-106735000D01*
X82910603Y-106876190D01*
X82994046Y-107005865D01*
X83121366Y-107092859D01*
X83272500Y-107123464D01*
X83719000Y-107123464D01*
X83719000Y-107125000D01*
X83757517Y-107318638D01*
X83867204Y-107482796D01*
X84242204Y-107857796D01*
X84406362Y-107967483D01*
X84600000Y-108006000D01*
X90042877Y-108006000D01*
X90113741Y-108076987D01*
X90363946Y-108180882D01*
X90634865Y-108181118D01*
X90885252Y-108077661D01*
X91076987Y-107886259D01*
X91180882Y-107636054D01*
X91181118Y-107365135D01*
X91077661Y-107114748D01*
X90926640Y-106963464D01*
X91450000Y-106963464D01*
X91591190Y-106936897D01*
X91608081Y-106926028D01*
X91611673Y-106934699D01*
X91790302Y-107113327D01*
X92023691Y-107210000D01*
X92264250Y-107210000D01*
X92423000Y-107051250D01*
X92423000Y-106327000D01*
X92677000Y-106327000D01*
X92677000Y-107051250D01*
X92835750Y-107210000D01*
X93076309Y-107210000D01*
X93309698Y-107113327D01*
X93488327Y-106934699D01*
X93585000Y-106701310D01*
X93585000Y-106485750D01*
X93426250Y-106327000D01*
X92677000Y-106327000D01*
X92423000Y-106327000D01*
X92403000Y-106327000D01*
X92403000Y-106073000D01*
X92423000Y-106073000D01*
X92423000Y-105348750D01*
X92677000Y-105348750D01*
X92677000Y-106073000D01*
X93426250Y-106073000D01*
X93567326Y-105931924D01*
X93661673Y-106159699D01*
X93840302Y-106338327D01*
X94073691Y-106435000D01*
X96814250Y-106435000D01*
X96973000Y-106276250D01*
X96973000Y-103027000D01*
X93723750Y-103027000D01*
X93565000Y-103185750D01*
X93565000Y-105650406D01*
X93488327Y-105465301D01*
X93309698Y-105286673D01*
X93076309Y-105190000D01*
X92835750Y-105190000D01*
X92677000Y-105348750D01*
X92423000Y-105348750D01*
X92264250Y-105190000D01*
X92023691Y-105190000D01*
X91790302Y-105286673D01*
X91611673Y-105465301D01*
X91608754Y-105472348D01*
X91601134Y-105467141D01*
X91450000Y-105436536D01*
X90650000Y-105436536D01*
X90508810Y-105463103D01*
X90379135Y-105546546D01*
X90362111Y-105571462D01*
X90236054Y-105519118D01*
X89965135Y-105518882D01*
X89714748Y-105622339D01*
X89642962Y-105694000D01*
X88740964Y-105694000D01*
X88740964Y-105465000D01*
X88714397Y-105323810D01*
X88630954Y-105194135D01*
X88503634Y-105107141D01*
X88352500Y-105076536D01*
X86447500Y-105076536D01*
X86306310Y-105103103D01*
X86176635Y-105186546D01*
X86089641Y-105313866D01*
X86059036Y-105465000D01*
X86059036Y-106735000D01*
X86085603Y-106876190D01*
X86161411Y-106994000D01*
X85461657Y-106994000D01*
X85535359Y-106886134D01*
X85565964Y-106735000D01*
X85565964Y-105465000D01*
X85539397Y-105323810D01*
X85455954Y-105194135D01*
X85328634Y-105107141D01*
X85177500Y-105076536D01*
X84262886Y-105076536D01*
X84225000Y-105069000D01*
X84187114Y-105076536D01*
X83272500Y-105076536D01*
X83131310Y-105103103D01*
X83001635Y-105186546D01*
X82914641Y-105313866D01*
X82884036Y-105465000D01*
X82884036Y-105594000D01*
X82527367Y-105594000D01*
X82453454Y-105479135D01*
X82326134Y-105392141D01*
X82175000Y-105361536D01*
X81425000Y-105361536D01*
X81283810Y-105388103D01*
X81154135Y-105471546D01*
X81067141Y-105598866D01*
X81036536Y-105750000D01*
X81036536Y-106550000D01*
X81063103Y-106691190D01*
X81073972Y-106708081D01*
X81065301Y-106711673D01*
X80886673Y-106890302D01*
X80790000Y-107123691D01*
X79439283Y-107123691D01*
X77680197Y-105364605D01*
X77516039Y-105254918D01*
X77322401Y-105216401D01*
X71691678Y-105216401D01*
X71782522Y-104956900D01*
X71753375Y-104436566D01*
X71610328Y-104091219D01*
X71377147Y-104032458D01*
X70639605Y-104770000D01*
X70653748Y-104784143D01*
X70474143Y-104963748D01*
X70460000Y-104949605D01*
X70445858Y-104963748D01*
X70266253Y-104784143D01*
X70280395Y-104770000D01*
X69542853Y-104032458D01*
X69309672Y-104091219D01*
X69300543Y-104117297D01*
X69058957Y-103875289D01*
X69004926Y-103852853D01*
X69722458Y-103852853D01*
X70460000Y-104590395D01*
X71197542Y-103852853D01*
X71138781Y-103619672D01*
X70646900Y-103447478D01*
X70126566Y-103476625D01*
X69781219Y-103619672D01*
X69722458Y-103852853D01*
X69004926Y-103852853D01*
X68670973Y-103714184D01*
X68250870Y-103713817D01*
X68157846Y-103752254D01*
X67822013Y-103416421D01*
X68233434Y-103393375D01*
X68578781Y-103250328D01*
X68637542Y-103017147D01*
X67900000Y-102279605D01*
X67885858Y-102293748D01*
X67706253Y-102114143D01*
X67720395Y-102100000D01*
X67706253Y-102085858D01*
X67885858Y-101906253D01*
X67900000Y-101920395D01*
X67914143Y-101906253D01*
X68093748Y-102085858D01*
X68079605Y-102100000D01*
X68817147Y-102837542D01*
X68846894Y-102830046D01*
X68863103Y-102916190D01*
X68946546Y-103045865D01*
X69073866Y-103132859D01*
X69225000Y-103163464D01*
X70575000Y-103163464D01*
X70716190Y-103136897D01*
X70845865Y-103053454D01*
X70932859Y-102926134D01*
X70963464Y-102775000D01*
X70963464Y-101934130D01*
X72618817Y-101934130D01*
X72779245Y-102322394D01*
X73076043Y-102619711D01*
X73329752Y-102725060D01*
X73077606Y-102829245D01*
X72780289Y-103126043D01*
X72619184Y-103514027D01*
X72618817Y-103934130D01*
X72779245Y-104322394D01*
X73076043Y-104619711D01*
X73464027Y-104780816D01*
X73884130Y-104781183D01*
X74272394Y-104620755D01*
X74569711Y-104323957D01*
X74675060Y-104070248D01*
X74779245Y-104322394D01*
X75076043Y-104619711D01*
X75464027Y-104780816D01*
X75884130Y-104781183D01*
X76272394Y-104620755D01*
X76569711Y-104323957D01*
X76675060Y-104070248D01*
X76779245Y-104322394D01*
X77076043Y-104619711D01*
X77464027Y-104780816D01*
X77884130Y-104781183D01*
X77977154Y-104742746D01*
X78968969Y-105734561D01*
X78968882Y-105834865D01*
X79072339Y-106085252D01*
X79263741Y-106276987D01*
X79513946Y-106380882D01*
X79784865Y-106381118D01*
X80035252Y-106277661D01*
X80226987Y-106086259D01*
X80330882Y-105836054D01*
X80331118Y-105565135D01*
X80227661Y-105314748D01*
X80036259Y-105123013D01*
X79786054Y-105019118D01*
X79684622Y-105019030D01*
X79433897Y-104768305D01*
X79464027Y-104780816D01*
X79884130Y-104781183D01*
X80272394Y-104620755D01*
X80569711Y-104323957D01*
X80675060Y-104070248D01*
X80779245Y-104322394D01*
X81076043Y-104619711D01*
X81464027Y-104780816D01*
X81884130Y-104781183D01*
X82272394Y-104620755D01*
X82569711Y-104323957D01*
X82675060Y-104070248D01*
X82779245Y-104322394D01*
X83076043Y-104619711D01*
X83464027Y-104780816D01*
X83884130Y-104781183D01*
X84272394Y-104620755D01*
X84569711Y-104323957D01*
X84675060Y-104070248D01*
X84779245Y-104322394D01*
X85076043Y-104619711D01*
X85464027Y-104780816D01*
X85884130Y-104781183D01*
X86272394Y-104620755D01*
X86569711Y-104323957D01*
X86675060Y-104070248D01*
X86779245Y-104322394D01*
X87076043Y-104619711D01*
X87464027Y-104780816D01*
X87884130Y-104781183D01*
X88272394Y-104620755D01*
X88569711Y-104323957D01*
X88675060Y-104070248D01*
X88779245Y-104322394D01*
X89076043Y-104619711D01*
X89464027Y-104780816D01*
X89884130Y-104781183D01*
X90272394Y-104620755D01*
X90569711Y-104323957D01*
X90675060Y-104070248D01*
X90779245Y-104322394D01*
X91076043Y-104619711D01*
X91464027Y-104780816D01*
X91884130Y-104781183D01*
X92272394Y-104620755D01*
X92569711Y-104323957D01*
X92730816Y-103935973D01*
X92731183Y-103515870D01*
X92570755Y-103127606D01*
X92273957Y-102830289D01*
X92173231Y-102788464D01*
X92350000Y-102788464D01*
X92491190Y-102761897D01*
X92620865Y-102678454D01*
X92707859Y-102551134D01*
X92738464Y-102400000D01*
X92738464Y-101050000D01*
X92711897Y-100908810D01*
X92628454Y-100779135D01*
X92501134Y-100692141D01*
X92350000Y-100661536D01*
X91000000Y-100661536D01*
X90858810Y-100688103D01*
X90729135Y-100771546D01*
X90642141Y-100898866D01*
X90611536Y-101050000D01*
X90611536Y-101226303D01*
X90570755Y-101127606D01*
X90273957Y-100830289D01*
X89885973Y-100669184D01*
X89465870Y-100668817D01*
X89077606Y-100829245D01*
X88780289Y-101126043D01*
X88674940Y-101379752D01*
X88570755Y-101127606D01*
X88273957Y-100830289D01*
X87885973Y-100669184D01*
X87465870Y-100668817D01*
X87077606Y-100829245D01*
X86780289Y-101126043D01*
X86674940Y-101379752D01*
X86570755Y-101127606D01*
X86273957Y-100830289D01*
X85885973Y-100669184D01*
X85465870Y-100668817D01*
X85077606Y-100829245D01*
X84780289Y-101126043D01*
X84674940Y-101379752D01*
X84570755Y-101127606D01*
X84273957Y-100830289D01*
X83885973Y-100669184D01*
X83465870Y-100668817D01*
X83077606Y-100829245D01*
X82780289Y-101126043D01*
X82674940Y-101379752D01*
X82570755Y-101127606D01*
X82273957Y-100830289D01*
X81885973Y-100669184D01*
X81465870Y-100668817D01*
X81077606Y-100829245D01*
X80780289Y-101126043D01*
X80674940Y-101379752D01*
X80570755Y-101127606D01*
X80273957Y-100830289D01*
X79885973Y-100669184D01*
X79465870Y-100668817D01*
X79077606Y-100829245D01*
X78780289Y-101126043D01*
X78674940Y-101379752D01*
X78570755Y-101127606D01*
X78273957Y-100830289D01*
X77885973Y-100669184D01*
X77465870Y-100668817D01*
X77077606Y-100829245D01*
X76780289Y-101126043D01*
X76674940Y-101379752D01*
X76570755Y-101127606D01*
X76273957Y-100830289D01*
X75885973Y-100669184D01*
X75465870Y-100668817D01*
X75077606Y-100829245D01*
X74780289Y-101126043D01*
X74674940Y-101379752D01*
X74570755Y-101127606D01*
X74273957Y-100830289D01*
X73885973Y-100669184D01*
X73465870Y-100668817D01*
X73077606Y-100829245D01*
X72780289Y-101126043D01*
X72619184Y-101514027D01*
X72618817Y-101934130D01*
X70963464Y-101934130D01*
X70963464Y-101425000D01*
X70936897Y-101283810D01*
X70853454Y-101154135D01*
X70726134Y-101067141D01*
X70575000Y-101036536D01*
X70378458Y-101036536D01*
X70367483Y-100981362D01*
X70257796Y-100817204D01*
X69982796Y-100542204D01*
X69818638Y-100432517D01*
X69811012Y-100431000D01*
X93565000Y-100431000D01*
X93565000Y-102614250D01*
X93565000Y-102614250D01*
G37*
X93565000Y-102614250D02*
X93723750Y-102773000D01*
X96973000Y-102773000D01*
X96973000Y-102753000D01*
X97227000Y-102753000D01*
X97227000Y-102773000D01*
X97247000Y-102773000D01*
X97247000Y-103027000D01*
X97227000Y-103027000D01*
X97227000Y-106276250D01*
X97385750Y-106435000D01*
X99569000Y-106435000D01*
X99569000Y-123565000D01*
X97825592Y-123565000D01*
X97997699Y-123392893D01*
X98089027Y-123430816D01*
X98509130Y-123431183D01*
X98897394Y-123270755D01*
X99194711Y-122973957D01*
X99355816Y-122585973D01*
X99356183Y-122165870D01*
X99195755Y-121777606D01*
X98898957Y-121480289D01*
X98645248Y-121374940D01*
X98897394Y-121270755D01*
X99194711Y-120973957D01*
X99355816Y-120585973D01*
X99356183Y-120165870D01*
X99195755Y-119777606D01*
X98898957Y-119480289D01*
X98645248Y-119374940D01*
X98897394Y-119270755D01*
X99194711Y-118973957D01*
X99355816Y-118585973D01*
X99356183Y-118165870D01*
X99195755Y-117777606D01*
X98898957Y-117480289D01*
X98645248Y-117374940D01*
X98897394Y-117270755D01*
X99194711Y-116973957D01*
X99355816Y-116585973D01*
X99356183Y-116165870D01*
X99195755Y-115777606D01*
X98898957Y-115480289D01*
X98645248Y-115374940D01*
X98897394Y-115270755D01*
X99194711Y-114973957D01*
X99355816Y-114585973D01*
X99356183Y-114165870D01*
X99195755Y-113777606D01*
X98898957Y-113480289D01*
X98645248Y-113374940D01*
X98897394Y-113270755D01*
X99194711Y-112973957D01*
X99355816Y-112585973D01*
X99356183Y-112165870D01*
X99195755Y-111777606D01*
X98898957Y-111480289D01*
X98645248Y-111374940D01*
X98897394Y-111270755D01*
X99194711Y-110973957D01*
X99355816Y-110585973D01*
X99356183Y-110165870D01*
X99195755Y-109777606D01*
X98898957Y-109480289D01*
X98510973Y-109319184D01*
X98090870Y-109318817D01*
X97702606Y-109479245D01*
X97405289Y-109776043D01*
X97363464Y-109876769D01*
X97363464Y-109700000D01*
X97336897Y-109558810D01*
X97253454Y-109429135D01*
X97126134Y-109342141D01*
X96975000Y-109311536D01*
X95625000Y-109311536D01*
X95483810Y-109338103D01*
X95354135Y-109421546D01*
X95267141Y-109548866D01*
X95236536Y-109700000D01*
X95236536Y-111050000D01*
X95263103Y-111191190D01*
X95346546Y-111320865D01*
X95473866Y-111407859D01*
X95625000Y-111438464D01*
X95801303Y-111438464D01*
X95702606Y-111479245D01*
X95405289Y-111776043D01*
X95244184Y-112164027D01*
X95243817Y-112584130D01*
X95404245Y-112972394D01*
X95701043Y-113269711D01*
X95954752Y-113375060D01*
X95702606Y-113479245D01*
X95405289Y-113776043D01*
X95244184Y-114164027D01*
X95243817Y-114584130D01*
X95404245Y-114972394D01*
X95701043Y-115269711D01*
X95954752Y-115375060D01*
X95702606Y-115479245D01*
X95405289Y-115776043D01*
X95244184Y-116164027D01*
X95243817Y-116584130D01*
X95404245Y-116972394D01*
X95701043Y-117269711D01*
X95954752Y-117375060D01*
X95702606Y-117479245D01*
X95405289Y-117776043D01*
X95244184Y-118164027D01*
X95243817Y-118584130D01*
X95361523Y-118869000D01*
X91108856Y-118869000D01*
X90732060Y-118492204D01*
X90567902Y-118382517D01*
X90415264Y-118352155D01*
X90336259Y-118273013D01*
X90086054Y-118169118D01*
X89815135Y-118168882D01*
X89564748Y-118272339D01*
X89373013Y-118463741D01*
X89367532Y-118476940D01*
X88754056Y-117863464D01*
X89350000Y-117863464D01*
X89491190Y-117836897D01*
X89620865Y-117753454D01*
X89707859Y-117626134D01*
X89738464Y-117475000D01*
X89738464Y-116928777D01*
X89863946Y-116980882D01*
X90133413Y-116981117D01*
X90186673Y-117109698D01*
X90365301Y-117288327D01*
X90598690Y-117385000D01*
X90814250Y-117385000D01*
X90973000Y-117226250D01*
X90973000Y-116477000D01*
X91227000Y-116477000D01*
X91227000Y-117226250D01*
X91385750Y-117385000D01*
X91601310Y-117385000D01*
X91834699Y-117288327D01*
X92013327Y-117109698D01*
X92110000Y-116876309D01*
X92110000Y-116635750D01*
X91951250Y-116477000D01*
X91227000Y-116477000D01*
X90973000Y-116477000D01*
X90953000Y-116477000D01*
X90953000Y-116223000D01*
X90973000Y-116223000D01*
X90973000Y-116203000D01*
X91227000Y-116203000D01*
X91227000Y-116223000D01*
X91951250Y-116223000D01*
X92110000Y-116064250D01*
X92110000Y-115823691D01*
X92013327Y-115590302D01*
X91834699Y-115411673D01*
X91827652Y-115408754D01*
X91832859Y-115401134D01*
X91863464Y-115250000D01*
X91863464Y-114450000D01*
X91836897Y-114308810D01*
X91753454Y-114179135D01*
X91626134Y-114092141D01*
X91475000Y-114061536D01*
X90725000Y-114061536D01*
X90583810Y-114088103D01*
X90454135Y-114171546D01*
X90367141Y-114298866D01*
X90366271Y-114303164D01*
X90286259Y-114223013D01*
X90036054Y-114119118D01*
X89765135Y-114118882D01*
X89514748Y-114222339D01*
X89323013Y-114413741D01*
X89266186Y-114550594D01*
X89067772Y-114352180D01*
X89088464Y-114250000D01*
X89088464Y-113511490D01*
X89165301Y-113588327D01*
X89398690Y-113685000D01*
X89614250Y-113685000D01*
X89773000Y-113526250D01*
X89773000Y-112777000D01*
X90027000Y-112777000D01*
X90027000Y-113526250D01*
X90185750Y-113685000D01*
X90401310Y-113685000D01*
X90634699Y-113588327D01*
X90813327Y-113409698D01*
X90910000Y-113176309D01*
X90910000Y-112935750D01*
X90751250Y-112777000D01*
X90027000Y-112777000D01*
X89773000Y-112777000D01*
X89753000Y-112777000D01*
X89753000Y-112523000D01*
X89773000Y-112523000D01*
X89773000Y-112503000D01*
X90027000Y-112503000D01*
X90027000Y-112523000D01*
X90751250Y-112523000D01*
X90910000Y-112364250D01*
X90910000Y-112123691D01*
X90813327Y-111890302D01*
X90634699Y-111711673D01*
X90627652Y-111708754D01*
X90632859Y-111701134D01*
X90663464Y-111550000D01*
X90663464Y-110750000D01*
X90636897Y-110608810D01*
X90580894Y-110521779D01*
X90581118Y-110265135D01*
X90477661Y-110014748D01*
X90369102Y-109906000D01*
X92440408Y-109906000D01*
X92868969Y-110334561D01*
X92868882Y-110434865D01*
X92972339Y-110685252D01*
X93163741Y-110876987D01*
X93413946Y-110980882D01*
X93518929Y-110980973D01*
X93518882Y-111034863D01*
X93622339Y-111285250D01*
X93813741Y-111476985D01*
X94063946Y-111580880D01*
X94334865Y-111581116D01*
X94585252Y-111477659D01*
X94776987Y-111286257D01*
X94880882Y-111036052D01*
X94881118Y-110765133D01*
X94777661Y-110514746D01*
X94706000Y-110442960D01*
X94706000Y-109750000D01*
X94667483Y-109556362D01*
X94557796Y-109392204D01*
X93757796Y-108592204D01*
X93593638Y-108482517D01*
X93400000Y-108444000D01*
X82679025Y-108444000D01*
X82713327Y-108409698D01*
X82810000Y-108176309D01*
X82810000Y-107935750D01*
X82651250Y-107777000D01*
X81927000Y-107777000D01*
X81927000Y-107797000D01*
X81673000Y-107797000D01*
X81673000Y-107777000D01*
X80948750Y-107777000D01*
X80790000Y-107935750D01*
X80790000Y-108176309D01*
X80886673Y-108409698D01*
X80920975Y-108444000D01*
X80759592Y-108444000D01*
X79439283Y-107123691D01*
X80790000Y-107123691D01*
X80790000Y-107364250D01*
X80948750Y-107523000D01*
X81673000Y-107523000D01*
X81673000Y-107503000D01*
X81927000Y-107503000D01*
X81927000Y-107523000D01*
X82651250Y-107523000D01*
X82810000Y-107364250D01*
X82810000Y-107123691D01*
X82713327Y-106890302D01*
X82534699Y-106711673D01*
X82527652Y-106708754D01*
X82532859Y-106701134D01*
X82552124Y-106606000D01*
X82884036Y-106606000D01*
X82884036Y-106735000D01*
X82910603Y-106876190D01*
X82994046Y-107005865D01*
X83121366Y-107092859D01*
X83272500Y-107123464D01*
X83719000Y-107123464D01*
X83719000Y-107125000D01*
X83757517Y-107318638D01*
X83867204Y-107482796D01*
X84242204Y-107857796D01*
X84406362Y-107967483D01*
X84600000Y-108006000D01*
X90042877Y-108006000D01*
X90113741Y-108076987D01*
X90363946Y-108180882D01*
X90634865Y-108181118D01*
X90885252Y-108077661D01*
X91076987Y-107886259D01*
X91180882Y-107636054D01*
X91181118Y-107365135D01*
X91077661Y-107114748D01*
X90926640Y-106963464D01*
X91450000Y-106963464D01*
X91591190Y-106936897D01*
X91608081Y-106926028D01*
X91611673Y-106934699D01*
X91790302Y-107113327D01*
X92023691Y-107210000D01*
X92264250Y-107210000D01*
X92423000Y-107051250D01*
X92423000Y-106327000D01*
X92677000Y-106327000D01*
X92677000Y-107051250D01*
X92835750Y-107210000D01*
X93076309Y-107210000D01*
X93309698Y-107113327D01*
X93488327Y-106934699D01*
X93585000Y-106701310D01*
X93585000Y-106485750D01*
X93426250Y-106327000D01*
X92677000Y-106327000D01*
X92423000Y-106327000D01*
X92403000Y-106327000D01*
X92403000Y-106073000D01*
X92423000Y-106073000D01*
X92423000Y-105348750D01*
X92677000Y-105348750D01*
X92677000Y-106073000D01*
X93426250Y-106073000D01*
X93567326Y-105931924D01*
X93661673Y-106159699D01*
X93840302Y-106338327D01*
X94073691Y-106435000D01*
X96814250Y-106435000D01*
X96973000Y-106276250D01*
X96973000Y-103027000D01*
X93723750Y-103027000D01*
X93565000Y-103185750D01*
X93565000Y-105650406D01*
X93488327Y-105465301D01*
X93309698Y-105286673D01*
X93076309Y-105190000D01*
X92835750Y-105190000D01*
X92677000Y-105348750D01*
X92423000Y-105348750D01*
X92264250Y-105190000D01*
X92023691Y-105190000D01*
X91790302Y-105286673D01*
X91611673Y-105465301D01*
X91608754Y-105472348D01*
X91601134Y-105467141D01*
X91450000Y-105436536D01*
X90650000Y-105436536D01*
X90508810Y-105463103D01*
X90379135Y-105546546D01*
X90362111Y-105571462D01*
X90236054Y-105519118D01*
X89965135Y-105518882D01*
X89714748Y-105622339D01*
X89642962Y-105694000D01*
X88740964Y-105694000D01*
X88740964Y-105465000D01*
X88714397Y-105323810D01*
X88630954Y-105194135D01*
X88503634Y-105107141D01*
X88352500Y-105076536D01*
X86447500Y-105076536D01*
X86306310Y-105103103D01*
X86176635Y-105186546D01*
X86089641Y-105313866D01*
X86059036Y-105465000D01*
X86059036Y-106735000D01*
X86085603Y-106876190D01*
X86161411Y-106994000D01*
X85461657Y-106994000D01*
X85535359Y-106886134D01*
X85565964Y-106735000D01*
X85565964Y-105465000D01*
X85539397Y-105323810D01*
X85455954Y-105194135D01*
X85328634Y-105107141D01*
X85177500Y-105076536D01*
X84262886Y-105076536D01*
X84225000Y-105069000D01*
X84187114Y-105076536D01*
X83272500Y-105076536D01*
X83131310Y-105103103D01*
X83001635Y-105186546D01*
X82914641Y-105313866D01*
X82884036Y-105465000D01*
X82884036Y-105594000D01*
X82527367Y-105594000D01*
X82453454Y-105479135D01*
X82326134Y-105392141D01*
X82175000Y-105361536D01*
X81425000Y-105361536D01*
X81283810Y-105388103D01*
X81154135Y-105471546D01*
X81067141Y-105598866D01*
X81036536Y-105750000D01*
X81036536Y-106550000D01*
X81063103Y-106691190D01*
X81073972Y-106708081D01*
X81065301Y-106711673D01*
X80886673Y-106890302D01*
X80790000Y-107123691D01*
X79439283Y-107123691D01*
X77680197Y-105364605D01*
X77516039Y-105254918D01*
X77322401Y-105216401D01*
X71691678Y-105216401D01*
X71782522Y-104956900D01*
X71753375Y-104436566D01*
X71610328Y-104091219D01*
X71377147Y-104032458D01*
X70639605Y-104770000D01*
X70653748Y-104784143D01*
X70474143Y-104963748D01*
X70460000Y-104949605D01*
X70445858Y-104963748D01*
X70266253Y-104784143D01*
X70280395Y-104770000D01*
X69542853Y-104032458D01*
X69309672Y-104091219D01*
X69300543Y-104117297D01*
X69058957Y-103875289D01*
X69004926Y-103852853D01*
X69722458Y-103852853D01*
X70460000Y-104590395D01*
X71197542Y-103852853D01*
X71138781Y-103619672D01*
X70646900Y-103447478D01*
X70126566Y-103476625D01*
X69781219Y-103619672D01*
X69722458Y-103852853D01*
X69004926Y-103852853D01*
X68670973Y-103714184D01*
X68250870Y-103713817D01*
X68157846Y-103752254D01*
X67822013Y-103416421D01*
X68233434Y-103393375D01*
X68578781Y-103250328D01*
X68637542Y-103017147D01*
X67900000Y-102279605D01*
X67885858Y-102293748D01*
X67706253Y-102114143D01*
X67720395Y-102100000D01*
X67706253Y-102085858D01*
X67885858Y-101906253D01*
X67900000Y-101920395D01*
X67914143Y-101906253D01*
X68093748Y-102085858D01*
X68079605Y-102100000D01*
X68817147Y-102837542D01*
X68846894Y-102830046D01*
X68863103Y-102916190D01*
X68946546Y-103045865D01*
X69073866Y-103132859D01*
X69225000Y-103163464D01*
X70575000Y-103163464D01*
X70716190Y-103136897D01*
X70845865Y-103053454D01*
X70932859Y-102926134D01*
X70963464Y-102775000D01*
X70963464Y-101934130D01*
X72618817Y-101934130D01*
X72779245Y-102322394D01*
X73076043Y-102619711D01*
X73329752Y-102725060D01*
X73077606Y-102829245D01*
X72780289Y-103126043D01*
X72619184Y-103514027D01*
X72618817Y-103934130D01*
X72779245Y-104322394D01*
X73076043Y-104619711D01*
X73464027Y-104780816D01*
X73884130Y-104781183D01*
X74272394Y-104620755D01*
X74569711Y-104323957D01*
X74675060Y-104070248D01*
X74779245Y-104322394D01*
X75076043Y-104619711D01*
X75464027Y-104780816D01*
X75884130Y-104781183D01*
X76272394Y-104620755D01*
X76569711Y-104323957D01*
X76675060Y-104070248D01*
X76779245Y-104322394D01*
X77076043Y-104619711D01*
X77464027Y-104780816D01*
X77884130Y-104781183D01*
X77977154Y-104742746D01*
X78968969Y-105734561D01*
X78968882Y-105834865D01*
X79072339Y-106085252D01*
X79263741Y-106276987D01*
X79513946Y-106380882D01*
X79784865Y-106381118D01*
X80035252Y-106277661D01*
X80226987Y-106086259D01*
X80330882Y-105836054D01*
X80331118Y-105565135D01*
X80227661Y-105314748D01*
X80036259Y-105123013D01*
X79786054Y-105019118D01*
X79684622Y-105019030D01*
X79433897Y-104768305D01*
X79464027Y-104780816D01*
X79884130Y-104781183D01*
X80272394Y-104620755D01*
X80569711Y-104323957D01*
X80675060Y-104070248D01*
X80779245Y-104322394D01*
X81076043Y-104619711D01*
X81464027Y-104780816D01*
X81884130Y-104781183D01*
X82272394Y-104620755D01*
X82569711Y-104323957D01*
X82675060Y-104070248D01*
X82779245Y-104322394D01*
X83076043Y-104619711D01*
X83464027Y-104780816D01*
X83884130Y-104781183D01*
X84272394Y-104620755D01*
X84569711Y-104323957D01*
X84675060Y-104070248D01*
X84779245Y-104322394D01*
X85076043Y-104619711D01*
X85464027Y-104780816D01*
X85884130Y-104781183D01*
X86272394Y-104620755D01*
X86569711Y-104323957D01*
X86675060Y-104070248D01*
X86779245Y-104322394D01*
X87076043Y-104619711D01*
X87464027Y-104780816D01*
X87884130Y-104781183D01*
X88272394Y-104620755D01*
X88569711Y-104323957D01*
X88675060Y-104070248D01*
X88779245Y-104322394D01*
X89076043Y-104619711D01*
X89464027Y-104780816D01*
X89884130Y-104781183D01*
X90272394Y-104620755D01*
X90569711Y-104323957D01*
X90675060Y-104070248D01*
X90779245Y-104322394D01*
X91076043Y-104619711D01*
X91464027Y-104780816D01*
X91884130Y-104781183D01*
X92272394Y-104620755D01*
X92569711Y-104323957D01*
X92730816Y-103935973D01*
X92731183Y-103515870D01*
X92570755Y-103127606D01*
X92273957Y-102830289D01*
X92173231Y-102788464D01*
X92350000Y-102788464D01*
X92491190Y-102761897D01*
X92620865Y-102678454D01*
X92707859Y-102551134D01*
X92738464Y-102400000D01*
X92738464Y-101050000D01*
X92711897Y-100908810D01*
X92628454Y-100779135D01*
X92501134Y-100692141D01*
X92350000Y-100661536D01*
X91000000Y-100661536D01*
X90858810Y-100688103D01*
X90729135Y-100771546D01*
X90642141Y-100898866D01*
X90611536Y-101050000D01*
X90611536Y-101226303D01*
X90570755Y-101127606D01*
X90273957Y-100830289D01*
X89885973Y-100669184D01*
X89465870Y-100668817D01*
X89077606Y-100829245D01*
X88780289Y-101126043D01*
X88674940Y-101379752D01*
X88570755Y-101127606D01*
X88273957Y-100830289D01*
X87885973Y-100669184D01*
X87465870Y-100668817D01*
X87077606Y-100829245D01*
X86780289Y-101126043D01*
X86674940Y-101379752D01*
X86570755Y-101127606D01*
X86273957Y-100830289D01*
X85885973Y-100669184D01*
X85465870Y-100668817D01*
X85077606Y-100829245D01*
X84780289Y-101126043D01*
X84674940Y-101379752D01*
X84570755Y-101127606D01*
X84273957Y-100830289D01*
X83885973Y-100669184D01*
X83465870Y-100668817D01*
X83077606Y-100829245D01*
X82780289Y-101126043D01*
X82674940Y-101379752D01*
X82570755Y-101127606D01*
X82273957Y-100830289D01*
X81885973Y-100669184D01*
X81465870Y-100668817D01*
X81077606Y-100829245D01*
X80780289Y-101126043D01*
X80674940Y-101379752D01*
X80570755Y-101127606D01*
X80273957Y-100830289D01*
X79885973Y-100669184D01*
X79465870Y-100668817D01*
X79077606Y-100829245D01*
X78780289Y-101126043D01*
X78674940Y-101379752D01*
X78570755Y-101127606D01*
X78273957Y-100830289D01*
X77885973Y-100669184D01*
X77465870Y-100668817D01*
X77077606Y-100829245D01*
X76780289Y-101126043D01*
X76674940Y-101379752D01*
X76570755Y-101127606D01*
X76273957Y-100830289D01*
X75885973Y-100669184D01*
X75465870Y-100668817D01*
X75077606Y-100829245D01*
X74780289Y-101126043D01*
X74674940Y-101379752D01*
X74570755Y-101127606D01*
X74273957Y-100830289D01*
X73885973Y-100669184D01*
X73465870Y-100668817D01*
X73077606Y-100829245D01*
X72780289Y-101126043D01*
X72619184Y-101514027D01*
X72618817Y-101934130D01*
X70963464Y-101934130D01*
X70963464Y-101425000D01*
X70936897Y-101283810D01*
X70853454Y-101154135D01*
X70726134Y-101067141D01*
X70575000Y-101036536D01*
X70378458Y-101036536D01*
X70367483Y-100981362D01*
X70257796Y-100817204D01*
X69982796Y-100542204D01*
X69818638Y-100432517D01*
X69811012Y-100431000D01*
X93565000Y-100431000D01*
X93565000Y-102614250D01*
G36*
X63446362Y-100432517D02*
X63282204Y-100542204D01*
X62722301Y-101102107D01*
X62630973Y-101064184D01*
X62210870Y-101063817D01*
X61822606Y-101224245D01*
X61525289Y-101521043D01*
X61419940Y-101774752D01*
X61315755Y-101522606D01*
X61018957Y-101225289D01*
X60630973Y-101064184D01*
X60210870Y-101063817D01*
X59822606Y-101224245D01*
X59577423Y-101469000D01*
X59038464Y-101469000D01*
X59038464Y-101250000D01*
X59011897Y-101108810D01*
X58928454Y-100979135D01*
X58801134Y-100892141D01*
X58650000Y-100861536D01*
X57750000Y-100861536D01*
X57608810Y-100888103D01*
X57479135Y-100971546D01*
X57392141Y-101098866D01*
X57361536Y-101250000D01*
X57361536Y-102950000D01*
X57388103Y-103091190D01*
X57471546Y-103220865D01*
X57598866Y-103307859D01*
X57750000Y-103338464D01*
X58046851Y-103338464D01*
X53342202Y-108043113D01*
X53232515Y-108207271D01*
X53193998Y-108400909D01*
X53193998Y-109042877D01*
X53123011Y-109113741D01*
X53019116Y-109363946D01*
X53018880Y-109634865D01*
X53122337Y-109885252D01*
X53313739Y-110076987D01*
X53563944Y-110180882D01*
X53834863Y-110181118D01*
X54014467Y-110106908D01*
X54072695Y-110247832D01*
X54264097Y-110439567D01*
X54514302Y-110543462D01*
X54785221Y-110543698D01*
X55035608Y-110440241D01*
X55227343Y-110248839D01*
X55331238Y-109998634D01*
X55331474Y-109727715D01*
X55228017Y-109477328D01*
X55156356Y-109405542D01*
X55156356Y-108229236D01*
X57492812Y-105892780D01*
X57572339Y-106085252D01*
X57761757Y-106275000D01*
X57638690Y-106275000D01*
X57405301Y-106371673D01*
X57226673Y-106550302D01*
X57130000Y-106783691D01*
X57130000Y-107024250D01*
X57288750Y-107183000D01*
X58013000Y-107183000D01*
X58013000Y-107163000D01*
X58267000Y-107163000D01*
X58267000Y-107183000D01*
X58287000Y-107183000D01*
X58287000Y-107437000D01*
X58267000Y-107437000D01*
X58267000Y-107457000D01*
X58013000Y-107457000D01*
X58013000Y-107437000D01*
X57288750Y-107437000D01*
X57130000Y-107595750D01*
X57130000Y-107836309D01*
X57226673Y-108069698D01*
X57405301Y-108248327D01*
X57412348Y-108251246D01*
X57407141Y-108258866D01*
X57376536Y-108410000D01*
X57376536Y-108826567D01*
X57144748Y-108922339D01*
X56953013Y-109113741D01*
X56849118Y-109363946D01*
X56849049Y-109443689D01*
X56759135Y-109501546D01*
X56672141Y-109628866D01*
X56641536Y-109780000D01*
X56641536Y-110680000D01*
X56663777Y-110798198D01*
X56491673Y-110970301D01*
X56395000Y-111203690D01*
X56395000Y-111494250D01*
X56553750Y-111653000D01*
X57403000Y-111653000D01*
X57403000Y-111633000D01*
X57657000Y-111633000D01*
X57657000Y-111653000D01*
X57677000Y-111653000D01*
X57677000Y-111907000D01*
X57657000Y-111907000D01*
X57657000Y-111927000D01*
X57403000Y-111927000D01*
X57403000Y-111907000D01*
X56553750Y-111907000D01*
X56395000Y-112065750D01*
X56395000Y-112250000D01*
X56303691Y-112250000D01*
X56070302Y-112346673D01*
X55891673Y-112525301D01*
X55888754Y-112532348D01*
X55881134Y-112527141D01*
X55730000Y-112496536D01*
X55070943Y-112496536D01*
X55071118Y-112295135D01*
X54967661Y-112044748D01*
X54776259Y-111853013D01*
X54526054Y-111749118D01*
X54255135Y-111748882D01*
X54004748Y-111852339D01*
X53813013Y-112043741D01*
X53709118Y-112293946D01*
X53708882Y-112564865D01*
X53812339Y-112815252D01*
X53884000Y-112887038D01*
X53884000Y-113150000D01*
X53922517Y-113343638D01*
X54032204Y-113507796D01*
X54142204Y-113617796D01*
X54306362Y-113727483D01*
X54500000Y-113766000D01*
X54566186Y-113766000D01*
X54568103Y-113776190D01*
X54651546Y-113905865D01*
X54778866Y-113992859D01*
X54824000Y-114001999D01*
X54824000Y-114076481D01*
X54788810Y-114083103D01*
X54659135Y-114166546D01*
X54572141Y-114293866D01*
X54541536Y-114445000D01*
X54541536Y-115195000D01*
X54568103Y-115336190D01*
X54651546Y-115465865D01*
X54778866Y-115552859D01*
X54824000Y-115561999D01*
X54824000Y-115980000D01*
X54862517Y-116173638D01*
X54972204Y-116337796D01*
X56538686Y-117904278D01*
X56513599Y-118030401D01*
X56513599Y-118493643D01*
X56442612Y-118564507D01*
X56338717Y-118814712D01*
X56338481Y-119085631D01*
X56441938Y-119336018D01*
X56633340Y-119527753D01*
X56883545Y-119631648D01*
X57154464Y-119631884D01*
X57404851Y-119528427D01*
X57596586Y-119337025D01*
X57700481Y-119086820D01*
X57700717Y-118815901D01*
X57597260Y-118565514D01*
X57525599Y-118493728D01*
X57525599Y-118356000D01*
X61442516Y-118356000D01*
X61437141Y-118363866D01*
X61406536Y-118515000D01*
X61406536Y-119415000D01*
X61433103Y-119556190D01*
X61498687Y-119658111D01*
X61473013Y-119683741D01*
X61369118Y-119933946D01*
X61368882Y-120204865D01*
X61472339Y-120455252D01*
X61544000Y-120527038D01*
X61544000Y-121120408D01*
X60276457Y-122387951D01*
X60261487Y-122308390D01*
X60178044Y-122178715D01*
X60121270Y-122139923D01*
X60170455Y-122108274D01*
X60257449Y-121980954D01*
X60282168Y-121858884D01*
X60511093Y-121813348D01*
X60715804Y-121676564D01*
X60865035Y-121527333D01*
X60985252Y-121477661D01*
X61176987Y-121286259D01*
X61280882Y-121036054D01*
X61281118Y-120765135D01*
X61177661Y-120514748D01*
X60986259Y-120323013D01*
X60736054Y-120219118D01*
X60465135Y-120218882D01*
X60438994Y-120229683D01*
X60450882Y-120201054D01*
X60451118Y-119930135D01*
X60347661Y-119679748D01*
X60156259Y-119488013D01*
X59906054Y-119384118D01*
X59635135Y-119383882D01*
X59384748Y-119487339D01*
X59312962Y-119559000D01*
X58215000Y-119559000D01*
X58021362Y-119597517D01*
X57857204Y-119707204D01*
X57712204Y-119852204D01*
X57602517Y-120016362D01*
X57573708Y-120161196D01*
X56300410Y-120161196D01*
X56159220Y-120187763D01*
X56029545Y-120271206D01*
X55942551Y-120398526D01*
X55930444Y-120458312D01*
X55836054Y-120419118D01*
X55565135Y-120418882D01*
X55314748Y-120522339D01*
X55123013Y-120713741D01*
X55019118Y-120963946D01*
X55018882Y-121234865D01*
X55122339Y-121485252D01*
X55313741Y-121676987D01*
X55563946Y-121780882D01*
X55834865Y-121781118D01*
X55962243Y-121728487D01*
X56021956Y-121821285D01*
X56149276Y-121908279D01*
X56300410Y-121938884D01*
X57495054Y-121938884D01*
X57372822Y-122061116D01*
X56300410Y-122061116D01*
X56159220Y-122087683D01*
X56029545Y-122171126D01*
X55942551Y-122298446D01*
X55913084Y-122443960D01*
X55809552Y-122443960D01*
X53407796Y-120042204D01*
X53243638Y-119932517D01*
X53050000Y-119894000D01*
X52377000Y-119894000D01*
X52377000Y-112322719D01*
X52384083Y-112322719D01*
X52671096Y-112265629D01*
X52826464Y-112201274D01*
X52826465Y-112201273D01*
X53069781Y-112038693D01*
X53124391Y-111984083D01*
X53188693Y-111919782D01*
X53351273Y-111676465D01*
X53351274Y-111676464D01*
X53415629Y-111521096D01*
X53472719Y-111234083D01*
X53472719Y-111065917D01*
X53415629Y-110778904D01*
X53351274Y-110623536D01*
X53351273Y-110623535D01*
X53188693Y-110380218D01*
X53069780Y-110261306D01*
X53069779Y-110261305D01*
X52826465Y-110098727D01*
X52826464Y-110098726D01*
X52671096Y-110034371D01*
X52384083Y-109977281D01*
X52377000Y-109977281D01*
X52377000Y-104231000D01*
X52479024Y-104231000D01*
X52538946Y-104255882D01*
X52809865Y-104256118D01*
X53060252Y-104152661D01*
X53251987Y-103961259D01*
X53252610Y-103959758D01*
X54461536Y-102750833D01*
X54461536Y-102950000D01*
X54488103Y-103091190D01*
X54571546Y-103220865D01*
X54698866Y-103307859D01*
X54850000Y-103338464D01*
X55750000Y-103338464D01*
X55891190Y-103311897D01*
X56020865Y-103228454D01*
X56107859Y-103101134D01*
X56138464Y-102950000D01*
X56138464Y-101250000D01*
X56111897Y-101108810D01*
X56028454Y-100979135D01*
X55901134Y-100892141D01*
X55750000Y-100861536D01*
X54850000Y-100861536D01*
X54708810Y-100888103D01*
X54579135Y-100971546D01*
X54492141Y-101098866D01*
X54461536Y-101250000D01*
X54461536Y-101469000D01*
X54220000Y-101469000D01*
X54018589Y-101509063D01*
X53978526Y-101517032D01*
X53773815Y-101653816D01*
X52529254Y-102898378D01*
X52377000Y-102961287D01*
X52377000Y-102150719D01*
X52547464Y-101895602D01*
X52547468Y-101895598D01*
X52611823Y-101740230D01*
X52672719Y-101434083D01*
X52672719Y-101391633D01*
X52681000Y-101350000D01*
X52681000Y-100431000D01*
X63453988Y-100431000D01*
X63446362Y-100432517D01*
X63446362Y-100432517D01*
G37*
X63446362Y-100432517D02*
X63282204Y-100542204D01*
X62722301Y-101102107D01*
X62630973Y-101064184D01*
X62210870Y-101063817D01*
X61822606Y-101224245D01*
X61525289Y-101521043D01*
X61419940Y-101774752D01*
X61315755Y-101522606D01*
X61018957Y-101225289D01*
X60630973Y-101064184D01*
X60210870Y-101063817D01*
X59822606Y-101224245D01*
X59577423Y-101469000D01*
X59038464Y-101469000D01*
X59038464Y-101250000D01*
X59011897Y-101108810D01*
X58928454Y-100979135D01*
X58801134Y-100892141D01*
X58650000Y-100861536D01*
X57750000Y-100861536D01*
X57608810Y-100888103D01*
X57479135Y-100971546D01*
X57392141Y-101098866D01*
X57361536Y-101250000D01*
X57361536Y-102950000D01*
X57388103Y-103091190D01*
X57471546Y-103220865D01*
X57598866Y-103307859D01*
X57750000Y-103338464D01*
X58046851Y-103338464D01*
X53342202Y-108043113D01*
X53232515Y-108207271D01*
X53193998Y-108400909D01*
X53193998Y-109042877D01*
X53123011Y-109113741D01*
X53019116Y-109363946D01*
X53018880Y-109634865D01*
X53122337Y-109885252D01*
X53313739Y-110076987D01*
X53563944Y-110180882D01*
X53834863Y-110181118D01*
X54014467Y-110106908D01*
X54072695Y-110247832D01*
X54264097Y-110439567D01*
X54514302Y-110543462D01*
X54785221Y-110543698D01*
X55035608Y-110440241D01*
X55227343Y-110248839D01*
X55331238Y-109998634D01*
X55331474Y-109727715D01*
X55228017Y-109477328D01*
X55156356Y-109405542D01*
X55156356Y-108229236D01*
X57492812Y-105892780D01*
X57572339Y-106085252D01*
X57761757Y-106275000D01*
X57638690Y-106275000D01*
X57405301Y-106371673D01*
X57226673Y-106550302D01*
X57130000Y-106783691D01*
X57130000Y-107024250D01*
X57288750Y-107183000D01*
X58013000Y-107183000D01*
X58013000Y-107163000D01*
X58267000Y-107163000D01*
X58267000Y-107183000D01*
X58287000Y-107183000D01*
X58287000Y-107437000D01*
X58267000Y-107437000D01*
X58267000Y-107457000D01*
X58013000Y-107457000D01*
X58013000Y-107437000D01*
X57288750Y-107437000D01*
X57130000Y-107595750D01*
X57130000Y-107836309D01*
X57226673Y-108069698D01*
X57405301Y-108248327D01*
X57412348Y-108251246D01*
X57407141Y-108258866D01*
X57376536Y-108410000D01*
X57376536Y-108826567D01*
X57144748Y-108922339D01*
X56953013Y-109113741D01*
X56849118Y-109363946D01*
X56849049Y-109443689D01*
X56759135Y-109501546D01*
X56672141Y-109628866D01*
X56641536Y-109780000D01*
X56641536Y-110680000D01*
X56663777Y-110798198D01*
X56491673Y-110970301D01*
X56395000Y-111203690D01*
X56395000Y-111494250D01*
X56553750Y-111653000D01*
X57403000Y-111653000D01*
X57403000Y-111633000D01*
X57657000Y-111633000D01*
X57657000Y-111653000D01*
X57677000Y-111653000D01*
X57677000Y-111907000D01*
X57657000Y-111907000D01*
X57657000Y-111927000D01*
X57403000Y-111927000D01*
X57403000Y-111907000D01*
X56553750Y-111907000D01*
X56395000Y-112065750D01*
X56395000Y-112250000D01*
X56303691Y-112250000D01*
X56070302Y-112346673D01*
X55891673Y-112525301D01*
X55888754Y-112532348D01*
X55881134Y-112527141D01*
X55730000Y-112496536D01*
X55070943Y-112496536D01*
X55071118Y-112295135D01*
X54967661Y-112044748D01*
X54776259Y-111853013D01*
X54526054Y-111749118D01*
X54255135Y-111748882D01*
X54004748Y-111852339D01*
X53813013Y-112043741D01*
X53709118Y-112293946D01*
X53708882Y-112564865D01*
X53812339Y-112815252D01*
X53884000Y-112887038D01*
X53884000Y-113150000D01*
X53922517Y-113343638D01*
X54032204Y-113507796D01*
X54142204Y-113617796D01*
X54306362Y-113727483D01*
X54500000Y-113766000D01*
X54566186Y-113766000D01*
X54568103Y-113776190D01*
X54651546Y-113905865D01*
X54778866Y-113992859D01*
X54824000Y-114001999D01*
X54824000Y-114076481D01*
X54788810Y-114083103D01*
X54659135Y-114166546D01*
X54572141Y-114293866D01*
X54541536Y-114445000D01*
X54541536Y-115195000D01*
X54568103Y-115336190D01*
X54651546Y-115465865D01*
X54778866Y-115552859D01*
X54824000Y-115561999D01*
X54824000Y-115980000D01*
X54862517Y-116173638D01*
X54972204Y-116337796D01*
X56538686Y-117904278D01*
X56513599Y-118030401D01*
X56513599Y-118493643D01*
X56442612Y-118564507D01*
X56338717Y-118814712D01*
X56338481Y-119085631D01*
X56441938Y-119336018D01*
X56633340Y-119527753D01*
X56883545Y-119631648D01*
X57154464Y-119631884D01*
X57404851Y-119528427D01*
X57596586Y-119337025D01*
X57700481Y-119086820D01*
X57700717Y-118815901D01*
X57597260Y-118565514D01*
X57525599Y-118493728D01*
X57525599Y-118356000D01*
X61442516Y-118356000D01*
X61437141Y-118363866D01*
X61406536Y-118515000D01*
X61406536Y-119415000D01*
X61433103Y-119556190D01*
X61498687Y-119658111D01*
X61473013Y-119683741D01*
X61369118Y-119933946D01*
X61368882Y-120204865D01*
X61472339Y-120455252D01*
X61544000Y-120527038D01*
X61544000Y-121120408D01*
X60276457Y-122387951D01*
X60261487Y-122308390D01*
X60178044Y-122178715D01*
X60121270Y-122139923D01*
X60170455Y-122108274D01*
X60257449Y-121980954D01*
X60282168Y-121858884D01*
X60511093Y-121813348D01*
X60715804Y-121676564D01*
X60865035Y-121527333D01*
X60985252Y-121477661D01*
X61176987Y-121286259D01*
X61280882Y-121036054D01*
X61281118Y-120765135D01*
X61177661Y-120514748D01*
X60986259Y-120323013D01*
X60736054Y-120219118D01*
X60465135Y-120218882D01*
X60438994Y-120229683D01*
X60450882Y-120201054D01*
X60451118Y-119930135D01*
X60347661Y-119679748D01*
X60156259Y-119488013D01*
X59906054Y-119384118D01*
X59635135Y-119383882D01*
X59384748Y-119487339D01*
X59312962Y-119559000D01*
X58215000Y-119559000D01*
X58021362Y-119597517D01*
X57857204Y-119707204D01*
X57712204Y-119852204D01*
X57602517Y-120016362D01*
X57573708Y-120161196D01*
X56300410Y-120161196D01*
X56159220Y-120187763D01*
X56029545Y-120271206D01*
X55942551Y-120398526D01*
X55930444Y-120458312D01*
X55836054Y-120419118D01*
X55565135Y-120418882D01*
X55314748Y-120522339D01*
X55123013Y-120713741D01*
X55019118Y-120963946D01*
X55018882Y-121234865D01*
X55122339Y-121485252D01*
X55313741Y-121676987D01*
X55563946Y-121780882D01*
X55834865Y-121781118D01*
X55962243Y-121728487D01*
X56021956Y-121821285D01*
X56149276Y-121908279D01*
X56300410Y-121938884D01*
X57495054Y-121938884D01*
X57372822Y-122061116D01*
X56300410Y-122061116D01*
X56159220Y-122087683D01*
X56029545Y-122171126D01*
X55942551Y-122298446D01*
X55913084Y-122443960D01*
X55809552Y-122443960D01*
X53407796Y-120042204D01*
X53243638Y-119932517D01*
X53050000Y-119894000D01*
X52377000Y-119894000D01*
X52377000Y-112322719D01*
X52384083Y-112322719D01*
X52671096Y-112265629D01*
X52826464Y-112201274D01*
X52826465Y-112201273D01*
X53069781Y-112038693D01*
X53124391Y-111984083D01*
X53188693Y-111919782D01*
X53351273Y-111676465D01*
X53351274Y-111676464D01*
X53415629Y-111521096D01*
X53472719Y-111234083D01*
X53472719Y-111065917D01*
X53415629Y-110778904D01*
X53351274Y-110623536D01*
X53351273Y-110623535D01*
X53188693Y-110380218D01*
X53069780Y-110261306D01*
X53069779Y-110261305D01*
X52826465Y-110098727D01*
X52826464Y-110098726D01*
X52671096Y-110034371D01*
X52384083Y-109977281D01*
X52377000Y-109977281D01*
X52377000Y-104231000D01*
X52479024Y-104231000D01*
X52538946Y-104255882D01*
X52809865Y-104256118D01*
X53060252Y-104152661D01*
X53251987Y-103961259D01*
X53252610Y-103959758D01*
X54461536Y-102750833D01*
X54461536Y-102950000D01*
X54488103Y-103091190D01*
X54571546Y-103220865D01*
X54698866Y-103307859D01*
X54850000Y-103338464D01*
X55750000Y-103338464D01*
X55891190Y-103311897D01*
X56020865Y-103228454D01*
X56107859Y-103101134D01*
X56138464Y-102950000D01*
X56138464Y-101250000D01*
X56111897Y-101108810D01*
X56028454Y-100979135D01*
X55901134Y-100892141D01*
X55750000Y-100861536D01*
X54850000Y-100861536D01*
X54708810Y-100888103D01*
X54579135Y-100971546D01*
X54492141Y-101098866D01*
X54461536Y-101250000D01*
X54461536Y-101469000D01*
X54220000Y-101469000D01*
X54018589Y-101509063D01*
X53978526Y-101517032D01*
X53773815Y-101653816D01*
X52529254Y-102898378D01*
X52377000Y-102961287D01*
X52377000Y-102150719D01*
X52547464Y-101895602D01*
X52547468Y-101895598D01*
X52611823Y-101740230D01*
X52672719Y-101434083D01*
X52672719Y-101391633D01*
X52681000Y-101350000D01*
X52681000Y-100431000D01*
X63453988Y-100431000D01*
X63446362Y-100432517D01*
G36*
X80073110Y-109757796D02*
X80237268Y-109867483D01*
X80430906Y-109906000D01*
X89430941Y-109906000D01*
X89323013Y-110013741D01*
X89219118Y-110263946D01*
X89218892Y-110523126D01*
X89167141Y-110598866D01*
X89152041Y-110673431D01*
X89106362Y-110682517D01*
X88942204Y-110792204D01*
X88731532Y-111002876D01*
X88714397Y-110911810D01*
X88630954Y-110782135D01*
X88503634Y-110695141D01*
X88352500Y-110664536D01*
X86447500Y-110664536D01*
X86306310Y-110691103D01*
X86176635Y-110774546D01*
X86089641Y-110901866D01*
X86059036Y-111053000D01*
X86059036Y-112323000D01*
X86085603Y-112464190D01*
X86169046Y-112593865D01*
X86296366Y-112680859D01*
X86447500Y-112711464D01*
X86722944Y-112711464D01*
X86592204Y-112842204D01*
X86482517Y-113006362D01*
X86475484Y-113041722D01*
X86429135Y-113071546D01*
X86342141Y-113198866D01*
X86311536Y-113350000D01*
X86311536Y-113388511D01*
X86309698Y-113386673D01*
X86076309Y-113290000D01*
X85835750Y-113290000D01*
X85677000Y-113448750D01*
X85677000Y-114173000D01*
X85697000Y-114173000D01*
X85697000Y-114427000D01*
X85677000Y-114427000D01*
X85677000Y-115151250D01*
X85835750Y-115310000D01*
X86076309Y-115310000D01*
X86309698Y-115213327D01*
X86415000Y-115108026D01*
X86415000Y-115214250D01*
X86573750Y-115373000D01*
X87323000Y-115373000D01*
X87323000Y-115353000D01*
X87577000Y-115353000D01*
X87577000Y-115373000D01*
X87597000Y-115373000D01*
X87597000Y-115627000D01*
X87577000Y-115627000D01*
X87577000Y-116973000D01*
X87597000Y-116973000D01*
X87597000Y-117227000D01*
X87577000Y-117227000D01*
X87577000Y-117246401D01*
X87323000Y-117246401D01*
X87323000Y-117227000D01*
X86573750Y-117227000D01*
X86554349Y-117246401D01*
X86386183Y-117246401D01*
X86361679Y-117187096D01*
X86218901Y-117044070D01*
X86376987Y-116886259D01*
X86415000Y-116794714D01*
X86415000Y-116814250D01*
X86573750Y-116973000D01*
X87323000Y-116973000D01*
X87323000Y-115627000D01*
X86573750Y-115627000D01*
X86415000Y-115785750D01*
X86415000Y-116001310D01*
X86511673Y-116234699D01*
X86576974Y-116300000D01*
X86511673Y-116365301D01*
X86481053Y-116439223D01*
X86481118Y-116365135D01*
X86377661Y-116114748D01*
X86186259Y-115923013D01*
X85936054Y-115819118D01*
X85665135Y-115818882D01*
X85541723Y-115869874D01*
X85501134Y-115842141D01*
X85350000Y-115811536D01*
X84556000Y-115811536D01*
X84556000Y-115043519D01*
X84591190Y-115036897D01*
X84608081Y-115026028D01*
X84611673Y-115034699D01*
X84790302Y-115213327D01*
X85023691Y-115310000D01*
X85264250Y-115310000D01*
X85423000Y-115151250D01*
X85423000Y-114427000D01*
X85403000Y-114427000D01*
X85403000Y-114173000D01*
X85423000Y-114173000D01*
X85423000Y-113448750D01*
X85264250Y-113290000D01*
X85023691Y-113290000D01*
X84790302Y-113386673D01*
X84611673Y-113565301D01*
X84608754Y-113572348D01*
X84601134Y-113567141D01*
X84450000Y-113536536D01*
X83650000Y-113536536D01*
X83508810Y-113563103D01*
X83388145Y-113640748D01*
X83336054Y-113619118D01*
X83065135Y-113618882D01*
X82814748Y-113722339D01*
X82623013Y-113913741D01*
X82519118Y-114163946D01*
X82518882Y-114434865D01*
X82622339Y-114685252D01*
X82813741Y-114876987D01*
X83063946Y-114980882D01*
X83334865Y-114981118D01*
X83389875Y-114958389D01*
X83498866Y-115032859D01*
X83544000Y-115041999D01*
X83544000Y-115811536D01*
X82750000Y-115811536D01*
X82608810Y-115838103D01*
X82479135Y-115921546D01*
X82463793Y-115944000D01*
X80284592Y-115944000D01*
X78906000Y-114565408D01*
X78906000Y-111207123D01*
X78976987Y-111136259D01*
X79011559Y-111053000D01*
X82884036Y-111053000D01*
X82884036Y-112323000D01*
X82910603Y-112464190D01*
X82994046Y-112593865D01*
X83121366Y-112680859D01*
X83272500Y-112711464D01*
X85177500Y-112711464D01*
X85318690Y-112684897D01*
X85448365Y-112601454D01*
X85535359Y-112474134D01*
X85565964Y-112323000D01*
X85565964Y-111053000D01*
X85539397Y-110911810D01*
X85455954Y-110782135D01*
X85328634Y-110695141D01*
X85177500Y-110664536D01*
X83272500Y-110664536D01*
X83131310Y-110691103D01*
X83001635Y-110774546D01*
X82914641Y-110901866D01*
X82884036Y-111053000D01*
X79011559Y-111053000D01*
X79080882Y-110886054D01*
X79081118Y-110615135D01*
X78977661Y-110364748D01*
X78786259Y-110173013D01*
X78536054Y-110069118D01*
X78265135Y-110068882D01*
X78014748Y-110172339D01*
X77823013Y-110363741D01*
X77719118Y-110613946D01*
X77718882Y-110884865D01*
X77822339Y-111135252D01*
X77894000Y-111207038D01*
X77894000Y-112903560D01*
X77811054Y-112869118D01*
X77709622Y-112869030D01*
X77231000Y-112390408D01*
X77231000Y-107632166D01*
X77276987Y-107586259D01*
X77380882Y-107336054D01*
X77381117Y-107065803D01*
X80073110Y-109757796D01*
X80073110Y-109757796D01*
G37*
X80073110Y-109757796D02*
X80237268Y-109867483D01*
X80430906Y-109906000D01*
X89430941Y-109906000D01*
X89323013Y-110013741D01*
X89219118Y-110263946D01*
X89218892Y-110523126D01*
X89167141Y-110598866D01*
X89152041Y-110673431D01*
X89106362Y-110682517D01*
X88942204Y-110792204D01*
X88731532Y-111002876D01*
X88714397Y-110911810D01*
X88630954Y-110782135D01*
X88503634Y-110695141D01*
X88352500Y-110664536D01*
X86447500Y-110664536D01*
X86306310Y-110691103D01*
X86176635Y-110774546D01*
X86089641Y-110901866D01*
X86059036Y-111053000D01*
X86059036Y-112323000D01*
X86085603Y-112464190D01*
X86169046Y-112593865D01*
X86296366Y-112680859D01*
X86447500Y-112711464D01*
X86722944Y-112711464D01*
X86592204Y-112842204D01*
X86482517Y-113006362D01*
X86475484Y-113041722D01*
X86429135Y-113071546D01*
X86342141Y-113198866D01*
X86311536Y-113350000D01*
X86311536Y-113388511D01*
X86309698Y-113386673D01*
X86076309Y-113290000D01*
X85835750Y-113290000D01*
X85677000Y-113448750D01*
X85677000Y-114173000D01*
X85697000Y-114173000D01*
X85697000Y-114427000D01*
X85677000Y-114427000D01*
X85677000Y-115151250D01*
X85835750Y-115310000D01*
X86076309Y-115310000D01*
X86309698Y-115213327D01*
X86415000Y-115108026D01*
X86415000Y-115214250D01*
X86573750Y-115373000D01*
X87323000Y-115373000D01*
X87323000Y-115353000D01*
X87577000Y-115353000D01*
X87577000Y-115373000D01*
X87597000Y-115373000D01*
X87597000Y-115627000D01*
X87577000Y-115627000D01*
X87577000Y-116973000D01*
X87597000Y-116973000D01*
X87597000Y-117227000D01*
X87577000Y-117227000D01*
X87577000Y-117246401D01*
X87323000Y-117246401D01*
X87323000Y-117227000D01*
X86573750Y-117227000D01*
X86554349Y-117246401D01*
X86386183Y-117246401D01*
X86361679Y-117187096D01*
X86218901Y-117044070D01*
X86376987Y-116886259D01*
X86415000Y-116794714D01*
X86415000Y-116814250D01*
X86573750Y-116973000D01*
X87323000Y-116973000D01*
X87323000Y-115627000D01*
X86573750Y-115627000D01*
X86415000Y-115785750D01*
X86415000Y-116001310D01*
X86511673Y-116234699D01*
X86576974Y-116300000D01*
X86511673Y-116365301D01*
X86481053Y-116439223D01*
X86481118Y-116365135D01*
X86377661Y-116114748D01*
X86186259Y-115923013D01*
X85936054Y-115819118D01*
X85665135Y-115818882D01*
X85541723Y-115869874D01*
X85501134Y-115842141D01*
X85350000Y-115811536D01*
X84556000Y-115811536D01*
X84556000Y-115043519D01*
X84591190Y-115036897D01*
X84608081Y-115026028D01*
X84611673Y-115034699D01*
X84790302Y-115213327D01*
X85023691Y-115310000D01*
X85264250Y-115310000D01*
X85423000Y-115151250D01*
X85423000Y-114427000D01*
X85403000Y-114427000D01*
X85403000Y-114173000D01*
X85423000Y-114173000D01*
X85423000Y-113448750D01*
X85264250Y-113290000D01*
X85023691Y-113290000D01*
X84790302Y-113386673D01*
X84611673Y-113565301D01*
X84608754Y-113572348D01*
X84601134Y-113567141D01*
X84450000Y-113536536D01*
X83650000Y-113536536D01*
X83508810Y-113563103D01*
X83388145Y-113640748D01*
X83336054Y-113619118D01*
X83065135Y-113618882D01*
X82814748Y-113722339D01*
X82623013Y-113913741D01*
X82519118Y-114163946D01*
X82518882Y-114434865D01*
X82622339Y-114685252D01*
X82813741Y-114876987D01*
X83063946Y-114980882D01*
X83334865Y-114981118D01*
X83389875Y-114958389D01*
X83498866Y-115032859D01*
X83544000Y-115041999D01*
X83544000Y-115811536D01*
X82750000Y-115811536D01*
X82608810Y-115838103D01*
X82479135Y-115921546D01*
X82463793Y-115944000D01*
X80284592Y-115944000D01*
X78906000Y-114565408D01*
X78906000Y-111207123D01*
X78976987Y-111136259D01*
X79011559Y-111053000D01*
X82884036Y-111053000D01*
X82884036Y-112323000D01*
X82910603Y-112464190D01*
X82994046Y-112593865D01*
X83121366Y-112680859D01*
X83272500Y-112711464D01*
X85177500Y-112711464D01*
X85318690Y-112684897D01*
X85448365Y-112601454D01*
X85535359Y-112474134D01*
X85565964Y-112323000D01*
X85565964Y-111053000D01*
X85539397Y-110911810D01*
X85455954Y-110782135D01*
X85328634Y-110695141D01*
X85177500Y-110664536D01*
X83272500Y-110664536D01*
X83131310Y-110691103D01*
X83001635Y-110774546D01*
X82914641Y-110901866D01*
X82884036Y-111053000D01*
X79011559Y-111053000D01*
X79080882Y-110886054D01*
X79081118Y-110615135D01*
X78977661Y-110364748D01*
X78786259Y-110173013D01*
X78536054Y-110069118D01*
X78265135Y-110068882D01*
X78014748Y-110172339D01*
X77823013Y-110363741D01*
X77719118Y-110613946D01*
X77718882Y-110884865D01*
X77822339Y-111135252D01*
X77894000Y-111207038D01*
X77894000Y-112903560D01*
X77811054Y-112869118D01*
X77709622Y-112869030D01*
X77231000Y-112390408D01*
X77231000Y-107632166D01*
X77276987Y-107586259D01*
X77380882Y-107336054D01*
X77381117Y-107065803D01*
X80073110Y-109757796D01*
G36*
X60223866Y-112537859D02*
X60375000Y-112568464D01*
X60815944Y-112568464D01*
X57915409Y-115468999D01*
X57803825Y-115468999D01*
X57865000Y-115321310D01*
X57865000Y-115105750D01*
X57706250Y-114947000D01*
X56957000Y-114947000D01*
X56957000Y-114967000D01*
X56703000Y-114967000D01*
X56703000Y-114947000D01*
X56683000Y-114947000D01*
X56683000Y-114693000D01*
X56703000Y-114693000D01*
X56703000Y-113387000D01*
X56957000Y-113387000D01*
X56957000Y-114693000D01*
X57706250Y-114693000D01*
X57865000Y-114534250D01*
X57865000Y-114318690D01*
X57768327Y-114085301D01*
X57723026Y-114040000D01*
X57768327Y-113994699D01*
X57865000Y-113761310D01*
X57865000Y-113545750D01*
X57706250Y-113387000D01*
X56957000Y-113387000D01*
X56703000Y-113387000D01*
X56683000Y-113387000D01*
X56683000Y-113133000D01*
X56703000Y-113133000D01*
X56703000Y-113113000D01*
X56957000Y-113113000D01*
X56957000Y-113133000D01*
X57706250Y-113133000D01*
X57865000Y-112974250D01*
X57865000Y-112865000D01*
X58156309Y-112865000D01*
X58389698Y-112768327D01*
X58568327Y-112589699D01*
X58604334Y-112502770D01*
X58728866Y-112587859D01*
X58880000Y-112618464D01*
X59880000Y-112618464D01*
X60021190Y-112591897D01*
X60150865Y-112508454D01*
X60160402Y-112494496D01*
X60223866Y-112537859D01*
X60223866Y-112537859D01*
G37*
X60223866Y-112537859D02*
X60375000Y-112568464D01*
X60815944Y-112568464D01*
X57915409Y-115468999D01*
X57803825Y-115468999D01*
X57865000Y-115321310D01*
X57865000Y-115105750D01*
X57706250Y-114947000D01*
X56957000Y-114947000D01*
X56957000Y-114967000D01*
X56703000Y-114967000D01*
X56703000Y-114947000D01*
X56683000Y-114947000D01*
X56683000Y-114693000D01*
X56703000Y-114693000D01*
X56703000Y-113387000D01*
X56957000Y-113387000D01*
X56957000Y-114693000D01*
X57706250Y-114693000D01*
X57865000Y-114534250D01*
X57865000Y-114318690D01*
X57768327Y-114085301D01*
X57723026Y-114040000D01*
X57768327Y-113994699D01*
X57865000Y-113761310D01*
X57865000Y-113545750D01*
X57706250Y-113387000D01*
X56957000Y-113387000D01*
X56703000Y-113387000D01*
X56683000Y-113387000D01*
X56683000Y-113133000D01*
X56703000Y-113133000D01*
X56703000Y-113113000D01*
X56957000Y-113113000D01*
X56957000Y-113133000D01*
X57706250Y-113133000D01*
X57865000Y-112974250D01*
X57865000Y-112865000D01*
X58156309Y-112865000D01*
X58389698Y-112768327D01*
X58568327Y-112589699D01*
X58604334Y-112502770D01*
X58728866Y-112587859D01*
X58880000Y-112618464D01*
X59880000Y-112618464D01*
X60021190Y-112591897D01*
X60150865Y-112508454D01*
X60160402Y-112494496D01*
X60223866Y-112537859D01*
G36*
X63868882Y-108359865D02*
X63972339Y-108610252D01*
X64044000Y-108682038D01*
X64044000Y-109340408D01*
X61513464Y-111870944D01*
X61513464Y-111380000D01*
X61486897Y-111238810D01*
X61476028Y-111221919D01*
X61484699Y-111218327D01*
X61663327Y-111039698D01*
X61760000Y-110806309D01*
X61760000Y-110565750D01*
X61601250Y-110407000D01*
X60877000Y-110407000D01*
X60877000Y-110427000D01*
X60623000Y-110427000D01*
X60623000Y-110407000D01*
X60406250Y-110407000D01*
X60356250Y-110357000D01*
X59507000Y-110357000D01*
X59507000Y-110377000D01*
X59253000Y-110377000D01*
X59253000Y-110357000D01*
X59233000Y-110357000D01*
X59233000Y-110103000D01*
X59253000Y-110103000D01*
X59253000Y-110083000D01*
X59507000Y-110083000D01*
X59507000Y-110103000D01*
X59848750Y-110103000D01*
X59898750Y-110153000D01*
X60623000Y-110153000D01*
X60623000Y-110133000D01*
X60877000Y-110133000D01*
X60877000Y-110153000D01*
X61601250Y-110153000D01*
X61760000Y-109994250D01*
X61760000Y-109850000D01*
X61781310Y-109850000D01*
X61854211Y-109819803D01*
X61868969Y-109834561D01*
X61868882Y-109934865D01*
X61972339Y-110185252D01*
X62163741Y-110376987D01*
X62413946Y-110480882D01*
X62684865Y-110481118D01*
X62935252Y-110377661D01*
X63126987Y-110186259D01*
X63230882Y-109936054D01*
X63231118Y-109665135D01*
X63127661Y-109414748D01*
X62979985Y-109266815D01*
X63135252Y-109202661D01*
X63326987Y-109011259D01*
X63430882Y-108761054D01*
X63430970Y-108659622D01*
X63869002Y-108221590D01*
X63868882Y-108359865D01*
X63868882Y-108359865D01*
G37*
X63868882Y-108359865D02*
X63972339Y-108610252D01*
X64044000Y-108682038D01*
X64044000Y-109340408D01*
X61513464Y-111870944D01*
X61513464Y-111380000D01*
X61486897Y-111238810D01*
X61476028Y-111221919D01*
X61484699Y-111218327D01*
X61663327Y-111039698D01*
X61760000Y-110806309D01*
X61760000Y-110565750D01*
X61601250Y-110407000D01*
X60877000Y-110407000D01*
X60877000Y-110427000D01*
X60623000Y-110427000D01*
X60623000Y-110407000D01*
X60406250Y-110407000D01*
X60356250Y-110357000D01*
X59507000Y-110357000D01*
X59507000Y-110377000D01*
X59253000Y-110377000D01*
X59253000Y-110357000D01*
X59233000Y-110357000D01*
X59233000Y-110103000D01*
X59253000Y-110103000D01*
X59253000Y-110083000D01*
X59507000Y-110083000D01*
X59507000Y-110103000D01*
X59848750Y-110103000D01*
X59898750Y-110153000D01*
X60623000Y-110153000D01*
X60623000Y-110133000D01*
X60877000Y-110133000D01*
X60877000Y-110153000D01*
X61601250Y-110153000D01*
X61760000Y-109994250D01*
X61760000Y-109850000D01*
X61781310Y-109850000D01*
X61854211Y-109819803D01*
X61868969Y-109834561D01*
X61868882Y-109934865D01*
X61972339Y-110185252D01*
X62163741Y-110376987D01*
X62413946Y-110480882D01*
X62684865Y-110481118D01*
X62935252Y-110377661D01*
X63126987Y-110186259D01*
X63230882Y-109936054D01*
X63231118Y-109665135D01*
X63127661Y-109414748D01*
X62979985Y-109266815D01*
X63135252Y-109202661D01*
X63326987Y-109011259D01*
X63430882Y-108761054D01*
X63430970Y-108659622D01*
X63869002Y-108221590D01*
X63868882Y-108359865D01*
G36*
X59832000Y-108688000D02*
X61153000Y-108688000D01*
X61153000Y-108668000D01*
X61407000Y-108668000D01*
X61407000Y-108688000D01*
X61427000Y-108688000D01*
X61427000Y-108942000D01*
X61407000Y-108942000D01*
X61407000Y-108962000D01*
X61153000Y-108962000D01*
X61153000Y-108942000D01*
X59832000Y-108942000D01*
X59832000Y-108962000D01*
X59578000Y-108962000D01*
X59578000Y-108942000D01*
X59558000Y-108942000D01*
X59558000Y-108688000D01*
X59578000Y-108688000D01*
X59578000Y-108668000D01*
X59832000Y-108668000D01*
X59832000Y-108688000D01*
X59832000Y-108688000D01*
G37*
X59832000Y-108688000D02*
X61153000Y-108688000D01*
X61153000Y-108668000D01*
X61407000Y-108668000D01*
X61407000Y-108688000D01*
X61427000Y-108688000D01*
X61427000Y-108942000D01*
X61407000Y-108942000D01*
X61407000Y-108962000D01*
X61153000Y-108962000D01*
X61153000Y-108942000D01*
X59832000Y-108942000D01*
X59832000Y-108962000D01*
X59578000Y-108962000D01*
X59578000Y-108942000D01*
X59558000Y-108942000D01*
X59558000Y-108688000D01*
X59578000Y-108688000D01*
X59578000Y-108668000D01*
X59832000Y-108668000D01*
X59832000Y-108688000D01*
M02*
