G04 #@! TF.FileFunction,Soldermask,Top*
%FSLAX46Y46*%
G04 Gerber Fmt 4.6, Leading zero omitted, Abs format (unit mm)*
G04 Created by KiCad (PCBNEW 4.0.2+e4-6225~38~ubuntu14.04.1-stable) date Wed 15 Jun 2016 03:03:26 PM ART*
%MOMM*%
G01*
G04 APERTURE LIST*
%ADD10C,0.100000*%
%ADD11R,0.750000X0.800000*%
%ADD12R,1.270000X0.965200*%
%ADD13R,2.500000X0.800000*%
%ADD14R,1.000000X0.700000*%
%ADD15R,0.398780X1.348740*%
%ADD16R,2.100580X1.501140*%
%ADD17R,2.400300X1.899920*%
%ADD18R,1.800860X1.899920*%
%ADD19R,0.900000X0.500000*%
%ADD20R,0.500000X0.900000*%
%ADD21R,0.300000X1.500000*%
%ADD22R,1.500000X0.300000*%
%ADD23R,6.104800X6.104800*%
%ADD24R,2.180000X1.600000*%
%ADD25R,0.797560X0.797560*%
%ADD26R,1.350000X1.350000*%
%ADD27C,1.350000*%
%ADD28R,1.300000X0.250000*%
%ADD29R,0.250000X1.300000*%
%ADD30R,0.800000X0.750000*%
G04 APERTURE END LIST*
D10*
D11*
X67050000Y-123000000D03*
X67050000Y-124500000D03*
D12*
X92300000Y-127435000D03*
X92300000Y-126165000D03*
D13*
X50450000Y-103200000D03*
X50450000Y-104000000D03*
X50450000Y-104800000D03*
X50450000Y-105600000D03*
X50450000Y-106400000D03*
X50450000Y-107200000D03*
X50450000Y-108000000D03*
X50450000Y-108800000D03*
X50450000Y-112800000D03*
X50450000Y-113600000D03*
X50450000Y-114400000D03*
X50450000Y-115200000D03*
X50450000Y-116000000D03*
X50450000Y-116800000D03*
X50450000Y-117600000D03*
X50450000Y-118400000D03*
X50450000Y-119200000D03*
X50450000Y-120000000D03*
X50450000Y-120800000D03*
X50450000Y-121600000D03*
X50450000Y-122400000D03*
X50450000Y-123200000D03*
X50450000Y-124000000D03*
X50450000Y-124800000D03*
X50450000Y-125600000D03*
X50450000Y-126400000D03*
D14*
X88700000Y-127600000D03*
X88700000Y-126400000D03*
X90100000Y-126400000D03*
X90100000Y-127600000D03*
D15*
X58500000Y-125900000D03*
X57849760Y-125900000D03*
X59150240Y-125900000D03*
X57199520Y-125900000D03*
X59800480Y-125900000D03*
D16*
X55299600Y-125900000D03*
X61700400Y-125900000D03*
D17*
X54700160Y-128549220D03*
X62299840Y-128549220D03*
D18*
X57349380Y-128549220D03*
X59650620Y-128549220D03*
D19*
X68830000Y-124500000D03*
X68830000Y-123000000D03*
X65330000Y-121500000D03*
X65330000Y-123000000D03*
X88400000Y-124550000D03*
X88400000Y-123050000D03*
X90400000Y-124550000D03*
X90400000Y-123050000D03*
X92400000Y-124550000D03*
X92400000Y-123050000D03*
X62070000Y-119340000D03*
X62070000Y-117840000D03*
X59770000Y-119340000D03*
X59770000Y-117840000D03*
X68220000Y-118760000D03*
X68220000Y-120260000D03*
D20*
X63960000Y-118070000D03*
X65460000Y-118070000D03*
D21*
X82950000Y-120300000D03*
X83450000Y-120300000D03*
X83950000Y-120300000D03*
X84450000Y-120300000D03*
X84950000Y-120300000D03*
X85450000Y-120300000D03*
X85950000Y-120300000D03*
X86450000Y-120300000D03*
X86950000Y-120300000D03*
X87450000Y-120300000D03*
X87950000Y-120300000D03*
X88450000Y-120300000D03*
X88950000Y-120300000D03*
X89450000Y-120300000D03*
X89950000Y-120300000D03*
X90450000Y-120300000D03*
D22*
X92400000Y-118350000D03*
X92400000Y-117850000D03*
X92400000Y-117350000D03*
X92400000Y-116850000D03*
X92400000Y-116350000D03*
X92400000Y-115850000D03*
X92400000Y-115350000D03*
X92400000Y-114850000D03*
X92400000Y-114350000D03*
X92400000Y-113850000D03*
X92400000Y-113350000D03*
X92400000Y-112850000D03*
X92400000Y-112350000D03*
X92400000Y-111850000D03*
X92400000Y-111350000D03*
X92400000Y-110850000D03*
D21*
X90450000Y-108900000D03*
X89950000Y-108900000D03*
X89450000Y-108900000D03*
X88950000Y-108900000D03*
X88450000Y-108900000D03*
X87950000Y-108900000D03*
X87450000Y-108900000D03*
X86950000Y-108900000D03*
X86450000Y-108900000D03*
X85950000Y-108900000D03*
X85450000Y-108900000D03*
X84950000Y-108900000D03*
X84450000Y-108900000D03*
X83950000Y-108900000D03*
X83450000Y-108900000D03*
X82950000Y-108900000D03*
D22*
X81000000Y-110850000D03*
X81000000Y-111350000D03*
X81000000Y-111850000D03*
X81000000Y-112350000D03*
X81000000Y-112850000D03*
X81000000Y-113350000D03*
X81000000Y-113850000D03*
X81000000Y-114350000D03*
X81000000Y-114850000D03*
X81000000Y-115350000D03*
X81000000Y-115850000D03*
X81000000Y-116350000D03*
X81000000Y-116850000D03*
X81000000Y-117350000D03*
X81000000Y-117850000D03*
X81000000Y-118350000D03*
D23*
X97100000Y-127100000D03*
X97100000Y-102900000D03*
D24*
X75010000Y-127750000D03*
X65805140Y-127745360D03*
D25*
X68110000Y-116400000D03*
X66611400Y-116400000D03*
D26*
X96300000Y-110375000D03*
D27*
X96300000Y-112375000D03*
X96300000Y-114375000D03*
X96300000Y-116375000D03*
X96300000Y-118375000D03*
X96300000Y-120375000D03*
X96300000Y-122375000D03*
X98300000Y-110375000D03*
X98300000Y-112375000D03*
X98300000Y-114375000D03*
X98300000Y-116375000D03*
X98300000Y-118375000D03*
X98300000Y-120375000D03*
X98300000Y-122375000D03*
D26*
X69900000Y-102100000D03*
D27*
X67900000Y-102100000D03*
D26*
X77925000Y-128300000D03*
D27*
X79925000Y-128300000D03*
X81925000Y-128300000D03*
X83925000Y-128300000D03*
X85925000Y-128300000D03*
X77925000Y-126300000D03*
X79925000Y-126300000D03*
X81925000Y-126300000D03*
X83925000Y-126300000D03*
X85925000Y-126300000D03*
D26*
X60460000Y-104770000D03*
D27*
X62460000Y-104770000D03*
X64460000Y-104770000D03*
X66460000Y-104770000D03*
X68460000Y-104770000D03*
X70460000Y-104770000D03*
D20*
X55080000Y-118090000D03*
X56580000Y-118090000D03*
D19*
X58090000Y-117840000D03*
X58090000Y-119340000D03*
D28*
X56070000Y-108940000D03*
X56070000Y-109440000D03*
X56070000Y-109940000D03*
X56070000Y-110440000D03*
X56070000Y-110940000D03*
X56070000Y-111440000D03*
X56070000Y-111940000D03*
X56070000Y-112440000D03*
X56070000Y-112940000D03*
X56070000Y-113440000D03*
X56070000Y-113940000D03*
X56070000Y-114440000D03*
D29*
X57670000Y-116040000D03*
X58170000Y-116040000D03*
X58670000Y-116040000D03*
X59170000Y-116040000D03*
X59670000Y-116040000D03*
X60170000Y-116040000D03*
X60670000Y-116040000D03*
X61170000Y-116040000D03*
X61670000Y-116040000D03*
X62170000Y-116040000D03*
X62670000Y-116040000D03*
X63170000Y-116040000D03*
D28*
X64770000Y-114440000D03*
X64770000Y-113940000D03*
X64770000Y-113440000D03*
X64770000Y-112940000D03*
X64770000Y-112440000D03*
X64770000Y-111940000D03*
X64770000Y-111440000D03*
X64770000Y-110940000D03*
X64770000Y-110440000D03*
X64770000Y-109940000D03*
X64770000Y-109440000D03*
X64770000Y-108940000D03*
D29*
X63170000Y-107340000D03*
X62670000Y-107340000D03*
X62170000Y-107340000D03*
X61670000Y-107340000D03*
X61170000Y-107340000D03*
X60670000Y-107340000D03*
X60170000Y-107340000D03*
X59670000Y-107340000D03*
X59170000Y-107340000D03*
X58670000Y-107340000D03*
X58170000Y-107340000D03*
X57670000Y-107340000D03*
D26*
X64420000Y-102120000D03*
D27*
X62420000Y-102120000D03*
X60420000Y-102120000D03*
D26*
X91675000Y-101725000D03*
D27*
X89675000Y-101725000D03*
X87675000Y-101725000D03*
X85675000Y-101725000D03*
X83675000Y-101725000D03*
X81675000Y-101725000D03*
X79675000Y-101725000D03*
X77675000Y-101725000D03*
X75675000Y-101725000D03*
X73675000Y-101725000D03*
X91675000Y-103725000D03*
X89675000Y-103725000D03*
X87675000Y-103725000D03*
X85675000Y-103725000D03*
X83675000Y-103725000D03*
X81675000Y-103725000D03*
X79675000Y-103725000D03*
X77675000Y-103725000D03*
X75675000Y-103725000D03*
X73675000Y-103725000D03*
D26*
X67475000Y-107525000D03*
D27*
X67475000Y-109525000D03*
X67475000Y-111525000D03*
X69475000Y-107525000D03*
X69475000Y-109525000D03*
X69475000Y-111525000D03*
D20*
X73350000Y-109050000D03*
X71850000Y-109050000D03*
X71850000Y-110750000D03*
X73350000Y-110750000D03*
X56850000Y-103450000D03*
X55350000Y-103450000D03*
D30*
X55450000Y-105050000D03*
X56950000Y-105050000D03*
M02*
