G04 #@! TF.FileFunction,Legend,Top*
%FSLAX46Y46*%
G04 Gerber Fmt 4.6, Leading zero omitted, Abs format (unit mm)*
G04 Created by KiCad (PCBNEW 4.0.2+e4-6225~38~ubuntu14.04.1-stable) date Wed 15 Jun 2016 03:03:26 PM ART*
%MOMM*%
G01*
G04 APERTURE LIST*
%ADD10C,0.100000*%
%ADD11C,0.200000*%
%ADD12C,0.279400*%
%ADD13C,0.300000*%
%ADD14C,0.150000*%
%ADD15C,0.177800*%
%ADD16C,0.152400*%
%ADD17C,0.010000*%
%ADD18C,0.120000*%
G04 APERTURE END LIST*
D10*
D11*
X76541421Y-129750000D02*
G75*
G03X76541421Y-129750000I-141421J0D01*
G01*
X76760555Y-129750000D02*
G75*
G03X76760555Y-129750000I-360555J0D01*
G01*
X66141421Y-106050000D02*
G75*
G03X66141421Y-106050000I-141421J0D01*
G01*
X66360555Y-106050000D02*
G75*
G03X66360555Y-106050000I-360555J0D01*
G01*
X59101421Y-106270000D02*
G75*
G03X59101421Y-106270000I-141421J0D01*
G01*
X59320555Y-106270000D02*
G75*
G03X59320555Y-106270000I-360555J0D01*
G01*
X66061421Y-100620000D02*
G75*
G03X66061421Y-100620000I-141421J0D01*
G01*
X66280555Y-100620000D02*
G75*
G03X66280555Y-100620000I-360555J0D01*
G01*
X71541421Y-100650000D02*
G75*
G03X71541421Y-100650000I-141421J0D01*
G01*
X71760555Y-100650000D02*
G75*
G03X71760555Y-100650000I-360555J0D01*
G01*
X93316421Y-100225000D02*
G75*
G03X93316421Y-100225000I-141421J0D01*
G01*
X93535555Y-100225000D02*
G75*
G03X93535555Y-100225000I-360555J0D01*
G01*
X95160555Y-108875000D02*
G75*
G03X95160555Y-108875000I-360555J0D01*
G01*
X94941421Y-108875000D02*
G75*
G03X94941421Y-108875000I-141421J0D01*
G01*
D12*
X75666600Y-120106600D02*
X76200000Y-121656000D01*
D13*
X73307143Y-121485714D02*
X73235714Y-121557143D01*
X73021428Y-121628571D01*
X72878571Y-121628571D01*
X72664286Y-121557143D01*
X72521428Y-121414286D01*
X72450000Y-121271429D01*
X72378571Y-120985714D01*
X72378571Y-120771429D01*
X72450000Y-120485714D01*
X72521428Y-120342857D01*
X72664286Y-120200000D01*
X72878571Y-120128571D01*
X73021428Y-120128571D01*
X73235714Y-120200000D01*
X73307143Y-120271429D01*
X73950000Y-121628571D02*
X73950000Y-120128571D01*
D12*
X75033400Y-120100600D02*
X74500000Y-121650000D01*
X75066600Y-120106600D02*
X75600000Y-121656000D01*
D11*
X71000000Y-118550000D02*
X77500000Y-118550000D01*
X77500000Y-123750000D02*
X77500000Y-118550000D01*
X71000000Y-123750000D02*
X77400000Y-123750000D01*
X77499783Y-122649999D02*
G75*
G03X71002000Y-122741818I-3068783J-12791819D01*
G01*
X71000000Y-118550000D02*
X71000000Y-123750000D01*
X77109524Y-106471429D02*
X77109524Y-107771429D01*
X77109524Y-106533333D02*
X77233333Y-106471429D01*
X77480952Y-106471429D01*
X77604762Y-106533333D01*
X77666667Y-106595238D01*
X77728571Y-106719048D01*
X77728571Y-107090476D01*
X77666667Y-107214286D01*
X77604762Y-107276190D01*
X77480952Y-107338095D01*
X77233333Y-107338095D01*
X77109524Y-107276190D01*
X78285714Y-107338095D02*
X78285714Y-106471429D01*
X78285714Y-106038095D02*
X78223809Y-106100000D01*
X78285714Y-106161905D01*
X78347619Y-106100000D01*
X78285714Y-106038095D01*
X78285714Y-106161905D01*
X79461905Y-107276190D02*
X79338095Y-107338095D01*
X79090476Y-107338095D01*
X78966667Y-107276190D01*
X78904762Y-107214286D01*
X78842857Y-107090476D01*
X78842857Y-106719048D01*
X78904762Y-106595238D01*
X78966667Y-106533333D01*
X79090476Y-106471429D01*
X79338095Y-106471429D01*
X79461905Y-106533333D01*
X80204762Y-107338095D02*
X80080953Y-107276190D01*
X80019048Y-107214286D01*
X79957143Y-107090476D01*
X79957143Y-106719048D01*
X80019048Y-106595238D01*
X80080953Y-106533333D01*
X80204762Y-106471429D01*
X80390476Y-106471429D01*
X80514286Y-106533333D01*
X80576191Y-106595238D01*
X80638095Y-106719048D01*
X80638095Y-107090476D01*
X80576191Y-107214286D01*
X80514286Y-107276190D01*
X80390476Y-107338095D01*
X80204762Y-107338095D01*
X81938095Y-107214286D02*
X81876190Y-107276190D01*
X81690476Y-107338095D01*
X81566666Y-107338095D01*
X81380952Y-107276190D01*
X81257143Y-107152381D01*
X81195238Y-107028571D01*
X81133333Y-106780952D01*
X81133333Y-106595238D01*
X81195238Y-106347619D01*
X81257143Y-106223810D01*
X81380952Y-106100000D01*
X81566666Y-106038095D01*
X81690476Y-106038095D01*
X81876190Y-106100000D01*
X81938095Y-106161905D01*
X82495238Y-107338095D02*
X82495238Y-106038095D01*
X83052381Y-106966667D02*
X83671429Y-106966667D01*
X82928572Y-107338095D02*
X83361905Y-106038095D01*
X83795238Y-107338095D01*
X84166667Y-106966667D02*
X84785715Y-106966667D01*
X84042858Y-107338095D02*
X84476191Y-106038095D01*
X84909524Y-107338095D01*
X86209524Y-106471429D02*
X86519048Y-107338095D01*
X86828572Y-106471429D01*
X88004762Y-107338095D02*
X87261905Y-107338095D01*
X87633334Y-107338095D02*
X87633334Y-106038095D01*
X87509524Y-106223810D01*
X87385715Y-106347619D01*
X87261905Y-106409524D01*
X88561905Y-107214286D02*
X88623810Y-107276190D01*
X88561905Y-107338095D01*
X88500000Y-107276190D01*
X88561905Y-107214286D01*
X88561905Y-107338095D01*
X89428572Y-106038095D02*
X89552381Y-106038095D01*
X89676191Y-106100000D01*
X89738096Y-106161905D01*
X89800000Y-106285714D01*
X89861905Y-106533333D01*
X89861905Y-106842857D01*
X89800000Y-107090476D01*
X89738096Y-107214286D01*
X89676191Y-107276190D01*
X89552381Y-107338095D01*
X89428572Y-107338095D01*
X89304762Y-107276190D01*
X89242858Y-107214286D01*
X89180953Y-107090476D01*
X89119048Y-106842857D01*
X89119048Y-106533333D01*
X89180953Y-106285714D01*
X89242858Y-106161905D01*
X89304762Y-106100000D01*
X89428572Y-106038095D01*
D14*
X67650000Y-123400000D02*
X67650000Y-124100000D01*
X66450000Y-124100000D02*
X66450000Y-123400000D01*
X93189000Y-128070000D02*
X93189000Y-125530000D01*
X91411000Y-125530000D02*
X91411000Y-128070000D01*
X91411000Y-125530000D02*
X93189000Y-125530000D01*
X93189000Y-128070000D02*
X91411000Y-128070000D01*
X91200000Y-125450000D02*
X89500000Y-125450000D01*
X91200000Y-125450000D02*
X91200000Y-127150000D01*
D15*
X60600580Y-125501220D02*
X60100200Y-125501220D01*
X56399420Y-125501220D02*
X56899800Y-125501220D01*
X54700160Y-127500200D02*
X54700160Y-126700100D01*
X62299840Y-127500200D02*
X62299840Y-126700100D01*
X54700160Y-129999560D02*
X62299840Y-129999560D01*
X62299840Y-129999560D02*
X62299840Y-129600780D01*
X54700160Y-129999560D02*
X54700160Y-129600780D01*
D14*
X69505000Y-123250000D02*
X69505000Y-124250000D01*
X68155000Y-124250000D02*
X68155000Y-123250000D01*
X64655000Y-122750000D02*
X64655000Y-121750000D01*
X66005000Y-121750000D02*
X66005000Y-122750000D01*
X89075000Y-123300000D02*
X89075000Y-124300000D01*
X87725000Y-124300000D02*
X87725000Y-123300000D01*
X91075000Y-123300000D02*
X91075000Y-124300000D01*
X89725000Y-124300000D02*
X89725000Y-123300000D01*
X93075000Y-123300000D02*
X93075000Y-124300000D01*
X91725000Y-124300000D02*
X91725000Y-123300000D01*
X62745000Y-118090000D02*
X62745000Y-119090000D01*
X61395000Y-119090000D02*
X61395000Y-118090000D01*
X60445000Y-118090000D02*
X60445000Y-119090000D01*
X59095000Y-119090000D02*
X59095000Y-118090000D01*
X67545000Y-120010000D02*
X67545000Y-119010000D01*
X68895000Y-119010000D02*
X68895000Y-120010000D01*
X65210000Y-118745000D02*
X64210000Y-118745000D01*
X64210000Y-117395000D02*
X65210000Y-117395000D01*
X81525000Y-119775000D02*
X82575000Y-119775000D01*
X81525000Y-109425000D02*
X82575000Y-109425000D01*
X91875000Y-109425000D02*
X90825000Y-109425000D01*
X91875000Y-119775000D02*
X90825000Y-119775000D01*
X81525000Y-119775000D02*
X81525000Y-118725000D01*
X91875000Y-119775000D02*
X91875000Y-118725000D01*
X91875000Y-109425000D02*
X91875000Y-110475000D01*
X81525000Y-109425000D02*
X81525000Y-110475000D01*
X82575000Y-119775000D02*
X82575000Y-121050000D01*
D16*
X98370000Y-128370000D02*
X95830000Y-128370000D01*
X95830000Y-125830000D02*
X98370000Y-125830000D01*
X95830000Y-128370000D02*
X95830000Y-125830000D01*
X98370000Y-125830000D02*
X98370000Y-128370000D01*
X98370000Y-104170000D02*
X95830000Y-104170000D01*
X95830000Y-101630000D02*
X98370000Y-101630000D01*
X95830000Y-104170000D02*
X95830000Y-101630000D01*
X98370000Y-101630000D02*
X98370000Y-104170000D01*
D14*
X71647460Y-128297900D02*
X69147460Y-128297900D01*
X69147460Y-128297900D02*
X69147460Y-127197900D01*
X69147460Y-127197900D02*
X71647460Y-127197900D01*
X71647460Y-127197900D02*
X71647460Y-128297900D01*
X71897460Y-126947900D02*
X68897460Y-126947900D01*
X71897460Y-128547900D02*
X68897460Y-128547900D01*
X68897460Y-128547900D02*
X68897460Y-126947900D01*
X71897460Y-128547900D02*
X71897460Y-126947900D01*
X73397460Y-125997900D02*
X67397460Y-125997900D01*
X73397460Y-129497900D02*
X67397460Y-129497900D01*
X73397460Y-129497900D02*
X73397460Y-125997900D01*
X67397460Y-129497900D02*
X67397460Y-125997900D01*
X66260700Y-116950000D02*
X68160700Y-116950000D01*
X66260700Y-115850000D02*
X68160700Y-115850000D01*
X67160700Y-116400000D02*
X67610700Y-116400000D01*
X67110700Y-116150000D02*
X67110700Y-116650000D01*
X67110700Y-116400000D02*
X67360700Y-116150000D01*
X67360700Y-116150000D02*
X67360700Y-116650000D01*
X67360700Y-116650000D02*
X67110700Y-116400000D01*
X95300000Y-111375000D02*
X97300000Y-111375000D01*
X97300000Y-111375000D02*
X97300000Y-109375000D01*
X97300000Y-109375000D02*
X99300000Y-109375000D01*
X99300000Y-109375000D02*
X99300000Y-111375000D01*
X99300000Y-111375000D02*
X99300000Y-123375000D01*
X99300000Y-123375000D02*
X95300000Y-123375000D01*
X95300000Y-123375000D02*
X95300000Y-111375000D01*
X94800000Y-110375000D02*
X94800000Y-108875000D01*
X94800000Y-108875000D02*
X96300000Y-108875000D01*
X68900000Y-101100000D02*
X68900000Y-103100000D01*
X68900000Y-103100000D02*
X66900000Y-103100000D01*
X66900000Y-103100000D02*
X66900000Y-101100000D01*
X66900000Y-101100000D02*
X68900000Y-101100000D01*
X69900000Y-100600000D02*
X71400000Y-100600000D01*
X71400000Y-100600000D02*
X71400000Y-102100000D01*
X78925000Y-129300000D02*
X78925000Y-127300000D01*
X78925000Y-127300000D02*
X76925000Y-127300000D01*
X76925000Y-127300000D02*
X76925000Y-125300000D01*
X76925000Y-125300000D02*
X78925000Y-125300000D01*
X78925000Y-125300000D02*
X86925000Y-125300000D01*
X86925000Y-125300000D02*
X86925000Y-129300000D01*
X86925000Y-129300000D02*
X78925000Y-129300000D01*
X77925000Y-129800000D02*
X76425000Y-129800000D01*
X76425000Y-129800000D02*
X76425000Y-128300000D01*
X61460000Y-105770000D02*
X61460000Y-103770000D01*
X61460000Y-103770000D02*
X71460000Y-103770000D01*
X71460000Y-103770000D02*
X71460000Y-105770000D01*
X71460000Y-105770000D02*
X61460000Y-105770000D01*
X60460000Y-106270000D02*
X58960000Y-106270000D01*
X58960000Y-106270000D02*
X58960000Y-104770000D01*
X56330000Y-118765000D02*
X55330000Y-118765000D01*
X55330000Y-117415000D02*
X56330000Y-117415000D01*
X57415000Y-119090000D02*
X57415000Y-118090000D01*
X58765000Y-118090000D02*
X58765000Y-119090000D01*
X56795000Y-108065000D02*
X56795000Y-108590000D01*
X64045000Y-108065000D02*
X64045000Y-108590000D01*
X64045000Y-115315000D02*
X64045000Y-114790000D01*
X56795000Y-115315000D02*
X56795000Y-114790000D01*
X56795000Y-108065000D02*
X57320000Y-108065000D01*
X56795000Y-115315000D02*
X57320000Y-115315000D01*
X64045000Y-115315000D02*
X63520000Y-115315000D01*
X64045000Y-108065000D02*
X63520000Y-108065000D01*
X56795000Y-108590000D02*
X55420000Y-108590000D01*
X63420000Y-101120000D02*
X63420000Y-103120000D01*
X63420000Y-103120000D02*
X59420000Y-103120000D01*
X59420000Y-103120000D02*
X59420000Y-101120000D01*
X59420000Y-101120000D02*
X63420000Y-101120000D01*
X64420000Y-100620000D02*
X65920000Y-100620000D01*
X65920000Y-100620000D02*
X65920000Y-102120000D01*
X90675000Y-100725000D02*
X90675000Y-102725000D01*
X90675000Y-102725000D02*
X92675000Y-102725000D01*
X92675000Y-102725000D02*
X92675000Y-104725000D01*
X92675000Y-104725000D02*
X90675000Y-104725000D01*
X90675000Y-104725000D02*
X72675000Y-104725000D01*
X72675000Y-104725000D02*
X72675000Y-100725000D01*
X72675000Y-100725000D02*
X90675000Y-100725000D01*
X91675000Y-100225000D02*
X93175000Y-100225000D01*
X93175000Y-100225000D02*
X93175000Y-101725000D01*
X66475000Y-108525000D02*
X68475000Y-108525000D01*
X68475000Y-108525000D02*
X68475000Y-106525000D01*
X68475000Y-106525000D02*
X70475000Y-106525000D01*
X70475000Y-106525000D02*
X70475000Y-108525000D01*
X70475000Y-108525000D02*
X70475000Y-112525000D01*
X70475000Y-112525000D02*
X66475000Y-112525000D01*
X66475000Y-112525000D02*
X66475000Y-108525000D01*
X65975000Y-107525000D02*
X65975000Y-106025000D01*
X65975000Y-106025000D02*
X67475000Y-106025000D01*
X72100000Y-108375000D02*
X73100000Y-108375000D01*
X73100000Y-109725000D02*
X72100000Y-109725000D01*
X73100000Y-111425000D02*
X72100000Y-111425000D01*
X72100000Y-110075000D02*
X73100000Y-110075000D01*
X55600000Y-102775000D02*
X56600000Y-102775000D01*
X56600000Y-104125000D02*
X55600000Y-104125000D01*
X55850000Y-104450000D02*
X56550000Y-104450000D01*
X56550000Y-105650000D02*
X55850000Y-105650000D01*
D17*
G36*
X75902973Y-113841229D02*
X76181208Y-113874778D01*
X76437876Y-113928756D01*
X76663252Y-114001690D01*
X76801618Y-114065617D01*
X76930372Y-114149425D01*
X77060148Y-114258104D01*
X77176366Y-114377752D01*
X77264444Y-114494466D01*
X77280905Y-114522560D01*
X77350181Y-114700885D01*
X77379599Y-114902609D01*
X77369312Y-115119829D01*
X77319475Y-115344643D01*
X77261911Y-115500515D01*
X77219782Y-115599946D01*
X77196300Y-115665008D01*
X77189384Y-115707709D01*
X77196952Y-115740059D01*
X77214984Y-115771108D01*
X77240974Y-115808763D01*
X77292303Y-115881287D01*
X77364492Y-115982422D01*
X77453062Y-116105909D01*
X77553535Y-116245488D01*
X77647963Y-116376273D01*
X77759175Y-116532146D01*
X77855738Y-116671550D01*
X77934314Y-116789386D01*
X77991565Y-116880554D01*
X78024152Y-116939955D01*
X78030423Y-116960473D01*
X78023198Y-116975580D01*
X78003725Y-116986981D01*
X77965408Y-116995335D01*
X77901648Y-117001297D01*
X77805850Y-117005525D01*
X77671416Y-117008675D01*
X77523063Y-117010979D01*
X77346693Y-117012840D01*
X77214334Y-117012630D01*
X77119223Y-117009951D01*
X77054600Y-117004409D01*
X77013702Y-116995605D01*
X76989767Y-116983146D01*
X76985736Y-116979508D01*
X76956381Y-116944649D01*
X76904739Y-116878020D01*
X76838075Y-116789169D01*
X76763655Y-116687647D01*
X76763098Y-116686879D01*
X76691620Y-116589819D01*
X76630602Y-116509896D01*
X76586225Y-116455000D01*
X76564670Y-116433023D01*
X76564155Y-116432921D01*
X76539177Y-116447996D01*
X76484670Y-116488075D01*
X76410344Y-116545896D01*
X76371700Y-116576835D01*
X75973734Y-116867399D01*
X75541690Y-117125904D01*
X75083147Y-117349362D01*
X74605688Y-117534784D01*
X74116894Y-117679181D01*
X73624345Y-117779566D01*
X73195279Y-117829018D01*
X73066577Y-117838013D01*
X72956899Y-117845142D01*
X72875753Y-117849828D01*
X72832645Y-117851492D01*
X72828400Y-117851284D01*
X72799178Y-117847771D01*
X72731101Y-117841018D01*
X72635921Y-117832166D01*
X72574400Y-117826648D01*
X72364248Y-117797787D01*
X72148870Y-117750061D01*
X71945487Y-117688155D01*
X71771320Y-117616755D01*
X71734975Y-117598297D01*
X71539823Y-117468629D01*
X71382764Y-117310461D01*
X71266302Y-117128883D01*
X71192944Y-116928988D01*
X71168854Y-116743960D01*
X71286843Y-116743960D01*
X71318797Y-116934562D01*
X71396697Y-117110008D01*
X71518663Y-117267966D01*
X71682815Y-117406104D01*
X71887274Y-117522092D01*
X72130160Y-117613596D01*
X72179050Y-117627626D01*
X72355658Y-117669198D01*
X72535799Y-117696576D01*
X72729711Y-117710302D01*
X72947634Y-117710918D01*
X73199809Y-117698965D01*
X73336400Y-117688893D01*
X73728546Y-117636891D01*
X74137445Y-117544641D01*
X74554253Y-117415776D01*
X74970125Y-117253927D01*
X75376217Y-117062728D01*
X75763687Y-116845810D01*
X76123690Y-116606805D01*
X76302571Y-116470628D01*
X76382218Y-116404312D01*
X76443030Y-116348778D01*
X76476564Y-116311994D01*
X76480371Y-116302764D01*
X76463766Y-116277212D01*
X76421458Y-116217272D01*
X76358054Y-116129322D01*
X76278161Y-116019740D01*
X76186386Y-115894907D01*
X76161173Y-115860776D01*
X76041393Y-115701298D01*
X75947645Y-115582274D01*
X75878160Y-115501641D01*
X75831172Y-115457336D01*
X75806468Y-115446851D01*
X75782123Y-115468509D01*
X75731412Y-115526596D01*
X75657951Y-115616532D01*
X75565356Y-115733736D01*
X75457243Y-115873628D01*
X75337228Y-116031627D01*
X75208927Y-116203154D01*
X75201561Y-116213079D01*
X75072980Y-116385745D01*
X74952843Y-116545804D01*
X74844733Y-116688576D01*
X74752233Y-116809384D01*
X74678926Y-116903551D01*
X74628393Y-116966399D01*
X74604219Y-116993251D01*
X74603767Y-116993564D01*
X74568047Y-117000699D01*
X74490216Y-117006942D01*
X74378957Y-117011902D01*
X74242956Y-117015189D01*
X74095160Y-117016411D01*
X73909204Y-117015718D01*
X73769276Y-117012244D01*
X73670615Y-117004413D01*
X73608463Y-116990649D01*
X73578060Y-116969377D01*
X73574649Y-116939021D01*
X73593468Y-116898005D01*
X73608768Y-116875101D01*
X73768200Y-116875101D01*
X73792153Y-116880160D01*
X73858229Y-116884466D01*
X73957752Y-116887693D01*
X74082048Y-116889515D01*
X74158426Y-116889800D01*
X74548652Y-116889800D01*
X75114871Y-116125457D01*
X75244819Y-115951453D01*
X75367480Y-115789896D01*
X75479119Y-115645504D01*
X75576001Y-115522997D01*
X75654391Y-115427095D01*
X75710553Y-115362517D01*
X75740752Y-115333982D01*
X75741669Y-115333514D01*
X75776703Y-115320199D01*
X75810447Y-115316029D01*
X75846191Y-115324396D01*
X75887224Y-115348691D01*
X75936837Y-115392306D01*
X75998318Y-115458635D01*
X76074957Y-115551068D01*
X76170044Y-115672998D01*
X76286868Y-115827818D01*
X76428719Y-116018919D01*
X76499955Y-116115433D01*
X77061594Y-116877100D01*
X77449874Y-116884127D01*
X77599425Y-116886237D01*
X77704956Y-116885911D01*
X77773214Y-116882608D01*
X77810942Y-116875783D01*
X77824886Y-116864895D01*
X77823902Y-116854013D01*
X77806446Y-116826172D01*
X77762294Y-116761585D01*
X77694554Y-116664643D01*
X77606337Y-116539738D01*
X77500752Y-116391259D01*
X77380906Y-116223600D01*
X77249911Y-116041150D01*
X77159323Y-115915412D01*
X76993042Y-115685297D01*
X76852769Y-115492772D01*
X76734963Y-115334101D01*
X76636084Y-115205552D01*
X76552590Y-115103391D01*
X76480943Y-115023884D01*
X76417600Y-114963297D01*
X76359022Y-114917897D01*
X76301668Y-114883951D01*
X76241997Y-114857724D01*
X76176470Y-114835482D01*
X76119214Y-114818557D01*
X76008775Y-114794168D01*
X75888171Y-114784261D01*
X75737821Y-114787241D01*
X75736001Y-114787336D01*
X75520004Y-114814676D01*
X75340440Y-114873292D01*
X75192292Y-114965089D01*
X75137603Y-115014627D01*
X75108158Y-115049403D01*
X75053956Y-115118513D01*
X74978699Y-115216931D01*
X74886088Y-115339627D01*
X74779823Y-115481574D01*
X74663606Y-115637743D01*
X74541138Y-115803106D01*
X74416120Y-115972635D01*
X74292254Y-116141301D01*
X74173239Y-116304076D01*
X74062778Y-116455931D01*
X73964571Y-116591839D01*
X73882319Y-116706771D01*
X73819724Y-116795698D01*
X73780487Y-116853593D01*
X73768200Y-116875101D01*
X73608768Y-116875101D01*
X73619562Y-116858945D01*
X73763524Y-116657573D01*
X73914775Y-116448215D01*
X74069911Y-116235411D01*
X74225530Y-116023698D01*
X74378227Y-115817615D01*
X74524599Y-115621700D01*
X74661243Y-115440492D01*
X74784754Y-115278528D01*
X74891731Y-115140348D01*
X74978768Y-115030489D01*
X75042463Y-114953490D01*
X75075715Y-114917260D01*
X75222206Y-114802391D01*
X75386382Y-114723535D01*
X75578577Y-114676483D01*
X75700796Y-114662570D01*
X75954147Y-114665284D01*
X76189363Y-114713162D01*
X76357986Y-114781614D01*
X76441439Y-114827969D01*
X76515001Y-114879631D01*
X76586071Y-114944117D01*
X76662047Y-115028944D01*
X76750328Y-115141630D01*
X76858314Y-115289693D01*
X76859021Y-115290681D01*
X76933406Y-115392120D01*
X76998416Y-115475895D01*
X77048024Y-115534597D01*
X77076205Y-115560816D01*
X77079193Y-115561429D01*
X77104709Y-115532466D01*
X77137641Y-115466897D01*
X77173218Y-115377431D01*
X77206668Y-115276779D01*
X77233221Y-115177651D01*
X77244267Y-115121663D01*
X77255687Y-114909668D01*
X77220507Y-114715282D01*
X77140247Y-114539827D01*
X77016425Y-114384623D01*
X76850559Y-114250992D01*
X76644168Y-114140256D01*
X76398772Y-114053735D01*
X76115888Y-113992750D01*
X75918189Y-113967950D01*
X75556935Y-113955374D01*
X75172908Y-113981633D01*
X74773080Y-114044379D01*
X74364425Y-114141266D01*
X73953916Y-114269950D01*
X73548526Y-114428083D01*
X73155228Y-114613320D01*
X72780995Y-114823315D01*
X72432801Y-115055722D01*
X72237850Y-115206120D01*
X72161023Y-115270696D01*
X72102260Y-115323565D01*
X72070552Y-115356483D01*
X72067461Y-115362331D01*
X72082869Y-115390964D01*
X72123997Y-115451983D01*
X72185155Y-115537846D01*
X72260654Y-115641014D01*
X72344804Y-115753947D01*
X72431915Y-115869103D01*
X72516299Y-115978942D01*
X72592265Y-116075924D01*
X72654123Y-116152509D01*
X72696185Y-116201155D01*
X72710268Y-116214253D01*
X72722774Y-116222588D01*
X72733823Y-116228465D01*
X72746286Y-116228441D01*
X72763037Y-116219069D01*
X72786949Y-116196905D01*
X72820895Y-116158503D01*
X72867749Y-116100418D01*
X72930383Y-116019205D01*
X73011670Y-115911419D01*
X73114483Y-115773614D01*
X73241696Y-115602346D01*
X73396182Y-115394169D01*
X73412527Y-115372150D01*
X73945220Y-114654600D01*
X74454407Y-114654600D01*
X74632150Y-114655159D01*
X74765299Y-114657127D01*
X74860050Y-114660941D01*
X74922600Y-114667036D01*
X74959145Y-114675850D01*
X74975882Y-114687817D01*
X74977733Y-114691446D01*
X74965976Y-114718448D01*
X74927303Y-114781324D01*
X74865199Y-114875249D01*
X74783148Y-114995395D01*
X74684634Y-115136937D01*
X74573140Y-115295049D01*
X74452150Y-115464903D01*
X74325148Y-115641674D01*
X74195617Y-115820536D01*
X74067042Y-115996661D01*
X73942907Y-116165225D01*
X73826694Y-116321400D01*
X73721889Y-116460360D01*
X73631974Y-116577279D01*
X73560433Y-116667330D01*
X73510751Y-116725688D01*
X73504662Y-116732180D01*
X73355155Y-116852756D01*
X73174858Y-116940807D01*
X72972876Y-116995258D01*
X72758316Y-117015031D01*
X72540283Y-116999051D01*
X72327883Y-116946241D01*
X72189204Y-116887682D01*
X72102955Y-116839872D01*
X72026859Y-116786085D01*
X71953455Y-116718717D01*
X71875281Y-116630161D01*
X71784875Y-116512812D01*
X71685400Y-116374185D01*
X71612597Y-116273893D01*
X71548602Y-116191618D01*
X71499607Y-116134907D01*
X71471806Y-116111304D01*
X71469500Y-116111164D01*
X71444536Y-116139516D01*
X71411534Y-116204526D01*
X71375340Y-116293714D01*
X71340803Y-116394599D01*
X71312770Y-116494700D01*
X71302713Y-116540532D01*
X71286843Y-116743960D01*
X71168854Y-116743960D01*
X71165196Y-116715865D01*
X71185563Y-116494607D01*
X71187387Y-116485789D01*
X71219821Y-116362190D01*
X71264211Y-116229947D01*
X71303745Y-116133930D01*
X71339307Y-116049152D01*
X71360604Y-115980532D01*
X71363330Y-115942146D01*
X71362767Y-115941040D01*
X71343831Y-115913505D01*
X71299164Y-115850322D01*
X71232740Y-115757055D01*
X71148530Y-115639270D01*
X71050506Y-115502529D01*
X70942641Y-115352397D01*
X70929266Y-115333803D01*
X70811671Y-115168381D01*
X70710017Y-115021460D01*
X70627289Y-114897601D01*
X70568903Y-114805210D01*
X70728489Y-114805210D01*
X70729652Y-114820396D01*
X70751421Y-114858413D01*
X70799823Y-114931602D01*
X70871008Y-115034714D01*
X70961127Y-115162498D01*
X71066327Y-115309704D01*
X71182759Y-115471081D01*
X71306573Y-115641380D01*
X71433918Y-115815349D01*
X71560943Y-115987740D01*
X71683799Y-116153302D01*
X71798634Y-116306784D01*
X71901599Y-116442936D01*
X71988842Y-116556509D01*
X72056514Y-116642251D01*
X72100764Y-116694914D01*
X72114138Y-116708199D01*
X72264471Y-116794832D01*
X72445970Y-116853919D01*
X72646093Y-116883809D01*
X72852302Y-116882855D01*
X73052058Y-116849407D01*
X73094943Y-116837201D01*
X73248782Y-116773967D01*
X73372686Y-116685529D01*
X73376884Y-116681689D01*
X73407861Y-116646933D01*
X73463758Y-116577835D01*
X73540865Y-116479378D01*
X73635468Y-116356541D01*
X73743856Y-116214305D01*
X73862315Y-116057650D01*
X73987135Y-115891556D01*
X74114603Y-115721003D01*
X74241006Y-115550973D01*
X74362633Y-115386444D01*
X74475771Y-115232397D01*
X74576707Y-115093813D01*
X74661731Y-114975672D01*
X74727128Y-114882954D01*
X74769188Y-114820640D01*
X74784199Y-114793709D01*
X74784200Y-114793649D01*
X74760244Y-114789508D01*
X74694152Y-114785982D01*
X74594586Y-114783336D01*
X74470210Y-114781838D01*
X74392804Y-114781600D01*
X74001409Y-114781600D01*
X73426890Y-115554438D01*
X73276096Y-115756720D01*
X73152029Y-115921635D01*
X73051589Y-116052936D01*
X72971673Y-116154377D01*
X72909179Y-116229710D01*
X72861005Y-116282688D01*
X72824049Y-116317064D01*
X72795210Y-116336591D01*
X72773841Y-116344525D01*
X72692498Y-116345597D01*
X72633218Y-116314636D01*
X72604106Y-116283645D01*
X72549010Y-116216533D01*
X72471774Y-116118299D01*
X72376241Y-115993943D01*
X72266256Y-115848463D01*
X72145663Y-115686860D01*
X72030602Y-115530900D01*
X71490081Y-114794300D01*
X71102163Y-114787272D01*
X70953648Y-114785074D01*
X70848965Y-114785152D01*
X70781172Y-114788122D01*
X70743327Y-114794603D01*
X70728489Y-114805210D01*
X70568903Y-114805210D01*
X70566475Y-114801369D01*
X70530562Y-114737324D01*
X70521864Y-114711503D01*
X70528978Y-114696112D01*
X70548032Y-114684531D01*
X70585687Y-114676078D01*
X70648610Y-114670072D01*
X70743462Y-114665832D01*
X70876909Y-114662677D01*
X71022052Y-114660390D01*
X71209519Y-114658774D01*
X71351126Y-114660034D01*
X71451744Y-114664395D01*
X71516246Y-114672082D01*
X71549503Y-114683320D01*
X71551524Y-114684833D01*
X71581013Y-114717020D01*
X71632745Y-114780911D01*
X71699231Y-114867020D01*
X71767529Y-114958442D01*
X71839147Y-115055347D01*
X71900715Y-115137832D01*
X71945476Y-115196899D01*
X71966306Y-115223157D01*
X71993602Y-115218039D01*
X72050186Y-115185658D01*
X72126747Y-115131775D01*
X72176343Y-115093178D01*
X72571877Y-114805433D01*
X73002153Y-114548504D01*
X73459328Y-114325514D01*
X73935554Y-114139588D01*
X74422988Y-113993848D01*
X74913784Y-113891418D01*
X75320712Y-113841312D01*
X75612899Y-113829583D01*
X75902973Y-113841229D01*
X75902973Y-113841229D01*
G37*
X75902973Y-113841229D02*
X76181208Y-113874778D01*
X76437876Y-113928756D01*
X76663252Y-114001690D01*
X76801618Y-114065617D01*
X76930372Y-114149425D01*
X77060148Y-114258104D01*
X77176366Y-114377752D01*
X77264444Y-114494466D01*
X77280905Y-114522560D01*
X77350181Y-114700885D01*
X77379599Y-114902609D01*
X77369312Y-115119829D01*
X77319475Y-115344643D01*
X77261911Y-115500515D01*
X77219782Y-115599946D01*
X77196300Y-115665008D01*
X77189384Y-115707709D01*
X77196952Y-115740059D01*
X77214984Y-115771108D01*
X77240974Y-115808763D01*
X77292303Y-115881287D01*
X77364492Y-115982422D01*
X77453062Y-116105909D01*
X77553535Y-116245488D01*
X77647963Y-116376273D01*
X77759175Y-116532146D01*
X77855738Y-116671550D01*
X77934314Y-116789386D01*
X77991565Y-116880554D01*
X78024152Y-116939955D01*
X78030423Y-116960473D01*
X78023198Y-116975580D01*
X78003725Y-116986981D01*
X77965408Y-116995335D01*
X77901648Y-117001297D01*
X77805850Y-117005525D01*
X77671416Y-117008675D01*
X77523063Y-117010979D01*
X77346693Y-117012840D01*
X77214334Y-117012630D01*
X77119223Y-117009951D01*
X77054600Y-117004409D01*
X77013702Y-116995605D01*
X76989767Y-116983146D01*
X76985736Y-116979508D01*
X76956381Y-116944649D01*
X76904739Y-116878020D01*
X76838075Y-116789169D01*
X76763655Y-116687647D01*
X76763098Y-116686879D01*
X76691620Y-116589819D01*
X76630602Y-116509896D01*
X76586225Y-116455000D01*
X76564670Y-116433023D01*
X76564155Y-116432921D01*
X76539177Y-116447996D01*
X76484670Y-116488075D01*
X76410344Y-116545896D01*
X76371700Y-116576835D01*
X75973734Y-116867399D01*
X75541690Y-117125904D01*
X75083147Y-117349362D01*
X74605688Y-117534784D01*
X74116894Y-117679181D01*
X73624345Y-117779566D01*
X73195279Y-117829018D01*
X73066577Y-117838013D01*
X72956899Y-117845142D01*
X72875753Y-117849828D01*
X72832645Y-117851492D01*
X72828400Y-117851284D01*
X72799178Y-117847771D01*
X72731101Y-117841018D01*
X72635921Y-117832166D01*
X72574400Y-117826648D01*
X72364248Y-117797787D01*
X72148870Y-117750061D01*
X71945487Y-117688155D01*
X71771320Y-117616755D01*
X71734975Y-117598297D01*
X71539823Y-117468629D01*
X71382764Y-117310461D01*
X71266302Y-117128883D01*
X71192944Y-116928988D01*
X71168854Y-116743960D01*
X71286843Y-116743960D01*
X71318797Y-116934562D01*
X71396697Y-117110008D01*
X71518663Y-117267966D01*
X71682815Y-117406104D01*
X71887274Y-117522092D01*
X72130160Y-117613596D01*
X72179050Y-117627626D01*
X72355658Y-117669198D01*
X72535799Y-117696576D01*
X72729711Y-117710302D01*
X72947634Y-117710918D01*
X73199809Y-117698965D01*
X73336400Y-117688893D01*
X73728546Y-117636891D01*
X74137445Y-117544641D01*
X74554253Y-117415776D01*
X74970125Y-117253927D01*
X75376217Y-117062728D01*
X75763687Y-116845810D01*
X76123690Y-116606805D01*
X76302571Y-116470628D01*
X76382218Y-116404312D01*
X76443030Y-116348778D01*
X76476564Y-116311994D01*
X76480371Y-116302764D01*
X76463766Y-116277212D01*
X76421458Y-116217272D01*
X76358054Y-116129322D01*
X76278161Y-116019740D01*
X76186386Y-115894907D01*
X76161173Y-115860776D01*
X76041393Y-115701298D01*
X75947645Y-115582274D01*
X75878160Y-115501641D01*
X75831172Y-115457336D01*
X75806468Y-115446851D01*
X75782123Y-115468509D01*
X75731412Y-115526596D01*
X75657951Y-115616532D01*
X75565356Y-115733736D01*
X75457243Y-115873628D01*
X75337228Y-116031627D01*
X75208927Y-116203154D01*
X75201561Y-116213079D01*
X75072980Y-116385745D01*
X74952843Y-116545804D01*
X74844733Y-116688576D01*
X74752233Y-116809384D01*
X74678926Y-116903551D01*
X74628393Y-116966399D01*
X74604219Y-116993251D01*
X74603767Y-116993564D01*
X74568047Y-117000699D01*
X74490216Y-117006942D01*
X74378957Y-117011902D01*
X74242956Y-117015189D01*
X74095160Y-117016411D01*
X73909204Y-117015718D01*
X73769276Y-117012244D01*
X73670615Y-117004413D01*
X73608463Y-116990649D01*
X73578060Y-116969377D01*
X73574649Y-116939021D01*
X73593468Y-116898005D01*
X73608768Y-116875101D01*
X73768200Y-116875101D01*
X73792153Y-116880160D01*
X73858229Y-116884466D01*
X73957752Y-116887693D01*
X74082048Y-116889515D01*
X74158426Y-116889800D01*
X74548652Y-116889800D01*
X75114871Y-116125457D01*
X75244819Y-115951453D01*
X75367480Y-115789896D01*
X75479119Y-115645504D01*
X75576001Y-115522997D01*
X75654391Y-115427095D01*
X75710553Y-115362517D01*
X75740752Y-115333982D01*
X75741669Y-115333514D01*
X75776703Y-115320199D01*
X75810447Y-115316029D01*
X75846191Y-115324396D01*
X75887224Y-115348691D01*
X75936837Y-115392306D01*
X75998318Y-115458635D01*
X76074957Y-115551068D01*
X76170044Y-115672998D01*
X76286868Y-115827818D01*
X76428719Y-116018919D01*
X76499955Y-116115433D01*
X77061594Y-116877100D01*
X77449874Y-116884127D01*
X77599425Y-116886237D01*
X77704956Y-116885911D01*
X77773214Y-116882608D01*
X77810942Y-116875783D01*
X77824886Y-116864895D01*
X77823902Y-116854013D01*
X77806446Y-116826172D01*
X77762294Y-116761585D01*
X77694554Y-116664643D01*
X77606337Y-116539738D01*
X77500752Y-116391259D01*
X77380906Y-116223600D01*
X77249911Y-116041150D01*
X77159323Y-115915412D01*
X76993042Y-115685297D01*
X76852769Y-115492772D01*
X76734963Y-115334101D01*
X76636084Y-115205552D01*
X76552590Y-115103391D01*
X76480943Y-115023884D01*
X76417600Y-114963297D01*
X76359022Y-114917897D01*
X76301668Y-114883951D01*
X76241997Y-114857724D01*
X76176470Y-114835482D01*
X76119214Y-114818557D01*
X76008775Y-114794168D01*
X75888171Y-114784261D01*
X75737821Y-114787241D01*
X75736001Y-114787336D01*
X75520004Y-114814676D01*
X75340440Y-114873292D01*
X75192292Y-114965089D01*
X75137603Y-115014627D01*
X75108158Y-115049403D01*
X75053956Y-115118513D01*
X74978699Y-115216931D01*
X74886088Y-115339627D01*
X74779823Y-115481574D01*
X74663606Y-115637743D01*
X74541138Y-115803106D01*
X74416120Y-115972635D01*
X74292254Y-116141301D01*
X74173239Y-116304076D01*
X74062778Y-116455931D01*
X73964571Y-116591839D01*
X73882319Y-116706771D01*
X73819724Y-116795698D01*
X73780487Y-116853593D01*
X73768200Y-116875101D01*
X73608768Y-116875101D01*
X73619562Y-116858945D01*
X73763524Y-116657573D01*
X73914775Y-116448215D01*
X74069911Y-116235411D01*
X74225530Y-116023698D01*
X74378227Y-115817615D01*
X74524599Y-115621700D01*
X74661243Y-115440492D01*
X74784754Y-115278528D01*
X74891731Y-115140348D01*
X74978768Y-115030489D01*
X75042463Y-114953490D01*
X75075715Y-114917260D01*
X75222206Y-114802391D01*
X75386382Y-114723535D01*
X75578577Y-114676483D01*
X75700796Y-114662570D01*
X75954147Y-114665284D01*
X76189363Y-114713162D01*
X76357986Y-114781614D01*
X76441439Y-114827969D01*
X76515001Y-114879631D01*
X76586071Y-114944117D01*
X76662047Y-115028944D01*
X76750328Y-115141630D01*
X76858314Y-115289693D01*
X76859021Y-115290681D01*
X76933406Y-115392120D01*
X76998416Y-115475895D01*
X77048024Y-115534597D01*
X77076205Y-115560816D01*
X77079193Y-115561429D01*
X77104709Y-115532466D01*
X77137641Y-115466897D01*
X77173218Y-115377431D01*
X77206668Y-115276779D01*
X77233221Y-115177651D01*
X77244267Y-115121663D01*
X77255687Y-114909668D01*
X77220507Y-114715282D01*
X77140247Y-114539827D01*
X77016425Y-114384623D01*
X76850559Y-114250992D01*
X76644168Y-114140256D01*
X76398772Y-114053735D01*
X76115888Y-113992750D01*
X75918189Y-113967950D01*
X75556935Y-113955374D01*
X75172908Y-113981633D01*
X74773080Y-114044379D01*
X74364425Y-114141266D01*
X73953916Y-114269950D01*
X73548526Y-114428083D01*
X73155228Y-114613320D01*
X72780995Y-114823315D01*
X72432801Y-115055722D01*
X72237850Y-115206120D01*
X72161023Y-115270696D01*
X72102260Y-115323565D01*
X72070552Y-115356483D01*
X72067461Y-115362331D01*
X72082869Y-115390964D01*
X72123997Y-115451983D01*
X72185155Y-115537846D01*
X72260654Y-115641014D01*
X72344804Y-115753947D01*
X72431915Y-115869103D01*
X72516299Y-115978942D01*
X72592265Y-116075924D01*
X72654123Y-116152509D01*
X72696185Y-116201155D01*
X72710268Y-116214253D01*
X72722774Y-116222588D01*
X72733823Y-116228465D01*
X72746286Y-116228441D01*
X72763037Y-116219069D01*
X72786949Y-116196905D01*
X72820895Y-116158503D01*
X72867749Y-116100418D01*
X72930383Y-116019205D01*
X73011670Y-115911419D01*
X73114483Y-115773614D01*
X73241696Y-115602346D01*
X73396182Y-115394169D01*
X73412527Y-115372150D01*
X73945220Y-114654600D01*
X74454407Y-114654600D01*
X74632150Y-114655159D01*
X74765299Y-114657127D01*
X74860050Y-114660941D01*
X74922600Y-114667036D01*
X74959145Y-114675850D01*
X74975882Y-114687817D01*
X74977733Y-114691446D01*
X74965976Y-114718448D01*
X74927303Y-114781324D01*
X74865199Y-114875249D01*
X74783148Y-114995395D01*
X74684634Y-115136937D01*
X74573140Y-115295049D01*
X74452150Y-115464903D01*
X74325148Y-115641674D01*
X74195617Y-115820536D01*
X74067042Y-115996661D01*
X73942907Y-116165225D01*
X73826694Y-116321400D01*
X73721889Y-116460360D01*
X73631974Y-116577279D01*
X73560433Y-116667330D01*
X73510751Y-116725688D01*
X73504662Y-116732180D01*
X73355155Y-116852756D01*
X73174858Y-116940807D01*
X72972876Y-116995258D01*
X72758316Y-117015031D01*
X72540283Y-116999051D01*
X72327883Y-116946241D01*
X72189204Y-116887682D01*
X72102955Y-116839872D01*
X72026859Y-116786085D01*
X71953455Y-116718717D01*
X71875281Y-116630161D01*
X71784875Y-116512812D01*
X71685400Y-116374185D01*
X71612597Y-116273893D01*
X71548602Y-116191618D01*
X71499607Y-116134907D01*
X71471806Y-116111304D01*
X71469500Y-116111164D01*
X71444536Y-116139516D01*
X71411534Y-116204526D01*
X71375340Y-116293714D01*
X71340803Y-116394599D01*
X71312770Y-116494700D01*
X71302713Y-116540532D01*
X71286843Y-116743960D01*
X71168854Y-116743960D01*
X71165196Y-116715865D01*
X71185563Y-116494607D01*
X71187387Y-116485789D01*
X71219821Y-116362190D01*
X71264211Y-116229947D01*
X71303745Y-116133930D01*
X71339307Y-116049152D01*
X71360604Y-115980532D01*
X71363330Y-115942146D01*
X71362767Y-115941040D01*
X71343831Y-115913505D01*
X71299164Y-115850322D01*
X71232740Y-115757055D01*
X71148530Y-115639270D01*
X71050506Y-115502529D01*
X70942641Y-115352397D01*
X70929266Y-115333803D01*
X70811671Y-115168381D01*
X70710017Y-115021460D01*
X70627289Y-114897601D01*
X70568903Y-114805210D01*
X70728489Y-114805210D01*
X70729652Y-114820396D01*
X70751421Y-114858413D01*
X70799823Y-114931602D01*
X70871008Y-115034714D01*
X70961127Y-115162498D01*
X71066327Y-115309704D01*
X71182759Y-115471081D01*
X71306573Y-115641380D01*
X71433918Y-115815349D01*
X71560943Y-115987740D01*
X71683799Y-116153302D01*
X71798634Y-116306784D01*
X71901599Y-116442936D01*
X71988842Y-116556509D01*
X72056514Y-116642251D01*
X72100764Y-116694914D01*
X72114138Y-116708199D01*
X72264471Y-116794832D01*
X72445970Y-116853919D01*
X72646093Y-116883809D01*
X72852302Y-116882855D01*
X73052058Y-116849407D01*
X73094943Y-116837201D01*
X73248782Y-116773967D01*
X73372686Y-116685529D01*
X73376884Y-116681689D01*
X73407861Y-116646933D01*
X73463758Y-116577835D01*
X73540865Y-116479378D01*
X73635468Y-116356541D01*
X73743856Y-116214305D01*
X73862315Y-116057650D01*
X73987135Y-115891556D01*
X74114603Y-115721003D01*
X74241006Y-115550973D01*
X74362633Y-115386444D01*
X74475771Y-115232397D01*
X74576707Y-115093813D01*
X74661731Y-114975672D01*
X74727128Y-114882954D01*
X74769188Y-114820640D01*
X74784199Y-114793709D01*
X74784200Y-114793649D01*
X74760244Y-114789508D01*
X74694152Y-114785982D01*
X74594586Y-114783336D01*
X74470210Y-114781838D01*
X74392804Y-114781600D01*
X74001409Y-114781600D01*
X73426890Y-115554438D01*
X73276096Y-115756720D01*
X73152029Y-115921635D01*
X73051589Y-116052936D01*
X72971673Y-116154377D01*
X72909179Y-116229710D01*
X72861005Y-116282688D01*
X72824049Y-116317064D01*
X72795210Y-116336591D01*
X72773841Y-116344525D01*
X72692498Y-116345597D01*
X72633218Y-116314636D01*
X72604106Y-116283645D01*
X72549010Y-116216533D01*
X72471774Y-116118299D01*
X72376241Y-115993943D01*
X72266256Y-115848463D01*
X72145663Y-115686860D01*
X72030602Y-115530900D01*
X71490081Y-114794300D01*
X71102163Y-114787272D01*
X70953648Y-114785074D01*
X70848965Y-114785152D01*
X70781172Y-114788122D01*
X70743327Y-114794603D01*
X70728489Y-114805210D01*
X70568903Y-114805210D01*
X70566475Y-114801369D01*
X70530562Y-114737324D01*
X70521864Y-114711503D01*
X70528978Y-114696112D01*
X70548032Y-114684531D01*
X70585687Y-114676078D01*
X70648610Y-114670072D01*
X70743462Y-114665832D01*
X70876909Y-114662677D01*
X71022052Y-114660390D01*
X71209519Y-114658774D01*
X71351126Y-114660034D01*
X71451744Y-114664395D01*
X71516246Y-114672082D01*
X71549503Y-114683320D01*
X71551524Y-114684833D01*
X71581013Y-114717020D01*
X71632745Y-114780911D01*
X71699231Y-114867020D01*
X71767529Y-114958442D01*
X71839147Y-115055347D01*
X71900715Y-115137832D01*
X71945476Y-115196899D01*
X71966306Y-115223157D01*
X71993602Y-115218039D01*
X72050186Y-115185658D01*
X72126747Y-115131775D01*
X72176343Y-115093178D01*
X72571877Y-114805433D01*
X73002153Y-114548504D01*
X73459328Y-114325514D01*
X73935554Y-114139588D01*
X74422988Y-113993848D01*
X74913784Y-113891418D01*
X75320712Y-113841312D01*
X75612899Y-113829583D01*
X75902973Y-113841229D01*
D14*
X65158334Y-124707143D02*
X65110715Y-124754762D01*
X64967858Y-124802381D01*
X64872620Y-124802381D01*
X64729762Y-124754762D01*
X64634524Y-124659524D01*
X64586905Y-124564286D01*
X64539286Y-124373810D01*
X64539286Y-124230952D01*
X64586905Y-124040476D01*
X64634524Y-123945238D01*
X64729762Y-123850000D01*
X64872620Y-123802381D01*
X64967858Y-123802381D01*
X65110715Y-123850000D01*
X65158334Y-123897619D01*
X65491667Y-123802381D02*
X66110715Y-123802381D01*
X65777381Y-124183333D01*
X65920239Y-124183333D01*
X66015477Y-124230952D01*
X66063096Y-124278571D01*
X66110715Y-124373810D01*
X66110715Y-124611905D01*
X66063096Y-124707143D01*
X66015477Y-124754762D01*
X65920239Y-124802381D01*
X65634524Y-124802381D01*
X65539286Y-124754762D01*
X65491667Y-124707143D01*
X91459524Y-128400000D02*
X91364286Y-128352381D01*
X91221429Y-128352381D01*
X91078571Y-128400000D01*
X90983333Y-128495238D01*
X90935714Y-128590476D01*
X90888095Y-128780952D01*
X90888095Y-128923810D01*
X90935714Y-129114286D01*
X90983333Y-129209524D01*
X91078571Y-129304762D01*
X91221429Y-129352381D01*
X91316667Y-129352381D01*
X91459524Y-129304762D01*
X91507143Y-129257143D01*
X91507143Y-128923810D01*
X91316667Y-128923810D01*
X91888095Y-129304762D02*
X92030952Y-129352381D01*
X92269048Y-129352381D01*
X92364286Y-129304762D01*
X92411905Y-129257143D01*
X92459524Y-129161905D01*
X92459524Y-129066667D01*
X92411905Y-128971429D01*
X92364286Y-128923810D01*
X92269048Y-128876190D01*
X92078571Y-128828571D01*
X91983333Y-128780952D01*
X91935714Y-128733333D01*
X91888095Y-128638095D01*
X91888095Y-128542857D01*
X91935714Y-128447619D01*
X91983333Y-128400000D01*
X92078571Y-128352381D01*
X92316667Y-128352381D01*
X92459524Y-128400000D01*
X92840476Y-128447619D02*
X92888095Y-128400000D01*
X92983333Y-128352381D01*
X93221429Y-128352381D01*
X93316667Y-128400000D01*
X93364286Y-128447619D01*
X93411905Y-128542857D01*
X93411905Y-128638095D01*
X93364286Y-128780952D01*
X92792857Y-129352381D01*
X93411905Y-129352381D01*
D18*
X88004762Y-129061905D02*
X87623809Y-129061905D01*
X87623809Y-128261905D01*
X88271428Y-128642857D02*
X88538095Y-128642857D01*
X88652381Y-129061905D02*
X88271428Y-129061905D01*
X88271428Y-128261905D01*
X88652381Y-128261905D01*
X88995238Y-129061905D02*
X88995238Y-128261905D01*
X89185714Y-128261905D01*
X89300000Y-128300000D01*
X89376191Y-128376190D01*
X89414286Y-128452381D01*
X89452381Y-128604762D01*
X89452381Y-128719048D01*
X89414286Y-128871429D01*
X89376191Y-128947619D01*
X89300000Y-129023810D01*
X89185714Y-129061905D01*
X88995238Y-129061905D01*
X90214286Y-129061905D02*
X89757143Y-129061905D01*
X89985714Y-129061905D02*
X89985714Y-128261905D01*
X89909524Y-128376190D01*
X89833333Y-128452381D01*
X89757143Y-128490476D01*
D16*
X53961905Y-124902381D02*
X53961905Y-123902381D01*
X54342858Y-123902381D01*
X54438096Y-123950000D01*
X54485715Y-123997619D01*
X54533334Y-124092857D01*
X54533334Y-124235714D01*
X54485715Y-124330952D01*
X54438096Y-124378571D01*
X54342858Y-124426190D01*
X53961905Y-124426190D01*
X55485715Y-124902381D02*
X54914286Y-124902381D01*
X55200000Y-124902381D02*
X55200000Y-123902381D01*
X55104762Y-124045238D01*
X55009524Y-124140476D01*
X54914286Y-124188095D01*
D14*
X68708334Y-122277381D02*
X68375000Y-121801190D01*
X68136905Y-122277381D02*
X68136905Y-121277381D01*
X68517858Y-121277381D01*
X68613096Y-121325000D01*
X68660715Y-121372619D01*
X68708334Y-121467857D01*
X68708334Y-121610714D01*
X68660715Y-121705952D01*
X68613096Y-121753571D01*
X68517858Y-121801190D01*
X68136905Y-121801190D01*
X69660715Y-122277381D02*
X69089286Y-122277381D01*
X69375000Y-122277381D02*
X69375000Y-121277381D01*
X69279762Y-121420238D01*
X69184524Y-121515476D01*
X69089286Y-121563095D01*
X63333334Y-122752381D02*
X63000000Y-122276190D01*
X62761905Y-122752381D02*
X62761905Y-121752381D01*
X63142858Y-121752381D01*
X63238096Y-121800000D01*
X63285715Y-121847619D01*
X63333334Y-121942857D01*
X63333334Y-122085714D01*
X63285715Y-122180952D01*
X63238096Y-122228571D01*
X63142858Y-122276190D01*
X62761905Y-122276190D01*
X63714286Y-121847619D02*
X63761905Y-121800000D01*
X63857143Y-121752381D01*
X64095239Y-121752381D01*
X64190477Y-121800000D01*
X64238096Y-121847619D01*
X64285715Y-121942857D01*
X64285715Y-122038095D01*
X64238096Y-122180952D01*
X63666667Y-122752381D01*
X64285715Y-122752381D01*
X88233334Y-122602381D02*
X87900000Y-122126190D01*
X87661905Y-122602381D02*
X87661905Y-121602381D01*
X88042858Y-121602381D01*
X88138096Y-121650000D01*
X88185715Y-121697619D01*
X88233334Y-121792857D01*
X88233334Y-121935714D01*
X88185715Y-122030952D01*
X88138096Y-122078571D01*
X88042858Y-122126190D01*
X87661905Y-122126190D01*
X89090477Y-121602381D02*
X88900000Y-121602381D01*
X88804762Y-121650000D01*
X88757143Y-121697619D01*
X88661905Y-121840476D01*
X88614286Y-122030952D01*
X88614286Y-122411905D01*
X88661905Y-122507143D01*
X88709524Y-122554762D01*
X88804762Y-122602381D01*
X88995239Y-122602381D01*
X89090477Y-122554762D01*
X89138096Y-122507143D01*
X89185715Y-122411905D01*
X89185715Y-122173810D01*
X89138096Y-122078571D01*
X89090477Y-122030952D01*
X88995239Y-121983333D01*
X88804762Y-121983333D01*
X88709524Y-122030952D01*
X88661905Y-122078571D01*
X88614286Y-122173810D01*
X90283334Y-122552381D02*
X89950000Y-122076190D01*
X89711905Y-122552381D02*
X89711905Y-121552381D01*
X90092858Y-121552381D01*
X90188096Y-121600000D01*
X90235715Y-121647619D01*
X90283334Y-121742857D01*
X90283334Y-121885714D01*
X90235715Y-121980952D01*
X90188096Y-122028571D01*
X90092858Y-122076190D01*
X89711905Y-122076190D01*
X90616667Y-121552381D02*
X91283334Y-121552381D01*
X90854762Y-122552381D01*
X92283334Y-122452381D02*
X91950000Y-121976190D01*
X91711905Y-122452381D02*
X91711905Y-121452381D01*
X92092858Y-121452381D01*
X92188096Y-121500000D01*
X92235715Y-121547619D01*
X92283334Y-121642857D01*
X92283334Y-121785714D01*
X92235715Y-121880952D01*
X92188096Y-121928571D01*
X92092858Y-121976190D01*
X91711905Y-121976190D01*
X92854762Y-121880952D02*
X92759524Y-121833333D01*
X92711905Y-121785714D01*
X92664286Y-121690476D01*
X92664286Y-121642857D01*
X92711905Y-121547619D01*
X92759524Y-121500000D01*
X92854762Y-121452381D01*
X93045239Y-121452381D01*
X93140477Y-121500000D01*
X93188096Y-121547619D01*
X93235715Y-121642857D01*
X93235715Y-121690476D01*
X93188096Y-121785714D01*
X93140477Y-121833333D01*
X93045239Y-121880952D01*
X92854762Y-121880952D01*
X92759524Y-121928571D01*
X92711905Y-121976190D01*
X92664286Y-122071429D01*
X92664286Y-122261905D01*
X92711905Y-122357143D01*
X92759524Y-122404762D01*
X92854762Y-122452381D01*
X93045239Y-122452381D01*
X93140477Y-122404762D01*
X93188096Y-122357143D01*
X93235715Y-122261905D01*
X93235715Y-122071429D01*
X93188096Y-121976190D01*
X93140477Y-121928571D01*
X93045239Y-121880952D01*
X61908334Y-120902381D02*
X61575000Y-120426190D01*
X61336905Y-120902381D02*
X61336905Y-119902381D01*
X61717858Y-119902381D01*
X61813096Y-119950000D01*
X61860715Y-119997619D01*
X61908334Y-120092857D01*
X61908334Y-120235714D01*
X61860715Y-120330952D01*
X61813096Y-120378571D01*
X61717858Y-120426190D01*
X61336905Y-120426190D01*
X62384524Y-120902381D02*
X62575000Y-120902381D01*
X62670239Y-120854762D01*
X62717858Y-120807143D01*
X62813096Y-120664286D01*
X62860715Y-120473810D01*
X62860715Y-120092857D01*
X62813096Y-119997619D01*
X62765477Y-119950000D01*
X62670239Y-119902381D01*
X62479762Y-119902381D01*
X62384524Y-119950000D01*
X62336905Y-119997619D01*
X62289286Y-120092857D01*
X62289286Y-120330952D01*
X62336905Y-120426190D01*
X62384524Y-120473810D01*
X62479762Y-120521429D01*
X62670239Y-120521429D01*
X62765477Y-120473810D01*
X62813096Y-120426190D01*
X62860715Y-120330952D01*
X59307143Y-122127381D02*
X58973809Y-121651190D01*
X58735714Y-122127381D02*
X58735714Y-121127381D01*
X59116667Y-121127381D01*
X59211905Y-121175000D01*
X59259524Y-121222619D01*
X59307143Y-121317857D01*
X59307143Y-121460714D01*
X59259524Y-121555952D01*
X59211905Y-121603571D01*
X59116667Y-121651190D01*
X58735714Y-121651190D01*
X60259524Y-122127381D02*
X59688095Y-122127381D01*
X59973809Y-122127381D02*
X59973809Y-121127381D01*
X59878571Y-121270238D01*
X59783333Y-121365476D01*
X59688095Y-121413095D01*
X60878571Y-121127381D02*
X60973810Y-121127381D01*
X61069048Y-121175000D01*
X61116667Y-121222619D01*
X61164286Y-121317857D01*
X61211905Y-121508333D01*
X61211905Y-121746429D01*
X61164286Y-121936905D01*
X61116667Y-122032143D01*
X61069048Y-122079762D01*
X60973810Y-122127381D01*
X60878571Y-122127381D01*
X60783333Y-122079762D01*
X60735714Y-122032143D01*
X60688095Y-121936905D01*
X60640476Y-121746429D01*
X60640476Y-121508333D01*
X60688095Y-121317857D01*
X60735714Y-121222619D01*
X60783333Y-121175000D01*
X60878571Y-121127381D01*
X65232143Y-120702381D02*
X64898809Y-120226190D01*
X64660714Y-120702381D02*
X64660714Y-119702381D01*
X65041667Y-119702381D01*
X65136905Y-119750000D01*
X65184524Y-119797619D01*
X65232143Y-119892857D01*
X65232143Y-120035714D01*
X65184524Y-120130952D01*
X65136905Y-120178571D01*
X65041667Y-120226190D01*
X64660714Y-120226190D01*
X66184524Y-120702381D02*
X65613095Y-120702381D01*
X65898809Y-120702381D02*
X65898809Y-119702381D01*
X65803571Y-119845238D01*
X65708333Y-119940476D01*
X65613095Y-119988095D01*
X67041667Y-120035714D02*
X67041667Y-120702381D01*
X66803571Y-119654762D02*
X66565476Y-120369048D01*
X67184524Y-120369048D01*
X66432143Y-118377381D02*
X66098809Y-117901190D01*
X65860714Y-118377381D02*
X65860714Y-117377381D01*
X66241667Y-117377381D01*
X66336905Y-117425000D01*
X66384524Y-117472619D01*
X66432143Y-117567857D01*
X66432143Y-117710714D01*
X66384524Y-117805952D01*
X66336905Y-117853571D01*
X66241667Y-117901190D01*
X65860714Y-117901190D01*
X67384524Y-118377381D02*
X66813095Y-118377381D01*
X67098809Y-118377381D02*
X67098809Y-117377381D01*
X67003571Y-117520238D01*
X66908333Y-117615476D01*
X66813095Y-117663095D01*
X68289286Y-117377381D02*
X67813095Y-117377381D01*
X67765476Y-117853571D01*
X67813095Y-117805952D01*
X67908333Y-117758333D01*
X68146429Y-117758333D01*
X68241667Y-117805952D01*
X68289286Y-117853571D01*
X68336905Y-117948810D01*
X68336905Y-118186905D01*
X68289286Y-118282143D01*
X68241667Y-118329762D01*
X68146429Y-118377381D01*
X67908333Y-118377381D01*
X67813095Y-118329762D01*
X67765476Y-118282143D01*
X80688095Y-120052381D02*
X80688095Y-120861905D01*
X80735714Y-120957143D01*
X80783333Y-121004762D01*
X80878571Y-121052381D01*
X81069048Y-121052381D01*
X81164286Y-121004762D01*
X81211905Y-120957143D01*
X81259524Y-120861905D01*
X81259524Y-120052381D01*
X82211905Y-120052381D02*
X81735714Y-120052381D01*
X81688095Y-120528571D01*
X81735714Y-120480952D01*
X81830952Y-120433333D01*
X82069048Y-120433333D01*
X82164286Y-120480952D01*
X82211905Y-120528571D01*
X82259524Y-120623810D01*
X82259524Y-120861905D01*
X82211905Y-120957143D01*
X82164286Y-121004762D01*
X82069048Y-121052381D01*
X81830952Y-121052381D01*
X81735714Y-121004762D01*
X81688095Y-120957143D01*
X70166667Y-125679762D02*
X70309524Y-125727381D01*
X70547620Y-125727381D01*
X70642858Y-125679762D01*
X70690477Y-125632143D01*
X70738096Y-125536905D01*
X70738096Y-125441667D01*
X70690477Y-125346429D01*
X70642858Y-125298810D01*
X70547620Y-125251190D01*
X70357143Y-125203571D01*
X70261905Y-125155952D01*
X70214286Y-125108333D01*
X70166667Y-125013095D01*
X70166667Y-124917857D01*
X70214286Y-124822619D01*
X70261905Y-124775000D01*
X70357143Y-124727381D01*
X70595239Y-124727381D01*
X70738096Y-124775000D01*
X71071429Y-124727381D02*
X71309524Y-125727381D01*
X71500001Y-125013095D01*
X71690477Y-125727381D01*
X71928572Y-124727381D01*
X72833334Y-125727381D02*
X72261905Y-125727381D01*
X72547619Y-125727381D02*
X72547619Y-124727381D01*
X72452381Y-124870238D01*
X72357143Y-124965476D01*
X72261905Y-125013095D01*
X68836905Y-116852381D02*
X68836905Y-115852381D01*
X69075000Y-115852381D01*
X69217858Y-115900000D01*
X69313096Y-115995238D01*
X69360715Y-116090476D01*
X69408334Y-116280952D01*
X69408334Y-116423810D01*
X69360715Y-116614286D01*
X69313096Y-116709524D01*
X69217858Y-116804762D01*
X69075000Y-116852381D01*
X68836905Y-116852381D01*
X70360715Y-116852381D02*
X69789286Y-116852381D01*
X70075000Y-116852381D02*
X70075000Y-115852381D01*
X69979762Y-115995238D01*
X69884524Y-116090476D01*
X69789286Y-116138095D01*
X96511905Y-108402381D02*
X96511905Y-107402381D01*
X96892858Y-107402381D01*
X96988096Y-107450000D01*
X97035715Y-107497619D01*
X97083334Y-107592857D01*
X97083334Y-107735714D01*
X97035715Y-107830952D01*
X96988096Y-107878571D01*
X96892858Y-107926190D01*
X96511905Y-107926190D01*
X97464286Y-107497619D02*
X97511905Y-107450000D01*
X97607143Y-107402381D01*
X97845239Y-107402381D01*
X97940477Y-107450000D01*
X97988096Y-107497619D01*
X98035715Y-107592857D01*
X98035715Y-107688095D01*
X97988096Y-107830952D01*
X97416667Y-108402381D01*
X98035715Y-108402381D01*
X70986905Y-103327381D02*
X70986905Y-102327381D01*
X71367858Y-102327381D01*
X71463096Y-102375000D01*
X71510715Y-102422619D01*
X71558334Y-102517857D01*
X71558334Y-102660714D01*
X71510715Y-102755952D01*
X71463096Y-102803571D01*
X71367858Y-102851190D01*
X70986905Y-102851190D01*
X71891667Y-102327381D02*
X72510715Y-102327381D01*
X72177381Y-102708333D01*
X72320239Y-102708333D01*
X72415477Y-102755952D01*
X72463096Y-102803571D01*
X72510715Y-102898810D01*
X72510715Y-103136905D01*
X72463096Y-103232143D01*
X72415477Y-103279762D01*
X72320239Y-103327381D01*
X72034524Y-103327381D01*
X71939286Y-103279762D01*
X71891667Y-103232143D01*
X81661905Y-125077381D02*
X81661905Y-124077381D01*
X82042858Y-124077381D01*
X82138096Y-124125000D01*
X82185715Y-124172619D01*
X82233334Y-124267857D01*
X82233334Y-124410714D01*
X82185715Y-124505952D01*
X82138096Y-124553571D01*
X82042858Y-124601190D01*
X81661905Y-124601190D01*
X82804762Y-124505952D02*
X82709524Y-124458333D01*
X82661905Y-124410714D01*
X82614286Y-124315476D01*
X82614286Y-124267857D01*
X82661905Y-124172619D01*
X82709524Y-124125000D01*
X82804762Y-124077381D01*
X82995239Y-124077381D01*
X83090477Y-124125000D01*
X83138096Y-124172619D01*
X83185715Y-124267857D01*
X83185715Y-124315476D01*
X83138096Y-124410714D01*
X83090477Y-124458333D01*
X82995239Y-124505952D01*
X82804762Y-124505952D01*
X82709524Y-124553571D01*
X82661905Y-124601190D01*
X82614286Y-124696429D01*
X82614286Y-124886905D01*
X82661905Y-124982143D01*
X82709524Y-125029762D01*
X82804762Y-125077381D01*
X82995239Y-125077381D01*
X83090477Y-125029762D01*
X83138096Y-124982143D01*
X83185715Y-124886905D01*
X83185715Y-124696429D01*
X83138096Y-124601190D01*
X83090477Y-124553571D01*
X82995239Y-124505952D01*
X57261905Y-104402381D02*
X57261905Y-103402381D01*
X57642858Y-103402381D01*
X57738096Y-103450000D01*
X57785715Y-103497619D01*
X57833334Y-103592857D01*
X57833334Y-103735714D01*
X57785715Y-103830952D01*
X57738096Y-103878571D01*
X57642858Y-103926190D01*
X57261905Y-103926190D01*
X58309524Y-104402381D02*
X58500000Y-104402381D01*
X58595239Y-104354762D01*
X58642858Y-104307143D01*
X58738096Y-104164286D01*
X58785715Y-103973810D01*
X58785715Y-103592857D01*
X58738096Y-103497619D01*
X58690477Y-103450000D01*
X58595239Y-103402381D01*
X58404762Y-103402381D01*
X58309524Y-103450000D01*
X58261905Y-103497619D01*
X58214286Y-103592857D01*
X58214286Y-103830952D01*
X58261905Y-103926190D01*
X58309524Y-103973810D01*
X58404762Y-104021429D01*
X58595239Y-104021429D01*
X58690477Y-103973810D01*
X58738096Y-103926190D01*
X58785715Y-103830952D01*
X55683334Y-120127381D02*
X55350000Y-119651190D01*
X55111905Y-120127381D02*
X55111905Y-119127381D01*
X55492858Y-119127381D01*
X55588096Y-119175000D01*
X55635715Y-119222619D01*
X55683334Y-119317857D01*
X55683334Y-119460714D01*
X55635715Y-119555952D01*
X55588096Y-119603571D01*
X55492858Y-119651190D01*
X55111905Y-119651190D01*
X56016667Y-119127381D02*
X56635715Y-119127381D01*
X56302381Y-119508333D01*
X56445239Y-119508333D01*
X56540477Y-119555952D01*
X56588096Y-119603571D01*
X56635715Y-119698810D01*
X56635715Y-119936905D01*
X56588096Y-120032143D01*
X56540477Y-120079762D01*
X56445239Y-120127381D01*
X56159524Y-120127381D01*
X56064286Y-120079762D01*
X56016667Y-120032143D01*
X57858334Y-120802381D02*
X57525000Y-120326190D01*
X57286905Y-120802381D02*
X57286905Y-119802381D01*
X57667858Y-119802381D01*
X57763096Y-119850000D01*
X57810715Y-119897619D01*
X57858334Y-119992857D01*
X57858334Y-120135714D01*
X57810715Y-120230952D01*
X57763096Y-120278571D01*
X57667858Y-120326190D01*
X57286905Y-120326190D01*
X58715477Y-120135714D02*
X58715477Y-120802381D01*
X58477381Y-119754762D02*
X58239286Y-120469048D01*
X58858334Y-120469048D01*
X55038095Y-106902381D02*
X55038095Y-107711905D01*
X55085714Y-107807143D01*
X55133333Y-107854762D01*
X55228571Y-107902381D01*
X55419048Y-107902381D01*
X55514286Y-107854762D01*
X55561905Y-107807143D01*
X55609524Y-107711905D01*
X55609524Y-106902381D01*
X56038095Y-106997619D02*
X56085714Y-106950000D01*
X56180952Y-106902381D01*
X56419048Y-106902381D01*
X56514286Y-106950000D01*
X56561905Y-106997619D01*
X56609524Y-107092857D01*
X56609524Y-107188095D01*
X56561905Y-107330952D01*
X55990476Y-107902381D01*
X56609524Y-107902381D01*
X57066667Y-100802381D02*
X57066667Y-101516667D01*
X57019047Y-101659524D01*
X56923809Y-101754762D01*
X56780952Y-101802381D01*
X56685714Y-101802381D01*
X57542857Y-101802381D02*
X57542857Y-100802381D01*
X57923810Y-100802381D01*
X58019048Y-100850000D01*
X58066667Y-100897619D01*
X58114286Y-100992857D01*
X58114286Y-101135714D01*
X58066667Y-101230952D01*
X58019048Y-101278571D01*
X57923810Y-101326190D01*
X57542857Y-101326190D01*
X59066667Y-101802381D02*
X58495238Y-101802381D01*
X58780952Y-101802381D02*
X58780952Y-100802381D01*
X58685714Y-100945238D01*
X58590476Y-101040476D01*
X58495238Y-101088095D01*
X73536905Y-105877381D02*
X73536905Y-104877381D01*
X73917858Y-104877381D01*
X74013096Y-104925000D01*
X74060715Y-104972619D01*
X74108334Y-105067857D01*
X74108334Y-105210714D01*
X74060715Y-105305952D01*
X74013096Y-105353571D01*
X73917858Y-105401190D01*
X73536905Y-105401190D01*
X74965477Y-104877381D02*
X74775000Y-104877381D01*
X74679762Y-104925000D01*
X74632143Y-104972619D01*
X74536905Y-105115476D01*
X74489286Y-105305952D01*
X74489286Y-105686905D01*
X74536905Y-105782143D01*
X74584524Y-105829762D01*
X74679762Y-105877381D01*
X74870239Y-105877381D01*
X74965477Y-105829762D01*
X75013096Y-105782143D01*
X75060715Y-105686905D01*
X75060715Y-105448810D01*
X75013096Y-105353571D01*
X74965477Y-105305952D01*
X74870239Y-105258333D01*
X74679762Y-105258333D01*
X74584524Y-105305952D01*
X74536905Y-105353571D01*
X74489286Y-105448810D01*
X70861905Y-108127381D02*
X70861905Y-107127381D01*
X71242858Y-107127381D01*
X71338096Y-107175000D01*
X71385715Y-107222619D01*
X71433334Y-107317857D01*
X71433334Y-107460714D01*
X71385715Y-107555952D01*
X71338096Y-107603571D01*
X71242858Y-107651190D01*
X70861905Y-107651190D01*
X71766667Y-107127381D02*
X72433334Y-107127381D01*
X72004762Y-108127381D01*
X74657143Y-109502381D02*
X74323809Y-109026190D01*
X74085714Y-109502381D02*
X74085714Y-108502381D01*
X74466667Y-108502381D01*
X74561905Y-108550000D01*
X74609524Y-108597619D01*
X74657143Y-108692857D01*
X74657143Y-108835714D01*
X74609524Y-108930952D01*
X74561905Y-108978571D01*
X74466667Y-109026190D01*
X74085714Y-109026190D01*
X75609524Y-109502381D02*
X75038095Y-109502381D01*
X75323809Y-109502381D02*
X75323809Y-108502381D01*
X75228571Y-108645238D01*
X75133333Y-108740476D01*
X75038095Y-108788095D01*
X76466667Y-108502381D02*
X76276190Y-108502381D01*
X76180952Y-108550000D01*
X76133333Y-108597619D01*
X76038095Y-108740476D01*
X75990476Y-108930952D01*
X75990476Y-109311905D01*
X76038095Y-109407143D01*
X76085714Y-109454762D01*
X76180952Y-109502381D01*
X76371429Y-109502381D01*
X76466667Y-109454762D01*
X76514286Y-109407143D01*
X76561905Y-109311905D01*
X76561905Y-109073810D01*
X76514286Y-108978571D01*
X76466667Y-108930952D01*
X76371429Y-108883333D01*
X76180952Y-108883333D01*
X76085714Y-108930952D01*
X76038095Y-108978571D01*
X75990476Y-109073810D01*
X74657143Y-111202381D02*
X74323809Y-110726190D01*
X74085714Y-111202381D02*
X74085714Y-110202381D01*
X74466667Y-110202381D01*
X74561905Y-110250000D01*
X74609524Y-110297619D01*
X74657143Y-110392857D01*
X74657143Y-110535714D01*
X74609524Y-110630952D01*
X74561905Y-110678571D01*
X74466667Y-110726190D01*
X74085714Y-110726190D01*
X75609524Y-111202381D02*
X75038095Y-111202381D01*
X75323809Y-111202381D02*
X75323809Y-110202381D01*
X75228571Y-110345238D01*
X75133333Y-110440476D01*
X75038095Y-110488095D01*
X76085714Y-111202381D02*
X76276190Y-111202381D01*
X76371429Y-111154762D01*
X76419048Y-111107143D01*
X76514286Y-110964286D01*
X76561905Y-110773810D01*
X76561905Y-110392857D01*
X76514286Y-110297619D01*
X76466667Y-110250000D01*
X76371429Y-110202381D01*
X76180952Y-110202381D01*
X76085714Y-110250000D01*
X76038095Y-110297619D01*
X75990476Y-110392857D01*
X75990476Y-110630952D01*
X76038095Y-110726190D01*
X76085714Y-110773810D01*
X76180952Y-110821429D01*
X76371429Y-110821429D01*
X76466667Y-110773810D01*
X76514286Y-110726190D01*
X76561905Y-110630952D01*
X53057143Y-103902381D02*
X52723809Y-103426190D01*
X52485714Y-103902381D02*
X52485714Y-102902381D01*
X52866667Y-102902381D01*
X52961905Y-102950000D01*
X53009524Y-102997619D01*
X53057143Y-103092857D01*
X53057143Y-103235714D01*
X53009524Y-103330952D01*
X52961905Y-103378571D01*
X52866667Y-103426190D01*
X52485714Y-103426190D01*
X53438095Y-102997619D02*
X53485714Y-102950000D01*
X53580952Y-102902381D01*
X53819048Y-102902381D01*
X53914286Y-102950000D01*
X53961905Y-102997619D01*
X54009524Y-103092857D01*
X54009524Y-103188095D01*
X53961905Y-103330952D01*
X53390476Y-103902381D01*
X54009524Y-103902381D01*
X54628571Y-102902381D02*
X54723810Y-102902381D01*
X54819048Y-102950000D01*
X54866667Y-102997619D01*
X54914286Y-103092857D01*
X54961905Y-103283333D01*
X54961905Y-103521429D01*
X54914286Y-103711905D01*
X54866667Y-103807143D01*
X54819048Y-103854762D01*
X54723810Y-103902381D01*
X54628571Y-103902381D01*
X54533333Y-103854762D01*
X54485714Y-103807143D01*
X54438095Y-103711905D01*
X54390476Y-103521429D01*
X54390476Y-103283333D01*
X54438095Y-103092857D01*
X54485714Y-102997619D01*
X54533333Y-102950000D01*
X54628571Y-102902381D01*
X53633334Y-105407143D02*
X53585715Y-105454762D01*
X53442858Y-105502381D01*
X53347620Y-105502381D01*
X53204762Y-105454762D01*
X53109524Y-105359524D01*
X53061905Y-105264286D01*
X53014286Y-105073810D01*
X53014286Y-104930952D01*
X53061905Y-104740476D01*
X53109524Y-104645238D01*
X53204762Y-104550000D01*
X53347620Y-104502381D01*
X53442858Y-104502381D01*
X53585715Y-104550000D01*
X53633334Y-104597619D01*
X54204762Y-104930952D02*
X54109524Y-104883333D01*
X54061905Y-104835714D01*
X54014286Y-104740476D01*
X54014286Y-104692857D01*
X54061905Y-104597619D01*
X54109524Y-104550000D01*
X54204762Y-104502381D01*
X54395239Y-104502381D01*
X54490477Y-104550000D01*
X54538096Y-104597619D01*
X54585715Y-104692857D01*
X54585715Y-104740476D01*
X54538096Y-104835714D01*
X54490477Y-104883333D01*
X54395239Y-104930952D01*
X54204762Y-104930952D01*
X54109524Y-104978571D01*
X54061905Y-105026190D01*
X54014286Y-105121429D01*
X54014286Y-105311905D01*
X54061905Y-105407143D01*
X54109524Y-105454762D01*
X54204762Y-105502381D01*
X54395239Y-105502381D01*
X54490477Y-105454762D01*
X54538096Y-105407143D01*
X54585715Y-105311905D01*
X54585715Y-105121429D01*
X54538096Y-105026190D01*
X54490477Y-104978571D01*
X54395239Y-104930952D01*
M02*
