G04 #@! TF.GenerationSoftware,KiCad,Pcbnew,no-vcs-found-91ed3e2~59~ubuntu16.04.1*
G04 #@! TF.CreationDate,2017-10-23T14:28:14-03:00*
G04 #@! TF.ProjectId,ciaa-z3r0,636961612D7A3372302E6B696361645F,rev?*
G04 #@! TF.SameCoordinates,Original*
G04 #@! TF.FileFunction,Paste,Top*
G04 #@! TF.FilePolarity,Positive*
%FSLAX46Y46*%
G04 Gerber Fmt 4.6, Leading zero omitted, Abs format (unit mm)*
G04 Created by KiCad (PCBNEW no-vcs-found-91ed3e2~59~ubuntu16.04.1) date Mon Oct 23 14:28:14 2017*
%MOMM*%
%LPD*%
G01*
G04 APERTURE LIST*
%ADD10R,0.800000X0.750000*%
%ADD11R,0.750000X0.800000*%
%ADD12R,1.200000X1.200000*%
%ADD13R,0.800000X0.900000*%
%ADD14R,0.600000X0.800000*%
%ADD15R,0.450000X1.380000*%
%ADD16R,1.475000X2.100000*%
%ADD17R,2.375000X1.900000*%
%ADD18R,1.175000X1.900000*%
%ADD19R,1.000000X3.150000*%
%ADD20R,0.900000X0.500000*%
%ADD21R,0.500000X0.900000*%
%ADD22R,1.600000X2.000000*%
%ADD23C,0.250000*%
%ADD24C,0.150000*%
%ADD25R,0.650000X1.060000*%
G04 APERTURE END LIST*
D10*
X128528000Y-111555000D03*
X127028000Y-111555000D03*
D11*
X121588000Y-99805000D03*
X121588000Y-101305000D03*
X122318000Y-90525000D03*
X122318000Y-92025000D03*
X130928000Y-100885000D03*
X130928000Y-102385000D03*
X132748000Y-100585000D03*
X132748000Y-99085000D03*
X131468000Y-91785000D03*
X131468000Y-90285000D03*
X127788000Y-86145000D03*
X127788000Y-87645000D03*
X132778000Y-91775000D03*
X132778000Y-90275000D03*
D10*
X132808000Y-88975000D03*
X131308000Y-88975000D03*
X130848000Y-83465000D03*
X132348000Y-83465000D03*
D11*
X132988000Y-76295000D03*
X132988000Y-74795000D03*
X129188000Y-86145000D03*
X129188000Y-87645000D03*
D12*
X126803001Y-116732500D03*
X126803001Y-118932500D03*
D13*
X132468000Y-71345000D03*
X130568000Y-71345000D03*
X131518000Y-73345000D03*
D12*
X128573001Y-118932500D03*
X128573001Y-116732500D03*
D14*
X131208000Y-81715000D03*
X132908000Y-81715000D03*
D15*
X126368000Y-74385000D03*
X125718000Y-74385000D03*
X125068000Y-74385000D03*
X124418000Y-74385000D03*
X123768000Y-74385000D03*
D16*
X127530500Y-74025000D03*
X122605500Y-74025000D03*
D17*
X127978000Y-71725000D03*
X122158000Y-71725000D03*
D18*
X125908000Y-71725000D03*
X124228000Y-71725000D03*
D19*
X124628000Y-78940000D03*
X124628000Y-83990000D03*
X122088000Y-78940000D03*
X122088000Y-83990000D03*
D20*
X127288000Y-82925000D03*
X127288000Y-81425000D03*
X129318000Y-81415000D03*
X129318000Y-82915000D03*
X126808000Y-115385000D03*
X126808000Y-113885000D03*
D21*
X128548000Y-110035000D03*
X127048000Y-110035000D03*
X124688000Y-110105000D03*
X123188000Y-110105000D03*
D20*
X128588000Y-113875000D03*
X128588000Y-115375000D03*
D22*
X131698000Y-120255000D03*
X131698000Y-114855000D03*
X123818000Y-114805000D03*
X123818000Y-120205000D03*
D23*
X121837542Y-95083629D03*
D24*
G36*
X122385550Y-95454860D02*
X122208773Y-95631637D01*
X121289534Y-94712398D01*
X121466311Y-94535621D01*
X122385550Y-95454860D01*
X122385550Y-95454860D01*
G37*
D23*
X122191095Y-94730076D03*
D24*
G36*
X122739103Y-95101307D02*
X122562326Y-95278084D01*
X121643087Y-94358845D01*
X121819864Y-94182068D01*
X122739103Y-95101307D01*
X122739103Y-95101307D01*
G37*
D23*
X122544649Y-94376522D03*
D24*
G36*
X123092657Y-94747753D02*
X122915880Y-94924530D01*
X121996641Y-94005291D01*
X122173418Y-93828514D01*
X123092657Y-94747753D01*
X123092657Y-94747753D01*
G37*
D23*
X122898202Y-94022969D03*
D24*
G36*
X123446210Y-94394200D02*
X123269433Y-94570977D01*
X122350194Y-93651738D01*
X122526971Y-93474961D01*
X123446210Y-94394200D01*
X123446210Y-94394200D01*
G37*
D23*
X123251755Y-93669416D03*
D24*
G36*
X123799763Y-94040647D02*
X123622986Y-94217424D01*
X122703747Y-93298185D01*
X122880524Y-93121408D01*
X123799763Y-94040647D01*
X123799763Y-94040647D01*
G37*
D23*
X123605309Y-93315862D03*
D24*
G36*
X124153317Y-93687093D02*
X123976540Y-93863870D01*
X123057301Y-92944631D01*
X123234078Y-92767854D01*
X124153317Y-93687093D01*
X124153317Y-93687093D01*
G37*
D23*
X123958862Y-92962309D03*
D24*
G36*
X124506870Y-93333540D02*
X124330093Y-93510317D01*
X123410854Y-92591078D01*
X123587631Y-92414301D01*
X124506870Y-93333540D01*
X124506870Y-93333540D01*
G37*
D23*
X124312416Y-92608755D03*
D24*
G36*
X124860424Y-92979986D02*
X124683647Y-93156763D01*
X123764408Y-92237524D01*
X123941185Y-92060747D01*
X124860424Y-92979986D01*
X124860424Y-92979986D01*
G37*
D23*
X124665969Y-92255202D03*
D24*
G36*
X125213977Y-92626433D02*
X125037200Y-92803210D01*
X124117961Y-91883971D01*
X124294738Y-91707194D01*
X125213977Y-92626433D01*
X125213977Y-92626433D01*
G37*
D23*
X125019522Y-91901649D03*
D24*
G36*
X125567530Y-92272880D02*
X125390753Y-92449657D01*
X124471514Y-91530418D01*
X124648291Y-91353641D01*
X125567530Y-92272880D01*
X125567530Y-92272880D01*
G37*
D23*
X125373076Y-91548095D03*
D24*
G36*
X125921084Y-91919326D02*
X125744307Y-92096103D01*
X124825068Y-91176864D01*
X125001845Y-91000087D01*
X125921084Y-91919326D01*
X125921084Y-91919326D01*
G37*
D23*
X125726629Y-91194542D03*
D24*
G36*
X126274637Y-91565773D02*
X126097860Y-91742550D01*
X125178621Y-90823311D01*
X125355398Y-90646534D01*
X126274637Y-91565773D01*
X126274637Y-91565773D01*
G37*
D23*
X127989371Y-91194542D03*
D24*
G36*
X127618140Y-91742550D02*
X127441363Y-91565773D01*
X128360602Y-90646534D01*
X128537379Y-90823311D01*
X127618140Y-91742550D01*
X127618140Y-91742550D01*
G37*
D23*
X128342924Y-91548095D03*
D24*
G36*
X127971693Y-92096103D02*
X127794916Y-91919326D01*
X128714155Y-91000087D01*
X128890932Y-91176864D01*
X127971693Y-92096103D01*
X127971693Y-92096103D01*
G37*
D23*
X128696478Y-91901649D03*
D24*
G36*
X128325247Y-92449657D02*
X128148470Y-92272880D01*
X129067709Y-91353641D01*
X129244486Y-91530418D01*
X128325247Y-92449657D01*
X128325247Y-92449657D01*
G37*
D23*
X129050031Y-92255202D03*
D24*
G36*
X128678800Y-92803210D02*
X128502023Y-92626433D01*
X129421262Y-91707194D01*
X129598039Y-91883971D01*
X128678800Y-92803210D01*
X128678800Y-92803210D01*
G37*
D23*
X129403584Y-92608755D03*
D24*
G36*
X129032353Y-93156763D02*
X128855576Y-92979986D01*
X129774815Y-92060747D01*
X129951592Y-92237524D01*
X129032353Y-93156763D01*
X129032353Y-93156763D01*
G37*
D23*
X129757138Y-92962309D03*
D24*
G36*
X129385907Y-93510317D02*
X129209130Y-93333540D01*
X130128369Y-92414301D01*
X130305146Y-92591078D01*
X129385907Y-93510317D01*
X129385907Y-93510317D01*
G37*
D23*
X130110691Y-93315862D03*
D24*
G36*
X129739460Y-93863870D02*
X129562683Y-93687093D01*
X130481922Y-92767854D01*
X130658699Y-92944631D01*
X129739460Y-93863870D01*
X129739460Y-93863870D01*
G37*
D23*
X130464245Y-93669416D03*
D24*
G36*
X130093014Y-94217424D02*
X129916237Y-94040647D01*
X130835476Y-93121408D01*
X131012253Y-93298185D01*
X130093014Y-94217424D01*
X130093014Y-94217424D01*
G37*
D23*
X130817798Y-94022969D03*
D24*
G36*
X130446567Y-94570977D02*
X130269790Y-94394200D01*
X131189029Y-93474961D01*
X131365806Y-93651738D01*
X130446567Y-94570977D01*
X130446567Y-94570977D01*
G37*
D23*
X131171351Y-94376522D03*
D24*
G36*
X130800120Y-94924530D02*
X130623343Y-94747753D01*
X131542582Y-93828514D01*
X131719359Y-94005291D01*
X130800120Y-94924530D01*
X130800120Y-94924530D01*
G37*
D23*
X131524905Y-94730076D03*
D24*
G36*
X131153674Y-95278084D02*
X130976897Y-95101307D01*
X131896136Y-94182068D01*
X132072913Y-94358845D01*
X131153674Y-95278084D01*
X131153674Y-95278084D01*
G37*
D23*
X131878458Y-95083629D03*
D24*
G36*
X131507227Y-95631637D02*
X131330450Y-95454860D01*
X132249689Y-94535621D01*
X132426466Y-94712398D01*
X131507227Y-95631637D01*
X131507227Y-95631637D01*
G37*
D23*
X131878458Y-97346371D03*
D24*
G36*
X132426466Y-97717602D02*
X132249689Y-97894379D01*
X131330450Y-96975140D01*
X131507227Y-96798363D01*
X132426466Y-97717602D01*
X132426466Y-97717602D01*
G37*
D23*
X131524905Y-97699924D03*
D24*
G36*
X132072913Y-98071155D02*
X131896136Y-98247932D01*
X130976897Y-97328693D01*
X131153674Y-97151916D01*
X132072913Y-98071155D01*
X132072913Y-98071155D01*
G37*
D23*
X131171351Y-98053478D03*
D24*
G36*
X131719359Y-98424709D02*
X131542582Y-98601486D01*
X130623343Y-97682247D01*
X130800120Y-97505470D01*
X131719359Y-98424709D01*
X131719359Y-98424709D01*
G37*
D23*
X130817798Y-98407031D03*
D24*
G36*
X131365806Y-98778262D02*
X131189029Y-98955039D01*
X130269790Y-98035800D01*
X130446567Y-97859023D01*
X131365806Y-98778262D01*
X131365806Y-98778262D01*
G37*
D23*
X130464245Y-98760584D03*
D24*
G36*
X131012253Y-99131815D02*
X130835476Y-99308592D01*
X129916237Y-98389353D01*
X130093014Y-98212576D01*
X131012253Y-99131815D01*
X131012253Y-99131815D01*
G37*
D23*
X130110691Y-99114138D03*
D24*
G36*
X130658699Y-99485369D02*
X130481922Y-99662146D01*
X129562683Y-98742907D01*
X129739460Y-98566130D01*
X130658699Y-99485369D01*
X130658699Y-99485369D01*
G37*
D23*
X129757138Y-99467691D03*
D24*
G36*
X130305146Y-99838922D02*
X130128369Y-100015699D01*
X129209130Y-99096460D01*
X129385907Y-98919683D01*
X130305146Y-99838922D01*
X130305146Y-99838922D01*
G37*
D23*
X129403584Y-99821245D03*
D24*
G36*
X129951592Y-100192476D02*
X129774815Y-100369253D01*
X128855576Y-99450014D01*
X129032353Y-99273237D01*
X129951592Y-100192476D01*
X129951592Y-100192476D01*
G37*
D23*
X129050031Y-100174798D03*
D24*
G36*
X129598039Y-100546029D02*
X129421262Y-100722806D01*
X128502023Y-99803567D01*
X128678800Y-99626790D01*
X129598039Y-100546029D01*
X129598039Y-100546029D01*
G37*
D23*
X128696478Y-100528351D03*
D24*
G36*
X129244486Y-100899582D02*
X129067709Y-101076359D01*
X128148470Y-100157120D01*
X128325247Y-99980343D01*
X129244486Y-100899582D01*
X129244486Y-100899582D01*
G37*
D23*
X128342924Y-100881905D03*
D24*
G36*
X128890932Y-101253136D02*
X128714155Y-101429913D01*
X127794916Y-100510674D01*
X127971693Y-100333897D01*
X128890932Y-101253136D01*
X128890932Y-101253136D01*
G37*
D23*
X127989371Y-101235458D03*
D24*
G36*
X128537379Y-101606689D02*
X128360602Y-101783466D01*
X127441363Y-100864227D01*
X127618140Y-100687450D01*
X128537379Y-101606689D01*
X128537379Y-101606689D01*
G37*
D23*
X125726629Y-101235458D03*
D24*
G36*
X125355398Y-101783466D02*
X125178621Y-101606689D01*
X126097860Y-100687450D01*
X126274637Y-100864227D01*
X125355398Y-101783466D01*
X125355398Y-101783466D01*
G37*
D23*
X125373076Y-100881905D03*
D24*
G36*
X125001845Y-101429913D02*
X124825068Y-101253136D01*
X125744307Y-100333897D01*
X125921084Y-100510674D01*
X125001845Y-101429913D01*
X125001845Y-101429913D01*
G37*
D23*
X125019522Y-100528351D03*
D24*
G36*
X124648291Y-101076359D02*
X124471514Y-100899582D01*
X125390753Y-99980343D01*
X125567530Y-100157120D01*
X124648291Y-101076359D01*
X124648291Y-101076359D01*
G37*
D23*
X124665969Y-100174798D03*
D24*
G36*
X124294738Y-100722806D02*
X124117961Y-100546029D01*
X125037200Y-99626790D01*
X125213977Y-99803567D01*
X124294738Y-100722806D01*
X124294738Y-100722806D01*
G37*
D23*
X124312416Y-99821245D03*
D24*
G36*
X123941185Y-100369253D02*
X123764408Y-100192476D01*
X124683647Y-99273237D01*
X124860424Y-99450014D01*
X123941185Y-100369253D01*
X123941185Y-100369253D01*
G37*
D23*
X123958862Y-99467691D03*
D24*
G36*
X123587631Y-100015699D02*
X123410854Y-99838922D01*
X124330093Y-98919683D01*
X124506870Y-99096460D01*
X123587631Y-100015699D01*
X123587631Y-100015699D01*
G37*
D23*
X123605309Y-99114138D03*
D24*
G36*
X123234078Y-99662146D02*
X123057301Y-99485369D01*
X123976540Y-98566130D01*
X124153317Y-98742907D01*
X123234078Y-99662146D01*
X123234078Y-99662146D01*
G37*
D23*
X123251755Y-98760584D03*
D24*
G36*
X122880524Y-99308592D02*
X122703747Y-99131815D01*
X123622986Y-98212576D01*
X123799763Y-98389353D01*
X122880524Y-99308592D01*
X122880524Y-99308592D01*
G37*
D23*
X122898202Y-98407031D03*
D24*
G36*
X122526971Y-98955039D02*
X122350194Y-98778262D01*
X123269433Y-97859023D01*
X123446210Y-98035800D01*
X122526971Y-98955039D01*
X122526971Y-98955039D01*
G37*
D23*
X122544649Y-98053478D03*
D24*
G36*
X122173418Y-98601486D02*
X121996641Y-98424709D01*
X122915880Y-97505470D01*
X123092657Y-97682247D01*
X122173418Y-98601486D01*
X122173418Y-98601486D01*
G37*
D23*
X122191095Y-97699924D03*
D24*
G36*
X121819864Y-98247932D02*
X121643087Y-98071155D01*
X122562326Y-97151916D01*
X122739103Y-97328693D01*
X121819864Y-98247932D01*
X121819864Y-98247932D01*
G37*
D23*
X121837542Y-97346371D03*
D24*
G36*
X121466311Y-97894379D02*
X121289534Y-97717602D01*
X122208773Y-96798363D01*
X122385550Y-96975140D01*
X121466311Y-97894379D01*
X121466311Y-97894379D01*
G37*
D25*
X132748000Y-77825000D03*
X131798000Y-77825000D03*
X130848000Y-77825000D03*
X130848000Y-80025000D03*
X132748000Y-80025000D03*
X127288000Y-80005000D03*
X128238000Y-80005000D03*
X129188000Y-80005000D03*
X129188000Y-77805000D03*
X127288000Y-77805000D03*
X128238000Y-77805000D03*
M02*
