G04 #@! TF.GenerationSoftware,KiCad,Pcbnew,no-vcs-found-91ed3e2~59~ubuntu16.04.1*
G04 #@! TF.CreationDate,2017-10-23T14:28:14-03:00*
G04 #@! TF.ProjectId,ciaa-z3r0,636961612D7A3372302E6B696361645F,rev?*
G04 #@! TF.SameCoordinates,Original*
G04 #@! TF.FileFunction,Soldermask,Bot*
G04 #@! TF.FilePolarity,Negative*
%FSLAX46Y46*%
G04 Gerber Fmt 4.6, Leading zero omitted, Abs format (unit mm)*
G04 Created by KiCad (PCBNEW no-vcs-found-91ed3e2~59~ubuntu16.04.1) date Mon Oct 23 14:28:14 2017*
%MOMM*%
%LPD*%
G01*
G04 APERTURE LIST*
%ADD10O,1.700000X1.700000*%
%ADD11R,1.700000X1.700000*%
G04 APERTURE END LIST*
D10*
X119538000Y-120085000D03*
X119538000Y-117545000D03*
X119538000Y-115005000D03*
X119538000Y-112465000D03*
X119538000Y-109925000D03*
X119538000Y-107385000D03*
X119538000Y-104845000D03*
X119538000Y-102305000D03*
X119538000Y-99765000D03*
X119538000Y-97225000D03*
X119538000Y-94685000D03*
X119538000Y-92145000D03*
X119538000Y-89605000D03*
X119538000Y-87065000D03*
X119538000Y-84525000D03*
X119538000Y-81985000D03*
X119538000Y-79445000D03*
X119538000Y-76905000D03*
X119538000Y-74365000D03*
D11*
X119538000Y-71825000D03*
X134740619Y-71782500D03*
D10*
X134740619Y-74322500D03*
X134740619Y-76862500D03*
X134740619Y-79402500D03*
X134740619Y-81942500D03*
X134740619Y-84482500D03*
X134740619Y-87022500D03*
X134740619Y-89562500D03*
X134740619Y-92102500D03*
X134740619Y-94642500D03*
X134740619Y-97182500D03*
X134740619Y-99722500D03*
X134740619Y-102262500D03*
X134740619Y-104802500D03*
X134740619Y-107342500D03*
X134740619Y-109882500D03*
X134740619Y-112422500D03*
X134740619Y-114962500D03*
X134740619Y-117502500D03*
X134740619Y-120042500D03*
X136538000Y-120035000D03*
X136538000Y-117495000D03*
X136538000Y-114955000D03*
X136538000Y-112415000D03*
X136538000Y-109875000D03*
X136538000Y-107335000D03*
X136538000Y-104795000D03*
X136538000Y-102255000D03*
X136538000Y-99715000D03*
X136538000Y-97175000D03*
X136538000Y-94635000D03*
X136538000Y-92095000D03*
X136538000Y-89555000D03*
X136538000Y-87015000D03*
X136538000Y-84475000D03*
X136538000Y-81935000D03*
X136538000Y-79395000D03*
X136538000Y-76855000D03*
X136538000Y-74315000D03*
D11*
X136538000Y-71775000D03*
X117748000Y-71825000D03*
D10*
X117748000Y-74365000D03*
X117748000Y-76905000D03*
X117748000Y-79445000D03*
X117748000Y-81985000D03*
X117748000Y-84525000D03*
X117748000Y-87065000D03*
X117748000Y-89605000D03*
X117748000Y-92145000D03*
X117748000Y-94685000D03*
X117748000Y-97225000D03*
X117748000Y-99765000D03*
X117748000Y-102305000D03*
X117748000Y-104845000D03*
X117748000Y-107385000D03*
X117748000Y-109925000D03*
X117748000Y-112465000D03*
X117748000Y-115005000D03*
X117748000Y-117545000D03*
X117748000Y-120085000D03*
M02*
