M48
;DRILL file {KiCad no-vcs-found-72d4889~60~ubuntu16.04.1} date Thu Oct 19 10:36:02 2017
;FORMAT={-:-/ absolute / inch / decimal}
FMAT,2
INCH,TZ
T1C0.016
T2C0.039
%
G90
G05
M72
T1
X4.7938Y-4.0191
X4.8031Y-3.5348
X4.8174Y-3.4182
X4.8724Y-2.9683
X4.881Y-3.727
X4.8869Y-3.8608
X4.8869Y-3.8608
X4.9066Y-3.2344
X4.9672Y-4.3915
X5.0495Y-3.1848
X5.0582Y-3.3915
X5.07Y-4.2927
X5.0716Y-3.8896
X5.0959Y-3.7088
X5.1129Y-3.3061
X5.1287Y-3.1998
X5.1546Y-3.4112
X5.1609Y-4.2612
X5.161Y-4.1261
X5.1656Y-3.4781
X5.1682Y-3.6517
X5.1838Y-4.0293
X5.1885Y-3.0293
X5.2015Y-3.5541
X5.2162Y-3.3226
X5.2255Y-3.9894
X5.2287Y-3.5258
X5.2377Y-3.2628
X5.2506Y-3.6978
X5.2519Y-3.6663
T2
X4.7062Y-2.8278
X4.7062Y-2.9278
X4.7062Y-3.0278
X4.7062Y-3.1278
X4.7062Y-3.2278
X4.7062Y-3.3278
X4.7062Y-3.4278
X4.7062Y-3.5278
X4.7062Y-3.6278
X4.7062Y-3.7278
X4.7062Y-3.8278
X4.7062Y-3.9278
X4.7062Y-4.0278
X4.7062Y-4.1278
X4.7062Y-4.2278
X4.7062Y-4.3278
X4.7062Y-4.4278
X4.7062Y-4.5278
X4.7062Y-4.6278
X4.7062Y-4.7278
X4.6357Y-2.8278
X4.6357Y-2.9278
X4.6357Y-3.0278
X4.6357Y-3.1278
X4.6357Y-3.2278
X4.6357Y-3.3278
X4.6357Y-3.4278
X4.6357Y-3.5278
X4.6357Y-3.6278
X4.6357Y-3.7278
X4.6357Y-3.8278
X4.6357Y-3.9278
X4.6357Y-4.0278
X4.6357Y-4.1278
X4.6357Y-4.2278
X4.6357Y-4.3278
X4.6357Y-4.4278
X4.6357Y-4.5278
X4.6357Y-4.6278
X4.6357Y-4.7278
X5.3755Y-2.8258
X5.3755Y-2.9258
X5.3755Y-3.0258
X5.3755Y-3.1258
X5.3755Y-3.2258
X5.3755Y-3.3258
X5.3755Y-3.4258
X5.3755Y-3.5258
X5.3755Y-3.6258
X5.3755Y-3.7258
X5.3755Y-3.8258
X5.3755Y-3.9258
X5.3755Y-4.0258
X5.3755Y-4.1258
X5.3755Y-4.2258
X5.3755Y-4.3258
X5.3755Y-4.4258
X5.3755Y-4.5258
X5.3755Y-4.6258
X5.3755Y-4.7258
X5.3047Y-2.8261
X5.3047Y-2.9261
X5.3047Y-3.0261
X5.3047Y-3.1261
X5.3047Y-3.2261
X5.3047Y-3.3261
X5.3047Y-3.4261
X5.3047Y-3.5261
X5.3047Y-3.6261
X5.3047Y-3.7261
X5.3047Y-3.8261
X5.3047Y-3.9261
X5.3047Y-4.0261
X5.3047Y-4.1261
X5.3047Y-4.2261
X5.3047Y-4.3261
X5.3047Y-4.4261
X5.3047Y-4.5261
X5.3047Y-4.6261
X5.3047Y-4.7261
T0
M30
