G04 #@! TF.GenerationSoftware,KiCad,Pcbnew,no-vcs-found-91ed3e2~59~ubuntu16.04.1*
G04 #@! TF.CreationDate,2017-10-23T14:28:14-03:00*
G04 #@! TF.ProjectId,ciaa-z3r0,636961612D7A3372302E6B696361645F,rev?*
G04 #@! TF.SameCoordinates,Original*
G04 #@! TF.FileFunction,Copper,L2,Bot,Signal*
G04 #@! TF.FilePolarity,Positive*
%FSLAX46Y46*%
G04 Gerber Fmt 4.6, Leading zero omitted, Abs format (unit mm)*
G04 Created by KiCad (PCBNEW no-vcs-found-91ed3e2~59~ubuntu16.04.1) date Mon Oct 23 14:28:14 2017*
%MOMM*%
%LPD*%
G01*
G04 APERTURE LIST*
%ADD10O,1.700000X1.700000*%
%ADD11R,1.700000X1.700000*%
%ADD12C,0.600000*%
%ADD13C,0.250000*%
%ADD14C,0.254000*%
G04 APERTURE END LIST*
D10*
X119538000Y-120085000D03*
X119538000Y-117545000D03*
X119538000Y-115005000D03*
X119538000Y-112465000D03*
X119538000Y-109925000D03*
X119538000Y-107385000D03*
X119538000Y-104845000D03*
X119538000Y-102305000D03*
X119538000Y-99765000D03*
X119538000Y-97225000D03*
X119538000Y-94685000D03*
X119538000Y-92145000D03*
X119538000Y-89605000D03*
X119538000Y-87065000D03*
X119538000Y-84525000D03*
X119538000Y-81985000D03*
X119538000Y-79445000D03*
X119538000Y-76905000D03*
X119538000Y-74365000D03*
D11*
X119538000Y-71825000D03*
X134740619Y-71782500D03*
D10*
X134740619Y-74322500D03*
X134740619Y-76862500D03*
X134740619Y-79402500D03*
X134740619Y-81942500D03*
X134740619Y-84482500D03*
X134740619Y-87022500D03*
X134740619Y-89562500D03*
X134740619Y-92102500D03*
X134740619Y-94642500D03*
X134740619Y-97182500D03*
X134740619Y-99722500D03*
X134740619Y-102262500D03*
X134740619Y-104802500D03*
X134740619Y-107342500D03*
X134740619Y-109882500D03*
X134740619Y-112422500D03*
X134740619Y-114962500D03*
X134740619Y-117502500D03*
X134740619Y-120042500D03*
X136538000Y-120035000D03*
X136538000Y-117495000D03*
X136538000Y-114955000D03*
X136538000Y-112415000D03*
X136538000Y-109875000D03*
X136538000Y-107335000D03*
X136538000Y-104795000D03*
X136538000Y-102255000D03*
X136538000Y-99715000D03*
X136538000Y-97175000D03*
X136538000Y-94635000D03*
X136538000Y-92095000D03*
X136538000Y-89555000D03*
X136538000Y-87015000D03*
X136538000Y-84475000D03*
X136538000Y-81935000D03*
X136538000Y-79395000D03*
X136538000Y-76855000D03*
X136538000Y-74315000D03*
D11*
X136538000Y-71775000D03*
X117748000Y-71825000D03*
D10*
X117748000Y-74365000D03*
X117748000Y-76905000D03*
X117748000Y-79445000D03*
X117748000Y-81985000D03*
X117748000Y-84525000D03*
X117748000Y-87065000D03*
X117748000Y-89605000D03*
X117748000Y-92145000D03*
X117748000Y-94685000D03*
X117748000Y-97225000D03*
X117748000Y-99765000D03*
X117748000Y-102305000D03*
X117748000Y-104845000D03*
X117748000Y-107385000D03*
X117748000Y-109925000D03*
X117748000Y-112465000D03*
X117748000Y-115005000D03*
X117748000Y-117545000D03*
X117748000Y-120085000D03*
D12*
X126168000Y-111545000D03*
X131788000Y-76945000D03*
X133038000Y-82875000D03*
X121998000Y-89785000D03*
X121762934Y-102085000D03*
X124628000Y-82155000D03*
X132118000Y-90275000D03*
X132808000Y-89555000D03*
X128478000Y-86145000D03*
X123758000Y-75395000D03*
X131273010Y-92751941D03*
X131205828Y-88345008D03*
X133364181Y-93924292D03*
X133398373Y-93125011D03*
X132490597Y-84395000D03*
X130928000Y-86644977D03*
X128778000Y-109035000D03*
X122361359Y-86821641D03*
X130268012Y-81275000D03*
X129868000Y-83975000D03*
X128258000Y-80895000D03*
X124126059Y-98063059D03*
X124126059Y-98063059D03*
X123978000Y-94665000D03*
X128818000Y-98795000D03*
X131668000Y-102345000D03*
X132728000Y-101330000D03*
X129436373Y-94204772D03*
X131088000Y-108235000D03*
X131089090Y-104802500D03*
D13*
X131273010Y-92751941D02*
X131038000Y-92516931D01*
X131038000Y-92516931D02*
X131038000Y-88512836D01*
X131038000Y-88512836D02*
X131205828Y-88345008D01*
X134740619Y-92972118D02*
X133788445Y-93924292D01*
X133788445Y-93924292D02*
X133364181Y-93924292D01*
X134740619Y-92102500D02*
X134740619Y-92972118D01*
X133398373Y-90904746D02*
X133398373Y-92700747D01*
X134740619Y-89562500D02*
X133398373Y-90904746D01*
X133398373Y-92700747D02*
X133398373Y-93125011D01*
X132578097Y-84482500D02*
X132490597Y-84395000D01*
X134740619Y-84482500D02*
X132578097Y-84482500D01*
X130548000Y-93093145D02*
X130548000Y-87024977D01*
X130548000Y-87024977D02*
X130628001Y-86944976D01*
X130628001Y-86944976D02*
X130928000Y-86644977D01*
X129436373Y-94204772D02*
X130548000Y-93093145D01*
X126888000Y-108095000D02*
X127998000Y-109205000D01*
X127998000Y-109205000D02*
X128608000Y-109205000D01*
X128608000Y-109205000D02*
X128778000Y-109035000D01*
X125298000Y-108095000D02*
X120713001Y-103510001D01*
X125298000Y-108095000D02*
X126888000Y-108095000D01*
X120398000Y-100644002D02*
X120713001Y-100329001D01*
X120398000Y-93805998D02*
X120398000Y-93024002D01*
X120713001Y-103510001D02*
X120713001Y-101740999D01*
X120713001Y-101740999D02*
X120398000Y-101425998D01*
X120713001Y-97789001D02*
X120713001Y-96660999D01*
X120398000Y-101425998D02*
X120398000Y-100644002D01*
X120713001Y-92709001D02*
X120713001Y-88469999D01*
X120713001Y-99200999D02*
X120398000Y-98885998D01*
X120713001Y-100329001D02*
X120713001Y-99200999D01*
X120713001Y-96660999D02*
X120398000Y-96345998D01*
X120398000Y-98104002D02*
X120713001Y-97789001D01*
X120398000Y-98885998D02*
X120398000Y-98104002D01*
X120398000Y-96345998D02*
X120398000Y-95564002D01*
X120398000Y-95564002D02*
X120713001Y-95249001D01*
X120713001Y-95249001D02*
X120713001Y-94120999D01*
X120713001Y-94120999D02*
X120398000Y-93805998D01*
X120398000Y-93024002D02*
X120713001Y-92709001D01*
X120713001Y-88469999D02*
X122361359Y-86821641D01*
X130268012Y-83574988D02*
X130268012Y-81699264D01*
X129868000Y-83975000D02*
X130268012Y-83574988D01*
X130268012Y-81699264D02*
X130268012Y-81275000D01*
X131089090Y-104802500D02*
X131089090Y-108233910D01*
X131089090Y-108233910D02*
X131088000Y-108235000D01*
D14*
G36*
X133724012Y-70530275D02*
X133582769Y-70624650D01*
X133488394Y-70765893D01*
X133455254Y-70932500D01*
X133455254Y-72632500D01*
X133488394Y-72799107D01*
X133582769Y-72940350D01*
X133724012Y-73034725D01*
X133890619Y-73067865D01*
X133985855Y-73067865D01*
X133859261Y-73127317D01*
X133468974Y-73555576D01*
X133299143Y-73965610D01*
X133420464Y-74195500D01*
X134613619Y-74195500D01*
X134613619Y-74175500D01*
X134867619Y-74175500D01*
X134867619Y-74195500D01*
X134887619Y-74195500D01*
X134887619Y-74449500D01*
X134867619Y-74449500D01*
X134867619Y-74469500D01*
X134613619Y-74469500D01*
X134613619Y-74449500D01*
X133420464Y-74449500D01*
X133299143Y-74679390D01*
X133468974Y-75089424D01*
X133859261Y-75517683D01*
X134220202Y-75687191D01*
X133812626Y-75959525D01*
X133535807Y-76373813D01*
X133438601Y-76862500D01*
X133535807Y-77351187D01*
X133812626Y-77765475D01*
X134226914Y-78042294D01*
X134680410Y-78132500D01*
X134226914Y-78222706D01*
X133812626Y-78499525D01*
X133535807Y-78913813D01*
X133438601Y-79402500D01*
X133535807Y-79891187D01*
X133812626Y-80305475D01*
X134226914Y-80582294D01*
X134680410Y-80672500D01*
X134226914Y-80762706D01*
X133812626Y-81039525D01*
X133535807Y-81453813D01*
X133438601Y-81942500D01*
X133535807Y-82431187D01*
X133812626Y-82845475D01*
X134226914Y-83122294D01*
X134680410Y-83212500D01*
X134226914Y-83302706D01*
X133812626Y-83579525D01*
X133578111Y-83930500D01*
X133054145Y-83930500D01*
X132902947Y-83779039D01*
X132635841Y-83668126D01*
X132346622Y-83667874D01*
X132079322Y-83778320D01*
X131874636Y-83982650D01*
X131763723Y-84249756D01*
X131763471Y-84538975D01*
X131873917Y-84806275D01*
X132078247Y-85010961D01*
X132345353Y-85121874D01*
X132634572Y-85122126D01*
X132846643Y-85034500D01*
X133578111Y-85034500D01*
X133812626Y-85385475D01*
X134226914Y-85662294D01*
X134680410Y-85752500D01*
X134226914Y-85842706D01*
X133812626Y-86119525D01*
X133535807Y-86533813D01*
X133438601Y-87022500D01*
X133535807Y-87511187D01*
X133812626Y-87925475D01*
X134226914Y-88202294D01*
X134680410Y-88292500D01*
X134226914Y-88382706D01*
X133812626Y-88659525D01*
X133535807Y-89073813D01*
X133438601Y-89562500D01*
X133525102Y-89997371D01*
X133008050Y-90514423D01*
X132888391Y-90693504D01*
X132888391Y-90693505D01*
X132846373Y-90904746D01*
X132846373Y-92648811D01*
X132782412Y-92712661D01*
X132671499Y-92979767D01*
X132671247Y-93268986D01*
X132764797Y-93495394D01*
X132748220Y-93511942D01*
X132637307Y-93779048D01*
X132637055Y-94068267D01*
X132747501Y-94335567D01*
X132951831Y-94540253D01*
X133218937Y-94651166D01*
X133440363Y-94651359D01*
X133535807Y-95131187D01*
X133812626Y-95545475D01*
X134226914Y-95822294D01*
X134680410Y-95912500D01*
X134226914Y-96002706D01*
X133812626Y-96279525D01*
X133535807Y-96693813D01*
X133438601Y-97182500D01*
X133535807Y-97671187D01*
X133812626Y-98085475D01*
X134226914Y-98362294D01*
X134680410Y-98452500D01*
X134226914Y-98542706D01*
X133812626Y-98819525D01*
X133535807Y-99233813D01*
X133438601Y-99722500D01*
X133535807Y-100211187D01*
X133812626Y-100625475D01*
X134226914Y-100902294D01*
X134680410Y-100992500D01*
X134226914Y-101082706D01*
X133812626Y-101359525D01*
X133535807Y-101773813D01*
X133438601Y-102262500D01*
X133535807Y-102751187D01*
X133812626Y-103165475D01*
X134226914Y-103442294D01*
X134680410Y-103532500D01*
X134226914Y-103622706D01*
X133812626Y-103899525D01*
X133535807Y-104313813D01*
X133438601Y-104802500D01*
X133535807Y-105291187D01*
X133812626Y-105705475D01*
X134226914Y-105982294D01*
X134680410Y-106072500D01*
X134226914Y-106162706D01*
X133812626Y-106439525D01*
X133535807Y-106853813D01*
X133438601Y-107342500D01*
X133535807Y-107831187D01*
X133812626Y-108245475D01*
X134226914Y-108522294D01*
X134680410Y-108612500D01*
X134226914Y-108702706D01*
X133812626Y-108979525D01*
X133535807Y-109393813D01*
X133438601Y-109882500D01*
X133535807Y-110371187D01*
X133812626Y-110785475D01*
X134226914Y-111062294D01*
X134680410Y-111152500D01*
X134226914Y-111242706D01*
X133812626Y-111519525D01*
X133535807Y-111933813D01*
X133438601Y-112422500D01*
X133535807Y-112911187D01*
X133812626Y-113325475D01*
X134226914Y-113602294D01*
X134680410Y-113692500D01*
X134226914Y-113782706D01*
X133812626Y-114059525D01*
X133535807Y-114473813D01*
X133438601Y-114962500D01*
X133535807Y-115451187D01*
X133812626Y-115865475D01*
X134220202Y-116137809D01*
X133859261Y-116307317D01*
X133468974Y-116735576D01*
X133299143Y-117145610D01*
X133420464Y-117375500D01*
X134613619Y-117375500D01*
X134613619Y-117355500D01*
X134867619Y-117355500D01*
X134867619Y-117375500D01*
X134887619Y-117375500D01*
X134887619Y-117629500D01*
X134867619Y-117629500D01*
X134867619Y-119915500D01*
X134887619Y-119915500D01*
X134887619Y-120169500D01*
X134867619Y-120169500D01*
X134867619Y-120189500D01*
X134613619Y-120189500D01*
X134613619Y-120169500D01*
X133420464Y-120169500D01*
X133299143Y-120399390D01*
X133468974Y-120809424D01*
X133859261Y-121237683D01*
X134062225Y-121333000D01*
X119708811Y-121333000D01*
X120051705Y-121264794D01*
X120465993Y-120987975D01*
X120742812Y-120573687D01*
X120840018Y-120085000D01*
X120742812Y-119596313D01*
X120465993Y-119182025D01*
X120051705Y-118905206D01*
X119598209Y-118815000D01*
X120051705Y-118724794D01*
X120465993Y-118447975D01*
X120742812Y-118033687D01*
X120777481Y-117859390D01*
X133299143Y-117859390D01*
X133468974Y-118269424D01*
X133859261Y-118697683D01*
X134018573Y-118772500D01*
X133859261Y-118847317D01*
X133468974Y-119275576D01*
X133299143Y-119685610D01*
X133420464Y-119915500D01*
X134613619Y-119915500D01*
X134613619Y-117629500D01*
X133420464Y-117629500D01*
X133299143Y-117859390D01*
X120777481Y-117859390D01*
X120840018Y-117545000D01*
X120742812Y-117056313D01*
X120465993Y-116642025D01*
X120051705Y-116365206D01*
X119598209Y-116275000D01*
X120051705Y-116184794D01*
X120465993Y-115907975D01*
X120742812Y-115493687D01*
X120840018Y-115005000D01*
X120742812Y-114516313D01*
X120465993Y-114102025D01*
X120051705Y-113825206D01*
X119598209Y-113735000D01*
X120051705Y-113644794D01*
X120465993Y-113367975D01*
X120742812Y-112953687D01*
X120840018Y-112465000D01*
X120742812Y-111976313D01*
X120465993Y-111562025D01*
X120051705Y-111285206D01*
X119598209Y-111195000D01*
X120051705Y-111104794D01*
X120465993Y-110827975D01*
X120742812Y-110413687D01*
X120840018Y-109925000D01*
X120742812Y-109436313D01*
X120465993Y-109022025D01*
X120051705Y-108745206D01*
X119598209Y-108655000D01*
X120051705Y-108564794D01*
X120465993Y-108287975D01*
X120742812Y-107873687D01*
X120840018Y-107385000D01*
X120742812Y-106896313D01*
X120465993Y-106482025D01*
X120051705Y-106205206D01*
X119598209Y-106115000D01*
X120051705Y-106024794D01*
X120465993Y-105747975D01*
X120742812Y-105333687D01*
X120840018Y-104845000D01*
X120742812Y-104356313D01*
X120670611Y-104248257D01*
X124907677Y-108485323D01*
X125086758Y-108604982D01*
X125298000Y-108647000D01*
X126659354Y-108647000D01*
X127607677Y-109595323D01*
X127786758Y-109714982D01*
X127998000Y-109757000D01*
X128608000Y-109757000D01*
X128616802Y-109755249D01*
X128632756Y-109761874D01*
X128921975Y-109762126D01*
X129189275Y-109651680D01*
X129393961Y-109447350D01*
X129504874Y-109180244D01*
X129505126Y-108891025D01*
X129394680Y-108623725D01*
X129190350Y-108419039D01*
X129093866Y-108378975D01*
X130360874Y-108378975D01*
X130471320Y-108646275D01*
X130675650Y-108850961D01*
X130942756Y-108961874D01*
X131231975Y-108962126D01*
X131499275Y-108851680D01*
X131703961Y-108647350D01*
X131814874Y-108380244D01*
X131815126Y-108091025D01*
X131704680Y-107823725D01*
X131641090Y-107760024D01*
X131641090Y-105278700D01*
X131705051Y-105214850D01*
X131815964Y-104947744D01*
X131816216Y-104658525D01*
X131705770Y-104391225D01*
X131501440Y-104186539D01*
X131234334Y-104075626D01*
X130945115Y-104075374D01*
X130677815Y-104185820D01*
X130473129Y-104390150D01*
X130362216Y-104657256D01*
X130361964Y-104946475D01*
X130472410Y-105213775D01*
X130537090Y-105278568D01*
X130537090Y-107757712D01*
X130472039Y-107822650D01*
X130361126Y-108089756D01*
X130360874Y-108378975D01*
X129093866Y-108378975D01*
X128923244Y-108308126D01*
X128634025Y-108307874D01*
X128366725Y-108418320D01*
X128179182Y-108605536D01*
X127278323Y-107704677D01*
X127099242Y-107585018D01*
X126888000Y-107543000D01*
X125526646Y-107543000D01*
X121265001Y-103281355D01*
X121265001Y-101740999D01*
X121222983Y-101529758D01*
X121222983Y-101529757D01*
X121103324Y-101350676D01*
X120950000Y-101197352D01*
X120950000Y-100872648D01*
X121103324Y-100719324D01*
X121222983Y-100540243D01*
X121265001Y-100329001D01*
X121265001Y-99200999D01*
X121222983Y-98989758D01*
X121222983Y-98989757D01*
X121103324Y-98810676D01*
X120950000Y-98657352D01*
X120950000Y-98332648D01*
X121103324Y-98179324D01*
X121222983Y-98000243D01*
X121265001Y-97789001D01*
X121265001Y-96660999D01*
X121222983Y-96449758D01*
X121222983Y-96449757D01*
X121103324Y-96270676D01*
X120950000Y-96117352D01*
X120950000Y-95792648D01*
X121103324Y-95639324D01*
X121222983Y-95460243D01*
X121265001Y-95249001D01*
X121265001Y-94348747D01*
X128709247Y-94348747D01*
X128819693Y-94616047D01*
X129024023Y-94820733D01*
X129291129Y-94931646D01*
X129580348Y-94931898D01*
X129847648Y-94821452D01*
X130052334Y-94617122D01*
X130163247Y-94350016D01*
X130163327Y-94258464D01*
X130938323Y-93483468D01*
X130981903Y-93418247D01*
X131127766Y-93478815D01*
X131416985Y-93479067D01*
X131684285Y-93368621D01*
X131888971Y-93164291D01*
X131999884Y-92897185D01*
X132000136Y-92607966D01*
X131889690Y-92340666D01*
X131685360Y-92135980D01*
X131590000Y-92096383D01*
X131590000Y-88972887D01*
X131617103Y-88961688D01*
X131821789Y-88757358D01*
X131932702Y-88490252D01*
X131932954Y-88201033D01*
X131822508Y-87933733D01*
X131618178Y-87729047D01*
X131351072Y-87618134D01*
X131100000Y-87617915D01*
X131100000Y-87360523D01*
X131339275Y-87261657D01*
X131543961Y-87057327D01*
X131654874Y-86790221D01*
X131655126Y-86501002D01*
X131544680Y-86233702D01*
X131340350Y-86029016D01*
X131073244Y-85918103D01*
X130784025Y-85917851D01*
X130516725Y-86028297D01*
X130312039Y-86232627D01*
X130201126Y-86499733D01*
X130201046Y-86591285D01*
X130157677Y-86634654D01*
X130038018Y-86813735D01*
X130007555Y-86966885D01*
X129996000Y-87024977D01*
X129996000Y-92864499D01*
X129382774Y-93477725D01*
X129292398Y-93477646D01*
X129025098Y-93588092D01*
X128820412Y-93792422D01*
X128709499Y-94059528D01*
X128709247Y-94348747D01*
X121265001Y-94348747D01*
X121265001Y-94120999D01*
X121222983Y-93909757D01*
X121103324Y-93730676D01*
X120950000Y-93577352D01*
X120950000Y-93252648D01*
X121103324Y-93099324D01*
X121222983Y-92920243D01*
X121265001Y-92709001D01*
X121265001Y-88698645D01*
X122414958Y-87548688D01*
X122505334Y-87548767D01*
X122772634Y-87438321D01*
X122977320Y-87233991D01*
X123088233Y-86966885D01*
X123088485Y-86677666D01*
X122978039Y-86410366D01*
X122773709Y-86205680D01*
X122506603Y-86094767D01*
X122217384Y-86094515D01*
X121950084Y-86204961D01*
X121745398Y-86409291D01*
X121634485Y-86676397D01*
X121634405Y-86767949D01*
X120529654Y-87872700D01*
X120742812Y-87553687D01*
X120840018Y-87065000D01*
X120742812Y-86576313D01*
X120465993Y-86162025D01*
X120051705Y-85885206D01*
X119598209Y-85795000D01*
X120051705Y-85704794D01*
X120465993Y-85427975D01*
X120742812Y-85013687D01*
X120840018Y-84525000D01*
X120759255Y-84118975D01*
X129140874Y-84118975D01*
X129251320Y-84386275D01*
X129455650Y-84590961D01*
X129722756Y-84701874D01*
X130011975Y-84702126D01*
X130279275Y-84591680D01*
X130483961Y-84387350D01*
X130594874Y-84120244D01*
X130594954Y-84028692D01*
X130658335Y-83965311D01*
X130777993Y-83786230D01*
X130777994Y-83786229D01*
X130820012Y-83574988D01*
X130820012Y-81751200D01*
X130883973Y-81687350D01*
X130994886Y-81420244D01*
X130995138Y-81131025D01*
X130884692Y-80863725D01*
X130680362Y-80659039D01*
X130413256Y-80548126D01*
X130124037Y-80547874D01*
X129856737Y-80658320D01*
X129652051Y-80862650D01*
X129541138Y-81129756D01*
X129540886Y-81418975D01*
X129651332Y-81686275D01*
X129716012Y-81751068D01*
X129716012Y-83251185D01*
X129456725Y-83358320D01*
X129252039Y-83562650D01*
X129141126Y-83829756D01*
X129140874Y-84118975D01*
X120759255Y-84118975D01*
X120742812Y-84036313D01*
X120465993Y-83622025D01*
X120051705Y-83345206D01*
X119598209Y-83255000D01*
X120051705Y-83164794D01*
X120465993Y-82887975D01*
X120742812Y-82473687D01*
X120840018Y-81985000D01*
X120742812Y-81496313D01*
X120465993Y-81082025D01*
X120051705Y-80805206D01*
X119598209Y-80715000D01*
X120051705Y-80624794D01*
X120465993Y-80347975D01*
X120742812Y-79933687D01*
X120840018Y-79445000D01*
X120742812Y-78956313D01*
X120465993Y-78542025D01*
X120051705Y-78265206D01*
X119598209Y-78175000D01*
X120051705Y-78084794D01*
X120465993Y-77807975D01*
X120742812Y-77393687D01*
X120840018Y-76905000D01*
X120742812Y-76416313D01*
X120465993Y-76002025D01*
X120051705Y-75725206D01*
X119598209Y-75635000D01*
X120051705Y-75544794D01*
X120465993Y-75267975D01*
X120742812Y-74853687D01*
X120840018Y-74365000D01*
X120742812Y-73876313D01*
X120465993Y-73462025D01*
X120051705Y-73185206D01*
X119675454Y-73110365D01*
X120388000Y-73110365D01*
X120554607Y-73077225D01*
X120695850Y-72982850D01*
X120790225Y-72841607D01*
X120823365Y-72675000D01*
X120823365Y-70975000D01*
X120790225Y-70808393D01*
X120695850Y-70667150D01*
X120554607Y-70572775D01*
X120388000Y-70539635D01*
X118688000Y-70539635D01*
X118643000Y-70548586D01*
X118598000Y-70539635D01*
X118240000Y-70539635D01*
X118240000Y-70527000D01*
X133740477Y-70527000D01*
X133724012Y-70530275D01*
X133724012Y-70530275D01*
G37*
X133724012Y-70530275D02*
X133582769Y-70624650D01*
X133488394Y-70765893D01*
X133455254Y-70932500D01*
X133455254Y-72632500D01*
X133488394Y-72799107D01*
X133582769Y-72940350D01*
X133724012Y-73034725D01*
X133890619Y-73067865D01*
X133985855Y-73067865D01*
X133859261Y-73127317D01*
X133468974Y-73555576D01*
X133299143Y-73965610D01*
X133420464Y-74195500D01*
X134613619Y-74195500D01*
X134613619Y-74175500D01*
X134867619Y-74175500D01*
X134867619Y-74195500D01*
X134887619Y-74195500D01*
X134887619Y-74449500D01*
X134867619Y-74449500D01*
X134867619Y-74469500D01*
X134613619Y-74469500D01*
X134613619Y-74449500D01*
X133420464Y-74449500D01*
X133299143Y-74679390D01*
X133468974Y-75089424D01*
X133859261Y-75517683D01*
X134220202Y-75687191D01*
X133812626Y-75959525D01*
X133535807Y-76373813D01*
X133438601Y-76862500D01*
X133535807Y-77351187D01*
X133812626Y-77765475D01*
X134226914Y-78042294D01*
X134680410Y-78132500D01*
X134226914Y-78222706D01*
X133812626Y-78499525D01*
X133535807Y-78913813D01*
X133438601Y-79402500D01*
X133535807Y-79891187D01*
X133812626Y-80305475D01*
X134226914Y-80582294D01*
X134680410Y-80672500D01*
X134226914Y-80762706D01*
X133812626Y-81039525D01*
X133535807Y-81453813D01*
X133438601Y-81942500D01*
X133535807Y-82431187D01*
X133812626Y-82845475D01*
X134226914Y-83122294D01*
X134680410Y-83212500D01*
X134226914Y-83302706D01*
X133812626Y-83579525D01*
X133578111Y-83930500D01*
X133054145Y-83930500D01*
X132902947Y-83779039D01*
X132635841Y-83668126D01*
X132346622Y-83667874D01*
X132079322Y-83778320D01*
X131874636Y-83982650D01*
X131763723Y-84249756D01*
X131763471Y-84538975D01*
X131873917Y-84806275D01*
X132078247Y-85010961D01*
X132345353Y-85121874D01*
X132634572Y-85122126D01*
X132846643Y-85034500D01*
X133578111Y-85034500D01*
X133812626Y-85385475D01*
X134226914Y-85662294D01*
X134680410Y-85752500D01*
X134226914Y-85842706D01*
X133812626Y-86119525D01*
X133535807Y-86533813D01*
X133438601Y-87022500D01*
X133535807Y-87511187D01*
X133812626Y-87925475D01*
X134226914Y-88202294D01*
X134680410Y-88292500D01*
X134226914Y-88382706D01*
X133812626Y-88659525D01*
X133535807Y-89073813D01*
X133438601Y-89562500D01*
X133525102Y-89997371D01*
X133008050Y-90514423D01*
X132888391Y-90693504D01*
X132888391Y-90693505D01*
X132846373Y-90904746D01*
X132846373Y-92648811D01*
X132782412Y-92712661D01*
X132671499Y-92979767D01*
X132671247Y-93268986D01*
X132764797Y-93495394D01*
X132748220Y-93511942D01*
X132637307Y-93779048D01*
X132637055Y-94068267D01*
X132747501Y-94335567D01*
X132951831Y-94540253D01*
X133218937Y-94651166D01*
X133440363Y-94651359D01*
X133535807Y-95131187D01*
X133812626Y-95545475D01*
X134226914Y-95822294D01*
X134680410Y-95912500D01*
X134226914Y-96002706D01*
X133812626Y-96279525D01*
X133535807Y-96693813D01*
X133438601Y-97182500D01*
X133535807Y-97671187D01*
X133812626Y-98085475D01*
X134226914Y-98362294D01*
X134680410Y-98452500D01*
X134226914Y-98542706D01*
X133812626Y-98819525D01*
X133535807Y-99233813D01*
X133438601Y-99722500D01*
X133535807Y-100211187D01*
X133812626Y-100625475D01*
X134226914Y-100902294D01*
X134680410Y-100992500D01*
X134226914Y-101082706D01*
X133812626Y-101359525D01*
X133535807Y-101773813D01*
X133438601Y-102262500D01*
X133535807Y-102751187D01*
X133812626Y-103165475D01*
X134226914Y-103442294D01*
X134680410Y-103532500D01*
X134226914Y-103622706D01*
X133812626Y-103899525D01*
X133535807Y-104313813D01*
X133438601Y-104802500D01*
X133535807Y-105291187D01*
X133812626Y-105705475D01*
X134226914Y-105982294D01*
X134680410Y-106072500D01*
X134226914Y-106162706D01*
X133812626Y-106439525D01*
X133535807Y-106853813D01*
X133438601Y-107342500D01*
X133535807Y-107831187D01*
X133812626Y-108245475D01*
X134226914Y-108522294D01*
X134680410Y-108612500D01*
X134226914Y-108702706D01*
X133812626Y-108979525D01*
X133535807Y-109393813D01*
X133438601Y-109882500D01*
X133535807Y-110371187D01*
X133812626Y-110785475D01*
X134226914Y-111062294D01*
X134680410Y-111152500D01*
X134226914Y-111242706D01*
X133812626Y-111519525D01*
X133535807Y-111933813D01*
X133438601Y-112422500D01*
X133535807Y-112911187D01*
X133812626Y-113325475D01*
X134226914Y-113602294D01*
X134680410Y-113692500D01*
X134226914Y-113782706D01*
X133812626Y-114059525D01*
X133535807Y-114473813D01*
X133438601Y-114962500D01*
X133535807Y-115451187D01*
X133812626Y-115865475D01*
X134220202Y-116137809D01*
X133859261Y-116307317D01*
X133468974Y-116735576D01*
X133299143Y-117145610D01*
X133420464Y-117375500D01*
X134613619Y-117375500D01*
X134613619Y-117355500D01*
X134867619Y-117355500D01*
X134867619Y-117375500D01*
X134887619Y-117375500D01*
X134887619Y-117629500D01*
X134867619Y-117629500D01*
X134867619Y-119915500D01*
X134887619Y-119915500D01*
X134887619Y-120169500D01*
X134867619Y-120169500D01*
X134867619Y-120189500D01*
X134613619Y-120189500D01*
X134613619Y-120169500D01*
X133420464Y-120169500D01*
X133299143Y-120399390D01*
X133468974Y-120809424D01*
X133859261Y-121237683D01*
X134062225Y-121333000D01*
X119708811Y-121333000D01*
X120051705Y-121264794D01*
X120465993Y-120987975D01*
X120742812Y-120573687D01*
X120840018Y-120085000D01*
X120742812Y-119596313D01*
X120465993Y-119182025D01*
X120051705Y-118905206D01*
X119598209Y-118815000D01*
X120051705Y-118724794D01*
X120465993Y-118447975D01*
X120742812Y-118033687D01*
X120777481Y-117859390D01*
X133299143Y-117859390D01*
X133468974Y-118269424D01*
X133859261Y-118697683D01*
X134018573Y-118772500D01*
X133859261Y-118847317D01*
X133468974Y-119275576D01*
X133299143Y-119685610D01*
X133420464Y-119915500D01*
X134613619Y-119915500D01*
X134613619Y-117629500D01*
X133420464Y-117629500D01*
X133299143Y-117859390D01*
X120777481Y-117859390D01*
X120840018Y-117545000D01*
X120742812Y-117056313D01*
X120465993Y-116642025D01*
X120051705Y-116365206D01*
X119598209Y-116275000D01*
X120051705Y-116184794D01*
X120465993Y-115907975D01*
X120742812Y-115493687D01*
X120840018Y-115005000D01*
X120742812Y-114516313D01*
X120465993Y-114102025D01*
X120051705Y-113825206D01*
X119598209Y-113735000D01*
X120051705Y-113644794D01*
X120465993Y-113367975D01*
X120742812Y-112953687D01*
X120840018Y-112465000D01*
X120742812Y-111976313D01*
X120465993Y-111562025D01*
X120051705Y-111285206D01*
X119598209Y-111195000D01*
X120051705Y-111104794D01*
X120465993Y-110827975D01*
X120742812Y-110413687D01*
X120840018Y-109925000D01*
X120742812Y-109436313D01*
X120465993Y-109022025D01*
X120051705Y-108745206D01*
X119598209Y-108655000D01*
X120051705Y-108564794D01*
X120465993Y-108287975D01*
X120742812Y-107873687D01*
X120840018Y-107385000D01*
X120742812Y-106896313D01*
X120465993Y-106482025D01*
X120051705Y-106205206D01*
X119598209Y-106115000D01*
X120051705Y-106024794D01*
X120465993Y-105747975D01*
X120742812Y-105333687D01*
X120840018Y-104845000D01*
X120742812Y-104356313D01*
X120670611Y-104248257D01*
X124907677Y-108485323D01*
X125086758Y-108604982D01*
X125298000Y-108647000D01*
X126659354Y-108647000D01*
X127607677Y-109595323D01*
X127786758Y-109714982D01*
X127998000Y-109757000D01*
X128608000Y-109757000D01*
X128616802Y-109755249D01*
X128632756Y-109761874D01*
X128921975Y-109762126D01*
X129189275Y-109651680D01*
X129393961Y-109447350D01*
X129504874Y-109180244D01*
X129505126Y-108891025D01*
X129394680Y-108623725D01*
X129190350Y-108419039D01*
X129093866Y-108378975D01*
X130360874Y-108378975D01*
X130471320Y-108646275D01*
X130675650Y-108850961D01*
X130942756Y-108961874D01*
X131231975Y-108962126D01*
X131499275Y-108851680D01*
X131703961Y-108647350D01*
X131814874Y-108380244D01*
X131815126Y-108091025D01*
X131704680Y-107823725D01*
X131641090Y-107760024D01*
X131641090Y-105278700D01*
X131705051Y-105214850D01*
X131815964Y-104947744D01*
X131816216Y-104658525D01*
X131705770Y-104391225D01*
X131501440Y-104186539D01*
X131234334Y-104075626D01*
X130945115Y-104075374D01*
X130677815Y-104185820D01*
X130473129Y-104390150D01*
X130362216Y-104657256D01*
X130361964Y-104946475D01*
X130472410Y-105213775D01*
X130537090Y-105278568D01*
X130537090Y-107757712D01*
X130472039Y-107822650D01*
X130361126Y-108089756D01*
X130360874Y-108378975D01*
X129093866Y-108378975D01*
X128923244Y-108308126D01*
X128634025Y-108307874D01*
X128366725Y-108418320D01*
X128179182Y-108605536D01*
X127278323Y-107704677D01*
X127099242Y-107585018D01*
X126888000Y-107543000D01*
X125526646Y-107543000D01*
X121265001Y-103281355D01*
X121265001Y-101740999D01*
X121222983Y-101529758D01*
X121222983Y-101529757D01*
X121103324Y-101350676D01*
X120950000Y-101197352D01*
X120950000Y-100872648D01*
X121103324Y-100719324D01*
X121222983Y-100540243D01*
X121265001Y-100329001D01*
X121265001Y-99200999D01*
X121222983Y-98989758D01*
X121222983Y-98989757D01*
X121103324Y-98810676D01*
X120950000Y-98657352D01*
X120950000Y-98332648D01*
X121103324Y-98179324D01*
X121222983Y-98000243D01*
X121265001Y-97789001D01*
X121265001Y-96660999D01*
X121222983Y-96449758D01*
X121222983Y-96449757D01*
X121103324Y-96270676D01*
X120950000Y-96117352D01*
X120950000Y-95792648D01*
X121103324Y-95639324D01*
X121222983Y-95460243D01*
X121265001Y-95249001D01*
X121265001Y-94348747D01*
X128709247Y-94348747D01*
X128819693Y-94616047D01*
X129024023Y-94820733D01*
X129291129Y-94931646D01*
X129580348Y-94931898D01*
X129847648Y-94821452D01*
X130052334Y-94617122D01*
X130163247Y-94350016D01*
X130163327Y-94258464D01*
X130938323Y-93483468D01*
X130981903Y-93418247D01*
X131127766Y-93478815D01*
X131416985Y-93479067D01*
X131684285Y-93368621D01*
X131888971Y-93164291D01*
X131999884Y-92897185D01*
X132000136Y-92607966D01*
X131889690Y-92340666D01*
X131685360Y-92135980D01*
X131590000Y-92096383D01*
X131590000Y-88972887D01*
X131617103Y-88961688D01*
X131821789Y-88757358D01*
X131932702Y-88490252D01*
X131932954Y-88201033D01*
X131822508Y-87933733D01*
X131618178Y-87729047D01*
X131351072Y-87618134D01*
X131100000Y-87617915D01*
X131100000Y-87360523D01*
X131339275Y-87261657D01*
X131543961Y-87057327D01*
X131654874Y-86790221D01*
X131655126Y-86501002D01*
X131544680Y-86233702D01*
X131340350Y-86029016D01*
X131073244Y-85918103D01*
X130784025Y-85917851D01*
X130516725Y-86028297D01*
X130312039Y-86232627D01*
X130201126Y-86499733D01*
X130201046Y-86591285D01*
X130157677Y-86634654D01*
X130038018Y-86813735D01*
X130007555Y-86966885D01*
X129996000Y-87024977D01*
X129996000Y-92864499D01*
X129382774Y-93477725D01*
X129292398Y-93477646D01*
X129025098Y-93588092D01*
X128820412Y-93792422D01*
X128709499Y-94059528D01*
X128709247Y-94348747D01*
X121265001Y-94348747D01*
X121265001Y-94120999D01*
X121222983Y-93909757D01*
X121103324Y-93730676D01*
X120950000Y-93577352D01*
X120950000Y-93252648D01*
X121103324Y-93099324D01*
X121222983Y-92920243D01*
X121265001Y-92709001D01*
X121265001Y-88698645D01*
X122414958Y-87548688D01*
X122505334Y-87548767D01*
X122772634Y-87438321D01*
X122977320Y-87233991D01*
X123088233Y-86966885D01*
X123088485Y-86677666D01*
X122978039Y-86410366D01*
X122773709Y-86205680D01*
X122506603Y-86094767D01*
X122217384Y-86094515D01*
X121950084Y-86204961D01*
X121745398Y-86409291D01*
X121634485Y-86676397D01*
X121634405Y-86767949D01*
X120529654Y-87872700D01*
X120742812Y-87553687D01*
X120840018Y-87065000D01*
X120742812Y-86576313D01*
X120465993Y-86162025D01*
X120051705Y-85885206D01*
X119598209Y-85795000D01*
X120051705Y-85704794D01*
X120465993Y-85427975D01*
X120742812Y-85013687D01*
X120840018Y-84525000D01*
X120759255Y-84118975D01*
X129140874Y-84118975D01*
X129251320Y-84386275D01*
X129455650Y-84590961D01*
X129722756Y-84701874D01*
X130011975Y-84702126D01*
X130279275Y-84591680D01*
X130483961Y-84387350D01*
X130594874Y-84120244D01*
X130594954Y-84028692D01*
X130658335Y-83965311D01*
X130777993Y-83786230D01*
X130777994Y-83786229D01*
X130820012Y-83574988D01*
X130820012Y-81751200D01*
X130883973Y-81687350D01*
X130994886Y-81420244D01*
X130995138Y-81131025D01*
X130884692Y-80863725D01*
X130680362Y-80659039D01*
X130413256Y-80548126D01*
X130124037Y-80547874D01*
X129856737Y-80658320D01*
X129652051Y-80862650D01*
X129541138Y-81129756D01*
X129540886Y-81418975D01*
X129651332Y-81686275D01*
X129716012Y-81751068D01*
X129716012Y-83251185D01*
X129456725Y-83358320D01*
X129252039Y-83562650D01*
X129141126Y-83829756D01*
X129140874Y-84118975D01*
X120759255Y-84118975D01*
X120742812Y-84036313D01*
X120465993Y-83622025D01*
X120051705Y-83345206D01*
X119598209Y-83255000D01*
X120051705Y-83164794D01*
X120465993Y-82887975D01*
X120742812Y-82473687D01*
X120840018Y-81985000D01*
X120742812Y-81496313D01*
X120465993Y-81082025D01*
X120051705Y-80805206D01*
X119598209Y-80715000D01*
X120051705Y-80624794D01*
X120465993Y-80347975D01*
X120742812Y-79933687D01*
X120840018Y-79445000D01*
X120742812Y-78956313D01*
X120465993Y-78542025D01*
X120051705Y-78265206D01*
X119598209Y-78175000D01*
X120051705Y-78084794D01*
X120465993Y-77807975D01*
X120742812Y-77393687D01*
X120840018Y-76905000D01*
X120742812Y-76416313D01*
X120465993Y-76002025D01*
X120051705Y-75725206D01*
X119598209Y-75635000D01*
X120051705Y-75544794D01*
X120465993Y-75267975D01*
X120742812Y-74853687D01*
X120840018Y-74365000D01*
X120742812Y-73876313D01*
X120465993Y-73462025D01*
X120051705Y-73185206D01*
X119675454Y-73110365D01*
X120388000Y-73110365D01*
X120554607Y-73077225D01*
X120695850Y-72982850D01*
X120790225Y-72841607D01*
X120823365Y-72675000D01*
X120823365Y-70975000D01*
X120790225Y-70808393D01*
X120695850Y-70667150D01*
X120554607Y-70572775D01*
X120388000Y-70539635D01*
X118688000Y-70539635D01*
X118643000Y-70548586D01*
X118598000Y-70539635D01*
X118240000Y-70539635D01*
X118240000Y-70527000D01*
X133740477Y-70527000D01*
X133724012Y-70530275D01*
M02*
