G04 #@! TF.GenerationSoftware,KiCad,Pcbnew,no-vcs-found-91ed3e2~59~ubuntu16.04.1*
G04 #@! TF.CreationDate,2017-10-23T14:28:14-03:00*
G04 #@! TF.ProjectId,ciaa-z3r0,636961612D7A3372302E6B696361645F,rev?*
G04 #@! TF.SameCoordinates,Original*
G04 #@! TF.FileFunction,Other,Fab,Bot*
%FSLAX46Y46*%
G04 Gerber Fmt 4.6, Leading zero omitted, Abs format (unit mm)*
G04 Created by KiCad (PCBNEW no-vcs-found-91ed3e2~59~ubuntu16.04.1) date Mon Oct 23 14:28:14 2017*
%MOMM*%
%LPD*%
G01*
G04 APERTURE LIST*
%ADD10C,0.100000*%
%ADD11C,0.150000*%
G04 APERTURE END LIST*
D10*
X120808000Y-71190000D02*
X120173000Y-70555000D01*
X120808000Y-121355000D02*
X120808000Y-71190000D01*
X118268000Y-121355000D02*
X120808000Y-121355000D01*
X118268000Y-70555000D02*
X118268000Y-121355000D01*
X120173000Y-70555000D02*
X118268000Y-70555000D01*
X135375619Y-70512500D02*
X133470619Y-70512500D01*
X133470619Y-70512500D02*
X133470619Y-121312500D01*
X133470619Y-121312500D02*
X136010619Y-121312500D01*
X136010619Y-121312500D02*
X136010619Y-71147500D01*
X136010619Y-71147500D02*
X135375619Y-70512500D01*
D11*
X118990380Y-95621666D02*
X119704666Y-95621666D01*
X119847523Y-95574047D01*
X119942761Y-95478809D01*
X119990380Y-95335952D01*
X119990380Y-95240714D01*
X119990380Y-96621666D02*
X119990380Y-96050238D01*
X119990380Y-96335952D02*
X118990380Y-96335952D01*
X119133238Y-96240714D01*
X119228476Y-96145476D01*
X119276095Y-96050238D01*
X134192999Y-95579166D02*
X134907285Y-95579166D01*
X135050142Y-95531547D01*
X135145380Y-95436309D01*
X135192999Y-95293452D01*
X135192999Y-95198214D01*
X134288238Y-96007738D02*
X134240619Y-96055357D01*
X134192999Y-96150595D01*
X134192999Y-96388690D01*
X134240619Y-96483928D01*
X134288238Y-96531547D01*
X134383476Y-96579166D01*
X134478714Y-96579166D01*
X134621571Y-96531547D01*
X135192999Y-95960119D01*
X135192999Y-96579166D01*
M02*
