G04 #@! TF.GenerationSoftware,KiCad,Pcbnew,no-vcs-found-91ed3e2~59~ubuntu16.04.1*
G04 #@! TF.CreationDate,2017-10-23T14:28:14-03:00*
G04 #@! TF.ProjectId,ciaa-z3r0,636961612D7A3372302E6B696361645F,rev?*
G04 #@! TF.SameCoordinates,Original*
G04 #@! TF.FileFunction,Copper,L1,Top,Signal*
G04 #@! TF.FilePolarity,Positive*
%FSLAX46Y46*%
G04 Gerber Fmt 4.6, Leading zero omitted, Abs format (unit mm)*
G04 Created by KiCad (PCBNEW no-vcs-found-91ed3e2~59~ubuntu16.04.1) date Mon Oct 23 14:28:14 2017*
%MOMM*%
%LPD*%
G01*
G04 APERTURE LIST*
%ADD10R,0.800000X0.750000*%
%ADD11R,0.750000X0.800000*%
%ADD12R,1.200000X1.200000*%
%ADD13R,0.800000X0.900000*%
%ADD14R,0.600000X0.800000*%
%ADD15O,1.700000X1.700000*%
%ADD16R,1.700000X1.700000*%
%ADD17R,0.450000X1.380000*%
%ADD18R,1.475000X2.100000*%
%ADD19R,2.375000X1.900000*%
%ADD20R,1.175000X1.900000*%
%ADD21R,1.000000X3.150000*%
%ADD22R,0.900000X0.500000*%
%ADD23R,0.500000X0.900000*%
%ADD24R,1.600000X2.000000*%
%ADD25C,0.250000*%
%ADD26C,0.150000*%
%ADD27R,0.650000X1.060000*%
%ADD28C,0.600000*%
%ADD29C,0.500000*%
%ADD30C,0.600000*%
%ADD31C,0.250000*%
%ADD32C,0.254000*%
%ADD33C,0.400000*%
G04 APERTURE END LIST*
D10*
X128528000Y-111555000D03*
X127028000Y-111555000D03*
D11*
X121588000Y-99805000D03*
X121588000Y-101305000D03*
X122318000Y-90525000D03*
X122318000Y-92025000D03*
X130928000Y-100885000D03*
X130928000Y-102385000D03*
X132748000Y-100585000D03*
X132748000Y-99085000D03*
X131468000Y-91785000D03*
X131468000Y-90285000D03*
X127788000Y-86145000D03*
X127788000Y-87645000D03*
X132778000Y-91775000D03*
X132778000Y-90275000D03*
D10*
X132808000Y-88975000D03*
X131308000Y-88975000D03*
X130848000Y-83465000D03*
X132348000Y-83465000D03*
D11*
X132988000Y-76295000D03*
X132988000Y-74795000D03*
X129188000Y-86145000D03*
X129188000Y-87645000D03*
D12*
X126803001Y-116732500D03*
X126803001Y-118932500D03*
D13*
X132468000Y-71345000D03*
X130568000Y-71345000D03*
X131518000Y-73345000D03*
D12*
X128573001Y-118932500D03*
X128573001Y-116732500D03*
D14*
X131208000Y-81715000D03*
X132908000Y-81715000D03*
D15*
X119538000Y-120085000D03*
X119538000Y-117545000D03*
X119538000Y-115005000D03*
X119538000Y-112465000D03*
X119538000Y-109925000D03*
X119538000Y-107385000D03*
X119538000Y-104845000D03*
X119538000Y-102305000D03*
X119538000Y-99765000D03*
X119538000Y-97225000D03*
X119538000Y-94685000D03*
X119538000Y-92145000D03*
X119538000Y-89605000D03*
X119538000Y-87065000D03*
X119538000Y-84525000D03*
X119538000Y-81985000D03*
X119538000Y-79445000D03*
X119538000Y-76905000D03*
X119538000Y-74365000D03*
D16*
X119538000Y-71825000D03*
X134740619Y-71782500D03*
D15*
X134740619Y-74322500D03*
X134740619Y-76862500D03*
X134740619Y-79402500D03*
X134740619Y-81942500D03*
X134740619Y-84482500D03*
X134740619Y-87022500D03*
X134740619Y-89562500D03*
X134740619Y-92102500D03*
X134740619Y-94642500D03*
X134740619Y-97182500D03*
X134740619Y-99722500D03*
X134740619Y-102262500D03*
X134740619Y-104802500D03*
X134740619Y-107342500D03*
X134740619Y-109882500D03*
X134740619Y-112422500D03*
X134740619Y-114962500D03*
X134740619Y-117502500D03*
X134740619Y-120042500D03*
D17*
X126368000Y-74385000D03*
X125718000Y-74385000D03*
X125068000Y-74385000D03*
X124418000Y-74385000D03*
X123768000Y-74385000D03*
D18*
X127530500Y-74025000D03*
X122605500Y-74025000D03*
D19*
X127978000Y-71725000D03*
X122158000Y-71725000D03*
D20*
X125908000Y-71725000D03*
X124228000Y-71725000D03*
D21*
X124628000Y-78940000D03*
X124628000Y-83990000D03*
X122088000Y-78940000D03*
X122088000Y-83990000D03*
D15*
X136538000Y-120035000D03*
X136538000Y-117495000D03*
X136538000Y-114955000D03*
X136538000Y-112415000D03*
X136538000Y-109875000D03*
X136538000Y-107335000D03*
X136538000Y-104795000D03*
X136538000Y-102255000D03*
X136538000Y-99715000D03*
X136538000Y-97175000D03*
X136538000Y-94635000D03*
X136538000Y-92095000D03*
X136538000Y-89555000D03*
X136538000Y-87015000D03*
X136538000Y-84475000D03*
X136538000Y-81935000D03*
X136538000Y-79395000D03*
X136538000Y-76855000D03*
X136538000Y-74315000D03*
D16*
X136538000Y-71775000D03*
X117748000Y-71825000D03*
D15*
X117748000Y-74365000D03*
X117748000Y-76905000D03*
X117748000Y-79445000D03*
X117748000Y-81985000D03*
X117748000Y-84525000D03*
X117748000Y-87065000D03*
X117748000Y-89605000D03*
X117748000Y-92145000D03*
X117748000Y-94685000D03*
X117748000Y-97225000D03*
X117748000Y-99765000D03*
X117748000Y-102305000D03*
X117748000Y-104845000D03*
X117748000Y-107385000D03*
X117748000Y-109925000D03*
X117748000Y-112465000D03*
X117748000Y-115005000D03*
X117748000Y-117545000D03*
X117748000Y-120085000D03*
D22*
X127288000Y-82925000D03*
X127288000Y-81425000D03*
X129318000Y-81415000D03*
X129318000Y-82915000D03*
X126808000Y-115385000D03*
X126808000Y-113885000D03*
D23*
X128548000Y-110035000D03*
X127048000Y-110035000D03*
X124688000Y-110105000D03*
X123188000Y-110105000D03*
D22*
X128588000Y-113875000D03*
X128588000Y-115375000D03*
D24*
X131698000Y-120255000D03*
X131698000Y-114855000D03*
X123818000Y-114805000D03*
X123818000Y-120205000D03*
D25*
X121837542Y-95083629D03*
D26*
G36*
X122385550Y-95454860D02*
X122208773Y-95631637D01*
X121289534Y-94712398D01*
X121466311Y-94535621D01*
X122385550Y-95454860D01*
X122385550Y-95454860D01*
G37*
D25*
X122191095Y-94730076D03*
D26*
G36*
X122739103Y-95101307D02*
X122562326Y-95278084D01*
X121643087Y-94358845D01*
X121819864Y-94182068D01*
X122739103Y-95101307D01*
X122739103Y-95101307D01*
G37*
D25*
X122544649Y-94376522D03*
D26*
G36*
X123092657Y-94747753D02*
X122915880Y-94924530D01*
X121996641Y-94005291D01*
X122173418Y-93828514D01*
X123092657Y-94747753D01*
X123092657Y-94747753D01*
G37*
D25*
X122898202Y-94022969D03*
D26*
G36*
X123446210Y-94394200D02*
X123269433Y-94570977D01*
X122350194Y-93651738D01*
X122526971Y-93474961D01*
X123446210Y-94394200D01*
X123446210Y-94394200D01*
G37*
D25*
X123251755Y-93669416D03*
D26*
G36*
X123799763Y-94040647D02*
X123622986Y-94217424D01*
X122703747Y-93298185D01*
X122880524Y-93121408D01*
X123799763Y-94040647D01*
X123799763Y-94040647D01*
G37*
D25*
X123605309Y-93315862D03*
D26*
G36*
X124153317Y-93687093D02*
X123976540Y-93863870D01*
X123057301Y-92944631D01*
X123234078Y-92767854D01*
X124153317Y-93687093D01*
X124153317Y-93687093D01*
G37*
D25*
X123958862Y-92962309D03*
D26*
G36*
X124506870Y-93333540D02*
X124330093Y-93510317D01*
X123410854Y-92591078D01*
X123587631Y-92414301D01*
X124506870Y-93333540D01*
X124506870Y-93333540D01*
G37*
D25*
X124312416Y-92608755D03*
D26*
G36*
X124860424Y-92979986D02*
X124683647Y-93156763D01*
X123764408Y-92237524D01*
X123941185Y-92060747D01*
X124860424Y-92979986D01*
X124860424Y-92979986D01*
G37*
D25*
X124665969Y-92255202D03*
D26*
G36*
X125213977Y-92626433D02*
X125037200Y-92803210D01*
X124117961Y-91883971D01*
X124294738Y-91707194D01*
X125213977Y-92626433D01*
X125213977Y-92626433D01*
G37*
D25*
X125019522Y-91901649D03*
D26*
G36*
X125567530Y-92272880D02*
X125390753Y-92449657D01*
X124471514Y-91530418D01*
X124648291Y-91353641D01*
X125567530Y-92272880D01*
X125567530Y-92272880D01*
G37*
D25*
X125373076Y-91548095D03*
D26*
G36*
X125921084Y-91919326D02*
X125744307Y-92096103D01*
X124825068Y-91176864D01*
X125001845Y-91000087D01*
X125921084Y-91919326D01*
X125921084Y-91919326D01*
G37*
D25*
X125726629Y-91194542D03*
D26*
G36*
X126274637Y-91565773D02*
X126097860Y-91742550D01*
X125178621Y-90823311D01*
X125355398Y-90646534D01*
X126274637Y-91565773D01*
X126274637Y-91565773D01*
G37*
D25*
X127989371Y-91194542D03*
D26*
G36*
X127618140Y-91742550D02*
X127441363Y-91565773D01*
X128360602Y-90646534D01*
X128537379Y-90823311D01*
X127618140Y-91742550D01*
X127618140Y-91742550D01*
G37*
D25*
X128342924Y-91548095D03*
D26*
G36*
X127971693Y-92096103D02*
X127794916Y-91919326D01*
X128714155Y-91000087D01*
X128890932Y-91176864D01*
X127971693Y-92096103D01*
X127971693Y-92096103D01*
G37*
D25*
X128696478Y-91901649D03*
D26*
G36*
X128325247Y-92449657D02*
X128148470Y-92272880D01*
X129067709Y-91353641D01*
X129244486Y-91530418D01*
X128325247Y-92449657D01*
X128325247Y-92449657D01*
G37*
D25*
X129050031Y-92255202D03*
D26*
G36*
X128678800Y-92803210D02*
X128502023Y-92626433D01*
X129421262Y-91707194D01*
X129598039Y-91883971D01*
X128678800Y-92803210D01*
X128678800Y-92803210D01*
G37*
D25*
X129403584Y-92608755D03*
D26*
G36*
X129032353Y-93156763D02*
X128855576Y-92979986D01*
X129774815Y-92060747D01*
X129951592Y-92237524D01*
X129032353Y-93156763D01*
X129032353Y-93156763D01*
G37*
D25*
X129757138Y-92962309D03*
D26*
G36*
X129385907Y-93510317D02*
X129209130Y-93333540D01*
X130128369Y-92414301D01*
X130305146Y-92591078D01*
X129385907Y-93510317D01*
X129385907Y-93510317D01*
G37*
D25*
X130110691Y-93315862D03*
D26*
G36*
X129739460Y-93863870D02*
X129562683Y-93687093D01*
X130481922Y-92767854D01*
X130658699Y-92944631D01*
X129739460Y-93863870D01*
X129739460Y-93863870D01*
G37*
D25*
X130464245Y-93669416D03*
D26*
G36*
X130093014Y-94217424D02*
X129916237Y-94040647D01*
X130835476Y-93121408D01*
X131012253Y-93298185D01*
X130093014Y-94217424D01*
X130093014Y-94217424D01*
G37*
D25*
X130817798Y-94022969D03*
D26*
G36*
X130446567Y-94570977D02*
X130269790Y-94394200D01*
X131189029Y-93474961D01*
X131365806Y-93651738D01*
X130446567Y-94570977D01*
X130446567Y-94570977D01*
G37*
D25*
X131171351Y-94376522D03*
D26*
G36*
X130800120Y-94924530D02*
X130623343Y-94747753D01*
X131542582Y-93828514D01*
X131719359Y-94005291D01*
X130800120Y-94924530D01*
X130800120Y-94924530D01*
G37*
D25*
X131524905Y-94730076D03*
D26*
G36*
X131153674Y-95278084D02*
X130976897Y-95101307D01*
X131896136Y-94182068D01*
X132072913Y-94358845D01*
X131153674Y-95278084D01*
X131153674Y-95278084D01*
G37*
D25*
X131878458Y-95083629D03*
D26*
G36*
X131507227Y-95631637D02*
X131330450Y-95454860D01*
X132249689Y-94535621D01*
X132426466Y-94712398D01*
X131507227Y-95631637D01*
X131507227Y-95631637D01*
G37*
D25*
X131878458Y-97346371D03*
D26*
G36*
X132426466Y-97717602D02*
X132249689Y-97894379D01*
X131330450Y-96975140D01*
X131507227Y-96798363D01*
X132426466Y-97717602D01*
X132426466Y-97717602D01*
G37*
D25*
X131524905Y-97699924D03*
D26*
G36*
X132072913Y-98071155D02*
X131896136Y-98247932D01*
X130976897Y-97328693D01*
X131153674Y-97151916D01*
X132072913Y-98071155D01*
X132072913Y-98071155D01*
G37*
D25*
X131171351Y-98053478D03*
D26*
G36*
X131719359Y-98424709D02*
X131542582Y-98601486D01*
X130623343Y-97682247D01*
X130800120Y-97505470D01*
X131719359Y-98424709D01*
X131719359Y-98424709D01*
G37*
D25*
X130817798Y-98407031D03*
D26*
G36*
X131365806Y-98778262D02*
X131189029Y-98955039D01*
X130269790Y-98035800D01*
X130446567Y-97859023D01*
X131365806Y-98778262D01*
X131365806Y-98778262D01*
G37*
D25*
X130464245Y-98760584D03*
D26*
G36*
X131012253Y-99131815D02*
X130835476Y-99308592D01*
X129916237Y-98389353D01*
X130093014Y-98212576D01*
X131012253Y-99131815D01*
X131012253Y-99131815D01*
G37*
D25*
X130110691Y-99114138D03*
D26*
G36*
X130658699Y-99485369D02*
X130481922Y-99662146D01*
X129562683Y-98742907D01*
X129739460Y-98566130D01*
X130658699Y-99485369D01*
X130658699Y-99485369D01*
G37*
D25*
X129757138Y-99467691D03*
D26*
G36*
X130305146Y-99838922D02*
X130128369Y-100015699D01*
X129209130Y-99096460D01*
X129385907Y-98919683D01*
X130305146Y-99838922D01*
X130305146Y-99838922D01*
G37*
D25*
X129403584Y-99821245D03*
D26*
G36*
X129951592Y-100192476D02*
X129774815Y-100369253D01*
X128855576Y-99450014D01*
X129032353Y-99273237D01*
X129951592Y-100192476D01*
X129951592Y-100192476D01*
G37*
D25*
X129050031Y-100174798D03*
D26*
G36*
X129598039Y-100546029D02*
X129421262Y-100722806D01*
X128502023Y-99803567D01*
X128678800Y-99626790D01*
X129598039Y-100546029D01*
X129598039Y-100546029D01*
G37*
D25*
X128696478Y-100528351D03*
D26*
G36*
X129244486Y-100899582D02*
X129067709Y-101076359D01*
X128148470Y-100157120D01*
X128325247Y-99980343D01*
X129244486Y-100899582D01*
X129244486Y-100899582D01*
G37*
D25*
X128342924Y-100881905D03*
D26*
G36*
X128890932Y-101253136D02*
X128714155Y-101429913D01*
X127794916Y-100510674D01*
X127971693Y-100333897D01*
X128890932Y-101253136D01*
X128890932Y-101253136D01*
G37*
D25*
X127989371Y-101235458D03*
D26*
G36*
X128537379Y-101606689D02*
X128360602Y-101783466D01*
X127441363Y-100864227D01*
X127618140Y-100687450D01*
X128537379Y-101606689D01*
X128537379Y-101606689D01*
G37*
D25*
X125726629Y-101235458D03*
D26*
G36*
X125355398Y-101783466D02*
X125178621Y-101606689D01*
X126097860Y-100687450D01*
X126274637Y-100864227D01*
X125355398Y-101783466D01*
X125355398Y-101783466D01*
G37*
D25*
X125373076Y-100881905D03*
D26*
G36*
X125001845Y-101429913D02*
X124825068Y-101253136D01*
X125744307Y-100333897D01*
X125921084Y-100510674D01*
X125001845Y-101429913D01*
X125001845Y-101429913D01*
G37*
D25*
X125019522Y-100528351D03*
D26*
G36*
X124648291Y-101076359D02*
X124471514Y-100899582D01*
X125390753Y-99980343D01*
X125567530Y-100157120D01*
X124648291Y-101076359D01*
X124648291Y-101076359D01*
G37*
D25*
X124665969Y-100174798D03*
D26*
G36*
X124294738Y-100722806D02*
X124117961Y-100546029D01*
X125037200Y-99626790D01*
X125213977Y-99803567D01*
X124294738Y-100722806D01*
X124294738Y-100722806D01*
G37*
D25*
X124312416Y-99821245D03*
D26*
G36*
X123941185Y-100369253D02*
X123764408Y-100192476D01*
X124683647Y-99273237D01*
X124860424Y-99450014D01*
X123941185Y-100369253D01*
X123941185Y-100369253D01*
G37*
D25*
X123958862Y-99467691D03*
D26*
G36*
X123587631Y-100015699D02*
X123410854Y-99838922D01*
X124330093Y-98919683D01*
X124506870Y-99096460D01*
X123587631Y-100015699D01*
X123587631Y-100015699D01*
G37*
D25*
X123605309Y-99114138D03*
D26*
G36*
X123234078Y-99662146D02*
X123057301Y-99485369D01*
X123976540Y-98566130D01*
X124153317Y-98742907D01*
X123234078Y-99662146D01*
X123234078Y-99662146D01*
G37*
D25*
X123251755Y-98760584D03*
D26*
G36*
X122880524Y-99308592D02*
X122703747Y-99131815D01*
X123622986Y-98212576D01*
X123799763Y-98389353D01*
X122880524Y-99308592D01*
X122880524Y-99308592D01*
G37*
D25*
X122898202Y-98407031D03*
D26*
G36*
X122526971Y-98955039D02*
X122350194Y-98778262D01*
X123269433Y-97859023D01*
X123446210Y-98035800D01*
X122526971Y-98955039D01*
X122526971Y-98955039D01*
G37*
D25*
X122544649Y-98053478D03*
D26*
G36*
X122173418Y-98601486D02*
X121996641Y-98424709D01*
X122915880Y-97505470D01*
X123092657Y-97682247D01*
X122173418Y-98601486D01*
X122173418Y-98601486D01*
G37*
D25*
X122191095Y-97699924D03*
D26*
G36*
X121819864Y-98247932D02*
X121643087Y-98071155D01*
X122562326Y-97151916D01*
X122739103Y-97328693D01*
X121819864Y-98247932D01*
X121819864Y-98247932D01*
G37*
D25*
X121837542Y-97346371D03*
D26*
G36*
X121466311Y-97894379D02*
X121289534Y-97717602D01*
X122208773Y-96798363D01*
X122385550Y-96975140D01*
X121466311Y-97894379D01*
X121466311Y-97894379D01*
G37*
D27*
X132748000Y-77825000D03*
X131798000Y-77825000D03*
X130848000Y-77825000D03*
X130848000Y-80025000D03*
X132748000Y-80025000D03*
X127288000Y-80005000D03*
X128238000Y-80005000D03*
X129188000Y-80005000D03*
X129188000Y-77805000D03*
X127288000Y-77805000D03*
X128238000Y-77805000D03*
D28*
X126168000Y-111545000D03*
X131788000Y-76945000D03*
X133038000Y-82875000D03*
X121998000Y-89785000D03*
X121762934Y-102085000D03*
X124628000Y-82155000D03*
X132118000Y-90275000D03*
X132808000Y-89555000D03*
X128478000Y-86145000D03*
X123758000Y-75395000D03*
X131273010Y-92751941D03*
X131205828Y-88345008D03*
X133364181Y-93924292D03*
X133398373Y-93125011D03*
X132490597Y-84395000D03*
X130928000Y-86644977D03*
X128778000Y-109035000D03*
X122361359Y-86821641D03*
X130268012Y-81275000D03*
X129868000Y-83975000D03*
X128258000Y-80895000D03*
X124126059Y-98063059D03*
X124126059Y-98063059D03*
X123978000Y-94665000D03*
X128818000Y-98795000D03*
X131668000Y-102345000D03*
X132728000Y-101330000D03*
X129436373Y-94204772D03*
X131088000Y-108235000D03*
X131089090Y-104802500D03*
D29*
X132988000Y-76295000D02*
X132248002Y-76295000D01*
X132248002Y-76295000D02*
X131518000Y-75564998D01*
X131518000Y-75564998D02*
X131518000Y-73345000D01*
X132748000Y-77275000D02*
X132988000Y-77035000D01*
X132988000Y-77035000D02*
X132988000Y-76775000D01*
X132748000Y-77825000D02*
X132748000Y-77275000D01*
X132988000Y-76295000D02*
X132988000Y-76775000D01*
D30*
X132523001Y-78855001D02*
X131718000Y-78855001D01*
X131718000Y-78855001D02*
X131072999Y-78855001D01*
D29*
X131248000Y-81715000D02*
X131718000Y-81245000D01*
X131718000Y-81245000D02*
X131718000Y-78855001D01*
X131208000Y-81715000D02*
X131248000Y-81715000D01*
D30*
X132748000Y-77825000D02*
X132748000Y-78630002D01*
X132748000Y-78630002D02*
X132523001Y-78855001D01*
X130859474Y-78641476D02*
X130859474Y-77836474D01*
X131072999Y-78855001D02*
X130859474Y-78641476D01*
X130859474Y-77836474D02*
X130848000Y-77825000D01*
D31*
X126178000Y-111555000D02*
X126168000Y-111545000D01*
X127028000Y-111555000D02*
X126178000Y-111555000D01*
D30*
X134740619Y-74322500D02*
X133460500Y-74322500D01*
X133460500Y-74322500D02*
X132988000Y-74795000D01*
D31*
X131798000Y-77825000D02*
X131798000Y-76955000D01*
X131798000Y-76955000D02*
X131788000Y-76945000D01*
X133003000Y-82840000D02*
X133038000Y-82875000D01*
X132373000Y-83465000D02*
X132998000Y-82840000D01*
X132998000Y-82840000D02*
X133003000Y-82840000D01*
X132348000Y-83465000D02*
X132373000Y-83465000D01*
X122318000Y-89875000D02*
X122228000Y-89785000D01*
X122318000Y-90525000D02*
X122318000Y-89875000D01*
X122228000Y-89785000D02*
X121998000Y-89785000D01*
X121588000Y-101305000D02*
X121588000Y-101910066D01*
X121588000Y-101910066D02*
X121762934Y-102085000D01*
X124608000Y-84110000D02*
X124608000Y-82175000D01*
X124608000Y-82175000D02*
X124628000Y-82155000D01*
D30*
X134740619Y-74322500D02*
X136530500Y-74322500D01*
X136530500Y-74322500D02*
X136538000Y-74315000D01*
D31*
X132118000Y-90275000D02*
X131478000Y-90275000D01*
X132778000Y-90275000D02*
X132118000Y-90275000D01*
X132808000Y-89555000D02*
X132808000Y-90245000D01*
X132808000Y-88975000D02*
X132808000Y-89555000D01*
X128478000Y-86145000D02*
X129188000Y-86145000D01*
X127788000Y-86145000D02*
X128478000Y-86145000D01*
X131478000Y-90275000D02*
X131468000Y-90285000D01*
X132808000Y-90245000D02*
X132778000Y-90275000D01*
X123768000Y-74385000D02*
X123768000Y-75385000D01*
X123768000Y-75385000D02*
X123758000Y-75395000D01*
D29*
X125417998Y-113539998D02*
X125753000Y-113875000D01*
X125417998Y-110460002D02*
X125417998Y-113539998D01*
X125753000Y-110125000D02*
X125417998Y-110460002D01*
D31*
X127048000Y-110035000D02*
X125843000Y-110035000D01*
X125843000Y-110035000D02*
X125753000Y-110125000D01*
D29*
X125753000Y-108390000D02*
X125753000Y-110125000D01*
D31*
X124688000Y-110105000D02*
X125733000Y-110105000D01*
X125733000Y-110105000D02*
X125753000Y-110125000D01*
D29*
X132908000Y-81145000D02*
X132838000Y-81145000D01*
X132838000Y-81145000D02*
X132748000Y-81055000D01*
X132748000Y-81055000D02*
X132748000Y-80025000D01*
X132908000Y-81715000D02*
X132908000Y-81145000D01*
X132128000Y-82595000D02*
X131187998Y-82595000D01*
X131187998Y-82595000D02*
X130848000Y-82934998D01*
X132908000Y-81715000D02*
X132908000Y-81815000D01*
X132908000Y-81815000D02*
X132128000Y-82595000D01*
X126348011Y-82204989D02*
X126427999Y-82125001D01*
X126427999Y-82125001D02*
X130038003Y-82125001D01*
X130038003Y-82125001D02*
X130848000Y-82934998D01*
X130848000Y-82934998D02*
X130848000Y-83465000D01*
D30*
X134740619Y-114962500D02*
X136530500Y-114962500D01*
X136530500Y-114962500D02*
X136538000Y-114955000D01*
D29*
X132398000Y-117855000D02*
X133468000Y-116785000D01*
X133468000Y-116785000D02*
X133468000Y-115315000D01*
X125753000Y-113875000D02*
X125753000Y-117692501D01*
X125753000Y-117692501D02*
X125915499Y-117855000D01*
X133468000Y-115315000D02*
X133820500Y-114962500D01*
X125915499Y-117855000D02*
X132398000Y-117855000D01*
X133820500Y-114962500D02*
X134740619Y-114962500D01*
X126868000Y-107215000D02*
X126868000Y-107275000D01*
X126868000Y-107275000D02*
X125753000Y-108390000D01*
X126868000Y-96605000D02*
X126868000Y-107215000D01*
X125763000Y-113885000D02*
X125753000Y-113875000D01*
X126808000Y-113885000D02*
X125763000Y-113885000D01*
D31*
X122898202Y-98407031D02*
X121588000Y-99717233D01*
X121588000Y-99717233D02*
X121588000Y-99805000D01*
D29*
X125850989Y-89277989D02*
X126991353Y-90418353D01*
X125850989Y-86240201D02*
X125850989Y-89277989D01*
X126348011Y-82204989D02*
X126028012Y-82524988D01*
D32*
X125973989Y-82950409D02*
X126736399Y-82187999D01*
D29*
X126991353Y-96001647D02*
X126868000Y-96125000D01*
D32*
X127114353Y-93711353D02*
X127114353Y-90043421D01*
X129575767Y-95265000D02*
X128668000Y-95265000D01*
D29*
X126991353Y-90418353D02*
X126991353Y-96001647D01*
D32*
X130817798Y-94022969D02*
X129575767Y-95265000D01*
X125973989Y-88903057D02*
X125973989Y-82950409D01*
D29*
X126028012Y-82524988D02*
X126028012Y-86063178D01*
D32*
X128668000Y-95265000D02*
X127114353Y-93711353D01*
D29*
X126028012Y-86063178D02*
X125850989Y-86240201D01*
D32*
X127114353Y-90043421D02*
X125973989Y-88903057D01*
D31*
X128238000Y-77805000D02*
X128238000Y-78295002D01*
X128238000Y-78295002D02*
X127383003Y-79149999D01*
X127383003Y-79149999D02*
X126702999Y-79149999D01*
X126702999Y-79149999D02*
X126348011Y-79504987D01*
X126348011Y-79504987D02*
X126348011Y-82204989D01*
D30*
X134740619Y-76862500D02*
X136530500Y-76862500D01*
X136530500Y-76862500D02*
X136538000Y-76855000D01*
D33*
X132748000Y-79820000D02*
X133473000Y-79095000D01*
X133473000Y-79095000D02*
X133473000Y-78680000D01*
X133473000Y-78680000D02*
X134000501Y-78152499D01*
X134000501Y-78152499D02*
X134652701Y-78152499D01*
X134652701Y-78152499D02*
X134740619Y-78064581D01*
X134740619Y-78064581D02*
X134740619Y-76862500D01*
D32*
X132778000Y-91775000D02*
X132128000Y-91775000D01*
X132128000Y-91775000D02*
X131918000Y-91775000D01*
D31*
X130817798Y-94022969D02*
X131444584Y-93396183D01*
X131444584Y-93396183D02*
X131553773Y-93396183D01*
X131553773Y-93396183D02*
X132128000Y-92821956D01*
X132128000Y-92821956D02*
X132128000Y-91775000D01*
D32*
X131918000Y-91775000D02*
X131908000Y-91785000D01*
X131908000Y-91785000D02*
X131468000Y-91785000D01*
D33*
X126868000Y-95835000D02*
X126868000Y-96125000D01*
X126868000Y-96125000D02*
X126868000Y-96605000D01*
X126868000Y-95065000D02*
X126868000Y-95475000D01*
X126868000Y-95475000D02*
X126868000Y-95835000D01*
D31*
X130464245Y-93669416D02*
X131273010Y-92860651D01*
X131273010Y-92860651D02*
X131273010Y-92751941D01*
X131308000Y-88350000D02*
X131303008Y-88345008D01*
X131308000Y-88975000D02*
X131308000Y-88350000D01*
X131303008Y-88345008D02*
X131205828Y-88345008D01*
X134740619Y-94760987D02*
X134740619Y-94642500D01*
X131878458Y-97346371D02*
X132155235Y-97346371D01*
X132155235Y-97346371D02*
X134740619Y-94760987D01*
X131878458Y-95083629D02*
X133037795Y-93924292D01*
X133037795Y-93924292D02*
X133342681Y-93924292D01*
X133342681Y-93924292D02*
X133364181Y-93924292D01*
X131524905Y-94730076D02*
X133129970Y-93125011D01*
X133129970Y-93125011D02*
X133398373Y-93125011D01*
X133565618Y-88998499D02*
X133578000Y-88986117D01*
X133578000Y-88185119D02*
X133890620Y-87872499D01*
X133578000Y-88986117D02*
X133578000Y-88185119D01*
X133565618Y-92305996D02*
X133565618Y-88998499D01*
X133371613Y-92500001D02*
X133565618Y-92305996D01*
X133092655Y-92500001D02*
X133371613Y-92500001D01*
X131171351Y-94376522D02*
X131701680Y-93846193D01*
X131701680Y-93846193D02*
X131746463Y-93846193D01*
X133890620Y-87872499D02*
X134740619Y-87022500D01*
X131746463Y-93846193D02*
X133092655Y-92500001D01*
X132490597Y-84819264D02*
X132490597Y-84395000D01*
X130928000Y-86644977D02*
X132490597Y-85082380D01*
X132490597Y-85082380D02*
X132490597Y-84819264D01*
X131576920Y-87719998D02*
X133565618Y-85731300D01*
X130572999Y-89481516D02*
X130572999Y-88044999D01*
X130767999Y-89676516D02*
X130572999Y-89481516D01*
X133565618Y-85731300D02*
X133565618Y-83988797D01*
X130897998Y-87719998D02*
X131576920Y-87719998D01*
X130572999Y-88044999D02*
X130897998Y-87719998D01*
X133565618Y-83988797D02*
X134740619Y-82813796D01*
X130767999Y-91951448D02*
X130767999Y-89676516D01*
X134740619Y-82813796D02*
X134740619Y-81942500D01*
X129757138Y-92962309D02*
X130767999Y-91951448D01*
X133890620Y-80252499D02*
X134740619Y-79402500D01*
X133565618Y-80577501D02*
X133890620Y-80252499D01*
X133565618Y-82517614D02*
X133565618Y-80577501D01*
X133663002Y-82614998D02*
X133565618Y-82517614D01*
X133663002Y-83184705D02*
X133663002Y-82614998D01*
X133115607Y-83732099D02*
X133663002Y-83184705D01*
X131390520Y-87269987D02*
X133115607Y-85544900D01*
X129403584Y-92608755D02*
X130317986Y-91694353D01*
X130711598Y-87269987D02*
X131390520Y-87269987D01*
X130122988Y-87858597D02*
X130711598Y-87269987D01*
X130317986Y-89862923D02*
X130122988Y-89667925D01*
X133115607Y-85544900D02*
X133115607Y-83732099D01*
X130317986Y-91694353D02*
X130317986Y-89862923D01*
X130122988Y-89667925D02*
X130122988Y-87858597D01*
X124628000Y-78940000D02*
X124628000Y-78420002D01*
X124628000Y-78420002D02*
X120713001Y-74505003D01*
X120713001Y-74505003D02*
X120713001Y-73000001D01*
X120713001Y-73000001D02*
X119538000Y-71825000D01*
X125453002Y-81700002D02*
X124628000Y-80875000D01*
X124628000Y-80875000D02*
X124628000Y-78940000D01*
X125268055Y-88932999D02*
X125270001Y-88932999D01*
X125270001Y-88932999D02*
X125275979Y-88927021D01*
X125275979Y-88927021D02*
X125275979Y-85890001D01*
X125275979Y-85890001D02*
X125453002Y-85712978D01*
X125453002Y-85712978D02*
X125453002Y-81700002D01*
X125726629Y-91194542D02*
X125707542Y-91194542D01*
X125707542Y-91194542D02*
X125268055Y-90755055D01*
X125268055Y-90755055D02*
X125268055Y-88932999D01*
X125268055Y-88932999D02*
X125257999Y-88922943D01*
X119538000Y-72445000D02*
X119538000Y-71825000D01*
X122088000Y-78940000D02*
X122088000Y-76915000D01*
X122088000Y-76915000D02*
X119538000Y-74365000D01*
X124818045Y-89119399D02*
X124807987Y-89109341D01*
X124807987Y-89109341D02*
X124807987Y-87184987D01*
X124807987Y-87184987D02*
X123637999Y-86014999D01*
X123637999Y-86014999D02*
X123637999Y-81564999D01*
X123637999Y-81564999D02*
X122088000Y-80015000D01*
X122088000Y-80015000D02*
X122088000Y-78940000D01*
X119538000Y-75075000D02*
X119538000Y-74365000D01*
X119538000Y-76905000D02*
X120948000Y-78315000D01*
X120948000Y-78315000D02*
X120948000Y-80875000D01*
X123187989Y-86819267D02*
X124357977Y-87989255D01*
X120948000Y-80875000D02*
X122161599Y-82088599D01*
X122161599Y-82088599D02*
X122821599Y-82088599D01*
X124357977Y-89295742D02*
X124368034Y-89305799D01*
X122821599Y-82088599D02*
X123187989Y-82454989D01*
X124368034Y-89305799D02*
X124368034Y-91250161D01*
X123187989Y-82454989D02*
X123187989Y-86819267D01*
X124357977Y-87989255D02*
X124357977Y-89295742D01*
X124368034Y-91250161D02*
X124489193Y-91371320D01*
X124489193Y-91371320D02*
X125019522Y-91901649D01*
X123918023Y-89398613D02*
X121613023Y-87093613D01*
X120387999Y-81095997D02*
X120387999Y-80294999D01*
X120387999Y-80294999D02*
X119538000Y-79445000D01*
X121613023Y-87093613D02*
X121613023Y-86128199D01*
X121163012Y-81871010D02*
X120387999Y-81095997D01*
X124665969Y-92255202D02*
X123918023Y-91507256D01*
X121163012Y-85678188D02*
X121163012Y-81871010D01*
X123918023Y-91507256D02*
X123918023Y-89398613D01*
X121613023Y-86128199D02*
X121163012Y-85678188D01*
X120387999Y-82834999D02*
X119538000Y-81985000D01*
X120713001Y-83160001D02*
X120387999Y-82834999D01*
X120713001Y-85864588D02*
X120713001Y-83160001D01*
X121163012Y-87280012D02*
X121163012Y-86314599D01*
X124312416Y-92608755D02*
X123468012Y-91764351D01*
X123468012Y-91764351D02*
X123468012Y-89585012D01*
X121163012Y-86314599D02*
X120713001Y-85864588D01*
X123468012Y-89585012D02*
X121163012Y-87280012D01*
X120713001Y-86501000D02*
X119538000Y-85325998D01*
X120713001Y-87504997D02*
X120713001Y-86501000D01*
X123018001Y-92021448D02*
X123018001Y-89809997D01*
X119538000Y-85325998D02*
X119538000Y-84525000D01*
X123958862Y-92962309D02*
X123018001Y-92021448D01*
X123018001Y-89809997D02*
X120713001Y-87504997D01*
X121362998Y-88889998D02*
X120387999Y-87914999D01*
X120387999Y-87914999D02*
X119538000Y-87065000D01*
X122898202Y-94022969D02*
X121362998Y-92487765D01*
X121362998Y-92487765D02*
X121362998Y-88889998D01*
X122544649Y-94376522D02*
X120778000Y-92609873D01*
X120778000Y-92609873D02*
X120778000Y-90845000D01*
X120778000Y-90845000D02*
X120387999Y-90454999D01*
X120387999Y-90454999D02*
X119538000Y-89605000D01*
X123818000Y-114805000D02*
X122768000Y-114805000D01*
X122768000Y-114805000D02*
X122165801Y-114202801D01*
X122165801Y-114202801D02*
X121613019Y-114202801D01*
X122063029Y-109945611D02*
X122063029Y-110175000D01*
X123188000Y-110105000D02*
X122133029Y-110105000D01*
X122063029Y-110175000D02*
X122063029Y-111048203D01*
X122133029Y-110105000D02*
X122063029Y-110175000D01*
X133890620Y-113272499D02*
X134740619Y-112422500D01*
X132578000Y-116545000D02*
X132892989Y-116230011D01*
X130778000Y-116545000D02*
X132578000Y-116545000D01*
X129808000Y-115575000D02*
X130778000Y-116545000D01*
X129808000Y-114895000D02*
X129808000Y-115575000D01*
X132892989Y-114270130D02*
X133890620Y-113272499D01*
X128788000Y-113875000D02*
X129808000Y-114895000D01*
X128588000Y-113875000D02*
X128788000Y-113875000D01*
X132892989Y-116230011D02*
X132892989Y-114270130D01*
X127530500Y-74025000D02*
X127530500Y-72172500D01*
X127530500Y-72172500D02*
X127978000Y-71725000D01*
X125908000Y-71725000D02*
X127978000Y-71725000D01*
X124228000Y-71725000D02*
X125908000Y-71725000D01*
X122158000Y-71725000D02*
X124228000Y-71725000D01*
X122605500Y-74025000D02*
X122605500Y-72172500D01*
X122605500Y-72172500D02*
X122158000Y-71725000D01*
D32*
X127288000Y-84224999D02*
X127288000Y-83429000D01*
X126605023Y-86302183D02*
X126605023Y-84907976D01*
X126508000Y-88795000D02*
X126508000Y-86399206D01*
X127288000Y-83429000D02*
X127288000Y-82925000D01*
X126605023Y-84907976D02*
X127288000Y-84224999D01*
X126508000Y-86399206D02*
X126605023Y-86302183D01*
X128118000Y-90405000D02*
X126508000Y-88795000D01*
D31*
X127989371Y-91194542D02*
X127989371Y-91183629D01*
X127989371Y-91183629D02*
X128443000Y-90730000D01*
X128443000Y-90730000D02*
X128118000Y-90405000D01*
D32*
X128342924Y-91548095D02*
X128948000Y-90943019D01*
X128948000Y-90943019D02*
X128948000Y-90405000D01*
X127138000Y-86858602D02*
X127085999Y-86806601D01*
X127138000Y-85431398D02*
X127138000Y-85385000D01*
X128531990Y-83991010D02*
X128531990Y-83501010D01*
X128948000Y-90405000D02*
X127138000Y-88595000D01*
X127138000Y-88595000D02*
X127138000Y-88358602D01*
X127138000Y-86931398D02*
X127138000Y-86858602D01*
X127138000Y-88358602D02*
X127085999Y-88306601D01*
X127085999Y-88306601D02*
X127085999Y-86983399D01*
X127085999Y-86983399D02*
X127138000Y-86931398D01*
X127085999Y-86806601D02*
X127085999Y-85483399D01*
X129118000Y-82915000D02*
X129318000Y-82915000D01*
X127085999Y-85483399D02*
X127138000Y-85431398D01*
X127138000Y-85385000D02*
X128531990Y-83991010D01*
X128531990Y-83501010D02*
X129118000Y-82915000D01*
D31*
X128528000Y-111555000D02*
X128528000Y-110055000D01*
X128528000Y-110055000D02*
X128548000Y-110035000D01*
X131698000Y-114855000D02*
X131698000Y-110445000D01*
X131698000Y-110445000D02*
X130288000Y-109035000D01*
X128778000Y-109035000D02*
X130288000Y-109035000D01*
X130288000Y-109035000D02*
X131088000Y-108235000D01*
X128548000Y-110035000D02*
X128548000Y-109265000D01*
X128548000Y-109265000D02*
X128778000Y-109035000D01*
X122088000Y-86548282D02*
X122361359Y-86821641D01*
X122088000Y-83990000D02*
X122088000Y-86548282D01*
X127288000Y-77805000D02*
X127288000Y-77115000D01*
X127288000Y-77115000D02*
X126988000Y-76815000D01*
X126988000Y-76815000D02*
X126058000Y-76815000D01*
X126058000Y-76815000D02*
X125068000Y-75825000D01*
X125068000Y-75825000D02*
X125068000Y-75325000D01*
X125068000Y-75325000D02*
X125068000Y-74385000D01*
X125718000Y-74385000D02*
X125718000Y-75315000D01*
X125718000Y-75315000D02*
X126468000Y-76065000D01*
X126468000Y-76065000D02*
X128298000Y-76065000D01*
X128298000Y-76065000D02*
X129188000Y-76955000D01*
X129188000Y-76955000D02*
X129188000Y-77805000D01*
D29*
X128777999Y-75475001D02*
X130568000Y-73685000D01*
X130568000Y-73685000D02*
X130568000Y-71345000D01*
D31*
X129580360Y-91724873D02*
X129050031Y-92255202D01*
X129867977Y-91437256D02*
X129580360Y-91724873D01*
X129188000Y-89369350D02*
X129867977Y-90049328D01*
X129188000Y-87645000D02*
X129188000Y-89369350D01*
X129867977Y-90049328D02*
X129867977Y-91437256D01*
X130268012Y-80850736D02*
X130268012Y-81275000D01*
X129922994Y-80505718D02*
X130268012Y-80850736D01*
X129922994Y-76619996D02*
X129922994Y-80505718D01*
X128777999Y-75475001D02*
X129922994Y-76619996D01*
X129188000Y-87645000D02*
X129188000Y-87620000D01*
X129188000Y-87620000D02*
X129888001Y-86919999D01*
X129888001Y-86919999D02*
X129888001Y-84419265D01*
X129888001Y-84419265D02*
X129868000Y-84399264D01*
X129868000Y-84399264D02*
X129868000Y-83975000D01*
D33*
X126620477Y-75475001D02*
X128777999Y-75475001D01*
X126368000Y-75222524D02*
X126620477Y-75475001D01*
X126368000Y-74385000D02*
X126368000Y-75222524D01*
D29*
X134740619Y-71782500D02*
X132905500Y-71782500D01*
X132905500Y-71782500D02*
X132468000Y-71345000D01*
D30*
X134740619Y-71782500D02*
X136530500Y-71782500D01*
X136530500Y-71782500D02*
X136538000Y-71775000D01*
X134748119Y-71775000D02*
X134740619Y-71782500D01*
D29*
X134740619Y-72109883D02*
X134740619Y-71782500D01*
D33*
X132748000Y-77825000D02*
X132748000Y-77620000D01*
D31*
X126803001Y-118932500D02*
X128573001Y-118932500D01*
X131698000Y-120255000D02*
X134528119Y-120255000D01*
X134528119Y-120255000D02*
X134740619Y-120042500D01*
X128573001Y-118932500D02*
X128573001Y-119782500D01*
X128573001Y-119782500D02*
X129045501Y-120255000D01*
X129045501Y-120255000D02*
X130648000Y-120255000D01*
X130648000Y-120255000D02*
X131698000Y-120255000D01*
X123818000Y-120205000D02*
X126380501Y-120205000D01*
X126380501Y-120205000D02*
X126803001Y-119782500D01*
X126803001Y-119782500D02*
X126803001Y-118932500D01*
D30*
X134740619Y-120042500D02*
X136530500Y-120042500D01*
X136530500Y-120042500D02*
X136538000Y-120035000D01*
X136538000Y-117495000D02*
X134748119Y-117495000D01*
X134748119Y-117495000D02*
X134740619Y-117502500D01*
X134748119Y-74315000D02*
X134740619Y-74322500D01*
D31*
X128238000Y-80005000D02*
X128238000Y-80875000D01*
X128238000Y-80875000D02*
X128258000Y-80895000D01*
D30*
X132748000Y-79820000D02*
X132748000Y-80025000D01*
D31*
X129050031Y-92255202D02*
X129057798Y-92255202D01*
X129050031Y-92255202D02*
X129215942Y-92089291D01*
X124818045Y-89119399D02*
X124807989Y-89109343D01*
X125373076Y-91548095D02*
X124818045Y-90993064D01*
X124818045Y-90993064D02*
X124818045Y-89119399D01*
X120387999Y-106535001D02*
X119538000Y-107385000D01*
X122837945Y-100588608D02*
X122837945Y-104085055D01*
X122837945Y-104085055D02*
X120387999Y-106535001D01*
X123958862Y-99467691D02*
X122837945Y-100588608D01*
X124312416Y-99821245D02*
X123287956Y-100845705D01*
X120713001Y-107949001D02*
X120387999Y-108274003D01*
X123287956Y-100845705D02*
X123287954Y-104271456D01*
X123287954Y-104271456D02*
X120713001Y-106846409D01*
X120713001Y-106846409D02*
X120713001Y-107949001D01*
X120387999Y-108274003D02*
X120387999Y-109075001D01*
X120387999Y-109075001D02*
X119538000Y-109925000D01*
X124665969Y-100174798D02*
X123738000Y-101102767D01*
X120838008Y-109261402D02*
X120713001Y-109386409D01*
X120387999Y-110814003D02*
X120387999Y-111615001D01*
X123738000Y-101102767D02*
X123738000Y-104435000D01*
X123738000Y-104435000D02*
X123737964Y-104435036D01*
X123737964Y-104435036D02*
X123737963Y-104457857D01*
X123737963Y-104457857D02*
X121163011Y-107032809D01*
X120713001Y-110489001D02*
X120387999Y-110814003D01*
X121163011Y-107032809D02*
X121163010Y-108135402D01*
X121163010Y-108135402D02*
X120838009Y-108460403D01*
X120838009Y-108460403D02*
X120838008Y-109261402D01*
X120713001Y-109386409D02*
X120713001Y-110489001D01*
X120387999Y-111615001D02*
X119538000Y-112465000D01*
X125019522Y-100528351D02*
X124188010Y-101359863D01*
X124188010Y-101359863D02*
X124188009Y-104621401D01*
X121288018Y-108646804D02*
X121288017Y-109447803D01*
X120838009Y-111000403D02*
X120838008Y-111801402D01*
X124188009Y-104621401D02*
X124187972Y-104621438D01*
X120713001Y-111926409D02*
X120713001Y-113829999D01*
X124187972Y-104621438D02*
X124187972Y-104644258D01*
X124187972Y-104644258D02*
X121613020Y-107219210D01*
X121613020Y-107219210D02*
X121613019Y-108321803D01*
X121613019Y-108321803D02*
X121288018Y-108646804D01*
X120838008Y-111801402D02*
X120713001Y-111926409D01*
X121288017Y-109447803D02*
X121163011Y-109572809D01*
X121163011Y-109572809D02*
X121163010Y-110675402D01*
X121163010Y-110675402D02*
X120838009Y-111000403D01*
X120713001Y-113829999D02*
X119538000Y-115005000D01*
X125373076Y-100881905D02*
X124638020Y-101616961D01*
X121613019Y-110861803D02*
X121288018Y-111186804D01*
X124637982Y-104807838D02*
X124637981Y-104830659D01*
X124638020Y-101616961D02*
X124638018Y-104807802D01*
X120713001Y-116369999D02*
X119538000Y-117545000D01*
X121163011Y-112112809D02*
X121163010Y-114016400D01*
X124638018Y-104807802D02*
X124637982Y-104807838D01*
X124637981Y-104830659D02*
X122063029Y-107405611D01*
X121613020Y-109759210D02*
X121613019Y-110861803D01*
X121163010Y-114016400D02*
X120713001Y-114466409D01*
X122063029Y-107405611D02*
X122063028Y-108508204D01*
X122063028Y-108508204D02*
X121738027Y-108833205D01*
X121738027Y-108833205D02*
X121738026Y-109634204D01*
X121288017Y-111987803D02*
X121163011Y-112112809D01*
X121738026Y-109634204D02*
X121613020Y-109759210D01*
X121288018Y-111186804D02*
X121288017Y-111987803D01*
X120713001Y-114466409D02*
X120713001Y-116369999D01*
X122063029Y-111048203D02*
X121738027Y-111373205D01*
X125726629Y-101235458D02*
X125088030Y-101874057D01*
X121613020Y-112299210D02*
X121613019Y-114202801D01*
X125088030Y-101874057D02*
X125088030Y-104754970D01*
X125088030Y-104754970D02*
X125088028Y-104754972D01*
X125088028Y-104754972D02*
X125088027Y-104994203D01*
X125088027Y-104994203D02*
X125087990Y-104994240D01*
X121738026Y-112174204D02*
X121613020Y-112299210D01*
X122513038Y-107592012D02*
X122513037Y-108694605D01*
X125087990Y-104994240D02*
X125087990Y-105017060D01*
X125087990Y-105017060D02*
X122513038Y-107592012D01*
X122513037Y-108694605D02*
X122188036Y-109019606D01*
X122188036Y-109019606D02*
X122188035Y-109820605D01*
X122188035Y-109820605D02*
X122063029Y-109945611D01*
X121738027Y-111373205D02*
X121738026Y-112174204D01*
X121613019Y-114202801D02*
X121163011Y-114652809D01*
X121163010Y-116556400D02*
X120713001Y-117006409D01*
X121163011Y-114652809D02*
X121163010Y-116556400D01*
X120713001Y-117006409D02*
X120713001Y-118909999D01*
X120713001Y-118909999D02*
X119538000Y-120085000D01*
D30*
X119538000Y-120085000D02*
X117748000Y-120085000D01*
X117748000Y-117545000D02*
X119538000Y-117545000D01*
X119538000Y-115005000D02*
X117748000Y-115005000D01*
D31*
X123251755Y-98760584D02*
X123949280Y-98063059D01*
X123949280Y-98063059D02*
X124126059Y-98063059D01*
X123251755Y-93669416D02*
X123978000Y-94395661D01*
X123978000Y-94395661D02*
X123978000Y-94665000D01*
X132498000Y-90285000D02*
X132508000Y-90275000D01*
X129084447Y-98795000D02*
X128818000Y-98795000D01*
X129757138Y-99467691D02*
X129084447Y-98795000D01*
X130928000Y-102385000D02*
X131628000Y-102385000D01*
X131628000Y-102385000D02*
X131668000Y-102345000D01*
X132748000Y-100585000D02*
X132748000Y-101310000D01*
X132748000Y-101310000D02*
X132728000Y-101330000D01*
X123605309Y-93315862D02*
X123605309Y-93312309D01*
X123605309Y-93312309D02*
X122318000Y-92025000D01*
X122898202Y-98407031D02*
X124790233Y-96515000D01*
X124790233Y-96515000D02*
X126778000Y-96515000D01*
X126778000Y-96515000D02*
X126868000Y-96605000D01*
X123605309Y-93315862D02*
X124135638Y-93846191D01*
X124135638Y-93872638D02*
X126868000Y-96605000D01*
X124135638Y-93846191D02*
X124135638Y-93872638D01*
X132498000Y-91785000D02*
X132508000Y-91775000D01*
X127788000Y-88605760D02*
X127788000Y-88295000D01*
X127788000Y-88295000D02*
X127788000Y-87645000D01*
X129417966Y-91180161D02*
X129417966Y-90235727D01*
X128696478Y-91901649D02*
X129417966Y-91180161D01*
X129417966Y-90235727D02*
X127788000Y-88605760D01*
X128696478Y-91901649D02*
X128681351Y-91901649D01*
X128681351Y-91901649D02*
X128248000Y-92335000D01*
X129050031Y-92255202D02*
X129047798Y-92255202D01*
D33*
X126868000Y-94665000D02*
X126868000Y-95065000D01*
D31*
X130218000Y-97100127D02*
X128978000Y-95860127D01*
X130284829Y-94553298D02*
X128978000Y-95860127D01*
X128978000Y-95860127D02*
X128178000Y-95060127D01*
X130817798Y-94022969D02*
X130287469Y-94553298D01*
X130287469Y-94553298D02*
X130284829Y-94553298D01*
X131171351Y-98053478D02*
X130218000Y-97100127D01*
X130287468Y-97169595D02*
X130218000Y-97100127D01*
X131524905Y-97699924D02*
X130994576Y-97169595D01*
X130994576Y-97169595D02*
X130287468Y-97169595D01*
X128178000Y-95060127D02*
X126872873Y-95060127D01*
X126872873Y-95060127D02*
X126868000Y-95065000D01*
X130110691Y-99114138D02*
X126868000Y-95871447D01*
X126868000Y-95871447D02*
X126868000Y-95835000D01*
X130928000Y-100885000D02*
X130928000Y-99931447D01*
X130928000Y-99931447D02*
X130110691Y-99114138D01*
X132748000Y-99085000D02*
X132202873Y-99085000D01*
X132202873Y-99085000D02*
X131171351Y-98053478D01*
X132748000Y-99085000D02*
X132748000Y-98923019D01*
X132748000Y-98923019D02*
X131524905Y-97699924D01*
D30*
X134740619Y-94642500D02*
X136530500Y-94642500D01*
X136530500Y-94642500D02*
X136538000Y-94635000D01*
X136538000Y-92095000D02*
X134748119Y-92095000D01*
X134748119Y-92095000D02*
X134740619Y-92102500D01*
X134740619Y-89562500D02*
X136530500Y-89562500D01*
X136530500Y-89562500D02*
X136538000Y-89555000D01*
X136538000Y-87015000D02*
X134748119Y-87015000D01*
X134748119Y-87015000D02*
X134740619Y-87022500D01*
X134740619Y-84482500D02*
X136530500Y-84482500D01*
X136530500Y-84482500D02*
X136538000Y-84475000D01*
D31*
X130110691Y-93315862D02*
X129436373Y-93990180D01*
X129436373Y-93990180D02*
X129436373Y-94204772D01*
D30*
X136538000Y-81935000D02*
X134748119Y-81935000D01*
X134748119Y-81935000D02*
X134740619Y-81942500D01*
X136538000Y-79395000D02*
X134748119Y-79395000D01*
X134748119Y-79395000D02*
X134740619Y-79402500D01*
X119538000Y-71825000D02*
X117748000Y-71825000D01*
X117748000Y-74365000D02*
X119538000Y-74365000D01*
X119538000Y-76905000D02*
X117748000Y-76905000D01*
X117748000Y-79445000D02*
X119538000Y-79445000D01*
X117748000Y-81985000D02*
X119538000Y-81985000D01*
X119538000Y-84525000D02*
X117748000Y-84525000D01*
X117748000Y-87065000D02*
X119538000Y-87065000D01*
X119538000Y-89605000D02*
X117748000Y-89605000D01*
X117748000Y-92145000D02*
X119538000Y-92145000D01*
D31*
X122191095Y-94730076D02*
X119606019Y-92145000D01*
X119606019Y-92145000D02*
X119538000Y-92145000D01*
D30*
X119538000Y-94685000D02*
X117748000Y-94685000D01*
D31*
X119538000Y-94685000D02*
X121438913Y-94685000D01*
X121438913Y-94685000D02*
X121837542Y-95083629D01*
D30*
X117748000Y-97225000D02*
X119538000Y-97225000D01*
D31*
X119538000Y-97225000D02*
X120387999Y-98074999D01*
X120387999Y-98074999D02*
X120615179Y-98074999D01*
X120615179Y-98074999D02*
X120620199Y-98069979D01*
X120620199Y-98069979D02*
X121113934Y-98069979D01*
X121113934Y-98069979D02*
X121308913Y-97875000D01*
X121308913Y-97875000D02*
X121837542Y-97346371D01*
D30*
X119538000Y-99765000D02*
X117748000Y-99765000D01*
D31*
X122191095Y-97699924D02*
X121371030Y-98519989D01*
X121371030Y-98519989D02*
X120806599Y-98519989D01*
X120806599Y-98519989D02*
X119561588Y-99765000D01*
X119561588Y-99765000D02*
X119538000Y-99765000D01*
D30*
X117748000Y-102305000D02*
X119538000Y-102305000D01*
D31*
X119538000Y-102305000D02*
X120713001Y-101129999D01*
X122014320Y-98583807D02*
X122544649Y-98053478D01*
X120713001Y-101129999D02*
X120713001Y-99249997D01*
X120713001Y-99249997D02*
X120992999Y-98969999D01*
X120992999Y-98969999D02*
X121628128Y-98969999D01*
X121628128Y-98969999D02*
X122014320Y-98583807D01*
X120387999Y-103995001D02*
X119538000Y-104845000D01*
X122387934Y-102892165D02*
X121285098Y-103995001D01*
X121285098Y-103995001D02*
X120387999Y-103995001D01*
X122387934Y-100331513D02*
X122387934Y-102892165D01*
X123605309Y-99114138D02*
X122387934Y-100331513D01*
D30*
X119538000Y-104845000D02*
X117748000Y-104845000D01*
X117748000Y-107385000D02*
X119538000Y-107385000D01*
X119538000Y-109925000D02*
X117748000Y-109925000D01*
X117748000Y-112465000D02*
X119538000Y-112465000D01*
D31*
X125726629Y-101276371D02*
X125726629Y-101235458D01*
X128588000Y-113875000D02*
X128612998Y-113875000D01*
D30*
X136538000Y-112415000D02*
X134748119Y-112415000D01*
D31*
X133890620Y-111572501D02*
X134740619Y-112422500D01*
X127989371Y-103949193D02*
X133008000Y-108967822D01*
X127989371Y-101235458D02*
X127989371Y-103949193D01*
X133008000Y-110689881D02*
X133890620Y-111572501D01*
X133008000Y-108967822D02*
X133008000Y-110689881D01*
D30*
X134748119Y-112415000D02*
X134740619Y-112422500D01*
D31*
X128877966Y-104201377D02*
X133709090Y-109032501D01*
X128877966Y-101416947D02*
X128877966Y-104201377D01*
X133709090Y-109032501D02*
X133890620Y-109032501D01*
X133890620Y-109032501D02*
X134740619Y-109882500D01*
X128342924Y-100881905D02*
X128877966Y-101416947D01*
D30*
X134740619Y-109882500D02*
X136530500Y-109882500D01*
X136530500Y-109882500D02*
X136538000Y-109875000D01*
D31*
X128696478Y-100528351D02*
X129327977Y-101159850D01*
X129327977Y-101159850D02*
X129327977Y-104014977D01*
X129327977Y-104014977D02*
X132655500Y-107342500D01*
X132655500Y-107342500D02*
X133538538Y-107342500D01*
X133538538Y-107342500D02*
X134740619Y-107342500D01*
D30*
X136538000Y-107335000D02*
X134748119Y-107335000D01*
X134748119Y-107335000D02*
X134740619Y-107342500D01*
D31*
X129403584Y-99821245D02*
X130227999Y-100645660D01*
X130227999Y-100645660D02*
X130227999Y-103304999D01*
X130718000Y-103795000D02*
X133208119Y-103795000D01*
X130227999Y-103304999D02*
X130718000Y-103795000D01*
X133208119Y-103795000D02*
X134740619Y-102262500D01*
D30*
X136538000Y-102255000D02*
X134748119Y-102255000D01*
X134748119Y-102255000D02*
X134740619Y-102262500D01*
X134740619Y-99722500D02*
X136530500Y-99722500D01*
X136530500Y-99722500D02*
X136538000Y-99715000D01*
D31*
X130464245Y-98760584D02*
X131638000Y-99934339D01*
X131638000Y-99934339D02*
X131638000Y-101295000D01*
X131638000Y-101295000D02*
X132298000Y-101955000D01*
X132298000Y-101955000D02*
X133268000Y-101955000D01*
X133268000Y-101955000D02*
X133890620Y-101332380D01*
X133890620Y-101332380D02*
X133890620Y-100572499D01*
X133890620Y-100572499D02*
X134740619Y-99722500D01*
D30*
X136538000Y-97175000D02*
X134748119Y-97175000D01*
X134748119Y-97175000D02*
X134740619Y-97182500D01*
D31*
X130817798Y-98407031D02*
X132220768Y-99810001D01*
X132220768Y-99810001D02*
X133402999Y-99810001D01*
X133402999Y-99810001D02*
X133565618Y-99647382D01*
X133565618Y-99647382D02*
X133565618Y-98357501D01*
X133565618Y-98357501D02*
X133890620Y-98032499D01*
X133890620Y-98032499D02*
X134740619Y-97182500D01*
X127989371Y-91194542D02*
X127998458Y-91194542D01*
X127528000Y-82925000D02*
X127288000Y-82925000D01*
X127288000Y-81425000D02*
X127288000Y-80005000D01*
X127288000Y-81275000D02*
X127148000Y-81415000D01*
X129188000Y-80005000D02*
X129188000Y-81285000D01*
X129188000Y-81285000D02*
X129318000Y-81415000D01*
X129208000Y-82915000D02*
X129318000Y-82915000D01*
X131088000Y-108235000D02*
X131088000Y-108355000D01*
X129050031Y-100174798D02*
X129777989Y-100902756D01*
X129777989Y-100902756D02*
X129777990Y-103491400D01*
X129777990Y-103491400D02*
X131089090Y-104802500D01*
X131089090Y-104802500D02*
X133538538Y-104802500D01*
X133538538Y-104802500D02*
X134740619Y-104802500D01*
D30*
X134740619Y-104802500D02*
X136530500Y-104802500D01*
X136530500Y-104802500D02*
X136538000Y-104795000D01*
D31*
X126808000Y-115385000D02*
X126808000Y-116727501D01*
X126808000Y-116727501D02*
X126803001Y-116732500D01*
X128573001Y-116732500D02*
X128573001Y-115389999D01*
X128573001Y-115389999D02*
X128588000Y-115375000D01*
D32*
G36*
X126983554Y-92023582D02*
X127160331Y-92200359D01*
X127266300Y-92271166D01*
X127337107Y-92377135D01*
X127513884Y-92553912D01*
X127534252Y-92567521D01*
X127545852Y-92625839D01*
X127710599Y-92872401D01*
X127957161Y-93037148D01*
X128021267Y-93049900D01*
X128044214Y-93084242D01*
X128220991Y-93261019D01*
X128326960Y-93331826D01*
X128397767Y-93437795D01*
X128574544Y-93614572D01*
X128652188Y-93666452D01*
X128644181Y-93674445D01*
X128501535Y-94017973D01*
X128501211Y-94389939D01*
X128643256Y-94733715D01*
X128906046Y-94996964D01*
X129249574Y-95139610D01*
X129621540Y-95139934D01*
X129908402Y-95021405D01*
X129998969Y-95021405D01*
X130065613Y-95088049D01*
X130065613Y-95088048D01*
X129998969Y-95021405D01*
X129908402Y-95021405D01*
X129965316Y-94997889D01*
X129970389Y-94992825D01*
X129970390Y-94992825D01*
X129998970Y-95021405D01*
X130025131Y-94995244D01*
X130025186Y-94995518D01*
X130065613Y-95056021D01*
X130065613Y-95088048D01*
X130086869Y-95109304D01*
X130106706Y-95117521D01*
X130165534Y-95205562D01*
X130342311Y-95382339D01*
X130448281Y-95453146D01*
X130519088Y-95559116D01*
X130695865Y-95735893D01*
X130801834Y-95806700D01*
X130872641Y-95912669D01*
X131049418Y-96089446D01*
X131237321Y-96215000D01*
X131049418Y-96340554D01*
X130872641Y-96517331D01*
X130813813Y-96605372D01*
X130793976Y-96613589D01*
X130772720Y-96634845D01*
X130772720Y-96666872D01*
X130732293Y-96727375D01*
X130703830Y-96870470D01*
X130673811Y-96870470D01*
X130487267Y-96947739D01*
X130459826Y-96947739D01*
X130419166Y-96988399D01*
X130419166Y-97015840D01*
X130341897Y-97202384D01*
X130341897Y-97232403D01*
X130198802Y-97260866D01*
X130138299Y-97301293D01*
X130106272Y-97301293D01*
X130085016Y-97322549D01*
X130076799Y-97342386D01*
X129988758Y-97401214D01*
X129811981Y-97577991D01*
X129741174Y-97683960D01*
X129635205Y-97754767D01*
X129458428Y-97931544D01*
X129399600Y-98019586D01*
X129379762Y-98027803D01*
X129376517Y-98031048D01*
X129348327Y-98002808D01*
X129004799Y-97860162D01*
X128632833Y-97859838D01*
X128289057Y-98001883D01*
X128025808Y-98264673D01*
X127883162Y-98608201D01*
X127882838Y-98980167D01*
X128024883Y-99323943D01*
X128045438Y-99344534D01*
X128044214Y-99345758D01*
X127973407Y-99451727D01*
X127867438Y-99522534D01*
X127690661Y-99699311D01*
X127619854Y-99805281D01*
X127513884Y-99876088D01*
X127337107Y-100052865D01*
X127266300Y-100158834D01*
X127160331Y-100229641D01*
X126983554Y-100406418D01*
X126858000Y-100594321D01*
X126732446Y-100406418D01*
X126555669Y-100229641D01*
X126449700Y-100158834D01*
X126378893Y-100052865D01*
X126202116Y-99876088D01*
X126096146Y-99805281D01*
X126025339Y-99699311D01*
X125848562Y-99522534D01*
X125742593Y-99451727D01*
X125671786Y-99345758D01*
X125495009Y-99168981D01*
X125389040Y-99098174D01*
X125318233Y-98992205D01*
X125141456Y-98815428D01*
X125035486Y-98744621D01*
X124964679Y-98638651D01*
X124918592Y-98592564D01*
X125060897Y-98249858D01*
X125061221Y-97877892D01*
X124919176Y-97534116D01*
X124686759Y-97301293D01*
X130106271Y-97301293D01*
X130106272Y-97301293D01*
X130175161Y-97232403D01*
X130106271Y-97301293D01*
X124686759Y-97301293D01*
X124656386Y-97270867D01*
X124312858Y-97128221D01*
X123940892Y-97127897D01*
X123597116Y-97269942D01*
X123587371Y-97279670D01*
X123550466Y-97224438D01*
X123398747Y-97072719D01*
X130334845Y-97072719D01*
X130419166Y-96988399D01*
X130419166Y-96988398D01*
X130334845Y-97072719D01*
X123398747Y-97072719D01*
X123373689Y-97047661D01*
X123267719Y-96976854D01*
X123248265Y-96947739D01*
X130459825Y-96947739D01*
X130459826Y-96947739D01*
X130615347Y-96792217D01*
X130459825Y-96947739D01*
X123248265Y-96947739D01*
X123196912Y-96870884D01*
X123020135Y-96694107D01*
X130713457Y-96694107D01*
X130772720Y-96634845D01*
X130772720Y-96634844D01*
X130713457Y-96694107D01*
X123020135Y-96694107D01*
X122914166Y-96623300D01*
X122843359Y-96517331D01*
X122666582Y-96340554D01*
X122478679Y-96215000D01*
X122666582Y-96089446D01*
X122843359Y-95912669D01*
X122914166Y-95806700D01*
X123020135Y-95735893D01*
X123196912Y-95559116D01*
X123267719Y-95453146D01*
X123373246Y-95382635D01*
X123447673Y-95457192D01*
X123791201Y-95599838D01*
X124163167Y-95600162D01*
X124506943Y-95458117D01*
X124770192Y-95195327D01*
X124912838Y-94851799D01*
X124913162Y-94479833D01*
X124771117Y-94136057D01*
X124686821Y-94051614D01*
X124691644Y-94046791D01*
X124699861Y-94026954D01*
X124787902Y-93968126D01*
X124964679Y-93791349D01*
X125035486Y-93685379D01*
X125141456Y-93614572D01*
X125318233Y-93437795D01*
X125389040Y-93331826D01*
X125495009Y-93261019D01*
X125671786Y-93084242D01*
X125742593Y-92978273D01*
X125848562Y-92907466D01*
X126025339Y-92730689D01*
X126096146Y-92624719D01*
X126202116Y-92553912D01*
X126378893Y-92377135D01*
X126449700Y-92271166D01*
X126555669Y-92200359D01*
X126732446Y-92023582D01*
X126858000Y-91835679D01*
X126983554Y-92023582D01*
X126983554Y-92023582D01*
G37*
X126983554Y-92023582D02*
X127160331Y-92200359D01*
X127266300Y-92271166D01*
X127337107Y-92377135D01*
X127513884Y-92553912D01*
X127534252Y-92567521D01*
X127545852Y-92625839D01*
X127710599Y-92872401D01*
X127957161Y-93037148D01*
X128021267Y-93049900D01*
X128044214Y-93084242D01*
X128220991Y-93261019D01*
X128326960Y-93331826D01*
X128397767Y-93437795D01*
X128574544Y-93614572D01*
X128652188Y-93666452D01*
X128644181Y-93674445D01*
X128501535Y-94017973D01*
X128501211Y-94389939D01*
X128643256Y-94733715D01*
X128906046Y-94996964D01*
X129249574Y-95139610D01*
X129621540Y-95139934D01*
X129908402Y-95021405D01*
X129998969Y-95021405D01*
X130065613Y-95088049D01*
X130065613Y-95088048D01*
X129998969Y-95021405D01*
X129908402Y-95021405D01*
X129965316Y-94997889D01*
X129970389Y-94992825D01*
X129970390Y-94992825D01*
X129998970Y-95021405D01*
X130025131Y-94995244D01*
X130025186Y-94995518D01*
X130065613Y-95056021D01*
X130065613Y-95088048D01*
X130086869Y-95109304D01*
X130106706Y-95117521D01*
X130165534Y-95205562D01*
X130342311Y-95382339D01*
X130448281Y-95453146D01*
X130519088Y-95559116D01*
X130695865Y-95735893D01*
X130801834Y-95806700D01*
X130872641Y-95912669D01*
X131049418Y-96089446D01*
X131237321Y-96215000D01*
X131049418Y-96340554D01*
X130872641Y-96517331D01*
X130813813Y-96605372D01*
X130793976Y-96613589D01*
X130772720Y-96634845D01*
X130772720Y-96666872D01*
X130732293Y-96727375D01*
X130703830Y-96870470D01*
X130673811Y-96870470D01*
X130487267Y-96947739D01*
X130459826Y-96947739D01*
X130419166Y-96988399D01*
X130419166Y-97015840D01*
X130341897Y-97202384D01*
X130341897Y-97232403D01*
X130198802Y-97260866D01*
X130138299Y-97301293D01*
X130106272Y-97301293D01*
X130085016Y-97322549D01*
X130076799Y-97342386D01*
X129988758Y-97401214D01*
X129811981Y-97577991D01*
X129741174Y-97683960D01*
X129635205Y-97754767D01*
X129458428Y-97931544D01*
X129399600Y-98019586D01*
X129379762Y-98027803D01*
X129376517Y-98031048D01*
X129348327Y-98002808D01*
X129004799Y-97860162D01*
X128632833Y-97859838D01*
X128289057Y-98001883D01*
X128025808Y-98264673D01*
X127883162Y-98608201D01*
X127882838Y-98980167D01*
X128024883Y-99323943D01*
X128045438Y-99344534D01*
X128044214Y-99345758D01*
X127973407Y-99451727D01*
X127867438Y-99522534D01*
X127690661Y-99699311D01*
X127619854Y-99805281D01*
X127513884Y-99876088D01*
X127337107Y-100052865D01*
X127266300Y-100158834D01*
X127160331Y-100229641D01*
X126983554Y-100406418D01*
X126858000Y-100594321D01*
X126732446Y-100406418D01*
X126555669Y-100229641D01*
X126449700Y-100158834D01*
X126378893Y-100052865D01*
X126202116Y-99876088D01*
X126096146Y-99805281D01*
X126025339Y-99699311D01*
X125848562Y-99522534D01*
X125742593Y-99451727D01*
X125671786Y-99345758D01*
X125495009Y-99168981D01*
X125389040Y-99098174D01*
X125318233Y-98992205D01*
X125141456Y-98815428D01*
X125035486Y-98744621D01*
X124964679Y-98638651D01*
X124918592Y-98592564D01*
X125060897Y-98249858D01*
X125061221Y-97877892D01*
X124919176Y-97534116D01*
X124686759Y-97301293D01*
X130106271Y-97301293D01*
X130106272Y-97301293D01*
X130175161Y-97232403D01*
X130106271Y-97301293D01*
X124686759Y-97301293D01*
X124656386Y-97270867D01*
X124312858Y-97128221D01*
X123940892Y-97127897D01*
X123597116Y-97269942D01*
X123587371Y-97279670D01*
X123550466Y-97224438D01*
X123398747Y-97072719D01*
X130334845Y-97072719D01*
X130419166Y-96988399D01*
X130419166Y-96988398D01*
X130334845Y-97072719D01*
X123398747Y-97072719D01*
X123373689Y-97047661D01*
X123267719Y-96976854D01*
X123248265Y-96947739D01*
X130459825Y-96947739D01*
X130459826Y-96947739D01*
X130615347Y-96792217D01*
X130459825Y-96947739D01*
X123248265Y-96947739D01*
X123196912Y-96870884D01*
X123020135Y-96694107D01*
X130713457Y-96694107D01*
X130772720Y-96634845D01*
X130772720Y-96634844D01*
X130713457Y-96694107D01*
X123020135Y-96694107D01*
X122914166Y-96623300D01*
X122843359Y-96517331D01*
X122666582Y-96340554D01*
X122478679Y-96215000D01*
X122666582Y-96089446D01*
X122843359Y-95912669D01*
X122914166Y-95806700D01*
X123020135Y-95735893D01*
X123196912Y-95559116D01*
X123267719Y-95453146D01*
X123373246Y-95382635D01*
X123447673Y-95457192D01*
X123791201Y-95599838D01*
X124163167Y-95600162D01*
X124506943Y-95458117D01*
X124770192Y-95195327D01*
X124912838Y-94851799D01*
X124913162Y-94479833D01*
X124771117Y-94136057D01*
X124686821Y-94051614D01*
X124691644Y-94046791D01*
X124699861Y-94026954D01*
X124787902Y-93968126D01*
X124964679Y-93791349D01*
X125035486Y-93685379D01*
X125141456Y-93614572D01*
X125318233Y-93437795D01*
X125389040Y-93331826D01*
X125495009Y-93261019D01*
X125671786Y-93084242D01*
X125742593Y-92978273D01*
X125848562Y-92907466D01*
X126025339Y-92730689D01*
X126096146Y-92624719D01*
X126202116Y-92553912D01*
X126378893Y-92377135D01*
X126449700Y-92271166D01*
X126555669Y-92200359D01*
X126732446Y-92023582D01*
X126858000Y-91835679D01*
X126983554Y-92023582D01*
M02*
