G04 #@! TF.GenerationSoftware,KiCad,Pcbnew,no-vcs-found-91ed3e2~59~ubuntu16.04.1*
G04 #@! TF.CreationDate,2017-10-23T14:28:14-03:00*
G04 #@! TF.ProjectId,ciaa-z3r0,636961612D7A3372302E6B696361645F,rev?*
G04 #@! TF.SameCoordinates,Original*
G04 #@! TF.FileFunction,Other,User*
%FSLAX46Y46*%
G04 Gerber Fmt 4.6, Leading zero omitted, Abs format (unit mm)*
G04 Created by KiCad (PCBNEW no-vcs-found-91ed3e2~59~ubuntu16.04.1) date Mon Oct 23 14:28:14 2017*
%MOMM*%
%LPD*%
G01*
G04 APERTURE LIST*
%ADD10C,0.050000*%
G04 APERTURE END LIST*
D10*
X129178000Y-112205000D02*
X126378000Y-112205000D01*
X129178000Y-112205000D02*
X129178000Y-110905000D01*
X126378000Y-110905000D02*
X126378000Y-112205000D01*
X126378000Y-110905000D02*
X129178000Y-110905000D01*
X122238000Y-99155000D02*
X122238000Y-101955000D01*
X122238000Y-99155000D02*
X120938000Y-99155000D01*
X120938000Y-101955000D02*
X122238000Y-101955000D01*
X120938000Y-101955000D02*
X120938000Y-99155000D01*
X122968000Y-89875000D02*
X122968000Y-92675000D01*
X122968000Y-89875000D02*
X121668000Y-89875000D01*
X121668000Y-92675000D02*
X122968000Y-92675000D01*
X121668000Y-92675000D02*
X121668000Y-89875000D01*
X131578000Y-100235000D02*
X131578000Y-103035000D01*
X131578000Y-100235000D02*
X130278000Y-100235000D01*
X130278000Y-103035000D02*
X131578000Y-103035000D01*
X130278000Y-103035000D02*
X130278000Y-100235000D01*
X132098000Y-101235000D02*
X132098000Y-98435000D01*
X132098000Y-101235000D02*
X133398000Y-101235000D01*
X133398000Y-98435000D02*
X132098000Y-98435000D01*
X133398000Y-98435000D02*
X133398000Y-101235000D01*
X130818000Y-92435000D02*
X130818000Y-89635000D01*
X130818000Y-92435000D02*
X132118000Y-92435000D01*
X132118000Y-89635000D02*
X130818000Y-89635000D01*
X132118000Y-89635000D02*
X132118000Y-92435000D01*
X128438000Y-85495000D02*
X128438000Y-88295000D01*
X128438000Y-85495000D02*
X127138000Y-85495000D01*
X127138000Y-88295000D02*
X128438000Y-88295000D01*
X127138000Y-88295000D02*
X127138000Y-85495000D01*
X132128000Y-92425000D02*
X132128000Y-89625000D01*
X132128000Y-92425000D02*
X133428000Y-92425000D01*
X133428000Y-89625000D02*
X132128000Y-89625000D01*
X133428000Y-89625000D02*
X133428000Y-92425000D01*
X133458000Y-89625000D02*
X130658000Y-89625000D01*
X133458000Y-89625000D02*
X133458000Y-88325000D01*
X130658000Y-88325000D02*
X130658000Y-89625000D01*
X130658000Y-88325000D02*
X133458000Y-88325000D01*
X130198000Y-82815000D02*
X132998000Y-82815000D01*
X130198000Y-82815000D02*
X130198000Y-84115000D01*
X132998000Y-84115000D02*
X132998000Y-82815000D01*
X132998000Y-84115000D02*
X130198000Y-84115000D01*
X132338000Y-76945000D02*
X132338000Y-74145000D01*
X132338000Y-76945000D02*
X133638000Y-76945000D01*
X133638000Y-74145000D02*
X132338000Y-74145000D01*
X133638000Y-74145000D02*
X133638000Y-76945000D01*
X129838000Y-85495000D02*
X129838000Y-88295000D01*
X129838000Y-85495000D02*
X128538000Y-85495000D01*
X128538000Y-88295000D02*
X129838000Y-88295000D01*
X128538000Y-88295000D02*
X128538000Y-85495000D01*
X125953001Y-115882500D02*
X127653001Y-115882500D01*
X127653001Y-115882500D02*
X127653001Y-119782500D01*
X127653001Y-119782500D02*
X125953001Y-119782500D01*
X125953001Y-119782500D02*
X125953001Y-115882500D01*
X133268000Y-70645000D02*
X133268000Y-74045000D01*
X133268000Y-74045000D02*
X129768000Y-74045000D01*
X129768000Y-74045000D02*
X129768000Y-70645000D01*
X129768000Y-70645000D02*
X133268000Y-70645000D01*
X127723001Y-119782500D02*
X127723001Y-115882500D01*
X129423001Y-119782500D02*
X127723001Y-119782500D01*
X129423001Y-115882500D02*
X129423001Y-119782500D01*
X127723001Y-115882500D02*
X129423001Y-115882500D01*
X133458000Y-82385000D02*
X133458000Y-81045000D01*
X130658000Y-82385000D02*
X133458000Y-82385000D01*
X130658000Y-81045000D02*
X130658000Y-82385000D01*
X133458000Y-81045000D02*
X130658000Y-81045000D01*
X120468000Y-69025000D02*
X129668000Y-69025000D01*
X120468000Y-75625000D02*
X120468000Y-69025000D01*
X129668000Y-75625000D02*
X120468000Y-75625000D01*
X129668000Y-69025000D02*
X129668000Y-75625000D01*
X126408000Y-75565000D02*
X120308000Y-75565000D01*
X120308000Y-75565000D02*
X120308000Y-87365000D01*
X120308000Y-87365000D02*
X126408000Y-87365000D01*
X126408000Y-87365000D02*
X126408000Y-75565000D01*
X126588000Y-83425000D02*
X126588000Y-80925000D01*
X126588000Y-83425000D02*
X127988000Y-83425000D01*
X127988000Y-80925000D02*
X126588000Y-80925000D01*
X127988000Y-80925000D02*
X127988000Y-83425000D01*
X130018000Y-80915000D02*
X130018000Y-83415000D01*
X130018000Y-80915000D02*
X128618000Y-80915000D01*
X128618000Y-83415000D02*
X130018000Y-83415000D01*
X128618000Y-83415000D02*
X128618000Y-80915000D01*
X126108000Y-115885000D02*
X126108000Y-113385000D01*
X126108000Y-115885000D02*
X127508000Y-115885000D01*
X127508000Y-113385000D02*
X126108000Y-113385000D01*
X127508000Y-113385000D02*
X127508000Y-115885000D01*
X129048000Y-110735000D02*
X126548000Y-110735000D01*
X129048000Y-110735000D02*
X129048000Y-109335000D01*
X126548000Y-109335000D02*
X126548000Y-110735000D01*
X126548000Y-109335000D02*
X129048000Y-109335000D01*
X125188000Y-110805000D02*
X122688000Y-110805000D01*
X125188000Y-110805000D02*
X125188000Y-109405000D01*
X122688000Y-109405000D02*
X122688000Y-110805000D01*
X122688000Y-109405000D02*
X125188000Y-109405000D01*
X129288000Y-113375000D02*
X129288000Y-115875000D01*
X129288000Y-113375000D02*
X127888000Y-113375000D01*
X127888000Y-115875000D02*
X129288000Y-115875000D01*
X127888000Y-115875000D02*
X127888000Y-113375000D01*
X133698000Y-121505000D02*
X129698000Y-121505000D01*
X133698000Y-113605000D02*
X133698000Y-121505000D01*
X129698000Y-113605000D02*
X133698000Y-113605000D01*
X129698000Y-121505000D02*
X129698000Y-113605000D01*
X121818000Y-121455000D02*
X121818000Y-113555000D01*
X121818000Y-113555000D02*
X125818000Y-113555000D01*
X125818000Y-113555000D02*
X125818000Y-121455000D01*
X125818000Y-121455000D02*
X121818000Y-121455000D01*
X126858000Y-103639621D02*
X134282621Y-96215000D01*
X119433379Y-96215000D02*
X126858000Y-88790379D01*
X126858000Y-88790379D02*
X134282621Y-96215000D01*
X119433379Y-96215000D02*
X126858000Y-103639621D01*
X133598000Y-77025000D02*
X133598000Y-80825000D01*
X133598000Y-80825000D02*
X129998000Y-80825000D01*
X129998000Y-80825000D02*
X129998000Y-77025000D01*
X129998000Y-77025000D02*
X133598000Y-77025000D01*
X126438000Y-77005000D02*
X126438000Y-80805000D01*
X130038000Y-77005000D02*
X126438000Y-77005000D01*
X130038000Y-80805000D02*
X130038000Y-77005000D01*
X126438000Y-80805000D02*
X130038000Y-80805000D01*
M02*
