G04 #@! TF.GenerationSoftware,KiCad,Pcbnew,no-vcs-found-91ed3e2~59~ubuntu16.04.1*
G04 #@! TF.CreationDate,2017-10-23T14:28:14-03:00*
G04 #@! TF.ProjectId,ciaa-z3r0,636961612D7A3372302E6B696361645F,rev?*
G04 #@! TF.SameCoordinates,Original*
G04 #@! TF.FileFunction,Legend,Top*
G04 #@! TF.FilePolarity,Positive*
%FSLAX46Y46*%
G04 Gerber Fmt 4.6, Leading zero omitted, Abs format (unit mm)*
G04 Created by KiCad (PCBNEW no-vcs-found-91ed3e2~59~ubuntu16.04.1) date Mon Oct 23 14:28:14 2017*
%MOMM*%
%LPD*%
G01*
G04 APERTURE LIST*
%ADD10C,0.100000*%
%ADD11C,0.200000*%
%ADD12C,0.150000*%
%ADD13C,0.300000*%
%ADD14C,0.125000*%
%ADD15C,0.120000*%
%ADD16C,0.130000*%
G04 APERTURE END LIST*
D10*
X119407285Y-73326190D02*
X119407285Y-72826190D01*
X119597761Y-72826190D01*
X119645380Y-72850000D01*
X119669190Y-72873809D01*
X119693000Y-72921428D01*
X119693000Y-72992857D01*
X119669190Y-73040476D01*
X119645380Y-73064285D01*
X119597761Y-73088095D01*
X119407285Y-73088095D01*
X120073952Y-73064285D02*
X119907285Y-73064285D01*
X119907285Y-73326190D02*
X119907285Y-72826190D01*
X120145380Y-72826190D01*
X120431095Y-72826190D02*
X120478714Y-72826190D01*
X120526333Y-72850000D01*
X120550142Y-72873809D01*
X120573952Y-72921428D01*
X120597761Y-73016666D01*
X120597761Y-73135714D01*
X120573952Y-73230952D01*
X120550142Y-73278571D01*
X120526333Y-73302380D01*
X120478714Y-73326190D01*
X120431095Y-73326190D01*
X120383476Y-73302380D01*
X120359666Y-73278571D01*
X120335857Y-73230952D01*
X120312047Y-73135714D01*
X120312047Y-73016666D01*
X120335857Y-72921428D01*
X120359666Y-72873809D01*
X120383476Y-72850000D01*
X120431095Y-72826190D01*
X119407285Y-75876190D02*
X119407285Y-75376190D01*
X119597761Y-75376190D01*
X119645380Y-75400000D01*
X119669190Y-75423809D01*
X119693000Y-75471428D01*
X119693000Y-75542857D01*
X119669190Y-75590476D01*
X119645380Y-75614285D01*
X119597761Y-75638095D01*
X119407285Y-75638095D01*
X120073952Y-75614285D02*
X119907285Y-75614285D01*
X119907285Y-75876190D02*
X119907285Y-75376190D01*
X120145380Y-75376190D01*
X120597761Y-75876190D02*
X120312047Y-75876190D01*
X120454904Y-75876190D02*
X120454904Y-75376190D01*
X120407285Y-75447619D01*
X120359666Y-75495238D01*
X120312047Y-75519047D01*
X119407285Y-78426190D02*
X119407285Y-77926190D01*
X119597761Y-77926190D01*
X119645380Y-77950000D01*
X119669190Y-77973809D01*
X119693000Y-78021428D01*
X119693000Y-78092857D01*
X119669190Y-78140476D01*
X119645380Y-78164285D01*
X119597761Y-78188095D01*
X119407285Y-78188095D01*
X120073952Y-78164285D02*
X119907285Y-78164285D01*
X119907285Y-78426190D02*
X119907285Y-77926190D01*
X120145380Y-77926190D01*
X120312047Y-77973809D02*
X120335857Y-77950000D01*
X120383476Y-77926190D01*
X120502523Y-77926190D01*
X120550142Y-77950000D01*
X120573952Y-77973809D01*
X120597761Y-78021428D01*
X120597761Y-78069047D01*
X120573952Y-78140476D01*
X120288238Y-78426190D01*
X120597761Y-78426190D01*
X119407285Y-80976190D02*
X119407285Y-80476190D01*
X119597761Y-80476190D01*
X119645380Y-80500000D01*
X119669190Y-80523809D01*
X119693000Y-80571428D01*
X119693000Y-80642857D01*
X119669190Y-80690476D01*
X119645380Y-80714285D01*
X119597761Y-80738095D01*
X119407285Y-80738095D01*
X120073952Y-80714285D02*
X119907285Y-80714285D01*
X119907285Y-80976190D02*
X119907285Y-80476190D01*
X120145380Y-80476190D01*
X120288238Y-80476190D02*
X120597761Y-80476190D01*
X120431095Y-80666666D01*
X120502523Y-80666666D01*
X120550142Y-80690476D01*
X120573952Y-80714285D01*
X120597761Y-80761904D01*
X120597761Y-80880952D01*
X120573952Y-80928571D01*
X120550142Y-80952380D01*
X120502523Y-80976190D01*
X120359666Y-80976190D01*
X120312047Y-80952380D01*
X120288238Y-80928571D01*
X119407285Y-83526190D02*
X119407285Y-83026190D01*
X119597761Y-83026190D01*
X119645380Y-83050000D01*
X119669190Y-83073809D01*
X119693000Y-83121428D01*
X119693000Y-83192857D01*
X119669190Y-83240476D01*
X119645380Y-83264285D01*
X119597761Y-83288095D01*
X119407285Y-83288095D01*
X120073952Y-83264285D02*
X119907285Y-83264285D01*
X119907285Y-83526190D02*
X119907285Y-83026190D01*
X120145380Y-83026190D01*
X120550142Y-83192857D02*
X120550142Y-83526190D01*
X120431095Y-83002380D02*
X120312047Y-83359523D01*
X120621571Y-83359523D01*
X119407285Y-86076190D02*
X119407285Y-85576190D01*
X119597761Y-85576190D01*
X119645380Y-85600000D01*
X119669190Y-85623809D01*
X119693000Y-85671428D01*
X119693000Y-85742857D01*
X119669190Y-85790476D01*
X119645380Y-85814285D01*
X119597761Y-85838095D01*
X119407285Y-85838095D01*
X120073952Y-85814285D02*
X119907285Y-85814285D01*
X119907285Y-86076190D02*
X119907285Y-85576190D01*
X120145380Y-85576190D01*
X120573952Y-85576190D02*
X120335857Y-85576190D01*
X120312047Y-85814285D01*
X120335857Y-85790476D01*
X120383476Y-85766666D01*
X120502523Y-85766666D01*
X120550142Y-85790476D01*
X120573952Y-85814285D01*
X120597761Y-85861904D01*
X120597761Y-85980952D01*
X120573952Y-86028571D01*
X120550142Y-86052380D01*
X120502523Y-86076190D01*
X120383476Y-86076190D01*
X120335857Y-86052380D01*
X120312047Y-86028571D01*
X118907285Y-88626190D02*
X118907285Y-88126190D01*
X119097761Y-88126190D01*
X119145380Y-88150000D01*
X119169190Y-88173809D01*
X119193000Y-88221428D01*
X119193000Y-88292857D01*
X119169190Y-88340476D01*
X119145380Y-88364285D01*
X119097761Y-88388095D01*
X118907285Y-88388095D01*
X119407285Y-88364285D02*
X119573952Y-88364285D01*
X119645380Y-88626190D02*
X119407285Y-88626190D01*
X119407285Y-88126190D01*
X119645380Y-88126190D01*
X120121571Y-88626190D02*
X119835857Y-88626190D01*
X119978714Y-88626190D02*
X119978714Y-88126190D01*
X119931095Y-88197619D01*
X119883476Y-88245238D01*
X119835857Y-88269047D01*
X120431095Y-88126190D02*
X120478714Y-88126190D01*
X120526333Y-88150000D01*
X120550142Y-88173809D01*
X120573952Y-88221428D01*
X120597761Y-88316666D01*
X120597761Y-88435714D01*
X120573952Y-88530952D01*
X120550142Y-88578571D01*
X120526333Y-88602380D01*
X120478714Y-88626190D01*
X120431095Y-88626190D01*
X120383476Y-88602380D01*
X120359666Y-88578571D01*
X120335857Y-88530952D01*
X120312047Y-88435714D01*
X120312047Y-88316666D01*
X120335857Y-88221428D01*
X120359666Y-88173809D01*
X120383476Y-88150000D01*
X120431095Y-88126190D01*
X118907285Y-91176190D02*
X118907285Y-90676190D01*
X119097761Y-90676190D01*
X119145380Y-90700000D01*
X119169190Y-90723809D01*
X119193000Y-90771428D01*
X119193000Y-90842857D01*
X119169190Y-90890476D01*
X119145380Y-90914285D01*
X119097761Y-90938095D01*
X118907285Y-90938095D01*
X119407285Y-90914285D02*
X119573952Y-90914285D01*
X119645380Y-91176190D02*
X119407285Y-91176190D01*
X119407285Y-90676190D01*
X119645380Y-90676190D01*
X120121571Y-91176190D02*
X119835857Y-91176190D01*
X119978714Y-91176190D02*
X119978714Y-90676190D01*
X119931095Y-90747619D01*
X119883476Y-90795238D01*
X119835857Y-90819047D01*
X120597761Y-91176190D02*
X120312047Y-91176190D01*
X120454904Y-91176190D02*
X120454904Y-90676190D01*
X120407285Y-90747619D01*
X120359666Y-90795238D01*
X120312047Y-90819047D01*
X118907285Y-93726190D02*
X118907285Y-93226190D01*
X119097761Y-93226190D01*
X119145380Y-93250000D01*
X119169190Y-93273809D01*
X119193000Y-93321428D01*
X119193000Y-93392857D01*
X119169190Y-93440476D01*
X119145380Y-93464285D01*
X119097761Y-93488095D01*
X118907285Y-93488095D01*
X119407285Y-93464285D02*
X119573952Y-93464285D01*
X119645380Y-93726190D02*
X119407285Y-93726190D01*
X119407285Y-93226190D01*
X119645380Y-93226190D01*
X120121571Y-93726190D02*
X119835857Y-93726190D01*
X119978714Y-93726190D02*
X119978714Y-93226190D01*
X119931095Y-93297619D01*
X119883476Y-93345238D01*
X119835857Y-93369047D01*
X120312047Y-93273809D02*
X120335857Y-93250000D01*
X120383476Y-93226190D01*
X120502523Y-93226190D01*
X120550142Y-93250000D01*
X120573952Y-93273809D01*
X120597761Y-93321428D01*
X120597761Y-93369047D01*
X120573952Y-93440476D01*
X120288238Y-93726190D01*
X120597761Y-93726190D01*
X118907285Y-96276190D02*
X118907285Y-95776190D01*
X119097761Y-95776190D01*
X119145380Y-95800000D01*
X119169190Y-95823809D01*
X119193000Y-95871428D01*
X119193000Y-95942857D01*
X119169190Y-95990476D01*
X119145380Y-96014285D01*
X119097761Y-96038095D01*
X118907285Y-96038095D01*
X119407285Y-96014285D02*
X119573952Y-96014285D01*
X119645380Y-96276190D02*
X119407285Y-96276190D01*
X119407285Y-95776190D01*
X119645380Y-95776190D01*
X120121571Y-96276190D02*
X119835857Y-96276190D01*
X119978714Y-96276190D02*
X119978714Y-95776190D01*
X119931095Y-95847619D01*
X119883476Y-95895238D01*
X119835857Y-95919047D01*
X120288238Y-95776190D02*
X120597761Y-95776190D01*
X120431095Y-95966666D01*
X120502523Y-95966666D01*
X120550142Y-95990476D01*
X120573952Y-96014285D01*
X120597761Y-96061904D01*
X120597761Y-96180952D01*
X120573952Y-96228571D01*
X120550142Y-96252380D01*
X120502523Y-96276190D01*
X120359666Y-96276190D01*
X120312047Y-96252380D01*
X120288238Y-96228571D01*
X119407285Y-98826190D02*
X119407285Y-98326190D01*
X119597761Y-98326190D01*
X119645380Y-98350000D01*
X119669190Y-98373809D01*
X119693000Y-98421428D01*
X119693000Y-98492857D01*
X119669190Y-98540476D01*
X119645380Y-98564285D01*
X119597761Y-98588095D01*
X119407285Y-98588095D01*
X119883476Y-98683333D02*
X120121571Y-98683333D01*
X119835857Y-98826190D02*
X120002523Y-98326190D01*
X120169190Y-98826190D01*
X120431095Y-98326190D02*
X120478714Y-98326190D01*
X120526333Y-98350000D01*
X120550142Y-98373809D01*
X120573952Y-98421428D01*
X120597761Y-98516666D01*
X120597761Y-98635714D01*
X120573952Y-98730952D01*
X120550142Y-98778571D01*
X120526333Y-98802380D01*
X120478714Y-98826190D01*
X120431095Y-98826190D01*
X120383476Y-98802380D01*
X120359666Y-98778571D01*
X120335857Y-98730952D01*
X120312047Y-98635714D01*
X120312047Y-98516666D01*
X120335857Y-98421428D01*
X120359666Y-98373809D01*
X120383476Y-98350000D01*
X120431095Y-98326190D01*
X119407285Y-101376190D02*
X119407285Y-100876190D01*
X119597761Y-100876190D01*
X119645380Y-100900000D01*
X119669190Y-100923809D01*
X119693000Y-100971428D01*
X119693000Y-101042857D01*
X119669190Y-101090476D01*
X119645380Y-101114285D01*
X119597761Y-101138095D01*
X119407285Y-101138095D01*
X119883476Y-101233333D02*
X120121571Y-101233333D01*
X119835857Y-101376190D02*
X120002523Y-100876190D01*
X120169190Y-101376190D01*
X120597761Y-101376190D02*
X120312047Y-101376190D01*
X120454904Y-101376190D02*
X120454904Y-100876190D01*
X120407285Y-100947619D01*
X120359666Y-100995238D01*
X120312047Y-101019047D01*
X119407285Y-103926190D02*
X119407285Y-103426190D01*
X119597761Y-103426190D01*
X119645380Y-103450000D01*
X119669190Y-103473809D01*
X119693000Y-103521428D01*
X119693000Y-103592857D01*
X119669190Y-103640476D01*
X119645380Y-103664285D01*
X119597761Y-103688095D01*
X119407285Y-103688095D01*
X119883476Y-103783333D02*
X120121571Y-103783333D01*
X119835857Y-103926190D02*
X120002523Y-103426190D01*
X120169190Y-103926190D01*
X120312047Y-103473809D02*
X120335857Y-103450000D01*
X120383476Y-103426190D01*
X120502523Y-103426190D01*
X120550142Y-103450000D01*
X120573952Y-103473809D01*
X120597761Y-103521428D01*
X120597761Y-103569047D01*
X120573952Y-103640476D01*
X120288238Y-103926190D01*
X120597761Y-103926190D01*
X119335857Y-106476190D02*
X119335857Y-105976190D01*
X119526333Y-105976190D01*
X119573952Y-106000000D01*
X119597761Y-106023809D01*
X119621571Y-106071428D01*
X119621571Y-106142857D01*
X119597761Y-106190476D01*
X119573952Y-106214285D01*
X119526333Y-106238095D01*
X119335857Y-106238095D01*
X120121571Y-106428571D02*
X120097761Y-106452380D01*
X120026333Y-106476190D01*
X119978714Y-106476190D01*
X119907285Y-106452380D01*
X119859666Y-106404761D01*
X119835857Y-106357142D01*
X119812047Y-106261904D01*
X119812047Y-106190476D01*
X119835857Y-106095238D01*
X119859666Y-106047619D01*
X119907285Y-106000000D01*
X119978714Y-105976190D01*
X120026333Y-105976190D01*
X120097761Y-106000000D01*
X120121571Y-106023809D01*
X120431095Y-105976190D02*
X120478714Y-105976190D01*
X120526333Y-106000000D01*
X120550142Y-106023809D01*
X120573952Y-106071428D01*
X120597761Y-106166666D01*
X120597761Y-106285714D01*
X120573952Y-106380952D01*
X120550142Y-106428571D01*
X120526333Y-106452380D01*
X120478714Y-106476190D01*
X120431095Y-106476190D01*
X120383476Y-106452380D01*
X120359666Y-106428571D01*
X120335857Y-106380952D01*
X120312047Y-106285714D01*
X120312047Y-106166666D01*
X120335857Y-106071428D01*
X120359666Y-106023809D01*
X120383476Y-106000000D01*
X120431095Y-105976190D01*
X119335857Y-109026190D02*
X119335857Y-108526190D01*
X119526333Y-108526190D01*
X119573952Y-108550000D01*
X119597761Y-108573809D01*
X119621571Y-108621428D01*
X119621571Y-108692857D01*
X119597761Y-108740476D01*
X119573952Y-108764285D01*
X119526333Y-108788095D01*
X119335857Y-108788095D01*
X120121571Y-108978571D02*
X120097761Y-109002380D01*
X120026333Y-109026190D01*
X119978714Y-109026190D01*
X119907285Y-109002380D01*
X119859666Y-108954761D01*
X119835857Y-108907142D01*
X119812047Y-108811904D01*
X119812047Y-108740476D01*
X119835857Y-108645238D01*
X119859666Y-108597619D01*
X119907285Y-108550000D01*
X119978714Y-108526190D01*
X120026333Y-108526190D01*
X120097761Y-108550000D01*
X120121571Y-108573809D01*
X120597761Y-109026190D02*
X120312047Y-109026190D01*
X120454904Y-109026190D02*
X120454904Y-108526190D01*
X120407285Y-108597619D01*
X120359666Y-108645238D01*
X120312047Y-108669047D01*
X119335857Y-111576190D02*
X119335857Y-111076190D01*
X119526333Y-111076190D01*
X119573952Y-111100000D01*
X119597761Y-111123809D01*
X119621571Y-111171428D01*
X119621571Y-111242857D01*
X119597761Y-111290476D01*
X119573952Y-111314285D01*
X119526333Y-111338095D01*
X119335857Y-111338095D01*
X120121571Y-111528571D02*
X120097761Y-111552380D01*
X120026333Y-111576190D01*
X119978714Y-111576190D01*
X119907285Y-111552380D01*
X119859666Y-111504761D01*
X119835857Y-111457142D01*
X119812047Y-111361904D01*
X119812047Y-111290476D01*
X119835857Y-111195238D01*
X119859666Y-111147619D01*
X119907285Y-111100000D01*
X119978714Y-111076190D01*
X120026333Y-111076190D01*
X120097761Y-111100000D01*
X120121571Y-111123809D01*
X120312047Y-111123809D02*
X120335857Y-111100000D01*
X120383476Y-111076190D01*
X120502523Y-111076190D01*
X120550142Y-111100000D01*
X120573952Y-111123809D01*
X120597761Y-111171428D01*
X120597761Y-111219047D01*
X120573952Y-111290476D01*
X120288238Y-111576190D01*
X120597761Y-111576190D01*
X119335857Y-114126190D02*
X119335857Y-113626190D01*
X119526333Y-113626190D01*
X119573952Y-113650000D01*
X119597761Y-113673809D01*
X119621571Y-113721428D01*
X119621571Y-113792857D01*
X119597761Y-113840476D01*
X119573952Y-113864285D01*
X119526333Y-113888095D01*
X119335857Y-113888095D01*
X120121571Y-114078571D02*
X120097761Y-114102380D01*
X120026333Y-114126190D01*
X119978714Y-114126190D01*
X119907285Y-114102380D01*
X119859666Y-114054761D01*
X119835857Y-114007142D01*
X119812047Y-113911904D01*
X119812047Y-113840476D01*
X119835857Y-113745238D01*
X119859666Y-113697619D01*
X119907285Y-113650000D01*
X119978714Y-113626190D01*
X120026333Y-113626190D01*
X120097761Y-113650000D01*
X120121571Y-113673809D01*
X120288238Y-113626190D02*
X120597761Y-113626190D01*
X120431095Y-113816666D01*
X120502523Y-113816666D01*
X120550142Y-113840476D01*
X120573952Y-113864285D01*
X120597761Y-113911904D01*
X120597761Y-114030952D01*
X120573952Y-114078571D01*
X120550142Y-114102380D01*
X120502523Y-114126190D01*
X120359666Y-114126190D01*
X120312047Y-114102380D01*
X120288238Y-114078571D01*
X119335857Y-116676190D02*
X119335857Y-116176190D01*
X119526333Y-116176190D01*
X119573952Y-116200000D01*
X119597761Y-116223809D01*
X119621571Y-116271428D01*
X119621571Y-116342857D01*
X119597761Y-116390476D01*
X119573952Y-116414285D01*
X119526333Y-116438095D01*
X119335857Y-116438095D01*
X120121571Y-116628571D02*
X120097761Y-116652380D01*
X120026333Y-116676190D01*
X119978714Y-116676190D01*
X119907285Y-116652380D01*
X119859666Y-116604761D01*
X119835857Y-116557142D01*
X119812047Y-116461904D01*
X119812047Y-116390476D01*
X119835857Y-116295238D01*
X119859666Y-116247619D01*
X119907285Y-116200000D01*
X119978714Y-116176190D01*
X120026333Y-116176190D01*
X120097761Y-116200000D01*
X120121571Y-116223809D01*
X120550142Y-116342857D02*
X120550142Y-116676190D01*
X120431095Y-116152380D02*
X120312047Y-116509523D01*
X120621571Y-116509523D01*
X119335857Y-119226190D02*
X119335857Y-118726190D01*
X119526333Y-118726190D01*
X119573952Y-118750000D01*
X119597761Y-118773809D01*
X119621571Y-118821428D01*
X119621571Y-118892857D01*
X119597761Y-118940476D01*
X119573952Y-118964285D01*
X119526333Y-118988095D01*
X119335857Y-118988095D01*
X120002523Y-118964285D02*
X120073952Y-118988095D01*
X120097761Y-119011904D01*
X120121571Y-119059523D01*
X120121571Y-119130952D01*
X120097761Y-119178571D01*
X120073952Y-119202380D01*
X120026333Y-119226190D01*
X119835857Y-119226190D01*
X119835857Y-118726190D01*
X120002523Y-118726190D01*
X120050142Y-118750000D01*
X120073952Y-118773809D01*
X120097761Y-118821428D01*
X120097761Y-118869047D01*
X120073952Y-118916666D01*
X120050142Y-118940476D01*
X120002523Y-118964285D01*
X119835857Y-118964285D01*
X120288238Y-118726190D02*
X120621571Y-118726190D01*
X120407285Y-119226190D01*
X119335857Y-121776190D02*
X119335857Y-121276190D01*
X119526333Y-121276190D01*
X119573952Y-121300000D01*
X119597761Y-121323809D01*
X119621571Y-121371428D01*
X119621571Y-121442857D01*
X119597761Y-121490476D01*
X119573952Y-121514285D01*
X119526333Y-121538095D01*
X119335857Y-121538095D01*
X120002523Y-121514285D02*
X120073952Y-121538095D01*
X120097761Y-121561904D01*
X120121571Y-121609523D01*
X120121571Y-121680952D01*
X120097761Y-121728571D01*
X120073952Y-121752380D01*
X120026333Y-121776190D01*
X119835857Y-121776190D01*
X119835857Y-121276190D01*
X120002523Y-121276190D01*
X120050142Y-121300000D01*
X120073952Y-121323809D01*
X120097761Y-121371428D01*
X120097761Y-121419047D01*
X120073952Y-121466666D01*
X120050142Y-121490476D01*
X120002523Y-121514285D01*
X119835857Y-121514285D01*
X120407285Y-121490476D02*
X120359666Y-121466666D01*
X120335857Y-121442857D01*
X120312047Y-121395238D01*
X120312047Y-121371428D01*
X120335857Y-121323809D01*
X120359666Y-121300000D01*
X120407285Y-121276190D01*
X120502523Y-121276190D01*
X120550142Y-121300000D01*
X120573952Y-121323809D01*
X120597761Y-121371428D01*
X120597761Y-121395238D01*
X120573952Y-121442857D01*
X120550142Y-121466666D01*
X120502523Y-121490476D01*
X120407285Y-121490476D01*
X120359666Y-121514285D01*
X120335857Y-121538095D01*
X120312047Y-121585714D01*
X120312047Y-121680952D01*
X120335857Y-121728571D01*
X120359666Y-121752380D01*
X120407285Y-121776190D01*
X120502523Y-121776190D01*
X120550142Y-121752380D01*
X120573952Y-121728571D01*
X120597761Y-121680952D01*
X120597761Y-121585714D01*
X120573952Y-121538095D01*
X120550142Y-121514285D01*
X120502523Y-121490476D01*
X133602047Y-73005714D02*
X133983000Y-73005714D01*
X133792523Y-73196190D02*
X133792523Y-72815238D01*
X134459190Y-72696190D02*
X134221095Y-72696190D01*
X134197285Y-72934285D01*
X134221095Y-72910476D01*
X134268714Y-72886666D01*
X134387761Y-72886666D01*
X134435380Y-72910476D01*
X134459190Y-72934285D01*
X134483000Y-72981904D01*
X134483000Y-73100952D01*
X134459190Y-73148571D01*
X134435380Y-73172380D01*
X134387761Y-73196190D01*
X134268714Y-73196190D01*
X134221095Y-73172380D01*
X134197285Y-73148571D01*
X134625857Y-72696190D02*
X134792523Y-73196190D01*
X134959190Y-72696190D01*
X133863952Y-75270000D02*
X133816333Y-75246190D01*
X133744904Y-75246190D01*
X133673476Y-75270000D01*
X133625857Y-75317619D01*
X133602047Y-75365238D01*
X133578238Y-75460476D01*
X133578238Y-75531904D01*
X133602047Y-75627142D01*
X133625857Y-75674761D01*
X133673476Y-75722380D01*
X133744904Y-75746190D01*
X133792523Y-75746190D01*
X133863952Y-75722380D01*
X133887761Y-75698571D01*
X133887761Y-75531904D01*
X133792523Y-75531904D01*
X134102047Y-75746190D02*
X134102047Y-75246190D01*
X134387761Y-75746190D01*
X134387761Y-75246190D01*
X134625857Y-75746190D02*
X134625857Y-75246190D01*
X134744904Y-75246190D01*
X134816333Y-75270000D01*
X134863952Y-75317619D01*
X134887761Y-75365238D01*
X134911571Y-75460476D01*
X134911571Y-75531904D01*
X134887761Y-75627142D01*
X134863952Y-75674761D01*
X134816333Y-75722380D01*
X134744904Y-75746190D01*
X134625857Y-75746190D01*
X133602047Y-78105714D02*
X133983000Y-78105714D01*
X133792523Y-78296190D02*
X133792523Y-77915238D01*
X134173476Y-77796190D02*
X134483000Y-77796190D01*
X134316333Y-77986666D01*
X134387761Y-77986666D01*
X134435380Y-78010476D01*
X134459190Y-78034285D01*
X134483000Y-78081904D01*
X134483000Y-78200952D01*
X134459190Y-78248571D01*
X134435380Y-78272380D01*
X134387761Y-78296190D01*
X134244904Y-78296190D01*
X134197285Y-78272380D01*
X134173476Y-78248571D01*
X134697285Y-78248571D02*
X134721095Y-78272380D01*
X134697285Y-78296190D01*
X134673476Y-78272380D01*
X134697285Y-78248571D01*
X134697285Y-78296190D01*
X134887761Y-77796190D02*
X135197285Y-77796190D01*
X135030619Y-77986666D01*
X135102047Y-77986666D01*
X135149666Y-78010476D01*
X135173476Y-78034285D01*
X135197285Y-78081904D01*
X135197285Y-78200952D01*
X135173476Y-78248571D01*
X135149666Y-78272380D01*
X135102047Y-78296190D01*
X134959190Y-78296190D01*
X134911571Y-78272380D01*
X134887761Y-78248571D01*
X135340142Y-77796190D02*
X135506809Y-78296190D01*
X135673476Y-77796190D01*
X133602047Y-80846190D02*
X133602047Y-80346190D01*
X133792523Y-80346190D01*
X133840142Y-80370000D01*
X133863952Y-80393809D01*
X133887761Y-80441428D01*
X133887761Y-80512857D01*
X133863952Y-80560476D01*
X133840142Y-80584285D01*
X133792523Y-80608095D01*
X133602047Y-80608095D01*
X134387761Y-80798571D02*
X134363952Y-80822380D01*
X134292523Y-80846190D01*
X134244904Y-80846190D01*
X134173476Y-80822380D01*
X134125857Y-80774761D01*
X134102047Y-80727142D01*
X134078238Y-80631904D01*
X134078238Y-80560476D01*
X134102047Y-80465238D01*
X134125857Y-80417619D01*
X134173476Y-80370000D01*
X134244904Y-80346190D01*
X134292523Y-80346190D01*
X134363952Y-80370000D01*
X134387761Y-80393809D01*
X134863952Y-80846190D02*
X134578238Y-80846190D01*
X134721095Y-80846190D02*
X134721095Y-80346190D01*
X134673476Y-80417619D01*
X134625857Y-80465238D01*
X134578238Y-80489047D01*
X135173476Y-80346190D02*
X135221095Y-80346190D01*
X135268714Y-80370000D01*
X135292523Y-80393809D01*
X135316333Y-80441428D01*
X135340142Y-80536666D01*
X135340142Y-80655714D01*
X135316333Y-80750952D01*
X135292523Y-80798571D01*
X135268714Y-80822380D01*
X135221095Y-80846190D01*
X135173476Y-80846190D01*
X135125857Y-80822380D01*
X135102047Y-80798571D01*
X135078238Y-80750952D01*
X135054428Y-80655714D01*
X135054428Y-80536666D01*
X135078238Y-80441428D01*
X135102047Y-80393809D01*
X135125857Y-80370000D01*
X135173476Y-80346190D01*
X133602047Y-83396190D02*
X133602047Y-82896190D01*
X133792523Y-82896190D01*
X133840142Y-82920000D01*
X133863952Y-82943809D01*
X133887761Y-82991428D01*
X133887761Y-83062857D01*
X133863952Y-83110476D01*
X133840142Y-83134285D01*
X133792523Y-83158095D01*
X133602047Y-83158095D01*
X134387761Y-83348571D02*
X134363952Y-83372380D01*
X134292523Y-83396190D01*
X134244904Y-83396190D01*
X134173476Y-83372380D01*
X134125857Y-83324761D01*
X134102047Y-83277142D01*
X134078238Y-83181904D01*
X134078238Y-83110476D01*
X134102047Y-83015238D01*
X134125857Y-82967619D01*
X134173476Y-82920000D01*
X134244904Y-82896190D01*
X134292523Y-82896190D01*
X134363952Y-82920000D01*
X134387761Y-82943809D01*
X134625857Y-83396190D02*
X134721095Y-83396190D01*
X134768714Y-83372380D01*
X134792523Y-83348571D01*
X134840142Y-83277142D01*
X134863952Y-83181904D01*
X134863952Y-82991428D01*
X134840142Y-82943809D01*
X134816333Y-82920000D01*
X134768714Y-82896190D01*
X134673476Y-82896190D01*
X134625857Y-82920000D01*
X134602047Y-82943809D01*
X134578238Y-82991428D01*
X134578238Y-83110476D01*
X134602047Y-83158095D01*
X134625857Y-83181904D01*
X134673476Y-83205714D01*
X134768714Y-83205714D01*
X134816333Y-83181904D01*
X134840142Y-83158095D01*
X134863952Y-83110476D01*
X133602047Y-85946190D02*
X133602047Y-85446190D01*
X133792523Y-85446190D01*
X133840142Y-85470000D01*
X133863952Y-85493809D01*
X133887761Y-85541428D01*
X133887761Y-85612857D01*
X133863952Y-85660476D01*
X133840142Y-85684285D01*
X133792523Y-85708095D01*
X133602047Y-85708095D01*
X134387761Y-85898571D02*
X134363952Y-85922380D01*
X134292523Y-85946190D01*
X134244904Y-85946190D01*
X134173476Y-85922380D01*
X134125857Y-85874761D01*
X134102047Y-85827142D01*
X134078238Y-85731904D01*
X134078238Y-85660476D01*
X134102047Y-85565238D01*
X134125857Y-85517619D01*
X134173476Y-85470000D01*
X134244904Y-85446190D01*
X134292523Y-85446190D01*
X134363952Y-85470000D01*
X134387761Y-85493809D01*
X134673476Y-85660476D02*
X134625857Y-85636666D01*
X134602047Y-85612857D01*
X134578238Y-85565238D01*
X134578238Y-85541428D01*
X134602047Y-85493809D01*
X134625857Y-85470000D01*
X134673476Y-85446190D01*
X134768714Y-85446190D01*
X134816333Y-85470000D01*
X134840142Y-85493809D01*
X134863952Y-85541428D01*
X134863952Y-85565238D01*
X134840142Y-85612857D01*
X134816333Y-85636666D01*
X134768714Y-85660476D01*
X134673476Y-85660476D01*
X134625857Y-85684285D01*
X134602047Y-85708095D01*
X134578238Y-85755714D01*
X134578238Y-85850952D01*
X134602047Y-85898571D01*
X134625857Y-85922380D01*
X134673476Y-85946190D01*
X134768714Y-85946190D01*
X134816333Y-85922380D01*
X134840142Y-85898571D01*
X134863952Y-85850952D01*
X134863952Y-85755714D01*
X134840142Y-85708095D01*
X134816333Y-85684285D01*
X134768714Y-85660476D01*
X133602047Y-88496190D02*
X133602047Y-87996190D01*
X133792523Y-87996190D01*
X133840142Y-88020000D01*
X133863952Y-88043809D01*
X133887761Y-88091428D01*
X133887761Y-88162857D01*
X133863952Y-88210476D01*
X133840142Y-88234285D01*
X133792523Y-88258095D01*
X133602047Y-88258095D01*
X134102047Y-88496190D02*
X134102047Y-87996190D01*
X134221095Y-87996190D01*
X134292523Y-88020000D01*
X134340142Y-88067619D01*
X134363952Y-88115238D01*
X134387761Y-88210476D01*
X134387761Y-88281904D01*
X134363952Y-88377142D01*
X134340142Y-88424761D01*
X134292523Y-88472380D01*
X134221095Y-88496190D01*
X134102047Y-88496190D01*
X134554428Y-87996190D02*
X134887761Y-87996190D01*
X134673476Y-88496190D01*
X133602047Y-91046190D02*
X133602047Y-90546190D01*
X133792523Y-90546190D01*
X133840142Y-90570000D01*
X133863952Y-90593809D01*
X133887761Y-90641428D01*
X133887761Y-90712857D01*
X133863952Y-90760476D01*
X133840142Y-90784285D01*
X133792523Y-90808095D01*
X133602047Y-90808095D01*
X134102047Y-91046190D02*
X134102047Y-90546190D01*
X134221095Y-90546190D01*
X134292523Y-90570000D01*
X134340142Y-90617619D01*
X134363952Y-90665238D01*
X134387761Y-90760476D01*
X134387761Y-90831904D01*
X134363952Y-90927142D01*
X134340142Y-90974761D01*
X134292523Y-91022380D01*
X134221095Y-91046190D01*
X134102047Y-91046190D01*
X134816333Y-90546190D02*
X134721095Y-90546190D01*
X134673476Y-90570000D01*
X134649666Y-90593809D01*
X134602047Y-90665238D01*
X134578238Y-90760476D01*
X134578238Y-90950952D01*
X134602047Y-90998571D01*
X134625857Y-91022380D01*
X134673476Y-91046190D01*
X134768714Y-91046190D01*
X134816333Y-91022380D01*
X134840142Y-90998571D01*
X134863952Y-90950952D01*
X134863952Y-90831904D01*
X134840142Y-90784285D01*
X134816333Y-90760476D01*
X134768714Y-90736666D01*
X134673476Y-90736666D01*
X134625857Y-90760476D01*
X134602047Y-90784285D01*
X134578238Y-90831904D01*
X133602047Y-93596190D02*
X133602047Y-93096190D01*
X133792523Y-93096190D01*
X133840142Y-93120000D01*
X133863952Y-93143809D01*
X133887761Y-93191428D01*
X133887761Y-93262857D01*
X133863952Y-93310476D01*
X133840142Y-93334285D01*
X133792523Y-93358095D01*
X133602047Y-93358095D01*
X134102047Y-93596190D02*
X134102047Y-93096190D01*
X134221095Y-93096190D01*
X134292523Y-93120000D01*
X134340142Y-93167619D01*
X134363952Y-93215238D01*
X134387761Y-93310476D01*
X134387761Y-93381904D01*
X134363952Y-93477142D01*
X134340142Y-93524761D01*
X134292523Y-93572380D01*
X134221095Y-93596190D01*
X134102047Y-93596190D01*
X134840142Y-93096190D02*
X134602047Y-93096190D01*
X134578238Y-93334285D01*
X134602047Y-93310476D01*
X134649666Y-93286666D01*
X134768714Y-93286666D01*
X134816333Y-93310476D01*
X134840142Y-93334285D01*
X134863952Y-93381904D01*
X134863952Y-93500952D01*
X134840142Y-93548571D01*
X134816333Y-93572380D01*
X134768714Y-93596190D01*
X134649666Y-93596190D01*
X134602047Y-93572380D01*
X134578238Y-93548571D01*
X133602047Y-96146190D02*
X133602047Y-95646190D01*
X133792523Y-95646190D01*
X133840142Y-95670000D01*
X133863952Y-95693809D01*
X133887761Y-95741428D01*
X133887761Y-95812857D01*
X133863952Y-95860476D01*
X133840142Y-95884285D01*
X133792523Y-95908095D01*
X133602047Y-95908095D01*
X134102047Y-96146190D02*
X134102047Y-95646190D01*
X134221095Y-95646190D01*
X134292523Y-95670000D01*
X134340142Y-95717619D01*
X134363952Y-95765238D01*
X134387761Y-95860476D01*
X134387761Y-95931904D01*
X134363952Y-96027142D01*
X134340142Y-96074761D01*
X134292523Y-96122380D01*
X134221095Y-96146190D01*
X134102047Y-96146190D01*
X134816333Y-95812857D02*
X134816333Y-96146190D01*
X134697285Y-95622380D02*
X134578238Y-95979523D01*
X134887761Y-95979523D01*
X133602047Y-98696190D02*
X133602047Y-98196190D01*
X133792523Y-98196190D01*
X133840142Y-98220000D01*
X133863952Y-98243809D01*
X133887761Y-98291428D01*
X133887761Y-98362857D01*
X133863952Y-98410476D01*
X133840142Y-98434285D01*
X133792523Y-98458095D01*
X133602047Y-98458095D01*
X134268714Y-98434285D02*
X134340142Y-98458095D01*
X134363952Y-98481904D01*
X134387761Y-98529523D01*
X134387761Y-98600952D01*
X134363952Y-98648571D01*
X134340142Y-98672380D01*
X134292523Y-98696190D01*
X134102047Y-98696190D01*
X134102047Y-98196190D01*
X134268714Y-98196190D01*
X134316333Y-98220000D01*
X134340142Y-98243809D01*
X134363952Y-98291428D01*
X134363952Y-98339047D01*
X134340142Y-98386666D01*
X134316333Y-98410476D01*
X134268714Y-98434285D01*
X134102047Y-98434285D01*
X134863952Y-98696190D02*
X134578238Y-98696190D01*
X134721095Y-98696190D02*
X134721095Y-98196190D01*
X134673476Y-98267619D01*
X134625857Y-98315238D01*
X134578238Y-98339047D01*
X135292523Y-98362857D02*
X135292523Y-98696190D01*
X135173476Y-98172380D02*
X135054428Y-98529523D01*
X135363952Y-98529523D01*
X133602047Y-101246190D02*
X133602047Y-100746190D01*
X133792523Y-100746190D01*
X133840142Y-100770000D01*
X133863952Y-100793809D01*
X133887761Y-100841428D01*
X133887761Y-100912857D01*
X133863952Y-100960476D01*
X133840142Y-100984285D01*
X133792523Y-101008095D01*
X133602047Y-101008095D01*
X134268714Y-100984285D02*
X134340142Y-101008095D01*
X134363952Y-101031904D01*
X134387761Y-101079523D01*
X134387761Y-101150952D01*
X134363952Y-101198571D01*
X134340142Y-101222380D01*
X134292523Y-101246190D01*
X134102047Y-101246190D01*
X134102047Y-100746190D01*
X134268714Y-100746190D01*
X134316333Y-100770000D01*
X134340142Y-100793809D01*
X134363952Y-100841428D01*
X134363952Y-100889047D01*
X134340142Y-100936666D01*
X134316333Y-100960476D01*
X134268714Y-100984285D01*
X134102047Y-100984285D01*
X134863952Y-101246190D02*
X134578238Y-101246190D01*
X134721095Y-101246190D02*
X134721095Y-100746190D01*
X134673476Y-100817619D01*
X134625857Y-100865238D01*
X134578238Y-100889047D01*
X135030619Y-100746190D02*
X135340142Y-100746190D01*
X135173476Y-100936666D01*
X135244904Y-100936666D01*
X135292523Y-100960476D01*
X135316333Y-100984285D01*
X135340142Y-101031904D01*
X135340142Y-101150952D01*
X135316333Y-101198571D01*
X135292523Y-101222380D01*
X135244904Y-101246190D01*
X135102047Y-101246190D01*
X135054428Y-101222380D01*
X135030619Y-101198571D01*
X133602047Y-103796190D02*
X133602047Y-103296190D01*
X133792523Y-103296190D01*
X133840142Y-103320000D01*
X133863952Y-103343809D01*
X133887761Y-103391428D01*
X133887761Y-103462857D01*
X133863952Y-103510476D01*
X133840142Y-103534285D01*
X133792523Y-103558095D01*
X133602047Y-103558095D01*
X134268714Y-103534285D02*
X134340142Y-103558095D01*
X134363952Y-103581904D01*
X134387761Y-103629523D01*
X134387761Y-103700952D01*
X134363952Y-103748571D01*
X134340142Y-103772380D01*
X134292523Y-103796190D01*
X134102047Y-103796190D01*
X134102047Y-103296190D01*
X134268714Y-103296190D01*
X134316333Y-103320000D01*
X134340142Y-103343809D01*
X134363952Y-103391428D01*
X134363952Y-103439047D01*
X134340142Y-103486666D01*
X134316333Y-103510476D01*
X134268714Y-103534285D01*
X134102047Y-103534285D01*
X134863952Y-103796190D02*
X134578238Y-103796190D01*
X134721095Y-103796190D02*
X134721095Y-103296190D01*
X134673476Y-103367619D01*
X134625857Y-103415238D01*
X134578238Y-103439047D01*
X135340142Y-103796190D02*
X135054428Y-103796190D01*
X135197285Y-103796190D02*
X135197285Y-103296190D01*
X135149666Y-103367619D01*
X135102047Y-103415238D01*
X135054428Y-103439047D01*
X133887761Y-106346190D02*
X133721095Y-106108095D01*
X133602047Y-106346190D02*
X133602047Y-105846190D01*
X133792523Y-105846190D01*
X133840142Y-105870000D01*
X133863952Y-105893809D01*
X133887761Y-105941428D01*
X133887761Y-106012857D01*
X133863952Y-106060476D01*
X133840142Y-106084285D01*
X133792523Y-106108095D01*
X133602047Y-106108095D01*
X134078238Y-106322380D02*
X134149666Y-106346190D01*
X134268714Y-106346190D01*
X134316333Y-106322380D01*
X134340142Y-106298571D01*
X134363952Y-106250952D01*
X134363952Y-106203333D01*
X134340142Y-106155714D01*
X134316333Y-106131904D01*
X134268714Y-106108095D01*
X134173476Y-106084285D01*
X134125857Y-106060476D01*
X134102047Y-106036666D01*
X134078238Y-105989047D01*
X134078238Y-105941428D01*
X134102047Y-105893809D01*
X134125857Y-105870000D01*
X134173476Y-105846190D01*
X134292523Y-105846190D01*
X134363952Y-105870000D01*
X134506809Y-105846190D02*
X134792523Y-105846190D01*
X134649666Y-106346190D02*
X134649666Y-105846190D01*
X133602047Y-108896190D02*
X133602047Y-108396190D01*
X133792523Y-108396190D01*
X133840142Y-108420000D01*
X133863952Y-108443809D01*
X133887761Y-108491428D01*
X133887761Y-108562857D01*
X133863952Y-108610476D01*
X133840142Y-108634285D01*
X133792523Y-108658095D01*
X133602047Y-108658095D01*
X134078238Y-108753333D02*
X134316333Y-108753333D01*
X134030619Y-108896190D02*
X134197285Y-108396190D01*
X134363952Y-108896190D01*
X134792523Y-108896190D02*
X134506809Y-108896190D01*
X134649666Y-108896190D02*
X134649666Y-108396190D01*
X134602047Y-108467619D01*
X134554428Y-108515238D01*
X134506809Y-108539047D01*
X135102047Y-108396190D02*
X135149666Y-108396190D01*
X135197285Y-108420000D01*
X135221095Y-108443809D01*
X135244904Y-108491428D01*
X135268714Y-108586666D01*
X135268714Y-108705714D01*
X135244904Y-108800952D01*
X135221095Y-108848571D01*
X135197285Y-108872380D01*
X135149666Y-108896190D01*
X135102047Y-108896190D01*
X135054428Y-108872380D01*
X135030619Y-108848571D01*
X135006809Y-108800952D01*
X134983000Y-108705714D01*
X134983000Y-108586666D01*
X135006809Y-108491428D01*
X135030619Y-108443809D01*
X135054428Y-108420000D01*
X135102047Y-108396190D01*
X133602047Y-111446190D02*
X133602047Y-110946190D01*
X133792523Y-110946190D01*
X133840142Y-110970000D01*
X133863952Y-110993809D01*
X133887761Y-111041428D01*
X133887761Y-111112857D01*
X133863952Y-111160476D01*
X133840142Y-111184285D01*
X133792523Y-111208095D01*
X133602047Y-111208095D01*
X134078238Y-111303333D02*
X134316333Y-111303333D01*
X134030619Y-111446190D02*
X134197285Y-110946190D01*
X134363952Y-111446190D01*
X134554428Y-111446190D02*
X134649666Y-111446190D01*
X134697285Y-111422380D01*
X134721095Y-111398571D01*
X134768714Y-111327142D01*
X134792523Y-111231904D01*
X134792523Y-111041428D01*
X134768714Y-110993809D01*
X134744904Y-110970000D01*
X134697285Y-110946190D01*
X134602047Y-110946190D01*
X134554428Y-110970000D01*
X134530619Y-110993809D01*
X134506809Y-111041428D01*
X134506809Y-111160476D01*
X134530619Y-111208095D01*
X134554428Y-111231904D01*
X134602047Y-111255714D01*
X134697285Y-111255714D01*
X134744904Y-111231904D01*
X134768714Y-111208095D01*
X134792523Y-111160476D01*
X133602047Y-113996190D02*
X133602047Y-113496190D01*
X133792523Y-113496190D01*
X133840142Y-113520000D01*
X133863952Y-113543809D01*
X133887761Y-113591428D01*
X133887761Y-113662857D01*
X133863952Y-113710476D01*
X133840142Y-113734285D01*
X133792523Y-113758095D01*
X133602047Y-113758095D01*
X134078238Y-113853333D02*
X134316333Y-113853333D01*
X134030619Y-113996190D02*
X134197285Y-113496190D01*
X134363952Y-113996190D01*
X134602047Y-113710476D02*
X134554428Y-113686666D01*
X134530619Y-113662857D01*
X134506809Y-113615238D01*
X134506809Y-113591428D01*
X134530619Y-113543809D01*
X134554428Y-113520000D01*
X134602047Y-113496190D01*
X134697285Y-113496190D01*
X134744904Y-113520000D01*
X134768714Y-113543809D01*
X134792523Y-113591428D01*
X134792523Y-113615238D01*
X134768714Y-113662857D01*
X134744904Y-113686666D01*
X134697285Y-113710476D01*
X134602047Y-113710476D01*
X134554428Y-113734285D01*
X134530619Y-113758095D01*
X134506809Y-113805714D01*
X134506809Y-113900952D01*
X134530619Y-113948571D01*
X134554428Y-113972380D01*
X134602047Y-113996190D01*
X134697285Y-113996190D01*
X134744904Y-113972380D01*
X134768714Y-113948571D01*
X134792523Y-113900952D01*
X134792523Y-113805714D01*
X134768714Y-113758095D01*
X134744904Y-113734285D01*
X134697285Y-113710476D01*
X133863952Y-116070000D02*
X133816333Y-116046190D01*
X133744904Y-116046190D01*
X133673476Y-116070000D01*
X133625857Y-116117619D01*
X133602047Y-116165238D01*
X133578238Y-116260476D01*
X133578238Y-116331904D01*
X133602047Y-116427142D01*
X133625857Y-116474761D01*
X133673476Y-116522380D01*
X133744904Y-116546190D01*
X133792523Y-116546190D01*
X133863952Y-116522380D01*
X133887761Y-116498571D01*
X133887761Y-116331904D01*
X133792523Y-116331904D01*
X134102047Y-116546190D02*
X134102047Y-116046190D01*
X134387761Y-116546190D01*
X134387761Y-116046190D01*
X134625857Y-116546190D02*
X134625857Y-116046190D01*
X134744904Y-116046190D01*
X134816333Y-116070000D01*
X134863952Y-116117619D01*
X134887761Y-116165238D01*
X134911571Y-116260476D01*
X134911571Y-116331904D01*
X134887761Y-116427142D01*
X134863952Y-116474761D01*
X134816333Y-116522380D01*
X134744904Y-116546190D01*
X134625857Y-116546190D01*
X133863952Y-118620000D02*
X133816333Y-118596190D01*
X133744904Y-118596190D01*
X133673476Y-118620000D01*
X133625857Y-118667619D01*
X133602047Y-118715238D01*
X133578238Y-118810476D01*
X133578238Y-118881904D01*
X133602047Y-118977142D01*
X133625857Y-119024761D01*
X133673476Y-119072380D01*
X133744904Y-119096190D01*
X133792523Y-119096190D01*
X133863952Y-119072380D01*
X133887761Y-119048571D01*
X133887761Y-118881904D01*
X133792523Y-118881904D01*
X134102047Y-119096190D02*
X134102047Y-118596190D01*
X134387761Y-119096190D01*
X134387761Y-118596190D01*
X134625857Y-119096190D02*
X134625857Y-118596190D01*
X134744904Y-118596190D01*
X134816333Y-118620000D01*
X134863952Y-118667619D01*
X134887761Y-118715238D01*
X134911571Y-118810476D01*
X134911571Y-118881904D01*
X134887761Y-118977142D01*
X134863952Y-119024761D01*
X134816333Y-119072380D01*
X134744904Y-119096190D01*
X134625857Y-119096190D01*
X133863952Y-121170000D02*
X133816333Y-121146190D01*
X133744904Y-121146190D01*
X133673476Y-121170000D01*
X133625857Y-121217619D01*
X133602047Y-121265238D01*
X133578238Y-121360476D01*
X133578238Y-121431904D01*
X133602047Y-121527142D01*
X133625857Y-121574761D01*
X133673476Y-121622380D01*
X133744904Y-121646190D01*
X133792523Y-121646190D01*
X133863952Y-121622380D01*
X133887761Y-121598571D01*
X133887761Y-121431904D01*
X133792523Y-121431904D01*
X134102047Y-121646190D02*
X134102047Y-121146190D01*
X134387761Y-121646190D01*
X134387761Y-121146190D01*
X134625857Y-121646190D02*
X134625857Y-121146190D01*
X134744904Y-121146190D01*
X134816333Y-121170000D01*
X134863952Y-121217619D01*
X134887761Y-121265238D01*
X134911571Y-121360476D01*
X134911571Y-121431904D01*
X134887761Y-121527142D01*
X134863952Y-121574761D01*
X134816333Y-121622380D01*
X134744904Y-121646190D01*
X134625857Y-121646190D01*
D11*
X125669428Y-108320714D02*
X125907523Y-108987380D01*
X126145619Y-108320714D01*
X126717047Y-107987380D02*
X126812285Y-107987380D01*
X126907523Y-108035000D01*
X126955142Y-108082619D01*
X127002761Y-108177857D01*
X127050380Y-108368333D01*
X127050380Y-108606428D01*
X127002761Y-108796904D01*
X126955142Y-108892142D01*
X126907523Y-108939761D01*
X126812285Y-108987380D01*
X126717047Y-108987380D01*
X126621809Y-108939761D01*
X126574190Y-108892142D01*
X126526571Y-108796904D01*
X126478952Y-108606428D01*
X126478952Y-108368333D01*
X126526571Y-108177857D01*
X126574190Y-108082619D01*
X126621809Y-108035000D01*
X126717047Y-107987380D01*
X127478952Y-108892142D02*
X127526571Y-108939761D01*
X127478952Y-108987380D01*
X127431333Y-108939761D01*
X127478952Y-108892142D01*
X127478952Y-108987380D01*
X128478952Y-108987380D02*
X127907523Y-108987380D01*
X128193238Y-108987380D02*
X128193238Y-107987380D01*
X128098000Y-108130238D01*
X128002761Y-108225476D01*
X127907523Y-108273095D01*
X125412285Y-106317380D02*
X126078952Y-106317380D01*
X125412285Y-107317380D01*
X126078952Y-107317380D01*
X126364666Y-106317380D02*
X126983714Y-106317380D01*
X126650380Y-106698333D01*
X126793238Y-106698333D01*
X126888476Y-106745952D01*
X126936095Y-106793571D01*
X126983714Y-106888809D01*
X126983714Y-107126904D01*
X126936095Y-107222142D01*
X126888476Y-107269761D01*
X126793238Y-107317380D01*
X126507523Y-107317380D01*
X126412285Y-107269761D01*
X126364666Y-107222142D01*
X127983714Y-107317380D02*
X127650380Y-106841190D01*
X127412285Y-107317380D02*
X127412285Y-106317380D01*
X127793238Y-106317380D01*
X127888476Y-106365000D01*
X127936095Y-106412619D01*
X127983714Y-106507857D01*
X127983714Y-106650714D01*
X127936095Y-106745952D01*
X127888476Y-106793571D01*
X127793238Y-106841190D01*
X127412285Y-106841190D01*
X128602761Y-106317380D02*
X128698000Y-106317380D01*
X128793238Y-106365000D01*
X128840857Y-106412619D01*
X128888476Y-106507857D01*
X128936095Y-106698333D01*
X128936095Y-106936428D01*
X128888476Y-107126904D01*
X128840857Y-107222142D01*
X128793238Y-107269761D01*
X128698000Y-107317380D01*
X128602761Y-107317380D01*
X128507523Y-107269761D01*
X128459904Y-107222142D01*
X128412285Y-107126904D01*
X128364666Y-106936428D01*
X128364666Y-106698333D01*
X128412285Y-106507857D01*
X128459904Y-106412619D01*
X128507523Y-106365000D01*
X128602761Y-106317380D01*
D12*
X125270212Y-105943006D02*
G75*
G02X129298000Y-105965000I1987788J-4791994D01*
G01*
D13*
X128798000Y-103235000D02*
X129338000Y-105025000D01*
X128138000Y-103245000D02*
X128678000Y-105035000D01*
X128138000Y-103245000D02*
X127598000Y-105025000D01*
X127118000Y-103245000D02*
X127118000Y-105025000D01*
X126578000Y-104759010D02*
G75*
G02X126578000Y-103505000I-627005J627005D01*
G01*
D12*
X124670000Y-107730000D02*
X124670000Y-102730000D01*
X129670000Y-107730000D02*
X124670000Y-107730000D01*
X129670000Y-102730000D02*
X129670000Y-107730000D01*
X124670000Y-102730000D02*
X129670000Y-102730000D01*
D14*
X125948000Y-120566428D02*
X125948000Y-119966428D01*
X126176571Y-119966428D01*
X126233714Y-119995000D01*
X126262285Y-120023571D01*
X126290857Y-120080714D01*
X126290857Y-120166428D01*
X126262285Y-120223571D01*
X126233714Y-120252142D01*
X126176571Y-120280714D01*
X125948000Y-120280714D01*
X126490857Y-119966428D02*
X126633714Y-120566428D01*
X126748000Y-120137857D01*
X126862285Y-120566428D01*
X127005142Y-119966428D01*
X127576571Y-120566428D02*
X127376571Y-120280714D01*
X127233714Y-120566428D02*
X127233714Y-119966428D01*
X127462285Y-119966428D01*
X127519428Y-119995000D01*
X127548000Y-120023571D01*
X127576571Y-120080714D01*
X127576571Y-120166428D01*
X127548000Y-120223571D01*
X127519428Y-120252142D01*
X127462285Y-120280714D01*
X127233714Y-120280714D01*
X127998000Y-120566428D02*
X127998000Y-119966428D01*
X128226571Y-119966428D01*
X128283714Y-119995000D01*
X128312285Y-120023571D01*
X128340857Y-120080714D01*
X128340857Y-120166428D01*
X128312285Y-120223571D01*
X128283714Y-120252142D01*
X128226571Y-120280714D01*
X127998000Y-120280714D01*
X128569428Y-120395000D02*
X128855142Y-120395000D01*
X128512285Y-120566428D02*
X128712285Y-119966428D01*
X128912285Y-120566428D01*
X129055142Y-119966428D02*
X129455142Y-119966428D01*
X129198000Y-120566428D01*
D13*
X130736571Y-113223571D02*
X130236571Y-112509285D01*
X129879428Y-113223571D02*
X129879428Y-111723571D01*
X130450857Y-111723571D01*
X130593714Y-111795000D01*
X130665142Y-111866428D01*
X130736571Y-112009285D01*
X130736571Y-112223571D01*
X130665142Y-112366428D01*
X130593714Y-112437857D01*
X130450857Y-112509285D01*
X129879428Y-112509285D01*
X131308000Y-113152142D02*
X131522285Y-113223571D01*
X131879428Y-113223571D01*
X132022285Y-113152142D01*
X132093714Y-113080714D01*
X132165142Y-112937857D01*
X132165142Y-112795000D01*
X132093714Y-112652142D01*
X132022285Y-112580714D01*
X131879428Y-112509285D01*
X131593714Y-112437857D01*
X131450857Y-112366428D01*
X131379428Y-112295000D01*
X131308000Y-112152142D01*
X131308000Y-112009285D01*
X131379428Y-111866428D01*
X131450857Y-111795000D01*
X131593714Y-111723571D01*
X131950857Y-111723571D01*
X132165142Y-111795000D01*
X132593714Y-111723571D02*
X133450857Y-111723571D01*
X133022285Y-113223571D02*
X133022285Y-111723571D01*
X121980857Y-113203571D02*
X121980857Y-111703571D01*
X122552285Y-111703571D01*
X122695142Y-111775000D01*
X122766571Y-111846428D01*
X122838000Y-111989285D01*
X122838000Y-112203571D01*
X122766571Y-112346428D01*
X122695142Y-112417857D01*
X122552285Y-112489285D01*
X121980857Y-112489285D01*
X123980857Y-112417857D02*
X124195142Y-112489285D01*
X124266571Y-112560714D01*
X124338000Y-112703571D01*
X124338000Y-112917857D01*
X124266571Y-113060714D01*
X124195142Y-113132142D01*
X124052285Y-113203571D01*
X123480857Y-113203571D01*
X123480857Y-111703571D01*
X123980857Y-111703571D01*
X124123714Y-111775000D01*
X124195142Y-111846428D01*
X124266571Y-111989285D01*
X124266571Y-112132142D01*
X124195142Y-112275000D01*
X124123714Y-112346428D01*
X123980857Y-112417857D01*
X123480857Y-112417857D01*
X125195142Y-112346428D02*
X125052285Y-112275000D01*
X124980857Y-112203571D01*
X124909428Y-112060714D01*
X124909428Y-111989285D01*
X124980857Y-111846428D01*
X125052285Y-111775000D01*
X125195142Y-111703571D01*
X125480857Y-111703571D01*
X125623714Y-111775000D01*
X125695142Y-111846428D01*
X125766571Y-111989285D01*
X125766571Y-112060714D01*
X125695142Y-112203571D01*
X125623714Y-112275000D01*
X125480857Y-112346428D01*
X125195142Y-112346428D01*
X125052285Y-112417857D01*
X124980857Y-112489285D01*
X124909428Y-112632142D01*
X124909428Y-112917857D01*
X124980857Y-113060714D01*
X125052285Y-113132142D01*
X125195142Y-113203571D01*
X125480857Y-113203571D01*
X125623714Y-113132142D01*
X125695142Y-113060714D01*
X125766571Y-112917857D01*
X125766571Y-112632142D01*
X125695142Y-112489285D01*
X125623714Y-112417857D01*
X125480857Y-112346428D01*
D15*
X128128000Y-112155000D02*
X127428000Y-112155000D01*
X127428000Y-110955000D02*
X128128000Y-110955000D01*
X122188000Y-100205000D02*
X122188000Y-100905000D01*
X120988000Y-100905000D02*
X120988000Y-100205000D01*
X122918000Y-90925000D02*
X122918000Y-91625000D01*
X121718000Y-91625000D02*
X121718000Y-90925000D01*
X131528000Y-101285000D02*
X131528000Y-101985000D01*
X130328000Y-101985000D02*
X130328000Y-101285000D01*
X132148000Y-100185000D02*
X132148000Y-99485000D01*
X133348000Y-99485000D02*
X133348000Y-100185000D01*
X130868000Y-91385000D02*
X130868000Y-90685000D01*
X132068000Y-90685000D02*
X132068000Y-91385000D01*
X128388000Y-86545000D02*
X128388000Y-87245000D01*
X127188000Y-87245000D02*
X127188000Y-86545000D01*
X132178000Y-91375000D02*
X132178000Y-90675000D01*
X133378000Y-90675000D02*
X133378000Y-91375000D01*
X132408000Y-89575000D02*
X131708000Y-89575000D01*
X131708000Y-88375000D02*
X132408000Y-88375000D01*
X131248000Y-82865000D02*
X131948000Y-82865000D01*
X131948000Y-84065000D02*
X131248000Y-84065000D01*
X132388000Y-75895000D02*
X132388000Y-75195000D01*
X133588000Y-75195000D02*
X133588000Y-75895000D01*
X129788000Y-86545000D02*
X129788000Y-87245000D01*
X128588000Y-87245000D02*
X128588000Y-86545000D01*
X126103001Y-119632500D02*
X127503001Y-119632500D01*
X127503001Y-119632500D02*
X127503001Y-116832500D01*
X126103001Y-119632500D02*
X126103001Y-116832500D01*
X129938000Y-73105000D02*
X130868000Y-73105000D01*
X133098000Y-73105000D02*
X132168000Y-73105000D01*
X133098000Y-73105000D02*
X133098000Y-70945000D01*
X129938000Y-73105000D02*
X129938000Y-71645000D01*
X127873001Y-119632500D02*
X127873001Y-116832500D01*
X129273001Y-119632500D02*
X129273001Y-116832500D01*
X127873001Y-119632500D02*
X129273001Y-119632500D01*
X130758000Y-81145000D02*
X130758000Y-82285000D01*
X130758000Y-82285000D02*
X132858000Y-82285000D01*
X130758000Y-81145000D02*
X132858000Y-81145000D01*
X121258000Y-74635000D02*
X121638000Y-74635000D01*
X121258000Y-70585000D02*
X121258000Y-70325000D01*
X121258000Y-74635000D02*
X121258000Y-72865000D01*
X128878000Y-74635000D02*
X128498000Y-74635000D01*
X128878000Y-72865000D02*
X128878000Y-74635000D01*
X128878000Y-70325000D02*
X128878000Y-70585000D01*
X125958000Y-78865000D02*
X125958000Y-84065000D01*
X120758000Y-78865000D02*
X120758000Y-84065000D01*
X125388000Y-77425000D02*
X125388000Y-78865000D01*
X125958000Y-78865000D02*
X125388000Y-78865000D01*
X125958000Y-84065000D02*
X125388000Y-84065000D01*
X121328000Y-78865000D02*
X120758000Y-78865000D01*
X121328000Y-84065000D02*
X120758000Y-84065000D01*
X123868000Y-78865000D02*
X122848000Y-78865000D01*
X123868000Y-84065000D02*
X122848000Y-84065000D01*
X127968000Y-81675000D02*
X127968000Y-82675000D01*
X126608000Y-82675000D02*
X126608000Y-81675000D01*
X128638000Y-82665000D02*
X128638000Y-81665000D01*
X129998000Y-81665000D02*
X129998000Y-82665000D01*
X127488000Y-114135000D02*
X127488000Y-115135000D01*
X126128000Y-115135000D02*
X126128000Y-114135000D01*
X127298000Y-109355000D02*
X128298000Y-109355000D01*
X128298000Y-110715000D02*
X127298000Y-110715000D01*
X123438000Y-109425000D02*
X124438000Y-109425000D01*
X124438000Y-110785000D02*
X123438000Y-110785000D01*
X127908000Y-115125000D02*
X127908000Y-114125000D01*
X129268000Y-114125000D02*
X129268000Y-115125000D01*
X133548000Y-120655000D02*
X133548000Y-114455000D01*
X129848000Y-114455000D02*
X129848000Y-120655000D01*
X129848000Y-120655000D02*
X130498000Y-120655000D01*
X132898000Y-120655000D02*
X133548000Y-120655000D01*
X133548000Y-114455000D02*
X132898000Y-114455000D01*
X129848000Y-114455000D02*
X130498000Y-114455000D01*
X121968000Y-114405000D02*
X122618000Y-114405000D01*
X125668000Y-114405000D02*
X125018000Y-114405000D01*
X125018000Y-120605000D02*
X125668000Y-120605000D01*
X121968000Y-120605000D02*
X122618000Y-120605000D01*
X121968000Y-114405000D02*
X121968000Y-120605000D01*
X125668000Y-120605000D02*
X125668000Y-114405000D01*
D12*
X122049674Y-96533198D02*
X121077402Y-97505470D01*
X126858000Y-91088476D02*
X126486769Y-91459707D01*
X131984524Y-96215000D02*
X131613293Y-96586231D01*
X126858000Y-101341524D02*
X127229231Y-100970293D01*
X121731476Y-96215000D02*
X122102707Y-95843769D01*
X126858000Y-101341524D02*
X126486769Y-100970293D01*
X131984524Y-96215000D02*
X131613293Y-95843769D01*
X126858000Y-91088476D02*
X127229231Y-91459707D01*
X121731476Y-96215000D02*
X122049674Y-96533198D01*
D15*
X130188000Y-78025000D02*
X130188000Y-79825000D01*
X133408000Y-79825000D02*
X133408000Y-77375000D01*
X129848000Y-79805000D02*
X129848000Y-78005000D01*
X126628000Y-78005000D02*
X126628000Y-80455000D01*
D16*
X129811333Y-111215000D02*
X129778000Y-111248333D01*
X129678000Y-111281666D01*
X129611333Y-111281666D01*
X129511333Y-111248333D01*
X129444666Y-111181666D01*
X129411333Y-111115000D01*
X129378000Y-110981666D01*
X129378000Y-110881666D01*
X129411333Y-110748333D01*
X129444666Y-110681666D01*
X129511333Y-110615000D01*
X129611333Y-110581666D01*
X129678000Y-110581666D01*
X129778000Y-110615000D01*
X129811333Y-110648333D01*
X130478000Y-111281666D02*
X130078000Y-111281666D01*
X130278000Y-111281666D02*
X130278000Y-110581666D01*
X130211333Y-110681666D01*
X130144666Y-110748333D01*
X130078000Y-110781666D01*
X122911333Y-101445000D02*
X122878000Y-101478333D01*
X122778000Y-101511666D01*
X122711333Y-101511666D01*
X122611333Y-101478333D01*
X122544666Y-101411666D01*
X122511333Y-101345000D01*
X122478000Y-101211666D01*
X122478000Y-101111666D01*
X122511333Y-100978333D01*
X122544666Y-100911666D01*
X122611333Y-100845000D01*
X122711333Y-100811666D01*
X122778000Y-100811666D01*
X122878000Y-100845000D01*
X122911333Y-100878333D01*
X123178000Y-100878333D02*
X123211333Y-100845000D01*
X123278000Y-100811666D01*
X123444666Y-100811666D01*
X123511333Y-100845000D01*
X123544666Y-100878333D01*
X123578000Y-100945000D01*
X123578000Y-101011666D01*
X123544666Y-101111666D01*
X123144666Y-101511666D01*
X123578000Y-101511666D01*
X122211333Y-89315000D02*
X122178000Y-89348333D01*
X122078000Y-89381666D01*
X122011333Y-89381666D01*
X121911333Y-89348333D01*
X121844666Y-89281666D01*
X121811333Y-89215000D01*
X121778000Y-89081666D01*
X121778000Y-88981666D01*
X121811333Y-88848333D01*
X121844666Y-88781666D01*
X121911333Y-88715000D01*
X122011333Y-88681666D01*
X122078000Y-88681666D01*
X122178000Y-88715000D01*
X122211333Y-88748333D01*
X122444666Y-88681666D02*
X122878000Y-88681666D01*
X122644666Y-88948333D01*
X122744666Y-88948333D01*
X122811333Y-88981666D01*
X122844666Y-89015000D01*
X122878000Y-89081666D01*
X122878000Y-89248333D01*
X122844666Y-89315000D01*
X122811333Y-89348333D01*
X122744666Y-89381666D01*
X122544666Y-89381666D01*
X122478000Y-89348333D01*
X122444666Y-89315000D01*
X130811333Y-103975000D02*
X130778000Y-104008333D01*
X130678000Y-104041666D01*
X130611333Y-104041666D01*
X130511333Y-104008333D01*
X130444666Y-103941666D01*
X130411333Y-103875000D01*
X130378000Y-103741666D01*
X130378000Y-103641666D01*
X130411333Y-103508333D01*
X130444666Y-103441666D01*
X130511333Y-103375000D01*
X130611333Y-103341666D01*
X130678000Y-103341666D01*
X130778000Y-103375000D01*
X130811333Y-103408333D01*
X131411333Y-103575000D02*
X131411333Y-104041666D01*
X131244666Y-103308333D02*
X131078000Y-103808333D01*
X131511333Y-103808333D01*
X132591333Y-102435000D02*
X132558000Y-102468333D01*
X132458000Y-102501666D01*
X132391333Y-102501666D01*
X132291333Y-102468333D01*
X132224666Y-102401666D01*
X132191333Y-102335000D01*
X132158000Y-102201666D01*
X132158000Y-102101666D01*
X132191333Y-101968333D01*
X132224666Y-101901666D01*
X132291333Y-101835000D01*
X132391333Y-101801666D01*
X132458000Y-101801666D01*
X132558000Y-101835000D01*
X132591333Y-101868333D01*
X133224666Y-101801666D02*
X132891333Y-101801666D01*
X132858000Y-102135000D01*
X132891333Y-102101666D01*
X132958000Y-102068333D01*
X133124666Y-102068333D01*
X133191333Y-102101666D01*
X133224666Y-102135000D01*
X133258000Y-102201666D01*
X133258000Y-102368333D01*
X133224666Y-102435000D01*
X133191333Y-102468333D01*
X133124666Y-102501666D01*
X132958000Y-102501666D01*
X132891333Y-102468333D01*
X132858000Y-102435000D01*
X129951333Y-90895000D02*
X129918000Y-90928333D01*
X129818000Y-90961666D01*
X129751333Y-90961666D01*
X129651333Y-90928333D01*
X129584666Y-90861666D01*
X129551333Y-90795000D01*
X129518000Y-90661666D01*
X129518000Y-90561666D01*
X129551333Y-90428333D01*
X129584666Y-90361666D01*
X129651333Y-90295000D01*
X129751333Y-90261666D01*
X129818000Y-90261666D01*
X129918000Y-90295000D01*
X129951333Y-90328333D01*
X130551333Y-90261666D02*
X130418000Y-90261666D01*
X130351333Y-90295000D01*
X130318000Y-90328333D01*
X130251333Y-90428333D01*
X130218000Y-90561666D01*
X130218000Y-90828333D01*
X130251333Y-90895000D01*
X130284666Y-90928333D01*
X130351333Y-90961666D01*
X130484666Y-90961666D01*
X130551333Y-90928333D01*
X130584666Y-90895000D01*
X130618000Y-90828333D01*
X130618000Y-90661666D01*
X130584666Y-90595000D01*
X130551333Y-90561666D01*
X130484666Y-90528333D01*
X130351333Y-90528333D01*
X130284666Y-90561666D01*
X130251333Y-90595000D01*
X130218000Y-90661666D01*
X126301333Y-86255000D02*
X126268000Y-86288333D01*
X126168000Y-86321666D01*
X126101333Y-86321666D01*
X126001333Y-86288333D01*
X125934666Y-86221666D01*
X125901333Y-86155000D01*
X125868000Y-86021666D01*
X125868000Y-85921666D01*
X125901333Y-85788333D01*
X125934666Y-85721666D01*
X126001333Y-85655000D01*
X126101333Y-85621666D01*
X126168000Y-85621666D01*
X126268000Y-85655000D01*
X126301333Y-85688333D01*
X126534666Y-85621666D02*
X127001333Y-85621666D01*
X126701333Y-86321666D01*
X132251333Y-93195000D02*
X132218000Y-93228333D01*
X132118000Y-93261666D01*
X132051333Y-93261666D01*
X131951333Y-93228333D01*
X131884666Y-93161666D01*
X131851333Y-93095000D01*
X131818000Y-92961666D01*
X131818000Y-92861666D01*
X131851333Y-92728333D01*
X131884666Y-92661666D01*
X131951333Y-92595000D01*
X132051333Y-92561666D01*
X132118000Y-92561666D01*
X132218000Y-92595000D01*
X132251333Y-92628333D01*
X132651333Y-92861666D02*
X132584666Y-92828333D01*
X132551333Y-92795000D01*
X132518000Y-92728333D01*
X132518000Y-92695000D01*
X132551333Y-92628333D01*
X132584666Y-92595000D01*
X132651333Y-92561666D01*
X132784666Y-92561666D01*
X132851333Y-92595000D01*
X132884666Y-92628333D01*
X132918000Y-92695000D01*
X132918000Y-92728333D01*
X132884666Y-92795000D01*
X132851333Y-92828333D01*
X132784666Y-92861666D01*
X132651333Y-92861666D01*
X132584666Y-92895000D01*
X132551333Y-92928333D01*
X132518000Y-92995000D01*
X132518000Y-93128333D01*
X132551333Y-93195000D01*
X132584666Y-93228333D01*
X132651333Y-93261666D01*
X132784666Y-93261666D01*
X132851333Y-93228333D01*
X132884666Y-93195000D01*
X132918000Y-93128333D01*
X132918000Y-92995000D01*
X132884666Y-92928333D01*
X132851333Y-92895000D01*
X132784666Y-92861666D01*
X132051333Y-88115000D02*
X132018000Y-88148333D01*
X131918000Y-88181666D01*
X131851333Y-88181666D01*
X131751333Y-88148333D01*
X131684666Y-88081666D01*
X131651333Y-88015000D01*
X131618000Y-87881666D01*
X131618000Y-87781666D01*
X131651333Y-87648333D01*
X131684666Y-87581666D01*
X131751333Y-87515000D01*
X131851333Y-87481666D01*
X131918000Y-87481666D01*
X132018000Y-87515000D01*
X132051333Y-87548333D01*
X132384666Y-88181666D02*
X132518000Y-88181666D01*
X132584666Y-88148333D01*
X132618000Y-88115000D01*
X132684666Y-88015000D01*
X132718000Y-87881666D01*
X132718000Y-87615000D01*
X132684666Y-87548333D01*
X132651333Y-87515000D01*
X132584666Y-87481666D01*
X132451333Y-87481666D01*
X132384666Y-87515000D01*
X132351333Y-87548333D01*
X132318000Y-87615000D01*
X132318000Y-87781666D01*
X132351333Y-87848333D01*
X132384666Y-87881666D01*
X132451333Y-87915000D01*
X132584666Y-87915000D01*
X132651333Y-87881666D01*
X132684666Y-87848333D01*
X132718000Y-87781666D01*
X130718000Y-84975000D02*
X130684666Y-85008333D01*
X130584666Y-85041666D01*
X130518000Y-85041666D01*
X130418000Y-85008333D01*
X130351333Y-84941666D01*
X130318000Y-84875000D01*
X130284666Y-84741666D01*
X130284666Y-84641666D01*
X130318000Y-84508333D01*
X130351333Y-84441666D01*
X130418000Y-84375000D01*
X130518000Y-84341666D01*
X130584666Y-84341666D01*
X130684666Y-84375000D01*
X130718000Y-84408333D01*
X131384666Y-85041666D02*
X130984666Y-85041666D01*
X131184666Y-85041666D02*
X131184666Y-84341666D01*
X131118000Y-84441666D01*
X131051333Y-84508333D01*
X130984666Y-84541666D01*
X131818000Y-84341666D02*
X131884666Y-84341666D01*
X131951333Y-84375000D01*
X131984666Y-84408333D01*
X132018000Y-84475000D01*
X132051333Y-84608333D01*
X132051333Y-84775000D01*
X132018000Y-84908333D01*
X131984666Y-84975000D01*
X131951333Y-85008333D01*
X131884666Y-85041666D01*
X131818000Y-85041666D01*
X131751333Y-85008333D01*
X131718000Y-84975000D01*
X131684666Y-84908333D01*
X131651333Y-84775000D01*
X131651333Y-84608333D01*
X131684666Y-84475000D01*
X131718000Y-84408333D01*
X131751333Y-84375000D01*
X131818000Y-84341666D01*
X130948000Y-75175000D02*
X130914666Y-75208333D01*
X130814666Y-75241666D01*
X130748000Y-75241666D01*
X130648000Y-75208333D01*
X130581333Y-75141666D01*
X130548000Y-75075000D01*
X130514666Y-74941666D01*
X130514666Y-74841666D01*
X130548000Y-74708333D01*
X130581333Y-74641666D01*
X130648000Y-74575000D01*
X130748000Y-74541666D01*
X130814666Y-74541666D01*
X130914666Y-74575000D01*
X130948000Y-74608333D01*
X131614666Y-75241666D02*
X131214666Y-75241666D01*
X131414666Y-75241666D02*
X131414666Y-74541666D01*
X131348000Y-74641666D01*
X131281333Y-74708333D01*
X131214666Y-74741666D01*
X132281333Y-75241666D02*
X131881333Y-75241666D01*
X132081333Y-75241666D02*
X132081333Y-74541666D01*
X132014666Y-74641666D01*
X131948000Y-74708333D01*
X131881333Y-74741666D01*
X130438000Y-86205000D02*
X130404666Y-86238333D01*
X130304666Y-86271666D01*
X130238000Y-86271666D01*
X130138000Y-86238333D01*
X130071333Y-86171666D01*
X130038000Y-86105000D01*
X130004666Y-85971666D01*
X130004666Y-85871666D01*
X130038000Y-85738333D01*
X130071333Y-85671666D01*
X130138000Y-85605000D01*
X130238000Y-85571666D01*
X130304666Y-85571666D01*
X130404666Y-85605000D01*
X130438000Y-85638333D01*
X131104666Y-86271666D02*
X130704666Y-86271666D01*
X130904666Y-86271666D02*
X130904666Y-85571666D01*
X130838000Y-85671666D01*
X130771333Y-85738333D01*
X130704666Y-85771666D01*
X131371333Y-85638333D02*
X131404666Y-85605000D01*
X131471333Y-85571666D01*
X131638000Y-85571666D01*
X131704666Y-85605000D01*
X131738000Y-85638333D01*
X131771333Y-85705000D01*
X131771333Y-85771666D01*
X131738000Y-85871666D01*
X131338000Y-86271666D01*
X131771333Y-86271666D01*
X124291333Y-118871666D02*
X124291333Y-118171666D01*
X124458000Y-118171666D01*
X124558000Y-118205000D01*
X124624666Y-118271666D01*
X124658000Y-118338333D01*
X124691333Y-118471666D01*
X124691333Y-118571666D01*
X124658000Y-118705000D01*
X124624666Y-118771666D01*
X124558000Y-118838333D01*
X124458000Y-118871666D01*
X124291333Y-118871666D01*
X125358000Y-118871666D02*
X124958000Y-118871666D01*
X125158000Y-118871666D02*
X125158000Y-118171666D01*
X125091333Y-118271666D01*
X125024666Y-118338333D01*
X124958000Y-118371666D01*
X129431333Y-74161666D02*
X129431333Y-73461666D01*
X129598000Y-73461666D01*
X129698000Y-73495000D01*
X129764666Y-73561666D01*
X129798000Y-73628333D01*
X129831333Y-73761666D01*
X129831333Y-73861666D01*
X129798000Y-73995000D01*
X129764666Y-74061666D01*
X129698000Y-74128333D01*
X129598000Y-74161666D01*
X129431333Y-74161666D01*
X130098000Y-73528333D02*
X130131333Y-73495000D01*
X130198000Y-73461666D01*
X130364666Y-73461666D01*
X130431333Y-73495000D01*
X130464666Y-73528333D01*
X130498000Y-73595000D01*
X130498000Y-73661666D01*
X130464666Y-73761666D01*
X130064666Y-74161666D01*
X130498000Y-74161666D01*
X130091333Y-118981666D02*
X130091333Y-118281666D01*
X130258000Y-118281666D01*
X130358000Y-118315000D01*
X130424666Y-118381666D01*
X130458000Y-118448333D01*
X130491333Y-118581666D01*
X130491333Y-118681666D01*
X130458000Y-118815000D01*
X130424666Y-118881666D01*
X130358000Y-118948333D01*
X130258000Y-118981666D01*
X130091333Y-118981666D01*
X130724666Y-118281666D02*
X131158000Y-118281666D01*
X130924666Y-118548333D01*
X131024666Y-118548333D01*
X131091333Y-118581666D01*
X131124666Y-118615000D01*
X131158000Y-118681666D01*
X131158000Y-118848333D01*
X131124666Y-118915000D01*
X131091333Y-118948333D01*
X131024666Y-118981666D01*
X130824666Y-118981666D01*
X130758000Y-118948333D01*
X130724666Y-118915000D01*
X131321333Y-80991666D02*
X131321333Y-80291666D01*
X131488000Y-80291666D01*
X131588000Y-80325000D01*
X131654666Y-80391666D01*
X131688000Y-80458333D01*
X131721333Y-80591666D01*
X131721333Y-80691666D01*
X131688000Y-80825000D01*
X131654666Y-80891666D01*
X131588000Y-80958333D01*
X131488000Y-80991666D01*
X131321333Y-80991666D01*
X132321333Y-80525000D02*
X132321333Y-80991666D01*
X132154666Y-80258333D02*
X131988000Y-80758333D01*
X132421333Y-80758333D01*
X124594666Y-75401666D02*
X124594666Y-75901666D01*
X124561333Y-76001666D01*
X124494666Y-76068333D01*
X124394666Y-76101666D01*
X124328000Y-76101666D01*
X124861333Y-75401666D02*
X125294666Y-75401666D01*
X125061333Y-75668333D01*
X125161333Y-75668333D01*
X125228000Y-75701666D01*
X125261333Y-75735000D01*
X125294666Y-75801666D01*
X125294666Y-75968333D01*
X125261333Y-76035000D01*
X125228000Y-76068333D01*
X125161333Y-76101666D01*
X124961333Y-76101666D01*
X124894666Y-76068333D01*
X124861333Y-76035000D01*
X123064666Y-84721666D02*
X123064666Y-85221666D01*
X123031333Y-85321666D01*
X122964666Y-85388333D01*
X122864666Y-85421666D01*
X122798000Y-85421666D01*
X123698000Y-84955000D02*
X123698000Y-85421666D01*
X123531333Y-84688333D02*
X123364666Y-85188333D01*
X123798000Y-85188333D01*
X136304666Y-69061666D02*
X136304666Y-69561666D01*
X136271333Y-69661666D01*
X136204666Y-69728333D01*
X136104666Y-69761666D01*
X136038000Y-69761666D01*
X136971333Y-69061666D02*
X136638000Y-69061666D01*
X136604666Y-69395000D01*
X136638000Y-69361666D01*
X136704666Y-69328333D01*
X136871333Y-69328333D01*
X136938000Y-69361666D01*
X136971333Y-69395000D01*
X137004666Y-69461666D01*
X137004666Y-69628333D01*
X136971333Y-69695000D01*
X136938000Y-69728333D01*
X136871333Y-69761666D01*
X136704666Y-69761666D01*
X136638000Y-69728333D01*
X136604666Y-69695000D01*
X117514666Y-69111666D02*
X117514666Y-69611666D01*
X117481333Y-69711666D01*
X117414666Y-69778333D01*
X117314666Y-69811666D01*
X117248000Y-69811666D01*
X118148000Y-69111666D02*
X118014666Y-69111666D01*
X117948000Y-69145000D01*
X117914666Y-69178333D01*
X117848000Y-69278333D01*
X117814666Y-69411666D01*
X117814666Y-69678333D01*
X117848000Y-69745000D01*
X117881333Y-69778333D01*
X117948000Y-69811666D01*
X118081333Y-69811666D01*
X118148000Y-69778333D01*
X118181333Y-69745000D01*
X118214666Y-69678333D01*
X118214666Y-69511666D01*
X118181333Y-69445000D01*
X118148000Y-69411666D01*
X118081333Y-69378333D01*
X117948000Y-69378333D01*
X117881333Y-69411666D01*
X117848000Y-69445000D01*
X117814666Y-69511666D01*
X127201333Y-84271666D02*
X126968000Y-83938333D01*
X126801333Y-84271666D02*
X126801333Y-83571666D01*
X127068000Y-83571666D01*
X127134666Y-83605000D01*
X127168000Y-83638333D01*
X127201333Y-83705000D01*
X127201333Y-83805000D01*
X127168000Y-83871666D01*
X127134666Y-83905000D01*
X127068000Y-83938333D01*
X126801333Y-83938333D01*
X127868000Y-84271666D02*
X127468000Y-84271666D01*
X127668000Y-84271666D02*
X127668000Y-83571666D01*
X127601333Y-83671666D01*
X127534666Y-83738333D01*
X127468000Y-83771666D01*
X128871333Y-84241666D02*
X128638000Y-83908333D01*
X128471333Y-84241666D02*
X128471333Y-83541666D01*
X128738000Y-83541666D01*
X128804666Y-83575000D01*
X128838000Y-83608333D01*
X128871333Y-83675000D01*
X128871333Y-83775000D01*
X128838000Y-83841666D01*
X128804666Y-83875000D01*
X128738000Y-83908333D01*
X128471333Y-83908333D01*
X129138000Y-83608333D02*
X129171333Y-83575000D01*
X129238000Y-83541666D01*
X129404666Y-83541666D01*
X129471333Y-83575000D01*
X129504666Y-83608333D01*
X129538000Y-83675000D01*
X129538000Y-83741666D01*
X129504666Y-83841666D01*
X129104666Y-84241666D01*
X129538000Y-84241666D01*
X126661333Y-113151666D02*
X126428000Y-112818333D01*
X126261333Y-113151666D02*
X126261333Y-112451666D01*
X126528000Y-112451666D01*
X126594666Y-112485000D01*
X126628000Y-112518333D01*
X126661333Y-112585000D01*
X126661333Y-112685000D01*
X126628000Y-112751666D01*
X126594666Y-112785000D01*
X126528000Y-112818333D01*
X126261333Y-112818333D01*
X126894666Y-112451666D02*
X127328000Y-112451666D01*
X127094666Y-112718333D01*
X127194666Y-112718333D01*
X127261333Y-112751666D01*
X127294666Y-112785000D01*
X127328000Y-112851666D01*
X127328000Y-113018333D01*
X127294666Y-113085000D01*
X127261333Y-113118333D01*
X127194666Y-113151666D01*
X126994666Y-113151666D01*
X126928000Y-113118333D01*
X126894666Y-113085000D01*
X129741333Y-110231666D02*
X129508000Y-109898333D01*
X129341333Y-110231666D02*
X129341333Y-109531666D01*
X129608000Y-109531666D01*
X129674666Y-109565000D01*
X129708000Y-109598333D01*
X129741333Y-109665000D01*
X129741333Y-109765000D01*
X129708000Y-109831666D01*
X129674666Y-109865000D01*
X129608000Y-109898333D01*
X129341333Y-109898333D01*
X130341333Y-109765000D02*
X130341333Y-110231666D01*
X130174666Y-109498333D02*
X130008000Y-109998333D01*
X130441333Y-109998333D01*
X121711333Y-110591666D02*
X121478000Y-110258333D01*
X121311333Y-110591666D02*
X121311333Y-109891666D01*
X121578000Y-109891666D01*
X121644666Y-109925000D01*
X121678000Y-109958333D01*
X121711333Y-110025000D01*
X121711333Y-110125000D01*
X121678000Y-110191666D01*
X121644666Y-110225000D01*
X121578000Y-110258333D01*
X121311333Y-110258333D01*
X122344666Y-109891666D02*
X122011333Y-109891666D01*
X121978000Y-110225000D01*
X122011333Y-110191666D01*
X122078000Y-110158333D01*
X122244666Y-110158333D01*
X122311333Y-110191666D01*
X122344666Y-110225000D01*
X122378000Y-110291666D01*
X122378000Y-110458333D01*
X122344666Y-110525000D01*
X122311333Y-110558333D01*
X122244666Y-110591666D01*
X122078000Y-110591666D01*
X122011333Y-110558333D01*
X121978000Y-110525000D01*
X128491333Y-113151666D02*
X128258000Y-112818333D01*
X128091333Y-113151666D02*
X128091333Y-112451666D01*
X128358000Y-112451666D01*
X128424666Y-112485000D01*
X128458000Y-112518333D01*
X128491333Y-112585000D01*
X128491333Y-112685000D01*
X128458000Y-112751666D01*
X128424666Y-112785000D01*
X128358000Y-112818333D01*
X128091333Y-112818333D01*
X129091333Y-112451666D02*
X128958000Y-112451666D01*
X128891333Y-112485000D01*
X128858000Y-112518333D01*
X128791333Y-112618333D01*
X128758000Y-112751666D01*
X128758000Y-113018333D01*
X128791333Y-113085000D01*
X128824666Y-113118333D01*
X128891333Y-113151666D01*
X129024666Y-113151666D01*
X129091333Y-113118333D01*
X129124666Y-113085000D01*
X129158000Y-113018333D01*
X129158000Y-112851666D01*
X129124666Y-112785000D01*
X129091333Y-112751666D01*
X129024666Y-112718333D01*
X128891333Y-112718333D01*
X128824666Y-112751666D01*
X128791333Y-112785000D01*
X128758000Y-112851666D01*
X130744666Y-116888333D02*
X130844666Y-116921666D01*
X131011333Y-116921666D01*
X131078000Y-116888333D01*
X131111333Y-116855000D01*
X131144666Y-116788333D01*
X131144666Y-116721666D01*
X131111333Y-116655000D01*
X131078000Y-116621666D01*
X131011333Y-116588333D01*
X130878000Y-116555000D01*
X130811333Y-116521666D01*
X130778000Y-116488333D01*
X130744666Y-116421666D01*
X130744666Y-116355000D01*
X130778000Y-116288333D01*
X130811333Y-116255000D01*
X130878000Y-116221666D01*
X131044666Y-116221666D01*
X131144666Y-116255000D01*
X131378000Y-116221666D02*
X131544666Y-116921666D01*
X131678000Y-116421666D01*
X131811333Y-116921666D01*
X131978000Y-116221666D01*
X132611333Y-116921666D02*
X132211333Y-116921666D01*
X132411333Y-116921666D02*
X132411333Y-116221666D01*
X132344666Y-116321666D01*
X132278000Y-116388333D01*
X132211333Y-116421666D01*
X122854666Y-117008333D02*
X122954666Y-117041666D01*
X123121333Y-117041666D01*
X123188000Y-117008333D01*
X123221333Y-116975000D01*
X123254666Y-116908333D01*
X123254666Y-116841666D01*
X123221333Y-116775000D01*
X123188000Y-116741666D01*
X123121333Y-116708333D01*
X122988000Y-116675000D01*
X122921333Y-116641666D01*
X122888000Y-116608333D01*
X122854666Y-116541666D01*
X122854666Y-116475000D01*
X122888000Y-116408333D01*
X122921333Y-116375000D01*
X122988000Y-116341666D01*
X123154666Y-116341666D01*
X123254666Y-116375000D01*
X123488000Y-116341666D02*
X123654666Y-117041666D01*
X123788000Y-116541666D01*
X123921333Y-117041666D01*
X124088000Y-116341666D01*
X124321333Y-116408333D02*
X124354666Y-116375000D01*
X124421333Y-116341666D01*
X124588000Y-116341666D01*
X124654666Y-116375000D01*
X124688000Y-116408333D01*
X124721333Y-116475000D01*
X124721333Y-116541666D01*
X124688000Y-116641666D01*
X124288000Y-117041666D01*
X124721333Y-117041666D01*
X126454665Y-90011666D02*
X126454665Y-90578333D01*
X126487999Y-90645000D01*
X126521332Y-90678333D01*
X126587999Y-90711666D01*
X126721332Y-90711666D01*
X126787999Y-90678333D01*
X126821332Y-90645000D01*
X126854665Y-90578333D01*
X126854665Y-90011666D01*
X127554665Y-90711666D02*
X127154665Y-90711666D01*
X127354665Y-90711666D02*
X127354665Y-90011666D01*
X127287999Y-90111666D01*
X127221332Y-90178333D01*
X127154665Y-90211666D01*
X130194666Y-76151666D02*
X130194666Y-76718333D01*
X130228000Y-76785000D01*
X130261333Y-76818333D01*
X130328000Y-76851666D01*
X130461333Y-76851666D01*
X130528000Y-76818333D01*
X130561333Y-76785000D01*
X130594666Y-76718333D01*
X130594666Y-76151666D01*
X130894666Y-76218333D02*
X130928000Y-76185000D01*
X130994666Y-76151666D01*
X131161333Y-76151666D01*
X131228000Y-76185000D01*
X131261333Y-76218333D01*
X131294666Y-76285000D01*
X131294666Y-76351666D01*
X131261333Y-76451666D01*
X130861333Y-76851666D01*
X131294666Y-76851666D01*
X127774666Y-76151666D02*
X127774666Y-76718333D01*
X127808000Y-76785000D01*
X127841333Y-76818333D01*
X127908000Y-76851666D01*
X128041333Y-76851666D01*
X128108000Y-76818333D01*
X128141333Y-76785000D01*
X128174666Y-76718333D01*
X128174666Y-76151666D01*
X128441333Y-76151666D02*
X128874666Y-76151666D01*
X128641333Y-76418333D01*
X128741333Y-76418333D01*
X128808000Y-76451666D01*
X128841333Y-76485000D01*
X128874666Y-76551666D01*
X128874666Y-76718333D01*
X128841333Y-76785000D01*
X128808000Y-76818333D01*
X128741333Y-76851666D01*
X128541333Y-76851666D01*
X128474666Y-76818333D01*
X128441333Y-76785000D01*
M02*
