G04 #@! TF.GenerationSoftware,KiCad,Pcbnew,no-vcs-found-91ed3e2~59~ubuntu16.04.1*
G04 #@! TF.CreationDate,2017-10-23T14:28:14-03:00*
G04 #@! TF.ProjectId,ciaa-z3r0,636961612D7A3372302E6B696361645F,rev?*
G04 #@! TF.SameCoordinates,Original*
G04 #@! TF.FileFunction,Other,Fab,Top*
%FSLAX46Y46*%
G04 Gerber Fmt 4.6, Leading zero omitted, Abs format (unit mm)*
G04 Created by KiCad (PCBNEW no-vcs-found-91ed3e2~59~ubuntu16.04.1) date Mon Oct 23 14:28:14 2017*
%MOMM*%
%LPD*%
G01*
G04 APERTURE LIST*
%ADD10C,0.100000*%
%ADD11C,0.150000*%
%ADD12C,0.075000*%
G04 APERTURE END LIST*
D10*
X126978000Y-111155000D02*
X128578000Y-111155000D01*
X128578000Y-111155000D02*
X128578000Y-111955000D01*
X128578000Y-111955000D02*
X126978000Y-111955000D01*
X126978000Y-111955000D02*
X126978000Y-111155000D01*
X121188000Y-99755000D02*
X121988000Y-99755000D01*
X121188000Y-101355000D02*
X121188000Y-99755000D01*
X121988000Y-101355000D02*
X121188000Y-101355000D01*
X121988000Y-99755000D02*
X121988000Y-101355000D01*
X121918000Y-92075000D02*
X121918000Y-90475000D01*
X121918000Y-90475000D02*
X122718000Y-90475000D01*
X122718000Y-90475000D02*
X122718000Y-92075000D01*
X122718000Y-92075000D02*
X121918000Y-92075000D01*
X130528000Y-102435000D02*
X130528000Y-100835000D01*
X130528000Y-100835000D02*
X131328000Y-100835000D01*
X131328000Y-100835000D02*
X131328000Y-102435000D01*
X131328000Y-102435000D02*
X130528000Y-102435000D01*
X133148000Y-100635000D02*
X132348000Y-100635000D01*
X133148000Y-99035000D02*
X133148000Y-100635000D01*
X132348000Y-99035000D02*
X133148000Y-99035000D01*
X132348000Y-100635000D02*
X132348000Y-99035000D01*
X131868000Y-91835000D02*
X131068000Y-91835000D01*
X131868000Y-90235000D02*
X131868000Y-91835000D01*
X131068000Y-90235000D02*
X131868000Y-90235000D01*
X131068000Y-91835000D02*
X131068000Y-90235000D01*
X127388000Y-87695000D02*
X127388000Y-86095000D01*
X127388000Y-86095000D02*
X128188000Y-86095000D01*
X128188000Y-86095000D02*
X128188000Y-87695000D01*
X128188000Y-87695000D02*
X127388000Y-87695000D01*
X133178000Y-91825000D02*
X132378000Y-91825000D01*
X133178000Y-90225000D02*
X133178000Y-91825000D01*
X132378000Y-90225000D02*
X133178000Y-90225000D01*
X132378000Y-91825000D02*
X132378000Y-90225000D01*
X131258000Y-88575000D02*
X132858000Y-88575000D01*
X132858000Y-88575000D02*
X132858000Y-89375000D01*
X132858000Y-89375000D02*
X131258000Y-89375000D01*
X131258000Y-89375000D02*
X131258000Y-88575000D01*
X130798000Y-83865000D02*
X130798000Y-83065000D01*
X132398000Y-83865000D02*
X130798000Y-83865000D01*
X132398000Y-83065000D02*
X132398000Y-83865000D01*
X130798000Y-83065000D02*
X132398000Y-83065000D01*
X133388000Y-76345000D02*
X132588000Y-76345000D01*
X133388000Y-74745000D02*
X133388000Y-76345000D01*
X132588000Y-74745000D02*
X133388000Y-74745000D01*
X132588000Y-76345000D02*
X132588000Y-74745000D01*
X128788000Y-87695000D02*
X128788000Y-86095000D01*
X128788000Y-86095000D02*
X129588000Y-86095000D01*
X129588000Y-86095000D02*
X129588000Y-87695000D01*
X129588000Y-87695000D02*
X128788000Y-87695000D01*
X126403001Y-118232500D02*
X127203001Y-118232500D01*
X126803001Y-118232500D02*
X126403001Y-117632500D01*
X127203001Y-117632500D02*
X126803001Y-118232500D01*
X126403001Y-117632500D02*
X127203001Y-117632500D01*
X127403001Y-116832500D02*
X127403001Y-118832500D01*
X126203001Y-116832500D02*
X127403001Y-116832500D01*
X126203001Y-118832500D02*
X126203001Y-116832500D01*
X127403001Y-118832500D02*
X126203001Y-118832500D01*
X132468000Y-71645000D02*
X130018000Y-71645000D01*
X133038000Y-72195000D02*
X133038000Y-73045000D01*
X132468000Y-71645000D02*
X133038000Y-72195000D01*
X133038000Y-73045000D02*
X129998000Y-73045000D01*
X129998000Y-71645000D02*
X129998000Y-73045000D01*
X129173001Y-118832500D02*
X127973001Y-118832500D01*
X127973001Y-118832500D02*
X127973001Y-116832500D01*
X127973001Y-116832500D02*
X129173001Y-116832500D01*
X129173001Y-116832500D02*
X129173001Y-118832500D01*
X128173001Y-117632500D02*
X128973001Y-117632500D01*
X128973001Y-117632500D02*
X128573001Y-118232500D01*
X128573001Y-118232500D02*
X128173001Y-117632500D01*
X128173001Y-118232500D02*
X128973001Y-118232500D01*
X132258000Y-81715000D02*
X132458000Y-81715000D01*
X131958000Y-81715000D02*
X131758000Y-81715000D01*
X131958000Y-81515000D02*
X131958000Y-81915000D01*
X132258000Y-81915000D02*
X132258000Y-81515000D01*
X131958000Y-81715000D02*
X132258000Y-81915000D01*
X132258000Y-81515000D02*
X131958000Y-81715000D01*
X131258000Y-82165000D02*
X131258000Y-81265000D01*
X132858000Y-82165000D02*
X131258000Y-82165000D01*
X132858000Y-81265000D02*
X132858000Y-82165000D01*
X131258000Y-81265000D02*
X132858000Y-81265000D01*
X121318000Y-69575000D02*
X128818000Y-69575000D01*
X121318000Y-74575000D02*
X121318000Y-69575000D01*
X128818000Y-74575000D02*
X121318000Y-74575000D01*
X128818000Y-69575000D02*
X128818000Y-74575000D01*
X128318000Y-70275000D02*
X121818000Y-70275000D01*
X120818000Y-84005000D02*
X120818000Y-78925000D01*
X125898000Y-79875000D02*
X125898000Y-84005000D01*
X120818000Y-78925000D02*
X124948000Y-78925000D01*
X124948000Y-78925000D02*
X125898000Y-79875000D01*
X125898000Y-84005000D02*
X120818000Y-84005000D01*
X124948000Y-78925000D02*
X124948000Y-77865000D01*
X124948000Y-77865000D02*
X124308000Y-77865000D01*
X124308000Y-77865000D02*
X124308000Y-78925000D01*
X124948000Y-84005000D02*
X124948000Y-85065000D01*
X124948000Y-85065000D02*
X124308000Y-85065000D01*
X124308000Y-85065000D02*
X124308000Y-84005000D01*
X122408000Y-78925000D02*
X122408000Y-77865000D01*
X122408000Y-77865000D02*
X121768000Y-77865000D01*
X121768000Y-77865000D02*
X121768000Y-78925000D01*
X122408000Y-84005000D02*
X122408000Y-85065000D01*
X122408000Y-85065000D02*
X121768000Y-85065000D01*
X121768000Y-85065000D02*
X121768000Y-84005000D01*
X127688000Y-81375000D02*
X127688000Y-82975000D01*
X127688000Y-82975000D02*
X126888000Y-82975000D01*
X126888000Y-82975000D02*
X126888000Y-81375000D01*
X126888000Y-81375000D02*
X127688000Y-81375000D01*
X128918000Y-81365000D02*
X129718000Y-81365000D01*
X128918000Y-82965000D02*
X128918000Y-81365000D01*
X129718000Y-82965000D02*
X128918000Y-82965000D01*
X129718000Y-81365000D02*
X129718000Y-82965000D01*
X127208000Y-115435000D02*
X126408000Y-115435000D01*
X127208000Y-113835000D02*
X127208000Y-115435000D01*
X126408000Y-113835000D02*
X127208000Y-113835000D01*
X126408000Y-115435000D02*
X126408000Y-113835000D01*
X126998000Y-109635000D02*
X128598000Y-109635000D01*
X128598000Y-109635000D02*
X128598000Y-110435000D01*
X128598000Y-110435000D02*
X126998000Y-110435000D01*
X126998000Y-110435000D02*
X126998000Y-109635000D01*
X124738000Y-109705000D02*
X124738000Y-110505000D01*
X123138000Y-109705000D02*
X124738000Y-109705000D01*
X123138000Y-110505000D02*
X123138000Y-109705000D01*
X124738000Y-110505000D02*
X123138000Y-110505000D01*
X128188000Y-115425000D02*
X128188000Y-113825000D01*
X128188000Y-113825000D02*
X128988000Y-113825000D01*
X128988000Y-113825000D02*
X128988000Y-115425000D01*
X128988000Y-115425000D02*
X128188000Y-115425000D01*
X132398000Y-118955000D02*
X130998000Y-118955000D01*
X132398000Y-116155000D02*
X132398000Y-118955000D01*
X130998000Y-116155000D02*
X132398000Y-116155000D01*
X130998000Y-118955000D02*
X130998000Y-116155000D01*
X129948000Y-120555000D02*
X129948000Y-114555000D01*
X133448000Y-120555000D02*
X129948000Y-120555000D01*
X133448000Y-114555000D02*
X133448000Y-120555000D01*
X129948000Y-114555000D02*
X133448000Y-114555000D01*
X122068000Y-114505000D02*
X125568000Y-114505000D01*
X125568000Y-114505000D02*
X125568000Y-120505000D01*
X125568000Y-120505000D02*
X122068000Y-120505000D01*
X122068000Y-120505000D02*
X122068000Y-114505000D01*
X123118000Y-118905000D02*
X123118000Y-116105000D01*
X123118000Y-116105000D02*
X124518000Y-116105000D01*
X124518000Y-116105000D02*
X124518000Y-118905000D01*
X124518000Y-118905000D02*
X123118000Y-118905000D01*
D11*
X122615359Y-96922107D02*
X122615359Y-95507893D01*
X126858000Y-101164747D02*
X122615359Y-96922107D01*
X131807747Y-96215000D02*
X126858000Y-101164747D01*
X126858000Y-91265253D02*
X131807747Y-96215000D01*
X122615359Y-95507893D02*
X126858000Y-91265253D01*
D10*
X132698000Y-78025000D02*
X133348000Y-78675000D01*
X133348000Y-79825000D02*
X133348000Y-78675000D01*
X132698000Y-78025000D02*
X130248000Y-78025000D01*
X130248000Y-79825000D02*
X130248000Y-78025000D01*
X133348000Y-79825000D02*
X130248000Y-79825000D01*
X127338000Y-79805000D02*
X126688000Y-79155000D01*
X126688000Y-78005000D02*
X126688000Y-79155000D01*
X127338000Y-79805000D02*
X129788000Y-79805000D01*
X129788000Y-78005000D02*
X129788000Y-79805000D01*
X126688000Y-78005000D02*
X129788000Y-78005000D01*
D12*
X127728000Y-111662142D02*
X127713714Y-111676428D01*
X127670857Y-111690714D01*
X127642285Y-111690714D01*
X127599428Y-111676428D01*
X127570857Y-111647857D01*
X127556571Y-111619285D01*
X127542285Y-111562142D01*
X127542285Y-111519285D01*
X127556571Y-111462142D01*
X127570857Y-111433571D01*
X127599428Y-111405000D01*
X127642285Y-111390714D01*
X127670857Y-111390714D01*
X127713714Y-111405000D01*
X127728000Y-111419285D01*
X128013714Y-111690714D02*
X127842285Y-111690714D01*
X127928000Y-111690714D02*
X127928000Y-111390714D01*
X127899428Y-111433571D01*
X127870857Y-111462142D01*
X127842285Y-111476428D01*
X121695142Y-100605000D02*
X121709428Y-100619285D01*
X121723714Y-100662142D01*
X121723714Y-100690714D01*
X121709428Y-100733571D01*
X121680857Y-100762142D01*
X121652285Y-100776428D01*
X121595142Y-100790714D01*
X121552285Y-100790714D01*
X121495142Y-100776428D01*
X121466571Y-100762142D01*
X121438000Y-100733571D01*
X121423714Y-100690714D01*
X121423714Y-100662142D01*
X121438000Y-100619285D01*
X121452285Y-100605000D01*
X121452285Y-100490714D02*
X121438000Y-100476428D01*
X121423714Y-100447857D01*
X121423714Y-100376428D01*
X121438000Y-100347857D01*
X121452285Y-100333571D01*
X121480857Y-100319285D01*
X121509428Y-100319285D01*
X121552285Y-100333571D01*
X121723714Y-100505000D01*
X121723714Y-100319285D01*
X122425142Y-91325000D02*
X122439428Y-91339285D01*
X122453714Y-91382142D01*
X122453714Y-91410714D01*
X122439428Y-91453571D01*
X122410857Y-91482142D01*
X122382285Y-91496428D01*
X122325142Y-91510714D01*
X122282285Y-91510714D01*
X122225142Y-91496428D01*
X122196571Y-91482142D01*
X122168000Y-91453571D01*
X122153714Y-91410714D01*
X122153714Y-91382142D01*
X122168000Y-91339285D01*
X122182285Y-91325000D01*
X122153714Y-91225000D02*
X122153714Y-91039285D01*
X122268000Y-91139285D01*
X122268000Y-91096428D01*
X122282285Y-91067857D01*
X122296571Y-91053571D01*
X122325142Y-91039285D01*
X122396571Y-91039285D01*
X122425142Y-91053571D01*
X122439428Y-91067857D01*
X122453714Y-91096428D01*
X122453714Y-91182142D01*
X122439428Y-91210714D01*
X122425142Y-91225000D01*
X131035142Y-101685000D02*
X131049428Y-101699285D01*
X131063714Y-101742142D01*
X131063714Y-101770714D01*
X131049428Y-101813571D01*
X131020857Y-101842142D01*
X130992285Y-101856428D01*
X130935142Y-101870714D01*
X130892285Y-101870714D01*
X130835142Y-101856428D01*
X130806571Y-101842142D01*
X130778000Y-101813571D01*
X130763714Y-101770714D01*
X130763714Y-101742142D01*
X130778000Y-101699285D01*
X130792285Y-101685000D01*
X130863714Y-101427857D02*
X131063714Y-101427857D01*
X130749428Y-101499285D02*
X130963714Y-101570714D01*
X130963714Y-101385000D01*
X132855142Y-99885000D02*
X132869428Y-99899285D01*
X132883714Y-99942142D01*
X132883714Y-99970714D01*
X132869428Y-100013571D01*
X132840857Y-100042142D01*
X132812285Y-100056428D01*
X132755142Y-100070714D01*
X132712285Y-100070714D01*
X132655142Y-100056428D01*
X132626571Y-100042142D01*
X132598000Y-100013571D01*
X132583714Y-99970714D01*
X132583714Y-99942142D01*
X132598000Y-99899285D01*
X132612285Y-99885000D01*
X132583714Y-99613571D02*
X132583714Y-99756428D01*
X132726571Y-99770714D01*
X132712285Y-99756428D01*
X132698000Y-99727857D01*
X132698000Y-99656428D01*
X132712285Y-99627857D01*
X132726571Y-99613571D01*
X132755142Y-99599285D01*
X132826571Y-99599285D01*
X132855142Y-99613571D01*
X132869428Y-99627857D01*
X132883714Y-99656428D01*
X132883714Y-99727857D01*
X132869428Y-99756428D01*
X132855142Y-99770714D01*
X131575142Y-91085000D02*
X131589428Y-91099285D01*
X131603714Y-91142142D01*
X131603714Y-91170714D01*
X131589428Y-91213571D01*
X131560857Y-91242142D01*
X131532285Y-91256428D01*
X131475142Y-91270714D01*
X131432285Y-91270714D01*
X131375142Y-91256428D01*
X131346571Y-91242142D01*
X131318000Y-91213571D01*
X131303714Y-91170714D01*
X131303714Y-91142142D01*
X131318000Y-91099285D01*
X131332285Y-91085000D01*
X131303714Y-90827857D02*
X131303714Y-90885000D01*
X131318000Y-90913571D01*
X131332285Y-90927857D01*
X131375142Y-90956428D01*
X131432285Y-90970714D01*
X131546571Y-90970714D01*
X131575142Y-90956428D01*
X131589428Y-90942142D01*
X131603714Y-90913571D01*
X131603714Y-90856428D01*
X131589428Y-90827857D01*
X131575142Y-90813571D01*
X131546571Y-90799285D01*
X131475142Y-90799285D01*
X131446571Y-90813571D01*
X131432285Y-90827857D01*
X131418000Y-90856428D01*
X131418000Y-90913571D01*
X131432285Y-90942142D01*
X131446571Y-90956428D01*
X131475142Y-90970714D01*
X127895142Y-86945000D02*
X127909428Y-86959285D01*
X127923714Y-87002142D01*
X127923714Y-87030714D01*
X127909428Y-87073571D01*
X127880857Y-87102142D01*
X127852285Y-87116428D01*
X127795142Y-87130714D01*
X127752285Y-87130714D01*
X127695142Y-87116428D01*
X127666571Y-87102142D01*
X127638000Y-87073571D01*
X127623714Y-87030714D01*
X127623714Y-87002142D01*
X127638000Y-86959285D01*
X127652285Y-86945000D01*
X127623714Y-86845000D02*
X127623714Y-86645000D01*
X127923714Y-86773571D01*
X132885142Y-91075000D02*
X132899428Y-91089285D01*
X132913714Y-91132142D01*
X132913714Y-91160714D01*
X132899428Y-91203571D01*
X132870857Y-91232142D01*
X132842285Y-91246428D01*
X132785142Y-91260714D01*
X132742285Y-91260714D01*
X132685142Y-91246428D01*
X132656571Y-91232142D01*
X132628000Y-91203571D01*
X132613714Y-91160714D01*
X132613714Y-91132142D01*
X132628000Y-91089285D01*
X132642285Y-91075000D01*
X132742285Y-90903571D02*
X132728000Y-90932142D01*
X132713714Y-90946428D01*
X132685142Y-90960714D01*
X132670857Y-90960714D01*
X132642285Y-90946428D01*
X132628000Y-90932142D01*
X132613714Y-90903571D01*
X132613714Y-90846428D01*
X132628000Y-90817857D01*
X132642285Y-90803571D01*
X132670857Y-90789285D01*
X132685142Y-90789285D01*
X132713714Y-90803571D01*
X132728000Y-90817857D01*
X132742285Y-90846428D01*
X132742285Y-90903571D01*
X132756571Y-90932142D01*
X132770857Y-90946428D01*
X132799428Y-90960714D01*
X132856571Y-90960714D01*
X132885142Y-90946428D01*
X132899428Y-90932142D01*
X132913714Y-90903571D01*
X132913714Y-90846428D01*
X132899428Y-90817857D01*
X132885142Y-90803571D01*
X132856571Y-90789285D01*
X132799428Y-90789285D01*
X132770857Y-90803571D01*
X132756571Y-90817857D01*
X132742285Y-90846428D01*
X132008000Y-89082142D02*
X131993714Y-89096428D01*
X131950857Y-89110714D01*
X131922285Y-89110714D01*
X131879428Y-89096428D01*
X131850857Y-89067857D01*
X131836571Y-89039285D01*
X131822285Y-88982142D01*
X131822285Y-88939285D01*
X131836571Y-88882142D01*
X131850857Y-88853571D01*
X131879428Y-88825000D01*
X131922285Y-88810714D01*
X131950857Y-88810714D01*
X131993714Y-88825000D01*
X132008000Y-88839285D01*
X132150857Y-89110714D02*
X132208000Y-89110714D01*
X132236571Y-89096428D01*
X132250857Y-89082142D01*
X132279428Y-89039285D01*
X132293714Y-88982142D01*
X132293714Y-88867857D01*
X132279428Y-88839285D01*
X132265142Y-88825000D01*
X132236571Y-88810714D01*
X132179428Y-88810714D01*
X132150857Y-88825000D01*
X132136571Y-88839285D01*
X132122285Y-88867857D01*
X132122285Y-88939285D01*
X132136571Y-88967857D01*
X132150857Y-88982142D01*
X132179428Y-88996428D01*
X132236571Y-88996428D01*
X132265142Y-88982142D01*
X132279428Y-88967857D01*
X132293714Y-88939285D01*
X131405142Y-83572142D02*
X131390857Y-83586428D01*
X131348000Y-83600714D01*
X131319428Y-83600714D01*
X131276571Y-83586428D01*
X131248000Y-83557857D01*
X131233714Y-83529285D01*
X131219428Y-83472142D01*
X131219428Y-83429285D01*
X131233714Y-83372142D01*
X131248000Y-83343571D01*
X131276571Y-83315000D01*
X131319428Y-83300714D01*
X131348000Y-83300714D01*
X131390857Y-83315000D01*
X131405142Y-83329285D01*
X131690857Y-83600714D02*
X131519428Y-83600714D01*
X131605142Y-83600714D02*
X131605142Y-83300714D01*
X131576571Y-83343571D01*
X131548000Y-83372142D01*
X131519428Y-83386428D01*
X131876571Y-83300714D02*
X131905142Y-83300714D01*
X131933714Y-83315000D01*
X131948000Y-83329285D01*
X131962285Y-83357857D01*
X131976571Y-83415000D01*
X131976571Y-83486428D01*
X131962285Y-83543571D01*
X131948000Y-83572142D01*
X131933714Y-83586428D01*
X131905142Y-83600714D01*
X131876571Y-83600714D01*
X131848000Y-83586428D01*
X131833714Y-83572142D01*
X131819428Y-83543571D01*
X131805142Y-83486428D01*
X131805142Y-83415000D01*
X131819428Y-83357857D01*
X131833714Y-83329285D01*
X131848000Y-83315000D01*
X131876571Y-83300714D01*
X133095142Y-75737857D02*
X133109428Y-75752142D01*
X133123714Y-75795000D01*
X133123714Y-75823571D01*
X133109428Y-75866428D01*
X133080857Y-75895000D01*
X133052285Y-75909285D01*
X132995142Y-75923571D01*
X132952285Y-75923571D01*
X132895142Y-75909285D01*
X132866571Y-75895000D01*
X132838000Y-75866428D01*
X132823714Y-75823571D01*
X132823714Y-75795000D01*
X132838000Y-75752142D01*
X132852285Y-75737857D01*
X133123714Y-75452142D02*
X133123714Y-75623571D01*
X133123714Y-75537857D02*
X132823714Y-75537857D01*
X132866571Y-75566428D01*
X132895142Y-75595000D01*
X132909428Y-75623571D01*
X133123714Y-75166428D02*
X133123714Y-75337857D01*
X133123714Y-75252142D02*
X132823714Y-75252142D01*
X132866571Y-75280714D01*
X132895142Y-75309285D01*
X132909428Y-75337857D01*
X129295142Y-87087857D02*
X129309428Y-87102142D01*
X129323714Y-87145000D01*
X129323714Y-87173571D01*
X129309428Y-87216428D01*
X129280857Y-87245000D01*
X129252285Y-87259285D01*
X129195142Y-87273571D01*
X129152285Y-87273571D01*
X129095142Y-87259285D01*
X129066571Y-87245000D01*
X129038000Y-87216428D01*
X129023714Y-87173571D01*
X129023714Y-87145000D01*
X129038000Y-87102142D01*
X129052285Y-87087857D01*
X129323714Y-86802142D02*
X129323714Y-86973571D01*
X129323714Y-86887857D02*
X129023714Y-86887857D01*
X129066571Y-86916428D01*
X129095142Y-86945000D01*
X129109428Y-86973571D01*
X129052285Y-86687857D02*
X129038000Y-86673571D01*
X129023714Y-86645000D01*
X129023714Y-86573571D01*
X129038000Y-86545000D01*
X129052285Y-86530714D01*
X129080857Y-86516428D01*
X129109428Y-86516428D01*
X129152285Y-86530714D01*
X129323714Y-86702142D01*
X129323714Y-86516428D01*
D10*
X125733953Y-118127738D02*
X125333953Y-118127738D01*
X125333953Y-118032500D01*
X125353001Y-117975357D01*
X125391096Y-117937261D01*
X125429191Y-117918214D01*
X125505381Y-117899166D01*
X125562524Y-117899166D01*
X125638715Y-117918214D01*
X125676810Y-117937261D01*
X125714905Y-117975357D01*
X125733953Y-118032500D01*
X125733953Y-118127738D01*
X125733953Y-117518214D02*
X125733953Y-117746785D01*
X125733953Y-117632500D02*
X125333953Y-117632500D01*
X125391096Y-117670595D01*
X125429191Y-117708690D01*
X125448239Y-117746785D01*
D12*
X131148952Y-72571190D02*
X131148952Y-72071190D01*
X131268000Y-72071190D01*
X131339428Y-72095000D01*
X131387047Y-72142619D01*
X131410857Y-72190238D01*
X131434666Y-72285476D01*
X131434666Y-72356904D01*
X131410857Y-72452142D01*
X131387047Y-72499761D01*
X131339428Y-72547380D01*
X131268000Y-72571190D01*
X131148952Y-72571190D01*
X131625142Y-72118809D02*
X131648952Y-72095000D01*
X131696571Y-72071190D01*
X131815619Y-72071190D01*
X131863238Y-72095000D01*
X131887047Y-72118809D01*
X131910857Y-72166428D01*
X131910857Y-72214047D01*
X131887047Y-72285476D01*
X131601333Y-72571190D01*
X131910857Y-72571190D01*
D10*
X127503953Y-118127738D02*
X127103953Y-118127738D01*
X127103953Y-118032500D01*
X127123001Y-117975357D01*
X127161096Y-117937261D01*
X127199191Y-117918214D01*
X127275381Y-117899166D01*
X127332524Y-117899166D01*
X127408715Y-117918214D01*
X127446810Y-117937261D01*
X127484905Y-117975357D01*
X127503953Y-118032500D01*
X127503953Y-118127738D01*
X127103953Y-117765833D02*
X127103953Y-117518214D01*
X127256334Y-117651547D01*
X127256334Y-117594404D01*
X127275381Y-117556309D01*
X127294429Y-117537261D01*
X127332524Y-117518214D01*
X127427762Y-117518214D01*
X127465858Y-117537261D01*
X127484905Y-117556309D01*
X127503953Y-117594404D01*
X127503953Y-117708690D01*
X127484905Y-117746785D01*
X127465858Y-117765833D01*
D11*
X131319904Y-80767380D02*
X131319904Y-79767380D01*
X131558000Y-79767380D01*
X131700857Y-79815000D01*
X131796095Y-79910238D01*
X131843714Y-80005476D01*
X131891333Y-80195952D01*
X131891333Y-80338809D01*
X131843714Y-80529285D01*
X131796095Y-80624523D01*
X131700857Y-80719761D01*
X131558000Y-80767380D01*
X131319904Y-80767380D01*
X132748476Y-80100714D02*
X132748476Y-80767380D01*
X132510380Y-79719761D02*
X132272285Y-80434047D01*
X132891333Y-80434047D01*
X124734666Y-71177380D02*
X124734666Y-71891666D01*
X124687047Y-72034523D01*
X124591809Y-72129761D01*
X124448952Y-72177380D01*
X124353714Y-72177380D01*
X125115619Y-71177380D02*
X125734666Y-71177380D01*
X125401333Y-71558333D01*
X125544190Y-71558333D01*
X125639428Y-71605952D01*
X125687047Y-71653571D01*
X125734666Y-71748809D01*
X125734666Y-71986904D01*
X125687047Y-72082142D01*
X125639428Y-72129761D01*
X125544190Y-72177380D01*
X125258476Y-72177380D01*
X125163238Y-72129761D01*
X125115619Y-72082142D01*
X123024666Y-80917380D02*
X123024666Y-81631666D01*
X122977047Y-81774523D01*
X122881809Y-81869761D01*
X122738952Y-81917380D01*
X122643714Y-81917380D01*
X123929428Y-81250714D02*
X123929428Y-81917380D01*
X123691333Y-80869761D02*
X123453238Y-81584047D01*
X124072285Y-81584047D01*
X135990380Y-96238333D02*
X136704666Y-96238333D01*
X136847523Y-96285952D01*
X136942761Y-96381190D01*
X136990380Y-96524047D01*
X136990380Y-96619285D01*
X135990380Y-95285952D02*
X135990380Y-95762142D01*
X136466571Y-95809761D01*
X136418952Y-95762142D01*
X136371333Y-95666904D01*
X136371333Y-95428809D01*
X136418952Y-95333571D01*
X136466571Y-95285952D01*
X136561809Y-95238333D01*
X136799904Y-95238333D01*
X136895142Y-95285952D01*
X136942761Y-95333571D01*
X136990380Y-95428809D01*
X136990380Y-95666904D01*
X136942761Y-95762142D01*
X136895142Y-95809761D01*
X117200380Y-96288333D02*
X117914666Y-96288333D01*
X118057523Y-96335952D01*
X118152761Y-96431190D01*
X118200380Y-96574047D01*
X118200380Y-96669285D01*
X117200380Y-95383571D02*
X117200380Y-95574047D01*
X117248000Y-95669285D01*
X117295619Y-95716904D01*
X117438476Y-95812142D01*
X117628952Y-95859761D01*
X118009904Y-95859761D01*
X118105142Y-95812142D01*
X118152761Y-95764523D01*
X118200380Y-95669285D01*
X118200380Y-95478809D01*
X118152761Y-95383571D01*
X118105142Y-95335952D01*
X118009904Y-95288333D01*
X117771809Y-95288333D01*
X117676571Y-95335952D01*
X117628952Y-95383571D01*
X117581333Y-95478809D01*
X117581333Y-95669285D01*
X117628952Y-95764523D01*
X117676571Y-95812142D01*
X117771809Y-95859761D01*
D12*
X127378952Y-83311666D02*
X127188476Y-83445000D01*
X127378952Y-83540238D02*
X126978952Y-83540238D01*
X126978952Y-83387857D01*
X126998000Y-83349761D01*
X127017047Y-83330714D01*
X127055142Y-83311666D01*
X127112285Y-83311666D01*
X127150380Y-83330714D01*
X127169428Y-83349761D01*
X127188476Y-83387857D01*
X127188476Y-83540238D01*
X127378952Y-82930714D02*
X127378952Y-83159285D01*
X127378952Y-83045000D02*
X126978952Y-83045000D01*
X127036095Y-83083095D01*
X127074190Y-83121190D01*
X127093238Y-83159285D01*
X129408952Y-83301666D02*
X129218476Y-83435000D01*
X129408952Y-83530238D02*
X129008952Y-83530238D01*
X129008952Y-83377857D01*
X129028000Y-83339761D01*
X129047047Y-83320714D01*
X129085142Y-83301666D01*
X129142285Y-83301666D01*
X129180380Y-83320714D01*
X129199428Y-83339761D01*
X129218476Y-83377857D01*
X129218476Y-83530238D01*
X129047047Y-83149285D02*
X129028000Y-83130238D01*
X129008952Y-83092142D01*
X129008952Y-82996904D01*
X129028000Y-82958809D01*
X129047047Y-82939761D01*
X129085142Y-82920714D01*
X129123238Y-82920714D01*
X129180380Y-82939761D01*
X129408952Y-83168333D01*
X129408952Y-82920714D01*
X127078952Y-113631666D02*
X126888476Y-113765000D01*
X127078952Y-113860238D02*
X126678952Y-113860238D01*
X126678952Y-113707857D01*
X126698000Y-113669761D01*
X126717047Y-113650714D01*
X126755142Y-113631666D01*
X126812285Y-113631666D01*
X126850380Y-113650714D01*
X126869428Y-113669761D01*
X126888476Y-113707857D01*
X126888476Y-113860238D01*
X126678952Y-113498333D02*
X126678952Y-113250714D01*
X126831333Y-113384047D01*
X126831333Y-113326904D01*
X126850380Y-113288809D01*
X126869428Y-113269761D01*
X126907523Y-113250714D01*
X127002761Y-113250714D01*
X127040857Y-113269761D01*
X127059904Y-113288809D01*
X127078952Y-113326904D01*
X127078952Y-113441190D01*
X127059904Y-113479285D01*
X127040857Y-113498333D01*
X128801333Y-110305952D02*
X128668000Y-110115476D01*
X128572761Y-110305952D02*
X128572761Y-109905952D01*
X128725142Y-109905952D01*
X128763238Y-109925000D01*
X128782285Y-109944047D01*
X128801333Y-109982142D01*
X128801333Y-110039285D01*
X128782285Y-110077380D01*
X128763238Y-110096428D01*
X128725142Y-110115476D01*
X128572761Y-110115476D01*
X129144190Y-110039285D02*
X129144190Y-110305952D01*
X129048952Y-109886904D02*
X128953714Y-110172619D01*
X129201333Y-110172619D01*
X122801333Y-110195952D02*
X122668000Y-110005476D01*
X122572761Y-110195952D02*
X122572761Y-109795952D01*
X122725142Y-109795952D01*
X122763238Y-109815000D01*
X122782285Y-109834047D01*
X122801333Y-109872142D01*
X122801333Y-109929285D01*
X122782285Y-109967380D01*
X122763238Y-109986428D01*
X122725142Y-110005476D01*
X122572761Y-110005476D01*
X123163238Y-109795952D02*
X122972761Y-109795952D01*
X122953714Y-109986428D01*
X122972761Y-109967380D01*
X123010857Y-109948333D01*
X123106095Y-109948333D01*
X123144190Y-109967380D01*
X123163238Y-109986428D01*
X123182285Y-110024523D01*
X123182285Y-110119761D01*
X123163238Y-110157857D01*
X123144190Y-110176904D01*
X123106095Y-110195952D01*
X123010857Y-110195952D01*
X122972761Y-110176904D01*
X122953714Y-110157857D01*
X128858952Y-113621666D02*
X128668476Y-113755000D01*
X128858952Y-113850238D02*
X128458952Y-113850238D01*
X128458952Y-113697857D01*
X128478000Y-113659761D01*
X128497047Y-113640714D01*
X128535142Y-113621666D01*
X128592285Y-113621666D01*
X128630380Y-113640714D01*
X128649428Y-113659761D01*
X128668476Y-113697857D01*
X128668476Y-113850238D01*
X128458952Y-113278809D02*
X128458952Y-113355000D01*
X128478000Y-113393095D01*
X128497047Y-113412142D01*
X128554190Y-113450238D01*
X128630380Y-113469285D01*
X128782761Y-113469285D01*
X128820857Y-113450238D01*
X128839904Y-113431190D01*
X128858952Y-113393095D01*
X128858952Y-113316904D01*
X128839904Y-113278809D01*
X128820857Y-113259761D01*
X128782761Y-113240714D01*
X128687523Y-113240714D01*
X128649428Y-113259761D01*
X128630380Y-113278809D01*
X128611333Y-113316904D01*
X128611333Y-113393095D01*
X128630380Y-113431190D01*
X128649428Y-113450238D01*
X128687523Y-113469285D01*
D11*
X129452761Y-118888333D02*
X129500380Y-118745476D01*
X129500380Y-118507380D01*
X129452761Y-118412142D01*
X129405142Y-118364523D01*
X129309904Y-118316904D01*
X129214666Y-118316904D01*
X129119428Y-118364523D01*
X129071809Y-118412142D01*
X129024190Y-118507380D01*
X128976571Y-118697857D01*
X128928952Y-118793095D01*
X128881333Y-118840714D01*
X128786095Y-118888333D01*
X128690857Y-118888333D01*
X128595619Y-118840714D01*
X128548000Y-118793095D01*
X128500380Y-118697857D01*
X128500380Y-118459761D01*
X128548000Y-118316904D01*
X128500380Y-117983571D02*
X129500380Y-117745476D01*
X128786095Y-117555000D01*
X129500380Y-117364523D01*
X128500380Y-117126428D01*
X129500380Y-116221666D02*
X129500380Y-116793095D01*
X129500380Y-116507380D02*
X128500380Y-116507380D01*
X128643238Y-116602619D01*
X128738476Y-116697857D01*
X128786095Y-116793095D01*
X121572761Y-118838333D02*
X121620380Y-118695476D01*
X121620380Y-118457380D01*
X121572761Y-118362142D01*
X121525142Y-118314523D01*
X121429904Y-118266904D01*
X121334666Y-118266904D01*
X121239428Y-118314523D01*
X121191809Y-118362142D01*
X121144190Y-118457380D01*
X121096571Y-118647857D01*
X121048952Y-118743095D01*
X121001333Y-118790714D01*
X120906095Y-118838333D01*
X120810857Y-118838333D01*
X120715619Y-118790714D01*
X120668000Y-118743095D01*
X120620380Y-118647857D01*
X120620380Y-118409761D01*
X120668000Y-118266904D01*
X120620380Y-117933571D02*
X121620380Y-117695476D01*
X120906095Y-117505000D01*
X121620380Y-117314523D01*
X120620380Y-117076428D01*
X120715619Y-116743095D02*
X120668000Y-116695476D01*
X120620380Y-116600238D01*
X120620380Y-116362142D01*
X120668000Y-116266904D01*
X120715619Y-116219285D01*
X120810857Y-116171666D01*
X120906095Y-116171666D01*
X121048952Y-116219285D01*
X121620380Y-116790714D01*
X121620380Y-116171666D01*
X125932026Y-96366522D02*
X126504446Y-96938942D01*
X126605461Y-96972614D01*
X126672805Y-96972614D01*
X126773820Y-96938942D01*
X126908507Y-96804255D01*
X126942179Y-96703240D01*
X126942179Y-96635896D01*
X126908507Y-96534881D01*
X126336087Y-95962461D01*
X127750301Y-95962461D02*
X127346240Y-96366522D01*
X127548270Y-96164492D02*
X126841164Y-95457385D01*
X126874835Y-95625744D01*
X126874835Y-95760431D01*
X126841164Y-95861446D01*
D12*
X131417047Y-78651190D02*
X131417047Y-79055952D01*
X131440857Y-79103571D01*
X131464666Y-79127380D01*
X131512285Y-79151190D01*
X131607523Y-79151190D01*
X131655142Y-79127380D01*
X131678952Y-79103571D01*
X131702761Y-79055952D01*
X131702761Y-78651190D01*
X131917047Y-78698809D02*
X131940857Y-78675000D01*
X131988476Y-78651190D01*
X132107523Y-78651190D01*
X132155142Y-78675000D01*
X132178952Y-78698809D01*
X132202761Y-78746428D01*
X132202761Y-78794047D01*
X132178952Y-78865476D01*
X131893238Y-79151190D01*
X132202761Y-79151190D01*
X127857047Y-78631190D02*
X127857047Y-79035952D01*
X127880857Y-79083571D01*
X127904666Y-79107380D01*
X127952285Y-79131190D01*
X128047523Y-79131190D01*
X128095142Y-79107380D01*
X128118952Y-79083571D01*
X128142761Y-79035952D01*
X128142761Y-78631190D01*
X128333238Y-78631190D02*
X128642761Y-78631190D01*
X128476095Y-78821666D01*
X128547523Y-78821666D01*
X128595142Y-78845476D01*
X128618952Y-78869285D01*
X128642761Y-78916904D01*
X128642761Y-79035952D01*
X128618952Y-79083571D01*
X128595142Y-79107380D01*
X128547523Y-79131190D01*
X128404666Y-79131190D01*
X128357047Y-79107380D01*
X128333238Y-79083571D01*
M02*
