G04 (created by PCBNEW (2013-07-07 BZR 4022)-stable) date 25/09/2015 08:54:05 p.m.*
%MOIN*%
G04 Gerber Fmt 3.4, Leading zero omitted, Abs format*
%FSLAX34Y34*%
G01*
G70*
G90*
G04 APERTURE LIST*
%ADD10C,0.00590551*%
%ADD11C,0.104362*%
%ADD12O,0.0807402X0.062*%
%ADD13R,0.0807402X0.062*%
%ADD14R,0.102X0.102*%
%ADD15C,0.102*%
%ADD16C,0.277591*%
%ADD17O,0.0433386X0.0512126*%
%ADD18O,0.0502283X0.0768031*%
%ADD19O,0.0807402X0.12011*%
%ADD20C,0.12011*%
%ADD21R,0.0807402X0.0807402*%
%ADD22C,0.0807402*%
G04 APERTURE END LIST*
G54D10*
G54D11*
X91096Y-67848D03*
X99599Y-67848D03*
G54D12*
X102500Y-54444D03*
X103500Y-54444D03*
X102500Y-59444D03*
X103500Y-55444D03*
X102500Y-60444D03*
X103500Y-56444D03*
X102500Y-61444D03*
X103500Y-57444D03*
X102500Y-62444D03*
X103500Y-58444D03*
X102500Y-63444D03*
X103500Y-59444D03*
X102500Y-64444D03*
X103500Y-60444D03*
X102500Y-65444D03*
X103500Y-61444D03*
X102500Y-66444D03*
X103500Y-62444D03*
X102500Y-67444D03*
X103500Y-63444D03*
X102500Y-68444D03*
X103500Y-64444D03*
X102500Y-69444D03*
X103500Y-65444D03*
X103500Y-66444D03*
X102500Y-70444D03*
X103500Y-67444D03*
X103500Y-69444D03*
X103500Y-70444D03*
X103500Y-71444D03*
X103500Y-72444D03*
X102500Y-71444D03*
X102500Y-72444D03*
X102500Y-55444D03*
X102500Y-56444D03*
X102500Y-57444D03*
X102500Y-58444D03*
X102500Y-73444D03*
X103500Y-73444D03*
X103500Y-68444D03*
G54D13*
X74500Y-54444D03*
G54D12*
X75500Y-54444D03*
X74500Y-59444D03*
X75500Y-55444D03*
X74500Y-60444D03*
X75500Y-56444D03*
X74500Y-61444D03*
X75500Y-57444D03*
X74500Y-62444D03*
X75500Y-58444D03*
X74500Y-63444D03*
X75500Y-59444D03*
X74500Y-64444D03*
X75500Y-60444D03*
X74500Y-65444D03*
X75500Y-61444D03*
X74500Y-66444D03*
X75500Y-62444D03*
X74500Y-67444D03*
X75500Y-63444D03*
X74500Y-68444D03*
X75500Y-64444D03*
X74500Y-69444D03*
X75500Y-65444D03*
X75500Y-66444D03*
X74500Y-70444D03*
X75500Y-67444D03*
X75500Y-69444D03*
X75500Y-70444D03*
X75500Y-71444D03*
X75500Y-72444D03*
X74500Y-71444D03*
X74500Y-72444D03*
X74500Y-55444D03*
X74500Y-56444D03*
X74500Y-57444D03*
X74500Y-58444D03*
X74500Y-73444D03*
X75500Y-73444D03*
X75500Y-68444D03*
G54D14*
X100523Y-32007D03*
G54D15*
X98523Y-32007D03*
X96523Y-32007D03*
G54D16*
X73740Y-31377D03*
X103818Y-81535D03*
X73740Y-81535D03*
X103818Y-31377D03*
G54D17*
X83557Y-31627D03*
X81805Y-31627D03*
G54D18*
X84324Y-30397D03*
X81037Y-30397D03*
G54D17*
X78572Y-31631D03*
X76820Y-31631D03*
G54D18*
X79340Y-30401D03*
X76053Y-30401D03*
G54D19*
X94094Y-78385D03*
X95866Y-78385D03*
X95866Y-80944D03*
X94094Y-80944D03*
X80511Y-78385D03*
X82283Y-78385D03*
X82283Y-80944D03*
X80511Y-80944D03*
X103503Y-48858D03*
X101732Y-48858D03*
X101732Y-46299D03*
X103503Y-46299D03*
X89566Y-78385D03*
X91338Y-78385D03*
X91338Y-80944D03*
X89566Y-80944D03*
X85039Y-78385D03*
X86811Y-78385D03*
X86811Y-80944D03*
X85039Y-80944D03*
G54D20*
X103818Y-34645D03*
G54D21*
X73748Y-34696D03*
G54D22*
X73748Y-35696D03*
M02*
