G04 (created by PCBNEW (2013-07-07 BZR 4022)-stable) date 17/07/2014 08:21:58 a.m.*
%MOIN*%
G04 Gerber Fmt 3.4, Leading zero omitted, Abs format*
%FSLAX34Y34*%
G01*
G70*
G90*
G04 APERTURE LIST*
%ADD10C,0.00590551*%
%ADD11C,0.005*%
%ADD12C,0.0047*%
%ADD13C,0.0039*%
%ADD14C,0.012*%
%ADD15C,0.02*%
%ADD16C,0.0026*%
%ADD17C,0.008*%
%ADD18C,0.0059*%
%ADD19C,0.00492126*%
%ADD20C,0.0043*%
%ADD21C,0.00787402*%
%ADD22C,0.00393701*%
%ADD23C,0.0035*%
G04 APERTURE END LIST*
G54D10*
G54D11*
X82203Y-39198D02*
X84803Y-39198D01*
X84803Y-39198D02*
X84803Y-40998D01*
X84803Y-40998D02*
X82203Y-40998D01*
X82203Y-40998D02*
X82203Y-39198D01*
X84565Y-40698D02*
G75*
G03X84565Y-40698I-111J0D01*
G74*
G01*
G54D10*
X77460Y-34015D02*
X78248Y-34015D01*
X78248Y-34015D02*
X78248Y-35118D01*
X78248Y-35118D02*
X77460Y-35118D01*
X77460Y-35118D02*
X77460Y-34015D01*
X78405Y-33937D02*
G75*
G03X78405Y-33937I-78J0D01*
G74*
G01*
G54D12*
X78326Y-37244D02*
X78326Y-36062D01*
X78326Y-36062D02*
X77834Y-36062D01*
X77834Y-37244D02*
X78326Y-37244D01*
X77362Y-36062D02*
X76870Y-36062D01*
X76870Y-36062D02*
X76870Y-37244D01*
X76870Y-37244D02*
X77362Y-37244D01*
X77362Y-36062D02*
X77834Y-36062D01*
X77362Y-37244D02*
X77834Y-37244D01*
G54D11*
X77363Y-36063D02*
X77363Y-37243D01*
X77833Y-37243D02*
X77833Y-36063D01*
G54D13*
X80699Y-39640D02*
G75*
G03X80699Y-39640I-50J0D01*
G74*
G01*
X81099Y-39640D02*
X80699Y-39640D01*
X80699Y-39640D02*
X80699Y-40240D01*
X80699Y-40240D02*
X81099Y-40240D01*
X81499Y-40240D02*
X81899Y-40240D01*
X81899Y-40240D02*
X81899Y-39640D01*
X81899Y-39640D02*
X81499Y-39640D01*
X80758Y-37849D02*
G75*
G03X80758Y-37849I-50J0D01*
G74*
G01*
X81158Y-37849D02*
X80758Y-37849D01*
X80758Y-37849D02*
X80758Y-38449D01*
X80758Y-38449D02*
X81158Y-38449D01*
X81558Y-38449D02*
X81958Y-38449D01*
X81958Y-38449D02*
X81958Y-37849D01*
X81958Y-37849D02*
X81558Y-37849D01*
X80738Y-36924D02*
G75*
G03X80738Y-36924I-50J0D01*
G74*
G01*
X81138Y-36924D02*
X80738Y-36924D01*
X80738Y-36924D02*
X80738Y-37524D01*
X80738Y-37524D02*
X81138Y-37524D01*
X81538Y-37524D02*
X81938Y-37524D01*
X81938Y-37524D02*
X81938Y-36924D01*
X81938Y-36924D02*
X81538Y-36924D01*
X87560Y-46540D02*
G75*
G03X87560Y-46540I-50J0D01*
G74*
G01*
X87060Y-46540D02*
X87460Y-46540D01*
X87460Y-46540D02*
X87460Y-45940D01*
X87460Y-45940D02*
X87060Y-45940D01*
X86660Y-45940D02*
X86260Y-45940D01*
X86260Y-45940D02*
X86260Y-46540D01*
X86260Y-46540D02*
X86660Y-46540D01*
X84450Y-50782D02*
G75*
G03X84450Y-50782I-50J0D01*
G74*
G01*
X83950Y-50782D02*
X84350Y-50782D01*
X84350Y-50782D02*
X84350Y-50182D01*
X84350Y-50182D02*
X83950Y-50182D01*
X83550Y-50182D02*
X83150Y-50182D01*
X83150Y-50182D02*
X83150Y-50782D01*
X83150Y-50782D02*
X83550Y-50782D01*
X82643Y-43307D02*
G75*
G03X82643Y-43307I-50J0D01*
G74*
G01*
X82593Y-42857D02*
X82593Y-43257D01*
X82593Y-43257D02*
X83193Y-43257D01*
X83193Y-43257D02*
X83193Y-42857D01*
X83193Y-42457D02*
X83193Y-42057D01*
X83193Y-42057D02*
X82593Y-42057D01*
X82593Y-42057D02*
X82593Y-42457D01*
X82279Y-42007D02*
G75*
G03X82279Y-42007I-50J0D01*
G74*
G01*
X82229Y-42457D02*
X82229Y-42057D01*
X82229Y-42057D02*
X81629Y-42057D01*
X81629Y-42057D02*
X81629Y-42457D01*
X81629Y-42857D02*
X81629Y-43257D01*
X81629Y-43257D02*
X82229Y-43257D01*
X82229Y-43257D02*
X82229Y-42857D01*
X100365Y-38016D02*
G75*
G03X100365Y-38016I-50J0D01*
G74*
G01*
X99865Y-38016D02*
X100265Y-38016D01*
X100265Y-38016D02*
X100265Y-37416D01*
X100265Y-37416D02*
X99865Y-37416D01*
X99465Y-37416D02*
X99065Y-37416D01*
X99065Y-37416D02*
X99065Y-38016D01*
X99065Y-38016D02*
X99465Y-38016D01*
X99690Y-42835D02*
G75*
G03X99690Y-42835I-50J0D01*
G74*
G01*
X99640Y-42385D02*
X99640Y-42785D01*
X99640Y-42785D02*
X100240Y-42785D01*
X100240Y-42785D02*
X100240Y-42385D01*
X100240Y-41985D02*
X100240Y-41585D01*
X100240Y-41585D02*
X99640Y-41585D01*
X99640Y-41585D02*
X99640Y-41985D01*
X97250Y-42579D02*
G75*
G03X97250Y-42579I-50J0D01*
G74*
G01*
X97200Y-42129D02*
X97200Y-42529D01*
X97200Y-42529D02*
X97800Y-42529D01*
X97800Y-42529D02*
X97800Y-42129D01*
X97800Y-41729D02*
X97800Y-41329D01*
X97800Y-41329D02*
X97200Y-41329D01*
X97200Y-41329D02*
X97200Y-41729D01*
X96856Y-39626D02*
G75*
G03X96856Y-39626I-50J0D01*
G74*
G01*
X96806Y-39176D02*
X96806Y-39576D01*
X96806Y-39576D02*
X97406Y-39576D01*
X97406Y-39576D02*
X97406Y-39176D01*
X97406Y-38776D02*
X97406Y-38376D01*
X97406Y-38376D02*
X96806Y-38376D01*
X96806Y-38376D02*
X96806Y-38776D01*
X88023Y-51759D02*
G75*
G03X88023Y-51759I-50J0D01*
G74*
G01*
X87973Y-52209D02*
X87973Y-51809D01*
X87973Y-51809D02*
X87373Y-51809D01*
X87373Y-51809D02*
X87373Y-52209D01*
X87373Y-52609D02*
X87373Y-53009D01*
X87373Y-53009D02*
X87973Y-53009D01*
X87973Y-53009D02*
X87973Y-52609D01*
X84450Y-49916D02*
G75*
G03X84450Y-49916I-50J0D01*
G74*
G01*
X83950Y-49916D02*
X84350Y-49916D01*
X84350Y-49916D02*
X84350Y-49316D01*
X84350Y-49316D02*
X83950Y-49316D01*
X83550Y-49316D02*
X83150Y-49316D01*
X83150Y-49316D02*
X83150Y-49916D01*
X83150Y-49916D02*
X83550Y-49916D01*
X99939Y-61152D02*
G75*
G03X99939Y-61152I-50J0D01*
G74*
G01*
X100339Y-61152D02*
X99939Y-61152D01*
X99939Y-61152D02*
X99939Y-61752D01*
X99939Y-61752D02*
X100339Y-61752D01*
X100739Y-61752D02*
X101139Y-61752D01*
X101139Y-61752D02*
X101139Y-61152D01*
X101139Y-61152D02*
X100739Y-61152D01*
X99939Y-60152D02*
G75*
G03X99939Y-60152I-50J0D01*
G74*
G01*
X100339Y-60152D02*
X99939Y-60152D01*
X99939Y-60152D02*
X99939Y-60752D01*
X99939Y-60752D02*
X100339Y-60752D01*
X100739Y-60752D02*
X101139Y-60752D01*
X101139Y-60752D02*
X101139Y-60152D01*
X101139Y-60152D02*
X100739Y-60152D01*
X99939Y-59152D02*
G75*
G03X99939Y-59152I-50J0D01*
G74*
G01*
X100339Y-59152D02*
X99939Y-59152D01*
X99939Y-59152D02*
X99939Y-59752D01*
X99939Y-59752D02*
X100339Y-59752D01*
X100739Y-59752D02*
X101139Y-59752D01*
X101139Y-59752D02*
X101139Y-59152D01*
X101139Y-59152D02*
X100739Y-59152D01*
X99939Y-58152D02*
G75*
G03X99939Y-58152I-50J0D01*
G74*
G01*
X100339Y-58152D02*
X99939Y-58152D01*
X99939Y-58152D02*
X99939Y-58752D01*
X99939Y-58752D02*
X100339Y-58752D01*
X100739Y-58752D02*
X101139Y-58752D01*
X101139Y-58752D02*
X101139Y-58152D01*
X101139Y-58152D02*
X100739Y-58152D01*
G54D14*
X93338Y-39159D02*
X92748Y-39749D01*
X88812Y-39159D02*
X88812Y-39749D01*
X88812Y-39749D02*
X89402Y-39749D01*
X88812Y-35813D02*
X88812Y-35223D01*
X88812Y-35223D02*
X89402Y-35223D01*
X93338Y-35813D02*
X93338Y-35223D01*
X93338Y-35223D02*
X92748Y-35223D01*
X92551Y-39257D02*
X92551Y-38470D01*
G54D15*
X93265Y-39946D02*
G75*
G03X93265Y-39946I-74J0D01*
G74*
G01*
G54D11*
X91606Y-54000D02*
X92606Y-54000D01*
X92606Y-54700D02*
X91606Y-54700D01*
X92606Y-54700D02*
X92606Y-54000D01*
X91606Y-54000D02*
X91606Y-54700D01*
G54D10*
X88129Y-45856D02*
G75*
G03X88129Y-45856I-196J0D01*
G74*
G01*
X87736Y-44084D02*
X87736Y-45659D01*
X87736Y-45659D02*
X85964Y-45659D01*
X85964Y-45659D02*
X85964Y-44084D01*
X85964Y-44084D02*
X87736Y-44084D01*
X91338Y-41141D02*
G75*
G03X91338Y-41141I-196J0D01*
G74*
G01*
X91338Y-42913D02*
X91338Y-41338D01*
X91338Y-41338D02*
X93110Y-41338D01*
X93110Y-41338D02*
X93110Y-42913D01*
X93110Y-42913D02*
X91338Y-42913D01*
G54D11*
X85938Y-39009D02*
X85938Y-38509D01*
X85438Y-39009D02*
X85438Y-38519D01*
X85288Y-39009D02*
X86088Y-39009D01*
X86088Y-39009D02*
X86088Y-38509D01*
X86088Y-38509D02*
X85288Y-38509D01*
X85288Y-38509D02*
X85288Y-39009D01*
X82761Y-51836D02*
X82761Y-52336D01*
X83261Y-51836D02*
X83261Y-52326D01*
X83411Y-51836D02*
X82611Y-51836D01*
X82611Y-51836D02*
X82611Y-52336D01*
X82611Y-52336D02*
X83411Y-52336D01*
X83411Y-52336D02*
X83411Y-51836D01*
X83598Y-42877D02*
X84098Y-42877D01*
X83598Y-42377D02*
X84088Y-42377D01*
X83598Y-42227D02*
X83598Y-43027D01*
X83598Y-43027D02*
X84098Y-43027D01*
X84098Y-43027D02*
X84098Y-42227D01*
X84098Y-42227D02*
X83598Y-42227D01*
X88734Y-44641D02*
X88234Y-44641D01*
X88734Y-45141D02*
X88244Y-45141D01*
X88734Y-45291D02*
X88734Y-44491D01*
X88734Y-44491D02*
X88234Y-44491D01*
X88234Y-44491D02*
X88234Y-45291D01*
X88234Y-45291D02*
X88734Y-45291D01*
X85643Y-44631D02*
X85143Y-44631D01*
X85643Y-45131D02*
X85153Y-45131D01*
X85643Y-45281D02*
X85643Y-44481D01*
X85643Y-44481D02*
X85143Y-44481D01*
X85143Y-44481D02*
X85143Y-45281D01*
X85143Y-45281D02*
X85643Y-45281D01*
X81740Y-48113D02*
X82093Y-47759D01*
X81386Y-47759D02*
X81733Y-47413D01*
X81280Y-47653D02*
X81846Y-48219D01*
X81846Y-48219D02*
X82199Y-47865D01*
X82199Y-47865D02*
X81634Y-47300D01*
X81634Y-47300D02*
X81280Y-47653D01*
X82330Y-47514D02*
X82684Y-47161D01*
X81977Y-47161D02*
X82323Y-46814D01*
X81871Y-47055D02*
X82436Y-47621D01*
X82436Y-47621D02*
X82790Y-47267D01*
X82790Y-47267D02*
X82224Y-46701D01*
X82224Y-46701D02*
X81871Y-47055D01*
X91797Y-55064D02*
X91797Y-55564D01*
X92297Y-55064D02*
X92297Y-55554D01*
X92447Y-55064D02*
X91647Y-55064D01*
X91647Y-55064D02*
X91647Y-55564D01*
X91647Y-55564D02*
X92447Y-55564D01*
X92447Y-55564D02*
X92447Y-55064D01*
X90104Y-42375D02*
X90604Y-42375D01*
X90104Y-41875D02*
X90594Y-41875D01*
X90104Y-41725D02*
X90104Y-42525D01*
X90104Y-42525D02*
X90604Y-42525D01*
X90604Y-42525D02*
X90604Y-41725D01*
X90604Y-41725D02*
X90104Y-41725D01*
X94309Y-41899D02*
X93809Y-41899D01*
X94309Y-42399D02*
X93819Y-42399D01*
X94309Y-42549D02*
X94309Y-41749D01*
X94309Y-41749D02*
X93809Y-41749D01*
X93809Y-41749D02*
X93809Y-42549D01*
X93809Y-42549D02*
X94309Y-42549D01*
X82761Y-48490D02*
X82761Y-48990D01*
X83261Y-48490D02*
X83261Y-48980D01*
X83411Y-48490D02*
X82611Y-48490D01*
X82611Y-48490D02*
X82611Y-48990D01*
X82611Y-48990D02*
X83411Y-48990D01*
X83411Y-48990D02*
X83411Y-48490D01*
X82757Y-53210D02*
X82757Y-53710D01*
X83257Y-53210D02*
X83257Y-53700D01*
X83407Y-53210D02*
X82607Y-53210D01*
X82607Y-53210D02*
X82607Y-53710D01*
X82607Y-53710D02*
X83407Y-53710D01*
X83407Y-53710D02*
X83407Y-53210D01*
X102328Y-39738D02*
X102828Y-39738D01*
X102328Y-39238D02*
X102818Y-39238D01*
X102328Y-39088D02*
X102328Y-39888D01*
X102328Y-39888D02*
X102828Y-39888D01*
X102828Y-39888D02*
X102828Y-39088D01*
X102828Y-39088D02*
X102328Y-39088D01*
G54D10*
X95748Y-72165D02*
G75*
G03X95748Y-72165I-1050J0D01*
G74*
G01*
X91548Y-72165D02*
G75*
G03X91548Y-72165I-1050J0D01*
G74*
G01*
X88348Y-73965D02*
X96848Y-73965D01*
X96848Y-73965D02*
X96848Y-73915D01*
X88348Y-72165D02*
X88348Y-70115D01*
X88348Y-70115D02*
X89298Y-69165D01*
X89298Y-69165D02*
X95598Y-69165D01*
X95598Y-69165D02*
X96748Y-70315D01*
X96748Y-70315D02*
X96848Y-72165D01*
X96848Y-72165D02*
X96848Y-73915D01*
X88348Y-73965D02*
X88348Y-72165D01*
X96535Y-72165D02*
G75*
G03X96535Y-72165I-3937J0D01*
G74*
G01*
G54D16*
X98760Y-40944D02*
X98760Y-40751D01*
X98760Y-40751D02*
X99193Y-40751D01*
X99193Y-40944D02*
X99193Y-40751D01*
X98760Y-40944D02*
X99193Y-40944D01*
X98760Y-40444D02*
X98760Y-40251D01*
X98760Y-40251D02*
X99193Y-40251D01*
X99193Y-40444D02*
X99193Y-40251D01*
X98760Y-40444D02*
X99193Y-40444D01*
X98760Y-39945D02*
X98760Y-39752D01*
X98760Y-39752D02*
X99193Y-39752D01*
X99193Y-39945D02*
X99193Y-39752D01*
X98760Y-39945D02*
X99193Y-39945D01*
X98760Y-39445D02*
X98760Y-39252D01*
X98760Y-39252D02*
X99193Y-39252D01*
X99193Y-39445D02*
X99193Y-39252D01*
X98760Y-39445D02*
X99193Y-39445D01*
X100767Y-39445D02*
X100767Y-39252D01*
X100767Y-39252D02*
X101200Y-39252D01*
X101200Y-39445D02*
X101200Y-39252D01*
X100767Y-39445D02*
X101200Y-39445D01*
X100767Y-39945D02*
X100767Y-39752D01*
X100767Y-39752D02*
X101200Y-39752D01*
X101200Y-39945D02*
X101200Y-39752D01*
X100767Y-39945D02*
X101200Y-39945D01*
X100767Y-40444D02*
X100767Y-40251D01*
X100767Y-40251D02*
X101200Y-40251D01*
X101200Y-40444D02*
X101200Y-40251D01*
X100767Y-40444D02*
X101200Y-40444D01*
X100767Y-40944D02*
X100767Y-40751D01*
X100767Y-40751D02*
X101200Y-40751D01*
X101200Y-40944D02*
X101200Y-40751D01*
X100767Y-40944D02*
X101200Y-40944D01*
G54D17*
X100728Y-39154D02*
X99429Y-39154D01*
X99429Y-39154D02*
X99232Y-39154D01*
X99232Y-39154D02*
X99232Y-41042D01*
X99232Y-41042D02*
X99429Y-41042D01*
X99429Y-41042D02*
X100728Y-41042D01*
X100728Y-41042D02*
X100728Y-39154D01*
X99429Y-39154D02*
X99429Y-41042D01*
G54D18*
X84590Y-38198D02*
X84590Y-38453D01*
X84575Y-38483D01*
X84560Y-38498D01*
X84530Y-38513D01*
X84470Y-38513D01*
X84440Y-38498D01*
X84425Y-38483D01*
X84410Y-38453D01*
X84410Y-38198D01*
X84290Y-38198D02*
X84080Y-38198D01*
X84215Y-38513D01*
G54D19*
X77315Y-34036D02*
X77202Y-34036D01*
X77259Y-34233D02*
X77259Y-34036D01*
X77024Y-34233D02*
X77090Y-34139D01*
X77137Y-34233D02*
X77137Y-34036D01*
X77062Y-34036D01*
X77043Y-34045D01*
X77034Y-34055D01*
X77024Y-34073D01*
X77024Y-34101D01*
X77034Y-34120D01*
X77043Y-34130D01*
X77062Y-34139D01*
X77137Y-34139D01*
X76837Y-34233D02*
X76949Y-34233D01*
X76893Y-34233D02*
X76893Y-34036D01*
X76912Y-34064D01*
X76931Y-34083D01*
X76949Y-34092D01*
G54D13*
X77709Y-35709D02*
X77709Y-35868D01*
X77699Y-35887D01*
X77690Y-35897D01*
X77671Y-35906D01*
X77634Y-35906D01*
X77615Y-35897D01*
X77605Y-35887D01*
X77596Y-35868D01*
X77596Y-35709D01*
X77512Y-35728D02*
X77502Y-35718D01*
X77484Y-35709D01*
X77437Y-35709D01*
X77418Y-35718D01*
X77408Y-35728D01*
X77399Y-35747D01*
X77399Y-35765D01*
X77408Y-35793D01*
X77521Y-35906D01*
X77399Y-35906D01*
G54D20*
X81519Y-39449D02*
X81585Y-39356D01*
X81632Y-39449D02*
X81632Y-39252D01*
X81557Y-39252D01*
X81538Y-39262D01*
X81529Y-39271D01*
X81519Y-39290D01*
X81519Y-39318D01*
X81529Y-39337D01*
X81538Y-39346D01*
X81557Y-39356D01*
X81632Y-39356D01*
X81332Y-39449D02*
X81444Y-39449D01*
X81388Y-39449D02*
X81388Y-39252D01*
X81407Y-39280D01*
X81425Y-39299D01*
X81444Y-39309D01*
X81210Y-39252D02*
X81191Y-39252D01*
X81172Y-39262D01*
X81163Y-39271D01*
X81153Y-39290D01*
X81144Y-39327D01*
X81144Y-39374D01*
X81153Y-39412D01*
X81163Y-39431D01*
X81172Y-39440D01*
X81191Y-39449D01*
X81210Y-39449D01*
X81228Y-39440D01*
X81238Y-39431D01*
X81247Y-39412D01*
X81256Y-39374D01*
X81256Y-39327D01*
X81247Y-39290D01*
X81238Y-39271D01*
X81228Y-39262D01*
X81210Y-39252D01*
X81078Y-39252D02*
X80947Y-39252D01*
X81031Y-39449D01*
X80535Y-38071D02*
X80601Y-37978D01*
X80647Y-38071D02*
X80647Y-37874D01*
X80572Y-37874D01*
X80554Y-37884D01*
X80544Y-37893D01*
X80535Y-37912D01*
X80535Y-37940D01*
X80544Y-37959D01*
X80554Y-37968D01*
X80572Y-37978D01*
X80647Y-37978D01*
X80347Y-38071D02*
X80460Y-38071D01*
X80404Y-38071D02*
X80404Y-37874D01*
X80422Y-37903D01*
X80441Y-37921D01*
X80460Y-37931D01*
X80225Y-37874D02*
X80207Y-37874D01*
X80188Y-37884D01*
X80178Y-37893D01*
X80169Y-37912D01*
X80160Y-37949D01*
X80160Y-37996D01*
X80169Y-38034D01*
X80178Y-38053D01*
X80188Y-38062D01*
X80207Y-38071D01*
X80225Y-38071D01*
X80244Y-38062D01*
X80253Y-38053D01*
X80263Y-38034D01*
X80272Y-37996D01*
X80272Y-37949D01*
X80263Y-37912D01*
X80253Y-37893D01*
X80244Y-37884D01*
X80225Y-37874D01*
X80066Y-38071D02*
X80028Y-38071D01*
X80010Y-38062D01*
X80000Y-38053D01*
X79981Y-38024D01*
X79972Y-37987D01*
X79972Y-37912D01*
X79981Y-37893D01*
X79991Y-37884D01*
X80010Y-37874D01*
X80047Y-37874D01*
X80066Y-37884D01*
X80075Y-37893D01*
X80085Y-37912D01*
X80085Y-37959D01*
X80075Y-37978D01*
X80066Y-37987D01*
X80047Y-37996D01*
X80010Y-37996D01*
X79991Y-37987D01*
X79981Y-37978D01*
X79972Y-37959D01*
X81519Y-36693D02*
X81585Y-36600D01*
X81632Y-36693D02*
X81632Y-36496D01*
X81557Y-36496D01*
X81538Y-36506D01*
X81529Y-36515D01*
X81519Y-36534D01*
X81519Y-36562D01*
X81529Y-36581D01*
X81538Y-36590D01*
X81557Y-36600D01*
X81632Y-36600D01*
X81332Y-36693D02*
X81444Y-36693D01*
X81388Y-36693D02*
X81388Y-36496D01*
X81407Y-36525D01*
X81425Y-36543D01*
X81444Y-36553D01*
X81144Y-36693D02*
X81256Y-36693D01*
X81200Y-36693D02*
X81200Y-36496D01*
X81219Y-36525D01*
X81238Y-36543D01*
X81256Y-36553D01*
X81022Y-36496D02*
X81003Y-36496D01*
X80984Y-36506D01*
X80975Y-36515D01*
X80966Y-36534D01*
X80956Y-36571D01*
X80956Y-36618D01*
X80966Y-36656D01*
X80975Y-36675D01*
X80984Y-36684D01*
X81003Y-36693D01*
X81022Y-36693D01*
X81041Y-36684D01*
X81050Y-36675D01*
X81059Y-36656D01*
X81069Y-36618D01*
X81069Y-36571D01*
X81059Y-36534D01*
X81050Y-36515D01*
X81041Y-36506D01*
X81022Y-36496D01*
X87036Y-45847D02*
X87101Y-45753D01*
X87148Y-45847D02*
X87148Y-45650D01*
X87073Y-45650D01*
X87054Y-45659D01*
X87045Y-45669D01*
X87036Y-45687D01*
X87036Y-45716D01*
X87045Y-45734D01*
X87054Y-45744D01*
X87073Y-45753D01*
X87148Y-45753D01*
X86942Y-45847D02*
X86904Y-45847D01*
X86885Y-45838D01*
X86876Y-45828D01*
X86857Y-45800D01*
X86848Y-45763D01*
X86848Y-45687D01*
X86857Y-45669D01*
X86867Y-45659D01*
X86885Y-45650D01*
X86923Y-45650D01*
X86942Y-45659D01*
X86951Y-45669D01*
X86961Y-45687D01*
X86961Y-45734D01*
X86951Y-45753D01*
X86942Y-45763D01*
X86923Y-45772D01*
X86885Y-45772D01*
X86867Y-45763D01*
X86857Y-45753D01*
X86848Y-45734D01*
X86660Y-45847D02*
X86773Y-45847D01*
X86717Y-45847D02*
X86717Y-45650D01*
X86735Y-45678D01*
X86754Y-45697D01*
X86773Y-45706D01*
X82902Y-50375D02*
X82967Y-50281D01*
X83014Y-50375D02*
X83014Y-50178D01*
X82939Y-50178D01*
X82920Y-50187D01*
X82911Y-50196D01*
X82902Y-50215D01*
X82902Y-50243D01*
X82911Y-50262D01*
X82920Y-50271D01*
X82939Y-50281D01*
X83014Y-50281D01*
X82808Y-50375D02*
X82770Y-50375D01*
X82752Y-50365D01*
X82742Y-50356D01*
X82723Y-50328D01*
X82714Y-50290D01*
X82714Y-50215D01*
X82723Y-50196D01*
X82733Y-50187D01*
X82752Y-50178D01*
X82789Y-50178D01*
X82808Y-50187D01*
X82817Y-50196D01*
X82827Y-50215D01*
X82827Y-50262D01*
X82817Y-50281D01*
X82808Y-50290D01*
X82789Y-50299D01*
X82752Y-50299D01*
X82733Y-50290D01*
X82723Y-50281D01*
X82714Y-50262D01*
X82545Y-50243D02*
X82545Y-50375D01*
X82592Y-50168D02*
X82639Y-50309D01*
X82517Y-50309D01*
X83094Y-41910D02*
X83160Y-41816D01*
X83207Y-41910D02*
X83207Y-41713D01*
X83131Y-41713D01*
X83113Y-41722D01*
X83103Y-41732D01*
X83094Y-41750D01*
X83094Y-41779D01*
X83103Y-41797D01*
X83113Y-41807D01*
X83131Y-41816D01*
X83207Y-41816D01*
X82906Y-41910D02*
X83019Y-41910D01*
X82963Y-41910D02*
X82963Y-41713D01*
X82981Y-41741D01*
X83000Y-41760D01*
X83019Y-41769D01*
X82784Y-41713D02*
X82766Y-41713D01*
X82747Y-41722D01*
X82737Y-41732D01*
X82728Y-41750D01*
X82719Y-41788D01*
X82719Y-41835D01*
X82728Y-41872D01*
X82737Y-41891D01*
X82747Y-41901D01*
X82766Y-41910D01*
X82784Y-41910D01*
X82803Y-41901D01*
X82813Y-41891D01*
X82822Y-41872D01*
X82831Y-41835D01*
X82831Y-41788D01*
X82822Y-41750D01*
X82813Y-41732D01*
X82803Y-41722D01*
X82784Y-41713D01*
X82606Y-41797D02*
X82625Y-41788D01*
X82634Y-41779D01*
X82644Y-41760D01*
X82644Y-41750D01*
X82634Y-41732D01*
X82625Y-41722D01*
X82606Y-41713D01*
X82569Y-41713D01*
X82550Y-41722D01*
X82540Y-41732D01*
X82531Y-41750D01*
X82531Y-41760D01*
X82540Y-41779D01*
X82550Y-41788D01*
X82569Y-41797D01*
X82606Y-41797D01*
X82625Y-41807D01*
X82634Y-41816D01*
X82644Y-41835D01*
X82644Y-41872D01*
X82634Y-41891D01*
X82625Y-41901D01*
X82606Y-41910D01*
X82569Y-41910D01*
X82550Y-41901D01*
X82540Y-41891D01*
X82531Y-41872D01*
X82531Y-41835D01*
X82540Y-41816D01*
X82550Y-41807D01*
X82569Y-41797D01*
X82110Y-41910D02*
X82175Y-41816D01*
X82222Y-41910D02*
X82222Y-41713D01*
X82147Y-41713D01*
X82128Y-41722D01*
X82119Y-41732D01*
X82110Y-41750D01*
X82110Y-41779D01*
X82119Y-41797D01*
X82128Y-41807D01*
X82147Y-41816D01*
X82222Y-41816D01*
X81922Y-41910D02*
X82035Y-41910D01*
X81978Y-41910D02*
X81978Y-41713D01*
X81997Y-41741D01*
X82016Y-41760D01*
X82035Y-41769D01*
X81800Y-41713D02*
X81781Y-41713D01*
X81763Y-41722D01*
X81753Y-41732D01*
X81744Y-41750D01*
X81734Y-41788D01*
X81734Y-41835D01*
X81744Y-41872D01*
X81753Y-41891D01*
X81763Y-41901D01*
X81781Y-41910D01*
X81800Y-41910D01*
X81819Y-41901D01*
X81828Y-41891D01*
X81838Y-41872D01*
X81847Y-41835D01*
X81847Y-41788D01*
X81838Y-41750D01*
X81828Y-41732D01*
X81819Y-41722D01*
X81800Y-41713D01*
X81566Y-41713D02*
X81603Y-41713D01*
X81622Y-41722D01*
X81631Y-41732D01*
X81650Y-41760D01*
X81659Y-41797D01*
X81659Y-41872D01*
X81650Y-41891D01*
X81641Y-41901D01*
X81622Y-41910D01*
X81584Y-41910D01*
X81566Y-41901D01*
X81556Y-41891D01*
X81547Y-41872D01*
X81547Y-41826D01*
X81556Y-41807D01*
X81566Y-41797D01*
X81584Y-41788D01*
X81622Y-41788D01*
X81641Y-41797D01*
X81650Y-41807D01*
X81659Y-41826D01*
X99831Y-37284D02*
X99897Y-37190D01*
X99943Y-37284D02*
X99943Y-37087D01*
X99868Y-37087D01*
X99850Y-37096D01*
X99840Y-37106D01*
X99831Y-37124D01*
X99831Y-37153D01*
X99840Y-37171D01*
X99850Y-37181D01*
X99868Y-37190D01*
X99943Y-37190D01*
X99737Y-37284D02*
X99700Y-37284D01*
X99681Y-37275D01*
X99671Y-37265D01*
X99653Y-37237D01*
X99643Y-37200D01*
X99643Y-37124D01*
X99653Y-37106D01*
X99662Y-37096D01*
X99681Y-37087D01*
X99718Y-37087D01*
X99737Y-37096D01*
X99746Y-37106D01*
X99756Y-37124D01*
X99756Y-37171D01*
X99746Y-37190D01*
X99737Y-37200D01*
X99718Y-37209D01*
X99681Y-37209D01*
X99662Y-37200D01*
X99653Y-37190D01*
X99643Y-37171D01*
X99549Y-37284D02*
X99512Y-37284D01*
X99493Y-37275D01*
X99484Y-37265D01*
X99465Y-37237D01*
X99456Y-37200D01*
X99456Y-37124D01*
X99465Y-37106D01*
X99474Y-37096D01*
X99493Y-37087D01*
X99531Y-37087D01*
X99549Y-37096D01*
X99559Y-37106D01*
X99568Y-37124D01*
X99568Y-37171D01*
X99559Y-37190D01*
X99549Y-37200D01*
X99531Y-37209D01*
X99493Y-37209D01*
X99474Y-37200D01*
X99465Y-37190D01*
X99456Y-37171D01*
X100220Y-41418D02*
X100286Y-41324D01*
X100333Y-41418D02*
X100333Y-41221D01*
X100257Y-41221D01*
X100239Y-41230D01*
X100229Y-41240D01*
X100220Y-41258D01*
X100220Y-41286D01*
X100229Y-41305D01*
X100239Y-41315D01*
X100257Y-41324D01*
X100333Y-41324D01*
X100032Y-41418D02*
X100145Y-41418D01*
X100089Y-41418D02*
X100089Y-41221D01*
X100107Y-41249D01*
X100126Y-41268D01*
X100145Y-41277D01*
X99910Y-41221D02*
X99892Y-41221D01*
X99873Y-41230D01*
X99863Y-41240D01*
X99854Y-41258D01*
X99845Y-41296D01*
X99845Y-41343D01*
X99854Y-41380D01*
X99863Y-41399D01*
X99873Y-41408D01*
X99892Y-41418D01*
X99910Y-41418D01*
X99929Y-41408D01*
X99939Y-41399D01*
X99948Y-41380D01*
X99957Y-41343D01*
X99957Y-41296D01*
X99948Y-41258D01*
X99939Y-41240D01*
X99929Y-41230D01*
X99910Y-41221D01*
X99723Y-41221D02*
X99704Y-41221D01*
X99685Y-41230D01*
X99676Y-41240D01*
X99666Y-41258D01*
X99657Y-41296D01*
X99657Y-41343D01*
X99666Y-41380D01*
X99676Y-41399D01*
X99685Y-41408D01*
X99704Y-41418D01*
X99723Y-41418D01*
X99742Y-41408D01*
X99751Y-41399D01*
X99760Y-41380D01*
X99770Y-41343D01*
X99770Y-41296D01*
X99760Y-41258D01*
X99751Y-41240D01*
X99742Y-41230D01*
X99723Y-41221D01*
X97759Y-41221D02*
X97825Y-41127D01*
X97872Y-41221D02*
X97872Y-41024D01*
X97797Y-41024D01*
X97778Y-41033D01*
X97769Y-41043D01*
X97759Y-41061D01*
X97759Y-41090D01*
X97769Y-41108D01*
X97778Y-41118D01*
X97797Y-41127D01*
X97872Y-41127D01*
X97572Y-41221D02*
X97684Y-41221D01*
X97628Y-41221D02*
X97628Y-41024D01*
X97647Y-41052D01*
X97666Y-41071D01*
X97684Y-41080D01*
X97450Y-41024D02*
X97431Y-41024D01*
X97412Y-41033D01*
X97403Y-41043D01*
X97393Y-41061D01*
X97384Y-41099D01*
X97384Y-41146D01*
X97393Y-41183D01*
X97403Y-41202D01*
X97412Y-41212D01*
X97431Y-41221D01*
X97450Y-41221D01*
X97469Y-41212D01*
X97478Y-41202D01*
X97487Y-41183D01*
X97497Y-41146D01*
X97497Y-41099D01*
X97487Y-41061D01*
X97478Y-41043D01*
X97469Y-41033D01*
X97450Y-41024D01*
X97309Y-41043D02*
X97300Y-41033D01*
X97281Y-41024D01*
X97234Y-41024D01*
X97215Y-41033D01*
X97206Y-41043D01*
X97196Y-41061D01*
X97196Y-41080D01*
X97206Y-41108D01*
X97318Y-41221D01*
X97196Y-41221D01*
X97267Y-38268D02*
X97333Y-38174D01*
X97380Y-38268D02*
X97380Y-38071D01*
X97305Y-38071D01*
X97286Y-38081D01*
X97277Y-38090D01*
X97267Y-38109D01*
X97267Y-38137D01*
X97277Y-38156D01*
X97286Y-38165D01*
X97305Y-38174D01*
X97380Y-38174D01*
X97080Y-38268D02*
X97192Y-38268D01*
X97136Y-38268D02*
X97136Y-38071D01*
X97155Y-38099D01*
X97173Y-38118D01*
X97192Y-38128D01*
X96958Y-38071D02*
X96939Y-38071D01*
X96920Y-38081D01*
X96911Y-38090D01*
X96901Y-38109D01*
X96892Y-38146D01*
X96892Y-38193D01*
X96901Y-38231D01*
X96911Y-38249D01*
X96920Y-38259D01*
X96939Y-38268D01*
X96958Y-38268D01*
X96976Y-38259D01*
X96986Y-38249D01*
X96995Y-38231D01*
X97005Y-38193D01*
X97005Y-38146D01*
X96995Y-38109D01*
X96986Y-38090D01*
X96976Y-38081D01*
X96958Y-38071D01*
X96704Y-38268D02*
X96817Y-38268D01*
X96761Y-38268D02*
X96761Y-38071D01*
X96779Y-38099D01*
X96798Y-38118D01*
X96817Y-38128D01*
X87036Y-52048D02*
X87101Y-51954D01*
X87148Y-52048D02*
X87148Y-51851D01*
X87073Y-51851D01*
X87054Y-51860D01*
X87045Y-51870D01*
X87036Y-51888D01*
X87036Y-51916D01*
X87045Y-51935D01*
X87054Y-51945D01*
X87073Y-51954D01*
X87148Y-51954D01*
X86942Y-52048D02*
X86904Y-52048D01*
X86885Y-52038D01*
X86876Y-52029D01*
X86857Y-52001D01*
X86848Y-51963D01*
X86848Y-51888D01*
X86857Y-51870D01*
X86867Y-51860D01*
X86885Y-51851D01*
X86923Y-51851D01*
X86942Y-51860D01*
X86951Y-51870D01*
X86961Y-51888D01*
X86961Y-51935D01*
X86951Y-51954D01*
X86942Y-51963D01*
X86923Y-51973D01*
X86885Y-51973D01*
X86867Y-51963D01*
X86857Y-51954D01*
X86848Y-51935D01*
X86773Y-51870D02*
X86764Y-51860D01*
X86745Y-51851D01*
X86698Y-51851D01*
X86679Y-51860D01*
X86670Y-51870D01*
X86660Y-51888D01*
X86660Y-51907D01*
X86670Y-51935D01*
X86782Y-52048D01*
X86660Y-52048D01*
X82902Y-49489D02*
X82967Y-49395D01*
X83014Y-49489D02*
X83014Y-49292D01*
X82939Y-49292D01*
X82920Y-49301D01*
X82911Y-49310D01*
X82902Y-49329D01*
X82902Y-49357D01*
X82911Y-49376D01*
X82920Y-49385D01*
X82939Y-49395D01*
X83014Y-49395D01*
X82808Y-49489D02*
X82770Y-49489D01*
X82752Y-49479D01*
X82742Y-49470D01*
X82723Y-49442D01*
X82714Y-49404D01*
X82714Y-49329D01*
X82723Y-49310D01*
X82733Y-49301D01*
X82752Y-49292D01*
X82789Y-49292D01*
X82808Y-49301D01*
X82817Y-49310D01*
X82827Y-49329D01*
X82827Y-49376D01*
X82817Y-49395D01*
X82808Y-49404D01*
X82789Y-49414D01*
X82752Y-49414D01*
X82733Y-49404D01*
X82723Y-49395D01*
X82714Y-49376D01*
X82648Y-49292D02*
X82526Y-49292D01*
X82592Y-49367D01*
X82564Y-49367D01*
X82545Y-49376D01*
X82536Y-49385D01*
X82526Y-49404D01*
X82526Y-49451D01*
X82536Y-49470D01*
X82545Y-49479D01*
X82564Y-49489D01*
X82620Y-49489D01*
X82639Y-49479D01*
X82648Y-49470D01*
X99536Y-61300D02*
X99601Y-61206D01*
X99648Y-61300D02*
X99648Y-61103D01*
X99573Y-61103D01*
X99554Y-61112D01*
X99545Y-61121D01*
X99536Y-61140D01*
X99536Y-61168D01*
X99545Y-61187D01*
X99554Y-61197D01*
X99573Y-61206D01*
X99648Y-61206D01*
X99461Y-61121D02*
X99451Y-61112D01*
X99432Y-61103D01*
X99385Y-61103D01*
X99367Y-61112D01*
X99357Y-61121D01*
X99348Y-61140D01*
X99348Y-61159D01*
X99357Y-61187D01*
X99470Y-61300D01*
X99348Y-61300D01*
X99226Y-61103D02*
X99207Y-61103D01*
X99188Y-61112D01*
X99179Y-61121D01*
X99170Y-61140D01*
X99160Y-61178D01*
X99160Y-61225D01*
X99170Y-61262D01*
X99179Y-61281D01*
X99188Y-61290D01*
X99207Y-61300D01*
X99226Y-61300D01*
X99245Y-61290D01*
X99254Y-61281D01*
X99264Y-61262D01*
X99273Y-61225D01*
X99273Y-61178D01*
X99264Y-61140D01*
X99254Y-61121D01*
X99245Y-61112D01*
X99226Y-61103D01*
X99536Y-60414D02*
X99601Y-60320D01*
X99648Y-60414D02*
X99648Y-60217D01*
X99573Y-60217D01*
X99554Y-60226D01*
X99545Y-60236D01*
X99536Y-60254D01*
X99536Y-60283D01*
X99545Y-60301D01*
X99554Y-60311D01*
X99573Y-60320D01*
X99648Y-60320D01*
X99461Y-60236D02*
X99451Y-60226D01*
X99432Y-60217D01*
X99385Y-60217D01*
X99367Y-60226D01*
X99357Y-60236D01*
X99348Y-60254D01*
X99348Y-60273D01*
X99357Y-60301D01*
X99470Y-60414D01*
X99348Y-60414D01*
X99160Y-60414D02*
X99273Y-60414D01*
X99217Y-60414D02*
X99217Y-60217D01*
X99235Y-60245D01*
X99254Y-60264D01*
X99273Y-60273D01*
X99634Y-59430D02*
X99700Y-59336D01*
X99747Y-59430D02*
X99747Y-59233D01*
X99672Y-59233D01*
X99653Y-59242D01*
X99643Y-59251D01*
X99634Y-59270D01*
X99634Y-59298D01*
X99643Y-59317D01*
X99653Y-59326D01*
X99672Y-59336D01*
X99747Y-59336D01*
X99559Y-59251D02*
X99550Y-59242D01*
X99531Y-59233D01*
X99484Y-59233D01*
X99465Y-59242D01*
X99456Y-59251D01*
X99446Y-59270D01*
X99446Y-59289D01*
X99456Y-59317D01*
X99568Y-59430D01*
X99446Y-59430D01*
X99371Y-59251D02*
X99362Y-59242D01*
X99343Y-59233D01*
X99296Y-59233D01*
X99278Y-59242D01*
X99268Y-59251D01*
X99259Y-59270D01*
X99259Y-59289D01*
X99268Y-59317D01*
X99381Y-59430D01*
X99259Y-59430D01*
X99634Y-58544D02*
X99700Y-58450D01*
X99747Y-58544D02*
X99747Y-58347D01*
X99672Y-58347D01*
X99653Y-58356D01*
X99643Y-58366D01*
X99634Y-58384D01*
X99634Y-58412D01*
X99643Y-58431D01*
X99653Y-58441D01*
X99672Y-58450D01*
X99747Y-58450D01*
X99559Y-58366D02*
X99550Y-58356D01*
X99531Y-58347D01*
X99484Y-58347D01*
X99465Y-58356D01*
X99456Y-58366D01*
X99446Y-58384D01*
X99446Y-58403D01*
X99456Y-58431D01*
X99568Y-58544D01*
X99446Y-58544D01*
X99381Y-58347D02*
X99259Y-58347D01*
X99324Y-58422D01*
X99296Y-58422D01*
X99278Y-58431D01*
X99268Y-58441D01*
X99259Y-58459D01*
X99259Y-58506D01*
X99268Y-58525D01*
X99278Y-58534D01*
X99296Y-58544D01*
X99353Y-58544D01*
X99371Y-58534D01*
X99381Y-58525D01*
G54D21*
X91316Y-34151D02*
X91316Y-34406D01*
X91301Y-34436D01*
X91286Y-34451D01*
X91256Y-34466D01*
X91196Y-34466D01*
X91166Y-34451D01*
X91151Y-34436D01*
X91136Y-34406D01*
X91136Y-34151D01*
X90851Y-34151D02*
X90911Y-34151D01*
X90941Y-34166D01*
X90956Y-34181D01*
X90986Y-34226D01*
X91001Y-34286D01*
X91001Y-34406D01*
X90986Y-34436D01*
X90971Y-34451D01*
X90941Y-34466D01*
X90881Y-34466D01*
X90851Y-34451D01*
X90836Y-34436D01*
X90821Y-34406D01*
X90821Y-34331D01*
X90836Y-34301D01*
X90851Y-34286D01*
X90881Y-34271D01*
X90941Y-34271D01*
X90971Y-34286D01*
X90986Y-34301D01*
X91001Y-34331D01*
G54D19*
X91010Y-55197D02*
X91010Y-55338D01*
X91019Y-55366D01*
X91038Y-55385D01*
X91066Y-55394D01*
X91085Y-55394D01*
X90916Y-55394D02*
X90916Y-55197D01*
X90841Y-55197D01*
X90823Y-55207D01*
X90813Y-55216D01*
X90804Y-55235D01*
X90804Y-55263D01*
X90813Y-55282D01*
X90823Y-55291D01*
X90841Y-55300D01*
X90916Y-55300D01*
X90626Y-55197D02*
X90719Y-55197D01*
X90729Y-55291D01*
X90719Y-55282D01*
X90701Y-55272D01*
X90654Y-55272D01*
X90635Y-55282D01*
X90626Y-55291D01*
X90616Y-55310D01*
X90616Y-55357D01*
X90626Y-55375D01*
X90635Y-55385D01*
X90654Y-55394D01*
X90701Y-55394D01*
X90719Y-55385D01*
X90729Y-55375D01*
G54D10*
X87656Y-43611D02*
X87446Y-43926D01*
X87446Y-43611D02*
X87656Y-43926D01*
X87341Y-43641D02*
X87326Y-43626D01*
X87296Y-43611D01*
X87221Y-43611D01*
X87191Y-43626D01*
X87176Y-43641D01*
X87161Y-43671D01*
X87161Y-43701D01*
X87176Y-43746D01*
X87356Y-43926D01*
X87161Y-43926D01*
X92936Y-40808D02*
X92674Y-41202D01*
X92674Y-40808D02*
X92936Y-41202D01*
X92561Y-40808D02*
X92318Y-40808D01*
X92449Y-40958D01*
X92393Y-40958D01*
X92355Y-40977D01*
X92336Y-40996D01*
X92318Y-41033D01*
X92318Y-41127D01*
X92336Y-41165D01*
X92355Y-41183D01*
X92393Y-41202D01*
X92505Y-41202D01*
X92543Y-41183D01*
X92561Y-41165D01*
G54D19*
X85854Y-38249D02*
X85864Y-38259D01*
X85892Y-38268D01*
X85911Y-38268D01*
X85939Y-38259D01*
X85958Y-38240D01*
X85967Y-38221D01*
X85976Y-38184D01*
X85976Y-38156D01*
X85967Y-38118D01*
X85958Y-38099D01*
X85939Y-38081D01*
X85911Y-38071D01*
X85892Y-38071D01*
X85864Y-38081D01*
X85854Y-38090D01*
X85686Y-38137D02*
X85686Y-38268D01*
X85733Y-38062D02*
X85779Y-38203D01*
X85658Y-38203D01*
X85545Y-38071D02*
X85526Y-38071D01*
X85508Y-38081D01*
X85498Y-38090D01*
X85489Y-38109D01*
X85479Y-38146D01*
X85479Y-38193D01*
X85489Y-38231D01*
X85498Y-38249D01*
X85508Y-38259D01*
X85526Y-38268D01*
X85545Y-38268D01*
X85564Y-38259D01*
X85573Y-38249D01*
X85583Y-38231D01*
X85592Y-38193D01*
X85592Y-38146D01*
X85583Y-38109D01*
X85573Y-38090D01*
X85564Y-38081D01*
X85545Y-38071D01*
G54D22*
X83197Y-51537D02*
X83206Y-51546D01*
X83234Y-51556D01*
X83253Y-51556D01*
X83281Y-51546D01*
X83300Y-51527D01*
X83309Y-51509D01*
X83319Y-51471D01*
X83319Y-51443D01*
X83309Y-51406D01*
X83300Y-51387D01*
X83281Y-51368D01*
X83253Y-51359D01*
X83234Y-51359D01*
X83206Y-51368D01*
X83197Y-51377D01*
X83122Y-51377D02*
X83113Y-51368D01*
X83094Y-51359D01*
X83047Y-51359D01*
X83028Y-51368D01*
X83019Y-51377D01*
X83009Y-51396D01*
X83009Y-51415D01*
X83019Y-51443D01*
X83131Y-51556D01*
X83009Y-51556D01*
X82934Y-51377D02*
X82925Y-51368D01*
X82906Y-51359D01*
X82859Y-51359D01*
X82841Y-51368D01*
X82831Y-51377D01*
X82822Y-51396D01*
X82822Y-51415D01*
X82831Y-51443D01*
X82944Y-51556D01*
X82822Y-51556D01*
G54D19*
X83984Y-41793D02*
X83994Y-41802D01*
X84022Y-41811D01*
X84041Y-41811D01*
X84069Y-41802D01*
X84087Y-41783D01*
X84097Y-41765D01*
X84106Y-41727D01*
X84106Y-41699D01*
X84097Y-41661D01*
X84087Y-41643D01*
X84069Y-41624D01*
X84041Y-41615D01*
X84022Y-41615D01*
X83994Y-41624D01*
X83984Y-41633D01*
X83816Y-41680D02*
X83816Y-41811D01*
X83862Y-41605D02*
X83909Y-41746D01*
X83787Y-41746D01*
X83684Y-41699D02*
X83703Y-41690D01*
X83712Y-41680D01*
X83722Y-41661D01*
X83722Y-41652D01*
X83712Y-41633D01*
X83703Y-41624D01*
X83684Y-41615D01*
X83647Y-41615D01*
X83628Y-41624D01*
X83619Y-41633D01*
X83609Y-41652D01*
X83609Y-41661D01*
X83619Y-41680D01*
X83628Y-41690D01*
X83647Y-41699D01*
X83684Y-41699D01*
X83703Y-41708D01*
X83712Y-41718D01*
X83722Y-41736D01*
X83722Y-41774D01*
X83712Y-41793D01*
X83703Y-41802D01*
X83684Y-41811D01*
X83647Y-41811D01*
X83628Y-41802D01*
X83619Y-41793D01*
X83609Y-41774D01*
X83609Y-41736D01*
X83619Y-41718D01*
X83628Y-41708D01*
X83647Y-41699D01*
G54D22*
X88610Y-44056D02*
X88620Y-44066D01*
X88648Y-44075D01*
X88667Y-44075D01*
X88695Y-44066D01*
X88713Y-44047D01*
X88723Y-44028D01*
X88732Y-43991D01*
X88732Y-43963D01*
X88723Y-43925D01*
X88713Y-43907D01*
X88695Y-43888D01*
X88667Y-43878D01*
X88648Y-43878D01*
X88620Y-43888D01*
X88610Y-43897D01*
X88423Y-44075D02*
X88535Y-44075D01*
X88479Y-44075D02*
X88479Y-43878D01*
X88498Y-43907D01*
X88517Y-43925D01*
X88535Y-43935D01*
X88254Y-43944D02*
X88254Y-44075D01*
X88301Y-43869D02*
X88348Y-44010D01*
X88226Y-44010D01*
X85559Y-44056D02*
X85568Y-44066D01*
X85597Y-44075D01*
X85615Y-44075D01*
X85643Y-44066D01*
X85662Y-44047D01*
X85672Y-44028D01*
X85681Y-43991D01*
X85681Y-43963D01*
X85672Y-43925D01*
X85662Y-43907D01*
X85643Y-43888D01*
X85615Y-43878D01*
X85597Y-43878D01*
X85568Y-43888D01*
X85559Y-43897D01*
X85372Y-44075D02*
X85484Y-44075D01*
X85428Y-44075D02*
X85428Y-43878D01*
X85447Y-43907D01*
X85465Y-43925D01*
X85484Y-43935D01*
X85306Y-43878D02*
X85184Y-43878D01*
X85250Y-43953D01*
X85222Y-43953D01*
X85203Y-43963D01*
X85194Y-43972D01*
X85184Y-43991D01*
X85184Y-44038D01*
X85194Y-44056D01*
X85203Y-44066D01*
X85222Y-44075D01*
X85278Y-44075D01*
X85297Y-44066D01*
X85306Y-44056D01*
X82092Y-47558D02*
X82092Y-47571D01*
X82106Y-47598D01*
X82119Y-47611D01*
X82145Y-47624D01*
X82172Y-47624D01*
X82192Y-47617D01*
X82225Y-47598D01*
X82245Y-47578D01*
X82265Y-47545D01*
X82271Y-47525D01*
X82271Y-47498D01*
X82258Y-47472D01*
X82245Y-47458D01*
X82218Y-47445D01*
X82205Y-47445D01*
X81946Y-47439D02*
X82026Y-47518D01*
X81986Y-47478D02*
X82125Y-47339D01*
X82119Y-47372D01*
X82119Y-47399D01*
X82125Y-47419D01*
X81946Y-47279D02*
X81966Y-47286D01*
X81980Y-47286D01*
X81999Y-47279D01*
X82006Y-47273D01*
X82013Y-47253D01*
X82013Y-47240D01*
X82006Y-47220D01*
X81980Y-47193D01*
X81960Y-47187D01*
X81946Y-47187D01*
X81927Y-47193D01*
X81920Y-47200D01*
X81913Y-47220D01*
X81913Y-47233D01*
X81920Y-47253D01*
X81946Y-47279D01*
X81953Y-47299D01*
X81953Y-47313D01*
X81946Y-47332D01*
X81920Y-47359D01*
X81900Y-47366D01*
X81887Y-47366D01*
X81867Y-47359D01*
X81840Y-47332D01*
X81834Y-47313D01*
X81834Y-47299D01*
X81840Y-47279D01*
X81867Y-47253D01*
X81887Y-47246D01*
X81900Y-47246D01*
X81920Y-47253D01*
X82725Y-46918D02*
X82725Y-46931D01*
X82738Y-46957D01*
X82751Y-46971D01*
X82778Y-46984D01*
X82804Y-46984D01*
X82824Y-46977D01*
X82857Y-46957D01*
X82877Y-46938D01*
X82897Y-46904D01*
X82904Y-46885D01*
X82904Y-46858D01*
X82890Y-46831D01*
X82877Y-46818D01*
X82851Y-46805D01*
X82837Y-46805D01*
X82579Y-46798D02*
X82658Y-46878D01*
X82619Y-46838D02*
X82758Y-46699D01*
X82751Y-46732D01*
X82751Y-46759D01*
X82758Y-46778D01*
X82512Y-46732D02*
X82486Y-46706D01*
X82479Y-46686D01*
X82479Y-46672D01*
X82486Y-46639D01*
X82506Y-46606D01*
X82559Y-46553D01*
X82579Y-46546D01*
X82592Y-46546D01*
X82612Y-46553D01*
X82638Y-46580D01*
X82645Y-46600D01*
X82645Y-46613D01*
X82638Y-46633D01*
X82605Y-46666D01*
X82585Y-46672D01*
X82572Y-46672D01*
X82552Y-46666D01*
X82526Y-46639D01*
X82519Y-46619D01*
X82519Y-46606D01*
X82526Y-46586D01*
X92252Y-53801D02*
X92261Y-53810D01*
X92290Y-53819D01*
X92308Y-53819D01*
X92336Y-53810D01*
X92355Y-53791D01*
X92365Y-53772D01*
X92374Y-53735D01*
X92374Y-53707D01*
X92365Y-53669D01*
X92355Y-53651D01*
X92336Y-53632D01*
X92308Y-53622D01*
X92290Y-53622D01*
X92261Y-53632D01*
X92252Y-53641D01*
X92177Y-53641D02*
X92168Y-53632D01*
X92149Y-53622D01*
X92102Y-53622D01*
X92083Y-53632D01*
X92074Y-53641D01*
X92065Y-53660D01*
X92065Y-53679D01*
X92074Y-53707D01*
X92186Y-53819D01*
X92065Y-53819D01*
X91943Y-53622D02*
X91924Y-53622D01*
X91905Y-53632D01*
X91896Y-53641D01*
X91886Y-53660D01*
X91877Y-53697D01*
X91877Y-53744D01*
X91886Y-53782D01*
X91896Y-53801D01*
X91905Y-53810D01*
X91924Y-53819D01*
X91943Y-53819D01*
X91961Y-53810D01*
X91971Y-53801D01*
X91980Y-53782D01*
X91990Y-53744D01*
X91990Y-53697D01*
X91980Y-53660D01*
X91971Y-53641D01*
X91961Y-53632D01*
X91943Y-53622D01*
G54D19*
X90480Y-41301D02*
X90490Y-41310D01*
X90518Y-41319D01*
X90537Y-41319D01*
X90565Y-41310D01*
X90583Y-41291D01*
X90593Y-41272D01*
X90602Y-41235D01*
X90602Y-41207D01*
X90593Y-41169D01*
X90583Y-41151D01*
X90565Y-41132D01*
X90537Y-41122D01*
X90518Y-41122D01*
X90490Y-41132D01*
X90480Y-41141D01*
X90293Y-41319D02*
X90405Y-41319D01*
X90349Y-41319D02*
X90349Y-41122D01*
X90368Y-41151D01*
X90387Y-41169D01*
X90405Y-41179D01*
X90124Y-41122D02*
X90162Y-41122D01*
X90180Y-41132D01*
X90190Y-41141D01*
X90209Y-41169D01*
X90218Y-41207D01*
X90218Y-41282D01*
X90209Y-41301D01*
X90199Y-41310D01*
X90180Y-41319D01*
X90143Y-41319D01*
X90124Y-41310D01*
X90115Y-41301D01*
X90105Y-41282D01*
X90105Y-41235D01*
X90115Y-41216D01*
X90124Y-41207D01*
X90143Y-41197D01*
X90180Y-41197D01*
X90199Y-41207D01*
X90209Y-41216D01*
X90218Y-41235D01*
G54D22*
X94221Y-41301D02*
X94230Y-41310D01*
X94258Y-41319D01*
X94277Y-41319D01*
X94305Y-41310D01*
X94324Y-41291D01*
X94333Y-41272D01*
X94342Y-41235D01*
X94342Y-41207D01*
X94333Y-41169D01*
X94324Y-41151D01*
X94305Y-41132D01*
X94277Y-41122D01*
X94258Y-41122D01*
X94230Y-41132D01*
X94221Y-41141D01*
X94033Y-41319D02*
X94146Y-41319D01*
X94089Y-41319D02*
X94089Y-41122D01*
X94108Y-41151D01*
X94127Y-41169D01*
X94146Y-41179D01*
X93855Y-41122D02*
X93949Y-41122D01*
X93958Y-41216D01*
X93949Y-41207D01*
X93930Y-41197D01*
X93883Y-41197D01*
X93864Y-41207D01*
X93855Y-41216D01*
X93846Y-41235D01*
X93846Y-41282D01*
X93855Y-41301D01*
X93864Y-41310D01*
X93883Y-41319D01*
X93930Y-41319D01*
X93949Y-41310D01*
X93958Y-41301D01*
X83098Y-48190D02*
X83108Y-48200D01*
X83136Y-48209D01*
X83155Y-48209D01*
X83183Y-48200D01*
X83202Y-48181D01*
X83211Y-48162D01*
X83220Y-48125D01*
X83220Y-48097D01*
X83211Y-48059D01*
X83202Y-48040D01*
X83183Y-48022D01*
X83155Y-48012D01*
X83136Y-48012D01*
X83108Y-48022D01*
X83098Y-48031D01*
X83033Y-48012D02*
X82911Y-48012D01*
X82977Y-48087D01*
X82949Y-48087D01*
X82930Y-48097D01*
X82920Y-48106D01*
X82911Y-48125D01*
X82911Y-48172D01*
X82920Y-48190D01*
X82930Y-48200D01*
X82949Y-48209D01*
X83005Y-48209D01*
X83023Y-48200D01*
X83033Y-48190D01*
X82789Y-48012D02*
X82770Y-48012D01*
X82752Y-48022D01*
X82742Y-48031D01*
X82733Y-48050D01*
X82724Y-48087D01*
X82724Y-48134D01*
X82733Y-48172D01*
X82742Y-48190D01*
X82752Y-48200D01*
X82770Y-48209D01*
X82789Y-48209D01*
X82808Y-48200D01*
X82817Y-48190D01*
X82827Y-48172D01*
X82836Y-48134D01*
X82836Y-48087D01*
X82827Y-48050D01*
X82817Y-48031D01*
X82808Y-48022D01*
X82789Y-48012D01*
X83197Y-52915D02*
X83206Y-52924D01*
X83234Y-52934D01*
X83253Y-52934D01*
X83281Y-52924D01*
X83300Y-52905D01*
X83309Y-52887D01*
X83319Y-52849D01*
X83319Y-52821D01*
X83309Y-52784D01*
X83300Y-52765D01*
X83281Y-52746D01*
X83253Y-52737D01*
X83234Y-52737D01*
X83206Y-52746D01*
X83197Y-52755D01*
X83131Y-52737D02*
X83009Y-52737D01*
X83075Y-52812D01*
X83047Y-52812D01*
X83028Y-52821D01*
X83019Y-52830D01*
X83009Y-52849D01*
X83009Y-52896D01*
X83019Y-52915D01*
X83028Y-52924D01*
X83047Y-52934D01*
X83103Y-52934D01*
X83122Y-52924D01*
X83131Y-52915D01*
X82822Y-52934D02*
X82934Y-52934D01*
X82878Y-52934D02*
X82878Y-52737D01*
X82897Y-52765D01*
X82916Y-52784D01*
X82934Y-52793D01*
X102685Y-38643D02*
X102694Y-38652D01*
X102723Y-38662D01*
X102741Y-38662D01*
X102769Y-38652D01*
X102788Y-38634D01*
X102798Y-38615D01*
X102807Y-38577D01*
X102807Y-38549D01*
X102798Y-38512D01*
X102788Y-38493D01*
X102769Y-38474D01*
X102741Y-38465D01*
X102723Y-38465D01*
X102694Y-38474D01*
X102685Y-38484D01*
X102619Y-38465D02*
X102498Y-38465D01*
X102563Y-38540D01*
X102535Y-38540D01*
X102516Y-38549D01*
X102507Y-38559D01*
X102498Y-38577D01*
X102498Y-38624D01*
X102507Y-38643D01*
X102516Y-38652D01*
X102535Y-38662D01*
X102591Y-38662D01*
X102610Y-38652D01*
X102619Y-38643D01*
X102329Y-38531D02*
X102329Y-38662D01*
X102376Y-38456D02*
X102423Y-38596D01*
X102301Y-38596D01*
G54D10*
X89187Y-68653D02*
X89131Y-68672D01*
X89112Y-68691D01*
X89093Y-68728D01*
X89093Y-68785D01*
X89112Y-68822D01*
X89131Y-68841D01*
X89168Y-68860D01*
X89318Y-68860D01*
X89318Y-68466D01*
X89187Y-68466D01*
X89149Y-68485D01*
X89131Y-68503D01*
X89112Y-68541D01*
X89112Y-68578D01*
X89131Y-68616D01*
X89149Y-68635D01*
X89187Y-68653D01*
X89318Y-68653D01*
X88981Y-68466D02*
X88756Y-68466D01*
X88868Y-68860D02*
X88868Y-68466D01*
X88418Y-68860D02*
X88643Y-68860D01*
X88531Y-68860D02*
X88531Y-68466D01*
X88568Y-68522D01*
X88606Y-68560D01*
X88643Y-68578D01*
G54D23*
X100239Y-38690D02*
X100239Y-38945D01*
X100224Y-38975D01*
X100209Y-38990D01*
X100179Y-39005D01*
X100119Y-39005D01*
X100089Y-38990D01*
X100074Y-38975D01*
X100059Y-38945D01*
X100059Y-38690D01*
X99760Y-38690D02*
X99910Y-38690D01*
X99925Y-38840D01*
X99910Y-38825D01*
X99880Y-38810D01*
X99805Y-38810D01*
X99775Y-38825D01*
X99760Y-38840D01*
X99745Y-38870D01*
X99745Y-38945D01*
X99760Y-38975D01*
X99775Y-38990D01*
X99805Y-39005D01*
X99880Y-39005D01*
X99910Y-38990D01*
X99925Y-38975D01*
X102802Y-40926D02*
X102802Y-41085D01*
X102812Y-41104D01*
X102821Y-41113D01*
X102840Y-41122D01*
X102877Y-41122D01*
X102896Y-41113D01*
X102905Y-41104D01*
X102915Y-41085D01*
X102915Y-40926D01*
X103112Y-41122D02*
X102999Y-41122D01*
X103055Y-41122D02*
X103055Y-40926D01*
X103037Y-40954D01*
X103018Y-40973D01*
X102999Y-40982D01*
M02*
