G04 (created by PCBNEW (2013-07-07 BZR 4022)-stable) date 26/10/2014 07:43:32 a.m.*
%MOIN*%
G04 Gerber Fmt 3.4, Leading zero omitted, Abs format*
%FSLAX34Y34*%
G01*
G70*
G90*
G04 APERTURE LIST*
%ADD10C,0.00590551*%
%ADD11C,0.0035*%
G04 APERTURE END LIST*
G54D10*
G54D11*
X79979Y-37252D02*
X79979Y-37657D01*
X80002Y-37704D01*
X80026Y-37728D01*
X80074Y-37752D01*
X80169Y-37752D01*
X80217Y-37728D01*
X80240Y-37704D01*
X80264Y-37657D01*
X80264Y-37252D01*
X80526Y-37752D02*
X80621Y-37752D01*
X80669Y-37728D01*
X80693Y-37704D01*
X80740Y-37633D01*
X80764Y-37538D01*
X80764Y-37347D01*
X80740Y-37300D01*
X80717Y-37276D01*
X80669Y-37252D01*
X80574Y-37252D01*
X80526Y-37276D01*
X80502Y-37300D01*
X80479Y-37347D01*
X80479Y-37466D01*
X80502Y-37514D01*
X80526Y-37538D01*
X80574Y-37561D01*
X80669Y-37561D01*
X80717Y-37538D01*
X80740Y-37514D01*
X80764Y-37466D01*
X102819Y-41912D02*
X102819Y-42317D01*
X102842Y-42364D01*
X102866Y-42388D01*
X102914Y-42412D01*
X103009Y-42412D01*
X103057Y-42388D01*
X103080Y-42364D01*
X103104Y-42317D01*
X103104Y-41912D01*
X103604Y-42412D02*
X103319Y-42412D01*
X103461Y-42412D02*
X103461Y-41912D01*
X103414Y-41983D01*
X103366Y-42031D01*
X103319Y-42055D01*
X98239Y-43727D02*
X98239Y-44131D01*
X98262Y-44179D01*
X98286Y-44203D01*
X98334Y-44227D01*
X98429Y-44227D01*
X98477Y-44203D01*
X98501Y-44179D01*
X98524Y-44131D01*
X98524Y-43727D01*
X99001Y-43727D02*
X98762Y-43727D01*
X98739Y-43965D01*
X98762Y-43941D01*
X98810Y-43917D01*
X98929Y-43917D01*
X98977Y-43941D01*
X99001Y-43965D01*
X99024Y-44012D01*
X99024Y-44131D01*
X99001Y-44179D01*
X98977Y-44203D01*
X98929Y-44227D01*
X98810Y-44227D01*
X98762Y-44203D01*
X98739Y-44179D01*
M02*
