M48
;DRILL file {Pcbnew (2013-07-07 BZR 4022)-stable} date 25/09/2015 08:53:59 p.m.
;FORMAT={-:-/ absolute / metric / decimal}
FMAT,2
METRIC,TZ
T1C0.406
T2C0.650
T3C0.825
T4C1.000
T5C1.016
T6C1.524
T7C1.600
T8C2.000
T9C4.000
%
G90
G05
M71
T1
X187.Y-119.
X187.Y-121.
X187.Y-123.
X187.Y-125.
X187.315Y-88.077
X188.Y-126.
X189.Y-123.
X190.Y-126.
X191.Y-123.
X191.953Y-86.766
X192.Y-126.
X192.446Y-95.595
X193.Y-123.
X193.Y-125.
X194.295Y-200.833
X194.488Y-83.642
X195.102Y-84.76
X195.433Y-158.288
X195.786Y-116.091
X196.454Y-158.288
X197.47Y-158.283
X198.211Y-94.991
X198.211Y-100.741
X198.496Y-158.262
X199.146Y-113.868
X199.156Y-111.572
X199.639Y-158.247
X199.761Y-84.201
X199.771Y-104.191
X200.508Y-119.278
X200.523Y-184.749
X200.812Y-158.262
X201.244Y-136.591
X201.336Y-127.406
X202.123Y-160.061
X202.184Y-143.678
X202.55Y-84.988
X202.565Y-131.933
X203.083Y-111.714
X203.327Y-123.886
X203.662Y-156.942
X203.688Y-126.06
X203.855Y-136.235
X204.414Y-157.841
X204.419Y-174.168
X204.516Y-107.615
X204.561Y-88.433
X204.648Y-109.667
X204.658Y-143.073
X204.658Y-145.969
X204.79Y-121.173
X205.359Y-85.918
X205.664Y-139.791
X205.877Y-110.114
X205.903Y-144.094
X206.68Y-168.412
X206.731Y-141.041
X206.771Y-116.931
X207.198Y-143.881
X207.35Y-167.635
X207.559Y-117.699
X207.828Y-151.912
X207.929Y-168.991
X207.99Y-166.842
X208.366Y-118.542
X208.437Y-165.918
X208.448Y-129.723
X208.448Y-131.674
X208.478Y-133.162
X208.62Y-136.454
X208.879Y-150.901
X209.184Y-119.268
X209.296Y-110.16
X209.763Y-168.976
X209.834Y-149.682
X209.885Y-112.685
X210.114Y-162.509
X210.52Y-150.444
X210.688Y-196.743
X210.845Y-113.121
X210.975Y-164.45
X211.618Y-139.639
X211.663Y-165.959
X211.968Y-151.496
X212.065Y-113.157
X212.456Y-115.875
X212.791Y-132.674
X212.898Y-111.73
X213.045Y-138.76
X213.096Y-90.449
X213.324Y-168.981
X213.736Y-131.841
X214.544Y-188.366
X214.681Y-103.048
X214.732Y-183.683
X215.478Y-90.551
X215.616Y-111.765
X216.169Y-80.457
X216.22Y-162.611
X216.22Y-168.519
X216.276Y-100.853
X216.53Y-143.713
X216.56Y-116.662
X216.637Y-82.26
X216.784Y-129.56
X217.82Y-144.191
X218.029Y-139.853
X218.537Y-96.637
X218.78Y-138.938
X219.588Y-97.673
X219.786Y-140.452
X220.111Y-159.542
X220.279Y-152.857
X220.487Y-98.522
X220.523Y-137.922
X220.69Y-139.522
X220.731Y-132.283
X220.868Y-183.606
X221.458Y-136.52
X221.503Y-81.219
X221.59Y-89.306
X222.347Y-135.6
X222.91Y-92.994
X223.139Y-110.134
X223.139Y-134.645
X223.266Y-106.665
X223.5Y-196.1
X223.571Y-83.439
X223.84Y-187.035
X223.86Y-135.473
X224.053Y-136.484
X224.099Y-102.326
X224.104Y-120.482
X224.272Y-137.495
X224.521Y-149.723
X224.942Y-95.214
X225.461Y-102.459
X225.625Y-158.2
X225.821Y-136.555
X226.05Y-114.833
X226.797Y-143.952
X226.802Y-126.045
X226.873Y-77.617
X227.015Y-177.8
X227.254Y-111.125
X227.406Y-106.655
X227.421Y-136.327
X227.457Y-81.61
X227.813Y-141.427
X228.199Y-134.269
X228.295Y-137.16
X228.316Y-153.726
X228.463Y-93.442
X228.61Y-145.918
X228.61Y-150.216
X228.681Y-140.873
X228.793Y-107.986
X229.133Y-157.851
X229.418Y-102.484
X229.692Y-130.983
X229.753Y-135.204
X230.149Y-139.624
X230.464Y-146.314
X230.5Y-149.159
X230.932Y-159.36
X231.557Y-146.304
X231.607Y-147.381
X231.628Y-102.392
X231.673Y-150.084
X231.704Y-133.015
X231.795Y-135.219
X231.8Y-86.385
X231.953Y-89.941
X232.054Y-128.184
X232.247Y-136.2
X232.35Y-121.
X232.38Y-141.717
X232.44Y-148.036
X232.857Y-137.033
X232.898Y-150.007
X233.401Y-141.747
X233.477Y-134.808
X233.594Y-142.758
X233.604Y-115.926
X233.604Y-137.754
X233.807Y-103.937
X233.934Y-112.776
X234.798Y-138.831
X235.Y-196.5
X235.443Y-122.809
X235.483Y-132.05
X235.61Y-100.813
X235.793Y-137.846
X235.941Y-99.248
X236.195Y-80.874
X236.362Y-133.172
X237.048Y-158.1
X237.18Y-102.072
X237.754Y-140.447
X237.896Y-124.13
X238.12Y-158.145
X238.227Y-105.09
X238.364Y-143.794
X238.582Y-127.046
X238.877Y-150.017
X238.933Y-140.599
X239.507Y-143.525
X240.157Y-159.939
X240.284Y-76.779
X240.284Y-127.98
X240.457Y-125.405
X240.528Y-155.336
X241.Y-160.706
X241.783Y-161.473
X242.648Y-127.536
X242.931Y-152.766
X243.942Y-140.873
X244.17Y-144.45
X244.521Y-111.841
X244.566Y-92.857
X244.81Y-152.161
X245.Y-175.
X245.537Y-99.858
X245.588Y-152.878
X245.897Y-185.801
X246.162Y-148.539
X246.5Y-196.2
X246.558Y-153.284
X247.091Y-141.376
X248.056Y-129.54
X248.122Y-123.855
X248.26Y-138.394
X249.895Y-136.281
X250.363Y-122.077
X250.652Y-137.069
X251.125Y-118.379
X251.348Y-205.918
X251.851Y-110.769
X251.866Y-137.414
X252.131Y-151.602
X252.298Y-119.294
X252.552Y-146.126
X252.755Y-156.134
X252.832Y-153.619
X252.857Y-158.476
X252.994Y-125.446
X253.99Y-135.59
X254.843Y-136.652
X255.448Y-100.686
X256.362Y-127.94
X256.413Y-121.046
X256.657Y-141.94
X256.708Y-135.626
X257.155Y-143.718
X257.937Y-127.218
X258.445Y-77.282
X258.628Y-189.037
X258.694Y-138.725
X259.126Y-135.423
X261.127Y-113.995
X265.455Y-101.752
T4
X187.322Y-88.13
X187.322Y-90.67
T5
X189.23Y-138.29
X189.23Y-140.83
X189.23Y-143.37
X189.23Y-145.91
X189.23Y-148.45
X189.23Y-150.99
X189.23Y-153.53
X189.23Y-156.07
X189.23Y-158.61
X189.23Y-161.15
X189.23Y-163.69
X189.23Y-166.23
X189.23Y-168.77
X189.23Y-171.31
X189.23Y-173.85
X189.23Y-176.39
X189.23Y-178.93
X189.23Y-181.47
X189.23Y-184.01
X189.23Y-186.55
X191.77Y-138.29
X191.77Y-140.83
X191.77Y-143.37
X191.77Y-145.91
X191.77Y-148.45
X191.77Y-150.99
X191.77Y-153.53
X191.77Y-156.07
X191.77Y-158.61
X191.77Y-161.15
X191.77Y-163.69
X191.77Y-166.23
X191.77Y-168.77
X191.77Y-171.31
X191.77Y-173.85
X191.77Y-176.39
X191.77Y-178.93
X191.77Y-181.47
X191.77Y-184.01
X191.77Y-186.55
X204.5Y-199.1
X204.5Y-205.6
X209.Y-199.1
X209.Y-205.6
X216.Y-199.1
X216.Y-205.6
X220.5Y-199.1
X220.5Y-205.6
X227.5Y-199.1
X227.5Y-205.6
X232.Y-199.1
X232.Y-205.6
X239.Y-199.1
X239.Y-205.6
X243.5Y-199.1
X243.5Y-205.6
X258.4Y-117.6
X258.4Y-124.1
X260.35Y-138.29
X260.35Y-140.83
X260.35Y-143.37
X260.35Y-145.91
X260.35Y-148.45
X260.35Y-150.99
X260.35Y-153.53
X260.35Y-156.07
X260.35Y-158.61
X260.35Y-161.15
X260.35Y-163.69
X260.35Y-166.23
X260.35Y-168.77
X260.35Y-171.31
X260.35Y-173.85
X260.35Y-176.39
X260.35Y-178.93
X260.35Y-181.47
X260.35Y-184.01
X260.35Y-186.55
X262.89Y-138.29
X262.89Y-140.83
X262.89Y-143.37
X262.89Y-145.91
X262.89Y-148.45
X262.89Y-150.99
X262.89Y-153.53
X262.89Y-156.07
X262.89Y-158.61
X262.89Y-161.15
X262.89Y-163.69
X262.89Y-166.23
X262.89Y-168.77
X262.89Y-171.31
X262.89Y-173.85
X262.89Y-176.39
X262.89Y-178.93
X262.89Y-181.47
X262.89Y-184.01
X262.89Y-186.55
X262.9Y-117.6
X262.9Y-124.1
T6
X245.17Y-81.3
X250.25Y-81.3
X255.33Y-81.3
T7
X263.7Y-88.
T8
X231.384Y-172.334
X252.984Y-172.334
T9
X187.3Y-79.7
X187.3Y-207.1
X263.7Y-79.7
X263.7Y-207.1
T2
X195.125Y-80.445G85X195.125Y-80.245
G05
X199.575Y-80.445G85X199.575Y-80.245
G05
X207.785Y-80.435G85X207.785Y-80.235
G05
X212.235Y-80.435G85X212.235Y-80.235
G05
T3
X193.175Y-77.557G85X193.175Y-76.882
G05
X201.525Y-77.557G85X201.525Y-76.882
G05
X205.835Y-77.547G85X205.835Y-76.873
G05
X214.185Y-77.547G85X214.185Y-76.873
G05
T0
M30
