M48
;DRILL file {Pcbnew (2013-07-07 BZR 4022)-stable} date 17/07/2014 08:11:02 a.m.
;FORMAT={-:-/ absolute / metric / decimal}
FMAT,2
METRIC,TZ
T1C0.254
T2C0.650
T3C0.825
T4C1.016
T5C1.524
T6C2.000
T7C4.000
%
G90
G05
M71
T1
X190.55Y-91.7
X193.3Y-109.
X193.5Y-201.7
X193.75Y-88.2
X195.71Y-81.62
X195.8Y-188.6
X195.9Y-89.9
X197.05Y-85.6
X198.1Y-188.65
X198.3Y-85.65
X199.1Y-188.65
X199.725Y-108.85
X200.05Y-92.15
X200.1Y-112.175
X200.2Y-188.65
X201.15Y-97.8
X201.2Y-188.65
X202.Y-94.8
X202.4Y-151.
X202.611Y-167.8
X203.Y-127.
X203.6Y-149.8
X204.5Y-148.5
X204.8Y-129.8
X205.3Y-87.45
X205.4Y-137.5
X205.9Y-147.2
X206.8Y-130.55
X206.8Y-167.8
X207.1Y-145.9
X208.2Y-144.7
X208.99Y-82.07
X209.15Y-102.75
X209.4Y-100.6
X210.8Y-167.9
X210.9Y-196.4
X211.1Y-102.2
X211.8Y-122.392
X211.95Y-101.2
X212.312Y-110.712
X212.7Y-111.6
X212.9Y-117.2
X212.95Y-101.65
X213.11Y-133.65
X213.2Y-112.7
X213.7Y-86.35
X214.05Y-93.5
X214.2Y-118.2
X214.31Y-137.07
X214.5Y-188.8
X214.7Y-94.55
X214.7Y-119.825
X214.9Y-117.3
X215.225Y-126.975
X215.3Y-111.
X215.3Y-116.1
X215.325Y-139.25
X215.375Y-128.225
X215.6Y-96.8
X215.72Y-123.22
X215.9Y-125.625
X216.05Y-100.05
X216.15Y-94.75
X216.412Y-121.562
X216.45Y-140.25
X216.8Y-101.55
X217.1Y-134.38
X217.55Y-100.85
X217.7Y-162.1
X218.41Y-135.43
X218.675Y-130.95
X218.7Y-122.45
X218.84Y-141.81
X219.27Y-95.17
X219.825Y-137.4
X220.12Y-120.98
X220.125Y-123.725
X220.275Y-130.6
X221.025Y-136.7
X221.175Y-134.375
X221.31Y-120.87
X221.5Y-97.7
X221.9Y-103.3
X222.66Y-137.01
X222.675Y-130.925
X222.7Y-91.05
X222.79Y-121.74
X222.9Y-79.4
X223.5Y-196.1
X223.575Y-107.825
X223.81Y-150.61
X223.9Y-129.65
X224.6Y-128.9
X224.88Y-142.44
X225.1Y-117.1
X225.2Y-128.2
X225.55Y-153.7
X225.7Y-142.9
X225.9Y-127.6
X226.11Y-111.41
X226.2Y-112.4
X226.7Y-129.4
X227.03Y-84.12
X227.1Y-155.3
X227.4Y-128.
X227.41Y-102.77
X227.81Y-98.95
X228.Y-112.41
X228.Y-118.2
X228.41Y-111.31
X228.5Y-125.1
X228.9Y-156.4
X229.Y-87.5
X229.05Y-98.9
X229.5Y-132.7
X229.7Y-123.9
X229.9Y-157.4
X230.2Y-122.25
X230.2Y-124.8
X230.28Y-95.33
X230.4Y-127.1
X230.5Y-133.2
X230.55Y-158.05
X230.825Y-124.175
X231.Y-98.6
X231.1Y-102.65
X231.3Y-123.475
X231.65Y-159.15
X232.Y-98.
X232.24Y-136.82
X232.33Y-114.875
X232.35Y-159.85
X232.58Y-135.05
X232.75Y-97.175
X232.89Y-119.13
X232.9Y-147.6
X233.06Y-136.02
X233.075Y-160.525
X233.2Y-98.05
X233.35Y-102.775
X233.75Y-161.25
X233.9Y-148.5
X234.4Y-121.2
X234.45Y-161.95
X234.95Y-91.2
X235.Y-196.5
X235.275Y-162.725
X235.45Y-95.
X235.7Y-122.
X235.7Y-139.1
X235.8Y-171.5
X235.875Y-138.175
X236.1Y-186.8
X236.6Y-123.3
X236.6Y-143.7
X237.Y-201.25
X237.1Y-88.8
X237.3Y-143.
X237.6Y-122.6
X238.025Y-100.275
X238.09Y-142.21
X238.5Y-122.8
X238.62Y-141.37
X238.7Y-132.3
X238.819Y-119.999
X240.05Y-131.975
X240.2Y-132.8
X240.59Y-102.92
X241.49Y-84.16
X241.5Y-92.7
X242.775Y-112.425
X242.8Y-110.4
X243.55Y-120.775
X243.71Y-132.32
X244.175Y-106.575
X244.4Y-121.275
X244.8Y-190.3
X245.1Y-125.9
X245.45Y-124.875
X246.5Y-196.2
X246.65Y-124.15
X246.652Y-132.32
X250.6Y-156.
X250.8Y-157.6
X251.9Y-91.8
X252.6Y-132.38
X255.225Y-105.05
X255.425Y-109.15
X256.24Y-120.95
X258.34Y-112.49
X258.4Y-190.3
X259.93Y-112.48
X261.65Y-103.525
X263.Y-84.2
X266.1Y-145.3
T4
X189.23Y-138.29
X189.23Y-140.83
X189.23Y-143.37
X189.23Y-145.91
X189.23Y-148.45
X189.23Y-150.99
X189.23Y-153.53
X189.23Y-156.07
X189.23Y-158.61
X189.23Y-161.15
X189.23Y-163.69
X189.23Y-166.23
X189.23Y-168.77
X189.23Y-171.31
X189.23Y-173.85
X189.23Y-176.39
X189.23Y-178.93
X189.23Y-181.47
X189.23Y-184.01
X189.23Y-186.55
X191.77Y-138.29
X191.77Y-140.83
X191.77Y-143.37
X191.77Y-145.91
X191.77Y-148.45
X191.77Y-150.99
X191.77Y-153.53
X191.77Y-156.07
X191.77Y-158.61
X191.77Y-161.15
X191.77Y-163.69
X191.77Y-166.23
X191.77Y-168.77
X191.77Y-171.31
X191.77Y-173.85
X191.77Y-176.39
X191.77Y-178.93
X191.77Y-181.47
X191.77Y-184.01
X191.77Y-186.55
X204.5Y-199.1
X204.5Y-205.6
X209.Y-199.1
X209.Y-205.6
X216.Y-199.1
X216.Y-205.6
X220.5Y-199.1
X220.5Y-205.6
X227.5Y-199.1
X227.5Y-205.6
X232.Y-199.1
X232.Y-205.6
X239.Y-199.1
X239.Y-205.6
X243.5Y-199.1
X243.5Y-205.6
X258.4Y-117.6
X258.4Y-124.1
X260.35Y-138.29
X260.35Y-140.83
X260.35Y-143.37
X260.35Y-145.91
X260.35Y-148.45
X260.35Y-150.99
X260.35Y-153.53
X260.35Y-156.07
X260.35Y-158.61
X260.35Y-161.15
X260.35Y-163.69
X260.35Y-166.23
X260.35Y-168.77
X260.35Y-171.31
X260.35Y-173.85
X260.35Y-176.39
X260.35Y-178.93
X260.35Y-181.47
X260.35Y-184.01
X260.35Y-186.55
X262.89Y-138.29
X262.89Y-140.83
X262.89Y-143.37
X262.89Y-145.91
X262.89Y-148.45
X262.89Y-150.99
X262.89Y-153.53
X262.89Y-156.07
X262.89Y-158.61
X262.89Y-161.15
X262.89Y-163.69
X262.89Y-166.23
X262.89Y-168.77
X262.89Y-171.31
X262.89Y-173.85
X262.89Y-176.39
X262.89Y-178.93
X262.89Y-181.47
X262.89Y-184.01
X262.89Y-186.55
X262.9Y-117.6
X262.9Y-124.1
T5
X245.17Y-81.3
X250.25Y-81.3
X255.33Y-81.3
T6
X224.4Y-183.3
X246.Y-183.3
T7
X187.3Y-79.65
X187.3Y-207.15
X263.7Y-79.65
X263.7Y-207.15
T2
X195.125Y-80.445G85X195.125Y-80.245
G05
X199.575Y-80.445G85X199.575Y-80.245
G05
X207.785Y-80.435G85X207.785Y-80.235
G05
X212.235Y-80.435G85X212.235Y-80.235
G05
T3
X193.175Y-77.557G85X193.175Y-76.882
G05
X201.525Y-77.557G85X201.525Y-76.882
G05
X205.835Y-77.547G85X205.835Y-76.873
G05
X214.185Y-77.547G85X214.185Y-76.873
G05
T0
M30
