G04 (created by PCBNEW (2013-07-07 BZR 4022)-stable) date Mon 16 Feb 2015 05:06:00 PM ART*
%MOIN*%
G04 Gerber Fmt 3.4, Leading zero omitted, Abs format*
%FSLAX34Y34*%
G01*
G70*
G90*
G04 APERTURE LIST*
%ADD10C,0.00590551*%
%ADD11R,0.0964X0.0964*%
%ADD12O,0.0078X0.0295*%
%ADD13O,0.0295X0.0078*%
%ADD14R,0.013X0.048*%
%ADD15R,0.0145X0.0559*%
%ADD16R,0.061X0.015*%
%ADD17R,0.0157165X0.0157165*%
%ADD18R,0.0217X0.0335*%
%ADD19R,0.142X0.078*%
%ADD20R,0.038X0.078*%
%ADD21R,0.0452X0.0374*%
%ADD22R,0.0295X0.0374*%
%ADD23R,0.0511X0.0236*%
%ADD24R,0.048X0.098*%
%ADD25R,0.043X0.023*%
%ADD26R,0.023X0.043*%
%ADD27R,0.0806772X0.0531181*%
%ADD28R,0.0571X0.008*%
%ADD29R,0.008X0.0571*%
%ADD30R,0.0294X0.0294*%
%ADD31R,0.048X0.036*%
%ADD32R,0.036X0.048*%
%ADD33R,0.0452441X0.0531181*%
%ADD34R,0.0334X0.0374*%
%ADD35R,0.0374X0.0334*%
%ADD36R,0.0649291X0.0570551*%
%ADD37R,0.0846X0.0216*%
%ADD38R,0.0374X0.0256*%
%ADD39R,0.0256X0.0374*%
%ADD40R,0.0295X0.036*%
%ADD41R,0.0216X0.0846*%
%ADD42R,0.057X0.0373*%
%ADD43R,0.0767X0.0373*%
%ADD44R,0.1436X0.0846*%
%ADD45O,0.057X0.0373*%
%ADD46R,0.0373X0.0531*%
%ADD47R,0.0924882X0.0275276*%
%ADD48R,0.0924882X0.0271339*%
%ADD49R,0.0511X0.0137*%
%ADD50R,0.0571X0.0807*%
%ADD51R,0.0728X0.0925*%
%ADD52R,0.0728X0.0689*%
%ADD53R,0.069X0.061*%
%ADD54R,0.061X0.069*%
%ADD55R,0.0570551X0.123984*%
%ADD56R,0.0925X0.1555*%
%ADD57R,0.0688X0.0846*%
%ADD58R,0.0846X0.0688*%
%ADD59R,0.078X0.058*%
%ADD60R,0.148X0.078*%
%ADD61R,0.053X0.078*%
%ADD62R,0.1358X0.0925*%
%ADD63R,0.135795X0.399575*%
%ADD64R,0.123984X0.0570551*%
%ADD65R,0.0924X0.0924*%
G04 APERTURE END LIST*
G54D10*
G54D11*
X18237Y-22350D03*
G54D12*
X17745Y-23137D03*
X17942Y-23137D03*
X18139Y-23137D03*
X18335Y-23137D03*
X18532Y-23137D03*
X18729Y-23137D03*
G54D13*
X19024Y-22842D03*
X19024Y-22645D03*
X19024Y-22448D03*
X19024Y-22252D03*
X19024Y-22055D03*
X19024Y-21858D03*
G54D12*
X18729Y-21563D03*
X18532Y-21563D03*
X18335Y-21563D03*
X18139Y-21563D03*
X17942Y-21563D03*
X17745Y-21563D03*
G54D13*
X17450Y-21858D03*
X17450Y-22055D03*
X17450Y-22252D03*
X17450Y-22448D03*
X17450Y-22645D03*
X17450Y-22842D03*
G54D14*
X18283Y-15148D03*
X18027Y-15148D03*
X17771Y-15148D03*
X17515Y-15148D03*
X17259Y-15148D03*
X17003Y-15148D03*
X16747Y-15148D03*
X16491Y-15148D03*
X16491Y-17352D03*
X16747Y-17352D03*
X17003Y-17352D03*
X17259Y-17352D03*
X17515Y-17352D03*
X17771Y-17352D03*
X18027Y-17352D03*
X18283Y-17352D03*
G54D15*
X43265Y-17948D03*
X43009Y-17948D03*
X42753Y-17948D03*
X42497Y-17948D03*
X44029Y-20150D03*
X44033Y-17948D03*
X43777Y-17948D03*
X43521Y-17948D03*
X42241Y-20152D03*
X42497Y-20152D03*
X42753Y-20152D03*
X43009Y-20152D03*
X43265Y-20152D03*
X43521Y-20152D03*
X42241Y-17948D03*
X43777Y-20150D03*
X44289Y-17948D03*
X41985Y-17948D03*
X41985Y-20152D03*
X44289Y-20152D03*
G54D16*
X20982Y-10257D03*
X20982Y-10572D03*
X20982Y-10887D03*
X20982Y-11202D03*
X20982Y-11517D03*
X20982Y-11832D03*
X20982Y-12147D03*
X20982Y-12462D03*
X20982Y-12777D03*
X20982Y-13092D03*
X20982Y-13407D03*
X20982Y-13722D03*
X20982Y-14037D03*
X20982Y-14350D03*
X20982Y-14665D03*
X20982Y-14980D03*
X20982Y-15295D03*
X20982Y-15610D03*
X20982Y-15925D03*
X20982Y-16240D03*
X20982Y-16555D03*
X20982Y-16870D03*
X20982Y-17185D03*
X20982Y-17500D03*
X20982Y-17815D03*
X20982Y-18130D03*
X20982Y-18445D03*
X25390Y-18445D03*
X25390Y-18130D03*
X25390Y-17815D03*
X25390Y-17500D03*
X25390Y-17185D03*
X25390Y-16870D03*
X25390Y-16555D03*
X25390Y-16240D03*
X25390Y-15925D03*
X25390Y-15610D03*
X25390Y-15295D03*
X25390Y-14980D03*
X25390Y-14665D03*
X25390Y-14350D03*
X25390Y-14037D03*
X25390Y-13722D03*
X25390Y-13407D03*
X25390Y-13092D03*
X25390Y-12777D03*
X25390Y-12462D03*
X25390Y-12147D03*
X25390Y-11832D03*
X25390Y-11517D03*
X25390Y-11202D03*
X25390Y-10887D03*
X25390Y-10572D03*
X25390Y-10257D03*
G54D17*
X39687Y-21600D03*
X39057Y-21600D03*
X39057Y-21934D03*
X39687Y-21934D03*
G54D18*
X14764Y-18032D03*
X15512Y-18032D03*
X15137Y-16970D03*
G54D19*
X52087Y-18200D03*
G54D20*
X52087Y-20800D03*
X52987Y-20800D03*
X51187Y-20800D03*
G54D21*
X40052Y-17628D03*
G54D22*
X39363Y-18572D03*
X39363Y-17628D03*
X40111Y-18572D03*
G54D23*
X57609Y-23100D03*
X56665Y-23100D03*
X55409Y-18200D03*
X54465Y-18200D03*
X55409Y-17300D03*
X54465Y-17300D03*
G54D24*
X50500Y-12800D03*
X51700Y-12800D03*
X50550Y-11200D03*
X51750Y-11200D03*
G54D25*
X45950Y-10750D03*
X45950Y-11350D03*
G54D26*
X22037Y-20900D03*
X21437Y-20900D03*
G54D25*
X45050Y-10000D03*
X45050Y-9400D03*
G54D26*
X19637Y-24200D03*
X19037Y-24200D03*
G54D25*
X46137Y-13900D03*
X46137Y-13300D03*
X53550Y-27650D03*
X53550Y-28250D03*
G54D26*
X20087Y-20900D03*
X19487Y-20900D03*
G54D25*
X45950Y-10000D03*
X45950Y-9400D03*
X47150Y-13900D03*
X47150Y-13300D03*
G54D26*
X29200Y-11900D03*
X29800Y-11900D03*
G54D25*
X43937Y-15000D03*
X43937Y-14400D03*
X52050Y-27650D03*
X52050Y-28250D03*
X13500Y-21300D03*
X13500Y-20700D03*
X54437Y-28200D03*
X54437Y-28800D03*
X43237Y-14400D03*
X43237Y-15000D03*
G54D26*
X42137Y-15800D03*
X42737Y-15800D03*
G54D25*
X52800Y-27650D03*
X52800Y-28250D03*
X16837Y-18900D03*
X16837Y-19500D03*
G54D26*
X40237Y-27700D03*
X40837Y-27700D03*
X40200Y-25400D03*
X40800Y-25400D03*
X40237Y-26900D03*
X40837Y-26900D03*
X40237Y-26100D03*
X40837Y-26100D03*
G54D25*
X17937Y-10000D03*
X17937Y-9400D03*
G54D26*
X38750Y-14800D03*
X39350Y-14800D03*
G54D25*
X42137Y-16500D03*
X42137Y-17100D03*
X42937Y-16500D03*
X42937Y-17100D03*
X40737Y-19800D03*
X40737Y-20400D03*
X41437Y-19800D03*
X41437Y-20400D03*
X54037Y-20000D03*
X54037Y-19400D03*
G54D26*
X22037Y-21600D03*
X21437Y-21600D03*
G54D25*
X36937Y-19650D03*
X36937Y-20250D03*
G54D26*
X39437Y-16950D03*
X40037Y-16950D03*
X38750Y-15500D03*
X39350Y-15500D03*
X38537Y-22200D03*
X37937Y-22200D03*
G54D25*
X15637Y-9600D03*
X15637Y-10200D03*
G54D26*
X18537Y-10700D03*
X17937Y-10700D03*
X23337Y-9450D03*
X23937Y-9450D03*
G54D25*
X16037Y-23900D03*
X16037Y-24500D03*
G54D26*
X20087Y-19350D03*
X19487Y-19350D03*
G54D25*
X17237Y-20100D03*
X17237Y-20700D03*
G54D26*
X20087Y-20050D03*
X19487Y-20050D03*
X19737Y-9350D03*
X20337Y-9350D03*
G54D25*
X56937Y-16100D03*
X56937Y-15500D03*
X56237Y-17600D03*
X56237Y-18200D03*
X17137Y-9600D03*
X17137Y-10200D03*
G54D26*
X26837Y-9300D03*
X26237Y-9300D03*
G54D25*
X56937Y-20700D03*
X56937Y-20100D03*
G54D26*
X11600Y-12500D03*
X11000Y-12500D03*
X15937Y-15500D03*
X15337Y-15500D03*
G54D25*
X55837Y-22400D03*
X55837Y-23000D03*
G54D26*
X11600Y-13200D03*
X11000Y-13200D03*
X15937Y-16300D03*
X15337Y-16300D03*
G54D25*
X56937Y-13300D03*
X56937Y-13900D03*
G54D26*
X49537Y-16000D03*
X50137Y-16000D03*
G54D25*
X56837Y-10900D03*
X56837Y-11500D03*
G54D26*
X20037Y-10150D03*
X19437Y-10150D03*
G54D25*
X43837Y-15900D03*
X43837Y-16500D03*
G54D26*
X22737Y-9450D03*
X22137Y-9450D03*
G54D27*
X39037Y-26400D03*
X39037Y-27896D03*
X35454Y-27896D03*
X35454Y-26400D03*
G54D28*
X36053Y-22244D03*
X36053Y-22048D03*
X36053Y-21851D03*
X36053Y-21654D03*
X36053Y-21457D03*
X36053Y-21260D03*
X36053Y-21063D03*
X36053Y-20866D03*
X36053Y-20670D03*
X36053Y-20473D03*
X36053Y-20276D03*
X36053Y-20079D03*
X36053Y-19882D03*
X36053Y-19685D03*
X36053Y-19488D03*
X36053Y-19292D03*
X36053Y-19095D03*
X36053Y-18898D03*
X36053Y-18702D03*
X36053Y-18505D03*
X36053Y-18308D03*
X36053Y-18112D03*
X36053Y-17915D03*
X36053Y-17718D03*
X36053Y-17521D03*
X36053Y-17324D03*
X36053Y-17127D03*
X36053Y-16930D03*
X36053Y-16734D03*
X36053Y-16537D03*
X36053Y-16340D03*
X36053Y-16143D03*
X36053Y-15946D03*
X36053Y-15749D03*
X36053Y-15552D03*
X36053Y-15356D03*
G54D29*
X35265Y-14568D03*
X35069Y-14568D03*
X34872Y-14568D03*
X34675Y-14568D03*
X34478Y-14568D03*
X34281Y-14568D03*
X34084Y-14568D03*
X33887Y-14568D03*
X33691Y-14568D03*
X33494Y-14568D03*
X33297Y-14568D03*
X33100Y-14568D03*
X32903Y-14568D03*
X32706Y-14568D03*
X32509Y-14568D03*
X32313Y-14568D03*
X32116Y-14568D03*
X31919Y-14568D03*
X31723Y-14568D03*
X31526Y-14568D03*
X31329Y-14568D03*
X31133Y-14568D03*
X30936Y-14568D03*
X30739Y-14568D03*
X30542Y-14568D03*
X30345Y-14568D03*
X30148Y-14568D03*
X29951Y-14568D03*
X29755Y-14568D03*
X29558Y-14568D03*
X29361Y-14568D03*
X29164Y-14568D03*
X28967Y-14568D03*
X28770Y-14568D03*
X28573Y-14568D03*
X28377Y-14568D03*
G54D28*
X27589Y-15356D03*
X27589Y-15552D03*
X27589Y-15749D03*
X27589Y-15946D03*
X27589Y-16143D03*
X27589Y-16340D03*
X27589Y-16537D03*
X27589Y-16734D03*
X27589Y-16930D03*
X27589Y-17127D03*
X27589Y-17324D03*
X27589Y-17521D03*
X27589Y-17718D03*
X27589Y-17915D03*
X27589Y-18112D03*
X27589Y-18308D03*
X27589Y-18505D03*
X27589Y-18702D03*
X27589Y-18898D03*
X27589Y-19095D03*
X27589Y-19292D03*
X27589Y-19488D03*
X27589Y-19685D03*
X27589Y-19882D03*
X27589Y-20079D03*
X27589Y-20276D03*
X27589Y-20473D03*
X27589Y-20670D03*
X27589Y-20866D03*
X27589Y-21063D03*
X27589Y-21260D03*
X27589Y-21457D03*
X27589Y-21654D03*
X27589Y-21851D03*
X27589Y-22048D03*
X27589Y-22244D03*
G54D29*
X28377Y-23032D03*
X28573Y-23032D03*
X28770Y-23032D03*
X28967Y-23032D03*
X29164Y-23032D03*
X29361Y-23032D03*
X29558Y-23032D03*
X29755Y-23032D03*
X29951Y-23032D03*
X30148Y-23032D03*
X30345Y-23032D03*
X30542Y-23032D03*
X30739Y-23032D03*
X30936Y-23032D03*
X31133Y-23032D03*
X31329Y-23032D03*
X31526Y-23032D03*
X31723Y-23032D03*
X31919Y-23032D03*
X32116Y-23032D03*
X32313Y-23032D03*
X32509Y-23032D03*
X32706Y-23032D03*
X32903Y-23032D03*
X33100Y-23032D03*
X33297Y-23032D03*
X33494Y-23032D03*
X33691Y-23032D03*
X33887Y-23032D03*
X34084Y-23032D03*
X34281Y-23032D03*
X34478Y-23032D03*
X34675Y-23032D03*
X34872Y-23032D03*
X35069Y-23032D03*
X35265Y-23032D03*
G54D30*
X15937Y-28705D03*
X15937Y-29295D03*
X40195Y-12800D03*
X39605Y-12800D03*
X37245Y-12800D03*
X36655Y-12800D03*
X34295Y-12800D03*
X33705Y-12800D03*
X29795Y-12800D03*
X29205Y-12800D03*
X52550Y-25895D03*
X52550Y-25305D03*
X53250Y-25895D03*
X53250Y-25305D03*
X53950Y-25895D03*
X53950Y-25305D03*
X54600Y-25895D03*
X54600Y-25305D03*
X17537Y-28705D03*
X17537Y-29295D03*
X16737Y-28705D03*
X16737Y-29295D03*
X15137Y-28705D03*
X15137Y-29295D03*
X54837Y-19405D03*
X54837Y-19995D03*
G54D31*
X18537Y-20700D03*
X18537Y-20200D03*
X18537Y-19700D03*
G54D32*
X24587Y-9450D03*
X25087Y-9450D03*
G54D31*
X16037Y-19450D03*
X16037Y-18950D03*
X42375Y-15075D03*
X42375Y-14575D03*
X15237Y-19450D03*
X15237Y-18950D03*
G54D33*
X37737Y-19600D03*
X37737Y-20545D03*
X38485Y-19600D03*
X38485Y-20545D03*
G54D34*
X19633Y-15400D03*
X19041Y-15400D03*
G54D35*
X16437Y-10196D03*
X16437Y-9604D03*
X45037Y-17996D03*
X45037Y-17404D03*
X18637Y-9996D03*
X18637Y-9404D03*
X46337Y-20496D03*
X46337Y-19904D03*
X46337Y-15496D03*
X46337Y-14904D03*
X37037Y-14104D03*
X37037Y-14696D03*
X19737Y-10854D03*
X19737Y-11446D03*
G54D34*
X38633Y-18600D03*
X38041Y-18600D03*
X38333Y-21300D03*
X37741Y-21300D03*
X18133Y-12900D03*
X17541Y-12900D03*
X26833Y-10000D03*
X26241Y-10000D03*
G54D35*
X42550Y-11596D03*
X42550Y-11004D03*
G54D34*
X17533Y-14300D03*
X16941Y-14300D03*
X18641Y-14450D03*
X19233Y-14450D03*
G54D35*
X19137Y-17304D03*
X19137Y-17896D03*
G54D34*
X14996Y-22000D03*
X14404Y-22000D03*
G54D35*
X48637Y-20496D03*
X48637Y-19904D03*
G54D34*
X50133Y-16800D03*
X49541Y-16800D03*
G54D35*
X50137Y-19296D03*
X50137Y-18704D03*
X47137Y-20996D03*
X47137Y-20404D03*
G54D34*
X21533Y-9450D03*
X20941Y-9450D03*
G54D35*
X45337Y-20496D03*
X45337Y-19904D03*
G54D34*
X17941Y-11400D03*
X18533Y-11400D03*
G54D36*
X21687Y-23100D03*
X20687Y-23100D03*
X20687Y-23970D03*
X21687Y-23970D03*
G54D37*
X36414Y-23650D03*
X36414Y-24150D03*
X36414Y-24650D03*
X36414Y-25150D03*
X38460Y-25150D03*
X38460Y-24650D03*
X38460Y-24150D03*
X38460Y-23650D03*
X42814Y-12350D03*
X42814Y-12850D03*
X42814Y-13350D03*
X42814Y-13850D03*
X44860Y-13850D03*
X44860Y-13350D03*
X44860Y-12850D03*
X44860Y-12350D03*
G54D38*
X10100Y-34350D03*
X9100Y-34725D03*
X9100Y-33975D03*
G54D39*
X17137Y-34600D03*
X16762Y-33600D03*
X17512Y-33600D03*
G54D40*
X18537Y-34409D03*
X18537Y-33789D03*
X11737Y-35009D03*
X11737Y-34389D03*
G54D25*
X12737Y-31900D03*
X12737Y-31300D03*
X12737Y-30200D03*
X12737Y-30800D03*
X19537Y-33800D03*
X19537Y-34400D03*
X16000Y-33100D03*
X16000Y-33700D03*
G54D26*
X12800Y-35400D03*
X13400Y-35400D03*
X14600Y-35400D03*
X14000Y-35400D03*
G54D31*
X10650Y-32500D03*
X10650Y-33000D03*
X10650Y-33500D03*
G54D41*
X15187Y-30277D03*
X14687Y-30277D03*
X14187Y-30277D03*
X13687Y-30277D03*
X13687Y-32323D03*
X14187Y-32323D03*
X14687Y-32323D03*
X15187Y-32323D03*
G54D42*
X12758Y-33410D03*
G54D43*
X12858Y-34000D03*
G54D44*
X13907Y-34000D03*
G54D45*
X12758Y-34590D03*
G54D46*
X17774Y-31567D03*
X17026Y-31567D03*
X17400Y-32433D03*
G54D47*
X54605Y-16400D03*
G54D48*
X53069Y-16400D03*
G54D47*
X54605Y-15900D03*
G54D48*
X53069Y-15900D03*
X54605Y-15400D03*
X53069Y-15400D03*
X54605Y-14900D03*
G54D47*
X53069Y-14900D03*
X54605Y-14400D03*
G54D48*
X53069Y-14400D03*
G54D49*
X58537Y-21500D03*
X58537Y-21756D03*
X58537Y-21244D03*
X58537Y-22012D03*
X58537Y-20988D03*
G54D50*
X58537Y-22760D03*
X58537Y-20240D03*
G54D51*
X59580Y-22996D03*
X59580Y-20004D03*
G54D52*
X59580Y-21953D03*
X59580Y-21047D03*
G54D49*
X58537Y-17000D03*
X58537Y-17256D03*
X58537Y-16744D03*
X58537Y-17512D03*
X58537Y-16488D03*
G54D50*
X58537Y-18260D03*
X58537Y-15740D03*
G54D51*
X59580Y-18496D03*
X59580Y-15504D03*
G54D52*
X59580Y-17453D03*
X59580Y-16547D03*
G54D49*
X58537Y-12500D03*
X58537Y-12756D03*
X58537Y-12244D03*
X58537Y-13012D03*
X58537Y-11988D03*
G54D50*
X58537Y-13760D03*
X58537Y-11240D03*
G54D51*
X59580Y-13996D03*
X59580Y-11004D03*
G54D52*
X59580Y-12953D03*
X59580Y-12047D03*
G54D53*
X43600Y-10400D03*
X43600Y-11500D03*
G54D54*
X15587Y-21100D03*
X14487Y-21100D03*
G54D35*
X48537Y-16604D03*
X48537Y-17196D03*
G54D53*
X19137Y-13450D03*
X19137Y-12350D03*
X44937Y-15850D03*
X44937Y-14750D03*
G54D32*
X40625Y-15425D03*
X40125Y-15425D03*
G54D55*
X42273Y-34800D03*
X43926Y-34800D03*
X48173Y-34800D03*
X49826Y-34800D03*
X40926Y-34800D03*
X39273Y-34800D03*
X45273Y-34800D03*
X46926Y-34800D03*
G54D53*
X47037Y-17450D03*
X47037Y-16350D03*
G54D56*
X53200Y-34375D03*
X53200Y-31225D03*
G54D57*
X51853Y-9800D03*
X49847Y-9800D03*
G54D58*
X49550Y-10847D03*
X49550Y-12853D03*
G54D57*
X49197Y-14500D03*
X51203Y-14500D03*
G54D26*
X36900Y-11900D03*
X37500Y-11900D03*
X39600Y-11000D03*
X40200Y-11000D03*
X39600Y-11900D03*
X40200Y-11900D03*
X38100Y-11000D03*
X38700Y-11000D03*
X38100Y-11900D03*
X38700Y-11900D03*
X36850Y-11000D03*
X37450Y-11000D03*
X35200Y-11000D03*
X35800Y-11000D03*
X35200Y-11900D03*
X35800Y-11900D03*
X33700Y-11000D03*
X34300Y-11000D03*
X33700Y-11900D03*
X34300Y-11900D03*
X32200Y-11000D03*
X32800Y-11000D03*
X32200Y-11900D03*
X32800Y-11900D03*
X30700Y-11000D03*
X31300Y-11000D03*
X30700Y-11900D03*
X31300Y-11900D03*
X29200Y-11000D03*
X29800Y-11000D03*
G54D34*
X43946Y-29250D03*
X43354Y-29250D03*
X42054Y-29300D03*
X42646Y-29300D03*
X36496Y-29350D03*
X35904Y-29350D03*
X37254Y-29350D03*
X37846Y-29350D03*
X41296Y-29300D03*
X40704Y-29300D03*
X39354Y-29300D03*
X39946Y-29300D03*
G54D59*
X16100Y-32150D03*
X16100Y-30850D03*
G54D60*
X41000Y-30700D03*
G54D61*
X41000Y-33300D03*
X41900Y-33300D03*
X40100Y-33300D03*
G54D60*
X49000Y-30700D03*
G54D61*
X49000Y-33300D03*
X49900Y-33300D03*
X48100Y-33300D03*
G54D60*
X37000Y-30700D03*
G54D61*
X37000Y-33300D03*
X37900Y-33300D03*
X36100Y-33300D03*
G54D60*
X45000Y-30700D03*
G54D61*
X45000Y-33300D03*
X45900Y-33300D03*
X44100Y-33300D03*
G54D30*
X31295Y-12800D03*
X30705Y-12800D03*
X32795Y-12800D03*
X32205Y-12800D03*
X35795Y-12800D03*
X35205Y-12800D03*
X38695Y-12800D03*
X38105Y-12800D03*
G54D62*
X58930Y-30900D03*
X56370Y-30900D03*
G54D63*
X59149Y-26450D03*
X56550Y-26450D03*
G54D64*
X11653Y-37952D03*
X11653Y-36299D03*
G54D65*
X29566Y-9881D03*
X27834Y-9881D03*
M02*
