M48
;DRILL file {Pcbnew (2013-07-07 BZR 4022)-stable} date 29/09/2014 14:49:29
;FORMAT={-:-/ absolute / inch / decimal}
FMAT,2
INCH,TZ
T1C0.010
T2C0.035
T3C0.039
T4C0.040
T5C0.060
T6C0.062
T7C0.079
T8C0.098
T9C0.120
T10C0.128
T11C0.157
%
G90
G05
M72
T1
X0.89Y2.61
X0.89Y2.69
X0.9Y2.48
X0.91Y3.34
X0.91Y3.53
X1.11Y3.16
X1.11Y3.195
X1.16Y2.89
X1.2038Y3.06
X1.2238Y3.52
X1.24Y2.76
X1.2938Y3.27
X1.3Y1.25
X1.3038Y2.96
X1.34Y2.53
X1.38Y1.21
X1.38Y1.33
X1.43Y2.25
X1.44Y1.99
X1.44Y2.35
X1.45Y2.7
X1.45Y2.925
X1.4538Y1.85
X1.47Y1.66
X1.4738Y1.53
X1.4738Y3.31
X1.48Y1.74
X1.4838Y1.195
X1.4938Y2.03
X1.5138Y1.85
X1.5338Y2.03
X1.5338Y3.32
X1.55Y2.61
X1.5538Y2.86
X1.5638Y1.25
X1.5638Y1.43
X1.5938Y0.87
X1.5938Y1.72
X1.6238Y1.985
X1.6338Y1.68
X1.6338Y2.86
X1.6538Y2.43
X1.6638Y1.07
X1.6638Y2.04
X1.6638Y2.39
X1.6638Y2.48
X1.67Y3.57
X1.6738Y1.99
X1.7038Y1.58
X1.7138Y2.71
X1.7138Y2.86
X1.72Y3.56
X1.7338Y1.67
X1.7438Y0.915
X1.7438Y1.83
X1.7438Y2.69
X1.7538Y1.08
X1.7638Y1.34
X1.7638Y2.62
X1.7638Y2.66
X1.77Y3.55
X1.7838Y1.61
X1.7888Y1.245
X1.7938Y2.205
X1.7938Y2.265
X1.8038Y3.36
X1.8047Y3.4409
X1.8238Y1.25
X1.8238Y1.68
X1.8238Y1.8
X1.8238Y2.235
X1.8338Y1.34
X1.8438Y1.39
X1.8488Y2.205
X1.8488Y2.265
X1.8638Y1.52
X1.8638Y1.82
X1.8738Y3.52
X1.8838Y1.68
X1.8838Y2.59
X1.8938Y1.08
X1.8938Y1.14
X1.9038Y2.13
X1.9038Y2.37
X1.9088Y1.02
X1.9088Y2.065
X1.9138Y1.59
X1.9238Y1.4
X1.9238Y1.69
X1.9238Y3.
X1.9538Y1.83
X1.9538Y2.325
X1.9538Y2.6
X1.9538Y2.82
X1.9538Y2.91
X1.9538Y3.33
X1.9592Y2.2454
X1.9638Y1.59
X1.9738Y1.4
X1.9838Y0.89
X1.9938Y1.18
X1.9938Y2.205
X2.0038Y1.23
X2.0038Y1.64
X2.0038Y1.68
X2.0038Y1.72
X2.0138Y1.1
X2.0138Y1.33
X2.0138Y1.78
X2.0188Y1.14
X2.0188Y1.37
X2.0238Y1.06
X2.0238Y2.54
X2.0288Y1.52
X2.0338Y1.18
X2.0338Y1.45
X2.0438Y0.89
X2.0438Y1.02
X2.0538Y0.98
X2.0538Y2.57
X2.0588Y2.
X2.07Y2.17
X2.0738Y3.56
X2.0838Y1.88
X2.0838Y2.08
X2.0938Y3.14
X2.1038Y2.17
X2.1038Y2.46
X2.1238Y1.88
X2.1538Y2.46
X2.1638Y0.87
X2.1638Y1.26
X2.1638Y1.37
X2.165Y1.44
X2.1738Y1.405
X2.2038Y1.81
X2.2038Y1.85
X2.2038Y1.89
X2.2138Y1.405
X2.2138Y3.13
X2.2238Y2.32
X2.2338Y1.19
X2.2338Y1.58
X2.2338Y1.62
X2.2538Y1.09
X2.2538Y1.405
X2.2538Y2.14
X2.2538Y2.2
X2.2538Y2.24
X2.2688Y1.5225
X2.2738Y3.13
X2.2838Y0.86
X2.2938Y1.49
X2.3038Y1.53
X2.3088Y1.64
X2.3238Y1.91
X2.3338Y0.89
X2.3338Y2.96
X2.3438Y1.1
X2.3438Y1.82
X2.3438Y2.38
X2.35Y1.94
X2.3738Y1.27
X2.3738Y2.73
X2.38Y1.97
X2.3938Y3.08
X2.4088Y1.35
X2.41Y2.
X2.4138Y1.
X2.4138Y1.31
X2.4238Y2.94
X2.4388Y2.63
X2.4438Y1.83
X2.4488Y2.53
X2.45Y2.03
X2.4538Y1.17
X2.4538Y1.295
X2.4538Y1.35
X2.4538Y1.58
X2.4538Y2.47
X2.46Y1.435
X2.4638Y1.77
X2.4738Y1.14
X2.4838Y1.63
X2.4838Y1.83
X2.485Y1.48
X2.5138Y2.71
X2.5138Y3.08
X2.5338Y3.12
X2.5588Y0.925
X2.5638Y0.98
X2.5838Y1.91
X2.595Y1.41
X2.595Y1.47
X2.6038Y1.59
X2.6038Y1.63
X2.6138Y1.06
X2.6138Y1.29
X2.615Y1.25
X2.6188Y1.91
X2.62Y1.435
X2.6238Y1.85
X2.6238Y3.09
X2.6388Y2.705
X2.6438Y1.79
X2.645Y1.17
X2.645Y1.41
X2.6538Y1.91
X2.6538Y2.46
X2.6588Y2.215
X2.6638Y1.06
X2.6638Y2.295
X2.6788Y1.8275
X2.6788Y2.355
X2.6838Y1.79
X2.6938Y1.7
X2.6938Y1.87
X2.6938Y1.91
X2.7038Y1.17
X2.7038Y1.56
X2.7038Y1.6
X2.7338Y1.15
X2.7438Y2.26
X2.7438Y2.32
X2.7475Y1.5075
X2.7538Y2.39
X2.7538Y2.43
X2.755Y1.265
X2.7638Y2.91
X2.78Y1.235
X2.7838Y1.5
X2.7838Y2.545
X2.7938Y2.44
X2.7938Y3.08
X2.8038Y2.61
X2.8125Y1.9975
X2.8138Y1.28
X2.82Y1.195
X2.8288Y2.545
X2.8338Y1.61
X2.8338Y1.72
X2.8338Y1.84
X2.8338Y2.19
X2.8338Y2.23
X2.835Y0.91
X2.8375Y2.0225
X2.8438Y1.88
X2.8475Y1.5775
X2.85Y1.395
X2.8538Y1.81
X2.8538Y2.16
X2.855Y1.195
X2.8563Y1.2575
X2.86Y2.72
X2.8625Y1.9975
X2.8625Y2.3925
X2.8638Y1.05
X2.8638Y1.92
X2.8688Y2.545
X2.8738Y1.96
X2.8738Y2.19
X2.88Y2.685
X2.8838Y1.65
X2.8838Y3.06
X2.8938Y2.95
X2.8988Y2.44
X2.9038Y1.88
X2.9038Y2.205
X2.9038Y2.24
X2.9088Y2.5
X2.915Y1.24
X2.9238Y1.565
X2.9425Y2.2475
X2.9438Y2.395
X2.9438Y2.9
X2.9538Y1.4
X2.9638Y2.2
X2.98Y1.145
X2.9838Y2.13
X2.9988Y1.395
X3.0038Y2.1
X3.0038Y3.05
X3.0088Y2.435
X3.0138Y3.1
X3.0338Y1.395
X3.04Y0.91
X3.0438Y1.93
X3.0438Y2.165
X3.0438Y2.21
X3.0438Y2.635
X3.0488Y2.395
X3.07Y1.24
X3.0738Y1.395
X3.0738Y1.66
X3.0838Y2.11
X3.1038Y2.42
X3.1138Y1.395
X3.1138Y2.36
X3.1238Y1.66
X3.1238Y1.72
X3.13Y1.14
X3.1438Y2.67
X3.1488Y1.975
X3.1538Y1.395
X3.1738Y2.6
X3.18Y3.555
X3.1838Y2.2
X3.1838Y3.1
X3.1938Y1.975
X3.1938Y2.04
X3.1938Y2.42
X3.2038Y1.67
X3.22Y1.24
X3.2225Y2.3925
X3.2238Y2.49
X3.2275Y2.2425
X3.23Y2.975
X3.2338Y1.4
X3.235Y0.915
X3.2438Y1.67
X3.2438Y1.77
X3.2438Y1.98
X3.2538Y1.88
X3.2538Y2.84
X3.2575Y2.3575
X3.2638Y2.65
X3.2638Y3.01
X3.2738Y1.82
X3.2738Y2.56
X3.28Y1.14
X3.2838Y1.67
X3.2838Y2.18
X3.285Y2.44
X3.3025Y1.9525
X3.3025Y2.8425
X3.3038Y2.045
X3.3138Y1.83
X3.3138Y1.87
X3.3238Y1.67
X3.3238Y2.16
X3.33Y2.46
X3.3588Y1.52
X3.365Y1.24
X3.3688Y1.395
X3.38Y2.39
X3.3938Y1.71
X3.4038Y1.67
X3.4188Y1.525
X3.4238Y1.73
X3.4238Y2.16
X3.4275Y2.0175
X3.43Y0.915
X3.43Y1.14
X3.4338Y1.38
X3.435Y3.39
X3.435Y3.49
X3.4438Y2.24
X3.4438Y2.66
X3.4638Y2.18
X3.4738Y1.38
X3.4788Y2.63
X3.4838Y1.82
X3.4838Y2.02
X3.4938Y1.52
X3.5038Y1.685
X3.5038Y2.24
X3.5038Y2.47
X3.5138Y1.74
X3.52Y1.24
X3.5238Y2.02
X3.5238Y2.58
X3.5338Y1.94
X3.5338Y2.115
X3.5438Y1.38
X3.55Y2.93
X3.5538Y1.91
X3.5538Y2.32
X3.5638Y2.59
X3.565Y1.145
X3.6025Y3.1425
X3.6038Y2.28
X3.61Y3.27
X3.6138Y2.7
X3.6338Y2.66
X3.64Y1.32
X3.645Y1.09
X3.645Y1.15
X3.645Y1.2
X3.645Y1.24
X3.6488Y1.49
X3.6638Y1.76
X3.6738Y1.91
X3.6738Y2.27
X3.6838Y2.59
X3.685Y2.895
X3.685Y2.935
X3.6988Y1.55
X3.7025Y2.7825
X3.7038Y1.76
X3.7038Y2.16
X3.7038Y2.42
X3.7038Y2.55
X3.7188Y1.605
X3.7238Y2.06
X3.7238Y2.1
X3.7238Y2.59
X3.7238Y2.66
X3.7338Y2.14
X3.7338Y2.18
X3.7338Y2.22
X3.7338Y2.26
X3.735Y1.54
X3.7438Y2.56
X3.7525Y2.8175
X3.7638Y1.89
X3.7738Y2.37
X3.7738Y2.41
X3.7738Y2.76
X3.775Y1.5
X3.78Y1.145
X3.785Y1.05
X3.7888Y1.005
X3.7938Y2.62
X3.7988Y1.355
X3.805Y1.24
X3.8138Y2.18
X3.815Y2.685
X3.82Y2.925
X3.835Y3.145
X3.8388Y1.355
X3.8438Y1.91
X3.86Y3.33
X3.87Y1.145
X3.8838Y1.76
X3.8938Y1.9
X3.8938Y1.97
X3.9Y2.93
X3.925Y1.32
X3.9538Y2.39
X3.9575Y2.0325
X3.9575Y2.0725
X3.9588Y2.295
X3.97Y1.525
X3.97Y1.56
X3.9725Y2.1275
X3.9738Y2.59
X3.9738Y2.63
X3.9838Y2.71
X4.01Y0.895
X4.01Y3.26
X4.0125Y1.8075
X4.035Y2.825
X4.035Y2.93
X4.0375Y2.8725
X4.06Y3.145
X4.0638Y2.08
X4.07Y1.185
X4.07Y2.27
X4.0738Y1.05
X4.075Y1.14
X4.09Y1.35
X4.0938Y2.1
X4.095Y1.25
X4.0975Y2.8725
X4.1038Y1.94
X4.1138Y2.65
X4.1138Y2.69
X4.14Y1.355
X4.1425Y2.5675
X4.15Y3.145
X4.1625Y2.2975
X4.165Y2.945
X4.17Y1.115
X4.1925Y1.9625
X4.2025Y1.4075
X4.2088Y1.845
X4.21Y1.375
X4.2325Y1.9625
X4.2425Y2.1025
X4.245Y2.88
X4.2475Y2.6525
X4.2525Y1.8625
X4.26Y3.33
X4.2775Y2.7675
X4.2838Y2.1
X4.315Y3.14
X4.3238Y2.1
X4.3438Y1.55
X4.3438Y1.68
X4.3638Y2.1
X4.3925Y2.8825
X4.3938Y1.3
X4.3938Y2.12
X4.4038Y1.54
X4.41Y3.26
X4.4238Y2.1
X4.425Y0.865
X4.425Y1.025
X4.4325Y2.8825
X4.445Y2.925
X4.4475Y2.5825
X4.455Y1.17
X4.4638Y1.8
X4.4725Y2.8825
X4.4738Y1.68
X4.475Y1.1
X4.4788Y1.97
X4.4938Y2.03
X4.5125Y2.8825
X4.5575Y2.7425
X4.5738Y1.61
X4.5738Y1.65
X4.5838Y1.46
X4.5838Y2.01
X4.5838Y2.045
X4.6138Y1.62
X4.6238Y1.66
X4.6238Y1.72
X4.65Y0.93
X4.65Y3.33
X4.6538Y1.44
X4.6538Y1.83
X4.6625Y2.8425
X4.6638Y1.29
X4.6838Y1.85
X4.7138Y1.54
X4.7238Y1.85
X4.7438Y1.99
X4.7538Y1.87
X4.7738Y1.84
X4.7738Y2.14
X4.7788Y1.66
X4.7788Y1.72
X4.81Y3.26
X4.8138Y1.825
X4.8238Y1.55
X4.8238Y1.76
X4.8438Y1.95
X4.8538Y1.825
X4.8638Y1.55
X4.8638Y1.76
X4.8838Y1.32
X4.8838Y1.37
X4.8838Y1.95
X4.8938Y2.12
X4.9038Y1.66
X4.9038Y1.89
X4.9138Y1.83
X4.9238Y1.97
X4.9338Y1.55
X4.9338Y1.76
X4.9438Y1.89
X5.0038Y3.22
X5.0438Y3.22
X5.0538Y2.11
X5.06Y3.33
X5.08Y1.52
X5.0838Y1.85
X5.0938Y1.58
X5.0938Y1.63
X5.0975Y2.0125
X5.1038Y1.97
X5.1775Y1.4825
X5.2038Y2.14
X5.2125Y1.4725
X5.215Y1.75
X5.2238Y1.9
X5.2438Y2.14
X5.245Y0.98
X5.255Y1.75
X5.29Y2.495
X5.3225Y1.3575
X5.35Y2.715
X5.3738Y1.78
X5.3738Y2.05
X5.3738Y2.09
X5.3838Y1.4
X5.39Y2.475
X5.4425Y3.3325
X5.4425Y3.3725
X5.4425Y3.4125
X5.4538Y2.1
X5.4538Y3.04
X5.4538Y3.07
X5.4738Y2.66
X5.4738Y2.71
X5.505Y2.525
X5.505Y2.59
X5.5075Y3.6075
X5.5238Y2.66
X5.5238Y2.71
X5.5438Y2.85
X5.5438Y2.89
X5.5538Y1.54
X5.5538Y1.59
X5.5538Y1.64
X5.5625Y3.6075
X5.7238Y1.69
X5.7238Y1.73
X5.7238Y3.62
X5.7238Y3.66
X5.7438Y3.18
X5.7438Y3.22
X5.7538Y1.64
X5.7538Y2.01
X5.7538Y2.08
X5.7538Y2.35
X5.7638Y1.06
X5.7638Y1.18
X5.7638Y1.38
X5.7638Y1.52
X5.7638Y1.83
X5.7638Y2.26
X5.7738Y2.79
X5.8238Y1.96
X5.8238Y2.79
X5.8238Y3.18
X5.8238Y3.22
X5.8638Y1.96
X5.8738Y2.79
X5.9438Y2.37
T2
X1.08Y2.415
X1.08Y2.615
X1.08Y2.715
X1.08Y2.815
X1.18Y2.365
X1.18Y2.465
X1.18Y2.665
X1.18Y2.765
X1.28Y2.415
T3
X1.8538Y2.53
X1.8538Y2.73
X1.8538Y2.93
X1.8538Y3.23
X2.1538Y2.53
X2.1538Y2.73
X2.1538Y2.93
X2.1538Y3.23
X2.2738Y2.53
X2.2738Y2.73
X2.2738Y2.93
X2.2738Y3.23
X2.5738Y2.53
X2.5738Y2.73
X2.5738Y2.93
X2.5738Y3.23
X2.7013Y2.5283
X2.7013Y2.7283
X2.7013Y2.9283
X2.7013Y3.2283
X3.0013Y2.5283
X3.0013Y2.7283
X3.0013Y2.9283
X3.0013Y3.2283
X3.1254Y2.5283
X3.1254Y2.7283
X3.1254Y2.9283
X3.1254Y3.2283
X3.4254Y2.5283
X3.4254Y2.7283
X3.4254Y2.9283
X3.4254Y3.2283
T4
X0.8838Y1.385
X0.8838Y1.495
X0.8838Y1.6
X0.8838Y1.71
X0.9838Y1.33
X0.9838Y1.44
X0.9838Y1.55
X0.9838Y1.655
X0.9838Y1.765
X1.12Y2.15
X1.22Y2.15
X1.25Y1.45
X1.25Y1.55
X1.25Y1.65
X1.25Y1.75
X1.33Y1.87
X1.33Y1.97
X1.35Y1.45
X1.35Y1.55
X1.35Y1.65
X1.35Y1.75
X1.37Y2.365
X1.37Y2.465
X1.37Y2.705
X1.37Y2.805
X2.2838Y2.32
X2.2838Y2.42
X2.3838Y2.32
X2.3838Y2.42
X2.3888Y3.37
X2.3888Y3.47
X2.4838Y2.32
X2.4838Y2.42
X2.4888Y3.37
X2.4888Y3.47
X2.5888Y3.37
X2.5888Y3.47
X2.6888Y3.37
X2.6888Y3.47
X2.7888Y3.37
X2.7888Y3.47
X2.8888Y3.37
X2.8888Y3.47
X4.05Y2.35
X4.05Y2.45
X4.15Y2.35
X4.15Y2.45
X4.25Y2.35
X4.25Y2.45
X4.35Y2.35
X4.35Y2.45
X4.45Y2.35
X4.45Y2.45
X4.55Y2.35
X4.55Y2.45
X4.65Y2.35
X4.65Y2.45
X4.725Y0.97
X4.725Y1.07
X4.725Y1.17
X4.75Y2.35
X4.75Y2.45
X4.75Y2.65
X4.75Y2.75
X4.825Y0.97
X4.825Y1.07
X4.825Y1.17
X4.85Y2.35
X4.85Y2.45
X4.85Y2.65
X4.85Y2.75
X4.95Y2.35
X4.95Y2.45
X4.95Y2.65
X4.95Y2.75
X5.05Y2.35
X5.05Y2.45
X5.05Y2.65
X5.05Y2.75
X5.15Y2.35
X5.15Y2.45
T5
X1.4288Y0.74
X1.4288Y3.74
X1.6288Y0.74
X1.6288Y3.74
X1.8288Y0.74
X1.8288Y3.74
X2.0288Y0.74
X2.0288Y3.74
X2.2288Y0.74
X2.2288Y3.74
X2.4288Y0.74
X2.4288Y3.74
X2.6288Y0.74
X2.6288Y3.74
X2.8288Y0.74
X2.8288Y3.74
X3.0288Y0.74
X3.0288Y3.74
X3.2288Y0.74
X3.2288Y3.74
X3.4288Y0.74
X3.4288Y3.74
X3.6288Y0.74
X3.6288Y3.74
X3.8288Y0.74
X3.8288Y3.74
X4.0288Y0.74
X4.0288Y3.74
X4.2288Y0.74
X4.2288Y3.74
X4.4288Y0.74
X4.4288Y3.74
X4.6288Y0.74
X4.6288Y3.74
X4.8288Y0.74
X4.8288Y3.74
X5.0288Y0.74
X5.0288Y3.74
X5.2288Y0.74
X5.2288Y3.74
T6
X0.95Y2.285
X0.95Y2.895
T7
X0.7542Y3.1846
X1.5533Y3.4754
T8
X4.3538Y2.72
T9
X0.8838Y1.045
X0.8838Y2.045
T10
X0.83Y2.365
X0.83Y2.815
T11
X0.8246Y0.7384
X0.8246Y3.7404
X1.1538Y1.95
X5.4638Y1.09
X5.8345Y0.7384
X5.8345Y3.7404
T0
M30
