G04 (created by PCBNEW (2013-07-07 BZR 4022)-stable) date 15/08/2014 17:43:12*
%MOIN*%
G04 Gerber Fmt 3.4, Leading zero omitted, Abs format*
%FSLAX34Y34*%
G01*
G70*
G90*
G04 APERTURE LIST*
%ADD10C,0.00590551*%
%ADD11R,0.106299X0.122047*%
%ADD12R,0.0512X0.0118*%
%ADD13R,0.0177165X0.0177165*%
%ADD14R,0.036X0.036*%
%ADD15R,0.0276X0.0394*%
%ADD16R,0.0394X0.0276*%
%ADD17R,0.0296X0.0315*%
%ADD18R,0.0528X0.0709*%
%ADD19R,0.067X0.0237*%
%ADD20R,0.045X0.025*%
%ADD21R,0.025X0.045*%
%ADD22C,0.16*%
%ADD23R,0.0591X0.0591*%
%ADD24C,0.0591*%
%ADD25C,0.09*%
%ADD26C,0.065*%
%ADD27R,0.063X0.063*%
%ADD28C,0.063*%
%ADD29R,0.06X0.06*%
%ADD30C,0.06*%
%ADD31R,0.0551X0.0708*%
%ADD32R,0.0708X0.0551*%
%ADD33R,0.05X0.038*%
%ADD34R,0.038X0.05*%
%ADD35C,0.0708*%
%ADD36R,0.0551181X0.0472441*%
%ADD37R,0.0866X0.063*%
%ADD38R,0.0709X0.0866*%
%ADD39R,0.0984X0.1299*%
%ADD40R,0.042126X0.0850394*%
%ADD41R,0.328X0.275*%
%ADD42R,0.425X0.075*%
%ADD43R,0.0394X0.0354*%
%ADD44R,0.0354X0.0394*%
%ADD45R,0.1X0.1*%
%ADD46C,0.1*%
%ADD47C,0.102362*%
%ADD48R,0.05X0.075*%
%ADD49R,0.0866X0.0236*%
%ADD50R,0.0236X0.0866*%
%ADD51R,0.0590551X0.125984*%
%ADD52C,0.177165*%
%ADD53C,0.0393701*%
%ADD54C,0.15*%
%ADD55C,0.11811*%
%ADD56R,0.063X0.071*%
%ADD57R,0.071X0.063*%
%ADD58R,0.01X0.0591*%
%ADD59R,0.0591X0.01*%
%ADD60R,0.11X0.15*%
%ADD61R,0.0599X0.1*%
%ADD62R,0.125984X0.0590551*%
%ADD63R,0.055X0.15*%
%ADD64R,0.05X0.09*%
%ADD65R,0.09X0.05*%
%ADD66R,0.08X0.06*%
%ADD67R,0.06X0.08*%
%ADD68C,0.025*%
%ADD69C,0.03*%
%ADD70C,0.01*%
%ADD71C,0.02*%
%ADD72C,0.015*%
G04 APERTURE END LIST*
G54D10*
G54D11*
X49580Y-33100D03*
X52494Y-33120D03*
G54D12*
X21587Y-10640D03*
X21587Y-10890D03*
X21587Y-11150D03*
X21587Y-11400D03*
X21587Y-11660D03*
X21587Y-11915D03*
X21587Y-12170D03*
X19387Y-12170D03*
X19387Y-11915D03*
X19387Y-11660D03*
X19387Y-11400D03*
X19387Y-11145D03*
X19387Y-10890D03*
X19387Y-10635D03*
G54D13*
X54437Y-16100D03*
X54437Y-15470D03*
X54772Y-15470D03*
X54772Y-16100D03*
X48437Y-13500D03*
X47807Y-13500D03*
X47807Y-13165D03*
X48437Y-13165D03*
G54D14*
X37537Y-31750D03*
X36837Y-31750D03*
X37187Y-32550D03*
X27487Y-30600D03*
X26787Y-30600D03*
X27137Y-31400D03*
X19187Y-30500D03*
X18487Y-30500D03*
X18837Y-31300D03*
X23687Y-30400D03*
X22987Y-30400D03*
X23337Y-31200D03*
X42287Y-31600D03*
X41587Y-31600D03*
X41937Y-32400D03*
X31687Y-30500D03*
X30987Y-30500D03*
X31337Y-31300D03*
X52787Y-26300D03*
X52087Y-26300D03*
X52437Y-27100D03*
X46787Y-31200D03*
X46087Y-31200D03*
X46437Y-32000D03*
G54D15*
X18137Y-11000D03*
X17762Y-12000D03*
X18512Y-12000D03*
X18037Y-13800D03*
X17662Y-14800D03*
X18412Y-14800D03*
G54D16*
X21637Y-13000D03*
X20637Y-12625D03*
X20637Y-13375D03*
G54D15*
X22987Y-10400D03*
X22612Y-11400D03*
X23362Y-11400D03*
G54D17*
X40737Y-32265D03*
X40737Y-32737D03*
X36037Y-32515D03*
X36037Y-32987D03*
X52837Y-27865D03*
X52837Y-28337D03*
X45637Y-32165D03*
X45637Y-32637D03*
G54D18*
X57176Y-28800D03*
X58300Y-28800D03*
G54D19*
X31381Y-20151D03*
X31381Y-20651D03*
X31381Y-21150D03*
X31381Y-21650D03*
X29295Y-21650D03*
X29295Y-21150D03*
X29295Y-20651D03*
X29295Y-20151D03*
G54D20*
X14387Y-18250D03*
X14387Y-17650D03*
X45337Y-30900D03*
X45337Y-31500D03*
X8187Y-25700D03*
X8187Y-26300D03*
X15187Y-17650D03*
X15187Y-18250D03*
X16437Y-29600D03*
X16437Y-30200D03*
X15987Y-17650D03*
X15987Y-18250D03*
X15537Y-29600D03*
X15537Y-30200D03*
X21987Y-22800D03*
X21987Y-22200D03*
X14637Y-29300D03*
X14637Y-29900D03*
X13737Y-28900D03*
X13737Y-29500D03*
G54D21*
X32037Y-29200D03*
X32637Y-29200D03*
X44937Y-8600D03*
X44337Y-8600D03*
X47187Y-9300D03*
X47787Y-9300D03*
G54D20*
X35837Y-9900D03*
X35837Y-9300D03*
X35837Y-11100D03*
X35837Y-10500D03*
X35837Y-12300D03*
X35837Y-11700D03*
X35937Y-12900D03*
X35937Y-13500D03*
G54D21*
X23037Y-19550D03*
X23637Y-19550D03*
X23037Y-20600D03*
X23637Y-20600D03*
X25087Y-20600D03*
X24487Y-20600D03*
X25087Y-21300D03*
X24487Y-21300D03*
G54D20*
X36037Y-31200D03*
X36037Y-31800D03*
X37237Y-28800D03*
X37237Y-29400D03*
X39587Y-8550D03*
X39587Y-9150D03*
X19637Y-25700D03*
X19637Y-25100D03*
X33837Y-8800D03*
X33837Y-9400D03*
X30487Y-8800D03*
X30487Y-9400D03*
G54D21*
X13587Y-20300D03*
X12987Y-20300D03*
X28637Y-29100D03*
X28037Y-29100D03*
G54D20*
X13137Y-21750D03*
X13137Y-21150D03*
X40737Y-31000D03*
X40737Y-31600D03*
X37237Y-25100D03*
X37237Y-24500D03*
X36437Y-25200D03*
X36437Y-25800D03*
X16137Y-13200D03*
X16137Y-12600D03*
G54D21*
X16937Y-12700D03*
X17537Y-12700D03*
G54D20*
X42137Y-16450D03*
X42137Y-17050D03*
X43037Y-15200D03*
X43037Y-15800D03*
X42137Y-15250D03*
X42137Y-15850D03*
G54D21*
X40837Y-17500D03*
X41437Y-17500D03*
G54D20*
X40425Y-27575D03*
X40425Y-26975D03*
X40637Y-21600D03*
X40637Y-22200D03*
X17837Y-10400D03*
X17837Y-9800D03*
X16137Y-14400D03*
X16137Y-13800D03*
X41137Y-18400D03*
X41137Y-19000D03*
X40375Y-19175D03*
X40375Y-19775D03*
X23737Y-29600D03*
X23737Y-29000D03*
X23237Y-12000D03*
X23237Y-12600D03*
G54D21*
X23037Y-13200D03*
X23637Y-13200D03*
X25087Y-12650D03*
X25687Y-12650D03*
G54D20*
X37737Y-27200D03*
X37737Y-26600D03*
G54D21*
X32887Y-17150D03*
X33487Y-17150D03*
G54D20*
X34837Y-19400D03*
X34837Y-18800D03*
X35537Y-18100D03*
X35537Y-18700D03*
X34737Y-17200D03*
X34737Y-17800D03*
G54D21*
X27937Y-17100D03*
X27337Y-17100D03*
G54D20*
X32775Y-20875D03*
X32775Y-21475D03*
X30737Y-18200D03*
X30737Y-18800D03*
X30737Y-17000D03*
X30737Y-17600D03*
X29987Y-16700D03*
X29987Y-17300D03*
X15487Y-12000D03*
X15487Y-11400D03*
X16237Y-11650D03*
X16237Y-11050D03*
X15237Y-10700D03*
X15237Y-10100D03*
X16237Y-9750D03*
X16237Y-10350D03*
G54D21*
X22037Y-21600D03*
X21437Y-21600D03*
G54D20*
X20337Y-20800D03*
X20337Y-21400D03*
X13987Y-22400D03*
X13987Y-23000D03*
X14737Y-22400D03*
X14737Y-23000D03*
G54D21*
X24737Y-8700D03*
X25337Y-8700D03*
G54D20*
X19637Y-13000D03*
X19637Y-13600D03*
X25537Y-10800D03*
X25537Y-10200D03*
X24837Y-10900D03*
X24837Y-10300D03*
X10937Y-25500D03*
X10937Y-24900D03*
X15537Y-26600D03*
X15537Y-27200D03*
G54D21*
X26987Y-11100D03*
X26387Y-11100D03*
G54D20*
X19837Y-14400D03*
X19837Y-15000D03*
G54D21*
X21887Y-9850D03*
X22487Y-9850D03*
G54D20*
X9087Y-25600D03*
X9087Y-25000D03*
X9087Y-26400D03*
X9087Y-27000D03*
G54D21*
X23537Y-22350D03*
X22937Y-22350D03*
X50337Y-14800D03*
X49737Y-14800D03*
X29987Y-26450D03*
X29387Y-26450D03*
X24787Y-22350D03*
X24187Y-22350D03*
G54D20*
X47137Y-14400D03*
X47137Y-15000D03*
G54D21*
X23937Y-12200D03*
X24537Y-12200D03*
G54D20*
X37537Y-17500D03*
X37537Y-18100D03*
G54D21*
X17837Y-15600D03*
X18437Y-15600D03*
X13437Y-16100D03*
X14037Y-16100D03*
X16987Y-26500D03*
X16387Y-26500D03*
X14037Y-15300D03*
X13437Y-15300D03*
G54D22*
X10137Y-27850D03*
X10137Y-23350D03*
G54D23*
X12637Y-23850D03*
G54D24*
X13637Y-24350D03*
X12637Y-24850D03*
X13637Y-25350D03*
X12637Y-25850D03*
X13637Y-26350D03*
X12637Y-26850D03*
X13637Y-27350D03*
G54D25*
X11337Y-22500D03*
X11337Y-28700D03*
G54D26*
X8207Y-23110D03*
X8807Y-24110D03*
X8207Y-27090D03*
X8807Y-28090D03*
G54D27*
X28887Y-33700D03*
G54D28*
X28887Y-34700D03*
X27887Y-33700D03*
X27887Y-34700D03*
X26887Y-33700D03*
X26887Y-34700D03*
X25887Y-33700D03*
X25887Y-34700D03*
X24887Y-33700D03*
X24887Y-34700D03*
X23887Y-33700D03*
X23887Y-34700D03*
G54D29*
X49025Y-27025D03*
G54D30*
X49025Y-28025D03*
X48025Y-27025D03*
X48025Y-28025D03*
X47025Y-27025D03*
X47025Y-28025D03*
X46025Y-27025D03*
X46025Y-28025D03*
G54D27*
X24837Y-23200D03*
G54D28*
X24837Y-24200D03*
X23837Y-23200D03*
X23837Y-24200D03*
X22837Y-23200D03*
X22837Y-24200D03*
G54D29*
X40837Y-23400D03*
G54D30*
X40837Y-24400D03*
X39837Y-23400D03*
X39837Y-24400D03*
G54D31*
X29506Y-8800D03*
X28168Y-8800D03*
G54D32*
X21737Y-33831D03*
X21737Y-35169D03*
X18837Y-33331D03*
X18837Y-34669D03*
G54D31*
X31206Y-10900D03*
X29868Y-10900D03*
X38156Y-8850D03*
X36818Y-8850D03*
G54D32*
X28437Y-31369D03*
X28437Y-30031D03*
G54D31*
X48506Y-10300D03*
X47168Y-10300D03*
G54D32*
X31300Y-33531D03*
X31300Y-34869D03*
G54D31*
X45006Y-10700D03*
X43668Y-10700D03*
G54D33*
X22437Y-12350D03*
X22437Y-12850D03*
X22437Y-13350D03*
X16937Y-14400D03*
X16937Y-13900D03*
X16937Y-13400D03*
X17087Y-12050D03*
X17087Y-11550D03*
X17087Y-11050D03*
X24037Y-11450D03*
X24037Y-10950D03*
X24037Y-10450D03*
G54D34*
X20537Y-32300D03*
X20037Y-32300D03*
X19537Y-32300D03*
X24737Y-32200D03*
X24237Y-32200D03*
X23737Y-32200D03*
X29037Y-32400D03*
X28537Y-32400D03*
X28037Y-32400D03*
X33237Y-32300D03*
X32737Y-32300D03*
X32237Y-32300D03*
X25437Y-11850D03*
X25937Y-11850D03*
G54D33*
X18637Y-9800D03*
X18637Y-10300D03*
X17087Y-9850D03*
X17087Y-10350D03*
X16787Y-18200D03*
X16787Y-17700D03*
X36437Y-23450D03*
X36437Y-23950D03*
X39825Y-21825D03*
X39825Y-22325D03*
X27375Y-21575D03*
X27375Y-21075D03*
G54D34*
X13037Y-19450D03*
X13537Y-19450D03*
G54D35*
X18537Y-25300D03*
X18537Y-27300D03*
X18537Y-29300D03*
X21537Y-25300D03*
X21537Y-27300D03*
X21537Y-29300D03*
X18537Y-32300D03*
X21537Y-32300D03*
X31254Y-25283D03*
X31254Y-27283D03*
X31254Y-29283D03*
X34254Y-25283D03*
X34254Y-27283D03*
X34254Y-29283D03*
X31254Y-32283D03*
X34254Y-32283D03*
X27012Y-25283D03*
X27012Y-27283D03*
X27012Y-29283D03*
X30012Y-25283D03*
X30012Y-27283D03*
X30012Y-29283D03*
X27012Y-32283D03*
X30012Y-32283D03*
X22737Y-25300D03*
X22737Y-27300D03*
X22737Y-29300D03*
X25737Y-25300D03*
X25737Y-27300D03*
X25737Y-29300D03*
X22737Y-32300D03*
X25737Y-32300D03*
G54D36*
X45837Y-14050D03*
X44892Y-14050D03*
X45837Y-13302D03*
X44892Y-13302D03*
G54D37*
X53837Y-31848D03*
X53837Y-30352D03*
G54D38*
X32927Y-9100D03*
X31347Y-9100D03*
X33727Y-10800D03*
X32147Y-10800D03*
X50127Y-11600D03*
X48547Y-11600D03*
X22347Y-8750D03*
X23927Y-8750D03*
X46027Y-9600D03*
X44447Y-9600D03*
X19597Y-9550D03*
X21177Y-9550D03*
X16647Y-8700D03*
X18227Y-8700D03*
X42527Y-9000D03*
X40947Y-9000D03*
G54D39*
X49298Y-30400D03*
X51976Y-30400D03*
G54D40*
X57037Y-30220D03*
X57707Y-30220D03*
X58377Y-30220D03*
X56367Y-30220D03*
X55697Y-30220D03*
G54D41*
X57037Y-34425D03*
G54D42*
X57037Y-35425D03*
G54D43*
X36737Y-27196D03*
X36737Y-26604D03*
X26637Y-12796D03*
X26637Y-12204D03*
G54D44*
X19191Y-8500D03*
X19783Y-8500D03*
X20841Y-19300D03*
X21433Y-19300D03*
G54D43*
X46637Y-13304D03*
X46637Y-13896D03*
X44037Y-13404D03*
X44037Y-13996D03*
G54D44*
X31641Y-17150D03*
X32233Y-17150D03*
X40033Y-17400D03*
X39441Y-17400D03*
G54D43*
X44137Y-19904D03*
X44137Y-20496D03*
G54D44*
X21183Y-8500D03*
X20591Y-8500D03*
G54D43*
X19937Y-22454D03*
X19937Y-23046D03*
X26625Y-20521D03*
X26625Y-19929D03*
X32237Y-25996D03*
X32237Y-25404D03*
X31637Y-23296D03*
X31637Y-22704D03*
X28125Y-20829D03*
X28125Y-21421D03*
X35437Y-25196D03*
X35437Y-24604D03*
G54D44*
X39429Y-18575D03*
X40021Y-18575D03*
G54D43*
X35537Y-16904D03*
X35537Y-17496D03*
X39337Y-19896D03*
X39337Y-19304D03*
X36737Y-18696D03*
X36737Y-18104D03*
G54D44*
X34633Y-24400D03*
X34041Y-24400D03*
X31033Y-14400D03*
X30441Y-14400D03*
G54D43*
X26625Y-21129D03*
X26625Y-21721D03*
G54D44*
X25941Y-17200D03*
X26533Y-17200D03*
G54D43*
X27637Y-15504D03*
X27637Y-16096D03*
G54D44*
X23141Y-9750D03*
X23733Y-9750D03*
G54D43*
X27837Y-23496D03*
X27837Y-22904D03*
X36587Y-21046D03*
X36587Y-20454D03*
X36587Y-21704D03*
X36587Y-22296D03*
G54D44*
X18633Y-17500D03*
X18041Y-17500D03*
G54D43*
X13137Y-22946D03*
X13137Y-22354D03*
X14737Y-24104D03*
X14737Y-24696D03*
X11687Y-24854D03*
X11687Y-25446D03*
X14737Y-26554D03*
X14737Y-27146D03*
X21887Y-24246D03*
X21887Y-23654D03*
X19637Y-20804D03*
X19637Y-21396D03*
G54D44*
X44633Y-11500D03*
X44041Y-11500D03*
X48833Y-15000D03*
X48241Y-15000D03*
G54D43*
X16837Y-16204D03*
X16837Y-16796D03*
G54D44*
X15033Y-17050D03*
X14441Y-17050D03*
G54D43*
X57037Y-23604D03*
X57037Y-24196D03*
X37237Y-23796D03*
X37237Y-23204D03*
X11687Y-26104D03*
X11687Y-26696D03*
X44637Y-15996D03*
X44637Y-15404D03*
G54D44*
X24641Y-9600D03*
X25233Y-9600D03*
X35033Y-14400D03*
X34441Y-14400D03*
G54D43*
X18637Y-23704D03*
X18637Y-24296D03*
X19687Y-23904D03*
X19687Y-24496D03*
X19187Y-15046D03*
X19187Y-14454D03*
X14737Y-25946D03*
X14737Y-25354D03*
X15387Y-22454D03*
X15387Y-23046D03*
X18937Y-13596D03*
X18937Y-13004D03*
X26037Y-9396D03*
X26037Y-8804D03*
X17087Y-23954D03*
X17087Y-24546D03*
G54D45*
X34287Y-7400D03*
G54D46*
X32287Y-7400D03*
X30287Y-7400D03*
G54D45*
X32287Y-37400D03*
G54D46*
X34287Y-37400D03*
X36287Y-37400D03*
G54D45*
X40287Y-7400D03*
G54D46*
X38287Y-7400D03*
X36287Y-7400D03*
G54D45*
X46287Y-7400D03*
G54D46*
X44287Y-7400D03*
X42287Y-7400D03*
G54D45*
X52287Y-7400D03*
G54D46*
X50287Y-7400D03*
X48287Y-7400D03*
G54D45*
X18287Y-7400D03*
G54D46*
X16287Y-7400D03*
X14287Y-7400D03*
G54D45*
X28287Y-7400D03*
G54D46*
X26287Y-7400D03*
X24287Y-7400D03*
G54D45*
X22287Y-37400D03*
G54D46*
X24287Y-37400D03*
X26287Y-37400D03*
G54D45*
X44287Y-37400D03*
G54D46*
X46287Y-37400D03*
X48287Y-37400D03*
G54D45*
X38287Y-37400D03*
G54D46*
X40287Y-37400D03*
X42287Y-37400D03*
G54D45*
X50287Y-37400D03*
G54D46*
X52287Y-37400D03*
G54D45*
X22287Y-7400D03*
G54D46*
X20287Y-7400D03*
G54D45*
X18287Y-37400D03*
G54D46*
X20287Y-37400D03*
G54D45*
X14287Y-37400D03*
G54D46*
X16287Y-37400D03*
G54D47*
X15533Y-34754D03*
X7542Y-31845D03*
G54D10*
G36*
X10538Y-33766D02*
X11071Y-32301D01*
X12536Y-32834D01*
X12003Y-34299D01*
X10538Y-33766D01*
X10538Y-33766D01*
G37*
G54D48*
X35887Y-22100D03*
X33687Y-22100D03*
X33687Y-20850D03*
X35887Y-20850D03*
G54D49*
X33810Y-17800D03*
X33810Y-18300D03*
X33810Y-18800D03*
X33810Y-19300D03*
X31764Y-19300D03*
X31764Y-18800D03*
X31764Y-18300D03*
X31764Y-17800D03*
X29710Y-17750D03*
X29710Y-18250D03*
X29710Y-18750D03*
X29710Y-19250D03*
X27664Y-19250D03*
X27664Y-18750D03*
X27664Y-18250D03*
X27664Y-17750D03*
X40910Y-15300D03*
X40910Y-15800D03*
X40910Y-16300D03*
X40910Y-16800D03*
X38864Y-16800D03*
X38864Y-16300D03*
X38864Y-15800D03*
X38864Y-15300D03*
G54D50*
X15737Y-21223D03*
X15237Y-21223D03*
X14737Y-21223D03*
X14237Y-21223D03*
X14237Y-19177D03*
X14737Y-19177D03*
X15237Y-19177D03*
X15737Y-19177D03*
G54D45*
X28287Y-37400D03*
G54D46*
X30287Y-37400D03*
G54D49*
X39954Y-10000D03*
X39954Y-10500D03*
X39954Y-11000D03*
X39954Y-11500D03*
X39954Y-12000D03*
X39954Y-12500D03*
X39954Y-13000D03*
X39954Y-13500D03*
X37120Y-13500D03*
X37120Y-13000D03*
X37120Y-12500D03*
X37120Y-12000D03*
X37120Y-11500D03*
X37120Y-11000D03*
X37120Y-10500D03*
X37120Y-10000D03*
X23804Y-14300D03*
X23804Y-14800D03*
X23804Y-15300D03*
X23804Y-15800D03*
X23804Y-16300D03*
X23804Y-16800D03*
X23804Y-17300D03*
X23804Y-17800D03*
X20970Y-17800D03*
X20970Y-17300D03*
X20970Y-16800D03*
X20970Y-16300D03*
X20970Y-15800D03*
X20970Y-15300D03*
X20970Y-14800D03*
X20970Y-14300D03*
G54D51*
X46664Y-29700D03*
X45010Y-29700D03*
G54D33*
X35437Y-26600D03*
X35437Y-27100D03*
X35437Y-27600D03*
G54D52*
X58344Y-7384D03*
X58344Y-37404D03*
X8246Y-7384D03*
X8246Y-37404D03*
G54D29*
X42437Y-25150D03*
G54D30*
X42437Y-24150D03*
X43437Y-25150D03*
X43437Y-24150D03*
X44437Y-25150D03*
X44437Y-24150D03*
X45437Y-25150D03*
X45437Y-24150D03*
X46437Y-25150D03*
X46437Y-24150D03*
X47437Y-25150D03*
X47437Y-24150D03*
X48437Y-25150D03*
X48437Y-24150D03*
X49437Y-25150D03*
X49437Y-24150D03*
X50437Y-25150D03*
X50437Y-24150D03*
X51437Y-25150D03*
X51437Y-24150D03*
G54D53*
X56037Y-7300D03*
X10237Y-7300D03*
X10237Y-37400D03*
G54D54*
X8837Y-10450D03*
X8837Y-20450D03*
G54D29*
X9837Y-13300D03*
G54D30*
X9837Y-14400D03*
X9837Y-15500D03*
X9837Y-16550D03*
X9837Y-17650D03*
X8837Y-17100D03*
X8837Y-16000D03*
X8837Y-14950D03*
X8837Y-13850D03*
G54D52*
X11537Y-19500D03*
X54637Y-10900D03*
G54D55*
X43537Y-27200D03*
G54D56*
X33787Y-23300D03*
X34887Y-23300D03*
G54D57*
X52237Y-19550D03*
X52237Y-20650D03*
G54D56*
X17087Y-25500D03*
X15987Y-25500D03*
G54D57*
X20937Y-23550D03*
X20937Y-22450D03*
X58137Y-24450D03*
X58137Y-23350D03*
G54D58*
X46462Y-16036D03*
X46659Y-16036D03*
X46856Y-16036D03*
X47053Y-16036D03*
X47250Y-16036D03*
X47446Y-16036D03*
X47643Y-16036D03*
X47840Y-16036D03*
X48036Y-16036D03*
X48233Y-16036D03*
X48430Y-16036D03*
X48626Y-16036D03*
X48823Y-16036D03*
X49020Y-16036D03*
X49217Y-16036D03*
X49414Y-16036D03*
G54D59*
X50201Y-16823D03*
X50201Y-17020D03*
X50201Y-17217D03*
X50201Y-17414D03*
X50201Y-17611D03*
X50201Y-17807D03*
X50201Y-18004D03*
X50201Y-18201D03*
X50201Y-18397D03*
X50201Y-18594D03*
X50201Y-18791D03*
X50201Y-18987D03*
X50201Y-19184D03*
X50201Y-19381D03*
X50201Y-19578D03*
X50201Y-19775D03*
G54D58*
X49414Y-20562D03*
X49217Y-20562D03*
X49020Y-20562D03*
X48823Y-20562D03*
X48626Y-20562D03*
X48430Y-20562D03*
X48233Y-20562D03*
X48036Y-20562D03*
X47840Y-20562D03*
X47643Y-20562D03*
X47446Y-20562D03*
X47250Y-20562D03*
X47053Y-20562D03*
X46856Y-20562D03*
X46659Y-20562D03*
X46462Y-20562D03*
G54D59*
X45675Y-19775D03*
X45675Y-19578D03*
X45675Y-19381D03*
X45675Y-19184D03*
X45675Y-18987D03*
X45675Y-18791D03*
X45675Y-18594D03*
X45675Y-18397D03*
X45675Y-18201D03*
X45675Y-18004D03*
X45675Y-17807D03*
X45675Y-17611D03*
X45675Y-17414D03*
X45675Y-17217D03*
X45675Y-17020D03*
X45675Y-16823D03*
G54D33*
X41625Y-21625D03*
X41625Y-22125D03*
G54D60*
X53706Y-35500D03*
X49769Y-35500D03*
G54D61*
X51387Y-9100D03*
X49285Y-9100D03*
G54D62*
X38150Y-34073D03*
X38150Y-35726D03*
X42100Y-35726D03*
X42100Y-34073D03*
X46600Y-35726D03*
X46600Y-34073D03*
X40037Y-35726D03*
X40037Y-34073D03*
X44400Y-35726D03*
X44400Y-34073D03*
G54D63*
X41525Y-28675D03*
X39725Y-28675D03*
G54D64*
X45889Y-11650D03*
X47187Y-11650D03*
G54D65*
X42437Y-10152D03*
X42437Y-11450D03*
X34837Y-10648D03*
X34837Y-9350D03*
G54D64*
X27839Y-11100D03*
X29137Y-11100D03*
G54D65*
X26937Y-9848D03*
X26937Y-8550D03*
G54D64*
X53877Y-37025D03*
X55175Y-37025D03*
G54D65*
X47775Y-29327D03*
X47775Y-30625D03*
G54D64*
X41477Y-30225D03*
X42775Y-30225D03*
X37077Y-30225D03*
X38375Y-30225D03*
G54D66*
X47775Y-32775D03*
X47775Y-31475D03*
G54D67*
X53825Y-38275D03*
X55125Y-38275D03*
G54D66*
X38525Y-32875D03*
X38525Y-31575D03*
X43225Y-32625D03*
X43225Y-31325D03*
G54D68*
X50975Y-20125D03*
X34350Y-34900D03*
X34350Y-33900D03*
X53175Y-38275D03*
X49237Y-36812D03*
X48975Y-35125D03*
X48775Y-33375D03*
X39375Y-33125D03*
X38675Y-33475D03*
X44237Y-32300D03*
X44050Y-33100D03*
X19537Y-33300D03*
X52400Y-17400D03*
X52000Y-17400D03*
X34725Y-30825D03*
X40975Y-28725D03*
X40375Y-28275D03*
X32275Y-22425D03*
X27837Y-15000D03*
X35337Y-21150D03*
X43437Y-15500D03*
X37437Y-25600D03*
X44637Y-32150D03*
X23537Y-21100D03*
X30737Y-13950D03*
X19591Y-22454D03*
X26587Y-22150D03*
X44237Y-21000D03*
X44937Y-20300D03*
X44737Y-16800D03*
X50737Y-14800D03*
X51037Y-19700D03*
X47737Y-21400D03*
X37225Y-28475D03*
X26137Y-12900D03*
X24037Y-19300D03*
X35037Y-24700D03*
X24037Y-21450D03*
X21637Y-12600D03*
X55537Y-16400D03*
X52437Y-21400D03*
X34337Y-13800D03*
X40637Y-20800D03*
X32737Y-25600D03*
X17837Y-16100D03*
X36487Y-14900D03*
X36437Y-13550D03*
X40037Y-32200D03*
X20837Y-20800D03*
X37237Y-26600D03*
X36337Y-10600D03*
X35237Y-11800D03*
X50937Y-16300D03*
X52037Y-21400D03*
X39625Y-15275D03*
X29037Y-22400D03*
X28625Y-19975D03*
X28337Y-16100D03*
X20837Y-18800D03*
X32437Y-17700D03*
X20437Y-10200D03*
X26437Y-11800D03*
X20137Y-11000D03*
X17437Y-26900D03*
X9737Y-26300D03*
X8237Y-25200D03*
X19237Y-16900D03*
X19637Y-15900D03*
X35137Y-17400D03*
X21537Y-24600D03*
X50937Y-15800D03*
X46237Y-17200D03*
X18637Y-15200D03*
X18237Y-12500D03*
X38937Y-19700D03*
X36737Y-19100D03*
X20037Y-12300D03*
X35537Y-23200D03*
X31800Y-35550D03*
X46625Y-28425D03*
X53225Y-13575D03*
X37737Y-24100D03*
X37937Y-26200D03*
X46537Y-14400D03*
X45237Y-11600D03*
X58737Y-27900D03*
X58237Y-27900D03*
X57737Y-27900D03*
X53737Y-20900D03*
X13037Y-29600D03*
X53737Y-17800D03*
X28837Y-30600D03*
X18737Y-35200D03*
X20737Y-35600D03*
X53737Y-20500D03*
X14937Y-20300D03*
X19537Y-28200D03*
X19537Y-29100D03*
X31837Y-31000D03*
X35637Y-25900D03*
X36037Y-22800D03*
X21637Y-8700D03*
X14837Y-11950D03*
X13537Y-13300D03*
X12937Y-12100D03*
X18437Y-13900D03*
X28375Y-20225D03*
X52125Y-14725D03*
X26787Y-23550D03*
X17637Y-26200D03*
X17637Y-26600D03*
X29087Y-25000D03*
X35537Y-19100D03*
X37887Y-10050D03*
X35337Y-19400D03*
X36337Y-11000D03*
X37237Y-21000D03*
X38437Y-11050D03*
X37337Y-21400D03*
X38387Y-13550D03*
X30087Y-24350D03*
X31437Y-26700D03*
X32875Y-24375D03*
X33237Y-25000D03*
X37237Y-20600D03*
X37237Y-25900D03*
X32537Y-28400D03*
X34837Y-20200D03*
X37025Y-27825D03*
X23337Y-29600D03*
X35237Y-20200D03*
X19537Y-26000D03*
X27437Y-22600D03*
X37637Y-18900D03*
X39137Y-32200D03*
X40937Y-33700D03*
X48637Y-32500D03*
X46950Y-33500D03*
X37637Y-15550D03*
X37337Y-15300D03*
X36837Y-28400D03*
X38137Y-28400D03*
X33937Y-17100D03*
X20037Y-17200D03*
X22037Y-18100D03*
X23237Y-19100D03*
X22037Y-18900D03*
X20037Y-16800D03*
X26187Y-19100D03*
X26037Y-15900D03*
X26437Y-17900D03*
X27037Y-15600D03*
X22337Y-15800D03*
X28537Y-18100D03*
X22337Y-16200D03*
X26637Y-22950D03*
X26537Y-19100D03*
X28562Y-12575D03*
X34187Y-15250D03*
X26037Y-16300D03*
X25837Y-19100D03*
X28125Y-19975D03*
X27037Y-16000D03*
X24537Y-14500D03*
X28137Y-12800D03*
X33687Y-13950D03*
X33237Y-16700D03*
X20237Y-10600D03*
X20187Y-11400D03*
X32837Y-16700D03*
X29987Y-13950D03*
X24137Y-13100D03*
X29537Y-14000D03*
X24537Y-12950D03*
X23737Y-12700D03*
X35437Y-13800D03*
X34937Y-15200D03*
X24737Y-11400D03*
X27337Y-11500D03*
X33587Y-15200D03*
X22537Y-10900D03*
X32337Y-14000D03*
X32437Y-16700D03*
X20337Y-11800D03*
X22537Y-14050D03*
X32037Y-16700D03*
X19737Y-14000D03*
X33137Y-18300D03*
X32737Y-18200D03*
X20137Y-13300D03*
X22137Y-14050D03*
X31237Y-16600D03*
X21737Y-14050D03*
X30737Y-16600D03*
X31537Y-13950D03*
X24087Y-13500D03*
X24537Y-13500D03*
X31137Y-13950D03*
X24437Y-18300D03*
X23437Y-18200D03*
X19537Y-18300D03*
X22037Y-18500D03*
X22687Y-15225D03*
X26237Y-18500D03*
X23087Y-16400D03*
X23037Y-15300D03*
X20287Y-15200D03*
X34037Y-16700D03*
X24537Y-24700D03*
X30437Y-21650D03*
X28287Y-25450D03*
X28037Y-26100D03*
X32637Y-26500D03*
X27837Y-25450D03*
X29637Y-22000D03*
X26387Y-27050D03*
X29037Y-22050D03*
X28687Y-25450D03*
X23437Y-23800D03*
X30437Y-22100D03*
X37187Y-16050D03*
X27937Y-24400D03*
X29425Y-22475D03*
X28737Y-21900D03*
X27537Y-24300D03*
X32237Y-24900D03*
X36987Y-15500D03*
X48437Y-19500D03*
X42525Y-18625D03*
X49437Y-18900D03*
X46537Y-18300D03*
X46837Y-18500D03*
X48237Y-17600D03*
X47237Y-18500D03*
X49037Y-18900D03*
X43925Y-28825D03*
X28337Y-21900D03*
X26537Y-24600D03*
X51075Y-14825D03*
X20587Y-20000D03*
X26937Y-19100D03*
X44325Y-28825D03*
X27437Y-23200D03*
X16237Y-19850D03*
X18837Y-25900D03*
X51425Y-14825D03*
X16637Y-20400D03*
X22537Y-21400D03*
X26837Y-17900D03*
X36137Y-27000D03*
X37337Y-22600D03*
X32537Y-18800D03*
X28637Y-19200D03*
X33137Y-18700D03*
X37337Y-22200D03*
X28737Y-19600D03*
X26937Y-18700D03*
X17437Y-18300D03*
X17337Y-16700D03*
X26787Y-18275D03*
X42025Y-14075D03*
X28837Y-16500D03*
X42037Y-12400D03*
X29137Y-14000D03*
X42137Y-13500D03*
X29237Y-15650D03*
X42425Y-21025D03*
X33237Y-21600D03*
X34237Y-21600D03*
X31937Y-19750D03*
X30837Y-21100D03*
X30037Y-21000D03*
X31487Y-19750D03*
X31137Y-23600D03*
X31937Y-20400D03*
X32437Y-19800D03*
X24387Y-26300D03*
X30487Y-23950D03*
X43937Y-21200D03*
X49137Y-18300D03*
X43637Y-21000D03*
X49337Y-17600D03*
X48537Y-18250D03*
X43237Y-21000D03*
X48137Y-18250D03*
X42837Y-21000D03*
X47737Y-18400D03*
X29437Y-23950D03*
X28987Y-24400D03*
X47537Y-18700D03*
X28437Y-18800D03*
X28337Y-18400D03*
X45837Y-20450D03*
X45737Y-16500D03*
X49237Y-19700D03*
X48637Y-15500D03*
X57537Y-23500D03*
X39537Y-23900D03*
X39575Y-20325D03*
X37537Y-9600D03*
X40737Y-10500D03*
X40737Y-11100D03*
X39237Y-13500D03*
X39137Y-12450D03*
X43137Y-9000D03*
X46537Y-9800D03*
X50737Y-12000D03*
X33737Y-11700D03*
X33237Y-8400D03*
X22937Y-14900D03*
X24537Y-15800D03*
X24837Y-16300D03*
X24637Y-17700D03*
X16337Y-27100D03*
X16737Y-27100D03*
X37525Y-28175D03*
X35037Y-22400D03*
X39737Y-25900D03*
X34437Y-22400D03*
X39837Y-27100D03*
X39737Y-26300D03*
X34637Y-21800D03*
X32225Y-23925D03*
X45125Y-28825D03*
X45575Y-27425D03*
X32575Y-23575D03*
X33025Y-28425D03*
X46137Y-16200D03*
X40937Y-21000D03*
X41625Y-22975D03*
X37737Y-27600D03*
X19087Y-20650D03*
X20537Y-25700D03*
X30437Y-26350D03*
X41137Y-26500D03*
X31937Y-24200D03*
X27475Y-15075D03*
X51775Y-14825D03*
X44725Y-28825D03*
X28625Y-23925D03*
X42775Y-27675D03*
X44475Y-25825D03*
X34275Y-20175D03*
X29037Y-18800D03*
X41925Y-19625D03*
X39725Y-21275D03*
X39575Y-20725D03*
X42325Y-19625D03*
X28337Y-17200D03*
X37337Y-21800D03*
X41425Y-25675D03*
X34725Y-30225D03*
X40375Y-28725D03*
X42475Y-26525D03*
X29837Y-21300D03*
X15137Y-18500D03*
X14537Y-18500D03*
X14437Y-20000D03*
X15337Y-33200D03*
X10037Y-36000D03*
X18046Y-34409D03*
X34437Y-26600D03*
X26237Y-30900D03*
X22737Y-31300D03*
X17837Y-35600D03*
X30137Y-31000D03*
X29437Y-29000D03*
X25337Y-31200D03*
X23737Y-27300D03*
X22137Y-31300D03*
X17837Y-36100D03*
X30037Y-30500D03*
X28937Y-29500D03*
X25137Y-30800D03*
X25137Y-27100D03*
X24487Y-25300D03*
X20937Y-31400D03*
X17437Y-36400D03*
X39587Y-22950D03*
X36837Y-25900D03*
X37037Y-24200D03*
X45425Y-9325D03*
X53900Y-24750D03*
X55050Y-25250D03*
X52900Y-24950D03*
X38437Y-19100D03*
X32837Y-21800D03*
X33025Y-19525D03*
X28537Y-21600D03*
X50275Y-8975D03*
X52237Y-19000D03*
X57237Y-36200D03*
X57237Y-36600D03*
X55075Y-36075D03*
X55625Y-36075D03*
X39625Y-15625D03*
X40125Y-18075D03*
X34787Y-26300D03*
X47787Y-17200D03*
X52437Y-9000D03*
X31837Y-22000D03*
X37037Y-21600D03*
X36737Y-22700D03*
X52937Y-27100D03*
X46237Y-16600D03*
X57437Y-32200D03*
X57437Y-31800D03*
X42337Y-32150D03*
X46837Y-32150D03*
X44787Y-19700D03*
X45837Y-20100D03*
X45737Y-16100D03*
X30337Y-13950D03*
X19537Y-23250D03*
X28337Y-22300D03*
X37987Y-13550D03*
X36337Y-12500D03*
X44037Y-15400D03*
X44637Y-18000D03*
X47437Y-19900D03*
X48937Y-21200D03*
X45837Y-14600D03*
X48237Y-15500D03*
X49337Y-15500D03*
X49037Y-16600D03*
X50837Y-18500D03*
X48637Y-17600D03*
X59437Y-23700D03*
X21037Y-24600D03*
X16637Y-24800D03*
X55437Y-28500D03*
X55437Y-28900D03*
X58237Y-31800D03*
X58237Y-32200D03*
X57637Y-11800D03*
X57537Y-16400D03*
X57537Y-20800D03*
X54537Y-21000D03*
X54537Y-30400D03*
X54537Y-30700D03*
X12137Y-25400D03*
X18237Y-22350D03*
X18487Y-22050D03*
X18487Y-22650D03*
X17937Y-22050D03*
X17937Y-22650D03*
X13937Y-17200D03*
X14537Y-16200D03*
X31737Y-26000D03*
X43037Y-35800D03*
X19937Y-11800D03*
X26137Y-10600D03*
X43537Y-11500D03*
X50537Y-21100D03*
X53837Y-14000D03*
X55537Y-15400D03*
X55537Y-15900D03*
X37737Y-23700D03*
X38137Y-21800D03*
X38837Y-17600D03*
X37037Y-17600D03*
X43437Y-16800D03*
X34837Y-18200D03*
X26937Y-17000D03*
X30437Y-19300D03*
X31237Y-17200D03*
X28475Y-15775D03*
X16737Y-19900D03*
X15937Y-17200D03*
X12537Y-21400D03*
X10037Y-25600D03*
X48837Y-19500D03*
X45237Y-32200D03*
X34237Y-17300D03*
X35037Y-16850D03*
X41137Y-32200D03*
X35637Y-32300D03*
X37637Y-32200D03*
X19237Y-30000D03*
X16537Y-24300D03*
X14237Y-25000D03*
X11637Y-27300D03*
X19037Y-21300D03*
X20237Y-25400D03*
X23937Y-30800D03*
X24237Y-29400D03*
X27937Y-30800D03*
X27637Y-29100D03*
X32637Y-30100D03*
X36337Y-26600D03*
X20037Y-16400D03*
X18637Y-18200D03*
X15337Y-20300D03*
X14737Y-23600D03*
X36337Y-11600D03*
X37837Y-10700D03*
X47137Y-8700D03*
X46637Y-12900D03*
X43937Y-13000D03*
X38737Y-34800D03*
X47937Y-34800D03*
X52737Y-34800D03*
X50037Y-32200D03*
X50437Y-32200D03*
X34737Y-13800D03*
X41037Y-19400D03*
X37037Y-25500D03*
X35237Y-25800D03*
X31037Y-24200D03*
X27537Y-23900D03*
X24837Y-18300D03*
X21237Y-18800D03*
X20137Y-17800D03*
X20337Y-14500D03*
X19137Y-15900D03*
X21637Y-13700D03*
X24737Y-14800D03*
X22337Y-11900D03*
X26237Y-12500D03*
X12537Y-22300D03*
X16337Y-16800D03*
X18237Y-18000D03*
X11100Y-31950D03*
X11100Y-31600D03*
X20187Y-13700D03*
X17887Y-12450D03*
X23437Y-11000D03*
X9037Y-35300D03*
X18937Y-11400D03*
X19237Y-14000D03*
X28637Y-10500D03*
X19837Y-8900D03*
X38937Y-19000D03*
X24137Y-10000D03*
X18337Y-13400D03*
X26637Y-10600D03*
X36637Y-17600D03*
X12037Y-30600D03*
X12237Y-35200D03*
X18037Y-33600D03*
X17537Y-10800D03*
X15637Y-14300D03*
X33637Y-24200D03*
X22837Y-8600D03*
X25637Y-9800D03*
X27037Y-11700D03*
X20437Y-8900D03*
X15937Y-8700D03*
X15637Y-12500D03*
X57637Y-10600D03*
X57637Y-13800D03*
X48837Y-13200D03*
X48837Y-13700D03*
X28737Y-27000D03*
X17137Y-27100D03*
X47787Y-16600D03*
X47137Y-15400D03*
X33037Y-20450D03*
X18837Y-16800D03*
X18237Y-16800D03*
X13937Y-17600D03*
X13537Y-18200D03*
X14737Y-15300D03*
X17037Y-15800D03*
X54425Y-33325D03*
X54425Y-33725D03*
X54425Y-34125D03*
X55237Y-26600D03*
X54737Y-26600D03*
X54737Y-27100D03*
X55237Y-27100D03*
X21037Y-21700D03*
X16637Y-23900D03*
X14337Y-22400D03*
X19937Y-22050D03*
X19037Y-23700D03*
X22237Y-23200D03*
X22537Y-22400D03*
X28387Y-27200D03*
X22537Y-22000D03*
X58237Y-19600D03*
X58637Y-19600D03*
X57537Y-20100D03*
X57637Y-22600D03*
X24537Y-11700D03*
X20537Y-9800D03*
X17637Y-13400D03*
X19087Y-10200D03*
X18937Y-10800D03*
X25587Y-9250D03*
X23337Y-8900D03*
X17437Y-9150D03*
X16637Y-10700D03*
X41137Y-26900D03*
X57237Y-16900D03*
X57237Y-17300D03*
X57637Y-18300D03*
X57637Y-15200D03*
X38837Y-13500D03*
X35087Y-12400D03*
X42437Y-10800D03*
X27037Y-13800D03*
X37937Y-12500D03*
X39037Y-11050D03*
X30437Y-11600D03*
X29337Y-12400D03*
X25987Y-14900D03*
X29737Y-12400D03*
X28337Y-11800D03*
X30037Y-9600D03*
X26637Y-14200D03*
X26337Y-14450D03*
X40825Y-11825D03*
X41325Y-11975D03*
X17137Y-28600D03*
X14737Y-28700D03*
X15537Y-28600D03*
X16337Y-28600D03*
X37637Y-32800D03*
X54637Y-29300D03*
X52100Y-28650D03*
X42437Y-32500D03*
X54237Y-29300D03*
X52750Y-28700D03*
X53387Y-27100D03*
X46637Y-32500D03*
X52037Y-36000D03*
X53437Y-29300D03*
X48437Y-34800D03*
X39100Y-35800D03*
X43500Y-35700D03*
X43450Y-34050D03*
X12937Y-32700D03*
X14737Y-33100D03*
X42087Y-18450D03*
G54D69*
X34600Y-34073D02*
X34600Y-34650D01*
X34600Y-34650D02*
X34350Y-34900D01*
X38150Y-34073D02*
X34600Y-34073D01*
X34600Y-34073D02*
X34523Y-34073D01*
X34523Y-34073D02*
X34350Y-33900D01*
X53825Y-38275D02*
X53175Y-38275D01*
X53175Y-38275D02*
X53125Y-38325D01*
X49237Y-36675D02*
X49237Y-36812D01*
X49580Y-33100D02*
X49580Y-34519D01*
X49580Y-34519D02*
X48975Y-35125D01*
X47775Y-32775D02*
X47775Y-32875D01*
X48275Y-33375D02*
X48775Y-33375D01*
X47775Y-32875D02*
X48275Y-33375D01*
X39375Y-33125D02*
X39025Y-33125D01*
X39025Y-33125D02*
X38675Y-33475D01*
X38525Y-32875D02*
X39125Y-32875D01*
X39125Y-32875D02*
X39375Y-33125D01*
X39125Y-32875D02*
X39375Y-33125D01*
X43475Y-25925D02*
X42275Y-25925D01*
X42025Y-26175D02*
X42025Y-27375D01*
X42275Y-25925D02*
X42025Y-26175D01*
X42725Y-28525D02*
X42025Y-27825D01*
X42025Y-27825D02*
X42025Y-27375D01*
X44237Y-30075D02*
X44237Y-30037D01*
X44237Y-30037D02*
X42725Y-28525D01*
X44237Y-30300D02*
X44237Y-30075D01*
X44237Y-30300D02*
X44237Y-32300D01*
X42025Y-27375D02*
X42025Y-26725D01*
X43662Y-25925D02*
X44437Y-25150D01*
X43475Y-25925D02*
X43662Y-25925D01*
X43475Y-25925D02*
X42825Y-25925D01*
X44437Y-24150D02*
X44437Y-25150D01*
X49237Y-36031D02*
X49769Y-35500D01*
X49237Y-38100D02*
X49237Y-36675D01*
X49237Y-36675D02*
X49237Y-36031D01*
X49537Y-38400D02*
X49237Y-38100D01*
X49637Y-34950D02*
X49637Y-33456D01*
X49637Y-33456D02*
X49580Y-33400D01*
X43950Y-33100D02*
X44050Y-33100D01*
X44050Y-33100D02*
X44050Y-33000D01*
X49637Y-34950D02*
X50087Y-34950D01*
X48537Y-33000D02*
X48837Y-33000D01*
X48837Y-33000D02*
X49180Y-33000D01*
X49180Y-33000D02*
X49580Y-33400D01*
X49580Y-33400D02*
X49580Y-34243D01*
X49580Y-34743D02*
X49580Y-34243D01*
X49580Y-33400D02*
X49437Y-33543D01*
X49580Y-33343D02*
X49580Y-33400D01*
G54D70*
X36037Y-31200D02*
X35100Y-31200D01*
X35100Y-31200D02*
X34725Y-30825D01*
X40975Y-28725D02*
X41025Y-28675D01*
X41025Y-28675D02*
X41525Y-28675D01*
X40425Y-28125D02*
X40425Y-28225D01*
X40425Y-27575D02*
X40425Y-28125D01*
X40425Y-28225D02*
X40375Y-28275D01*
X40033Y-15775D02*
X40033Y-15433D01*
X39875Y-15275D02*
X39625Y-15275D01*
X40033Y-15433D02*
X39875Y-15275D01*
X32275Y-22425D02*
X31712Y-22425D01*
X31637Y-22500D02*
X31637Y-22704D01*
X31712Y-22425D02*
X31637Y-22500D01*
X28125Y-20829D02*
X28321Y-20829D01*
X28637Y-20512D02*
X28625Y-19975D01*
X28321Y-20829D02*
X28637Y-20512D01*
X26625Y-19929D02*
X26625Y-19775D01*
X26775Y-19625D02*
X27725Y-19625D01*
X26625Y-19775D02*
X26775Y-19625D01*
X26625Y-21721D02*
X26625Y-22112D01*
X26625Y-22112D02*
X26587Y-22150D01*
X28625Y-19975D02*
X28625Y-19962D01*
X28275Y-19625D02*
X27725Y-19625D01*
X28625Y-19962D02*
X28275Y-19625D01*
X27825Y-14975D02*
X27825Y-14987D01*
X27825Y-14987D02*
X27837Y-15000D01*
X38864Y-15300D02*
X39599Y-15300D01*
X39599Y-15300D02*
X39625Y-15275D01*
X39599Y-15300D02*
X39625Y-15275D01*
X40033Y-16304D02*
X40033Y-15775D01*
X40021Y-18575D02*
X40021Y-18371D01*
X40033Y-17516D02*
X40033Y-17400D01*
X39725Y-17825D02*
X40033Y-17516D01*
X39725Y-18075D02*
X39725Y-17825D01*
X40021Y-18371D02*
X39725Y-18075D01*
X43037Y-15200D02*
X43037Y-15350D01*
X43187Y-15500D02*
X43437Y-15500D01*
X43037Y-15350D02*
X43187Y-15500D01*
X43037Y-15200D02*
X43137Y-15200D01*
X43037Y-15200D02*
X42587Y-15200D01*
X42537Y-15250D02*
X42587Y-15200D01*
X42537Y-15250D02*
X42137Y-15250D01*
X37237Y-25100D02*
X37237Y-25200D01*
X37237Y-25200D02*
X37437Y-25400D01*
X37437Y-25600D02*
X37437Y-25500D01*
X37437Y-25400D02*
X37437Y-25600D01*
X45337Y-30900D02*
X45037Y-30900D01*
X45037Y-30900D02*
X44637Y-31300D01*
X44637Y-31300D02*
X44637Y-32150D01*
X23637Y-20600D02*
X23637Y-21000D01*
X23537Y-21100D02*
X23487Y-21050D01*
X23637Y-21000D02*
X23537Y-21100D01*
X31033Y-14246D02*
X30737Y-13950D01*
X31033Y-14246D02*
X31033Y-14400D01*
X45037Y-19800D02*
X45037Y-20200D01*
X45037Y-20200D02*
X44937Y-20300D01*
X45675Y-19578D02*
X45259Y-19578D01*
X45259Y-19578D02*
X45037Y-19800D01*
X44137Y-20496D02*
X44137Y-20900D01*
X44137Y-20900D02*
X44237Y-21000D01*
X45675Y-18397D02*
X46034Y-18397D01*
X46034Y-18397D02*
X46237Y-18194D01*
X50337Y-14800D02*
X50737Y-14800D01*
X50915Y-19578D02*
X50201Y-19578D01*
X51037Y-19700D02*
X50915Y-19578D01*
X47643Y-21306D02*
X47737Y-21400D01*
X47643Y-21306D02*
X47643Y-20562D01*
X50201Y-17414D02*
X50723Y-17414D01*
X50937Y-17200D02*
X50937Y-16300D01*
X50723Y-17414D02*
X50937Y-17200D01*
X50937Y-17000D02*
X50937Y-16300D01*
X20937Y-22450D02*
X21387Y-22450D01*
X21637Y-22200D02*
X21987Y-22200D01*
X21387Y-22450D02*
X21637Y-22200D01*
X20937Y-22450D02*
X19941Y-22450D01*
X19941Y-22450D02*
X19937Y-22454D01*
X52237Y-20650D02*
X52237Y-21300D01*
X52237Y-21300D02*
X52037Y-21400D01*
X37237Y-28800D02*
X37225Y-28475D01*
X26637Y-12796D02*
X26241Y-12796D01*
X26137Y-12900D02*
X26241Y-12796D01*
X23637Y-19550D02*
X23787Y-19550D01*
X23787Y-19550D02*
X24037Y-19300D01*
X35133Y-24604D02*
X35037Y-24700D01*
X35133Y-24604D02*
X35437Y-24604D01*
X24037Y-21450D02*
X24187Y-21300D01*
X24187Y-21300D02*
X24487Y-21300D01*
X24487Y-20600D02*
X24487Y-21300D01*
X38864Y-16300D02*
X39937Y-16300D01*
X40037Y-16300D02*
X40033Y-16304D01*
X40837Y-17500D02*
X40337Y-17500D01*
X40337Y-17500D02*
X40237Y-17400D01*
X40237Y-17400D02*
X40033Y-17400D01*
X52437Y-21400D02*
X52037Y-21400D01*
X52237Y-21200D02*
X52437Y-21400D01*
X34737Y-17200D02*
X34937Y-17200D01*
X34937Y-17200D02*
X35137Y-17400D01*
X27637Y-16096D02*
X27637Y-16400D01*
X27637Y-16400D02*
X27737Y-16500D01*
X28337Y-16300D02*
X28337Y-16100D01*
X28137Y-16500D02*
X28337Y-16300D01*
X27737Y-16500D02*
X28137Y-16500D01*
X25941Y-17200D02*
X25941Y-16896D01*
X27537Y-16500D02*
X27637Y-16400D01*
X26637Y-16500D02*
X27537Y-16500D01*
X26337Y-16800D02*
X26637Y-16500D01*
X26037Y-16800D02*
X26337Y-16800D01*
X25941Y-16896D02*
X26037Y-16800D01*
X25941Y-17200D02*
X25941Y-17396D01*
X26145Y-17600D02*
X26237Y-17600D01*
X25941Y-17396D02*
X26145Y-17600D01*
X27037Y-17600D02*
X27187Y-17750D01*
X27664Y-17750D02*
X27187Y-17750D01*
X26237Y-17600D02*
X27037Y-17600D01*
X30737Y-18200D02*
X30937Y-18200D01*
X30937Y-18200D02*
X31137Y-18000D01*
X27637Y-15996D02*
X27637Y-16196D01*
X34441Y-14004D02*
X34441Y-13904D01*
X34441Y-14004D02*
X34441Y-14400D01*
X34441Y-13904D02*
X34337Y-13800D01*
X35837Y-9300D02*
X35537Y-9300D01*
X35537Y-10500D02*
X35837Y-10500D01*
X35437Y-10400D02*
X35537Y-10500D01*
X35437Y-9400D02*
X35437Y-10400D01*
X35537Y-9300D02*
X35437Y-9400D01*
X40637Y-21600D02*
X40637Y-21200D01*
X40637Y-21200D02*
X40637Y-20800D01*
X28625Y-19975D02*
X28725Y-19975D01*
X28888Y-20151D02*
X29295Y-20151D01*
X28725Y-19975D02*
X28888Y-20151D01*
X32237Y-25404D02*
X32541Y-25404D01*
X32541Y-25404D02*
X32737Y-25600D01*
X17837Y-15600D02*
X17837Y-16100D01*
X35937Y-13500D02*
X36387Y-13500D01*
X36387Y-13500D02*
X36437Y-13550D01*
X40737Y-31000D02*
X40237Y-31000D01*
X40037Y-31200D02*
X40037Y-32200D01*
X40237Y-31000D02*
X40037Y-31200D01*
X19637Y-20804D02*
X20333Y-20804D01*
X20333Y-20804D02*
X20337Y-20800D01*
X20837Y-20800D02*
X20337Y-20800D01*
X22037Y-21600D02*
X22037Y-22150D01*
X22037Y-22150D02*
X21987Y-22200D01*
X21887Y-24246D02*
X21887Y-24450D01*
X21737Y-24600D02*
X21537Y-24600D01*
X21887Y-24450D02*
X21737Y-24600D01*
X37737Y-26600D02*
X37237Y-26600D01*
X35937Y-10500D02*
X36237Y-10500D01*
X36237Y-10500D02*
X36337Y-10600D01*
X35237Y-11800D02*
X35337Y-11700D01*
X35337Y-11700D02*
X35837Y-11700D01*
X42887Y-15250D02*
X42987Y-15250D01*
X50937Y-16300D02*
X50937Y-16600D01*
X40033Y-17400D02*
X40033Y-16304D01*
X39937Y-16300D02*
X40037Y-16300D01*
X40033Y-17400D02*
X40033Y-16696D01*
X35437Y-24600D02*
X35337Y-24500D01*
X27837Y-22904D02*
X28733Y-22904D01*
X29037Y-22600D02*
X29037Y-22400D01*
X28733Y-22904D02*
X29037Y-22600D01*
X20841Y-18804D02*
X20841Y-19150D01*
X20837Y-18800D02*
X20841Y-18804D01*
X31337Y-17800D02*
X31764Y-17800D01*
X31137Y-18000D02*
X31337Y-17800D01*
X32233Y-17150D02*
X32233Y-17496D01*
X32337Y-17800D02*
X32437Y-17700D01*
X32337Y-17800D02*
X31764Y-17800D01*
X32233Y-17496D02*
X32437Y-17700D01*
X16987Y-26500D02*
X17037Y-26500D01*
X17037Y-26500D02*
X17437Y-26900D01*
X9087Y-26400D02*
X9637Y-26400D01*
X9637Y-26400D02*
X9737Y-26300D01*
X8187Y-25700D02*
X8187Y-25250D01*
X8187Y-25250D02*
X8237Y-25200D01*
X19237Y-16900D02*
X19237Y-16896D01*
X35087Y-17350D02*
X35137Y-17400D01*
X35233Y-17496D02*
X35537Y-17496D01*
X35137Y-17400D02*
X35233Y-17496D01*
X19941Y-22450D02*
X19937Y-22454D01*
X19591Y-22454D02*
X19937Y-22454D01*
X19587Y-22450D02*
X19591Y-22454D01*
X46237Y-18194D02*
X46237Y-17200D01*
X20637Y-12625D02*
X20637Y-12487D01*
X20450Y-12300D02*
X20037Y-12300D01*
X20637Y-12487D02*
X20450Y-12300D01*
X17662Y-14800D02*
X17662Y-15025D01*
X17662Y-15025D02*
X17837Y-15200D01*
X17837Y-15200D02*
X18637Y-15200D01*
X18087Y-12150D02*
X18237Y-12300D01*
X18237Y-12300D02*
X18237Y-12500D01*
X17762Y-12000D02*
X17937Y-12000D01*
X17937Y-12000D02*
X18087Y-12150D01*
X22612Y-11400D02*
X21587Y-11400D01*
X34887Y-23300D02*
X35437Y-23300D01*
X35437Y-23300D02*
X35537Y-23200D01*
X34633Y-24400D02*
X34737Y-24400D01*
X34887Y-24250D02*
X34887Y-23300D01*
X34737Y-24400D02*
X34887Y-24250D01*
X20037Y-12300D02*
X20337Y-12300D01*
X20787Y-11400D02*
X20637Y-11550D01*
X20887Y-11400D02*
X20787Y-11400D01*
X20887Y-11400D02*
X21587Y-11400D01*
X20637Y-11550D02*
X20637Y-12000D01*
X20337Y-12300D02*
X20637Y-12000D01*
X36737Y-18696D02*
X36737Y-19100D01*
X39337Y-19896D02*
X39133Y-19896D01*
X39133Y-19896D02*
X38937Y-19700D01*
X18437Y-15600D02*
X18437Y-15400D01*
X18437Y-15400D02*
X18637Y-15200D01*
X36737Y-18600D02*
X36737Y-19100D01*
X34887Y-24246D02*
X34733Y-24400D01*
X34887Y-24246D02*
X34733Y-24400D01*
X17762Y-12000D02*
X17762Y-12125D01*
G54D71*
X31300Y-34869D02*
X31300Y-35350D01*
X31500Y-35550D02*
X31800Y-35550D01*
X31300Y-35350D02*
X31500Y-35550D01*
X46664Y-29700D02*
X46664Y-28414D01*
X46664Y-28414D02*
X46625Y-28425D01*
X37237Y-23796D02*
X37237Y-23900D01*
X37437Y-24100D02*
X37737Y-24100D01*
X37237Y-23900D02*
X37437Y-24100D01*
X44633Y-11500D02*
X45137Y-11500D01*
X45137Y-11500D02*
X45237Y-11600D01*
X57707Y-30220D02*
X57707Y-29630D01*
X58737Y-27900D02*
X58237Y-27900D01*
X13737Y-29500D02*
X13137Y-29500D01*
X13137Y-29500D02*
X13037Y-29600D01*
X16437Y-30200D02*
X15537Y-30200D01*
X15537Y-30200D02*
X14837Y-30200D01*
X14637Y-30000D02*
X14637Y-29900D01*
X14837Y-30200D02*
X14637Y-30000D01*
X14637Y-29900D02*
X14137Y-29900D01*
X14137Y-29900D02*
X13737Y-29500D01*
X28437Y-30031D02*
X28768Y-30031D01*
X28837Y-30100D02*
X28837Y-30600D01*
X28768Y-30031D02*
X28837Y-30100D01*
X18837Y-34669D02*
X18837Y-35100D01*
X18837Y-35100D02*
X18737Y-35200D01*
X21168Y-35169D02*
X21737Y-35169D01*
X20737Y-35600D02*
X21168Y-35169D01*
X14737Y-20500D02*
X14937Y-20300D01*
X14737Y-20500D02*
X14737Y-21223D01*
X57737Y-27900D02*
X58298Y-28261D01*
X58298Y-29039D02*
X58298Y-28800D01*
X57707Y-29630D02*
X58298Y-29039D01*
X58298Y-28261D02*
X58298Y-28800D01*
G54D70*
X19537Y-29100D02*
X19537Y-28200D01*
X36037Y-22800D02*
X35937Y-22900D01*
X35937Y-25500D02*
X35937Y-25600D01*
X35937Y-25600D02*
X35637Y-25900D01*
X35937Y-22900D02*
X35937Y-25500D01*
X21737Y-8800D02*
X21637Y-8700D01*
X22487Y-9850D02*
X22487Y-9550D01*
X21737Y-9200D02*
X21737Y-8800D01*
X21937Y-9400D02*
X21737Y-9200D01*
X22337Y-9400D02*
X21937Y-9400D01*
X22487Y-9550D02*
X22337Y-9400D01*
X21737Y-8800D02*
X21637Y-8800D01*
X21637Y-8800D02*
X21737Y-8800D01*
X23141Y-9750D02*
X22837Y-9750D01*
X22737Y-9850D02*
X22487Y-9850D01*
X22837Y-9750D02*
X22737Y-9850D01*
X15737Y-14900D02*
X15937Y-15100D01*
X15362Y-12775D02*
X15362Y-14525D01*
X15362Y-14525D02*
X15737Y-14900D01*
X15362Y-12775D02*
X14837Y-12250D01*
X14837Y-12250D02*
X14837Y-11950D01*
X18037Y-16500D02*
X17737Y-16800D01*
X18637Y-16500D02*
X18037Y-16500D01*
X18837Y-16300D02*
X18637Y-16500D01*
X17737Y-16800D02*
X17337Y-17200D01*
X17337Y-17200D02*
X16337Y-17200D01*
X16337Y-17200D02*
X15987Y-16850D01*
X19137Y-14996D02*
X19137Y-15500D01*
X19137Y-15500D02*
X18837Y-15800D01*
X18837Y-15800D02*
X18837Y-16300D01*
X15937Y-15100D02*
X15937Y-16800D01*
X15937Y-16800D02*
X15987Y-16850D01*
X19237Y-14996D02*
X19933Y-14996D01*
X19933Y-14996D02*
X19937Y-15000D01*
X13537Y-12700D02*
X13537Y-13300D01*
X12937Y-12100D02*
X13537Y-12700D01*
X18987Y-13596D02*
X18791Y-13596D01*
X18791Y-13596D02*
X18437Y-13900D01*
X18987Y-13596D02*
X19733Y-13596D01*
X19733Y-13596D02*
X19737Y-13600D01*
X49437Y-22812D02*
X49437Y-24150D01*
X50125Y-22125D02*
X49437Y-22812D01*
X52575Y-22125D02*
X50125Y-22125D01*
X53075Y-21625D02*
X52575Y-22125D01*
X53075Y-17125D02*
X53075Y-21625D01*
X52125Y-16175D02*
X53075Y-17125D01*
X52125Y-16125D02*
X52125Y-16175D01*
X52125Y-14725D02*
X52125Y-16125D01*
X13537Y-21750D02*
X13787Y-22000D01*
X13787Y-22000D02*
X15737Y-22000D01*
X15737Y-22000D02*
X17737Y-24000D01*
X13537Y-21750D02*
X13137Y-21750D01*
X17737Y-26000D02*
X17737Y-24000D01*
X17737Y-26100D02*
X17637Y-26200D01*
X17737Y-26000D02*
X17737Y-26100D01*
X17737Y-26500D02*
X17637Y-26600D01*
X17837Y-26500D02*
X17737Y-26500D01*
X17937Y-26100D02*
X17937Y-26400D01*
X17937Y-26400D02*
X17837Y-26500D01*
X15737Y-21700D02*
X17937Y-23900D01*
X17937Y-23900D02*
X17937Y-26100D01*
X17937Y-26100D02*
X17937Y-26200D01*
X15737Y-21223D02*
X15737Y-21700D01*
X37120Y-10000D02*
X37837Y-10000D01*
X37887Y-10050D02*
X37837Y-10000D01*
X35837Y-9900D02*
X35837Y-10000D01*
X36237Y-10100D02*
X36337Y-10000D01*
X35937Y-10100D02*
X36237Y-10100D01*
X35837Y-10000D02*
X35937Y-10100D01*
X36337Y-10000D02*
X37120Y-10000D01*
X36337Y-11000D02*
X37120Y-11000D01*
X35937Y-11100D02*
X36337Y-11100D01*
X36437Y-11000D02*
X37120Y-11000D01*
X36337Y-11100D02*
X36437Y-11000D01*
X38137Y-11350D02*
X38437Y-11050D01*
X37887Y-12000D02*
X37120Y-12000D01*
X38137Y-11750D02*
X37887Y-12000D01*
X38137Y-11750D02*
X38137Y-11350D01*
X36137Y-12200D02*
X36187Y-12200D01*
X36187Y-12200D02*
X36337Y-12050D01*
X36387Y-12000D02*
X36337Y-12050D01*
X36487Y-12000D02*
X36387Y-12000D01*
X36487Y-12000D02*
X37120Y-12000D01*
X35837Y-12300D02*
X36037Y-12300D01*
X36037Y-12300D02*
X36137Y-12200D01*
X38387Y-13550D02*
X38387Y-13150D01*
X38387Y-13150D02*
X38337Y-13100D01*
X38237Y-13000D02*
X37120Y-13000D01*
X38237Y-13000D02*
X38337Y-13100D01*
X35937Y-13000D02*
X37120Y-13000D01*
X25425Y-27900D02*
X25350Y-27900D01*
X24775Y-26962D02*
X25837Y-25900D01*
X24775Y-27325D02*
X24775Y-26962D01*
X25350Y-27900D02*
X24775Y-27325D01*
X29375Y-24775D02*
X29799Y-24350D01*
X29799Y-24350D02*
X29825Y-24350D01*
X29375Y-25125D02*
X28749Y-25750D01*
X29375Y-24775D02*
X29375Y-25125D01*
X27437Y-27800D02*
X27337Y-27900D01*
X27737Y-27500D02*
X27437Y-27800D01*
X27737Y-27400D02*
X27737Y-27500D01*
X27337Y-27900D02*
X25425Y-27900D01*
X23037Y-19550D02*
X23037Y-19300D01*
X23037Y-19300D02*
X22937Y-19200D01*
X22937Y-17300D02*
X22837Y-17200D01*
X22937Y-19200D02*
X22937Y-17300D01*
X23037Y-19550D02*
X23037Y-19750D01*
X23037Y-19750D02*
X23237Y-19950D01*
X23487Y-19950D02*
X23887Y-19950D01*
X26387Y-25200D02*
X26387Y-25650D01*
X25987Y-21200D02*
X25987Y-24500D01*
X25987Y-24500D02*
X25987Y-24650D01*
X26137Y-25900D02*
X26387Y-25650D01*
X25837Y-25900D02*
X26137Y-25900D01*
X26387Y-25050D02*
X25987Y-24650D01*
X26387Y-25200D02*
X26387Y-25050D01*
X23237Y-19950D02*
X23487Y-19950D01*
X24337Y-19700D02*
X25337Y-19700D01*
X25987Y-20150D02*
X25537Y-19700D01*
X25537Y-19700D02*
X25337Y-19700D01*
X25987Y-21200D02*
X25987Y-20150D01*
X23887Y-19950D02*
X24137Y-19700D01*
X24137Y-19700D02*
X24337Y-19700D01*
X22537Y-16900D02*
X22837Y-17200D01*
X22837Y-17200D02*
X22887Y-17250D01*
X27937Y-25750D02*
X28749Y-25750D01*
X27737Y-25950D02*
X27737Y-27400D01*
X27737Y-25950D02*
X27937Y-25750D01*
X27737Y-27400D02*
X27737Y-27450D01*
X29825Y-24350D02*
X30087Y-24350D01*
X22037Y-16400D02*
X21987Y-16350D01*
X22787Y-17150D02*
X22537Y-16900D01*
X22537Y-16900D02*
X22037Y-16400D01*
X21887Y-16250D02*
X21787Y-16150D01*
X21987Y-16350D02*
X21887Y-16250D01*
X21787Y-16150D02*
X21787Y-14650D01*
X21437Y-14300D02*
X20970Y-14300D01*
X21787Y-14650D02*
X21437Y-14300D01*
X25237Y-28100D02*
X25237Y-28087D01*
X24575Y-26862D02*
X25187Y-26250D01*
X24575Y-27425D02*
X24575Y-26862D01*
X25237Y-28087D02*
X24575Y-27425D01*
X31637Y-28000D02*
X31887Y-27750D01*
X31887Y-27750D02*
X31887Y-27150D01*
X31887Y-27150D02*
X31437Y-26700D01*
X30237Y-28000D02*
X31637Y-28000D01*
X25237Y-28100D02*
X27437Y-28100D01*
X27437Y-28100D02*
X27537Y-28000D01*
X27537Y-28000D02*
X30237Y-28000D01*
X25237Y-25050D02*
X25187Y-25100D01*
X25187Y-25100D02*
X25187Y-26250D01*
X25787Y-24500D02*
X25337Y-24950D01*
X25787Y-21350D02*
X25787Y-24500D01*
X23037Y-20350D02*
X23187Y-20200D01*
X23187Y-20200D02*
X23937Y-20200D01*
X25787Y-20250D02*
X25437Y-19900D01*
X25437Y-19900D02*
X24337Y-19900D01*
X25787Y-21350D02*
X25787Y-20250D01*
X24237Y-19900D02*
X23937Y-20200D01*
X24337Y-19900D02*
X24237Y-19900D01*
X25287Y-25000D02*
X25237Y-25050D01*
X25337Y-24950D02*
X25287Y-25000D01*
X22637Y-17300D02*
X22737Y-17400D01*
X22737Y-20300D02*
X23037Y-20600D01*
X22737Y-17400D02*
X22737Y-20300D01*
X23037Y-20600D02*
X23037Y-20350D01*
X20970Y-15300D02*
X21387Y-15300D01*
X21587Y-16250D02*
X22637Y-17300D01*
X22637Y-17300D02*
X22687Y-17350D01*
X21587Y-15500D02*
X21587Y-16250D01*
X21387Y-15300D02*
X21587Y-15500D01*
X23037Y-20600D02*
X23037Y-20350D01*
X31387Y-26750D02*
X31437Y-26700D01*
X31387Y-26750D02*
X31437Y-26700D01*
X32937Y-25325D02*
X32937Y-24437D01*
X32937Y-24437D02*
X32875Y-24375D01*
X32937Y-25325D02*
X32937Y-25337D01*
X32912Y-26625D02*
X32912Y-27325D01*
X32912Y-27325D02*
X32537Y-27700D01*
X31787Y-28150D02*
X32237Y-27700D01*
X32537Y-27700D02*
X32237Y-27700D01*
X32937Y-25337D02*
X33025Y-25425D01*
X33025Y-25425D02*
X33025Y-26512D01*
X33025Y-26512D02*
X32912Y-26625D01*
X24987Y-26025D02*
X24987Y-26162D01*
X24325Y-27487D02*
X25137Y-28300D01*
X24325Y-26825D02*
X24325Y-27487D01*
X24987Y-26162D02*
X24325Y-26825D01*
X24468Y-27631D02*
X25037Y-28200D01*
X25037Y-28200D02*
X25137Y-28300D01*
X23937Y-21050D02*
X23937Y-21100D01*
X21337Y-16300D02*
X22487Y-17450D01*
X20970Y-16300D02*
X21337Y-16300D01*
X22537Y-20700D02*
X22637Y-20800D01*
X22537Y-17500D02*
X22537Y-20700D01*
X25087Y-20300D02*
X25087Y-20600D01*
X24937Y-20150D02*
X25087Y-20300D01*
X24287Y-20150D02*
X24937Y-20150D01*
X23937Y-20500D02*
X24287Y-20150D01*
X23937Y-21050D02*
X23937Y-20500D01*
X22637Y-20800D02*
X23187Y-21350D01*
X22487Y-17450D02*
X22537Y-17500D01*
X23237Y-21400D02*
X23187Y-21350D01*
X23637Y-21400D02*
X23237Y-21400D01*
X23937Y-21100D02*
X23637Y-21400D01*
X25037Y-24950D02*
X24987Y-25000D01*
X25287Y-20600D02*
X25587Y-20900D01*
X25587Y-20900D02*
X25587Y-24400D01*
X25087Y-20600D02*
X25287Y-20600D01*
X25037Y-24950D02*
X25587Y-24400D01*
X24987Y-25000D02*
X24987Y-26025D01*
X24987Y-26025D02*
X24987Y-26150D01*
X27637Y-28300D02*
X27737Y-28200D01*
X27737Y-28200D02*
X31737Y-28200D01*
X25137Y-28300D02*
X27637Y-28300D01*
X31737Y-28200D02*
X31787Y-28150D01*
X31737Y-28200D02*
X31787Y-28150D01*
X22337Y-20800D02*
X22350Y-20800D01*
X24287Y-21750D02*
X24637Y-21750D01*
X24087Y-21750D02*
X24287Y-21750D01*
X24087Y-21750D02*
X23987Y-21750D01*
X23987Y-21750D02*
X23300Y-21750D01*
X22350Y-20800D02*
X23300Y-21750D01*
X24125Y-26425D02*
X24125Y-27587D01*
X24125Y-27587D02*
X25018Y-28481D01*
X24125Y-26425D02*
X24125Y-26112D01*
X25087Y-21300D02*
X24937Y-21300D01*
X24787Y-21600D02*
X24637Y-21750D01*
X24787Y-21450D02*
X24787Y-21600D01*
X24937Y-21300D02*
X24787Y-21450D01*
X24837Y-24850D02*
X24787Y-24900D01*
X25387Y-21850D02*
X25387Y-24300D01*
X25337Y-24350D02*
X24837Y-24850D01*
X25337Y-24350D02*
X25387Y-24300D01*
X24787Y-24900D02*
X24787Y-25450D01*
X24787Y-25450D02*
X24125Y-26112D01*
X25018Y-28481D02*
X25037Y-28500D01*
X27837Y-28400D02*
X31437Y-28400D01*
X31837Y-28400D02*
X32337Y-27900D01*
X33112Y-26725D02*
X33112Y-27425D01*
X32637Y-27900D02*
X32337Y-27900D01*
X33112Y-27425D02*
X32637Y-27900D01*
X33237Y-26600D02*
X33437Y-26400D01*
X33437Y-25200D02*
X33237Y-25000D01*
X33437Y-26400D02*
X33437Y-25200D01*
X33237Y-26600D02*
X33112Y-26725D01*
X31437Y-28400D02*
X31837Y-28400D01*
X25037Y-28500D02*
X27737Y-28500D01*
X27737Y-28500D02*
X27837Y-28400D01*
X21937Y-17300D02*
X22037Y-17300D01*
X22337Y-17600D02*
X22337Y-20800D01*
X22337Y-20800D02*
X22337Y-20800D01*
X22037Y-17300D02*
X22337Y-17600D01*
X25387Y-21700D02*
X25387Y-21850D01*
X25387Y-21850D02*
X25387Y-21950D01*
X25037Y-21350D02*
X25387Y-21700D01*
X21587Y-17300D02*
X20970Y-17300D01*
X21587Y-17300D02*
X21937Y-17300D01*
X21937Y-17300D02*
X21987Y-17300D01*
X24587Y-21750D02*
X24637Y-21750D01*
X32037Y-29200D02*
X32037Y-28900D01*
X37537Y-25900D02*
X37237Y-25900D01*
X37637Y-25800D02*
X37537Y-25900D01*
X37637Y-20750D02*
X37637Y-22300D01*
X38037Y-22700D02*
X38037Y-25400D01*
X38037Y-25400D02*
X37637Y-25800D01*
X37637Y-22300D02*
X38037Y-22700D01*
X37537Y-20650D02*
X37487Y-20600D01*
X37487Y-20600D02*
X37237Y-20600D01*
X37637Y-20750D02*
X37537Y-20650D01*
X32037Y-28900D02*
X32537Y-28400D01*
X30987Y-30500D02*
X30987Y-30162D01*
X32037Y-29562D02*
X32037Y-29200D01*
X31750Y-29850D02*
X32037Y-29562D01*
X31300Y-29850D02*
X31750Y-29850D01*
X30987Y-30162D02*
X31300Y-29850D01*
X28637Y-29100D02*
X28637Y-28762D01*
X31537Y-28600D02*
X28937Y-28600D01*
X32737Y-28100D02*
X32437Y-28100D01*
X33337Y-27500D02*
X32737Y-28100D01*
X35037Y-26100D02*
X35137Y-26200D01*
X35137Y-26200D02*
X35937Y-26200D01*
X34837Y-25700D02*
X34837Y-25900D01*
X34837Y-25900D02*
X35037Y-26100D01*
X34837Y-25600D02*
X34837Y-25700D01*
X35937Y-26200D02*
X37337Y-26200D01*
X34837Y-25600D02*
X34837Y-25000D01*
X34587Y-24750D02*
X34837Y-25000D01*
X33737Y-26400D02*
X33737Y-25050D01*
X33537Y-26600D02*
X33737Y-26400D01*
X33337Y-26800D02*
X33537Y-26600D01*
X33737Y-25050D02*
X34037Y-24750D01*
X34037Y-24750D02*
X34587Y-24750D01*
X33337Y-26800D02*
X33337Y-27500D01*
X31937Y-28600D02*
X32437Y-28100D01*
X31537Y-28600D02*
X31937Y-28600D01*
X28799Y-28600D02*
X28937Y-28600D01*
X28637Y-28762D02*
X28799Y-28600D01*
X26787Y-30600D02*
X26787Y-30362D01*
X28637Y-29312D02*
X28637Y-29100D01*
X28400Y-29550D02*
X28637Y-29312D01*
X27600Y-29550D02*
X28400Y-29550D01*
X26787Y-30362D02*
X27600Y-29550D01*
X36937Y-20100D02*
X36287Y-20100D01*
X38237Y-25500D02*
X37962Y-25775D01*
X38237Y-22500D02*
X38237Y-25500D01*
X37837Y-20500D02*
X37837Y-22100D01*
X37962Y-25775D02*
X37537Y-26200D01*
X37537Y-26200D02*
X37337Y-26200D01*
X36937Y-20100D02*
X37437Y-20100D01*
X37437Y-20100D02*
X37837Y-20500D01*
X37837Y-22100D02*
X38237Y-22500D01*
X35337Y-20500D02*
X34937Y-20500D01*
X35387Y-20450D02*
X35537Y-20300D01*
X35537Y-20300D02*
X35837Y-20300D01*
X35387Y-20450D02*
X35337Y-20500D01*
X35837Y-20300D02*
X36087Y-20300D01*
X34837Y-20400D02*
X34837Y-20200D01*
X34937Y-20500D02*
X34837Y-20400D01*
X36287Y-20100D02*
X36087Y-20300D01*
X37337Y-26200D02*
X37437Y-26200D01*
X23737Y-29600D02*
X23337Y-29600D01*
X22987Y-30400D02*
X22987Y-29950D01*
X38075Y-21325D02*
X38075Y-20437D01*
X38437Y-21687D02*
X38075Y-21325D01*
X36837Y-19900D02*
X36137Y-19900D01*
X37537Y-19900D02*
X38075Y-20437D01*
X36837Y-19900D02*
X37537Y-19900D01*
X35237Y-20200D02*
X35237Y-20100D01*
X35237Y-20100D02*
X35487Y-20100D01*
X35487Y-20100D02*
X35937Y-20100D01*
X36137Y-19900D02*
X35937Y-20100D01*
X38437Y-27400D02*
X38037Y-27800D01*
X38437Y-21975D02*
X38437Y-27400D01*
X38037Y-27800D02*
X37968Y-27868D01*
X38437Y-21975D02*
X38437Y-21687D01*
X37068Y-27868D02*
X37025Y-27825D01*
X37968Y-27868D02*
X37068Y-27868D01*
X22987Y-29950D02*
X23337Y-29600D01*
X22987Y-30400D02*
X22987Y-30150D01*
X18487Y-30500D02*
X18487Y-30150D01*
X18487Y-30150D02*
X18687Y-29950D01*
X18687Y-29950D02*
X18737Y-29900D01*
X18737Y-29900D02*
X19037Y-29600D01*
X19037Y-29600D02*
X19137Y-29500D01*
X19137Y-29500D02*
X19137Y-26400D01*
X19137Y-26400D02*
X19537Y-26000D01*
X19637Y-25700D02*
X19637Y-25900D01*
X19637Y-25900D02*
X19537Y-26000D01*
X19587Y-26050D02*
X19537Y-26000D01*
X44937Y-32200D02*
X44937Y-31612D01*
X45049Y-31500D02*
X45337Y-31500D01*
X44937Y-31612D02*
X45049Y-31500D01*
X42025Y-29625D02*
X39425Y-29625D01*
X39425Y-29625D02*
X39237Y-29437D01*
X42025Y-29625D02*
X42025Y-29612D01*
X43887Y-30175D02*
X43887Y-30137D01*
X44587Y-32700D02*
X44937Y-32350D01*
X43887Y-32400D02*
X44187Y-32700D01*
X43887Y-30850D02*
X43887Y-32400D01*
X44937Y-32200D02*
X44937Y-32350D01*
X44587Y-32700D02*
X44187Y-32700D01*
X43887Y-30850D02*
X43887Y-30175D01*
X42025Y-29612D02*
X42437Y-29200D01*
X43887Y-30137D02*
X42950Y-29200D01*
X42950Y-29200D02*
X42437Y-29200D01*
X39237Y-21375D02*
X39237Y-21287D01*
X38875Y-20037D02*
X37737Y-18900D01*
X37737Y-18900D02*
X37637Y-18900D01*
X39237Y-21375D02*
X39237Y-29437D01*
X39237Y-21287D02*
X38875Y-20925D01*
X38875Y-20925D02*
X38875Y-20037D01*
X45737Y-31300D02*
X45737Y-31400D01*
X45637Y-31500D02*
X45737Y-31400D01*
X45737Y-31300D02*
X45837Y-31200D01*
X46087Y-31200D02*
X45837Y-31200D01*
X45637Y-31500D02*
X45337Y-31500D01*
X39437Y-32000D02*
X39237Y-32200D01*
X39437Y-31200D02*
X39437Y-32000D01*
X39093Y-30856D02*
X39437Y-31200D01*
X39237Y-32200D02*
X39137Y-32200D01*
X37237Y-29400D02*
X38600Y-29400D01*
X39093Y-29893D02*
X38600Y-29400D01*
X39093Y-30856D02*
X39093Y-29893D01*
X48637Y-32500D02*
X48637Y-29712D01*
X51275Y-29575D02*
X48875Y-29575D01*
X51837Y-29012D02*
X51275Y-29575D01*
X51837Y-28625D02*
X51837Y-27000D01*
X51837Y-27000D02*
X51937Y-26900D01*
X52087Y-26700D02*
X52087Y-26300D01*
X52087Y-26700D02*
X52087Y-26750D01*
X52087Y-26750D02*
X51937Y-26900D01*
X51837Y-28625D02*
X51837Y-29012D01*
X48637Y-29712D02*
X48775Y-29575D01*
X48775Y-29575D02*
X48875Y-29575D01*
X38637Y-21675D02*
X38637Y-21587D01*
X38275Y-21225D02*
X38275Y-20337D01*
X38637Y-21587D02*
X38275Y-21225D01*
X37237Y-29400D02*
X37537Y-29400D01*
X37537Y-29400D02*
X37737Y-29200D01*
X46950Y-33500D02*
X46950Y-33500D01*
X37937Y-28200D02*
X37737Y-28400D01*
X38337Y-27800D02*
X37937Y-28200D01*
X36437Y-19700D02*
X37637Y-19700D01*
X36337Y-19600D02*
X36337Y-19250D01*
X36437Y-19700D02*
X36337Y-19600D01*
X36737Y-16650D02*
X36337Y-17050D01*
X36337Y-17050D02*
X36337Y-19250D01*
X37687Y-15600D02*
X37687Y-16300D01*
X37637Y-15550D02*
X37687Y-15600D01*
X37687Y-16300D02*
X37437Y-16550D01*
X37337Y-16650D02*
X36737Y-16650D01*
X37437Y-16550D02*
X37337Y-16650D01*
X37637Y-19700D02*
X38275Y-20337D01*
X37737Y-29200D02*
X37737Y-28400D01*
X38637Y-21675D02*
X38637Y-27500D01*
X38637Y-27500D02*
X38337Y-27800D01*
X36250Y-30850D02*
X35400Y-30850D01*
X35075Y-30525D02*
X35075Y-30275D01*
X35400Y-30850D02*
X35075Y-30525D01*
X36568Y-31231D02*
X36568Y-31168D01*
X35549Y-28400D02*
X36837Y-28400D01*
X37362Y-15275D02*
X37337Y-15300D01*
X38837Y-21575D02*
X38837Y-21487D01*
X38475Y-21125D02*
X38475Y-20237D01*
X38837Y-21487D02*
X38475Y-21125D01*
X37937Y-18300D02*
X37837Y-18400D01*
X37737Y-19500D02*
X37437Y-19500D01*
X37737Y-19500D02*
X38475Y-20237D01*
X37137Y-18600D02*
X37337Y-18400D01*
X37337Y-18400D02*
X37837Y-18400D01*
X37137Y-18900D02*
X37137Y-18600D01*
X37437Y-19500D02*
X37137Y-19200D01*
X37137Y-19200D02*
X37137Y-18900D01*
X37937Y-17000D02*
X37937Y-16400D01*
X37937Y-15450D02*
X37937Y-16400D01*
X37625Y-15275D02*
X37762Y-15275D01*
X37762Y-15275D02*
X37937Y-15450D01*
X37937Y-17000D02*
X37937Y-18300D01*
X38637Y-27900D02*
X38837Y-27700D01*
X38837Y-27700D02*
X38837Y-21575D01*
X38637Y-27900D02*
X38137Y-28400D01*
X37625Y-15275D02*
X37362Y-15275D01*
X35075Y-30275D02*
X35075Y-28875D01*
X35075Y-28875D02*
X35549Y-28400D01*
X36568Y-31168D02*
X36250Y-30850D01*
X36837Y-31500D02*
X36568Y-31231D01*
X36837Y-31750D02*
X36837Y-31500D01*
X36037Y-31800D02*
X36787Y-31800D01*
X36787Y-31800D02*
X36837Y-31750D01*
X39318Y-30781D02*
X39318Y-29818D01*
X39318Y-29818D02*
X39037Y-29537D01*
X39037Y-21475D02*
X39037Y-21387D01*
X38675Y-21025D02*
X38675Y-20137D01*
X39037Y-21387D02*
X38675Y-21025D01*
X36587Y-15850D02*
X36587Y-15500D01*
X37937Y-18600D02*
X38137Y-18400D01*
X37337Y-18700D02*
X37437Y-18600D01*
X37437Y-18600D02*
X37637Y-18600D01*
X37637Y-18600D02*
X37937Y-18600D01*
X37537Y-19300D02*
X37337Y-19100D01*
X37737Y-19300D02*
X37537Y-19300D01*
X37337Y-19100D02*
X37337Y-18700D01*
X37837Y-19300D02*
X38675Y-20137D01*
X37737Y-19300D02*
X37837Y-19300D01*
X38137Y-15250D02*
X37887Y-15000D01*
X37887Y-15000D02*
X37137Y-15000D01*
X38137Y-16500D02*
X38137Y-16900D01*
X38137Y-15250D02*
X38137Y-16500D01*
X38137Y-18400D02*
X38137Y-16900D01*
X36587Y-15500D02*
X37087Y-15000D01*
X37087Y-15000D02*
X37137Y-15000D01*
X34837Y-16500D02*
X35137Y-16500D01*
X34337Y-17000D02*
X34837Y-16500D01*
X35937Y-16500D02*
X35537Y-16500D01*
X36587Y-15850D02*
X35937Y-16500D01*
X35137Y-16500D02*
X35537Y-16500D01*
X34037Y-17000D02*
X33937Y-17100D01*
X34037Y-17000D02*
X34337Y-17000D01*
X39637Y-32300D02*
X39737Y-32400D01*
X39637Y-31100D02*
X39637Y-32300D01*
X39037Y-29537D02*
X39037Y-21475D01*
X39837Y-32500D02*
X40037Y-32500D01*
X40037Y-32500D02*
X40137Y-32500D01*
X40137Y-32500D02*
X40337Y-32300D01*
X40337Y-32300D02*
X40337Y-32100D01*
X39737Y-32400D02*
X39837Y-32500D01*
X40337Y-31800D02*
X40537Y-31600D01*
X40537Y-31600D02*
X40737Y-31600D01*
X40337Y-32100D02*
X40337Y-31800D01*
X39318Y-30781D02*
X39637Y-31100D01*
X41587Y-31600D02*
X40737Y-31600D01*
X40737Y-31600D02*
X41037Y-31600D01*
X45675Y-17217D02*
X45154Y-17217D01*
X44137Y-17100D02*
X43937Y-16900D01*
X45037Y-17100D02*
X44137Y-17100D01*
X45154Y-17217D02*
X45037Y-17100D01*
X42537Y-16200D02*
X42487Y-16150D01*
X42487Y-16150D02*
X42237Y-16150D01*
X42237Y-16150D02*
X42137Y-16050D01*
X42137Y-16050D02*
X42137Y-15850D01*
X43554Y-16517D02*
X43237Y-16200D01*
X43237Y-16200D02*
X42537Y-16200D01*
X43937Y-16900D02*
X43554Y-16517D01*
X40910Y-15800D02*
X42087Y-15800D01*
X42087Y-15800D02*
X42137Y-15850D01*
X43493Y-15793D02*
X43606Y-15793D01*
X43725Y-15675D02*
X43725Y-15087D01*
X43606Y-15793D02*
X43725Y-15675D01*
X41793Y-14943D02*
X43581Y-14943D01*
X41437Y-15300D02*
X41637Y-15100D01*
X40910Y-15300D02*
X41437Y-15300D01*
X41793Y-14943D02*
X41637Y-15100D01*
X43581Y-14943D02*
X43725Y-15087D01*
X43493Y-15793D02*
X43487Y-15800D01*
X43487Y-15800D02*
X43337Y-15800D01*
X45675Y-17020D02*
X45257Y-17020D01*
X45037Y-16800D02*
X45037Y-16700D01*
X45257Y-17020D02*
X45037Y-16800D01*
X44937Y-16600D02*
X44837Y-16500D01*
X44037Y-16500D02*
X43739Y-16202D01*
X43739Y-16202D02*
X43337Y-15800D01*
X45037Y-16700D02*
X44937Y-16600D01*
X44837Y-16500D02*
X44037Y-16500D01*
X43037Y-15800D02*
X43337Y-15800D01*
X43187Y-15850D02*
X42887Y-15850D01*
X42637Y-16700D02*
X43237Y-17300D01*
X44037Y-17300D02*
X43237Y-17300D01*
X45051Y-17414D02*
X44937Y-17300D01*
X44937Y-17300D02*
X44037Y-17300D01*
X45675Y-17414D02*
X45051Y-17414D01*
X42637Y-16700D02*
X42387Y-16450D01*
X42387Y-16450D02*
X42137Y-16450D01*
X42137Y-16450D02*
X41837Y-16450D01*
X41687Y-16300D02*
X40910Y-16300D01*
X41837Y-16450D02*
X41687Y-16300D01*
X19737Y-17600D02*
X19737Y-17500D01*
X19737Y-17500D02*
X20037Y-17200D01*
X22037Y-18100D02*
X21787Y-18050D01*
X19737Y-18000D02*
X19737Y-17600D01*
X19937Y-18200D02*
X19737Y-18000D01*
X21787Y-18050D02*
X21637Y-18200D01*
X21637Y-18200D02*
X19937Y-18200D01*
X21937Y-19700D02*
X20437Y-19700D01*
X19737Y-16800D02*
X19137Y-17400D01*
X23437Y-18950D02*
X23387Y-18950D01*
X25187Y-18950D02*
X25337Y-19100D01*
X23437Y-18950D02*
X25187Y-18950D01*
X25337Y-19100D02*
X25737Y-19500D01*
X26037Y-19500D02*
X25737Y-19500D01*
X26187Y-19100D02*
X26187Y-19350D01*
X26187Y-19350D02*
X26037Y-19500D01*
X19137Y-18400D02*
X19137Y-17400D01*
X22037Y-19300D02*
X22037Y-19600D01*
X20437Y-19700D02*
X19437Y-18700D01*
X22037Y-19600D02*
X21937Y-19700D01*
X22037Y-18900D02*
X22037Y-19300D01*
X19437Y-18700D02*
X19137Y-18400D01*
X23387Y-18950D02*
X23237Y-19100D01*
X19737Y-16800D02*
X20037Y-16800D01*
X26187Y-19150D02*
X26187Y-19100D01*
X26437Y-17900D02*
X25837Y-17900D01*
X26337Y-16500D02*
X26337Y-16200D01*
X26237Y-16600D02*
X26337Y-16500D01*
X25837Y-16600D02*
X26237Y-16600D01*
X25437Y-17000D02*
X25837Y-16600D01*
X25437Y-17500D02*
X25437Y-17000D01*
X25837Y-17900D02*
X25437Y-17500D01*
X26337Y-16200D02*
X26037Y-15900D01*
X27337Y-13900D02*
X27337Y-13650D01*
X27237Y-14000D02*
X27337Y-13900D01*
X27237Y-14800D02*
X27237Y-14000D01*
X27037Y-15000D02*
X27237Y-14800D01*
X27037Y-15600D02*
X27037Y-15000D01*
X25537Y-13500D02*
X25437Y-13600D01*
X27337Y-13650D02*
X27187Y-13500D01*
X26887Y-13500D02*
X25537Y-13500D01*
X24737Y-14000D02*
X25037Y-14000D01*
X22337Y-14950D02*
X22337Y-15800D01*
X22537Y-14750D02*
X22387Y-14900D01*
X23287Y-14000D02*
X22537Y-14750D01*
X24737Y-14000D02*
X23287Y-14000D01*
X22387Y-14900D02*
X22337Y-14950D01*
X25037Y-14000D02*
X25437Y-13600D01*
X27187Y-13500D02*
X26887Y-13500D01*
X25487Y-13250D02*
X27287Y-13250D01*
X27287Y-13250D02*
X27337Y-13300D01*
X27337Y-13300D02*
X27737Y-13700D01*
X27737Y-13800D02*
X27937Y-14000D01*
X27737Y-13700D02*
X27737Y-13800D01*
X28637Y-17800D02*
X28637Y-18000D01*
X28937Y-15700D02*
X28937Y-15000D01*
X28637Y-17450D02*
X28637Y-17500D01*
X28637Y-17450D02*
X28637Y-16900D01*
X28637Y-17500D02*
X28637Y-17800D01*
X28562Y-16825D02*
X28637Y-16900D01*
X28562Y-16375D02*
X28562Y-16825D01*
X28937Y-15700D02*
X28937Y-16000D01*
X28937Y-16000D02*
X28562Y-16375D01*
X28937Y-15000D02*
X27937Y-14000D01*
X28637Y-18000D02*
X28537Y-18100D01*
X24687Y-13800D02*
X24937Y-13800D01*
X24487Y-13800D02*
X24687Y-13800D01*
X24937Y-13800D02*
X25337Y-13400D01*
X25487Y-13250D02*
X25337Y-13400D01*
X21987Y-15850D02*
X21987Y-16050D01*
X21987Y-15850D02*
X21987Y-15000D01*
X21987Y-15000D02*
X22087Y-14900D01*
X22187Y-14800D02*
X22087Y-14900D01*
X24487Y-13800D02*
X23187Y-13800D01*
X23187Y-13800D02*
X22187Y-14800D01*
X22137Y-16200D02*
X22337Y-16200D01*
X21987Y-16050D02*
X22137Y-16200D01*
X24437Y-13800D02*
X24487Y-13800D01*
X26187Y-21050D02*
X26187Y-22500D01*
X26187Y-22500D02*
X26637Y-22950D01*
X26537Y-19400D02*
X26537Y-19100D01*
X26487Y-19450D02*
X26537Y-19400D01*
X26487Y-19450D02*
X26387Y-19550D01*
X26187Y-19750D02*
X26387Y-19550D01*
X26187Y-21050D02*
X26187Y-19750D01*
X28562Y-12575D02*
X28587Y-12550D01*
X34037Y-15050D02*
X34187Y-15250D01*
X34037Y-15050D02*
X34037Y-13550D01*
X34037Y-13550D02*
X33162Y-12675D01*
X28712Y-12675D02*
X28587Y-12550D01*
X33162Y-12675D02*
X28712Y-12675D01*
X25193Y-17656D02*
X25637Y-18100D01*
X25837Y-16300D02*
X26037Y-16300D01*
X25193Y-16943D02*
X25837Y-16300D01*
X26537Y-18600D02*
X26537Y-18400D01*
X26537Y-18400D02*
X26487Y-18350D01*
X26487Y-18650D02*
X26337Y-18800D01*
X26237Y-18100D02*
X25637Y-18100D01*
X26487Y-18350D02*
X26237Y-18100D01*
X25837Y-19100D02*
X25837Y-18900D01*
X25837Y-18900D02*
X25937Y-18800D01*
X25937Y-18800D02*
X26337Y-18800D01*
X26487Y-18650D02*
X26537Y-18600D01*
X25193Y-16943D02*
X25193Y-17656D01*
X27375Y-21075D02*
X27375Y-20225D01*
X27625Y-19975D02*
X28125Y-19975D01*
X27375Y-20225D02*
X27625Y-19975D01*
X27875Y-19975D02*
X28125Y-19975D01*
X26837Y-14000D02*
X26737Y-13900D01*
X25737Y-13900D02*
X25537Y-14100D01*
X26737Y-13900D02*
X25737Y-13900D01*
X26737Y-16000D02*
X27037Y-16000D01*
X26537Y-15800D02*
X26737Y-16000D01*
X26537Y-15000D02*
X26537Y-15800D01*
X26987Y-14550D02*
X26537Y-15000D01*
X25137Y-14500D02*
X24537Y-14500D01*
X26837Y-14000D02*
X26987Y-14150D01*
X25537Y-14100D02*
X25137Y-14500D01*
X26987Y-14150D02*
X26987Y-14550D01*
X28137Y-12800D02*
X28237Y-12900D01*
X28237Y-12900D02*
X32637Y-12900D01*
X33687Y-13950D02*
X32637Y-12900D01*
X27337Y-11500D02*
X27387Y-11550D01*
X27387Y-11550D02*
X27387Y-11600D01*
X29837Y-13600D02*
X29637Y-13600D01*
X29637Y-13600D02*
X29537Y-13700D01*
X33612Y-15175D02*
X33612Y-14375D01*
X33587Y-15200D02*
X33612Y-15175D01*
X27387Y-11750D02*
X27387Y-11600D01*
X28237Y-13900D02*
X27937Y-13600D01*
X28837Y-13900D02*
X28237Y-13900D01*
X29037Y-13700D02*
X28837Y-13900D01*
X29537Y-13700D02*
X29037Y-13700D01*
X27387Y-13050D02*
X27037Y-12700D01*
X27037Y-12100D02*
X27387Y-11750D01*
X27037Y-12700D02*
X27037Y-12100D01*
X27387Y-13050D02*
X27937Y-13600D01*
X29837Y-13600D02*
X29937Y-13600D01*
X32837Y-13600D02*
X32937Y-13700D01*
X29837Y-13600D02*
X29937Y-13600D01*
X29937Y-13600D02*
X32837Y-13600D01*
X32937Y-13700D02*
X33612Y-14375D01*
X27387Y-11600D02*
X27387Y-11650D01*
X31137Y-13950D02*
X31141Y-13945D01*
X23537Y-18300D02*
X23437Y-18200D01*
X23537Y-18300D02*
X24437Y-18300D01*
X22037Y-18500D02*
X19737Y-18500D01*
X19737Y-18500D02*
X19537Y-18300D01*
X21987Y-18450D02*
X22037Y-18500D01*
X23137Y-17100D02*
X23137Y-16950D01*
X23137Y-16950D02*
X22787Y-16600D01*
X22687Y-15525D02*
X22787Y-15625D01*
X22787Y-16600D02*
X22787Y-15625D01*
X22687Y-15225D02*
X22687Y-15525D01*
X23137Y-18300D02*
X23237Y-18400D01*
X23137Y-17100D02*
X23137Y-18300D01*
X25737Y-18600D02*
X23437Y-18600D01*
X23437Y-18600D02*
X23237Y-18400D01*
X23237Y-18400D02*
X23187Y-18350D01*
X25837Y-18500D02*
X25737Y-18600D01*
X26237Y-18500D02*
X25837Y-18500D01*
X23037Y-15300D02*
X23037Y-16350D01*
X23037Y-16350D02*
X23087Y-16400D01*
X24337Y-24375D02*
X24337Y-24500D01*
X24337Y-24500D02*
X24537Y-24700D01*
X29918Y-23318D02*
X29918Y-23331D01*
X29325Y-23675D02*
X28487Y-24512D01*
X29575Y-23675D02*
X29325Y-23675D01*
X29918Y-23331D02*
X29575Y-23675D01*
X30137Y-22400D02*
X30137Y-23100D01*
X30137Y-23100D02*
X29918Y-23318D01*
X24337Y-24375D02*
X24337Y-22800D01*
X24337Y-22800D02*
X24437Y-22700D01*
X24437Y-22700D02*
X24787Y-22350D01*
X30137Y-22400D02*
X30137Y-22350D01*
X30437Y-21650D02*
X30137Y-21950D01*
X30137Y-22200D02*
X30137Y-22350D01*
X30137Y-22200D02*
X30137Y-21950D01*
X28287Y-24850D02*
X28487Y-24650D01*
X28487Y-24650D02*
X28487Y-24512D01*
X28287Y-25450D02*
X28287Y-24850D01*
X31087Y-26550D02*
X30637Y-27000D01*
X28037Y-27300D02*
X28037Y-26100D01*
X28537Y-27800D02*
X28037Y-27300D01*
X30287Y-27800D02*
X28537Y-27800D01*
X30637Y-27450D02*
X30287Y-27800D01*
X30637Y-27000D02*
X30637Y-27450D01*
X32437Y-26700D02*
X31837Y-26700D01*
X31837Y-26700D02*
X31737Y-26600D01*
X32637Y-26500D02*
X32437Y-26700D01*
X31737Y-26600D02*
X31537Y-26400D01*
X31237Y-26400D02*
X31537Y-26400D01*
X31237Y-26400D02*
X31087Y-26550D01*
X29225Y-23475D02*
X28525Y-23475D01*
X28287Y-23712D02*
X28287Y-24450D01*
X28525Y-23475D02*
X28287Y-23712D01*
X29937Y-22900D02*
X29937Y-23012D01*
X29475Y-23475D02*
X29225Y-23475D01*
X29937Y-23012D02*
X29475Y-23475D01*
X28287Y-24450D02*
X28287Y-24512D01*
X27837Y-25450D02*
X27937Y-25350D01*
X27937Y-25350D02*
X27937Y-24862D01*
X28287Y-24512D02*
X27937Y-24862D01*
X29737Y-22100D02*
X29937Y-22300D01*
X29637Y-22000D02*
X29737Y-22100D01*
X29937Y-22300D02*
X29937Y-22900D01*
X27393Y-22243D02*
X27681Y-22243D01*
X27700Y-22250D02*
X27700Y-22262D01*
X27687Y-22250D02*
X27700Y-22250D01*
X27681Y-22243D02*
X27687Y-22250D01*
X27137Y-23250D02*
X27137Y-22500D01*
X28437Y-22600D02*
X28687Y-22350D01*
X28137Y-22550D02*
X28187Y-22600D01*
X28187Y-22600D02*
X28437Y-22600D01*
X27987Y-22550D02*
X27937Y-22500D01*
X27537Y-25000D02*
X27537Y-25750D01*
X26637Y-26650D02*
X26387Y-26900D01*
X26387Y-26900D02*
X26387Y-27050D01*
X26637Y-26650D02*
X27537Y-25750D01*
X27537Y-25000D02*
X27237Y-24700D01*
X27137Y-24600D02*
X27237Y-24700D01*
X27700Y-22262D02*
X27937Y-22500D01*
X27987Y-22550D02*
X28137Y-22550D01*
X28937Y-22150D02*
X29037Y-22050D01*
X28837Y-22150D02*
X28937Y-22150D01*
X28687Y-22300D02*
X28837Y-22150D01*
X28687Y-22300D02*
X28687Y-22350D01*
X27187Y-22450D02*
X27393Y-22243D01*
X27137Y-23250D02*
X27137Y-24600D01*
X27137Y-22500D02*
X27187Y-22450D01*
X29918Y-23618D02*
X29918Y-23881D01*
X28875Y-24725D02*
X28687Y-24912D01*
X29075Y-24725D02*
X28875Y-24725D01*
X29918Y-23881D02*
X29075Y-24725D01*
X23537Y-22250D02*
X23537Y-22500D01*
X23337Y-23700D02*
X23437Y-23800D01*
X23337Y-22700D02*
X23337Y-23700D01*
X23537Y-22500D02*
X23337Y-22700D01*
X28687Y-25450D02*
X28687Y-24912D01*
X29918Y-23618D02*
X30337Y-23200D01*
X30437Y-23100D02*
X30437Y-22100D01*
X30337Y-23200D02*
X30437Y-23100D01*
X23387Y-23800D02*
X23437Y-23800D01*
X32037Y-20725D02*
X32037Y-20712D01*
X32875Y-19875D02*
X33862Y-19875D01*
X32037Y-20712D02*
X32875Y-19875D01*
X32037Y-21625D02*
X32037Y-21787D01*
X32575Y-22825D02*
X32025Y-23375D01*
X32575Y-22325D02*
X32575Y-22825D01*
X32037Y-21787D02*
X32575Y-22325D01*
X30925Y-24525D02*
X31225Y-24525D01*
X32025Y-23625D02*
X32025Y-23725D01*
X30237Y-26700D02*
X29987Y-26450D01*
X30837Y-26500D02*
X30837Y-26200D01*
X30637Y-26700D02*
X30837Y-26500D01*
X30637Y-26700D02*
X30237Y-26700D01*
X30625Y-25987D02*
X30837Y-26200D01*
X30625Y-24825D02*
X30625Y-25987D01*
X30925Y-24525D02*
X30625Y-24825D01*
X32025Y-23725D02*
X31225Y-24525D01*
X32025Y-23625D02*
X32025Y-23375D01*
X32037Y-21550D02*
X32037Y-21625D01*
X33862Y-19875D02*
X33887Y-19850D01*
X32037Y-21550D02*
X32037Y-21550D01*
X32037Y-21550D02*
X32037Y-20725D01*
X35937Y-16800D02*
X36587Y-16150D01*
X35037Y-19700D02*
X35737Y-19700D01*
X35937Y-19500D02*
X35937Y-18850D01*
X35737Y-19700D02*
X35937Y-19500D01*
X33887Y-19850D02*
X34037Y-19700D01*
X35937Y-18450D02*
X35937Y-18850D01*
X35937Y-16800D02*
X35937Y-18450D01*
X35037Y-19700D02*
X34037Y-19700D01*
X37087Y-16150D02*
X37187Y-16050D01*
X36587Y-16150D02*
X37087Y-16150D01*
X29437Y-22500D02*
X29425Y-22475D01*
X27537Y-24300D02*
X27587Y-24300D01*
X32875Y-22450D02*
X32875Y-22337D01*
X32875Y-22337D02*
X32268Y-21731D01*
X37125Y-15725D02*
X37312Y-15725D01*
X37312Y-15725D02*
X37337Y-15750D01*
X36987Y-15500D02*
X36987Y-15637D01*
X37075Y-15725D02*
X37125Y-15725D01*
X36987Y-15637D02*
X37075Y-15725D01*
X32268Y-21731D02*
X32268Y-20781D01*
X33937Y-20100D02*
X34137Y-19900D01*
X35837Y-19900D02*
X36137Y-19600D01*
X34137Y-19900D02*
X35237Y-19900D01*
X36137Y-16900D02*
X36137Y-18550D01*
X36137Y-18550D02*
X36137Y-19000D01*
X35237Y-19900D02*
X35837Y-19900D01*
X36587Y-16450D02*
X36137Y-16900D01*
X37237Y-16450D02*
X36587Y-16450D01*
X37237Y-16450D02*
X37337Y-16350D01*
X36137Y-19600D02*
X36137Y-19000D01*
X32268Y-20781D02*
X32949Y-20100D01*
X32949Y-20100D02*
X33937Y-20100D01*
X32437Y-24700D02*
X32237Y-24900D01*
X32437Y-24112D02*
X32437Y-24700D01*
X32875Y-22450D02*
X32875Y-23675D01*
X32875Y-23675D02*
X32437Y-24112D01*
X37337Y-15750D02*
X37487Y-15900D01*
X37487Y-15900D02*
X37487Y-15950D01*
X37487Y-15950D02*
X37487Y-16200D01*
X37487Y-16200D02*
X37337Y-16350D01*
X37487Y-16200D02*
X37337Y-16350D01*
X41137Y-19000D02*
X42149Y-19000D01*
X42149Y-19000D02*
X42525Y-18625D01*
X49337Y-19200D02*
X48737Y-19200D01*
X48737Y-19200D02*
X48437Y-19500D01*
X49337Y-19200D02*
X49537Y-19200D01*
X49750Y-18987D02*
X49537Y-19200D01*
X50201Y-18987D02*
X49750Y-18987D01*
X50201Y-18987D02*
X49850Y-18987D01*
X49437Y-18900D02*
X49546Y-18791D01*
X50201Y-18791D02*
X49546Y-18791D01*
X46837Y-18200D02*
X46637Y-18200D01*
X46637Y-18200D02*
X46537Y-18300D01*
X46937Y-18100D02*
X46837Y-18200D01*
X47437Y-17100D02*
X47637Y-16900D01*
X47437Y-17600D02*
X47437Y-17100D01*
X46937Y-18100D02*
X47437Y-17600D01*
X48937Y-16900D02*
X49137Y-16900D01*
X48937Y-16900D02*
X47637Y-16900D01*
X49414Y-16036D02*
X49414Y-16423D01*
X49137Y-16900D02*
X49414Y-16623D01*
X49414Y-16623D02*
X49414Y-16423D01*
X46837Y-18500D02*
X47837Y-17500D01*
X47837Y-17500D02*
X47937Y-17500D01*
X49660Y-16823D02*
X49514Y-16823D01*
X48337Y-17100D02*
X47937Y-17500D01*
X49237Y-17100D02*
X48337Y-17100D01*
X49514Y-16823D02*
X49237Y-17100D01*
X50201Y-16823D02*
X49660Y-16823D01*
X50201Y-17020D02*
X49617Y-17020D01*
X49337Y-17300D02*
X48441Y-17300D01*
X49617Y-17020D02*
X49337Y-17300D01*
X48239Y-17502D02*
X48239Y-17598D01*
X48239Y-17598D02*
X48237Y-17600D01*
X48441Y-17300D02*
X48239Y-17502D01*
X47987Y-17950D02*
X47687Y-17950D01*
X49387Y-17950D02*
X49437Y-17900D01*
X47987Y-17950D02*
X48587Y-17950D01*
X50201Y-17217D02*
X49820Y-17217D01*
X49820Y-17217D02*
X49637Y-17400D01*
X49637Y-17400D02*
X49637Y-17700D01*
X49637Y-17700D02*
X49437Y-17900D01*
X48587Y-17950D02*
X49387Y-17950D01*
X47687Y-17950D02*
X47537Y-18100D01*
X47237Y-18400D02*
X47537Y-18100D01*
X47237Y-18500D02*
X47237Y-18400D01*
X49537Y-18594D02*
X49343Y-18594D01*
X49037Y-18900D02*
X49237Y-18700D01*
X49237Y-18700D02*
X49343Y-18594D01*
X49343Y-18594D02*
X49431Y-18594D01*
X50201Y-18594D02*
X49537Y-18594D01*
X49537Y-18594D02*
X49437Y-18594D01*
X46659Y-16036D02*
X46659Y-15622D01*
X44892Y-14955D02*
X44892Y-14050D01*
X45237Y-15300D02*
X44892Y-14955D01*
X46337Y-15300D02*
X45237Y-15300D01*
X46659Y-15622D02*
X46337Y-15300D01*
X44037Y-13996D02*
X44433Y-13996D01*
X44487Y-14050D02*
X44892Y-14050D01*
X44433Y-13996D02*
X44487Y-14050D01*
X44838Y-14146D02*
X44892Y-14200D01*
X46856Y-16036D02*
X46856Y-15519D01*
X45837Y-14100D02*
X45837Y-14050D01*
X45237Y-14700D02*
X45837Y-14100D01*
X45237Y-14900D02*
X45237Y-14700D01*
X45437Y-15100D02*
X45237Y-14900D01*
X46437Y-15100D02*
X45437Y-15100D01*
X46856Y-15519D02*
X46437Y-15100D01*
X46637Y-13946D02*
X46391Y-13946D01*
X46287Y-14050D02*
X45837Y-14050D01*
X46391Y-13946D02*
X46287Y-14050D01*
X45841Y-14196D02*
X45837Y-14200D01*
X44600Y-26350D02*
X44600Y-28150D01*
X44600Y-26350D02*
X45437Y-25512D01*
X45437Y-25512D02*
X45437Y-25150D01*
X44600Y-28150D02*
X43925Y-28825D01*
X26937Y-23100D02*
X26937Y-23150D01*
X26237Y-24300D02*
X26237Y-23600D01*
X26537Y-24600D02*
X26237Y-24300D01*
X26237Y-23600D02*
X26537Y-23300D01*
X26937Y-22400D02*
X26937Y-23100D01*
X26987Y-22350D02*
X27037Y-22300D01*
X28237Y-22000D02*
X28337Y-21900D01*
X27337Y-22000D02*
X28237Y-22000D01*
X27237Y-22100D02*
X27337Y-22000D01*
X27037Y-22300D02*
X27237Y-22100D01*
X26987Y-22350D02*
X26937Y-22400D01*
X26587Y-23250D02*
X26537Y-23300D01*
X26837Y-23250D02*
X26587Y-23250D01*
X26937Y-23150D02*
X26837Y-23250D01*
X26537Y-24600D02*
X26562Y-24575D01*
X48400Y-21525D02*
X48075Y-21525D01*
X45449Y-24150D02*
X45437Y-24150D01*
X48075Y-21525D02*
X45449Y-24150D01*
X51425Y-20875D02*
X51425Y-20975D01*
X50875Y-21525D02*
X50675Y-21525D01*
X51425Y-20975D02*
X50875Y-21525D01*
X51425Y-15525D02*
X51425Y-15425D01*
X51075Y-15075D02*
X51075Y-14975D01*
X51425Y-15425D02*
X51075Y-15075D01*
X50675Y-21525D02*
X49675Y-21525D01*
X51425Y-15525D02*
X51425Y-20875D01*
X51075Y-14825D02*
X51075Y-14975D01*
X49675Y-21525D02*
X48400Y-21525D01*
X16787Y-18400D02*
X16987Y-18600D01*
X16987Y-18600D02*
X19037Y-18600D01*
X19037Y-18600D02*
X20437Y-20000D01*
X20437Y-20000D02*
X20587Y-20000D01*
X16787Y-18400D02*
X16787Y-18200D01*
X44800Y-26450D02*
X44800Y-28350D01*
X45475Y-25775D02*
X45812Y-25775D01*
X45812Y-25775D02*
X46437Y-25150D01*
X44800Y-26450D02*
X45475Y-25775D01*
X44800Y-28350D02*
X44325Y-28825D01*
X19137Y-25100D02*
X18737Y-24700D01*
X18137Y-24200D02*
X18137Y-24500D01*
X18337Y-24700D02*
X18737Y-24700D01*
X18137Y-24500D02*
X18337Y-24700D01*
X16237Y-21900D02*
X16237Y-19850D01*
X18137Y-23800D02*
X16237Y-21900D01*
X18137Y-24200D02*
X18137Y-23800D01*
X19137Y-25600D02*
X19137Y-25100D01*
X18837Y-25900D02*
X19137Y-25600D01*
X48650Y-21725D02*
X48175Y-21725D01*
X48175Y-21725D02*
X46900Y-23000D01*
X51425Y-14825D02*
X51425Y-15075D01*
X51425Y-15125D02*
X51625Y-15325D01*
X51625Y-15325D02*
X51625Y-20925D01*
X50325Y-21725D02*
X48650Y-21725D01*
X46900Y-23000D02*
X46437Y-23462D01*
X46437Y-23462D02*
X46437Y-24150D01*
X50825Y-21725D02*
X50325Y-21725D01*
X51425Y-15075D02*
X51425Y-15125D01*
X51625Y-21075D02*
X50975Y-21725D01*
X50975Y-21725D02*
X50825Y-21725D01*
X51625Y-20925D02*
X51625Y-21075D01*
X22837Y-23200D02*
X22837Y-23362D01*
X16837Y-20400D02*
X16637Y-20400D01*
X22237Y-21200D02*
X22337Y-21200D01*
X17337Y-19500D02*
X18037Y-18800D01*
X18037Y-18800D02*
X18937Y-18800D01*
X18937Y-18800D02*
X20437Y-20300D01*
X20437Y-20300D02*
X21337Y-20300D01*
X21337Y-20300D02*
X22237Y-21200D01*
X22337Y-21200D02*
X22537Y-21400D01*
X17337Y-19900D02*
X17237Y-20000D01*
X17337Y-19500D02*
X17337Y-19900D01*
X17237Y-20000D02*
X16837Y-20400D01*
X36037Y-27100D02*
X35437Y-27100D01*
X36137Y-27000D02*
X36037Y-27100D01*
X35437Y-27100D02*
X35737Y-27100D01*
X40425Y-26975D02*
X40425Y-24812D01*
X40425Y-24812D02*
X40837Y-24400D01*
X32537Y-18800D02*
X31764Y-18800D01*
X28787Y-19250D02*
X28687Y-19250D01*
X31237Y-18800D02*
X31187Y-18800D01*
X31187Y-18800D02*
X31137Y-18850D01*
X31137Y-18850D02*
X31137Y-19150D01*
X31137Y-19150D02*
X30687Y-19600D01*
X30687Y-19600D02*
X30437Y-19600D01*
X31237Y-18800D02*
X31764Y-18800D01*
X29137Y-19600D02*
X28787Y-19250D01*
X30437Y-19600D02*
X29137Y-19600D01*
X28687Y-19250D02*
X28637Y-19200D01*
X28137Y-18900D02*
X28337Y-19100D01*
X28537Y-19100D02*
X28637Y-19200D01*
X28337Y-19100D02*
X28537Y-19100D01*
X28137Y-18800D02*
X28137Y-18900D01*
X28087Y-18750D02*
X28137Y-18800D01*
X28087Y-18750D02*
X27664Y-18750D01*
X27614Y-18800D02*
X27664Y-18750D01*
X27664Y-19250D02*
X28200Y-19250D01*
X28450Y-19500D02*
X28637Y-19500D01*
X28200Y-19250D02*
X28450Y-19500D01*
X28637Y-19500D02*
X28737Y-19600D01*
X32937Y-19100D02*
X32737Y-19300D01*
X31764Y-19300D02*
X32737Y-19300D01*
X32937Y-18900D02*
X33137Y-18700D01*
X32937Y-19100D02*
X32937Y-18900D01*
X28637Y-19500D02*
X28737Y-19600D01*
X40837Y-23400D02*
X40837Y-23200D01*
X40637Y-23000D02*
X40637Y-22200D01*
X40837Y-23200D02*
X40637Y-23000D01*
X27664Y-19250D02*
X27337Y-19250D01*
X29037Y-19800D02*
X28937Y-19800D01*
X28787Y-19650D02*
X28737Y-19600D01*
X28937Y-19800D02*
X28787Y-19650D01*
X30687Y-19800D02*
X30787Y-19800D01*
X29037Y-19800D02*
X30687Y-19800D01*
X30787Y-19800D02*
X31287Y-19300D01*
X31287Y-19300D02*
X31764Y-19300D01*
X27664Y-19250D02*
X27737Y-19250D01*
X36925Y-14300D02*
X36337Y-14300D01*
X36337Y-14300D02*
X36137Y-14500D01*
X41187Y-14300D02*
X37287Y-14300D01*
X41187Y-14300D02*
X41337Y-14300D01*
X41337Y-14300D02*
X41343Y-14293D01*
X41806Y-14293D02*
X42025Y-14075D01*
X41343Y-14293D02*
X41806Y-14293D01*
X34537Y-15900D02*
X35037Y-15900D01*
X35937Y-14700D02*
X36137Y-14500D01*
X35937Y-15600D02*
X35637Y-15900D01*
X35637Y-15900D02*
X35037Y-15900D01*
X35937Y-14700D02*
X35937Y-15600D01*
X34437Y-16000D02*
X34537Y-15900D01*
X29537Y-15900D02*
X31587Y-15900D01*
X29037Y-16400D02*
X28937Y-16400D01*
X28937Y-16400D02*
X28837Y-16500D01*
X29537Y-15900D02*
X29037Y-16400D01*
X31587Y-15900D02*
X31687Y-16000D01*
X31687Y-16000D02*
X34437Y-16000D01*
X37287Y-14300D02*
X36925Y-14300D01*
X37037Y-14300D02*
X37287Y-14300D01*
X40637Y-13800D02*
X40587Y-13850D01*
X41937Y-12400D02*
X42037Y-12400D01*
X41437Y-12900D02*
X41937Y-12400D01*
X40837Y-13500D02*
X40837Y-13600D01*
X41437Y-12900D02*
X40837Y-13500D01*
X40637Y-13800D02*
X40837Y-13600D01*
X37737Y-13850D02*
X37687Y-13850D01*
X40587Y-13850D02*
X37737Y-13850D01*
X31787Y-15500D02*
X31887Y-15600D01*
X34337Y-15500D02*
X34287Y-15550D01*
X34287Y-15550D02*
X34237Y-15600D01*
X34237Y-15600D02*
X31887Y-15600D01*
X29887Y-15500D02*
X31787Y-15500D01*
X35537Y-14200D02*
X35537Y-15200D01*
X35237Y-15500D02*
X35087Y-15500D01*
X35537Y-15200D02*
X35237Y-15500D01*
X35937Y-13850D02*
X35887Y-13850D01*
X35737Y-14000D02*
X35887Y-13850D01*
X35537Y-14200D02*
X35737Y-14000D01*
X35937Y-13850D02*
X37687Y-13850D01*
X37687Y-13850D02*
X37787Y-13850D01*
X35087Y-15500D02*
X34337Y-15500D01*
X29162Y-14775D02*
X29162Y-14025D01*
X29162Y-14025D02*
X29137Y-14000D01*
X29687Y-15300D02*
X29162Y-14775D01*
X29887Y-15500D02*
X29687Y-15300D01*
X29687Y-15300D02*
X29887Y-15500D01*
X37887Y-14050D02*
X40837Y-14050D01*
X35187Y-15700D02*
X34437Y-15700D01*
X36187Y-14050D02*
X35937Y-14300D01*
X40887Y-14000D02*
X41437Y-13450D01*
X36237Y-14050D02*
X37887Y-14050D01*
X41737Y-13100D02*
X41637Y-13100D01*
X42137Y-13200D02*
X42137Y-13500D01*
X42037Y-13100D02*
X42137Y-13200D01*
X41737Y-13100D02*
X42037Y-13100D01*
X41637Y-13100D02*
X41437Y-13300D01*
X41437Y-13300D02*
X41437Y-13450D01*
X36237Y-14050D02*
X36187Y-14050D01*
X35737Y-14500D02*
X35937Y-14300D01*
X35737Y-15400D02*
X35437Y-15700D01*
X35437Y-15700D02*
X35187Y-15700D01*
X35737Y-14500D02*
X35737Y-15400D01*
X31787Y-15800D02*
X31687Y-15700D01*
X34337Y-15800D02*
X31787Y-15800D01*
X34437Y-15700D02*
X34337Y-15800D01*
X31687Y-15700D02*
X29287Y-15700D01*
X40837Y-14050D02*
X40887Y-14000D01*
X29287Y-15700D02*
X29237Y-15650D01*
X29287Y-15700D02*
X29237Y-15650D01*
X29237Y-15650D02*
X29287Y-15700D01*
X41625Y-21375D02*
X41625Y-21625D01*
X41975Y-21025D02*
X41625Y-21375D01*
X42425Y-21025D02*
X41975Y-21025D01*
X33825Y-21500D02*
X33949Y-21500D01*
X33949Y-21500D02*
X34599Y-20850D01*
X34637Y-20850D02*
X34599Y-20850D01*
X35987Y-20850D02*
X34637Y-20850D01*
X33337Y-21500D02*
X33237Y-21600D01*
X33887Y-21500D02*
X33825Y-21500D01*
X33825Y-21500D02*
X33875Y-21500D01*
X33875Y-21500D02*
X33337Y-21500D01*
X36587Y-20454D02*
X36383Y-20454D01*
X36137Y-20850D02*
X35887Y-20850D01*
X36237Y-20750D02*
X36137Y-20850D01*
X36237Y-20600D02*
X36237Y-20750D01*
X36383Y-20454D02*
X36237Y-20600D01*
X35987Y-22100D02*
X35637Y-22100D01*
X34437Y-22100D02*
X34237Y-21900D01*
X34237Y-21900D02*
X34237Y-21600D01*
X35637Y-22100D02*
X34437Y-22100D01*
X36037Y-22100D02*
X35987Y-22100D01*
X36587Y-22296D02*
X36383Y-22296D01*
X36383Y-22296D02*
X36237Y-22150D01*
X36237Y-22150D02*
X36187Y-22100D01*
X36187Y-22100D02*
X35887Y-22100D01*
X31836Y-20151D02*
X31381Y-20151D01*
X31937Y-20050D02*
X31836Y-20151D01*
X31937Y-19750D02*
X31937Y-20050D01*
X31381Y-21150D02*
X30887Y-21150D01*
X30887Y-21150D02*
X30837Y-21100D01*
X30787Y-21150D02*
X31331Y-21150D01*
X29295Y-20651D02*
X29888Y-20651D01*
X30037Y-20800D02*
X30037Y-21000D01*
X29888Y-20651D02*
X30037Y-20800D01*
X29295Y-20651D02*
X29838Y-20651D01*
X30037Y-21000D02*
X30036Y-21001D01*
X31381Y-20651D02*
X31038Y-20651D01*
X31137Y-19750D02*
X31487Y-19750D01*
X30887Y-20000D02*
X31137Y-19750D01*
X30887Y-20500D02*
X30887Y-20000D01*
X31038Y-20651D02*
X30887Y-20500D01*
X31137Y-23600D02*
X30887Y-23600D01*
X30887Y-23600D02*
X30787Y-23500D01*
X30237Y-21400D02*
X30287Y-21350D01*
X30287Y-21350D02*
X30337Y-21300D01*
X30337Y-21300D02*
X30537Y-21300D01*
X30537Y-21300D02*
X30587Y-21300D01*
X30587Y-21300D02*
X30787Y-21500D01*
X30787Y-21500D02*
X30787Y-23500D01*
X29245Y-21650D02*
X29987Y-21650D01*
X29987Y-21650D02*
X30237Y-21400D01*
X48430Y-19893D02*
X48137Y-19600D01*
X48430Y-19893D02*
X48430Y-20562D01*
X48137Y-18800D02*
X47737Y-18400D01*
X48137Y-19600D02*
X48137Y-18800D01*
X48233Y-20562D02*
X48233Y-19996D01*
X47937Y-19100D02*
X47537Y-18700D01*
X47937Y-19700D02*
X47937Y-19100D01*
X48233Y-19996D02*
X47937Y-19700D01*
X47510Y-18727D02*
X47537Y-18700D01*
X47510Y-18727D02*
X47537Y-18700D01*
X47537Y-18700D02*
X47560Y-18723D01*
X37237Y-14700D02*
X37087Y-14700D01*
X37087Y-14700D02*
X36387Y-15400D01*
X36387Y-15725D02*
X36387Y-15762D01*
X29537Y-16500D02*
X29537Y-17100D01*
X29537Y-17100D02*
X29437Y-17200D01*
X29037Y-18200D02*
X29037Y-18400D01*
X28637Y-18800D02*
X28437Y-18800D01*
X29037Y-18400D02*
X28637Y-18800D01*
X29037Y-17600D02*
X29437Y-17200D01*
X29037Y-18200D02*
X29037Y-17600D01*
X31387Y-16300D02*
X29737Y-16300D01*
X29737Y-16300D02*
X29537Y-16500D01*
X31487Y-16400D02*
X31387Y-16300D01*
X35487Y-16300D02*
X34737Y-16300D01*
X35849Y-16300D02*
X35487Y-16300D01*
X36387Y-15725D02*
X36387Y-15400D01*
X34637Y-16400D02*
X33337Y-16400D01*
X34737Y-16300D02*
X34637Y-16400D01*
X33337Y-16400D02*
X31487Y-16400D01*
X36387Y-15762D02*
X35849Y-16300D01*
X41637Y-14700D02*
X37237Y-14700D01*
X42149Y-14700D02*
X42549Y-14700D01*
X43475Y-13775D02*
X43475Y-13225D01*
X42549Y-14700D02*
X43475Y-13775D01*
X41637Y-14700D02*
X42149Y-14700D01*
X43475Y-12925D02*
X43799Y-12600D01*
X43475Y-13225D02*
X43475Y-12925D01*
X51137Y-12600D02*
X51537Y-13000D01*
X52137Y-13600D02*
X51537Y-13000D01*
X43799Y-12600D02*
X51137Y-12600D01*
X54437Y-15470D02*
X54437Y-15000D01*
X53237Y-14700D02*
X52137Y-13600D01*
X54137Y-14700D02*
X53237Y-14700D01*
X54437Y-15000D02*
X54137Y-14700D01*
X52187Y-13650D02*
X52137Y-13600D01*
X37075Y-14500D02*
X36449Y-14500D01*
X36275Y-14675D02*
X36275Y-14662D01*
X36449Y-14500D02*
X36275Y-14675D01*
X42025Y-14500D02*
X42449Y-14500D01*
X43275Y-13675D02*
X43275Y-13275D01*
X42449Y-14500D02*
X43275Y-13675D01*
X41525Y-14500D02*
X42025Y-14500D01*
X43275Y-12825D02*
X43699Y-12400D01*
X43699Y-12400D02*
X51237Y-12400D01*
X52337Y-13500D02*
X51537Y-12700D01*
X51237Y-12400D02*
X51537Y-12700D01*
X43275Y-13275D02*
X43275Y-12825D01*
X35237Y-16100D02*
X34637Y-16100D01*
X29337Y-16400D02*
X29337Y-17000D01*
X29337Y-17000D02*
X29237Y-17100D01*
X28837Y-18100D02*
X28837Y-18300D01*
X28837Y-17500D02*
X29237Y-17100D01*
X28837Y-17700D02*
X28837Y-17500D01*
X28837Y-17700D02*
X28837Y-18100D01*
X28837Y-18300D02*
X28737Y-18400D01*
X28737Y-18400D02*
X28337Y-18400D01*
X29637Y-16100D02*
X29337Y-16400D01*
X31487Y-16100D02*
X29637Y-16100D01*
X31587Y-16200D02*
X31487Y-16100D01*
X34537Y-16200D02*
X31587Y-16200D01*
X34637Y-16100D02*
X34537Y-16200D01*
X54772Y-15470D02*
X54772Y-15034D01*
X53337Y-14500D02*
X52337Y-13500D01*
X54237Y-14500D02*
X53337Y-14500D01*
X54772Y-15034D02*
X54237Y-14500D01*
X36137Y-14800D02*
X36137Y-15700D01*
X36137Y-14800D02*
X36275Y-14662D01*
X36137Y-15700D02*
X35737Y-16100D01*
X35737Y-16100D02*
X35237Y-16100D01*
X35237Y-16100D02*
X35387Y-16100D01*
X52387Y-13550D02*
X52337Y-13500D01*
X41387Y-14500D02*
X41525Y-14500D01*
X37075Y-14500D02*
X39087Y-14500D01*
X41387Y-14500D02*
X39087Y-14500D01*
X39087Y-14500D02*
X37237Y-14500D01*
X45437Y-20400D02*
X45787Y-20400D01*
X45437Y-20400D02*
X45337Y-20300D01*
X45675Y-19775D02*
X45362Y-19775D01*
X45237Y-20200D02*
X45337Y-20300D01*
X45237Y-19900D02*
X45237Y-20200D01*
X45362Y-19775D02*
X45237Y-19900D01*
X45787Y-20400D02*
X45837Y-20450D01*
X44637Y-15996D02*
X45033Y-15996D01*
X45537Y-16500D02*
X45737Y-16500D01*
X45033Y-15996D02*
X45537Y-16500D01*
X48626Y-20011D02*
X48626Y-20562D01*
X49237Y-19700D02*
X49137Y-19800D01*
X48837Y-19800D02*
X49137Y-19800D01*
X48626Y-20011D02*
X48837Y-19800D01*
X45675Y-16823D02*
X45675Y-16562D01*
X45675Y-16562D02*
X45737Y-16500D01*
X48833Y-15000D02*
X48833Y-15304D01*
X48833Y-15304D02*
X48637Y-15500D01*
X48626Y-15511D02*
X48637Y-15500D01*
X48626Y-15511D02*
X48626Y-16036D01*
X48633Y-15496D02*
X48637Y-15500D01*
X47643Y-16036D02*
X47643Y-13664D01*
X47643Y-13664D02*
X47807Y-13500D01*
X47840Y-16036D02*
X47840Y-13897D01*
X47840Y-13897D02*
X48037Y-13700D01*
X47987Y-13750D02*
X48037Y-13700D01*
X48037Y-13700D02*
X48037Y-13250D01*
X48037Y-13250D02*
X47952Y-13165D01*
X47807Y-13165D02*
X47952Y-13165D01*
X58137Y-23350D02*
X57687Y-23350D01*
X57687Y-23350D02*
X57637Y-23400D01*
X57037Y-23604D02*
X57433Y-23604D01*
X57433Y-23604D02*
X57537Y-23500D01*
X57537Y-23500D02*
X57637Y-23400D01*
X57637Y-23400D02*
X57687Y-23350D01*
X57987Y-23350D02*
X58237Y-23350D01*
X23804Y-16800D02*
X24537Y-16800D01*
G54D69*
X23804Y-16800D02*
X24337Y-16800D01*
X23804Y-14800D02*
X23037Y-14800D01*
X23037Y-14800D02*
X22937Y-14900D01*
X46027Y-9600D02*
X46337Y-9600D01*
X46337Y-9600D02*
X46537Y-9800D01*
X42527Y-9000D02*
X43137Y-9000D01*
X40737Y-10500D02*
X39954Y-10500D01*
X40537Y-11500D02*
X40737Y-11300D01*
X40537Y-11500D02*
X39954Y-11500D01*
X40737Y-11300D02*
X40737Y-11100D01*
X39954Y-13500D02*
X39237Y-13500D01*
X39337Y-12500D02*
X39137Y-12450D01*
X39337Y-12500D02*
X39954Y-12500D01*
X45977Y-9800D02*
X46537Y-9800D01*
X50337Y-11600D02*
X50737Y-12000D01*
X50337Y-11600D02*
X50127Y-11600D01*
X33877Y-11560D02*
X33737Y-11700D01*
X33877Y-10850D02*
X33877Y-11560D01*
X33127Y-8510D02*
X33237Y-8400D01*
X33127Y-8510D02*
X33127Y-9100D01*
X22937Y-14900D02*
X23037Y-14800D01*
G54D70*
X24537Y-15800D02*
X23804Y-15800D01*
G54D69*
X24537Y-17800D02*
X24637Y-17700D01*
X23804Y-17800D02*
X24537Y-17800D01*
G54D70*
X24837Y-16400D02*
X24837Y-16300D01*
X24837Y-16500D02*
X24837Y-16300D01*
X24537Y-16800D02*
X24837Y-16500D01*
G54D71*
X47187Y-9300D02*
X46937Y-9300D01*
X46937Y-9300D02*
X46537Y-8900D01*
X46537Y-8900D02*
X46287Y-8650D01*
X46287Y-8650D02*
X46287Y-7400D01*
X44937Y-8600D02*
X45137Y-8600D01*
X45137Y-8600D02*
X45237Y-8500D01*
X45237Y-8500D02*
X45237Y-7700D01*
X45237Y-7700D02*
X44937Y-7400D01*
X44937Y-7400D02*
X44287Y-7400D01*
X40287Y-7400D02*
X40287Y-7950D01*
X40287Y-7950D02*
X40087Y-8150D01*
X40087Y-8150D02*
X39787Y-8150D01*
X39787Y-8150D02*
X39587Y-8350D01*
X39587Y-8350D02*
X39587Y-8550D01*
X34287Y-8050D02*
X33837Y-8500D01*
X34287Y-7400D02*
X34287Y-8050D01*
X33837Y-8500D02*
X33837Y-8800D01*
X32287Y-7400D02*
X31537Y-7400D01*
X31537Y-7400D02*
X30487Y-8450D01*
X30487Y-8450D02*
X30487Y-8800D01*
G54D70*
X8187Y-26300D02*
X8187Y-27070D01*
X8187Y-27070D02*
X8207Y-27090D01*
X9137Y-29300D02*
X9237Y-29400D01*
X11537Y-29400D02*
X11637Y-29300D01*
X9237Y-29400D02*
X11537Y-29400D01*
X8207Y-28370D02*
X8207Y-27090D01*
X9137Y-29300D02*
X8207Y-28370D01*
X13037Y-27900D02*
X11637Y-29300D01*
X15937Y-27900D02*
X13037Y-27900D01*
X15937Y-27900D02*
X16037Y-27900D01*
X16337Y-27600D02*
X16337Y-27100D01*
X16037Y-27900D02*
X16337Y-27600D01*
X11737Y-29500D02*
X11637Y-29600D01*
X9137Y-29600D02*
X9037Y-29500D01*
X11637Y-29600D02*
X9137Y-29600D01*
X11837Y-29400D02*
X11737Y-29500D01*
X9037Y-29500D02*
X8937Y-29400D01*
X7537Y-28000D02*
X7537Y-23780D01*
X8937Y-29400D02*
X7537Y-28000D01*
X7537Y-23780D02*
X8207Y-23110D01*
X13137Y-28100D02*
X11837Y-29400D01*
X16137Y-28100D02*
X13137Y-28100D01*
X16137Y-28100D02*
X16537Y-27700D01*
X16737Y-27500D02*
X16737Y-27100D01*
X16537Y-27700D02*
X16737Y-27500D01*
X37525Y-28175D02*
X37125Y-28175D01*
X35962Y-28125D02*
X35437Y-27600D01*
X37075Y-28125D02*
X35962Y-28125D01*
X37125Y-28175D02*
X37075Y-28125D01*
X45225Y-27625D02*
X45225Y-28725D01*
X45225Y-28725D02*
X45125Y-28825D01*
X45225Y-27625D02*
X45225Y-26675D01*
X49325Y-26225D02*
X49362Y-26225D01*
X45225Y-26675D02*
X45675Y-26225D01*
X45675Y-26225D02*
X49325Y-26225D01*
X49362Y-26225D02*
X50437Y-25150D01*
X45675Y-26525D02*
X45775Y-26425D01*
X45775Y-26425D02*
X50025Y-26425D01*
X50025Y-26425D02*
X50925Y-25525D01*
X50925Y-25525D02*
X50925Y-24637D01*
X50437Y-24150D02*
X50925Y-24637D01*
X45575Y-26625D02*
X45675Y-26525D01*
X45575Y-27425D02*
X45575Y-26625D01*
X41625Y-22975D02*
X41625Y-23125D01*
X41625Y-23125D02*
X41337Y-23412D01*
X41625Y-22125D02*
X41275Y-22125D01*
X41137Y-21987D02*
X41137Y-21200D01*
X41137Y-21200D02*
X40937Y-21000D01*
X41275Y-22125D02*
X41137Y-21987D01*
X41625Y-22125D02*
X41625Y-22975D01*
X37737Y-27600D02*
X37737Y-27200D01*
X19987Y-23550D02*
X20187Y-23750D01*
X19337Y-23500D02*
X19387Y-23550D01*
X19037Y-23200D02*
X19037Y-23100D01*
X19337Y-23500D02*
X19037Y-23200D01*
X19037Y-23100D02*
X19037Y-22900D01*
X19087Y-20650D02*
X18737Y-21000D01*
X18737Y-21500D02*
X19037Y-21800D01*
X18737Y-21000D02*
X18737Y-21500D01*
X19037Y-22600D02*
X19037Y-21800D01*
X19037Y-22900D02*
X19037Y-22600D01*
X20187Y-23750D02*
X20187Y-24100D01*
X20187Y-24150D02*
X20537Y-24500D01*
X20537Y-24500D02*
X20537Y-25700D01*
X20187Y-24100D02*
X20187Y-24150D01*
X19387Y-23550D02*
X19987Y-23550D01*
X41337Y-24200D02*
X41337Y-23412D01*
X41337Y-24700D02*
X41337Y-24200D01*
X41337Y-24200D02*
X41337Y-24100D01*
X40737Y-25300D02*
X41337Y-24700D01*
X40737Y-26300D02*
X40737Y-25300D01*
X40937Y-26500D02*
X40737Y-26300D01*
X41137Y-26500D02*
X40937Y-26500D01*
X37637Y-27200D02*
X36741Y-27200D01*
X36741Y-27200D02*
X36737Y-27196D01*
X51775Y-14825D02*
X51775Y-15175D01*
X51825Y-16175D02*
X52625Y-16975D01*
X51825Y-15225D02*
X51825Y-16175D01*
X51775Y-15175D02*
X51825Y-15225D01*
X46925Y-24225D02*
X46925Y-23625D01*
X52475Y-21925D02*
X52775Y-21625D01*
X48625Y-21925D02*
X52475Y-21925D01*
X46925Y-23625D02*
X48625Y-21925D01*
X52675Y-21725D02*
X52525Y-21875D01*
X52875Y-21525D02*
X52775Y-21625D01*
X52875Y-17225D02*
X52875Y-21525D01*
X52625Y-16975D02*
X52875Y-17225D01*
X52775Y-21625D02*
X52675Y-21725D01*
X46925Y-24225D02*
X46925Y-24637D01*
X47437Y-25150D02*
X46925Y-24637D01*
X45000Y-28550D02*
X44725Y-28825D01*
X47925Y-25525D02*
X47925Y-24637D01*
X47425Y-26025D02*
X47925Y-25525D01*
X45525Y-26025D02*
X47425Y-26025D01*
X47925Y-24637D02*
X47437Y-24150D01*
X45000Y-26550D02*
X45525Y-26025D01*
X45000Y-26550D02*
X45000Y-28550D01*
X28625Y-23925D02*
X28625Y-23975D01*
X42775Y-26575D02*
X43075Y-26275D01*
X43075Y-26275D02*
X44025Y-26275D01*
X44025Y-26275D02*
X44475Y-25825D01*
X42775Y-27675D02*
X42775Y-26575D01*
X39725Y-21075D02*
X40475Y-20325D01*
X40475Y-20325D02*
X41225Y-20325D01*
X41225Y-20325D02*
X41925Y-19625D01*
X39725Y-21275D02*
X39725Y-21075D01*
X39837Y-21650D02*
X39837Y-21437D01*
X39837Y-21437D02*
X39725Y-21275D01*
X42325Y-19625D02*
X42325Y-19575D01*
X42325Y-19575D02*
X42075Y-19325D01*
X40825Y-20125D02*
X40575Y-20125D01*
X41625Y-19325D02*
X40825Y-20125D01*
X42075Y-19325D02*
X41625Y-19325D01*
X39575Y-20725D02*
X39775Y-20725D01*
X39775Y-20725D02*
X40375Y-20125D01*
X40375Y-20125D02*
X40575Y-20125D01*
X37037Y-22300D02*
X37037Y-22800D01*
X36537Y-23100D02*
X36437Y-23200D01*
X36737Y-23100D02*
X36537Y-23100D01*
X37037Y-22800D02*
X36737Y-23100D01*
X36437Y-23200D02*
X36437Y-23450D01*
X37337Y-21800D02*
X37037Y-22100D01*
X36437Y-23250D02*
X36437Y-23200D01*
X37037Y-22100D02*
X37037Y-22300D01*
X40699Y-28400D02*
X40699Y-28000D01*
X41437Y-27262D02*
X41437Y-27000D01*
X40699Y-28000D02*
X41437Y-27262D01*
X41825Y-25150D02*
X41649Y-25150D01*
X41425Y-25375D02*
X41425Y-25675D01*
X41649Y-25150D02*
X41425Y-25375D01*
X41437Y-26125D02*
X41437Y-25687D01*
X41437Y-26125D02*
X41437Y-27000D01*
X41437Y-25687D02*
X41425Y-25675D01*
X41899Y-25150D02*
X41825Y-25150D01*
X41825Y-25150D02*
X41799Y-25150D01*
X40356Y-28743D02*
X40375Y-28725D01*
X40356Y-28743D02*
X40193Y-28743D01*
X40699Y-28400D02*
X40375Y-28725D01*
X42437Y-25150D02*
X41899Y-25150D01*
X39810Y-29126D02*
X40193Y-28743D01*
X42475Y-27825D02*
X42475Y-26525D01*
X44350Y-29700D02*
X42825Y-28175D01*
X45010Y-29700D02*
X44350Y-29700D01*
X42825Y-28175D02*
X42475Y-27825D01*
X29295Y-21150D02*
X29737Y-21150D01*
X29737Y-21150D02*
X29837Y-21300D01*
X14437Y-9600D02*
X14437Y-9500D01*
X15837Y-8100D02*
X15937Y-8100D01*
X14437Y-9500D02*
X15837Y-8100D01*
X16787Y-8100D02*
X15937Y-8100D01*
X18287Y-7400D02*
X17487Y-7400D01*
X17487Y-7400D02*
X16787Y-8100D01*
X14437Y-9600D02*
X14437Y-9650D01*
X15187Y-18250D02*
X15387Y-18250D01*
X15587Y-15100D02*
X14437Y-13950D01*
X15587Y-18050D02*
X15587Y-15100D01*
X15387Y-18250D02*
X15587Y-18050D01*
X15187Y-18450D02*
X15187Y-18250D01*
X15137Y-18500D02*
X15187Y-18450D01*
X15237Y-19177D02*
X15237Y-18300D01*
X15237Y-18300D02*
X15187Y-18250D01*
X14337Y-20300D02*
X14537Y-20300D01*
X14837Y-20000D02*
X14937Y-20000D01*
X14537Y-20300D02*
X14837Y-20000D01*
X13587Y-20300D02*
X14337Y-20300D01*
X15237Y-19800D02*
X15237Y-19177D01*
X15037Y-20000D02*
X15237Y-19800D01*
X14937Y-20000D02*
X15037Y-20000D01*
X14437Y-9650D02*
X14437Y-13950D01*
X14437Y-13950D02*
X15537Y-15050D01*
X15337Y-18250D02*
X15187Y-18250D01*
X14187Y-14000D02*
X14187Y-14050D01*
X14187Y-9400D02*
X14187Y-14000D01*
X14237Y-9350D02*
X14187Y-9400D01*
X15337Y-15200D02*
X15337Y-15300D01*
X14187Y-14050D02*
X15337Y-15200D01*
X14087Y-16650D02*
X15237Y-16650D01*
X15337Y-16550D02*
X15237Y-16650D01*
X15337Y-15300D02*
X15337Y-16550D01*
X13787Y-16650D02*
X13637Y-16800D01*
X13637Y-16800D02*
X13637Y-17200D01*
X14087Y-16650D02*
X13787Y-16650D01*
X14237Y-9350D02*
X14387Y-9200D01*
X13937Y-18100D02*
X13637Y-17800D01*
X13937Y-18100D02*
X14087Y-18250D01*
X14387Y-18250D02*
X14087Y-18250D01*
X13637Y-17800D02*
X13637Y-17200D01*
X13637Y-17200D02*
X13637Y-17100D01*
X14537Y-18500D02*
X14387Y-18350D01*
X14387Y-18350D02*
X14387Y-18250D01*
X14737Y-19177D02*
X14737Y-18700D01*
X14387Y-18350D02*
X14387Y-18250D01*
X14737Y-18700D02*
X14387Y-18350D01*
X14737Y-19177D02*
X14737Y-19700D01*
X14737Y-19700D02*
X14437Y-20000D01*
X16187Y-7400D02*
X14387Y-9200D01*
X14387Y-9200D02*
X14237Y-9350D01*
X16287Y-7400D02*
X16187Y-7400D01*
X16787Y-17700D02*
X16537Y-17700D01*
X16187Y-18250D02*
X15987Y-18250D01*
X16337Y-18100D02*
X16187Y-18250D01*
X16337Y-17900D02*
X16337Y-18100D01*
X16537Y-17700D02*
X16337Y-17900D01*
X15737Y-19177D02*
X15737Y-18800D01*
X15987Y-18550D02*
X15987Y-18250D01*
X15737Y-18800D02*
X15987Y-18550D01*
X35437Y-26600D02*
X34437Y-26600D01*
G54D71*
X34300Y-33000D02*
X33350Y-33000D01*
X32850Y-35962D02*
X34287Y-37400D01*
X32850Y-33500D02*
X32850Y-35962D01*
X33350Y-33000D02*
X32850Y-33500D01*
X35050Y-32750D02*
X35050Y-31812D01*
X35050Y-31812D02*
X34254Y-31016D01*
X34800Y-33000D02*
X34300Y-33000D01*
X34800Y-33000D02*
X35050Y-32750D01*
X34254Y-29283D02*
X34254Y-31016D01*
X30287Y-37400D02*
X30287Y-33262D01*
X30287Y-33262D02*
X30637Y-32912D01*
X30533Y-29804D02*
X30533Y-30796D01*
X30533Y-30796D02*
X30637Y-30900D01*
X30637Y-32912D02*
X30637Y-30900D01*
X30533Y-29804D02*
X30012Y-29283D01*
X27012Y-29283D02*
X26954Y-29283D01*
X26237Y-30000D02*
X26237Y-30900D01*
X26954Y-29283D02*
X26237Y-30000D01*
X26287Y-37400D02*
X26287Y-36487D01*
X23500Y-35700D02*
X22937Y-35137D01*
X25500Y-35700D02*
X23500Y-35700D01*
X26287Y-36487D02*
X25500Y-35700D01*
X22937Y-35137D02*
X22937Y-34900D01*
X25737Y-29300D02*
X25737Y-31100D01*
X22937Y-33700D02*
X22937Y-34900D01*
X22937Y-34900D02*
X22937Y-35100D01*
X23537Y-33100D02*
X22937Y-33700D01*
X26037Y-33100D02*
X23537Y-33100D01*
X26337Y-32800D02*
X26037Y-33100D01*
X26337Y-31700D02*
X26337Y-32800D01*
X25737Y-31100D02*
X26337Y-31700D01*
X22737Y-29300D02*
X22737Y-29800D01*
X22537Y-31100D02*
X22737Y-31300D01*
X22537Y-30000D02*
X22537Y-31100D01*
X22737Y-29800D02*
X22537Y-30000D01*
X20243Y-35493D02*
X20243Y-35843D01*
X21800Y-37400D02*
X22287Y-37400D01*
X20243Y-35843D02*
X21800Y-37400D01*
X20537Y-33900D02*
X20537Y-35200D01*
X20537Y-35200D02*
X20243Y-35493D01*
X20537Y-33900D02*
X21037Y-33400D01*
X21337Y-33100D02*
X21737Y-33100D01*
X21037Y-33400D02*
X21337Y-33100D01*
X21537Y-31300D02*
X22137Y-31900D01*
X21737Y-33100D02*
X22137Y-32700D01*
X21537Y-31300D02*
X21537Y-29300D01*
X22137Y-31900D02*
X22137Y-32700D01*
X17887Y-30250D02*
X17887Y-33150D01*
X17887Y-33150D02*
X17537Y-33500D01*
X18537Y-29300D02*
X18537Y-29600D01*
X18537Y-29600D02*
X17887Y-30250D01*
X17537Y-33500D02*
X17537Y-35300D01*
X17537Y-35300D02*
X17837Y-35600D01*
X34254Y-27700D02*
X34254Y-28183D01*
X34254Y-28183D02*
X33537Y-28900D01*
X34254Y-27283D02*
X34254Y-27700D01*
X33537Y-32000D02*
X33237Y-32300D01*
X33537Y-28900D02*
X33537Y-32000D01*
X29437Y-29000D02*
X29437Y-29600D01*
X29437Y-29600D02*
X29637Y-29800D01*
X29037Y-32400D02*
X29037Y-32300D01*
X29637Y-29800D02*
X29537Y-29700D01*
X29637Y-31700D02*
X29637Y-29800D01*
X29037Y-32300D02*
X29637Y-31700D01*
X24737Y-31200D02*
X24737Y-30100D01*
X24737Y-30100D02*
X25037Y-29800D01*
X24737Y-28800D02*
X25037Y-29100D01*
X25037Y-29100D02*
X25037Y-29800D01*
X24737Y-28800D02*
X24137Y-28200D01*
X24037Y-28100D02*
X23737Y-27800D01*
X23737Y-27800D02*
X23737Y-27300D01*
X24137Y-28200D02*
X24037Y-28100D01*
X24737Y-31600D02*
X24737Y-31200D01*
X24737Y-32200D02*
X24737Y-31700D01*
X24737Y-31700D02*
X24737Y-31600D01*
X22737Y-27300D02*
X22737Y-27900D01*
X22137Y-28500D02*
X22137Y-28800D01*
X22737Y-27900D02*
X22137Y-28500D01*
X22137Y-28800D02*
X22137Y-31300D01*
X20487Y-28350D02*
X20487Y-31850D01*
X20487Y-31850D02*
X20537Y-31900D01*
X20537Y-32300D02*
X20537Y-31900D01*
X20487Y-28350D02*
X20837Y-28000D01*
X20837Y-28000D02*
X21537Y-27300D01*
X17537Y-30100D02*
X17537Y-32700D01*
X17537Y-32700D02*
X17137Y-33100D01*
X17837Y-29600D02*
X17837Y-29800D01*
X17837Y-29800D02*
X17537Y-30100D01*
X17837Y-29000D02*
X17837Y-29600D01*
X17837Y-29000D02*
X18537Y-28300D01*
X18537Y-28300D02*
X18537Y-27300D01*
X17137Y-33100D02*
X17137Y-35400D01*
X17137Y-35400D02*
X17837Y-36100D01*
X33037Y-29275D02*
X33037Y-28912D01*
X33037Y-28912D02*
X33325Y-28625D01*
X33637Y-27575D02*
X33637Y-28312D01*
X33637Y-28312D02*
X33325Y-28625D01*
X33325Y-28625D02*
X33037Y-28912D01*
X33637Y-26900D02*
X33637Y-27575D01*
X34254Y-26083D02*
X34254Y-26283D01*
X34254Y-26283D02*
X33637Y-26900D01*
X34254Y-25283D02*
X34254Y-26083D01*
X32237Y-31769D02*
X32237Y-32300D01*
X33037Y-30969D02*
X32237Y-31769D01*
X33037Y-29275D02*
X33037Y-30969D01*
X28937Y-29500D02*
X29137Y-29700D01*
X28037Y-32000D02*
X28137Y-31900D01*
X28037Y-32000D02*
X28037Y-32400D01*
X28837Y-31900D02*
X28137Y-31900D01*
X29237Y-29900D02*
X29237Y-30200D01*
X29237Y-31500D02*
X29237Y-30200D01*
X28937Y-31800D02*
X29237Y-31500D01*
X28937Y-31800D02*
X28837Y-31900D01*
X29137Y-29800D02*
X29137Y-29700D01*
X29237Y-29900D02*
X29137Y-29800D01*
X28937Y-29500D02*
X28937Y-29500D01*
X27012Y-25283D02*
X27012Y-25625D01*
X25537Y-26700D02*
X25137Y-27100D01*
X25937Y-26700D02*
X25537Y-26700D01*
X27012Y-25625D02*
X25937Y-26700D01*
X24337Y-31000D02*
X24337Y-30000D01*
X24337Y-30000D02*
X24637Y-29700D01*
X24237Y-31100D02*
X23837Y-31500D01*
X23737Y-31600D02*
X23737Y-31800D01*
X23837Y-31500D02*
X23737Y-31600D01*
X24237Y-28800D02*
X24637Y-29200D01*
X24487Y-25300D02*
X23537Y-26300D01*
X23637Y-28200D02*
X23737Y-28300D01*
X23337Y-27900D02*
X23337Y-26500D01*
X23337Y-26500D02*
X23537Y-26300D01*
X23637Y-28200D02*
X23337Y-27900D01*
X23737Y-28300D02*
X24237Y-28800D01*
X24637Y-29200D02*
X24637Y-29700D01*
X24337Y-31000D02*
X24237Y-31100D01*
X23737Y-31800D02*
X23737Y-32200D01*
X22637Y-25300D02*
X22137Y-25800D01*
X22137Y-25800D02*
X22137Y-27500D01*
X22637Y-25300D02*
X22737Y-25300D01*
X20937Y-29100D02*
X20937Y-31400D01*
X22137Y-27700D02*
X20937Y-28900D01*
X20937Y-28900D02*
X20937Y-29100D01*
X22137Y-27500D02*
X22137Y-27700D01*
X19937Y-27200D02*
X19937Y-31500D01*
X19937Y-31500D02*
X19737Y-31700D01*
X20437Y-26700D02*
X19937Y-27200D01*
X19737Y-31700D02*
X19637Y-31800D01*
X19537Y-32300D02*
X19537Y-31900D01*
X19537Y-31900D02*
X19637Y-31800D01*
X21537Y-25600D02*
X21537Y-25300D01*
X20437Y-26700D02*
X21537Y-25600D01*
X17837Y-28300D02*
X17837Y-28450D01*
X18337Y-26500D02*
X17837Y-27000D01*
X18337Y-25600D02*
X18337Y-26500D01*
X18537Y-25400D02*
X18337Y-25600D01*
X18537Y-25300D02*
X18537Y-25400D01*
X17837Y-28300D02*
X17837Y-27000D01*
X17837Y-28450D02*
X17437Y-28850D01*
X17137Y-30000D02*
X17137Y-32500D01*
X17137Y-32500D02*
X16737Y-32900D01*
X17437Y-28850D02*
X17437Y-29700D01*
X17437Y-29700D02*
X17137Y-30000D01*
X16737Y-35700D02*
X17437Y-36400D01*
X16737Y-32900D02*
X16737Y-35700D01*
G54D70*
X39825Y-22325D02*
X39825Y-22712D01*
X39825Y-22712D02*
X39587Y-22950D01*
X36737Y-25800D02*
X36437Y-25800D01*
X36837Y-25900D02*
X36737Y-25800D01*
X36437Y-23950D02*
X36487Y-23950D01*
X36487Y-23950D02*
X36737Y-24200D01*
X37037Y-24200D02*
X36737Y-24200D01*
X36737Y-24200D02*
X36437Y-23900D01*
X37237Y-24400D02*
X37237Y-24500D01*
X37037Y-24200D02*
X37237Y-24400D01*
X39429Y-18575D02*
X38775Y-18575D01*
X38437Y-18912D02*
X38437Y-19100D01*
X38775Y-18575D02*
X38437Y-18912D01*
X39429Y-18575D02*
X39429Y-17412D01*
X39429Y-17412D02*
X39441Y-17400D01*
X32775Y-21475D02*
X32775Y-21737D01*
X32737Y-21450D02*
X32737Y-21500D01*
X32775Y-21737D02*
X32837Y-21800D01*
X33810Y-19300D02*
X33249Y-19300D01*
X33810Y-19300D02*
X33237Y-19300D01*
X33249Y-19300D02*
X33025Y-19525D01*
X40375Y-19775D02*
X40662Y-19775D01*
X40662Y-19775D02*
X41037Y-19400D01*
X40962Y-19475D02*
X41037Y-19400D01*
X28358Y-21421D02*
X28537Y-21600D01*
X28358Y-21421D02*
X28125Y-21421D01*
X28437Y-21500D02*
X28537Y-21600D01*
X28125Y-21421D02*
X27879Y-21421D01*
X27879Y-21421D02*
X27725Y-21575D01*
X26625Y-20521D02*
X26625Y-21129D01*
X26625Y-21129D02*
X26779Y-21129D01*
X27025Y-21575D02*
X27375Y-21575D01*
X26975Y-21525D02*
X27025Y-21575D01*
X26975Y-21325D02*
X26975Y-21525D01*
X26779Y-21129D02*
X26975Y-21325D01*
X27725Y-21575D02*
X27375Y-21575D01*
X52237Y-19550D02*
X52237Y-19000D01*
X57237Y-36200D02*
X55800Y-36200D01*
X57037Y-34925D02*
X57237Y-36600D01*
X57237Y-36600D02*
X57237Y-36200D01*
X55675Y-36075D02*
X55625Y-36075D01*
X55800Y-36200D02*
X55675Y-36075D01*
X38864Y-15800D02*
X39449Y-15800D01*
X38864Y-15800D02*
X39437Y-15800D01*
X39449Y-15800D02*
X39625Y-15625D01*
X39429Y-17412D02*
X39441Y-17400D01*
X39429Y-17412D02*
X39441Y-17400D01*
X52437Y-9000D02*
X52337Y-9100D01*
X52337Y-9100D02*
X51387Y-9100D01*
X31381Y-21650D02*
X31381Y-21894D01*
X31381Y-21650D02*
X31381Y-21744D01*
X31487Y-22000D02*
X31837Y-22000D01*
X31381Y-21894D02*
X31487Y-22000D01*
X36587Y-21704D02*
X36587Y-21500D01*
X36587Y-21500D02*
X36687Y-21400D01*
X36587Y-21046D02*
X36587Y-21300D01*
X36837Y-21400D02*
X37037Y-21600D01*
X36687Y-21400D02*
X36837Y-21400D01*
X36587Y-21300D02*
X36687Y-21400D01*
X36687Y-21096D02*
X36483Y-21096D01*
X37237Y-23204D02*
X37633Y-23204D01*
X37633Y-23204D02*
X37629Y-23200D01*
X52937Y-27100D02*
X52937Y-26650D01*
X52937Y-26650D02*
X52787Y-26500D01*
X52787Y-26500D02*
X52787Y-26300D01*
X52937Y-27500D02*
X52937Y-27100D01*
X52837Y-27865D02*
X52837Y-27600D01*
X52837Y-27600D02*
X52937Y-27500D01*
X47250Y-16036D02*
X47250Y-16437D01*
X47087Y-16600D02*
X46237Y-16600D01*
X47250Y-16437D02*
X47087Y-16600D01*
X57037Y-30720D02*
X57037Y-28937D01*
X57037Y-28937D02*
X57174Y-28800D01*
X57037Y-30720D02*
X57037Y-31900D01*
X57337Y-32200D02*
X57437Y-32200D01*
X57037Y-31900D02*
X57337Y-32200D01*
X57037Y-30720D02*
X57037Y-31400D01*
X57037Y-31400D02*
X57437Y-31800D01*
X42337Y-32150D02*
X42287Y-32100D01*
X42287Y-32100D02*
X42287Y-31600D01*
X46787Y-31200D02*
X46787Y-31550D01*
X46787Y-31550D02*
X46837Y-31600D01*
X46837Y-31600D02*
X46837Y-32150D01*
X44237Y-19650D02*
X44737Y-19650D01*
X44137Y-19750D02*
X44137Y-19904D01*
X44137Y-19750D02*
X44237Y-19650D01*
X44737Y-19650D02*
X44787Y-19700D01*
X46462Y-15725D02*
X46337Y-15600D01*
X46337Y-15600D02*
X45937Y-15600D01*
X45937Y-15600D02*
X45737Y-15800D01*
X45737Y-15800D02*
X45737Y-16100D01*
X46462Y-16036D02*
X46462Y-15725D01*
X30441Y-14400D02*
X30441Y-14004D01*
X30441Y-14004D02*
X30337Y-13950D01*
X19691Y-23046D02*
X19641Y-23046D01*
X19691Y-23046D02*
X19937Y-23046D01*
X19537Y-23150D02*
X19537Y-23250D01*
X19641Y-23046D02*
X19537Y-23150D01*
X37937Y-13500D02*
X37987Y-13550D01*
X37837Y-13500D02*
X37937Y-13500D01*
X37837Y-13500D02*
X37120Y-13500D01*
X37120Y-12500D02*
X36337Y-12500D01*
X45837Y-20100D02*
X46037Y-20100D01*
X46237Y-19900D02*
X46237Y-19800D01*
X46037Y-20100D02*
X46237Y-19900D01*
X44637Y-15404D02*
X44041Y-15404D01*
X44041Y-15404D02*
X44037Y-15400D01*
X46118Y-19381D02*
X46237Y-19500D01*
X46118Y-19381D02*
X45675Y-19381D01*
X46237Y-19500D02*
X46237Y-19800D01*
X46659Y-20562D02*
X46659Y-20178D01*
X46937Y-19900D02*
X47437Y-19900D01*
X46659Y-20178D02*
X46937Y-19900D01*
X49020Y-20562D02*
X49020Y-21117D01*
X49020Y-21117D02*
X48937Y-21200D01*
X47137Y-14400D02*
X46937Y-14400D01*
X45937Y-14700D02*
X45837Y-14600D01*
X46637Y-14700D02*
X45937Y-14700D01*
X46937Y-14400D02*
X46637Y-14700D01*
X48430Y-16036D02*
X48430Y-15693D01*
X48430Y-15693D02*
X48237Y-15500D01*
X49217Y-16036D02*
X49217Y-15620D01*
X49317Y-15520D02*
X49337Y-15500D01*
X49217Y-15620D02*
X49337Y-15500D01*
X48823Y-16486D02*
X48937Y-16600D01*
X48937Y-16600D02*
X49037Y-16600D01*
X48823Y-16036D02*
X48823Y-16486D01*
X48241Y-15000D02*
X48241Y-15496D01*
X48241Y-15496D02*
X48237Y-15500D01*
X48233Y-15504D02*
X48237Y-15500D01*
X48233Y-15504D02*
X48233Y-16036D01*
X50201Y-18397D02*
X50734Y-18397D01*
X50734Y-18397D02*
X50837Y-18500D01*
X58987Y-24450D02*
X59437Y-24000D01*
X59437Y-23700D02*
X59437Y-24000D01*
X58987Y-24450D02*
X58137Y-24450D01*
X57037Y-24196D02*
X57333Y-24196D01*
X57587Y-24450D02*
X58137Y-24450D01*
X57333Y-24196D02*
X57587Y-24450D01*
X21887Y-23654D02*
X21041Y-23654D01*
X21041Y-23654D02*
X20937Y-23550D01*
X20937Y-23550D02*
X20937Y-24500D01*
X20937Y-24500D02*
X21037Y-24600D01*
X17087Y-25500D02*
X17087Y-25050D01*
X16891Y-24546D02*
X16637Y-24800D01*
X16891Y-24546D02*
X17087Y-24546D01*
X16837Y-24800D02*
X16637Y-24800D01*
X17087Y-25050D02*
X16837Y-24800D01*
X58377Y-31660D02*
X58237Y-31800D01*
X58377Y-31660D02*
X58377Y-30220D01*
X54537Y-30700D02*
X54537Y-30400D01*
X54385Y-30552D02*
X54537Y-30400D01*
X54385Y-30552D02*
X53737Y-30552D01*
X11687Y-25446D02*
X12091Y-25446D01*
X12091Y-25446D02*
X12137Y-25400D01*
X13937Y-17200D02*
X14087Y-17050D01*
X14087Y-17050D02*
X14441Y-17050D01*
X14537Y-16200D02*
X14437Y-16100D01*
X14437Y-16100D02*
X14037Y-16100D01*
X32237Y-25996D02*
X31841Y-25996D01*
X31841Y-25996D02*
X31737Y-26000D01*
X44041Y-11600D02*
X43637Y-11600D01*
X43737Y-11600D02*
X44041Y-11600D01*
X43637Y-11600D02*
X43537Y-11500D01*
X37737Y-23308D02*
X37737Y-23700D01*
X37629Y-23200D02*
X37737Y-23308D01*
X38864Y-16800D02*
X38864Y-17573D01*
X39037Y-17400D02*
X38837Y-17600D01*
X39037Y-17400D02*
X39441Y-17400D01*
X38864Y-17573D02*
X38837Y-17600D01*
X37537Y-17500D02*
X37137Y-17500D01*
X37137Y-17500D02*
X37037Y-17600D01*
X35537Y-18100D02*
X34937Y-18100D01*
X34937Y-18100D02*
X34837Y-18200D01*
X34837Y-19400D02*
X34437Y-19400D01*
X34437Y-19400D02*
X34337Y-19300D01*
X26533Y-17200D02*
X26737Y-17200D01*
X27037Y-17100D02*
X26937Y-17000D01*
X27037Y-17100D02*
X27337Y-17100D01*
X26737Y-17200D02*
X26937Y-17000D01*
X26633Y-17196D02*
X26633Y-17100D01*
X27637Y-15504D02*
X28141Y-15504D01*
X28141Y-15504D02*
X28475Y-15775D01*
X29710Y-19250D02*
X30387Y-19250D01*
X30387Y-19250D02*
X30437Y-19300D01*
X30737Y-17000D02*
X31037Y-17000D01*
X31037Y-17000D02*
X31237Y-17200D01*
X29987Y-16700D02*
X30337Y-16700D01*
X30337Y-16700D02*
X30687Y-17050D01*
X31641Y-17150D02*
X31287Y-17150D01*
X31287Y-17150D02*
X31237Y-17200D01*
X17137Y-24596D02*
X17087Y-24546D01*
X9087Y-25600D02*
X10037Y-25600D01*
X45637Y-32165D02*
X45272Y-32165D01*
X45272Y-32165D02*
X45237Y-32200D01*
X35033Y-14000D02*
X35033Y-13904D01*
X34929Y-13800D02*
X34737Y-13800D01*
X35033Y-13904D02*
X34929Y-13800D01*
X34037Y-17400D02*
X34137Y-17400D01*
X34137Y-17400D02*
X34237Y-17300D01*
X33487Y-17150D02*
X33587Y-17150D01*
X33837Y-17400D02*
X34037Y-17400D01*
X33587Y-17150D02*
X33837Y-17400D01*
X15987Y-17650D02*
X15987Y-17250D01*
X15987Y-17250D02*
X15937Y-17200D01*
X33810Y-19300D02*
X34337Y-19300D01*
X34337Y-19300D02*
X34387Y-19350D01*
X35091Y-16904D02*
X35037Y-16850D01*
X35091Y-16904D02*
X35037Y-16850D01*
X35537Y-16904D02*
X35091Y-16904D01*
X40737Y-32265D02*
X41072Y-32265D01*
X41072Y-32265D02*
X41137Y-32200D01*
X36037Y-32515D02*
X36037Y-32400D01*
X35937Y-32300D02*
X35637Y-32300D01*
X36037Y-32400D02*
X35937Y-32300D01*
X37537Y-31750D02*
X37537Y-32100D01*
X37537Y-32100D02*
X37637Y-32200D01*
X19187Y-30500D02*
X19187Y-30050D01*
X19187Y-30050D02*
X19237Y-30000D01*
X14237Y-25000D02*
X14541Y-24696D01*
X14541Y-24696D02*
X14737Y-24696D01*
X14737Y-25354D02*
X14737Y-24696D01*
X11687Y-26696D02*
X11687Y-27150D01*
X11637Y-27200D02*
X11637Y-27300D01*
X11687Y-27150D02*
X11637Y-27200D01*
X19637Y-21396D02*
X19133Y-21396D01*
X19133Y-21396D02*
X19037Y-21300D01*
X18637Y-24296D02*
X18833Y-24296D01*
X19033Y-24496D02*
X19687Y-24496D01*
X18833Y-24296D02*
X19033Y-24496D01*
X19687Y-24496D02*
X19687Y-25050D01*
X19687Y-25050D02*
X19637Y-25100D01*
X19637Y-25100D02*
X19937Y-25100D01*
X19937Y-25100D02*
X20237Y-25400D01*
X23687Y-30400D02*
X23687Y-30550D01*
X23687Y-30550D02*
X23937Y-30800D01*
X24037Y-29000D02*
X24237Y-29200D01*
X24237Y-29400D02*
X24237Y-29200D01*
X24037Y-29000D02*
X23737Y-29000D01*
X27487Y-30600D02*
X27837Y-30600D01*
X27937Y-30700D02*
X27937Y-30800D01*
X27837Y-30600D02*
X27937Y-30700D01*
X28037Y-29100D02*
X27637Y-29100D01*
X32637Y-29200D02*
X32637Y-30100D01*
X31687Y-30250D02*
X31837Y-30100D01*
X31837Y-30100D02*
X32637Y-30100D01*
X31687Y-30250D02*
X31687Y-30500D01*
X36737Y-26604D02*
X36341Y-26604D01*
X36341Y-26604D02*
X36337Y-26600D01*
X20970Y-15800D02*
X20237Y-15800D01*
X20437Y-16800D02*
X20037Y-16400D01*
X20437Y-16800D02*
X20970Y-16800D01*
X20037Y-16000D02*
X20037Y-16400D01*
X20237Y-15800D02*
X20037Y-16000D01*
X15237Y-21223D02*
X15237Y-20400D01*
X15237Y-20400D02*
X15337Y-20300D01*
X15387Y-23046D02*
X15387Y-23350D01*
X15137Y-23600D02*
X14737Y-23600D01*
X15387Y-23350D02*
X15137Y-23600D01*
X37120Y-11500D02*
X36437Y-11500D01*
X36437Y-11500D02*
X36337Y-11600D01*
X37120Y-10500D02*
X37637Y-10500D01*
X37637Y-10500D02*
X37837Y-10700D01*
X46637Y-13354D02*
X46637Y-12900D01*
X44037Y-13404D02*
X44037Y-13100D01*
X44037Y-13100D02*
X43937Y-13000D01*
X50437Y-32200D02*
X50037Y-32200D01*
X49348Y-31511D02*
X50037Y-32200D01*
X49348Y-31511D02*
X49348Y-30700D01*
X35033Y-14400D02*
X35033Y-14000D01*
X36437Y-25200D02*
X36737Y-25200D01*
X36937Y-25500D02*
X37037Y-25500D01*
X36837Y-25400D02*
X36937Y-25500D01*
X36837Y-25300D02*
X36837Y-25400D01*
X36737Y-25200D02*
X36837Y-25300D01*
X35441Y-25200D02*
X35437Y-25196D01*
X35437Y-25196D02*
X35437Y-25600D01*
X35437Y-25600D02*
X35237Y-25800D01*
X31637Y-23296D02*
X31637Y-23700D01*
X31137Y-24200D02*
X31037Y-24200D01*
X31637Y-23700D02*
X31137Y-24200D01*
X27837Y-23496D02*
X27837Y-23600D01*
X27837Y-23600D02*
X27537Y-23900D01*
X28471Y-15779D02*
X28475Y-15775D01*
X21433Y-19150D02*
X21433Y-18904D01*
X21329Y-18800D02*
X21237Y-18800D01*
X21433Y-18904D02*
X21329Y-18800D01*
X20970Y-17800D02*
X20137Y-17800D01*
X20337Y-14500D02*
X20337Y-14700D01*
X20437Y-14800D02*
X20337Y-14700D01*
X20437Y-14800D02*
X20970Y-14800D01*
X26533Y-12204D02*
X26237Y-12500D01*
X12537Y-22300D02*
X12591Y-22354D01*
X12591Y-22354D02*
X13137Y-22354D01*
X16837Y-16796D02*
X16341Y-16796D01*
X16341Y-16796D02*
X16337Y-16800D01*
X14737Y-27146D02*
X14291Y-27146D01*
X14087Y-27350D02*
X13637Y-27350D01*
X14291Y-27146D02*
X14087Y-27350D01*
X11450Y-31950D02*
X11100Y-31950D01*
X11100Y-31600D02*
X11450Y-31950D01*
X11450Y-31950D02*
X11537Y-32037D01*
X11537Y-32037D02*
X11537Y-33300D01*
G54D71*
X20637Y-13375D02*
X20637Y-13500D01*
X20437Y-13700D02*
X20187Y-13700D01*
X20637Y-13500D02*
X20437Y-13700D01*
X18412Y-14800D02*
X18637Y-14800D01*
X18983Y-14454D02*
X19187Y-14454D01*
X18637Y-14800D02*
X18983Y-14454D01*
X18512Y-12000D02*
X18512Y-11675D01*
X18787Y-11400D02*
X18937Y-11400D01*
X18512Y-11675D02*
X18787Y-11400D01*
X23362Y-11400D02*
X23362Y-11625D01*
X23237Y-11750D02*
X23237Y-12000D01*
X23362Y-11625D02*
X23237Y-11750D01*
G54D70*
X20637Y-13375D02*
X20637Y-13400D01*
X23362Y-11075D02*
X23437Y-11000D01*
X23362Y-11075D02*
X23362Y-11400D01*
X19387Y-11400D02*
X18937Y-11400D01*
X33787Y-23300D02*
X33787Y-24050D01*
X33787Y-24050D02*
X33637Y-24200D01*
X36737Y-18104D02*
X36737Y-17700D01*
X36737Y-17700D02*
X36637Y-17600D01*
X39337Y-19304D02*
X39337Y-19100D01*
X39237Y-19000D02*
X38937Y-19000D01*
X39337Y-19100D02*
X39237Y-19000D01*
X24087Y-9750D02*
X24137Y-9800D01*
X24137Y-9800D02*
X24137Y-10000D01*
X24087Y-9750D02*
X23733Y-9750D01*
X18937Y-13004D02*
X18541Y-13004D01*
X18937Y-13004D02*
X18833Y-13004D01*
X18337Y-13208D02*
X18337Y-13400D01*
X18541Y-13004D02*
X18337Y-13208D01*
X37537Y-18100D02*
X37237Y-18100D01*
X37233Y-18104D02*
X36737Y-18104D01*
X37237Y-18100D02*
X37233Y-18104D01*
X23237Y-12000D02*
X23537Y-12000D01*
X23737Y-12200D02*
X23637Y-12100D01*
X23937Y-12200D02*
X23737Y-12200D01*
X23537Y-12000D02*
X23637Y-12100D01*
X17837Y-10400D02*
X17837Y-10500D01*
X17837Y-10500D02*
X17537Y-10800D01*
X15637Y-14300D02*
X15737Y-14400D01*
X15737Y-14400D02*
X16137Y-14400D01*
X33787Y-24050D02*
X33637Y-24200D01*
X34141Y-24400D02*
X33837Y-24400D01*
X33837Y-24400D02*
X33637Y-24200D01*
X19237Y-14404D02*
X19237Y-14000D01*
X19237Y-14000D02*
X19237Y-14254D01*
X22197Y-8800D02*
X22637Y-8800D01*
X22637Y-8800D02*
X22837Y-8600D01*
X25137Y-9300D02*
X25037Y-9200D01*
X25037Y-9200D02*
X24837Y-9200D01*
X24687Y-8800D02*
X24687Y-9050D01*
X24687Y-9050D02*
X24837Y-9200D01*
X25183Y-9346D02*
X25183Y-9650D01*
X25137Y-9300D02*
X25183Y-9346D01*
X25183Y-9650D02*
X25387Y-9650D01*
X25387Y-9650D02*
X25637Y-9800D01*
X26987Y-11100D02*
X26987Y-11650D01*
X26987Y-11650D02*
X27037Y-11700D01*
X20437Y-8900D02*
X20591Y-8746D01*
X20591Y-8746D02*
X20591Y-8450D01*
X19597Y-9550D02*
X19597Y-9140D01*
X19597Y-9140D02*
X19837Y-8900D01*
X19783Y-8846D02*
X19837Y-8900D01*
X19783Y-8846D02*
X19837Y-8900D01*
X19783Y-8450D02*
X19783Y-8846D01*
X16237Y-9750D02*
X16237Y-9500D01*
X16647Y-9090D02*
X16647Y-8700D01*
X16237Y-9500D02*
X16647Y-9090D01*
X15937Y-8700D02*
X16647Y-8700D01*
X15487Y-12000D02*
X15487Y-12350D01*
X15487Y-12350D02*
X15637Y-12500D01*
X47446Y-16036D02*
X47446Y-15309D01*
X47446Y-15309D02*
X47137Y-15000D01*
X49020Y-16036D02*
X49020Y-15417D01*
X49637Y-14800D02*
X49737Y-14800D01*
X49020Y-15417D02*
X49637Y-14800D01*
X41437Y-17500D02*
X41937Y-17500D01*
X41937Y-17500D02*
X42137Y-17300D01*
X42137Y-17300D02*
X42137Y-17050D01*
X42137Y-17200D02*
X42137Y-17050D01*
X40910Y-16800D02*
X41637Y-16800D01*
X41887Y-17050D02*
X42137Y-17050D01*
X41637Y-16800D02*
X41887Y-17050D01*
X48802Y-13165D02*
X48437Y-13165D01*
X48837Y-13200D02*
X48802Y-13165D01*
X48637Y-13500D02*
X48437Y-13500D01*
X48637Y-13500D02*
X48837Y-13700D01*
X11650Y-30000D02*
X11900Y-30000D01*
X11900Y-30000D02*
X12200Y-29700D01*
X15533Y-34754D02*
X15533Y-33816D01*
X15533Y-33816D02*
X15800Y-33550D01*
X15800Y-33550D02*
X15800Y-32500D01*
X15800Y-32500D02*
X13300Y-30000D01*
X13300Y-30000D02*
X12500Y-30000D01*
X12500Y-30000D02*
X12200Y-29700D01*
X12200Y-29700D02*
X12200Y-29500D01*
X12200Y-29500D02*
X13399Y-28300D01*
X17137Y-27100D02*
X17137Y-27500D01*
X17137Y-27500D02*
X16337Y-28300D01*
X16337Y-28300D02*
X13399Y-28300D01*
X7542Y-31845D02*
X7542Y-30907D01*
X8450Y-30000D02*
X11650Y-30000D01*
X11650Y-30000D02*
X11700Y-30000D01*
X7542Y-30907D02*
X8450Y-30000D01*
X48036Y-16036D02*
X48036Y-16451D01*
X47887Y-16600D02*
X47787Y-16600D01*
X48036Y-16451D02*
X47887Y-16600D01*
X47053Y-16036D02*
X47053Y-15484D01*
X47053Y-15484D02*
X47137Y-15400D01*
X32775Y-20875D02*
X32775Y-20712D01*
X32775Y-20712D02*
X33037Y-20450D01*
X33037Y-20450D02*
X32987Y-20500D01*
X18633Y-17500D02*
X18633Y-17004D01*
X18633Y-17004D02*
X18837Y-16800D01*
X18041Y-17500D02*
X18041Y-16996D01*
X18041Y-16996D02*
X18237Y-16800D01*
G54D71*
X49087Y-9100D02*
X48937Y-9100D01*
X48937Y-9100D02*
X48637Y-8800D01*
X48637Y-8800D02*
X48287Y-8450D01*
X48287Y-8450D02*
X48287Y-7400D01*
G54D70*
X12987Y-20300D02*
X12987Y-19500D01*
X12987Y-19500D02*
X13037Y-19450D01*
X15033Y-17050D02*
X15033Y-17196D01*
X15187Y-17350D02*
X15187Y-17650D01*
X15033Y-17196D02*
X15187Y-17350D01*
X14387Y-17650D02*
X15187Y-17650D01*
X14387Y-17650D02*
X13987Y-17650D01*
X13987Y-17650D02*
X13937Y-17600D01*
X13537Y-19450D02*
X13537Y-18400D01*
X13537Y-18400D02*
X13537Y-18200D01*
X14237Y-19177D02*
X14237Y-19400D01*
X14187Y-19450D02*
X13537Y-19450D01*
X14237Y-19400D02*
X14187Y-19450D01*
X14037Y-15300D02*
X14737Y-15300D01*
X8837Y-16000D02*
X12237Y-16000D01*
X12937Y-15300D02*
X13437Y-15300D01*
X12237Y-16000D02*
X12937Y-15300D01*
X14237Y-21223D02*
X14060Y-21223D01*
X13137Y-20900D02*
X13137Y-21150D01*
X13237Y-20800D02*
X13137Y-20900D01*
X13637Y-20800D02*
X13237Y-20800D01*
X14060Y-21223D02*
X13637Y-20800D01*
X9837Y-17650D02*
X11287Y-17650D01*
X12837Y-16100D02*
X13437Y-16100D01*
X11287Y-17650D02*
X12837Y-16100D01*
X10187Y-17650D02*
X9837Y-17650D01*
X16837Y-16204D02*
X16837Y-16000D01*
X16837Y-16000D02*
X17037Y-15800D01*
X35537Y-18700D02*
X35337Y-18500D01*
X34437Y-18300D02*
X34637Y-18500D01*
X34637Y-18500D02*
X35337Y-18500D01*
X34437Y-18300D02*
X33810Y-18300D01*
X33810Y-18800D02*
X34837Y-18800D01*
X34837Y-18800D02*
X34487Y-18800D01*
G54D69*
X34737Y-17800D02*
X34237Y-17800D01*
X34237Y-17800D02*
X33810Y-17800D01*
X34387Y-17800D02*
X33810Y-17800D01*
G54D70*
X32887Y-17150D02*
X32887Y-17650D01*
X32887Y-17650D02*
X32737Y-17800D01*
X32537Y-18000D02*
X32737Y-17800D01*
X31764Y-18300D02*
X32237Y-18300D01*
X32237Y-18300D02*
X32537Y-18000D01*
X29710Y-18750D02*
X30387Y-18750D01*
X30437Y-18800D02*
X30737Y-18800D01*
X30387Y-18750D02*
X30437Y-18800D01*
X29710Y-18750D02*
X30137Y-18750D01*
G54D69*
X29710Y-17750D02*
X29887Y-17750D01*
X29987Y-17650D02*
X29987Y-17300D01*
X29887Y-17750D02*
X29987Y-17650D01*
G54D70*
X30337Y-18100D02*
X30337Y-17800D01*
X30537Y-17600D02*
X30737Y-17600D01*
X30337Y-17800D02*
X30537Y-17600D01*
X29710Y-18250D02*
X30187Y-18250D01*
X30187Y-18250D02*
X30337Y-18100D01*
X28237Y-18000D02*
X28237Y-18100D01*
X28237Y-18100D02*
X28137Y-18200D01*
X27664Y-18250D02*
X28087Y-18250D01*
X28087Y-18250D02*
X28137Y-18200D01*
X28337Y-17900D02*
X28337Y-17600D01*
X27937Y-17200D02*
X28337Y-17600D01*
X28237Y-18000D02*
X28337Y-17900D01*
G54D69*
X54425Y-34125D02*
X54425Y-33725D01*
X51337Y-35800D02*
X51037Y-36100D01*
X51037Y-36650D02*
X50287Y-37400D01*
X51037Y-36100D02*
X51037Y-36650D01*
X52737Y-35500D02*
X51637Y-35500D01*
X51637Y-35500D02*
X51337Y-35800D01*
X52737Y-35500D02*
X53706Y-35500D01*
G54D70*
X54837Y-27900D02*
X54837Y-27200D01*
X54837Y-27200D02*
X54737Y-27100D01*
X54937Y-27900D02*
X54837Y-27900D01*
X55237Y-26600D02*
X54737Y-26600D01*
X54737Y-27100D02*
X55237Y-27100D01*
X12637Y-24850D02*
X12037Y-24850D01*
X12037Y-24850D02*
X12033Y-24854D01*
X10937Y-24900D02*
X11237Y-24900D01*
X11283Y-24854D02*
X11687Y-24854D01*
X11237Y-24900D02*
X11283Y-24854D01*
X12033Y-24854D02*
X11687Y-24854D01*
X21187Y-21600D02*
X21137Y-21600D01*
X21437Y-21600D02*
X21187Y-21600D01*
X21137Y-21600D02*
X21037Y-21700D01*
X15987Y-25500D02*
X15987Y-24250D01*
X16037Y-24200D02*
X16337Y-23900D01*
X16337Y-23900D02*
X16637Y-23900D01*
X15987Y-24250D02*
X16037Y-24200D01*
X16387Y-26500D02*
X16387Y-26250D01*
X16387Y-26250D02*
X15987Y-25850D01*
X15987Y-25850D02*
X15987Y-25500D01*
X16037Y-25500D02*
X16137Y-25500D01*
X16637Y-23900D02*
X16637Y-23300D01*
X16337Y-23000D02*
X16237Y-22900D01*
X16637Y-23300D02*
X16337Y-23000D01*
X16537Y-23900D02*
X16637Y-23900D01*
X16637Y-23900D02*
X16691Y-23954D01*
X16691Y-23954D02*
X17087Y-23954D01*
X14737Y-22400D02*
X14337Y-22400D01*
X13987Y-22400D02*
X14337Y-22400D01*
X14737Y-22400D02*
X15333Y-22400D01*
X15333Y-22400D02*
X15387Y-22454D01*
X15333Y-22400D02*
X15387Y-22454D01*
X15791Y-22454D02*
X15387Y-22454D01*
X16237Y-22900D02*
X15791Y-22454D01*
X16387Y-23050D02*
X16237Y-22900D01*
X16037Y-26600D02*
X15537Y-26600D01*
X16137Y-26500D02*
X16037Y-26600D01*
X11687Y-26104D02*
X11933Y-26104D01*
X11933Y-26104D02*
X11937Y-26100D01*
X11387Y-26104D02*
X11091Y-26104D01*
X11091Y-26104D02*
X10937Y-25950D01*
X12637Y-25850D02*
X12387Y-26100D01*
X11391Y-26100D02*
X11387Y-26104D01*
X12387Y-26100D02*
X11937Y-26100D01*
X11937Y-26100D02*
X11391Y-26100D01*
X13637Y-25350D02*
X14237Y-25950D01*
X13637Y-25350D02*
X13137Y-25350D01*
X13137Y-25350D02*
X12637Y-25850D01*
X15537Y-26600D02*
X15537Y-26250D01*
X15233Y-25946D02*
X14737Y-25946D01*
X15537Y-26250D02*
X15233Y-25946D01*
X16387Y-26500D02*
X16137Y-26500D01*
X10937Y-25950D02*
X10937Y-25500D01*
X14237Y-25950D02*
X14733Y-25950D01*
X14733Y-25950D02*
X14737Y-25946D01*
X20337Y-21600D02*
X20337Y-21650D01*
X20337Y-21600D02*
X20337Y-21400D01*
X20337Y-21650D02*
X19937Y-22050D01*
X15137Y-27100D02*
X15137Y-26700D01*
X15137Y-26700D02*
X14991Y-26554D01*
X15237Y-27200D02*
X15137Y-27100D01*
X15287Y-27200D02*
X15237Y-27200D01*
X15537Y-27200D02*
X15287Y-27200D01*
X14991Y-26554D02*
X14737Y-26554D01*
X13637Y-26350D02*
X14037Y-26350D01*
X14241Y-26554D02*
X14737Y-26554D01*
X14037Y-26350D02*
X14241Y-26554D01*
X14737Y-23000D02*
X14737Y-23100D01*
X13637Y-24200D02*
X13637Y-24350D01*
X14737Y-23100D02*
X13637Y-24200D01*
X13637Y-24350D02*
X13937Y-24350D01*
X14183Y-24104D02*
X14737Y-24104D01*
X13937Y-24350D02*
X14183Y-24104D01*
X13987Y-23000D02*
X13587Y-23000D01*
X13141Y-22950D02*
X13137Y-22946D01*
X13537Y-22950D02*
X13141Y-22950D01*
X13587Y-23000D02*
X13537Y-22950D01*
X12637Y-23850D02*
X12637Y-23200D01*
X12791Y-22946D02*
X13137Y-22946D01*
X12637Y-23100D02*
X12791Y-22946D01*
X12637Y-23200D02*
X12637Y-23100D01*
X8807Y-28090D02*
X8807Y-27730D01*
X9037Y-27050D02*
X9087Y-27000D01*
X9037Y-27500D02*
X9037Y-27050D01*
X8807Y-27730D02*
X9037Y-27500D01*
X19441Y-23904D02*
X19241Y-23904D01*
X19241Y-23904D02*
X19037Y-23700D01*
X19687Y-23904D02*
X19441Y-23904D01*
X18637Y-23704D02*
X18983Y-23704D01*
X18983Y-23704D02*
X19037Y-23700D01*
G54D72*
X21987Y-22800D02*
X21987Y-23050D01*
X22137Y-23200D02*
X22237Y-23200D01*
X21987Y-23050D02*
X22137Y-23200D01*
G54D70*
X8807Y-24110D02*
X8807Y-24370D01*
X9087Y-24650D02*
X9087Y-25000D01*
X8807Y-24370D02*
X9087Y-24650D01*
X22937Y-22250D02*
X22687Y-22250D01*
X22687Y-22250D02*
X22537Y-22400D01*
X29387Y-26450D02*
X28637Y-26450D01*
X28387Y-26700D02*
X28387Y-27200D01*
X28637Y-26450D02*
X28387Y-26700D01*
X28787Y-26450D02*
X29387Y-26450D01*
X28387Y-27200D02*
X28387Y-26800D01*
X23887Y-21950D02*
X22587Y-21950D01*
X22587Y-21950D02*
X22537Y-22000D01*
X24187Y-22250D02*
X23887Y-21950D01*
X22587Y-22050D02*
X22537Y-22000D01*
X21537Y-13000D02*
X21937Y-13000D01*
X21937Y-13000D02*
X22112Y-12825D01*
X22037Y-12700D02*
X22037Y-12750D01*
X21947Y-11660D02*
X22037Y-11750D01*
X22037Y-11750D02*
X22037Y-12700D01*
X21587Y-11660D02*
X21947Y-11660D01*
X22037Y-12750D02*
X22112Y-12825D01*
X22112Y-12825D02*
X22137Y-12850D01*
X22137Y-12850D02*
X22437Y-12850D01*
X22187Y-12850D02*
X22437Y-12850D01*
X24137Y-12700D02*
X24187Y-12650D01*
X22437Y-13350D02*
X22437Y-13600D01*
X23687Y-13550D02*
X23637Y-13600D01*
X23637Y-13600D02*
X22437Y-13600D01*
X23687Y-13300D02*
X23687Y-13550D01*
X23687Y-13150D02*
X24137Y-12700D01*
X23687Y-13300D02*
X23687Y-13150D01*
X24187Y-12650D02*
X24937Y-12650D01*
X25087Y-12650D02*
X24937Y-12650D01*
X24537Y-12200D02*
X25187Y-12200D01*
X25187Y-12200D02*
X25237Y-12150D01*
X25237Y-12150D02*
X25587Y-11800D01*
X25037Y-11500D02*
X24837Y-11700D01*
X25787Y-11350D02*
X25937Y-11500D01*
X25937Y-11850D02*
X25937Y-11500D01*
X25187Y-11350D02*
X25787Y-11350D01*
X25037Y-11500D02*
X25187Y-11350D01*
X24837Y-11700D02*
X24537Y-11700D01*
X25687Y-12650D02*
X25787Y-12650D01*
X25937Y-12500D02*
X25937Y-11850D01*
X25787Y-12650D02*
X25937Y-12500D01*
X22437Y-12350D02*
X22737Y-12350D01*
X22737Y-12350D02*
X22987Y-12600D01*
X22987Y-12600D02*
X23237Y-12600D01*
X22737Y-12350D02*
X22837Y-12450D01*
X23237Y-12600D02*
X23237Y-12800D01*
X23237Y-12800D02*
X23087Y-12950D01*
X23087Y-13300D02*
X23087Y-12950D01*
X18037Y-13800D02*
X18037Y-13100D01*
X18437Y-12700D02*
X18637Y-12700D01*
X18037Y-13100D02*
X18437Y-12700D01*
X18837Y-12200D02*
X18837Y-12500D01*
X18837Y-12500D02*
X18637Y-12700D01*
X19387Y-11660D02*
X19027Y-11660D01*
X19027Y-11660D02*
X18837Y-11850D01*
X18837Y-11850D02*
X18837Y-12200D01*
X17537Y-13950D02*
X17787Y-13950D01*
X17787Y-13950D02*
X17937Y-13800D01*
X17137Y-13950D02*
X17537Y-13950D01*
X16137Y-13200D02*
X16137Y-13800D01*
X16937Y-14400D02*
X16637Y-14400D01*
X16537Y-14000D02*
X16337Y-13800D01*
X16537Y-14300D02*
X16537Y-14000D01*
X16637Y-14400D02*
X16537Y-14300D01*
X16337Y-13800D02*
X16137Y-13800D01*
X16837Y-14450D02*
X17137Y-14450D01*
X16737Y-14350D02*
X16837Y-14450D01*
X16737Y-14300D02*
X16737Y-14350D01*
X17837Y-9800D02*
X18637Y-9800D01*
G54D71*
X24287Y-7400D02*
X23587Y-8100D01*
X21583Y-8100D02*
X21183Y-8500D01*
X23587Y-8100D02*
X21583Y-8100D01*
G54D70*
X21177Y-9550D02*
X20787Y-9550D01*
X20787Y-9550D02*
X20537Y-9800D01*
X21177Y-9550D02*
X21177Y-8606D01*
X21177Y-8606D02*
X21183Y-8600D01*
X17537Y-12700D02*
X17537Y-13300D01*
X17537Y-13300D02*
X17637Y-13400D01*
X18637Y-10200D02*
X19087Y-10200D01*
X19387Y-10635D02*
X19052Y-10635D01*
X18937Y-10750D02*
X18937Y-10800D01*
X19052Y-10635D02*
X18937Y-10750D01*
X19387Y-10890D02*
X19027Y-10890D01*
X19027Y-10890D02*
X18937Y-10800D01*
X21937Y-10600D02*
X21937Y-10250D01*
X21937Y-10250D02*
X21887Y-10200D01*
X21587Y-10890D02*
X21827Y-10890D01*
X21937Y-10780D02*
X21937Y-10600D01*
X21937Y-10600D02*
X21937Y-10580D01*
X21827Y-10890D02*
X21937Y-10780D01*
X21587Y-10640D02*
X21877Y-10640D01*
X21887Y-10200D02*
X21887Y-9850D01*
X21877Y-10640D02*
X21937Y-10580D01*
X20387Y-14000D02*
X20737Y-14000D01*
X20737Y-14000D02*
X21187Y-13550D01*
X21187Y-12350D02*
X21187Y-13550D01*
X20387Y-14000D02*
X20137Y-14000D01*
X19837Y-14400D02*
X19837Y-14300D01*
X19837Y-14300D02*
X20137Y-14000D01*
X21587Y-11915D02*
X21322Y-11915D01*
X21187Y-12050D02*
X21187Y-12350D01*
X21322Y-11915D02*
X21187Y-12050D01*
X21367Y-12170D02*
X21587Y-12170D01*
X21187Y-12350D02*
X21367Y-12170D01*
X19637Y-13000D02*
X19637Y-12650D01*
X19387Y-11915D02*
X19122Y-11915D01*
X19037Y-12000D02*
X19037Y-12250D01*
X19122Y-11915D02*
X19037Y-12000D01*
X19387Y-12170D02*
X19117Y-12170D01*
X19537Y-12550D02*
X19637Y-12650D01*
X19137Y-12550D02*
X19537Y-12550D01*
X19037Y-12450D02*
X19137Y-12550D01*
X19037Y-12250D02*
X19037Y-12450D01*
X19117Y-12170D02*
X19037Y-12250D01*
X24537Y-11200D02*
X24837Y-10900D01*
X24287Y-11450D02*
X24037Y-11450D01*
X24537Y-11200D02*
X24287Y-11450D01*
X26387Y-11100D02*
X25037Y-11100D01*
X26237Y-11100D02*
X25037Y-11100D01*
X25037Y-11100D02*
X24837Y-10900D01*
X22137Y-11000D02*
X22137Y-10900D01*
X22637Y-10400D02*
X22987Y-10400D01*
X22137Y-10900D02*
X22637Y-10400D01*
X24037Y-10950D02*
X23787Y-10950D01*
X23387Y-10550D02*
X23387Y-10500D01*
X23787Y-10950D02*
X23387Y-10550D01*
X21587Y-11150D02*
X21987Y-11150D01*
X21987Y-11150D02*
X22137Y-11000D01*
X23287Y-10400D02*
X22987Y-10400D01*
X23387Y-10500D02*
X23287Y-10400D01*
X26037Y-9396D02*
X25733Y-9396D01*
X25733Y-9396D02*
X25587Y-9250D01*
X25537Y-10200D02*
X25837Y-10200D01*
X26087Y-9950D02*
X26087Y-9446D01*
X25837Y-10200D02*
X26087Y-9950D01*
X26087Y-9446D02*
X26087Y-9500D01*
X25637Y-9300D02*
X25587Y-9250D01*
X25237Y-10650D02*
X25237Y-10600D01*
X24937Y-10300D02*
X24837Y-10300D01*
X25237Y-10600D02*
X24937Y-10300D01*
X25537Y-10800D02*
X25387Y-10800D01*
X25387Y-10800D02*
X25237Y-10650D01*
X25637Y-10800D02*
X25387Y-10800D01*
X25387Y-10800D02*
X25237Y-10650D01*
X24837Y-10300D02*
X24537Y-10300D01*
X24537Y-10300D02*
X24387Y-10450D01*
X24387Y-10450D02*
X24037Y-10450D01*
X25337Y-8700D02*
X25637Y-8700D01*
X25791Y-8854D02*
X26087Y-8854D01*
X25637Y-8700D02*
X25791Y-8854D01*
G54D71*
X24337Y-8500D02*
X24337Y-8300D01*
X24237Y-8800D02*
X23777Y-8800D01*
X24337Y-8700D02*
X24237Y-8800D01*
X25587Y-8100D02*
X26287Y-7400D01*
X24337Y-8500D02*
X24337Y-8700D01*
X24337Y-8300D02*
X24537Y-8100D01*
X24537Y-8100D02*
X25587Y-8100D01*
G54D70*
X23927Y-8700D02*
X23927Y-9290D01*
X23927Y-9290D02*
X24037Y-9400D01*
X23927Y-8700D02*
X23537Y-8700D01*
X23537Y-8700D02*
X23337Y-8900D01*
X24037Y-9400D02*
X23987Y-9350D01*
X24591Y-9650D02*
X24287Y-9650D01*
X24287Y-9650D02*
X24037Y-9400D01*
X16237Y-10350D02*
X16287Y-10350D01*
X16487Y-10150D02*
X16537Y-10150D01*
X16287Y-10350D02*
X16487Y-10150D01*
X17037Y-9700D02*
X16737Y-9700D01*
X16637Y-10050D02*
X16537Y-10150D01*
X16637Y-9800D02*
X16637Y-10050D01*
X16737Y-9700D02*
X16637Y-9800D01*
G54D71*
X19191Y-8500D02*
X19191Y-8296D01*
X19191Y-8296D02*
X19387Y-8100D01*
X19191Y-8500D02*
X18837Y-8500D01*
X18637Y-8700D02*
X18227Y-8700D01*
X18837Y-8500D02*
X18637Y-8700D01*
X22287Y-7400D02*
X21637Y-7400D01*
G54D70*
X19191Y-8296D02*
X19187Y-8300D01*
G54D71*
X19387Y-8100D02*
X19187Y-8300D01*
X20937Y-8100D02*
X19387Y-8100D01*
X21637Y-7400D02*
X20937Y-8100D01*
G54D70*
X18227Y-8700D02*
X17587Y-8700D01*
X17437Y-8850D02*
X17437Y-9150D01*
X17587Y-8700D02*
X17437Y-8850D01*
X16937Y-12700D02*
X16637Y-12700D01*
X16637Y-12700D02*
X16537Y-12600D01*
X16537Y-12600D02*
X16137Y-12600D01*
X16937Y-13400D02*
X16937Y-12700D01*
X15237Y-10700D02*
X15237Y-10900D01*
X15387Y-11050D02*
X16237Y-11050D01*
X15237Y-10900D02*
X15387Y-11050D01*
X16237Y-11050D02*
X17087Y-11050D01*
X16237Y-11650D02*
X16237Y-11500D01*
X15837Y-11400D02*
X15487Y-11400D01*
X16037Y-11400D02*
X15837Y-11400D01*
X16137Y-11400D02*
X16037Y-11400D01*
X16237Y-11500D02*
X16137Y-11400D01*
X17087Y-11900D02*
X16537Y-11900D01*
X16537Y-11900D02*
X16237Y-11600D01*
X17087Y-10350D02*
X17087Y-10450D01*
X16837Y-10700D02*
X16637Y-10700D01*
X17087Y-10450D02*
X16837Y-10700D01*
X15887Y-10700D02*
X15737Y-10550D01*
X16537Y-10700D02*
X15887Y-10700D01*
X15237Y-10100D02*
X15587Y-10100D01*
X15587Y-10100D02*
X15737Y-10250D01*
X15737Y-10250D02*
X15737Y-10550D01*
X19387Y-11145D02*
X19032Y-11145D01*
X18987Y-11100D02*
X18737Y-11100D01*
X19032Y-11145D02*
X18987Y-11100D01*
X17087Y-11550D02*
X17537Y-11550D01*
X17637Y-11450D02*
X17637Y-11200D01*
X17537Y-11550D02*
X17637Y-11450D01*
X18137Y-11000D02*
X18637Y-11000D01*
X18137Y-11000D02*
X17837Y-11000D01*
X17837Y-11000D02*
X17787Y-11050D01*
X18737Y-11100D02*
X18637Y-11000D01*
X17787Y-11050D02*
X17637Y-11200D01*
X56837Y-17000D02*
X56937Y-16900D01*
X56937Y-16900D02*
X57237Y-16900D01*
X54937Y-17000D02*
X54737Y-16800D01*
X56837Y-17000D02*
X54937Y-17000D01*
X54737Y-16800D02*
X54837Y-16900D01*
X54837Y-16900D02*
X54737Y-16800D01*
X54737Y-16800D02*
X54737Y-16134D01*
X54737Y-16134D02*
X54772Y-16100D01*
X56937Y-17300D02*
X57237Y-17300D01*
X56937Y-17300D02*
X56837Y-17200D01*
X56837Y-17200D02*
X54837Y-17200D01*
X54837Y-17200D02*
X54437Y-16800D01*
X54437Y-16800D02*
X54437Y-16100D01*
X39954Y-13000D02*
X39037Y-13000D01*
X39037Y-13000D02*
X38837Y-13200D01*
X38837Y-13200D02*
X38837Y-13500D01*
X38156Y-8850D02*
X38537Y-8850D01*
X38837Y-9150D02*
X39587Y-9150D01*
X38537Y-8850D02*
X38837Y-9150D01*
X39587Y-9150D02*
X40137Y-9150D01*
X40287Y-9000D02*
X40947Y-9000D01*
X40137Y-9150D02*
X40287Y-9000D01*
X34837Y-10648D02*
X34837Y-12150D01*
X34837Y-12150D02*
X35087Y-12400D01*
X34887Y-12200D02*
X35087Y-12400D01*
X42437Y-10800D02*
X42437Y-10152D01*
X25137Y-14200D02*
X24437Y-14200D01*
X26937Y-13700D02*
X27037Y-13800D01*
X25637Y-13700D02*
X26937Y-13700D01*
X24337Y-14300D02*
X24437Y-14200D01*
X23954Y-14300D02*
X24337Y-14300D01*
X25137Y-14200D02*
X25537Y-13800D01*
X25537Y-13800D02*
X25637Y-13700D01*
X34837Y-9350D02*
X34837Y-9100D01*
X35087Y-8850D02*
X36818Y-8850D01*
X34837Y-9100D02*
X35087Y-8850D01*
X35187Y-9400D02*
X35187Y-9150D01*
X35487Y-8850D02*
X36818Y-8850D01*
X38712Y-11975D02*
X38712Y-10925D01*
X39187Y-10750D02*
X39287Y-10850D01*
X38887Y-10750D02*
X39187Y-10750D01*
X38712Y-10925D02*
X38887Y-10750D01*
X39954Y-11000D02*
X39437Y-11000D01*
X38187Y-12500D02*
X37937Y-12500D01*
X38712Y-11975D02*
X38187Y-12500D01*
X39437Y-11000D02*
X39287Y-10850D01*
X44337Y-8600D02*
X44037Y-8600D01*
X44037Y-9600D02*
X44447Y-9600D01*
X43837Y-9400D02*
X44037Y-9600D01*
X43837Y-8800D02*
X43837Y-9400D01*
X44037Y-8600D02*
X43837Y-8800D01*
X44447Y-9600D02*
X44447Y-10010D01*
X45006Y-10269D02*
X45006Y-10700D01*
X44937Y-10200D02*
X45006Y-10269D01*
X44637Y-10200D02*
X44937Y-10200D01*
X44447Y-10010D02*
X44637Y-10200D01*
X44397Y-9800D02*
X44387Y-9810D01*
X44887Y-10931D02*
X44887Y-10550D01*
X44887Y-10550D02*
X44787Y-10450D01*
X44887Y-10931D02*
X44906Y-10950D01*
X44387Y-8750D02*
X44397Y-8760D01*
X47737Y-11400D02*
X47737Y-11800D01*
X47587Y-11650D02*
X47737Y-11800D01*
X47587Y-11650D02*
X47187Y-11650D01*
X47168Y-10450D02*
X47187Y-10469D01*
X47187Y-10469D02*
X47187Y-11650D01*
X39037Y-11100D02*
X39187Y-11250D01*
X39437Y-12000D02*
X39954Y-12000D01*
X39187Y-11800D02*
X39387Y-12000D01*
X39387Y-12000D02*
X39437Y-12000D01*
X39187Y-11800D02*
X39187Y-11250D01*
X39037Y-11050D02*
X39037Y-11100D01*
X43568Y-10950D02*
X43237Y-10950D01*
X42737Y-11450D02*
X42237Y-11450D01*
X42887Y-11300D02*
X42737Y-11450D01*
X43237Y-10950D02*
X42887Y-11300D01*
X28168Y-8800D02*
X27187Y-8800D01*
X27187Y-8800D02*
X26937Y-8550D01*
X29506Y-8800D02*
X29937Y-8800D01*
X30037Y-9200D02*
X30137Y-9300D01*
X30037Y-8900D02*
X30037Y-9200D01*
X29937Y-8800D02*
X30037Y-8900D01*
X30237Y-9400D02*
X30487Y-9400D01*
X30137Y-9300D02*
X30237Y-9400D01*
X31547Y-9100D02*
X31087Y-9100D01*
X30787Y-9400D02*
X30487Y-9400D01*
X31087Y-9100D02*
X30787Y-9400D01*
X29337Y-12400D02*
X29637Y-12100D01*
X30437Y-12100D02*
X30537Y-12100D01*
X30537Y-12100D02*
X30637Y-12000D01*
X30637Y-12000D02*
X30637Y-11700D01*
X30637Y-11700D02*
X30537Y-11600D01*
X30537Y-11600D02*
X30437Y-11600D01*
X29637Y-12100D02*
X30437Y-12100D01*
X24637Y-17100D02*
X25737Y-16000D01*
X23954Y-17300D02*
X24437Y-17300D01*
X24637Y-17100D02*
X24437Y-17300D01*
X25737Y-16000D02*
X25737Y-15150D01*
X25737Y-15150D02*
X25987Y-14900D01*
X29737Y-12400D02*
X30637Y-12400D01*
X30937Y-11600D02*
X30737Y-11400D01*
X30937Y-12100D02*
X30937Y-11600D01*
X30637Y-12400D02*
X30937Y-12100D01*
X26937Y-9848D02*
X27585Y-9848D01*
X27585Y-9848D02*
X27637Y-9900D01*
X30537Y-11000D02*
X30537Y-10100D01*
X30337Y-9900D02*
X27637Y-9900D01*
X30537Y-10100D02*
X30337Y-9900D01*
X30737Y-11400D02*
X30537Y-11200D01*
X30537Y-11200D02*
X30537Y-11000D01*
X28337Y-11800D02*
X28037Y-11800D01*
X28037Y-11800D02*
X27789Y-11552D01*
X27789Y-11100D02*
X27789Y-11552D01*
X26737Y-14500D02*
X26737Y-14300D01*
X26737Y-14300D02*
X26637Y-14200D01*
X26587Y-14650D02*
X26737Y-14500D01*
X26587Y-14650D02*
X26437Y-14800D01*
X25837Y-14600D02*
X25787Y-14650D01*
X26087Y-14600D02*
X25837Y-14600D01*
X26137Y-14650D02*
X26087Y-14600D01*
X26287Y-14800D02*
X26137Y-14650D01*
X26437Y-14800D02*
X26287Y-14800D01*
X24737Y-16000D02*
X25537Y-15200D01*
X25787Y-14650D02*
X25537Y-14900D01*
X24437Y-16300D02*
X24737Y-16000D01*
X25537Y-15200D02*
X25537Y-14900D01*
X23804Y-16300D02*
X24437Y-16300D01*
X26687Y-14550D02*
X26587Y-14650D01*
X24137Y-16300D02*
X23804Y-16300D01*
X25687Y-14350D02*
X26237Y-14350D01*
X24987Y-15050D02*
X24737Y-15300D01*
X23954Y-15300D02*
X24737Y-15300D01*
X25687Y-14350D02*
X24987Y-15050D01*
X26237Y-14350D02*
X26337Y-14450D01*
X26287Y-14400D02*
X26337Y-14450D01*
X33837Y-9400D02*
X33837Y-9800D01*
X33537Y-10100D02*
X33437Y-10100D01*
X33837Y-9800D02*
X33537Y-10100D01*
X32437Y-10100D02*
X32297Y-10240D01*
X33437Y-10100D02*
X32437Y-10100D01*
X31256Y-10900D02*
X32247Y-10900D01*
X32247Y-10900D02*
X32297Y-10850D01*
X32297Y-10240D02*
X32297Y-10650D01*
X29968Y-10900D02*
X29637Y-10900D01*
X29637Y-10900D02*
X29437Y-11100D01*
X29087Y-11100D02*
X29437Y-11100D01*
X48547Y-11600D02*
X48487Y-11540D01*
X48487Y-10469D02*
X48506Y-10450D01*
X48487Y-11540D02*
X48487Y-10469D01*
X48506Y-10450D02*
X48537Y-10419D01*
X47987Y-9300D02*
X47787Y-9300D01*
X48537Y-9850D02*
X47987Y-9300D01*
X48537Y-10419D02*
X48537Y-9850D01*
X41187Y-11325D02*
X41187Y-11462D01*
X40837Y-10000D02*
X40637Y-10000D01*
X41187Y-10350D02*
X40837Y-10000D01*
X39954Y-10000D02*
X40637Y-10000D01*
X41187Y-10600D02*
X41187Y-11325D01*
X41187Y-10600D02*
X41187Y-10350D01*
X41187Y-11462D02*
X40825Y-11825D01*
X43337Y-12100D02*
X43837Y-12100D01*
X43937Y-11900D02*
X44237Y-11900D01*
X43337Y-12100D02*
X41437Y-12100D01*
X41437Y-12100D02*
X41325Y-11975D01*
X43837Y-12100D02*
X44037Y-11900D01*
X44037Y-11900D02*
X43937Y-11900D01*
X44137Y-11900D02*
X44237Y-11900D01*
X44237Y-11900D02*
X45437Y-11900D01*
X45889Y-11650D02*
X45687Y-11650D01*
X45687Y-11650D02*
X45437Y-11900D01*
X17137Y-28900D02*
X17137Y-28600D01*
X16837Y-29200D02*
X17137Y-28900D01*
X16637Y-29200D02*
X16837Y-29200D01*
X16437Y-29400D02*
X16637Y-29200D01*
X16437Y-29400D02*
X16437Y-29600D01*
X13737Y-28900D02*
X13737Y-28800D01*
X13737Y-28800D02*
X14037Y-28500D01*
X14537Y-28500D02*
X14037Y-28500D01*
X14737Y-28700D02*
X14537Y-28500D01*
X14637Y-29300D02*
X14637Y-29200D01*
X14637Y-29200D02*
X14837Y-29000D01*
X14837Y-29000D02*
X15237Y-29000D01*
X15537Y-28600D02*
X15537Y-28700D01*
X15437Y-28800D02*
X15537Y-28700D01*
X15237Y-29000D02*
X15437Y-28800D01*
X15537Y-29600D02*
X15537Y-29400D01*
X15537Y-29400D02*
X15737Y-29200D01*
X16037Y-29100D02*
X15937Y-29200D01*
X16337Y-28600D02*
X16337Y-28800D01*
X16337Y-28800D02*
X16037Y-29100D01*
X15937Y-29200D02*
X15737Y-29200D01*
G54D71*
X28287Y-37400D02*
X28287Y-36912D01*
X29750Y-35450D02*
X29750Y-33312D01*
X28287Y-36912D02*
X29750Y-35450D01*
X29750Y-33312D02*
X29437Y-33000D01*
X29437Y-33000D02*
X28737Y-33000D01*
X28737Y-33000D02*
X28537Y-32800D01*
X28537Y-32800D02*
X28537Y-32400D01*
X28537Y-32400D02*
X28537Y-32800D01*
X28737Y-33000D02*
X29437Y-33000D01*
X28537Y-32800D02*
X28737Y-33000D01*
X32287Y-37400D02*
X32287Y-33250D01*
X32287Y-33250D02*
X32737Y-32800D01*
X32287Y-37400D02*
X32287Y-36512D01*
X32737Y-32800D02*
X32737Y-32300D01*
X24287Y-37400D02*
X24287Y-37087D01*
X22550Y-35350D02*
X22550Y-33487D01*
X24287Y-37087D02*
X22550Y-35350D01*
X22537Y-33500D02*
X22550Y-33487D01*
X22550Y-33487D02*
X23337Y-32700D01*
X23337Y-32700D02*
X24137Y-32700D01*
X24137Y-32700D02*
X24237Y-32600D01*
X24237Y-32600D02*
X24237Y-32200D01*
X24237Y-32600D02*
X24237Y-32200D01*
X23037Y-33000D02*
X23337Y-32700D01*
X23337Y-32700D02*
X24137Y-32700D01*
X24137Y-32700D02*
X24237Y-32600D01*
G54D70*
X22737Y-32300D02*
X23337Y-31700D01*
X23337Y-31700D02*
X23337Y-31200D01*
X21737Y-33831D02*
X21737Y-33600D01*
X22737Y-32600D02*
X22737Y-32300D01*
X21737Y-33600D02*
X22737Y-32600D01*
X18837Y-33331D02*
X18837Y-32600D01*
X18837Y-32600D02*
X18537Y-32300D01*
X18537Y-32300D02*
X18537Y-31600D01*
X18537Y-31600D02*
X18837Y-31300D01*
X18537Y-32300D02*
X18537Y-31900D01*
G54D71*
X42100Y-35726D02*
X42100Y-36100D01*
X41750Y-36450D02*
X41237Y-36450D01*
X42100Y-36100D02*
X41750Y-36450D01*
X41237Y-36450D02*
X40287Y-37400D01*
G54D70*
X37937Y-31825D02*
X37937Y-31537D01*
X37077Y-30677D02*
X37077Y-30225D01*
X37937Y-31537D02*
X37077Y-30677D01*
X37637Y-32800D02*
X37937Y-32500D01*
X37937Y-32500D02*
X37937Y-32000D01*
X37187Y-32550D02*
X37387Y-32550D01*
X37387Y-32550D02*
X37637Y-32800D01*
X36037Y-32987D02*
X36450Y-32987D01*
X37137Y-32600D02*
X37187Y-32550D01*
X36837Y-32600D02*
X37137Y-32600D01*
X36450Y-32987D02*
X36837Y-32600D01*
X37937Y-32000D02*
X37937Y-31825D01*
X37937Y-31825D02*
X37937Y-31800D01*
X42637Y-32100D02*
X42637Y-31287D01*
X42437Y-32500D02*
X42637Y-32300D01*
X42637Y-32300D02*
X42637Y-32200D01*
X42637Y-32200D02*
X42637Y-32100D01*
X41477Y-30677D02*
X41477Y-30225D01*
X41875Y-31075D02*
X41477Y-30677D01*
X42425Y-31075D02*
X41875Y-31075D01*
X42637Y-31287D02*
X42425Y-31075D01*
X41937Y-32400D02*
X42187Y-32400D01*
X42287Y-32500D02*
X42437Y-32500D01*
X42187Y-32400D02*
X42287Y-32500D01*
X42487Y-32450D02*
X42437Y-32500D01*
X41937Y-32400D02*
X41337Y-32400D01*
X40737Y-32737D02*
X41000Y-32737D01*
X41000Y-32737D02*
X41337Y-32400D01*
X47137Y-31775D02*
X47137Y-29937D01*
X47975Y-29100D02*
X48737Y-29100D01*
X47137Y-29937D02*
X47975Y-29100D01*
X51637Y-26000D02*
X51537Y-26100D01*
X51537Y-26100D02*
X51537Y-28700D01*
X51537Y-28700D02*
X51437Y-28800D01*
X51137Y-29100D02*
X50837Y-29100D01*
X50037Y-29100D02*
X50637Y-29100D01*
X50037Y-29100D02*
X48737Y-29100D01*
X50837Y-29100D02*
X50637Y-29100D01*
X51437Y-28800D02*
X51137Y-29100D01*
X51537Y-28700D02*
X51437Y-28800D01*
X53387Y-26000D02*
X53387Y-27100D01*
X53237Y-25850D02*
X53387Y-26000D01*
X51787Y-25850D02*
X53237Y-25850D01*
X51637Y-26000D02*
X51787Y-25850D01*
X46837Y-32500D02*
X46937Y-32500D01*
X46637Y-32500D02*
X46837Y-32500D01*
X47137Y-32300D02*
X47137Y-32200D01*
X46937Y-32500D02*
X47137Y-32300D01*
X47137Y-32200D02*
X47137Y-31775D01*
X47137Y-31775D02*
X47137Y-31750D01*
X45637Y-32637D02*
X46500Y-32637D01*
X46500Y-32637D02*
X46637Y-32500D01*
X46437Y-32000D02*
X46437Y-32300D01*
X46437Y-32300D02*
X46637Y-32500D01*
X46437Y-32300D02*
X46637Y-32500D01*
X45700Y-32637D02*
X45737Y-32600D01*
X52837Y-28337D02*
X53137Y-28337D01*
X53437Y-28637D02*
X53437Y-29300D01*
X53137Y-28337D02*
X53437Y-28637D01*
X52437Y-27100D02*
X52437Y-27700D01*
X52837Y-28337D02*
X52574Y-28337D01*
X52574Y-28337D02*
X52437Y-28200D01*
X52437Y-28200D02*
X52437Y-27700D01*
X52437Y-27700D02*
X52437Y-27300D01*
G54D71*
X45250Y-36350D02*
X45150Y-36250D01*
X46287Y-37400D02*
X45650Y-36762D01*
X45250Y-36350D02*
X45650Y-36750D01*
X45650Y-36750D02*
X45650Y-36762D01*
X44600Y-36250D02*
X44550Y-36200D01*
X45150Y-36250D02*
X44600Y-36250D01*
X44400Y-36050D02*
X44550Y-36200D01*
X44400Y-35726D02*
X44400Y-36050D01*
G54D70*
X27137Y-31400D02*
X28306Y-31400D01*
X28306Y-31400D02*
X28437Y-31269D01*
X27137Y-31400D02*
X27137Y-31600D01*
X27012Y-31725D02*
X27137Y-31600D01*
X27012Y-31725D02*
X27012Y-32283D01*
X27537Y-31400D02*
X27137Y-31400D01*
G54D71*
X46600Y-34073D02*
X47773Y-34073D01*
X48437Y-34737D02*
X48437Y-34800D01*
X47773Y-34073D02*
X48437Y-34737D01*
X40037Y-34073D02*
X39426Y-34073D01*
X39426Y-34073D02*
X39100Y-34400D01*
X39100Y-34400D02*
X39100Y-35800D01*
X42100Y-34073D02*
X42873Y-34073D01*
X43500Y-34700D02*
X43500Y-35700D01*
X42873Y-34073D02*
X43500Y-34700D01*
X40037Y-35726D02*
X40037Y-36562D01*
X43487Y-38200D02*
X44287Y-37400D01*
X40000Y-38200D02*
X43487Y-38200D01*
X39500Y-37700D02*
X40000Y-38200D01*
X39500Y-37100D02*
X39500Y-37700D01*
X40037Y-36562D02*
X39500Y-37100D01*
X44400Y-34073D02*
X43473Y-34073D01*
X43473Y-34073D02*
X43450Y-34050D01*
X31300Y-33531D02*
X31300Y-32329D01*
X31300Y-32329D02*
X31254Y-32283D01*
G54D70*
X31254Y-32283D02*
X31254Y-33183D01*
X31254Y-33183D02*
X31601Y-33531D01*
X31254Y-32283D02*
X31254Y-31383D01*
X31254Y-31383D02*
X31337Y-31300D01*
G54D71*
X20287Y-37400D02*
X20287Y-36387D01*
X19900Y-36000D02*
X19900Y-35037D01*
X20287Y-36387D02*
X19900Y-36000D01*
X19900Y-35037D02*
X20058Y-34878D01*
X20058Y-34878D02*
X20058Y-32321D01*
X20058Y-32321D02*
X20037Y-32300D01*
X20058Y-33978D02*
X20058Y-34878D01*
X20058Y-33078D02*
X20058Y-33978D01*
X20058Y-32215D02*
X20058Y-33078D01*
X46150Y-38150D02*
X45750Y-38150D01*
X45350Y-37750D02*
X45350Y-37550D01*
X45750Y-38150D02*
X45350Y-37750D01*
X46500Y-38150D02*
X46750Y-38150D01*
X47300Y-37600D02*
X47300Y-37300D01*
X46750Y-38150D02*
X47300Y-37600D01*
X46600Y-35726D02*
X46600Y-36200D01*
X46600Y-36200D02*
X47300Y-36900D01*
X47300Y-36900D02*
X47300Y-37300D01*
X43037Y-36650D02*
X42287Y-37400D01*
X45350Y-37550D02*
X45350Y-37000D01*
X45350Y-37000D02*
X45000Y-36650D01*
X45000Y-36650D02*
X43037Y-36650D01*
X46500Y-38150D02*
X46150Y-38150D01*
X38287Y-37400D02*
X38287Y-36687D01*
X38150Y-36550D02*
X38150Y-35726D01*
X38287Y-36687D02*
X38150Y-36550D01*
G54D70*
X13537Y-33100D02*
X13337Y-33100D01*
X13537Y-33100D02*
X14737Y-33100D01*
X13337Y-33100D02*
X12937Y-32700D01*
X40375Y-19175D02*
X40375Y-18975D01*
X40949Y-18400D02*
X41137Y-18400D01*
X40375Y-18975D02*
X40949Y-18400D01*
X41587Y-18400D02*
X41137Y-18400D01*
X41687Y-18300D02*
X41587Y-18400D01*
X41937Y-18300D02*
X41687Y-18300D01*
X42087Y-18450D02*
X41937Y-18300D01*
G54D10*
G36*
X50587Y-32379D02*
X50516Y-32450D01*
X50258Y-32450D01*
X50239Y-32405D01*
X50197Y-32362D01*
X50142Y-32339D01*
X50082Y-32339D01*
X49990Y-32339D01*
X49990Y-31089D01*
X49990Y-30650D01*
X49940Y-30600D01*
X49498Y-30600D01*
X49498Y-31199D01*
X49548Y-31249D01*
X49750Y-31249D01*
X49830Y-31249D01*
X49904Y-31219D01*
X49960Y-31162D01*
X49990Y-31089D01*
X49990Y-32339D01*
X49848Y-32339D01*
X48887Y-31379D01*
X48887Y-31249D01*
X49048Y-31249D01*
X49098Y-31199D01*
X49098Y-30600D01*
X49090Y-30600D01*
X49090Y-30200D01*
X49098Y-30200D01*
X49098Y-30192D01*
X49498Y-30192D01*
X49498Y-30200D01*
X49940Y-30200D01*
X49990Y-30150D01*
X50387Y-30150D01*
X50387Y-31820D01*
X50587Y-32020D01*
X50587Y-32379D01*
X50587Y-32379D01*
G37*
G54D70*
X50587Y-32379D02*
X50516Y-32450D01*
X50258Y-32450D01*
X50239Y-32405D01*
X50197Y-32362D01*
X50142Y-32339D01*
X50082Y-32339D01*
X49990Y-32339D01*
X49990Y-31089D01*
X49990Y-30650D01*
X49940Y-30600D01*
X49498Y-30600D01*
X49498Y-31199D01*
X49548Y-31249D01*
X49750Y-31249D01*
X49830Y-31249D01*
X49904Y-31219D01*
X49960Y-31162D01*
X49990Y-31089D01*
X49990Y-32339D01*
X49848Y-32339D01*
X48887Y-31379D01*
X48887Y-31249D01*
X49048Y-31249D01*
X49098Y-31199D01*
X49098Y-30600D01*
X49090Y-30600D01*
X49090Y-30200D01*
X49098Y-30200D01*
X49098Y-30192D01*
X49498Y-30192D01*
X49498Y-30200D01*
X49940Y-30200D01*
X49990Y-30150D01*
X50387Y-30150D01*
X50387Y-31820D01*
X50587Y-32020D01*
X50587Y-32379D01*
G54D10*
G36*
X18687Y-22800D02*
X17787Y-22800D01*
X17787Y-21900D01*
X18687Y-21900D01*
X18687Y-22800D01*
X18687Y-22800D01*
G37*
G54D70*
X18687Y-22800D02*
X17787Y-22800D01*
X17787Y-21900D01*
X18687Y-21900D01*
X18687Y-22800D01*
G54D10*
G36*
X59487Y-14450D02*
X57387Y-14450D01*
X57387Y-11915D01*
X57404Y-11955D01*
X57481Y-12033D01*
X57582Y-12075D01*
X57692Y-12075D01*
X57793Y-12033D01*
X57870Y-11956D01*
X57912Y-11855D01*
X57912Y-11745D01*
X57870Y-11644D01*
X57793Y-11567D01*
X57692Y-11525D01*
X57583Y-11525D01*
X57482Y-11566D01*
X57404Y-11644D01*
X57387Y-11685D01*
X57387Y-10450D01*
X57737Y-10450D01*
X59487Y-10450D01*
X59487Y-14450D01*
X59487Y-14450D01*
G37*
G54D70*
X59487Y-14450D02*
X57387Y-14450D01*
X57387Y-11915D01*
X57404Y-11955D01*
X57481Y-12033D01*
X57582Y-12075D01*
X57692Y-12075D01*
X57793Y-12033D01*
X57870Y-11956D01*
X57912Y-11855D01*
X57912Y-11745D01*
X57870Y-11644D01*
X57793Y-11567D01*
X57692Y-11525D01*
X57583Y-11525D01*
X57482Y-11566D01*
X57404Y-11644D01*
X57387Y-11685D01*
X57387Y-10450D01*
X57737Y-10450D01*
X59487Y-10450D01*
X59487Y-14450D01*
G54D10*
G36*
X59487Y-18950D02*
X57387Y-18950D01*
X57387Y-17535D01*
X57393Y-17533D01*
X57470Y-17456D01*
X57512Y-17355D01*
X57512Y-17245D01*
X57470Y-17144D01*
X57426Y-17100D01*
X57470Y-17056D01*
X57512Y-16955D01*
X57512Y-16845D01*
X57470Y-16744D01*
X57393Y-16667D01*
X57387Y-16664D01*
X57387Y-16635D01*
X57482Y-16675D01*
X57592Y-16675D01*
X57693Y-16633D01*
X57770Y-16556D01*
X57812Y-16455D01*
X57812Y-16345D01*
X57770Y-16244D01*
X57693Y-16167D01*
X57592Y-16125D01*
X57483Y-16125D01*
X57387Y-16164D01*
X57387Y-14950D01*
X59487Y-14950D01*
X59487Y-18950D01*
X59487Y-18950D01*
G37*
G54D70*
X59487Y-18950D02*
X57387Y-18950D01*
X57387Y-17535D01*
X57393Y-17533D01*
X57470Y-17456D01*
X57512Y-17355D01*
X57512Y-17245D01*
X57470Y-17144D01*
X57426Y-17100D01*
X57470Y-17056D01*
X57512Y-16955D01*
X57512Y-16845D01*
X57470Y-16744D01*
X57393Y-16667D01*
X57387Y-16664D01*
X57387Y-16635D01*
X57482Y-16675D01*
X57592Y-16675D01*
X57693Y-16633D01*
X57770Y-16556D01*
X57812Y-16455D01*
X57812Y-16345D01*
X57770Y-16244D01*
X57693Y-16167D01*
X57592Y-16125D01*
X57483Y-16125D01*
X57387Y-16164D01*
X57387Y-14950D01*
X59487Y-14950D01*
X59487Y-18950D01*
G54D10*
G36*
X59487Y-22750D02*
X57387Y-22750D01*
X57387Y-21035D01*
X57482Y-21075D01*
X57592Y-21075D01*
X57693Y-21033D01*
X57770Y-20956D01*
X57812Y-20855D01*
X57812Y-20745D01*
X57770Y-20644D01*
X57693Y-20567D01*
X57592Y-20525D01*
X57483Y-20525D01*
X57387Y-20564D01*
X57387Y-19550D01*
X59487Y-19550D01*
X59487Y-22750D01*
X59487Y-22750D01*
G37*
G54D70*
X59487Y-22750D02*
X57387Y-22750D01*
X57387Y-21035D01*
X57482Y-21075D01*
X57592Y-21075D01*
X57693Y-21033D01*
X57770Y-20956D01*
X57812Y-20855D01*
X57812Y-20745D01*
X57770Y-20644D01*
X57693Y-20567D01*
X57592Y-20525D01*
X57483Y-20525D01*
X57387Y-20564D01*
X57387Y-19550D01*
X59487Y-19550D01*
X59487Y-22750D01*
G54D10*
G36*
X59187Y-36250D02*
X58216Y-36250D01*
X58070Y-36396D01*
X57758Y-36525D01*
X57467Y-36816D01*
X57453Y-36850D01*
X56858Y-36850D01*
X56258Y-36250D01*
X54687Y-36250D01*
X54687Y-35050D01*
X55387Y-35050D01*
X55387Y-32900D01*
X55387Y-32420D01*
X56172Y-31635D01*
X56887Y-30920D01*
X56887Y-29050D01*
X55537Y-29050D01*
X55387Y-29050D01*
X55387Y-28150D01*
X57187Y-28150D01*
X57187Y-31150D01*
X58287Y-31150D01*
X58287Y-30050D01*
X58487Y-30050D01*
X58487Y-31150D01*
X59187Y-31150D01*
X59187Y-36250D01*
X59187Y-36250D01*
G37*
G54D70*
X59187Y-36250D02*
X58216Y-36250D01*
X58070Y-36396D01*
X57758Y-36525D01*
X57467Y-36816D01*
X57453Y-36850D01*
X56858Y-36850D01*
X56258Y-36250D01*
X54687Y-36250D01*
X54687Y-35050D01*
X55387Y-35050D01*
X55387Y-32900D01*
X55387Y-32420D01*
X56172Y-31635D01*
X56887Y-30920D01*
X56887Y-29050D01*
X55537Y-29050D01*
X55387Y-29050D01*
X55387Y-28150D01*
X57187Y-28150D01*
X57187Y-31150D01*
X58287Y-31150D01*
X58287Y-30050D01*
X58487Y-30050D01*
X58487Y-31150D01*
X59187Y-31150D01*
X59187Y-36250D01*
G54D10*
G36*
X55787Y-31179D02*
X55592Y-31374D01*
X55592Y-30795D01*
X55592Y-30420D01*
X55336Y-30420D01*
X55286Y-30470D01*
X55286Y-30685D01*
X55317Y-30758D01*
X55373Y-30814D01*
X55447Y-30845D01*
X55526Y-30845D01*
X55542Y-30845D01*
X55592Y-30795D01*
X55592Y-31374D01*
X54587Y-32379D01*
X54587Y-34250D01*
X54470Y-34250D01*
X54470Y-32202D01*
X54470Y-31493D01*
X54440Y-31420D01*
X54384Y-31363D01*
X54310Y-31333D01*
X54230Y-31333D01*
X54087Y-31333D01*
X54037Y-31383D01*
X54037Y-31690D01*
X54420Y-31690D01*
X54470Y-31640D01*
X54470Y-31493D01*
X54470Y-32202D01*
X54470Y-32055D01*
X54420Y-32005D01*
X54037Y-32005D01*
X54037Y-32313D01*
X54087Y-32363D01*
X54230Y-32363D01*
X54310Y-32363D01*
X54384Y-32332D01*
X54440Y-32276D01*
X54470Y-32202D01*
X54470Y-34250D01*
X53637Y-34250D01*
X53637Y-32313D01*
X53637Y-32005D01*
X53254Y-32005D01*
X53204Y-32055D01*
X53204Y-32202D01*
X53234Y-32276D01*
X53291Y-32332D01*
X53364Y-32363D01*
X53444Y-32363D01*
X53587Y-32363D01*
X53637Y-32313D01*
X53637Y-34250D01*
X53225Y-34250D01*
X53225Y-33690D01*
X53225Y-32549D01*
X53225Y-32470D01*
X53195Y-32396D01*
X53138Y-32340D01*
X53065Y-32309D01*
X52744Y-32309D01*
X52694Y-32359D01*
X52694Y-32920D01*
X53175Y-32920D01*
X53225Y-32870D01*
X53225Y-32549D01*
X53225Y-33690D01*
X53225Y-33370D01*
X53175Y-33320D01*
X52694Y-33320D01*
X52694Y-33880D01*
X52744Y-33930D01*
X53065Y-33930D01*
X53138Y-33900D01*
X53195Y-33843D01*
X53225Y-33770D01*
X53225Y-33690D01*
X53225Y-34250D01*
X52187Y-34250D01*
X52187Y-33930D01*
X52244Y-33930D01*
X52294Y-33880D01*
X52294Y-33320D01*
X52286Y-33320D01*
X52286Y-32920D01*
X52294Y-32920D01*
X52294Y-32359D01*
X52244Y-32309D01*
X52187Y-32309D01*
X52187Y-32150D01*
X52758Y-32150D01*
X53239Y-31675D01*
X53254Y-31690D01*
X53637Y-31690D01*
X53637Y-31383D01*
X53587Y-31333D01*
X53585Y-31333D01*
X53770Y-31150D01*
X54657Y-31150D01*
X55050Y-30771D01*
X55050Y-29950D01*
X55286Y-29950D01*
X55286Y-29970D01*
X55336Y-30020D01*
X55592Y-30020D01*
X55592Y-30012D01*
X55787Y-30012D01*
X55787Y-30300D01*
X55787Y-31179D01*
X55787Y-31179D01*
G37*
G54D70*
X55787Y-31179D02*
X55592Y-31374D01*
X55592Y-30795D01*
X55592Y-30420D01*
X55336Y-30420D01*
X55286Y-30470D01*
X55286Y-30685D01*
X55317Y-30758D01*
X55373Y-30814D01*
X55447Y-30845D01*
X55526Y-30845D01*
X55542Y-30845D01*
X55592Y-30795D01*
X55592Y-31374D01*
X54587Y-32379D01*
X54587Y-34250D01*
X54470Y-34250D01*
X54470Y-32202D01*
X54470Y-31493D01*
X54440Y-31420D01*
X54384Y-31363D01*
X54310Y-31333D01*
X54230Y-31333D01*
X54087Y-31333D01*
X54037Y-31383D01*
X54037Y-31690D01*
X54420Y-31690D01*
X54470Y-31640D01*
X54470Y-31493D01*
X54470Y-32202D01*
X54470Y-32055D01*
X54420Y-32005D01*
X54037Y-32005D01*
X54037Y-32313D01*
X54087Y-32363D01*
X54230Y-32363D01*
X54310Y-32363D01*
X54384Y-32332D01*
X54440Y-32276D01*
X54470Y-32202D01*
X54470Y-34250D01*
X53637Y-34250D01*
X53637Y-32313D01*
X53637Y-32005D01*
X53254Y-32005D01*
X53204Y-32055D01*
X53204Y-32202D01*
X53234Y-32276D01*
X53291Y-32332D01*
X53364Y-32363D01*
X53444Y-32363D01*
X53587Y-32363D01*
X53637Y-32313D01*
X53637Y-34250D01*
X53225Y-34250D01*
X53225Y-33690D01*
X53225Y-32549D01*
X53225Y-32470D01*
X53195Y-32396D01*
X53138Y-32340D01*
X53065Y-32309D01*
X52744Y-32309D01*
X52694Y-32359D01*
X52694Y-32920D01*
X53175Y-32920D01*
X53225Y-32870D01*
X53225Y-32549D01*
X53225Y-33690D01*
X53225Y-33370D01*
X53175Y-33320D01*
X52694Y-33320D01*
X52694Y-33880D01*
X52744Y-33930D01*
X53065Y-33930D01*
X53138Y-33900D01*
X53195Y-33843D01*
X53225Y-33770D01*
X53225Y-33690D01*
X53225Y-34250D01*
X52187Y-34250D01*
X52187Y-33930D01*
X52244Y-33930D01*
X52294Y-33880D01*
X52294Y-33320D01*
X52286Y-33320D01*
X52286Y-32920D01*
X52294Y-32920D01*
X52294Y-32359D01*
X52244Y-32309D01*
X52187Y-32309D01*
X52187Y-32150D01*
X52758Y-32150D01*
X53239Y-31675D01*
X53254Y-31690D01*
X53637Y-31690D01*
X53637Y-31383D01*
X53587Y-31333D01*
X53585Y-31333D01*
X53770Y-31150D01*
X54657Y-31150D01*
X55050Y-30771D01*
X55050Y-29950D01*
X55286Y-29950D01*
X55286Y-29970D01*
X55336Y-30020D01*
X55592Y-30020D01*
X55592Y-30012D01*
X55787Y-30012D01*
X55787Y-30300D01*
X55787Y-31179D01*
G54D10*
G36*
X54699Y-29950D02*
X54687Y-30679D01*
X54516Y-30850D01*
X54351Y-30850D01*
X54384Y-30836D01*
X54440Y-30780D01*
X54470Y-30706D01*
X54470Y-30559D01*
X54420Y-30509D01*
X54037Y-30509D01*
X54037Y-30560D01*
X53637Y-30560D01*
X53637Y-30509D01*
X53629Y-30509D01*
X53629Y-30194D01*
X53637Y-30194D01*
X53637Y-30144D01*
X54037Y-30144D01*
X54037Y-30194D01*
X54420Y-30194D01*
X54470Y-30144D01*
X54470Y-29997D01*
X54450Y-29950D01*
X54699Y-29950D01*
X54699Y-29950D01*
G37*
G54D70*
X54699Y-29950D02*
X54687Y-30679D01*
X54516Y-30850D01*
X54351Y-30850D01*
X54384Y-30836D01*
X54440Y-30780D01*
X54470Y-30706D01*
X54470Y-30559D01*
X54420Y-30509D01*
X54037Y-30509D01*
X54037Y-30560D01*
X53637Y-30560D01*
X53637Y-30509D01*
X53629Y-30509D01*
X53629Y-30194D01*
X53637Y-30194D01*
X53637Y-30144D01*
X54037Y-30144D01*
X54037Y-30194D01*
X54420Y-30194D01*
X54470Y-30144D01*
X54470Y-29997D01*
X54450Y-29950D01*
X54699Y-29950D01*
G54D10*
G36*
X58887Y-29550D02*
X58764Y-29550D01*
X58764Y-29194D01*
X58764Y-28406D01*
X58734Y-28332D01*
X58678Y-28276D01*
X58604Y-28245D01*
X58524Y-28245D01*
X58482Y-28245D01*
X58432Y-28295D01*
X58432Y-28622D01*
X58714Y-28622D01*
X58764Y-28572D01*
X58764Y-28406D01*
X58764Y-29194D01*
X58764Y-29027D01*
X58714Y-28977D01*
X58432Y-28977D01*
X58432Y-29304D01*
X58482Y-29354D01*
X58524Y-29354D01*
X58604Y-29354D01*
X58678Y-29324D01*
X58734Y-29267D01*
X58764Y-29194D01*
X58764Y-29550D01*
X57887Y-29550D01*
X57887Y-29594D01*
X57878Y-29594D01*
X57862Y-29595D01*
X57812Y-29645D01*
X57812Y-30020D01*
X57887Y-30020D01*
X57887Y-30350D01*
X57837Y-30350D01*
X57587Y-30350D01*
X57587Y-30020D01*
X57602Y-30020D01*
X57602Y-29645D01*
X57587Y-29630D01*
X57587Y-29620D01*
X57887Y-29320D01*
X57887Y-29288D01*
X57923Y-29324D01*
X57996Y-29354D01*
X58076Y-29354D01*
X58118Y-29354D01*
X58168Y-29304D01*
X58168Y-28977D01*
X58092Y-28977D01*
X58092Y-28622D01*
X58168Y-28622D01*
X58168Y-28295D01*
X58118Y-28245D01*
X58076Y-28245D01*
X57996Y-28245D01*
X57923Y-28276D01*
X57866Y-28332D01*
X57859Y-28351D01*
X57687Y-28179D01*
X57687Y-27850D01*
X58887Y-27850D01*
X58887Y-29550D01*
X58887Y-29550D01*
G37*
G54D70*
X58887Y-29550D02*
X58764Y-29550D01*
X58764Y-29194D01*
X58764Y-28406D01*
X58734Y-28332D01*
X58678Y-28276D01*
X58604Y-28245D01*
X58524Y-28245D01*
X58482Y-28245D01*
X58432Y-28295D01*
X58432Y-28622D01*
X58714Y-28622D01*
X58764Y-28572D01*
X58764Y-28406D01*
X58764Y-29194D01*
X58764Y-29027D01*
X58714Y-28977D01*
X58432Y-28977D01*
X58432Y-29304D01*
X58482Y-29354D01*
X58524Y-29354D01*
X58604Y-29354D01*
X58678Y-29324D01*
X58734Y-29267D01*
X58764Y-29194D01*
X58764Y-29550D01*
X57887Y-29550D01*
X57887Y-29594D01*
X57878Y-29594D01*
X57862Y-29595D01*
X57812Y-29645D01*
X57812Y-30020D01*
X57887Y-30020D01*
X57887Y-30350D01*
X57837Y-30350D01*
X57587Y-30350D01*
X57587Y-30020D01*
X57602Y-30020D01*
X57602Y-29645D01*
X57587Y-29630D01*
X57587Y-29620D01*
X57887Y-29320D01*
X57887Y-29288D01*
X57923Y-29324D01*
X57996Y-29354D01*
X58076Y-29354D01*
X58118Y-29354D01*
X58168Y-29304D01*
X58168Y-28977D01*
X58092Y-28977D01*
X58092Y-28622D01*
X58168Y-28622D01*
X58168Y-28295D01*
X58118Y-28245D01*
X58076Y-28245D01*
X57996Y-28245D01*
X57923Y-28276D01*
X57866Y-28332D01*
X57859Y-28351D01*
X57687Y-28179D01*
X57687Y-27850D01*
X58887Y-27850D01*
X58887Y-29550D01*
G54D10*
G36*
X56487Y-30420D02*
X56472Y-30420D01*
X56472Y-30428D01*
X56262Y-30428D01*
X56262Y-30420D01*
X56187Y-30420D01*
X56187Y-30020D01*
X56262Y-30020D01*
X56262Y-29645D01*
X56212Y-29595D01*
X56196Y-29594D01*
X56117Y-29595D01*
X56043Y-29625D01*
X56018Y-29650D01*
X55950Y-29650D01*
X55938Y-29645D01*
X55878Y-29644D01*
X55457Y-29644D01*
X55444Y-29650D01*
X54912Y-29650D01*
X54912Y-29245D01*
X54870Y-29144D01*
X54793Y-29067D01*
X54692Y-29025D01*
X54583Y-29025D01*
X54482Y-29066D01*
X54437Y-29111D01*
X54393Y-29067D01*
X54292Y-29025D01*
X54183Y-29025D01*
X54082Y-29066D01*
X54004Y-29144D01*
X53962Y-29245D01*
X53962Y-29354D01*
X54004Y-29455D01*
X54081Y-29533D01*
X54182Y-29575D01*
X54292Y-29575D01*
X54393Y-29533D01*
X54437Y-29489D01*
X54481Y-29533D01*
X54582Y-29575D01*
X54692Y-29575D01*
X54793Y-29533D01*
X54870Y-29456D01*
X54912Y-29355D01*
X54912Y-29245D01*
X54912Y-29650D01*
X53316Y-29650D01*
X52787Y-30179D01*
X52787Y-31550D01*
X52668Y-31550D01*
X52668Y-31089D01*
X52668Y-30650D01*
X52618Y-30600D01*
X52176Y-30600D01*
X52176Y-31199D01*
X52226Y-31249D01*
X52428Y-31249D01*
X52508Y-31249D01*
X52582Y-31219D01*
X52638Y-31162D01*
X52668Y-31089D01*
X52668Y-31550D01*
X51587Y-31550D01*
X51587Y-31249D01*
X51726Y-31249D01*
X51776Y-31199D01*
X51776Y-30600D01*
X51768Y-30600D01*
X51768Y-30200D01*
X51776Y-30200D01*
X51776Y-30192D01*
X52176Y-30192D01*
X52176Y-30200D01*
X52618Y-30200D01*
X52668Y-30150D01*
X52668Y-29750D01*
X52858Y-29750D01*
X53189Y-29419D01*
X53204Y-29455D01*
X53281Y-29533D01*
X53382Y-29575D01*
X53492Y-29575D01*
X53593Y-29533D01*
X53670Y-29456D01*
X53712Y-29355D01*
X53712Y-29245D01*
X53670Y-29144D01*
X53637Y-29111D01*
X53637Y-28970D01*
X53787Y-28820D01*
X53787Y-27020D01*
X54358Y-26450D01*
X55387Y-26450D01*
X55387Y-27850D01*
X55087Y-27850D01*
X55087Y-29350D01*
X56487Y-29350D01*
X56487Y-29630D01*
X56472Y-29645D01*
X56472Y-30020D01*
X56487Y-30020D01*
X56487Y-30420D01*
X56487Y-30420D01*
G37*
G54D70*
X56487Y-30420D02*
X56472Y-30420D01*
X56472Y-30428D01*
X56262Y-30428D01*
X56262Y-30420D01*
X56187Y-30420D01*
X56187Y-30020D01*
X56262Y-30020D01*
X56262Y-29645D01*
X56212Y-29595D01*
X56196Y-29594D01*
X56117Y-29595D01*
X56043Y-29625D01*
X56018Y-29650D01*
X55950Y-29650D01*
X55938Y-29645D01*
X55878Y-29644D01*
X55457Y-29644D01*
X55444Y-29650D01*
X54912Y-29650D01*
X54912Y-29245D01*
X54870Y-29144D01*
X54793Y-29067D01*
X54692Y-29025D01*
X54583Y-29025D01*
X54482Y-29066D01*
X54437Y-29111D01*
X54393Y-29067D01*
X54292Y-29025D01*
X54183Y-29025D01*
X54082Y-29066D01*
X54004Y-29144D01*
X53962Y-29245D01*
X53962Y-29354D01*
X54004Y-29455D01*
X54081Y-29533D01*
X54182Y-29575D01*
X54292Y-29575D01*
X54393Y-29533D01*
X54437Y-29489D01*
X54481Y-29533D01*
X54582Y-29575D01*
X54692Y-29575D01*
X54793Y-29533D01*
X54870Y-29456D01*
X54912Y-29355D01*
X54912Y-29245D01*
X54912Y-29650D01*
X53316Y-29650D01*
X52787Y-30179D01*
X52787Y-31550D01*
X52668Y-31550D01*
X52668Y-31089D01*
X52668Y-30650D01*
X52618Y-30600D01*
X52176Y-30600D01*
X52176Y-31199D01*
X52226Y-31249D01*
X52428Y-31249D01*
X52508Y-31249D01*
X52582Y-31219D01*
X52638Y-31162D01*
X52668Y-31089D01*
X52668Y-31550D01*
X51587Y-31550D01*
X51587Y-31249D01*
X51726Y-31249D01*
X51776Y-31199D01*
X51776Y-30600D01*
X51768Y-30600D01*
X51768Y-30200D01*
X51776Y-30200D01*
X51776Y-30192D01*
X52176Y-30192D01*
X52176Y-30200D01*
X52618Y-30200D01*
X52668Y-30150D01*
X52668Y-29750D01*
X52858Y-29750D01*
X53189Y-29419D01*
X53204Y-29455D01*
X53281Y-29533D01*
X53382Y-29575D01*
X53492Y-29575D01*
X53593Y-29533D01*
X53670Y-29456D01*
X53712Y-29355D01*
X53712Y-29245D01*
X53670Y-29144D01*
X53637Y-29111D01*
X53637Y-28970D01*
X53787Y-28820D01*
X53787Y-27020D01*
X54358Y-26450D01*
X55387Y-26450D01*
X55387Y-27850D01*
X55087Y-27850D01*
X55087Y-29350D01*
X56487Y-29350D01*
X56487Y-29630D01*
X56472Y-29645D01*
X56472Y-30020D01*
X56487Y-30020D01*
X56487Y-30420D01*
G54D10*
G36*
X46287Y-12150D02*
X43887Y-12150D01*
X43887Y-11897D01*
X43904Y-11897D01*
X44258Y-11897D01*
X44331Y-11866D01*
X44337Y-11861D01*
X44343Y-11866D01*
X44416Y-11897D01*
X44496Y-11897D01*
X44850Y-11897D01*
X44923Y-11866D01*
X44980Y-11810D01*
X44982Y-11804D01*
X45053Y-11875D01*
X45172Y-11925D01*
X45301Y-11925D01*
X45421Y-11875D01*
X45512Y-11784D01*
X45562Y-11665D01*
X45562Y-11535D01*
X45513Y-11416D01*
X45421Y-11324D01*
X45361Y-11299D01*
X45349Y-11288D01*
X45299Y-11254D01*
X45321Y-11254D01*
X45395Y-11223D01*
X45451Y-11167D01*
X45482Y-11094D01*
X45482Y-11014D01*
X45482Y-10350D01*
X46287Y-10350D01*
X46287Y-12150D01*
X46287Y-12150D01*
G37*
G54D70*
X46287Y-12150D02*
X43887Y-12150D01*
X43887Y-11897D01*
X43904Y-11897D01*
X44258Y-11897D01*
X44331Y-11866D01*
X44337Y-11861D01*
X44343Y-11866D01*
X44416Y-11897D01*
X44496Y-11897D01*
X44850Y-11897D01*
X44923Y-11866D01*
X44980Y-11810D01*
X44982Y-11804D01*
X45053Y-11875D01*
X45172Y-11925D01*
X45301Y-11925D01*
X45421Y-11875D01*
X45512Y-11784D01*
X45562Y-11665D01*
X45562Y-11535D01*
X45513Y-11416D01*
X45421Y-11324D01*
X45361Y-11299D01*
X45349Y-11288D01*
X45299Y-11254D01*
X45321Y-11254D01*
X45395Y-11223D01*
X45451Y-11167D01*
X45482Y-11094D01*
X45482Y-11014D01*
X45482Y-10350D01*
X46287Y-10350D01*
X46287Y-12150D01*
G54D10*
G36*
X43587Y-11850D02*
X43337Y-11850D01*
X43037Y-11850D01*
X41625Y-11850D01*
X41600Y-11791D01*
X41509Y-11699D01*
X41389Y-11650D01*
X41353Y-11650D01*
X41364Y-11639D01*
X41364Y-11639D01*
X41364Y-11639D01*
X41418Y-11558D01*
X41418Y-11558D01*
X41437Y-11462D01*
X41437Y-11325D01*
X41437Y-10950D01*
X42147Y-10950D01*
X42161Y-10984D01*
X42253Y-11075D01*
X42372Y-11125D01*
X42501Y-11125D01*
X42621Y-11075D01*
X42712Y-10984D01*
X42727Y-10950D01*
X43587Y-10950D01*
X43587Y-11175D01*
X43473Y-11175D01*
X43353Y-11224D01*
X43262Y-11315D01*
X43212Y-11435D01*
X43212Y-11564D01*
X43261Y-11684D01*
X43353Y-11775D01*
X43472Y-11825D01*
X43532Y-11825D01*
X43541Y-11831D01*
X43587Y-11840D01*
X43587Y-11850D01*
X43587Y-11850D01*
G37*
G54D70*
X43587Y-11850D02*
X43337Y-11850D01*
X43037Y-11850D01*
X41625Y-11850D01*
X41600Y-11791D01*
X41509Y-11699D01*
X41389Y-11650D01*
X41353Y-11650D01*
X41364Y-11639D01*
X41364Y-11639D01*
X41364Y-11639D01*
X41418Y-11558D01*
X41418Y-11558D01*
X41437Y-11462D01*
X41437Y-11325D01*
X41437Y-10950D01*
X42147Y-10950D01*
X42161Y-10984D01*
X42253Y-11075D01*
X42372Y-11125D01*
X42501Y-11125D01*
X42621Y-11075D01*
X42712Y-10984D01*
X42727Y-10950D01*
X43587Y-10950D01*
X43587Y-11175D01*
X43473Y-11175D01*
X43353Y-11224D01*
X43262Y-11315D01*
X43212Y-11435D01*
X43212Y-11564D01*
X43261Y-11684D01*
X43353Y-11775D01*
X43472Y-11825D01*
X43532Y-11825D01*
X43541Y-11831D01*
X43587Y-11840D01*
X43587Y-11850D01*
G54D10*
G36*
X43587Y-10050D02*
X43087Y-10050D01*
X43087Y-10550D01*
X41387Y-10550D01*
X41387Y-10350D01*
X41387Y-10350D01*
X41372Y-10273D01*
X41372Y-10273D01*
X41357Y-10252D01*
X41329Y-10208D01*
X41329Y-10208D01*
X40987Y-9867D01*
X40987Y-9583D01*
X41331Y-9583D01*
X41386Y-9560D01*
X41429Y-9518D01*
X41452Y-9463D01*
X41452Y-9403D01*
X41452Y-8850D01*
X42023Y-8850D01*
X42023Y-9462D01*
X42045Y-9518D01*
X42088Y-9560D01*
X42143Y-9583D01*
X42202Y-9583D01*
X42911Y-9583D01*
X42966Y-9560D01*
X43009Y-9518D01*
X43032Y-9463D01*
X43032Y-9403D01*
X43032Y-9300D01*
X43137Y-9300D01*
X43252Y-9277D01*
X43349Y-9212D01*
X43414Y-9115D01*
X43437Y-9000D01*
X43414Y-8885D01*
X43391Y-8850D01*
X43587Y-8850D01*
X43587Y-10050D01*
X43587Y-10050D01*
G37*
G54D70*
X43587Y-10050D02*
X43087Y-10050D01*
X43087Y-10550D01*
X41387Y-10550D01*
X41387Y-10350D01*
X41387Y-10350D01*
X41372Y-10273D01*
X41372Y-10273D01*
X41357Y-10252D01*
X41329Y-10208D01*
X41329Y-10208D01*
X40987Y-9867D01*
X40987Y-9583D01*
X41331Y-9583D01*
X41386Y-9560D01*
X41429Y-9518D01*
X41452Y-9463D01*
X41452Y-9403D01*
X41452Y-8850D01*
X42023Y-8850D01*
X42023Y-9462D01*
X42045Y-9518D01*
X42088Y-9560D01*
X42143Y-9583D01*
X42202Y-9583D01*
X42911Y-9583D01*
X42966Y-9560D01*
X43009Y-9518D01*
X43032Y-9463D01*
X43032Y-9403D01*
X43032Y-9300D01*
X43137Y-9300D01*
X43252Y-9277D01*
X43349Y-9212D01*
X43414Y-9115D01*
X43437Y-9000D01*
X43414Y-8885D01*
X43391Y-8850D01*
X43587Y-8850D01*
X43587Y-10050D01*
G54D10*
G36*
X35387Y-13475D02*
X35373Y-13475D01*
X35253Y-13524D01*
X35228Y-13550D01*
X34947Y-13550D01*
X34921Y-13524D01*
X34802Y-13475D01*
X34673Y-13475D01*
X34553Y-13524D01*
X34537Y-13540D01*
X34521Y-13524D01*
X34402Y-13475D01*
X34273Y-13475D01*
X34272Y-13475D01*
X34268Y-13454D01*
X34268Y-13454D01*
X34214Y-13373D01*
X34214Y-13373D01*
X33487Y-12646D01*
X33487Y-11950D01*
X33493Y-11950D01*
X33603Y-12023D01*
X33737Y-12050D01*
X33871Y-12023D01*
X33981Y-11950D01*
X34287Y-11950D01*
X34287Y-10800D01*
X34287Y-10500D01*
X34287Y-10250D01*
X35187Y-10250D01*
X35187Y-10400D01*
X35206Y-10495D01*
X35260Y-10576D01*
X35360Y-10676D01*
X35387Y-10694D01*
X35387Y-11450D01*
X35337Y-11450D01*
X35241Y-11469D01*
X35232Y-11475D01*
X35173Y-11475D01*
X35053Y-11524D01*
X34962Y-11615D01*
X34912Y-11735D01*
X34912Y-11864D01*
X34961Y-11984D01*
X35053Y-12075D01*
X35172Y-12125D01*
X35301Y-12125D01*
X35387Y-12089D01*
X35387Y-13475D01*
X35387Y-13475D01*
G37*
G54D70*
X35387Y-13475D02*
X35373Y-13475D01*
X35253Y-13524D01*
X35228Y-13550D01*
X34947Y-13550D01*
X34921Y-13524D01*
X34802Y-13475D01*
X34673Y-13475D01*
X34553Y-13524D01*
X34537Y-13540D01*
X34521Y-13524D01*
X34402Y-13475D01*
X34273Y-13475D01*
X34272Y-13475D01*
X34268Y-13454D01*
X34268Y-13454D01*
X34214Y-13373D01*
X34214Y-13373D01*
X33487Y-12646D01*
X33487Y-11950D01*
X33493Y-11950D01*
X33603Y-12023D01*
X33737Y-12050D01*
X33871Y-12023D01*
X33981Y-11950D01*
X34287Y-11950D01*
X34287Y-10800D01*
X34287Y-10500D01*
X34287Y-10250D01*
X35187Y-10250D01*
X35187Y-10400D01*
X35206Y-10495D01*
X35260Y-10576D01*
X35360Y-10676D01*
X35387Y-10694D01*
X35387Y-11450D01*
X35337Y-11450D01*
X35241Y-11469D01*
X35232Y-11475D01*
X35173Y-11475D01*
X35053Y-11524D01*
X34962Y-11615D01*
X34912Y-11735D01*
X34912Y-11864D01*
X34961Y-11984D01*
X35053Y-12075D01*
X35172Y-12125D01*
X35301Y-12125D01*
X35387Y-12089D01*
X35387Y-13475D01*
G54D10*
G36*
X37087Y-9682D02*
X36647Y-9682D01*
X36574Y-9712D01*
X36536Y-9750D01*
X36337Y-9750D01*
X36262Y-9750D01*
X36262Y-9735D01*
X36232Y-9662D01*
X36176Y-9605D01*
X36162Y-9600D01*
X36175Y-9594D01*
X36232Y-9538D01*
X36262Y-9465D01*
X36262Y-9385D01*
X36262Y-9135D01*
X36232Y-9062D01*
X36176Y-9005D01*
X36102Y-8975D01*
X36022Y-8975D01*
X35572Y-8975D01*
X35499Y-9005D01*
X35443Y-9061D01*
X35439Y-9070D01*
X35360Y-9123D01*
X35260Y-9223D01*
X35206Y-9304D01*
X35187Y-9400D01*
X35187Y-9750D01*
X35137Y-9750D01*
X34287Y-9750D01*
X34287Y-8474D01*
X34499Y-8262D01*
X34564Y-8165D01*
X34577Y-8100D01*
X34827Y-8100D01*
X34900Y-8069D01*
X34957Y-8013D01*
X34987Y-7940D01*
X34987Y-7860D01*
X34987Y-7750D01*
X35674Y-7750D01*
X35693Y-7796D01*
X35890Y-7993D01*
X36147Y-8100D01*
X36426Y-8100D01*
X36683Y-7993D01*
X36880Y-7797D01*
X36900Y-7750D01*
X37087Y-7750D01*
X37087Y-9682D01*
X37087Y-9682D01*
G37*
G54D70*
X37087Y-9682D02*
X36647Y-9682D01*
X36574Y-9712D01*
X36536Y-9750D01*
X36337Y-9750D01*
X36262Y-9750D01*
X36262Y-9735D01*
X36232Y-9662D01*
X36176Y-9605D01*
X36162Y-9600D01*
X36175Y-9594D01*
X36232Y-9538D01*
X36262Y-9465D01*
X36262Y-9385D01*
X36262Y-9135D01*
X36232Y-9062D01*
X36176Y-9005D01*
X36102Y-8975D01*
X36022Y-8975D01*
X35572Y-8975D01*
X35499Y-9005D01*
X35443Y-9061D01*
X35439Y-9070D01*
X35360Y-9123D01*
X35260Y-9223D01*
X35206Y-9304D01*
X35187Y-9400D01*
X35187Y-9750D01*
X35137Y-9750D01*
X34287Y-9750D01*
X34287Y-8474D01*
X34499Y-8262D01*
X34564Y-8165D01*
X34577Y-8100D01*
X34827Y-8100D01*
X34900Y-8069D01*
X34957Y-8013D01*
X34987Y-7940D01*
X34987Y-7860D01*
X34987Y-7750D01*
X35674Y-7750D01*
X35693Y-7796D01*
X35890Y-7993D01*
X36147Y-8100D01*
X36426Y-8100D01*
X36683Y-7993D01*
X36880Y-7797D01*
X36900Y-7750D01*
X37087Y-7750D01*
X37087Y-9682D01*
G54D10*
G36*
X30310Y-11301D02*
X30253Y-11324D01*
X30162Y-11415D01*
X30112Y-11535D01*
X30112Y-11664D01*
X30161Y-11784D01*
X30227Y-11850D01*
X29637Y-11850D01*
X29637Y-11850D01*
X29618Y-11853D01*
X29541Y-11869D01*
X29460Y-11923D01*
X29460Y-11923D01*
X29309Y-12075D01*
X29273Y-12075D01*
X29153Y-12124D01*
X29062Y-12215D01*
X29012Y-12335D01*
X29012Y-12425D01*
X28852Y-12425D01*
X28838Y-12391D01*
X28746Y-12299D01*
X28627Y-12250D01*
X28587Y-12250D01*
X28587Y-12009D01*
X28612Y-11984D01*
X28662Y-11865D01*
X28662Y-11735D01*
X28613Y-11616D01*
X28587Y-11590D01*
X28587Y-10825D01*
X28701Y-10825D01*
X28821Y-10775D01*
X28912Y-10684D01*
X28962Y-10565D01*
X28962Y-10435D01*
X28913Y-10316D01*
X28821Y-10224D01*
X28702Y-10175D01*
X28587Y-10175D01*
X28587Y-10150D01*
X30234Y-10150D01*
X30287Y-10203D01*
X30287Y-11000D01*
X30287Y-11200D01*
X30306Y-11295D01*
X30310Y-11301D01*
X30310Y-11301D01*
G37*
G54D70*
X30310Y-11301D02*
X30253Y-11324D01*
X30162Y-11415D01*
X30112Y-11535D01*
X30112Y-11664D01*
X30161Y-11784D01*
X30227Y-11850D01*
X29637Y-11850D01*
X29637Y-11850D01*
X29618Y-11853D01*
X29541Y-11869D01*
X29460Y-11923D01*
X29460Y-11923D01*
X29309Y-12075D01*
X29273Y-12075D01*
X29153Y-12124D01*
X29062Y-12215D01*
X29012Y-12335D01*
X29012Y-12425D01*
X28852Y-12425D01*
X28838Y-12391D01*
X28746Y-12299D01*
X28627Y-12250D01*
X28587Y-12250D01*
X28587Y-12009D01*
X28612Y-11984D01*
X28662Y-11865D01*
X28662Y-11735D01*
X28613Y-11616D01*
X28587Y-11590D01*
X28587Y-10825D01*
X28701Y-10825D01*
X28821Y-10775D01*
X28912Y-10684D01*
X28962Y-10565D01*
X28962Y-10435D01*
X28913Y-10316D01*
X28821Y-10224D01*
X28702Y-10175D01*
X28587Y-10175D01*
X28587Y-10150D01*
X30234Y-10150D01*
X30287Y-10203D01*
X30287Y-11000D01*
X30287Y-11200D01*
X30306Y-11295D01*
X30310Y-11301D01*
G54D10*
G36*
X30787Y-13350D02*
X29937Y-13350D01*
X29837Y-13350D01*
X29637Y-13350D01*
X29541Y-13369D01*
X29460Y-13423D01*
X29434Y-13450D01*
X29037Y-13450D01*
X28941Y-13469D01*
X28909Y-13490D01*
X28860Y-13523D01*
X28860Y-13523D01*
X28734Y-13650D01*
X28341Y-13650D01*
X28114Y-13423D01*
X27564Y-12873D01*
X27564Y-12873D01*
X27387Y-12696D01*
X27387Y-12103D01*
X27564Y-11926D01*
X27564Y-11926D01*
X27564Y-11926D01*
X27618Y-11845D01*
X27618Y-11845D01*
X27633Y-11769D01*
X27637Y-11750D01*
X27637Y-11750D01*
X27637Y-11750D01*
X27637Y-11650D01*
X27637Y-11625D01*
X27662Y-11565D01*
X27662Y-11435D01*
X27613Y-11316D01*
X27521Y-11224D01*
X27402Y-11175D01*
X27387Y-11175D01*
X27387Y-10650D01*
X28187Y-10650D01*
X28187Y-12475D01*
X28073Y-12475D01*
X27953Y-12524D01*
X27862Y-12615D01*
X27812Y-12735D01*
X27812Y-12864D01*
X27861Y-12984D01*
X27953Y-13075D01*
X28072Y-13125D01*
X28132Y-13125D01*
X28141Y-13131D01*
X28237Y-13150D01*
X30787Y-13150D01*
X30787Y-13350D01*
X30787Y-13350D01*
G37*
G54D70*
X30787Y-13350D02*
X29937Y-13350D01*
X29837Y-13350D01*
X29637Y-13350D01*
X29541Y-13369D01*
X29460Y-13423D01*
X29434Y-13450D01*
X29037Y-13450D01*
X28941Y-13469D01*
X28909Y-13490D01*
X28860Y-13523D01*
X28860Y-13523D01*
X28734Y-13650D01*
X28341Y-13650D01*
X28114Y-13423D01*
X27564Y-12873D01*
X27564Y-12873D01*
X27387Y-12696D01*
X27387Y-12103D01*
X27564Y-11926D01*
X27564Y-11926D01*
X27564Y-11926D01*
X27618Y-11845D01*
X27618Y-11845D01*
X27633Y-11769D01*
X27637Y-11750D01*
X27637Y-11750D01*
X27637Y-11750D01*
X27637Y-11650D01*
X27637Y-11625D01*
X27662Y-11565D01*
X27662Y-11435D01*
X27613Y-11316D01*
X27521Y-11224D01*
X27402Y-11175D01*
X27387Y-11175D01*
X27387Y-10650D01*
X28187Y-10650D01*
X28187Y-12475D01*
X28073Y-12475D01*
X27953Y-12524D01*
X27862Y-12615D01*
X27812Y-12735D01*
X27812Y-12864D01*
X27861Y-12984D01*
X27953Y-13075D01*
X28072Y-13125D01*
X28132Y-13125D01*
X28141Y-13131D01*
X28237Y-13150D01*
X30787Y-13150D01*
X30787Y-13350D01*
G54D10*
G36*
X29827Y-9850D02*
X28287Y-9850D01*
X28287Y-10350D01*
X27237Y-10350D01*
X26847Y-10350D01*
X26821Y-10324D01*
X26702Y-10275D01*
X26573Y-10275D01*
X26453Y-10324D01*
X26428Y-10350D01*
X26347Y-10350D01*
X26321Y-10324D01*
X26202Y-10275D01*
X26187Y-10275D01*
X26187Y-10203D01*
X26264Y-10126D01*
X26264Y-10126D01*
X26264Y-10126D01*
X26318Y-10045D01*
X26318Y-10045D01*
X26337Y-9950D01*
X26337Y-9747D01*
X26347Y-9742D01*
X26404Y-9686D01*
X26434Y-9613D01*
X26434Y-9533D01*
X26434Y-9450D01*
X29747Y-9450D01*
X29712Y-9535D01*
X29712Y-9664D01*
X29761Y-9784D01*
X29827Y-9850D01*
X29827Y-9850D01*
G37*
G54D70*
X29827Y-9850D02*
X28287Y-9850D01*
X28287Y-10350D01*
X27237Y-10350D01*
X26847Y-10350D01*
X26821Y-10324D01*
X26702Y-10275D01*
X26573Y-10275D01*
X26453Y-10324D01*
X26428Y-10350D01*
X26347Y-10350D01*
X26321Y-10324D01*
X26202Y-10275D01*
X26187Y-10275D01*
X26187Y-10203D01*
X26264Y-10126D01*
X26264Y-10126D01*
X26264Y-10126D01*
X26318Y-10045D01*
X26318Y-10045D01*
X26337Y-9950D01*
X26337Y-9747D01*
X26347Y-9742D01*
X26404Y-9686D01*
X26434Y-9613D01*
X26434Y-9533D01*
X26434Y-9450D01*
X29747Y-9450D01*
X29712Y-9535D01*
X29712Y-9664D01*
X29761Y-9784D01*
X29827Y-9850D01*
G54D10*
G36*
X29687Y-8246D02*
X29191Y-8246D01*
X29181Y-8250D01*
X28787Y-8250D01*
X28787Y-9150D01*
X28737Y-9150D01*
X26422Y-9150D01*
X26404Y-9106D01*
X26398Y-9100D01*
X26404Y-9094D01*
X26434Y-9021D01*
X26434Y-8941D01*
X26434Y-8587D01*
X26404Y-8514D01*
X26348Y-8457D01*
X26274Y-8427D01*
X26194Y-8427D01*
X26087Y-8427D01*
X26087Y-8075D01*
X26147Y-8100D01*
X26426Y-8100D01*
X26683Y-7993D01*
X26827Y-7850D01*
X27587Y-7850D01*
X27587Y-7939D01*
X27617Y-8013D01*
X27674Y-8069D01*
X27747Y-8100D01*
X27827Y-8100D01*
X28827Y-8100D01*
X28900Y-8069D01*
X28957Y-8013D01*
X28987Y-7940D01*
X28987Y-7860D01*
X28987Y-7850D01*
X29687Y-7850D01*
X29687Y-8246D01*
X29687Y-8246D01*
G37*
G54D70*
X29687Y-8246D02*
X29191Y-8246D01*
X29181Y-8250D01*
X28787Y-8250D01*
X28787Y-9150D01*
X28737Y-9150D01*
X26422Y-9150D01*
X26404Y-9106D01*
X26398Y-9100D01*
X26404Y-9094D01*
X26434Y-9021D01*
X26434Y-8941D01*
X26434Y-8587D01*
X26404Y-8514D01*
X26348Y-8457D01*
X26274Y-8427D01*
X26194Y-8427D01*
X26087Y-8427D01*
X26087Y-8075D01*
X26147Y-8100D01*
X26426Y-8100D01*
X26683Y-7993D01*
X26827Y-7850D01*
X27587Y-7850D01*
X27587Y-7939D01*
X27617Y-8013D01*
X27674Y-8069D01*
X27747Y-8100D01*
X27827Y-8100D01*
X28827Y-8100D01*
X28900Y-8069D01*
X28957Y-8013D01*
X28987Y-7940D01*
X28987Y-7860D01*
X28987Y-7850D01*
X29687Y-7850D01*
X29687Y-8246D01*
G54D10*
G36*
X50950Y-29325D02*
X48875Y-29325D01*
X48775Y-29325D01*
X48679Y-29344D01*
X48598Y-29398D01*
X48598Y-29398D01*
X48460Y-29535D01*
X48406Y-29616D01*
X48399Y-29650D01*
X48191Y-29650D01*
X48178Y-29825D01*
X47175Y-29825D01*
X47199Y-28600D01*
X50950Y-28600D01*
X50950Y-29325D01*
X50950Y-29325D01*
G37*
G54D70*
X50950Y-29325D02*
X48875Y-29325D01*
X48775Y-29325D01*
X48679Y-29344D01*
X48598Y-29398D01*
X48598Y-29398D01*
X48460Y-29535D01*
X48406Y-29616D01*
X48399Y-29650D01*
X48191Y-29650D01*
X48178Y-29825D01*
X47175Y-29825D01*
X47199Y-28600D01*
X50950Y-28600D01*
X50950Y-29325D01*
G54D10*
G36*
X42037Y-30849D02*
X42027Y-31236D01*
X41994Y-31250D01*
X41969Y-31275D01*
X41905Y-31275D01*
X41881Y-31250D01*
X41807Y-31220D01*
X41727Y-31220D01*
X41367Y-31220D01*
X41294Y-31250D01*
X41269Y-31275D01*
X41095Y-31275D01*
X41132Y-31238D01*
X41162Y-31165D01*
X41162Y-31085D01*
X41162Y-30835D01*
X41132Y-30762D01*
X41076Y-30705D01*
X41002Y-30675D01*
X40922Y-30675D01*
X40472Y-30675D01*
X40399Y-30705D01*
X40354Y-30750D01*
X40237Y-30750D01*
X40141Y-30769D01*
X40109Y-30790D01*
X40060Y-30823D01*
X40060Y-30823D01*
X39870Y-31013D01*
X39868Y-31004D01*
X39868Y-31004D01*
X39814Y-30923D01*
X39814Y-30923D01*
X39568Y-30677D01*
X39568Y-29875D01*
X42025Y-29875D01*
X42026Y-29874D01*
X42037Y-30849D01*
X42037Y-30849D01*
G37*
G54D70*
X42037Y-30849D02*
X42027Y-31236D01*
X41994Y-31250D01*
X41969Y-31275D01*
X41905Y-31275D01*
X41881Y-31250D01*
X41807Y-31220D01*
X41727Y-31220D01*
X41367Y-31220D01*
X41294Y-31250D01*
X41269Y-31275D01*
X41095Y-31275D01*
X41132Y-31238D01*
X41162Y-31165D01*
X41162Y-31085D01*
X41162Y-30835D01*
X41132Y-30762D01*
X41076Y-30705D01*
X41002Y-30675D01*
X40922Y-30675D01*
X40472Y-30675D01*
X40399Y-30705D01*
X40354Y-30750D01*
X40237Y-30750D01*
X40141Y-30769D01*
X40109Y-30790D01*
X40060Y-30823D01*
X40060Y-30823D01*
X39870Y-31013D01*
X39868Y-31004D01*
X39868Y-31004D01*
X39814Y-30923D01*
X39814Y-30923D01*
X39568Y-30677D01*
X39568Y-29875D01*
X42025Y-29875D01*
X42026Y-29874D01*
X42037Y-30849D01*
G54D10*
G36*
X37775Y-31325D02*
X37025Y-31340D01*
X37014Y-31323D01*
X37014Y-31323D01*
X36808Y-31117D01*
X36799Y-31073D01*
X36799Y-31073D01*
X36745Y-30991D01*
X36745Y-30991D01*
X36426Y-30673D01*
X36345Y-30619D01*
X36250Y-30600D01*
X35503Y-30600D01*
X35325Y-30421D01*
X35325Y-30275D01*
X35325Y-28978D01*
X35528Y-28775D01*
X36812Y-28775D01*
X36812Y-28964D01*
X36842Y-29038D01*
X36899Y-29094D01*
X36912Y-29100D01*
X36899Y-29105D01*
X36843Y-29161D01*
X36812Y-29235D01*
X36812Y-29314D01*
X36812Y-29564D01*
X36842Y-29638D01*
X36899Y-29694D01*
X36972Y-29725D01*
X37052Y-29725D01*
X37502Y-29725D01*
X37575Y-29694D01*
X37620Y-29650D01*
X37775Y-29650D01*
X37775Y-31325D01*
X37775Y-31325D01*
G37*
G54D70*
X37775Y-31325D02*
X37025Y-31340D01*
X37014Y-31323D01*
X37014Y-31323D01*
X36808Y-31117D01*
X36799Y-31073D01*
X36799Y-31073D01*
X36745Y-30991D01*
X36745Y-30991D01*
X36426Y-30673D01*
X36345Y-30619D01*
X36250Y-30600D01*
X35503Y-30600D01*
X35325Y-30421D01*
X35325Y-30275D01*
X35325Y-28978D01*
X35528Y-28775D01*
X36812Y-28775D01*
X36812Y-28964D01*
X36842Y-29038D01*
X36899Y-29094D01*
X36912Y-29100D01*
X36899Y-29105D01*
X36843Y-29161D01*
X36812Y-29235D01*
X36812Y-29314D01*
X36812Y-29564D01*
X36842Y-29638D01*
X36899Y-29694D01*
X36972Y-29725D01*
X37052Y-29725D01*
X37502Y-29725D01*
X37575Y-29694D01*
X37620Y-29650D01*
X37775Y-29650D01*
X37775Y-31325D01*
G54D10*
G36*
X54300Y-37500D02*
X52987Y-37512D01*
X52987Y-37261D01*
X52881Y-37004D01*
X52684Y-36807D01*
X52427Y-36700D01*
X52148Y-36700D01*
X51891Y-36806D01*
X51694Y-37003D01*
X51587Y-37260D01*
X51587Y-37524D01*
X51575Y-37524D01*
X51587Y-36321D01*
X51958Y-35950D01*
X52800Y-35950D01*
X52800Y-36600D01*
X54300Y-36600D01*
X54300Y-37500D01*
X54300Y-37500D01*
G37*
G54D70*
X54300Y-37500D02*
X52987Y-37512D01*
X52987Y-37261D01*
X52881Y-37004D01*
X52684Y-36807D01*
X52427Y-36700D01*
X52148Y-36700D01*
X51891Y-36806D01*
X51694Y-37003D01*
X51587Y-37260D01*
X51587Y-37524D01*
X51575Y-37524D01*
X51587Y-36321D01*
X51958Y-35950D01*
X52800Y-35950D01*
X52800Y-36600D01*
X54300Y-36600D01*
X54300Y-37500D01*
G54D10*
G36*
X47987Y-12050D02*
X47837Y-12050D01*
X47637Y-12050D01*
X46687Y-12050D01*
X46687Y-10053D01*
X46749Y-10012D01*
X46814Y-9915D01*
X46814Y-9915D01*
X46837Y-9800D01*
X46837Y-9800D01*
X46814Y-9685D01*
X46791Y-9650D01*
X46975Y-9650D01*
X46977Y-9652D01*
X47032Y-9675D01*
X47092Y-9675D01*
X47342Y-9675D01*
X47397Y-9652D01*
X47399Y-9650D01*
X47575Y-9650D01*
X47577Y-9652D01*
X47632Y-9675D01*
X47692Y-9675D01*
X47942Y-9675D01*
X47987Y-9656D01*
X47987Y-12050D01*
X47987Y-12050D01*
G37*
G54D70*
X47987Y-12050D02*
X47837Y-12050D01*
X47637Y-12050D01*
X46687Y-12050D01*
X46687Y-10053D01*
X46749Y-10012D01*
X46814Y-9915D01*
X46814Y-9915D01*
X46837Y-9800D01*
X46837Y-9800D01*
X46814Y-9685D01*
X46791Y-9650D01*
X46975Y-9650D01*
X46977Y-9652D01*
X47032Y-9675D01*
X47092Y-9675D01*
X47342Y-9675D01*
X47397Y-9652D01*
X47399Y-9650D01*
X47575Y-9650D01*
X47577Y-9652D01*
X47632Y-9675D01*
X47692Y-9675D01*
X47942Y-9675D01*
X47987Y-9656D01*
X47987Y-12050D01*
G54D10*
G36*
X52587Y-21450D02*
X52537Y-21450D01*
X52058Y-21450D01*
X51887Y-21279D01*
X51887Y-21165D01*
X51922Y-21165D01*
X52010Y-21165D01*
X52060Y-21115D01*
X52060Y-20850D01*
X52415Y-20850D01*
X52415Y-21115D01*
X52465Y-21165D01*
X52552Y-21165D01*
X52587Y-21165D01*
X52587Y-21450D01*
X52587Y-21450D01*
G37*
G54D70*
X52587Y-21450D02*
X52537Y-21450D01*
X52058Y-21450D01*
X51887Y-21279D01*
X51887Y-21165D01*
X51922Y-21165D01*
X52010Y-21165D01*
X52060Y-21115D01*
X52060Y-20850D01*
X52415Y-20850D01*
X52415Y-21115D01*
X52465Y-21165D01*
X52552Y-21165D01*
X52587Y-21165D01*
X52587Y-21450D01*
G54D10*
G36*
X44492Y-32441D02*
X44484Y-32450D01*
X44291Y-32450D01*
X44137Y-32296D01*
X44137Y-32225D01*
X44316Y-32225D01*
X44361Y-32334D01*
X44453Y-32425D01*
X44492Y-32441D01*
X44492Y-32441D01*
G37*
G54D70*
X44492Y-32441D02*
X44484Y-32450D01*
X44291Y-32450D01*
X44137Y-32296D01*
X44137Y-32225D01*
X44316Y-32225D01*
X44361Y-32334D01*
X44453Y-32425D01*
X44492Y-32441D01*
G54D10*
G36*
X54325Y-38625D02*
X48975Y-38625D01*
X48979Y-37559D01*
X48987Y-37540D01*
X48987Y-37261D01*
X48980Y-37244D01*
X48987Y-35450D01*
X47500Y-35450D01*
X47500Y-34373D01*
X47648Y-34373D01*
X47786Y-34510D01*
X47753Y-34524D01*
X47662Y-34615D01*
X47612Y-34735D01*
X47612Y-34864D01*
X47661Y-34984D01*
X47753Y-35075D01*
X47872Y-35125D01*
X48001Y-35125D01*
X48121Y-35075D01*
X48187Y-35009D01*
X48253Y-35075D01*
X48372Y-35125D01*
X48501Y-35125D01*
X48621Y-35075D01*
X48712Y-34984D01*
X48762Y-34865D01*
X48762Y-34735D01*
X48713Y-34616D01*
X48704Y-34607D01*
X48704Y-34607D01*
X48649Y-34525D01*
X48649Y-34525D01*
X47985Y-33861D01*
X47888Y-33796D01*
X47773Y-33773D01*
X47429Y-33773D01*
X47429Y-33738D01*
X47399Y-33664D01*
X47343Y-33608D01*
X47269Y-33577D01*
X47269Y-33577D01*
X47274Y-33564D01*
X47275Y-33435D01*
X47225Y-33316D01*
X47134Y-33224D01*
X47014Y-33175D01*
X46885Y-33174D01*
X46766Y-33224D01*
X46674Y-33315D01*
X46625Y-33435D01*
X46624Y-33564D01*
X46630Y-33577D01*
X45930Y-33577D01*
X45856Y-33608D01*
X45800Y-33664D01*
X45770Y-33737D01*
X45770Y-33817D01*
X45770Y-34100D01*
X45229Y-34100D01*
X45229Y-33738D01*
X45199Y-33664D01*
X45143Y-33608D01*
X45069Y-33577D01*
X44990Y-33577D01*
X43730Y-33577D01*
X43656Y-33608D01*
X43600Y-33664D01*
X43570Y-33737D01*
X43570Y-33747D01*
X43514Y-33725D01*
X43385Y-33724D01*
X43266Y-33774D01*
X43174Y-33865D01*
X43149Y-33925D01*
X43085Y-33861D01*
X42988Y-33796D01*
X42929Y-33784D01*
X42929Y-33784D01*
X42929Y-33738D01*
X42899Y-33664D01*
X42843Y-33608D01*
X42769Y-33577D01*
X42690Y-33577D01*
X41430Y-33577D01*
X41356Y-33608D01*
X41300Y-33664D01*
X41270Y-33737D01*
X41270Y-33817D01*
X41270Y-34100D01*
X40867Y-34100D01*
X40867Y-34023D01*
X40872Y-34025D01*
X41001Y-34025D01*
X41121Y-33975D01*
X41212Y-33884D01*
X41262Y-33765D01*
X41262Y-33635D01*
X41213Y-33516D01*
X41121Y-33424D01*
X41002Y-33375D01*
X40873Y-33375D01*
X40753Y-33424D01*
X40662Y-33515D01*
X40636Y-33578D01*
X40627Y-33578D01*
X39368Y-33578D01*
X39294Y-33608D01*
X39238Y-33664D01*
X39207Y-33738D01*
X39207Y-33817D01*
X39207Y-33868D01*
X38975Y-34100D01*
X38850Y-34100D01*
X38850Y-34244D01*
X38822Y-34285D01*
X38800Y-34400D01*
X38800Y-34475D01*
X38673Y-34475D01*
X38553Y-34524D01*
X38462Y-34615D01*
X38412Y-34735D01*
X38412Y-34864D01*
X38461Y-34984D01*
X38553Y-35075D01*
X38672Y-35125D01*
X38800Y-35125D01*
X38800Y-35231D01*
X38740Y-35231D01*
X37480Y-35231D01*
X37406Y-35261D01*
X37350Y-35318D01*
X37320Y-35391D01*
X37320Y-35450D01*
X33150Y-35450D01*
X33150Y-33624D01*
X33474Y-33300D01*
X34300Y-33300D01*
X34800Y-33300D01*
X34800Y-33299D01*
X34914Y-33277D01*
X34914Y-33277D01*
X35012Y-33212D01*
X35074Y-33150D01*
X35689Y-33150D01*
X35689Y-33184D01*
X35719Y-33257D01*
X35776Y-33314D01*
X35849Y-33344D01*
X35929Y-33344D01*
X36225Y-33344D01*
X36298Y-33314D01*
X36355Y-33258D01*
X36363Y-33237D01*
X36450Y-33237D01*
X36546Y-33218D01*
X36627Y-33163D01*
X36641Y-33150D01*
X37658Y-33150D01*
X37683Y-33125D01*
X37701Y-33125D01*
X37821Y-33075D01*
X37912Y-32984D01*
X37962Y-32865D01*
X37962Y-32845D01*
X38258Y-32550D01*
X39534Y-32550D01*
X39560Y-32576D01*
X39660Y-32676D01*
X39741Y-32731D01*
X39837Y-32750D01*
X40037Y-32750D01*
X40137Y-32750D01*
X40233Y-32731D01*
X40314Y-32676D01*
X40389Y-32601D01*
X40389Y-32619D01*
X40389Y-32934D01*
X40419Y-33007D01*
X40476Y-33064D01*
X40549Y-33094D01*
X40629Y-33094D01*
X40925Y-33094D01*
X40998Y-33064D01*
X41055Y-33008D01*
X41069Y-32973D01*
X41096Y-32968D01*
X41177Y-32913D01*
X41441Y-32650D01*
X41570Y-32650D01*
X41587Y-32693D01*
X41644Y-32749D01*
X41717Y-32780D01*
X41797Y-32780D01*
X42157Y-32780D01*
X42228Y-32750D01*
X42253Y-32775D01*
X42372Y-32825D01*
X42501Y-32825D01*
X42621Y-32775D01*
X42712Y-32684D01*
X42762Y-32565D01*
X42762Y-32528D01*
X42814Y-32476D01*
X42814Y-32476D01*
X42814Y-32476D01*
X42846Y-32428D01*
X42868Y-32395D01*
X42868Y-32395D01*
X42887Y-32300D01*
X42887Y-32225D01*
X43637Y-32225D01*
X43637Y-32400D01*
X43656Y-32495D01*
X43710Y-32576D01*
X44010Y-32876D01*
X44010Y-32876D01*
X44091Y-32931D01*
X44091Y-32931D01*
X44168Y-32946D01*
X44187Y-32950D01*
X44187Y-32950D01*
X44187Y-32950D01*
X44587Y-32950D01*
X44683Y-32931D01*
X44764Y-32876D01*
X45114Y-32526D01*
X45114Y-32526D01*
X45114Y-32526D01*
X45127Y-32506D01*
X45172Y-32525D01*
X45289Y-32525D01*
X45289Y-32834D01*
X45319Y-32907D01*
X45376Y-32964D01*
X45449Y-32994D01*
X45529Y-32994D01*
X45825Y-32994D01*
X45898Y-32964D01*
X45955Y-32908D01*
X45963Y-32887D01*
X46500Y-32887D01*
X46596Y-32868D01*
X46660Y-32825D01*
X46701Y-32825D01*
X46821Y-32775D01*
X46847Y-32750D01*
X46937Y-32750D01*
X47033Y-32731D01*
X47114Y-32676D01*
X47314Y-32476D01*
X47314Y-32476D01*
X47314Y-32476D01*
X47346Y-32428D01*
X47368Y-32395D01*
X47368Y-32395D01*
X47387Y-32300D01*
X47387Y-32225D01*
X48387Y-32225D01*
X48387Y-32290D01*
X48362Y-32315D01*
X48312Y-32435D01*
X48312Y-32564D01*
X48361Y-32684D01*
X48453Y-32775D01*
X48572Y-32825D01*
X48701Y-32825D01*
X48821Y-32775D01*
X48912Y-32684D01*
X48962Y-32565D01*
X48962Y-32488D01*
X49316Y-32850D01*
X51150Y-32850D01*
X51150Y-35492D01*
X51090Y-35552D01*
X51090Y-35552D01*
X50790Y-35852D01*
X50714Y-35966D01*
X50687Y-36100D01*
X50687Y-36505D01*
X50492Y-36700D01*
X49747Y-36700D01*
X49674Y-36730D01*
X49618Y-36786D01*
X49587Y-36860D01*
X49587Y-36939D01*
X49587Y-37939D01*
X49617Y-38013D01*
X49674Y-38069D01*
X49747Y-38100D01*
X49827Y-38100D01*
X50827Y-38100D01*
X50900Y-38069D01*
X50957Y-38013D01*
X50987Y-37940D01*
X50987Y-37860D01*
X50987Y-37195D01*
X51150Y-37032D01*
X51150Y-38049D01*
X52027Y-38050D01*
X52147Y-38100D01*
X52426Y-38100D01*
X52547Y-38050D01*
X54187Y-38050D01*
X54187Y-37855D01*
X54325Y-37870D01*
X54325Y-38625D01*
X54325Y-38625D01*
G37*
G54D70*
X54325Y-38625D02*
X48975Y-38625D01*
X48979Y-37559D01*
X48987Y-37540D01*
X48987Y-37261D01*
X48980Y-37244D01*
X48987Y-35450D01*
X47500Y-35450D01*
X47500Y-34373D01*
X47648Y-34373D01*
X47786Y-34510D01*
X47753Y-34524D01*
X47662Y-34615D01*
X47612Y-34735D01*
X47612Y-34864D01*
X47661Y-34984D01*
X47753Y-35075D01*
X47872Y-35125D01*
X48001Y-35125D01*
X48121Y-35075D01*
X48187Y-35009D01*
X48253Y-35075D01*
X48372Y-35125D01*
X48501Y-35125D01*
X48621Y-35075D01*
X48712Y-34984D01*
X48762Y-34865D01*
X48762Y-34735D01*
X48713Y-34616D01*
X48704Y-34607D01*
X48704Y-34607D01*
X48649Y-34525D01*
X48649Y-34525D01*
X47985Y-33861D01*
X47888Y-33796D01*
X47773Y-33773D01*
X47429Y-33773D01*
X47429Y-33738D01*
X47399Y-33664D01*
X47343Y-33608D01*
X47269Y-33577D01*
X47269Y-33577D01*
X47274Y-33564D01*
X47275Y-33435D01*
X47225Y-33316D01*
X47134Y-33224D01*
X47014Y-33175D01*
X46885Y-33174D01*
X46766Y-33224D01*
X46674Y-33315D01*
X46625Y-33435D01*
X46624Y-33564D01*
X46630Y-33577D01*
X45930Y-33577D01*
X45856Y-33608D01*
X45800Y-33664D01*
X45770Y-33737D01*
X45770Y-33817D01*
X45770Y-34100D01*
X45229Y-34100D01*
X45229Y-33738D01*
X45199Y-33664D01*
X45143Y-33608D01*
X45069Y-33577D01*
X44990Y-33577D01*
X43730Y-33577D01*
X43656Y-33608D01*
X43600Y-33664D01*
X43570Y-33737D01*
X43570Y-33747D01*
X43514Y-33725D01*
X43385Y-33724D01*
X43266Y-33774D01*
X43174Y-33865D01*
X43149Y-33925D01*
X43085Y-33861D01*
X42988Y-33796D01*
X42929Y-33784D01*
X42929Y-33784D01*
X42929Y-33738D01*
X42899Y-33664D01*
X42843Y-33608D01*
X42769Y-33577D01*
X42690Y-33577D01*
X41430Y-33577D01*
X41356Y-33608D01*
X41300Y-33664D01*
X41270Y-33737D01*
X41270Y-33817D01*
X41270Y-34100D01*
X40867Y-34100D01*
X40867Y-34023D01*
X40872Y-34025D01*
X41001Y-34025D01*
X41121Y-33975D01*
X41212Y-33884D01*
X41262Y-33765D01*
X41262Y-33635D01*
X41213Y-33516D01*
X41121Y-33424D01*
X41002Y-33375D01*
X40873Y-33375D01*
X40753Y-33424D01*
X40662Y-33515D01*
X40636Y-33578D01*
X40627Y-33578D01*
X39368Y-33578D01*
X39294Y-33608D01*
X39238Y-33664D01*
X39207Y-33738D01*
X39207Y-33817D01*
X39207Y-33868D01*
X38975Y-34100D01*
X38850Y-34100D01*
X38850Y-34244D01*
X38822Y-34285D01*
X38800Y-34400D01*
X38800Y-34475D01*
X38673Y-34475D01*
X38553Y-34524D01*
X38462Y-34615D01*
X38412Y-34735D01*
X38412Y-34864D01*
X38461Y-34984D01*
X38553Y-35075D01*
X38672Y-35125D01*
X38800Y-35125D01*
X38800Y-35231D01*
X38740Y-35231D01*
X37480Y-35231D01*
X37406Y-35261D01*
X37350Y-35318D01*
X37320Y-35391D01*
X37320Y-35450D01*
X33150Y-35450D01*
X33150Y-33624D01*
X33474Y-33300D01*
X34300Y-33300D01*
X34800Y-33300D01*
X34800Y-33299D01*
X34914Y-33277D01*
X34914Y-33277D01*
X35012Y-33212D01*
X35074Y-33150D01*
X35689Y-33150D01*
X35689Y-33184D01*
X35719Y-33257D01*
X35776Y-33314D01*
X35849Y-33344D01*
X35929Y-33344D01*
X36225Y-33344D01*
X36298Y-33314D01*
X36355Y-33258D01*
X36363Y-33237D01*
X36450Y-33237D01*
X36546Y-33218D01*
X36627Y-33163D01*
X36641Y-33150D01*
X37658Y-33150D01*
X37683Y-33125D01*
X37701Y-33125D01*
X37821Y-33075D01*
X37912Y-32984D01*
X37962Y-32865D01*
X37962Y-32845D01*
X38258Y-32550D01*
X39534Y-32550D01*
X39560Y-32576D01*
X39660Y-32676D01*
X39741Y-32731D01*
X39837Y-32750D01*
X40037Y-32750D01*
X40137Y-32750D01*
X40233Y-32731D01*
X40314Y-32676D01*
X40389Y-32601D01*
X40389Y-32619D01*
X40389Y-32934D01*
X40419Y-33007D01*
X40476Y-33064D01*
X40549Y-33094D01*
X40629Y-33094D01*
X40925Y-33094D01*
X40998Y-33064D01*
X41055Y-33008D01*
X41069Y-32973D01*
X41096Y-32968D01*
X41177Y-32913D01*
X41441Y-32650D01*
X41570Y-32650D01*
X41587Y-32693D01*
X41644Y-32749D01*
X41717Y-32780D01*
X41797Y-32780D01*
X42157Y-32780D01*
X42228Y-32750D01*
X42253Y-32775D01*
X42372Y-32825D01*
X42501Y-32825D01*
X42621Y-32775D01*
X42712Y-32684D01*
X42762Y-32565D01*
X42762Y-32528D01*
X42814Y-32476D01*
X42814Y-32476D01*
X42814Y-32476D01*
X42846Y-32428D01*
X42868Y-32395D01*
X42868Y-32395D01*
X42887Y-32300D01*
X42887Y-32225D01*
X43637Y-32225D01*
X43637Y-32400D01*
X43656Y-32495D01*
X43710Y-32576D01*
X44010Y-32876D01*
X44010Y-32876D01*
X44091Y-32931D01*
X44091Y-32931D01*
X44168Y-32946D01*
X44187Y-32950D01*
X44187Y-32950D01*
X44187Y-32950D01*
X44587Y-32950D01*
X44683Y-32931D01*
X44764Y-32876D01*
X45114Y-32526D01*
X45114Y-32526D01*
X45114Y-32526D01*
X45127Y-32506D01*
X45172Y-32525D01*
X45289Y-32525D01*
X45289Y-32834D01*
X45319Y-32907D01*
X45376Y-32964D01*
X45449Y-32994D01*
X45529Y-32994D01*
X45825Y-32994D01*
X45898Y-32964D01*
X45955Y-32908D01*
X45963Y-32887D01*
X46500Y-32887D01*
X46596Y-32868D01*
X46660Y-32825D01*
X46701Y-32825D01*
X46821Y-32775D01*
X46847Y-32750D01*
X46937Y-32750D01*
X47033Y-32731D01*
X47114Y-32676D01*
X47314Y-32476D01*
X47314Y-32476D01*
X47314Y-32476D01*
X47346Y-32428D01*
X47368Y-32395D01*
X47368Y-32395D01*
X47387Y-32300D01*
X47387Y-32225D01*
X48387Y-32225D01*
X48387Y-32290D01*
X48362Y-32315D01*
X48312Y-32435D01*
X48312Y-32564D01*
X48361Y-32684D01*
X48453Y-32775D01*
X48572Y-32825D01*
X48701Y-32825D01*
X48821Y-32775D01*
X48912Y-32684D01*
X48962Y-32565D01*
X48962Y-32488D01*
X49316Y-32850D01*
X51150Y-32850D01*
X51150Y-35492D01*
X51090Y-35552D01*
X51090Y-35552D01*
X50790Y-35852D01*
X50714Y-35966D01*
X50687Y-36100D01*
X50687Y-36505D01*
X50492Y-36700D01*
X49747Y-36700D01*
X49674Y-36730D01*
X49618Y-36786D01*
X49587Y-36860D01*
X49587Y-36939D01*
X49587Y-37939D01*
X49617Y-38013D01*
X49674Y-38069D01*
X49747Y-38100D01*
X49827Y-38100D01*
X50827Y-38100D01*
X50900Y-38069D01*
X50957Y-38013D01*
X50987Y-37940D01*
X50987Y-37860D01*
X50987Y-37195D01*
X51150Y-37032D01*
X51150Y-38049D01*
X52027Y-38050D01*
X52147Y-38100D01*
X52426Y-38100D01*
X52547Y-38050D01*
X54187Y-38050D01*
X54187Y-37855D01*
X54325Y-37870D01*
X54325Y-38625D01*
G54D10*
G36*
X48375Y-31775D02*
X47387Y-31775D01*
X47387Y-31750D01*
X47387Y-30275D01*
X48375Y-30275D01*
X48375Y-31775D01*
X48375Y-31775D01*
G37*
G54D70*
X48375Y-31775D02*
X47387Y-31775D01*
X47387Y-31750D01*
X47387Y-30275D01*
X48375Y-30275D01*
X48375Y-31775D01*
G54D10*
G36*
X57050Y-38650D02*
X54699Y-38650D01*
X54675Y-36575D01*
X55854Y-36575D01*
X57050Y-37770D01*
X57050Y-38650D01*
X57050Y-38650D01*
G37*
G54D70*
X57050Y-38650D02*
X54699Y-38650D01*
X54675Y-36575D01*
X55854Y-36575D01*
X57050Y-37770D01*
X57050Y-38650D01*
G54D10*
G36*
X43575Y-31575D02*
X42887Y-31575D01*
X42887Y-31287D01*
X42868Y-31191D01*
X42868Y-31191D01*
X42814Y-31110D01*
X42601Y-30898D01*
X42520Y-30844D01*
X42425Y-30825D01*
X42375Y-30825D01*
X42375Y-29616D01*
X42541Y-29450D01*
X42846Y-29450D01*
X43575Y-30178D01*
X43575Y-31575D01*
X43575Y-31575D01*
G37*
G54D70*
X43575Y-31575D02*
X42887Y-31575D01*
X42887Y-31287D01*
X42868Y-31191D01*
X42868Y-31191D01*
X42814Y-31110D01*
X42601Y-30898D01*
X42520Y-30844D01*
X42425Y-30825D01*
X42375Y-30825D01*
X42375Y-29616D01*
X42541Y-29450D01*
X42846Y-29450D01*
X43575Y-30178D01*
X43575Y-31575D01*
G54D10*
G36*
X39187Y-31875D02*
X39073Y-31875D01*
X38953Y-31924D01*
X38862Y-32015D01*
X38812Y-32135D01*
X38812Y-32175D01*
X38187Y-32175D01*
X38187Y-32000D01*
X38187Y-31825D01*
X38187Y-31800D01*
X38187Y-31537D01*
X38187Y-31537D01*
X38187Y-31537D01*
X38183Y-31518D01*
X38175Y-31474D01*
X38175Y-31474D01*
X38175Y-29825D01*
X38671Y-29825D01*
X38843Y-29997D01*
X38843Y-30856D01*
X38862Y-30951D01*
X38916Y-31033D01*
X39187Y-31303D01*
X39187Y-31875D01*
X39187Y-31875D01*
G37*
G54D70*
X39187Y-31875D02*
X39073Y-31875D01*
X38953Y-31924D01*
X38862Y-32015D01*
X38812Y-32135D01*
X38812Y-32175D01*
X38187Y-32175D01*
X38187Y-32000D01*
X38187Y-31825D01*
X38187Y-31800D01*
X38187Y-31537D01*
X38187Y-31537D01*
X38187Y-31537D01*
X38183Y-31518D01*
X38175Y-31474D01*
X38175Y-31474D01*
X38175Y-29825D01*
X38671Y-29825D01*
X38843Y-29997D01*
X38843Y-30856D01*
X38862Y-30951D01*
X38916Y-31033D01*
X39187Y-31303D01*
X39187Y-31875D01*
G54D10*
G36*
X12500Y-34250D02*
X12234Y-34250D01*
X12372Y-33870D01*
X12342Y-33806D01*
X11657Y-33556D01*
X11407Y-34242D01*
X11411Y-34250D01*
X10850Y-34250D01*
X10850Y-34092D01*
X10967Y-34135D01*
X11031Y-34105D01*
X11281Y-33419D01*
X11273Y-33417D01*
X11410Y-33041D01*
X11418Y-33043D01*
X11667Y-32358D01*
X11637Y-32294D01*
X11102Y-32099D01*
X11023Y-32102D01*
X10951Y-32136D01*
X10897Y-32195D01*
X10870Y-32269D01*
X10850Y-32325D01*
X10850Y-31450D01*
X12500Y-31450D01*
X12500Y-32608D01*
X12107Y-32465D01*
X12043Y-32495D01*
X11793Y-33180D01*
X12479Y-33430D01*
X12500Y-33420D01*
X12500Y-34250D01*
X12500Y-34250D01*
G37*
G54D70*
X12500Y-34250D02*
X12234Y-34250D01*
X12372Y-33870D01*
X12342Y-33806D01*
X11657Y-33556D01*
X11407Y-34242D01*
X11411Y-34250D01*
X10850Y-34250D01*
X10850Y-34092D01*
X10967Y-34135D01*
X11031Y-34105D01*
X11281Y-33419D01*
X11273Y-33417D01*
X11410Y-33041D01*
X11418Y-33043D01*
X11667Y-32358D01*
X11637Y-32294D01*
X11102Y-32099D01*
X11023Y-32102D01*
X10951Y-32136D01*
X10897Y-32195D01*
X10870Y-32269D01*
X10850Y-32325D01*
X10850Y-31450D01*
X12500Y-31450D01*
X12500Y-32608D01*
X12107Y-32465D01*
X12043Y-32495D01*
X11793Y-33180D01*
X12479Y-33430D01*
X12500Y-33420D01*
X12500Y-34250D01*
M02*
