G04 (created by PCBNEW (2013-07-07 BZR 4022)-stable) date Mon 16 Feb 2015 05:06:00 PM ART*
%MOIN*%
G04 Gerber Fmt 3.4, Leading zero omitted, Abs format*
%FSLAX34Y34*%
G01*
G70*
G90*
G04 APERTURE LIST*
%ADD10C,0.00590551*%
%ADD11R,0.108299X0.124047*%
%ADD12R,0.0532X0.0138*%
%ADD13R,0.0197165X0.0197165*%
%ADD14R,0.038X0.038*%
%ADD15R,0.0296X0.0414*%
%ADD16R,0.0414X0.0296*%
%ADD17R,0.0548X0.0729*%
%ADD18R,0.069X0.0257*%
%ADD19R,0.047X0.027*%
%ADD20R,0.027X0.047*%
%ADD21R,0.065X0.065*%
%ADD22C,0.065*%
%ADD23R,0.062X0.062*%
%ADD24C,0.062*%
%ADD25R,0.0728X0.0571*%
%ADD26R,0.052X0.04*%
%ADD27R,0.04X0.052*%
%ADD28C,0.0728*%
%ADD29R,0.0571181X0.0492441*%
%ADD30R,0.1004X0.1319*%
%ADD31R,0.044126X0.0870394*%
%ADD32R,0.33X0.277*%
%ADD33R,0.427X0.077*%
%ADD34R,0.0414X0.0374*%
%ADD35R,0.0374X0.0414*%
%ADD36R,0.102X0.102*%
%ADD37C,0.102*%
%ADD38C,0.104362*%
%ADD39R,0.052X0.077*%
%ADD40R,0.0886X0.0256*%
%ADD41R,0.0256X0.0886*%
%ADD42R,0.0610551X0.127984*%
%ADD43C,0.179165*%
%ADD44C,0.152*%
%ADD45C,0.12011*%
%ADD46R,0.065X0.073*%
%ADD47R,0.073X0.065*%
%ADD48R,0.012X0.0611*%
%ADD49R,0.0611X0.012*%
%ADD50R,0.112X0.152*%
%ADD51R,0.0619X0.102*%
%ADD52R,0.127984X0.0610551*%
%ADD53R,0.057X0.152*%
%ADD54R,0.022X0.032*%
%ADD55R,0.082X0.062*%
%ADD56C,0.057*%
%ADD57C,0.084*%
%ADD58R,0.0964X0.0964*%
G04 APERTURE END LIST*
G54D10*
G54D11*
X49580Y-33100D03*
X52494Y-33120D03*
G54D12*
X21587Y-10640D03*
X21587Y-10890D03*
X21587Y-11150D03*
X21587Y-11400D03*
X21587Y-11660D03*
X21587Y-11915D03*
X21587Y-12170D03*
X19387Y-12170D03*
X19387Y-11915D03*
X19387Y-11660D03*
X19387Y-11400D03*
X19387Y-11145D03*
X19387Y-10890D03*
X19387Y-10635D03*
G54D13*
X54437Y-16100D03*
X54437Y-15470D03*
X54772Y-15470D03*
X54772Y-16100D03*
X48437Y-13500D03*
X47807Y-13500D03*
X47807Y-13165D03*
X48437Y-13165D03*
G54D14*
X27487Y-30600D03*
X26787Y-30600D03*
X27137Y-31400D03*
X19187Y-30500D03*
X18487Y-30500D03*
X18837Y-31300D03*
X23687Y-30400D03*
X22987Y-30400D03*
X23337Y-31200D03*
X31687Y-30500D03*
X30987Y-30500D03*
X31337Y-31300D03*
G54D15*
X18137Y-11000D03*
X17762Y-12000D03*
X18512Y-12000D03*
X18037Y-13800D03*
X17662Y-14800D03*
X18412Y-14800D03*
G54D16*
X21637Y-13000D03*
X20637Y-12625D03*
X20637Y-13375D03*
G54D15*
X22987Y-10400D03*
X22612Y-11400D03*
X23362Y-11400D03*
G54D17*
X57176Y-28800D03*
X58300Y-28800D03*
G54D18*
X31381Y-20151D03*
X31381Y-20651D03*
X31381Y-21150D03*
X31381Y-21650D03*
X29295Y-21650D03*
X29295Y-21150D03*
X29295Y-20651D03*
X29295Y-20151D03*
G54D19*
X14387Y-18250D03*
X14387Y-17650D03*
X39150Y-29950D03*
X39150Y-30550D03*
X12900Y-28900D03*
X12900Y-28300D03*
X15187Y-17650D03*
X15187Y-18250D03*
X16437Y-29600D03*
X16437Y-30200D03*
X15987Y-17650D03*
X15987Y-18250D03*
X15537Y-29600D03*
X15537Y-30200D03*
X21987Y-22800D03*
X21987Y-22200D03*
X14650Y-29600D03*
X14650Y-30200D03*
X13700Y-29600D03*
X13700Y-30200D03*
G54D20*
X32037Y-29200D03*
X32637Y-29200D03*
G54D19*
X44250Y-11350D03*
X44250Y-10750D03*
X41100Y-8550D03*
X41100Y-9150D03*
X32350Y-9550D03*
X32350Y-10150D03*
X36800Y-29900D03*
X36800Y-30500D03*
X41450Y-12850D03*
X41450Y-12250D03*
X44250Y-9150D03*
X44250Y-9750D03*
X19637Y-25700D03*
X19637Y-25100D03*
X34300Y-9550D03*
X34300Y-10150D03*
X30400Y-9550D03*
X30400Y-10150D03*
X13200Y-20700D03*
X13200Y-21300D03*
G54D20*
X28637Y-29100D03*
X28037Y-29100D03*
X13900Y-22700D03*
X13300Y-22700D03*
G54D19*
X37237Y-25100D03*
X37237Y-24500D03*
X36437Y-25200D03*
X36437Y-25800D03*
X16137Y-13200D03*
X16137Y-12600D03*
G54D20*
X16937Y-12700D03*
X17537Y-12700D03*
G54D19*
X42137Y-16450D03*
X42137Y-17050D03*
X43037Y-15200D03*
X43037Y-15800D03*
X42137Y-15250D03*
X42137Y-15850D03*
G54D20*
X40837Y-17500D03*
X41437Y-17500D03*
G54D19*
X40400Y-26900D03*
X40400Y-26300D03*
X40700Y-21600D03*
X40700Y-22200D03*
X17837Y-10400D03*
X17837Y-9800D03*
X16137Y-14400D03*
X16137Y-13800D03*
X41137Y-18400D03*
X41137Y-19000D03*
X40375Y-19175D03*
X40375Y-19775D03*
X23737Y-29600D03*
X23737Y-29000D03*
X23237Y-12000D03*
X23237Y-12600D03*
G54D20*
X23037Y-13200D03*
X23637Y-13200D03*
X25087Y-12650D03*
X25687Y-12650D03*
G54D19*
X37737Y-27200D03*
X37737Y-26600D03*
G54D20*
X32887Y-17150D03*
X33487Y-17150D03*
G54D19*
X34837Y-19400D03*
X34837Y-18800D03*
X35537Y-18100D03*
X35537Y-18700D03*
X34737Y-17200D03*
X34737Y-17800D03*
G54D20*
X27937Y-17100D03*
X27337Y-17100D03*
G54D19*
X32775Y-20875D03*
X32775Y-21475D03*
X30737Y-18200D03*
X30737Y-18800D03*
X30737Y-17000D03*
X30737Y-17600D03*
X29987Y-16700D03*
X29987Y-17300D03*
X15487Y-12000D03*
X15487Y-11400D03*
X16237Y-11650D03*
X16237Y-11050D03*
X15237Y-10700D03*
X15237Y-10100D03*
X16237Y-9750D03*
X16237Y-10350D03*
G54D20*
X22037Y-21600D03*
X21437Y-21600D03*
G54D19*
X20337Y-20800D03*
X20337Y-21400D03*
X10100Y-27600D03*
X10100Y-28200D03*
X10100Y-26900D03*
X10100Y-26300D03*
G54D20*
X24857Y-8700D03*
X25457Y-8700D03*
G54D19*
X19637Y-13000D03*
X19637Y-13600D03*
X25537Y-10800D03*
X25537Y-10200D03*
X24837Y-10900D03*
X24837Y-10300D03*
X12100Y-25300D03*
X12100Y-25900D03*
X10900Y-24800D03*
X10900Y-25400D03*
G54D20*
X26987Y-11100D03*
X26387Y-11100D03*
G54D19*
X19837Y-14400D03*
X19837Y-15000D03*
G54D20*
X22022Y-9862D03*
X22622Y-9862D03*
G54D19*
X14000Y-25300D03*
X14000Y-25900D03*
X12100Y-28300D03*
X12100Y-28900D03*
G54D20*
X23537Y-22350D03*
X22937Y-22350D03*
X50337Y-14800D03*
X49737Y-14800D03*
X29987Y-26450D03*
X29387Y-26450D03*
X24787Y-22350D03*
X24187Y-22350D03*
G54D19*
X47137Y-14400D03*
X47137Y-15000D03*
G54D20*
X23937Y-12200D03*
X24537Y-12200D03*
G54D19*
X37537Y-17500D03*
X37537Y-18100D03*
G54D20*
X17837Y-15600D03*
X18437Y-15600D03*
X11500Y-12200D03*
X12100Y-12200D03*
X16987Y-26500D03*
X16387Y-26500D03*
X12100Y-11400D03*
X11500Y-11400D03*
G54D21*
X28887Y-33700D03*
G54D22*
X28887Y-34700D03*
X27887Y-33700D03*
X27887Y-34700D03*
X26887Y-33700D03*
X26887Y-34700D03*
X25887Y-33700D03*
X25887Y-34700D03*
X24887Y-33700D03*
X24887Y-34700D03*
X23887Y-33700D03*
X23887Y-34700D03*
G54D23*
X50500Y-26500D03*
G54D24*
X50500Y-27500D03*
X49500Y-26500D03*
X49500Y-27500D03*
X48500Y-26500D03*
X48500Y-27500D03*
X47500Y-26500D03*
X47500Y-27500D03*
G54D21*
X24837Y-23200D03*
G54D22*
X24837Y-24200D03*
X23837Y-23200D03*
X23837Y-24200D03*
X22837Y-23200D03*
X22837Y-24200D03*
G54D23*
X41500Y-23500D03*
G54D24*
X41500Y-24500D03*
X40500Y-23500D03*
X40500Y-24500D03*
G54D25*
X21737Y-33831D03*
X21737Y-35169D03*
X18837Y-33331D03*
X18837Y-34669D03*
X28437Y-31369D03*
X28437Y-30031D03*
X31300Y-33531D03*
X31300Y-34869D03*
G54D26*
X22437Y-12350D03*
X22437Y-12850D03*
X22437Y-13350D03*
X16937Y-14400D03*
X16937Y-13900D03*
X16937Y-13400D03*
X17087Y-12050D03*
X17087Y-11550D03*
X17087Y-11050D03*
X24037Y-11450D03*
X24037Y-10950D03*
X24037Y-10450D03*
G54D27*
X20537Y-32300D03*
X20037Y-32300D03*
X19537Y-32300D03*
X24737Y-32200D03*
X24237Y-32200D03*
X23737Y-32200D03*
X29037Y-32400D03*
X28537Y-32400D03*
X28037Y-32400D03*
X33237Y-32300D03*
X32737Y-32300D03*
X32237Y-32300D03*
X25437Y-11850D03*
X25937Y-11850D03*
G54D26*
X18484Y-9828D03*
X18484Y-10328D03*
X17087Y-9850D03*
X17087Y-10350D03*
X16787Y-18200D03*
X16787Y-17700D03*
X36437Y-23450D03*
X36437Y-23950D03*
X39825Y-21825D03*
X39825Y-22325D03*
X27375Y-21575D03*
X27375Y-21075D03*
G54D28*
X18537Y-25300D03*
X18537Y-27300D03*
X18537Y-29300D03*
X21537Y-25300D03*
X21537Y-27300D03*
X21537Y-29300D03*
X18537Y-32300D03*
X21537Y-32300D03*
X31254Y-25283D03*
X31254Y-27283D03*
X31254Y-29283D03*
X34254Y-25283D03*
X34254Y-27283D03*
X34254Y-29283D03*
X31254Y-32283D03*
X34254Y-32283D03*
X27012Y-25283D03*
X27012Y-27283D03*
X27012Y-29283D03*
X30012Y-25283D03*
X30012Y-27283D03*
X30012Y-29283D03*
X27012Y-32283D03*
X30012Y-32283D03*
X22737Y-25300D03*
X22737Y-27300D03*
X22737Y-29300D03*
X25737Y-25300D03*
X25737Y-27300D03*
X25737Y-29300D03*
X22737Y-32300D03*
X25737Y-32300D03*
G54D29*
X45837Y-14050D03*
X44892Y-14050D03*
X45837Y-13302D03*
X44892Y-13302D03*
G54D30*
X49298Y-30400D03*
X51976Y-30400D03*
G54D31*
X57037Y-30220D03*
X57707Y-30220D03*
X58377Y-30220D03*
X56367Y-30220D03*
X55697Y-30220D03*
G54D32*
X57037Y-34425D03*
G54D33*
X57037Y-35425D03*
G54D34*
X36737Y-27196D03*
X36737Y-26604D03*
X26637Y-12796D03*
X26637Y-12204D03*
G54D35*
X19191Y-8500D03*
X19783Y-8500D03*
X20841Y-19300D03*
X21433Y-19300D03*
G54D34*
X46637Y-13304D03*
X46637Y-13896D03*
X44037Y-13404D03*
X44037Y-13996D03*
G54D35*
X31641Y-17150D03*
X32233Y-17150D03*
X40033Y-17400D03*
X39441Y-17400D03*
G54D34*
X44137Y-19904D03*
X44137Y-20496D03*
G54D35*
X21183Y-8500D03*
X20591Y-8500D03*
G54D34*
X19937Y-22454D03*
X19937Y-23046D03*
X26625Y-20521D03*
X26625Y-19929D03*
X32237Y-25996D03*
X32237Y-25404D03*
X31637Y-23296D03*
X31637Y-22704D03*
X28125Y-20829D03*
X28125Y-21421D03*
X35437Y-25196D03*
X35437Y-24604D03*
G54D35*
X39429Y-18575D03*
X40021Y-18575D03*
G54D34*
X35537Y-16904D03*
X35537Y-17496D03*
X39337Y-19896D03*
X39337Y-19304D03*
X36737Y-18696D03*
X36737Y-18104D03*
G54D35*
X34633Y-24400D03*
X34041Y-24400D03*
X31033Y-14400D03*
X30441Y-14400D03*
G54D34*
X26625Y-21129D03*
X26625Y-21721D03*
G54D35*
X25941Y-17200D03*
X26533Y-17200D03*
G54D34*
X27637Y-15504D03*
X27637Y-16096D03*
G54D35*
X23141Y-9750D03*
X23733Y-9750D03*
G54D34*
X27837Y-23496D03*
X27837Y-22904D03*
X36587Y-21046D03*
X36587Y-20454D03*
X36587Y-21704D03*
X36587Y-22296D03*
G54D35*
X18633Y-17500D03*
X18041Y-17500D03*
G54D34*
X9400Y-27496D03*
X9400Y-26904D03*
X9400Y-25504D03*
X9400Y-26096D03*
X12900Y-25896D03*
X12900Y-25304D03*
X10200Y-25396D03*
X10200Y-24804D03*
X21887Y-24246D03*
X21887Y-23654D03*
X19637Y-20804D03*
X19637Y-21396D03*
G54D35*
X48833Y-15000D03*
X48241Y-15000D03*
G54D34*
X16837Y-16204D03*
X16837Y-16796D03*
G54D35*
X15096Y-17000D03*
X14504Y-17000D03*
G54D34*
X57037Y-23604D03*
X57037Y-24196D03*
X37237Y-23796D03*
X37237Y-23204D03*
X12750Y-26804D03*
X12750Y-27396D03*
X44637Y-15996D03*
X44637Y-15404D03*
G54D35*
X24641Y-9600D03*
X25233Y-9600D03*
X35033Y-14400D03*
X34441Y-14400D03*
G54D34*
X18637Y-23704D03*
X18637Y-24296D03*
X19687Y-23904D03*
X19687Y-24496D03*
X19187Y-15046D03*
X19187Y-14454D03*
G54D35*
X11096Y-28850D03*
X10504Y-28850D03*
G54D34*
X14800Y-22404D03*
X14800Y-22996D03*
X18937Y-13596D03*
X18937Y-13004D03*
X26037Y-9396D03*
X26037Y-8804D03*
X17087Y-23954D03*
X17087Y-24546D03*
G54D36*
X34287Y-7400D03*
G54D37*
X32287Y-7400D03*
X30287Y-7400D03*
G54D36*
X32287Y-37400D03*
G54D37*
X34287Y-37400D03*
X36287Y-37400D03*
G54D36*
X40287Y-7400D03*
G54D37*
X38287Y-7400D03*
X36287Y-7400D03*
G54D36*
X46287Y-7400D03*
G54D37*
X44287Y-7400D03*
X42287Y-7400D03*
G54D36*
X52287Y-7400D03*
G54D37*
X50287Y-7400D03*
X48287Y-7400D03*
G54D36*
X18287Y-7400D03*
G54D37*
X16287Y-7400D03*
X14287Y-7400D03*
G54D36*
X28287Y-7400D03*
G54D37*
X26287Y-7400D03*
X24287Y-7400D03*
G54D36*
X22287Y-37400D03*
G54D37*
X24287Y-37400D03*
X26287Y-37400D03*
G54D36*
X44287Y-37400D03*
G54D37*
X46287Y-37400D03*
X48287Y-37400D03*
G54D36*
X38287Y-37400D03*
G54D37*
X40287Y-37400D03*
X42287Y-37400D03*
G54D36*
X50287Y-37400D03*
G54D37*
X52287Y-37400D03*
G54D36*
X22287Y-7400D03*
G54D37*
X20287Y-7400D03*
G54D36*
X18287Y-37400D03*
G54D37*
X20287Y-37400D03*
G54D36*
X14287Y-37400D03*
G54D37*
X16287Y-37400D03*
G54D38*
X15533Y-34754D03*
X7542Y-31845D03*
G54D10*
G36*
X10525Y-33772D02*
X11065Y-32288D01*
X12549Y-32828D01*
X12009Y-34312D01*
X10525Y-33772D01*
X10525Y-33772D01*
G37*
G54D39*
X35887Y-22100D03*
X33687Y-22100D03*
X33687Y-20850D03*
X35887Y-20850D03*
G54D40*
X33810Y-17800D03*
X33810Y-18300D03*
X33810Y-18800D03*
X33810Y-19300D03*
X31764Y-19300D03*
X31764Y-18800D03*
X31764Y-18300D03*
X31764Y-17800D03*
X29710Y-17750D03*
X29710Y-18250D03*
X29710Y-18750D03*
X29710Y-19250D03*
X27664Y-19250D03*
X27664Y-18750D03*
X27664Y-18250D03*
X27664Y-17750D03*
X40910Y-15300D03*
X40910Y-15800D03*
X40910Y-16300D03*
X40910Y-16800D03*
X38864Y-16800D03*
X38864Y-16300D03*
X38864Y-15800D03*
X38864Y-15300D03*
G54D41*
X15737Y-21223D03*
X15237Y-21223D03*
X14737Y-21223D03*
X14237Y-21223D03*
X14237Y-19177D03*
X14737Y-19177D03*
X15237Y-19177D03*
X15737Y-19177D03*
G54D36*
X28287Y-37400D03*
G54D37*
X30287Y-37400D03*
G54D40*
X39954Y-10000D03*
X39954Y-10500D03*
X39954Y-11000D03*
X39954Y-11500D03*
X39954Y-12000D03*
X39954Y-12500D03*
X39954Y-13000D03*
X39954Y-13500D03*
X37120Y-13500D03*
X37120Y-13000D03*
X37120Y-12500D03*
X37120Y-12000D03*
X37120Y-11500D03*
X37120Y-11000D03*
X37120Y-10500D03*
X37120Y-10000D03*
X23804Y-14300D03*
X23804Y-14800D03*
X23804Y-15300D03*
X23804Y-15800D03*
X23804Y-16300D03*
X23804Y-16800D03*
X23804Y-17300D03*
X23804Y-17800D03*
X20970Y-17800D03*
X20970Y-17300D03*
X20970Y-16800D03*
X20970Y-16300D03*
X20970Y-15800D03*
X20970Y-15300D03*
X20970Y-14800D03*
X20970Y-14300D03*
G54D42*
X46664Y-29700D03*
X45010Y-29700D03*
G54D26*
X35437Y-26600D03*
X35437Y-27100D03*
X35437Y-27600D03*
G54D43*
X58344Y-7384D03*
X58344Y-37404D03*
X8246Y-7384D03*
X8246Y-37404D03*
G54D23*
X42500Y-24500D03*
G54D24*
X42500Y-23500D03*
X43500Y-24500D03*
X43500Y-23500D03*
X44500Y-24500D03*
X44500Y-23500D03*
X45500Y-24500D03*
X45500Y-23500D03*
X46500Y-24500D03*
X46500Y-23500D03*
X47500Y-24500D03*
X47500Y-23500D03*
X48500Y-24500D03*
X48500Y-23500D03*
X49500Y-24500D03*
X49500Y-23500D03*
X50500Y-24500D03*
X50500Y-23500D03*
X51500Y-24500D03*
X51500Y-23500D03*
G54D44*
X8837Y-10450D03*
X8837Y-20450D03*
G54D23*
X9837Y-13300D03*
G54D24*
X9837Y-14400D03*
X9837Y-15500D03*
X9837Y-16550D03*
X9837Y-17650D03*
X8837Y-17100D03*
X8837Y-16000D03*
X8837Y-14950D03*
X8837Y-13850D03*
G54D43*
X11537Y-19500D03*
X54637Y-10900D03*
G54D45*
X43537Y-27200D03*
G54D46*
X33787Y-23300D03*
X34887Y-23300D03*
G54D47*
X52237Y-19550D03*
X52237Y-20650D03*
G54D46*
X17087Y-25500D03*
X15987Y-25500D03*
G54D47*
X20937Y-23550D03*
X20937Y-22450D03*
X58137Y-24450D03*
X58137Y-23350D03*
G54D48*
X46462Y-16036D03*
X46659Y-16036D03*
X46856Y-16036D03*
X47053Y-16036D03*
X47250Y-16036D03*
X47446Y-16036D03*
X47643Y-16036D03*
X47840Y-16036D03*
X48036Y-16036D03*
X48233Y-16036D03*
X48430Y-16036D03*
X48626Y-16036D03*
X48823Y-16036D03*
X49020Y-16036D03*
X49217Y-16036D03*
X49414Y-16036D03*
G54D49*
X50201Y-16823D03*
X50201Y-17020D03*
X50201Y-17217D03*
X50201Y-17414D03*
X50201Y-17611D03*
X50201Y-17807D03*
X50201Y-18004D03*
X50201Y-18201D03*
X50201Y-18397D03*
X50201Y-18594D03*
X50201Y-18791D03*
X50201Y-18987D03*
X50201Y-19184D03*
X50201Y-19381D03*
X50201Y-19578D03*
X50201Y-19775D03*
G54D48*
X49414Y-20562D03*
X49217Y-20562D03*
X49020Y-20562D03*
X48823Y-20562D03*
X48626Y-20562D03*
X48430Y-20562D03*
X48233Y-20562D03*
X48036Y-20562D03*
X47840Y-20562D03*
X47643Y-20562D03*
X47446Y-20562D03*
X47250Y-20562D03*
X47053Y-20562D03*
X46856Y-20562D03*
X46659Y-20562D03*
X46462Y-20562D03*
G54D49*
X45675Y-19775D03*
X45675Y-19578D03*
X45675Y-19381D03*
X45675Y-19184D03*
X45675Y-18987D03*
X45675Y-18791D03*
X45675Y-18594D03*
X45675Y-18397D03*
X45675Y-18201D03*
X45675Y-18004D03*
X45675Y-17807D03*
X45675Y-17611D03*
X45675Y-17414D03*
X45675Y-17217D03*
X45675Y-17020D03*
X45675Y-16823D03*
G54D26*
X41625Y-21625D03*
X41625Y-22125D03*
G54D50*
X53706Y-35500D03*
X49769Y-35500D03*
G54D51*
X51900Y-9100D03*
X49798Y-9100D03*
G54D52*
X38150Y-34073D03*
X38150Y-35726D03*
G54D53*
X41500Y-28250D03*
X39700Y-28250D03*
G54D54*
X42275Y-29650D03*
X43025Y-29650D03*
X42275Y-30650D03*
X42650Y-29650D03*
X43025Y-30650D03*
X35275Y-29700D03*
X36025Y-29700D03*
X35275Y-30700D03*
X35650Y-29700D03*
X36025Y-30700D03*
X39975Y-29650D03*
X40725Y-29650D03*
X39975Y-30650D03*
X40350Y-29650D03*
X40725Y-30650D03*
X37625Y-29700D03*
X38375Y-29700D03*
X37625Y-30700D03*
X38000Y-29700D03*
X38375Y-30700D03*
G54D19*
X28350Y-9550D03*
X28350Y-10150D03*
G54D21*
X13500Y-17500D03*
G54D22*
X12500Y-17500D03*
X13500Y-16500D03*
X12500Y-16500D03*
X13500Y-15500D03*
X12500Y-15500D03*
X13500Y-14500D03*
X12500Y-14500D03*
G54D35*
X37254Y-28950D03*
X37846Y-28950D03*
X36496Y-28950D03*
X35904Y-28950D03*
G54D55*
X42450Y-11400D03*
X42450Y-12700D03*
X45200Y-8700D03*
X45200Y-10000D03*
X43300Y-8700D03*
X43300Y-10000D03*
X42150Y-8700D03*
X42150Y-10000D03*
X35250Y-8950D03*
X35250Y-10250D03*
X33350Y-8950D03*
X33350Y-10250D03*
X31350Y-8950D03*
X31350Y-10250D03*
X29350Y-8950D03*
X29350Y-10250D03*
G54D24*
X13700Y-24650D03*
G54D56*
X11800Y-23650D03*
X11800Y-24650D03*
X10800Y-24150D03*
X12800Y-24150D03*
G54D24*
X13700Y-23650D03*
G54D57*
X9500Y-28950D03*
G54D44*
X8300Y-28150D03*
G54D56*
X10800Y-28150D03*
G54D44*
X8300Y-23650D03*
G54D57*
X9500Y-22850D03*
G54D56*
X10800Y-27150D03*
X10800Y-26150D03*
X11800Y-27650D03*
X11800Y-26650D03*
G54D24*
X13700Y-28050D03*
X13700Y-27050D03*
G54D19*
X41550Y-30000D03*
X41550Y-30600D03*
X43700Y-30300D03*
X43700Y-30900D03*
G54D23*
X47250Y-11700D03*
G54D24*
X48250Y-11700D03*
G54D23*
X13300Y-19700D03*
G54D24*
X13300Y-18700D03*
G54D23*
X47250Y-9700D03*
G54D24*
X48250Y-9700D03*
G54D23*
X12200Y-21500D03*
G54D24*
X11200Y-21500D03*
G54D23*
X47250Y-10700D03*
G54D24*
X48250Y-10700D03*
G54D58*
X54015Y-32165D03*
X54015Y-30433D03*
X22283Y-8779D03*
X24015Y-8779D03*
X19291Y-9547D03*
X21023Y-9547D03*
X16496Y-8779D03*
X18228Y-8779D03*
M02*
