M48
;DRILL file {Pcbnew (2013-07-07 BZR 4022)-stable} date 16/04/2014 16:42:23
;FORMAT={-:-/ absolute / inch / decimal}
FMAT,2
INCH,TZ
T1C0.010
T2C0.035
T3C0.039
T4C0.040
T5C0.060
T6C0.063
T7C0.079
T8C0.098
T9C0.120
T10C0.128
%
G90
G05
M72
T1
X0.56Y2.02
X0.63Y1.6
X0.64Y2.43
X0.68Y1.17
X0.68Y1.21
X0.68Y1.6
X0.68Y2.43
X0.73Y1.6
X0.74Y2.13
X0.74Y2.56
X0.74Y2.87
X0.74Y3.01
X0.74Y3.21
X0.74Y3.33
X0.75Y2.04
X0.75Y2.31
X0.75Y2.38
X0.75Y2.75
X0.76Y1.17
X0.76Y1.21
X0.78Y0.73
X0.78Y0.77
X0.78Y2.66
X0.78Y2.7
X0.95Y0.73
X0.95Y2.75
X0.95Y2.8
X0.95Y2.85
X0.96Y1.5
X0.96Y1.54
X0.97Y1.79
X0.98Y1.68
X0.98Y1.73
X1.Y0.73
X1.03Y1.68
X1.03Y1.73
X1.04Y1.46
X1.05Y1.32
X1.05Y1.35
X1.05Y2.29
X1.07Y1.09
X1.08Y1.46
X1.12Y2.99
X1.13Y2.3
X1.13Y2.34
X1.13Y2.61
X1.15Y1.76
X1.16Y1.46
X1.23Y0.91
X1.24Y1.51
X1.26Y2.25
X1.28Y2.49
X1.29Y1.51
X1.3Y2.25
X1.34Y1.73
X1.38Y2.38
X1.4Y2.42
X1.41Y2.76
X1.41Y2.81
X1.42Y2.54
X1.43Y2.91
X1.43Y3.19
X1.45Y2.28
X1.46Y1.17
X1.46Y1.84
X1.48Y3.48
X1.5Y0.84
X1.5Y1.17
X1.56Y2.5
X1.57Y2.63
X1.57Y2.84
X1.58Y2.42
X1.59Y2.56
X1.6Y2.5
X1.6Y2.73
X1.61Y2.27
X1.62Y2.44
X1.62Y3.02
X1.62Y3.07
X1.64Y1.14
X1.64Y2.63
X1.64Y2.84
X1.65Y2.57
X1.66Y0.91
X1.66Y2.44
X1.67Y3.48
X1.68Y2.63
X1.68Y2.84
X1.69Y2.57
X1.71Y0.91
X1.73Y2.25
X1.73Y2.55
X1.73Y2.67
X1.73Y2.73
X1.75Y2.52
X1.76Y2.4
X1.77Y1.51
X1.78Y2.54
X1.79Y2.85
X1.79Y3.52
X1.82Y1.03
X1.82Y1.18
X1.82Y2.54
X1.84Y1.14
X1.84Y3.1
X1.85Y2.56
X1.85Y2.95
X1.85Y3.41
X1.88Y2.67
X1.88Y2.73
X1.89Y2.77
X1.92Y2.35
X1.92Y2.38
X1.92Y2.93
X1.93Y2.74
X1.93Y2.77
X1.98Y1.17
X1.98Y3.23
X1.98Y3.46
X2.Y0.82
X2.01Y2.36
X2.02Y2.13
X2.025Y2.425
X2.03Y2.71
X2.04Y1.18
X2.04Y2.59
X2.08Y1.16
X2.08Y2.29
X2.1Y1.07
X2.1Y2.85
X2.11Y2.27
X2.11Y3.09
X2.14Y2.29
X2.15Y2.1
X2.15Y3.24
X2.16Y2.71
X2.18Y2.29
X2.19Y3.49
X2.2Y0.81
X2.22Y2.29
X2.24Y2.86
X2.26Y1.14
X2.26Y2.13
X2.26Y3.31
X2.27Y1.18
X2.29Y3.04
X2.3Y2.13
X2.3Y2.55
X2.3Y3.15
X2.32Y2.52
X2.33Y3.04
X2.34Y2.13
X2.35Y1.11
X2.37Y3.19
X2.38Y2.13
X2.39Y0.81
X2.39Y1.17
X2.39Y1.52
X2.39Y1.7
X2.39Y1.74
X2.39Y1.78
X2.39Y1.82
X2.39Y1.86
X2.4Y2.45
X2.41Y1.02
X2.41Y2.29
X2.42Y1.58
X2.42Y3.19
X2.43Y3.28
X2.43Y3.34
X2.44Y2.31
X2.46Y2.67
X2.48Y1.56
X2.5Y1.17
X2.51Y2.86
X2.52Y1.68
X2.53Y1.76
X2.53Y1.8
X2.54Y2.1
X2.54Y2.28
X2.54Y2.84
X2.54Y2.88
X2.55Y2.
X2.55Y2.33
X2.57Y1.11
X2.58Y3.04
X2.59Y1.17
X2.59Y3.145
X2.6Y3.285
X2.61Y2.42
X2.61Y2.49
X2.62Y2.63
X2.62Y3.04
X2.63Y0.91
X2.65Y1.55
X2.66Y2.48
X2.66Y3.275
X2.665Y3.04
X2.69Y1.55
X2.69Y2.21
X2.71Y1.77
X2.71Y3.04
X2.71Y3.14
X2.715Y3.385
X2.72Y3.32
X2.73Y1.63
X2.73Y2.02
X2.74Y1.11
X2.74Y1.17
X2.74Y2.5
X2.74Y2.835
X2.75Y3.43
X2.76Y1.83
X2.76Y1.98
X2.77Y2.13
X2.77Y2.17
X2.77Y2.21
X2.77Y2.25
X2.77Y2.86
X2.78Y1.55
X2.78Y1.73
X2.78Y1.8
X2.78Y2.29
X2.78Y2.33
X2.785Y2.785
X2.79Y0.82
X2.8Y1.84
X2.8Y1.97
X2.8Y2.63
X2.8Y2.84
X2.82Y1.55
X2.82Y1.8
X2.82Y2.33
X2.83Y2.11
X2.83Y2.48
X2.84Y2.63
X2.855Y2.9
X2.86Y1.51
X2.86Y3.035
X2.865Y1.555
X2.87Y1.65
X2.87Y1.73
X2.87Y3.14
X2.87Y3.23
X2.87Y3.29
X2.87Y3.33
X2.89Y1.69
X2.9Y1.03
X2.9Y2.11
X2.94Y1.16
X2.94Y1.8
X2.95Y2.07
X2.95Y2.48
X2.96Y3.01
X2.97Y2.26
X2.97Y2.45
X2.98Y1.81
X2.98Y2.37
X2.98Y3.21
X2.99Y2.65
X2.995Y3.15
X3.Y1.92
X3.Y2.15
X3.Y2.705
X3.01Y2.87
X3.02Y2.37
X3.02Y2.57
X3.03Y3.01
X3.04Y1.33
X3.04Y2.21
X3.06Y1.73
X3.06Y2.15
X3.07Y3.01
X3.08Y2.23
X3.08Y2.66
X3.085Y2.87
X3.1Y2.72
X3.11Y2.68
X3.115Y1.59
X3.13Y3.22
X3.135Y2.995
X3.14Y1.97
X3.14Y2.87
X3.17Y1.93
X3.17Y2.22
X3.18Y1.89
X3.18Y2.32
X3.18Y2.725
X3.18Y3.55
X3.19Y2.52
X3.19Y2.56
X3.2Y1.03
X3.2Y2.43
X3.21Y2.22
X3.22Y1.98
X3.22Y2.725
X3.23Y1.83
X3.23Y2.57
X3.24Y1.38
X3.24Y1.74
X3.25Y1.55
X3.25Y2.51
X3.26Y2.41
X3.26Y2.62
X3.26Y2.725
X3.27Y2.99
X3.28Y1.9
X3.29Y2.15
X3.3Y2.725
X3.31Y0.83
X3.31Y1.97
X3.31Y2.35
X3.31Y2.415
X3.32Y1.29
X3.32Y2.2
X3.33Y1.79
X3.35Y3.
X3.355Y2.415
X3.36Y1.72
X3.38Y2.67
X3.38Y2.73
X3.39Y2.03
X3.39Y3.
X3.4Y1.97
X3.42Y1.77
X3.42Y2.28
X3.43Y2.73
X3.43Y3.
X3.455Y1.995
X3.46Y1.755
X3.46Y2.18
X3.46Y2.225
X3.46Y2.46
X3.46Y3.23
X3.47Y3.
X3.49Y1.29
X3.495Y1.955
X3.5Y1.34
X3.5Y2.29
X3.5Y3.43
X3.51Y3.
X3.52Y2.26
X3.53Y3.15
X3.54Y2.19
X3.55Y2.99
X3.56Y1.49
X3.56Y1.995
X3.56Y2.16
X3.57Y3.15
X3.58Y2.825
X3.59Y2.99
X3.595Y1.89
X3.6Y2.15
X3.6Y2.19
X3.6Y2.51
X3.605Y1.95
X3.61Y1.44
X3.62Y1.33
X3.62Y2.74
X3.63Y1.69
X3.63Y2.2
X3.63Y2.43
X3.635Y1.845
X3.64Y2.39
X3.64Y2.47
X3.64Y3.34
X3.645Y3.135
X3.65Y2.23
X3.65Y2.58
X3.66Y2.51
X3.665Y1.67
X3.67Y2.16
X3.67Y2.2
X3.67Y2.55
X3.67Y2.67
X3.67Y2.78
X3.67Y2.82
X3.67Y3.21
X3.675Y1.845
X3.69Y2.38
X3.69Y3.11
X3.7Y1.78
X3.71Y1.31
X3.71Y1.95
X3.72Y1.845
X3.72Y2.89
X3.74Y1.48
X3.75Y1.96
X3.75Y2.
X3.76Y2.07
X3.76Y2.13
X3.77Y3.24
X3.8Y2.79
X3.8Y2.83
X3.8Y3.01
X3.8Y3.22
X3.81Y2.48
X3.81Y2.52
X3.81Y2.69
X3.82Y2.6
X3.825Y2.035
X3.825Y2.5625
X3.84Y2.095
X3.84Y2.18
X3.84Y2.97
X3.84Y3.33
X3.85Y1.93
X3.85Y2.48
X3.86Y2.6
X3.86Y2.95
X3.86Y3.21
X3.865Y1.685
X3.88Y1.3
X3.88Y2.54
X3.88Y3.14
X3.885Y2.48
X3.89Y3.1
X3.89Y3.33
X3.9Y2.76
X3.9Y2.8
X3.9Y2.905
X3.92Y2.48
X3.94Y3.41
X3.945Y3.46
X3.97Y1.27
X3.99Y1.31
X3.99Y1.68
X4.02Y2.56
X4.02Y2.76
X4.03Y2.91
X4.03Y3.25
X4.04Y2.62
X4.05Y1.86
X4.05Y1.92
X4.05Y2.81
X4.05Y2.94
X4.05Y3.035
X4.05Y3.085
X4.05Y3.22
X4.06Y1.76
X4.06Y2.56
X4.08Y1.45
X4.09Y3.08
X4.09Y3.39
X4.095Y3.035
X4.1Y2.245
X4.1Y2.46
X4.11Y1.31
X4.13Y1.66
X4.13Y3.12
X4.15Y2.285
X4.16Y2.01
X4.16Y2.57
X4.16Y3.29
X4.17Y1.43
X4.17Y3.5
X4.18Y2.48
X4.195Y2.75
X4.2Y2.86
X4.21Y2.9
X4.22Y3.53
X4.23Y1.26
X4.23Y3.21
X4.235Y2.8675
X4.25Y2.15
X4.25Y2.19
X4.25Y2.25
X4.25Y2.985
X4.25Y3.3
X4.27Y2.77
X4.27Y2.81
X4.27Y3.2
X4.28Y2.07
X4.29Y1.26
X4.29Y2.985
X4.3Y2.5
X4.3Y2.54
X4.3Y2.58
X4.33Y2.985
X4.34Y3.02
X4.34Y3.13
X4.34Y3.52
X4.35Y1.93
X4.38Y2.51
X4.4Y1.93
X4.4Y2.215
X4.41Y1.25
X4.42Y2.31
X4.42Y2.51
X4.43Y0.83
X4.445Y2.39
X4.45Y1.82
X4.45Y3.41
X4.46Y3.37
X4.46Y3.5
X4.47Y2.87
X4.47Y2.94
X4.47Y3.21
X4.48Y1.85
X4.48Y3.33
X4.485Y3.25
X4.49Y2.61
X4.49Y3.03
X4.49Y3.06
X4.49Y3.1
X4.49Y3.29
X4.5Y2.67
X4.5Y2.71
X4.5Y2.75
X4.5Y3.16
X4.51Y2.19
X4.51Y3.21
X4.52Y3.5
X4.53Y2.99
X4.54Y2.8
X4.545Y2.145
X4.55Y1.06
X4.55Y1.48
X4.55Y1.57
X4.55Y1.79
X4.55Y2.07
X4.55Y2.56
X4.58Y1.39
X4.58Y2.7
X4.58Y2.99
X4.59Y2.8
X4.595Y2.325
X4.595Y3.37
X4.6Y2.02
X4.6Y2.26
X4.61Y3.25
X4.61Y3.31
X4.62Y1.8
X4.62Y2.71
X4.63Y0.87
X4.63Y2.91
X4.64Y2.57
X4.64Y2.87
X4.655Y2.125
X4.655Y2.185
X4.66Y3.
X4.67Y3.05
X4.67Y3.15
X4.68Y2.155
X4.68Y2.59
X4.68Y2.71
X4.6991Y0.9491
X4.7Y1.03
X4.71Y2.125
X4.71Y2.185
X4.71Y3.15
X4.72Y0.78
X4.72Y0.83
X4.72Y2.78
X4.74Y1.73
X4.74Y1.77
X4.74Y3.05
X4.75Y3.31
X4.76Y0.75
X4.76Y1.7
X4.76Y2.56
X4.76Y2.82
X4.76Y3.475
X4.77Y2.72
X4.79Y1.53
X4.79Y1.68
X4.8Y2.81
X4.83Y1.68
X4.83Y2.4
X4.84Y1.91
X4.84Y2.
X4.84Y2.35
X4.84Y3.32
X4.85Y1.96
X4.87Y1.53
X4.87Y1.68
X4.87Y2.71
X4.88Y2.405
X4.91Y2.67
X4.91Y3.52
X4.94Y2.96
X4.94Y3.14
X4.95Y1.53
X4.97Y1.07
X4.97Y2.36
X4.99Y2.54
X5.01Y2.36
X5.02Y3.195
X5.03Y1.08
X5.03Y1.52
X5.03Y2.03
X5.03Y2.86
X5.05Y2.54
X5.05Y2.77
X5.06Y2.39
X5.07Y2.15
X5.08Y1.89
X5.11Y2.63
X5.11Y2.67
X5.15Y2.57
X5.15Y3.06
X5.2Y1.43
X5.21Y1.12
X5.21Y3.18
X5.25Y2.16
X5.25Y2.25
X5.28Y0.87
X5.29Y1.85
X5.3Y1.33
X5.34Y1.66
X5.5Y0.79
X5.5Y1.83
X5.53Y1.76
X5.6Y0.86
X5.68Y1.87
T2
X5.14Y1.655
X5.14Y1.755
X5.14Y1.855
X5.14Y1.955
X5.24Y1.705
X5.24Y1.805
X5.24Y1.905
X5.24Y2.005
T3
X3.0783Y1.1617
X3.0783Y1.4617
X3.0783Y1.6617
X3.0783Y1.8617
X3.3783Y1.1617
X3.3783Y1.4617
X3.3783Y1.6617
X3.3783Y1.8617
X3.5025Y1.1617
X3.5025Y1.4617
X3.5025Y1.6617
X3.5025Y1.8617
X3.8025Y1.1617
X3.8025Y1.4617
X3.8025Y1.6617
X3.8025Y1.8617
X3.93Y1.16
X3.93Y1.46
X3.93Y1.66
X3.93Y1.86
X4.23Y1.16
X4.23Y1.46
X4.23Y1.66
X4.23Y1.86
X4.35Y1.16
X4.35Y1.46
X4.35Y1.66
X4.35Y1.86
X4.65Y1.16
X4.65Y1.46
X4.65Y1.66
X4.65Y1.86
T4
X1.12Y1.95
X1.12Y2.05
X1.22Y1.95
X1.22Y2.05
X1.32Y1.95
X1.32Y2.05
X1.42Y1.55
X1.42Y1.65
X1.42Y1.95
X1.42Y2.05
X1.52Y1.55
X1.52Y1.65
X1.52Y1.75
X1.52Y1.85
X1.52Y1.95
X1.52Y2.05
X1.62Y1.55
X1.62Y1.65
X1.62Y1.75
X1.62Y1.85
X1.62Y1.95
X1.62Y2.05
X1.72Y1.55
X1.72Y1.65
X1.72Y1.75
X1.72Y1.85
X1.72Y1.95
X1.72Y2.05
X1.82Y1.55
X1.82Y1.65
X1.82Y1.75
X1.82Y1.85
X1.82Y1.95
X1.82Y2.05
X1.92Y1.55
X1.92Y1.65
X1.92Y1.95
X1.92Y2.05
X2.02Y1.55
X2.02Y1.65
X2.02Y1.95
X2.02Y2.05
X2.12Y1.55
X2.12Y1.65
X2.12Y1.95
X2.12Y2.05
X2.22Y1.55
X2.22Y1.65
X2.22Y1.95
X2.22Y2.05
X2.32Y1.55
X2.32Y1.65
X2.32Y1.95
X2.32Y2.05
X2.42Y1.95
X2.42Y2.05
X2.52Y1.95
X2.52Y2.05
X3.615Y0.92
X3.615Y1.02
X3.715Y0.92
X3.715Y1.02
X3.815Y0.92
X3.815Y1.02
X3.915Y0.92
X3.915Y1.02
X4.015Y0.92
X4.015Y1.02
X4.02Y1.97
X4.02Y2.07
X4.115Y0.92
X4.115Y1.02
X4.12Y1.97
X4.12Y2.07
X4.22Y1.97
X4.22Y2.07
X5.52Y2.625
X5.52Y2.735
X5.52Y2.84
X5.52Y2.95
X5.52Y3.06
X5.62Y2.68
X5.62Y2.79
X5.62Y2.895
X5.62Y3.005
X5.623Y1.581
X5.623Y1.979
X5.683Y1.681
X5.683Y2.079
T5
X1.275Y0.65
X1.275Y3.65
X1.475Y0.65
X1.475Y3.65
X1.675Y0.65
X1.675Y3.65
X1.875Y0.65
X1.875Y3.65
X2.075Y0.65
X2.075Y3.65
X2.275Y0.65
X2.275Y3.65
X2.475Y0.65
X2.475Y3.65
X2.675Y0.65
X2.675Y3.65
X2.875Y0.65
X2.875Y3.65
X3.075Y0.65
X3.075Y3.65
X3.275Y0.65
X3.275Y3.65
X3.475Y0.65
X3.475Y3.65
X3.675Y0.65
X3.675Y3.65
X3.875Y0.65
X3.875Y3.65
X4.075Y0.65
X4.075Y3.65
X4.275Y0.65
X4.275Y3.65
X4.475Y0.65
X4.475Y3.65
X4.675Y0.65
X4.675Y3.65
X4.875Y0.65
X4.875Y3.65
X5.075Y0.65
X5.075Y3.65
T6
X5.37Y1.52
X5.37Y2.14
T7
X4.9504Y0.9146
X5.7496Y1.2054
T8
X2.07Y1.8
T9
X0.6693Y0.689
X0.6693Y3.6122
X1.04Y3.3
X5.35Y2.44
X5.62Y2.345
X5.62Y3.345
X5.6791Y0.689
X5.6791Y3.6122
T10
X5.49Y1.605
X5.49Y2.055
T0
M30
