M48
;DRILL file {Pcbnew (2013-07-07 BZR 4022)-stable} date Mon 16 Feb 2015 05:06:03 PM ART
;FORMAT={-:-/ absolute / inch / decimal}
FMAT,2
INCH,TZ
T1C0.010
T2C0.035
T3C0.039
T4C0.040
T5C0.060
T6C0.062
T7C0.079
T8C0.098
T9C0.120
T10C0.128
T11C0.157
%
G90
G05
M72
T1
X0.89Y-2.61
X0.89Y-2.69
X0.9Y-2.48
X0.91Y-3.34
X0.91Y-3.53
X1.11Y-3.16
X1.11Y-3.195
X1.16Y-2.89
X1.2038Y-3.06
X1.2238Y-3.52
X1.24Y-2.76
X1.2938Y-3.27
X1.3Y-1.25
X1.3038Y-2.96
X1.34Y-2.53
X1.38Y-1.21
X1.38Y-1.33
X1.43Y-2.25
X1.44Y-1.99
X1.44Y-2.35
X1.45Y-2.7
X1.45Y-2.925
X1.4538Y-1.85
X1.47Y-1.66
X1.4738Y-1.53
X1.4738Y-3.31
X1.48Y-1.74
X1.4838Y-1.195
X1.4938Y-2.03
X1.5138Y-1.85
X1.5338Y-2.03
X1.5338Y-3.32
X1.55Y-2.61
X1.5538Y-2.86
X1.5638Y-1.25
X1.5638Y-1.43
X1.5938Y-0.87
X1.5938Y-1.72
X1.6238Y-1.985
X1.6338Y-1.68
X1.6338Y-2.86
X1.6538Y-2.43
X1.6638Y-1.07
X1.6638Y-2.04
X1.6638Y-2.39
X1.6638Y-2.48
X1.67Y-3.57
X1.6738Y-1.99
X1.7038Y-1.58
X1.7138Y-2.71
X1.7138Y-2.86
X1.72Y-3.56
X1.7338Y-1.67
X1.7438Y-0.915
X1.7438Y-1.83
X1.7438Y-2.69
X1.7538Y-1.08
X1.7638Y-1.34
X1.7638Y-2.62
X1.7638Y-2.66
X1.77Y-3.55
X1.7838Y-1.61
X1.7888Y-1.245
X1.7938Y-2.205
X1.7938Y-2.265
X1.8038Y-3.36
X1.8047Y-3.4409
X1.8238Y-1.25
X1.8238Y-1.68
X1.8238Y-1.8
X1.8238Y-2.235
X1.8338Y-1.34
X1.8438Y-1.39
X1.8488Y-2.205
X1.8488Y-2.265
X1.8638Y-1.52
X1.8638Y-1.82
X1.8738Y-3.52
X1.8838Y-1.68
X1.8838Y-2.59
X1.8938Y-1.08
X1.8938Y-1.14
X1.9038Y-2.13
X1.9038Y-2.37
X1.9088Y-2.065
X1.9094Y-1.0236
X1.9138Y-1.59
X1.9238Y-1.4
X1.9238Y-1.69
X1.9238Y-3.
X1.9538Y-1.83
X1.9538Y-2.325
X1.9538Y-2.6
X1.9538Y-2.82
X1.9538Y-2.91
X1.9538Y-3.33
X1.9592Y-2.2454
X1.9638Y-1.59
X1.9738Y-1.4
X1.9838Y-0.89
X1.9938Y-1.18
X1.9938Y-2.205
X2.0038Y-1.23
X2.0038Y-1.64
X2.0038Y-1.68
X2.0038Y-1.72
X2.0138Y-1.1
X2.0138Y-1.33
X2.0138Y-1.78
X2.0188Y-1.14
X2.0188Y-1.37
X2.0238Y-1.06
X2.0238Y-2.54
X2.0288Y-1.52
X2.0338Y-1.18
X2.0338Y-1.45
X2.0438Y-0.89
X2.0438Y-1.02
X2.0538Y-0.98
X2.0538Y-2.57
X2.0588Y-2.
X2.07Y-2.17
X2.0738Y-3.56
X2.0838Y-1.88
X2.0838Y-2.08
X2.0938Y-3.14
X2.1038Y-2.17
X2.1038Y-2.46
X2.1238Y-1.88
X2.1538Y-2.46
X2.1575Y-0.8701
X2.1638Y-1.26
X2.1638Y-1.37
X2.165Y-1.44
X2.1738Y-1.405
X2.2038Y-1.81
X2.2038Y-1.85
X2.2038Y-1.89
X2.2138Y-1.405
X2.2138Y-3.13
X2.2238Y-2.32
X2.2338Y-1.19
X2.2338Y-1.58
X2.2338Y-1.62
X2.2538Y-1.09
X2.2538Y-1.405
X2.2538Y-2.14
X2.2538Y-2.2
X2.2538Y-2.24
X2.2688Y-1.5225
X2.2738Y-3.13
X2.2838Y-0.86
X2.2938Y-1.49
X2.3038Y-1.53
X2.3088Y-1.64
X2.3238Y-1.91
X2.3338Y-0.89
X2.3338Y-2.96
X2.3438Y-1.1
X2.3438Y-1.82
X2.3438Y-2.38
X2.35Y-1.94
X2.3738Y-1.27
X2.3738Y-2.73
X2.38Y-1.97
X2.3938Y-3.08
X2.4088Y-1.35
X2.41Y-2.
X2.4138Y-1.
X2.4138Y-1.31
X2.4238Y-2.94
X2.4388Y-2.63
X2.4438Y-1.83
X2.4488Y-2.53
X2.45Y-2.03
X2.4538Y-1.17
X2.4538Y-1.295
X2.4538Y-1.35
X2.4538Y-1.58
X2.4538Y-2.47
X2.46Y-1.435
X2.4638Y-1.77
X2.4738Y-1.14
X2.4838Y-1.63
X2.4838Y-1.83
X2.485Y-1.48
X2.5138Y-2.71
X2.5138Y-3.08
X2.5338Y-3.12
X2.5588Y-0.925
X2.5638Y-0.98
X2.5838Y-1.91
X2.595Y-1.41
X2.595Y-1.47
X2.6038Y-1.59
X2.6038Y-1.63
X2.6138Y-1.06
X2.6138Y-1.29
X2.615Y-1.25
X2.6188Y-1.91
X2.62Y-1.435
X2.6238Y-1.85
X2.6238Y-3.09
X2.6388Y-2.705
X2.6438Y-1.79
X2.645Y-1.17
X2.645Y-1.41
X2.6538Y-1.91
X2.6538Y-2.46
X2.6588Y-2.215
X2.6638Y-1.06
X2.6638Y-2.295
X2.6788Y-1.8275
X2.6788Y-2.355
X2.6838Y-1.79
X2.6938Y-1.7
X2.6938Y-1.87
X2.6938Y-1.91
X2.7038Y-1.17
X2.7038Y-1.56
X2.7038Y-1.6
X2.7338Y-1.15
X2.7438Y-2.26
X2.7438Y-2.32
X2.7475Y-1.5075
X2.7538Y-2.39
X2.7538Y-2.43
X2.755Y-1.265
X2.7638Y-2.91
X2.78Y-1.235
X2.7838Y-1.5
X2.7838Y-2.545
X2.7938Y-2.44
X2.7938Y-3.08
X2.8038Y-2.61
X2.8125Y-1.9975
X2.8138Y-1.28
X2.82Y-1.195
X2.8288Y-2.545
X2.8338Y-1.61
X2.8338Y-1.72
X2.8338Y-1.84
X2.8338Y-2.19
X2.8338Y-2.23
X2.835Y-0.91
X2.8375Y-2.0225
X2.8438Y-1.88
X2.8475Y-1.5775
X2.85Y-1.395
X2.8538Y-1.81
X2.8538Y-2.16
X2.855Y-1.195
X2.8563Y-1.2575
X2.86Y-2.72
X2.8625Y-1.9975
X2.8625Y-2.3925
X2.8638Y-1.05
X2.8638Y-1.92
X2.8688Y-2.545
X2.8738Y-1.96
X2.8738Y-2.19
X2.88Y-2.685
X2.8838Y-1.65
X2.8838Y-3.06
X2.8938Y-2.95
X2.8988Y-2.44
X2.9038Y-1.88
X2.9038Y-2.205
X2.9038Y-2.24
X2.9088Y-2.5
X2.915Y-1.24
X2.9238Y-1.565
X2.9425Y-2.2475
X2.9438Y-2.395
X2.9438Y-2.9
X2.9538Y-1.4
X2.9638Y-2.2
X2.98Y-1.145
X2.9838Y-2.13
X2.9988Y-1.395
X3.0038Y-2.1
X3.0038Y-3.05
X3.0088Y-2.435
X3.0138Y-3.1
X3.0338Y-1.395
X3.04Y-0.91
X3.0438Y-1.93
X3.0438Y-2.165
X3.0438Y-2.21
X3.0438Y-2.635
X3.0488Y-2.395
X3.07Y-1.24
X3.0738Y-1.395
X3.0738Y-1.66
X3.0838Y-2.11
X3.1038Y-2.42
X3.1138Y-1.395
X3.1138Y-2.36
X3.1238Y-1.66
X3.1238Y-1.72
X3.13Y-1.14
X3.1438Y-2.67
X3.1488Y-1.975
X3.1538Y-1.395
X3.1738Y-2.6
X3.18Y-3.555
X3.1838Y-2.2
X3.1838Y-3.1
X3.1938Y-1.975
X3.1938Y-2.04
X3.1938Y-2.42
X3.2038Y-1.67
X3.22Y-1.24
X3.2225Y-2.3925
X3.2238Y-2.49
X3.2275Y-2.2425
X3.23Y-2.975
X3.2338Y-1.4
X3.235Y-0.915
X3.2438Y-1.67
X3.2438Y-1.77
X3.2438Y-1.98
X3.2538Y-1.88
X3.2538Y-2.84
X3.2575Y-2.3575
X3.2638Y-2.65
X3.2638Y-3.01
X3.2738Y-1.82
X3.2738Y-2.56
X3.28Y-1.14
X3.2838Y-1.67
X3.2838Y-2.18
X3.285Y-2.44
X3.3025Y-1.9525
X3.3025Y-2.8425
X3.3038Y-2.045
X3.3138Y-1.83
X3.3138Y-1.87
X3.3238Y-1.67
X3.3238Y-2.16
X3.33Y-2.46
X3.3588Y-1.52
X3.365Y-1.24
X3.3688Y-1.395
X3.38Y-2.39
X3.3938Y-1.71
X3.4038Y-1.67
X3.4188Y-1.525
X3.4238Y-1.73
X3.4238Y-2.16
X3.4275Y-2.0175
X3.43Y-0.915
X3.43Y-1.14
X3.4338Y-1.38
X3.435Y-3.39
X3.435Y-3.49
X3.4438Y-2.24
X3.4438Y-2.66
X3.4638Y-2.18
X3.4738Y-1.38
X3.4788Y-2.63
X3.4838Y-1.82
X3.4838Y-2.02
X3.4938Y-1.52
X3.5038Y-1.685
X3.5038Y-2.24
X3.5038Y-2.47
X3.5138Y-1.74
X3.52Y-1.24
X3.5238Y-2.02
X3.5238Y-2.58
X3.5338Y-1.94
X3.5338Y-2.115
X3.5438Y-1.38
X3.55Y-2.93
X3.5538Y-1.91
X3.5538Y-2.32
X3.5638Y-2.59
X3.565Y-1.145
X3.6025Y-3.1425
X3.6038Y-2.28
X3.61Y-3.27
X3.6138Y-2.7
X3.6338Y-2.66
X3.64Y-1.32
X3.645Y-1.09
X3.645Y-1.15
X3.645Y-1.2
X3.645Y-1.24
X3.6488Y-1.49
X3.6638Y-1.76
X3.6738Y-1.91
X3.6738Y-2.27
X3.6838Y-2.59
X3.685Y-2.895
X3.685Y-2.935
X3.6988Y-1.55
X3.7025Y-2.7825
X3.7038Y-1.76
X3.7038Y-2.16
X3.7038Y-2.42
X3.7038Y-2.55
X3.7188Y-1.605
X3.7238Y-2.06
X3.7238Y-2.1
X3.7238Y-2.59
X3.7238Y-2.66
X3.7338Y-2.14
X3.7338Y-2.18
X3.7338Y-2.22
X3.7338Y-2.26
X3.735Y-1.54
X3.7438Y-2.56
X3.7525Y-2.8175
X3.7638Y-1.89
X3.7738Y-2.37
X3.7738Y-2.41
X3.7738Y-2.76
X3.775Y-1.5
X3.78Y-1.145
X3.785Y-1.05
X3.7888Y-1.005
X3.7938Y-2.62
X3.7988Y-1.355
X3.805Y-1.24
X3.8138Y-2.18
X3.815Y-2.685
X3.82Y-2.925
X3.835Y-3.145
X3.8388Y-1.355
X3.8438Y-1.91
X3.86Y-3.33
X3.87Y-1.145
X3.8838Y-1.76
X3.8938Y-1.9
X3.8938Y-1.97
X3.9Y-2.93
X3.925Y-1.32
X3.9538Y-2.39
X3.9575Y-2.0325
X3.9575Y-2.0725
X3.9588Y-2.295
X3.97Y-1.525
X3.97Y-1.56
X3.9725Y-2.1275
X3.9738Y-2.59
X3.9738Y-2.63
X3.9838Y-2.71
X4.01Y-0.895
X4.01Y-3.26
X4.0125Y-1.8075
X4.035Y-2.825
X4.035Y-2.93
X4.0375Y-2.8725
X4.06Y-3.145
X4.0638Y-2.08
X4.07Y-1.185
X4.07Y-2.27
X4.0738Y-1.05
X4.075Y-1.14
X4.09Y-1.35
X4.0938Y-2.1
X4.095Y-1.25
X4.0975Y-2.8725
X4.1038Y-1.94
X4.1138Y-2.65
X4.1138Y-2.69
X4.14Y-1.355
X4.1425Y-2.5675
X4.15Y-3.145
X4.1625Y-2.2975
X4.165Y-2.945
X4.17Y-1.115
X4.1925Y-1.9625
X4.2025Y-1.4075
X4.2088Y-1.845
X4.21Y-1.375
X4.2325Y-1.9625
X4.2425Y-2.1025
X4.245Y-2.88
X4.2475Y-2.6525
X4.2525Y-1.8625
X4.26Y-3.33
X4.2775Y-2.7675
X4.2838Y-2.1
X4.315Y-3.14
X4.3238Y-2.1
X4.3438Y-1.55
X4.3438Y-1.68
X4.3638Y-2.1
X4.3925Y-2.8825
X4.3938Y-1.3
X4.3938Y-2.12
X4.4038Y-1.54
X4.41Y-3.26
X4.4238Y-2.1
X4.425Y-0.865
X4.425Y-1.025
X4.4325Y-2.8825
X4.445Y-2.925
X4.4475Y-2.5825
X4.455Y-1.17
X4.4638Y-1.8
X4.4725Y-2.8825
X4.4738Y-1.68
X4.475Y-1.1
X4.4788Y-1.97
X4.4938Y-2.03
X4.5125Y-2.8825
X4.5575Y-2.7425
X4.5738Y-1.61
X4.5738Y-1.65
X4.5838Y-1.46
X4.5838Y-2.01
X4.5838Y-2.045
X4.6138Y-1.62
X4.6238Y-1.66
X4.6238Y-1.72
X4.65Y-0.93
X4.65Y-3.33
X4.6538Y-1.44
X4.6538Y-1.83
X4.6625Y-2.8425
X4.6638Y-1.29
X4.6838Y-1.85
X4.7138Y-1.54
X4.7238Y-1.85
X4.7438Y-1.99
X4.7538Y-1.87
X4.7738Y-1.84
X4.7738Y-2.14
X4.7788Y-1.66
X4.7788Y-1.72
X4.81Y-3.26
X4.8138Y-1.825
X4.8238Y-1.55
X4.8238Y-1.76
X4.8438Y-1.95
X4.8538Y-1.825
X4.8638Y-1.55
X4.8638Y-1.76
X4.8838Y-1.32
X4.8838Y-1.37
X4.8838Y-1.95
X4.8938Y-2.12
X4.9038Y-1.66
X4.9038Y-1.89
X4.9138Y-1.83
X4.9238Y-1.97
X4.9338Y-1.55
X4.9338Y-1.76
X4.9438Y-1.89
X5.0038Y-3.22
X5.0438Y-3.22
X5.0538Y-2.11
X5.06Y-3.33
X5.08Y-1.52
X5.0838Y-1.85
X5.0938Y-1.58
X5.0938Y-1.63
X5.0975Y-2.0125
X5.1038Y-1.97
X5.1775Y-1.4825
X5.2038Y-2.14
X5.2125Y-1.4725
X5.2238Y-1.9
X5.2438Y-2.14
X5.245Y-0.98
X5.29Y-2.495
X5.3225Y-1.3575
X5.35Y-2.715
X5.3738Y-1.78
X5.3738Y-2.05
X5.3738Y-2.09
X5.3838Y-1.4
X5.39Y-2.475
X5.4425Y-3.3325
X5.4425Y-3.3725
X5.4425Y-3.4125
X5.4538Y-2.1
X5.4538Y-3.04
X5.4538Y-3.07
X5.4738Y-2.66
X5.4738Y-2.71
X5.505Y-2.525
X5.505Y-2.59
X5.5075Y-3.6075
X5.5238Y-2.66
X5.5238Y-2.71
X5.5438Y-2.85
X5.5438Y-2.89
X5.5538Y-1.54
X5.5538Y-1.59
X5.5538Y-1.64
X5.5625Y-3.6075
X5.7238Y-1.69
X5.7238Y-1.73
X5.7238Y-3.62
X5.7238Y-3.66
X5.7438Y-3.18
X5.7438Y-3.22
X5.7538Y-1.64
X5.7538Y-2.01
X5.7538Y-2.08
X5.7538Y-2.35
X5.7638Y-1.06
X5.7638Y-1.18
X5.7638Y-1.38
X5.7638Y-1.52
X5.7638Y-1.83
X5.7638Y-2.26
X5.7738Y-2.79
X5.8238Y-1.96
X5.8238Y-2.79
X5.8238Y-3.18
X5.8238Y-3.22
X5.8638Y-1.96
X5.8738Y-2.79
T2
X1.08Y-2.415
X1.08Y-2.615
X1.08Y-2.715
X1.08Y-2.815
X1.18Y-2.365
X1.18Y-2.465
X1.18Y-2.665
X1.18Y-2.765
X1.28Y-2.415
T3
X1.8538Y-2.53
X1.8538Y-2.73
X1.8538Y-2.93
X1.8538Y-3.23
X2.1538Y-2.53
X2.1538Y-2.73
X2.1538Y-2.93
X2.1538Y-3.23
X2.2738Y-2.53
X2.2738Y-2.73
X2.2738Y-2.93
X2.2738Y-3.23
X2.5738Y-2.53
X2.5738Y-2.73
X2.5738Y-2.93
X2.5738Y-3.23
X2.7013Y-2.5283
X2.7013Y-2.7283
X2.7013Y-2.9283
X2.7013Y-3.2283
X3.0013Y-2.5283
X3.0013Y-2.7283
X3.0013Y-2.9283
X3.0013Y-3.2283
X3.1254Y-2.5283
X3.1254Y-2.7283
X3.1254Y-2.9283
X3.1254Y-3.2283
X3.4254Y-2.5283
X3.4254Y-2.7283
X3.4254Y-2.9283
X3.4254Y-3.2283
T4
X0.8838Y-1.385
X0.8838Y-1.495
X0.8838Y-1.6
X0.8838Y-1.71
X0.9838Y-1.33
X0.9838Y-1.44
X0.9838Y-1.55
X0.9838Y-1.655
X0.9838Y-1.765
X1.12Y-2.15
X1.22Y-2.15
X1.25Y-1.45
X1.25Y-1.55
X1.25Y-1.65
X1.25Y-1.75
X1.33Y-1.87
X1.33Y-1.97
X1.35Y-1.45
X1.35Y-1.55
X1.35Y-1.65
X1.35Y-1.75
X1.37Y-2.365
X1.37Y-2.465
X1.37Y-2.705
X1.37Y-2.805
X2.2838Y-2.32
X2.2838Y-2.42
X2.3838Y-2.32
X2.3838Y-2.42
X2.3888Y-3.37
X2.3888Y-3.47
X2.4838Y-2.32
X2.4838Y-2.42
X2.4888Y-3.37
X2.4888Y-3.47
X2.5888Y-3.37
X2.5888Y-3.47
X2.6888Y-3.37
X2.6888Y-3.47
X2.7888Y-3.37
X2.7888Y-3.47
X2.8888Y-3.37
X2.8888Y-3.47
X4.05Y-2.35
X4.05Y-2.45
X4.15Y-2.35
X4.15Y-2.45
X4.25Y-2.35
X4.25Y-2.45
X4.35Y-2.35
X4.35Y-2.45
X4.45Y-2.35
X4.45Y-2.45
X4.55Y-2.35
X4.55Y-2.45
X4.65Y-2.35
X4.65Y-2.45
X4.725Y-0.97
X4.725Y-1.07
X4.725Y-1.17
X4.75Y-2.35
X4.75Y-2.45
X4.75Y-2.65
X4.75Y-2.75
X4.825Y-0.97
X4.825Y-1.07
X4.825Y-1.17
X4.85Y-2.35
X4.85Y-2.45
X4.85Y-2.65
X4.85Y-2.75
X4.95Y-2.35
X4.95Y-2.45
X4.95Y-2.65
X4.95Y-2.75
X5.05Y-2.35
X5.05Y-2.45
X5.05Y-2.65
X5.05Y-2.75
X5.15Y-2.35
X5.15Y-2.45
T5
X1.4288Y-0.74
X1.4288Y-3.74
X1.6288Y-0.74
X1.6288Y-3.74
X1.8288Y-0.74
X1.8288Y-3.74
X2.0288Y-0.74
X2.0288Y-3.74
X2.2288Y-0.74
X2.2288Y-3.74
X2.4288Y-0.74
X2.4288Y-3.74
X2.6288Y-0.74
X2.6288Y-3.74
X2.8288Y-0.74
X2.8288Y-3.74
X3.0288Y-0.74
X3.0288Y-3.74
X3.2288Y-0.74
X3.2288Y-3.74
X3.4288Y-0.74
X3.4288Y-3.74
X3.6288Y-0.74
X3.6288Y-3.74
X3.8288Y-0.74
X3.8288Y-3.74
X4.0288Y-0.74
X4.0288Y-3.74
X4.2288Y-0.74
X4.2288Y-3.74
X4.4288Y-0.74
X4.4288Y-3.74
X4.6288Y-0.74
X4.6288Y-3.74
X4.8288Y-0.74
X4.8288Y-3.74
X5.0288Y-0.74
X5.0288Y-3.74
X5.2288Y-0.74
X5.2288Y-3.74
T6
X0.95Y-2.285
X0.95Y-2.895
T7
X0.7542Y-3.1846
X1.5533Y-3.4754
T8
X4.3538Y-2.72
T9
X0.8838Y-1.045
X0.8838Y-2.045
T10
X0.83Y-2.365
X0.83Y-2.815
T11
X0.8246Y-0.7384
X0.8246Y-3.7404
X1.1538Y-1.95
X5.4638Y-1.09
X5.8345Y-0.7384
X5.8345Y-3.7404
T0
M30
