G04 (created by PCBNEW (2013-07-07 BZR 4022)-stable) date Mon 16 Feb 2015 05:06:00 PM ART*
%MOIN*%
G04 Gerber Fmt 3.4, Leading zero omitted, Abs format*
%FSLAX34Y34*%
G01*
G70*
G90*
G04 APERTURE LIST*
%ADD10C,0.00590551*%
%ADD11R,0.0984X0.0984*%
%ADD12O,0.0098X0.0315*%
%ADD13O,0.0315X0.0098*%
%ADD14R,0.015X0.05*%
%ADD15R,0.0165X0.0579*%
%ADD16R,0.063X0.017*%
%ADD17R,0.0177165X0.0177165*%
%ADD18R,0.0237X0.0355*%
%ADD19R,0.144X0.08*%
%ADD20R,0.04X0.08*%
%ADD21R,0.0472X0.0394*%
%ADD22R,0.0315X0.0394*%
%ADD23R,0.0531X0.0256*%
%ADD24R,0.05X0.1*%
%ADD25R,0.045X0.025*%
%ADD26R,0.025X0.045*%
%ADD27R,0.0826772X0.0551181*%
%ADD28R,0.063X0.063*%
%ADD29C,0.063*%
%ADD30R,0.06X0.06*%
%ADD31C,0.06*%
%ADD32R,0.0591X0.01*%
%ADD33R,0.01X0.0591*%
%ADD34R,0.0314X0.0314*%
%ADD35R,0.05X0.038*%
%ADD36R,0.038X0.05*%
%ADD37C,0.0708*%
%ADD38R,0.0472441X0.0551181*%
%ADD39R,0.0354X0.0394*%
%ADD40R,0.0394X0.0354*%
%ADD41R,0.1X0.1*%
%ADD42C,0.1*%
%ADD43C,0.102362*%
%ADD44R,0.0669291X0.0590551*%
%ADD45R,0.0866X0.0236*%
%ADD46R,0.0394X0.0276*%
%ADD47R,0.0276X0.0394*%
%ADD48R,0.0315X0.038*%
%ADD49R,0.0236X0.0866*%
%ADD50R,0.059X0.0393*%
%ADD51R,0.0787X0.0393*%
%ADD52R,0.1456X0.0866*%
%ADD53O,0.059X0.0393*%
%ADD54R,0.0393X0.0551*%
%ADD55C,0.177165*%
%ADD56R,0.0944882X0.0295276*%
%ADD57R,0.0944882X0.0291339*%
%ADD58C,0.0393701*%
%ADD59R,0.0531X0.0157*%
%ADD60R,0.0591X0.0827*%
%ADD61R,0.0748X0.0945*%
%ADD62R,0.0748X0.0709*%
%ADD63C,0.15*%
%ADD64C,0.11811*%
%ADD65R,0.071X0.063*%
%ADD66R,0.063X0.071*%
%ADD67R,0.0590551X0.125984*%
%ADD68R,0.0945X0.1575*%
%ADD69R,0.0708X0.0866*%
%ADD70R,0.0866X0.0708*%
%ADD71R,0.08X0.06*%
%ADD72C,0.055*%
%ADD73C,0.082*%
%ADD74R,0.15X0.08*%
%ADD75R,0.055X0.08*%
%ADD76R,0.1378X0.0945*%
%ADD77R,0.137795X0.401575*%
%ADD78R,0.125984X0.0590551*%
%ADD79R,0.0944X0.0944*%
%ADD80C,0.025*%
%ADD81C,0.01*%
%ADD82C,0.03*%
%ADD83C,0.02*%
%ADD84C,0.015*%
G04 APERTURE END LIST*
G54D10*
G54D11*
X18237Y-22350D03*
G54D12*
X17745Y-23137D03*
X17942Y-23137D03*
X18139Y-23137D03*
X18335Y-23137D03*
X18532Y-23137D03*
X18729Y-23137D03*
G54D13*
X19024Y-22842D03*
X19024Y-22645D03*
X19024Y-22448D03*
X19024Y-22252D03*
X19024Y-22055D03*
X19024Y-21858D03*
G54D12*
X18729Y-21563D03*
X18532Y-21563D03*
X18335Y-21563D03*
X18139Y-21563D03*
X17942Y-21563D03*
X17745Y-21563D03*
G54D13*
X17450Y-21858D03*
X17450Y-22055D03*
X17450Y-22252D03*
X17450Y-22448D03*
X17450Y-22645D03*
X17450Y-22842D03*
G54D14*
X18283Y-15148D03*
X18027Y-15148D03*
X17771Y-15148D03*
X17515Y-15148D03*
X17259Y-15148D03*
X17003Y-15148D03*
X16747Y-15148D03*
X16491Y-15148D03*
X16491Y-17352D03*
X16747Y-17352D03*
X17003Y-17352D03*
X17259Y-17352D03*
X17515Y-17352D03*
X17771Y-17352D03*
X18027Y-17352D03*
X18283Y-17352D03*
G54D15*
X43265Y-17948D03*
X43009Y-17948D03*
X42753Y-17948D03*
X42497Y-17948D03*
X44029Y-20150D03*
X44033Y-17948D03*
X43777Y-17948D03*
X43521Y-17948D03*
X42241Y-20152D03*
X42497Y-20152D03*
X42753Y-20152D03*
X43009Y-20152D03*
X43265Y-20152D03*
X43521Y-20152D03*
X42241Y-17948D03*
X43777Y-20150D03*
X44289Y-17948D03*
X41985Y-17948D03*
X41985Y-20152D03*
X44289Y-20152D03*
G54D16*
X20982Y-10257D03*
X20982Y-10572D03*
X20982Y-10887D03*
X20982Y-11202D03*
X20982Y-11517D03*
X20982Y-11832D03*
X20982Y-12147D03*
X20982Y-12462D03*
X20982Y-12777D03*
X20982Y-13092D03*
X20982Y-13407D03*
X20982Y-13722D03*
X20982Y-14037D03*
X20982Y-14350D03*
X20982Y-14665D03*
X20982Y-14980D03*
X20982Y-15295D03*
X20982Y-15610D03*
X20982Y-15925D03*
X20982Y-16240D03*
X20982Y-16555D03*
X20982Y-16870D03*
X20982Y-17185D03*
X20982Y-17500D03*
X20982Y-17815D03*
X20982Y-18130D03*
X20982Y-18445D03*
X25390Y-18445D03*
X25390Y-18130D03*
X25390Y-17815D03*
X25390Y-17500D03*
X25390Y-17185D03*
X25390Y-16870D03*
X25390Y-16555D03*
X25390Y-16240D03*
X25390Y-15925D03*
X25390Y-15610D03*
X25390Y-15295D03*
X25390Y-14980D03*
X25390Y-14665D03*
X25390Y-14350D03*
X25390Y-14037D03*
X25390Y-13722D03*
X25390Y-13407D03*
X25390Y-13092D03*
X25390Y-12777D03*
X25390Y-12462D03*
X25390Y-12147D03*
X25390Y-11832D03*
X25390Y-11517D03*
X25390Y-11202D03*
X25390Y-10887D03*
X25390Y-10572D03*
X25390Y-10257D03*
G54D17*
X39687Y-21600D03*
X39057Y-21600D03*
X39057Y-21934D03*
X39687Y-21934D03*
G54D18*
X14764Y-18032D03*
X15512Y-18032D03*
X15137Y-16970D03*
G54D19*
X52087Y-18200D03*
G54D20*
X52087Y-20800D03*
X52987Y-20800D03*
X51187Y-20800D03*
G54D21*
X40052Y-17628D03*
G54D22*
X39363Y-18572D03*
X39363Y-17628D03*
X40111Y-18572D03*
G54D23*
X57609Y-23100D03*
X56665Y-23100D03*
X55409Y-18200D03*
X54465Y-18200D03*
X55409Y-17300D03*
X54465Y-17300D03*
G54D24*
X50500Y-12800D03*
X51700Y-12800D03*
X50550Y-11200D03*
X51750Y-11200D03*
G54D25*
X45950Y-10750D03*
X45950Y-11350D03*
G54D26*
X22037Y-20900D03*
X21437Y-20900D03*
G54D25*
X45050Y-10000D03*
X45050Y-9400D03*
G54D26*
X19637Y-24200D03*
X19037Y-24200D03*
G54D25*
X46137Y-13900D03*
X46137Y-13300D03*
X53550Y-27650D03*
X53550Y-28250D03*
G54D26*
X20087Y-20900D03*
X19487Y-20900D03*
G54D25*
X45950Y-10000D03*
X45950Y-9400D03*
X47150Y-13900D03*
X47150Y-13300D03*
G54D26*
X29200Y-11900D03*
X29800Y-11900D03*
G54D25*
X43937Y-15000D03*
X43937Y-14400D03*
X52050Y-27650D03*
X52050Y-28250D03*
X13500Y-21300D03*
X13500Y-20700D03*
X54437Y-28200D03*
X54437Y-28800D03*
X43237Y-14400D03*
X43237Y-15000D03*
G54D26*
X42137Y-15800D03*
X42737Y-15800D03*
G54D25*
X52800Y-27650D03*
X52800Y-28250D03*
X16837Y-18900D03*
X16837Y-19500D03*
G54D26*
X40237Y-27700D03*
X40837Y-27700D03*
X40200Y-25400D03*
X40800Y-25400D03*
X40237Y-26900D03*
X40837Y-26900D03*
X40237Y-26100D03*
X40837Y-26100D03*
G54D25*
X17937Y-10000D03*
X17937Y-9400D03*
G54D26*
X38750Y-14800D03*
X39350Y-14800D03*
G54D25*
X42137Y-16500D03*
X42137Y-17100D03*
X42937Y-16500D03*
X42937Y-17100D03*
X40737Y-19800D03*
X40737Y-20400D03*
X41437Y-19800D03*
X41437Y-20400D03*
X54037Y-20000D03*
X54037Y-19400D03*
G54D26*
X22037Y-21600D03*
X21437Y-21600D03*
G54D25*
X36937Y-19650D03*
X36937Y-20250D03*
G54D26*
X39437Y-16950D03*
X40037Y-16950D03*
X38750Y-15500D03*
X39350Y-15500D03*
X38537Y-22200D03*
X37937Y-22200D03*
G54D25*
X15637Y-9600D03*
X15637Y-10200D03*
G54D26*
X18537Y-10700D03*
X17937Y-10700D03*
X23337Y-9450D03*
X23937Y-9450D03*
G54D25*
X16037Y-23900D03*
X16037Y-24500D03*
G54D26*
X20087Y-19350D03*
X19487Y-19350D03*
G54D25*
X17237Y-20100D03*
X17237Y-20700D03*
G54D26*
X20087Y-20050D03*
X19487Y-20050D03*
X19737Y-9350D03*
X20337Y-9350D03*
G54D25*
X56937Y-16100D03*
X56937Y-15500D03*
X56237Y-17600D03*
X56237Y-18200D03*
X17137Y-9600D03*
X17137Y-10200D03*
G54D26*
X26837Y-9300D03*
X26237Y-9300D03*
G54D25*
X56937Y-20700D03*
X56937Y-20100D03*
G54D26*
X11600Y-12500D03*
X11000Y-12500D03*
X15937Y-15500D03*
X15337Y-15500D03*
G54D25*
X55837Y-22400D03*
X55837Y-23000D03*
G54D26*
X11600Y-13200D03*
X11000Y-13200D03*
X15937Y-16300D03*
X15337Y-16300D03*
G54D25*
X56937Y-13300D03*
X56937Y-13900D03*
G54D26*
X49537Y-16000D03*
X50137Y-16000D03*
G54D25*
X56837Y-10900D03*
X56837Y-11500D03*
G54D26*
X20037Y-10150D03*
X19437Y-10150D03*
G54D25*
X43837Y-15900D03*
X43837Y-16500D03*
G54D26*
X22737Y-9450D03*
X22137Y-9450D03*
G54D27*
X39037Y-26400D03*
X39037Y-27896D03*
X35454Y-27896D03*
X35454Y-26400D03*
G54D28*
X28887Y-33700D03*
G54D29*
X28887Y-34700D03*
X27887Y-33700D03*
X27887Y-34700D03*
X26887Y-33700D03*
X26887Y-34700D03*
X25887Y-33700D03*
X25887Y-34700D03*
X24887Y-33700D03*
X24887Y-34700D03*
X23887Y-33700D03*
X23887Y-34700D03*
G54D30*
X50500Y-26500D03*
G54D31*
X50500Y-27500D03*
X49500Y-26500D03*
X49500Y-27500D03*
X48500Y-26500D03*
X48500Y-27500D03*
X47500Y-26500D03*
X47500Y-27500D03*
G54D28*
X24837Y-23200D03*
G54D29*
X24837Y-24200D03*
X23837Y-23200D03*
X23837Y-24200D03*
X22837Y-23200D03*
X22837Y-24200D03*
G54D30*
X41500Y-23500D03*
G54D31*
X41500Y-24500D03*
X40500Y-23500D03*
X40500Y-24500D03*
G54D32*
X36053Y-22244D03*
X36053Y-22048D03*
X36053Y-21851D03*
X36053Y-21654D03*
X36053Y-21457D03*
X36053Y-21260D03*
X36053Y-21063D03*
X36053Y-20866D03*
X36053Y-20670D03*
X36053Y-20473D03*
X36053Y-20276D03*
X36053Y-20079D03*
X36053Y-19882D03*
X36053Y-19685D03*
X36053Y-19488D03*
X36053Y-19292D03*
X36053Y-19095D03*
X36053Y-18898D03*
X36053Y-18702D03*
X36053Y-18505D03*
X36053Y-18308D03*
X36053Y-18112D03*
X36053Y-17915D03*
X36053Y-17718D03*
X36053Y-17521D03*
X36053Y-17324D03*
X36053Y-17127D03*
X36053Y-16930D03*
X36053Y-16734D03*
X36053Y-16537D03*
X36053Y-16340D03*
X36053Y-16143D03*
X36053Y-15946D03*
X36053Y-15749D03*
X36053Y-15552D03*
X36053Y-15356D03*
G54D33*
X35265Y-14568D03*
X35069Y-14568D03*
X34872Y-14568D03*
X34675Y-14568D03*
X34478Y-14568D03*
X34281Y-14568D03*
X34084Y-14568D03*
X33887Y-14568D03*
X33691Y-14568D03*
X33494Y-14568D03*
X33297Y-14568D03*
X33100Y-14568D03*
X32903Y-14568D03*
X32706Y-14568D03*
X32509Y-14568D03*
X32313Y-14568D03*
X32116Y-14568D03*
X31919Y-14568D03*
X31723Y-14568D03*
X31526Y-14568D03*
X31329Y-14568D03*
X31133Y-14568D03*
X30936Y-14568D03*
X30739Y-14568D03*
X30542Y-14568D03*
X30345Y-14568D03*
X30148Y-14568D03*
X29951Y-14568D03*
X29755Y-14568D03*
X29558Y-14568D03*
X29361Y-14568D03*
X29164Y-14568D03*
X28967Y-14568D03*
X28770Y-14568D03*
X28573Y-14568D03*
X28377Y-14568D03*
G54D32*
X27589Y-15356D03*
X27589Y-15552D03*
X27589Y-15749D03*
X27589Y-15946D03*
X27589Y-16143D03*
X27589Y-16340D03*
X27589Y-16537D03*
X27589Y-16734D03*
X27589Y-16930D03*
X27589Y-17127D03*
X27589Y-17324D03*
X27589Y-17521D03*
X27589Y-17718D03*
X27589Y-17915D03*
X27589Y-18112D03*
X27589Y-18308D03*
X27589Y-18505D03*
X27589Y-18702D03*
X27589Y-18898D03*
X27589Y-19095D03*
X27589Y-19292D03*
X27589Y-19488D03*
X27589Y-19685D03*
X27589Y-19882D03*
X27589Y-20079D03*
X27589Y-20276D03*
X27589Y-20473D03*
X27589Y-20670D03*
X27589Y-20866D03*
X27589Y-21063D03*
X27589Y-21260D03*
X27589Y-21457D03*
X27589Y-21654D03*
X27589Y-21851D03*
X27589Y-22048D03*
X27589Y-22244D03*
G54D33*
X28377Y-23032D03*
X28573Y-23032D03*
X28770Y-23032D03*
X28967Y-23032D03*
X29164Y-23032D03*
X29361Y-23032D03*
X29558Y-23032D03*
X29755Y-23032D03*
X29951Y-23032D03*
X30148Y-23032D03*
X30345Y-23032D03*
X30542Y-23032D03*
X30739Y-23032D03*
X30936Y-23032D03*
X31133Y-23032D03*
X31329Y-23032D03*
X31526Y-23032D03*
X31723Y-23032D03*
X31919Y-23032D03*
X32116Y-23032D03*
X32313Y-23032D03*
X32509Y-23032D03*
X32706Y-23032D03*
X32903Y-23032D03*
X33100Y-23032D03*
X33297Y-23032D03*
X33494Y-23032D03*
X33691Y-23032D03*
X33887Y-23032D03*
X34084Y-23032D03*
X34281Y-23032D03*
X34478Y-23032D03*
X34675Y-23032D03*
X34872Y-23032D03*
X35069Y-23032D03*
X35265Y-23032D03*
G54D34*
X15937Y-28705D03*
X15937Y-29295D03*
X40195Y-12800D03*
X39605Y-12800D03*
X37245Y-12800D03*
X36655Y-12800D03*
X34295Y-12800D03*
X33705Y-12800D03*
X29795Y-12800D03*
X29205Y-12800D03*
X52550Y-25895D03*
X52550Y-25305D03*
X53250Y-25895D03*
X53250Y-25305D03*
X53950Y-25895D03*
X53950Y-25305D03*
X54600Y-25895D03*
X54600Y-25305D03*
X17537Y-28705D03*
X17537Y-29295D03*
X16737Y-28705D03*
X16737Y-29295D03*
X15137Y-28705D03*
X15137Y-29295D03*
X54837Y-19405D03*
X54837Y-19995D03*
G54D35*
X18537Y-20700D03*
X18537Y-20200D03*
X18537Y-19700D03*
G54D36*
X24587Y-9450D03*
X25087Y-9450D03*
G54D35*
X16037Y-19450D03*
X16037Y-18950D03*
X42375Y-15075D03*
X42375Y-14575D03*
X15237Y-19450D03*
X15237Y-18950D03*
G54D37*
X18537Y-25300D03*
X18537Y-27300D03*
X18537Y-29300D03*
X21537Y-25300D03*
X21537Y-27300D03*
X21537Y-29300D03*
X18537Y-32300D03*
X21537Y-32300D03*
X31254Y-25283D03*
X31254Y-27283D03*
X31254Y-29283D03*
X34254Y-25283D03*
X34254Y-27283D03*
X34254Y-29283D03*
X31254Y-32283D03*
X34254Y-32283D03*
X27012Y-25283D03*
X27012Y-27283D03*
X27012Y-29283D03*
X30012Y-25283D03*
X30012Y-27283D03*
X30012Y-29283D03*
X27012Y-32283D03*
X30012Y-32283D03*
X22737Y-25300D03*
X22737Y-27300D03*
X22737Y-29300D03*
X25737Y-25300D03*
X25737Y-27300D03*
X25737Y-29300D03*
X22737Y-32300D03*
X25737Y-32300D03*
G54D38*
X37737Y-19600D03*
X37737Y-20545D03*
X38485Y-19600D03*
X38485Y-20545D03*
G54D39*
X19633Y-15400D03*
X19041Y-15400D03*
G54D40*
X16437Y-10196D03*
X16437Y-9604D03*
X45037Y-17996D03*
X45037Y-17404D03*
X18637Y-9996D03*
X18637Y-9404D03*
X46337Y-20496D03*
X46337Y-19904D03*
X46337Y-15496D03*
X46337Y-14904D03*
X37037Y-14104D03*
X37037Y-14696D03*
X19737Y-10854D03*
X19737Y-11446D03*
G54D39*
X38633Y-18600D03*
X38041Y-18600D03*
X38333Y-21300D03*
X37741Y-21300D03*
X18133Y-12900D03*
X17541Y-12900D03*
X26833Y-10000D03*
X26241Y-10000D03*
G54D40*
X42550Y-11596D03*
X42550Y-11004D03*
G54D39*
X17533Y-14300D03*
X16941Y-14300D03*
X18641Y-14450D03*
X19233Y-14450D03*
G54D40*
X19137Y-17304D03*
X19137Y-17896D03*
G54D39*
X14996Y-22000D03*
X14404Y-22000D03*
G54D40*
X48637Y-20496D03*
X48637Y-19904D03*
G54D39*
X50133Y-16800D03*
X49541Y-16800D03*
G54D40*
X50137Y-19296D03*
X50137Y-18704D03*
X47137Y-20996D03*
X47137Y-20404D03*
G54D39*
X21533Y-9450D03*
X20941Y-9450D03*
G54D40*
X45337Y-20496D03*
X45337Y-19904D03*
G54D39*
X17941Y-11400D03*
X18533Y-11400D03*
G54D41*
X34287Y-7400D03*
G54D42*
X32287Y-7400D03*
X30287Y-7400D03*
G54D41*
X32287Y-37400D03*
G54D42*
X34287Y-37400D03*
X36287Y-37400D03*
G54D41*
X40287Y-7400D03*
G54D42*
X38287Y-7400D03*
X36287Y-7400D03*
G54D41*
X46287Y-7400D03*
G54D42*
X44287Y-7400D03*
X42287Y-7400D03*
G54D41*
X52287Y-7400D03*
G54D42*
X50287Y-7400D03*
X48287Y-7400D03*
G54D41*
X18287Y-7400D03*
G54D42*
X16287Y-7400D03*
X14287Y-7400D03*
G54D41*
X28287Y-7400D03*
G54D42*
X26287Y-7400D03*
X24287Y-7400D03*
G54D41*
X22287Y-37400D03*
G54D42*
X24287Y-37400D03*
X26287Y-37400D03*
G54D41*
X44287Y-37400D03*
G54D42*
X46287Y-37400D03*
X48287Y-37400D03*
G54D41*
X38287Y-37400D03*
G54D42*
X40287Y-37400D03*
X42287Y-37400D03*
G54D41*
X50287Y-37400D03*
G54D42*
X52287Y-37400D03*
G54D41*
X22287Y-7400D03*
G54D42*
X20287Y-7400D03*
G54D41*
X18287Y-37400D03*
G54D42*
X20287Y-37400D03*
G54D41*
X14287Y-37400D03*
G54D42*
X16287Y-37400D03*
G54D43*
X15533Y-34754D03*
X7542Y-31845D03*
G54D44*
X21687Y-23100D03*
X20687Y-23100D03*
X20687Y-23970D03*
X21687Y-23970D03*
G54D45*
X36414Y-23650D03*
X36414Y-24150D03*
X36414Y-24650D03*
X36414Y-25150D03*
X38460Y-25150D03*
X38460Y-24650D03*
X38460Y-24150D03*
X38460Y-23650D03*
G54D41*
X28287Y-37400D03*
G54D42*
X30287Y-37400D03*
G54D45*
X42814Y-12350D03*
X42814Y-12850D03*
X42814Y-13350D03*
X42814Y-13850D03*
X44860Y-13850D03*
X44860Y-13350D03*
X44860Y-12850D03*
X44860Y-12350D03*
G54D46*
X10100Y-34350D03*
X9100Y-34725D03*
X9100Y-33975D03*
G54D47*
X17137Y-34600D03*
X16762Y-33600D03*
X17512Y-33600D03*
G54D48*
X18537Y-34409D03*
X18537Y-33789D03*
X11737Y-35009D03*
X11737Y-34389D03*
G54D25*
X12737Y-31900D03*
X12737Y-31300D03*
X12737Y-30200D03*
X12737Y-30800D03*
X19537Y-33800D03*
X19537Y-34400D03*
X16000Y-33100D03*
X16000Y-33700D03*
G54D26*
X12800Y-35400D03*
X13400Y-35400D03*
X14600Y-35400D03*
X14000Y-35400D03*
G54D35*
X10650Y-32500D03*
X10650Y-33000D03*
X10650Y-33500D03*
G54D49*
X15187Y-30277D03*
X14687Y-30277D03*
X14187Y-30277D03*
X13687Y-30277D03*
X13687Y-32323D03*
X14187Y-32323D03*
X14687Y-32323D03*
X15187Y-32323D03*
G54D50*
X12758Y-33410D03*
G54D51*
X12858Y-34000D03*
G54D52*
X13907Y-34000D03*
G54D53*
X12758Y-34590D03*
G54D54*
X17774Y-31567D03*
X17026Y-31567D03*
X17400Y-32433D03*
G54D55*
X58344Y-7384D03*
X58344Y-37404D03*
X8246Y-7384D03*
X8246Y-37404D03*
G54D30*
X42500Y-24500D03*
G54D31*
X42500Y-23500D03*
X43500Y-24500D03*
X43500Y-23500D03*
X44500Y-24500D03*
X44500Y-23500D03*
X45500Y-24500D03*
X45500Y-23500D03*
X46500Y-24500D03*
X46500Y-23500D03*
X47500Y-24500D03*
X47500Y-23500D03*
X48500Y-24500D03*
X48500Y-23500D03*
X49500Y-24500D03*
X49500Y-23500D03*
X50500Y-24500D03*
X50500Y-23500D03*
X51500Y-24500D03*
X51500Y-23500D03*
G54D56*
X54605Y-16400D03*
G54D57*
X53069Y-16400D03*
G54D56*
X54605Y-15900D03*
G54D57*
X53069Y-15900D03*
X54605Y-15400D03*
X53069Y-15400D03*
X54605Y-14900D03*
G54D56*
X53069Y-14900D03*
X54605Y-14400D03*
G54D57*
X53069Y-14400D03*
G54D58*
X56037Y-37400D03*
X56037Y-7300D03*
X10237Y-7300D03*
G54D59*
X58537Y-21500D03*
X58537Y-21756D03*
X58537Y-21244D03*
X58537Y-22012D03*
X58537Y-20988D03*
G54D60*
X58537Y-22760D03*
X58537Y-20240D03*
G54D61*
X59580Y-22996D03*
X59580Y-20004D03*
G54D62*
X59580Y-21953D03*
X59580Y-21047D03*
G54D59*
X58537Y-17000D03*
X58537Y-17256D03*
X58537Y-16744D03*
X58537Y-17512D03*
X58537Y-16488D03*
G54D60*
X58537Y-18260D03*
X58537Y-15740D03*
G54D61*
X59580Y-18496D03*
X59580Y-15504D03*
G54D62*
X59580Y-17453D03*
X59580Y-16547D03*
G54D59*
X58537Y-12500D03*
X58537Y-12756D03*
X58537Y-12244D03*
X58537Y-13012D03*
X58537Y-11988D03*
G54D60*
X58537Y-13760D03*
X58537Y-11240D03*
G54D61*
X59580Y-13996D03*
X59580Y-11004D03*
G54D62*
X59580Y-12953D03*
X59580Y-12047D03*
G54D63*
X8837Y-10450D03*
X8837Y-20450D03*
G54D30*
X9837Y-13300D03*
G54D31*
X9837Y-14400D03*
X9837Y-15500D03*
X9837Y-16550D03*
X9837Y-17650D03*
X8837Y-17100D03*
X8837Y-16000D03*
X8837Y-14950D03*
X8837Y-13850D03*
G54D55*
X11537Y-19500D03*
X54637Y-10900D03*
G54D64*
X43537Y-27200D03*
G54D65*
X43600Y-10400D03*
X43600Y-11500D03*
G54D66*
X15587Y-21100D03*
X14487Y-21100D03*
G54D40*
X48537Y-16604D03*
X48537Y-17196D03*
G54D65*
X19137Y-13450D03*
X19137Y-12350D03*
X44937Y-15850D03*
X44937Y-14750D03*
G54D36*
X40625Y-15425D03*
X40125Y-15425D03*
G54D67*
X42273Y-34800D03*
X43926Y-34800D03*
X48173Y-34800D03*
X49826Y-34800D03*
X40926Y-34800D03*
X39273Y-34800D03*
X45273Y-34800D03*
X46926Y-34800D03*
G54D65*
X47037Y-17450D03*
X47037Y-16350D03*
G54D68*
X53200Y-34375D03*
X53200Y-31225D03*
G54D69*
X51853Y-9800D03*
X49847Y-9800D03*
G54D70*
X49550Y-10847D03*
X49550Y-12853D03*
G54D69*
X49197Y-14500D03*
X51203Y-14500D03*
G54D26*
X36900Y-11900D03*
X37500Y-11900D03*
X39600Y-11000D03*
X40200Y-11000D03*
X39600Y-11900D03*
X40200Y-11900D03*
X38100Y-11000D03*
X38700Y-11000D03*
X38100Y-11900D03*
X38700Y-11900D03*
X36850Y-11000D03*
X37450Y-11000D03*
X35200Y-11000D03*
X35800Y-11000D03*
X35200Y-11900D03*
X35800Y-11900D03*
X33700Y-11000D03*
X34300Y-11000D03*
X33700Y-11900D03*
X34300Y-11900D03*
X32200Y-11000D03*
X32800Y-11000D03*
X32200Y-11900D03*
X32800Y-11900D03*
X30700Y-11000D03*
X31300Y-11000D03*
X30700Y-11900D03*
X31300Y-11900D03*
X29200Y-11000D03*
X29800Y-11000D03*
G54D28*
X13500Y-17500D03*
G54D29*
X12500Y-17500D03*
X13500Y-16500D03*
X12500Y-16500D03*
X13500Y-15500D03*
X12500Y-15500D03*
X13500Y-14500D03*
X12500Y-14500D03*
G54D39*
X43946Y-29250D03*
X43354Y-29250D03*
X42054Y-29300D03*
X42646Y-29300D03*
X36496Y-29350D03*
X35904Y-29350D03*
X37254Y-29350D03*
X37846Y-29350D03*
X41296Y-29300D03*
X40704Y-29300D03*
X39354Y-29300D03*
X39946Y-29300D03*
G54D71*
X16100Y-32150D03*
X16100Y-30850D03*
G54D31*
X13700Y-24650D03*
G54D72*
X11800Y-23650D03*
X11800Y-24650D03*
X10800Y-24150D03*
X12800Y-24150D03*
G54D31*
X13700Y-23650D03*
G54D73*
X9500Y-28950D03*
G54D63*
X8300Y-28150D03*
G54D72*
X10800Y-28150D03*
G54D63*
X8300Y-23650D03*
G54D73*
X9500Y-22850D03*
G54D72*
X10800Y-27150D03*
X10800Y-26150D03*
X11800Y-27650D03*
X11800Y-26650D03*
G54D31*
X13700Y-28050D03*
X13700Y-27050D03*
G54D74*
X41000Y-30700D03*
G54D75*
X41000Y-33300D03*
X41900Y-33300D03*
X40100Y-33300D03*
G54D74*
X49000Y-30700D03*
G54D75*
X49000Y-33300D03*
X49900Y-33300D03*
X48100Y-33300D03*
G54D74*
X37000Y-30700D03*
G54D75*
X37000Y-33300D03*
X37900Y-33300D03*
X36100Y-33300D03*
G54D74*
X45000Y-30700D03*
G54D75*
X45000Y-33300D03*
X45900Y-33300D03*
X44100Y-33300D03*
G54D30*
X47250Y-11700D03*
G54D31*
X48250Y-11700D03*
G54D30*
X13300Y-19700D03*
G54D31*
X13300Y-18700D03*
G54D30*
X47250Y-9700D03*
G54D31*
X48250Y-9700D03*
G54D30*
X12200Y-21500D03*
G54D31*
X11200Y-21500D03*
G54D30*
X47250Y-10700D03*
G54D31*
X48250Y-10700D03*
G54D34*
X31295Y-12800D03*
X30705Y-12800D03*
X32795Y-12800D03*
X32205Y-12800D03*
X35795Y-12800D03*
X35205Y-12800D03*
X38695Y-12800D03*
X38105Y-12800D03*
G54D76*
X58930Y-30900D03*
X56370Y-30900D03*
G54D77*
X59149Y-26450D03*
X56550Y-26450D03*
G54D78*
X11653Y-37952D03*
X11653Y-36299D03*
G54D79*
X29566Y-9881D03*
X27834Y-9881D03*
G54D80*
X50975Y-20125D03*
X19537Y-33300D03*
X34350Y-34900D03*
X34350Y-33900D03*
X40350Y-28250D03*
X50800Y-15200D03*
X26450Y-11700D03*
X40700Y-11850D03*
X38700Y-11450D03*
X37800Y-11450D03*
X35650Y-11450D03*
X34300Y-11400D03*
X32800Y-11400D03*
X31300Y-11400D03*
X29800Y-11450D03*
X11600Y-28900D03*
X40975Y-28725D03*
X32275Y-22425D03*
X27837Y-15000D03*
X35337Y-21150D03*
X43437Y-15500D03*
X37437Y-25600D03*
X30737Y-13950D03*
X19591Y-22454D03*
X26587Y-22150D03*
X44237Y-21000D03*
X44937Y-20300D03*
X44737Y-16800D03*
X51037Y-19700D03*
X47737Y-21400D03*
X26137Y-12900D03*
X35037Y-24700D03*
X21637Y-12600D03*
X55537Y-16400D03*
X52437Y-21400D03*
X34337Y-13800D03*
X40637Y-20800D03*
X32737Y-25600D03*
X17837Y-16100D03*
X36487Y-14900D03*
X20837Y-20800D03*
X37237Y-26600D03*
X50937Y-16300D03*
X52037Y-21400D03*
X39700Y-15250D03*
X29037Y-22400D03*
X28625Y-19975D03*
X28337Y-16100D03*
X20837Y-18800D03*
X32437Y-17700D03*
X20437Y-10200D03*
X20137Y-11000D03*
X17437Y-26900D03*
X19237Y-16900D03*
X19637Y-15900D03*
X35137Y-17400D03*
X21537Y-24600D03*
X50937Y-15800D03*
X46237Y-17200D03*
X18637Y-15200D03*
X18237Y-12500D03*
X38937Y-19700D03*
X36737Y-19100D03*
X20037Y-12300D03*
X35537Y-23200D03*
X44550Y-11700D03*
X46537Y-14400D03*
X13037Y-29600D03*
X42450Y-28800D03*
X40350Y-29300D03*
X38200Y-29250D03*
X35500Y-29300D03*
X31800Y-35550D03*
X46625Y-28425D03*
X53225Y-13575D03*
X37737Y-24100D03*
X37937Y-26200D03*
X58737Y-27900D03*
X58237Y-27900D03*
X57737Y-27900D03*
X53737Y-20900D03*
X53737Y-17800D03*
X28837Y-30600D03*
X18737Y-35200D03*
X20737Y-35600D03*
X53737Y-20500D03*
X14937Y-20300D03*
X21574Y-8700D03*
X19537Y-29100D03*
X31837Y-31000D03*
X35637Y-25900D03*
X36037Y-22800D03*
X19537Y-28200D03*
X14837Y-11950D03*
X18437Y-13900D03*
X13800Y-12100D03*
X13800Y-13300D03*
X28375Y-20225D03*
X52125Y-14725D03*
X26787Y-23550D03*
X17637Y-26200D03*
X17637Y-26600D03*
X29087Y-25000D03*
X29150Y-12400D03*
X37887Y-10050D03*
X35537Y-19100D03*
X30700Y-12400D03*
X36450Y-10900D03*
X35337Y-19400D03*
X32200Y-12400D03*
X36450Y-12000D03*
X37237Y-21000D03*
X33650Y-12400D03*
X37337Y-21400D03*
X38387Y-13550D03*
X35200Y-12400D03*
X23500Y-19400D03*
X21650Y-14400D03*
X30087Y-24350D03*
X36400Y-13200D03*
X23800Y-19700D03*
X31437Y-26700D03*
X24100Y-20000D03*
X38050Y-12400D03*
X32850Y-24400D03*
X39250Y-13200D03*
X24500Y-20300D03*
X33300Y-24600D03*
X37237Y-20600D03*
X37237Y-25900D03*
X32537Y-28400D03*
X34837Y-20200D03*
X37025Y-27825D03*
X23337Y-29600D03*
X35237Y-20200D03*
X19537Y-26000D03*
X27437Y-22600D03*
X37637Y-18900D03*
X37750Y-15000D03*
X37350Y-15400D03*
X33937Y-17100D03*
X22037Y-18100D03*
X20037Y-17200D03*
X23237Y-19100D03*
X22037Y-18900D03*
X20037Y-16800D03*
X26187Y-19100D03*
X26037Y-15900D03*
X26437Y-17900D03*
X27037Y-15600D03*
X22337Y-15800D03*
X28537Y-18100D03*
X22337Y-16200D03*
X26637Y-22950D03*
X26537Y-19100D03*
X28562Y-12575D03*
X34187Y-15250D03*
X26037Y-16300D03*
X25837Y-19100D03*
X28125Y-19975D03*
X27037Y-16000D03*
X24600Y-14350D03*
X28137Y-12800D03*
X33687Y-13950D03*
X20237Y-10600D03*
X33237Y-16700D03*
X20187Y-11400D03*
X32837Y-16700D03*
X29987Y-13950D03*
X24137Y-13100D03*
X29537Y-14000D03*
X24537Y-12950D03*
X23737Y-12700D03*
X35437Y-13800D03*
X24737Y-11400D03*
X34937Y-15200D03*
X27337Y-11500D03*
X33587Y-15200D03*
X22537Y-10900D03*
X32337Y-14000D03*
X32437Y-16700D03*
X20337Y-11800D03*
X32037Y-16700D03*
X22537Y-14050D03*
X19737Y-14000D03*
X33137Y-18300D03*
X32737Y-18200D03*
X20137Y-13300D03*
X22137Y-14050D03*
X31237Y-16600D03*
X21737Y-14050D03*
X30737Y-16600D03*
X31537Y-13950D03*
X24087Y-13500D03*
X24537Y-13500D03*
X31137Y-13950D03*
X24437Y-18300D03*
X23437Y-18200D03*
X19537Y-18300D03*
X22037Y-18500D03*
X22687Y-15225D03*
X26237Y-18500D03*
X23087Y-16400D03*
X23037Y-15300D03*
X20287Y-15200D03*
X34037Y-16700D03*
X24537Y-24700D03*
X30437Y-21650D03*
X28287Y-25450D03*
X28037Y-26100D03*
X32637Y-26500D03*
X27837Y-25450D03*
X29637Y-22000D03*
X26387Y-27050D03*
X29037Y-22050D03*
X28687Y-25450D03*
X23437Y-23800D03*
X30437Y-22100D03*
X37187Y-16050D03*
X27937Y-24400D03*
X29425Y-22475D03*
X28737Y-21900D03*
X27537Y-24300D03*
X32237Y-24900D03*
X36987Y-15500D03*
X48437Y-19500D03*
X42525Y-18625D03*
X49437Y-18900D03*
X46537Y-18300D03*
X46837Y-18500D03*
X48237Y-17600D03*
X47237Y-18500D03*
X49037Y-18900D03*
X43925Y-28825D03*
X28337Y-21900D03*
X26537Y-24600D03*
X20700Y-21700D03*
X26937Y-19100D03*
X20587Y-20000D03*
X44325Y-28825D03*
X27437Y-23200D03*
X16237Y-19850D03*
X18837Y-25900D03*
X26837Y-17900D03*
X16637Y-20400D03*
X22537Y-21400D03*
X36137Y-27000D03*
X37337Y-22600D03*
X32537Y-18800D03*
X28637Y-19200D03*
X40700Y-22700D03*
X33137Y-18700D03*
X37337Y-22200D03*
X28737Y-19600D03*
X17437Y-18300D03*
X26937Y-18700D03*
X17337Y-16700D03*
X26787Y-18275D03*
X42025Y-14075D03*
X28837Y-16500D03*
X41400Y-13550D03*
X28500Y-13950D03*
X42100Y-13750D03*
X29237Y-15650D03*
X42425Y-21025D03*
X33237Y-21600D03*
X34237Y-21600D03*
X31937Y-19750D03*
X30837Y-21100D03*
X30037Y-21000D03*
X31487Y-19750D03*
X31137Y-23600D03*
X31937Y-20400D03*
X32437Y-19800D03*
X24387Y-26300D03*
X30487Y-23950D03*
X43937Y-21200D03*
X49137Y-18300D03*
X43637Y-21000D03*
X49337Y-17600D03*
X43237Y-21000D03*
X48537Y-18250D03*
X48137Y-18250D03*
X42837Y-21000D03*
X47737Y-18400D03*
X29437Y-23950D03*
X28987Y-24400D03*
X47537Y-18700D03*
X28437Y-18800D03*
X28337Y-18400D03*
X45837Y-20450D03*
X45737Y-16500D03*
X49237Y-19700D03*
X48637Y-15500D03*
X39575Y-20325D03*
X39537Y-23900D03*
X57537Y-23500D03*
X44750Y-11000D03*
X44250Y-8650D03*
X40900Y-13500D03*
X40950Y-12500D03*
X40100Y-8950D03*
X34300Y-9150D03*
X32350Y-9150D03*
X28350Y-9100D03*
X30400Y-9100D03*
X40737Y-10500D03*
X40750Y-11400D03*
X22937Y-14900D03*
X24537Y-15800D03*
X24837Y-16300D03*
X24637Y-17700D03*
X14500Y-27000D03*
X15500Y-26100D03*
X37525Y-28175D03*
X35037Y-22400D03*
X39737Y-25900D03*
X34437Y-22400D03*
X39837Y-27100D03*
X39737Y-26300D03*
X34637Y-21800D03*
X45125Y-28825D03*
X32225Y-23925D03*
X45575Y-27425D03*
X32575Y-23575D03*
X41625Y-22975D03*
X41137Y-26500D03*
X33025Y-28425D03*
X46137Y-16200D03*
X40937Y-21000D03*
X37737Y-27600D03*
X19087Y-20650D03*
X20537Y-25700D03*
X30437Y-26350D03*
X31937Y-24200D03*
X51775Y-14825D03*
X27475Y-15075D03*
X44725Y-28825D03*
X28625Y-23925D03*
X44475Y-25825D03*
X42775Y-27675D03*
X34275Y-20175D03*
X29037Y-18800D03*
X41925Y-19625D03*
X39725Y-21275D03*
X42325Y-19625D03*
X39575Y-20725D03*
X28337Y-17200D03*
X37337Y-21800D03*
X32300Y-29750D03*
X41425Y-25675D03*
X40375Y-28725D03*
X42475Y-26525D03*
X29837Y-21300D03*
X15137Y-18500D03*
X14400Y-19900D03*
X14537Y-18500D03*
X9100Y-35300D03*
X15337Y-33200D03*
X18046Y-34409D03*
X34437Y-26600D03*
X26237Y-30900D03*
X22737Y-31300D03*
X17700Y-35500D03*
X30137Y-31000D03*
X29437Y-29000D03*
X25337Y-31200D03*
X23737Y-27300D03*
X22137Y-31300D03*
X17200Y-35600D03*
X30037Y-30500D03*
X28937Y-29500D03*
X25137Y-30800D03*
X25137Y-27100D03*
X24487Y-25300D03*
X20937Y-31400D03*
X16700Y-35700D03*
X39587Y-22950D03*
X36837Y-25900D03*
X37037Y-24200D03*
X55050Y-25250D03*
X43150Y-31400D03*
X41700Y-11150D03*
X44250Y-10250D03*
X52450Y-9800D03*
X46500Y-9300D03*
X26150Y-12500D03*
X36450Y-12400D03*
X38150Y-26850D03*
X36025Y-31425D03*
X38350Y-31450D03*
X14700Y-16600D03*
X13000Y-12500D03*
X13400Y-25300D03*
X14400Y-23500D03*
X12400Y-27600D03*
X9000Y-24800D03*
X8900Y-26100D03*
X8900Y-26900D03*
X44450Y-29250D03*
X41500Y-31450D03*
X40600Y-31450D03*
X36850Y-29350D03*
X36850Y-28950D03*
X39000Y-29300D03*
X41650Y-29450D03*
X38600Y-33300D03*
X42600Y-33300D03*
X46500Y-33300D03*
X50600Y-33300D03*
X53900Y-24750D03*
X52900Y-24950D03*
X38437Y-19100D03*
X32837Y-21800D03*
X33025Y-19525D03*
X28537Y-21600D03*
X52237Y-19000D03*
X57237Y-36200D03*
X57237Y-36600D03*
X55075Y-36075D03*
X55625Y-36075D03*
X39700Y-15600D03*
X40125Y-18075D03*
X34787Y-26300D03*
X47787Y-17200D03*
X31837Y-22000D03*
X37037Y-21600D03*
X36737Y-22700D03*
X46237Y-16600D03*
X57437Y-32200D03*
X57437Y-31800D03*
X44787Y-19700D03*
X45837Y-20100D03*
X45737Y-16100D03*
X30337Y-13950D03*
X19537Y-23250D03*
X28337Y-22300D03*
X37987Y-13550D03*
X44037Y-15400D03*
X44637Y-18000D03*
X47437Y-19900D03*
X48937Y-21200D03*
X45837Y-14600D03*
X48237Y-15500D03*
X49337Y-15500D03*
X49037Y-16600D03*
X50837Y-18500D03*
X48637Y-17600D03*
X21037Y-24600D03*
X16637Y-24800D03*
X55437Y-28500D03*
X55437Y-28900D03*
X58237Y-31800D03*
X58237Y-32200D03*
X57637Y-11800D03*
X57537Y-16400D03*
X57537Y-20800D03*
X54537Y-21000D03*
X54537Y-30400D03*
X54537Y-30700D03*
X18237Y-22350D03*
X18487Y-22050D03*
X18487Y-22650D03*
X17937Y-22050D03*
X17937Y-22650D03*
X31737Y-26000D03*
X19937Y-11800D03*
X26137Y-10600D03*
X50537Y-21100D03*
X53837Y-14000D03*
X55537Y-15400D03*
X55537Y-15900D03*
X37737Y-23700D03*
X38137Y-21800D03*
X38837Y-17600D03*
X37037Y-17600D03*
X43437Y-16800D03*
X34837Y-18200D03*
X26937Y-17000D03*
X30437Y-19300D03*
X31237Y-17200D03*
X28475Y-15775D03*
X16737Y-19900D03*
X15937Y-17200D03*
X48837Y-19500D03*
X34237Y-17300D03*
X35037Y-16850D03*
X19237Y-30000D03*
X16537Y-24300D03*
X19037Y-21300D03*
X20237Y-25400D03*
X23937Y-30800D03*
X24237Y-29400D03*
X27937Y-30800D03*
X27637Y-29100D03*
X32637Y-30100D03*
X36337Y-26600D03*
X20037Y-16400D03*
X18637Y-18200D03*
X15337Y-20300D03*
X36450Y-11500D03*
X37850Y-10500D03*
X46637Y-12900D03*
X43937Y-13000D03*
X50037Y-32200D03*
X50437Y-32200D03*
X34737Y-13800D03*
X41037Y-19400D03*
X37037Y-25500D03*
X35237Y-25800D03*
X31037Y-24200D03*
X27537Y-23900D03*
X24837Y-18300D03*
X21237Y-18800D03*
X20137Y-17800D03*
X20337Y-14500D03*
X19137Y-15900D03*
X21637Y-13700D03*
X24850Y-14800D03*
X22337Y-11900D03*
X16337Y-16800D03*
X18237Y-18000D03*
X11100Y-31950D03*
X11100Y-31600D03*
X9100Y-33400D03*
X20187Y-13700D03*
X17887Y-12450D03*
X23437Y-11000D03*
X18937Y-11400D03*
X19237Y-14000D03*
X28637Y-10500D03*
X19837Y-8900D03*
X38937Y-19000D03*
X24137Y-10000D03*
X18337Y-13400D03*
X26637Y-10600D03*
X36637Y-17600D03*
X12037Y-30600D03*
X12237Y-35200D03*
X18037Y-33600D03*
X17537Y-10800D03*
X15637Y-14300D03*
X33800Y-23900D03*
X22837Y-8600D03*
X25637Y-9800D03*
X27037Y-11700D03*
X20437Y-8900D03*
X15937Y-8700D03*
X15637Y-12500D03*
X57637Y-10600D03*
X57637Y-13800D03*
X48837Y-13200D03*
X48837Y-13700D03*
X17137Y-27100D03*
X28800Y-26850D03*
X47787Y-16600D03*
X47137Y-15400D03*
X33037Y-20450D03*
X18837Y-16800D03*
X18237Y-16800D03*
X14737Y-15300D03*
X14800Y-17400D03*
X17037Y-15800D03*
X54425Y-33325D03*
X54425Y-33725D03*
X54425Y-34125D03*
X55237Y-26600D03*
X54737Y-26600D03*
X54737Y-27100D03*
X55237Y-27100D03*
X28600Y-27200D03*
X22537Y-22000D03*
X21037Y-21700D03*
X22537Y-22400D03*
X19937Y-22050D03*
X14300Y-22500D03*
X16637Y-23900D03*
X22237Y-23200D03*
X19037Y-23700D03*
X58237Y-19600D03*
X58637Y-19600D03*
X57537Y-20100D03*
X57637Y-22600D03*
X23337Y-8900D03*
X24537Y-11700D03*
X18937Y-10800D03*
X25587Y-9250D03*
X20537Y-9800D03*
X17437Y-9150D03*
X16637Y-10700D03*
X19094Y-10236D03*
X17637Y-13400D03*
X57237Y-16900D03*
X57237Y-17300D03*
X41137Y-26900D03*
X57637Y-18300D03*
X57637Y-15200D03*
X25950Y-14700D03*
X28550Y-11950D03*
X27550Y-12650D03*
X25950Y-14100D03*
X26450Y-14100D03*
X27800Y-12350D03*
X28200Y-11950D03*
X26200Y-14350D03*
X48100Y-32600D03*
X40100Y-32600D03*
X15537Y-28600D03*
X53500Y-27150D03*
X55050Y-25900D03*
X17137Y-28600D03*
X44100Y-32600D03*
X36100Y-32700D03*
X14500Y-29250D03*
X16337Y-28600D03*
X12937Y-32700D03*
X14737Y-33100D03*
X42087Y-18450D03*
G54D81*
X50925Y-20175D02*
X50975Y-20125D01*
G54D82*
X19537Y-33300D02*
X19537Y-33800D01*
G54D81*
X40350Y-28250D02*
X40300Y-28250D01*
X25390Y-11832D02*
X26317Y-11832D01*
X26418Y-11732D02*
X26450Y-11700D01*
X26317Y-11832D02*
X26450Y-11700D01*
X40200Y-11000D02*
X40200Y-11900D01*
X40200Y-11900D02*
X40650Y-11900D01*
X40650Y-11900D02*
X40700Y-11850D01*
X38700Y-11900D02*
X38700Y-11450D01*
X38700Y-11450D02*
X38700Y-11000D01*
X37500Y-11900D02*
X37500Y-11650D01*
X37450Y-11350D02*
X37550Y-11450D01*
X37550Y-11450D02*
X37800Y-11450D01*
X37450Y-11350D02*
X37450Y-11000D01*
X37700Y-11450D02*
X37800Y-11450D01*
X37500Y-11650D02*
X37700Y-11450D01*
X35800Y-11900D02*
X35800Y-11600D01*
X35800Y-11400D02*
X35800Y-11000D01*
X35800Y-11400D02*
X35750Y-11450D01*
X35650Y-11450D02*
X35750Y-11450D01*
X35800Y-11600D02*
X35650Y-11450D01*
X34300Y-11900D02*
X34300Y-11400D01*
X34300Y-11400D02*
X34300Y-11000D01*
X32800Y-11900D02*
X32800Y-11400D01*
X32800Y-11400D02*
X32800Y-11000D01*
X31300Y-11900D02*
X31300Y-11400D01*
X31300Y-11400D02*
X31300Y-11000D01*
X29800Y-11900D02*
X29800Y-11450D01*
X29800Y-11450D02*
X29800Y-11000D01*
X39350Y-14800D02*
X39650Y-14800D01*
X39700Y-14850D02*
X39700Y-15250D01*
X39650Y-14800D02*
X39700Y-14850D01*
X39350Y-14800D02*
X39350Y-15500D01*
X32275Y-22425D02*
X32562Y-22425D01*
X32706Y-23032D02*
X32706Y-22568D01*
X32562Y-22425D02*
X32706Y-22568D01*
X27589Y-19488D02*
X28238Y-19488D01*
X28625Y-19862D02*
X28625Y-19975D01*
X28238Y-19488D02*
X28625Y-19862D01*
X27837Y-15000D02*
X28150Y-15000D01*
X28150Y-15000D02*
X28243Y-15093D01*
X28443Y-15093D02*
X28243Y-15093D01*
X28573Y-14568D02*
X28573Y-14964D01*
X28573Y-14964D02*
X28443Y-15093D01*
X27937Y-15000D02*
X27837Y-15000D01*
X36053Y-21457D02*
X35644Y-21457D01*
X35644Y-21457D02*
X35337Y-21150D01*
X43337Y-15600D02*
X43437Y-15500D01*
X43437Y-15500D02*
X43537Y-15400D01*
X43537Y-15400D02*
X43637Y-15400D01*
X43437Y-15500D02*
X43537Y-15400D01*
X43537Y-15400D02*
X43637Y-15400D01*
X43937Y-15100D02*
X43637Y-15400D01*
X43337Y-15600D02*
X43337Y-15700D01*
X43937Y-15000D02*
X43937Y-15100D01*
X43537Y-16500D02*
X43437Y-16400D01*
X43837Y-16500D02*
X43537Y-16500D01*
X43337Y-16300D02*
X43337Y-16100D01*
X43437Y-16400D02*
X43337Y-16300D01*
X43337Y-16100D02*
X43337Y-15700D01*
X43937Y-15000D02*
X43937Y-15100D01*
X43337Y-15700D02*
X43337Y-15600D01*
X30936Y-14568D02*
X30936Y-14198D01*
X30737Y-14000D02*
X30737Y-13950D01*
X30936Y-14198D02*
X30737Y-14000D01*
X19591Y-22454D02*
X19585Y-22448D01*
X27589Y-22048D02*
X26689Y-22048D01*
X26689Y-22048D02*
X26587Y-22150D01*
X45337Y-20496D02*
X45033Y-20496D01*
X44937Y-20400D02*
X44937Y-20300D01*
X45033Y-20496D02*
X44937Y-20400D01*
X44737Y-16800D02*
X44537Y-16800D01*
X44537Y-16800D02*
X44037Y-17300D01*
X44037Y-17300D02*
X44037Y-17500D01*
X44037Y-17500D02*
X44033Y-17500D01*
X44033Y-17300D02*
X44037Y-17300D01*
X44033Y-17500D02*
X44033Y-17300D01*
X44033Y-17948D02*
X44033Y-17500D01*
X44737Y-16800D02*
X45037Y-17100D01*
X45037Y-17100D02*
X44737Y-16800D01*
X45037Y-17404D02*
X45037Y-17100D01*
X50137Y-19296D02*
X50137Y-19600D01*
X50237Y-19700D02*
X51037Y-19700D01*
X50137Y-19600D02*
X50237Y-19700D01*
X47137Y-20996D02*
X47137Y-21200D01*
X47337Y-21400D02*
X47737Y-21400D01*
X47137Y-21200D02*
X47337Y-21400D01*
X25815Y-13722D02*
X25937Y-13600D01*
X25937Y-13600D02*
X25937Y-13500D01*
X25937Y-13500D02*
X26137Y-13300D01*
X26137Y-13300D02*
X26137Y-12900D01*
X25815Y-13722D02*
X25390Y-13722D01*
X20982Y-18445D02*
X20982Y-18655D01*
X20982Y-18655D02*
X20837Y-18800D01*
X34478Y-14568D02*
X34478Y-13940D01*
X34478Y-13940D02*
X34337Y-13800D01*
X34675Y-23032D02*
X34675Y-24337D01*
X34675Y-24337D02*
X35037Y-24700D01*
X20982Y-12777D02*
X21560Y-12777D01*
X21560Y-12777D02*
X21637Y-12600D01*
X54605Y-16400D02*
X55537Y-16400D01*
X39700Y-15150D02*
X39700Y-15250D01*
X52087Y-20800D02*
X52087Y-21350D01*
X52087Y-21350D02*
X52037Y-21400D01*
X50637Y-16600D02*
X50437Y-16800D01*
X50133Y-16800D02*
X50437Y-16800D01*
X50637Y-16600D02*
X50937Y-16300D01*
X27589Y-16143D02*
X28294Y-16143D01*
X28294Y-16143D02*
X28337Y-16100D01*
X18283Y-17352D02*
X19089Y-17352D01*
X19089Y-17352D02*
X19137Y-17304D01*
X36487Y-14900D02*
X36487Y-15150D01*
X36487Y-15150D02*
X36337Y-15300D01*
X20087Y-20900D02*
X20737Y-20900D01*
X20737Y-20900D02*
X20837Y-20800D01*
X50137Y-16000D02*
X50437Y-16000D01*
X50437Y-16000D02*
X50637Y-15800D01*
X52087Y-20800D02*
X51987Y-21350D01*
X51987Y-21350D02*
X52037Y-21400D01*
X39700Y-15250D02*
X39650Y-15200D01*
X37037Y-14696D02*
X37037Y-14800D01*
X36281Y-15356D02*
X36053Y-15356D01*
X36281Y-15356D02*
X36337Y-15300D01*
X36937Y-14900D02*
X36487Y-14900D01*
X37037Y-14800D02*
X36937Y-14900D01*
X28770Y-22567D02*
X28937Y-22400D01*
X28937Y-22400D02*
X29037Y-22400D01*
X28770Y-22567D02*
X28770Y-23032D01*
X26639Y-22098D02*
X26587Y-22150D01*
X20982Y-14350D02*
X20587Y-14350D01*
X20137Y-14200D02*
X19937Y-14400D01*
X20437Y-14200D02*
X20137Y-14200D01*
X20587Y-14350D02*
X20437Y-14200D01*
X20982Y-10257D02*
X20494Y-10257D01*
X20494Y-10257D02*
X20437Y-10200D01*
X19737Y-10854D02*
X19991Y-10854D01*
X20250Y-10887D02*
X20137Y-11000D01*
X20250Y-10887D02*
X20982Y-10887D01*
X19991Y-10854D02*
X20137Y-11000D01*
X19137Y-17304D02*
X19237Y-16900D01*
X19237Y-16900D02*
X19233Y-16900D01*
X19185Y-16948D02*
X19237Y-16896D01*
X19233Y-16900D02*
X19237Y-16896D01*
X19633Y-15400D02*
X19633Y-15896D01*
X19633Y-15896D02*
X19637Y-15900D01*
X19633Y-14704D02*
X19633Y-15400D01*
X19937Y-14400D02*
X19633Y-14704D01*
X36053Y-17521D02*
X35258Y-17521D01*
X35258Y-17521D02*
X35137Y-17400D01*
X44029Y-20150D02*
X44029Y-20792D01*
X44079Y-20842D02*
X44237Y-21000D01*
X44029Y-20792D02*
X44237Y-21000D01*
X21687Y-23970D02*
X21687Y-24350D01*
X21687Y-24350D02*
X21537Y-24600D01*
X50941Y-16296D02*
X50937Y-16300D01*
X50637Y-15800D02*
X50937Y-15800D01*
X19024Y-22448D02*
X19585Y-22448D01*
X19585Y-22448D02*
X19587Y-22450D01*
X19137Y-12350D02*
X18387Y-12350D01*
X18387Y-12350D02*
X18237Y-12500D01*
X19137Y-12350D02*
X19987Y-12350D01*
X19987Y-12350D02*
X20037Y-12300D01*
X18287Y-12450D02*
X18237Y-12500D01*
X19987Y-12350D02*
X20037Y-12300D01*
X18133Y-12900D02*
X18133Y-12604D01*
X18133Y-12604D02*
X18237Y-12500D01*
X36737Y-19100D02*
X36637Y-19100D01*
X36053Y-19095D02*
X36632Y-19095D01*
X36632Y-19095D02*
X36637Y-19100D01*
X36053Y-19292D02*
X36445Y-19292D01*
X36445Y-19292D02*
X36637Y-19100D01*
X33887Y-23032D02*
X33887Y-22450D01*
X34237Y-22100D02*
X35137Y-22100D01*
X35137Y-22100D02*
X35537Y-22500D01*
X35537Y-22500D02*
X35537Y-23200D01*
X33887Y-22450D02*
X34237Y-22100D01*
G54D83*
X14487Y-21100D02*
X14487Y-20562D01*
X14749Y-20300D02*
X14937Y-20300D01*
X14487Y-20562D02*
X14749Y-20300D01*
X51203Y-14500D02*
X51600Y-14500D01*
X51600Y-14500D02*
X51925Y-14175D01*
X42550Y-11596D02*
X43504Y-11596D01*
X43504Y-11596D02*
X43600Y-11500D01*
X44860Y-12350D02*
X44860Y-12010D01*
X43600Y-11500D02*
X44300Y-11500D01*
X44350Y-11500D02*
X44300Y-11500D01*
X44860Y-12010D02*
X44550Y-11700D01*
X44550Y-11700D02*
X44350Y-11500D01*
X42800Y-11596D02*
X43504Y-11596D01*
X43504Y-11596D02*
X43600Y-11500D01*
X46650Y-14400D02*
X46537Y-14400D01*
X46137Y-13900D02*
X46137Y-14137D01*
X46137Y-14137D02*
X46400Y-14400D01*
X46400Y-14400D02*
X46537Y-14400D01*
X47150Y-13900D02*
X47150Y-14150D01*
X46899Y-14400D02*
X46650Y-14400D01*
X47150Y-14150D02*
X46899Y-14400D01*
X52000Y-14175D02*
X51925Y-14175D01*
X51925Y-14175D02*
X52375Y-14175D01*
X52375Y-14175D02*
X52975Y-13575D01*
X43500Y-11596D02*
X43854Y-11596D01*
X43854Y-11596D02*
X43950Y-11500D01*
X14404Y-22000D02*
X14404Y-21183D01*
X14404Y-21183D02*
X14487Y-21100D01*
X14487Y-21312D02*
X14487Y-21100D01*
X43354Y-29250D02*
X42696Y-29250D01*
X42696Y-29250D02*
X42646Y-29300D01*
X42646Y-28996D02*
X42646Y-29300D01*
X42450Y-28800D02*
X42646Y-28996D01*
X39896Y-29300D02*
X40350Y-29300D01*
X40350Y-29300D02*
X40654Y-29300D01*
X38100Y-29350D02*
X37846Y-29350D01*
X38200Y-29250D02*
X38100Y-29350D01*
X35550Y-29350D02*
X35904Y-29350D01*
X35500Y-29300D02*
X35550Y-29350D01*
X52975Y-13575D02*
X53225Y-13575D01*
X37737Y-24100D02*
X37787Y-24150D01*
X37787Y-24150D02*
X38460Y-24150D01*
X37737Y-25300D02*
X37737Y-25400D01*
X37937Y-26200D02*
X37937Y-25700D01*
X37887Y-24150D02*
X38460Y-24150D01*
X37737Y-24300D02*
X37737Y-25300D01*
X37887Y-24150D02*
X37737Y-24300D01*
X37937Y-25600D02*
X37937Y-25700D01*
X37737Y-25400D02*
X37937Y-25600D01*
X57637Y-24300D02*
X57737Y-24400D01*
X57837Y-25400D02*
X58952Y-26450D01*
X57737Y-25300D02*
X57837Y-25400D01*
X57737Y-24400D02*
X57737Y-25300D01*
X56937Y-23600D02*
X57637Y-24300D01*
X45087Y-12350D02*
X44860Y-12350D01*
X56765Y-23100D02*
X56765Y-23428D01*
X56765Y-23428D02*
X56937Y-23600D01*
X58952Y-26352D02*
X58952Y-26650D01*
X58952Y-26650D02*
X58439Y-27802D01*
X58439Y-27802D02*
X58237Y-27900D01*
X58952Y-26650D02*
X58439Y-27798D01*
X58439Y-27798D02*
X57737Y-27900D01*
X58533Y-31100D02*
X59250Y-31100D01*
X58237Y-27900D02*
X57737Y-27900D01*
X54037Y-20000D02*
X54037Y-20600D01*
X53087Y-20900D02*
X52987Y-20800D01*
X53737Y-20900D02*
X53087Y-20900D01*
X54037Y-20600D02*
X53737Y-20900D01*
X53737Y-17800D02*
X53737Y-18000D01*
X53937Y-18200D02*
X53737Y-18000D01*
X54037Y-18200D02*
X53937Y-18200D01*
X54037Y-18200D02*
X54465Y-18200D01*
X53737Y-17500D02*
X53737Y-17800D01*
X53937Y-17300D02*
X53737Y-17500D01*
X53937Y-17300D02*
X54465Y-17300D01*
X53737Y-20500D02*
X53287Y-20500D01*
X53287Y-20500D02*
X52987Y-20800D01*
X52987Y-20850D02*
X52987Y-20800D01*
G54D81*
X9000Y-30200D02*
X7000Y-30200D01*
X20737Y-8700D02*
X20637Y-8600D01*
X20637Y-8600D02*
X16337Y-8600D01*
X16337Y-8600D02*
X16137Y-8400D01*
X16137Y-8400D02*
X15737Y-8400D01*
X15737Y-8400D02*
X14537Y-9600D01*
X14537Y-9600D02*
X14537Y-11100D01*
X21574Y-8700D02*
X20737Y-8700D01*
X11637Y-30200D02*
X9000Y-30200D01*
X8237Y-11500D02*
X14137Y-11500D01*
X14137Y-11500D02*
X14537Y-11100D01*
X7000Y-30200D02*
X6500Y-29700D01*
X6500Y-29700D02*
X6500Y-13237D01*
X6500Y-13237D02*
X8237Y-11500D01*
X23000Y-30100D02*
X20537Y-30100D01*
X20537Y-30100D02*
X19537Y-29100D01*
X29637Y-30000D02*
X29537Y-30100D01*
X29537Y-30100D02*
X23000Y-30100D01*
X31637Y-30400D02*
X31237Y-30000D01*
X31237Y-30000D02*
X29637Y-30000D01*
X31667Y-30490D02*
X31637Y-30400D01*
X31667Y-30830D02*
X31837Y-31000D01*
X31667Y-30490D02*
X31667Y-30830D01*
X36485Y-22048D02*
X36537Y-22100D01*
X36537Y-22100D02*
X36537Y-22500D01*
X36537Y-22500D02*
X36237Y-22800D01*
X36237Y-22800D02*
X36037Y-22800D01*
X36053Y-22048D02*
X36485Y-22048D01*
X13400Y-29300D02*
X13700Y-29300D01*
X12037Y-30200D02*
X11637Y-30200D01*
X12937Y-29300D02*
X12037Y-30200D01*
X18037Y-28200D02*
X17837Y-28000D01*
X17837Y-28000D02*
X15100Y-28000D01*
X19537Y-28200D02*
X18037Y-28200D01*
X13400Y-29300D02*
X12937Y-29300D01*
X13700Y-29300D02*
X14999Y-28000D01*
X14999Y-28000D02*
X15099Y-28000D01*
X15099Y-28000D02*
X15100Y-28000D01*
X15100Y-28000D02*
X15100Y-28000D01*
X11637Y-30200D02*
X11537Y-30200D01*
X13300Y-29100D02*
X13600Y-29100D01*
X15300Y-27800D02*
X15300Y-27800D01*
X14900Y-27800D02*
X15300Y-27800D01*
X13600Y-29100D02*
X14900Y-27800D01*
X14587Y-11700D02*
X14837Y-11950D01*
X8337Y-11700D02*
X14587Y-11700D01*
X11937Y-30000D02*
X8937Y-30000D01*
X12837Y-29100D02*
X11937Y-30000D01*
X12837Y-29100D02*
X12837Y-29100D01*
X7200Y-30000D02*
X6700Y-29500D01*
X6700Y-29500D02*
X6700Y-13337D01*
X6700Y-13337D02*
X8337Y-11700D01*
X8937Y-30000D02*
X7200Y-30000D01*
X35337Y-25250D02*
X35337Y-23800D01*
X35337Y-23800D02*
X35069Y-23531D01*
X35069Y-23500D02*
X35069Y-23531D01*
X35069Y-23032D02*
X35069Y-23500D01*
X34237Y-26100D02*
X34487Y-26100D01*
X33837Y-26100D02*
X34237Y-26100D01*
X34487Y-26100D02*
X34887Y-25700D01*
X34887Y-25700D02*
X35337Y-25250D01*
X35337Y-25250D02*
X35337Y-25250D01*
X31737Y-28200D02*
X33837Y-26100D01*
X30937Y-28200D02*
X31737Y-28200D01*
X30637Y-28500D02*
X30937Y-28200D01*
X30537Y-28500D02*
X30637Y-28500D01*
X21037Y-28500D02*
X30537Y-28500D01*
X20437Y-27900D02*
X18037Y-27900D01*
X20437Y-27900D02*
X21037Y-28500D01*
X13300Y-29100D02*
X12837Y-29100D01*
X18037Y-27900D02*
X17937Y-27800D01*
X15300Y-27800D02*
X17937Y-27800D01*
X13800Y-13300D02*
X17037Y-13300D01*
X13300Y-11893D02*
X8406Y-11893D01*
X8406Y-11893D02*
X8300Y-12000D01*
X13300Y-11893D02*
X13593Y-11893D01*
X13593Y-11893D02*
X13800Y-12100D01*
X17887Y-13700D02*
X18237Y-13700D01*
X18237Y-13700D02*
X18437Y-13900D01*
X17337Y-13600D02*
X17437Y-13700D01*
X17437Y-13700D02*
X17887Y-13700D01*
X17337Y-13600D02*
X17037Y-13300D01*
X13500Y-28900D02*
X14600Y-27800D01*
X14600Y-27800D02*
X14800Y-27600D01*
X14800Y-27600D02*
X17437Y-27600D01*
X17437Y-27600D02*
X18237Y-26800D01*
X11500Y-29800D02*
X11800Y-29800D01*
X6900Y-29400D02*
X7300Y-29800D01*
X7300Y-29800D02*
X11500Y-29800D01*
X6900Y-13400D02*
X6900Y-29200D01*
X8300Y-12000D02*
X6900Y-13400D01*
X6900Y-29200D02*
X6900Y-29400D01*
X12700Y-28900D02*
X13500Y-28900D01*
X11800Y-29800D02*
X12700Y-28900D01*
X8399Y-11900D02*
X8300Y-12000D01*
X8500Y-11900D02*
X8399Y-11900D01*
X33737Y-25275D02*
X33737Y-25512D01*
X33049Y-26200D02*
X32537Y-26200D01*
X33737Y-25512D02*
X33049Y-26200D01*
X8437Y-11900D02*
X8500Y-11900D01*
X32537Y-26200D02*
X32237Y-26500D01*
X32237Y-26500D02*
X32237Y-27400D01*
X18237Y-26800D02*
X18337Y-26700D01*
X19537Y-26700D02*
X19637Y-26800D01*
X18337Y-26700D02*
X19537Y-26700D01*
X21137Y-28300D02*
X20337Y-27500D01*
X20337Y-27500D02*
X19637Y-26800D01*
X32237Y-27400D02*
X32037Y-27600D01*
X30437Y-28300D02*
X30637Y-28100D01*
X21137Y-28300D02*
X30437Y-28300D01*
X30737Y-28000D02*
X31637Y-28000D01*
X31637Y-28000D02*
X32037Y-27600D01*
X30637Y-28100D02*
X30737Y-28000D01*
X18237Y-26800D02*
X17437Y-27600D01*
X34281Y-23543D02*
X34281Y-23925D01*
X32537Y-26200D02*
X32837Y-26200D01*
X33737Y-25000D02*
X33987Y-24750D01*
X33737Y-25300D02*
X33737Y-25275D01*
X33737Y-25275D02*
X33737Y-25000D01*
X34281Y-23032D02*
X34281Y-23543D01*
X34281Y-24500D02*
X34281Y-24606D01*
X34137Y-24750D02*
X33987Y-24750D01*
X34281Y-24606D02*
X34137Y-24750D01*
X34281Y-23925D02*
X34281Y-24500D01*
X13750Y-27500D02*
X14550Y-27500D01*
X14550Y-27500D02*
X14649Y-27400D01*
X15200Y-12200D02*
X15000Y-12400D01*
X15000Y-12400D02*
X14900Y-12400D01*
X15999Y-11400D02*
X17941Y-11400D01*
X15100Y-12300D02*
X15200Y-12200D01*
X15200Y-12200D02*
X15999Y-11400D01*
X13400Y-12400D02*
X14900Y-12400D01*
X12200Y-12100D02*
X13100Y-12100D01*
X13100Y-12100D02*
X13400Y-12400D01*
X8500Y-12100D02*
X12200Y-12100D01*
X19737Y-26600D02*
X19637Y-26500D01*
X33275Y-25675D02*
X32931Y-26018D01*
X32418Y-26018D02*
X32931Y-26018D01*
X21237Y-28100D02*
X30337Y-28100D01*
X31537Y-27800D02*
X31837Y-27500D01*
X30337Y-28100D02*
X30637Y-27800D01*
X30637Y-27800D02*
X31537Y-27800D01*
X32037Y-27300D02*
X31837Y-27500D01*
X32037Y-26400D02*
X32037Y-27300D01*
X32418Y-26018D02*
X32037Y-26400D01*
X18237Y-26500D02*
X18137Y-26600D01*
X19637Y-26500D02*
X18237Y-26500D01*
X17937Y-26800D02*
X17337Y-27400D01*
X17937Y-26800D02*
X18137Y-26600D01*
X17337Y-27400D02*
X14649Y-27400D01*
X19737Y-26600D02*
X19937Y-26800D01*
X19937Y-26800D02*
X20637Y-27500D01*
X21237Y-28100D02*
X20637Y-27500D01*
X12600Y-28500D02*
X12600Y-28700D01*
X13600Y-27500D02*
X12600Y-28500D01*
X13750Y-27500D02*
X13600Y-27500D01*
X8500Y-12100D02*
X8499Y-12100D01*
X8499Y-12100D02*
X7100Y-13500D01*
X7100Y-13500D02*
X7100Y-29300D01*
X7100Y-29300D02*
X7400Y-29600D01*
X7400Y-29600D02*
X11700Y-29600D01*
X11700Y-29600D02*
X12600Y-28700D01*
X33275Y-25675D02*
X32999Y-25950D01*
X33787Y-24550D02*
X33987Y-24550D01*
X33537Y-25175D02*
X33537Y-25412D01*
X33537Y-25412D02*
X33275Y-25675D01*
X33537Y-24800D02*
X33787Y-24550D01*
X33537Y-25175D02*
X33537Y-24800D01*
X34087Y-24450D02*
X33987Y-24550D01*
X34084Y-23646D02*
X34084Y-23032D01*
X34084Y-23996D02*
X34087Y-24000D01*
X34084Y-23646D02*
X34084Y-23996D01*
X34087Y-24000D02*
X34087Y-24450D01*
X17937Y-10700D02*
X17937Y-11396D01*
X17937Y-11396D02*
X17941Y-11400D01*
X8537Y-12100D02*
X8500Y-12100D01*
X27589Y-20473D02*
X28126Y-20473D01*
X28126Y-20473D02*
X28375Y-20225D01*
X28487Y-24175D02*
X28475Y-24175D01*
X28475Y-24175D02*
X28050Y-23750D01*
X29143Y-23843D02*
X29143Y-24106D01*
X29143Y-24106D02*
X29187Y-24150D01*
X26787Y-23550D02*
X27737Y-23550D01*
X27737Y-23550D02*
X27937Y-23750D01*
X27937Y-23750D02*
X28050Y-23750D01*
X29187Y-24150D02*
X29337Y-24300D01*
X28487Y-24550D02*
X28487Y-24175D01*
X29337Y-24300D02*
X29337Y-24550D01*
X29337Y-24550D02*
X29187Y-24700D01*
X29187Y-24700D02*
X28637Y-24700D01*
X28637Y-24700D02*
X28487Y-24550D01*
X29361Y-23626D02*
X29187Y-23800D01*
X29361Y-23032D02*
X29361Y-23626D01*
X29187Y-23800D02*
X29143Y-23843D01*
X29755Y-24517D02*
X29755Y-24782D01*
X29755Y-24782D02*
X29687Y-24850D01*
X29755Y-24232D02*
X29755Y-24517D01*
X29755Y-23882D02*
X29755Y-24232D01*
X29755Y-23882D02*
X29755Y-23032D01*
X29687Y-24850D02*
X29537Y-25000D01*
X29537Y-25000D02*
X29087Y-25000D01*
X29200Y-11900D02*
X29200Y-12350D01*
X29200Y-12350D02*
X29150Y-12400D01*
X29205Y-12455D02*
X29150Y-12400D01*
X29205Y-12455D02*
X29205Y-12800D01*
X33325Y-20925D02*
X33325Y-20975D01*
X33675Y-21325D02*
X33925Y-21325D01*
X33325Y-20975D02*
X33675Y-21325D01*
X34049Y-19100D02*
X35537Y-19100D01*
X33725Y-19425D02*
X34049Y-19100D01*
X33725Y-19825D02*
X33725Y-19425D01*
X33325Y-20225D02*
X33725Y-19825D01*
X33325Y-20925D02*
X33325Y-20225D01*
X33925Y-21325D02*
X34562Y-21325D01*
X35293Y-21900D02*
X35137Y-21900D01*
X35137Y-21900D02*
X34562Y-21325D01*
X34981Y-21744D02*
X35137Y-21900D01*
X34981Y-21744D02*
X34787Y-21550D01*
X35137Y-19100D02*
X35537Y-19100D01*
X35293Y-21900D02*
X35637Y-22244D01*
X36053Y-22244D02*
X35637Y-22244D01*
X33875Y-21125D02*
X34625Y-21125D01*
X35325Y-21700D02*
X35200Y-21700D01*
X35437Y-21700D02*
X35325Y-21700D01*
X35588Y-21851D02*
X35437Y-21700D01*
X35737Y-21851D02*
X35588Y-21851D01*
X35737Y-21851D02*
X36053Y-21851D01*
X34625Y-21125D02*
X35200Y-21700D01*
X33775Y-21125D02*
X33525Y-20875D01*
X33525Y-20875D02*
X33525Y-20325D01*
X33525Y-20325D02*
X33925Y-19925D01*
X33925Y-19925D02*
X33925Y-19625D01*
X33925Y-19625D02*
X34149Y-19400D01*
X34149Y-19400D02*
X35337Y-19400D01*
X33875Y-21125D02*
X33775Y-21125D01*
X30705Y-12800D02*
X30705Y-12405D01*
X30705Y-12405D02*
X30700Y-12400D01*
X30700Y-12400D02*
X30700Y-11900D01*
X32205Y-12800D02*
X32205Y-12405D01*
X32205Y-12405D02*
X32200Y-12400D01*
X32200Y-12400D02*
X32200Y-11900D01*
X36937Y-21000D02*
X37137Y-21000D01*
X36571Y-20866D02*
X36703Y-20866D01*
X36837Y-21000D02*
X36937Y-21000D01*
X36703Y-20866D02*
X36837Y-21000D01*
X36571Y-20866D02*
X36571Y-20866D01*
X36503Y-20866D02*
X36571Y-20866D01*
X36503Y-20866D02*
X36053Y-20866D01*
X33700Y-11900D02*
X33700Y-12350D01*
X33700Y-12350D02*
X33650Y-12400D01*
X33705Y-12405D02*
X33700Y-12400D01*
X33705Y-12405D02*
X33705Y-12800D01*
X33700Y-12400D02*
X33650Y-12400D01*
X37037Y-21200D02*
X36737Y-21200D01*
X36600Y-21063D02*
X36737Y-21200D01*
X36053Y-21063D02*
X36437Y-21063D01*
X36437Y-21063D02*
X36600Y-21063D01*
X37037Y-21200D02*
X37237Y-21400D01*
X37237Y-21400D02*
X37337Y-21400D01*
X35205Y-12800D02*
X35205Y-12405D01*
X35205Y-12405D02*
X35200Y-12400D01*
X35200Y-12400D02*
X35200Y-11900D01*
X29951Y-23032D02*
X29951Y-24213D01*
X30087Y-24350D02*
X29951Y-24213D01*
X36700Y-12705D02*
X36605Y-12800D01*
X36605Y-12995D02*
X36605Y-12800D01*
X36605Y-12995D02*
X36400Y-13200D01*
X36655Y-12800D02*
X36655Y-12595D01*
X36900Y-12350D02*
X36900Y-11900D01*
X36655Y-12595D02*
X36900Y-12350D01*
X32625Y-23925D02*
X32425Y-24125D01*
X32737Y-24687D02*
X32737Y-25200D01*
X32425Y-24375D02*
X32737Y-24687D01*
X32425Y-24125D02*
X32425Y-24375D01*
X32625Y-23925D02*
X32725Y-23825D01*
X32903Y-23475D02*
X32903Y-23746D01*
X32903Y-23746D02*
X32825Y-23825D01*
X32825Y-23825D02*
X32725Y-23825D01*
X32903Y-23032D02*
X32903Y-23475D01*
X32903Y-23475D02*
X32903Y-23534D01*
X31437Y-26700D02*
X31637Y-26700D01*
X32737Y-25200D02*
X32437Y-25500D01*
X31637Y-26700D02*
X31837Y-26500D01*
X31837Y-26500D02*
X31837Y-26300D01*
X31837Y-26300D02*
X32437Y-25700D01*
X32437Y-25700D02*
X32437Y-25500D01*
X32903Y-23032D02*
X32903Y-23534D01*
X38100Y-11900D02*
X38100Y-12350D01*
X38100Y-12350D02*
X38050Y-12400D01*
X38105Y-12455D02*
X38050Y-12400D01*
X38105Y-12455D02*
X38105Y-12800D01*
X33100Y-24149D02*
X32850Y-24400D01*
X33100Y-23032D02*
X33100Y-24149D01*
X39605Y-13045D02*
X39450Y-13200D01*
X39450Y-13200D02*
X39250Y-13200D01*
X39605Y-12800D02*
X39605Y-13045D01*
X39600Y-11900D02*
X39600Y-12795D01*
X39600Y-12795D02*
X39605Y-12800D01*
X33297Y-23032D02*
X33297Y-24597D01*
X33297Y-24597D02*
X33300Y-24600D01*
X37167Y-20670D02*
X37237Y-20600D01*
X37167Y-20670D02*
X36053Y-20670D01*
X35037Y-27300D02*
X36487Y-27300D01*
X34837Y-27500D02*
X35037Y-27300D01*
X34837Y-27600D02*
X34837Y-27500D01*
X34537Y-27900D02*
X34837Y-27600D01*
X33775Y-27900D02*
X34537Y-27900D01*
X37237Y-25950D02*
X36737Y-26450D01*
X36737Y-26450D02*
X36737Y-27050D01*
X36737Y-27050D02*
X36487Y-27300D01*
X37237Y-25900D02*
X37237Y-25950D01*
X33037Y-27900D02*
X32537Y-28400D01*
X33775Y-27900D02*
X33037Y-27900D01*
X35110Y-20473D02*
X34837Y-20200D01*
X36053Y-20473D02*
X35110Y-20473D01*
X23737Y-29900D02*
X23537Y-29700D01*
X29437Y-29900D02*
X23737Y-29900D01*
X30337Y-29800D02*
X29537Y-29800D01*
X36037Y-28700D02*
X36225Y-28512D01*
X23437Y-29600D02*
X23537Y-29700D01*
X23437Y-29600D02*
X23337Y-29600D01*
X31037Y-28700D02*
X30637Y-29100D01*
X30637Y-29100D02*
X30637Y-29500D01*
X30637Y-29500D02*
X30337Y-29800D01*
X36037Y-28700D02*
X31037Y-28700D01*
X29537Y-29800D02*
X29437Y-29900D01*
X35313Y-20276D02*
X36053Y-20276D01*
X35313Y-20276D02*
X35237Y-20200D01*
X36725Y-27825D02*
X36225Y-28325D01*
X36225Y-28325D02*
X36225Y-28512D01*
X37025Y-27825D02*
X36725Y-27825D01*
X28737Y-17200D02*
X28537Y-17000D01*
X28537Y-17000D02*
X28467Y-16930D01*
X28037Y-22400D02*
X27887Y-22550D01*
X28737Y-20300D02*
X29137Y-19900D01*
X29137Y-19300D02*
X28737Y-18900D01*
X29137Y-19900D02*
X29137Y-19300D01*
X28737Y-17500D02*
X29137Y-17900D01*
X28737Y-18700D02*
X28737Y-18900D01*
X28467Y-16930D02*
X27589Y-16930D01*
X28737Y-17500D02*
X28737Y-17200D01*
X29137Y-17900D02*
X29137Y-18300D01*
X29137Y-18300D02*
X28737Y-18700D01*
X27487Y-22550D02*
X27437Y-22600D01*
X28737Y-20300D02*
X28037Y-21000D01*
X28037Y-21000D02*
X28037Y-22400D01*
X27887Y-22550D02*
X27487Y-22550D01*
X36549Y-19488D02*
X36662Y-19375D01*
X36712Y-19375D02*
X36662Y-19375D01*
X36712Y-19375D02*
X37112Y-19375D01*
X37337Y-19100D02*
X37537Y-18900D01*
X37537Y-18900D02*
X37637Y-18900D01*
X37337Y-19150D02*
X37337Y-19100D01*
X37112Y-19375D02*
X37337Y-19150D01*
X36053Y-19488D02*
X36549Y-19488D01*
X37700Y-15487D02*
X37637Y-15550D01*
X37700Y-15050D02*
X37700Y-15487D01*
X37750Y-15000D02*
X37700Y-15050D01*
X37037Y-15800D02*
X37087Y-15750D01*
X36053Y-15946D02*
X36637Y-15946D01*
X36637Y-15946D02*
X36791Y-15946D01*
X36891Y-15946D02*
X37037Y-15800D01*
X36791Y-15946D02*
X36891Y-15946D01*
X37087Y-15750D02*
X37287Y-15750D01*
X37187Y-15750D02*
X37287Y-15750D01*
X37287Y-15750D02*
X37437Y-15750D01*
X37437Y-15750D02*
X37637Y-15550D01*
X37637Y-15550D02*
X37637Y-15550D01*
X37187Y-15150D02*
X37350Y-15400D01*
X37137Y-15150D02*
X36987Y-15150D01*
X37137Y-15150D02*
X37187Y-15150D01*
X36053Y-15552D02*
X36485Y-15552D01*
X36887Y-15150D02*
X36485Y-15552D01*
X36987Y-15150D02*
X36887Y-15150D01*
X34137Y-17000D02*
X34037Y-17000D01*
X34337Y-16800D02*
X34137Y-17000D01*
X34037Y-17000D02*
X33937Y-17100D01*
X33337Y-15700D02*
X33637Y-15700D01*
X33100Y-14568D02*
X33100Y-15462D01*
X33100Y-15462D02*
X33137Y-15500D01*
X33337Y-15700D02*
X33137Y-15500D01*
X33637Y-15700D02*
X34337Y-16400D01*
X34337Y-16400D02*
X34337Y-16800D01*
X22337Y-19300D02*
X22950Y-19300D01*
X21737Y-19100D02*
X21837Y-19200D01*
X21437Y-17500D02*
X21737Y-17800D01*
X20982Y-17500D02*
X21437Y-17500D01*
X21937Y-19300D02*
X22087Y-19300D01*
X21837Y-19200D02*
X21937Y-19300D01*
X22337Y-19300D02*
X22087Y-19300D01*
X21737Y-17800D02*
X21737Y-19100D01*
X25300Y-21000D02*
X25300Y-21000D01*
X24650Y-21000D02*
X25300Y-21000D01*
X22950Y-19300D02*
X24650Y-21000D01*
X25900Y-21000D02*
X25300Y-21000D01*
X25300Y-21000D02*
X24650Y-21000D01*
X26037Y-21000D02*
X26494Y-21457D01*
X25900Y-21000D02*
X26037Y-21000D01*
X26494Y-21457D02*
X27589Y-21457D01*
X25750Y-21200D02*
X24550Y-21200D01*
X22750Y-19500D02*
X22750Y-19500D01*
X22750Y-19500D02*
X22750Y-19500D01*
X22850Y-19500D02*
X22750Y-19500D01*
X24550Y-21200D02*
X22850Y-19500D01*
X21537Y-17900D02*
X21537Y-19300D01*
X21437Y-17815D02*
X21452Y-17815D01*
X21452Y-17815D02*
X21537Y-17900D01*
X21737Y-19500D02*
X21837Y-19500D01*
X21637Y-19400D02*
X21737Y-19500D01*
X22037Y-19500D02*
X21837Y-19500D01*
X20982Y-17815D02*
X21437Y-17815D01*
X22037Y-19500D02*
X22750Y-19500D01*
X21537Y-19300D02*
X21637Y-19400D01*
X25937Y-21200D02*
X25750Y-21200D01*
X25937Y-21200D02*
X26387Y-21650D01*
X27589Y-21654D02*
X26391Y-21654D01*
X26391Y-21654D02*
X26387Y-21650D01*
X26391Y-21654D02*
X26387Y-21650D01*
X26537Y-15500D02*
X26537Y-15212D01*
X28300Y-13450D02*
X28600Y-13450D01*
X26537Y-15212D02*
X28300Y-13450D01*
X26537Y-15550D02*
X26537Y-15500D01*
X28600Y-13450D02*
X28600Y-13450D01*
X28600Y-13450D02*
X28737Y-13450D01*
X35937Y-14050D02*
X35937Y-14712D01*
X35937Y-14712D02*
X35124Y-15525D01*
X34281Y-14943D02*
X34437Y-15100D01*
X34537Y-15200D02*
X34537Y-15350D01*
X34712Y-15525D02*
X35124Y-15525D01*
X34712Y-15525D02*
X34537Y-15350D01*
X34437Y-15100D02*
X34537Y-15200D01*
X34281Y-14568D02*
X34281Y-14943D01*
X34281Y-14568D02*
X34281Y-14893D01*
X35637Y-13500D02*
X35137Y-13500D01*
X35137Y-13500D02*
X34937Y-13300D01*
X34937Y-13300D02*
X33437Y-13300D01*
X33437Y-13300D02*
X33287Y-13450D01*
X33287Y-13450D02*
X28737Y-13450D01*
X35937Y-14050D02*
X35937Y-13700D01*
X35937Y-13700D02*
X35737Y-13500D01*
X35737Y-13500D02*
X35637Y-13500D01*
X26137Y-17200D02*
X26137Y-17000D01*
X25390Y-17500D02*
X25737Y-17500D01*
X25837Y-17500D02*
X26137Y-17200D01*
X26537Y-16600D02*
X26537Y-16500D01*
X25737Y-17500D02*
X25837Y-17500D01*
X26537Y-16500D02*
X26537Y-15550D01*
X26137Y-17000D02*
X26537Y-16600D01*
X30537Y-13450D02*
X28737Y-13450D01*
X23050Y-18450D02*
X23300Y-18450D01*
X23300Y-18450D02*
X23500Y-18650D01*
X23700Y-18850D02*
X23500Y-18650D01*
X25737Y-20600D02*
X26237Y-20600D01*
X26700Y-21063D02*
X26237Y-20600D01*
X27589Y-21063D02*
X26700Y-21063D01*
X24737Y-19600D02*
X24450Y-19600D01*
X24737Y-19600D02*
X25737Y-20600D01*
X23700Y-18850D02*
X24450Y-19600D01*
X22037Y-18100D02*
X22300Y-18100D01*
X22300Y-18100D02*
X22650Y-18450D01*
X23050Y-18450D02*
X22650Y-18450D01*
X20037Y-17200D02*
X20052Y-17185D01*
X20052Y-17185D02*
X20982Y-17185D01*
X22437Y-19100D02*
X22237Y-18900D01*
X22437Y-19100D02*
X22837Y-19100D01*
X22237Y-18900D02*
X22037Y-18900D01*
X22837Y-19100D02*
X23237Y-19100D01*
X20982Y-16870D02*
X20107Y-16870D01*
X20107Y-16870D02*
X20037Y-16800D01*
X26487Y-19400D02*
X26337Y-19400D01*
X26187Y-19250D02*
X26187Y-19100D01*
X26337Y-19400D02*
X26187Y-19250D01*
X26487Y-19400D02*
X26787Y-19400D01*
X26787Y-19400D02*
X26837Y-19400D01*
X26837Y-19400D02*
X27122Y-19685D01*
X27589Y-19685D02*
X27122Y-19685D01*
X25390Y-16240D02*
X25697Y-16240D01*
X25697Y-16240D02*
X26037Y-15900D01*
X26437Y-17900D02*
X26437Y-17842D01*
X26437Y-17842D02*
X26758Y-17521D01*
X27237Y-17521D02*
X26758Y-17521D01*
X27589Y-17521D02*
X27237Y-17521D01*
X27589Y-15749D02*
X27186Y-15749D01*
X27186Y-15749D02*
X27037Y-15600D01*
X21897Y-16240D02*
X22337Y-15800D01*
X21897Y-16240D02*
X20982Y-16240D01*
X27589Y-17915D02*
X28352Y-17915D01*
X28352Y-17915D02*
X28537Y-18100D01*
X20982Y-16555D02*
X21982Y-16555D01*
X21982Y-16555D02*
X22337Y-16200D01*
X28522Y-18115D02*
X28537Y-18100D01*
X28522Y-18115D02*
X28537Y-18100D01*
X28537Y-18100D02*
X28522Y-18115D01*
X25800Y-21400D02*
X24450Y-21400D01*
X24450Y-21400D02*
X22750Y-19700D01*
X20982Y-18130D02*
X20607Y-18130D01*
X21337Y-19700D02*
X21437Y-19700D01*
X20437Y-18800D02*
X21337Y-19700D01*
X20437Y-18300D02*
X20437Y-18800D01*
X20607Y-18130D02*
X20437Y-18300D01*
X21737Y-19700D02*
X21437Y-19700D01*
X21937Y-19700D02*
X21737Y-19700D01*
X25800Y-21400D02*
X25837Y-21400D01*
X25837Y-21400D02*
X26288Y-21851D01*
X22750Y-19700D02*
X21937Y-19700D01*
X26288Y-21851D02*
X27589Y-21851D01*
X27589Y-22244D02*
X27043Y-22244D01*
X27043Y-22244D02*
X26687Y-22600D01*
X26637Y-22950D02*
X26687Y-22900D01*
X26687Y-22900D02*
X26687Y-22600D01*
X26537Y-19100D02*
X26537Y-19000D01*
X26537Y-19000D02*
X26337Y-18800D01*
X25987Y-18800D02*
X25887Y-18700D01*
X26337Y-18800D02*
X25987Y-18800D01*
X25717Y-18130D02*
X25767Y-18130D01*
X25390Y-18130D02*
X25717Y-18130D01*
X25887Y-18250D02*
X25887Y-18700D01*
X25767Y-18130D02*
X25887Y-18250D01*
X26537Y-19000D02*
X26537Y-19100D01*
X26737Y-15850D02*
X26737Y-15312D01*
X26737Y-15312D02*
X28400Y-13650D01*
X28650Y-13650D02*
X28650Y-13650D01*
X28400Y-13650D02*
X28650Y-13650D01*
X26337Y-17300D02*
X26337Y-17100D01*
X26337Y-17100D02*
X26737Y-16700D01*
X25722Y-17815D02*
X25390Y-17815D01*
X25822Y-17815D02*
X26337Y-17300D01*
X26737Y-16700D02*
X26737Y-16300D01*
X25722Y-17815D02*
X25822Y-17815D01*
X26737Y-16300D02*
X26737Y-15850D01*
X35069Y-13900D02*
X35069Y-13731D01*
X33537Y-13500D02*
X33387Y-13650D01*
X34837Y-13500D02*
X33537Y-13500D01*
X35069Y-13731D02*
X34837Y-13500D01*
X35069Y-13931D02*
X35069Y-13900D01*
X35069Y-14131D02*
X35069Y-13931D01*
X28837Y-13650D02*
X28650Y-13650D01*
X33387Y-13650D02*
X32637Y-13650D01*
X32637Y-13650D02*
X32537Y-13650D01*
X32537Y-13650D02*
X31437Y-13650D01*
X31437Y-13650D02*
X28837Y-13650D01*
X35069Y-14568D02*
X35069Y-14131D01*
X28837Y-13650D02*
X33187Y-13650D01*
X26337Y-15550D02*
X26337Y-15062D01*
X26337Y-15062D02*
X28562Y-12837D01*
X28562Y-12837D02*
X28562Y-12575D01*
X28587Y-12550D02*
X28562Y-12575D01*
X28562Y-12575D02*
X28587Y-12550D01*
X28562Y-12837D02*
X28562Y-12575D01*
X25390Y-17185D02*
X25722Y-17185D01*
X25722Y-17185D02*
X25822Y-17185D01*
X25852Y-17185D02*
X25937Y-17100D01*
X26337Y-16500D02*
X26337Y-15550D01*
X25822Y-17185D02*
X25852Y-17185D01*
X25937Y-16900D02*
X26337Y-16500D01*
X25937Y-17100D02*
X25937Y-16900D01*
X34086Y-15200D02*
X34086Y-15200D01*
X34137Y-15200D02*
X34086Y-15200D01*
X34187Y-15250D02*
X34137Y-15200D01*
X34084Y-14568D02*
X34084Y-15053D01*
X34087Y-15250D02*
X34086Y-15200D01*
X34086Y-15200D02*
X34084Y-15053D01*
X24137Y-18100D02*
X24137Y-17200D01*
X24467Y-16870D02*
X25390Y-16870D01*
X24137Y-17200D02*
X24467Y-16870D01*
X24437Y-18700D02*
X24137Y-18400D01*
X24137Y-18400D02*
X24137Y-18100D01*
X24437Y-18700D02*
X24687Y-18950D01*
X26813Y-20276D02*
X26537Y-20000D01*
X26537Y-20000D02*
X26037Y-20000D01*
X26037Y-20000D02*
X24987Y-18950D01*
X26813Y-20276D02*
X27589Y-20276D01*
X24687Y-18950D02*
X24987Y-18950D01*
X25390Y-16555D02*
X25982Y-16555D01*
X26037Y-16300D02*
X26037Y-16500D01*
X26037Y-16500D02*
X25982Y-16555D01*
X26237Y-19600D02*
X25837Y-19200D01*
X25837Y-19200D02*
X25837Y-19100D01*
X27019Y-19882D02*
X26737Y-19600D01*
X26737Y-19600D02*
X26337Y-19600D01*
X27019Y-19882D02*
X27589Y-19882D01*
X26337Y-19600D02*
X26237Y-19600D01*
X27589Y-19882D02*
X28032Y-19882D01*
X28032Y-19882D02*
X28125Y-19975D01*
X24600Y-14350D02*
X22600Y-14350D01*
X22400Y-14550D02*
X22400Y-14537D01*
X22600Y-14350D02*
X22400Y-14550D01*
X27589Y-16734D02*
X27171Y-16734D01*
X27037Y-16600D02*
X27037Y-16000D01*
X27171Y-16734D02*
X27037Y-16600D01*
X22400Y-14537D02*
X22237Y-14700D01*
X27589Y-16734D02*
X27237Y-16734D01*
X21642Y-15295D02*
X22237Y-14700D01*
X21642Y-15295D02*
X20982Y-15295D01*
X22237Y-14700D02*
X22287Y-14650D01*
X24737Y-15400D02*
X23712Y-15400D01*
X24737Y-15400D02*
X24947Y-15610D01*
X25390Y-15610D02*
X24947Y-15610D01*
X22812Y-17125D02*
X22862Y-17175D01*
X22812Y-16300D02*
X22812Y-17125D01*
X23712Y-15400D02*
X22812Y-16300D01*
X23737Y-18600D02*
X24037Y-18900D01*
X24537Y-19400D02*
X24837Y-19400D01*
X27589Y-20866D02*
X26803Y-20866D01*
X25837Y-20400D02*
X24837Y-19400D01*
X26337Y-20400D02*
X25837Y-20400D01*
X26803Y-20866D02*
X26337Y-20400D01*
X23287Y-17600D02*
X22987Y-17300D01*
X23737Y-18050D02*
X23287Y-17600D01*
X22987Y-17300D02*
X22937Y-17250D01*
X22937Y-17250D02*
X22862Y-17175D01*
X24537Y-19400D02*
X24037Y-18900D01*
X23737Y-18600D02*
X23737Y-18050D01*
X28137Y-12800D02*
X28137Y-13007D01*
X26150Y-14995D02*
X26150Y-15127D01*
X28137Y-13007D02*
X26150Y-14995D01*
X25982Y-15295D02*
X26150Y-15127D01*
X25390Y-15295D02*
X25982Y-15295D01*
X33691Y-14568D02*
X33691Y-13953D01*
X33691Y-13953D02*
X33687Y-13950D01*
X20415Y-10572D02*
X20982Y-10572D01*
X20237Y-10600D02*
X20387Y-10600D01*
X20415Y-10572D02*
X20387Y-10600D01*
X32706Y-16118D02*
X33237Y-16700D01*
X32706Y-15918D02*
X32706Y-16118D01*
X32706Y-14568D02*
X32706Y-15918D01*
X20954Y-10600D02*
X20982Y-10572D01*
X20385Y-11202D02*
X20982Y-11202D01*
X20385Y-11202D02*
X20187Y-11400D01*
X32509Y-14568D02*
X32509Y-16171D01*
X32509Y-16321D02*
X32837Y-16700D01*
X32509Y-16171D02*
X32509Y-16321D01*
X29987Y-14050D02*
X29987Y-13950D01*
X30148Y-14210D02*
X29987Y-14050D01*
X30148Y-14568D02*
X30148Y-14210D01*
X24945Y-13092D02*
X24920Y-13092D01*
X25390Y-13092D02*
X24945Y-13092D01*
X24787Y-13225D02*
X24262Y-13225D01*
X24920Y-13092D02*
X24787Y-13225D01*
X24262Y-13225D02*
X24137Y-13100D01*
X24145Y-13092D02*
X24137Y-13100D01*
X24537Y-12700D02*
X24537Y-12950D01*
X24775Y-12462D02*
X25390Y-12462D01*
X24775Y-12462D02*
X24537Y-12700D01*
X29755Y-14568D02*
X29755Y-14117D01*
X29587Y-13950D02*
X29755Y-14117D01*
X24240Y-12147D02*
X23737Y-12700D01*
X25390Y-12147D02*
X24240Y-12147D01*
X35265Y-14568D02*
X35265Y-14072D01*
X35265Y-14072D02*
X35437Y-13800D01*
X24854Y-11517D02*
X24737Y-11400D01*
X25390Y-11517D02*
X24854Y-11517D01*
X34872Y-15034D02*
X34872Y-14568D01*
X34937Y-15200D02*
X34872Y-15034D01*
X25390Y-11202D02*
X25935Y-11202D01*
X25935Y-11202D02*
X25937Y-11200D01*
X27037Y-11200D02*
X27337Y-11500D01*
X25937Y-11200D02*
X27037Y-11200D01*
X33494Y-14568D02*
X33494Y-15106D01*
X33494Y-15106D02*
X33587Y-15200D01*
X23365Y-10572D02*
X22865Y-10572D01*
X25390Y-10572D02*
X23365Y-10572D01*
X22865Y-10572D02*
X22537Y-10900D01*
X32037Y-14000D02*
X32337Y-14000D01*
X31919Y-14118D02*
X32037Y-14000D01*
X31919Y-14568D02*
X31919Y-14118D01*
X32313Y-14568D02*
X32313Y-16475D01*
X32313Y-16475D02*
X32316Y-16479D01*
X32316Y-16528D02*
X32437Y-16700D01*
X32316Y-16479D02*
X32316Y-16528D01*
X20520Y-11517D02*
X20982Y-11517D01*
X20337Y-11700D02*
X20337Y-11800D01*
X20520Y-11517D02*
X20337Y-11700D01*
X22037Y-13300D02*
X22037Y-12550D01*
X21634Y-12147D02*
X22037Y-12550D01*
X22437Y-13700D02*
X22537Y-13800D01*
X22537Y-13800D02*
X22537Y-14050D01*
X22037Y-13300D02*
X22437Y-13700D01*
X32116Y-16400D02*
X32116Y-16621D01*
X32116Y-16621D02*
X32037Y-16700D01*
X32116Y-16621D02*
X32037Y-16700D01*
X20982Y-12147D02*
X21634Y-12147D01*
X21634Y-12147D02*
X21637Y-12150D01*
X32116Y-14568D02*
X32116Y-16400D01*
X21634Y-12147D02*
X21637Y-12150D01*
X21637Y-12150D02*
X21637Y-12147D01*
X21634Y-12147D02*
X21637Y-12147D01*
X21637Y-12147D02*
X20982Y-12147D01*
X19837Y-12800D02*
X20037Y-12600D01*
X20475Y-12462D02*
X20982Y-12462D01*
X20475Y-12462D02*
X20337Y-12600D01*
X20037Y-12600D02*
X20337Y-12600D01*
X19837Y-13900D02*
X19837Y-12800D01*
X19737Y-14000D02*
X19837Y-13900D01*
X20575Y-12462D02*
X20982Y-12462D01*
X33137Y-18300D02*
X33137Y-17600D01*
X33137Y-17600D02*
X33037Y-17500D01*
X31737Y-16800D02*
X31737Y-15700D01*
X31737Y-16800D02*
X31737Y-16900D01*
X32037Y-17200D02*
X32737Y-17200D01*
X32737Y-17200D02*
X33037Y-17500D01*
X31737Y-16900D02*
X32037Y-17200D01*
X31723Y-14568D02*
X31723Y-15685D01*
X31737Y-15700D02*
X31723Y-15685D01*
X31526Y-16800D02*
X31526Y-17788D01*
X31937Y-18200D02*
X32737Y-18200D01*
X31526Y-17788D02*
X31937Y-18200D01*
X31526Y-16750D02*
X31526Y-16800D01*
X20545Y-13092D02*
X20982Y-13092D01*
X20545Y-13092D02*
X20337Y-13300D01*
X20337Y-13300D02*
X20137Y-13300D01*
X31526Y-16761D02*
X31526Y-16750D01*
X31526Y-16750D02*
X31526Y-14568D01*
X30739Y-14568D02*
X30739Y-15251D01*
X30787Y-15300D02*
X30739Y-15251D01*
X30787Y-16150D02*
X30787Y-15300D01*
X31237Y-16600D02*
X30787Y-16150D01*
X21744Y-13407D02*
X21830Y-13407D01*
X21744Y-13407D02*
X20982Y-13407D01*
X21830Y-13407D02*
X22137Y-13714D01*
X22137Y-13714D02*
X22137Y-14050D01*
X22137Y-13900D02*
X22137Y-14050D01*
X21724Y-14037D02*
X20982Y-14037D01*
X21724Y-14037D02*
X21737Y-14050D01*
X30542Y-15354D02*
X30542Y-14568D01*
X30587Y-15400D02*
X30542Y-15354D01*
X30587Y-16450D02*
X30587Y-15400D01*
X30737Y-16600D02*
X30587Y-16450D01*
X31329Y-14158D02*
X31537Y-13950D01*
X31329Y-14568D02*
X31329Y-14158D01*
X24587Y-14037D02*
X24524Y-14037D01*
X24087Y-13600D02*
X24087Y-13500D01*
X24524Y-14037D02*
X24087Y-13600D01*
X24574Y-14037D02*
X24587Y-14037D01*
X24587Y-14037D02*
X25390Y-14037D01*
X24980Y-13407D02*
X24887Y-13500D01*
X25390Y-13407D02*
X24980Y-13407D01*
X24887Y-13500D02*
X24537Y-13500D01*
X24587Y-13450D02*
X24537Y-13500D01*
X31141Y-13945D02*
X31137Y-13950D01*
X31137Y-13950D02*
X31141Y-13945D01*
X31133Y-14568D02*
X31137Y-13950D01*
X22612Y-17000D02*
X22612Y-17375D01*
X22612Y-17375D02*
X22737Y-17500D01*
X23437Y-18200D02*
X22737Y-17500D01*
X22612Y-17000D02*
X22612Y-15625D01*
X22612Y-15625D02*
X22487Y-15500D01*
X22337Y-15500D02*
X22487Y-15500D01*
X22137Y-15550D02*
X22187Y-15500D01*
X22187Y-15500D02*
X22337Y-15500D01*
X20982Y-15925D02*
X21762Y-15925D01*
X21762Y-15925D02*
X22137Y-15550D01*
X22462Y-15500D02*
X22587Y-15625D01*
X22337Y-15500D02*
X22462Y-15500D01*
X24887Y-18750D02*
X24787Y-18750D01*
X24787Y-18750D02*
X24437Y-18400D01*
X24437Y-18400D02*
X24437Y-18300D01*
X24937Y-18750D02*
X24887Y-18750D01*
X25087Y-18750D02*
X24937Y-18750D01*
X26137Y-19800D02*
X25087Y-18750D01*
X26637Y-19800D02*
X26137Y-19800D01*
X26916Y-20079D02*
X26637Y-19800D01*
X27589Y-20079D02*
X26916Y-20079D01*
X24437Y-18300D02*
X24437Y-18400D01*
X24437Y-18350D02*
X24437Y-18300D01*
X23650Y-19100D02*
X23637Y-19100D01*
X23637Y-19100D02*
X23243Y-18706D01*
X23650Y-19100D02*
X24350Y-19800D01*
X22037Y-18500D02*
X22300Y-18500D01*
X22300Y-18500D02*
X22500Y-18700D01*
X20237Y-14900D02*
X20087Y-14900D01*
X20512Y-14725D02*
X20572Y-14665D01*
X20982Y-14665D02*
X20572Y-14665D01*
X20337Y-14900D02*
X20237Y-14900D01*
X20512Y-14725D02*
X20337Y-14900D01*
X19987Y-15950D02*
X19937Y-16000D01*
X19987Y-15000D02*
X19987Y-15950D01*
X20087Y-14900D02*
X19987Y-15000D01*
X26597Y-21260D02*
X26137Y-20800D01*
X24350Y-19800D02*
X24637Y-19800D01*
X26137Y-20800D02*
X26037Y-20800D01*
X24637Y-19800D02*
X25637Y-20800D01*
X25637Y-20800D02*
X26037Y-20800D01*
X26597Y-21260D02*
X27589Y-21260D01*
X23437Y-18900D02*
X23243Y-18706D01*
X23243Y-18706D02*
X23237Y-18700D01*
X23237Y-18700D02*
X22500Y-18700D01*
X23487Y-18950D02*
X23437Y-18900D01*
X19537Y-16500D02*
X19537Y-16400D01*
X19537Y-16400D02*
X19937Y-16000D01*
X19537Y-18300D02*
X19537Y-16500D01*
X22037Y-18500D02*
X22087Y-18500D01*
X26137Y-18200D02*
X26137Y-17800D01*
X20982Y-15610D02*
X21727Y-15610D01*
X21727Y-15610D02*
X22187Y-15150D01*
X22187Y-15150D02*
X22587Y-15150D01*
X22587Y-15150D02*
X22687Y-15250D01*
X22687Y-15250D02*
X22687Y-15225D01*
X27589Y-17127D02*
X27210Y-17127D01*
X27210Y-17127D02*
X27037Y-17300D01*
X27037Y-17300D02*
X26637Y-17300D01*
X26237Y-18300D02*
X26237Y-18500D01*
X26137Y-18200D02*
X26237Y-18300D01*
X26537Y-17400D02*
X26637Y-17300D01*
X26137Y-17800D02*
X26537Y-17400D01*
X24237Y-18800D02*
X23937Y-18500D01*
X23937Y-18500D02*
X23937Y-17950D01*
X24887Y-15150D02*
X23187Y-15150D01*
X23187Y-15150D02*
X23037Y-15300D01*
X25390Y-14980D02*
X25057Y-14980D01*
X25057Y-14980D02*
X24887Y-15150D01*
X23187Y-17200D02*
X23137Y-17150D01*
X23187Y-17200D02*
X23487Y-17500D01*
X23487Y-17500D02*
X23637Y-17650D01*
X23937Y-17950D02*
X23637Y-17650D01*
X23087Y-17100D02*
X23087Y-16400D01*
X23137Y-17150D02*
X23087Y-17100D01*
X26907Y-20670D02*
X26437Y-20200D01*
X26907Y-20670D02*
X27589Y-20670D01*
X24887Y-19150D02*
X24587Y-19150D01*
X25937Y-20200D02*
X24887Y-19150D01*
X26437Y-20200D02*
X25937Y-20200D01*
X24237Y-18800D02*
X24587Y-19150D01*
X23057Y-15230D02*
X23037Y-15300D01*
X32903Y-15500D02*
X32903Y-15665D01*
X34037Y-16400D02*
X34037Y-16700D01*
X33537Y-15900D02*
X34037Y-16400D01*
X33237Y-15900D02*
X33537Y-15900D01*
X32903Y-14568D02*
X32903Y-15500D01*
X32903Y-15665D02*
X33137Y-15900D01*
X33137Y-15900D02*
X33237Y-15900D01*
X20537Y-15000D02*
X20962Y-15000D01*
X20287Y-15200D02*
X20537Y-15000D01*
X20962Y-15000D02*
X20982Y-14980D01*
X20307Y-15180D02*
X20287Y-15200D01*
X23937Y-25200D02*
X23937Y-25000D01*
X23937Y-25000D02*
X24237Y-24700D01*
X24237Y-24700D02*
X24537Y-24700D01*
X25287Y-26150D02*
X25087Y-26150D01*
X23937Y-25700D02*
X23937Y-25200D01*
X24037Y-25800D02*
X23937Y-25700D01*
X24737Y-25800D02*
X24037Y-25800D01*
X25087Y-26150D02*
X24737Y-25800D01*
X27237Y-26350D02*
X27437Y-26350D01*
X27237Y-26350D02*
X27187Y-26350D01*
X25587Y-26150D02*
X26387Y-26150D01*
X25587Y-26150D02*
X25287Y-26150D01*
X27187Y-26350D02*
X26587Y-26350D01*
X26587Y-26350D02*
X26387Y-26150D01*
X28087Y-26650D02*
X27787Y-26650D01*
X27487Y-26350D02*
X27787Y-26650D01*
X27437Y-26350D02*
X27487Y-26350D01*
X30337Y-20800D02*
X30737Y-20400D01*
X30737Y-17400D02*
X30537Y-17200D01*
X30737Y-20400D02*
X30737Y-17400D01*
X30337Y-21550D02*
X30437Y-21650D01*
X30337Y-20800D02*
X30337Y-21550D01*
X30137Y-16800D02*
X30537Y-17200D01*
X29951Y-14568D02*
X29951Y-15013D01*
X30137Y-15200D02*
X30137Y-16800D01*
X29951Y-15013D02*
X30137Y-15200D01*
X24437Y-24700D02*
X24537Y-24700D01*
X28087Y-26650D02*
X28287Y-26650D01*
X28287Y-25550D02*
X28287Y-25450D01*
X28587Y-25850D02*
X28287Y-25550D01*
X28587Y-26350D02*
X28587Y-25850D01*
X28287Y-26650D02*
X28587Y-26350D01*
X27837Y-26650D02*
X28087Y-26650D01*
X24950Y-22400D02*
X23637Y-22400D01*
X23637Y-22400D02*
X22812Y-21575D01*
X24950Y-22400D02*
X25237Y-22400D01*
X22037Y-20900D02*
X22487Y-20900D01*
X22812Y-21225D02*
X22487Y-20900D01*
X22812Y-21225D02*
X22812Y-21575D01*
X25537Y-22700D02*
X25537Y-22750D01*
X25237Y-22400D02*
X25537Y-22700D01*
X25587Y-24100D02*
X25537Y-24050D01*
X26387Y-24900D02*
X26287Y-24800D01*
X25587Y-24100D02*
X26287Y-24800D01*
X26387Y-24900D02*
X26387Y-24950D01*
X26387Y-25350D02*
X26387Y-24950D01*
X25537Y-24050D02*
X25537Y-22750D01*
X26387Y-25450D02*
X26387Y-25550D01*
X26787Y-25950D02*
X26387Y-25550D01*
X27887Y-25950D02*
X26787Y-25950D01*
X27887Y-25950D02*
X28037Y-26100D01*
X33837Y-25850D02*
X33687Y-25850D01*
X34478Y-24640D02*
X34478Y-23032D01*
X34437Y-25850D02*
X33837Y-25850D01*
X34787Y-25500D02*
X34437Y-25850D01*
X34787Y-24950D02*
X34787Y-25500D01*
X34478Y-24640D02*
X34787Y-24950D01*
X33687Y-25850D02*
X33037Y-26500D01*
X33037Y-26500D02*
X32637Y-26500D01*
X26387Y-25450D02*
X26387Y-25350D01*
X26387Y-25350D02*
X26387Y-25450D01*
X24950Y-22600D02*
X23537Y-22600D01*
X23537Y-22600D02*
X22637Y-21700D01*
X26487Y-25950D02*
X25187Y-25950D01*
X24137Y-25500D02*
X24137Y-25300D01*
X24237Y-25600D02*
X24137Y-25500D01*
X24837Y-25600D02*
X24237Y-25600D01*
X25187Y-25950D02*
X24837Y-25600D01*
X27837Y-26400D02*
X27637Y-26200D01*
X27887Y-26450D02*
X28187Y-26450D01*
X28187Y-26450D02*
X28387Y-26250D01*
X28387Y-26250D02*
X28387Y-25950D01*
X28387Y-25950D02*
X27887Y-25450D01*
X27887Y-25450D02*
X27837Y-25450D01*
X27837Y-26400D02*
X27887Y-26450D01*
X26687Y-26150D02*
X26487Y-25950D01*
X27587Y-26150D02*
X26687Y-26150D01*
X27637Y-26200D02*
X27587Y-26150D01*
X24237Y-25000D02*
X24437Y-25000D01*
X24137Y-25100D02*
X24237Y-25000D01*
X24887Y-22600D02*
X24950Y-22600D01*
X24950Y-22600D02*
X25137Y-22600D01*
X24437Y-25000D02*
X24737Y-25000D01*
X24737Y-25000D02*
X25337Y-24400D01*
X25337Y-22800D02*
X25337Y-24400D01*
X25137Y-22600D02*
X25337Y-22800D01*
X24137Y-25300D02*
X24137Y-25100D01*
X29537Y-21150D02*
X29537Y-21100D01*
X29637Y-22000D02*
X29537Y-21900D01*
X29537Y-21700D02*
X29537Y-21150D01*
X29537Y-21700D02*
X29537Y-21900D01*
X30137Y-20500D02*
X30137Y-20400D01*
X29537Y-21100D02*
X30137Y-20500D01*
X22637Y-21700D02*
X23337Y-22400D01*
X24737Y-22600D02*
X24887Y-22600D01*
X30537Y-18800D02*
X30537Y-17500D01*
X30137Y-19400D02*
X30137Y-19200D01*
X30137Y-19200D02*
X30537Y-18800D01*
X29937Y-16900D02*
X30337Y-17300D01*
X29558Y-14568D02*
X29558Y-14970D01*
X29937Y-15350D02*
X29937Y-16900D01*
X29558Y-14970D02*
X29937Y-15350D01*
X30337Y-17300D02*
X30537Y-17500D01*
X30137Y-20400D02*
X30137Y-19400D01*
X22337Y-21700D02*
X22237Y-21600D01*
X22037Y-21600D02*
X22237Y-21600D01*
X22337Y-21700D02*
X22637Y-21700D01*
X24887Y-22600D02*
X24787Y-22600D01*
X29658Y-21979D02*
X29637Y-22000D01*
X25987Y-26750D02*
X26087Y-26850D01*
X23337Y-26800D02*
X23287Y-26750D01*
X23287Y-26750D02*
X22937Y-26750D01*
X25987Y-26750D02*
X25087Y-26750D01*
X25087Y-26750D02*
X25037Y-26800D01*
X29737Y-19200D02*
X29737Y-19000D01*
X29737Y-19000D02*
X29937Y-18800D01*
X20237Y-24900D02*
X19337Y-24900D01*
X26237Y-27000D02*
X26337Y-27000D01*
X26337Y-27000D02*
X26387Y-27050D01*
X26087Y-26850D02*
X26237Y-27000D01*
X22087Y-26750D02*
X20237Y-24900D01*
X22937Y-26750D02*
X22087Y-26750D01*
X19337Y-24900D02*
X19037Y-24600D01*
X19037Y-24050D02*
X19037Y-24600D01*
X29112Y-21975D02*
X29037Y-22050D01*
X29164Y-15176D02*
X29164Y-14568D01*
X29537Y-17100D02*
X29937Y-17500D01*
X29937Y-17500D02*
X29937Y-18800D01*
X29537Y-15550D02*
X29537Y-17100D01*
X29164Y-15176D02*
X29537Y-15550D01*
X29737Y-20250D02*
X29112Y-20875D01*
X29737Y-19200D02*
X29737Y-20250D01*
X29112Y-20875D02*
X29112Y-21500D01*
X29112Y-21500D02*
X29112Y-21975D01*
X25037Y-26800D02*
X23337Y-26800D01*
X19037Y-24200D02*
X18737Y-24200D01*
X18737Y-24200D02*
X18537Y-24000D01*
X18537Y-23700D02*
X18532Y-23700D01*
X18537Y-24000D02*
X18537Y-23700D01*
X18532Y-23137D02*
X18532Y-23700D01*
X18532Y-23700D02*
X18532Y-23795D01*
X23437Y-23800D02*
X23437Y-23900D01*
X23737Y-24900D02*
X23737Y-25100D01*
X23337Y-24500D02*
X23737Y-24900D01*
X23337Y-24000D02*
X23337Y-24500D01*
X23437Y-23900D02*
X23337Y-24000D01*
X27387Y-26550D02*
X27637Y-26800D01*
X27637Y-26800D02*
X27687Y-26850D01*
X28337Y-26850D02*
X28387Y-26850D01*
X28387Y-26850D02*
X28787Y-26450D01*
X28787Y-26450D02*
X28787Y-25550D01*
X28787Y-25550D02*
X28687Y-25450D01*
X26287Y-26350D02*
X25137Y-26350D01*
X27387Y-26550D02*
X26487Y-26550D01*
X26487Y-26550D02*
X26287Y-26350D01*
X28337Y-26850D02*
X27687Y-26850D01*
X23737Y-25100D02*
X23737Y-25800D01*
X24637Y-26000D02*
X24837Y-26200D01*
X23937Y-26000D02*
X24637Y-26000D01*
X23737Y-25800D02*
X23937Y-26000D01*
X24987Y-26350D02*
X24837Y-26200D01*
X25137Y-26350D02*
X24987Y-26350D01*
X30345Y-14568D02*
X30345Y-16700D01*
X30345Y-16707D02*
X30737Y-17100D01*
X30345Y-16700D02*
X30345Y-16707D01*
X30737Y-22000D02*
X30637Y-22100D01*
X30637Y-22100D02*
X30437Y-22100D01*
X30537Y-20900D02*
X30537Y-21200D01*
X30737Y-21500D02*
X30537Y-21300D01*
X30537Y-21300D02*
X30537Y-21200D01*
X30737Y-22000D02*
X30737Y-21500D01*
X30937Y-20500D02*
X30937Y-17300D01*
X30937Y-17300D02*
X30737Y-17100D01*
X30537Y-20900D02*
X30937Y-20500D01*
X37094Y-16143D02*
X37187Y-16050D01*
X36794Y-16143D02*
X36053Y-16143D01*
X36794Y-16143D02*
X36887Y-16143D01*
X36887Y-16143D02*
X37094Y-16143D01*
X36053Y-16143D02*
X35644Y-16143D01*
X25543Y-21806D02*
X23956Y-21806D01*
X23450Y-20962D02*
X23287Y-20800D01*
X23450Y-21300D02*
X23450Y-20962D01*
X23956Y-21806D02*
X23450Y-21300D01*
X27037Y-24350D02*
X27287Y-24600D01*
X27037Y-24350D02*
X26787Y-24100D01*
X26437Y-24050D02*
X26487Y-24100D01*
X26437Y-24050D02*
X26187Y-23800D01*
X26487Y-24100D02*
X26787Y-24100D01*
X27287Y-24600D02*
X27787Y-24600D01*
X27787Y-24600D02*
X27937Y-24450D01*
X27937Y-24450D02*
X27937Y-24400D01*
X26187Y-23800D02*
X26137Y-23750D01*
X26137Y-23750D02*
X26137Y-22400D01*
X25543Y-21806D02*
X26137Y-22400D01*
X22587Y-20100D02*
X23287Y-20800D01*
X21837Y-20100D02*
X22587Y-20100D01*
X21837Y-20100D02*
X21137Y-20100D01*
X20287Y-19350D02*
X20087Y-19350D01*
X20387Y-19350D02*
X20287Y-19350D01*
X21137Y-20100D02*
X20387Y-19350D01*
X29937Y-19300D02*
X29937Y-19100D01*
X29937Y-19100D02*
X30137Y-18900D01*
X29337Y-22000D02*
X29337Y-22200D01*
X29337Y-22200D02*
X29425Y-22475D01*
X29361Y-14568D02*
X29361Y-15073D01*
X29737Y-17000D02*
X30137Y-17400D01*
X30137Y-17400D02*
X30137Y-18900D01*
X29361Y-15073D02*
X29737Y-15450D01*
X29737Y-15450D02*
X29737Y-17000D01*
X29537Y-20800D02*
X29337Y-21000D01*
X29837Y-20500D02*
X29537Y-20800D01*
X29937Y-20400D02*
X29837Y-20500D01*
X29937Y-19300D02*
X29937Y-20400D01*
X29337Y-21000D02*
X29337Y-22000D01*
X21837Y-20100D02*
X21937Y-20100D01*
X25400Y-21600D02*
X24350Y-21600D01*
X24350Y-21600D02*
X22650Y-19900D01*
X25400Y-21600D02*
X25637Y-21600D01*
X20187Y-18950D02*
X17937Y-18950D01*
X20187Y-18950D02*
X20287Y-18950D01*
X21237Y-19900D02*
X21437Y-19900D01*
X20287Y-18950D02*
X21237Y-19900D01*
X21437Y-19900D02*
X21837Y-19900D01*
X21837Y-19900D02*
X22650Y-19900D01*
X17237Y-20100D02*
X17237Y-19900D01*
X17337Y-19800D02*
X17337Y-19550D01*
X17237Y-19900D02*
X17337Y-19800D01*
X17337Y-19550D02*
X17937Y-18950D01*
X26337Y-22300D02*
X26337Y-22350D01*
X25637Y-21600D02*
X26337Y-22300D01*
X26337Y-23650D02*
X26387Y-23700D01*
X26537Y-23850D02*
X26387Y-23700D01*
X26837Y-23850D02*
X26537Y-23850D01*
X26887Y-23850D02*
X27337Y-24300D01*
X27537Y-24300D02*
X27337Y-24300D01*
X26837Y-23850D02*
X26887Y-23850D01*
X26337Y-22350D02*
X26337Y-23650D01*
X29337Y-16200D02*
X28937Y-15800D01*
X28837Y-21500D02*
X28837Y-21800D01*
X28837Y-21800D02*
X28737Y-21900D01*
X28837Y-20800D02*
X28837Y-21500D01*
X29537Y-19200D02*
X29537Y-20100D01*
X29537Y-20100D02*
X29137Y-20500D01*
X29337Y-17200D02*
X29737Y-17600D01*
X29737Y-17600D02*
X29737Y-18700D01*
X28837Y-20800D02*
X29137Y-20500D01*
X28937Y-15800D02*
X28937Y-15550D01*
X28770Y-14568D02*
X28770Y-15282D01*
X29337Y-17200D02*
X29337Y-16200D01*
X28770Y-15382D02*
X28937Y-15550D01*
X28770Y-15282D02*
X28770Y-15382D01*
X29537Y-18900D02*
X29537Y-19200D01*
X29737Y-18700D02*
X29537Y-18900D01*
X25437Y-22000D02*
X23837Y-22000D01*
X23837Y-22000D02*
X23237Y-21400D01*
X30937Y-24600D02*
X31337Y-24600D01*
X20087Y-20050D02*
X20237Y-20050D01*
X20637Y-20300D02*
X22037Y-20300D01*
X22037Y-20300D02*
X22487Y-20300D01*
X20487Y-20300D02*
X20237Y-20050D01*
X20637Y-20300D02*
X20487Y-20300D01*
X23237Y-21050D02*
X23187Y-21000D01*
X23237Y-21050D02*
X23237Y-21400D01*
X25437Y-22000D02*
X25937Y-22500D01*
X25987Y-23900D02*
X25937Y-23850D01*
X29487Y-25800D02*
X28987Y-25300D01*
X26937Y-24550D02*
X27187Y-24800D01*
X26387Y-24300D02*
X25987Y-23900D01*
X26687Y-24300D02*
X26387Y-24300D01*
X26937Y-24550D02*
X26687Y-24300D01*
X30337Y-25800D02*
X29487Y-25800D01*
X28987Y-25300D02*
X28787Y-25100D01*
X28787Y-25100D02*
X27687Y-25100D01*
X27687Y-25100D02*
X27387Y-24800D01*
X27187Y-24800D02*
X27387Y-24800D01*
X31637Y-24900D02*
X31337Y-24600D01*
X30937Y-24600D02*
X30637Y-24900D01*
X30637Y-24900D02*
X30637Y-25500D01*
X30637Y-25500D02*
X30337Y-25800D01*
X32237Y-24900D02*
X31637Y-24900D01*
X25937Y-23850D02*
X25937Y-22500D01*
X22487Y-20300D02*
X23187Y-21000D01*
X36587Y-15749D02*
X36738Y-15749D01*
X36738Y-15749D02*
X36987Y-15500D01*
X36537Y-15749D02*
X36587Y-15749D01*
X36587Y-15749D02*
X36588Y-15749D01*
X36536Y-15749D02*
X36537Y-15749D01*
X36536Y-15749D02*
X36053Y-15749D01*
X42525Y-18625D02*
X42725Y-18625D01*
X48387Y-19400D02*
X43500Y-19400D01*
X48387Y-19400D02*
X48437Y-19500D01*
X43500Y-19400D02*
X42875Y-18775D01*
X42775Y-18675D02*
X42875Y-18775D01*
X42725Y-18625D02*
X42775Y-18675D01*
X49437Y-18900D02*
X49437Y-19000D01*
X49437Y-19000D02*
X49237Y-19200D01*
X49237Y-19200D02*
X48937Y-19200D01*
X42753Y-17948D02*
X42753Y-18366D01*
X42753Y-18366D02*
X43587Y-19200D01*
X43587Y-19200D02*
X48937Y-19200D01*
X48937Y-19200D02*
X49037Y-19200D01*
X46137Y-18400D02*
X46437Y-18400D01*
X45937Y-18400D02*
X46137Y-18400D01*
X46437Y-18400D02*
X46537Y-18300D01*
X46037Y-18400D02*
X45937Y-18400D01*
X45937Y-18400D02*
X45637Y-18400D01*
X44289Y-18252D02*
X44437Y-18400D01*
X45337Y-18400D02*
X45637Y-18400D01*
X44289Y-17948D02*
X44289Y-18252D01*
X44437Y-18400D02*
X45337Y-18400D01*
X43777Y-18350D02*
X43777Y-18377D01*
X43777Y-18377D02*
X44000Y-18600D01*
X46237Y-18600D02*
X46637Y-18600D01*
X44000Y-18600D02*
X45837Y-18600D01*
X43777Y-17948D02*
X43777Y-18350D01*
X45837Y-18600D02*
X46237Y-18600D01*
X46637Y-18600D02*
X46837Y-18500D01*
X44518Y-16518D02*
X45156Y-16518D01*
X45200Y-16550D02*
X45200Y-16562D01*
X45187Y-16550D02*
X45200Y-16550D01*
X45156Y-16518D02*
X45187Y-16550D01*
X44137Y-16800D02*
X44237Y-16800D01*
X44137Y-16800D02*
X44037Y-16800D01*
X43521Y-17948D02*
X43521Y-17316D01*
X43521Y-17316D02*
X44037Y-16800D01*
X44437Y-16600D02*
X44518Y-16518D01*
X45200Y-16562D02*
X45237Y-16600D01*
X46337Y-16900D02*
X46537Y-17100D01*
X46537Y-17900D02*
X46637Y-18000D01*
X46537Y-17100D02*
X46537Y-17900D01*
X48237Y-17600D02*
X48037Y-17600D01*
X47637Y-18000D02*
X46637Y-18000D01*
X48037Y-17600D02*
X47637Y-18000D01*
X45237Y-16600D02*
X45437Y-16800D01*
X45537Y-16900D02*
X46337Y-16900D01*
X45537Y-16900D02*
X45437Y-16800D01*
X44337Y-16700D02*
X44437Y-16600D01*
X44237Y-16800D02*
X44337Y-16700D01*
X43265Y-18278D02*
X43787Y-18800D01*
X43787Y-18800D02*
X46937Y-18800D01*
X43265Y-17948D02*
X43265Y-18278D01*
X47037Y-18700D02*
X46937Y-18800D01*
X47237Y-18500D02*
X47037Y-18700D01*
X48537Y-19000D02*
X48437Y-19000D01*
X43012Y-18325D02*
X43687Y-19000D01*
X48437Y-19000D02*
X43687Y-19000D01*
X48537Y-19000D02*
X48637Y-19000D01*
X48937Y-19000D02*
X48637Y-19000D01*
X49037Y-18900D02*
X48937Y-19000D01*
X43012Y-18325D02*
X43012Y-17951D01*
X43012Y-17951D02*
X43009Y-17948D01*
X43009Y-18322D02*
X43012Y-18325D01*
X25343Y-22206D02*
X23743Y-22206D01*
X23743Y-22206D02*
X23037Y-21500D01*
X28737Y-15700D02*
X28737Y-15637D01*
X28500Y-15400D02*
X28137Y-15400D01*
X28737Y-15637D02*
X28500Y-15400D01*
X22387Y-20500D02*
X23037Y-21150D01*
X22137Y-20500D02*
X22387Y-20500D01*
X20437Y-20500D02*
X22137Y-20500D01*
X18537Y-19700D02*
X18937Y-19700D01*
X19337Y-20500D02*
X20437Y-20500D01*
X18987Y-20150D02*
X19337Y-20500D01*
X18937Y-19700D02*
X18987Y-19750D01*
X18987Y-20150D02*
X18987Y-19750D01*
X23037Y-21150D02*
X23037Y-21500D01*
X25343Y-22206D02*
X25737Y-22600D01*
X29537Y-18600D02*
X29337Y-18800D01*
X27985Y-15552D02*
X27983Y-15550D01*
X27985Y-15552D02*
X27589Y-15552D01*
X27987Y-15550D02*
X28137Y-15400D01*
X27983Y-15550D02*
X27987Y-15550D01*
X28937Y-16100D02*
X28737Y-15900D01*
X28737Y-15900D02*
X28737Y-15700D01*
X29137Y-17200D02*
X29137Y-17300D01*
X29537Y-17700D02*
X29537Y-18600D01*
X29137Y-17300D02*
X29537Y-17700D01*
X29137Y-17200D02*
X29137Y-16300D01*
X29137Y-16300D02*
X28937Y-16100D01*
X28237Y-21600D02*
X28237Y-21800D01*
X28237Y-21800D02*
X28337Y-21900D01*
X28537Y-20800D02*
X28237Y-21100D01*
X28237Y-21100D02*
X28237Y-21600D01*
X29337Y-19000D02*
X29337Y-20000D01*
X29337Y-20000D02*
X28837Y-20500D01*
X28837Y-20500D02*
X28537Y-20800D01*
X29337Y-18800D02*
X29337Y-19000D01*
X25787Y-24000D02*
X25737Y-23950D01*
X26537Y-24600D02*
X26587Y-24600D01*
X26587Y-24600D02*
X26387Y-24600D01*
X26387Y-24600D02*
X25787Y-24000D01*
X25737Y-23950D02*
X25737Y-22600D01*
X27589Y-18898D02*
X27139Y-18898D01*
X27139Y-18898D02*
X26937Y-19100D01*
X27437Y-23200D02*
X27714Y-23200D01*
X28573Y-23414D02*
X28573Y-23032D01*
X28573Y-23414D02*
X28437Y-23550D01*
X28437Y-23550D02*
X28037Y-23550D01*
X28037Y-23550D02*
X27714Y-23200D01*
X16037Y-19650D02*
X16037Y-19800D01*
X16087Y-19850D02*
X16237Y-19850D01*
X16037Y-19800D02*
X16087Y-19850D01*
X16037Y-19450D02*
X16037Y-19650D01*
X16637Y-20400D02*
X16250Y-20400D01*
X15400Y-19900D02*
X15400Y-19900D01*
X15750Y-19900D02*
X15400Y-19900D01*
X16250Y-20400D02*
X15750Y-19900D01*
X27019Y-17718D02*
X26837Y-17900D01*
X27589Y-17718D02*
X27019Y-17718D01*
X15337Y-19900D02*
X15237Y-19800D01*
X15237Y-19800D02*
X15237Y-19450D01*
X15400Y-19900D02*
X15337Y-19900D01*
X36053Y-21260D02*
X36397Y-21260D01*
X36687Y-21650D02*
X37037Y-22000D01*
X36687Y-21550D02*
X36687Y-21650D01*
X36397Y-21260D02*
X36687Y-21550D01*
X36637Y-23300D02*
X36737Y-23300D01*
X36737Y-23300D02*
X36937Y-23100D01*
X37037Y-23000D02*
X36937Y-23100D01*
X37037Y-22800D02*
X37037Y-23000D01*
X35837Y-25700D02*
X35937Y-25700D01*
X36037Y-25800D02*
X36037Y-26000D01*
X35937Y-25700D02*
X36037Y-25800D01*
X36637Y-23300D02*
X36537Y-23300D01*
X37037Y-22800D02*
X37037Y-22000D01*
X36037Y-26000D02*
X36037Y-26900D01*
X36037Y-26900D02*
X36137Y-27000D01*
X35837Y-23300D02*
X35537Y-23600D01*
X36537Y-23300D02*
X35837Y-23300D01*
X37037Y-22200D02*
X37037Y-22800D01*
X35537Y-23700D02*
X35537Y-25400D01*
X35537Y-23600D02*
X35537Y-23700D01*
X35537Y-25400D02*
X35637Y-25500D01*
X35837Y-25700D02*
X35637Y-25500D01*
X35637Y-25500D02*
X35537Y-25400D01*
X41000Y-24300D02*
X41200Y-24500D01*
X39850Y-22650D02*
X39387Y-22650D01*
X39387Y-22650D02*
X39337Y-22700D01*
X39337Y-22700D02*
X39037Y-23000D01*
X37337Y-22800D02*
X37337Y-22600D01*
X37537Y-23000D02*
X37337Y-22800D01*
X39037Y-23000D02*
X37537Y-23000D01*
X40000Y-22800D02*
X39850Y-22650D01*
X40000Y-23700D02*
X40000Y-22900D01*
X40300Y-24000D02*
X40000Y-23700D01*
X40700Y-24000D02*
X40300Y-24000D01*
X40000Y-22900D02*
X40000Y-22800D01*
X41000Y-24300D02*
X40700Y-24000D01*
X41200Y-24500D02*
X41500Y-24500D01*
X27589Y-19095D02*
X28195Y-19095D01*
X28232Y-19095D02*
X28532Y-19095D01*
X28532Y-19095D02*
X28637Y-19200D01*
X28092Y-19095D02*
X28232Y-19095D01*
X27589Y-19095D02*
X28092Y-19095D01*
X40018Y-22450D02*
X40450Y-22450D01*
X40450Y-22450D02*
X40700Y-22700D01*
X27589Y-19292D02*
X28342Y-19292D01*
X28650Y-19600D02*
X28737Y-19600D01*
X28342Y-19292D02*
X28650Y-19600D01*
X39287Y-22450D02*
X40018Y-22450D01*
X40018Y-22450D02*
X39987Y-22450D01*
X37837Y-22800D02*
X38937Y-22800D01*
X37537Y-22400D02*
X37337Y-22200D01*
X37637Y-22600D02*
X37637Y-22500D01*
X37637Y-22500D02*
X37537Y-22400D01*
X39287Y-22450D02*
X38937Y-22800D01*
X37637Y-22600D02*
X37837Y-22800D01*
X27589Y-18308D02*
X27245Y-18308D01*
X27245Y-18308D02*
X27145Y-18308D01*
X27145Y-18308D02*
X26937Y-18516D01*
X26937Y-18516D02*
X26937Y-18700D01*
X17259Y-17352D02*
X17259Y-18122D01*
X17259Y-18122D02*
X17437Y-18300D01*
X27145Y-18308D02*
X26937Y-18516D01*
X26937Y-18516D02*
X26937Y-18700D01*
X17437Y-18300D02*
X17359Y-18222D01*
X17003Y-17352D02*
X17003Y-16934D01*
X17237Y-16700D02*
X17337Y-16700D01*
X17003Y-16934D02*
X17237Y-16700D01*
X27149Y-18112D02*
X27589Y-18112D01*
X27049Y-18112D02*
X26911Y-18275D01*
X26911Y-18275D02*
X26787Y-18275D01*
X27149Y-18112D02*
X27049Y-18112D01*
X42375Y-14200D02*
X42700Y-14200D01*
X42825Y-14325D02*
X42825Y-14400D01*
X42700Y-14200D02*
X42825Y-14325D01*
X42375Y-15075D02*
X42625Y-15075D01*
X42625Y-15075D02*
X42825Y-14875D01*
X42825Y-14875D02*
X42825Y-14400D01*
X43237Y-14400D02*
X42825Y-14400D01*
X42275Y-14200D02*
X42150Y-14200D01*
X42150Y-14200D02*
X42025Y-14075D01*
X43237Y-14400D02*
X43237Y-14300D01*
X43337Y-13350D02*
X42814Y-13350D01*
X43487Y-13500D02*
X43337Y-13350D01*
X43487Y-14050D02*
X43487Y-13500D01*
X43237Y-14300D02*
X43487Y-14050D01*
X28077Y-16340D02*
X28237Y-16500D01*
X28237Y-16500D02*
X28837Y-16500D01*
X28077Y-16340D02*
X27589Y-16340D01*
X42375Y-14200D02*
X42275Y-14200D01*
X42275Y-14200D02*
X42237Y-14200D01*
X42814Y-13350D02*
X42487Y-13350D01*
X42814Y-12350D02*
X41899Y-12350D01*
X41400Y-12850D02*
X41400Y-13550D01*
X41899Y-12350D02*
X41400Y-12850D01*
X28377Y-14022D02*
X28450Y-13950D01*
X28450Y-13950D02*
X28500Y-13950D01*
X28377Y-14568D02*
X28377Y-14022D01*
X43537Y-12550D02*
X43537Y-13100D01*
X43337Y-12350D02*
X42814Y-12350D01*
X43337Y-12350D02*
X43537Y-12550D01*
X43937Y-14400D02*
X43937Y-13500D01*
X43937Y-13500D02*
X43537Y-13100D01*
X42200Y-13850D02*
X42814Y-13850D01*
X42100Y-13750D02*
X42200Y-13850D01*
X28967Y-15279D02*
X29237Y-15550D01*
X29237Y-15550D02*
X29237Y-15650D01*
X28967Y-15279D02*
X28967Y-14568D01*
X42753Y-20152D02*
X42753Y-20646D01*
X42425Y-20975D02*
X42425Y-21025D01*
X42753Y-20646D02*
X42425Y-20975D01*
X33237Y-21600D02*
X33137Y-21600D01*
X31887Y-21500D02*
X31537Y-21850D01*
X33037Y-21500D02*
X31887Y-21500D01*
X33137Y-21600D02*
X33037Y-21500D01*
X31537Y-22550D02*
X31526Y-22550D01*
X31537Y-21850D02*
X31537Y-22550D01*
X31526Y-23032D02*
X31526Y-22550D01*
X31723Y-23032D02*
X31723Y-22576D01*
X31723Y-22576D02*
X32199Y-22100D01*
X33437Y-22100D02*
X33637Y-22100D01*
X33437Y-22100D02*
X32199Y-22100D01*
X33637Y-22100D02*
X34137Y-21600D01*
X34137Y-21600D02*
X34237Y-21600D01*
X31562Y-20125D02*
X31562Y-20175D01*
X31337Y-22500D02*
X31329Y-22500D01*
X31337Y-20400D02*
X31337Y-22500D01*
X31562Y-20175D02*
X31337Y-20400D01*
X31329Y-23032D02*
X31329Y-22500D01*
X31562Y-20125D02*
X31937Y-19750D01*
X30937Y-22200D02*
X30937Y-21200D01*
X30937Y-21200D02*
X30837Y-21100D01*
X30739Y-23032D02*
X30739Y-22398D01*
X30739Y-22398D02*
X30937Y-22200D01*
X30137Y-21400D02*
X30137Y-22350D01*
X30137Y-22350D02*
X30187Y-22400D01*
X30137Y-21500D02*
X30137Y-21400D01*
X30137Y-21400D02*
X30137Y-21000D01*
X30137Y-21000D02*
X30037Y-21000D01*
X30345Y-23032D02*
X30345Y-22657D01*
X30187Y-22400D02*
X30345Y-22557D01*
X30345Y-22557D02*
X30345Y-22657D01*
X31137Y-22300D02*
X31137Y-20100D01*
X31137Y-20100D02*
X31487Y-19750D01*
X30936Y-22501D02*
X30936Y-23032D01*
X30936Y-22501D02*
X31137Y-22300D01*
X31133Y-23595D02*
X31133Y-23032D01*
X31137Y-23600D02*
X31133Y-23595D01*
X32425Y-20125D02*
X32824Y-20125D01*
X33325Y-19225D02*
X33737Y-18812D01*
X33325Y-19625D02*
X33325Y-19225D01*
X32824Y-20125D02*
X33325Y-19625D01*
X32425Y-20125D02*
X32212Y-20125D01*
X32212Y-20125D02*
X31937Y-20400D01*
X33987Y-15450D02*
X33887Y-15350D01*
X33887Y-15350D02*
X33887Y-14568D01*
X33887Y-14568D02*
X33887Y-14568D01*
X34737Y-16500D02*
X34737Y-17600D01*
X34737Y-16200D02*
X34737Y-16500D01*
X33987Y-15450D02*
X34737Y-16200D01*
X33737Y-18600D02*
X34737Y-17600D01*
X33737Y-18812D02*
X33737Y-18600D01*
X33537Y-18712D02*
X33537Y-18525D01*
X33125Y-19125D02*
X33537Y-18712D01*
X33537Y-18712D02*
X33537Y-18637D01*
X33537Y-18525D02*
X33537Y-18625D01*
X34537Y-17500D02*
X34137Y-17900D01*
X33297Y-14940D02*
X33297Y-15359D01*
X33297Y-15359D02*
X33437Y-15500D01*
X33297Y-14568D02*
X33297Y-14940D01*
X34537Y-16600D02*
X34537Y-17500D01*
X33737Y-15500D02*
X34537Y-16300D01*
X34537Y-16300D02*
X34537Y-16600D01*
X33437Y-15500D02*
X33737Y-15500D01*
X34137Y-17900D02*
X33537Y-18500D01*
X33537Y-18500D02*
X33537Y-18525D01*
X32437Y-19612D02*
X32437Y-19800D01*
X32925Y-19125D02*
X32437Y-19612D01*
X33125Y-19125D02*
X32925Y-19125D01*
X23737Y-26300D02*
X23537Y-26100D01*
X24387Y-26300D02*
X23737Y-26300D01*
X23537Y-25000D02*
X22837Y-24300D01*
X22837Y-24300D02*
X22837Y-24200D01*
X23537Y-26100D02*
X23537Y-25000D01*
X30542Y-23895D02*
X30542Y-23032D01*
X30542Y-23895D02*
X30487Y-23950D01*
X22887Y-24150D02*
X22887Y-24400D01*
X40943Y-18993D02*
X40943Y-18806D01*
X41025Y-16425D02*
X40500Y-15900D01*
X41025Y-18725D02*
X41025Y-16425D01*
X40943Y-18806D02*
X41025Y-18725D01*
X49337Y-18300D02*
X49137Y-18300D01*
X50537Y-17700D02*
X52337Y-15900D01*
X52337Y-15900D02*
X53069Y-15900D01*
X49537Y-18100D02*
X49637Y-18000D01*
X49337Y-18300D02*
X49537Y-18100D01*
X50237Y-18000D02*
X49637Y-18000D01*
X50537Y-17700D02*
X50237Y-18000D01*
X39737Y-15900D02*
X40500Y-15900D01*
X38637Y-16200D02*
X38937Y-15900D01*
X38937Y-15900D02*
X39637Y-15900D01*
X38637Y-16200D02*
X37710Y-17127D01*
X36810Y-17127D02*
X36053Y-17127D01*
X36810Y-17127D02*
X36960Y-17127D01*
X36960Y-17127D02*
X37710Y-17127D01*
X39737Y-15900D02*
X39637Y-15900D01*
X40737Y-19200D02*
X40337Y-19600D01*
X40337Y-20400D02*
X40337Y-19600D01*
X40337Y-20400D02*
X40337Y-20400D01*
X40337Y-20900D02*
X40337Y-20400D01*
X40637Y-21200D02*
X40337Y-20900D01*
X40943Y-18993D02*
X40737Y-19200D01*
X44337Y-21300D02*
X44437Y-21300D01*
X44487Y-20650D02*
X44437Y-20650D01*
X44637Y-20800D02*
X44487Y-20650D01*
X44637Y-20900D02*
X44637Y-20800D01*
X44637Y-21100D02*
X44637Y-20900D01*
X44437Y-21300D02*
X44637Y-21100D01*
X40737Y-21300D02*
X40837Y-21300D01*
X43837Y-21300D02*
X43937Y-21200D01*
X40837Y-21300D02*
X43837Y-21300D01*
X44137Y-21300D02*
X44037Y-21300D01*
X44289Y-20502D02*
X44437Y-20650D01*
X44289Y-20152D02*
X44289Y-20502D01*
X44337Y-21300D02*
X44137Y-21300D01*
X44037Y-21300D02*
X43937Y-21200D01*
X40737Y-21300D02*
X40637Y-21200D01*
X40737Y-21300D02*
X40637Y-21200D01*
X44837Y-21100D02*
X44837Y-21212D01*
X44837Y-21212D02*
X44549Y-21500D01*
X40693Y-18943D02*
X40737Y-18900D01*
X38787Y-16350D02*
X38737Y-16400D01*
X38737Y-16400D02*
X37813Y-17324D01*
X36053Y-17324D02*
X36387Y-17324D01*
X36387Y-17324D02*
X36411Y-17324D01*
X44437Y-21500D02*
X44549Y-21500D01*
X44337Y-21500D02*
X40620Y-21500D01*
X40137Y-21017D02*
X40137Y-20650D01*
X40620Y-21500D02*
X40137Y-21017D01*
X40137Y-20650D02*
X40137Y-19500D01*
X44337Y-21500D02*
X44437Y-21500D01*
X40693Y-18943D02*
X40137Y-19500D01*
X39037Y-16100D02*
X39737Y-16100D01*
X38787Y-16350D02*
X39037Y-16100D01*
X39737Y-16100D02*
X39837Y-16100D01*
X36411Y-17324D02*
X37813Y-17324D01*
X39837Y-16100D02*
X40400Y-16100D01*
X40737Y-18712D02*
X40825Y-18625D01*
X40825Y-18625D02*
X40825Y-16525D01*
X40825Y-16525D02*
X40400Y-16100D01*
X40737Y-18900D02*
X40737Y-18712D01*
X44837Y-21100D02*
X44837Y-20700D01*
X44537Y-19800D02*
X44337Y-19600D01*
X44537Y-20400D02*
X44537Y-19800D01*
X44837Y-20700D02*
X44537Y-20400D01*
X52337Y-15200D02*
X52637Y-14900D01*
X43937Y-19600D02*
X43787Y-19750D01*
X44337Y-19600D02*
X43937Y-19600D01*
X49437Y-17600D02*
X50037Y-17600D01*
X52337Y-15300D02*
X52337Y-15200D01*
X50037Y-17600D02*
X52337Y-15300D01*
X52637Y-14900D02*
X53069Y-14900D01*
X43777Y-20150D02*
X43777Y-20860D01*
X43777Y-20860D02*
X43637Y-21000D01*
X43677Y-20960D02*
X43637Y-21000D01*
X43787Y-19750D02*
X43787Y-19800D01*
X43777Y-20150D02*
X43777Y-19810D01*
X43787Y-19800D02*
X43787Y-19750D01*
X43777Y-19810D02*
X43787Y-19800D01*
X49337Y-17600D02*
X49437Y-17600D01*
X49437Y-17600D02*
X49437Y-17600D01*
X41537Y-15037D02*
X41537Y-15800D01*
X42725Y-18925D02*
X42825Y-19025D01*
X42175Y-18925D02*
X41737Y-18487D01*
X41737Y-17700D02*
X41737Y-18400D01*
X41737Y-16000D02*
X41543Y-15806D01*
X41737Y-17700D02*
X41737Y-16000D01*
X41737Y-18400D02*
X41737Y-18487D01*
X43187Y-19387D02*
X43475Y-19675D01*
X43521Y-19734D02*
X43521Y-20152D01*
X43187Y-19387D02*
X42825Y-19025D01*
X43475Y-19687D02*
X43521Y-19734D01*
X43475Y-19675D02*
X43475Y-19687D01*
X42175Y-18925D02*
X42725Y-18925D01*
X41537Y-15800D02*
X41543Y-15806D01*
X37297Y-16340D02*
X37309Y-16340D01*
X36687Y-16340D02*
X37297Y-16340D01*
X38050Y-14400D02*
X38625Y-13825D01*
X38050Y-15600D02*
X38050Y-14400D01*
X37309Y-16340D02*
X38050Y-15600D01*
X40625Y-14775D02*
X40425Y-14575D01*
X41275Y-14775D02*
X40625Y-14775D01*
X41543Y-15043D02*
X41537Y-15037D01*
X41537Y-15037D02*
X41275Y-14775D01*
X38625Y-13825D02*
X40025Y-13825D01*
X40025Y-13825D02*
X40425Y-14225D01*
X40425Y-14225D02*
X40425Y-14575D01*
X48737Y-18200D02*
X48687Y-18250D01*
X48937Y-18000D02*
X49337Y-18000D01*
X48737Y-18200D02*
X48937Y-18000D01*
X49537Y-17800D02*
X50137Y-17800D01*
X49337Y-18000D02*
X49537Y-17800D01*
X50137Y-17800D02*
X52537Y-15400D01*
X53069Y-15400D02*
X52537Y-15400D01*
X43521Y-20716D02*
X43237Y-21000D01*
X43521Y-20716D02*
X43521Y-20152D01*
X48687Y-18250D02*
X48537Y-18250D01*
X36053Y-16340D02*
X36687Y-16340D01*
X36687Y-16340D02*
X36697Y-16340D01*
X38137Y-15800D02*
X38144Y-15800D01*
X38137Y-15800D02*
X37537Y-16400D01*
X37400Y-16537D02*
X37537Y-16400D01*
X38250Y-14500D02*
X38725Y-14025D01*
X38250Y-15694D02*
X38250Y-14500D01*
X38144Y-15800D02*
X38250Y-15694D01*
X42075Y-19125D02*
X42625Y-19125D01*
X38725Y-14025D02*
X39925Y-14025D01*
X39925Y-14025D02*
X40225Y-14325D01*
X40225Y-14325D02*
X40225Y-14675D01*
X41537Y-18300D02*
X41537Y-18587D01*
X41537Y-17600D02*
X41537Y-18300D01*
X41537Y-16100D02*
X41537Y-17600D01*
X41318Y-15881D02*
X41318Y-15118D01*
X40525Y-14975D02*
X40225Y-14675D01*
X41175Y-14975D02*
X40525Y-14975D01*
X41318Y-15118D02*
X41175Y-14975D01*
X41318Y-15881D02*
X41537Y-16100D01*
X43265Y-19765D02*
X42725Y-19225D01*
X43265Y-19772D02*
X43265Y-19765D01*
X42075Y-19125D02*
X41537Y-18587D01*
X42625Y-19125D02*
X42725Y-19225D01*
X43265Y-20152D02*
X43265Y-19772D01*
X43265Y-20152D02*
X43265Y-19772D01*
X43265Y-20152D02*
X43265Y-20522D01*
X42837Y-20950D02*
X42837Y-21000D01*
X43265Y-20522D02*
X42837Y-20950D01*
X50637Y-17900D02*
X50337Y-18200D01*
X50337Y-18200D02*
X49737Y-18200D01*
X49337Y-18600D02*
X49637Y-18300D01*
X48137Y-18400D02*
X48337Y-18600D01*
X48137Y-18250D02*
X48137Y-18400D01*
X49637Y-18300D02*
X49737Y-18200D01*
X52137Y-16400D02*
X53069Y-16400D01*
X50637Y-17900D02*
X52137Y-16400D01*
X49337Y-18600D02*
X48337Y-18600D01*
X37400Y-16537D02*
X37337Y-16537D01*
X37337Y-16537D02*
X36787Y-16537D01*
X37400Y-16537D02*
X37374Y-16537D01*
X36800Y-16537D02*
X36787Y-16537D01*
X36787Y-16537D02*
X36053Y-16537D01*
X41975Y-19325D02*
X42525Y-19325D01*
X42525Y-19325D02*
X42675Y-19475D01*
X41275Y-18625D02*
X41275Y-18575D01*
X41975Y-19325D02*
X41275Y-18625D01*
X43009Y-20152D02*
X43009Y-19809D01*
X43009Y-19809D02*
X42675Y-19475D01*
X40625Y-15575D02*
X40625Y-15425D01*
X41275Y-16225D02*
X40625Y-15575D01*
X41275Y-18575D02*
X41275Y-16225D01*
X29558Y-23032D02*
X29558Y-23829D01*
X29558Y-23829D02*
X29437Y-23950D01*
X29164Y-23473D02*
X29164Y-23535D01*
X28925Y-24337D02*
X28987Y-24400D01*
X28925Y-23775D02*
X28925Y-24337D01*
X29164Y-23535D02*
X28925Y-23775D01*
X29164Y-23032D02*
X29164Y-23473D01*
X28039Y-18702D02*
X27589Y-18702D01*
X28137Y-18800D02*
X28437Y-18800D01*
X28039Y-18702D02*
X28137Y-18800D01*
X28237Y-18505D02*
X28237Y-18500D01*
X28237Y-18500D02*
X28337Y-18400D01*
X28137Y-18505D02*
X28237Y-18505D01*
X28137Y-18505D02*
X27589Y-18505D01*
X55409Y-17300D02*
X55737Y-17300D01*
X55937Y-16500D02*
X55937Y-15400D01*
X55937Y-15400D02*
X56937Y-14400D01*
X56937Y-14400D02*
X56937Y-13900D01*
X55937Y-17100D02*
X55937Y-16500D01*
X55737Y-17300D02*
X55937Y-17100D01*
X39057Y-21600D02*
X39057Y-21480D01*
X39237Y-21300D02*
X39237Y-20200D01*
X39057Y-21480D02*
X39237Y-21300D01*
X39237Y-20200D02*
X39437Y-20000D01*
X36837Y-18505D02*
X37232Y-18505D01*
X37232Y-18505D02*
X37737Y-18000D01*
X39437Y-19300D02*
X39437Y-20000D01*
X39363Y-17926D02*
X39737Y-18300D01*
X39737Y-18300D02*
X39737Y-19000D01*
X39737Y-19000D02*
X39437Y-19300D01*
X38537Y-18000D02*
X39289Y-18000D01*
X39289Y-18000D02*
X39363Y-17926D01*
X39363Y-17628D02*
X39363Y-17926D01*
X39437Y-16950D02*
X39437Y-17554D01*
X39437Y-17554D02*
X39363Y-17628D01*
X39437Y-16950D02*
X39387Y-16950D01*
X36682Y-18505D02*
X36837Y-18505D01*
X36053Y-18505D02*
X36682Y-18505D01*
X37737Y-18000D02*
X38537Y-18000D01*
X38537Y-18000D02*
X38587Y-18000D01*
X36053Y-18898D02*
X36539Y-18898D01*
X37937Y-18200D02*
X38537Y-18200D01*
X36737Y-18800D02*
X36937Y-18800D01*
X37237Y-18800D02*
X37837Y-18200D01*
X37837Y-18200D02*
X37937Y-18200D01*
X36937Y-18800D02*
X37237Y-18800D01*
X36737Y-18800D02*
X36637Y-18800D01*
X36539Y-18898D02*
X36637Y-18800D01*
X38837Y-21934D02*
X38837Y-21900D01*
X38737Y-21800D02*
X38737Y-21400D01*
X38837Y-21900D02*
X38737Y-21800D01*
X38537Y-22200D02*
X38737Y-22200D01*
X38837Y-21934D02*
X39057Y-21934D01*
X38837Y-22100D02*
X38837Y-21934D01*
X38737Y-22200D02*
X38837Y-22100D01*
X38937Y-21200D02*
X38937Y-20200D01*
X38737Y-21400D02*
X38937Y-21200D01*
X38937Y-20200D02*
X39037Y-20100D01*
X38937Y-20200D02*
X39037Y-20100D01*
X39037Y-20100D02*
X39237Y-19900D01*
X39363Y-19074D02*
X39237Y-19200D01*
X39363Y-19074D02*
X39363Y-18572D01*
X39237Y-19200D02*
X39237Y-19900D01*
X38537Y-18200D02*
X39237Y-18200D01*
X39237Y-18200D02*
X39363Y-18326D01*
X39363Y-18326D02*
X39363Y-18572D01*
X38537Y-18200D02*
X38591Y-18200D01*
X40537Y-18800D02*
X40537Y-18612D01*
X40625Y-16625D02*
X40300Y-16300D01*
X40625Y-18525D02*
X40625Y-16625D01*
X40537Y-18612D02*
X40625Y-18525D01*
X39937Y-21100D02*
X40537Y-21700D01*
X39937Y-16300D02*
X40300Y-16300D01*
X36837Y-18100D02*
X36637Y-18100D01*
X36053Y-18112D02*
X36475Y-18112D01*
X36475Y-18112D02*
X36625Y-18112D01*
X36637Y-18100D02*
X36625Y-18112D01*
X37037Y-18100D02*
X37537Y-17600D01*
X36837Y-18100D02*
X37037Y-18100D01*
X37837Y-17600D02*
X37537Y-17600D01*
X37937Y-17500D02*
X38037Y-17400D01*
X39737Y-16300D02*
X39937Y-16300D01*
X38887Y-16550D02*
X39137Y-16300D01*
X39137Y-16300D02*
X39737Y-16300D01*
X38037Y-17400D02*
X38887Y-16550D01*
X37937Y-17500D02*
X37837Y-17600D01*
X40537Y-18800D02*
X39937Y-19400D01*
X39937Y-21100D02*
X39937Y-19400D01*
X58237Y-21244D02*
X58537Y-21244D01*
X55193Y-21244D02*
X54737Y-21700D01*
X40537Y-21700D02*
X54737Y-21700D01*
X58237Y-21244D02*
X55193Y-21244D01*
X46337Y-20496D02*
X45933Y-20496D01*
X45933Y-20496D02*
X45837Y-20450D01*
X48637Y-20496D02*
X49133Y-20496D01*
X49237Y-20392D02*
X49237Y-19700D01*
X49133Y-20496D02*
X49237Y-20392D01*
X48637Y-20496D02*
X48637Y-20600D01*
X45837Y-20450D02*
X45833Y-20446D01*
X41500Y-24000D02*
X41100Y-24000D01*
X41000Y-23900D02*
X41000Y-23800D01*
X41100Y-24000D02*
X41000Y-23900D01*
X40000Y-24800D02*
X39400Y-24800D01*
X41000Y-23100D02*
X41000Y-23800D01*
X41300Y-22800D02*
X41000Y-23100D01*
X41500Y-24000D02*
X41700Y-24000D01*
X41700Y-24000D02*
X42000Y-24300D01*
X42000Y-24300D02*
X42000Y-24700D01*
X42000Y-24700D02*
X41700Y-25000D01*
X41700Y-25000D02*
X40300Y-25000D01*
X40200Y-25000D02*
X40000Y-24800D01*
X40300Y-25000D02*
X40200Y-25000D01*
X39250Y-24650D02*
X39250Y-24650D01*
X39400Y-24800D02*
X39250Y-24650D01*
X38460Y-24650D02*
X39250Y-24650D01*
X39250Y-24650D02*
X39249Y-24650D01*
X39249Y-24650D02*
X39537Y-24362D01*
X39537Y-24362D02*
X39537Y-23900D01*
X38460Y-23650D02*
X39287Y-23650D01*
X39287Y-23650D02*
X39537Y-23900D01*
X39537Y-24262D02*
X39537Y-23900D01*
X55137Y-22500D02*
X55637Y-23000D01*
X41600Y-22500D02*
X55137Y-22500D01*
X41325Y-22775D02*
X41300Y-22800D01*
X41300Y-22800D02*
X41600Y-22500D01*
X55637Y-23000D02*
X55837Y-23000D01*
X39725Y-20225D02*
X39725Y-19312D01*
X39625Y-20325D02*
X39725Y-20225D01*
X40111Y-18926D02*
X39725Y-19312D01*
X40111Y-18572D02*
X40111Y-18926D01*
X39575Y-20325D02*
X39625Y-20325D01*
X40111Y-18572D02*
X40277Y-18572D01*
X40425Y-16725D02*
X40200Y-16500D01*
X40425Y-18425D02*
X40425Y-16725D01*
X40277Y-18572D02*
X40425Y-18425D01*
X55637Y-23000D02*
X55537Y-22900D01*
X55337Y-22700D02*
X55537Y-22900D01*
X56037Y-23000D02*
X55637Y-23000D01*
X55837Y-23000D02*
X56137Y-23000D01*
X57237Y-22700D02*
X57337Y-22800D01*
X56337Y-22700D02*
X57237Y-22700D01*
X56237Y-22800D02*
X56337Y-22700D01*
X56237Y-22900D02*
X56237Y-22800D01*
X56137Y-23000D02*
X56237Y-22900D01*
X39087Y-23650D02*
X38460Y-23650D01*
X57537Y-23500D02*
X57537Y-23000D01*
X57537Y-23000D02*
X57337Y-22800D01*
X38037Y-17700D02*
X37937Y-17800D01*
X38037Y-17700D02*
X39237Y-16500D01*
X39237Y-16500D02*
X40200Y-16500D01*
X37129Y-18308D02*
X37637Y-17800D01*
X36053Y-18308D02*
X36929Y-18308D01*
X36929Y-18308D02*
X37129Y-18308D01*
X37937Y-17800D02*
X37637Y-17800D01*
X38460Y-23650D02*
X39087Y-23650D01*
X39537Y-23900D02*
X39537Y-23900D01*
X39537Y-23900D02*
X39537Y-23900D01*
X37737Y-20545D02*
X37582Y-20545D01*
X37582Y-20545D02*
X37337Y-20300D01*
X37741Y-21300D02*
X37741Y-20399D01*
X37741Y-20399D02*
X37737Y-20395D01*
X37287Y-20250D02*
X36937Y-20250D01*
X37432Y-20395D02*
X37337Y-20300D01*
X37337Y-20300D02*
X37287Y-20250D01*
X36053Y-20079D02*
X36516Y-20079D01*
X36687Y-20250D02*
X36937Y-20250D01*
X36516Y-20079D02*
X36687Y-20250D01*
X37737Y-19600D02*
X37237Y-19600D01*
X38041Y-18600D02*
X38041Y-18896D01*
X37737Y-19200D02*
X37737Y-19450D01*
X38041Y-18896D02*
X37737Y-19200D01*
X37741Y-19446D02*
X37737Y-19450D01*
X37187Y-19650D02*
X36937Y-19650D01*
X37237Y-19600D02*
X37187Y-19650D01*
X36053Y-19882D02*
X36505Y-19882D01*
X36737Y-19650D02*
X36937Y-19650D01*
X36505Y-19882D02*
X36737Y-19650D01*
X38750Y-14800D02*
X38750Y-14400D01*
X38750Y-14400D02*
X38850Y-14300D01*
X38475Y-14975D02*
X38475Y-15762D01*
X38437Y-15800D02*
X37503Y-16734D01*
X38475Y-15762D02*
X38437Y-15800D01*
X38650Y-14800D02*
X38475Y-14975D01*
X38750Y-14800D02*
X38650Y-14800D01*
X38700Y-14800D02*
X38650Y-14800D01*
X40125Y-14925D02*
X40125Y-15425D01*
X38850Y-14300D02*
X38925Y-14225D01*
X38925Y-14225D02*
X39825Y-14225D01*
X39825Y-14225D02*
X40025Y-14425D01*
X40025Y-14425D02*
X40025Y-14825D01*
X40025Y-14825D02*
X40125Y-14925D01*
X37503Y-16734D02*
X37371Y-16734D01*
X37503Y-16734D02*
X37471Y-16734D01*
X37503Y-16734D02*
X37471Y-16734D01*
X36053Y-16734D02*
X37337Y-16734D01*
X37337Y-16734D02*
X37437Y-16734D01*
X16668Y-25568D02*
X15631Y-25568D01*
X14500Y-26700D02*
X14500Y-27000D01*
X15631Y-25568D02*
X14500Y-26700D01*
X13437Y-28100D02*
X13837Y-28100D01*
X16668Y-25568D02*
X16737Y-25500D01*
X17942Y-24295D02*
X16737Y-25500D01*
X17942Y-23137D02*
X17942Y-24295D01*
X16737Y-25800D02*
X15799Y-25800D01*
X18139Y-24398D02*
X17137Y-25400D01*
X18139Y-23137D02*
X18139Y-24398D01*
X16737Y-25800D02*
X17137Y-25400D01*
X15799Y-25800D02*
X15500Y-26100D01*
X18335Y-21563D02*
X18335Y-21152D01*
X18335Y-21152D02*
X18087Y-20904D01*
X18187Y-20250D02*
X18487Y-20250D01*
X18087Y-20350D02*
X18187Y-20250D01*
X18087Y-20904D02*
X18087Y-20350D01*
X38069Y-28730D02*
X39719Y-28730D01*
X39719Y-28730D02*
X39925Y-28525D01*
X39925Y-28525D02*
X39925Y-27812D01*
X40037Y-27700D02*
X39925Y-27812D01*
X40037Y-27700D02*
X40237Y-27700D01*
X38069Y-28730D02*
X37525Y-28175D01*
X40200Y-25400D02*
X40000Y-25400D01*
X39737Y-25662D02*
X39737Y-25900D01*
X40000Y-25400D02*
X39737Y-25662D01*
X35265Y-23032D02*
X35265Y-22700D01*
X35265Y-22627D02*
X35037Y-22400D01*
X35265Y-22700D02*
X35265Y-22627D01*
X39737Y-25700D02*
X39737Y-25900D01*
X40237Y-26900D02*
X40037Y-26900D01*
X40037Y-26900D02*
X39837Y-27100D01*
X34872Y-23032D02*
X34872Y-22634D01*
X34637Y-22400D02*
X34437Y-22400D01*
X34872Y-22634D02*
X34637Y-22400D01*
X33691Y-22350D02*
X33691Y-22346D01*
X33691Y-22346D02*
X34137Y-21900D01*
X40037Y-26100D02*
X39937Y-26100D01*
X40237Y-26100D02*
X40037Y-26100D01*
X39937Y-26100D02*
X39737Y-26300D01*
X34637Y-21800D02*
X34537Y-21900D01*
X34137Y-21900D02*
X34437Y-21900D01*
X33691Y-23032D02*
X33691Y-22350D01*
X34537Y-21900D02*
X34437Y-21900D01*
X32313Y-23032D02*
X32313Y-23836D01*
X32313Y-23836D02*
X32225Y-23925D01*
X32509Y-23509D02*
X32575Y-23575D01*
X32509Y-23509D02*
X32509Y-23032D01*
X48143Y-15193D02*
X49593Y-15193D01*
X49593Y-15193D02*
X49600Y-15200D01*
X51500Y-24500D02*
X51800Y-24500D01*
X41900Y-22700D02*
X41625Y-22975D01*
X51800Y-22700D02*
X41900Y-22700D01*
X52200Y-23100D02*
X51800Y-22700D01*
X52200Y-24100D02*
X52200Y-23100D01*
X51800Y-24500D02*
X52200Y-24100D01*
X39937Y-26500D02*
X39843Y-26593D01*
X40037Y-26500D02*
X39937Y-26500D01*
X39843Y-26706D02*
X39037Y-27512D01*
X39037Y-27512D02*
X39037Y-27896D01*
X39843Y-26593D02*
X39843Y-26706D01*
X41137Y-26500D02*
X40037Y-26500D01*
X33025Y-28425D02*
X35212Y-28425D01*
X35212Y-28425D02*
X35454Y-28182D01*
X35454Y-28182D02*
X35454Y-27896D01*
X37737Y-27600D02*
X37600Y-27600D01*
X36025Y-27925D02*
X36025Y-27896D01*
X36275Y-27925D02*
X36025Y-27925D01*
X36825Y-27375D02*
X36275Y-27925D01*
X37375Y-27375D02*
X36825Y-27375D01*
X37600Y-27600D02*
X37375Y-27375D01*
X36025Y-27896D02*
X35454Y-27896D01*
X35454Y-27896D02*
X35454Y-28182D01*
X32116Y-23032D02*
X32116Y-23483D01*
X31700Y-24200D02*
X31937Y-24200D01*
X31625Y-24125D02*
X31700Y-24200D01*
X31625Y-23825D02*
X31625Y-24125D01*
X31725Y-23725D02*
X31625Y-23825D01*
X31875Y-23725D02*
X31725Y-23725D01*
X32116Y-23483D02*
X31875Y-23725D01*
X52318Y-14918D02*
X52331Y-14918D01*
X52537Y-14400D02*
X53069Y-14400D01*
X52425Y-14512D02*
X52537Y-14400D01*
X52318Y-14918D02*
X51712Y-15525D01*
X51712Y-15525D02*
X49925Y-15525D01*
X49925Y-15525D02*
X49600Y-15200D01*
X52331Y-14918D02*
X52425Y-14825D01*
X52425Y-14825D02*
X52425Y-14512D01*
X47937Y-15400D02*
X48143Y-15193D01*
X46537Y-15900D02*
X46637Y-15800D01*
X46337Y-15900D02*
X46537Y-15900D01*
X46137Y-16100D02*
X46337Y-15900D01*
X46137Y-16200D02*
X46137Y-16100D01*
X47537Y-15800D02*
X46637Y-15800D01*
X47937Y-15400D02*
X47537Y-15800D01*
X39037Y-27896D02*
X38333Y-27896D01*
X38333Y-27896D02*
X38037Y-27600D01*
X38037Y-27600D02*
X37737Y-27600D01*
X30637Y-27500D02*
X30637Y-27000D01*
X30337Y-27800D02*
X30537Y-27600D01*
X21437Y-27900D02*
X30237Y-27900D01*
X30237Y-27900D02*
X30337Y-27800D01*
X30537Y-27600D02*
X30637Y-27500D01*
X30637Y-27000D02*
X30637Y-26700D01*
X18937Y-20700D02*
X19087Y-20650D01*
X18937Y-20700D02*
X18537Y-20700D01*
X20537Y-25700D02*
X20537Y-26900D01*
X21337Y-27900D02*
X20537Y-27100D01*
X20537Y-27100D02*
X20537Y-26900D01*
X21437Y-27900D02*
X21337Y-27900D01*
X30637Y-26550D02*
X30437Y-26350D01*
X30637Y-26700D02*
X30637Y-26550D01*
X35404Y-27696D02*
X35404Y-27982D01*
X35454Y-27896D02*
X35933Y-27896D01*
X35933Y-27896D02*
X35937Y-27900D01*
X38987Y-27950D02*
X38987Y-27696D01*
X27589Y-15189D02*
X27589Y-15356D01*
X27589Y-15189D02*
X27475Y-15075D01*
X28967Y-23032D02*
X28967Y-23432D01*
X28625Y-23775D02*
X28625Y-23925D01*
X28967Y-23432D02*
X28625Y-23775D01*
X48500Y-24500D02*
X48500Y-25087D01*
X44481Y-25818D02*
X47768Y-25818D01*
X44475Y-25825D02*
X44481Y-25818D01*
X48500Y-25087D02*
X47768Y-25818D01*
X34275Y-20175D02*
X34275Y-20025D01*
X35464Y-19685D02*
X35275Y-19875D01*
X36053Y-19685D02*
X35464Y-19685D01*
X34275Y-20025D02*
X34425Y-19875D01*
X34425Y-19875D02*
X35275Y-19875D01*
X28937Y-17100D02*
X28537Y-16700D01*
X28937Y-17400D02*
X29337Y-17800D01*
X28937Y-17100D02*
X28937Y-17400D01*
X29337Y-17800D02*
X29337Y-18500D01*
X28137Y-16700D02*
X28537Y-16700D01*
X29337Y-18500D02*
X29037Y-18800D01*
X27589Y-16537D02*
X27974Y-16537D01*
X27974Y-16537D02*
X28137Y-16700D01*
X27974Y-16537D02*
X28137Y-16700D01*
X28213Y-17324D02*
X28337Y-17200D01*
X27589Y-17324D02*
X28213Y-17324D01*
X56237Y-18200D02*
X55409Y-18200D01*
X32400Y-29750D02*
X32300Y-29750D01*
X35375Y-28925D02*
X34450Y-29850D01*
X34450Y-29850D02*
X32850Y-29850D01*
X32850Y-29850D02*
X32750Y-29750D01*
X32750Y-29750D02*
X32400Y-29750D01*
X35375Y-28925D02*
X35450Y-28925D01*
X36100Y-28925D02*
X36125Y-28925D01*
X37550Y-28500D02*
X37975Y-28925D01*
X36550Y-28500D02*
X37550Y-28500D01*
X36125Y-28925D02*
X36550Y-28500D01*
X40375Y-28725D02*
X40075Y-28725D01*
X40075Y-28725D02*
X39875Y-28925D01*
X34775Y-29075D02*
X34925Y-28925D01*
X34925Y-28925D02*
X35450Y-28925D01*
X35450Y-28925D02*
X36100Y-28925D01*
X37975Y-28925D02*
X39875Y-28925D01*
X42500Y-23500D02*
X42800Y-23500D01*
X43300Y-24000D02*
X43500Y-24000D01*
X42800Y-23500D02*
X43300Y-24000D01*
X44000Y-25000D02*
X42475Y-26525D01*
X43500Y-24000D02*
X43800Y-24000D01*
X43800Y-24000D02*
X44000Y-24200D01*
X44000Y-24200D02*
X44000Y-25000D01*
X42500Y-23500D02*
X42600Y-23500D01*
X29912Y-22425D02*
X29912Y-21375D01*
X29912Y-21375D02*
X29837Y-21300D01*
X30148Y-22660D02*
X30148Y-23032D01*
X29912Y-22425D02*
X30148Y-22660D01*
X15512Y-18032D02*
X15512Y-18125D01*
X15512Y-18125D02*
X15137Y-18500D01*
X15212Y-18425D02*
X15137Y-18500D01*
X14000Y-20600D02*
X14000Y-21000D01*
X13700Y-21300D02*
X13500Y-21300D01*
X14000Y-21000D02*
X13700Y-21300D01*
X14000Y-20300D02*
X14400Y-19900D01*
X14000Y-20700D02*
X14000Y-20600D01*
X14000Y-20600D02*
X14000Y-20300D01*
X14764Y-18032D02*
X14764Y-18273D01*
X14764Y-18273D02*
X14537Y-18500D01*
X16491Y-17352D02*
X16491Y-17746D01*
X15837Y-18400D02*
X15637Y-18400D01*
X16491Y-17746D02*
X15837Y-18400D01*
X15237Y-18950D02*
X15237Y-18800D01*
X15237Y-18800D02*
X15637Y-18400D01*
X16837Y-18900D02*
X16087Y-18900D01*
X16087Y-18900D02*
X16037Y-18950D01*
X16747Y-17352D02*
X16747Y-17890D01*
X16037Y-18600D02*
X16037Y-18950D01*
X16747Y-17890D02*
X16037Y-18600D01*
X9100Y-34725D02*
X9100Y-35300D01*
X17512Y-33600D02*
X17512Y-34075D01*
X17846Y-34409D02*
X18046Y-34409D01*
X17512Y-34075D02*
X17846Y-34409D01*
X15337Y-33200D02*
X15187Y-33050D01*
X15187Y-33050D02*
X15187Y-32223D01*
X19537Y-34400D02*
X18546Y-34400D01*
X18546Y-34400D02*
X18537Y-34409D01*
X18046Y-34409D02*
X18537Y-34409D01*
X14187Y-29200D02*
X14187Y-29112D01*
X15100Y-28300D02*
X15100Y-28300D01*
X15099Y-28300D02*
X15100Y-28300D01*
X14999Y-28300D02*
X15099Y-28300D01*
X14187Y-29112D02*
X14999Y-28300D01*
X20337Y-28700D02*
X18137Y-28700D01*
X30737Y-28700D02*
X20337Y-28700D01*
X34437Y-26600D02*
X34037Y-26600D01*
X30937Y-28500D02*
X31037Y-28400D01*
X31037Y-28400D02*
X31837Y-28400D01*
X31837Y-28400D02*
X33637Y-26600D01*
X33637Y-26600D02*
X34037Y-26600D01*
X30737Y-28700D02*
X30937Y-28500D01*
X17737Y-28300D02*
X17937Y-28500D01*
X17737Y-28300D02*
X15100Y-28300D01*
X18137Y-28700D02*
X17937Y-28500D01*
X14187Y-29650D02*
X14187Y-29200D01*
X14187Y-29650D02*
X14187Y-30177D01*
G54D83*
X31254Y-29283D02*
X31254Y-29416D01*
X32337Y-33000D02*
X31837Y-33500D01*
X32337Y-30500D02*
X32337Y-33000D01*
X31254Y-29416D02*
X32337Y-30500D01*
X28887Y-33700D02*
X31637Y-33700D01*
X31637Y-33700D02*
X31837Y-33500D01*
X26337Y-33250D02*
X25887Y-33700D01*
X26337Y-31000D02*
X26337Y-33250D01*
X26237Y-30900D02*
X26337Y-31000D01*
X23337Y-34150D02*
X23887Y-34700D01*
X23337Y-31900D02*
X23337Y-34150D01*
X22737Y-31300D02*
X23337Y-31900D01*
X18500Y-36000D02*
X17900Y-36000D01*
X17700Y-35800D02*
X17700Y-35500D01*
X17900Y-36000D02*
X17700Y-35800D01*
X18600Y-36000D02*
X18500Y-36000D01*
X18500Y-36000D02*
X18237Y-36000D01*
X26537Y-35900D02*
X26437Y-36000D01*
X26537Y-35900D02*
X26887Y-35550D01*
X26887Y-34700D02*
X26887Y-35550D01*
X26437Y-36000D02*
X18600Y-36000D01*
X27887Y-33700D02*
X27887Y-33250D01*
X27887Y-33250D02*
X30137Y-31000D01*
X24887Y-33700D02*
X24887Y-31650D01*
X25337Y-31200D02*
X24937Y-31600D01*
X24887Y-31650D02*
X24937Y-31600D01*
X24937Y-33650D02*
X24887Y-33700D01*
X25737Y-27300D02*
X25537Y-27300D01*
X24037Y-27600D02*
X23737Y-27300D01*
X25237Y-27600D02*
X24037Y-27600D01*
X25537Y-27300D02*
X25237Y-27600D01*
X24287Y-35300D02*
X24887Y-34700D01*
X23537Y-35300D02*
X24287Y-35300D01*
X22837Y-34600D02*
X23537Y-35300D01*
X22837Y-33600D02*
X22837Y-34600D01*
X22137Y-32900D02*
X22837Y-33600D01*
X22137Y-31300D02*
X22137Y-32900D01*
X18200Y-36300D02*
X17500Y-36300D01*
X17200Y-36000D02*
X17200Y-35600D01*
X17500Y-36300D02*
X17200Y-36000D01*
X27237Y-36200D02*
X27887Y-35550D01*
X27887Y-34700D02*
X27887Y-35550D01*
X27137Y-36300D02*
X27237Y-36200D01*
X18200Y-36300D02*
X27137Y-36300D01*
X30037Y-30500D02*
X30037Y-30550D01*
X30037Y-30550D02*
X26887Y-33700D01*
X25137Y-30800D02*
X24937Y-30800D01*
X23887Y-31850D02*
X23887Y-33700D01*
X24937Y-30800D02*
X23887Y-31850D01*
X25737Y-25300D02*
X24487Y-25300D01*
X21437Y-35700D02*
X20837Y-35100D01*
X25887Y-34700D02*
X25887Y-35250D01*
X20937Y-31400D02*
X20837Y-31500D01*
X25437Y-35700D02*
X21437Y-35700D01*
X25887Y-35250D02*
X25437Y-35700D01*
X20837Y-35100D02*
X20837Y-31500D01*
X17900Y-36600D02*
X17200Y-36600D01*
X16700Y-36100D02*
X16700Y-35700D01*
X17200Y-36600D02*
X16700Y-36100D01*
X28237Y-36500D02*
X28137Y-36600D01*
X28137Y-36600D02*
X17900Y-36600D01*
X17900Y-36600D02*
X17637Y-36600D01*
X28887Y-34700D02*
X28887Y-35850D01*
X28237Y-36500D02*
X28887Y-35850D01*
G54D81*
X37287Y-23650D02*
X36414Y-23650D01*
X39337Y-23200D02*
X37737Y-23200D01*
X37287Y-23650D02*
X37337Y-23600D01*
X37337Y-23600D02*
X37737Y-23200D01*
X39587Y-22950D02*
X39337Y-23200D01*
X36837Y-25900D02*
X36437Y-25900D01*
X36437Y-25900D02*
X36037Y-25500D01*
X35937Y-25500D02*
X36037Y-25500D01*
X35737Y-23800D02*
X35737Y-25300D01*
X35887Y-23650D02*
X35737Y-23800D01*
X36414Y-23650D02*
X35887Y-23650D01*
X35837Y-25400D02*
X35737Y-25300D01*
X35937Y-25500D02*
X35837Y-25400D01*
X36264Y-24200D02*
X37037Y-24200D01*
X54995Y-25305D02*
X54600Y-25305D01*
X55050Y-25250D02*
X54995Y-25305D01*
X53200Y-31225D02*
X56045Y-31225D01*
X56045Y-31225D02*
X56370Y-30900D01*
X42550Y-11004D02*
X41846Y-11004D01*
X41846Y-11004D02*
X41700Y-11150D01*
X43600Y-10400D02*
X44100Y-10400D01*
X44100Y-10400D02*
X44250Y-10250D01*
X52450Y-9800D02*
X51853Y-9800D01*
X45050Y-9400D02*
X45950Y-9400D01*
X45950Y-9400D02*
X46400Y-9400D01*
X46400Y-9400D02*
X46500Y-9300D01*
X25390Y-12777D02*
X25872Y-12777D01*
X25872Y-12777D02*
X26150Y-12500D01*
X39037Y-26400D02*
X38399Y-26400D01*
X38150Y-26650D02*
X38150Y-26850D01*
X38399Y-26400D02*
X38150Y-26650D01*
X14996Y-22000D02*
X15200Y-22000D01*
X15587Y-21612D02*
X15587Y-21100D01*
X15200Y-22000D02*
X15587Y-21612D01*
X7737Y-27900D02*
X7737Y-28200D01*
X43946Y-29250D02*
X44450Y-29250D01*
G54D82*
X36496Y-29350D02*
X36850Y-29350D01*
X36900Y-29350D02*
X36850Y-29350D01*
X36900Y-29350D02*
X37254Y-29350D01*
X39354Y-29300D02*
X39000Y-29300D01*
X42054Y-29300D02*
X41800Y-29300D01*
X41500Y-29300D02*
X41650Y-29450D01*
X41500Y-29300D02*
X41296Y-29300D01*
X41800Y-29300D02*
X41650Y-29450D01*
X37900Y-33300D02*
X38600Y-33300D01*
X41900Y-33300D02*
X42600Y-33300D01*
X45900Y-33300D02*
X46500Y-33300D01*
X49900Y-33300D02*
X50600Y-33300D01*
G54D81*
X53950Y-25305D02*
X53950Y-24800D01*
X53950Y-24800D02*
X53900Y-24750D01*
X52550Y-25305D02*
X52745Y-25305D01*
X52745Y-25305D02*
X52900Y-25150D01*
X53250Y-25305D02*
X53055Y-25305D01*
X52900Y-25150D02*
X52900Y-24950D01*
X53055Y-25305D02*
X52900Y-25150D01*
X38633Y-18600D02*
X38633Y-18904D01*
X38633Y-18904D02*
X38437Y-19100D01*
X38633Y-18804D02*
X38437Y-19100D01*
X38633Y-18600D02*
X38633Y-18804D01*
X40737Y-19800D02*
X40737Y-19562D01*
X40899Y-19400D02*
X41037Y-19400D01*
X40737Y-19562D02*
X40899Y-19400D01*
X40737Y-19800D02*
X40737Y-19700D01*
X27937Y-15946D02*
X28053Y-15946D01*
X28225Y-15775D02*
X28475Y-15775D01*
X28053Y-15946D02*
X28225Y-15775D01*
X55625Y-36075D02*
X55075Y-36075D01*
X40037Y-16950D02*
X40037Y-17613D01*
X40037Y-17613D02*
X40052Y-17628D01*
X40052Y-17628D02*
X40052Y-18002D01*
X40052Y-18002D02*
X40125Y-18075D01*
X39037Y-26400D02*
X39037Y-25800D01*
X35454Y-26400D02*
X34887Y-26400D01*
X34887Y-26400D02*
X34787Y-26300D01*
X47037Y-17450D02*
X47537Y-17450D01*
X47537Y-17450D02*
X47787Y-17200D01*
X47787Y-17200D02*
X47787Y-17150D01*
X47787Y-17150D02*
X47787Y-17200D01*
X36053Y-21654D02*
X36441Y-21654D01*
X36487Y-21750D02*
X36737Y-22000D01*
X36487Y-21700D02*
X36487Y-21750D01*
X36441Y-21654D02*
X36487Y-21700D01*
X36737Y-22000D02*
X36737Y-22700D01*
X48533Y-17200D02*
X48537Y-17196D01*
X43237Y-15000D02*
X43237Y-15250D01*
X43037Y-15700D02*
X42937Y-15800D01*
X43037Y-15450D02*
X43037Y-15700D01*
X43237Y-15250D02*
X43037Y-15450D01*
X44737Y-19700D02*
X44787Y-19700D01*
X45387Y-15850D02*
X45737Y-16100D01*
X45387Y-15850D02*
X44937Y-15850D01*
X19987Y-23250D02*
X19537Y-23250D01*
X20037Y-23200D02*
X20137Y-23100D01*
X20687Y-23100D02*
X20137Y-23100D01*
X20037Y-23200D02*
X19987Y-23250D01*
X28377Y-23032D02*
X28377Y-22339D01*
X28377Y-22339D02*
X28337Y-22300D01*
X37137Y-13800D02*
X37037Y-13900D01*
X37587Y-13800D02*
X37137Y-13800D01*
X37037Y-14104D02*
X37037Y-13900D01*
X37637Y-13800D02*
X37587Y-13800D01*
X37737Y-13800D02*
X37637Y-13800D01*
X37987Y-13550D02*
X37737Y-13800D01*
X45837Y-20100D02*
X45641Y-19904D01*
X45837Y-20100D02*
X46033Y-19904D01*
X45337Y-19904D02*
X45641Y-19904D01*
X46337Y-19904D02*
X46033Y-19904D01*
X45037Y-17996D02*
X44641Y-17996D01*
X44641Y-17996D02*
X44637Y-18000D01*
X47137Y-20200D02*
X47437Y-19900D01*
X47137Y-20200D02*
X47137Y-20404D01*
X46237Y-14600D02*
X45837Y-14600D01*
X49541Y-16800D02*
X49237Y-16800D01*
X49237Y-16800D02*
X49037Y-16600D01*
X50137Y-18500D02*
X50137Y-18704D01*
X50237Y-18400D02*
X50137Y-18500D01*
X50737Y-18400D02*
X50237Y-18400D01*
X50837Y-18500D02*
X50737Y-18400D01*
X48537Y-17196D02*
X48537Y-17500D01*
X48537Y-17500D02*
X48637Y-17600D01*
X56567Y-30900D02*
X55750Y-30900D01*
X55750Y-30900D02*
X55437Y-28500D01*
X56567Y-30900D02*
X55950Y-30900D01*
X55950Y-30900D02*
X55437Y-28900D01*
X58237Y-32200D02*
X58237Y-31800D01*
X58537Y-20988D02*
X57725Y-20988D01*
X58537Y-16488D02*
X57625Y-16488D01*
X58537Y-16744D02*
X57681Y-16744D01*
X57681Y-16744D02*
X57637Y-16700D01*
X58537Y-12244D02*
X57781Y-12244D01*
X57781Y-12244D02*
X57737Y-12200D01*
X58537Y-11988D02*
X57825Y-11988D01*
X58237Y-12244D02*
X57781Y-12244D01*
X57637Y-12100D02*
X57637Y-11800D01*
X57781Y-12244D02*
X57737Y-12200D01*
X57737Y-12200D02*
X57637Y-12100D01*
X58237Y-16744D02*
X57681Y-16744D01*
X57537Y-16600D02*
X57537Y-16400D01*
X57681Y-16744D02*
X57637Y-16700D01*
X57637Y-16700D02*
X57537Y-16600D01*
X56837Y-11500D02*
X56837Y-11700D01*
X57825Y-11988D02*
X57637Y-11800D01*
X57825Y-11988D02*
X58237Y-11988D01*
X56937Y-11800D02*
X57637Y-11800D01*
X56837Y-11700D02*
X56937Y-11800D01*
X56937Y-16100D02*
X56937Y-16300D01*
X57625Y-16488D02*
X57537Y-16400D01*
X57625Y-16488D02*
X58237Y-16488D01*
X57037Y-16400D02*
X57537Y-16400D01*
X56937Y-16300D02*
X57037Y-16400D01*
X56937Y-20700D02*
X57437Y-20700D01*
X57725Y-20988D02*
X57537Y-20800D01*
X57725Y-20988D02*
X58237Y-20988D01*
X57437Y-20700D02*
X57537Y-20800D01*
X54837Y-19995D02*
X54837Y-20700D01*
X54837Y-20700D02*
X54537Y-21000D01*
X18487Y-22650D02*
X18487Y-22700D01*
X19041Y-15400D02*
X19041Y-14896D01*
X19233Y-14704D02*
X19233Y-14400D01*
X19041Y-14896D02*
X19233Y-14704D01*
X19737Y-11600D02*
X19937Y-11800D01*
X19737Y-11446D02*
X19737Y-11600D01*
X25794Y-10257D02*
X26137Y-10600D01*
X25824Y-10887D02*
X25850Y-10887D01*
X25850Y-10887D02*
X26137Y-10600D01*
X51187Y-20800D02*
X50837Y-20800D01*
X50837Y-20800D02*
X50537Y-21100D01*
X54605Y-14400D02*
X54037Y-14400D01*
X53837Y-14200D02*
X53837Y-14000D01*
X54037Y-14400D02*
X53837Y-14200D01*
X54605Y-15400D02*
X55537Y-15400D01*
X54605Y-15900D02*
X55537Y-15900D01*
X36414Y-24650D02*
X37087Y-24650D01*
X37237Y-25300D02*
X37037Y-25500D01*
X37237Y-24800D02*
X37237Y-25300D01*
X37087Y-24650D02*
X37237Y-24800D01*
X38333Y-21300D02*
X38333Y-21604D01*
X37937Y-22000D02*
X38137Y-21800D01*
X37937Y-22000D02*
X37937Y-22200D01*
X38333Y-21604D02*
X38137Y-21800D01*
X42737Y-15800D02*
X42937Y-15800D01*
X43037Y-16400D02*
X42937Y-16500D01*
X43037Y-15900D02*
X43037Y-16400D01*
X42937Y-15800D02*
X43037Y-15900D01*
X42137Y-16500D02*
X42937Y-16500D01*
X43137Y-16500D02*
X43437Y-16800D01*
X42737Y-16500D02*
X43137Y-16500D01*
X43237Y-16600D02*
X43437Y-16800D01*
X27589Y-15946D02*
X27937Y-15946D01*
X16837Y-19500D02*
X16837Y-19800D01*
X16837Y-19800D02*
X16737Y-19900D01*
X16737Y-19900D02*
X16837Y-19800D01*
X15137Y-16970D02*
X15707Y-16970D01*
X15707Y-16970D02*
X15937Y-17200D01*
X48637Y-19904D02*
X48637Y-19700D01*
X48637Y-19700D02*
X48837Y-19500D01*
X25390Y-10257D02*
X25794Y-10257D01*
X41437Y-19800D02*
X41437Y-19500D01*
X41437Y-19500D02*
X41337Y-19400D01*
X41337Y-19400D02*
X41037Y-19400D01*
X41985Y-20152D02*
X41633Y-19800D01*
X41633Y-19800D02*
X41437Y-19800D01*
X19237Y-30000D02*
X19237Y-30100D01*
X16037Y-24500D02*
X16337Y-24500D01*
X16337Y-24500D02*
X16537Y-24300D01*
X19137Y-17896D02*
X19137Y-18100D01*
X19037Y-18200D02*
X18637Y-18200D01*
X19137Y-18100D02*
X19037Y-18200D01*
X15587Y-20550D02*
X15587Y-21100D01*
X15337Y-20300D02*
X15587Y-20550D01*
X46337Y-14904D02*
X46337Y-14700D01*
X46337Y-14700D02*
X46237Y-14600D01*
X44860Y-13850D02*
X45287Y-13850D01*
X45437Y-14200D02*
X45837Y-14600D01*
X45437Y-14000D02*
X45437Y-14200D01*
X45287Y-13850D02*
X45437Y-14000D01*
X34675Y-14568D02*
X34675Y-13862D01*
X34675Y-13862D02*
X34737Y-13800D01*
X25390Y-18445D02*
X24982Y-18445D01*
X24982Y-18445D02*
X24837Y-18300D01*
X24837Y-14500D02*
X24987Y-14350D01*
X25390Y-10887D02*
X25824Y-10887D01*
X19041Y-15400D02*
X19041Y-15804D01*
X19041Y-15804D02*
X19137Y-15900D01*
X20982Y-13722D02*
X21615Y-13722D01*
X21615Y-13722D02*
X21637Y-13700D01*
X25390Y-14350D02*
X24987Y-14350D01*
X24837Y-14700D02*
X24850Y-14800D01*
X24837Y-14500D02*
X24837Y-14700D01*
X22337Y-11900D02*
X22269Y-11832D01*
X22269Y-11832D02*
X20982Y-11832D01*
X18027Y-17352D02*
X18027Y-17790D01*
X18027Y-17790D02*
X18237Y-18000D01*
G54D83*
X9100Y-33975D02*
X9100Y-33400D01*
X33800Y-23900D02*
X33627Y-23900D01*
X33627Y-23900D02*
X33527Y-23800D01*
X14600Y-35400D02*
X14800Y-35400D01*
X16287Y-36887D02*
X16287Y-37400D01*
X14800Y-35400D02*
X16287Y-36887D01*
X17541Y-12900D02*
X17541Y-12646D01*
X17737Y-12450D02*
X17887Y-12450D01*
X17541Y-12646D02*
X17737Y-12450D01*
G54D81*
X18937Y-11400D02*
X18533Y-11400D01*
X19137Y-13450D02*
X19137Y-13900D01*
X19137Y-13900D02*
X19237Y-14000D01*
X35537Y-18702D02*
X35537Y-18700D01*
X35537Y-18700D02*
X35237Y-18400D01*
X33494Y-23800D02*
X33494Y-23800D01*
X29327Y-9800D02*
X28837Y-9800D01*
X28627Y-10490D02*
X28637Y-10500D01*
X28637Y-10000D02*
X28637Y-10500D01*
X28837Y-9800D02*
X28637Y-10000D01*
X19737Y-9350D02*
X19737Y-9000D01*
X19737Y-9000D02*
X19837Y-8900D01*
X23337Y-9450D02*
X23337Y-9800D01*
X23537Y-10000D02*
X24137Y-10000D01*
X23337Y-9800D02*
X23537Y-10000D01*
X26241Y-10000D02*
X26241Y-10204D01*
X26241Y-10204D02*
X26637Y-10600D01*
X36522Y-17915D02*
X36637Y-17800D01*
X36637Y-17800D02*
X36637Y-17600D01*
X36437Y-17915D02*
X36522Y-17915D01*
X36053Y-17915D02*
X36437Y-17915D01*
X12437Y-30200D02*
X12037Y-30600D01*
X12737Y-30200D02*
X12437Y-30200D01*
X12237Y-35200D02*
X12046Y-35009D01*
X11737Y-35009D02*
X12046Y-35009D01*
X18226Y-33789D02*
X18037Y-33600D01*
X18226Y-33789D02*
X18537Y-33789D01*
X17937Y-10000D02*
X17937Y-10100D01*
X17937Y-10100D02*
X17737Y-10300D01*
X17737Y-10300D02*
X17537Y-10500D01*
X17537Y-10500D02*
X17537Y-10800D01*
X36053Y-18702D02*
X35537Y-18702D01*
X35422Y-17915D02*
X36053Y-17915D01*
X35237Y-18100D02*
X35422Y-17915D01*
X35237Y-18400D02*
X35237Y-18100D01*
X33494Y-23032D02*
X33494Y-23800D01*
X15637Y-9000D02*
X15937Y-8700D01*
X15637Y-9600D02*
X15637Y-9000D01*
X13687Y-30277D02*
X13314Y-30277D01*
X13237Y-30200D02*
X12737Y-30200D01*
X13314Y-30277D02*
X13237Y-30200D01*
X36637Y-17600D02*
X36637Y-17600D01*
X42737Y-17300D02*
X42937Y-17100D01*
X42497Y-17948D02*
X42497Y-17540D01*
X42497Y-17540D02*
X42737Y-17300D01*
X42241Y-20152D02*
X42241Y-20508D01*
X41712Y-20675D02*
X41437Y-20400D01*
X42075Y-20675D02*
X41712Y-20675D01*
X42241Y-20508D02*
X42075Y-20675D01*
X42241Y-17948D02*
X42241Y-17404D01*
X42137Y-17300D02*
X42137Y-17100D01*
X42241Y-17404D02*
X42137Y-17300D01*
X42241Y-17948D02*
X42241Y-17504D01*
X58537Y-11240D02*
X57877Y-11240D01*
X57877Y-11240D02*
X57837Y-11200D01*
X58737Y-14600D02*
X58537Y-14400D01*
X58537Y-14400D02*
X58537Y-13760D01*
X58837Y-14600D02*
X58737Y-14600D01*
X59580Y-13996D02*
X59580Y-14457D01*
X59437Y-14600D02*
X59037Y-14600D01*
X59580Y-14457D02*
X59437Y-14600D01*
X58537Y-13760D02*
X57677Y-13760D01*
X57677Y-13760D02*
X57637Y-13800D01*
X58537Y-11240D02*
X57997Y-11240D01*
X58537Y-11240D02*
X58537Y-10600D01*
X58537Y-10600D02*
X58837Y-10300D01*
X59580Y-11004D02*
X59580Y-10443D01*
X59437Y-10300D02*
X59037Y-10300D01*
X59580Y-10443D02*
X59437Y-10300D01*
X59137Y-10300D02*
X59037Y-10300D01*
X59037Y-10300D02*
X58837Y-10300D01*
X59137Y-14600D02*
X59037Y-14600D01*
X59037Y-14600D02*
X58837Y-14600D01*
X58237Y-11240D02*
X57877Y-11240D01*
X57877Y-11240D02*
X57837Y-11200D01*
X57837Y-11200D02*
X57637Y-11000D01*
X56837Y-10800D02*
X56837Y-10700D01*
X56837Y-10700D02*
X56937Y-10600D01*
X56937Y-10600D02*
X57637Y-10600D01*
X56837Y-10800D02*
X56837Y-10900D01*
X57637Y-11000D02*
X57637Y-10600D01*
X58237Y-13760D02*
X57677Y-13760D01*
X57677Y-13760D02*
X57637Y-13800D01*
X51350Y-13600D02*
X52099Y-13600D01*
X53600Y-12500D02*
X53600Y-12500D01*
X53200Y-12500D02*
X53600Y-12500D01*
X52099Y-13600D02*
X53200Y-12500D01*
X51300Y-13600D02*
X51350Y-13600D01*
X53600Y-12500D02*
X58137Y-12500D01*
X58537Y-12500D02*
X58137Y-12500D01*
X48837Y-13200D02*
X49237Y-13600D01*
X49237Y-13600D02*
X51300Y-13600D01*
X58137Y-12500D02*
X58237Y-12500D01*
X48837Y-13250D02*
X48837Y-13200D01*
X51700Y-13800D02*
X52199Y-13800D01*
X54100Y-12700D02*
X54100Y-12700D01*
X53300Y-12700D02*
X54100Y-12700D01*
X52199Y-13800D02*
X53300Y-12700D01*
X51350Y-13800D02*
X51700Y-13800D01*
X57837Y-12700D02*
X54100Y-12700D01*
X58537Y-12756D02*
X57893Y-12756D01*
X57893Y-12756D02*
X57837Y-12700D01*
X51350Y-13800D02*
X48937Y-13800D01*
X58237Y-12756D02*
X57893Y-12756D01*
X57893Y-12756D02*
X57837Y-12700D01*
X48837Y-13700D02*
X48937Y-13800D01*
X28800Y-26850D02*
X28800Y-26837D01*
X28800Y-26837D02*
X29287Y-26350D01*
X32025Y-24600D02*
X32350Y-24600D01*
X30437Y-26000D02*
X29637Y-26000D01*
X30437Y-26000D02*
X30537Y-26000D01*
X32337Y-25300D02*
X32537Y-25100D01*
X32037Y-25300D02*
X32337Y-25300D01*
X31537Y-25800D02*
X32037Y-25300D01*
X30737Y-25800D02*
X31537Y-25800D01*
X30537Y-26000D02*
X30737Y-25800D01*
X32537Y-24787D02*
X32537Y-25100D01*
X31637Y-24600D02*
X32025Y-24600D01*
X31437Y-24400D02*
X31637Y-24600D01*
X31437Y-24100D02*
X31437Y-24400D01*
X29637Y-26000D02*
X29287Y-26350D01*
X31919Y-23380D02*
X31775Y-23525D01*
X31775Y-23525D02*
X31525Y-23525D01*
X31525Y-23525D02*
X31437Y-23612D01*
X31437Y-23612D02*
X31437Y-24100D01*
X31919Y-23380D02*
X31919Y-23032D01*
X32350Y-24600D02*
X32537Y-24787D01*
X47037Y-16350D02*
X47537Y-16350D01*
X47537Y-16350D02*
X47787Y-16600D01*
X49537Y-16000D02*
X48987Y-16000D01*
X48537Y-16450D02*
X48537Y-16604D01*
X48987Y-16000D02*
X48537Y-16450D01*
X48537Y-16604D02*
X47791Y-16604D01*
X47791Y-16604D02*
X47787Y-16600D01*
X58537Y-13012D02*
X58049Y-13012D01*
X58037Y-13000D02*
X58037Y-13012D01*
X58049Y-13012D02*
X58037Y-13000D01*
X58237Y-13012D02*
X58037Y-13012D01*
X58037Y-13012D02*
X57049Y-13012D01*
X56937Y-13124D02*
X56937Y-13300D01*
X57049Y-13012D02*
X56937Y-13124D01*
X44937Y-14750D02*
X45500Y-14750D01*
X45796Y-15496D02*
X46337Y-15496D01*
X45650Y-15350D02*
X45796Y-15496D01*
X45650Y-14900D02*
X45650Y-15350D01*
X45500Y-14750D02*
X45650Y-14900D01*
X44937Y-14750D02*
X44487Y-14750D01*
X44337Y-15700D02*
X44237Y-15800D01*
X44337Y-14900D02*
X44337Y-15700D01*
X44487Y-14750D02*
X44337Y-14900D01*
X47137Y-15400D02*
X47041Y-15496D01*
X47041Y-15496D02*
X46337Y-15496D01*
X44137Y-15900D02*
X43837Y-15900D01*
X44237Y-15800D02*
X44137Y-15900D01*
X45037Y-14950D02*
X44687Y-14950D01*
X38750Y-15500D02*
X38750Y-15787D01*
X38700Y-15837D02*
X38637Y-15900D01*
X37607Y-16930D02*
X36053Y-16930D01*
X38400Y-16137D02*
X37607Y-16930D01*
X38537Y-16000D02*
X38400Y-16137D01*
X38637Y-15900D02*
X38537Y-16000D01*
X38750Y-15787D02*
X38700Y-15837D01*
X33037Y-20450D02*
X33037Y-20212D01*
X33525Y-19325D02*
X33937Y-18912D01*
X33525Y-19725D02*
X33525Y-19325D01*
X33037Y-20212D02*
X33525Y-19725D01*
X35255Y-17718D02*
X34919Y-17718D01*
X36053Y-17718D02*
X35619Y-17718D01*
X35619Y-17718D02*
X35255Y-17718D01*
X34919Y-17718D02*
X33937Y-18700D01*
X33937Y-18700D02*
X33937Y-18912D01*
X18837Y-16800D02*
X18837Y-16000D01*
X18283Y-15400D02*
X18283Y-15446D01*
X18283Y-15446D02*
X18837Y-16000D01*
X18283Y-15148D02*
X18283Y-15400D01*
X17515Y-15148D02*
X17515Y-14482D01*
X18237Y-16800D02*
X18237Y-16000D01*
X18237Y-16000D02*
X18037Y-15800D01*
X18037Y-15800D02*
X17937Y-15800D01*
X17771Y-15634D02*
X17771Y-15148D01*
X17937Y-15800D02*
X17771Y-15634D01*
X17771Y-15148D02*
X17771Y-15400D01*
X51400Y-8950D02*
X52500Y-8950D01*
X52750Y-9200D02*
X52750Y-10300D01*
X52500Y-8950D02*
X52750Y-9200D01*
X51137Y-8400D02*
X51137Y-8687D01*
X52750Y-10300D02*
X52750Y-10750D01*
X52250Y-11950D02*
X51750Y-11450D01*
X51750Y-11450D02*
X51750Y-11200D01*
X52750Y-10750D02*
X52750Y-11700D01*
X52750Y-11700D02*
X52500Y-11950D01*
X52500Y-11950D02*
X52250Y-11950D01*
X51137Y-8687D02*
X51400Y-8950D01*
X51137Y-8250D02*
X50287Y-7400D01*
X51137Y-8400D02*
X51137Y-8250D01*
X42137Y-15800D02*
X41941Y-15800D01*
X41889Y-15748D02*
X41889Y-14550D01*
X41941Y-15800D02*
X41889Y-15748D01*
X41725Y-13425D02*
X41725Y-14387D01*
X41725Y-13425D02*
X41750Y-13400D01*
X41750Y-13400D02*
X42299Y-12850D01*
X42137Y-14550D02*
X41889Y-14550D01*
X41889Y-14550D02*
X41887Y-14550D01*
X41887Y-14550D02*
X41725Y-14387D01*
X42814Y-12850D02*
X42299Y-12850D01*
X51525Y-8725D02*
X52675Y-8725D01*
X53050Y-9100D02*
X53050Y-10550D01*
X52675Y-8725D02*
X53050Y-9100D01*
X51387Y-8550D02*
X51387Y-8587D01*
X53050Y-10550D02*
X53050Y-10850D01*
X51387Y-8587D02*
X51525Y-8725D01*
X53050Y-10400D02*
X53050Y-10850D01*
X52700Y-12200D02*
X52400Y-12200D01*
X52250Y-12650D02*
X52100Y-12800D01*
X52250Y-12350D02*
X52250Y-12650D01*
X52400Y-12200D02*
X52250Y-12350D01*
X52100Y-12800D02*
X51700Y-12800D01*
X53050Y-10850D02*
X53050Y-11850D01*
X53050Y-11850D02*
X52700Y-12200D01*
X51387Y-8550D02*
X51387Y-8300D01*
X52287Y-7400D02*
X51387Y-8300D01*
X17137Y-14700D02*
X17037Y-14600D01*
X17037Y-14396D02*
X16941Y-14300D01*
X17037Y-14600D02*
X17037Y-14396D01*
X17259Y-15148D02*
X17259Y-14822D01*
X17259Y-14822D02*
X17137Y-14700D01*
X44860Y-12850D02*
X45449Y-12850D01*
X45950Y-11850D02*
X45950Y-11350D01*
X45750Y-12050D02*
X45950Y-11850D01*
X45750Y-12550D02*
X45750Y-12050D01*
X45449Y-12850D02*
X45750Y-12550D01*
X45050Y-10000D02*
X45350Y-10000D01*
X45600Y-10350D02*
X45650Y-10350D01*
X45450Y-10200D02*
X45600Y-10350D01*
X45450Y-10100D02*
X45450Y-10200D01*
X45350Y-10000D02*
X45450Y-10100D01*
X45050Y-10000D02*
X45050Y-10900D01*
X45500Y-11350D02*
X45950Y-11350D01*
X45050Y-10900D02*
X45500Y-11350D01*
X45950Y-10350D02*
X45650Y-10350D01*
X47100Y-10200D02*
X46800Y-10200D01*
X46650Y-10350D02*
X45950Y-10350D01*
X46800Y-10200D02*
X46650Y-10350D01*
X48250Y-9700D02*
X47850Y-10100D01*
X47750Y-10200D02*
X47100Y-10200D01*
X47850Y-10100D02*
X47750Y-10200D01*
X49847Y-9800D02*
X49847Y-10303D01*
X49550Y-10600D02*
X49550Y-10947D01*
X49847Y-10303D02*
X49550Y-10600D01*
X50550Y-11200D02*
X50300Y-11200D01*
X50300Y-11200D02*
X50047Y-10947D01*
X50047Y-10947D02*
X49550Y-10947D01*
X48250Y-9700D02*
X49000Y-9700D01*
X49100Y-9800D02*
X49847Y-9800D01*
X49000Y-9700D02*
X49100Y-9800D01*
X45950Y-10000D02*
X46350Y-10000D01*
X46650Y-9700D02*
X47250Y-9700D01*
X46350Y-10000D02*
X46650Y-9700D01*
X48250Y-11700D02*
X48250Y-12250D01*
X47150Y-12900D02*
X47150Y-13300D01*
X47450Y-12600D02*
X47150Y-12900D01*
X47900Y-12600D02*
X47450Y-12600D01*
X48250Y-12250D02*
X47900Y-12600D01*
X45950Y-10750D02*
X46550Y-10750D01*
X46550Y-10750D02*
X46600Y-10700D01*
X47250Y-10700D02*
X46600Y-10700D01*
X49550Y-12853D02*
X48547Y-12853D01*
X48600Y-14500D02*
X49197Y-14500D01*
X48250Y-14150D02*
X48600Y-14500D01*
X48250Y-13150D02*
X48250Y-14150D01*
X48547Y-12853D02*
X48250Y-13150D01*
X49550Y-12953D02*
X49203Y-12953D01*
X48550Y-10700D02*
X48250Y-10700D01*
X48850Y-11000D02*
X48550Y-10700D01*
X48850Y-12600D02*
X48850Y-11000D01*
X49203Y-12953D02*
X48850Y-12600D01*
X50500Y-12800D02*
X50300Y-12800D01*
X50147Y-12953D02*
X49550Y-12953D01*
X50300Y-12800D02*
X50147Y-12953D01*
X47250Y-11700D02*
X46700Y-11700D01*
X46137Y-12262D02*
X46137Y-13300D01*
X46700Y-11700D02*
X46137Y-12262D01*
X48250Y-10700D02*
X48250Y-10800D01*
X48250Y-10800D02*
X47850Y-11200D01*
X47850Y-11200D02*
X47400Y-11200D01*
X47400Y-11200D02*
X47250Y-11350D01*
X47250Y-11350D02*
X47250Y-11700D01*
X46187Y-13250D02*
X46137Y-13300D01*
X44860Y-13350D02*
X45437Y-13350D01*
X45587Y-13200D02*
X46137Y-13200D01*
X45437Y-13350D02*
X45587Y-13200D01*
X13500Y-20700D02*
X13500Y-20500D01*
X13300Y-20300D02*
X13300Y-19700D01*
X13500Y-20500D02*
X13300Y-20300D01*
X17515Y-17352D02*
X17515Y-16922D01*
X16237Y-16300D02*
X15937Y-16300D01*
X16337Y-16400D02*
X16237Y-16300D01*
X17437Y-16400D02*
X16337Y-16400D01*
X17637Y-16600D02*
X17437Y-16400D01*
X17637Y-16800D02*
X17637Y-16600D01*
X17515Y-16922D02*
X17637Y-16800D01*
X16747Y-15148D02*
X16747Y-14747D01*
X12900Y-13200D02*
X11600Y-13200D01*
X13500Y-13800D02*
X12900Y-13200D01*
X15800Y-13800D02*
X13500Y-13800D01*
X16747Y-14747D02*
X15800Y-13800D01*
X14737Y-15300D02*
X15137Y-14900D01*
X16243Y-14900D02*
X16491Y-15148D01*
X15137Y-14900D02*
X16243Y-14900D01*
X17771Y-16966D02*
X17837Y-16900D01*
X17837Y-16900D02*
X17837Y-16500D01*
X17837Y-16500D02*
X17537Y-16200D01*
X17537Y-16200D02*
X16737Y-16200D01*
X16737Y-16200D02*
X16037Y-15500D01*
X15937Y-15500D02*
X16037Y-15500D01*
X17771Y-16966D02*
X17771Y-17352D01*
X11000Y-12500D02*
X8600Y-12500D01*
X8037Y-13062D02*
X8037Y-16100D01*
X8600Y-12500D02*
X8037Y-13062D01*
X8037Y-14700D02*
X8037Y-13600D01*
X9837Y-16550D02*
X8487Y-16550D01*
X8037Y-16100D02*
X8037Y-14700D01*
X8487Y-16550D02*
X8037Y-16100D01*
X14100Y-13600D02*
X17037Y-13600D01*
X11600Y-12500D02*
X12500Y-12500D01*
X13600Y-13600D02*
X14100Y-13600D01*
X12500Y-12500D02*
X13600Y-13600D01*
X18641Y-14450D02*
X18287Y-14450D01*
X18037Y-14800D02*
X18027Y-14800D01*
X18037Y-14700D02*
X18037Y-14800D01*
X18287Y-14450D02*
X18037Y-14700D01*
X17237Y-13800D02*
X17337Y-13900D01*
X18037Y-14100D02*
X17837Y-13900D01*
X18037Y-14200D02*
X18037Y-14100D01*
X18027Y-14210D02*
X18037Y-14200D01*
X18027Y-14800D02*
X18027Y-14300D01*
X18027Y-14300D02*
X18027Y-14210D01*
X17237Y-13800D02*
X17037Y-13600D01*
X17337Y-13900D02*
X17837Y-13900D01*
X18027Y-15148D02*
X18027Y-14800D01*
X18027Y-14514D02*
X18027Y-15148D01*
X9837Y-15500D02*
X11299Y-15500D01*
X14500Y-15600D02*
X15037Y-15600D01*
X13900Y-15000D02*
X14500Y-15600D01*
X11800Y-15000D02*
X13900Y-15000D01*
X11299Y-15500D02*
X11800Y-15000D01*
X15137Y-15500D02*
X15037Y-15600D01*
X15337Y-15500D02*
X15137Y-15500D01*
X10037Y-15500D02*
X9837Y-15500D01*
X11000Y-16000D02*
X10137Y-16000D01*
X15000Y-16300D02*
X14700Y-16000D01*
X14700Y-16000D02*
X11000Y-16000D01*
X15337Y-16300D02*
X15000Y-16300D01*
X10137Y-16000D02*
X10137Y-16000D01*
X9837Y-14400D02*
X8637Y-14400D01*
X9437Y-16000D02*
X10137Y-16000D01*
X9337Y-15900D02*
X9437Y-16000D01*
X9337Y-15700D02*
X9337Y-15900D01*
X9137Y-15500D02*
X9337Y-15700D01*
X8537Y-15500D02*
X9137Y-15500D01*
X8337Y-15300D02*
X8537Y-15500D01*
X8337Y-14700D02*
X8337Y-15300D01*
X8637Y-14400D02*
X8337Y-14700D01*
X8837Y-14950D02*
X10049Y-14950D01*
X10700Y-13200D02*
X11000Y-13200D01*
X10500Y-13400D02*
X10700Y-13200D01*
X10500Y-13600D02*
X10500Y-13400D01*
X10500Y-14500D02*
X10500Y-13600D01*
X10049Y-14950D02*
X10500Y-14500D01*
X13900Y-18200D02*
X13800Y-18200D01*
X14800Y-17400D02*
X14700Y-17400D01*
X13900Y-18200D02*
X14700Y-17400D01*
X13800Y-18200D02*
X13300Y-18700D01*
X17003Y-15766D02*
X17003Y-15148D01*
X17037Y-15800D02*
X17003Y-15766D01*
G54D82*
X53200Y-34375D02*
X54675Y-34375D01*
X54425Y-33725D02*
X54425Y-33325D01*
X54675Y-34375D02*
X54425Y-34125D01*
G54D81*
X56748Y-26650D02*
X56748Y-26852D01*
X56748Y-26852D02*
X55950Y-27650D01*
X55950Y-27650D02*
X55237Y-26600D01*
X54737Y-26600D02*
X54737Y-27100D01*
X55237Y-27100D02*
X55237Y-27200D01*
X54037Y-19400D02*
X54832Y-19400D01*
X54832Y-19400D02*
X54837Y-19405D01*
X16037Y-23900D02*
X16037Y-23500D01*
X16037Y-23500D02*
X16695Y-22842D01*
X16695Y-22842D02*
X17450Y-22842D01*
X10400Y-25500D02*
X11500Y-25500D01*
X16200Y-22055D02*
X16044Y-22055D01*
X17450Y-22055D02*
X16200Y-22055D01*
X16044Y-22055D02*
X14719Y-23380D01*
X14719Y-23380D02*
X14719Y-24880D01*
X14719Y-24880D02*
X14000Y-25600D01*
X14000Y-25600D02*
X11600Y-25600D01*
X11600Y-25600D02*
X11500Y-25500D01*
X10400Y-25500D02*
X10100Y-25800D01*
X10750Y-27150D02*
X10800Y-27150D01*
X10100Y-26500D02*
X10750Y-27150D01*
X10100Y-25800D02*
X10100Y-26500D01*
X24987Y-26550D02*
X26187Y-26550D01*
X23687Y-26550D02*
X23737Y-26600D01*
X23337Y-26200D02*
X23687Y-26550D01*
X23087Y-23700D02*
X22487Y-23700D01*
X23337Y-23450D02*
X23087Y-23700D01*
X23337Y-23050D02*
X23337Y-23200D01*
X22487Y-23700D02*
X22337Y-23850D01*
X22337Y-23850D02*
X22337Y-24650D01*
X22337Y-24650D02*
X22437Y-24750D01*
X22437Y-24750D02*
X22937Y-24750D01*
X22937Y-24750D02*
X23237Y-25050D01*
X22737Y-22700D02*
X23137Y-22700D01*
X22037Y-22500D02*
X20487Y-22500D01*
X22737Y-22700D02*
X22237Y-22700D01*
X22237Y-22700D02*
X22037Y-22500D01*
X23337Y-22900D02*
X23337Y-23050D01*
X23137Y-22700D02*
X23337Y-22900D01*
X23337Y-23200D02*
X23337Y-23450D01*
X23337Y-25150D02*
X23237Y-25050D01*
X23337Y-26200D02*
X23337Y-25150D01*
X19279Y-22842D02*
X19387Y-22950D01*
X19387Y-22950D02*
X19937Y-22950D01*
X19937Y-22950D02*
X20387Y-22500D01*
X20387Y-22500D02*
X20487Y-22500D01*
X19279Y-22842D02*
X19024Y-22842D01*
X24937Y-26600D02*
X24987Y-26550D01*
X23737Y-26600D02*
X24937Y-26600D01*
X28600Y-27200D02*
X28500Y-27200D01*
X26187Y-26550D02*
X26387Y-26750D01*
X26387Y-26750D02*
X27287Y-26750D01*
X27287Y-26750D02*
X27737Y-27200D01*
X27737Y-27200D02*
X28500Y-27200D01*
X22187Y-22000D02*
X22287Y-22000D01*
X22287Y-22000D02*
X22537Y-22000D01*
X20137Y-21750D02*
X19597Y-21750D01*
X19024Y-22055D02*
X19232Y-22055D01*
X19297Y-22050D02*
X19597Y-21750D01*
X19237Y-22050D02*
X19297Y-22050D01*
X19232Y-22055D02*
X19237Y-22050D01*
X20387Y-22000D02*
X21237Y-22000D01*
X20137Y-21750D02*
X20387Y-22000D01*
X22187Y-22000D02*
X21237Y-22000D01*
X20150Y-21350D02*
X20199Y-21350D01*
X20450Y-21100D02*
X21037Y-21100D01*
X20199Y-21350D02*
X20450Y-21100D01*
X21037Y-21100D02*
X21237Y-20900D01*
X21437Y-20900D02*
X21237Y-20900D01*
X19437Y-21350D02*
X19387Y-21350D01*
X19174Y-21563D02*
X18729Y-21563D01*
X19387Y-21350D02*
X19174Y-21563D01*
X19437Y-21350D02*
X20150Y-21350D01*
X20250Y-21550D02*
X20299Y-21550D01*
X21037Y-21487D02*
X21037Y-21700D01*
X20850Y-21300D02*
X21037Y-21487D01*
X20550Y-21300D02*
X20850Y-21300D01*
X20299Y-21550D02*
X20550Y-21300D01*
X19487Y-21550D02*
X19587Y-21550D01*
X19179Y-21858D02*
X19487Y-21550D01*
X20250Y-21550D02*
X19587Y-21550D01*
X21437Y-21600D02*
X21187Y-21600D01*
X21187Y-21600D02*
X21037Y-21700D01*
X19024Y-21858D02*
X19179Y-21858D01*
X19024Y-21858D02*
X19179Y-21858D01*
X19437Y-22700D02*
X19487Y-22750D01*
X19024Y-22645D02*
X19382Y-22645D01*
X19382Y-22645D02*
X19437Y-22700D01*
X19787Y-22750D02*
X19837Y-22700D01*
X19487Y-22750D02*
X19787Y-22750D01*
X20337Y-22200D02*
X19837Y-22700D01*
X22287Y-22200D02*
X22337Y-22200D01*
X22337Y-22200D02*
X22537Y-22400D01*
X20337Y-22200D02*
X22287Y-22200D01*
X17942Y-21405D02*
X17942Y-21355D01*
X17687Y-21100D02*
X17687Y-21050D01*
X17942Y-21355D02*
X17687Y-21100D01*
X17942Y-21563D02*
X17942Y-21405D01*
X17687Y-19500D02*
X17837Y-19350D01*
X17837Y-19350D02*
X17887Y-19300D01*
X17687Y-21050D02*
X17687Y-19500D01*
X19487Y-19350D02*
X19287Y-19350D01*
X18037Y-19150D02*
X17837Y-19350D01*
X19087Y-19150D02*
X18037Y-19150D01*
X19287Y-19350D02*
X19087Y-19150D01*
X17745Y-21563D02*
X17745Y-21458D01*
X17237Y-20700D02*
X17237Y-20950D01*
X17187Y-20900D02*
X17237Y-20950D01*
X17237Y-20950D02*
X17437Y-21150D01*
X17745Y-21458D02*
X17437Y-21150D01*
X17887Y-21000D02*
X17887Y-19600D01*
X17937Y-21050D02*
X17887Y-21000D01*
X17937Y-21050D02*
X18139Y-21252D01*
X18139Y-21563D02*
X18139Y-21252D01*
X18139Y-21302D02*
X18139Y-21252D01*
X18139Y-21563D02*
X18139Y-21302D01*
X19487Y-20050D02*
X19287Y-20050D01*
X18887Y-19350D02*
X19187Y-19650D01*
X19287Y-20050D02*
X19187Y-19950D01*
X19187Y-19950D02*
X19187Y-19900D01*
X19187Y-19900D02*
X19187Y-19800D01*
X19187Y-19800D02*
X19187Y-19650D01*
X18137Y-19350D02*
X17887Y-19600D01*
X18887Y-19350D02*
X18137Y-19350D01*
X18987Y-19450D02*
X18887Y-19350D01*
X19487Y-22150D02*
X19587Y-22050D01*
X19335Y-22252D02*
X19385Y-22252D01*
X19024Y-22252D02*
X19335Y-22252D01*
X19385Y-22252D02*
X19487Y-22150D01*
X19587Y-22050D02*
X19937Y-22050D01*
X15318Y-23518D02*
X15318Y-25118D01*
X15318Y-25118D02*
X15137Y-25300D01*
X14118Y-26318D02*
X13418Y-26318D01*
X13418Y-26318D02*
X13250Y-26150D01*
X13250Y-26150D02*
X10800Y-26150D01*
X14118Y-26318D02*
X15137Y-25300D01*
X17450Y-22448D02*
X16389Y-22448D01*
X16389Y-22448D02*
X15318Y-23518D01*
X10490Y-25690D02*
X11390Y-25690D01*
X11390Y-25690D02*
X11400Y-25700D01*
X10300Y-25900D02*
X10300Y-25880D01*
X10300Y-25880D02*
X10490Y-25690D01*
X16147Y-22252D02*
X14900Y-23500D01*
X16400Y-22252D02*
X16147Y-22252D01*
X11500Y-25800D02*
X11400Y-25700D01*
X14100Y-25800D02*
X11500Y-25800D01*
X14900Y-25000D02*
X14100Y-25800D01*
X14900Y-23500D02*
X14900Y-25000D01*
X10800Y-28150D02*
X11150Y-28150D01*
X11150Y-28150D02*
X11300Y-28000D01*
X11300Y-28000D02*
X11300Y-26900D01*
X11300Y-26900D02*
X11000Y-26600D01*
X11000Y-26600D02*
X10500Y-26600D01*
X10500Y-26600D02*
X10300Y-26400D01*
X10300Y-26400D02*
X10300Y-25900D01*
X17450Y-22252D02*
X16400Y-22252D01*
X16400Y-22252D02*
X16185Y-22252D01*
G54D83*
X10500Y-17200D02*
X10500Y-17800D01*
X10500Y-17200D02*
X11200Y-16500D01*
X12500Y-16500D02*
X11200Y-16500D01*
X9800Y-18500D02*
X10500Y-17800D01*
X9800Y-18500D02*
X9800Y-19000D01*
X9800Y-22200D02*
X10200Y-22600D01*
X9800Y-18800D02*
X9800Y-19000D01*
X9800Y-19000D02*
X9800Y-22200D01*
X12800Y-24150D02*
X12800Y-24600D01*
X10200Y-24900D02*
X10200Y-22600D01*
X10500Y-25200D02*
X10200Y-24900D01*
X12200Y-25200D02*
X10500Y-25200D01*
X12800Y-24600D02*
X12200Y-25200D01*
X13000Y-18300D02*
X12700Y-18600D01*
X12700Y-20600D02*
X12900Y-20800D01*
X12700Y-18600D02*
X12700Y-20600D01*
X12900Y-21400D02*
X12900Y-20800D01*
X12900Y-23100D02*
X12300Y-23700D01*
X12900Y-21400D02*
X12900Y-23100D01*
X12300Y-23700D02*
X12300Y-24150D01*
X12300Y-24150D02*
X11800Y-24650D01*
X12900Y-18400D02*
X13000Y-18300D01*
X13000Y-18300D02*
X13200Y-18100D01*
X13500Y-17800D02*
X13200Y-18100D01*
X13500Y-17500D02*
X13500Y-17800D01*
G54D81*
X14300Y-22500D02*
X15300Y-22500D01*
X15500Y-22300D02*
X15500Y-22295D01*
X15300Y-22500D02*
X15500Y-22300D01*
X16437Y-21858D02*
X17450Y-21858D01*
X16437Y-21858D02*
X15937Y-21858D01*
X15500Y-22295D02*
X15937Y-21858D01*
X17745Y-23392D02*
X17587Y-23550D01*
X17745Y-23137D02*
X17745Y-23392D01*
X17587Y-23550D02*
X16737Y-23550D01*
X16737Y-23550D02*
X16637Y-23650D01*
X16637Y-23650D02*
X16637Y-23900D01*
X15518Y-23618D02*
X15518Y-25218D01*
X15518Y-25218D02*
X15337Y-25400D01*
X11800Y-26650D02*
X13300Y-26650D01*
X16492Y-22645D02*
X15518Y-23618D01*
X16492Y-22645D02*
X17450Y-22645D01*
X14187Y-26550D02*
X15337Y-25400D01*
X13400Y-26550D02*
X14187Y-26550D01*
X13300Y-26650D02*
X13400Y-26550D01*
G54D83*
X11800Y-23650D02*
X11800Y-23200D01*
X13000Y-17000D02*
X13500Y-16500D01*
X13000Y-17800D02*
X13000Y-17000D01*
X12600Y-18200D02*
X13000Y-17800D01*
X11100Y-18200D02*
X12600Y-18200D01*
X10400Y-18900D02*
X11100Y-18200D01*
X10400Y-21800D02*
X10400Y-18900D01*
X11800Y-23200D02*
X10400Y-21800D01*
X12500Y-17500D02*
X11300Y-17500D01*
X10800Y-22700D02*
X10800Y-24150D01*
X10100Y-22000D02*
X10800Y-22700D01*
X10100Y-18700D02*
X10100Y-22000D01*
X11300Y-17500D02*
X10100Y-18700D01*
G54D81*
X19637Y-24200D02*
X20037Y-24200D01*
X20037Y-24200D02*
X20267Y-23970D01*
X20687Y-23970D02*
X20267Y-23970D01*
X19487Y-20950D02*
X19187Y-20950D01*
X19037Y-20950D02*
X19187Y-20950D01*
X19187Y-20950D02*
X19287Y-20950D01*
X18937Y-21050D02*
X19037Y-20950D01*
X18532Y-21563D02*
X18532Y-21205D01*
X18532Y-21205D02*
X18687Y-21050D01*
X18687Y-21050D02*
X18937Y-21050D01*
G54D84*
X21687Y-23100D02*
X22137Y-23100D01*
X22137Y-23100D02*
X22237Y-23200D01*
G54D81*
X18729Y-23137D02*
X18729Y-23492D01*
X18937Y-23700D02*
X19037Y-23700D01*
X18729Y-23492D02*
X18937Y-23700D01*
X58537Y-22760D02*
X59344Y-22760D01*
X59344Y-22760D02*
X59580Y-22996D01*
X58537Y-22760D02*
X57797Y-22760D01*
X57797Y-22760D02*
X57737Y-22700D01*
X58537Y-19900D02*
X58237Y-19600D01*
X59580Y-20004D02*
X59580Y-19543D01*
X59337Y-19300D02*
X58937Y-19300D01*
X59580Y-19543D02*
X59337Y-19300D01*
X57797Y-22760D02*
X57737Y-22700D01*
X58637Y-19400D02*
X58637Y-19600D01*
X58737Y-19300D02*
X58637Y-19400D01*
X59137Y-19300D02*
X58937Y-19300D01*
X58937Y-19300D02*
X58737Y-19300D01*
X56937Y-20100D02*
X57537Y-20100D01*
X58237Y-22760D02*
X57797Y-22760D01*
X57797Y-22760D02*
X57737Y-22700D01*
X57737Y-22700D02*
X57637Y-22600D01*
G54D84*
X55237Y-22200D02*
X39437Y-22200D01*
X39437Y-22200D02*
X39337Y-22100D01*
X39337Y-22100D02*
X39337Y-21800D01*
X39337Y-21800D02*
X39537Y-21600D01*
X55781Y-21756D02*
X55681Y-21756D01*
X55237Y-22200D02*
X39537Y-22200D01*
X55681Y-21756D02*
X55237Y-22200D01*
X58537Y-21756D02*
X55781Y-21756D01*
X39537Y-21600D02*
X39687Y-21600D01*
X58537Y-21756D02*
X58237Y-21756D01*
X58237Y-21756D02*
X56837Y-21756D01*
X39537Y-21600D02*
X39437Y-21700D01*
X56837Y-21756D02*
X56781Y-21756D01*
X39537Y-21600D02*
X39687Y-21600D01*
X39687Y-21934D02*
X55102Y-21934D01*
X55537Y-21500D02*
X58537Y-21500D01*
X55102Y-21934D02*
X55537Y-21500D01*
G54D81*
X58537Y-22012D02*
X58237Y-22012D01*
X56225Y-22012D02*
X56037Y-22200D01*
X56037Y-22200D02*
X56037Y-22400D01*
X58237Y-22012D02*
X56225Y-22012D01*
X20562Y-9450D02*
X20941Y-9450D01*
X20337Y-9450D02*
X20562Y-9450D01*
X20562Y-9450D02*
X20537Y-9450D01*
X23030Y-9294D02*
X23030Y-9107D01*
X23237Y-8900D02*
X23337Y-8900D01*
X23030Y-9107D02*
X23237Y-8900D01*
X22737Y-9450D02*
X22887Y-9450D01*
X22887Y-9450D02*
X22987Y-9350D01*
X22987Y-9350D02*
X23030Y-9294D01*
X23337Y-8900D02*
X23337Y-8900D01*
X17937Y-9400D02*
X18633Y-9400D01*
X18633Y-9400D02*
X18637Y-9404D01*
X24537Y-11700D02*
X23037Y-11700D01*
X21637Y-9554D02*
X21533Y-9450D01*
X21637Y-11100D02*
X21637Y-9554D01*
X22037Y-11500D02*
X21637Y-11100D01*
X22837Y-11500D02*
X22037Y-11500D01*
X23037Y-11700D02*
X22837Y-11500D01*
X22137Y-9450D02*
X21533Y-9450D01*
X18537Y-10700D02*
X18837Y-10700D01*
X18837Y-10700D02*
X18937Y-10800D01*
G54D83*
X26833Y-10000D02*
X27137Y-10000D01*
X27137Y-10000D02*
X27337Y-9800D01*
X27597Y-9800D02*
X27337Y-9800D01*
X28287Y-7400D02*
X28287Y-8100D01*
X27597Y-8790D02*
X27597Y-9800D01*
X28287Y-8100D02*
X27597Y-8790D01*
G54D81*
X26837Y-9300D02*
X26837Y-9996D01*
X26837Y-9996D02*
X26833Y-10000D01*
X26737Y-9996D02*
X26733Y-10000D01*
X26887Y-10000D02*
X26733Y-10000D01*
X23937Y-9450D02*
X24587Y-9450D01*
X25087Y-9450D02*
X25387Y-9450D01*
X25387Y-9450D02*
X25587Y-9250D01*
X26237Y-9300D02*
X25637Y-9300D01*
X25637Y-9300D02*
X25587Y-9250D01*
X25637Y-9300D02*
X25587Y-9250D01*
X20037Y-10150D02*
X20037Y-9900D01*
X20137Y-9800D02*
X20537Y-9800D01*
X20037Y-9900D02*
X20137Y-9800D01*
X17137Y-9450D02*
X17137Y-9600D01*
X17437Y-9150D02*
X17137Y-9450D01*
X17137Y-10400D02*
X17137Y-10200D01*
X16837Y-10700D02*
X17137Y-10400D01*
X16637Y-10700D02*
X16837Y-10700D01*
X17137Y-10200D02*
X16441Y-10200D01*
X16441Y-10200D02*
X16437Y-10196D01*
X19437Y-10150D02*
X19180Y-10150D01*
X19180Y-10150D02*
X19094Y-10236D01*
X18877Y-9996D02*
X18952Y-9996D01*
X19094Y-10137D02*
X19094Y-10236D01*
X18952Y-9996D02*
X19094Y-10137D01*
X17337Y-13300D02*
X17537Y-13300D01*
X17537Y-13300D02*
X17637Y-13400D01*
X17287Y-13250D02*
X17337Y-13300D01*
X17037Y-12500D02*
X17137Y-12400D01*
X17037Y-13000D02*
X17037Y-12500D01*
X17287Y-13250D02*
X17037Y-13000D01*
X17637Y-11900D02*
X18237Y-11900D01*
X18537Y-11900D02*
X18237Y-11900D01*
X17137Y-12400D02*
X17637Y-11900D01*
X18637Y-9996D02*
X18877Y-9996D01*
X18877Y-9996D02*
X18883Y-9996D01*
X19287Y-10750D02*
X19287Y-11500D01*
X18537Y-11900D02*
X18887Y-11900D01*
X18887Y-11900D02*
X19287Y-11500D01*
X19094Y-10236D02*
X19087Y-10550D01*
X19287Y-10750D02*
X19087Y-10550D01*
X18487Y-11900D02*
X18537Y-11900D01*
X19040Y-10182D02*
X19094Y-10236D01*
X19094Y-10236D02*
X19144Y-10186D01*
X15637Y-10200D02*
X15937Y-10200D01*
X16233Y-9604D02*
X16437Y-9604D01*
X16037Y-9800D02*
X16233Y-9604D01*
X16037Y-10100D02*
X16037Y-9800D01*
X15937Y-10200D02*
X16037Y-10100D01*
X58537Y-17512D02*
X58125Y-17512D01*
X58037Y-17600D02*
X57437Y-17600D01*
X58125Y-17512D02*
X58037Y-17600D01*
X57637Y-17600D02*
X57437Y-17600D01*
X57437Y-17600D02*
X56237Y-17600D01*
X58537Y-17000D02*
X57537Y-17000D01*
X57537Y-17000D02*
X57437Y-16900D01*
X58237Y-17000D02*
X57537Y-17000D01*
X57437Y-16900D02*
X57237Y-16900D01*
X57537Y-17000D02*
X57437Y-16900D01*
X58537Y-17256D02*
X57581Y-17256D01*
X57581Y-17256D02*
X57537Y-17300D01*
X57537Y-17300D02*
X57237Y-17300D01*
X58237Y-17256D02*
X57581Y-17256D01*
X57581Y-17256D02*
X57537Y-17300D01*
X44150Y-25900D02*
X44150Y-26100D01*
X44150Y-26100D02*
X45050Y-27000D01*
X44150Y-25550D02*
X44150Y-25900D01*
X40800Y-25400D02*
X42500Y-25400D01*
X42500Y-25400D02*
X42599Y-25300D01*
X42200Y-24000D02*
X42000Y-23800D01*
X42900Y-24000D02*
X42200Y-24000D01*
X43000Y-24100D02*
X42900Y-24000D01*
X43000Y-24900D02*
X43000Y-24100D01*
X42599Y-25300D02*
X43000Y-24900D01*
X42800Y-22900D02*
X44600Y-22900D01*
X45000Y-24700D02*
X44150Y-25550D01*
X44600Y-22900D02*
X45000Y-23300D01*
X48500Y-26700D02*
X48200Y-27000D01*
X48500Y-26700D02*
X48500Y-26500D01*
X48200Y-27000D02*
X45050Y-27000D01*
X45000Y-24700D02*
X45000Y-23300D01*
X43200Y-22900D02*
X42800Y-22900D01*
X42800Y-22900D02*
X42300Y-22900D01*
X42000Y-23200D02*
X42000Y-23800D01*
X42300Y-22900D02*
X42000Y-23200D01*
X50500Y-27500D02*
X50500Y-28300D01*
X41137Y-26900D02*
X40837Y-26900D01*
X41525Y-27287D02*
X41137Y-26900D01*
X41525Y-27675D02*
X41525Y-27287D01*
X45725Y-28675D02*
X45225Y-28175D01*
X45225Y-28175D02*
X42025Y-28175D01*
X46575Y-28725D02*
X45775Y-28725D01*
X45775Y-28725D02*
X45725Y-28675D01*
X46575Y-28725D02*
X46975Y-28725D01*
X42025Y-28175D02*
X41525Y-27675D01*
X50075Y-28725D02*
X46975Y-28725D01*
X50500Y-28300D02*
X50075Y-28725D01*
X45450Y-27975D02*
X48025Y-27975D01*
X48025Y-27975D02*
X48500Y-27500D01*
X45425Y-27975D02*
X45450Y-27975D01*
X45450Y-27975D02*
X45075Y-27975D01*
X41725Y-27325D02*
X41725Y-27575D01*
X42125Y-27975D02*
X42325Y-27975D01*
X41725Y-27575D02*
X42125Y-27975D01*
X45075Y-27975D02*
X42325Y-27975D01*
X42325Y-27975D02*
X42175Y-27975D01*
X41137Y-26100D02*
X40837Y-26100D01*
X41725Y-27525D02*
X41725Y-27325D01*
X41725Y-27325D02*
X41725Y-26687D01*
X41725Y-26687D02*
X41137Y-26100D01*
X50500Y-26500D02*
X51000Y-26500D01*
X41250Y-27700D02*
X40837Y-27700D01*
X45125Y-28375D02*
X41975Y-28375D01*
X41925Y-28375D02*
X41250Y-27700D01*
X41975Y-28375D02*
X41925Y-28375D01*
X45625Y-28875D02*
X45125Y-28375D01*
X45675Y-28925D02*
X45625Y-28875D01*
X46425Y-28925D02*
X47075Y-28925D01*
X46425Y-28925D02*
X45675Y-28925D01*
X48975Y-28925D02*
X47075Y-28925D01*
X50875Y-28925D02*
X48975Y-28925D01*
X51500Y-28300D02*
X50875Y-28925D01*
X51500Y-27000D02*
X51500Y-28300D01*
X51000Y-26500D02*
X51500Y-27000D01*
X58537Y-18260D02*
X57677Y-18260D01*
X57677Y-18260D02*
X57637Y-18300D01*
X57677Y-18260D02*
X57637Y-18300D01*
X59037Y-14900D02*
X59337Y-14900D01*
X59337Y-14900D02*
X59580Y-15143D01*
X59580Y-15143D02*
X59580Y-15504D01*
X58537Y-15740D02*
X58537Y-15300D01*
X58537Y-15100D02*
X58737Y-14900D01*
X58537Y-15300D02*
X58537Y-15100D01*
X58537Y-15740D02*
X57877Y-15740D01*
X57877Y-15740D02*
X57837Y-15700D01*
X58937Y-19100D02*
X58737Y-19100D01*
X58537Y-18900D02*
X58537Y-18260D01*
X58737Y-19100D02*
X58537Y-18900D01*
X59580Y-18496D02*
X59580Y-18957D01*
X59437Y-19100D02*
X58937Y-19100D01*
X59580Y-18957D02*
X59437Y-19100D01*
X59137Y-14900D02*
X59037Y-14900D01*
X59037Y-14900D02*
X58737Y-14900D01*
X59137Y-19100D02*
X58937Y-19100D01*
X58237Y-18260D02*
X57677Y-18260D01*
X56937Y-15500D02*
X56937Y-15300D01*
X56937Y-15300D02*
X57037Y-15200D01*
X57037Y-15200D02*
X57637Y-15200D01*
X57877Y-15740D02*
X58237Y-15740D01*
X57637Y-15500D02*
X57637Y-15200D01*
X57877Y-15740D02*
X57837Y-15700D01*
X57837Y-15700D02*
X57637Y-15500D01*
X35200Y-11000D02*
X34950Y-11000D01*
X35795Y-13105D02*
X35795Y-12800D01*
X35650Y-13250D02*
X35795Y-13105D01*
X35150Y-13250D02*
X35650Y-13250D01*
X34800Y-12900D02*
X35150Y-13250D01*
X34800Y-11150D02*
X34800Y-12900D01*
X34950Y-11000D02*
X34800Y-11150D01*
X36850Y-11000D02*
X36750Y-11000D01*
X37245Y-13205D02*
X37245Y-12800D01*
X36950Y-13500D02*
X37245Y-13205D01*
X36250Y-13500D02*
X36950Y-13500D01*
X36100Y-13350D02*
X36250Y-13500D01*
X36100Y-11400D02*
X36100Y-13350D01*
X36300Y-11200D02*
X36100Y-11400D01*
X36550Y-11200D02*
X36300Y-11200D01*
X36750Y-11000D02*
X36550Y-11200D01*
X33700Y-11000D02*
X33400Y-11000D01*
X34295Y-13005D02*
X34295Y-12800D01*
X34179Y-13120D02*
X34295Y-13005D01*
X33470Y-13120D02*
X34179Y-13120D01*
X33250Y-12900D02*
X33470Y-13120D01*
X33250Y-11150D02*
X33250Y-12900D01*
X33400Y-11000D02*
X33250Y-11150D01*
X39050Y-13000D02*
X39300Y-12750D01*
X39300Y-11300D02*
X39600Y-11000D01*
X39300Y-12750D02*
X39300Y-11300D01*
X40195Y-13155D02*
X40195Y-12800D01*
X39850Y-13500D02*
X40195Y-13155D01*
X39150Y-13500D02*
X39850Y-13500D01*
X38950Y-13300D02*
X39150Y-13500D01*
X38950Y-13100D02*
X38950Y-13300D01*
X39050Y-13000D02*
X38950Y-13100D01*
X38100Y-11000D02*
X38100Y-10650D01*
X38950Y-12800D02*
X38695Y-12800D01*
X39100Y-12650D02*
X38950Y-12800D01*
X39100Y-10800D02*
X39100Y-12650D01*
X38750Y-10450D02*
X39100Y-10800D01*
X38300Y-10450D02*
X38750Y-10450D01*
X38100Y-10650D02*
X38300Y-10450D01*
X29200Y-11000D02*
X29000Y-11000D01*
X29795Y-13055D02*
X29795Y-12800D01*
X29650Y-13200D02*
X29795Y-13055D01*
X29000Y-13200D02*
X29650Y-13200D01*
X28850Y-13050D02*
X29000Y-13200D01*
X28850Y-11150D02*
X28850Y-13050D01*
X29000Y-11000D02*
X28850Y-11150D01*
X32200Y-11000D02*
X31900Y-11000D01*
X32795Y-13105D02*
X32795Y-12800D01*
X32650Y-13250D02*
X32795Y-13105D01*
X32000Y-13250D02*
X32650Y-13250D01*
X31800Y-13050D02*
X32000Y-13250D01*
X31800Y-11100D02*
X31800Y-13050D01*
X31900Y-11000D02*
X31800Y-11100D01*
X30700Y-11000D02*
X30450Y-11000D01*
X31295Y-13105D02*
X31295Y-12800D01*
X31150Y-13250D02*
X31295Y-13105D01*
X30400Y-13250D02*
X31150Y-13250D01*
X30250Y-13100D02*
X30400Y-13250D01*
X30250Y-11200D02*
X30250Y-13100D01*
X30450Y-11000D02*
X30250Y-11200D01*
G54D83*
X49000Y-30700D02*
X49000Y-31300D01*
X50600Y-34800D02*
X49826Y-34800D01*
X51000Y-34400D02*
X50600Y-34800D01*
X51000Y-32200D02*
X51000Y-34400D01*
X50500Y-31700D02*
X51000Y-32200D01*
X49400Y-31700D02*
X50500Y-31700D01*
X49000Y-31300D02*
X49400Y-31700D01*
X37000Y-30700D02*
X37000Y-31400D01*
X39273Y-33173D02*
X39273Y-34800D01*
X38400Y-32300D02*
X39273Y-33173D01*
X37900Y-32300D02*
X38400Y-32300D01*
X37000Y-31400D02*
X37900Y-32300D01*
X41000Y-30700D02*
X41000Y-31600D01*
X43100Y-33973D02*
X43926Y-34800D01*
X43100Y-32800D02*
X43100Y-33973D01*
X42500Y-32200D02*
X43100Y-32800D01*
X41600Y-32200D02*
X42500Y-32200D01*
X41000Y-31600D02*
X41600Y-32200D01*
G54D81*
X54150Y-27200D02*
X54150Y-27500D01*
X54437Y-27787D02*
X54437Y-28200D01*
X54150Y-27500D02*
X54437Y-27787D01*
X53250Y-25895D02*
X53250Y-26150D01*
X54150Y-27200D02*
X54137Y-27200D01*
X54150Y-27050D02*
X54150Y-27200D01*
X53250Y-26150D02*
X54150Y-27050D01*
X54437Y-28000D02*
X54437Y-28200D01*
X54437Y-28800D02*
X54437Y-29087D01*
X47650Y-32150D02*
X48100Y-32600D01*
X47650Y-30300D02*
X47650Y-32150D01*
X48200Y-29750D02*
X47650Y-30300D01*
X53775Y-29750D02*
X48200Y-29750D01*
X54437Y-29087D02*
X53775Y-29750D01*
G54D83*
X48100Y-32600D02*
X48100Y-33300D01*
G54D81*
X52800Y-27650D02*
X52800Y-26800D01*
X52550Y-26550D02*
X52550Y-25895D01*
X52800Y-26800D02*
X52550Y-26550D01*
X52800Y-28250D02*
X52800Y-28550D01*
X39550Y-32050D02*
X40100Y-32600D01*
X39550Y-30450D02*
X39550Y-32050D01*
X40050Y-29950D02*
X39550Y-30450D01*
X41950Y-29950D02*
X40050Y-29950D01*
X42050Y-29850D02*
X41950Y-29950D01*
X44750Y-29850D02*
X42050Y-29850D01*
X45250Y-29350D02*
X44750Y-29850D01*
X52000Y-29350D02*
X45250Y-29350D01*
X52800Y-28550D02*
X52000Y-29350D01*
G54D83*
X40100Y-32600D02*
X40100Y-33300D01*
X42273Y-34800D02*
X42273Y-35426D01*
X40299Y-37400D02*
X40287Y-37400D01*
X42273Y-35426D02*
X40299Y-37400D01*
X45273Y-34800D02*
X45273Y-36385D01*
X45273Y-36385D02*
X46287Y-37400D01*
X40926Y-34800D02*
X40926Y-35673D01*
X43287Y-36400D02*
X44287Y-37400D01*
X41900Y-36400D02*
X43287Y-36400D01*
X41300Y-37000D02*
X41900Y-36400D01*
X41300Y-37800D02*
X41300Y-37000D01*
X40800Y-38300D02*
X41300Y-37800D01*
X39900Y-38300D02*
X40800Y-38300D01*
X39300Y-37700D02*
X39900Y-38300D01*
X39300Y-36700D02*
X39300Y-37700D01*
X40000Y-36000D02*
X39300Y-36700D01*
X40600Y-36000D02*
X40000Y-36000D01*
X40926Y-35673D02*
X40600Y-36000D01*
G54D81*
X22268Y-30731D02*
X18031Y-30731D01*
X18031Y-30731D02*
X17900Y-30600D01*
X17900Y-30600D02*
X17900Y-30600D01*
X15937Y-29295D02*
X15937Y-29600D01*
X17900Y-30600D02*
X17200Y-29900D01*
X17200Y-29900D02*
X16237Y-29900D01*
X16237Y-29900D02*
X15937Y-29600D01*
X22268Y-30731D02*
X22437Y-30900D01*
X15937Y-29295D02*
X15937Y-29500D01*
X22737Y-32300D02*
X22737Y-31800D01*
X22437Y-31100D02*
X22437Y-30900D01*
X22437Y-31500D02*
X22437Y-31100D01*
X22737Y-31800D02*
X22437Y-31500D01*
X22737Y-32300D02*
X22737Y-32000D01*
X15937Y-28705D02*
X15642Y-28705D01*
X15642Y-28705D02*
X15537Y-28600D01*
X54600Y-25895D02*
X55045Y-25895D01*
X53550Y-27200D02*
X53550Y-27650D01*
X53500Y-27150D02*
X53550Y-27200D01*
X55045Y-25895D02*
X55050Y-25900D01*
X17242Y-28705D02*
X17137Y-28600D01*
X17537Y-28705D02*
X17242Y-28705D01*
X53550Y-28250D02*
X53550Y-28500D01*
X43700Y-32200D02*
X44100Y-32600D01*
X43700Y-30450D02*
X43700Y-32200D01*
X44100Y-30050D02*
X43700Y-30450D01*
X44850Y-30050D02*
X44100Y-30050D01*
X45350Y-29550D02*
X44850Y-30050D01*
X52500Y-29550D02*
X45350Y-29550D01*
X53550Y-28500D02*
X52500Y-29550D01*
G54D83*
X44100Y-32600D02*
X44100Y-33300D01*
G54D81*
X22837Y-30300D02*
X18237Y-30300D01*
X18237Y-30300D02*
X17837Y-29900D01*
X29637Y-30300D02*
X29737Y-30200D01*
X22837Y-30300D02*
X29637Y-30300D01*
X17837Y-29900D02*
X17637Y-29700D01*
X17537Y-29295D02*
X17537Y-29600D01*
X17637Y-29700D02*
X17537Y-29600D01*
X29737Y-30200D02*
X30937Y-30200D01*
X30937Y-30200D02*
X31254Y-30516D01*
X31254Y-30516D02*
X31254Y-32283D01*
X52050Y-27250D02*
X52050Y-25000D01*
X52400Y-24650D02*
X52950Y-24650D01*
X52050Y-25000D02*
X52400Y-24650D01*
X52050Y-27650D02*
X52050Y-27250D01*
X53200Y-24650D02*
X53350Y-24800D01*
X53600Y-25800D02*
X53695Y-25895D01*
X53600Y-25050D02*
X53600Y-25800D01*
X53900Y-25895D02*
X53695Y-25895D01*
X53350Y-24800D02*
X53550Y-25000D01*
X53550Y-25000D02*
X53600Y-25050D01*
X52950Y-24650D02*
X53200Y-24650D01*
X51450Y-29150D02*
X45150Y-29150D01*
X45150Y-29150D02*
X44650Y-29650D01*
X44650Y-29650D02*
X41950Y-29650D01*
X41950Y-29650D02*
X41850Y-29750D01*
X41850Y-29750D02*
X36000Y-29750D01*
X36000Y-29750D02*
X35700Y-30050D01*
X35700Y-30050D02*
X35700Y-31900D01*
X35700Y-31900D02*
X36100Y-32300D01*
X36100Y-32300D02*
X36100Y-32700D01*
X51450Y-29150D02*
X52050Y-28550D01*
X52050Y-28250D02*
X52050Y-28550D01*
X52050Y-28550D02*
X51450Y-29150D01*
G54D83*
X36100Y-32700D02*
X36100Y-33300D01*
G54D81*
X15137Y-29295D02*
X15137Y-29500D01*
X15137Y-29500D02*
X15237Y-29600D01*
X15237Y-29600D02*
X15500Y-29600D01*
X15500Y-29600D02*
X16000Y-30100D01*
X16000Y-30100D02*
X17100Y-30100D01*
X17100Y-30100D02*
X18537Y-31537D01*
X18537Y-31537D02*
X18537Y-32300D01*
X15137Y-29500D02*
X15237Y-29600D01*
X15237Y-29600D02*
X15437Y-29600D01*
X14500Y-29250D02*
X14500Y-29100D01*
X14894Y-28705D02*
X15137Y-28705D01*
X14500Y-29100D02*
X14894Y-28705D01*
X15137Y-28705D02*
X15137Y-28600D01*
X22800Y-30500D02*
X18100Y-30500D01*
X18100Y-30500D02*
X17900Y-30300D01*
X16737Y-29295D02*
X16737Y-29500D01*
X16937Y-29700D02*
X17300Y-29700D01*
X17300Y-29700D02*
X17900Y-30300D01*
X16737Y-29500D02*
X16937Y-29700D01*
X26737Y-30500D02*
X22800Y-30500D01*
X26737Y-30500D02*
X27012Y-30775D01*
X27012Y-32283D02*
X27012Y-30775D01*
X16737Y-28705D02*
X16442Y-28705D01*
X16442Y-28705D02*
X16337Y-28600D01*
G54D83*
X45000Y-30700D02*
X45000Y-31800D01*
X46926Y-32926D02*
X46926Y-34800D01*
X46400Y-32400D02*
X46926Y-32926D01*
X45600Y-32400D02*
X46400Y-32400D01*
X45000Y-31800D02*
X45600Y-32400D01*
X48173Y-34800D02*
X48173Y-35426D01*
X43187Y-38300D02*
X42287Y-37400D01*
X47000Y-38300D02*
X43187Y-38300D01*
X47300Y-38000D02*
X47000Y-38300D01*
X47300Y-36300D02*
X47300Y-38000D01*
X48173Y-35426D02*
X47300Y-36300D01*
G54D81*
X15200Y-31600D02*
X15299Y-31600D01*
X15800Y-33100D02*
X16000Y-33100D01*
X15500Y-32800D02*
X15800Y-33100D01*
X15500Y-31800D02*
X15500Y-32800D01*
X15299Y-31600D02*
X15500Y-31800D01*
X17400Y-32433D02*
X17400Y-32800D01*
X17100Y-33100D02*
X16600Y-33100D01*
X17400Y-32800D02*
X17100Y-33100D01*
X16800Y-33100D02*
X16600Y-33100D01*
X16600Y-33100D02*
X16000Y-33100D01*
X13837Y-31600D02*
X15200Y-31600D01*
X13687Y-32223D02*
X13687Y-31750D01*
X13687Y-31750D02*
X13837Y-31600D01*
X15187Y-30277D02*
X15277Y-30277D01*
X15400Y-30400D02*
X16600Y-30400D01*
X15277Y-30277D02*
X15400Y-30400D01*
X17307Y-31100D02*
X17774Y-31567D01*
X17300Y-31100D02*
X17307Y-31100D01*
X16600Y-30400D02*
X17300Y-31100D01*
X16100Y-30850D02*
X16550Y-30850D01*
X17026Y-31326D02*
X17026Y-31567D01*
X16550Y-30850D02*
X17026Y-31326D01*
X10650Y-32500D02*
X11200Y-32500D01*
X11799Y-31900D02*
X12737Y-31900D01*
X11200Y-32500D02*
X11799Y-31900D01*
X15437Y-31300D02*
X15200Y-31300D01*
X15200Y-31300D02*
X15437Y-31300D01*
X15437Y-31300D02*
X16100Y-31962D01*
X16100Y-31962D02*
X16100Y-32150D01*
X13137Y-31800D02*
X13637Y-31300D01*
X13037Y-31900D02*
X13137Y-31800D01*
X13637Y-31300D02*
X15437Y-31300D01*
X12737Y-31900D02*
X13037Y-31900D01*
X12758Y-33410D02*
X12758Y-32879D01*
X12758Y-32879D02*
X12937Y-32700D01*
X14737Y-33100D02*
X14687Y-33050D01*
X14687Y-33050D02*
X14687Y-32223D01*
X14187Y-32323D02*
X14187Y-32987D01*
X12868Y-34700D02*
X12758Y-34590D01*
X14600Y-34700D02*
X12868Y-34700D01*
X14900Y-34400D02*
X14600Y-34700D01*
X14900Y-33500D02*
X14900Y-34400D01*
X14800Y-33400D02*
X14900Y-33500D01*
X14600Y-33400D02*
X14800Y-33400D01*
X14187Y-32987D02*
X14600Y-33400D01*
X12758Y-34590D02*
X12758Y-35358D01*
X12758Y-35358D02*
X12800Y-35400D01*
X13400Y-35400D02*
X14000Y-35400D01*
X16000Y-33700D02*
X16662Y-33700D01*
X16662Y-33700D02*
X16762Y-33600D01*
X14000Y-35400D02*
X14000Y-35100D01*
X16000Y-34100D02*
X16000Y-33700D01*
X16300Y-34400D02*
X16000Y-34100D01*
X16300Y-35100D02*
X16300Y-34400D01*
X15900Y-35500D02*
X16300Y-35100D01*
X15300Y-35500D02*
X15900Y-35500D01*
X14700Y-34900D02*
X15300Y-35500D01*
X14200Y-34900D02*
X14700Y-34900D01*
X14000Y-35100D02*
X14200Y-34900D01*
X12737Y-30800D02*
X12737Y-31300D01*
X14687Y-30277D02*
X14687Y-30850D01*
X13137Y-31300D02*
X12737Y-31300D01*
X13437Y-31000D02*
X13137Y-31300D01*
X14537Y-31000D02*
X13437Y-31000D01*
X14687Y-30850D02*
X14537Y-31000D01*
G54D83*
X14287Y-37400D02*
X13387Y-37400D01*
X13387Y-37400D02*
X12803Y-37984D01*
X12803Y-37984D02*
X11837Y-37984D01*
G54D81*
X11837Y-35984D02*
X11837Y-36115D01*
X11837Y-36115D02*
X11653Y-36299D01*
X11837Y-36015D02*
X11837Y-35984D01*
X11837Y-35984D02*
X11837Y-35787D01*
X11837Y-35787D02*
X11550Y-35500D01*
X10100Y-35050D02*
X10100Y-34350D01*
X10550Y-35500D02*
X10100Y-35050D01*
X11550Y-35500D02*
X10550Y-35500D01*
X10650Y-33000D02*
X10350Y-33000D01*
X10100Y-33250D02*
X10100Y-34350D01*
X10350Y-33000D02*
X10100Y-33250D01*
X10650Y-33500D02*
X11037Y-33500D01*
X11037Y-33500D02*
X11737Y-34200D01*
X11737Y-34200D02*
X11737Y-34389D01*
X13907Y-34000D02*
X12858Y-34000D01*
X11648Y-34300D02*
X11737Y-34389D01*
X11737Y-34200D02*
X11737Y-34389D01*
X12858Y-34000D02*
X11937Y-34000D01*
X11737Y-34200D02*
X11737Y-34389D01*
X11937Y-34000D02*
X11737Y-34200D01*
X41985Y-17948D02*
X41985Y-18348D01*
X41985Y-18348D02*
X42087Y-18450D01*
X42497Y-20152D02*
X42497Y-20552D01*
X42175Y-20875D02*
X41262Y-20875D01*
X42497Y-20552D02*
X42175Y-20875D01*
X40737Y-20400D02*
X40737Y-20500D01*
X41087Y-20700D02*
X41262Y-20875D01*
X40737Y-20500D02*
X40937Y-20700D01*
X40937Y-20700D02*
X41087Y-20700D01*
G54D10*
G36*
X57437Y-32450D02*
X57259Y-32450D01*
X57259Y-31332D01*
X57259Y-30467D01*
X57258Y-30387D01*
X57228Y-30314D01*
X57172Y-30257D01*
X57098Y-30227D01*
X56620Y-30227D01*
X56570Y-30277D01*
X56570Y-30700D01*
X57209Y-30700D01*
X57259Y-30650D01*
X57259Y-30467D01*
X57259Y-31332D01*
X57259Y-31150D01*
X57209Y-31100D01*
X56570Y-31100D01*
X56570Y-31522D01*
X56620Y-31572D01*
X57098Y-31572D01*
X57172Y-31542D01*
X57228Y-31485D01*
X57258Y-31412D01*
X57259Y-31332D01*
X57259Y-32450D01*
X56170Y-32450D01*
X56170Y-31522D01*
X56170Y-31100D01*
X56170Y-30700D01*
X56170Y-30277D01*
X56120Y-30227D01*
X55641Y-30227D01*
X55567Y-30257D01*
X55511Y-30314D01*
X55481Y-30387D01*
X55480Y-30467D01*
X55481Y-30650D01*
X55531Y-30700D01*
X56170Y-30700D01*
X56170Y-31100D01*
X55531Y-31100D01*
X55481Y-31150D01*
X55480Y-31332D01*
X55481Y-31412D01*
X55511Y-31485D01*
X55567Y-31542D01*
X55641Y-31572D01*
X56120Y-31572D01*
X56170Y-31522D01*
X56170Y-32450D01*
X54887Y-32450D01*
X54887Y-32469D01*
X53872Y-32469D01*
X53872Y-32052D01*
X53872Y-30397D01*
X53842Y-30324D01*
X53785Y-30268D01*
X53712Y-30237D01*
X53632Y-30237D01*
X53450Y-30237D01*
X53400Y-30287D01*
X53400Y-31025D01*
X53822Y-31025D01*
X53872Y-30975D01*
X53872Y-30397D01*
X53872Y-32052D01*
X53872Y-31475D01*
X53822Y-31425D01*
X53400Y-31425D01*
X53400Y-32162D01*
X53450Y-32212D01*
X53632Y-32212D01*
X53712Y-32212D01*
X53785Y-32181D01*
X53842Y-32125D01*
X53872Y-32052D01*
X53872Y-32469D01*
X53000Y-32469D01*
X53000Y-32162D01*
X53000Y-31425D01*
X53000Y-31025D01*
X53000Y-30287D01*
X52950Y-30237D01*
X52767Y-30237D01*
X52687Y-30237D01*
X52614Y-30268D01*
X52557Y-30324D01*
X52527Y-30397D01*
X52527Y-30975D01*
X52577Y-31025D01*
X53000Y-31025D01*
X53000Y-31425D01*
X52577Y-31425D01*
X52527Y-31475D01*
X52527Y-32052D01*
X52557Y-32125D01*
X52614Y-32181D01*
X52687Y-32212D01*
X52767Y-32212D01*
X52950Y-32212D01*
X53000Y-32162D01*
X53000Y-32469D01*
X51546Y-32469D01*
X51546Y-30010D01*
X54987Y-30010D01*
X54987Y-28450D01*
X55312Y-28450D01*
X55612Y-28850D01*
X57087Y-28850D01*
X57087Y-29750D01*
X57437Y-29750D01*
X57437Y-32450D01*
X57437Y-32450D01*
G37*
G54D81*
X57437Y-32450D02*
X57259Y-32450D01*
X57259Y-31332D01*
X57259Y-30467D01*
X57258Y-30387D01*
X57228Y-30314D01*
X57172Y-30257D01*
X57098Y-30227D01*
X56620Y-30227D01*
X56570Y-30277D01*
X56570Y-30700D01*
X57209Y-30700D01*
X57259Y-30650D01*
X57259Y-30467D01*
X57259Y-31332D01*
X57259Y-31150D01*
X57209Y-31100D01*
X56570Y-31100D01*
X56570Y-31522D01*
X56620Y-31572D01*
X57098Y-31572D01*
X57172Y-31542D01*
X57228Y-31485D01*
X57258Y-31412D01*
X57259Y-31332D01*
X57259Y-32450D01*
X56170Y-32450D01*
X56170Y-31522D01*
X56170Y-31100D01*
X56170Y-30700D01*
X56170Y-30277D01*
X56120Y-30227D01*
X55641Y-30227D01*
X55567Y-30257D01*
X55511Y-30314D01*
X55481Y-30387D01*
X55480Y-30467D01*
X55481Y-30650D01*
X55531Y-30700D01*
X56170Y-30700D01*
X56170Y-31100D01*
X55531Y-31100D01*
X55481Y-31150D01*
X55480Y-31332D01*
X55481Y-31412D01*
X55511Y-31485D01*
X55567Y-31542D01*
X55641Y-31572D01*
X56120Y-31572D01*
X56170Y-31522D01*
X56170Y-32450D01*
X54887Y-32450D01*
X54887Y-32469D01*
X53872Y-32469D01*
X53872Y-32052D01*
X53872Y-30397D01*
X53842Y-30324D01*
X53785Y-30268D01*
X53712Y-30237D01*
X53632Y-30237D01*
X53450Y-30237D01*
X53400Y-30287D01*
X53400Y-31025D01*
X53822Y-31025D01*
X53872Y-30975D01*
X53872Y-30397D01*
X53872Y-32052D01*
X53872Y-31475D01*
X53822Y-31425D01*
X53400Y-31425D01*
X53400Y-32162D01*
X53450Y-32212D01*
X53632Y-32212D01*
X53712Y-32212D01*
X53785Y-32181D01*
X53842Y-32125D01*
X53872Y-32052D01*
X53872Y-32469D01*
X53000Y-32469D01*
X53000Y-32162D01*
X53000Y-31425D01*
X53000Y-31025D01*
X53000Y-30287D01*
X52950Y-30237D01*
X52767Y-30237D01*
X52687Y-30237D01*
X52614Y-30268D01*
X52557Y-30324D01*
X52527Y-30397D01*
X52527Y-30975D01*
X52577Y-31025D01*
X53000Y-31025D01*
X53000Y-31425D01*
X52577Y-31425D01*
X52527Y-31475D01*
X52527Y-32052D01*
X52557Y-32125D01*
X52614Y-32181D01*
X52687Y-32212D01*
X52767Y-32212D01*
X52950Y-32212D01*
X53000Y-32162D01*
X53000Y-32469D01*
X51546Y-32469D01*
X51546Y-30010D01*
X54987Y-30010D01*
X54987Y-28450D01*
X55312Y-28450D01*
X55612Y-28850D01*
X57087Y-28850D01*
X57087Y-29750D01*
X57437Y-29750D01*
X57437Y-32450D01*
G54D10*
G36*
X60266Y-31433D02*
X60038Y-31433D01*
X60038Y-28418D01*
X60038Y-24481D01*
X60038Y-24402D01*
X60007Y-24328D01*
X59951Y-24272D01*
X59877Y-24242D01*
X59399Y-24242D01*
X59349Y-24292D01*
X59349Y-26250D01*
X59988Y-26250D01*
X60038Y-26200D01*
X60038Y-24481D01*
X60038Y-28418D01*
X60038Y-26700D01*
X59988Y-26650D01*
X59349Y-26650D01*
X59349Y-28607D01*
X59399Y-28657D01*
X59877Y-28657D01*
X59951Y-28627D01*
X60007Y-28571D01*
X60038Y-28497D01*
X60038Y-28418D01*
X60038Y-31433D01*
X59810Y-31433D01*
X59818Y-31412D01*
X59819Y-31332D01*
X59819Y-30467D01*
X59818Y-30387D01*
X59788Y-30314D01*
X59732Y-30257D01*
X59658Y-30227D01*
X59180Y-30227D01*
X59130Y-30277D01*
X59130Y-30700D01*
X59769Y-30700D01*
X59819Y-30650D01*
X59819Y-30467D01*
X59819Y-31332D01*
X59819Y-31150D01*
X59769Y-31100D01*
X59130Y-31100D01*
X59130Y-31107D01*
X58949Y-31107D01*
X58949Y-28607D01*
X58949Y-26650D01*
X58949Y-26250D01*
X58949Y-24292D01*
X58899Y-24242D01*
X58420Y-24242D01*
X58347Y-24272D01*
X58290Y-24328D01*
X58260Y-24402D01*
X58260Y-24481D01*
X58260Y-26200D01*
X58310Y-26250D01*
X58949Y-26250D01*
X58949Y-26650D01*
X58310Y-26650D01*
X58260Y-26700D01*
X58260Y-28418D01*
X58260Y-28497D01*
X58290Y-28571D01*
X58347Y-28627D01*
X58420Y-28657D01*
X58899Y-28657D01*
X58949Y-28607D01*
X58949Y-31107D01*
X58730Y-31107D01*
X58730Y-31100D01*
X58722Y-31100D01*
X58722Y-30700D01*
X58730Y-30700D01*
X58730Y-30277D01*
X58680Y-30227D01*
X58201Y-30227D01*
X58199Y-30228D01*
X58199Y-23950D01*
X60266Y-23950D01*
X60266Y-31433D01*
X60266Y-31433D01*
G37*
G54D81*
X60266Y-31433D02*
X60038Y-31433D01*
X60038Y-28418D01*
X60038Y-24481D01*
X60038Y-24402D01*
X60007Y-24328D01*
X59951Y-24272D01*
X59877Y-24242D01*
X59399Y-24242D01*
X59349Y-24292D01*
X59349Y-26250D01*
X59988Y-26250D01*
X60038Y-26200D01*
X60038Y-24481D01*
X60038Y-28418D01*
X60038Y-26700D01*
X59988Y-26650D01*
X59349Y-26650D01*
X59349Y-28607D01*
X59399Y-28657D01*
X59877Y-28657D01*
X59951Y-28627D01*
X60007Y-28571D01*
X60038Y-28497D01*
X60038Y-28418D01*
X60038Y-31433D01*
X59810Y-31433D01*
X59818Y-31412D01*
X59819Y-31332D01*
X59819Y-30467D01*
X59818Y-30387D01*
X59788Y-30314D01*
X59732Y-30257D01*
X59658Y-30227D01*
X59180Y-30227D01*
X59130Y-30277D01*
X59130Y-30700D01*
X59769Y-30700D01*
X59819Y-30650D01*
X59819Y-30467D01*
X59819Y-31332D01*
X59819Y-31150D01*
X59769Y-31100D01*
X59130Y-31100D01*
X59130Y-31107D01*
X58949Y-31107D01*
X58949Y-28607D01*
X58949Y-26650D01*
X58949Y-26250D01*
X58949Y-24292D01*
X58899Y-24242D01*
X58420Y-24242D01*
X58347Y-24272D01*
X58290Y-24328D01*
X58260Y-24402D01*
X58260Y-24481D01*
X58260Y-26200D01*
X58310Y-26250D01*
X58949Y-26250D01*
X58949Y-26650D01*
X58310Y-26650D01*
X58260Y-26700D01*
X58260Y-28418D01*
X58260Y-28497D01*
X58290Y-28571D01*
X58347Y-28627D01*
X58420Y-28657D01*
X58899Y-28657D01*
X58949Y-28607D01*
X58949Y-31107D01*
X58730Y-31107D01*
X58730Y-31100D01*
X58722Y-31100D01*
X58722Y-30700D01*
X58730Y-30700D01*
X58730Y-30277D01*
X58680Y-30227D01*
X58201Y-30227D01*
X58199Y-30228D01*
X58199Y-23950D01*
X60266Y-23950D01*
X60266Y-31433D01*
G54D10*
G36*
X56587Y-26657D02*
X56350Y-26657D01*
X56350Y-26650D01*
X56350Y-26250D01*
X56350Y-24292D01*
X56300Y-24242D01*
X55822Y-24242D01*
X55748Y-24272D01*
X55692Y-24328D01*
X55661Y-24402D01*
X55661Y-24481D01*
X55661Y-26200D01*
X55711Y-26250D01*
X56350Y-26250D01*
X56350Y-26650D01*
X55711Y-26650D01*
X55661Y-26700D01*
X55661Y-27350D01*
X54400Y-27350D01*
X54400Y-27200D01*
X54400Y-27050D01*
X54387Y-26987D01*
X54387Y-26450D01*
X55358Y-26450D01*
X55487Y-26320D01*
X55487Y-24150D01*
X56587Y-24150D01*
X56587Y-26657D01*
X56587Y-26657D01*
G37*
G54D81*
X56587Y-26657D02*
X56350Y-26657D01*
X56350Y-26650D01*
X56350Y-26250D01*
X56350Y-24292D01*
X56300Y-24242D01*
X55822Y-24242D01*
X55748Y-24272D01*
X55692Y-24328D01*
X55661Y-24402D01*
X55661Y-24481D01*
X55661Y-26200D01*
X55711Y-26250D01*
X56350Y-26250D01*
X56350Y-26650D01*
X55711Y-26650D01*
X55661Y-26700D01*
X55661Y-27350D01*
X54400Y-27350D01*
X54400Y-27200D01*
X54400Y-27050D01*
X54387Y-26987D01*
X54387Y-26450D01*
X55358Y-26450D01*
X55487Y-26320D01*
X55487Y-24150D01*
X56587Y-24150D01*
X56587Y-26657D01*
G54D10*
G36*
X54287Y-20679D02*
X53925Y-21041D01*
X53925Y-20275D01*
X53925Y-20062D01*
X53662Y-20062D01*
X53612Y-20112D01*
X53612Y-20164D01*
X53642Y-20238D01*
X53699Y-20294D01*
X53772Y-20325D01*
X53852Y-20325D01*
X53875Y-20325D01*
X53925Y-20275D01*
X53925Y-21041D01*
X53616Y-21350D01*
X53320Y-21350D01*
X53357Y-21313D01*
X53387Y-21240D01*
X53387Y-21160D01*
X53387Y-20439D01*
X53387Y-20360D01*
X53357Y-20286D01*
X53300Y-20230D01*
X53227Y-20200D01*
X53137Y-20200D01*
X53087Y-20250D01*
X53087Y-20600D01*
X53337Y-20600D01*
X53387Y-20550D01*
X53387Y-20439D01*
X53387Y-21160D01*
X53387Y-21050D01*
X53337Y-21000D01*
X53087Y-21000D01*
X53087Y-21008D01*
X52887Y-21008D01*
X52887Y-21000D01*
X52787Y-21000D01*
X52787Y-20600D01*
X52887Y-20600D01*
X52887Y-20250D01*
X52837Y-20200D01*
X52787Y-20200D01*
X52787Y-19950D01*
X54245Y-19950D01*
X54245Y-20062D01*
X54150Y-20062D01*
X54150Y-20275D01*
X54200Y-20325D01*
X54222Y-20325D01*
X54287Y-20325D01*
X54287Y-20679D01*
X54287Y-20679D01*
G37*
G54D81*
X54287Y-20679D02*
X53925Y-21041D01*
X53925Y-20275D01*
X53925Y-20062D01*
X53662Y-20062D01*
X53612Y-20112D01*
X53612Y-20164D01*
X53642Y-20238D01*
X53699Y-20294D01*
X53772Y-20325D01*
X53852Y-20325D01*
X53875Y-20325D01*
X53925Y-20275D01*
X53925Y-21041D01*
X53616Y-21350D01*
X53320Y-21350D01*
X53357Y-21313D01*
X53387Y-21240D01*
X53387Y-21160D01*
X53387Y-20439D01*
X53387Y-20360D01*
X53357Y-20286D01*
X53300Y-20230D01*
X53227Y-20200D01*
X53137Y-20200D01*
X53087Y-20250D01*
X53087Y-20600D01*
X53337Y-20600D01*
X53387Y-20550D01*
X53387Y-20439D01*
X53387Y-21160D01*
X53387Y-21050D01*
X53337Y-21000D01*
X53087Y-21000D01*
X53087Y-21008D01*
X52887Y-21008D01*
X52887Y-21000D01*
X52787Y-21000D01*
X52787Y-20600D01*
X52887Y-20600D01*
X52887Y-20250D01*
X52837Y-20200D01*
X52787Y-20200D01*
X52787Y-19950D01*
X54245Y-19950D01*
X54245Y-20062D01*
X54150Y-20062D01*
X54150Y-20275D01*
X54200Y-20325D01*
X54222Y-20325D01*
X54287Y-20325D01*
X54287Y-20679D01*
G54D10*
G36*
X52487Y-21450D02*
X51787Y-21450D01*
X51787Y-21375D01*
X51847Y-21400D01*
X51937Y-21400D01*
X51987Y-21350D01*
X51987Y-21000D01*
X51887Y-21000D01*
X51887Y-20600D01*
X51987Y-20600D01*
X51987Y-20592D01*
X52187Y-20592D01*
X52187Y-20600D01*
X52287Y-20600D01*
X52287Y-21000D01*
X52187Y-21000D01*
X52187Y-21350D01*
X52237Y-21400D01*
X52327Y-21400D01*
X52400Y-21369D01*
X52418Y-21351D01*
X52487Y-21420D01*
X52487Y-21450D01*
X52487Y-21450D01*
G37*
G54D81*
X52487Y-21450D02*
X51787Y-21450D01*
X51787Y-21375D01*
X51847Y-21400D01*
X51937Y-21400D01*
X51987Y-21350D01*
X51987Y-21000D01*
X51887Y-21000D01*
X51887Y-20600D01*
X51987Y-20600D01*
X51987Y-20592D01*
X52187Y-20592D01*
X52187Y-20600D01*
X52287Y-20600D01*
X52287Y-21000D01*
X52187Y-21000D01*
X52187Y-21350D01*
X52237Y-21400D01*
X52327Y-21400D01*
X52400Y-21369D01*
X52418Y-21351D01*
X52487Y-21420D01*
X52487Y-21450D01*
G54D10*
G36*
X51387Y-21450D02*
X51087Y-21450D01*
X51087Y-21350D01*
X51087Y-21000D01*
X50837Y-21000D01*
X50787Y-21050D01*
X50787Y-21160D01*
X50787Y-21240D01*
X50818Y-21313D01*
X50874Y-21369D01*
X50947Y-21400D01*
X51037Y-21400D01*
X51087Y-21350D01*
X51087Y-21450D01*
X50387Y-21450D01*
X50387Y-21020D01*
X50822Y-20585D01*
X50837Y-20600D01*
X51087Y-20600D01*
X51087Y-20592D01*
X51287Y-20592D01*
X51287Y-20600D01*
X51387Y-20600D01*
X51387Y-21000D01*
X51287Y-21000D01*
X51287Y-21350D01*
X51337Y-21400D01*
X51387Y-21400D01*
X51387Y-21450D01*
X51387Y-21450D01*
G37*
G54D81*
X51387Y-21450D02*
X51087Y-21450D01*
X51087Y-21350D01*
X51087Y-21000D01*
X50837Y-21000D01*
X50787Y-21050D01*
X50787Y-21160D01*
X50787Y-21240D01*
X50818Y-21313D01*
X50874Y-21369D01*
X50947Y-21400D01*
X51037Y-21400D01*
X51087Y-21350D01*
X51087Y-21450D01*
X50387Y-21450D01*
X50387Y-21020D01*
X50822Y-20585D01*
X50837Y-20600D01*
X51087Y-20600D01*
X51087Y-20592D01*
X51287Y-20592D01*
X51287Y-20600D01*
X51387Y-20600D01*
X51387Y-21000D01*
X51287Y-21000D01*
X51287Y-21350D01*
X51337Y-21400D01*
X51387Y-21400D01*
X51387Y-21450D01*
G54D10*
G36*
X56887Y-35550D02*
X53872Y-35550D01*
X53872Y-35202D01*
X53872Y-33547D01*
X53842Y-33474D01*
X53785Y-33418D01*
X53712Y-33387D01*
X53632Y-33387D01*
X53450Y-33387D01*
X53400Y-33437D01*
X53400Y-34175D01*
X53822Y-34175D01*
X53872Y-34125D01*
X53872Y-33547D01*
X53872Y-35202D01*
X53872Y-34625D01*
X53822Y-34575D01*
X53400Y-34575D01*
X53400Y-35312D01*
X53450Y-35362D01*
X53632Y-35362D01*
X53712Y-35362D01*
X53785Y-35331D01*
X53842Y-35275D01*
X53872Y-35202D01*
X53872Y-35550D01*
X53000Y-35550D01*
X53000Y-35312D01*
X53000Y-34575D01*
X53000Y-34175D01*
X53000Y-33437D01*
X52950Y-33387D01*
X52767Y-33387D01*
X52687Y-33387D01*
X52614Y-33418D01*
X52557Y-33474D01*
X52527Y-33547D01*
X52527Y-34125D01*
X52577Y-34175D01*
X53000Y-34175D01*
X53000Y-34575D01*
X52577Y-34575D01*
X52527Y-34625D01*
X52527Y-35202D01*
X52557Y-35275D01*
X52614Y-35331D01*
X52687Y-35362D01*
X52767Y-35362D01*
X52950Y-35362D01*
X53000Y-35312D01*
X53000Y-35550D01*
X51787Y-35550D01*
X51787Y-33150D01*
X56887Y-33150D01*
X56887Y-35550D01*
X56887Y-35550D01*
G37*
G54D81*
X56887Y-35550D02*
X53872Y-35550D01*
X53872Y-35202D01*
X53872Y-33547D01*
X53842Y-33474D01*
X53785Y-33418D01*
X53712Y-33387D01*
X53632Y-33387D01*
X53450Y-33387D01*
X53400Y-33437D01*
X53400Y-34175D01*
X53822Y-34175D01*
X53872Y-34125D01*
X53872Y-33547D01*
X53872Y-35202D01*
X53872Y-34625D01*
X53822Y-34575D01*
X53400Y-34575D01*
X53400Y-35312D01*
X53450Y-35362D01*
X53632Y-35362D01*
X53712Y-35362D01*
X53785Y-35331D01*
X53842Y-35275D01*
X53872Y-35202D01*
X53872Y-35550D01*
X53000Y-35550D01*
X53000Y-35312D01*
X53000Y-34575D01*
X53000Y-34175D01*
X53000Y-33437D01*
X52950Y-33387D01*
X52767Y-33387D01*
X52687Y-33387D01*
X52614Y-33418D01*
X52557Y-33474D01*
X52527Y-33547D01*
X52527Y-34125D01*
X52577Y-34175D01*
X53000Y-34175D01*
X53000Y-34575D01*
X52577Y-34575D01*
X52527Y-34625D01*
X52527Y-35202D01*
X52557Y-35275D01*
X52614Y-35331D01*
X52687Y-35362D01*
X52767Y-35362D01*
X52950Y-35362D01*
X53000Y-35312D01*
X53000Y-35550D01*
X51787Y-35550D01*
X51787Y-33150D01*
X56887Y-33150D01*
X56887Y-35550D01*
G54D10*
G36*
X39625Y-28354D02*
X39554Y-28425D01*
X38525Y-28425D01*
X38525Y-27325D01*
X39625Y-27325D01*
X39625Y-28354D01*
X39625Y-28354D01*
G37*
G54D81*
X39625Y-28354D02*
X39554Y-28425D01*
X38525Y-28425D01*
X38525Y-27325D01*
X39625Y-27325D01*
X39625Y-28354D01*
G54D10*
G36*
X36025Y-28354D02*
X35904Y-28475D01*
X34775Y-28475D01*
X34775Y-27995D01*
X35245Y-27525D01*
X36025Y-27525D01*
X36025Y-28325D01*
X36025Y-28354D01*
X36025Y-28354D01*
G37*
G54D81*
X36025Y-28354D02*
X35904Y-28475D01*
X34775Y-28475D01*
X34775Y-27995D01*
X35245Y-27525D01*
X36025Y-27525D01*
X36025Y-28325D01*
X36025Y-28354D01*
G54D10*
G36*
X35825Y-26925D02*
X34775Y-26925D01*
X34775Y-26295D01*
X34895Y-26175D01*
X35582Y-26175D01*
X35582Y-26175D01*
X35692Y-26175D01*
X35692Y-26175D01*
X35825Y-26175D01*
X35825Y-26925D01*
X35825Y-26925D01*
G37*
G54D81*
X35825Y-26925D02*
X34775Y-26925D01*
X34775Y-26295D01*
X34895Y-26175D01*
X35582Y-26175D01*
X35582Y-26175D01*
X35692Y-26175D01*
X35692Y-26175D01*
X35825Y-26175D01*
X35825Y-26925D01*
G54D10*
G36*
X39425Y-26754D02*
X39354Y-26825D01*
X38425Y-26825D01*
X38425Y-25575D01*
X39425Y-25575D01*
X39425Y-26754D01*
X39425Y-26754D01*
G37*
G54D81*
X39425Y-26754D02*
X39354Y-26825D01*
X38425Y-26825D01*
X38425Y-25575D01*
X39425Y-25575D01*
X39425Y-26754D01*
M02*
