G04 (created by PCBNEW (2013-07-07 BZR 4022)-stable) date 07/08/2014 18:27:05*
%MOIN*%
G04 Gerber Fmt 3.4, Leading zero omitted, Abs format*
%FSLAX34Y34*%
G01*
G70*
G90*
G04 APERTURE LIST*
%ADD10C,0.00590551*%
%ADD11R,0.0964252X0.0373701*%
%ADD12R,0.104299X0.120047*%
%ADD13R,0.0492X0.0098*%
%ADD14R,0.0157165X0.0157165*%
%ADD15R,0.034X0.034*%
%ADD16R,0.0256X0.0374*%
%ADD17R,0.0374X0.0256*%
%ADD18R,0.0276X0.0295*%
%ADD19R,0.0508X0.0689*%
%ADD20R,0.065X0.0217*%
%ADD21R,0.043X0.023*%
%ADD22R,0.023X0.043*%
%ADD23R,0.0531X0.0688*%
%ADD24R,0.0688X0.0531*%
%ADD25R,0.048X0.036*%
%ADD26R,0.036X0.048*%
%ADD27R,0.0531181X0.0452441*%
%ADD28R,0.0846X0.061*%
%ADD29R,0.0689X0.0846*%
%ADD30R,0.0964X0.1279*%
%ADD31R,0.040126X0.0830394*%
%ADD32R,0.326X0.273*%
%ADD33R,0.423X0.073*%
%ADD34R,0.0374X0.0334*%
%ADD35R,0.0334X0.0374*%
%ADD36R,0.048X0.073*%
%ADD37R,0.0846X0.0216*%
%ADD38R,0.0216X0.0846*%
%ADD39R,0.0570551X0.123984*%
%ADD40R,0.061X0.069*%
%ADD41R,0.069X0.061*%
%ADD42R,0.008X0.0571*%
%ADD43R,0.0571X0.008*%
%ADD44R,0.108X0.148*%
%ADD45R,0.0579X0.098*%
%ADD46R,0.123984X0.0570551*%
%ADD47R,0.053X0.148*%
%ADD48R,0.048X0.088*%
%ADD49R,0.088X0.048*%
%ADD50R,0.078X0.058*%
%ADD51R,0.058X0.078*%
G04 APERTURE END LIST*
G54D10*
G54D11*
X32587Y-11259D03*
X32587Y-9290D03*
G54D12*
X16244Y-12374D03*
X13330Y-12354D03*
G54D13*
X44237Y-34834D03*
X44237Y-34584D03*
X44237Y-34324D03*
X44237Y-34074D03*
X44237Y-33814D03*
X44237Y-33559D03*
X44237Y-33304D03*
X46437Y-33304D03*
X46437Y-33559D03*
X46437Y-33814D03*
X46437Y-34074D03*
X46437Y-34329D03*
X46437Y-34584D03*
X46437Y-34839D03*
G54D14*
X11387Y-29374D03*
X11387Y-30004D03*
X11052Y-30004D03*
X11052Y-29374D03*
X17387Y-31974D03*
X18017Y-31974D03*
X18017Y-32309D03*
X17387Y-32309D03*
G54D15*
X28287Y-13724D03*
X28987Y-13724D03*
X28637Y-12924D03*
X38337Y-14874D03*
X39037Y-14874D03*
X38687Y-14074D03*
X46637Y-14974D03*
X47337Y-14974D03*
X46987Y-14174D03*
X42137Y-15074D03*
X42837Y-15074D03*
X42487Y-14274D03*
X23537Y-13874D03*
X24237Y-13874D03*
X23887Y-13074D03*
X34137Y-14974D03*
X34837Y-14974D03*
X34487Y-14174D03*
X13037Y-19174D03*
X13737Y-19174D03*
X13387Y-18374D03*
X19037Y-14274D03*
X19737Y-14274D03*
X19387Y-13474D03*
G54D16*
X47687Y-34474D03*
X48062Y-33474D03*
X47312Y-33474D03*
X47787Y-31674D03*
X48162Y-30674D03*
X47412Y-30674D03*
G54D17*
X44187Y-32474D03*
X45187Y-32849D03*
X45187Y-32099D03*
G54D16*
X42837Y-35074D03*
X43212Y-34074D03*
X42462Y-34074D03*
G54D18*
X25087Y-13209D03*
X25087Y-12737D03*
X29787Y-12959D03*
X29787Y-12487D03*
X12987Y-17609D03*
X12987Y-17137D03*
X20187Y-13309D03*
X20187Y-12837D03*
G54D19*
X8648Y-16674D03*
X7524Y-16674D03*
G54D20*
X34443Y-25323D03*
X34443Y-24823D03*
X34443Y-24324D03*
X34443Y-23824D03*
X36529Y-23824D03*
X36529Y-24324D03*
X36529Y-24823D03*
X36529Y-25323D03*
G54D21*
X51437Y-27224D03*
X51437Y-27824D03*
X20487Y-14574D03*
X20487Y-13974D03*
X57637Y-19774D03*
X57637Y-19174D03*
X50637Y-27824D03*
X50637Y-27224D03*
X49387Y-15874D03*
X49387Y-15274D03*
X49837Y-27824D03*
X49837Y-27224D03*
X50287Y-15874D03*
X50287Y-15274D03*
X43837Y-22674D03*
X43837Y-23274D03*
X51187Y-16174D03*
X51187Y-15574D03*
X52087Y-16574D03*
X52087Y-15974D03*
G54D22*
X33787Y-16274D03*
X33187Y-16274D03*
X20887Y-36874D03*
X21487Y-36874D03*
X18637Y-36174D03*
X18037Y-36174D03*
G54D21*
X29987Y-35574D03*
X29987Y-36174D03*
X29987Y-34374D03*
X29987Y-34974D03*
X29987Y-33174D03*
X29987Y-33774D03*
X29887Y-32574D03*
X29887Y-31974D03*
G54D22*
X42787Y-25924D03*
X42187Y-25924D03*
X42787Y-24874D03*
X42187Y-24874D03*
X40737Y-24874D03*
X41337Y-24874D03*
X40737Y-24174D03*
X41337Y-24174D03*
G54D21*
X29787Y-14274D03*
X29787Y-13674D03*
X28587Y-16674D03*
X28587Y-16074D03*
X26237Y-36924D03*
X26237Y-36324D03*
X46187Y-19774D03*
X46187Y-20374D03*
X31987Y-36674D03*
X31987Y-36074D03*
X35337Y-36674D03*
X35337Y-36074D03*
G54D22*
X52237Y-25174D03*
X52837Y-25174D03*
X37187Y-16374D03*
X37787Y-16374D03*
G54D21*
X52687Y-23724D03*
X52687Y-24324D03*
X25087Y-14474D03*
X25087Y-13874D03*
X28587Y-20374D03*
X28587Y-20974D03*
X29387Y-20274D03*
X29387Y-19674D03*
X49687Y-32274D03*
X49687Y-32874D03*
G54D22*
X48887Y-32774D03*
X48287Y-32774D03*
G54D21*
X23687Y-29024D03*
X23687Y-28424D03*
X22787Y-30274D03*
X22787Y-29674D03*
X23687Y-30224D03*
X23687Y-29624D03*
G54D22*
X24987Y-27974D03*
X24387Y-27974D03*
G54D21*
X25400Y-17900D03*
X25400Y-18500D03*
X25187Y-23874D03*
X25187Y-23274D03*
X47987Y-35074D03*
X47987Y-35674D03*
X49687Y-31074D03*
X49687Y-31674D03*
X24687Y-27074D03*
X24687Y-26474D03*
X25450Y-26300D03*
X25450Y-25700D03*
X42087Y-15874D03*
X42087Y-16474D03*
X42587Y-33474D03*
X42587Y-32874D03*
G54D22*
X42787Y-32274D03*
X42187Y-32274D03*
X40737Y-32824D03*
X40137Y-32824D03*
G54D21*
X28087Y-18274D03*
X28087Y-18874D03*
G54D22*
X32937Y-28324D03*
X32337Y-28324D03*
G54D21*
X30987Y-26074D03*
X30987Y-26674D03*
X30287Y-27374D03*
X30287Y-26774D03*
X31087Y-28274D03*
X31087Y-27674D03*
G54D22*
X37887Y-28374D03*
X38487Y-28374D03*
G54D21*
X33050Y-24600D03*
X33050Y-24000D03*
X35087Y-27274D03*
X35087Y-26674D03*
X35087Y-28474D03*
X35087Y-27874D03*
X35837Y-28774D03*
X35837Y-28174D03*
X50337Y-33474D03*
X50337Y-34074D03*
X49587Y-33824D03*
X49587Y-34424D03*
X50587Y-34774D03*
X50587Y-35374D03*
X49587Y-35724D03*
X49587Y-35124D03*
G54D22*
X43787Y-23874D03*
X44387Y-23874D03*
G54D21*
X45487Y-24674D03*
X45487Y-24074D03*
X51837Y-23074D03*
X51837Y-22474D03*
X51087Y-23074D03*
X51087Y-22474D03*
G54D22*
X41087Y-36774D03*
X40487Y-36774D03*
G54D21*
X46187Y-32474D03*
X46187Y-31874D03*
X40287Y-34674D03*
X40287Y-35274D03*
X40987Y-34574D03*
X40987Y-35174D03*
X54887Y-19974D03*
X54887Y-20574D03*
X50287Y-18874D03*
X50287Y-18274D03*
G54D22*
X38837Y-34374D03*
X39437Y-34374D03*
G54D21*
X45987Y-31074D03*
X45987Y-30474D03*
G54D22*
X43937Y-35624D03*
X43337Y-35624D03*
G54D21*
X56737Y-19874D03*
X56737Y-20474D03*
X56737Y-19074D03*
X56737Y-18474D03*
G54D22*
X42287Y-23124D03*
X42887Y-23124D03*
X15487Y-30674D03*
X16087Y-30674D03*
X35837Y-19024D03*
X36437Y-19024D03*
X41037Y-23124D03*
X41637Y-23124D03*
G54D21*
X18687Y-31074D03*
X18687Y-30474D03*
G54D22*
X41887Y-33274D03*
X41287Y-33274D03*
G54D21*
X28287Y-27974D03*
X28287Y-27374D03*
G54D22*
X47987Y-29874D03*
X47387Y-29874D03*
X52387Y-29374D03*
X51787Y-29374D03*
X48837Y-18974D03*
X49437Y-18974D03*
X51787Y-30174D03*
X52387Y-30174D03*
G54D23*
X36318Y-36674D03*
X37656Y-36674D03*
G54D24*
X44087Y-11643D03*
X44087Y-10305D03*
X46987Y-12143D03*
X46987Y-10805D03*
G54D23*
X34618Y-34574D03*
X35956Y-34574D03*
X27668Y-36624D03*
X29006Y-36624D03*
G54D24*
X37387Y-14105D03*
X37387Y-15443D03*
G54D23*
X17318Y-35174D03*
X18656Y-35174D03*
G54D24*
X33887Y-11943D03*
X33887Y-10605D03*
G54D23*
X20818Y-34774D03*
X22156Y-34774D03*
G54D25*
X43387Y-33124D03*
X43387Y-32624D03*
X43387Y-32124D03*
X48887Y-31074D03*
X48887Y-31574D03*
X48887Y-32074D03*
X48737Y-33424D03*
X48737Y-33924D03*
X48737Y-34424D03*
X41787Y-34024D03*
X41787Y-34524D03*
X41787Y-35024D03*
G54D26*
X45287Y-13174D03*
X45787Y-13174D03*
X46287Y-13174D03*
X41087Y-13274D03*
X41587Y-13274D03*
X42087Y-13274D03*
X36787Y-13074D03*
X37287Y-13074D03*
X37787Y-13074D03*
X32587Y-13174D03*
X33087Y-13174D03*
X33587Y-13174D03*
X40387Y-33624D03*
X39887Y-33624D03*
G54D25*
X47187Y-35674D03*
X47187Y-35174D03*
X48737Y-35624D03*
X48737Y-35124D03*
X49037Y-27274D03*
X49037Y-27774D03*
X29387Y-22024D03*
X29387Y-21524D03*
X26000Y-23650D03*
X26000Y-23150D03*
X38450Y-23900D03*
X38450Y-24400D03*
G54D26*
X52787Y-26024D03*
X52287Y-26024D03*
G54D27*
X19987Y-31424D03*
X20932Y-31424D03*
X19987Y-32172D03*
X20932Y-32172D03*
G54D28*
X11987Y-13626D03*
X11987Y-15122D03*
G54D29*
X32897Y-36374D03*
X34477Y-36374D03*
X32097Y-34674D03*
X33677Y-34674D03*
X15697Y-33874D03*
X17277Y-33874D03*
X43477Y-36724D03*
X41897Y-36724D03*
X19797Y-35874D03*
X21377Y-35874D03*
X46227Y-35924D03*
X44647Y-35924D03*
X49177Y-36774D03*
X47597Y-36774D03*
X23297Y-36474D03*
X24877Y-36474D03*
G54D30*
X16526Y-15074D03*
X13848Y-15074D03*
G54D31*
X8787Y-15254D03*
X8117Y-15254D03*
X7447Y-15254D03*
X9457Y-15254D03*
X10127Y-15254D03*
G54D32*
X8787Y-11049D03*
G54D33*
X8787Y-10049D03*
G54D34*
X29087Y-18278D03*
X29087Y-18870D03*
X39187Y-32678D03*
X39187Y-33270D03*
G54D35*
X46633Y-36974D03*
X46041Y-36974D03*
X44983Y-26174D03*
X44391Y-26174D03*
G54D34*
X19187Y-32170D03*
X19187Y-31578D03*
X21787Y-32070D03*
X21787Y-31478D03*
G54D35*
X34183Y-28324D03*
X33591Y-28324D03*
X25791Y-28074D03*
X26383Y-28074D03*
G54D34*
X21687Y-25570D03*
X21687Y-24978D03*
G54D35*
X44641Y-36974D03*
X45233Y-36974D03*
G54D34*
X45887Y-23020D03*
X45887Y-22428D03*
X39200Y-24954D03*
X39200Y-25546D03*
X33587Y-19478D03*
X33587Y-20070D03*
X34187Y-22178D03*
X34187Y-22770D03*
X37700Y-24646D03*
X37700Y-24054D03*
X30387Y-20278D03*
X30387Y-20870D03*
G54D35*
X26396Y-26900D03*
X25804Y-26900D03*
G54D34*
X30287Y-28570D03*
X30287Y-27978D03*
X26487Y-25578D03*
X26487Y-26170D03*
X29087Y-26778D03*
X29087Y-27370D03*
G54D35*
X31191Y-21074D03*
X31783Y-21074D03*
X34791Y-31074D03*
X35383Y-31074D03*
G54D34*
X39200Y-24346D03*
X39200Y-23754D03*
G54D35*
X39883Y-28274D03*
X39291Y-28274D03*
G54D34*
X38187Y-29970D03*
X38187Y-29378D03*
G54D35*
X42683Y-35724D03*
X42091Y-35724D03*
G54D34*
X37987Y-21978D03*
X37987Y-22570D03*
X29237Y-24428D03*
X29237Y-25020D03*
X29237Y-23770D03*
X29237Y-23178D03*
G54D35*
X47191Y-27974D03*
X47783Y-27974D03*
G54D34*
X52687Y-22528D03*
X52687Y-23120D03*
X51087Y-21370D03*
X51087Y-20778D03*
X54137Y-20620D03*
X54137Y-20028D03*
X51087Y-18920D03*
X51087Y-18328D03*
X43937Y-21228D03*
X43937Y-21820D03*
X46187Y-24670D03*
X46187Y-24078D03*
G54D35*
X21191Y-33974D03*
X21783Y-33974D03*
X16991Y-30474D03*
X17583Y-30474D03*
G54D34*
X48987Y-29270D03*
X48987Y-28678D03*
G54D35*
X50791Y-28424D03*
X51383Y-28424D03*
G54D34*
X8787Y-21870D03*
X8787Y-21278D03*
X28587Y-21678D03*
X28587Y-22270D03*
X54137Y-19370D03*
X54137Y-18778D03*
X21187Y-29478D03*
X21187Y-30070D03*
G54D35*
X41183Y-35874D03*
X40591Y-35874D03*
X30791Y-31074D03*
X31383Y-31074D03*
G54D34*
X47187Y-21770D03*
X47187Y-21178D03*
X46137Y-21570D03*
X46137Y-20978D03*
X46637Y-30428D03*
X46637Y-31020D03*
X51087Y-19528D03*
X51087Y-20120D03*
X50437Y-23020D03*
X50437Y-22428D03*
X46887Y-31878D03*
X46887Y-32470D03*
X39787Y-36078D03*
X39787Y-36670D03*
X48737Y-21520D03*
X48737Y-20928D03*
G54D10*
G36*
X55273Y-11714D02*
X54747Y-13161D01*
X53301Y-12634D01*
X53827Y-11188D01*
X55273Y-11714D01*
X55273Y-11714D01*
G37*
G54D36*
X29937Y-23374D03*
X32137Y-23374D03*
X32137Y-24624D03*
X29937Y-24624D03*
G54D37*
X32014Y-27674D03*
X32014Y-27174D03*
X32014Y-26674D03*
X32014Y-26174D03*
X34060Y-26174D03*
X34060Y-26674D03*
X34060Y-27174D03*
X34060Y-27674D03*
X36114Y-27724D03*
X36114Y-27224D03*
X36114Y-26724D03*
X36114Y-26224D03*
X38160Y-26224D03*
X38160Y-26724D03*
X38160Y-27224D03*
X38160Y-27724D03*
X24914Y-30174D03*
X24914Y-29674D03*
X24914Y-29174D03*
X24914Y-28674D03*
X26960Y-28674D03*
X26960Y-29174D03*
X26960Y-29674D03*
X26960Y-30174D03*
G54D38*
X50087Y-24251D03*
X50587Y-24251D03*
X51087Y-24251D03*
X51587Y-24251D03*
X51587Y-26297D03*
X51087Y-26297D03*
X50587Y-26297D03*
X50087Y-26297D03*
G54D37*
X25870Y-35474D03*
X25870Y-34974D03*
X25870Y-34474D03*
X25870Y-33974D03*
X25870Y-33474D03*
X25870Y-32974D03*
X25870Y-32474D03*
X25870Y-31974D03*
X28704Y-31974D03*
X28704Y-32474D03*
X28704Y-32974D03*
X28704Y-33474D03*
X28704Y-33974D03*
X28704Y-34474D03*
X28704Y-34974D03*
X28704Y-35474D03*
X42020Y-31174D03*
X42020Y-30674D03*
X42020Y-30174D03*
X42020Y-29674D03*
X42020Y-29174D03*
X42020Y-28674D03*
X42020Y-28174D03*
X42020Y-27674D03*
X44854Y-27674D03*
X44854Y-28174D03*
X44854Y-28674D03*
X44854Y-29174D03*
X44854Y-29674D03*
X44854Y-30174D03*
X44854Y-30674D03*
X44854Y-31174D03*
G54D39*
X19160Y-15774D03*
X20814Y-15774D03*
G54D25*
X30387Y-18874D03*
X30387Y-18374D03*
X30387Y-17874D03*
G54D40*
X32037Y-22174D03*
X30937Y-22174D03*
G54D41*
X13587Y-25924D03*
X13587Y-24824D03*
G54D40*
X48737Y-19974D03*
X49837Y-19974D03*
G54D41*
X44887Y-21924D03*
X44887Y-23024D03*
X7687Y-21024D03*
X7687Y-22124D03*
G54D42*
X19362Y-29438D03*
X19165Y-29438D03*
X18968Y-29438D03*
X18771Y-29438D03*
X18574Y-29438D03*
X18378Y-29438D03*
X18181Y-29438D03*
X17984Y-29438D03*
X17788Y-29438D03*
X17591Y-29438D03*
X17394Y-29438D03*
X17198Y-29438D03*
X17001Y-29438D03*
X16804Y-29438D03*
X16607Y-29438D03*
X16410Y-29438D03*
G54D43*
X15623Y-28651D03*
X15623Y-28454D03*
X15623Y-28257D03*
X15623Y-28060D03*
X15623Y-27863D03*
X15623Y-27667D03*
X15623Y-27470D03*
X15623Y-27273D03*
X15623Y-27077D03*
X15623Y-26880D03*
X15623Y-26683D03*
X15623Y-26487D03*
X15623Y-26290D03*
X15623Y-26093D03*
X15623Y-25896D03*
X15623Y-25699D03*
G54D42*
X16410Y-24912D03*
X16607Y-24912D03*
X16804Y-24912D03*
X17001Y-24912D03*
X17198Y-24912D03*
X17394Y-24912D03*
X17591Y-24912D03*
X17788Y-24912D03*
X17984Y-24912D03*
X18181Y-24912D03*
X18378Y-24912D03*
X18574Y-24912D03*
X18771Y-24912D03*
X18968Y-24912D03*
X19165Y-24912D03*
X19362Y-24912D03*
G54D43*
X20149Y-25699D03*
X20149Y-25896D03*
X20149Y-26093D03*
X20149Y-26290D03*
X20149Y-26487D03*
X20149Y-26683D03*
X20149Y-26880D03*
X20149Y-27077D03*
X20149Y-27273D03*
X20149Y-27470D03*
X20149Y-27667D03*
X20149Y-27863D03*
X20149Y-28060D03*
X20149Y-28257D03*
X20149Y-28454D03*
X20149Y-28651D03*
G54D25*
X24200Y-23850D03*
X24200Y-23350D03*
G54D44*
X12118Y-9974D03*
X16055Y-9974D03*
G54D45*
X14437Y-36374D03*
X16539Y-36374D03*
G54D46*
X21787Y-11401D03*
X21787Y-9748D03*
X19787Y-9748D03*
X19787Y-11401D03*
X17787Y-9748D03*
X17787Y-11401D03*
X25787Y-9748D03*
X25787Y-11401D03*
X23787Y-9748D03*
X23787Y-11401D03*
G54D47*
X24300Y-16800D03*
X26100Y-16800D03*
G54D48*
X19935Y-33824D03*
X18637Y-33824D03*
G54D49*
X23387Y-35322D03*
X23387Y-34024D03*
X30987Y-34826D03*
X30987Y-36124D03*
G54D48*
X37985Y-34374D03*
X36687Y-34374D03*
G54D49*
X38887Y-35626D03*
X38887Y-36924D03*
G54D48*
X11948Y-8450D03*
X10650Y-8450D03*
G54D49*
X18050Y-16148D03*
X18050Y-14850D03*
G54D48*
X24348Y-15250D03*
X23050Y-15250D03*
X28748Y-15250D03*
X27450Y-15250D03*
G54D50*
X18050Y-12700D03*
X18050Y-14000D03*
G54D51*
X12000Y-7200D03*
X10700Y-7200D03*
G54D50*
X27300Y-12600D03*
X27300Y-13900D03*
X22600Y-12850D03*
X22600Y-14150D03*
M02*
