G04 (created by PCBNEW (2013-07-07 BZR 4022)-stable) date 21/04/2014 15:31:59*
%MOIN*%
G04 Gerber Fmt 3.4, Leading zero omitted, Abs format*
%FSLAX34Y34*%
G01*
G70*
G90*
G04 APERTURE LIST*
%ADD10C,0.00590551*%
%ADD11R,0.0492X0.0098*%
%ADD12R,0.0157165X0.0157165*%
%ADD13R,0.034X0.034*%
%ADD14R,0.0256X0.0374*%
%ADD15R,0.0374X0.0256*%
%ADD16R,0.0276X0.0295*%
%ADD17R,0.0508X0.0689*%
%ADD18R,0.088X0.048*%
%ADD19R,0.0768X0.0335*%
%ADD20R,0.048X0.088*%
%ADD21R,0.065X0.0217*%
%ADD22R,0.043X0.023*%
%ADD23R,0.023X0.043*%
%ADD24R,0.0531X0.0688*%
%ADD25R,0.0688X0.0531*%
%ADD26R,0.0964252X0.0373701*%
%ADD27R,0.104299X0.120047*%
%ADD28R,0.0570551X0.123984*%
%ADD29R,0.048X0.036*%
%ADD30R,0.036X0.048*%
%ADD31R,0.0531181X0.0452441*%
%ADD32R,0.0846X0.061*%
%ADD33R,0.058X0.124*%
%ADD34R,0.0689X0.0846*%
%ADD35R,0.0964X0.1279*%
%ADD36R,0.040126X0.0830394*%
%ADD37R,0.326X0.273*%
%ADD38R,0.423X0.073*%
%ADD39R,0.0374X0.0334*%
%ADD40R,0.0334X0.0374*%
%ADD41R,0.048X0.073*%
%ADD42R,0.0846X0.0216*%
%ADD43R,0.0216X0.0846*%
%ADD44R,0.061X0.069*%
%ADD45R,0.069X0.061*%
%ADD46R,0.008X0.0571*%
%ADD47R,0.0571X0.008*%
G04 APERTURE END LIST*
G54D10*
G54D11*
X43450Y-33260D03*
X43450Y-33010D03*
X43450Y-32750D03*
X43450Y-32500D03*
X43450Y-32240D03*
X43450Y-31985D03*
X43450Y-31730D03*
X45650Y-31730D03*
X45650Y-31985D03*
X45650Y-32240D03*
X45650Y-32500D03*
X45650Y-32755D03*
X45650Y-33010D03*
X45650Y-33265D03*
G54D12*
X10600Y-27800D03*
X10600Y-28429D03*
X10265Y-28429D03*
X10265Y-27800D03*
X16600Y-30400D03*
X17229Y-30400D03*
X17229Y-30734D03*
X16600Y-30734D03*
G54D13*
X27500Y-12150D03*
X28200Y-12150D03*
X27850Y-11350D03*
X37550Y-13300D03*
X38250Y-13300D03*
X37900Y-12500D03*
X45850Y-13400D03*
X46550Y-13400D03*
X46200Y-12600D03*
X41350Y-13500D03*
X42050Y-13500D03*
X41700Y-12700D03*
X22750Y-12300D03*
X23450Y-12300D03*
X23100Y-11500D03*
X33350Y-13400D03*
X34050Y-13400D03*
X33700Y-12600D03*
X12250Y-17600D03*
X12950Y-17600D03*
X12600Y-16800D03*
X18250Y-12700D03*
X18950Y-12700D03*
X18600Y-11900D03*
G54D14*
X46900Y-32900D03*
X47275Y-31900D03*
X46525Y-31900D03*
X47000Y-30100D03*
X47375Y-29100D03*
X46625Y-29100D03*
G54D15*
X43400Y-30900D03*
X44400Y-31275D03*
X44400Y-30525D03*
G54D14*
X42050Y-33500D03*
X42425Y-32500D03*
X41675Y-32500D03*
G54D16*
X24300Y-11635D03*
X24300Y-11163D03*
X29000Y-11385D03*
X29000Y-10913D03*
X12200Y-16035D03*
X12200Y-15563D03*
X19400Y-11735D03*
X19400Y-11263D03*
G54D17*
X6739Y-15100D03*
X7863Y-15100D03*
G54D18*
X22600Y-33748D03*
X22600Y-32450D03*
X26500Y-12198D03*
G54D19*
X26500Y-10900D03*
G54D20*
X19148Y-32250D03*
X17850Y-32250D03*
X37248Y-32800D03*
X35950Y-32800D03*
G54D18*
X30200Y-33252D03*
X30200Y-34550D03*
X15400Y-7652D03*
X15400Y-8950D03*
X17250Y-12948D03*
X17250Y-11650D03*
X21800Y-12648D03*
X21800Y-11350D03*
X38100Y-34052D03*
X38100Y-35350D03*
G54D21*
X33656Y-23749D03*
X33656Y-23249D03*
X33656Y-22750D03*
X33656Y-22250D03*
X35742Y-22250D03*
X35742Y-22750D03*
X35742Y-23249D03*
X35742Y-23749D03*
G54D22*
X50650Y-25650D03*
X50650Y-26250D03*
X19700Y-13000D03*
X19700Y-12400D03*
X56850Y-18200D03*
X56850Y-17600D03*
X49850Y-26250D03*
X49850Y-25650D03*
X48600Y-14300D03*
X48600Y-13700D03*
X49050Y-26250D03*
X49050Y-25650D03*
X49500Y-14300D03*
X49500Y-13700D03*
X43050Y-21100D03*
X43050Y-21700D03*
X50400Y-14600D03*
X50400Y-14000D03*
X51300Y-15000D03*
X51300Y-14400D03*
G54D23*
X33000Y-14700D03*
X32400Y-14700D03*
X20100Y-35300D03*
X20700Y-35300D03*
X17850Y-34600D03*
X17250Y-34600D03*
G54D22*
X29200Y-34000D03*
X29200Y-34600D03*
X29200Y-32800D03*
X29200Y-33400D03*
X29200Y-31600D03*
X29200Y-32200D03*
X29100Y-31000D03*
X29100Y-30400D03*
G54D23*
X42000Y-24350D03*
X41400Y-24350D03*
X42000Y-23300D03*
X41400Y-23300D03*
X39950Y-23300D03*
X40550Y-23300D03*
X39950Y-22600D03*
X40550Y-22600D03*
G54D22*
X29000Y-12700D03*
X29000Y-12100D03*
X27800Y-15100D03*
X27800Y-14500D03*
X25450Y-35350D03*
X25450Y-34750D03*
X45400Y-18200D03*
X45400Y-18800D03*
X31200Y-35100D03*
X31200Y-34500D03*
X34550Y-35100D03*
X34550Y-34500D03*
G54D23*
X51450Y-23600D03*
X52050Y-23600D03*
X15350Y-34800D03*
X15950Y-34800D03*
X36400Y-14800D03*
X37000Y-14800D03*
G54D22*
X51900Y-22150D03*
X51900Y-22750D03*
X24300Y-12900D03*
X24300Y-12300D03*
X27800Y-18800D03*
X27800Y-19400D03*
X28600Y-18700D03*
X28600Y-18100D03*
X48900Y-30700D03*
X48900Y-31300D03*
G54D23*
X48100Y-31200D03*
X47500Y-31200D03*
G54D22*
X22900Y-27450D03*
X22900Y-26850D03*
X22000Y-28700D03*
X22000Y-28100D03*
X22900Y-28650D03*
X22900Y-28050D03*
G54D23*
X24200Y-26400D03*
X23600Y-26400D03*
G54D22*
X25200Y-15600D03*
X25200Y-16200D03*
X24400Y-22300D03*
X24400Y-21700D03*
X47200Y-33500D03*
X47200Y-34100D03*
X48900Y-29500D03*
X48900Y-30100D03*
X23900Y-25500D03*
X23900Y-24900D03*
X24200Y-23500D03*
X24200Y-24100D03*
X41300Y-14300D03*
X41300Y-14900D03*
X41800Y-31900D03*
X41800Y-31300D03*
G54D23*
X42000Y-30700D03*
X41400Y-30700D03*
X39950Y-31250D03*
X39350Y-31250D03*
G54D22*
X27300Y-16700D03*
X27300Y-17300D03*
G54D23*
X32150Y-26750D03*
X31550Y-26750D03*
G54D22*
X30200Y-24500D03*
X30200Y-25100D03*
X29500Y-25800D03*
X29500Y-25200D03*
X30300Y-26700D03*
X30300Y-26100D03*
G54D23*
X37100Y-26800D03*
X37700Y-26800D03*
G54D22*
X32200Y-23150D03*
X32200Y-22550D03*
X34300Y-25700D03*
X34300Y-25100D03*
X34300Y-26900D03*
X34300Y-26300D03*
X35050Y-27200D03*
X35050Y-26600D03*
X49550Y-31900D03*
X49550Y-32500D03*
X48800Y-32250D03*
X48800Y-32850D03*
X49800Y-33200D03*
X49800Y-33800D03*
X48800Y-34150D03*
X48800Y-33550D03*
G54D23*
X43000Y-22300D03*
X43600Y-22300D03*
G54D22*
X44700Y-23100D03*
X44700Y-22500D03*
X51050Y-21500D03*
X51050Y-20900D03*
X50300Y-21500D03*
X50300Y-20900D03*
G54D23*
X40300Y-35200D03*
X39700Y-35200D03*
G54D22*
X45400Y-30900D03*
X45400Y-30300D03*
X39500Y-33100D03*
X39500Y-33700D03*
X40200Y-33000D03*
X40200Y-33600D03*
X54100Y-18400D03*
X54100Y-19000D03*
X49500Y-17300D03*
X49500Y-16700D03*
G54D23*
X38050Y-32800D03*
X38650Y-32800D03*
G54D22*
X45200Y-29500D03*
X45200Y-28900D03*
G54D23*
X43150Y-34050D03*
X42550Y-34050D03*
G54D22*
X55950Y-18300D03*
X55950Y-18900D03*
X55950Y-17500D03*
X55950Y-16900D03*
G54D23*
X41500Y-21550D03*
X42100Y-21550D03*
X14700Y-29100D03*
X15300Y-29100D03*
X35050Y-17450D03*
X35650Y-17450D03*
X40250Y-21550D03*
X40850Y-21550D03*
G54D22*
X17900Y-29500D03*
X17900Y-28900D03*
G54D23*
X41100Y-31700D03*
X40500Y-31700D03*
G54D22*
X27500Y-26400D03*
X27500Y-25800D03*
G54D23*
X47200Y-28300D03*
X46600Y-28300D03*
X51600Y-27800D03*
X51000Y-27800D03*
X48050Y-17400D03*
X48650Y-17400D03*
X51000Y-28600D03*
X51600Y-28600D03*
G54D24*
X35531Y-35100D03*
X36869Y-35100D03*
G54D25*
X43300Y-10069D03*
X43300Y-8731D03*
X46200Y-10569D03*
X46200Y-9231D03*
G54D24*
X33831Y-33000D03*
X35169Y-33000D03*
X26881Y-35050D03*
X28219Y-35050D03*
G54D25*
X36600Y-12531D03*
X36600Y-13869D03*
G54D24*
X16531Y-33600D03*
X17869Y-33600D03*
G54D25*
X33100Y-10369D03*
X33100Y-9031D03*
G54D24*
X20031Y-33200D03*
X21369Y-33200D03*
G54D26*
X25000Y-9984D03*
X25000Y-8015D03*
X17000Y-9984D03*
X17000Y-8015D03*
X23000Y-9984D03*
X23000Y-8015D03*
X31800Y-9684D03*
X31800Y-7715D03*
X19000Y-9984D03*
X19000Y-8015D03*
X21000Y-8015D03*
X21000Y-9984D03*
G54D27*
X15456Y-10500D03*
X12543Y-10480D03*
G54D28*
X25226Y-14200D03*
X23573Y-14200D03*
G54D29*
X42600Y-31550D03*
X42600Y-31050D03*
X42600Y-30550D03*
X48100Y-29500D03*
X48100Y-30000D03*
X48100Y-30500D03*
X47950Y-31850D03*
X47950Y-32350D03*
X47950Y-32850D03*
X41000Y-32450D03*
X41000Y-32950D03*
X41000Y-33450D03*
G54D30*
X44500Y-11600D03*
X45000Y-11600D03*
X45500Y-11600D03*
X40300Y-11700D03*
X40800Y-11700D03*
X41300Y-11700D03*
X36000Y-11500D03*
X36500Y-11500D03*
X37000Y-11500D03*
X31800Y-11600D03*
X32300Y-11600D03*
X32800Y-11600D03*
X39600Y-32050D03*
X39100Y-32050D03*
G54D29*
X46400Y-34100D03*
X46400Y-33600D03*
X47950Y-34050D03*
X47950Y-33550D03*
X48250Y-25700D03*
X48250Y-26200D03*
X28600Y-20450D03*
X28600Y-19950D03*
X25200Y-22250D03*
X25200Y-21750D03*
X37350Y-22950D03*
X37350Y-23450D03*
G54D30*
X52000Y-24450D03*
X51500Y-24450D03*
G54D31*
X19200Y-29850D03*
X20144Y-29850D03*
X19200Y-30598D03*
X20144Y-30598D03*
G54D32*
X11300Y-11852D03*
X11300Y-13348D03*
G54D33*
X12175Y-8200D03*
X14025Y-8200D03*
G54D34*
X32110Y-34800D03*
X33690Y-34800D03*
X31310Y-33100D03*
X32890Y-33100D03*
X14910Y-32300D03*
X16490Y-32300D03*
X42690Y-35200D03*
X41110Y-35200D03*
X19010Y-34300D03*
X20590Y-34300D03*
X45440Y-34350D03*
X43860Y-34350D03*
X48390Y-35200D03*
X46810Y-35200D03*
X22510Y-34900D03*
X24090Y-34900D03*
G54D35*
X15689Y-13200D03*
X13011Y-13200D03*
G54D36*
X8000Y-13680D03*
X7330Y-13680D03*
X6660Y-13680D03*
X8670Y-13680D03*
X9340Y-13680D03*
G54D37*
X8000Y-9475D03*
G54D38*
X8000Y-8475D03*
G54D39*
X28300Y-16704D03*
X28300Y-17296D03*
X38400Y-31104D03*
X38400Y-31696D03*
G54D40*
X45846Y-35450D03*
X45254Y-35450D03*
X44196Y-24600D03*
X43604Y-24600D03*
G54D39*
X18400Y-30596D03*
X18400Y-30004D03*
X21000Y-30496D03*
X21000Y-29904D03*
G54D40*
X33396Y-26750D03*
X32804Y-26750D03*
X25004Y-26500D03*
X25596Y-26500D03*
G54D39*
X20900Y-23996D03*
X20900Y-23404D03*
G54D40*
X43854Y-35450D03*
X44446Y-35450D03*
G54D39*
X45100Y-21446D03*
X45100Y-20854D03*
X38100Y-23404D03*
X38100Y-23996D03*
X32800Y-17904D03*
X32800Y-18496D03*
X33400Y-20604D03*
X33400Y-21196D03*
X36600Y-23296D03*
X36600Y-22704D03*
X29600Y-18704D03*
X29600Y-19296D03*
G54D40*
X25596Y-25800D03*
X25004Y-25800D03*
G54D39*
X29500Y-26996D03*
X29500Y-26404D03*
X25700Y-24004D03*
X25700Y-24596D03*
X28300Y-25204D03*
X28300Y-25796D03*
G54D40*
X30404Y-19500D03*
X30996Y-19500D03*
X34004Y-29500D03*
X34596Y-29500D03*
G54D39*
X38100Y-22796D03*
X38100Y-22204D03*
G54D40*
X39096Y-26700D03*
X38504Y-26700D03*
G54D39*
X37400Y-28396D03*
X37400Y-27804D03*
G54D40*
X41896Y-34150D03*
X41304Y-34150D03*
G54D39*
X37200Y-20404D03*
X37200Y-20996D03*
X32100Y-20304D03*
X32100Y-20896D03*
X28300Y-22796D03*
X28300Y-22204D03*
G54D40*
X46404Y-26400D03*
X46996Y-26400D03*
G54D39*
X51900Y-20954D03*
X51900Y-21546D03*
X50300Y-19796D03*
X50300Y-19204D03*
X53350Y-19046D03*
X53350Y-18454D03*
X50300Y-17346D03*
X50300Y-16754D03*
X43150Y-19654D03*
X43150Y-20246D03*
X45400Y-23096D03*
X45400Y-22504D03*
G54D40*
X20404Y-32400D03*
X20996Y-32400D03*
X16204Y-28900D03*
X16796Y-28900D03*
G54D39*
X48200Y-27696D03*
X48200Y-27104D03*
G54D40*
X50004Y-26850D03*
X50596Y-26850D03*
G54D39*
X8000Y-20296D03*
X8000Y-19704D03*
X27800Y-20204D03*
X27800Y-20796D03*
X53350Y-17796D03*
X53350Y-17204D03*
X20400Y-27904D03*
X20400Y-28496D03*
G54D40*
X40396Y-34300D03*
X39804Y-34300D03*
X30004Y-29500D03*
X30596Y-29500D03*
G54D39*
X46400Y-20196D03*
X46400Y-19604D03*
X45350Y-19996D03*
X45350Y-19404D03*
X45900Y-28904D03*
X45900Y-29496D03*
X50300Y-17954D03*
X50300Y-18546D03*
X49650Y-21446D03*
X49650Y-20854D03*
X46100Y-30304D03*
X46100Y-30896D03*
X39000Y-34504D03*
X39000Y-35096D03*
X47950Y-19946D03*
X47950Y-19354D03*
G54D10*
G36*
X54486Y-10140D02*
X53959Y-11586D01*
X52513Y-11059D01*
X53040Y-9613D01*
X54486Y-10140D01*
X54486Y-10140D01*
G37*
G54D41*
X29050Y-21800D03*
X31250Y-21800D03*
X31250Y-23050D03*
X29050Y-23050D03*
G54D42*
X31227Y-26100D03*
X31227Y-25600D03*
X31227Y-25100D03*
X31227Y-24600D03*
X33273Y-24600D03*
X33273Y-25100D03*
X33273Y-25600D03*
X33273Y-26100D03*
X35327Y-26150D03*
X35327Y-25650D03*
X35327Y-25150D03*
X35327Y-24650D03*
X37373Y-24650D03*
X37373Y-25150D03*
X37373Y-25650D03*
X37373Y-26150D03*
X24127Y-28600D03*
X24127Y-28100D03*
X24127Y-27600D03*
X24127Y-27100D03*
X26173Y-27100D03*
X26173Y-27600D03*
X26173Y-28100D03*
X26173Y-28600D03*
G54D43*
X49300Y-22677D03*
X49800Y-22677D03*
X50300Y-22677D03*
X50800Y-22677D03*
X50800Y-24723D03*
X50300Y-24723D03*
X49800Y-24723D03*
X49300Y-24723D03*
G54D42*
X25083Y-33900D03*
X25083Y-33400D03*
X25083Y-32900D03*
X25083Y-32400D03*
X25083Y-31900D03*
X25083Y-31400D03*
X25083Y-30900D03*
X25083Y-30400D03*
X27917Y-30400D03*
X27917Y-30900D03*
X27917Y-31400D03*
X27917Y-31900D03*
X27917Y-32400D03*
X27917Y-32900D03*
X27917Y-33400D03*
X27917Y-33900D03*
X41233Y-29600D03*
X41233Y-29100D03*
X41233Y-28600D03*
X41233Y-28100D03*
X41233Y-27600D03*
X41233Y-27100D03*
X41233Y-26600D03*
X41233Y-26100D03*
X44067Y-26100D03*
X44067Y-26600D03*
X44067Y-27100D03*
X44067Y-27600D03*
X44067Y-28100D03*
X44067Y-28600D03*
X44067Y-29100D03*
X44067Y-29600D03*
G54D28*
X18373Y-14200D03*
X20026Y-14200D03*
G54D29*
X29600Y-17300D03*
X29600Y-16800D03*
X29600Y-16300D03*
G54D44*
X31250Y-20600D03*
X30150Y-20600D03*
G54D45*
X12800Y-24350D03*
X12800Y-23250D03*
G54D44*
X47950Y-18400D03*
X49050Y-18400D03*
G54D45*
X44100Y-20350D03*
X44100Y-21450D03*
X6900Y-19450D03*
X6900Y-20550D03*
G54D46*
X18575Y-27864D03*
X18378Y-27864D03*
X18181Y-27864D03*
X17984Y-27864D03*
X17787Y-27864D03*
X17591Y-27864D03*
X17394Y-27864D03*
X17197Y-27864D03*
X17001Y-27864D03*
X16804Y-27864D03*
X16607Y-27864D03*
X16411Y-27864D03*
X16214Y-27864D03*
X16017Y-27864D03*
X15820Y-27864D03*
X15623Y-27864D03*
G54D47*
X14836Y-27077D03*
X14836Y-26880D03*
X14836Y-26683D03*
X14836Y-26486D03*
X14836Y-26289D03*
X14836Y-26093D03*
X14836Y-25896D03*
X14836Y-25699D03*
X14836Y-25503D03*
X14836Y-25306D03*
X14836Y-25109D03*
X14836Y-24913D03*
X14836Y-24716D03*
X14836Y-24519D03*
X14836Y-24322D03*
X14836Y-24125D03*
G54D46*
X15623Y-23338D03*
X15820Y-23338D03*
X16017Y-23338D03*
X16214Y-23338D03*
X16411Y-23338D03*
X16607Y-23338D03*
X16804Y-23338D03*
X17001Y-23338D03*
X17197Y-23338D03*
X17394Y-23338D03*
X17591Y-23338D03*
X17787Y-23338D03*
X17984Y-23338D03*
X18181Y-23338D03*
X18378Y-23338D03*
X18575Y-23338D03*
G54D47*
X19362Y-24125D03*
X19362Y-24322D03*
X19362Y-24519D03*
X19362Y-24716D03*
X19362Y-24913D03*
X19362Y-25109D03*
X19362Y-25306D03*
X19362Y-25503D03*
X19362Y-25699D03*
X19362Y-25896D03*
X19362Y-26093D03*
X19362Y-26289D03*
X19362Y-26486D03*
X19362Y-26683D03*
X19362Y-26880D03*
X19362Y-27077D03*
M02*
