M48
;DRILL file {Pcbnew (2013-07-07 BZR 4022)-stable} date 21/04/2014 15:31:57
;FORMAT={-:-/ absolute / inch / decimal}
FMAT,2
INCH,TZ
T1C0.010
T2C0.035
T3C0.039
T4C0.040
T5C0.060
T6C0.063
T7C0.079
T8C0.098
T9C0.120
T10C0.128
T11C0.157
%
G90
G05
M72
T1
X0.56Y-2.02
X0.63Y-1.6
X0.64Y-2.43
X0.68Y-1.17
X0.68Y-1.21
X0.68Y-1.6
X0.68Y-2.43
X0.73Y-1.6
X0.74Y-2.13
X0.74Y-2.56
X0.74Y-2.87
X0.74Y-3.01
X0.74Y-3.21
X0.74Y-3.33
X0.75Y-2.04
X0.75Y-2.31
X0.75Y-2.38
X0.75Y-2.75
X0.76Y-1.17
X0.76Y-1.21
X0.78Y-0.73
X0.78Y-0.77
X0.78Y-2.66
X0.78Y-2.7
X0.95Y-0.73
X0.95Y-2.75
X0.95Y-2.8
X0.95Y-2.85
X0.96Y-1.5
X0.96Y-1.54
X0.97Y-1.79
X0.98Y-1.68
X0.98Y-1.73
X1.Y-0.73
X1.03Y-1.68
X1.03Y-1.73
X1.04Y-1.46
X1.05Y-1.32
X1.05Y-1.35
X1.05Y-2.29
X1.07Y-1.09
X1.08Y-1.46
X1.12Y-2.99
X1.13Y-2.3
X1.13Y-2.34
X1.13Y-2.61
X1.15Y-1.76
X1.16Y-1.46
X1.23Y-0.91
X1.24Y-1.51
X1.26Y-2.25
X1.28Y-2.49
X1.29Y-1.51
X1.3Y-2.25
X1.34Y-1.73
X1.38Y-2.38
X1.4Y-2.42
X1.41Y-2.76
X1.41Y-2.81
X1.42Y-2.54
X1.43Y-2.91
X1.43Y-3.19
X1.45Y-2.28
X1.46Y-1.17
X1.46Y-1.84
X1.48Y-3.48
X1.5Y-0.84
X1.5Y-1.17
X1.56Y-2.5
X1.57Y-2.63
X1.57Y-2.84
X1.58Y-2.42
X1.59Y-2.56
X1.6Y-2.5
X1.6Y-2.73
X1.61Y-2.27
X1.62Y-2.44
X1.62Y-3.02
X1.62Y-3.07
X1.64Y-1.14
X1.64Y-2.63
X1.64Y-2.84
X1.65Y-2.57
X1.66Y-0.91
X1.66Y-2.44
X1.67Y-3.48
X1.68Y-2.63
X1.68Y-2.84
X1.69Y-2.57
X1.71Y-0.91
X1.73Y-2.25
X1.73Y-2.55
X1.73Y-2.67
X1.73Y-2.73
X1.75Y-2.52
X1.76Y-2.4
X1.77Y-1.51
X1.78Y-2.54
X1.79Y-2.85
X1.79Y-3.52
X1.82Y-1.03
X1.82Y-1.18
X1.82Y-2.54
X1.84Y-1.14
X1.84Y-3.1
X1.85Y-2.56
X1.85Y-2.95
X1.85Y-3.41
X1.88Y-2.67
X1.88Y-2.73
X1.89Y-2.77
X1.92Y-2.35
X1.92Y-2.38
X1.92Y-2.93
X1.93Y-2.74
X1.93Y-2.77
X1.98Y-1.17
X1.98Y-3.23
X1.98Y-3.46
X2.Y-0.82
X2.01Y-2.36
X2.02Y-2.13
X2.025Y-2.425
X2.03Y-2.71
X2.04Y-1.18
X2.04Y-2.59
X2.08Y-1.16
X2.08Y-2.29
X2.1Y-1.07
X2.1Y-2.85
X2.11Y-2.27
X2.11Y-3.09
X2.14Y-2.29
X2.15Y-2.1
X2.15Y-3.24
X2.16Y-2.71
X2.18Y-2.29
X2.19Y-3.49
X2.2Y-0.81
X2.22Y-2.29
X2.24Y-2.86
X2.26Y-1.14
X2.26Y-2.13
X2.26Y-3.31
X2.27Y-1.18
X2.29Y-3.04
X2.3Y-2.13
X2.3Y-2.55
X2.3Y-3.15
X2.32Y-2.52
X2.33Y-3.04
X2.34Y-2.13
X2.35Y-1.11
X2.37Y-3.19
X2.38Y-2.13
X2.39Y-0.81
X2.39Y-1.17
X2.39Y-1.52
X2.39Y-1.7
X2.39Y-1.74
X2.39Y-1.78
X2.39Y-1.82
X2.39Y-1.86
X2.4Y-2.45
X2.41Y-1.02
X2.41Y-2.29
X2.42Y-1.58
X2.42Y-3.19
X2.43Y-3.28
X2.43Y-3.34
X2.44Y-2.31
X2.46Y-2.67
X2.48Y-1.56
X2.5Y-1.17
X2.51Y-2.86
X2.52Y-1.68
X2.53Y-1.76
X2.53Y-1.8
X2.54Y-2.1
X2.54Y-2.28
X2.54Y-2.84
X2.54Y-2.88
X2.55Y-2.
X2.55Y-2.33
X2.57Y-1.11
X2.58Y-3.04
X2.59Y-1.17
X2.59Y-3.145
X2.6Y-3.285
X2.61Y-2.42
X2.61Y-2.49
X2.62Y-2.63
X2.62Y-3.04
X2.63Y-0.91
X2.65Y-1.55
X2.66Y-2.48
X2.66Y-3.275
X2.665Y-3.04
X2.69Y-1.55
X2.69Y-2.21
X2.71Y-1.77
X2.71Y-3.04
X2.71Y-3.14
X2.715Y-3.385
X2.72Y-3.32
X2.73Y-1.63
X2.73Y-2.02
X2.74Y-1.11
X2.74Y-1.17
X2.74Y-2.5
X2.74Y-2.835
X2.75Y-3.43
X2.76Y-1.83
X2.76Y-1.98
X2.77Y-2.13
X2.77Y-2.17
X2.77Y-2.21
X2.77Y-2.25
X2.77Y-2.86
X2.78Y-1.55
X2.78Y-1.73
X2.78Y-1.8
X2.78Y-2.29
X2.78Y-2.33
X2.785Y-2.785
X2.79Y-0.82
X2.8Y-1.84
X2.8Y-1.97
X2.8Y-2.63
X2.8Y-2.84
X2.82Y-1.55
X2.82Y-1.8
X2.82Y-2.33
X2.83Y-2.11
X2.83Y-2.48
X2.84Y-2.63
X2.855Y-2.9
X2.86Y-1.51
X2.86Y-3.035
X2.865Y-1.555
X2.87Y-1.65
X2.87Y-1.73
X2.87Y-3.14
X2.87Y-3.23
X2.87Y-3.29
X2.87Y-3.33
X2.89Y-1.69
X2.9Y-1.03
X2.9Y-2.11
X2.94Y-1.16
X2.94Y-1.8
X2.95Y-2.07
X2.95Y-2.48
X2.96Y-3.01
X2.97Y-2.26
X2.97Y-2.45
X2.98Y-1.81
X2.98Y-2.37
X2.98Y-3.21
X2.99Y-2.65
X2.995Y-3.15
X3.Y-1.92
X3.Y-2.15
X3.Y-2.705
X3.01Y-2.87
X3.02Y-2.37
X3.02Y-2.57
X3.03Y-3.01
X3.04Y-1.33
X3.04Y-2.21
X3.06Y-1.73
X3.06Y-2.15
X3.07Y-3.01
X3.08Y-2.23
X3.08Y-2.66
X3.085Y-2.87
X3.1Y-2.72
X3.11Y-2.68
X3.115Y-1.59
X3.13Y-3.22
X3.135Y-2.995
X3.14Y-1.97
X3.14Y-2.87
X3.17Y-1.93
X3.17Y-2.22
X3.18Y-1.89
X3.18Y-2.32
X3.18Y-2.725
X3.18Y-3.55
X3.19Y-2.52
X3.19Y-2.56
X3.2Y-1.03
X3.2Y-2.43
X3.21Y-2.22
X3.22Y-1.98
X3.22Y-2.725
X3.23Y-1.83
X3.23Y-2.57
X3.24Y-1.38
X3.24Y-1.74
X3.25Y-1.55
X3.25Y-2.51
X3.26Y-2.41
X3.26Y-2.62
X3.26Y-2.725
X3.27Y-2.99
X3.28Y-1.9
X3.29Y-2.15
X3.3Y-2.725
X3.31Y-0.83
X3.31Y-1.97
X3.31Y-2.35
X3.31Y-2.415
X3.32Y-1.29
X3.32Y-2.2
X3.33Y-1.79
X3.35Y-3.
X3.355Y-2.415
X3.36Y-1.72
X3.38Y-2.67
X3.38Y-2.73
X3.39Y-2.03
X3.39Y-3.
X3.4Y-1.97
X3.42Y-1.77
X3.42Y-2.28
X3.43Y-2.73
X3.43Y-3.
X3.455Y-1.995
X3.46Y-1.755
X3.46Y-2.18
X3.46Y-2.225
X3.46Y-2.46
X3.46Y-3.23
X3.47Y-3.
X3.49Y-1.29
X3.495Y-1.955
X3.5Y-1.34
X3.5Y-2.29
X3.5Y-3.43
X3.51Y-3.
X3.52Y-2.26
X3.53Y-3.15
X3.54Y-2.19
X3.55Y-2.99
X3.56Y-1.49
X3.56Y-1.995
X3.56Y-2.16
X3.57Y-3.15
X3.58Y-2.825
X3.59Y-2.99
X3.595Y-1.89
X3.6Y-2.15
X3.6Y-2.19
X3.6Y-2.51
X3.605Y-1.95
X3.61Y-1.44
X3.62Y-1.33
X3.62Y-2.74
X3.63Y-1.69
X3.63Y-2.2
X3.63Y-2.43
X3.635Y-1.845
X3.64Y-2.39
X3.64Y-2.47
X3.64Y-3.34
X3.645Y-3.135
X3.65Y-2.23
X3.65Y-2.58
X3.66Y-2.51
X3.665Y-1.67
X3.67Y-2.16
X3.67Y-2.2
X3.67Y-2.55
X3.67Y-2.67
X3.67Y-2.78
X3.67Y-2.82
X3.67Y-3.21
X3.675Y-1.845
X3.69Y-2.38
X3.69Y-3.11
X3.7Y-1.78
X3.71Y-1.31
X3.71Y-1.95
X3.72Y-1.845
X3.72Y-2.89
X3.74Y-1.48
X3.75Y-1.96
X3.75Y-2.
X3.76Y-2.07
X3.76Y-2.13
X3.77Y-3.24
X3.8Y-2.79
X3.8Y-2.83
X3.8Y-3.01
X3.8Y-3.22
X3.81Y-2.48
X3.81Y-2.52
X3.81Y-2.69
X3.82Y-2.6
X3.825Y-2.035
X3.825Y-2.5625
X3.84Y-2.095
X3.84Y-2.18
X3.84Y-2.97
X3.84Y-3.33
X3.85Y-1.93
X3.85Y-2.48
X3.86Y-2.6
X3.86Y-2.95
X3.86Y-3.21
X3.865Y-1.685
X3.88Y-1.3
X3.88Y-2.54
X3.88Y-3.14
X3.885Y-2.48
X3.89Y-3.1
X3.89Y-3.33
X3.9Y-2.76
X3.9Y-2.8
X3.9Y-2.905
X3.92Y-2.48
X3.94Y-3.41
X3.945Y-3.46
X3.97Y-1.27
X3.99Y-1.31
X3.99Y-1.68
X4.02Y-2.56
X4.02Y-2.76
X4.03Y-2.91
X4.03Y-3.25
X4.04Y-2.62
X4.05Y-1.86
X4.05Y-1.92
X4.05Y-2.81
X4.05Y-2.94
X4.05Y-3.035
X4.05Y-3.085
X4.05Y-3.22
X4.06Y-1.76
X4.06Y-2.56
X4.08Y-1.45
X4.09Y-3.08
X4.09Y-3.39
X4.095Y-3.035
X4.1Y-2.245
X4.1Y-2.46
X4.11Y-1.31
X4.13Y-1.66
X4.13Y-3.12
X4.15Y-2.285
X4.16Y-2.01
X4.16Y-2.57
X4.16Y-3.29
X4.17Y-1.43
X4.17Y-3.5
X4.18Y-2.48
X4.195Y-2.75
X4.2Y-2.86
X4.21Y-2.9
X4.22Y-3.53
X4.23Y-1.26
X4.23Y-3.21
X4.235Y-2.8675
X4.25Y-2.15
X4.25Y-2.19
X4.25Y-2.25
X4.25Y-2.985
X4.25Y-3.3
X4.27Y-2.77
X4.27Y-2.81
X4.27Y-3.2
X4.28Y-2.07
X4.29Y-1.26
X4.29Y-2.985
X4.3Y-2.5
X4.3Y-2.54
X4.3Y-2.58
X4.33Y-2.985
X4.34Y-3.02
X4.34Y-3.13
X4.34Y-3.52
X4.35Y-1.93
X4.38Y-2.51
X4.4Y-1.93
X4.4Y-2.215
X4.41Y-1.25
X4.42Y-2.31
X4.42Y-2.51
X4.43Y-0.83
X4.445Y-2.39
X4.45Y-1.82
X4.45Y-3.41
X4.46Y-3.37
X4.46Y-3.5
X4.47Y-2.87
X4.47Y-2.94
X4.47Y-3.21
X4.48Y-1.85
X4.48Y-3.33
X4.485Y-3.25
X4.49Y-2.61
X4.49Y-3.03
X4.49Y-3.06
X4.49Y-3.1
X4.49Y-3.29
X4.5Y-2.67
X4.5Y-2.71
X4.5Y-2.75
X4.5Y-3.16
X4.51Y-2.19
X4.51Y-3.21
X4.52Y-3.5
X4.53Y-2.99
X4.54Y-2.8
X4.545Y-2.145
X4.55Y-1.06
X4.55Y-1.48
X4.55Y-1.57
X4.55Y-1.79
X4.55Y-2.07
X4.55Y-2.56
X4.58Y-1.39
X4.58Y-2.7
X4.58Y-2.99
X4.59Y-2.8
X4.595Y-2.325
X4.595Y-3.37
X4.6Y-2.02
X4.6Y-2.26
X4.61Y-3.25
X4.61Y-3.31
X4.62Y-1.8
X4.62Y-2.71
X4.63Y-0.87
X4.63Y-2.91
X4.64Y-2.57
X4.64Y-2.87
X4.655Y-2.125
X4.655Y-2.185
X4.66Y-3.
X4.67Y-3.05
X4.67Y-3.15
X4.68Y-2.155
X4.68Y-2.59
X4.68Y-2.71
X4.6991Y-0.9491
X4.7Y-1.03
X4.71Y-2.125
X4.71Y-2.185
X4.71Y-3.15
X4.72Y-0.78
X4.72Y-0.83
X4.72Y-2.78
X4.74Y-1.73
X4.74Y-1.77
X4.74Y-3.05
X4.75Y-3.31
X4.76Y-0.75
X4.76Y-1.7
X4.76Y-2.56
X4.76Y-2.82
X4.76Y-3.475
X4.77Y-2.72
X4.79Y-1.53
X4.79Y-1.68
X4.8Y-2.81
X4.83Y-1.68
X4.83Y-2.4
X4.84Y-1.91
X4.84Y-2.
X4.84Y-2.35
X4.84Y-3.32
X4.85Y-1.96
X4.87Y-1.53
X4.87Y-1.68
X4.87Y-2.71
X4.88Y-2.405
X4.91Y-2.67
X4.91Y-3.52
X4.94Y-2.96
X4.94Y-3.14
X4.95Y-1.53
X4.97Y-1.07
X4.97Y-2.36
X4.99Y-2.54
X5.01Y-2.36
X5.02Y-3.195
X5.03Y-1.08
X5.03Y-1.52
X5.03Y-2.03
X5.03Y-2.86
X5.05Y-2.54
X5.05Y-2.77
X5.06Y-2.39
X5.07Y-2.15
X5.08Y-1.89
X5.11Y-2.63
X5.11Y-2.67
X5.15Y-2.57
X5.15Y-3.06
X5.2Y-1.43
X5.21Y-1.12
X5.21Y-3.18
X5.25Y-2.16
X5.25Y-2.25
X5.28Y-0.87
X5.29Y-1.85
X5.3Y-1.33
X5.34Y-1.66
X5.5Y-0.79
X5.5Y-1.83
X5.53Y-1.76
X5.6Y-0.86
X5.68Y-1.87
T2
X5.14Y-1.655
X5.14Y-1.755
X5.14Y-1.855
X5.14Y-1.955
X5.24Y-1.705
X5.24Y-1.805
X5.24Y-1.905
X5.24Y-2.005
T3
X3.0783Y-1.1617
X3.0783Y-1.4617
X3.0783Y-1.6617
X3.0783Y-1.8617
X3.3783Y-1.1617
X3.3783Y-1.4617
X3.3783Y-1.6617
X3.3783Y-1.8617
X3.5025Y-1.1617
X3.5025Y-1.4617
X3.5025Y-1.6617
X3.5025Y-1.8617
X3.8025Y-1.1617
X3.8025Y-1.4617
X3.8025Y-1.6617
X3.8025Y-1.8617
X3.93Y-1.16
X3.93Y-1.46
X3.93Y-1.66
X3.93Y-1.86
X4.23Y-1.16
X4.23Y-1.46
X4.23Y-1.66
X4.23Y-1.86
X4.35Y-1.16
X4.35Y-1.46
X4.35Y-1.66
X4.35Y-1.86
X4.65Y-1.16
X4.65Y-1.46
X4.65Y-1.66
X4.65Y-1.86
T4
X1.12Y-1.95
X1.12Y-2.05
X1.22Y-1.95
X1.22Y-2.05
X1.32Y-1.95
X1.32Y-2.05
X1.42Y-1.55
X1.42Y-1.65
X1.42Y-1.95
X1.42Y-2.05
X1.52Y-1.55
X1.52Y-1.65
X1.52Y-1.75
X1.52Y-1.85
X1.52Y-1.95
X1.52Y-2.05
X1.62Y-1.55
X1.62Y-1.65
X1.62Y-1.75
X1.62Y-1.85
X1.62Y-1.95
X1.62Y-2.05
X1.72Y-1.55
X1.72Y-1.65
X1.72Y-1.75
X1.72Y-1.85
X1.72Y-1.95
X1.72Y-2.05
X1.82Y-1.55
X1.82Y-1.65
X1.82Y-1.75
X1.82Y-1.85
X1.82Y-1.95
X1.82Y-2.05
X1.92Y-1.55
X1.92Y-1.65
X1.92Y-1.95
X1.92Y-2.05
X2.02Y-1.55
X2.02Y-1.65
X2.02Y-1.95
X2.02Y-2.05
X2.12Y-1.55
X2.12Y-1.65
X2.12Y-1.95
X2.12Y-2.05
X2.22Y-1.55
X2.22Y-1.65
X2.22Y-1.95
X2.22Y-2.05
X2.32Y-1.55
X2.32Y-1.65
X2.32Y-1.95
X2.32Y-2.05
X2.42Y-1.95
X2.42Y-2.05
X2.52Y-1.95
X2.52Y-2.05
X3.615Y-0.92
X3.615Y-1.02
X3.715Y-0.92
X3.715Y-1.02
X3.815Y-0.92
X3.815Y-1.02
X3.915Y-0.92
X3.915Y-1.02
X4.015Y-0.92
X4.015Y-1.02
X4.02Y-1.97
X4.02Y-2.07
X4.115Y-0.92
X4.115Y-1.02
X4.12Y-1.97
X4.12Y-2.07
X4.22Y-1.97
X4.22Y-2.07
X5.52Y-2.625
X5.52Y-2.735
X5.52Y-2.84
X5.52Y-2.95
X5.52Y-3.06
X5.62Y-2.68
X5.62Y-2.79
X5.62Y-2.895
X5.62Y-3.005
X5.623Y-1.581
X5.623Y-1.979
X5.683Y-1.681
X5.683Y-2.079
T5
X1.275Y-0.65
X1.275Y-3.65
X1.475Y-0.65
X1.475Y-3.65
X1.675Y-0.65
X1.675Y-3.65
X1.875Y-0.65
X1.875Y-3.65
X2.075Y-0.65
X2.075Y-3.65
X2.275Y-0.65
X2.275Y-3.65
X2.475Y-0.65
X2.475Y-3.65
X2.675Y-0.65
X2.675Y-3.65
X2.875Y-0.65
X2.875Y-3.65
X3.075Y-0.65
X3.075Y-3.65
X3.275Y-0.65
X3.275Y-3.65
X3.475Y-0.65
X3.475Y-3.65
X3.675Y-0.65
X3.675Y-3.65
X3.875Y-0.65
X3.875Y-3.65
X4.075Y-0.65
X4.075Y-3.65
X4.275Y-0.65
X4.275Y-3.65
X4.475Y-0.65
X4.475Y-3.65
X4.675Y-0.65
X4.675Y-3.65
X4.875Y-0.65
X4.875Y-3.65
X5.075Y-0.65
X5.075Y-3.65
T6
X5.37Y-1.52
X5.37Y-2.14
T7
X4.9504Y-0.9146
X5.7496Y-1.2054
T8
X2.07Y-1.8
T9
X1.04Y-3.3
X5.35Y-2.44
X5.62Y-2.345
X5.62Y-3.345
T10
X5.49Y-1.605
X5.49Y-2.055
T11
X0.6693Y-0.689
X0.6693Y-3.6122
X5.6791Y-0.689
X5.6791Y-3.6122
T0
M30
