G04 (created by PCBNEW (2013-07-07 BZR 4022)-stable) date 21/04/2014 15:31:59*
%MOIN*%
G04 Gerber Fmt 3.4, Leading zero omitted, Abs format*
%FSLAX34Y34*%
G01*
G70*
G90*
G04 APERTURE LIST*
%ADD10C,0.00590551*%
%ADD11R,0.1004X0.1004*%
%ADD12O,0.0118X0.0335*%
%ADD13O,0.0335X0.0118*%
%ADD14R,0.017X0.052*%
%ADD15R,0.0185X0.0599*%
%ADD16R,0.065X0.019*%
%ADD17R,0.047X0.092*%
%ADD18R,0.4272X0.2775*%
%ADD19R,0.0197165X0.0197165*%
%ADD20R,0.0257X0.0375*%
%ADD21R,0.146X0.082*%
%ADD22R,0.042X0.082*%
%ADD23R,0.0492X0.0414*%
%ADD24R,0.0335X0.0414*%
%ADD25R,0.0551X0.0276*%
%ADD26R,0.0276X0.0551*%
%ADD27R,0.052X0.092*%
%ADD28R,0.052X0.102*%
%ADD29R,0.047X0.027*%
%ADD30R,0.027X0.047*%
%ADD31C,0.162*%
%ADD32R,0.0611X0.0611*%
%ADD33C,0.0611*%
%ADD34C,0.092*%
%ADD35C,0.067*%
%ADD36R,0.0846772X0.0571181*%
%ADD37R,0.065X0.065*%
%ADD38C,0.065*%
%ADD39R,0.062X0.062*%
%ADD40C,0.062*%
%ADD41R,0.0571X0.0728*%
%ADD42R,0.0611X0.012*%
%ADD43R,0.012X0.0611*%
%ADD44R,0.0334X0.0334*%
%ADD45R,0.052X0.04*%
%ADD46R,0.04X0.052*%
%ADD47C,0.0728*%
%ADD48R,0.0492441X0.0571181*%
%ADD49R,0.0729X0.0886*%
%ADD50R,0.0886X0.0729*%
%ADD51R,0.0374X0.0414*%
%ADD52R,0.0414X0.0374*%
%ADD53R,0.102X0.102*%
%ADD54C,0.102*%
%ADD55C,0.104362*%
%ADD56R,0.0689291X0.0610551*%
%ADD57R,0.0886X0.0256*%
%ADD58R,0.1437X0.065*%
%ADD59R,0.0414X0.0296*%
%ADD60R,0.0296X0.0414*%
%ADD61R,0.0335X0.04*%
%ADD62R,0.0256X0.0886*%
%ADD63R,0.061X0.0413*%
%ADD64R,0.0807X0.0413*%
%ADD65R,0.1476X0.0886*%
%ADD66O,0.061X0.0413*%
%ADD67R,0.0413X0.0571*%
%ADD68R,0.100425X0.0413701*%
%ADD69C,0.19885*%
%ADD70R,0.0965X0.23824*%
%ADD71R,0.0964882X0.0315276*%
%ADD72R,0.0964882X0.0311339*%
%ADD73C,0.15748*%
%ADD74R,0.0551X0.0177*%
%ADD75R,0.0611X0.0847*%
%ADD76R,0.0768X0.0965*%
%ADD77R,0.0768X0.0729*%
%ADD78C,0.152*%
%ADD79R,0.0807X0.3012*%
%ADD80C,0.12011*%
%ADD81R,0.073X0.065*%
%ADD82R,0.065X0.073*%
G04 APERTURE END LIST*
G54D10*
G54D11*
X46800Y-21550D03*
G54D12*
X47292Y-20763D03*
X47095Y-20763D03*
X46898Y-20763D03*
X46702Y-20763D03*
X46505Y-20763D03*
X46308Y-20763D03*
G54D13*
X46013Y-21058D03*
X46013Y-21255D03*
X46013Y-21452D03*
X46013Y-21648D03*
X46013Y-21845D03*
X46013Y-22042D03*
G54D12*
X46308Y-22337D03*
X46505Y-22337D03*
X46702Y-22337D03*
X46898Y-22337D03*
X47095Y-22337D03*
X47292Y-22337D03*
G54D13*
X47587Y-22042D03*
X47587Y-21845D03*
X47587Y-21648D03*
X47587Y-21452D03*
X47587Y-21255D03*
X47587Y-21058D03*
G54D14*
X46754Y-28752D03*
X47010Y-28752D03*
X47266Y-28752D03*
X47522Y-28752D03*
X47778Y-28752D03*
X48034Y-28752D03*
X48290Y-28752D03*
X48546Y-28752D03*
X48546Y-26548D03*
X48290Y-26548D03*
X48034Y-26548D03*
X47778Y-26548D03*
X47522Y-26548D03*
X47266Y-26548D03*
X47010Y-26548D03*
X46754Y-26548D03*
G54D15*
X21772Y-25952D03*
X22028Y-25952D03*
X22284Y-25952D03*
X22540Y-25952D03*
X21008Y-23750D03*
X21004Y-25952D03*
X21260Y-25952D03*
X21516Y-25952D03*
X22796Y-23748D03*
X22540Y-23748D03*
X22284Y-23748D03*
X22028Y-23748D03*
X21772Y-23748D03*
X21516Y-23748D03*
X22796Y-25952D03*
X21260Y-23750D03*
X20748Y-25952D03*
X23052Y-25952D03*
X23052Y-23748D03*
X20748Y-23748D03*
G54D16*
X44055Y-33643D03*
X44055Y-33328D03*
X44055Y-33013D03*
X44055Y-32698D03*
X44055Y-32383D03*
X44055Y-32068D03*
X44055Y-31753D03*
X44055Y-31438D03*
X44055Y-31123D03*
X44055Y-30808D03*
X44055Y-30493D03*
X44055Y-30178D03*
X44055Y-29863D03*
X44055Y-29550D03*
X44055Y-29235D03*
X44055Y-28920D03*
X44055Y-28605D03*
X44055Y-28290D03*
X44055Y-27975D03*
X44055Y-27660D03*
X44055Y-27345D03*
X44055Y-27030D03*
X44055Y-26715D03*
X44055Y-26400D03*
X44055Y-26085D03*
X44055Y-25770D03*
X44055Y-25455D03*
X39647Y-25455D03*
X39647Y-25770D03*
X39647Y-26085D03*
X39647Y-26400D03*
X39647Y-26715D03*
X39647Y-27030D03*
X39647Y-27345D03*
X39647Y-27660D03*
X39647Y-27975D03*
X39647Y-28290D03*
X39647Y-28605D03*
X39647Y-28920D03*
X39647Y-29235D03*
X39647Y-29550D03*
X39647Y-29863D03*
X39647Y-30178D03*
X39647Y-30493D03*
X39647Y-30808D03*
X39647Y-31123D03*
X39647Y-31438D03*
X39647Y-31753D03*
X39647Y-32068D03*
X39647Y-32383D03*
X39647Y-32698D03*
X39647Y-33013D03*
X39647Y-33328D03*
X39647Y-33643D03*
G54D17*
X19650Y-9150D03*
G54D18*
X18650Y-13400D03*
G54D17*
X17650Y-9150D03*
X18650Y-9150D03*
X28900Y-9150D03*
G54D18*
X27900Y-13400D03*
G54D17*
X26900Y-9150D03*
X27900Y-9150D03*
X15000Y-9150D03*
G54D18*
X14000Y-13400D03*
G54D17*
X13000Y-9150D03*
X14000Y-9150D03*
X24300Y-9150D03*
G54D18*
X23300Y-13400D03*
G54D17*
X22300Y-9150D03*
X23300Y-9150D03*
G54D19*
X25350Y-22300D03*
X25979Y-22300D03*
X25979Y-21965D03*
X25350Y-21965D03*
G54D20*
X50273Y-25868D03*
X49525Y-25868D03*
X49900Y-26930D03*
G54D21*
X12950Y-25700D03*
G54D22*
X12950Y-23100D03*
X12050Y-23100D03*
X13850Y-23100D03*
G54D23*
X24985Y-26272D03*
G54D24*
X25674Y-25328D03*
X25674Y-26272D03*
X24926Y-25328D03*
G54D25*
X7428Y-20800D03*
X8372Y-20800D03*
X9628Y-25700D03*
X10572Y-25700D03*
X9628Y-26600D03*
X10572Y-26600D03*
G54D26*
X16850Y-29278D03*
X16850Y-30222D03*
X16850Y-31228D03*
X16850Y-32172D03*
X16850Y-33178D03*
X16850Y-34122D03*
G54D27*
X26748Y-32100D03*
X25450Y-32100D03*
X34448Y-34200D03*
X33150Y-34200D03*
X30548Y-32600D03*
X29250Y-32600D03*
G54D28*
X15400Y-31100D03*
X14200Y-31100D03*
X15400Y-32700D03*
X14200Y-32700D03*
G54D29*
X18900Y-31400D03*
X18900Y-32000D03*
G54D30*
X43000Y-23000D03*
X43600Y-23000D03*
G54D29*
X18900Y-32650D03*
X18900Y-33250D03*
G54D30*
X45400Y-19700D03*
X46000Y-19700D03*
G54D29*
X18900Y-30000D03*
X18900Y-30600D03*
X12200Y-16100D03*
X12200Y-15500D03*
G54D30*
X44950Y-23000D03*
X45550Y-23000D03*
G54D29*
X18000Y-33850D03*
X18000Y-34450D03*
X17900Y-28900D03*
X17900Y-29500D03*
X21200Y-34450D03*
X21200Y-33850D03*
G54D30*
X25700Y-34500D03*
X25100Y-34500D03*
X26400Y-34500D03*
X27000Y-34500D03*
G54D29*
X22000Y-28900D03*
X22000Y-29500D03*
X13000Y-16100D03*
X13000Y-15500D03*
G54D30*
X51050Y-24200D03*
X51650Y-24200D03*
G54D29*
X10600Y-15700D03*
X10600Y-15100D03*
X21200Y-29500D03*
X21200Y-28900D03*
G54D30*
X22900Y-28100D03*
X22300Y-28100D03*
G54D29*
X11400Y-15700D03*
X11400Y-15100D03*
X48200Y-25000D03*
X48200Y-24400D03*
G54D30*
X24800Y-16200D03*
X24200Y-16200D03*
X24800Y-18600D03*
X24200Y-18600D03*
X24800Y-17000D03*
X24200Y-17000D03*
X24800Y-17800D03*
X24200Y-17800D03*
G54D29*
X47100Y-33900D03*
X47100Y-34500D03*
G54D30*
X26400Y-29100D03*
X25800Y-29100D03*
G54D29*
X22900Y-27400D03*
X22900Y-26800D03*
X22100Y-27400D03*
X22100Y-26800D03*
X24300Y-24100D03*
X24300Y-23500D03*
X23600Y-24100D03*
X23600Y-23500D03*
X11000Y-23900D03*
X11000Y-24500D03*
G54D30*
X43000Y-22300D03*
X43600Y-22300D03*
G54D29*
X28100Y-24250D03*
X28100Y-23650D03*
G54D30*
X25600Y-26950D03*
X25000Y-26950D03*
X26400Y-28400D03*
X25800Y-28400D03*
X26500Y-21700D03*
X27100Y-21700D03*
G54D29*
X49400Y-34300D03*
X49400Y-33700D03*
G54D30*
X46500Y-33200D03*
X47100Y-33200D03*
X41700Y-34450D03*
X41100Y-34450D03*
G54D29*
X49000Y-20000D03*
X49000Y-19400D03*
G54D30*
X44950Y-24550D03*
X45550Y-24550D03*
G54D29*
X47800Y-23800D03*
X47800Y-23200D03*
G54D30*
X44950Y-23850D03*
X45550Y-23850D03*
X45300Y-34550D03*
X44700Y-34550D03*
G54D29*
X8100Y-27800D03*
X8100Y-28400D03*
X8800Y-26300D03*
X8800Y-25700D03*
X47900Y-34300D03*
X47900Y-33700D03*
G54D30*
X38200Y-34600D03*
X38800Y-34600D03*
G54D29*
X8100Y-23200D03*
X8100Y-23800D03*
G54D30*
X51000Y-28600D03*
X51600Y-28600D03*
X49100Y-28400D03*
X49700Y-28400D03*
G54D29*
X9200Y-21500D03*
X9200Y-20900D03*
G54D30*
X51000Y-27800D03*
X51600Y-27800D03*
X49100Y-27600D03*
X49700Y-27600D03*
G54D29*
X8100Y-30600D03*
X8100Y-30000D03*
G54D30*
X15500Y-27900D03*
X14900Y-27900D03*
G54D29*
X8200Y-33000D03*
X8200Y-32400D03*
G54D30*
X45000Y-33750D03*
X45600Y-33750D03*
G54D29*
X21200Y-28000D03*
X21200Y-27400D03*
G54D30*
X42300Y-34450D03*
X42900Y-34450D03*
G54D31*
X54900Y-16050D03*
X54900Y-20550D03*
G54D32*
X52400Y-20050D03*
G54D33*
X51400Y-19550D03*
X52400Y-19050D03*
X51400Y-18550D03*
X52400Y-18050D03*
X51400Y-17550D03*
X52400Y-17050D03*
X51400Y-16550D03*
G54D34*
X53700Y-21400D03*
X53700Y-15200D03*
G54D35*
X56830Y-20790D03*
X56230Y-19790D03*
X56830Y-16810D03*
X56230Y-15810D03*
G54D36*
X26000Y-17500D03*
X26000Y-16003D03*
X29582Y-16003D03*
X29582Y-17500D03*
G54D37*
X36150Y-10200D03*
G54D38*
X36150Y-9200D03*
X37150Y-10200D03*
X37150Y-9200D03*
X38150Y-10200D03*
X38150Y-9200D03*
X39150Y-10200D03*
X39150Y-9200D03*
X40150Y-10200D03*
X40150Y-9200D03*
X41150Y-10200D03*
X41150Y-9200D03*
G54D39*
X15200Y-18500D03*
G54D40*
X15200Y-17500D03*
X16200Y-18500D03*
X16200Y-17500D03*
X17200Y-18500D03*
X17200Y-17500D03*
X18200Y-18500D03*
X18200Y-17500D03*
G54D37*
X40200Y-20700D03*
G54D38*
X40200Y-19700D03*
X41200Y-20700D03*
X41200Y-19700D03*
X42200Y-20700D03*
X42200Y-19700D03*
G54D39*
X24200Y-20500D03*
G54D40*
X24200Y-19500D03*
X25200Y-20500D03*
X25200Y-19500D03*
G54D37*
X11200Y-20500D03*
G54D38*
X11200Y-19500D03*
X12200Y-20500D03*
X12200Y-19500D03*
X13200Y-20500D03*
X13200Y-19500D03*
X14200Y-20500D03*
X14200Y-19500D03*
X15200Y-20500D03*
X15200Y-19500D03*
X16200Y-20500D03*
X16200Y-19500D03*
X17200Y-20500D03*
X17200Y-19500D03*
X18200Y-20500D03*
X18200Y-19500D03*
X19200Y-20500D03*
X19200Y-19500D03*
X20200Y-20500D03*
X20200Y-19500D03*
X21200Y-20500D03*
X21200Y-19500D03*
X22200Y-20500D03*
X22200Y-19500D03*
X23200Y-20500D03*
X23200Y-19500D03*
G54D41*
X30931Y-34200D03*
X32269Y-34200D03*
X25281Y-33550D03*
X26619Y-33550D03*
X22331Y-32500D03*
X23669Y-32500D03*
G54D42*
X28984Y-21655D03*
X28984Y-21851D03*
X28984Y-22048D03*
X28984Y-22245D03*
X28984Y-22442D03*
X28984Y-22639D03*
X28984Y-22836D03*
X28984Y-23033D03*
X28984Y-23229D03*
X28984Y-23426D03*
X28984Y-23623D03*
X28984Y-23820D03*
X28984Y-24017D03*
X28984Y-24214D03*
X28984Y-24411D03*
X28984Y-24607D03*
X28984Y-24804D03*
X28984Y-25001D03*
X28984Y-25197D03*
X28984Y-25394D03*
X28984Y-25591D03*
X28984Y-25787D03*
X28984Y-25984D03*
X28984Y-26181D03*
X28984Y-26378D03*
X28984Y-26575D03*
X28984Y-26772D03*
X28984Y-26969D03*
X28984Y-27165D03*
X28984Y-27362D03*
X28984Y-27559D03*
X28984Y-27756D03*
X28984Y-27953D03*
X28984Y-28150D03*
X28984Y-28347D03*
X28984Y-28543D03*
G54D43*
X29772Y-29331D03*
X29968Y-29331D03*
X30165Y-29331D03*
X30362Y-29331D03*
X30559Y-29331D03*
X30756Y-29331D03*
X30953Y-29331D03*
X31150Y-29331D03*
X31346Y-29331D03*
X31543Y-29331D03*
X31740Y-29331D03*
X31937Y-29331D03*
X32134Y-29331D03*
X32331Y-29331D03*
X32528Y-29331D03*
X32724Y-29331D03*
X32921Y-29331D03*
X33118Y-29331D03*
X33314Y-29331D03*
X33511Y-29331D03*
X33708Y-29331D03*
X33904Y-29331D03*
X34101Y-29331D03*
X34298Y-29331D03*
X34495Y-29331D03*
X34692Y-29331D03*
X34889Y-29331D03*
X35086Y-29331D03*
X35282Y-29331D03*
X35479Y-29331D03*
X35676Y-29331D03*
X35873Y-29331D03*
X36070Y-29331D03*
X36267Y-29331D03*
X36464Y-29331D03*
X36660Y-29331D03*
G54D42*
X37448Y-28543D03*
X37448Y-28347D03*
X37448Y-28150D03*
X37448Y-27953D03*
X37448Y-27756D03*
X37448Y-27559D03*
X37448Y-27362D03*
X37448Y-27165D03*
X37448Y-26969D03*
X37448Y-26772D03*
X37448Y-26575D03*
X37448Y-26378D03*
X37448Y-26181D03*
X37448Y-25984D03*
X37448Y-25787D03*
X37448Y-25591D03*
X37448Y-25394D03*
X37448Y-25197D03*
X37448Y-25001D03*
X37448Y-24804D03*
X37448Y-24607D03*
X37448Y-24411D03*
X37448Y-24214D03*
X37448Y-24017D03*
X37448Y-23820D03*
X37448Y-23623D03*
X37448Y-23426D03*
X37448Y-23229D03*
X37448Y-23033D03*
X37448Y-22836D03*
X37448Y-22639D03*
X37448Y-22442D03*
X37448Y-22245D03*
X37448Y-22048D03*
X37448Y-21851D03*
X37448Y-21655D03*
G54D43*
X36660Y-20867D03*
X36464Y-20867D03*
X36267Y-20867D03*
X36070Y-20867D03*
X35873Y-20867D03*
X35676Y-20867D03*
X35479Y-20867D03*
X35282Y-20867D03*
X35086Y-20867D03*
X34889Y-20867D03*
X34692Y-20867D03*
X34495Y-20867D03*
X34298Y-20867D03*
X34101Y-20867D03*
X33904Y-20867D03*
X33708Y-20867D03*
X33511Y-20867D03*
X33314Y-20867D03*
X33118Y-20867D03*
X32921Y-20867D03*
X32724Y-20867D03*
X32528Y-20867D03*
X32331Y-20867D03*
X32134Y-20867D03*
X31937Y-20867D03*
X31740Y-20867D03*
X31543Y-20867D03*
X31346Y-20867D03*
X31150Y-20867D03*
X30953Y-20867D03*
X30756Y-20867D03*
X30559Y-20867D03*
X30362Y-20867D03*
X30165Y-20867D03*
X29968Y-20867D03*
X29772Y-20867D03*
G54D44*
X34905Y-31000D03*
X35495Y-31000D03*
X49100Y-15195D03*
X49100Y-14605D03*
X32205Y-31000D03*
X32795Y-31000D03*
X30805Y-31000D03*
X31395Y-31000D03*
X29355Y-31000D03*
X29945Y-31000D03*
X27855Y-31000D03*
X28445Y-31000D03*
X26555Y-31000D03*
X27145Y-31000D03*
X25205Y-31000D03*
X25795Y-31000D03*
X12800Y-17805D03*
X12800Y-18395D03*
X12100Y-17805D03*
X12100Y-18395D03*
X14200Y-17805D03*
X14200Y-18395D03*
X13500Y-17805D03*
X13500Y-18395D03*
X47500Y-15195D03*
X47500Y-14605D03*
X48300Y-15195D03*
X48300Y-14605D03*
X49900Y-15195D03*
X49900Y-14605D03*
X33605Y-31000D03*
X34195Y-31000D03*
X10200Y-24495D03*
X10200Y-23905D03*
G54D45*
X46500Y-23200D03*
X46500Y-23700D03*
X46500Y-24200D03*
G54D46*
X40450Y-34450D03*
X39950Y-34450D03*
G54D45*
X49000Y-24450D03*
X49000Y-24950D03*
X22900Y-28850D03*
X22900Y-29350D03*
G54D46*
X51600Y-25100D03*
X51100Y-25100D03*
G54D45*
X18000Y-33200D03*
X18000Y-32700D03*
X17800Y-31950D03*
X17800Y-31450D03*
X17800Y-30650D03*
X17800Y-30150D03*
X49800Y-24450D03*
X49800Y-24950D03*
G54D47*
X46500Y-18600D03*
X46500Y-16600D03*
X46500Y-14600D03*
X43500Y-18600D03*
X43500Y-16600D03*
X43500Y-14600D03*
X46500Y-11600D03*
X43500Y-11600D03*
X33783Y-18616D03*
X33783Y-16616D03*
X33783Y-14616D03*
X30783Y-18616D03*
X30783Y-16616D03*
X30783Y-14616D03*
X33783Y-11616D03*
X30783Y-11616D03*
X38024Y-18616D03*
X38024Y-16616D03*
X38024Y-14616D03*
X35024Y-18616D03*
X35024Y-16616D03*
X35024Y-14616D03*
X38024Y-11616D03*
X35024Y-11616D03*
X42300Y-18600D03*
X42300Y-16600D03*
X42300Y-14600D03*
X39300Y-18600D03*
X39300Y-16600D03*
X39300Y-14600D03*
X42300Y-11600D03*
X39300Y-11600D03*
G54D48*
X27300Y-24300D03*
X27300Y-23355D03*
X26551Y-24300D03*
X26551Y-23355D03*
G54D49*
X35710Y-34100D03*
X37290Y-34100D03*
X28160Y-34050D03*
X29740Y-34050D03*
G54D50*
X24200Y-29510D03*
X24200Y-31090D03*
G54D49*
X22560Y-34150D03*
X24140Y-34150D03*
G54D51*
X45404Y-28500D03*
X45996Y-28500D03*
G54D52*
X48600Y-33704D03*
X48600Y-34296D03*
X20000Y-25904D03*
X20000Y-26496D03*
X46400Y-33904D03*
X46400Y-34496D03*
X18700Y-23404D03*
X18700Y-23996D03*
X18700Y-28404D03*
X18700Y-28996D03*
X28000Y-29796D03*
X28000Y-29204D03*
X45300Y-33046D03*
X45300Y-32454D03*
G54D51*
X26404Y-25300D03*
X26996Y-25300D03*
X26704Y-22600D03*
X27296Y-22600D03*
X46904Y-31000D03*
X47496Y-31000D03*
X38204Y-33900D03*
X38796Y-33900D03*
X47504Y-29600D03*
X48096Y-29600D03*
X46396Y-29500D03*
X45804Y-29500D03*
G54D52*
X45900Y-26596D03*
X45900Y-26004D03*
X51500Y-22504D03*
X51500Y-23096D03*
X16400Y-23404D03*
X16400Y-23996D03*
G54D51*
X14904Y-27100D03*
X15496Y-27100D03*
G54D52*
X14900Y-24604D03*
X14900Y-25196D03*
X17900Y-22904D03*
X17900Y-23496D03*
G54D51*
X43504Y-34450D03*
X44096Y-34450D03*
G54D52*
X19700Y-23404D03*
X19700Y-23996D03*
G54D51*
X47096Y-32500D03*
X46504Y-32500D03*
G54D53*
X30750Y-36500D03*
G54D54*
X32750Y-36500D03*
X34750Y-36500D03*
G54D53*
X32750Y-6500D03*
G54D54*
X30750Y-6500D03*
X28750Y-6500D03*
G54D53*
X24750Y-36500D03*
G54D54*
X26750Y-36500D03*
X28750Y-36500D03*
G54D53*
X18750Y-36500D03*
G54D54*
X20750Y-36500D03*
X22750Y-36500D03*
G54D53*
X12750Y-36500D03*
G54D54*
X14750Y-36500D03*
X16750Y-36500D03*
G54D53*
X46750Y-36500D03*
G54D54*
X48750Y-36500D03*
X50750Y-36500D03*
G54D53*
X36750Y-36500D03*
G54D54*
X38750Y-36500D03*
X40750Y-36500D03*
G54D53*
X42750Y-6500D03*
G54D54*
X40750Y-6500D03*
X38750Y-6500D03*
G54D53*
X20750Y-6500D03*
G54D54*
X18750Y-6500D03*
X16750Y-6500D03*
G54D53*
X26750Y-6500D03*
G54D54*
X24750Y-6500D03*
X22750Y-6500D03*
G54D53*
X14750Y-6500D03*
G54D54*
X12750Y-6500D03*
G54D53*
X42750Y-36500D03*
G54D54*
X44750Y-36500D03*
G54D53*
X46750Y-6500D03*
G54D54*
X44750Y-6500D03*
G54D53*
X50750Y-6500D03*
G54D54*
X48750Y-6500D03*
G54D55*
X49504Y-9145D03*
X57495Y-12054D03*
G54D56*
X43350Y-20800D03*
X44350Y-20800D03*
X44350Y-19930D03*
X43350Y-19930D03*
G54D57*
X28623Y-20250D03*
X28623Y-19750D03*
X28623Y-19250D03*
X28623Y-18750D03*
X26577Y-18750D03*
X26577Y-19250D03*
X26577Y-19750D03*
X26577Y-20250D03*
G54D53*
X36750Y-6500D03*
G54D54*
X34750Y-6500D03*
G54D57*
X22223Y-31550D03*
X22223Y-31050D03*
X22223Y-30550D03*
X22223Y-30050D03*
X20177Y-30050D03*
X20177Y-30550D03*
X20177Y-31050D03*
X20177Y-31550D03*
G54D58*
X6517Y-15300D03*
X8683Y-15300D03*
G54D59*
X54500Y-8200D03*
X55500Y-7825D03*
X55500Y-8575D03*
G54D60*
X47800Y-10800D03*
X47425Y-9800D03*
X48175Y-9800D03*
G54D61*
X46500Y-9491D03*
X46500Y-10111D03*
X53300Y-8891D03*
X53300Y-9511D03*
G54D29*
X52300Y-12000D03*
X52300Y-12600D03*
X52300Y-13700D03*
X52300Y-13100D03*
X45500Y-10100D03*
X45500Y-9500D03*
X49100Y-12500D03*
X49100Y-13100D03*
X49100Y-11400D03*
X49100Y-10800D03*
G54D30*
X50900Y-8500D03*
X50300Y-8500D03*
X48100Y-8500D03*
X48700Y-8500D03*
G54D45*
X54700Y-10600D03*
X54700Y-10100D03*
X54700Y-9600D03*
G54D62*
X49850Y-13623D03*
X50350Y-13623D03*
X50850Y-13623D03*
X51350Y-13623D03*
X51350Y-11577D03*
X50850Y-11577D03*
X50350Y-11577D03*
X49850Y-11577D03*
G54D63*
X52279Y-10490D03*
G54D64*
X52179Y-9900D03*
G54D65*
X51130Y-9900D03*
G54D66*
X52279Y-9310D03*
G54D67*
X47526Y-12533D03*
X48274Y-12533D03*
X47900Y-11667D03*
G54D68*
X53200Y-7884D03*
X53200Y-5915D03*
G54D69*
X6692Y-36122D03*
X6692Y-6889D03*
X56791Y-36122D03*
X56791Y-6889D03*
G54D39*
X23200Y-15500D03*
G54D40*
X23200Y-16500D03*
X22200Y-15500D03*
X22200Y-16500D03*
X21200Y-15500D03*
X21200Y-16500D03*
X20200Y-15500D03*
X20200Y-16500D03*
X19200Y-15500D03*
X19200Y-16500D03*
X18200Y-15500D03*
X18200Y-16500D03*
X17200Y-15500D03*
X17200Y-16500D03*
X16200Y-15500D03*
X16200Y-16500D03*
X15200Y-15500D03*
X15200Y-16500D03*
X14200Y-15500D03*
X14200Y-16500D03*
G54D70*
X8600Y-8637D03*
X8600Y-12575D03*
G54D71*
X10432Y-27500D03*
G54D72*
X11967Y-27500D03*
G54D71*
X10432Y-28000D03*
G54D72*
X11967Y-28000D03*
X10432Y-28500D03*
X11967Y-28500D03*
X10432Y-29000D03*
G54D71*
X11967Y-29000D03*
X10432Y-29500D03*
G54D72*
X11967Y-29500D03*
G54D73*
X9000Y-6500D03*
X9000Y-36600D03*
X54800Y-36600D03*
X9000Y-36600D03*
X54800Y-36600D03*
X54800Y-6500D03*
G54D74*
X6500Y-22400D03*
X6500Y-22144D03*
X6500Y-22656D03*
X6500Y-21888D03*
X6500Y-22912D03*
G54D75*
X6500Y-21140D03*
X6500Y-23660D03*
G54D76*
X5457Y-20904D03*
X5457Y-23896D03*
G54D77*
X5457Y-21947D03*
X5457Y-22853D03*
G54D74*
X6500Y-26900D03*
X6500Y-26644D03*
X6500Y-27156D03*
X6500Y-26388D03*
X6500Y-27412D03*
G54D75*
X6500Y-25640D03*
X6500Y-28160D03*
G54D76*
X5457Y-25404D03*
X5457Y-28396D03*
G54D77*
X5457Y-26447D03*
X5457Y-27353D03*
G54D74*
X6500Y-31400D03*
X6500Y-31144D03*
X6500Y-31656D03*
X6500Y-30888D03*
X6500Y-31912D03*
G54D75*
X6500Y-30140D03*
X6500Y-32660D03*
G54D76*
X5457Y-29904D03*
X5457Y-32896D03*
G54D77*
X5457Y-30947D03*
X5457Y-31853D03*
G54D78*
X56200Y-33450D03*
X56200Y-23450D03*
G54D39*
X55200Y-30600D03*
G54D40*
X55200Y-29500D03*
X55200Y-28400D03*
X55200Y-27350D03*
X55200Y-26250D03*
X56200Y-26800D03*
X56200Y-27900D03*
X56200Y-28950D03*
X56200Y-30050D03*
G54D79*
X8802Y-18500D03*
X6598Y-18500D03*
G54D31*
X53500Y-24400D03*
X10400Y-33000D03*
G54D80*
X20700Y-18000D03*
G54D81*
X20050Y-33950D03*
X20050Y-32850D03*
G54D82*
X49450Y-22800D03*
X50550Y-22800D03*
G54D81*
X18000Y-26450D03*
X18000Y-27550D03*
G54D52*
X16500Y-27296D03*
X16500Y-26704D03*
G54D81*
X45900Y-30450D03*
X45900Y-31550D03*
X20100Y-28050D03*
X20100Y-29150D03*
M02*
