G04 (created by PCBNEW (2013-07-07 BZR 4022)-stable) date 07/08/2014 18:27:05*
%MOIN*%
G04 Gerber Fmt 3.4, Leading zero omitted, Abs format*
%FSLAX34Y34*%
G01*
G70*
G90*
G04 APERTURE LIST*
%ADD10C,0.00590551*%
%ADD11R,0.1004X0.1004*%
%ADD12O,0.0118X0.0335*%
%ADD13O,0.0335X0.0118*%
%ADD14R,0.017X0.052*%
%ADD15R,0.0185X0.0599*%
%ADD16R,0.065X0.019*%
%ADD17R,0.047X0.092*%
%ADD18R,0.4272X0.2775*%
%ADD19R,0.0197165X0.0197165*%
%ADD20R,0.0257X0.0375*%
%ADD21R,0.146X0.082*%
%ADD22R,0.042X0.082*%
%ADD23R,0.0492X0.0414*%
%ADD24R,0.0335X0.0414*%
%ADD25R,0.0551X0.0276*%
%ADD26R,0.052X0.102*%
%ADD27R,0.047X0.027*%
%ADD28R,0.027X0.047*%
%ADD29C,0.162*%
%ADD30R,0.0611X0.0611*%
%ADD31C,0.0611*%
%ADD32C,0.092*%
%ADD33C,0.067*%
%ADD34R,0.0846772X0.0571181*%
%ADD35R,0.065X0.065*%
%ADD36C,0.065*%
%ADD37R,0.062X0.062*%
%ADD38C,0.062*%
%ADD39R,0.0571X0.0728*%
%ADD40R,0.0611X0.012*%
%ADD41R,0.012X0.0611*%
%ADD42R,0.0334X0.0334*%
%ADD43R,0.052X0.04*%
%ADD44R,0.04X0.052*%
%ADD45C,0.0728*%
%ADD46R,0.0492441X0.0571181*%
%ADD47R,0.0729X0.0886*%
%ADD48R,0.0886X0.0729*%
%ADD49R,0.0374X0.0414*%
%ADD50R,0.0414X0.0374*%
%ADD51R,0.102X0.102*%
%ADD52C,0.102*%
%ADD53C,0.104362*%
%ADD54R,0.0689291X0.0610551*%
%ADD55R,0.0886X0.0256*%
%ADD56R,0.1437X0.065*%
%ADD57R,0.0414X0.0296*%
%ADD58R,0.0296X0.0414*%
%ADD59R,0.0335X0.04*%
%ADD60R,0.0256X0.0886*%
%ADD61R,0.061X0.0413*%
%ADD62R,0.0807X0.0413*%
%ADD63R,0.1476X0.0886*%
%ADD64O,0.061X0.0413*%
%ADD65R,0.0413X0.0571*%
%ADD66R,0.100425X0.0413701*%
%ADD67C,0.179165*%
%ADD68R,0.0964882X0.0315276*%
%ADD69R,0.0964882X0.0311339*%
%ADD70C,0.15748*%
%ADD71R,0.0551X0.0177*%
%ADD72R,0.0611X0.0847*%
%ADD73R,0.0768X0.0965*%
%ADD74R,0.0768X0.0729*%
%ADD75C,0.152*%
%ADD76R,0.0807X0.3012*%
%ADD77C,0.12011*%
%ADD78R,0.073X0.065*%
%ADD79R,0.065X0.073*%
%ADD80R,0.052X0.092*%
%ADD81R,0.0965X0.1595*%
%ADD82R,0.0728X0.0886*%
%ADD83R,0.0886X0.0728*%
G04 APERTURE END LIST*
G54D10*
G54D11*
X47587Y-23124D03*
G54D12*
X48079Y-22337D03*
X47882Y-22337D03*
X47685Y-22337D03*
X47489Y-22337D03*
X47292Y-22337D03*
X47095Y-22337D03*
G54D13*
X46800Y-22632D03*
X46800Y-22829D03*
X46800Y-23026D03*
X46800Y-23222D03*
X46800Y-23419D03*
X46800Y-23616D03*
G54D12*
X47095Y-23911D03*
X47292Y-23911D03*
X47489Y-23911D03*
X47685Y-23911D03*
X47882Y-23911D03*
X48079Y-23911D03*
G54D13*
X48374Y-23616D03*
X48374Y-23419D03*
X48374Y-23222D03*
X48374Y-23026D03*
X48374Y-22829D03*
X48374Y-22632D03*
G54D14*
X47541Y-30326D03*
X47797Y-30326D03*
X48053Y-30326D03*
X48309Y-30326D03*
X48565Y-30326D03*
X48821Y-30326D03*
X49077Y-30326D03*
X49333Y-30326D03*
X49333Y-28122D03*
X49077Y-28122D03*
X48821Y-28122D03*
X48565Y-28122D03*
X48309Y-28122D03*
X48053Y-28122D03*
X47797Y-28122D03*
X47541Y-28122D03*
G54D15*
X22559Y-27526D03*
X22815Y-27526D03*
X23071Y-27526D03*
X23327Y-27526D03*
X21795Y-25324D03*
X21791Y-27526D03*
X22047Y-27526D03*
X22303Y-27526D03*
X23583Y-25322D03*
X23327Y-25322D03*
X23071Y-25322D03*
X22815Y-25322D03*
X22559Y-25322D03*
X22303Y-25322D03*
X23583Y-27526D03*
X22047Y-25324D03*
X21535Y-27526D03*
X23839Y-27526D03*
X23839Y-25322D03*
X21535Y-25322D03*
G54D16*
X44842Y-35217D03*
X44842Y-34902D03*
X44842Y-34587D03*
X44842Y-34272D03*
X44842Y-33957D03*
X44842Y-33642D03*
X44842Y-33327D03*
X44842Y-33012D03*
X44842Y-32697D03*
X44842Y-32382D03*
X44842Y-32067D03*
X44842Y-31752D03*
X44842Y-31437D03*
X44842Y-31124D03*
X44842Y-30809D03*
X44842Y-30494D03*
X44842Y-30179D03*
X44842Y-29864D03*
X44842Y-29549D03*
X44842Y-29234D03*
X44842Y-28919D03*
X44842Y-28604D03*
X44842Y-28289D03*
X44842Y-27974D03*
X44842Y-27659D03*
X44842Y-27344D03*
X44842Y-27029D03*
X40434Y-27029D03*
X40434Y-27344D03*
X40434Y-27659D03*
X40434Y-27974D03*
X40434Y-28289D03*
X40434Y-28604D03*
X40434Y-28919D03*
X40434Y-29234D03*
X40434Y-29549D03*
X40434Y-29864D03*
X40434Y-30179D03*
X40434Y-30494D03*
X40434Y-30809D03*
X40434Y-31124D03*
X40434Y-31437D03*
X40434Y-31752D03*
X40434Y-32067D03*
X40434Y-32382D03*
X40434Y-32697D03*
X40434Y-33012D03*
X40434Y-33327D03*
X40434Y-33642D03*
X40434Y-33957D03*
X40434Y-34272D03*
X40434Y-34587D03*
X40434Y-34902D03*
X40434Y-35217D03*
G54D17*
X20437Y-10724D03*
G54D18*
X19437Y-14974D03*
G54D17*
X18437Y-10724D03*
X19437Y-10724D03*
X29687Y-10724D03*
G54D18*
X28687Y-14974D03*
G54D17*
X27687Y-10724D03*
X28687Y-10724D03*
X15787Y-10724D03*
G54D18*
X14787Y-14974D03*
G54D17*
X13787Y-10724D03*
X14787Y-10724D03*
X25087Y-10724D03*
G54D18*
X24087Y-14974D03*
G54D17*
X23087Y-10724D03*
X24087Y-10724D03*
G54D19*
X26137Y-23874D03*
X26767Y-23874D03*
X26767Y-23540D03*
X26137Y-23540D03*
G54D20*
X51060Y-27442D03*
X50312Y-27442D03*
X50687Y-28504D03*
G54D21*
X13737Y-27274D03*
G54D22*
X13737Y-24674D03*
X12837Y-24674D03*
X14637Y-24674D03*
G54D23*
X25772Y-27846D03*
G54D24*
X26461Y-26902D03*
X26461Y-27846D03*
X25713Y-26902D03*
G54D25*
X8215Y-22374D03*
X9159Y-22374D03*
X10415Y-27274D03*
X11359Y-27274D03*
X10415Y-28174D03*
X11359Y-28174D03*
G54D26*
X16187Y-32674D03*
X14987Y-32674D03*
X16187Y-34274D03*
X14987Y-34274D03*
G54D27*
X19687Y-32974D03*
X19687Y-33574D03*
G54D28*
X43787Y-24574D03*
X44387Y-24574D03*
G54D27*
X19687Y-34224D03*
X19687Y-34824D03*
G54D28*
X46187Y-21274D03*
X46787Y-21274D03*
G54D27*
X19687Y-31574D03*
X19687Y-32174D03*
X12987Y-17674D03*
X12987Y-17074D03*
G54D28*
X45737Y-24574D03*
X46337Y-24574D03*
G54D27*
X18787Y-35424D03*
X18787Y-36024D03*
X18687Y-30474D03*
X18687Y-31074D03*
X21987Y-36024D03*
X21987Y-35424D03*
G54D28*
X26487Y-36074D03*
X25887Y-36074D03*
X27187Y-36074D03*
X27787Y-36074D03*
G54D27*
X21887Y-30474D03*
X21887Y-31074D03*
X13787Y-17674D03*
X13787Y-17074D03*
G54D28*
X51837Y-25774D03*
X52437Y-25774D03*
G54D27*
X11387Y-17274D03*
X11387Y-16674D03*
X22587Y-31074D03*
X22587Y-30474D03*
G54D28*
X23687Y-29674D03*
X23087Y-29674D03*
G54D27*
X12187Y-17274D03*
X12187Y-16674D03*
X48987Y-26574D03*
X48987Y-25974D03*
G54D28*
X25587Y-17774D03*
X24987Y-17774D03*
X25587Y-20174D03*
X24987Y-20174D03*
X25587Y-18574D03*
X24987Y-18574D03*
X25587Y-19374D03*
X24987Y-19374D03*
G54D27*
X47887Y-35474D03*
X47887Y-36074D03*
G54D28*
X27187Y-30674D03*
X26587Y-30674D03*
G54D27*
X23687Y-28974D03*
X23687Y-28374D03*
X22887Y-28974D03*
X22887Y-28374D03*
X25087Y-25674D03*
X25087Y-25074D03*
X24387Y-25674D03*
X24387Y-25074D03*
X11787Y-25474D03*
X11787Y-26074D03*
G54D28*
X43787Y-23874D03*
X44387Y-23874D03*
G54D27*
X28887Y-25824D03*
X28887Y-25224D03*
G54D28*
X26387Y-28524D03*
X25787Y-28524D03*
X27187Y-29974D03*
X26587Y-29974D03*
X27287Y-23274D03*
X27887Y-23274D03*
G54D27*
X50187Y-35874D03*
X50187Y-35274D03*
G54D28*
X47287Y-34774D03*
X47887Y-34774D03*
X42487Y-36024D03*
X41887Y-36024D03*
G54D27*
X49787Y-21574D03*
X49787Y-20974D03*
G54D28*
X45737Y-26124D03*
X46337Y-26124D03*
G54D27*
X48587Y-25374D03*
X48587Y-24774D03*
G54D28*
X45737Y-25424D03*
X46337Y-25424D03*
X46087Y-36124D03*
X45487Y-36124D03*
G54D27*
X8887Y-29374D03*
X8887Y-29974D03*
X9587Y-27874D03*
X9587Y-27274D03*
X48687Y-35874D03*
X48687Y-35274D03*
G54D28*
X38987Y-36174D03*
X39587Y-36174D03*
G54D27*
X8887Y-24774D03*
X8887Y-25374D03*
G54D28*
X51787Y-30174D03*
X52387Y-30174D03*
X49887Y-29974D03*
X50487Y-29974D03*
G54D27*
X9987Y-23074D03*
X9987Y-22474D03*
G54D28*
X51787Y-29374D03*
X52387Y-29374D03*
X49887Y-29174D03*
X50487Y-29174D03*
G54D27*
X8887Y-32174D03*
X8887Y-31574D03*
G54D28*
X16287Y-29474D03*
X15687Y-29474D03*
G54D27*
X8987Y-34574D03*
X8987Y-33974D03*
G54D28*
X45787Y-35324D03*
X46387Y-35324D03*
G54D27*
X21987Y-29574D03*
X21987Y-28974D03*
G54D28*
X43087Y-36024D03*
X43687Y-36024D03*
G54D29*
X55687Y-17624D03*
X55687Y-22124D03*
G54D30*
X53187Y-21624D03*
G54D31*
X52187Y-21124D03*
X53187Y-20624D03*
X52187Y-20124D03*
X53187Y-19624D03*
X52187Y-19124D03*
X53187Y-18624D03*
X52187Y-18124D03*
G54D32*
X54487Y-22974D03*
X54487Y-16774D03*
G54D33*
X57617Y-22364D03*
X57017Y-21364D03*
X57617Y-18384D03*
X57017Y-17384D03*
G54D34*
X26787Y-19074D03*
X26787Y-17578D03*
X30370Y-17578D03*
X30370Y-19074D03*
G54D35*
X36937Y-11774D03*
G54D36*
X36937Y-10774D03*
X37937Y-11774D03*
X37937Y-10774D03*
X38937Y-11774D03*
X38937Y-10774D03*
X39937Y-11774D03*
X39937Y-10774D03*
X40937Y-11774D03*
X40937Y-10774D03*
X41937Y-11774D03*
X41937Y-10774D03*
G54D37*
X16800Y-18450D03*
G54D38*
X16800Y-17450D03*
X17800Y-18450D03*
X17800Y-17450D03*
X18800Y-18450D03*
X18800Y-17450D03*
X19800Y-18450D03*
X19800Y-17450D03*
G54D35*
X40987Y-22274D03*
G54D36*
X40987Y-21274D03*
X41987Y-22274D03*
X41987Y-21274D03*
X42987Y-22274D03*
X42987Y-21274D03*
G54D37*
X24987Y-22074D03*
G54D38*
X24987Y-21074D03*
X25987Y-22074D03*
X25987Y-21074D03*
G54D39*
X31718Y-35774D03*
X33056Y-35774D03*
X26068Y-35224D03*
X27406Y-35224D03*
X23118Y-34074D03*
X24456Y-34074D03*
G54D40*
X29771Y-23230D03*
X29771Y-23426D03*
X29771Y-23623D03*
X29771Y-23820D03*
X29771Y-24017D03*
X29771Y-24214D03*
X29771Y-24411D03*
X29771Y-24608D03*
X29771Y-24804D03*
X29771Y-25001D03*
X29771Y-25198D03*
X29771Y-25395D03*
X29771Y-25592D03*
X29771Y-25789D03*
X29771Y-25986D03*
X29771Y-26182D03*
X29771Y-26379D03*
X29771Y-26576D03*
X29771Y-26772D03*
X29771Y-26969D03*
X29771Y-27166D03*
X29771Y-27362D03*
X29771Y-27559D03*
X29771Y-27756D03*
X29771Y-27953D03*
X29771Y-28150D03*
X29771Y-28347D03*
X29771Y-28544D03*
X29771Y-28740D03*
X29771Y-28937D03*
X29771Y-29134D03*
X29771Y-29331D03*
X29771Y-29528D03*
X29771Y-29725D03*
X29771Y-29922D03*
X29771Y-30118D03*
G54D41*
X30559Y-30906D03*
X30755Y-30906D03*
X30952Y-30906D03*
X31149Y-30906D03*
X31346Y-30906D03*
X31543Y-30906D03*
X31740Y-30906D03*
X31937Y-30906D03*
X32133Y-30906D03*
X32330Y-30906D03*
X32527Y-30906D03*
X32724Y-30906D03*
X32921Y-30906D03*
X33118Y-30906D03*
X33315Y-30906D03*
X33511Y-30906D03*
X33708Y-30906D03*
X33905Y-30906D03*
X34101Y-30906D03*
X34298Y-30906D03*
X34495Y-30906D03*
X34691Y-30906D03*
X34888Y-30906D03*
X35085Y-30906D03*
X35282Y-30906D03*
X35479Y-30906D03*
X35676Y-30906D03*
X35873Y-30906D03*
X36069Y-30906D03*
X36266Y-30906D03*
X36463Y-30906D03*
X36660Y-30906D03*
X36857Y-30906D03*
X37054Y-30906D03*
X37251Y-30906D03*
X37447Y-30906D03*
G54D40*
X38235Y-30118D03*
X38235Y-29922D03*
X38235Y-29725D03*
X38235Y-29528D03*
X38235Y-29331D03*
X38235Y-29134D03*
X38235Y-28937D03*
X38235Y-28740D03*
X38235Y-28544D03*
X38235Y-28347D03*
X38235Y-28150D03*
X38235Y-27953D03*
X38235Y-27756D03*
X38235Y-27559D03*
X38235Y-27362D03*
X38235Y-27166D03*
X38235Y-26969D03*
X38235Y-26772D03*
X38235Y-26576D03*
X38235Y-26379D03*
X38235Y-26182D03*
X38235Y-25986D03*
X38235Y-25789D03*
X38235Y-25592D03*
X38235Y-25395D03*
X38235Y-25198D03*
X38235Y-25001D03*
X38235Y-24804D03*
X38235Y-24608D03*
X38235Y-24411D03*
X38235Y-24214D03*
X38235Y-24017D03*
X38235Y-23820D03*
X38235Y-23623D03*
X38235Y-23426D03*
X38235Y-23230D03*
G54D41*
X37447Y-22442D03*
X37251Y-22442D03*
X37054Y-22442D03*
X36857Y-22442D03*
X36660Y-22442D03*
X36463Y-22442D03*
X36266Y-22442D03*
X36069Y-22442D03*
X35873Y-22442D03*
X35676Y-22442D03*
X35479Y-22442D03*
X35282Y-22442D03*
X35085Y-22442D03*
X34888Y-22442D03*
X34691Y-22442D03*
X34495Y-22442D03*
X34298Y-22442D03*
X34101Y-22442D03*
X33905Y-22442D03*
X33708Y-22442D03*
X33511Y-22442D03*
X33315Y-22442D03*
X33118Y-22442D03*
X32921Y-22442D03*
X32724Y-22442D03*
X32527Y-22442D03*
X32330Y-22442D03*
X32133Y-22442D03*
X31937Y-22442D03*
X31740Y-22442D03*
X31543Y-22442D03*
X31346Y-22442D03*
X31149Y-22442D03*
X30952Y-22442D03*
X30755Y-22442D03*
X30559Y-22442D03*
G54D42*
X35692Y-32574D03*
X36282Y-32574D03*
X49887Y-16769D03*
X49887Y-16179D03*
X32992Y-32574D03*
X33582Y-32574D03*
X31592Y-32574D03*
X32182Y-32574D03*
X30142Y-32574D03*
X30732Y-32574D03*
X28642Y-32574D03*
X29232Y-32574D03*
X27342Y-32574D03*
X27932Y-32574D03*
X25992Y-32574D03*
X26582Y-32574D03*
X11887Y-19579D03*
X11887Y-20169D03*
X11237Y-19579D03*
X11237Y-20169D03*
X13187Y-19579D03*
X13187Y-20169D03*
X12537Y-19579D03*
X12537Y-20169D03*
X48287Y-16769D03*
X48287Y-16179D03*
X49087Y-16769D03*
X49087Y-16179D03*
X50687Y-16769D03*
X50687Y-16179D03*
X34392Y-32574D03*
X34982Y-32574D03*
X10987Y-26069D03*
X10987Y-25479D03*
G54D43*
X47287Y-24774D03*
X47287Y-25274D03*
X47287Y-25774D03*
G54D44*
X41237Y-36024D03*
X40737Y-36024D03*
G54D43*
X49787Y-26024D03*
X49787Y-26524D03*
X23450Y-30400D03*
X23450Y-30900D03*
G54D44*
X52387Y-26674D03*
X51887Y-26674D03*
G54D43*
X18787Y-34774D03*
X18787Y-34274D03*
X18587Y-33524D03*
X18587Y-33024D03*
X18587Y-32224D03*
X18587Y-31724D03*
X50587Y-26024D03*
X50587Y-26524D03*
G54D45*
X47287Y-20174D03*
X47287Y-18174D03*
X47287Y-16174D03*
X44287Y-20174D03*
X44287Y-18174D03*
X44287Y-16174D03*
X47287Y-13174D03*
X44287Y-13174D03*
X34570Y-20191D03*
X34570Y-18191D03*
X34570Y-16191D03*
X31570Y-20191D03*
X31570Y-18191D03*
X31570Y-16191D03*
X34570Y-13191D03*
X31570Y-13191D03*
X38812Y-20191D03*
X38812Y-18191D03*
X38812Y-16191D03*
X35812Y-20191D03*
X35812Y-18191D03*
X35812Y-16191D03*
X38812Y-13191D03*
X35812Y-13191D03*
X43087Y-20174D03*
X43087Y-18174D03*
X43087Y-16174D03*
X40087Y-20174D03*
X40087Y-18174D03*
X40087Y-16174D03*
X43087Y-13174D03*
X40087Y-13174D03*
G54D46*
X28087Y-25874D03*
X28087Y-24929D03*
X27339Y-25874D03*
X27339Y-24929D03*
G54D47*
X36497Y-35674D03*
X38077Y-35674D03*
X28947Y-35624D03*
X30527Y-35624D03*
G54D48*
X24700Y-31210D03*
X24700Y-32790D03*
G54D47*
X23347Y-35724D03*
X24927Y-35724D03*
G54D49*
X46191Y-30074D03*
X46783Y-30074D03*
G54D50*
X49387Y-35278D03*
X49387Y-35870D03*
X20787Y-27478D03*
X20787Y-28070D03*
X47187Y-35478D03*
X47187Y-36070D03*
X19487Y-24978D03*
X19487Y-25570D03*
X19487Y-29978D03*
X19487Y-30570D03*
X28787Y-31370D03*
X28787Y-30778D03*
X46087Y-34620D03*
X46087Y-34028D03*
G54D49*
X27191Y-26874D03*
X27783Y-26874D03*
X27491Y-24174D03*
X28083Y-24174D03*
X47691Y-32574D03*
X48283Y-32574D03*
X38991Y-35474D03*
X39583Y-35474D03*
X48291Y-31174D03*
X48883Y-31174D03*
X47183Y-31024D03*
X46591Y-31024D03*
G54D50*
X46687Y-28170D03*
X46687Y-27578D03*
X52287Y-24078D03*
X52287Y-24670D03*
X17187Y-24978D03*
X17187Y-25570D03*
G54D49*
X15691Y-28674D03*
X16283Y-28674D03*
G54D50*
X15687Y-26178D03*
X15687Y-26770D03*
X18687Y-24478D03*
X18687Y-25070D03*
G54D49*
X44291Y-36024D03*
X44883Y-36024D03*
G54D50*
X20487Y-24978D03*
X20487Y-25570D03*
G54D49*
X47883Y-34074D03*
X47291Y-34074D03*
G54D51*
X31537Y-38074D03*
G54D52*
X33537Y-38074D03*
X35537Y-38074D03*
G54D51*
X33537Y-8074D03*
G54D52*
X31537Y-8074D03*
X29537Y-8074D03*
G54D51*
X25537Y-38074D03*
G54D52*
X27537Y-38074D03*
X29537Y-38074D03*
G54D51*
X19537Y-38074D03*
G54D52*
X21537Y-38074D03*
X23537Y-38074D03*
G54D51*
X13537Y-38074D03*
G54D52*
X15537Y-38074D03*
X17537Y-38074D03*
G54D51*
X47537Y-38074D03*
G54D52*
X49537Y-38074D03*
X51537Y-38074D03*
G54D51*
X37537Y-38074D03*
G54D52*
X39537Y-38074D03*
X41537Y-38074D03*
G54D51*
X43537Y-8074D03*
G54D52*
X41537Y-8074D03*
X39537Y-8074D03*
G54D51*
X21537Y-8074D03*
G54D52*
X19537Y-8074D03*
X17537Y-8074D03*
G54D51*
X27537Y-8074D03*
G54D52*
X25537Y-8074D03*
X23537Y-8074D03*
G54D51*
X15537Y-8074D03*
G54D52*
X13537Y-8074D03*
G54D51*
X43537Y-38074D03*
G54D52*
X45537Y-38074D03*
G54D51*
X47537Y-8074D03*
G54D52*
X45537Y-8074D03*
G54D51*
X51537Y-8074D03*
G54D52*
X49537Y-8074D03*
G54D53*
X50291Y-10720D03*
X58282Y-13629D03*
G54D54*
X44137Y-22374D03*
X45137Y-22374D03*
X45137Y-21504D03*
X44137Y-21504D03*
G54D55*
X29410Y-21824D03*
X29410Y-21324D03*
X29410Y-20824D03*
X29410Y-20324D03*
X27364Y-20324D03*
X27364Y-20824D03*
X27364Y-21324D03*
X27364Y-21824D03*
G54D51*
X37537Y-8074D03*
G54D52*
X35537Y-8074D03*
G54D55*
X23010Y-33124D03*
X23010Y-32624D03*
X23010Y-32124D03*
X23010Y-31624D03*
X20964Y-31624D03*
X20964Y-32124D03*
X20964Y-32624D03*
X20964Y-33124D03*
G54D56*
X7304Y-16874D03*
X9470Y-16874D03*
G54D57*
X55287Y-9774D03*
X56287Y-9399D03*
X56287Y-10149D03*
G54D58*
X48687Y-10874D03*
X49062Y-11874D03*
X48312Y-11874D03*
G54D59*
X47287Y-11065D03*
X47287Y-11685D03*
X54087Y-10465D03*
X54087Y-11085D03*
G54D27*
X53087Y-13574D03*
X53087Y-14174D03*
X53087Y-15274D03*
X53087Y-14674D03*
X46287Y-11674D03*
X46287Y-11074D03*
X49887Y-14074D03*
X49887Y-14674D03*
X49887Y-12974D03*
X49887Y-12374D03*
G54D28*
X51687Y-10074D03*
X51087Y-10074D03*
X48887Y-10074D03*
X49487Y-10074D03*
G54D43*
X55487Y-12174D03*
X55487Y-11674D03*
X55487Y-11174D03*
G54D60*
X50637Y-15197D03*
X51137Y-15197D03*
X51637Y-15197D03*
X52137Y-15197D03*
X52137Y-13151D03*
X51637Y-13151D03*
X51137Y-13151D03*
X50637Y-13151D03*
G54D61*
X53066Y-12064D03*
G54D62*
X52966Y-11474D03*
G54D63*
X51917Y-11474D03*
G54D64*
X53066Y-10884D03*
G54D65*
X48313Y-14107D03*
X49061Y-14107D03*
X48687Y-13241D03*
G54D66*
X53987Y-9459D03*
X53987Y-7490D03*
G54D67*
X7480Y-38090D03*
X7480Y-8070D03*
X57578Y-38090D03*
X57578Y-8070D03*
G54D37*
X23387Y-20324D03*
G54D38*
X23387Y-21324D03*
X22387Y-20324D03*
X22387Y-21324D03*
X21387Y-20324D03*
X21387Y-21324D03*
X20387Y-20324D03*
X20387Y-21324D03*
X19387Y-20324D03*
X19387Y-21324D03*
X18387Y-20324D03*
X18387Y-21324D03*
X17387Y-20324D03*
X17387Y-21324D03*
X16387Y-20324D03*
X16387Y-21324D03*
X15387Y-20324D03*
X15387Y-21324D03*
X14387Y-20324D03*
X14387Y-21324D03*
G54D68*
X11219Y-29074D03*
G54D69*
X12755Y-29074D03*
G54D68*
X11219Y-29574D03*
G54D69*
X12755Y-29574D03*
X11219Y-30074D03*
X12755Y-30074D03*
X11219Y-30574D03*
G54D68*
X12755Y-30574D03*
X11219Y-31074D03*
G54D69*
X12755Y-31074D03*
G54D70*
X9787Y-8074D03*
X9787Y-38174D03*
X55587Y-38174D03*
X9787Y-38174D03*
X55587Y-38174D03*
X55587Y-8074D03*
G54D71*
X7287Y-23974D03*
X7287Y-23718D03*
X7287Y-24230D03*
X7287Y-23462D03*
X7287Y-24486D03*
G54D72*
X7287Y-22714D03*
X7287Y-25234D03*
G54D73*
X6244Y-22478D03*
X6244Y-25470D03*
G54D74*
X6244Y-23521D03*
X6244Y-24427D03*
G54D71*
X7287Y-28474D03*
X7287Y-28218D03*
X7287Y-28730D03*
X7287Y-27962D03*
X7287Y-28986D03*
G54D72*
X7287Y-27214D03*
X7287Y-29734D03*
G54D73*
X6244Y-26978D03*
X6244Y-29970D03*
G54D74*
X6244Y-28021D03*
X6244Y-28927D03*
G54D71*
X7287Y-32974D03*
X7287Y-32718D03*
X7287Y-33230D03*
X7287Y-32462D03*
X7287Y-33486D03*
G54D72*
X7287Y-31714D03*
X7287Y-34234D03*
G54D73*
X6244Y-31478D03*
X6244Y-34470D03*
G54D74*
X6244Y-32521D03*
X6244Y-33427D03*
G54D75*
X56987Y-35024D03*
X56987Y-25024D03*
G54D37*
X55987Y-32174D03*
G54D38*
X55987Y-31074D03*
X55987Y-29974D03*
X55987Y-28924D03*
X55987Y-27824D03*
X56987Y-28374D03*
X56987Y-29474D03*
X56987Y-30524D03*
X56987Y-31624D03*
G54D76*
X9589Y-20074D03*
X7385Y-20074D03*
G54D67*
X54287Y-25974D03*
X11187Y-34574D03*
G54D77*
X22287Y-18274D03*
G54D78*
X21050Y-35950D03*
X21050Y-34850D03*
G54D79*
X50237Y-24374D03*
X51337Y-24374D03*
G54D50*
X17287Y-28870D03*
X17287Y-28278D03*
G54D78*
X46687Y-32024D03*
X46687Y-33124D03*
X20887Y-29624D03*
X20887Y-30724D03*
G54D44*
X25200Y-30050D03*
X25700Y-30050D03*
G54D80*
X35235Y-35774D03*
X33937Y-35774D03*
X31335Y-34174D03*
X30037Y-34174D03*
X27535Y-33674D03*
X26237Y-33674D03*
G54D78*
X18787Y-28024D03*
X18787Y-29124D03*
G54D81*
X9387Y-11099D03*
X9387Y-14249D03*
G54D82*
X15733Y-35722D03*
X17739Y-35722D03*
G54D83*
X17650Y-34285D03*
X17650Y-32279D03*
G54D82*
X17703Y-31000D03*
X15697Y-31000D03*
M02*
