G04 (created by PCBNEW (2013-07-07 BZR 4022)-stable) date 15/08/2014 17:43:12*
%MOIN*%
G04 Gerber Fmt 3.4, Leading zero omitted, Abs format*
%FSLAX34Y34*%
G01*
G70*
G90*
G04 APERTURE LIST*
%ADD10C,0.00590551*%
%ADD11R,0.1004X0.1004*%
%ADD12O,0.0118X0.0335*%
%ADD13O,0.0335X0.0118*%
%ADD14R,0.017X0.052*%
%ADD15R,0.0185X0.0599*%
%ADD16R,0.065X0.019*%
%ADD17R,0.047X0.092*%
%ADD18R,0.4272X0.2775*%
%ADD19R,0.0197165X0.0197165*%
%ADD20R,0.0257X0.0375*%
%ADD21R,0.146X0.082*%
%ADD22R,0.042X0.082*%
%ADD23R,0.0492X0.0414*%
%ADD24R,0.0335X0.0414*%
%ADD25R,0.0551X0.0276*%
%ADD26R,0.052X0.102*%
%ADD27R,0.047X0.027*%
%ADD28R,0.027X0.047*%
%ADD29C,0.162*%
%ADD30R,0.0611X0.0611*%
%ADD31C,0.0611*%
%ADD32C,0.092*%
%ADD33C,0.067*%
%ADD34R,0.0846772X0.0571181*%
%ADD35R,0.065X0.065*%
%ADD36C,0.065*%
%ADD37R,0.062X0.062*%
%ADD38C,0.062*%
%ADD39R,0.0571X0.0728*%
%ADD40R,0.0611X0.012*%
%ADD41R,0.012X0.0611*%
%ADD42R,0.0334X0.0334*%
%ADD43R,0.052X0.04*%
%ADD44R,0.04X0.052*%
%ADD45C,0.0728*%
%ADD46R,0.0492441X0.0571181*%
%ADD47R,0.0729X0.0886*%
%ADD48R,0.0886X0.0729*%
%ADD49R,0.0374X0.0414*%
%ADD50R,0.0414X0.0374*%
%ADD51R,0.102X0.102*%
%ADD52C,0.102*%
%ADD53C,0.104362*%
%ADD54R,0.0689291X0.0610551*%
%ADD55R,0.0886X0.0256*%
%ADD56R,0.1437X0.065*%
%ADD57R,0.0414X0.0296*%
%ADD58R,0.0296X0.0414*%
%ADD59R,0.0335X0.04*%
%ADD60R,0.0256X0.0886*%
%ADD61R,0.061X0.0413*%
%ADD62R,0.0807X0.0413*%
%ADD63R,0.1476X0.0886*%
%ADD64O,0.061X0.0413*%
%ADD65R,0.0413X0.0571*%
%ADD66R,0.100425X0.0413701*%
%ADD67C,0.179165*%
%ADD68R,0.0964882X0.0315276*%
%ADD69R,0.0964882X0.0311339*%
%ADD70C,0.15748*%
%ADD71R,0.0551X0.0177*%
%ADD72R,0.0611X0.0847*%
%ADD73R,0.0768X0.0965*%
%ADD74R,0.0768X0.0729*%
%ADD75C,0.152*%
%ADD76R,0.0807X0.3012*%
%ADD77C,0.12011*%
%ADD78R,0.073X0.065*%
%ADD79R,0.065X0.073*%
%ADD80R,0.052X0.092*%
%ADD81R,0.0965X0.1595*%
%ADD82R,0.0728X0.0886*%
%ADD83R,0.0886X0.0728*%
G04 APERTURE END LIST*
G54D10*
G54D11*
X18237Y-22350D03*
G54D12*
X17745Y-23137D03*
X17942Y-23137D03*
X18139Y-23137D03*
X18335Y-23137D03*
X18532Y-23137D03*
X18729Y-23137D03*
G54D13*
X19024Y-22842D03*
X19024Y-22645D03*
X19024Y-22448D03*
X19024Y-22252D03*
X19024Y-22055D03*
X19024Y-21858D03*
G54D12*
X18729Y-21563D03*
X18532Y-21563D03*
X18335Y-21563D03*
X18139Y-21563D03*
X17942Y-21563D03*
X17745Y-21563D03*
G54D13*
X17450Y-21858D03*
X17450Y-22055D03*
X17450Y-22252D03*
X17450Y-22448D03*
X17450Y-22645D03*
X17450Y-22842D03*
G54D14*
X18283Y-15148D03*
X18027Y-15148D03*
X17771Y-15148D03*
X17515Y-15148D03*
X17259Y-15148D03*
X17003Y-15148D03*
X16747Y-15148D03*
X16491Y-15148D03*
X16491Y-17352D03*
X16747Y-17352D03*
X17003Y-17352D03*
X17259Y-17352D03*
X17515Y-17352D03*
X17771Y-17352D03*
X18027Y-17352D03*
X18283Y-17352D03*
G54D15*
X43265Y-17948D03*
X43009Y-17948D03*
X42753Y-17948D03*
X42497Y-17948D03*
X44029Y-20150D03*
X44033Y-17948D03*
X43777Y-17948D03*
X43521Y-17948D03*
X42241Y-20152D03*
X42497Y-20152D03*
X42753Y-20152D03*
X43009Y-20152D03*
X43265Y-20152D03*
X43521Y-20152D03*
X42241Y-17948D03*
X43777Y-20150D03*
X44289Y-17948D03*
X41985Y-17948D03*
X41985Y-20152D03*
X44289Y-20152D03*
G54D16*
X20982Y-10257D03*
X20982Y-10572D03*
X20982Y-10887D03*
X20982Y-11202D03*
X20982Y-11517D03*
X20982Y-11832D03*
X20982Y-12147D03*
X20982Y-12462D03*
X20982Y-12777D03*
X20982Y-13092D03*
X20982Y-13407D03*
X20982Y-13722D03*
X20982Y-14037D03*
X20982Y-14350D03*
X20982Y-14665D03*
X20982Y-14980D03*
X20982Y-15295D03*
X20982Y-15610D03*
X20982Y-15925D03*
X20982Y-16240D03*
X20982Y-16555D03*
X20982Y-16870D03*
X20982Y-17185D03*
X20982Y-17500D03*
X20982Y-17815D03*
X20982Y-18130D03*
X20982Y-18445D03*
X25390Y-18445D03*
X25390Y-18130D03*
X25390Y-17815D03*
X25390Y-17500D03*
X25390Y-17185D03*
X25390Y-16870D03*
X25390Y-16555D03*
X25390Y-16240D03*
X25390Y-15925D03*
X25390Y-15610D03*
X25390Y-15295D03*
X25390Y-14980D03*
X25390Y-14665D03*
X25390Y-14350D03*
X25390Y-14037D03*
X25390Y-13722D03*
X25390Y-13407D03*
X25390Y-13092D03*
X25390Y-12777D03*
X25390Y-12462D03*
X25390Y-12147D03*
X25390Y-11832D03*
X25390Y-11517D03*
X25390Y-11202D03*
X25390Y-10887D03*
X25390Y-10572D03*
X25390Y-10257D03*
G54D17*
X45387Y-34750D03*
G54D18*
X46387Y-30500D03*
G54D17*
X47387Y-34750D03*
X46387Y-34750D03*
X36137Y-34750D03*
G54D18*
X37137Y-30500D03*
G54D17*
X38137Y-34750D03*
X37137Y-34750D03*
X50037Y-34750D03*
G54D18*
X51037Y-30500D03*
G54D17*
X52037Y-34750D03*
X51037Y-34750D03*
X40737Y-34750D03*
G54D18*
X41737Y-30500D03*
G54D17*
X42737Y-34750D03*
X41737Y-34750D03*
G54D19*
X39687Y-21600D03*
X39057Y-21600D03*
X39057Y-21934D03*
X39687Y-21934D03*
G54D20*
X14764Y-18032D03*
X15512Y-18032D03*
X15137Y-16970D03*
G54D21*
X52087Y-18200D03*
G54D22*
X52087Y-20800D03*
X52987Y-20800D03*
X51187Y-20800D03*
G54D23*
X40052Y-17628D03*
G54D24*
X39363Y-18572D03*
X39363Y-17628D03*
X40111Y-18572D03*
G54D25*
X57609Y-23100D03*
X56665Y-23100D03*
X55409Y-18200D03*
X54465Y-18200D03*
X55409Y-17300D03*
X54465Y-17300D03*
G54D26*
X49637Y-12800D03*
X50837Y-12800D03*
X49637Y-11200D03*
X50837Y-11200D03*
G54D27*
X46137Y-12500D03*
X46137Y-11900D03*
G54D28*
X22037Y-20900D03*
X21437Y-20900D03*
G54D27*
X46137Y-11250D03*
X46137Y-10650D03*
G54D28*
X19637Y-24200D03*
X19037Y-24200D03*
G54D27*
X46137Y-13900D03*
X46137Y-13300D03*
X52850Y-27650D03*
X52850Y-28250D03*
G54D28*
X20087Y-20900D03*
X19487Y-20900D03*
G54D27*
X47037Y-10050D03*
X47037Y-9450D03*
X47137Y-15000D03*
X47137Y-14400D03*
X43837Y-9450D03*
X43837Y-10050D03*
G54D28*
X39337Y-9400D03*
X39937Y-9400D03*
X38637Y-9400D03*
X38037Y-9400D03*
G54D27*
X43937Y-15000D03*
X43937Y-14400D03*
X52050Y-27650D03*
X52050Y-28250D03*
G54D28*
X13987Y-19700D03*
X13387Y-19700D03*
G54D27*
X54437Y-28200D03*
X54437Y-28800D03*
X43237Y-14400D03*
X43237Y-15000D03*
G54D28*
X42137Y-15800D03*
X42737Y-15800D03*
G54D27*
X53637Y-28200D03*
X53637Y-28800D03*
X16837Y-18900D03*
X16837Y-19500D03*
G54D28*
X40237Y-27700D03*
X40837Y-27700D03*
X40237Y-25300D03*
X40837Y-25300D03*
X40237Y-26900D03*
X40837Y-26900D03*
X40237Y-26100D03*
X40837Y-26100D03*
G54D27*
X17937Y-10000D03*
X17937Y-9400D03*
G54D28*
X38637Y-14800D03*
X39237Y-14800D03*
G54D27*
X42137Y-16500D03*
X42137Y-17100D03*
X42937Y-16500D03*
X42937Y-17100D03*
X40737Y-19800D03*
X40737Y-20400D03*
X41437Y-19800D03*
X41437Y-20400D03*
X54037Y-20000D03*
X54037Y-19400D03*
G54D28*
X22037Y-21600D03*
X21437Y-21600D03*
G54D27*
X36937Y-19650D03*
X36937Y-20250D03*
G54D28*
X39437Y-16950D03*
X40037Y-16950D03*
X38637Y-15500D03*
X39237Y-15500D03*
X38537Y-22200D03*
X37937Y-22200D03*
G54D27*
X15637Y-9600D03*
X15637Y-10200D03*
G54D28*
X18537Y-10700D03*
X17937Y-10700D03*
X23337Y-9450D03*
X23937Y-9450D03*
G54D27*
X16037Y-23900D03*
X16037Y-24500D03*
G54D28*
X20087Y-19350D03*
X19487Y-19350D03*
G54D27*
X17237Y-20100D03*
X17237Y-20700D03*
G54D28*
X20087Y-20050D03*
X19487Y-20050D03*
X19737Y-9350D03*
X20337Y-9350D03*
G54D27*
X56937Y-16100D03*
X56937Y-15500D03*
X56237Y-17600D03*
X56237Y-18200D03*
X17137Y-9600D03*
X17137Y-10200D03*
G54D28*
X26837Y-9300D03*
X26237Y-9300D03*
G54D27*
X56937Y-20700D03*
X56937Y-20100D03*
G54D28*
X14037Y-15300D03*
X13437Y-15300D03*
X15937Y-15500D03*
X15337Y-15500D03*
G54D27*
X55837Y-22400D03*
X55837Y-23000D03*
G54D28*
X14037Y-16100D03*
X13437Y-16100D03*
X15937Y-16300D03*
X15337Y-16300D03*
G54D27*
X56937Y-13300D03*
X56937Y-13900D03*
G54D28*
X49537Y-16000D03*
X50137Y-16000D03*
G54D27*
X56837Y-10900D03*
X56837Y-11500D03*
G54D28*
X20037Y-10150D03*
X19437Y-10150D03*
G54D27*
X43837Y-15900D03*
X43837Y-16500D03*
G54D28*
X22737Y-9450D03*
X22137Y-9450D03*
G54D29*
X10137Y-27850D03*
X10137Y-23350D03*
G54D30*
X12637Y-23850D03*
G54D31*
X13637Y-24350D03*
X12637Y-24850D03*
X13637Y-25350D03*
X12637Y-25850D03*
X13637Y-26350D03*
X12637Y-26850D03*
X13637Y-27350D03*
G54D32*
X11337Y-22500D03*
X11337Y-28700D03*
G54D33*
X8207Y-23110D03*
X8807Y-24110D03*
X8207Y-27090D03*
X8807Y-28090D03*
G54D34*
X39037Y-26400D03*
X39037Y-27896D03*
X35454Y-27896D03*
X35454Y-26400D03*
G54D35*
X28887Y-33700D03*
G54D36*
X28887Y-34700D03*
X27887Y-33700D03*
X27887Y-34700D03*
X26887Y-33700D03*
X26887Y-34700D03*
X25887Y-33700D03*
X25887Y-34700D03*
X24887Y-33700D03*
X24887Y-34700D03*
X23887Y-33700D03*
X23887Y-34700D03*
G54D37*
X49025Y-27025D03*
G54D38*
X49025Y-28025D03*
X48025Y-27025D03*
X48025Y-28025D03*
X47025Y-27025D03*
X47025Y-28025D03*
X46025Y-27025D03*
X46025Y-28025D03*
G54D35*
X24837Y-23200D03*
G54D36*
X24837Y-24200D03*
X23837Y-23200D03*
X23837Y-24200D03*
X22837Y-23200D03*
X22837Y-24200D03*
G54D37*
X40837Y-23400D03*
G54D38*
X40837Y-24400D03*
X39837Y-23400D03*
X39837Y-24400D03*
G54D39*
X34106Y-9700D03*
X32768Y-9700D03*
X39756Y-10250D03*
X38418Y-10250D03*
X42706Y-11400D03*
X41368Y-11400D03*
G54D40*
X36053Y-22244D03*
X36053Y-22048D03*
X36053Y-21851D03*
X36053Y-21654D03*
X36053Y-21457D03*
X36053Y-21260D03*
X36053Y-21063D03*
X36053Y-20866D03*
X36053Y-20670D03*
X36053Y-20473D03*
X36053Y-20276D03*
X36053Y-20079D03*
X36053Y-19882D03*
X36053Y-19685D03*
X36053Y-19488D03*
X36053Y-19292D03*
X36053Y-19095D03*
X36053Y-18898D03*
X36053Y-18702D03*
X36053Y-18505D03*
X36053Y-18308D03*
X36053Y-18112D03*
X36053Y-17915D03*
X36053Y-17718D03*
X36053Y-17521D03*
X36053Y-17324D03*
X36053Y-17127D03*
X36053Y-16930D03*
X36053Y-16734D03*
X36053Y-16537D03*
X36053Y-16340D03*
X36053Y-16143D03*
X36053Y-15946D03*
X36053Y-15749D03*
X36053Y-15552D03*
X36053Y-15356D03*
G54D41*
X35265Y-14568D03*
X35069Y-14568D03*
X34872Y-14568D03*
X34675Y-14568D03*
X34478Y-14568D03*
X34281Y-14568D03*
X34084Y-14568D03*
X33887Y-14568D03*
X33691Y-14568D03*
X33494Y-14568D03*
X33297Y-14568D03*
X33100Y-14568D03*
X32903Y-14568D03*
X32706Y-14568D03*
X32509Y-14568D03*
X32313Y-14568D03*
X32116Y-14568D03*
X31919Y-14568D03*
X31723Y-14568D03*
X31526Y-14568D03*
X31329Y-14568D03*
X31133Y-14568D03*
X30936Y-14568D03*
X30739Y-14568D03*
X30542Y-14568D03*
X30345Y-14568D03*
X30148Y-14568D03*
X29951Y-14568D03*
X29755Y-14568D03*
X29558Y-14568D03*
X29361Y-14568D03*
X29164Y-14568D03*
X28967Y-14568D03*
X28770Y-14568D03*
X28573Y-14568D03*
X28377Y-14568D03*
G54D40*
X27589Y-15356D03*
X27589Y-15552D03*
X27589Y-15749D03*
X27589Y-15946D03*
X27589Y-16143D03*
X27589Y-16340D03*
X27589Y-16537D03*
X27589Y-16734D03*
X27589Y-16930D03*
X27589Y-17127D03*
X27589Y-17324D03*
X27589Y-17521D03*
X27589Y-17718D03*
X27589Y-17915D03*
X27589Y-18112D03*
X27589Y-18308D03*
X27589Y-18505D03*
X27589Y-18702D03*
X27589Y-18898D03*
X27589Y-19095D03*
X27589Y-19292D03*
X27589Y-19488D03*
X27589Y-19685D03*
X27589Y-19882D03*
X27589Y-20079D03*
X27589Y-20276D03*
X27589Y-20473D03*
X27589Y-20670D03*
X27589Y-20866D03*
X27589Y-21063D03*
X27589Y-21260D03*
X27589Y-21457D03*
X27589Y-21654D03*
X27589Y-21851D03*
X27589Y-22048D03*
X27589Y-22244D03*
G54D41*
X28377Y-23032D03*
X28573Y-23032D03*
X28770Y-23032D03*
X28967Y-23032D03*
X29164Y-23032D03*
X29361Y-23032D03*
X29558Y-23032D03*
X29755Y-23032D03*
X29951Y-23032D03*
X30148Y-23032D03*
X30345Y-23032D03*
X30542Y-23032D03*
X30739Y-23032D03*
X30936Y-23032D03*
X31133Y-23032D03*
X31329Y-23032D03*
X31526Y-23032D03*
X31723Y-23032D03*
X31919Y-23032D03*
X32116Y-23032D03*
X32313Y-23032D03*
X32509Y-23032D03*
X32706Y-23032D03*
X32903Y-23032D03*
X33100Y-23032D03*
X33297Y-23032D03*
X33494Y-23032D03*
X33691Y-23032D03*
X33887Y-23032D03*
X34084Y-23032D03*
X34281Y-23032D03*
X34478Y-23032D03*
X34675Y-23032D03*
X34872Y-23032D03*
X35069Y-23032D03*
X35265Y-23032D03*
G54D42*
X30132Y-12900D03*
X29542Y-12900D03*
X15937Y-28705D03*
X15937Y-29295D03*
X32832Y-12900D03*
X32242Y-12900D03*
X34232Y-12900D03*
X33642Y-12900D03*
X35682Y-12900D03*
X35092Y-12900D03*
X37182Y-12900D03*
X36592Y-12900D03*
X38482Y-12900D03*
X37892Y-12900D03*
X39832Y-12900D03*
X39242Y-12900D03*
X52550Y-25895D03*
X52550Y-25305D03*
X53250Y-25895D03*
X53250Y-25305D03*
X53950Y-25895D03*
X53950Y-25305D03*
X54600Y-25895D03*
X54600Y-25305D03*
X17537Y-28705D03*
X17537Y-29295D03*
X16737Y-28705D03*
X16737Y-29295D03*
X15137Y-28705D03*
X15137Y-29295D03*
X31432Y-12900D03*
X30842Y-12900D03*
X54837Y-19405D03*
X54837Y-19995D03*
G54D43*
X18537Y-20700D03*
X18537Y-20200D03*
X18537Y-19700D03*
G54D44*
X24587Y-9450D03*
X25087Y-9450D03*
G54D43*
X16037Y-19450D03*
X16037Y-18950D03*
X42375Y-15075D03*
X42375Y-14575D03*
G54D44*
X13437Y-18800D03*
X13937Y-18800D03*
G54D43*
X47037Y-10700D03*
X47037Y-11200D03*
X47237Y-11950D03*
X47237Y-12450D03*
X47237Y-13250D03*
X47237Y-13750D03*
X15237Y-19450D03*
X15237Y-18950D03*
G54D45*
X18537Y-25300D03*
X18537Y-27300D03*
X18537Y-29300D03*
X21537Y-25300D03*
X21537Y-27300D03*
X21537Y-29300D03*
X18537Y-32300D03*
X21537Y-32300D03*
X31254Y-25283D03*
X31254Y-27283D03*
X31254Y-29283D03*
X34254Y-25283D03*
X34254Y-27283D03*
X34254Y-29283D03*
X31254Y-32283D03*
X34254Y-32283D03*
X27012Y-25283D03*
X27012Y-27283D03*
X27012Y-29283D03*
X30012Y-25283D03*
X30012Y-27283D03*
X30012Y-29283D03*
X27012Y-32283D03*
X30012Y-32283D03*
X22737Y-25300D03*
X22737Y-27300D03*
X22737Y-29300D03*
X25737Y-25300D03*
X25737Y-27300D03*
X25737Y-29300D03*
X22737Y-32300D03*
X25737Y-32300D03*
G54D46*
X37737Y-19600D03*
X37737Y-20545D03*
X38485Y-19600D03*
X38485Y-20545D03*
G54D47*
X29327Y-9800D03*
X27747Y-9800D03*
X36877Y-9850D03*
X35297Y-9850D03*
G54D48*
X41125Y-14265D03*
X41125Y-12685D03*
G54D47*
X42477Y-9750D03*
X40897Y-9750D03*
G54D49*
X19633Y-15400D03*
X19041Y-15400D03*
G54D50*
X16437Y-10196D03*
X16437Y-9604D03*
X45037Y-17996D03*
X45037Y-17404D03*
X18637Y-9996D03*
X18637Y-9404D03*
X46337Y-20496D03*
X46337Y-19904D03*
X46337Y-15496D03*
X46337Y-14904D03*
X37037Y-14104D03*
X37037Y-14696D03*
X19737Y-10854D03*
X19737Y-11446D03*
G54D49*
X38633Y-18600D03*
X38041Y-18600D03*
X38333Y-21300D03*
X37741Y-21300D03*
X18133Y-12900D03*
X17541Y-12900D03*
X26833Y-10000D03*
X26241Y-10000D03*
X17533Y-14300D03*
X16941Y-14300D03*
X18641Y-14450D03*
X19233Y-14450D03*
G54D50*
X19137Y-17304D03*
X19137Y-17896D03*
X13537Y-21396D03*
X13537Y-20804D03*
X48637Y-20496D03*
X48637Y-19904D03*
G54D49*
X50133Y-16800D03*
X49541Y-16800D03*
G54D50*
X50137Y-19296D03*
X50137Y-18704D03*
X47137Y-20996D03*
X47137Y-20404D03*
G54D49*
X21533Y-9450D03*
X20941Y-9450D03*
G54D50*
X45337Y-20496D03*
X45337Y-19904D03*
G54D49*
X17941Y-11400D03*
X18533Y-11400D03*
G54D51*
X34287Y-7400D03*
G54D52*
X32287Y-7400D03*
X30287Y-7400D03*
G54D51*
X32287Y-37400D03*
G54D52*
X34287Y-37400D03*
X36287Y-37400D03*
G54D51*
X40287Y-7400D03*
G54D52*
X38287Y-7400D03*
X36287Y-7400D03*
G54D51*
X46287Y-7400D03*
G54D52*
X44287Y-7400D03*
X42287Y-7400D03*
G54D51*
X52287Y-7400D03*
G54D52*
X50287Y-7400D03*
X48287Y-7400D03*
G54D51*
X18287Y-7400D03*
G54D52*
X16287Y-7400D03*
X14287Y-7400D03*
G54D51*
X28287Y-7400D03*
G54D52*
X26287Y-7400D03*
X24287Y-7400D03*
G54D51*
X22287Y-37400D03*
G54D52*
X24287Y-37400D03*
X26287Y-37400D03*
G54D51*
X44287Y-37400D03*
G54D52*
X46287Y-37400D03*
X48287Y-37400D03*
G54D51*
X38287Y-37400D03*
G54D52*
X40287Y-37400D03*
X42287Y-37400D03*
G54D51*
X50287Y-37400D03*
G54D52*
X52287Y-37400D03*
G54D51*
X22287Y-7400D03*
G54D52*
X20287Y-7400D03*
G54D51*
X18287Y-37400D03*
G54D52*
X20287Y-37400D03*
G54D51*
X14287Y-37400D03*
G54D52*
X16287Y-37400D03*
G54D53*
X15533Y-34754D03*
X7542Y-31845D03*
G54D54*
X21687Y-23100D03*
X20687Y-23100D03*
X20687Y-23970D03*
X21687Y-23970D03*
G54D55*
X36414Y-23650D03*
X36414Y-24150D03*
X36414Y-24650D03*
X36414Y-25150D03*
X38460Y-25150D03*
X38460Y-24650D03*
X38460Y-24150D03*
X38460Y-23650D03*
G54D51*
X28287Y-37400D03*
G54D52*
X30287Y-37400D03*
G54D55*
X42814Y-12350D03*
X42814Y-12850D03*
X42814Y-13350D03*
X42814Y-13850D03*
X44860Y-13850D03*
X44860Y-13350D03*
X44860Y-12850D03*
X44860Y-12350D03*
G54D56*
X58520Y-28600D03*
X56354Y-28600D03*
G54D57*
X10537Y-35700D03*
X9537Y-36075D03*
X9537Y-35325D03*
G54D58*
X17137Y-34600D03*
X16762Y-33600D03*
X17512Y-33600D03*
G54D59*
X18537Y-34409D03*
X18537Y-33789D03*
X11737Y-35009D03*
X11737Y-34389D03*
G54D27*
X12737Y-31900D03*
X12737Y-31300D03*
X12737Y-30200D03*
X12737Y-30800D03*
X19537Y-33800D03*
X19537Y-34400D03*
X15937Y-31400D03*
X15937Y-30800D03*
X15937Y-32500D03*
X15937Y-33100D03*
G54D28*
X14137Y-35400D03*
X14737Y-35400D03*
X16937Y-35400D03*
X16337Y-35400D03*
G54D43*
X10337Y-33300D03*
X10337Y-33800D03*
X10337Y-34300D03*
G54D60*
X15187Y-30277D03*
X14687Y-30277D03*
X14187Y-30277D03*
X13687Y-30277D03*
X13687Y-32323D03*
X14187Y-32323D03*
X14687Y-32323D03*
X15187Y-32323D03*
G54D61*
X12758Y-33410D03*
G54D62*
X12858Y-34000D03*
G54D63*
X13907Y-34000D03*
G54D64*
X12758Y-34590D03*
G54D65*
X17511Y-31367D03*
X16763Y-31367D03*
X17137Y-32233D03*
G54D66*
X11837Y-36015D03*
X11837Y-37984D03*
G54D67*
X58344Y-7384D03*
X58344Y-37404D03*
X8246Y-7384D03*
X8246Y-37404D03*
G54D37*
X42437Y-25150D03*
G54D38*
X42437Y-24150D03*
X43437Y-25150D03*
X43437Y-24150D03*
X44437Y-25150D03*
X44437Y-24150D03*
X45437Y-25150D03*
X45437Y-24150D03*
X46437Y-25150D03*
X46437Y-24150D03*
X47437Y-25150D03*
X47437Y-24150D03*
X48437Y-25150D03*
X48437Y-24150D03*
X49437Y-25150D03*
X49437Y-24150D03*
X50437Y-25150D03*
X50437Y-24150D03*
X51437Y-25150D03*
X51437Y-24150D03*
G54D68*
X54605Y-16400D03*
G54D69*
X53069Y-16400D03*
G54D68*
X54605Y-15900D03*
G54D69*
X53069Y-15900D03*
X54605Y-15400D03*
X53069Y-15400D03*
X54605Y-14900D03*
G54D68*
X53069Y-14900D03*
X54605Y-14400D03*
G54D69*
X53069Y-14400D03*
G54D70*
X56037Y-37400D03*
X56037Y-7300D03*
X10237Y-7300D03*
X56037Y-7300D03*
X10237Y-7300D03*
X10237Y-37400D03*
G54D71*
X58537Y-21500D03*
X58537Y-21756D03*
X58537Y-21244D03*
X58537Y-22012D03*
X58537Y-20988D03*
G54D72*
X58537Y-22760D03*
X58537Y-20240D03*
G54D73*
X59580Y-22996D03*
X59580Y-20004D03*
G54D74*
X59580Y-21953D03*
X59580Y-21047D03*
G54D71*
X58537Y-17000D03*
X58537Y-17256D03*
X58537Y-16744D03*
X58537Y-17512D03*
X58537Y-16488D03*
G54D72*
X58537Y-18260D03*
X58537Y-15740D03*
G54D73*
X59580Y-18496D03*
X59580Y-15504D03*
G54D74*
X59580Y-17453D03*
X59580Y-16547D03*
G54D71*
X58537Y-12500D03*
X58537Y-12756D03*
X58537Y-12244D03*
X58537Y-13012D03*
X58537Y-11988D03*
G54D72*
X58537Y-13760D03*
X58537Y-11240D03*
G54D73*
X59580Y-13996D03*
X59580Y-11004D03*
G54D74*
X59580Y-12953D03*
X59580Y-12047D03*
G54D75*
X8837Y-10450D03*
X8837Y-20450D03*
G54D37*
X9837Y-13300D03*
G54D38*
X9837Y-14400D03*
X9837Y-15500D03*
X9837Y-16550D03*
X9837Y-17650D03*
X8837Y-17100D03*
X8837Y-16000D03*
X8837Y-14950D03*
X8837Y-13850D03*
G54D76*
X56235Y-25400D03*
X58439Y-25400D03*
G54D67*
X11537Y-19500D03*
X54637Y-10900D03*
G54D77*
X43537Y-27200D03*
G54D78*
X44775Y-9525D03*
X44775Y-10625D03*
G54D79*
X15587Y-21100D03*
X14487Y-21100D03*
G54D50*
X48537Y-16604D03*
X48537Y-17196D03*
G54D78*
X19137Y-13450D03*
X19137Y-12350D03*
X44937Y-15850D03*
X44937Y-14750D03*
G54D44*
X40625Y-15425D03*
X40125Y-15425D03*
G54D80*
X30589Y-9700D03*
X31887Y-9700D03*
X34489Y-11300D03*
X35787Y-11300D03*
X38289Y-11800D03*
X39587Y-11800D03*
G54D78*
X47037Y-17450D03*
X47037Y-16350D03*
G54D81*
X56437Y-34375D03*
X56437Y-31225D03*
G54D82*
X50092Y-9753D03*
X48086Y-9753D03*
G54D83*
X48175Y-11190D03*
X48175Y-13196D03*
G54D82*
X48122Y-14475D03*
X50128Y-14475D03*
M02*
