M48
;DRILL file {Pcbnew (2013-07-07 BZR 4022)-stable} date 07/08/2014 18:27:22
;FORMAT={-:-/ absolute / inch / decimal}
FMAT,2
INCH,TZ
T1C0.010
T2C0.035
T3C0.039
T4C0.040
T5C0.060
T6C0.063
T7C0.079
T8C0.098
T9C0.120
T10C0.128
T11C0.157
%
G90
G05
M72
T1
X0.6387Y2.1775
X0.7087Y1.7575
X0.7187Y2.5875
X0.7587Y1.3275
X0.7587Y1.3675
X0.7587Y1.7575
X0.7587Y2.5875
X0.8087Y1.7575
X0.8187Y2.2875
X0.8187Y2.7175
X0.8187Y3.0275
X0.8187Y3.1675
X0.8187Y3.3675
X0.8187Y3.4875
X0.8287Y2.1975
X0.8287Y2.4675
X0.8287Y2.5375
X0.8287Y2.9075
X0.8387Y1.3275
X0.8387Y1.3675
X0.8587Y0.8875
X0.8587Y0.9275
X0.8587Y2.8175
X0.8587Y2.8575
X1.02Y0.94
X1.0287Y2.9075
X1.0287Y2.9575
X1.0287Y3.0075
X1.0387Y1.6575
X1.0387Y1.6975
X1.0587Y1.8375
X1.0587Y1.8875
X1.075Y0.94
X1.0787Y2.0175
X1.1087Y1.8375
X1.1087Y1.8875
X1.1187Y1.6175
X1.1287Y1.4775
X1.1287Y1.5075
X1.1287Y2.4475
X1.14Y1.135
X1.14Y1.175
X1.14Y1.215
X1.1587Y1.6175
X1.1987Y3.1475
X1.2087Y2.4575
X1.2087Y2.4975
X1.2087Y2.7675
X1.2387Y1.6175
X1.2437Y1.8375
X1.26Y3.19
X1.265Y0.72
X1.2887Y1.8375
X1.3087Y1.0675
X1.3187Y1.6675
X1.325Y2.8
X1.3387Y2.4075
X1.3387Y3.6475
X1.3587Y2.6475
X1.3687Y1.6675
X1.37Y3.075
X1.3787Y0.9475
X1.3787Y2.4075
X1.39Y2.8
X1.405Y3.065
X1.44Y3.065
X1.475Y3.065
X1.4787Y2.5775
X1.485Y2.535
X1.4887Y2.9175
X1.4887Y2.9675
X1.4987Y2.6975
X1.5087Y3.0675
X1.5087Y3.3475
X1.5287Y2.4375
X1.5387Y1.3275
X1.555Y3.65
X1.5787Y1.3275
X1.6387Y2.6575
X1.6487Y2.7875
X1.6487Y2.9975
X1.6587Y0.8663
X1.6587Y2.5775
X1.6687Y2.7175
X1.6787Y2.6575
X1.6787Y2.8875
X1.685Y1.035
X1.6887Y2.4275
X1.6987Y2.5975
X1.6987Y3.1775
X1.6987Y3.2275
X1.705Y1.21
X1.7187Y1.2975
X1.7187Y2.7875
X1.7187Y2.9975
X1.7287Y2.7225
X1.7387Y1.0675
X1.7387Y2.5975
X1.7587Y2.7875
X1.7587Y2.9975
X1.7687Y2.7225
X1.7887Y1.0675
X1.8037Y2.8275
X1.8037Y2.8875
X1.8087Y2.4075
X1.8087Y2.7075
X1.8287Y2.6775
X1.8387Y2.5575
X1.8587Y2.6975
X1.8687Y3.0075
X1.8687Y3.6775
X1.8987Y1.1875
X1.8987Y1.3325
X1.8987Y2.6975
X1.9187Y1.2975
X1.9187Y3.2575
X1.92Y1.705
X1.9287Y2.7175
X1.9287Y3.1075
X1.9287Y3.5675
X1.9587Y2.8275
X1.9587Y2.8875
X1.9687Y2.9275
X1.9987Y2.5025
X1.9987Y2.5375
X1.9987Y3.0875
X2.0087Y2.8975
X2.0087Y2.9375
X2.025Y1.805
X2.04Y3.615
X2.0587Y1.3275
X2.0587Y3.3875
X2.07Y1.665
X2.0787Y0.9775
X2.0887Y2.5175
X2.1037Y2.5775
X2.1087Y2.8675
X2.11Y1.665
X2.115Y1.215
X2.1187Y1.3325
X2.1187Y2.7475
X2.135Y1.965
X2.15Y1.665
X2.1587Y1.3175
X2.1587Y2.4475
X2.1787Y1.2275
X2.1787Y3.0075
X2.1887Y2.4275
X2.1887Y3.2475
X2.19Y1.665
X2.2187Y2.4475
X2.2287Y3.3975
X2.2387Y2.8675
X2.2387Y2.9975
X2.2587Y2.4475
X2.2687Y3.6475
X2.2787Y0.9675
X2.2987Y2.4475
X2.305Y1.78
X2.33Y2.685
X2.335Y1.895
X2.3387Y1.2975
X2.3387Y3.4675
X2.34Y2.445
X2.3487Y1.3325
X2.35Y2.585
X2.3687Y3.1975
X2.3737Y2.7025
X2.3787Y3.3075
X2.38Y3.14
X2.39Y2.585
X2.42Y2.25
X2.44Y1.98
X2.45Y3.35
X2.4687Y0.9675
X2.4687Y1.3275
X2.4687Y1.8575
X2.4687Y1.8975
X2.4787Y2.6075
X2.485Y1.675
X2.4887Y1.1775
X2.4887Y2.4475
X2.5Y3.365
X2.5087Y3.4375
X2.5087Y3.4975
X2.5187Y2.4675
X2.545Y1.675
X2.545Y1.72
X2.57Y2.74
X2.5787Y1.3275
X2.5987Y1.8375
X2.6087Y1.9175
X2.6087Y1.9575
X2.61Y2.42
X2.62Y2.985
X2.62Y3.02
X2.6237Y2.2525
X2.625Y2.475
X2.625Y2.515
X2.6287Y2.1575
X2.645Y1.235
X2.6587Y3.1975
X2.6687Y1.3275
X2.6687Y3.3025
X2.6787Y3.4425
X2.6887Y2.5775
X2.6887Y2.6475
X2.6987Y2.7875
X2.6987Y3.1975
X2.7087Y1.0675
X2.715Y1.2
X2.7387Y2.6375
X2.7387Y3.4425
X2.7437Y3.1925
X2.7687Y1.7075
X2.7687Y2.3675
X2.7837Y3.1925
X2.7887Y1.9275
X2.7887Y3.2975
X2.7937Y3.5425
X2.7987Y3.4775
X2.8087Y1.7875
X2.8087Y2.1375
X2.8087Y2.1775
X2.8187Y1.2675
X2.8187Y1.3275
X2.8187Y2.6575
X2.8187Y2.9925
X2.8287Y3.5875
X2.83Y1.73
X2.8387Y1.9875
X2.8487Y2.2875
X2.8487Y2.3275
X2.8487Y2.3675
X2.8487Y2.4075
X2.8487Y3.0175
X2.8587Y1.8875
X2.8587Y1.9575
X2.8587Y2.4475
X2.8587Y2.4875
X2.86Y1.7
X2.8637Y2.9425
X2.8687Y0.9775
X2.8787Y1.9975
X2.8787Y2.1275
X2.8787Y2.3875
X2.8787Y2.7875
X2.88Y1.765
X2.8837Y2.9975
X2.8987Y1.7075
X2.8987Y1.9575
X2.9087Y2.2775
X2.9087Y2.6375
X2.9187Y2.7875
X2.9337Y3.0575
X2.9387Y3.1925
X2.9487Y1.8875
X2.9487Y3.2975
X2.9487Y3.3875
X2.9487Y3.4475
X2.9487Y3.4875
X2.9687Y1.8475
X2.9787Y1.1875
X2.9787Y2.2675
X3.0187Y1.3175
X3.0187Y1.9575
X3.0287Y2.2275
X3.0287Y2.6375
X3.0387Y3.1675
X3.0487Y2.4325
X3.0487Y2.6075
X3.0587Y1.9675
X3.0587Y2.5275
X3.0587Y3.3675
X3.0687Y2.8075
X3.0737Y3.3075
X3.0787Y2.0775
X3.0787Y2.3075
X3.0787Y2.8625
X3.0887Y3.0275
X3.0987Y2.5275
X3.0987Y2.7275
X3.1037Y1.9175
X3.1087Y3.1675
X3.11Y1.465
X3.11Y1.525
X3.1187Y2.3675
X3.1387Y1.8875
X3.1387Y2.3075
X3.1487Y3.1675
X3.155Y2.53
X3.1587Y2.3875
X3.1587Y2.8175
X3.1637Y3.0225
X3.1787Y2.8775
X3.1887Y2.8375
X3.2087Y3.3775
X3.2137Y3.1525
X3.2187Y2.1275
X3.2237Y3.0275
X3.2587Y2.0475
X3.2587Y2.3875
X3.2587Y2.8775
X3.2587Y3.7075
X3.2687Y2.6775
X3.2687Y2.7175
X3.2787Y1.1875
X3.2787Y2.5025
X3.28Y1.705
X3.28Y2.595
X3.295Y2.11
X3.2987Y2.3675
X3.2987Y2.8775
X3.3087Y1.9875
X3.3087Y2.7275
X3.3187Y1.5375
X3.3187Y1.8975
X3.325Y2.19
X3.3287Y1.7075
X3.3287Y2.6675
X3.3387Y2.5675
X3.3387Y2.7775
X3.3387Y2.8775
X3.3487Y3.1475
X3.355Y2.305
X3.3587Y2.0575
X3.36Y2.155
X3.3787Y2.8775
X3.3887Y0.9875
X3.3887Y2.1275
X3.3887Y2.5075
X3.3887Y2.5725
X3.3987Y1.4475
X3.3987Y2.3475
X3.4087Y1.9475
X3.4287Y3.1525
X3.4337Y2.5725
X3.4387Y1.8775
X3.4587Y2.8275
X3.4587Y2.8875
X3.4687Y2.1875
X3.4687Y3.1525
X3.4787Y2.1275
X3.4987Y2.4375
X3.5087Y2.8875
X3.5087Y3.1525
X3.5337Y2.1525
X3.5387Y1.9125
X3.5387Y2.3375
X3.5387Y2.3825
X3.5387Y2.6175
X3.5387Y3.3875
X3.5487Y3.1525
X3.5687Y1.4475
X3.5737Y2.1125
X3.5787Y1.4975
X3.5787Y2.4475
X3.5787Y3.5875
X3.5837Y3.1525
X3.5987Y2.4175
X3.6087Y3.3075
X3.6187Y2.3475
X3.6287Y3.1475
X3.6387Y1.6475
X3.6387Y2.1525
X3.64Y2.3
X3.6487Y3.3075
X3.6587Y2.9825
X3.6687Y3.1475
X3.6737Y2.0475
X3.6787Y2.3075
X3.6787Y2.3425
X3.6787Y2.6675
X3.6837Y2.1075
X3.6887Y1.5975
X3.6987Y1.4875
X3.6987Y2.8975
X3.7087Y1.8475
X3.7087Y2.3575
X3.7087Y2.5875
X3.7137Y2.0025
X3.7187Y2.6275
X3.7187Y3.4975
X3.72Y2.155
X3.72Y2.55
X3.7262Y3.29
X3.7287Y2.3875
X3.7287Y2.7375
X3.735Y2.97
X3.7387Y2.6675
X3.7437Y1.8275
X3.745Y2.525
X3.7487Y2.3175
X3.7487Y2.3575
X3.7487Y2.7075
X3.7487Y2.8275
X3.7487Y2.9375
X3.7487Y3.3675
X3.7537Y2.0025
X3.7687Y3.2675
X3.77Y2.55
X3.7787Y1.9375
X3.7887Y1.4675
X3.7887Y2.1075
X3.7987Y2.0025
X3.7987Y3.0475
X3.8187Y1.6375
X3.8287Y2.1175
X3.8287Y2.1575
X3.835Y3.04
X3.8387Y2.2275
X3.8387Y2.2875
X3.8487Y3.3975
X3.8787Y2.9475
X3.8787Y2.9875
X3.8787Y3.1675
X3.8787Y3.3775
X3.8887Y2.6375
X3.8887Y2.6775
X3.8887Y2.8475
X3.8987Y2.7575
X3.9037Y2.1925
X3.9037Y2.72
X3.9187Y2.2525
X3.9187Y3.1275
X3.9187Y3.4875
X3.9237Y2.3325
X3.9287Y2.0875
X3.9287Y2.6375
X3.9387Y2.7575
X3.9387Y3.3675
X3.9437Y1.8425
X3.9487Y3.1025
X3.9587Y1.4575
X3.9587Y2.6975
X3.9587Y3.2975
X3.9637Y2.6375
X3.9687Y3.2575
X3.9687Y3.4875
X3.9787Y2.9175
X3.9787Y2.9575
X3.9837Y3.0575
X3.9987Y2.6375
X4.0187Y3.5675
X4.0237Y3.6225
X4.0487Y1.4275
X4.0687Y1.4675
X4.0687Y1.8375
X4.0987Y2.7175
X4.0987Y2.9175
X4.1087Y3.0675
X4.1087Y3.4075
X4.1187Y2.7775
X4.1287Y2.0775
X4.1287Y2.9675
X4.1287Y3.0975
X4.1287Y3.1975
X4.1287Y3.2525
X4.1287Y3.3775
X4.1337Y2.0175
X4.1387Y2.7175
X4.1437Y1.9175
X4.1587Y1.6075
X4.1687Y3.2375
X4.1687Y3.5475
X4.1737Y3.1975
X4.1787Y2.4025
X4.1787Y2.6175
X4.1887Y1.4675
X4.2087Y1.8175
X4.2087Y3.2775
X4.2287Y2.4375
X4.2387Y2.1675
X4.2387Y2.7275
X4.2387Y3.4475
X4.2487Y1.5875
X4.2487Y3.6575
X4.2587Y2.6375
X4.2737Y2.9075
X4.2787Y3.0175
X4.2887Y3.0575
X4.2987Y3.6875
X4.3087Y1.4175
X4.3137Y3.025
X4.3287Y2.3075
X4.3287Y2.3475
X4.3287Y2.4075
X4.3287Y3.1425
X4.3287Y3.4575
X4.3487Y2.9275
X4.3487Y2.9675
X4.3487Y3.3575
X4.3587Y2.2275
X4.3687Y1.4175
X4.3687Y3.1425
X4.3787Y2.6575
X4.3787Y2.6975
X4.3787Y2.7375
X4.4087Y3.1425
X4.4187Y3.1775
X4.4187Y3.2875
X4.4187Y3.6775
X4.4287Y2.0875
X4.4587Y2.6675
X4.4787Y2.0875
X4.4787Y2.3775
X4.4887Y1.4075
X4.4987Y2.4675
X4.4987Y2.6675
X4.5087Y0.9875
X4.5237Y2.5475
X4.5287Y1.9775
X4.5287Y3.5675
X4.5387Y3.5275
X4.5387Y3.6575
X4.5487Y3.0975
X4.5487Y3.3675
X4.5537Y3.0275
X4.5587Y2.0075
X4.5587Y3.4875
X4.5637Y3.1775
X4.5637Y3.4075
X4.5687Y2.7675
X4.5687Y3.2175
X4.5687Y3.4475
X4.5787Y2.8275
X4.5787Y2.8675
X4.5787Y2.9075
X4.5787Y3.3175
X4.5887Y2.3425
X4.5887Y3.3675
X4.5987Y3.6575
X4.6087Y3.1475
X4.6187Y2.9575
X4.6233Y2.3021
X4.6287Y1.2175
X4.6287Y1.6375
X4.6287Y1.7275
X4.6287Y1.9475
X4.6287Y2.2225
X4.6287Y2.7175
X4.6587Y1.5475
X4.6587Y2.8575
X4.6587Y3.1475
X4.6687Y2.9575
X4.6737Y2.4825
X4.6737Y3.5275
X4.6787Y2.1775
X4.6787Y2.4175
X4.6887Y3.4075
X4.6887Y3.4675
X4.6987Y1.9575
X4.6987Y2.8675
X4.7087Y1.0275
X4.7187Y2.7275
X4.7187Y3.0275
X4.7337Y2.2825
X4.7337Y2.3425
X4.7387Y3.1575
X4.7487Y3.2075
X4.7587Y2.3125
X4.7587Y2.7475
X4.7587Y2.8675
X4.7587Y3.2975
X4.7778Y1.1066
X4.7787Y1.1875
X4.7887Y2.2825
X4.7887Y2.3425
X4.7937Y3.3025
X4.7987Y0.9375
X4.7987Y0.9875
X4.7987Y2.9375
X4.8187Y1.8875
X4.8187Y1.9275
X4.8187Y3.2075
X4.8287Y3.4675
X4.8387Y0.9075
X4.8387Y1.8575
X4.8387Y2.7175
X4.8387Y3.6325
X4.8487Y2.8775
X4.8687Y1.6875
X4.8687Y1.8375
X4.8787Y2.9675
X4.9087Y1.8375
X4.9087Y2.5575
X4.9187Y2.0675
X4.9187Y2.1575
X4.9187Y2.5075
X4.9187Y3.4775
X4.9287Y2.1175
X4.9487Y1.6875
X4.9487Y1.8375
X4.9487Y2.8675
X4.9587Y2.5625
X4.9887Y2.8275
X4.9887Y3.6775
X5.0187Y3.1175
X5.0187Y3.2975
X5.0287Y1.6875
X5.0487Y1.2275
X5.0487Y2.5175
X5.0687Y2.6975
X5.0887Y2.5175
X5.0987Y3.3525
X5.1087Y1.2375
X5.1087Y1.6775
X5.1087Y2.1875
X5.1087Y3.0175
X5.1287Y2.6975
X5.1287Y2.9275
X5.1387Y2.5475
X5.1487Y2.3075
X5.1587Y2.0475
X5.1887Y2.7875
X5.1887Y2.8275
X5.2287Y2.7275
X5.2287Y3.2175
X5.2787Y1.5875
X5.2887Y1.2775
X5.2887Y3.3375
X5.3287Y2.3175
X5.3287Y2.4075
X5.3587Y1.0275
X5.3687Y2.0075
X5.3787Y1.4875
X5.4187Y1.8175
X5.5787Y0.9475
X5.5787Y1.9875
X5.6087Y1.9175
X5.6787Y1.0175
X5.7587Y2.0275
T2
X5.2187Y1.8125
X5.2187Y1.9125
X5.2187Y2.0125
X5.2187Y2.1125
X5.3187Y1.8625
X5.3187Y1.9625
X5.3187Y2.0625
X5.3187Y2.1625
T3
X3.1571Y1.3192
X3.1571Y1.6192
X3.1571Y1.8192
X3.1571Y2.0192
X3.4571Y1.3192
X3.4571Y1.6192
X3.4571Y1.8192
X3.4571Y2.0192
X3.5812Y1.3192
X3.5812Y1.6192
X3.5812Y1.8192
X3.5812Y2.0192
X3.8812Y1.3192
X3.8812Y1.6192
X3.8812Y1.8192
X3.8812Y2.0192
X4.0087Y1.3175
X4.0087Y1.6175
X4.0087Y1.8175
X4.0087Y2.0175
X4.3087Y1.3175
X4.3087Y1.6175
X4.3087Y1.8175
X4.3087Y2.0175
X4.4287Y1.3175
X4.4287Y1.6175
X4.4287Y1.8175
X4.4287Y2.0175
X4.7287Y1.3175
X4.7287Y1.6175
X4.7287Y1.8175
X4.7287Y2.0175
T4
X1.4387Y2.0325
X1.4387Y2.1325
X1.5387Y2.0325
X1.5387Y2.1325
X1.6387Y2.0325
X1.6387Y2.1325
X1.68Y1.745
X1.68Y1.845
X1.7387Y2.0325
X1.7387Y2.1325
X1.78Y1.745
X1.78Y1.845
X1.8387Y2.0325
X1.8387Y2.1325
X1.88Y1.745
X1.88Y1.845
X1.9387Y2.0325
X1.9387Y2.1325
X1.98Y1.745
X1.98Y1.845
X2.0387Y2.0325
X2.0387Y2.1325
X2.1387Y2.0325
X2.1387Y2.1325
X2.2387Y2.0325
X2.2387Y2.1325
X2.3387Y2.0325
X2.3387Y2.1325
X2.4987Y2.1075
X2.4987Y2.2075
X2.5987Y2.1075
X2.5987Y2.2075
X3.6937Y1.0775
X3.6937Y1.1775
X3.7937Y1.0775
X3.7937Y1.1775
X3.8937Y1.0775
X3.8937Y1.1775
X3.9937Y1.0775
X3.9937Y1.1775
X4.0937Y1.0775
X4.0937Y1.1775
X4.0987Y2.1275
X4.0987Y2.2275
X4.1937Y1.0775
X4.1937Y1.1775
X4.1987Y2.1275
X4.1987Y2.2275
X4.2987Y2.1275
X4.2987Y2.2275
X5.5987Y2.7825
X5.5987Y2.8925
X5.5987Y2.9975
X5.5987Y3.1075
X5.5987Y3.2175
X5.6987Y2.8375
X5.6987Y2.9475
X5.6987Y3.0525
X5.6987Y3.1625
X5.7017Y1.7385
X5.7017Y2.1365
X5.7617Y1.8385
X5.7617Y2.2365
T5
X1.3537Y0.8075
X1.3537Y3.8075
X1.5537Y0.8075
X1.5537Y3.8075
X1.7537Y0.8075
X1.7537Y3.8075
X1.9537Y0.8075
X1.9537Y3.8075
X2.1537Y0.8075
X2.1537Y3.8075
X2.3537Y0.8075
X2.3537Y3.8075
X2.5537Y0.8075
X2.5537Y3.8075
X2.7537Y0.8075
X2.7537Y3.8075
X2.9537Y0.8075
X2.9537Y3.8075
X3.1537Y0.8075
X3.1537Y3.8075
X3.3537Y0.8075
X3.3537Y3.8075
X3.5537Y0.8075
X3.5537Y3.8075
X3.7537Y0.8075
X3.7537Y3.8075
X3.9537Y0.8075
X3.9537Y3.8075
X4.1537Y0.8075
X4.1537Y3.8075
X4.3537Y0.8075
X4.3537Y3.8075
X4.5537Y0.8075
X4.5537Y3.8075
X4.7537Y0.8075
X4.7537Y3.8075
X4.9537Y0.8075
X4.9537Y3.8075
X5.1537Y0.8075
X5.1537Y3.8075
T6
X5.4487Y1.6775
X5.4487Y2.2975
T7
X5.0292Y1.0721
X5.8283Y1.3629
T8
X2.2287Y1.8275
T9
X5.6987Y2.5025
X5.6987Y3.5025
T10
X5.5687Y1.7625
X5.5687Y2.2125
T11
X0.748Y0.8071
X0.748Y3.8091
X1.1187Y3.4575
X5.4287Y2.5975
X5.7579Y0.8071
X5.7579Y3.8091
T0
M30
