G04 #@! TF.FileFunction,Paste,Bot*
%FSLAX46Y46*%
G04 Gerber Fmt 4.6, Leading zero omitted, Abs format (unit mm)*
G04 Created by KiCad (PCBNEW 4.0.6) date Wed May 10 11:08:12 2017*
%MOMM*%
%LPD*%
G01*
G04 APERTURE LIST*
%ADD10C,0.101600*%
%ADD11R,0.300000X0.280000*%
%ADD12R,0.280000X0.300000*%
%ADD13R,1.800000X1.000000*%
%ADD14R,1.000000X1.800000*%
%ADD15R,0.500000X0.500000*%
%ADD16R,2.230000X1.800000*%
%ADD17R,0.800000X0.900000*%
%ADD18R,0.900000X0.800000*%
%ADD19R,0.584200X0.685800*%
%ADD20R,0.685800X0.584200*%
%ADD21R,3.100000X3.300000*%
%ADD22R,2.000000X6.000000*%
%ADD23R,7.300000X2.600000*%
%ADD24R,3.600000X1.800000*%
%ADD25R,1.000000X2.600000*%
%ADD26C,0.762000*%
%ADD27R,0.230000X0.700000*%
%ADD28R,0.525000X0.630000*%
%ADD29R,0.850000X0.280000*%
%ADD30R,0.756000X0.546000*%
%ADD31R,1.300000X1.500000*%
%ADD32R,0.250000X0.700000*%
%ADD33R,0.700000X0.250000*%
%ADD34R,0.901250X0.901250*%
%ADD35R,0.700000X0.875000*%
%ADD36R,0.850000X0.300000*%
%ADD37R,0.300000X0.850000*%
%ADD38R,1.500000X0.600000*%
%ADD39R,1.780000X1.520000*%
%ADD40R,1.350000X0.450000*%
%ADD41R,1.000000X0.800000*%
%ADD42R,0.450000X1.350000*%
%ADD43R,0.850000X0.650000*%
%ADD44R,0.850000X0.250000*%
%ADD45R,3.660000X2.600000*%
%ADD46R,3.540000X2.600000*%
%ADD47R,1.500000X1.200000*%
G04 APERTURE END LIST*
D10*
D11*
X62200000Y-96765000D03*
X62200000Y-96235000D03*
X66000000Y-103165000D03*
X66000000Y-102635000D03*
D12*
X61835000Y-104200000D03*
X62365000Y-104200000D03*
D11*
X65900000Y-100765000D03*
X65900000Y-100235000D03*
X61200000Y-102135000D03*
X61200000Y-102665000D03*
X66800000Y-98635000D03*
X66800000Y-99165000D03*
X61200000Y-91135000D03*
X61200000Y-91665000D03*
D12*
X61165000Y-101300000D03*
X60635000Y-101300000D03*
D11*
X68600000Y-91835000D03*
X68600000Y-92365000D03*
X61200000Y-97335000D03*
X61200000Y-97865000D03*
X61200000Y-100365000D03*
X61200000Y-99835000D03*
X68600000Y-93435000D03*
X68600000Y-93965000D03*
D12*
X62235000Y-97600000D03*
X62765000Y-97600000D03*
D11*
X61200000Y-98235000D03*
X61200000Y-98765000D03*
X67500000Y-96235000D03*
X67500000Y-96765000D03*
X68600000Y-90835000D03*
X68600000Y-91365000D03*
X62700000Y-96235000D03*
X62700000Y-96765000D03*
X68600000Y-99835000D03*
X68600000Y-100365000D03*
X67000000Y-96765000D03*
X67000000Y-96235000D03*
X61200000Y-93435000D03*
X61200000Y-93965000D03*
X68600000Y-101965000D03*
X68600000Y-101435000D03*
X69100000Y-103035000D03*
X69100000Y-103565000D03*
X61200000Y-92235000D03*
X61200000Y-92765000D03*
X68600000Y-103565000D03*
X68600000Y-103035000D03*
D13*
X73400000Y-104900000D03*
X73400000Y-101900000D03*
D11*
X76200000Y-96765000D03*
X76200000Y-96235000D03*
X80000000Y-103165000D03*
X80000000Y-102635000D03*
D12*
X75835000Y-104200000D03*
X76365000Y-104200000D03*
D11*
X80000000Y-100765000D03*
X80000000Y-100235000D03*
X75200000Y-102235000D03*
X75200000Y-102765000D03*
X80800000Y-98635000D03*
X80800000Y-99165000D03*
X75200000Y-91135000D03*
X75200000Y-91665000D03*
D12*
X75165000Y-101300000D03*
X74635000Y-101300000D03*
D11*
X82600000Y-91835000D03*
X82600000Y-92365000D03*
X75200000Y-97335000D03*
X75200000Y-97865000D03*
X75200000Y-100365000D03*
X75200000Y-99835000D03*
X82600000Y-93435000D03*
X82600000Y-93965000D03*
D12*
X76235000Y-97600000D03*
X76765000Y-97600000D03*
D11*
X75200000Y-98235000D03*
X75200000Y-98765000D03*
X81500000Y-96235000D03*
X81500000Y-96765000D03*
X82600000Y-90835000D03*
X82600000Y-91365000D03*
X76700000Y-96235000D03*
X76700000Y-96765000D03*
X82600000Y-99835000D03*
X82600000Y-100365000D03*
X81000000Y-96765000D03*
X81000000Y-96235000D03*
X75200000Y-93435000D03*
X75200000Y-93965000D03*
X82600000Y-101965000D03*
X82600000Y-101435000D03*
X83100000Y-103035000D03*
X83100000Y-103565000D03*
X75200000Y-92235000D03*
X75200000Y-92765000D03*
X82600000Y-103565000D03*
X82600000Y-103035000D03*
D13*
X56100000Y-102200000D03*
X56100000Y-99200000D03*
D11*
X55100000Y-94765000D03*
X55100000Y-94235000D03*
X55100000Y-97435000D03*
X55100000Y-97965000D03*
X68600000Y-98665000D03*
X68600000Y-98135000D03*
X82600000Y-98765000D03*
X82600000Y-98235000D03*
D13*
X124100000Y-74000000D03*
X124100000Y-77000000D03*
D14*
X118600000Y-82000000D03*
X121600000Y-82000000D03*
D11*
X57000000Y-103565000D03*
X57000000Y-103035000D03*
D15*
X59800000Y-102200000D03*
X59800000Y-103200000D03*
X115443000Y-77300000D03*
X115443000Y-78300000D03*
X115600000Y-81900000D03*
X114600000Y-81900000D03*
X116500000Y-81900000D03*
X117500000Y-81900000D03*
D16*
X106426000Y-89090000D03*
X106426000Y-86170000D03*
X112522000Y-89090000D03*
X112522000Y-86170000D03*
X109474000Y-89090000D03*
X109474000Y-86170000D03*
D13*
X124100000Y-71500000D03*
X124100000Y-68500000D03*
X107500000Y-70800000D03*
X107500000Y-67800000D03*
D14*
X111600000Y-48700000D03*
X108600000Y-48700000D03*
X118500000Y-42600000D03*
X121500000Y-42600000D03*
D15*
X113900000Y-59100000D03*
X112900000Y-59100000D03*
X124600000Y-62500000D03*
X123600000Y-62500000D03*
X112900000Y-57500000D03*
X113900000Y-57500000D03*
X124579000Y-65100000D03*
X123579000Y-65100000D03*
X112900000Y-59800000D03*
X113900000Y-59800000D03*
X124600000Y-63300000D03*
X123600000Y-63300000D03*
D11*
X115500000Y-56065000D03*
X115500000Y-55535000D03*
D12*
X119965000Y-64200000D03*
X119435000Y-64200000D03*
D15*
X124600000Y-57900000D03*
X123600000Y-57900000D03*
X112900000Y-62400000D03*
X113900000Y-62400000D03*
D17*
X125250000Y-60400000D03*
X123750000Y-60400000D03*
D15*
X124600000Y-55600000D03*
X123600000Y-55600000D03*
X113900000Y-64800000D03*
X112900000Y-64800000D03*
D17*
X125250000Y-61500000D03*
X123750000Y-61500000D03*
D15*
X124600000Y-57200000D03*
X123600000Y-57200000D03*
X113900000Y-63200000D03*
X112900000Y-63200000D03*
D12*
X121465000Y-55800000D03*
X120935000Y-55800000D03*
X117435000Y-64200000D03*
X117965000Y-64200000D03*
X106161000Y-97155000D03*
X106691000Y-97155000D03*
X106161000Y-96647000D03*
X106691000Y-96647000D03*
X110465000Y-90400000D03*
X109935000Y-90400000D03*
X108935000Y-100900000D03*
X109465000Y-100900000D03*
D15*
X51600000Y-114000000D03*
X50600000Y-114000000D03*
X46200000Y-117100000D03*
X45200000Y-117100000D03*
D12*
X108265000Y-72100000D03*
X107735000Y-72100000D03*
X105844757Y-72100000D03*
X106374757Y-72100000D03*
X97065000Y-70400000D03*
X96535000Y-70400000D03*
X98535000Y-70400000D03*
X99065000Y-70400000D03*
X97065000Y-65900000D03*
X96535000Y-65900000D03*
X98535000Y-65900000D03*
X99065000Y-65900000D03*
D15*
X51689000Y-80399000D03*
X51689000Y-81399000D03*
X51689000Y-82939000D03*
X51689000Y-83939000D03*
X51689000Y-85479000D03*
X51689000Y-86479000D03*
X49400000Y-90300000D03*
X50400000Y-90300000D03*
D12*
X48835000Y-94700000D03*
X49365000Y-94700000D03*
X45435000Y-98500000D03*
X45965000Y-98500000D03*
X49865000Y-91000000D03*
X49335000Y-91000000D03*
X45135000Y-91000000D03*
X45665000Y-91000000D03*
D13*
X79700000Y-70500000D03*
X79700000Y-67500000D03*
D16*
X83700000Y-71260000D03*
X83700000Y-68340000D03*
D13*
X75500000Y-70500000D03*
X75500000Y-67500000D03*
D16*
X93700000Y-71260000D03*
X93700000Y-68340000D03*
D13*
X65800000Y-60600000D03*
X65800000Y-63600000D03*
D16*
X87700000Y-71260000D03*
X87700000Y-68340000D03*
X90700000Y-71260000D03*
X90700000Y-68340000D03*
D13*
X78700000Y-72600000D03*
X78700000Y-75600000D03*
X74500000Y-72600000D03*
X74500000Y-75600000D03*
D14*
X74200000Y-65100000D03*
X77200000Y-65100000D03*
X80500000Y-82900000D03*
X77500000Y-82900000D03*
X87200000Y-73300000D03*
X90200000Y-73300000D03*
D12*
X79965000Y-77100000D03*
X79435000Y-77100000D03*
X78435000Y-78100000D03*
X78965000Y-78100000D03*
D14*
X69200000Y-62100000D03*
X72200000Y-62100000D03*
D15*
X96200000Y-80200000D03*
X97200000Y-80200000D03*
X94000000Y-78900000D03*
X94000000Y-77900000D03*
X98600000Y-79300000D03*
X98600000Y-80300000D03*
X94000000Y-76100000D03*
X94000000Y-77100000D03*
D11*
X81700000Y-74365000D03*
X81700000Y-73835000D03*
D18*
X55900000Y-116450000D03*
X55900000Y-114950000D03*
D11*
X97100000Y-89535000D03*
X97100000Y-90065000D03*
X96266000Y-90816000D03*
X96266000Y-90286000D03*
D12*
X101992000Y-89281000D03*
X101462000Y-89281000D03*
D11*
X99700000Y-90335000D03*
X99700000Y-90865000D03*
D15*
X107800000Y-40400000D03*
X107800000Y-39400000D03*
D11*
X98425000Y-94880000D03*
X98425000Y-94350000D03*
X100965000Y-94880000D03*
X100965000Y-94350000D03*
D15*
X110500000Y-41300000D03*
X110500000Y-42300000D03*
D11*
X105900000Y-101365000D03*
X105900000Y-100835000D03*
X106800000Y-106365000D03*
X106800000Y-105835000D03*
X96900000Y-92965000D03*
X96900000Y-92435000D03*
D19*
X75055000Y-111700000D03*
X72945000Y-111700000D03*
D20*
X63100000Y-75155000D03*
X63100000Y-73045000D03*
X98500000Y-78355000D03*
X98500000Y-76245000D03*
D19*
X60255000Y-116200000D03*
X58145000Y-116200000D03*
D20*
X94900000Y-90955000D03*
X94900000Y-88845000D03*
D17*
X46950000Y-115700000D03*
X48450000Y-115700000D03*
X35929000Y-48387000D03*
X34429000Y-48387000D03*
X35929000Y-56896000D03*
X34429000Y-56896000D03*
D18*
X54600000Y-114950000D03*
X54600000Y-116450000D03*
X103300000Y-93850000D03*
X103300000Y-95350000D03*
X101981000Y-93865000D03*
X101981000Y-95365000D03*
X97409000Y-95365000D03*
X97409000Y-93865000D03*
D21*
X113246000Y-78740000D03*
X102146000Y-78740000D03*
D22*
X113450000Y-52900000D03*
X109150000Y-52900000D03*
D23*
X119200000Y-67150000D03*
X119200000Y-71850000D03*
D24*
X120015000Y-53903000D03*
X120015000Y-44903000D03*
D22*
X114050000Y-69100000D03*
X109750000Y-69100000D03*
D15*
X72700000Y-77100000D03*
X73700000Y-77100000D03*
X70700000Y-77100000D03*
X71700000Y-77100000D03*
X56000000Y-91400000D03*
X57000000Y-91400000D03*
X56000000Y-94600000D03*
X57000000Y-94600000D03*
X56000000Y-93000000D03*
X57000000Y-93000000D03*
X56000000Y-90600000D03*
X57000000Y-90600000D03*
X56000000Y-92200000D03*
X57000000Y-92200000D03*
X56000000Y-96200000D03*
X57000000Y-96200000D03*
X56000000Y-89800000D03*
X57000000Y-89800000D03*
X56000000Y-93800000D03*
X57000000Y-93800000D03*
X56000000Y-97000000D03*
X57000000Y-97000000D03*
X56000000Y-97800000D03*
X57000000Y-97800000D03*
X56000000Y-95400000D03*
X57000000Y-95400000D03*
X57500000Y-98600000D03*
X57500000Y-99600000D03*
X75800000Y-94900000D03*
X74800000Y-94900000D03*
X61800000Y-94900000D03*
X60800000Y-94900000D03*
X58800000Y-104700000D03*
X57800000Y-104700000D03*
X122500000Y-73900000D03*
X121500000Y-73900000D03*
X119400000Y-73900000D03*
X120400000Y-73900000D03*
X118483000Y-73914000D03*
X117483000Y-73914000D03*
X115443000Y-80100000D03*
X115443000Y-79100000D03*
X114600000Y-81100000D03*
X115600000Y-81100000D03*
X102400000Y-102400000D03*
X102400000Y-103400000D03*
X115600000Y-82700000D03*
X114600000Y-82700000D03*
X117500000Y-82700000D03*
X116500000Y-82700000D03*
X95800000Y-107000000D03*
X96800000Y-107000000D03*
X112900000Y-58293000D03*
X113900000Y-58293000D03*
X124600000Y-64200000D03*
X123600000Y-64200000D03*
X110000000Y-56500000D03*
X111000000Y-56500000D03*
X111900000Y-56500000D03*
X112900000Y-56500000D03*
X123600000Y-67200000D03*
X123600000Y-66200000D03*
X124600000Y-66200000D03*
X124600000Y-67200000D03*
X124600000Y-56400000D03*
X123600000Y-56400000D03*
X112900000Y-64000000D03*
X113900000Y-64000000D03*
X123600000Y-58700000D03*
X124600000Y-58700000D03*
X113900000Y-60600000D03*
X112900000Y-60600000D03*
X112900000Y-61500000D03*
X113900000Y-61500000D03*
X123900000Y-53400000D03*
X123900000Y-54400000D03*
X124800000Y-54400000D03*
X124800000Y-53400000D03*
X110200000Y-65500000D03*
X111200000Y-65500000D03*
X112100000Y-64600000D03*
X112100000Y-65600000D03*
X124079000Y-93200000D03*
X124079000Y-94200000D03*
X70000000Y-112700000D03*
X69000000Y-112700000D03*
X65700000Y-74100000D03*
X64700000Y-74100000D03*
X71700000Y-65100000D03*
X71700000Y-64100000D03*
X45200000Y-115200000D03*
X45200000Y-116200000D03*
X46000000Y-116200000D03*
X46000000Y-115200000D03*
D13*
X41275000Y-84050000D03*
X41275000Y-81050000D03*
X41275000Y-89130000D03*
X41275000Y-86130000D03*
X41275000Y-94083000D03*
X41275000Y-91083000D03*
X41275000Y-98782000D03*
X41275000Y-95782000D03*
D15*
X67700000Y-63100000D03*
X67700000Y-64100000D03*
X47100000Y-55400000D03*
X46100000Y-55400000D03*
X96800000Y-86000000D03*
X96800000Y-87000000D03*
X87700000Y-78100000D03*
X87700000Y-77100000D03*
X100300000Y-75300000D03*
X99300000Y-75300000D03*
X82700000Y-73100000D03*
X82700000Y-74100000D03*
X81700000Y-75100000D03*
X82700000Y-75100000D03*
X96266000Y-92083000D03*
X96266000Y-93083000D03*
X107900000Y-103100000D03*
X107900000Y-102100000D03*
X107000000Y-103100000D03*
X107000000Y-102100000D03*
X112100000Y-42300000D03*
X113100000Y-42300000D03*
X94600000Y-108900000D03*
X93600000Y-108900000D03*
X94600000Y-108000000D03*
X93600000Y-108000000D03*
X82700000Y-66100000D03*
X82700000Y-65100000D03*
X83700000Y-63100000D03*
X82700000Y-63100000D03*
D25*
X111500000Y-45900000D03*
X108500000Y-45900000D03*
D26*
X51700000Y-100300000D03*
X114600000Y-56500000D03*
X49900000Y-100300000D03*
D27*
X57500000Y-103750000D03*
X57900000Y-103750000D03*
X58300000Y-103750000D03*
X58700000Y-103750000D03*
X59100000Y-103750000D03*
X57500000Y-101650000D03*
X57900000Y-101650000D03*
X58300000Y-101650000D03*
X58700000Y-101650000D03*
X59100000Y-101650000D03*
D28*
X57925000Y-102700000D03*
X58675000Y-102700000D03*
D29*
X121975000Y-77597000D03*
X121975000Y-78097000D03*
X121975000Y-78597000D03*
X121975000Y-79097000D03*
X121975000Y-79597000D03*
X121975000Y-80097000D03*
X121975000Y-77097000D03*
X121975000Y-76597000D03*
X121975000Y-76097000D03*
X121975000Y-75597000D03*
X121975000Y-75097000D03*
X117025000Y-80097000D03*
X117025000Y-79597000D03*
X117025000Y-79097000D03*
X117025000Y-78597000D03*
X117025000Y-78097000D03*
X117025000Y-77597000D03*
X117025000Y-77097000D03*
X117025000Y-76597000D03*
X117025000Y-76097000D03*
X117025000Y-75597000D03*
X117025000Y-75097000D03*
D30*
X120580000Y-79937000D03*
X119500000Y-79937000D03*
X118420000Y-79937000D03*
X120580000Y-79157000D03*
X120580000Y-78377000D03*
X120580000Y-77597000D03*
X120580000Y-76817000D03*
X120580000Y-76037000D03*
X120580000Y-75257000D03*
X119500000Y-75257000D03*
X119500000Y-76037000D03*
X119500000Y-76817000D03*
X119500000Y-77597000D03*
X119500000Y-78377000D03*
X119500000Y-79157000D03*
X118420000Y-79157000D03*
X118420000Y-78377000D03*
X118420000Y-77597000D03*
X118420000Y-76817000D03*
X118420000Y-76037000D03*
X118420000Y-75257000D03*
D31*
X91800000Y-102830000D03*
X91800000Y-105370000D03*
X100800000Y-102830000D03*
X100800000Y-105370000D03*
D32*
X115950000Y-56600000D03*
X116450000Y-56600000D03*
X116950000Y-56600000D03*
X117450000Y-56600000D03*
X117950000Y-56600000D03*
X118450000Y-56600000D03*
X118950000Y-56600000D03*
X119450000Y-56600000D03*
X119950000Y-56600000D03*
X120450000Y-56600000D03*
X120950000Y-56600000D03*
X121450000Y-56600000D03*
D33*
X122100000Y-57250000D03*
X122100000Y-57750000D03*
X122100000Y-58250000D03*
X122100000Y-58750000D03*
X122100000Y-59250000D03*
X122100000Y-59750000D03*
X122100000Y-60250000D03*
X122100000Y-60750000D03*
X122100000Y-61250000D03*
X122100000Y-61750000D03*
X122100000Y-62250000D03*
X122100000Y-62750000D03*
D32*
X121450000Y-63400000D03*
X120950000Y-63400000D03*
X120450000Y-63400000D03*
X119950000Y-63400000D03*
X119450000Y-63400000D03*
X118950000Y-63400000D03*
X118450000Y-63400000D03*
X117950000Y-63400000D03*
X117450000Y-63400000D03*
X116950000Y-63400000D03*
X116450000Y-63400000D03*
X115950000Y-63400000D03*
D33*
X115300000Y-62750000D03*
X115300000Y-62250000D03*
X115300000Y-61750000D03*
X115300000Y-61250000D03*
X115300000Y-60750000D03*
X115300000Y-60250000D03*
X115300000Y-59750000D03*
X115300000Y-59250000D03*
X115300000Y-58750000D03*
X115300000Y-58250000D03*
X115300000Y-57750000D03*
X115300000Y-57250000D03*
D34*
X120631250Y-61931250D03*
X119343750Y-61931250D03*
X118056250Y-61931250D03*
X116768750Y-61931250D03*
X120631250Y-60643750D03*
X119343750Y-60643750D03*
X118056250Y-60643750D03*
X116768750Y-60643750D03*
X120631250Y-59356250D03*
X119343750Y-59356250D03*
X118056250Y-59356250D03*
X116768750Y-59356250D03*
X120631250Y-58068750D03*
X119343750Y-58068750D03*
X118056250Y-58068750D03*
X116768750Y-58068750D03*
D35*
X109720000Y-97506000D03*
D36*
X110945000Y-95631000D03*
X110945000Y-96131000D03*
X110945000Y-96631000D03*
X110945000Y-97131000D03*
X110945000Y-97631000D03*
X110945000Y-98131000D03*
X110945000Y-98631000D03*
X110945000Y-99131000D03*
X110945000Y-99631000D03*
X110945000Y-95131000D03*
X110945000Y-94631000D03*
X110945000Y-94131000D03*
X110945000Y-93631000D03*
X110945000Y-93131000D03*
X110945000Y-92631000D03*
X110945000Y-92131000D03*
X110945000Y-91631000D03*
X107495000Y-95631000D03*
X107495000Y-95131000D03*
X107495000Y-94631000D03*
X107495000Y-94131000D03*
X107495000Y-93631000D03*
X107495000Y-93131000D03*
X107495000Y-92631000D03*
X107495000Y-92131000D03*
X107495000Y-91631000D03*
X107495000Y-96131000D03*
X107495000Y-96631000D03*
X107495000Y-97131000D03*
X107495000Y-97631000D03*
X107495000Y-98131000D03*
X107495000Y-98631000D03*
X107495000Y-99131000D03*
X107495000Y-99631000D03*
D37*
X109970000Y-100106000D03*
X109470000Y-100106000D03*
X108970000Y-100106000D03*
X108470000Y-100106000D03*
X109970000Y-91156000D03*
X109470000Y-91156000D03*
X108970000Y-91156000D03*
X108470000Y-91156000D03*
D35*
X109720000Y-96256000D03*
X109720000Y-98756000D03*
X108720000Y-98756000D03*
X108720000Y-97506000D03*
X108720000Y-96256000D03*
X108720000Y-95006000D03*
X108720000Y-93756000D03*
X108720000Y-92506000D03*
X109720000Y-92506000D03*
X109720000Y-93756000D03*
X109720000Y-95006000D03*
D38*
X44925000Y-89154000D03*
X44925000Y-87884000D03*
X44925000Y-86614000D03*
X44925000Y-85344000D03*
X44925000Y-84074000D03*
X44925000Y-82804000D03*
X44925000Y-81534000D03*
X44925000Y-80264000D03*
X50325000Y-80264000D03*
X50325000Y-81534000D03*
X50325000Y-82804000D03*
X50325000Y-84074000D03*
X50325000Y-85344000D03*
X50325000Y-86614000D03*
X50325000Y-87884000D03*
X50325000Y-89154000D03*
D39*
X41460000Y-56938000D03*
X41460000Y-66462000D03*
X44000000Y-66462000D03*
X46540000Y-66462000D03*
X46540000Y-56938000D03*
X44000000Y-56938000D03*
X41460000Y-68638000D03*
X41460000Y-78162000D03*
X44000000Y-78162000D03*
X46540000Y-78162000D03*
X46540000Y-68638000D03*
X44000000Y-68638000D03*
D40*
X49375000Y-97475000D03*
X49375000Y-96825000D03*
X49375000Y-96175000D03*
X49375000Y-95525000D03*
X45425000Y-97475000D03*
X45425000Y-96825000D03*
X45425000Y-96175000D03*
X45425000Y-95525000D03*
X45425000Y-91825000D03*
X45425000Y-92475000D03*
X45425000Y-93125000D03*
X45425000Y-93775000D03*
X49375000Y-91825000D03*
X49375000Y-92475000D03*
X49375000Y-93125000D03*
X49375000Y-93775000D03*
D41*
X36179000Y-43754000D03*
X34179000Y-44704000D03*
X36179000Y-45654000D03*
X36179000Y-52136000D03*
X34179000Y-53086000D03*
X36179000Y-54036000D03*
D42*
X105875000Y-102425000D03*
X105225000Y-102425000D03*
X104575000Y-102425000D03*
X103925000Y-102425000D03*
X105875000Y-106375000D03*
X105225000Y-106375000D03*
X104575000Y-106375000D03*
X103925000Y-106375000D03*
D43*
X90325000Y-61875000D03*
X90325000Y-63525000D03*
X91875000Y-61875000D03*
X91875000Y-63525000D03*
D44*
X90325000Y-62700000D03*
X91875000Y-62700000D03*
D12*
X124830000Y-93980000D03*
X125360000Y-93980000D03*
X124830000Y-93218000D03*
X125360000Y-93218000D03*
X123635000Y-90400000D03*
X124165000Y-90400000D03*
D11*
X71700000Y-77835000D03*
X71700000Y-78365000D03*
D12*
X75465000Y-78100000D03*
X74935000Y-78100000D03*
X70935000Y-81100000D03*
X71465000Y-81100000D03*
D11*
X72700000Y-80335000D03*
X72700000Y-80865000D03*
X75700000Y-79335000D03*
X75700000Y-79865000D03*
X81700000Y-77335000D03*
X81700000Y-77865000D03*
D12*
X73935000Y-80100000D03*
X74465000Y-80100000D03*
X69935000Y-78100000D03*
X70465000Y-78100000D03*
D11*
X73700000Y-61365000D03*
X73700000Y-60835000D03*
X72700000Y-70835000D03*
X72700000Y-71365000D03*
X73700000Y-67335000D03*
X73700000Y-67865000D03*
X77700000Y-66835000D03*
X77700000Y-67365000D03*
X72700000Y-74365000D03*
X72700000Y-73835000D03*
X73700000Y-69365000D03*
X73700000Y-68835000D03*
D12*
X79435000Y-66100000D03*
X79965000Y-66100000D03*
D11*
X68700000Y-65365000D03*
X68700000Y-64835000D03*
X76700000Y-66435000D03*
X76700000Y-66965000D03*
X75700000Y-75565000D03*
X75700000Y-75035000D03*
X75700000Y-72935000D03*
X75700000Y-73465000D03*
D12*
X74965000Y-62100000D03*
X74435000Y-62100000D03*
D11*
X72700000Y-74835000D03*
X72700000Y-75365000D03*
D12*
X72435000Y-73100000D03*
X72965000Y-73100000D03*
X73435000Y-70100000D03*
X73965000Y-70100000D03*
X77435000Y-70100000D03*
X77965000Y-70100000D03*
D11*
X67700000Y-65365000D03*
X67700000Y-64835000D03*
D12*
X84935000Y-73100000D03*
X85465000Y-73100000D03*
D11*
X75700000Y-71835000D03*
X75700000Y-72365000D03*
D12*
X74965000Y-63100000D03*
X74435000Y-63100000D03*
X77935000Y-81600000D03*
X78465000Y-81600000D03*
D11*
X82700000Y-81865000D03*
X82700000Y-81335000D03*
D12*
X78465000Y-77100000D03*
X77935000Y-77100000D03*
X76935000Y-79100000D03*
X77465000Y-79100000D03*
X82935000Y-77100000D03*
X83465000Y-77100000D03*
D11*
X85700000Y-74865000D03*
X85700000Y-74335000D03*
X92700000Y-62965000D03*
X92700000Y-62435000D03*
D15*
X64000000Y-103900000D03*
X64000000Y-102900000D03*
X72900000Y-100900000D03*
X73900000Y-100900000D03*
X55100000Y-90500000D03*
X55100000Y-91500000D03*
X58700000Y-99800000D03*
X58700000Y-100800000D03*
X124600000Y-59500000D03*
X123600000Y-59500000D03*
X80700000Y-75100000D03*
X80700000Y-74100000D03*
X77700000Y-69100000D03*
X77700000Y-68100000D03*
X67700000Y-61100000D03*
X67700000Y-62100000D03*
X70700000Y-71100000D03*
X70700000Y-72100000D03*
X81700000Y-73100000D03*
X80700000Y-73100000D03*
X71700000Y-73100000D03*
X71700000Y-72100000D03*
X72700000Y-66100000D03*
X72700000Y-67100000D03*
X76700000Y-77100000D03*
X76700000Y-76100000D03*
X72700000Y-68100000D03*
X72700000Y-69100000D03*
X76700000Y-73100000D03*
X76700000Y-72100000D03*
X71700000Y-76100000D03*
X71700000Y-75100000D03*
X72700000Y-59100000D03*
X72700000Y-60100000D03*
X64200000Y-64900000D03*
X64200000Y-63900000D03*
X74700000Y-59100000D03*
X74700000Y-60100000D03*
X67500000Y-57600000D03*
X67500000Y-58600000D03*
X68700000Y-60100000D03*
X69700000Y-60100000D03*
X69700000Y-64100000D03*
X70700000Y-64100000D03*
X71700000Y-69100000D03*
X71700000Y-68100000D03*
X71700000Y-71100000D03*
X71700000Y-70100000D03*
X79700000Y-78100000D03*
X80700000Y-78100000D03*
X82700000Y-79100000D03*
X81700000Y-79100000D03*
X65700000Y-68100000D03*
X64700000Y-68100000D03*
X69700000Y-80100000D03*
X68700000Y-80100000D03*
X86700000Y-80100000D03*
X87700000Y-80100000D03*
X85700000Y-79100000D03*
X85700000Y-80100000D03*
X85700000Y-76100000D03*
X86700000Y-76100000D03*
X94200000Y-93400000D03*
X94200000Y-94400000D03*
X98800000Y-89600000D03*
X98800000Y-90600000D03*
X102000000Y-92300000D03*
X102000000Y-91300000D03*
X108500000Y-43900000D03*
X109500000Y-43900000D03*
X97500000Y-92300000D03*
X97500000Y-91300000D03*
X44400000Y-115200000D03*
X44400000Y-116200000D03*
X76700000Y-74100000D03*
X76700000Y-75100000D03*
X57000000Y-115200000D03*
X57000000Y-116200000D03*
D11*
X70700000Y-59835000D03*
X70700000Y-60365000D03*
D12*
X68965000Y-64100000D03*
X68435000Y-64100000D03*
D11*
X70700000Y-57835000D03*
X70700000Y-58365000D03*
X67700000Y-59835000D03*
X67700000Y-60365000D03*
X72700000Y-57835000D03*
X72700000Y-58365000D03*
X65700000Y-57835000D03*
X65700000Y-58365000D03*
X74700000Y-57835000D03*
X74700000Y-58365000D03*
X63700000Y-57835000D03*
X63700000Y-58365000D03*
D12*
X85465000Y-58100000D03*
X84935000Y-58100000D03*
X79935000Y-58100000D03*
X80465000Y-58100000D03*
X83935000Y-60100000D03*
X84465000Y-60100000D03*
X76935000Y-59100000D03*
X77465000Y-59100000D03*
D11*
X88700000Y-58335000D03*
X88700000Y-58865000D03*
D12*
X80935000Y-61100000D03*
X81465000Y-61100000D03*
X87935000Y-62100000D03*
X88465000Y-62100000D03*
X77935000Y-62100000D03*
X78465000Y-62100000D03*
D11*
X85700000Y-71365000D03*
X85700000Y-70835000D03*
D12*
X87465000Y-64100000D03*
X86935000Y-64100000D03*
D11*
X83500000Y-65765000D03*
X83500000Y-65235000D03*
X80700000Y-64335000D03*
X80700000Y-64865000D03*
D45*
X57870000Y-47900000D03*
D46*
X42070000Y-47900000D03*
D47*
X104850000Y-58500000D03*
X104850000Y-61000000D03*
X104850000Y-63500000D03*
X111350000Y-58500000D03*
X111350000Y-61000000D03*
X111350000Y-63500000D03*
D12*
X52535000Y-110600000D03*
X53065000Y-110600000D03*
X49535000Y-114000000D03*
X50065000Y-114000000D03*
M02*
