G04 #@! TF.FileFunction,Soldermask,Top*
%FSLAX46Y46*%
G04 Gerber Fmt 4.6, Leading zero omitted, Abs format (unit mm)*
G04 Created by KiCad (PCBNEW 4.0.6) date Wed May 10 11:08:12 2017*
%MOMM*%
%LPD*%
G01*
G04 APERTURE LIST*
%ADD10C,0.101600*%
%ADD11C,0.551600*%
%ADD12R,0.351600X0.801600*%
%ADD13R,0.801600X0.351600*%
%ADD14R,1.701600X1.701600*%
%ADD15C,1.301600*%
%ADD16C,2.101600*%
%ADD17O,1.301600X1.901600*%
%ADD18R,1.181600X2.161600*%
%ADD19C,1.601600*%
%ADD20R,1.901600X1.101600*%
%ADD21R,0.401600X0.381600*%
%ADD22R,0.601600X0.601600*%
%ADD23R,1.101600X1.901600*%
%ADD24R,0.381600X0.401600*%
%ADD25R,0.685800X0.787400*%
%ADD26R,0.787400X0.685800*%
%ADD27R,1.101600X0.901600*%
%ADD28R,1.498600X0.508000*%
%ADD29R,0.609600X17.373600*%
%ADD30C,1.270000*%
%ADD31R,0.401600X2.001600*%
%ADD32C,1.879600*%
%ADD33R,0.501600X1.451600*%
%ADD34R,2.201600X1.701600*%
%ADD35R,1.901600X2.001600*%
%ADD36R,2.001600X2.001600*%
%ADD37R,1.101600X5.601600*%
%ADD38R,1.701600X3.101600*%
%ADD39R,1.752600X1.752600*%
%ADD40O,1.752600X1.752600*%
%ADD41R,2.101600X1.551600*%
%ADD42R,1.601600X0.901600*%
%ADD43R,1.102360X1.000760*%
%ADD44R,3.701600X1.901600*%
%ADD45R,0.901600X1.101600*%
%ADD46R,0.351600X0.601600*%
%ADD47R,2.101600X1.501600*%
%ADD48R,1.501600X2.101600*%
%ADD49R,2.701600X1.101600*%
%ADD50C,0.863600*%
%ADD51R,0.889000X0.990600*%
%ADD52R,0.851600X1.001600*%
%ADD53R,1.181600X0.881600*%
%ADD54R,1.201600X0.701600*%
%ADD55R,1.389100X1.389100*%
%ADD56R,0.551600X1.051600*%
%ADD57R,1.101600X1.351600*%
%ADD58R,0.551600X1.451600*%
%ADD59R,0.701600X1.201600*%
%ADD60R,0.951600X0.371600*%
%ADD61R,0.371600X0.951600*%
%ADD62R,1.351600X1.351600*%
%ADD63R,1.451600X0.551600*%
%ADD64R,0.851600X1.061600*%
%ADD65R,0.851600X0.641600*%
%ADD66R,0.951600X0.381600*%
%ADD67R,0.381600X0.951600*%
%ADD68R,1.101600X1.101600*%
%ADD69R,1.881600X1.621600*%
%ADD70R,0.951600X0.751600*%
%ADD71R,0.701600X1.651600*%
%ADD72R,0.601600X0.901600*%
%ADD73R,1.701600X1.101600*%
%ADD74R,0.601600X0.351600*%
%ADD75R,1.601600X1.601600*%
%ADD76R,0.901600X0.901600*%
%ADD77R,2.101600X0.501600*%
%ADD78R,1.501600X0.851600*%
%ADD79C,0.736600*%
%ADD80C,1.371600*%
%ADD81C,5.901600*%
%ADD82C,1.901600*%
%ADD83R,1.101600X1.701600*%
%ADD84R,2.501600X0.851600*%
%ADD85R,2.501600X0.841600*%
%ADD86R,3.251600X1.101600*%
%ADD87C,1.701600*%
%ADD88C,3.101600*%
%ADD89O,1.501600X2.701600*%
%ADD90O,4.101600X2.101600*%
%ADD91C,6.101600*%
G04 APERTURE END LIST*
D10*
D11*
X88700000Y-57100000D03*
X88700000Y-58100000D03*
X88700000Y-59100000D03*
X88700000Y-60100000D03*
X88700000Y-61100000D03*
X88700000Y-62100000D03*
X88700000Y-63100000D03*
X88700000Y-64100000D03*
X88700000Y-65100000D03*
X88700000Y-66100000D03*
X88700000Y-67100000D03*
X88700000Y-68100000D03*
X88700000Y-69100000D03*
X88700000Y-70100000D03*
X88700000Y-71100000D03*
X88700000Y-72100000D03*
X88700000Y-73100000D03*
X88700000Y-74100000D03*
X88700000Y-75100000D03*
X88700000Y-76100000D03*
X88700000Y-77100000D03*
X88700000Y-78100000D03*
X88700000Y-79100000D03*
X88700000Y-80100000D03*
X88700000Y-81100000D03*
X88700000Y-82100000D03*
X87700000Y-57100000D03*
X87700000Y-58100000D03*
X87700000Y-59100000D03*
X87700000Y-60100000D03*
X87700000Y-61100000D03*
X87700000Y-62100000D03*
X87700000Y-63100000D03*
X87700000Y-64100000D03*
X87700000Y-65100000D03*
X87700000Y-66100000D03*
X87700000Y-67100000D03*
X87700000Y-68100000D03*
X87700000Y-69100000D03*
X87700000Y-70100000D03*
X87700000Y-71100000D03*
X87700000Y-72100000D03*
X87700000Y-73100000D03*
X87700000Y-74100000D03*
X87700000Y-75100000D03*
X87700000Y-76100000D03*
X87700000Y-77100000D03*
X87700000Y-78100000D03*
X87700000Y-79100000D03*
X87700000Y-80100000D03*
X87700000Y-81100000D03*
X87700000Y-82100000D03*
X86700000Y-57100000D03*
X86700000Y-58100000D03*
X86700000Y-59100000D03*
X86700000Y-60100000D03*
X86700000Y-61100000D03*
X86700000Y-62100000D03*
X86700000Y-63100000D03*
X86700000Y-64100000D03*
X86700000Y-65100000D03*
X86700000Y-66100000D03*
X86700000Y-67100000D03*
X86700000Y-68100000D03*
X86700000Y-69100000D03*
X86700000Y-70100000D03*
X86700000Y-71100000D03*
X86700000Y-72100000D03*
X86700000Y-73100000D03*
X86700000Y-74100000D03*
X86700000Y-75100000D03*
X86700000Y-76100000D03*
X86700000Y-77100000D03*
X86700000Y-78100000D03*
X86700000Y-79100000D03*
X86700000Y-80100000D03*
X86700000Y-81100000D03*
X86700000Y-82100000D03*
X85700000Y-57100000D03*
X85700000Y-58100000D03*
X85700000Y-59100000D03*
X85700000Y-60100000D03*
X85700000Y-61100000D03*
X85700000Y-62100000D03*
X85700000Y-63100000D03*
X85700000Y-64100000D03*
X85700000Y-65100000D03*
X85700000Y-66100000D03*
X85700000Y-67100000D03*
X85700000Y-68100000D03*
X85700000Y-69100000D03*
X85700000Y-70100000D03*
X85700000Y-71100000D03*
X85700000Y-72100000D03*
X85700000Y-73100000D03*
X85700000Y-74100000D03*
X85700000Y-75100000D03*
X85700000Y-76100000D03*
X85700000Y-77100000D03*
X85700000Y-78100000D03*
X85700000Y-79100000D03*
X85700000Y-80100000D03*
X85700000Y-81100000D03*
X85700000Y-82100000D03*
X84700000Y-57100000D03*
X84700000Y-58100000D03*
X84700000Y-59100000D03*
X84700000Y-60100000D03*
X84700000Y-61100000D03*
X84700000Y-62100000D03*
X84700000Y-63100000D03*
X84700000Y-64100000D03*
X84700000Y-65100000D03*
X84700000Y-66100000D03*
X84700000Y-67100000D03*
X84700000Y-68100000D03*
X84700000Y-69100000D03*
X84700000Y-70100000D03*
X84700000Y-71100000D03*
X84700000Y-72100000D03*
X84700000Y-73100000D03*
X84700000Y-74100000D03*
X84700000Y-75100000D03*
X84700000Y-76100000D03*
X84700000Y-77100000D03*
X84700000Y-78100000D03*
X84700000Y-79100000D03*
X84700000Y-80100000D03*
X84700000Y-81100000D03*
X84700000Y-82100000D03*
X83700000Y-57100000D03*
X83700000Y-58100000D03*
X83700000Y-59100000D03*
X83700000Y-60100000D03*
X83700000Y-61100000D03*
X83700000Y-62100000D03*
X83700000Y-63100000D03*
X83700000Y-64100000D03*
X83700000Y-65100000D03*
X83700000Y-66100000D03*
X83700000Y-67100000D03*
X83700000Y-68100000D03*
X83700000Y-69100000D03*
X83700000Y-70100000D03*
X83700000Y-71100000D03*
X83700000Y-72100000D03*
X83700000Y-73100000D03*
X83700000Y-74100000D03*
X83700000Y-75100000D03*
X83700000Y-76100000D03*
X83700000Y-77100000D03*
X83700000Y-78100000D03*
X83700000Y-79100000D03*
X83700000Y-80100000D03*
X83700000Y-81100000D03*
X83700000Y-82100000D03*
X82700000Y-57100000D03*
X82700000Y-58100000D03*
X82700000Y-59100000D03*
X82700000Y-60100000D03*
X82700000Y-61100000D03*
X82700000Y-62100000D03*
X82700000Y-63100000D03*
X82700000Y-64100000D03*
X82700000Y-65100000D03*
X82700000Y-66100000D03*
X82700000Y-67100000D03*
X82700000Y-68100000D03*
X82700000Y-69100000D03*
X82700000Y-70100000D03*
X82700000Y-71100000D03*
X82700000Y-72100000D03*
X82700000Y-73100000D03*
X82700000Y-74100000D03*
X82700000Y-75100000D03*
X82700000Y-76100000D03*
X82700000Y-77100000D03*
X82700000Y-78100000D03*
X82700000Y-79100000D03*
X82700000Y-80100000D03*
X82700000Y-81100000D03*
X82700000Y-82100000D03*
X81700000Y-57100000D03*
X81700000Y-58100000D03*
X81700000Y-59100000D03*
X81700000Y-60100000D03*
X81700000Y-61100000D03*
X81700000Y-62100000D03*
X81700000Y-63100000D03*
X81700000Y-64100000D03*
X81700000Y-65100000D03*
X81700000Y-66100000D03*
X81700000Y-67100000D03*
X81700000Y-68100000D03*
X81700000Y-69100000D03*
X81700000Y-70100000D03*
X81700000Y-71100000D03*
X81700000Y-72100000D03*
X81700000Y-73100000D03*
X81700000Y-74100000D03*
X81700000Y-75100000D03*
X81700000Y-76100000D03*
X81700000Y-77100000D03*
X81700000Y-78100000D03*
X81700000Y-79100000D03*
X81700000Y-80100000D03*
X81700000Y-81100000D03*
X81700000Y-82100000D03*
X80700000Y-57100000D03*
X80700000Y-58100000D03*
X80700000Y-59100000D03*
X80700000Y-60100000D03*
X80700000Y-61100000D03*
X80700000Y-62100000D03*
X80700000Y-63100000D03*
X80700000Y-64100000D03*
X80700000Y-65100000D03*
X80700000Y-66100000D03*
X80700000Y-67100000D03*
X80700000Y-68100000D03*
X80700000Y-69100000D03*
X80700000Y-70100000D03*
X80700000Y-71100000D03*
X80700000Y-72100000D03*
X80700000Y-73100000D03*
X80700000Y-74100000D03*
X80700000Y-75100000D03*
X80700000Y-76100000D03*
X80700000Y-77100000D03*
X80700000Y-78100000D03*
X80700000Y-79100000D03*
X80700000Y-80100000D03*
X80700000Y-81100000D03*
X80700000Y-82100000D03*
X79700000Y-57100000D03*
X79700000Y-58100000D03*
X79700000Y-59100000D03*
X79700000Y-60100000D03*
X79700000Y-61100000D03*
X79700000Y-62100000D03*
X79700000Y-63100000D03*
X79700000Y-64100000D03*
X79700000Y-65100000D03*
X79700000Y-66100000D03*
X79700000Y-67100000D03*
X79700000Y-68100000D03*
X79700000Y-69100000D03*
X79700000Y-70100000D03*
X79700000Y-71100000D03*
X79700000Y-72100000D03*
X79700000Y-73100000D03*
X79700000Y-74100000D03*
X79700000Y-75100000D03*
X79700000Y-76100000D03*
X79700000Y-77100000D03*
X79700000Y-78100000D03*
X79700000Y-79100000D03*
X79700000Y-80100000D03*
X79700000Y-81100000D03*
X79700000Y-82100000D03*
X78700000Y-57100000D03*
X78700000Y-58100000D03*
X78700000Y-59100000D03*
X78700000Y-60100000D03*
X78700000Y-61100000D03*
X78700000Y-62100000D03*
X78700000Y-63100000D03*
X78700000Y-64100000D03*
X78700000Y-65100000D03*
X78700000Y-66100000D03*
X78700000Y-67100000D03*
X78700000Y-68100000D03*
X78700000Y-69100000D03*
X78700000Y-70100000D03*
X78700000Y-71100000D03*
X78700000Y-72100000D03*
X78700000Y-73100000D03*
X78700000Y-74100000D03*
X78700000Y-75100000D03*
X78700000Y-76100000D03*
X78700000Y-77100000D03*
X78700000Y-78100000D03*
X78700000Y-79100000D03*
X78700000Y-80100000D03*
X78700000Y-81100000D03*
X78700000Y-82100000D03*
X77700000Y-57100000D03*
X77700000Y-58100000D03*
X77700000Y-59100000D03*
X77700000Y-60100000D03*
X77700000Y-61100000D03*
X77700000Y-62100000D03*
X77700000Y-63100000D03*
X77700000Y-64100000D03*
X77700000Y-65100000D03*
X77700000Y-66100000D03*
X77700000Y-67100000D03*
X77700000Y-68100000D03*
X77700000Y-69100000D03*
X77700000Y-70100000D03*
X77700000Y-71100000D03*
X77700000Y-72100000D03*
X77700000Y-73100000D03*
X77700000Y-74100000D03*
X77700000Y-75100000D03*
X77700000Y-76100000D03*
X77700000Y-77100000D03*
X77700000Y-78100000D03*
X77700000Y-79100000D03*
X77700000Y-80100000D03*
X77700000Y-81100000D03*
X77700000Y-82100000D03*
X76700000Y-57100000D03*
X76700000Y-58100000D03*
X76700000Y-59100000D03*
X76700000Y-60100000D03*
X76700000Y-61100000D03*
X76700000Y-62100000D03*
X76700000Y-63100000D03*
X76700000Y-64100000D03*
X76700000Y-65100000D03*
X76700000Y-66100000D03*
X76700000Y-67100000D03*
X76700000Y-68100000D03*
X76700000Y-69100000D03*
X76700000Y-70100000D03*
X76700000Y-71100000D03*
X76700000Y-72100000D03*
X76700000Y-73100000D03*
X76700000Y-74100000D03*
X76700000Y-75100000D03*
X76700000Y-76100000D03*
X76700000Y-77100000D03*
X76700000Y-78100000D03*
X76700000Y-79100000D03*
X76700000Y-80100000D03*
X76700000Y-81100000D03*
X76700000Y-82100000D03*
X75700000Y-57100000D03*
X75700000Y-58100000D03*
X75700000Y-59100000D03*
X75700000Y-60100000D03*
X75700000Y-61100000D03*
X75700000Y-62100000D03*
X75700000Y-63100000D03*
X75700000Y-64100000D03*
X75700000Y-65100000D03*
X75700000Y-66100000D03*
X75700000Y-67100000D03*
X75700000Y-68100000D03*
X75700000Y-69100000D03*
X75700000Y-70100000D03*
X75700000Y-71100000D03*
X75700000Y-72100000D03*
X75700000Y-73100000D03*
X75700000Y-74100000D03*
X75700000Y-75100000D03*
X75700000Y-76100000D03*
X75700000Y-77100000D03*
X75700000Y-78100000D03*
X75700000Y-79100000D03*
X75700000Y-80100000D03*
X75700000Y-81100000D03*
X75700000Y-82100000D03*
X74700000Y-57100000D03*
X74700000Y-58100000D03*
X74700000Y-59100000D03*
X74700000Y-60100000D03*
X74700000Y-61100000D03*
X74700000Y-62100000D03*
X74700000Y-63100000D03*
X74700000Y-64100000D03*
X74700000Y-65100000D03*
X74700000Y-66100000D03*
X74700000Y-67100000D03*
X74700000Y-68100000D03*
X74700000Y-69100000D03*
X74700000Y-70100000D03*
X74700000Y-71100000D03*
X74700000Y-72100000D03*
X74700000Y-73100000D03*
X74700000Y-74100000D03*
X74700000Y-75100000D03*
X74700000Y-76100000D03*
X74700000Y-77100000D03*
X74700000Y-78100000D03*
X74700000Y-79100000D03*
X74700000Y-80100000D03*
X74700000Y-81100000D03*
X74700000Y-82100000D03*
X73700000Y-57100000D03*
X73700000Y-58100000D03*
X73700000Y-59100000D03*
X73700000Y-60100000D03*
X73700000Y-61100000D03*
X73700000Y-62100000D03*
X73700000Y-63100000D03*
X73700000Y-64100000D03*
X73700000Y-65100000D03*
X73700000Y-66100000D03*
X73700000Y-67100000D03*
X73700000Y-68100000D03*
X73700000Y-69100000D03*
X73700000Y-70100000D03*
X73700000Y-71100000D03*
X73700000Y-72100000D03*
X73700000Y-73100000D03*
X73700000Y-74100000D03*
X73700000Y-75100000D03*
X73700000Y-76100000D03*
X73700000Y-77100000D03*
X73700000Y-78100000D03*
X73700000Y-79100000D03*
X73700000Y-80100000D03*
X73700000Y-81100000D03*
X73700000Y-82100000D03*
X72700000Y-57100000D03*
X72700000Y-58100000D03*
X72700000Y-59100000D03*
X72700000Y-60100000D03*
X72700000Y-61100000D03*
X72700000Y-62100000D03*
X72700000Y-63100000D03*
X72700000Y-64100000D03*
X72700000Y-65100000D03*
X72700000Y-66100000D03*
X72700000Y-67100000D03*
X72700000Y-68100000D03*
X72700000Y-69100000D03*
X72700000Y-70100000D03*
X72700000Y-71100000D03*
X72700000Y-72100000D03*
X72700000Y-73100000D03*
X72700000Y-74100000D03*
X72700000Y-75100000D03*
X72700000Y-76100000D03*
X72700000Y-77100000D03*
X72700000Y-78100000D03*
X72700000Y-79100000D03*
X72700000Y-80100000D03*
X72700000Y-81100000D03*
X72700000Y-82100000D03*
X71700000Y-57100000D03*
X71700000Y-58100000D03*
X71700000Y-59100000D03*
X71700000Y-60100000D03*
X71700000Y-61100000D03*
X71700000Y-62100000D03*
X71700000Y-63100000D03*
X71700000Y-64100000D03*
X71700000Y-65100000D03*
X71700000Y-66100000D03*
X71700000Y-67100000D03*
X71700000Y-68100000D03*
X71700000Y-69100000D03*
X71700000Y-70100000D03*
X71700000Y-71100000D03*
X71700000Y-72100000D03*
X71700000Y-73100000D03*
X71700000Y-74100000D03*
X71700000Y-75100000D03*
X71700000Y-76100000D03*
X71700000Y-77100000D03*
X71700000Y-78100000D03*
X71700000Y-79100000D03*
X71700000Y-80100000D03*
X71700000Y-81100000D03*
X71700000Y-82100000D03*
X70700000Y-57100000D03*
X70700000Y-58100000D03*
X70700000Y-59100000D03*
X70700000Y-60100000D03*
X70700000Y-61100000D03*
X70700000Y-62100000D03*
X70700000Y-63100000D03*
X70700000Y-64100000D03*
X70700000Y-65100000D03*
X70700000Y-66100000D03*
X70700000Y-67100000D03*
X70700000Y-68100000D03*
X70700000Y-69100000D03*
X70700000Y-70100000D03*
X70700000Y-71100000D03*
X70700000Y-72100000D03*
X70700000Y-73100000D03*
X70700000Y-74100000D03*
X70700000Y-75100000D03*
X70700000Y-76100000D03*
X70700000Y-77100000D03*
X70700000Y-78100000D03*
X70700000Y-79100000D03*
X70700000Y-80100000D03*
X70700000Y-81100000D03*
X70700000Y-82100000D03*
X69700000Y-57100000D03*
X69700000Y-58100000D03*
X69700000Y-59100000D03*
X69700000Y-60100000D03*
X69700000Y-61100000D03*
X69700000Y-62100000D03*
X69700000Y-63100000D03*
X69700000Y-64100000D03*
X69700000Y-65100000D03*
X69700000Y-66100000D03*
X69700000Y-67100000D03*
X69700000Y-68100000D03*
X69700000Y-69100000D03*
X69700000Y-70100000D03*
X69700000Y-71100000D03*
X69700000Y-72100000D03*
X69700000Y-73100000D03*
X69700000Y-74100000D03*
X69700000Y-75100000D03*
X69700000Y-76100000D03*
X69700000Y-77100000D03*
X69700000Y-78100000D03*
X69700000Y-79100000D03*
X69700000Y-80100000D03*
X69700000Y-81100000D03*
X69700000Y-82100000D03*
X68700000Y-57100000D03*
X68700000Y-58100000D03*
X68700000Y-59100000D03*
X68700000Y-60100000D03*
X68700000Y-61100000D03*
X68700000Y-62100000D03*
X68700000Y-63100000D03*
X68700000Y-64100000D03*
X68700000Y-65100000D03*
X68700000Y-66100000D03*
X68700000Y-67100000D03*
X68700000Y-68100000D03*
X68700000Y-69100000D03*
X68700000Y-70100000D03*
X68700000Y-71100000D03*
X68700000Y-72100000D03*
X68700000Y-73100000D03*
X68700000Y-74100000D03*
X68700000Y-75100000D03*
X68700000Y-76100000D03*
X68700000Y-77100000D03*
X68700000Y-78100000D03*
X68700000Y-79100000D03*
X68700000Y-80100000D03*
X68700000Y-81100000D03*
X68700000Y-82100000D03*
X67700000Y-57100000D03*
X67700000Y-58100000D03*
X67700000Y-59100000D03*
X67700000Y-60100000D03*
X67700000Y-61100000D03*
X67700000Y-62100000D03*
X67700000Y-63100000D03*
X67700000Y-64100000D03*
X67700000Y-65100000D03*
X67700000Y-66100000D03*
X67700000Y-67100000D03*
X67700000Y-68100000D03*
X67700000Y-69100000D03*
X67700000Y-70100000D03*
X67700000Y-71100000D03*
X67700000Y-72100000D03*
X67700000Y-73100000D03*
X67700000Y-74100000D03*
X67700000Y-75100000D03*
X67700000Y-76100000D03*
X67700000Y-77100000D03*
X67700000Y-78100000D03*
X67700000Y-79100000D03*
X67700000Y-80100000D03*
X67700000Y-81100000D03*
X67700000Y-82100000D03*
X66700000Y-57100000D03*
X66700000Y-58100000D03*
X66700000Y-59100000D03*
X66700000Y-60100000D03*
X66700000Y-61100000D03*
X66700000Y-62100000D03*
X66700000Y-63100000D03*
X66700000Y-64100000D03*
X66700000Y-65100000D03*
X66700000Y-66100000D03*
X66700000Y-67100000D03*
X66700000Y-68100000D03*
X66700000Y-69100000D03*
X66700000Y-70100000D03*
X66700000Y-71100000D03*
X66700000Y-72100000D03*
X66700000Y-73100000D03*
X66700000Y-74100000D03*
X66700000Y-75100000D03*
X66700000Y-76100000D03*
X66700000Y-77100000D03*
X66700000Y-78100000D03*
X66700000Y-79100000D03*
X66700000Y-80100000D03*
X66700000Y-81100000D03*
X66700000Y-82100000D03*
X65700000Y-57100000D03*
X65700000Y-58100000D03*
X65700000Y-59100000D03*
X65700000Y-60100000D03*
X65700000Y-61100000D03*
X65700000Y-62100000D03*
X65700000Y-63100000D03*
X65700000Y-64100000D03*
X65700000Y-65100000D03*
X65700000Y-66100000D03*
X65700000Y-67100000D03*
X65700000Y-68100000D03*
X65700000Y-69100000D03*
X65700000Y-70100000D03*
X65700000Y-71100000D03*
X65700000Y-72100000D03*
X65700000Y-73100000D03*
X65700000Y-74100000D03*
X65700000Y-75100000D03*
X65700000Y-76100000D03*
X65700000Y-77100000D03*
X65700000Y-78100000D03*
X65700000Y-79100000D03*
X65700000Y-80100000D03*
X65700000Y-81100000D03*
X65700000Y-82100000D03*
X64700000Y-57100000D03*
X64700000Y-58100000D03*
X64700000Y-59100000D03*
X64700000Y-60100000D03*
X64700000Y-61100000D03*
X64700000Y-62100000D03*
X64700000Y-63100000D03*
X64700000Y-64100000D03*
X64700000Y-65100000D03*
X64700000Y-66100000D03*
X64700000Y-67100000D03*
X64700000Y-68100000D03*
X64700000Y-69100000D03*
X64700000Y-70100000D03*
X64700000Y-71100000D03*
X64700000Y-72100000D03*
X64700000Y-73100000D03*
X64700000Y-74100000D03*
X64700000Y-75100000D03*
X64700000Y-76100000D03*
X64700000Y-77100000D03*
X64700000Y-78100000D03*
X64700000Y-79100000D03*
X64700000Y-80100000D03*
X64700000Y-81100000D03*
X64700000Y-82100000D03*
X63700000Y-57100000D03*
X63700000Y-58100000D03*
X63700000Y-59100000D03*
X63700000Y-60100000D03*
X63700000Y-61100000D03*
X63700000Y-62100000D03*
X63700000Y-63100000D03*
X63700000Y-64100000D03*
X63700000Y-65100000D03*
X63700000Y-66100000D03*
X63700000Y-67100000D03*
X63700000Y-68100000D03*
X63700000Y-69100000D03*
X63700000Y-70100000D03*
X63700000Y-71100000D03*
X63700000Y-72100000D03*
X63700000Y-73100000D03*
X63700000Y-74100000D03*
X63700000Y-75100000D03*
X63700000Y-76100000D03*
X63700000Y-77100000D03*
X63700000Y-78100000D03*
X63700000Y-79100000D03*
X63700000Y-80100000D03*
X63700000Y-81100000D03*
X63700000Y-82100000D03*
D12*
X97950000Y-75500000D03*
X97450000Y-75500000D03*
X96950000Y-75500000D03*
X96450000Y-75500000D03*
X95950000Y-75500000D03*
X95450000Y-75500000D03*
X94950000Y-75500000D03*
X94450000Y-75500000D03*
D13*
X93800000Y-76150000D03*
X93800000Y-76650000D03*
X93800000Y-77150000D03*
X93800000Y-77650000D03*
X93800000Y-78150000D03*
X93800000Y-78650000D03*
X93800000Y-79150000D03*
X93800000Y-79650000D03*
D12*
X94450000Y-80300000D03*
X94950000Y-80300000D03*
X95450000Y-80300000D03*
X95950000Y-80300000D03*
X96450000Y-80300000D03*
X96950000Y-80300000D03*
X97450000Y-80300000D03*
X97950000Y-80300000D03*
D13*
X98600000Y-79650000D03*
X98600000Y-79150000D03*
X98600000Y-78650000D03*
X98600000Y-78150000D03*
X98600000Y-77650000D03*
X98600000Y-77150000D03*
X98600000Y-76650000D03*
X98600000Y-76150000D03*
D14*
X95400000Y-78700000D03*
X97000000Y-78700000D03*
X95400000Y-77100000D03*
X97000000Y-77100000D03*
D15*
X91661000Y-100596000D03*
X93693000Y-100596000D03*
X95725000Y-100596000D03*
X97757000Y-100596000D03*
X99789000Y-100596000D03*
X92677000Y-99326000D03*
X94709000Y-99326000D03*
X96741000Y-99326000D03*
X98773000Y-99326000D03*
X100805000Y-99326000D03*
D16*
X89733000Y-100206000D03*
X102733000Y-100206000D03*
D15*
X89723000Y-108346000D03*
X90993000Y-107326000D03*
X92263000Y-108346000D03*
X100203000Y-108346000D03*
X101473000Y-107326000D03*
X102743000Y-108346000D03*
D17*
X86148000Y-116156000D03*
X106318000Y-116156000D03*
D18*
X87158000Y-119126000D03*
X105308000Y-119126000D03*
D19*
X104768000Y-110556000D03*
X87698000Y-110556000D03*
D20*
X86600000Y-103000000D03*
X86600000Y-100000000D03*
X56100000Y-102200000D03*
X56100000Y-99200000D03*
D21*
X55100000Y-94765000D03*
X55100000Y-94235000D03*
X55100000Y-97435000D03*
X55100000Y-97965000D03*
D22*
X121920000Y-76716000D03*
X121920000Y-77716000D03*
X116967000Y-74922000D03*
X116967000Y-73922000D03*
D23*
X117753000Y-63754000D03*
X120753000Y-63754000D03*
D21*
X48600000Y-100565000D03*
X48600000Y-100035000D03*
D24*
X49535000Y-103800000D03*
X50065000Y-103800000D03*
X110635000Y-95631000D03*
X111165000Y-95631000D03*
D21*
X41200000Y-113965000D03*
X41200000Y-113435000D03*
X41900000Y-113965000D03*
X41900000Y-113435000D03*
D24*
X71865000Y-106200000D03*
X71335000Y-106200000D03*
D21*
X72700000Y-109035000D03*
X72700000Y-109565000D03*
D22*
X49400000Y-55800000D03*
X49400000Y-56800000D03*
X44100000Y-41200000D03*
X45100000Y-41200000D03*
X53200000Y-55200000D03*
X52200000Y-55200000D03*
D21*
X45800000Y-87065000D03*
X45800000Y-86535000D03*
X49200000Y-82565000D03*
X49200000Y-82035000D03*
D24*
X44165000Y-87600000D03*
X43635000Y-87600000D03*
D21*
X45700000Y-82565000D03*
X45700000Y-82035000D03*
X92700000Y-81435000D03*
X92700000Y-81965000D03*
D22*
X112300000Y-84700000D03*
X112300000Y-85700000D03*
D23*
X80200000Y-53900000D03*
X83200000Y-53900000D03*
D20*
X91900000Y-58600000D03*
X91900000Y-61600000D03*
D21*
X102600000Y-77965000D03*
X102600000Y-77435000D03*
D24*
X103748000Y-93853000D03*
X104278000Y-93853000D03*
X96531000Y-96520000D03*
X96001000Y-96520000D03*
D21*
X102616000Y-96890000D03*
X102616000Y-97420000D03*
X92964000Y-92445000D03*
X92964000Y-92975000D03*
X98298000Y-44058000D03*
X98298000Y-44588000D03*
X98933000Y-44058000D03*
X98933000Y-44588000D03*
D25*
X110555000Y-108700000D03*
X108445000Y-108700000D03*
D26*
X103800000Y-74155000D03*
X103800000Y-72045000D03*
X109900000Y-74155000D03*
X109900000Y-72045000D03*
D25*
X94045000Y-61900000D03*
X96155000Y-61900000D03*
D27*
X56900000Y-59225000D03*
X56900000Y-57575000D03*
X55400000Y-57575000D03*
X55400000Y-59225000D03*
X58400000Y-59225000D03*
X58400000Y-57575000D03*
X36700000Y-117575000D03*
X36700000Y-119225000D03*
X39100000Y-117575000D03*
X39100000Y-119225000D03*
X40894000Y-83375000D03*
X40894000Y-81725000D03*
X40894000Y-88455000D03*
X40894000Y-86805000D03*
X40894000Y-93726000D03*
X40894000Y-92076000D03*
X40894000Y-98869000D03*
X40894000Y-97219000D03*
X64200000Y-118925000D03*
X64200000Y-117275000D03*
X55400000Y-69175000D03*
X55400000Y-70825000D03*
X56900000Y-69175000D03*
X56900000Y-70825000D03*
D28*
X115154500Y-104293000D03*
X115154500Y-103658000D03*
X115154500Y-103023000D03*
X115154500Y-102388000D03*
X115154500Y-101753000D03*
X115154500Y-101118000D03*
X115154500Y-100483000D03*
X115154500Y-99848000D03*
X115154500Y-99213000D03*
X115154500Y-98578000D03*
X115154500Y-97943000D03*
X115154500Y-97308000D03*
X115154500Y-96673000D03*
X115154500Y-96038000D03*
X115154500Y-95403000D03*
X115154500Y-94768000D03*
X115154500Y-94133000D03*
X115154500Y-93498000D03*
X115154500Y-92863000D03*
X115154500Y-92228000D03*
X115154500Y-91593000D03*
X115154500Y-90958000D03*
X115154500Y-90323000D03*
X115154500Y-89688000D03*
X115154500Y-89053000D03*
X115154500Y-88418000D03*
X121885500Y-103658000D03*
X121885500Y-101753000D03*
X121885500Y-103023000D03*
X121885500Y-104293000D03*
X121885500Y-102388000D03*
X121885500Y-90323000D03*
X121885500Y-90958000D03*
X121885500Y-89053000D03*
X121885500Y-88418000D03*
X121885500Y-89688000D03*
X121885500Y-98578000D03*
X121885500Y-97943000D03*
X121885500Y-100483000D03*
X121885500Y-99848000D03*
X121885500Y-101118000D03*
X121885500Y-99213000D03*
X121885500Y-96038000D03*
X121885500Y-97308000D03*
X121885500Y-94768000D03*
X121885500Y-95403000D03*
X121885500Y-96673000D03*
X121885500Y-94133000D03*
X121885500Y-92228000D03*
X121885500Y-93498000D03*
X121885500Y-92863000D03*
X121885500Y-91593000D03*
D29*
X118520000Y-96355500D03*
D30*
X116615000Y-105690000D03*
X116615000Y-87021000D03*
X120552000Y-106642500D03*
X120552000Y-86068500D03*
D31*
X70500000Y-111700000D03*
X79500000Y-111700000D03*
X71000000Y-111700000D03*
X71500000Y-111700000D03*
X72000000Y-111700000D03*
X72500000Y-111700000D03*
X73000000Y-111700000D03*
X73500000Y-111700000D03*
X74000000Y-111700000D03*
X74500000Y-111700000D03*
X75000000Y-111700000D03*
X75500000Y-111700000D03*
X76000000Y-111700000D03*
X76500000Y-111700000D03*
X77000000Y-111700000D03*
X77500000Y-111700000D03*
X78000000Y-111700000D03*
X78500000Y-111700000D03*
X79000000Y-111700000D03*
D32*
X67500000Y-112700000D03*
X82000000Y-112700000D03*
X82600000Y-117650000D03*
X66900000Y-117650000D03*
D33*
X45700000Y-116025000D03*
X45050000Y-116025000D03*
X46350000Y-116025000D03*
X44400000Y-116025000D03*
X47000000Y-116025000D03*
D34*
X42600000Y-116150000D03*
X48800000Y-116150000D03*
D35*
X41700000Y-118700000D03*
X49700000Y-118700000D03*
D36*
X44500000Y-118700000D03*
X46900000Y-118700000D03*
D37*
X110500000Y-104300000D03*
X108500000Y-104300000D03*
D38*
X106250000Y-102050000D03*
X112750000Y-102050000D03*
D39*
X31600000Y-107140000D03*
D40*
X31600000Y-104600000D03*
X31600000Y-102060000D03*
D33*
X58300000Y-116000000D03*
X57650000Y-116000000D03*
X58950000Y-116000000D03*
X57000000Y-116000000D03*
X59600000Y-116000000D03*
D34*
X55200000Y-116125000D03*
X61400000Y-116125000D03*
D35*
X54300000Y-118675000D03*
X62300000Y-118675000D03*
D36*
X57100000Y-118675000D03*
X59500000Y-118675000D03*
D41*
X123276000Y-53128000D03*
X123276000Y-39328000D03*
X114976000Y-53128000D03*
X114976000Y-39328000D03*
D42*
X120676000Y-50728000D03*
X120676000Y-49628000D03*
X120676000Y-48528000D03*
X120676000Y-47428000D03*
X120676000Y-46328000D03*
X120676000Y-45228000D03*
X120676000Y-44128000D03*
X120676000Y-43028000D03*
D39*
X52000000Y-118640000D03*
D40*
X52000000Y-116100000D03*
D43*
X112649000Y-81661000D03*
X112649000Y-79961000D03*
X112649000Y-83361000D03*
D39*
X41656000Y-44831000D03*
D40*
X41656000Y-42291000D03*
D39*
X41656000Y-53340000D03*
D40*
X41656000Y-50800000D03*
D44*
X47300000Y-98600000D03*
X47300000Y-89600000D03*
D27*
X47600000Y-108050000D03*
X45600000Y-107100000D03*
X47600000Y-106150000D03*
D45*
X111850000Y-107600000D03*
X112800000Y-105600000D03*
X113750000Y-107600000D03*
X53250000Y-78300000D03*
X54200000Y-76300000D03*
X55150000Y-78300000D03*
X56550000Y-78300000D03*
X57500000Y-76300000D03*
X58450000Y-78300000D03*
D22*
X56000000Y-94200000D03*
X57000000Y-94200000D03*
X56000000Y-91800000D03*
X57000000Y-91800000D03*
X56000000Y-92600000D03*
X57000000Y-92600000D03*
X56000000Y-90200000D03*
X57000000Y-90200000D03*
X56000000Y-88600000D03*
X57000000Y-88600000D03*
X56000000Y-91000000D03*
X57000000Y-91000000D03*
X56000000Y-95000000D03*
X57000000Y-95000000D03*
X56000000Y-89400000D03*
X57000000Y-89400000D03*
X56000000Y-95800000D03*
X57000000Y-95800000D03*
X56000000Y-93400000D03*
X57000000Y-93400000D03*
X56000000Y-96600000D03*
X57000000Y-96600000D03*
X56000000Y-97400000D03*
X57000000Y-97400000D03*
X56000000Y-98200000D03*
X57000000Y-98200000D03*
X89000000Y-91000000D03*
X88000000Y-91000000D03*
X117221000Y-80145000D03*
X117221000Y-81145000D03*
X121277000Y-81153000D03*
X120277000Y-81153000D03*
X121920000Y-79621000D03*
X121920000Y-78621000D03*
X118245000Y-81153000D03*
X119245000Y-81153000D03*
X117991000Y-73914000D03*
X118991000Y-73914000D03*
X50400000Y-98600000D03*
X50400000Y-99600000D03*
X51300000Y-98600000D03*
X51300000Y-99600000D03*
X124400000Y-90400000D03*
X123400000Y-90400000D03*
X107495000Y-95631000D03*
X107495000Y-94631000D03*
X79600000Y-107000000D03*
X79600000Y-108000000D03*
X78800000Y-107000000D03*
X78800000Y-108000000D03*
X78000000Y-107000000D03*
X78000000Y-108000000D03*
X77200000Y-107000000D03*
X77200000Y-108000000D03*
X76300000Y-107000000D03*
X76300000Y-108000000D03*
X75500000Y-107000000D03*
X75500000Y-108000000D03*
X74700000Y-107000000D03*
X74700000Y-108000000D03*
X73900000Y-107000000D03*
X73900000Y-108000000D03*
X73000000Y-108000000D03*
X73000000Y-107000000D03*
X48600000Y-107600000D03*
X48600000Y-106600000D03*
X50200000Y-106600000D03*
X50200000Y-107600000D03*
X49400000Y-106600000D03*
X49400000Y-107600000D03*
X49400000Y-53500000D03*
X49400000Y-54500000D03*
X56900000Y-56100000D03*
X56900000Y-55100000D03*
X55900000Y-56100000D03*
X55900000Y-55100000D03*
X57900000Y-56100000D03*
X57900000Y-55100000D03*
X36700000Y-116400000D03*
X36700000Y-115400000D03*
X39100000Y-116400000D03*
X39100000Y-115400000D03*
X112300000Y-108700000D03*
X113300000Y-108700000D03*
X40640000Y-80383000D03*
X40640000Y-79383000D03*
X40640000Y-85463000D03*
X40640000Y-84463000D03*
X40640000Y-90670000D03*
X40640000Y-89670000D03*
X40640000Y-95877000D03*
X40640000Y-94877000D03*
X41529000Y-79375000D03*
X41529000Y-80375000D03*
X41529000Y-84463000D03*
X41529000Y-85463000D03*
X41529000Y-89670000D03*
X41529000Y-90670000D03*
X41529000Y-94877000D03*
X41529000Y-95877000D03*
X40894000Y-59436000D03*
X40894000Y-58436000D03*
X40894000Y-64508000D03*
X40894000Y-63508000D03*
X40894000Y-69588000D03*
X40894000Y-68588000D03*
X40894000Y-74668000D03*
X40894000Y-73668000D03*
X91400000Y-79800000D03*
X90400000Y-79800000D03*
X52400000Y-107600000D03*
X52400000Y-106600000D03*
X51600000Y-107600000D03*
X51600000Y-106600000D03*
X124400000Y-88800000D03*
X123400000Y-88800000D03*
X124400000Y-89600000D03*
X123400000Y-89600000D03*
X105400000Y-88000000D03*
X105400000Y-89000000D03*
X109300000Y-76800000D03*
X108300000Y-76800000D03*
X49149000Y-50427000D03*
X49149000Y-51427000D03*
X104500000Y-89000000D03*
X104500000Y-88000000D03*
X42156000Y-46990000D03*
X41156000Y-46990000D03*
X41156000Y-55499000D03*
X42156000Y-55499000D03*
X112300000Y-88000000D03*
X112300000Y-89000000D03*
X112500000Y-78900000D03*
X112500000Y-77900000D03*
X105410000Y-44077000D03*
X105410000Y-45077000D03*
X63200000Y-115800000D03*
X64200000Y-115800000D03*
X96900000Y-81600000D03*
X95900000Y-81600000D03*
X98100000Y-81600000D03*
X99100000Y-81600000D03*
X99600000Y-79600000D03*
X100600000Y-79600000D03*
X96647000Y-86876000D03*
X96647000Y-87876000D03*
X97536000Y-86876000D03*
X97536000Y-87876000D03*
X98425000Y-86876000D03*
X98425000Y-87876000D03*
X95496000Y-94615000D03*
X94496000Y-94615000D03*
X94496000Y-95631000D03*
X95496000Y-95631000D03*
X54200000Y-75100000D03*
X54200000Y-74100000D03*
X55700000Y-74100000D03*
X55700000Y-75100000D03*
D46*
X100953000Y-87749000D03*
X100453000Y-87749000D03*
X99953000Y-87749000D03*
X99453000Y-87749000D03*
X100953000Y-86749000D03*
X100453000Y-86749000D03*
X99953000Y-86749000D03*
X99453000Y-86749000D03*
D47*
X51700000Y-63100000D03*
X51700000Y-66100000D03*
X58700000Y-63100000D03*
X58700000Y-66100000D03*
D48*
X93100000Y-54900000D03*
X96100000Y-54900000D03*
X93100000Y-47900000D03*
X96100000Y-47900000D03*
D49*
X106400000Y-105900000D03*
X106400000Y-108900000D03*
X113100000Y-58500000D03*
X113100000Y-55500000D03*
D50*
X125000000Y-53700000D03*
X111400000Y-72100000D03*
X102400000Y-72100000D03*
X51800000Y-90900000D03*
X52000000Y-97000000D03*
D51*
X45833400Y-110850900D03*
X44766600Y-110850900D03*
X45833400Y-109149100D03*
X44766600Y-109149100D03*
X58433400Y-110850900D03*
X57366600Y-110850900D03*
X58433400Y-109149100D03*
X57366600Y-109149100D03*
D52*
X57925000Y-102700000D03*
X58675000Y-102700000D03*
D53*
X120580000Y-79937000D03*
X119500000Y-79937000D03*
X118420000Y-79937000D03*
X120580000Y-79157000D03*
X120580000Y-78377000D03*
X120580000Y-77597000D03*
X120580000Y-76817000D03*
X120580000Y-76037000D03*
X120580000Y-75257000D03*
X119500000Y-75257000D03*
X119500000Y-76037000D03*
X119500000Y-76817000D03*
X119500000Y-77597000D03*
X119500000Y-78377000D03*
X119500000Y-79157000D03*
X118420000Y-79157000D03*
X118420000Y-78377000D03*
X118420000Y-77597000D03*
X118420000Y-76817000D03*
X118420000Y-76037000D03*
X118420000Y-75257000D03*
D54*
X44800000Y-100850000D03*
X44800000Y-102750000D03*
X44800000Y-101800000D03*
X47600000Y-102750000D03*
X47600000Y-100850000D03*
X47600000Y-101800000D03*
D55*
X120631250Y-61931250D03*
X119343750Y-61931250D03*
X118056250Y-61931250D03*
X116768750Y-61931250D03*
X120631250Y-60643750D03*
X119343750Y-60643750D03*
X118056250Y-60643750D03*
X116768750Y-60643750D03*
X120631250Y-59356250D03*
X119343750Y-59356250D03*
X118056250Y-59356250D03*
X116768750Y-59356250D03*
X120631250Y-58068750D03*
X119343750Y-58068750D03*
X118056250Y-58068750D03*
X116768750Y-58068750D03*
D56*
X49450000Y-102900000D03*
X50100000Y-102900000D03*
X50750000Y-102900000D03*
X50750000Y-100700000D03*
X49450000Y-100700000D03*
X50100000Y-100700000D03*
D57*
X109720000Y-97506000D03*
X109720000Y-96256000D03*
X109720000Y-98756000D03*
X108720000Y-98756000D03*
X108720000Y-97506000D03*
X108720000Y-96256000D03*
X108720000Y-95006000D03*
X108720000Y-93756000D03*
X108720000Y-92506000D03*
X109720000Y-92506000D03*
X109720000Y-93756000D03*
X109720000Y-95006000D03*
D58*
X41225000Y-108525000D03*
X41875000Y-108525000D03*
X42525000Y-108525000D03*
X43175000Y-108525000D03*
X41225000Y-112475000D03*
X41875000Y-112475000D03*
X42525000Y-112475000D03*
X43175000Y-112475000D03*
D56*
X71950000Y-107100000D03*
X71300000Y-107100000D03*
X70650000Y-107100000D03*
X70650000Y-109300000D03*
X71950000Y-109300000D03*
X71300000Y-109300000D03*
D59*
X69350000Y-107100000D03*
X67450000Y-107100000D03*
X68400000Y-107100000D03*
X67450000Y-109900000D03*
X69350000Y-109900000D03*
D60*
X52850000Y-113250000D03*
X52850000Y-112750000D03*
X52850000Y-112250000D03*
X52850000Y-111750000D03*
X52850000Y-111250000D03*
X52850000Y-110750000D03*
X52850000Y-110250000D03*
X52850000Y-109750000D03*
D61*
X52050000Y-108950000D03*
X51550000Y-108950000D03*
X51050000Y-108950000D03*
X50550000Y-108950000D03*
X50050000Y-108950000D03*
X49550000Y-108950000D03*
X49050000Y-108950000D03*
X48550000Y-108950000D03*
D60*
X47750000Y-109750000D03*
X47750000Y-110250000D03*
X47750000Y-110750000D03*
X47750000Y-111250000D03*
X47750000Y-111750000D03*
X47750000Y-112250000D03*
X47750000Y-112750000D03*
X47750000Y-113250000D03*
D61*
X48550000Y-114050000D03*
X49050000Y-114050000D03*
X49550000Y-114050000D03*
X50050000Y-114050000D03*
X50550000Y-114050000D03*
X51050000Y-114050000D03*
X51550000Y-114050000D03*
X52050000Y-114050000D03*
D62*
X49050000Y-110250000D03*
X49050000Y-112750000D03*
X51550000Y-110250000D03*
X50300000Y-112750000D03*
X49050000Y-111500000D03*
X50300000Y-111500000D03*
X51550000Y-111500000D03*
X50300000Y-110250000D03*
X51550000Y-112750000D03*
D63*
X50725000Y-54175000D03*
X50725000Y-53525000D03*
X50725000Y-52875000D03*
X50725000Y-52225000D03*
X54675000Y-54175000D03*
X54675000Y-53525000D03*
X54675000Y-52875000D03*
X54675000Y-52225000D03*
D64*
X46275000Y-114060000D03*
D65*
X44325000Y-112340000D03*
X46275000Y-112340000D03*
X44325000Y-114260000D03*
D66*
X96075000Y-67200000D03*
X96075000Y-66700000D03*
X96075000Y-66200000D03*
X96075000Y-67700000D03*
X96075000Y-68200000D03*
X99525000Y-67200000D03*
X99525000Y-66700000D03*
X99525000Y-66200000D03*
X99525000Y-67700000D03*
X99525000Y-68200000D03*
D67*
X98550000Y-65475000D03*
X97050000Y-65475000D03*
X97050000Y-68925000D03*
X98550000Y-68925000D03*
D68*
X98300000Y-66700000D03*
X98300000Y-67700000D03*
X97300000Y-67700000D03*
X97300000Y-66700000D03*
D66*
X96075000Y-71700000D03*
X96075000Y-71200000D03*
X96075000Y-70700000D03*
X96075000Y-72200000D03*
X96075000Y-72700000D03*
X99525000Y-71700000D03*
X99525000Y-71200000D03*
X99525000Y-70700000D03*
X99525000Y-72200000D03*
X99525000Y-72700000D03*
D67*
X98550000Y-69975000D03*
X97050000Y-69975000D03*
X97050000Y-73425000D03*
X98550000Y-73425000D03*
D68*
X98300000Y-71200000D03*
X98300000Y-72200000D03*
X97300000Y-72200000D03*
X97300000Y-71200000D03*
D67*
X106800000Y-75725000D03*
X106300000Y-75725000D03*
X105800000Y-75725000D03*
X107300000Y-75725000D03*
X107800000Y-75725000D03*
X106800000Y-72275000D03*
X106300000Y-72275000D03*
X105800000Y-72275000D03*
X107300000Y-72275000D03*
X107800000Y-72275000D03*
D66*
X105075000Y-73250000D03*
X105075000Y-74750000D03*
X108525000Y-74750000D03*
X108525000Y-73250000D03*
D68*
X106300000Y-73500000D03*
X107300000Y-73500000D03*
X107300000Y-74500000D03*
X106300000Y-74500000D03*
D58*
X48375000Y-86475000D03*
X47725000Y-86475000D03*
X47075000Y-86475000D03*
X46425000Y-86475000D03*
X48375000Y-82525000D03*
X47725000Y-82525000D03*
X47075000Y-82525000D03*
X46425000Y-82525000D03*
X44875000Y-86475000D03*
X44225000Y-86475000D03*
X43575000Y-86475000D03*
X42925000Y-86475000D03*
X44875000Y-82525000D03*
X44225000Y-82525000D03*
X43575000Y-82525000D03*
X42925000Y-82525000D03*
D69*
X43561000Y-68389000D03*
X43561000Y-58865000D03*
X46101000Y-58865000D03*
X48641000Y-58865000D03*
X48641000Y-68389000D03*
X46101000Y-68389000D03*
X43561000Y-80073000D03*
X43561000Y-70549000D03*
X46101000Y-70549000D03*
X48641000Y-70549000D03*
X48641000Y-80073000D03*
X46101000Y-80073000D03*
D70*
X90475000Y-80875000D03*
X91925000Y-82525000D03*
X90475000Y-82525000D03*
X91925000Y-80875000D03*
D71*
X47879000Y-50894000D03*
X46609000Y-50894000D03*
X45339000Y-50894000D03*
X44069000Y-50894000D03*
X44069000Y-56294000D03*
X45339000Y-56294000D03*
X46609000Y-56294000D03*
X47879000Y-56294000D03*
X47879000Y-42512000D03*
X46609000Y-42512000D03*
X45339000Y-42512000D03*
X44069000Y-42512000D03*
X44069000Y-47912000D03*
X45339000Y-47912000D03*
X46609000Y-47912000D03*
X47879000Y-47912000D03*
D72*
X109435000Y-77900000D03*
X108165000Y-77900000D03*
X106895000Y-77900000D03*
X110705000Y-77900000D03*
X110705000Y-85700000D03*
X109435000Y-85700000D03*
X108165000Y-85700000D03*
X106895000Y-85700000D03*
D14*
X108800000Y-81800000D03*
X110400000Y-81800000D03*
X110400000Y-83400000D03*
X108800000Y-83400000D03*
X107200000Y-83400000D03*
X107200000Y-81800000D03*
X107200000Y-80200000D03*
X108800000Y-80200000D03*
X110400000Y-80200000D03*
D73*
X110750000Y-89100000D03*
X110750000Y-87350000D03*
X110750000Y-90850000D03*
X107050000Y-87350000D03*
X107050000Y-89100000D03*
X107050000Y-90850000D03*
D70*
X101925000Y-78525000D03*
X100475000Y-76875000D03*
X101925000Y-76875000D03*
X100475000Y-78525000D03*
D63*
X64975000Y-112225000D03*
X64975000Y-112875000D03*
X64975000Y-113525000D03*
X64975000Y-114175000D03*
X61025000Y-112225000D03*
X61025000Y-112875000D03*
X61025000Y-113525000D03*
X61025000Y-114175000D03*
D64*
X58875000Y-114060000D03*
D65*
X56925000Y-112340000D03*
X58875000Y-112340000D03*
X56925000Y-114260000D03*
D74*
X96295000Y-95333000D03*
X96295000Y-94833000D03*
X96295000Y-94333000D03*
X96295000Y-93833000D03*
X96295000Y-93333000D03*
X96295000Y-92833000D03*
X96295000Y-92333000D03*
X96295000Y-91833000D03*
X96295000Y-91333000D03*
X96295000Y-90833000D03*
X96295000Y-90333000D03*
X96295000Y-89833000D03*
D46*
X96945000Y-89183000D03*
X99445000Y-89183000D03*
X98945000Y-89183000D03*
X98445000Y-89183000D03*
X97945000Y-89183000D03*
X97445000Y-89183000D03*
X99945000Y-89183000D03*
X100445000Y-89183000D03*
X100945000Y-89183000D03*
X101445000Y-89183000D03*
X101945000Y-89183000D03*
X102445000Y-89183000D03*
D74*
X103095000Y-92333000D03*
X103095000Y-91833000D03*
X103095000Y-91333000D03*
X103095000Y-90833000D03*
X103095000Y-90333000D03*
X103095000Y-89833000D03*
X103095000Y-92833000D03*
X103095000Y-93333000D03*
X103095000Y-93833000D03*
X103095000Y-94333000D03*
X103095000Y-94833000D03*
X103095000Y-95333000D03*
D46*
X99945000Y-95983000D03*
X99445000Y-95983000D03*
X98945000Y-95983000D03*
X98445000Y-95983000D03*
X97945000Y-95983000D03*
X97445000Y-95983000D03*
X96945000Y-95983000D03*
X100445000Y-95983000D03*
X100945000Y-95983000D03*
X101445000Y-95983000D03*
X101945000Y-95983000D03*
X102445000Y-95983000D03*
D75*
X98945000Y-93333000D03*
X98945000Y-91833000D03*
X100445000Y-91833000D03*
X100445000Y-93333000D03*
D67*
X109835000Y-44012000D03*
X108835000Y-44012000D03*
X109335000Y-44012000D03*
X108335000Y-44012000D03*
X107835000Y-44012000D03*
X107335000Y-44012000D03*
D66*
X110560000Y-43287000D03*
X110560000Y-42787000D03*
X110560000Y-42287000D03*
X110560000Y-41787000D03*
X110560000Y-41287000D03*
X110560000Y-40787000D03*
D67*
X108835000Y-40062000D03*
X109335000Y-40062000D03*
X109835000Y-40062000D03*
X108335000Y-40062000D03*
X107835000Y-40062000D03*
X107335000Y-40062000D03*
D66*
X106610000Y-40787000D03*
X106610000Y-41287000D03*
X106610000Y-41787000D03*
X106610000Y-42287000D03*
X106610000Y-42787000D03*
X106610000Y-43287000D03*
D76*
X109385000Y-42837000D03*
X108585000Y-42837000D03*
X107785000Y-42837000D03*
X107785000Y-42037000D03*
X108585000Y-42037000D03*
X109385000Y-42037000D03*
X109385000Y-41237000D03*
X108585000Y-41237000D03*
X107785000Y-41237000D03*
D70*
X95086000Y-93535000D03*
X93636000Y-91885000D03*
X95086000Y-91885000D03*
X93636000Y-93535000D03*
D77*
X54900000Y-111500000D03*
X54900000Y-112700000D03*
X54900000Y-110300000D03*
D78*
X39800000Y-112825000D03*
X39800000Y-111375000D03*
D79*
X102710000Y-42331700D03*
X102710000Y-41061700D03*
X102710000Y-39791700D03*
X102710000Y-38521700D03*
X102710000Y-37251700D03*
X102710000Y-35981700D03*
X102710000Y-34711700D03*
X102710000Y-33441700D03*
X102710000Y-32171700D03*
X102710000Y-30901700D03*
X101440000Y-42331700D03*
X101440000Y-41061700D03*
X101440000Y-39791700D03*
X101440000Y-38521700D03*
X101440000Y-37251700D03*
X101440000Y-35981700D03*
X101440000Y-34711700D03*
X101440000Y-33441700D03*
X101440000Y-32171700D03*
X101440000Y-30901700D03*
X100170000Y-42331700D03*
X100170000Y-41061700D03*
X100170000Y-39791700D03*
X100170000Y-38521700D03*
X100170000Y-37251700D03*
X100170000Y-35981700D03*
X100170000Y-34711700D03*
X100170000Y-33441700D03*
X100170000Y-32171700D03*
X100170000Y-30901700D03*
X98900000Y-42331700D03*
X98900000Y-41061700D03*
X98900000Y-39791700D03*
X98900000Y-38521700D03*
X98900000Y-37251700D03*
X98900000Y-35981700D03*
X98900000Y-34711700D03*
X98900000Y-33441700D03*
X98900000Y-32171700D03*
X98900000Y-30901700D03*
X97630000Y-42331700D03*
X97630000Y-41061700D03*
X97630000Y-39791700D03*
X97630000Y-38521700D03*
X97630000Y-37251700D03*
X97630000Y-35981700D03*
X97630000Y-34711700D03*
X97630000Y-33441700D03*
X97630000Y-32171700D03*
X97630000Y-30901700D03*
X96360000Y-42331700D03*
X96360000Y-41061700D03*
X96360000Y-39791700D03*
X96360000Y-38521700D03*
X96360000Y-37251700D03*
X96360000Y-35981700D03*
X96360000Y-34711700D03*
X96360000Y-33441700D03*
X96360000Y-32171700D03*
X96360000Y-30901700D03*
X95090000Y-42331700D03*
X95090000Y-41061700D03*
X95090000Y-39791700D03*
X95090000Y-38521700D03*
X95090000Y-37251700D03*
X95090000Y-35981700D03*
X95090000Y-34711700D03*
X95090000Y-33441700D03*
X95090000Y-32171700D03*
X95090000Y-30901700D03*
X93820000Y-42331700D03*
X93820000Y-41061700D03*
X93820000Y-39791700D03*
X93820000Y-38521700D03*
X93820000Y-37251700D03*
X93820000Y-35981700D03*
X93820000Y-34711700D03*
X93820000Y-33441700D03*
X93820000Y-32171700D03*
X93820000Y-30901700D03*
X92550000Y-42331700D03*
X92550000Y-41061700D03*
X92550000Y-39791700D03*
X92550000Y-38521700D03*
X92550000Y-37251700D03*
X92550000Y-35981700D03*
X92550000Y-34711700D03*
X92550000Y-33441700D03*
X92550000Y-32171700D03*
X92550000Y-30901700D03*
X91280000Y-42331700D03*
X91280000Y-41061700D03*
X91280000Y-39791700D03*
X91280000Y-38521700D03*
X91280000Y-37251700D03*
X91280000Y-35981700D03*
X91280000Y-34711700D03*
X91280000Y-33441700D03*
X91280000Y-32171700D03*
X91280000Y-30901700D03*
X90010000Y-42331700D03*
X90010000Y-41061700D03*
X90010000Y-39791700D03*
X90010000Y-38521700D03*
X90010000Y-37251700D03*
X90010000Y-35981700D03*
X90010000Y-34711700D03*
X90010000Y-33441700D03*
X90010000Y-32171700D03*
X90010000Y-30901700D03*
X88740000Y-42331700D03*
X88740000Y-41061700D03*
X88740000Y-39791700D03*
X88740000Y-38521700D03*
X88740000Y-37251700D03*
X88740000Y-35981700D03*
X88740000Y-34711700D03*
X88740000Y-33441700D03*
X88740000Y-32171700D03*
X88740000Y-30901700D03*
X87470000Y-42331700D03*
X87470000Y-41061700D03*
X87470000Y-39791700D03*
X87470000Y-38521700D03*
X87470000Y-37251700D03*
X87470000Y-35981700D03*
X87470000Y-34711700D03*
X87470000Y-33441700D03*
X87470000Y-32171700D03*
X87470000Y-30901700D03*
X86200000Y-42331700D03*
X86200000Y-41061700D03*
X86200000Y-39791700D03*
X86200000Y-38521700D03*
X86200000Y-37251700D03*
X86200000Y-35981700D03*
X86200000Y-34711700D03*
X86200000Y-33441700D03*
X86200000Y-32171700D03*
X86200000Y-30901700D03*
X84930000Y-42331700D03*
X84930000Y-41061700D03*
X84930000Y-39791700D03*
X84930000Y-38521700D03*
X84930000Y-37251700D03*
X84930000Y-35981700D03*
X84930000Y-34711700D03*
X84930000Y-33441700D03*
X84930000Y-32171700D03*
X84930000Y-30901700D03*
X83660000Y-42331700D03*
X83660000Y-41061700D03*
X83660000Y-39791700D03*
X83660000Y-38521700D03*
X83660000Y-37251700D03*
X83660000Y-35981700D03*
X83660000Y-34711700D03*
X83660000Y-33441700D03*
X83660000Y-32171700D03*
X83660000Y-30901700D03*
X82390000Y-42331700D03*
X82390000Y-41061700D03*
X82390000Y-39791700D03*
X82390000Y-38521700D03*
X82390000Y-37251700D03*
X82390000Y-35981700D03*
X82390000Y-34711700D03*
X82390000Y-33441700D03*
X82390000Y-32171700D03*
X82390000Y-30901700D03*
X81120000Y-42331700D03*
X81120000Y-41061700D03*
X81120000Y-39791700D03*
X81120000Y-38521700D03*
X81120000Y-37251700D03*
X81120000Y-35981700D03*
X81120000Y-34711700D03*
X81120000Y-33441700D03*
X81120000Y-32171700D03*
X81120000Y-30901700D03*
X79850000Y-42331700D03*
X79850000Y-41061700D03*
X79850000Y-39791700D03*
X79850000Y-38521700D03*
X79850000Y-37251700D03*
X79850000Y-35981700D03*
X79850000Y-34711700D03*
X79850000Y-33441700D03*
X79850000Y-32171700D03*
X79850000Y-30901700D03*
X78580000Y-42331700D03*
X78580000Y-41061700D03*
X78580000Y-39791700D03*
X78580000Y-38521700D03*
X78580000Y-37251700D03*
X78580000Y-35981700D03*
X78580000Y-34711700D03*
X78580000Y-33441700D03*
X78580000Y-32171700D03*
X78580000Y-30901700D03*
X77310000Y-42331700D03*
X77310000Y-41061700D03*
X77310000Y-39791700D03*
X77310000Y-38521700D03*
X77310000Y-37251700D03*
X77310000Y-35981700D03*
X77310000Y-34711700D03*
X77310000Y-33441700D03*
X77310000Y-32171700D03*
X77310000Y-30901700D03*
X76040000Y-42331700D03*
X76040000Y-41061700D03*
X76040000Y-39791700D03*
X76040000Y-38521700D03*
X76040000Y-37251700D03*
X76040000Y-35981700D03*
X76040000Y-34711700D03*
X76040000Y-33441700D03*
X76040000Y-32171700D03*
X76040000Y-30901700D03*
X74770000Y-42331700D03*
X74770000Y-41061700D03*
X74770000Y-39791700D03*
X74770000Y-38521700D03*
X74770000Y-37251700D03*
X74770000Y-35981700D03*
X74770000Y-34711700D03*
X74770000Y-33441700D03*
X74770000Y-32171700D03*
X74770000Y-30901700D03*
X73500000Y-42331700D03*
X73500000Y-41061700D03*
X73500000Y-39791700D03*
X73500000Y-38521700D03*
X73500000Y-37251700D03*
X73500000Y-35981700D03*
X73500000Y-34711700D03*
X73500000Y-33441700D03*
X73500000Y-32171700D03*
X73500000Y-30901700D03*
X72230000Y-42331700D03*
X72230000Y-41061700D03*
X72230000Y-39791700D03*
X72230000Y-38521700D03*
X72230000Y-37251700D03*
X72230000Y-35981700D03*
X72230000Y-34711700D03*
X72230000Y-33441700D03*
X72230000Y-32171700D03*
X72230000Y-30901700D03*
X70960000Y-42331700D03*
X70960000Y-41061700D03*
X70960000Y-39791700D03*
X70960000Y-38521700D03*
X70960000Y-37251700D03*
X70960000Y-35981700D03*
X70960000Y-34711700D03*
X70960000Y-33441700D03*
X70960000Y-32171700D03*
X70960000Y-30901700D03*
X69690000Y-42331700D03*
X69690000Y-41061700D03*
X69690000Y-39791700D03*
X69690000Y-38521700D03*
X69690000Y-37251700D03*
X69690000Y-35981700D03*
X69690000Y-34711700D03*
X69690000Y-33441700D03*
X69690000Y-32171700D03*
X69690000Y-30901700D03*
X68420000Y-42331700D03*
X68420000Y-41061700D03*
X68420000Y-39791700D03*
X68420000Y-38521700D03*
X68420000Y-37251700D03*
X68420000Y-35981700D03*
X68420000Y-34711700D03*
X68420000Y-33441700D03*
X68420000Y-32171700D03*
X68420000Y-30901700D03*
X67150000Y-42331700D03*
X67150000Y-41061700D03*
X67150000Y-39791700D03*
X67150000Y-38521700D03*
X67150000Y-37251700D03*
X67150000Y-35981700D03*
X67150000Y-34711700D03*
X67150000Y-33441700D03*
X67150000Y-32171700D03*
X67150000Y-30901700D03*
X65880000Y-42331700D03*
X65880000Y-41061700D03*
X65880000Y-39791700D03*
X65880000Y-38521700D03*
X65880000Y-37251700D03*
X65880000Y-35981700D03*
X65880000Y-34711700D03*
X65880000Y-33441700D03*
X65880000Y-32171700D03*
X65880000Y-30901700D03*
X64610000Y-42331700D03*
X64610000Y-41061700D03*
X64610000Y-39791700D03*
X64610000Y-38521700D03*
X64610000Y-37251700D03*
X64610000Y-35981700D03*
X64610000Y-34711700D03*
X64610000Y-33441700D03*
X64610000Y-32171700D03*
X64610000Y-30901700D03*
X63340000Y-42331700D03*
X63340000Y-41061700D03*
X63340000Y-39791700D03*
X63340000Y-38521700D03*
X63340000Y-37251700D03*
X63340000Y-35981700D03*
X63340000Y-34711700D03*
X63340000Y-33441700D03*
X63340000Y-32171700D03*
X63340000Y-30901700D03*
X62070000Y-42331700D03*
X62070000Y-41061700D03*
X62070000Y-39791700D03*
X62070000Y-38521700D03*
X62070000Y-37251700D03*
X62070000Y-35981700D03*
X62070000Y-34711700D03*
X62070000Y-33441700D03*
X62070000Y-32171700D03*
X62070000Y-30901700D03*
X60800000Y-42331700D03*
X60800000Y-41061700D03*
X60800000Y-39791700D03*
X60800000Y-38521700D03*
X60800000Y-37251700D03*
X60800000Y-35981700D03*
X60800000Y-34711700D03*
X60800000Y-33441700D03*
X60800000Y-32171700D03*
X60800000Y-30901700D03*
X59530000Y-42331700D03*
X59530000Y-41061700D03*
X59530000Y-39791700D03*
X59530000Y-38521700D03*
X59530000Y-37251700D03*
X59530000Y-35981700D03*
X59530000Y-34711700D03*
X59530000Y-33441700D03*
X59530000Y-32171700D03*
X59530000Y-30901700D03*
X58260000Y-42331700D03*
X58260000Y-41061700D03*
X58260000Y-39791700D03*
X58260000Y-38521700D03*
X58260000Y-37251700D03*
X58260000Y-35981700D03*
X58260000Y-34711700D03*
X58260000Y-33441700D03*
X58260000Y-32171700D03*
X58260000Y-30901700D03*
X56990000Y-42331700D03*
X56990000Y-41061700D03*
X56990000Y-39791700D03*
X56990000Y-38521700D03*
X56990000Y-37251700D03*
X56990000Y-35981700D03*
X56990000Y-34711700D03*
X56990000Y-33441700D03*
X56990000Y-32171700D03*
X56990000Y-30901700D03*
X55720000Y-42331700D03*
X55720000Y-41061700D03*
X55720000Y-39791700D03*
X55720000Y-38521700D03*
X55720000Y-37251700D03*
X55720000Y-35981700D03*
X55720000Y-34711700D03*
X55720000Y-33441700D03*
X55720000Y-32171700D03*
X55720000Y-30901700D03*
X54450000Y-42331700D03*
X54450000Y-41061700D03*
X54450000Y-39791700D03*
X54450000Y-38521700D03*
X54450000Y-37251700D03*
X54450000Y-35981700D03*
X54450000Y-34711700D03*
X54450000Y-33441700D03*
X54450000Y-32171700D03*
X54450000Y-30901700D03*
X53180000Y-42331700D03*
X53180000Y-41061700D03*
X53180000Y-39791700D03*
X53180000Y-38521700D03*
X53180000Y-37251700D03*
X53180000Y-35981700D03*
X53180000Y-34711700D03*
X53180000Y-33441700D03*
X53180000Y-32171700D03*
X53180000Y-30901700D03*
D80*
X105135700Y-39664700D03*
X50754300Y-36616700D03*
D81*
X46454300Y-34616700D03*
X109455700Y-34616700D03*
D82*
X32719000Y-67865000D03*
X32719000Y-65365000D03*
X32719000Y-62865000D03*
X32719000Y-60365000D03*
X32719000Y-70365000D03*
X32719000Y-72865000D03*
X32719000Y-75365000D03*
X32719000Y-77865000D03*
X37719000Y-60365000D03*
X37719000Y-62865000D03*
X37719000Y-65365000D03*
X37719000Y-67865000D03*
X37719000Y-70365000D03*
X37719000Y-72865000D03*
X37719000Y-75365000D03*
X37719000Y-77865000D03*
X32719000Y-88820000D03*
X32719000Y-86320000D03*
X32719000Y-83820000D03*
X32719000Y-81320000D03*
X32719000Y-91320000D03*
X32719000Y-93820000D03*
X32719000Y-96320000D03*
X32719000Y-98820000D03*
X37719000Y-81320000D03*
X37719000Y-83820000D03*
X37719000Y-86320000D03*
X37719000Y-88820000D03*
X37719000Y-91320000D03*
X37719000Y-93820000D03*
X37719000Y-96320000D03*
X37719000Y-98820000D03*
X32719000Y-56856000D03*
X32719000Y-54356000D03*
X32719000Y-51856000D03*
X37719000Y-51856000D03*
X37719000Y-54356000D03*
X37719000Y-56856000D03*
X32719000Y-48347000D03*
X32719000Y-45847000D03*
X32719000Y-43347000D03*
X37719000Y-43347000D03*
X37719000Y-45847000D03*
X37719000Y-48347000D03*
D24*
X113803000Y-90297000D03*
X113273000Y-90297000D03*
X114449000Y-87757000D03*
X113919000Y-87757000D03*
X65465000Y-115000000D03*
X64935000Y-115000000D03*
D23*
X117245000Y-56134000D03*
X120245000Y-56134000D03*
D21*
X48700000Y-56135000D03*
X48700000Y-56665000D03*
D24*
X46239000Y-41200000D03*
X45709000Y-41200000D03*
D27*
X40894000Y-62420000D03*
X40894000Y-60770000D03*
X40894000Y-67500000D03*
X40894000Y-65850000D03*
X40894000Y-72580000D03*
X40894000Y-70930000D03*
X40894000Y-77660000D03*
X40894000Y-76010000D03*
D83*
X62357000Y-47632000D03*
X64107000Y-45332000D03*
X60607000Y-45332000D03*
D84*
X36450000Y-101660000D03*
D85*
X40350000Y-101660000D03*
D84*
X36450000Y-102930000D03*
D85*
X40350000Y-102930000D03*
X36450000Y-104200000D03*
X40350000Y-104200000D03*
X36450000Y-105470000D03*
D84*
X40350000Y-105470000D03*
X36450000Y-106740000D03*
D85*
X40350000Y-106740000D03*
D86*
X104155000Y-70358000D03*
X104155000Y-47498000D03*
X109205000Y-70358000D03*
X109205000Y-47498000D03*
X104155000Y-67818000D03*
X104155000Y-65278000D03*
X104155000Y-62738000D03*
X104155000Y-60198000D03*
X104155000Y-57658000D03*
X104155000Y-55118000D03*
X104155000Y-52578000D03*
X104155000Y-50038000D03*
X109205000Y-67818000D03*
X109205000Y-65278000D03*
X109205000Y-62738000D03*
X109205000Y-60198000D03*
X109205000Y-57658000D03*
X109205000Y-55118000D03*
X109205000Y-52578000D03*
X109205000Y-50038000D03*
D21*
X40300000Y-108565000D03*
X40300000Y-108035000D03*
D24*
X68135000Y-111000000D03*
X68665000Y-111000000D03*
X68635000Y-106200000D03*
X69165000Y-106200000D03*
D22*
X86200000Y-98000000D03*
X86200000Y-99000000D03*
X87000000Y-98000000D03*
X87000000Y-99000000D03*
X55100000Y-89500000D03*
X55100000Y-88500000D03*
X57000000Y-104200000D03*
X57000000Y-103200000D03*
X43700000Y-102300000D03*
X43700000Y-101300000D03*
X44700000Y-88200000D03*
X44700000Y-89200000D03*
D21*
X56700000Y-113565000D03*
X56700000Y-113035000D03*
D87*
X112522000Y-120248000D03*
D88*
X112522000Y-110998000D03*
D89*
X107772000Y-117498000D03*
X107772000Y-112798000D03*
X117272000Y-117498000D03*
X117272000Y-112798000D03*
D90*
X112522000Y-116998000D03*
D91*
X120810000Y-115090000D03*
X35080000Y-111280000D03*
X120810000Y-35080000D03*
X35080000Y-37620000D03*
D11*
X67700000Y-103300000D03*
X66900000Y-103300000D03*
X66100000Y-103300000D03*
X62900000Y-103300000D03*
X62100000Y-103300000D03*
X61300000Y-103300000D03*
X67700000Y-102500000D03*
X66900000Y-102500000D03*
X66100000Y-102500000D03*
X62900000Y-102500000D03*
X62100000Y-102500000D03*
X61300000Y-102500000D03*
X67700000Y-101700000D03*
X66900000Y-101700000D03*
X66100000Y-101700000D03*
X62900000Y-101700000D03*
X62100000Y-101700000D03*
X61300000Y-101700000D03*
X67700000Y-100900000D03*
X66900000Y-100900000D03*
X66100000Y-100900000D03*
X62900000Y-100900000D03*
X62100000Y-100900000D03*
X61300000Y-100900000D03*
X67700000Y-100100000D03*
X66900000Y-100100000D03*
X66100000Y-100100000D03*
X62900000Y-100100000D03*
X62100000Y-100100000D03*
X61300000Y-100100000D03*
X67700000Y-99300000D03*
X66900000Y-99300000D03*
X66100000Y-99300000D03*
X62900000Y-99300000D03*
X62100000Y-99300000D03*
X61300000Y-99300000D03*
X67700000Y-98500000D03*
X66900000Y-98500000D03*
X66100000Y-98500000D03*
X62900000Y-98500000D03*
X62100000Y-98500000D03*
X61300000Y-98500000D03*
X67700000Y-97700000D03*
X66900000Y-97700000D03*
X66100000Y-97700000D03*
X62900000Y-97700000D03*
X62100000Y-97700000D03*
X61300000Y-97700000D03*
X67700000Y-96900000D03*
X66900000Y-96900000D03*
X66100000Y-96900000D03*
X62900000Y-96900000D03*
X62100000Y-96900000D03*
X61300000Y-96900000D03*
X67700000Y-96100000D03*
X66900000Y-96100000D03*
X66100000Y-96100000D03*
X62900000Y-96100000D03*
X62100000Y-96100000D03*
X61300000Y-96100000D03*
X67700000Y-95300000D03*
X66900000Y-95300000D03*
X66100000Y-95300000D03*
X62900000Y-95300000D03*
X62100000Y-95300000D03*
X61300000Y-95300000D03*
X67700000Y-94500000D03*
X66900000Y-94500000D03*
X66100000Y-94500000D03*
X62900000Y-94500000D03*
X62100000Y-94500000D03*
X61300000Y-94500000D03*
X67700000Y-93700000D03*
X66900000Y-93700000D03*
X66100000Y-93700000D03*
X62900000Y-93700000D03*
X62100000Y-93700000D03*
X61300000Y-93700000D03*
X67700000Y-92900000D03*
X66900000Y-92900000D03*
X66100000Y-92900000D03*
X62900000Y-92900000D03*
X62100000Y-92900000D03*
X61300000Y-92900000D03*
X67700000Y-92100000D03*
X66900000Y-92100000D03*
X66100000Y-92100000D03*
X62900000Y-92100000D03*
X62100000Y-92100000D03*
X61300000Y-92100000D03*
X67700000Y-91300000D03*
X66900000Y-91300000D03*
X66100000Y-91300000D03*
X62900000Y-91300000D03*
X62100000Y-91300000D03*
X61300000Y-91300000D03*
X81700000Y-103300000D03*
X80900000Y-103300000D03*
X80100000Y-103300000D03*
X76900000Y-103300000D03*
X76100000Y-103300000D03*
X75300000Y-103300000D03*
X81700000Y-102500000D03*
X80900000Y-102500000D03*
X80100000Y-102500000D03*
X76900000Y-102500000D03*
X76100000Y-102500000D03*
X75300000Y-102500000D03*
X81700000Y-101700000D03*
X80900000Y-101700000D03*
X80100000Y-101700000D03*
X76900000Y-101700000D03*
X76100000Y-101700000D03*
X75300000Y-101700000D03*
X81700000Y-100900000D03*
X80900000Y-100900000D03*
X80100000Y-100900000D03*
X76900000Y-100900000D03*
X76100000Y-100900000D03*
X75300000Y-100900000D03*
X81700000Y-100100000D03*
X80900000Y-100100000D03*
X80100000Y-100100000D03*
X76900000Y-100100000D03*
X76100000Y-100100000D03*
X75300000Y-100100000D03*
X81700000Y-99300000D03*
X80900000Y-99300000D03*
X80100000Y-99300000D03*
X76900000Y-99300000D03*
X76100000Y-99300000D03*
X75300000Y-99300000D03*
X81700000Y-98500000D03*
X80900000Y-98500000D03*
X80100000Y-98500000D03*
X76900000Y-98500000D03*
X76100000Y-98500000D03*
X75300000Y-98500000D03*
X81700000Y-97700000D03*
X80900000Y-97700000D03*
X80100000Y-97700000D03*
X76900000Y-97700000D03*
X76100000Y-97700000D03*
X75300000Y-97700000D03*
X81700000Y-96900000D03*
X80900000Y-96900000D03*
X80100000Y-96900000D03*
X76900000Y-96900000D03*
X76100000Y-96900000D03*
X75300000Y-96900000D03*
X81700000Y-96100000D03*
X80900000Y-96100000D03*
X80100000Y-96100000D03*
X76900000Y-96100000D03*
X76100000Y-96100000D03*
X75300000Y-96100000D03*
X81700000Y-95300000D03*
X80900000Y-95300000D03*
X80100000Y-95300000D03*
X76900000Y-95300000D03*
X76100000Y-95300000D03*
X75300000Y-95300000D03*
X81700000Y-94500000D03*
X80900000Y-94500000D03*
X80100000Y-94500000D03*
X76900000Y-94500000D03*
X76100000Y-94500000D03*
X75300000Y-94500000D03*
X81700000Y-93700000D03*
X80900000Y-93700000D03*
X80100000Y-93700000D03*
X76900000Y-93700000D03*
X76100000Y-93700000D03*
X75300000Y-93700000D03*
X81700000Y-92900000D03*
X80900000Y-92900000D03*
X80100000Y-92900000D03*
X76900000Y-92900000D03*
X76100000Y-92900000D03*
X75300000Y-92900000D03*
X81700000Y-92100000D03*
X80900000Y-92100000D03*
X80100000Y-92100000D03*
X76900000Y-92100000D03*
X76100000Y-92100000D03*
X75300000Y-92100000D03*
X81700000Y-91300000D03*
X80900000Y-91300000D03*
X80100000Y-91300000D03*
X76900000Y-91300000D03*
X76100000Y-91300000D03*
X75300000Y-91300000D03*
M02*
