G04 #@! TF.FileFunction,Legend,Bot*
%FSLAX46Y46*%
G04 Gerber Fmt 4.6, Leading zero omitted, Abs format (unit mm)*
G04 Created by KiCad (PCBNEW 4.0.2+dfsg1-2~bpo8+1-stable) date vie 30 sep 2016 00:33:51 ART*
%MOMM*%
G01*
G04 APERTURE LIST*
%ADD10C,0.150000*%
%ADD11C,0.200000*%
%ADD12C,0.279400*%
%ADD13C,0.300000*%
%ADD14C,0.250000*%
%ADD15C,0.066040*%
%ADD16C,0.203200*%
%ADD17C,0.119380*%
%ADD18C,0.127000*%
%ADD19C,0.304800*%
%ADD20C,0.508000*%
%ADD21C,0.152400*%
%ADD22C,0.254000*%
%ADD23C,0.078740*%
%ADD24C,0.088900*%
%ADD25C,3.860800*%
%ADD26R,1.574800X1.574800*%
%ADD27C,1.574800*%
%ADD28C,1.550800*%
%ADD29C,2.250800*%
%ADD30C,1.850800*%
%ADD31R,1.850800X1.850800*%
%ADD32R,2.250440X0.650240*%
%ADD33R,0.650240X2.250440*%
%ADD34C,3.901440*%
%ADD35C,2.590800*%
%ADD36R,0.965200X0.965200*%
%ADD37R,2.590800X2.590800*%
%ADD38R,1.651000X1.854200*%
%ADD39R,1.051560X0.949960*%
%ADD40R,0.949960X1.051560*%
%ADD41R,1.854200X1.651000*%
%ADD42R,2.650800X3.250800*%
%ADD43R,1.574800X3.251200*%
%ADD44R,1.450340X1.849120*%
%ADD45R,0.685800X1.193800*%
%ADD46R,1.193800X0.685800*%
%ADD47R,1.016000X1.320800*%
%ADD48R,1.320800X1.016000*%
%ADD49R,1.651000X1.651000*%
%ADD50C,1.651000*%
%ADD51R,3.250800X1.550800*%
%ADD52R,2.550800X1.050800*%
%ADD53R,1.750800X0.950800*%
%ADD54R,0.950800X1.750800*%
%ADD55R,2.750800X3.150800*%
%ADD56R,0.500800X0.500800*%
%ADD57R,1.120800X2.210800*%
%ADD58R,8.382000X7.035800*%
%ADD59R,10.845800X1.955800*%
%ADD60R,1.351280X0.350520*%
%ADD61R,0.304800X1.551940*%
%ADD62R,1.551940X0.304800*%
%ADD63R,0.652780X1.752600*%
%ADD64R,1.752600X0.652780*%
%ADD65R,0.812800X0.558800*%
%ADD66R,1.550800X1.750800*%
%ADD67R,2.250440X1.849120*%
%ADD68R,1.851660X2.250440*%
%ADD69R,1.391920X1.851660*%
%ADD70R,0.850900X1.051560*%
%ADD71R,1.051560X0.850900*%
%ADD72R,0.950800X0.550800*%
%ADD73R,0.550800X0.950800*%
%ADD74C,2.540000*%
%ADD75C,4.550800*%
G04 APERTURE END LIST*
D10*
D11*
X112908981Y-63958980D02*
G75*
G03X112908981Y-63958980I-283981J0D01*
G01*
X98208981Y-62608980D02*
G75*
G03X98208981Y-62608980I-283981J0D01*
G01*
X82633981Y-54925000D02*
G75*
G03X82633981Y-54925000I-283981J0D01*
G01*
X104583981Y-45675000D02*
G75*
G03X104583981Y-45675000I-283981J0D01*
G01*
X129575001Y-41925000D02*
G75*
G03X129575001Y-41925000I-283981J0D01*
G01*
D12*
X154555992Y-80616736D02*
X155089392Y-82166136D01*
X154428992Y-80616736D02*
X153895592Y-82166136D01*
X154428992Y-80616736D02*
X153895592Y-82166136D01*
X153793992Y-80616736D02*
X153260592Y-82166136D01*
X154555992Y-80616736D02*
X155089392Y-82166136D01*
D11*
X158482192Y-75837948D02*
X151878192Y-75837948D01*
X158482192Y-75837948D02*
X151878192Y-75837948D01*
D12*
X153793992Y-80616736D02*
X153260592Y-82166136D01*
D11*
X151878192Y-84346948D02*
X151878192Y-75837948D01*
X158482192Y-75837948D02*
X158482192Y-84346948D01*
X151878192Y-84346948D02*
X151878192Y-75837948D01*
X158482192Y-75837948D02*
X158482192Y-84346948D01*
X151984409Y-82985129D02*
G75*
G02X158482192Y-83076948I3068783J-12791819D01*
G01*
D13*
X156292857Y-82035714D02*
X156364286Y-82107143D01*
X156578572Y-82178571D01*
X156721429Y-82178571D01*
X156935714Y-82107143D01*
X157078572Y-81964286D01*
X157150000Y-81821429D01*
X157221429Y-81535714D01*
X157221429Y-81321429D01*
X157150000Y-81035714D01*
X157078572Y-80892857D01*
X156935714Y-80750000D01*
X156721429Y-80678571D01*
X156578572Y-80678571D01*
X156364286Y-80750000D01*
X156292857Y-80821429D01*
X155650000Y-82178571D02*
X155650000Y-80678571D01*
D11*
X158482192Y-84346948D02*
X151878192Y-84346948D01*
X158482192Y-84346948D02*
X151878192Y-84346948D01*
D14*
X107229764Y-103207143D02*
X107277383Y-103254762D01*
X107420240Y-103302381D01*
X107515478Y-103302381D01*
X107658336Y-103254762D01*
X107753574Y-103159524D01*
X107801193Y-103064286D01*
X107848812Y-102873810D01*
X107848812Y-102730952D01*
X107801193Y-102540476D01*
X107753574Y-102445238D01*
X107658336Y-102350000D01*
X107515478Y-102302381D01*
X107420240Y-102302381D01*
X107277383Y-102350000D01*
X107229764Y-102397619D01*
X106658336Y-103302381D02*
X106753574Y-103254762D01*
X106801193Y-103207143D01*
X106848812Y-103111905D01*
X106848812Y-102826190D01*
X106801193Y-102730952D01*
X106753574Y-102683333D01*
X106658336Y-102635714D01*
X106515478Y-102635714D01*
X106420240Y-102683333D01*
X106372621Y-102730952D01*
X106325002Y-102826190D01*
X106325002Y-103111905D01*
X106372621Y-103207143D01*
X106420240Y-103254762D01*
X106515478Y-103302381D01*
X106658336Y-103302381D01*
X105896431Y-103302381D02*
X105896431Y-102635714D01*
X105896431Y-102730952D02*
X105848812Y-102683333D01*
X105753574Y-102635714D01*
X105610716Y-102635714D01*
X105515478Y-102683333D01*
X105467859Y-102778571D01*
X105467859Y-103302381D01*
X105467859Y-102778571D02*
X105420240Y-102683333D01*
X105325002Y-102635714D01*
X105182145Y-102635714D01*
X105086907Y-102683333D01*
X105039288Y-102778571D01*
X105039288Y-103302381D01*
X104563098Y-102635714D02*
X104563098Y-103635714D01*
X104563098Y-102683333D02*
X104467860Y-102635714D01*
X104277383Y-102635714D01*
X104182145Y-102683333D01*
X104134526Y-102730952D01*
X104086907Y-102826190D01*
X104086907Y-103111905D01*
X104134526Y-103207143D01*
X104182145Y-103254762D01*
X104277383Y-103302381D01*
X104467860Y-103302381D01*
X104563098Y-103254762D01*
X103229764Y-102635714D02*
X103229764Y-103302381D01*
X103658336Y-102635714D02*
X103658336Y-103159524D01*
X103610717Y-103254762D01*
X103515479Y-103302381D01*
X103372621Y-103302381D01*
X103277383Y-103254762D01*
X103229764Y-103207143D01*
X102896431Y-102635714D02*
X102515479Y-102635714D01*
X102753574Y-102302381D02*
X102753574Y-103159524D01*
X102705955Y-103254762D01*
X102610717Y-103302381D01*
X102515479Y-103302381D01*
X101753573Y-103302381D02*
X101753573Y-102778571D01*
X101801192Y-102683333D01*
X101896430Y-102635714D01*
X102086907Y-102635714D01*
X102182145Y-102683333D01*
X101753573Y-103254762D02*
X101848811Y-103302381D01*
X102086907Y-103302381D01*
X102182145Y-103254762D01*
X102229764Y-103159524D01*
X102229764Y-103064286D01*
X102182145Y-102969048D01*
X102086907Y-102921429D01*
X101848811Y-102921429D01*
X101753573Y-102873810D01*
X100848811Y-103302381D02*
X100848811Y-102302381D01*
X100848811Y-103254762D02*
X100944049Y-103302381D01*
X101134526Y-103302381D01*
X101229764Y-103254762D01*
X101277383Y-103207143D01*
X101325002Y-103111905D01*
X101325002Y-102826190D01*
X101277383Y-102730952D01*
X101229764Y-102683333D01*
X101134526Y-102635714D01*
X100944049Y-102635714D01*
X100848811Y-102683333D01*
X100229764Y-103302381D02*
X100325002Y-103254762D01*
X100372621Y-103207143D01*
X100420240Y-103111905D01*
X100420240Y-102826190D01*
X100372621Y-102730952D01*
X100325002Y-102683333D01*
X100229764Y-102635714D01*
X100086906Y-102635714D01*
X99991668Y-102683333D01*
X99944049Y-102730952D01*
X99896430Y-102826190D01*
X99896430Y-103111905D01*
X99944049Y-103207143D01*
X99991668Y-103254762D01*
X100086906Y-103302381D01*
X100229764Y-103302381D01*
X99467859Y-103302381D02*
X99467859Y-102635714D01*
X99467859Y-102826190D02*
X99420240Y-102730952D01*
X99372621Y-102683333D01*
X99277383Y-102635714D01*
X99182144Y-102635714D01*
X98420239Y-103302381D02*
X98420239Y-102778571D01*
X98467858Y-102683333D01*
X98563096Y-102635714D01*
X98753573Y-102635714D01*
X98848811Y-102683333D01*
X98420239Y-103254762D02*
X98515477Y-103302381D01*
X98753573Y-103302381D01*
X98848811Y-103254762D01*
X98896430Y-103159524D01*
X98896430Y-103064286D01*
X98848811Y-102969048D01*
X98753573Y-102921429D01*
X98515477Y-102921429D01*
X98420239Y-102873810D01*
X97182144Y-103302381D02*
X97182144Y-102302381D01*
X96705954Y-102635714D02*
X96705954Y-103302381D01*
X96705954Y-102730952D02*
X96658335Y-102683333D01*
X96563097Y-102635714D01*
X96420239Y-102635714D01*
X96325001Y-102683333D01*
X96277382Y-102778571D01*
X96277382Y-103302381D01*
X95372620Y-103302381D02*
X95372620Y-102302381D01*
X95372620Y-103254762D02*
X95467858Y-103302381D01*
X95658335Y-103302381D01*
X95753573Y-103254762D01*
X95801192Y-103207143D01*
X95848811Y-103111905D01*
X95848811Y-102826190D01*
X95801192Y-102730952D01*
X95753573Y-102683333D01*
X95658335Y-102635714D01*
X95467858Y-102635714D01*
X95372620Y-102683333D01*
X94467858Y-102635714D02*
X94467858Y-103302381D01*
X94896430Y-102635714D02*
X94896430Y-103159524D01*
X94848811Y-103254762D01*
X94753573Y-103302381D01*
X94610715Y-103302381D01*
X94515477Y-103254762D01*
X94467858Y-103207143D01*
X94039287Y-103254762D02*
X93944049Y-103302381D01*
X93753573Y-103302381D01*
X93658334Y-103254762D01*
X93610715Y-103159524D01*
X93610715Y-103111905D01*
X93658334Y-103016667D01*
X93753573Y-102969048D01*
X93896430Y-102969048D01*
X93991668Y-102921429D01*
X94039287Y-102826190D01*
X94039287Y-102778571D01*
X93991668Y-102683333D01*
X93896430Y-102635714D01*
X93753573Y-102635714D01*
X93658334Y-102683333D01*
X93325001Y-102635714D02*
X92944049Y-102635714D01*
X93182144Y-102302381D02*
X93182144Y-103159524D01*
X93134525Y-103254762D01*
X93039287Y-103302381D01*
X92944049Y-103302381D01*
X92610715Y-103302381D02*
X92610715Y-102635714D01*
X92610715Y-102826190D02*
X92563096Y-102730952D01*
X92515477Y-102683333D01*
X92420239Y-102635714D01*
X92325000Y-102635714D01*
X91991667Y-103302381D02*
X91991667Y-102635714D01*
X91991667Y-102302381D02*
X92039286Y-102350000D01*
X91991667Y-102397619D01*
X91944048Y-102350000D01*
X91991667Y-102302381D01*
X91991667Y-102397619D01*
X91086905Y-103302381D02*
X91086905Y-102778571D01*
X91134524Y-102683333D01*
X91229762Y-102635714D01*
X91420239Y-102635714D01*
X91515477Y-102683333D01*
X91086905Y-103254762D02*
X91182143Y-103302381D01*
X91420239Y-103302381D01*
X91515477Y-103254762D01*
X91563096Y-103159524D01*
X91563096Y-103064286D01*
X91515477Y-102969048D01*
X91420239Y-102921429D01*
X91182143Y-102921429D01*
X91086905Y-102873810D01*
X90467858Y-103302381D02*
X90563096Y-103254762D01*
X90610715Y-103159524D01*
X90610715Y-102302381D01*
X89372619Y-103016667D02*
X88896428Y-103016667D01*
X89467857Y-103302381D02*
X89134524Y-102302381D01*
X88801190Y-103302381D01*
X88467857Y-103302381D02*
X88467857Y-102302381D01*
X88467857Y-102683333D02*
X88372619Y-102635714D01*
X88182142Y-102635714D01*
X88086904Y-102683333D01*
X88039285Y-102730952D01*
X87991666Y-102826190D01*
X87991666Y-103111905D01*
X88039285Y-103207143D01*
X88086904Y-103254762D01*
X88182142Y-103302381D01*
X88372619Y-103302381D01*
X88467857Y-103254762D01*
X87563095Y-103302381D02*
X87563095Y-102635714D01*
X87563095Y-102302381D02*
X87610714Y-102350000D01*
X87563095Y-102397619D01*
X87515476Y-102350000D01*
X87563095Y-102302381D01*
X87563095Y-102397619D01*
X86705952Y-103254762D02*
X86801190Y-103302381D01*
X86991667Y-103302381D01*
X87086905Y-103254762D01*
X87134524Y-103159524D01*
X87134524Y-102778571D01*
X87086905Y-102683333D01*
X86991667Y-102635714D01*
X86801190Y-102635714D01*
X86705952Y-102683333D01*
X86658333Y-102778571D01*
X86658333Y-102873810D01*
X87134524Y-102969048D01*
X86229762Y-103302381D02*
X86229762Y-102635714D01*
X86229762Y-102826190D02*
X86182143Y-102730952D01*
X86134524Y-102683333D01*
X86039286Y-102635714D01*
X85944047Y-102635714D01*
X85753571Y-102635714D02*
X85372619Y-102635714D01*
X85610714Y-102302381D02*
X85610714Y-103159524D01*
X85563095Y-103254762D01*
X85467857Y-103302381D01*
X85372619Y-103302381D01*
X84610713Y-103302381D02*
X84610713Y-102778571D01*
X84658332Y-102683333D01*
X84753570Y-102635714D01*
X84944047Y-102635714D01*
X85039285Y-102683333D01*
X84610713Y-103254762D02*
X84705951Y-103302381D01*
X84944047Y-103302381D01*
X85039285Y-103254762D01*
X85086904Y-103159524D01*
X85086904Y-103064286D01*
X85039285Y-102969048D01*
X84944047Y-102921429D01*
X84705951Y-102921429D01*
X84610713Y-102873810D01*
X83420237Y-103016667D02*
X82944046Y-103016667D01*
X83515475Y-103302381D02*
X83182142Y-102302381D01*
X82848808Y-103302381D01*
X82515475Y-103302381D02*
X82515475Y-102635714D01*
X82515475Y-102826190D02*
X82467856Y-102730952D01*
X82420237Y-102683333D01*
X82324999Y-102635714D01*
X82229760Y-102635714D01*
X81467855Y-102635714D02*
X81467855Y-103445238D01*
X81515474Y-103540476D01*
X81563093Y-103588095D01*
X81658332Y-103635714D01*
X81801189Y-103635714D01*
X81896427Y-103588095D01*
X81467855Y-103254762D02*
X81563093Y-103302381D01*
X81753570Y-103302381D01*
X81848808Y-103254762D01*
X81896427Y-103207143D01*
X81944046Y-103111905D01*
X81944046Y-102826190D01*
X81896427Y-102730952D01*
X81848808Y-102683333D01*
X81753570Y-102635714D01*
X81563093Y-102635714D01*
X81467855Y-102683333D01*
X80610712Y-103254762D02*
X80705950Y-103302381D01*
X80896427Y-103302381D01*
X80991665Y-103254762D01*
X81039284Y-103159524D01*
X81039284Y-102778571D01*
X80991665Y-102683333D01*
X80896427Y-102635714D01*
X80705950Y-102635714D01*
X80610712Y-102683333D01*
X80563093Y-102778571D01*
X80563093Y-102873810D01*
X81039284Y-102969048D01*
X80134522Y-102635714D02*
X80134522Y-103302381D01*
X80134522Y-102730952D02*
X80086903Y-102683333D01*
X79991665Y-102635714D01*
X79848807Y-102635714D01*
X79753569Y-102683333D01*
X79705950Y-102778571D01*
X79705950Y-103302381D01*
X79372617Y-102635714D02*
X78991665Y-102635714D01*
X79229760Y-102302381D02*
X79229760Y-103159524D01*
X79182141Y-103254762D01*
X79086903Y-103302381D01*
X78991665Y-103302381D01*
X78658331Y-103302381D02*
X78658331Y-102635714D01*
X78658331Y-102302381D02*
X78705950Y-102350000D01*
X78658331Y-102397619D01*
X78610712Y-102350000D01*
X78658331Y-102302381D01*
X78658331Y-102397619D01*
X78182141Y-102635714D02*
X78182141Y-103302381D01*
X78182141Y-102730952D02*
X78134522Y-102683333D01*
X78039284Y-102635714D01*
X77896426Y-102635714D01*
X77801188Y-102683333D01*
X77753569Y-102778571D01*
X77753569Y-103302381D01*
X76848807Y-103302381D02*
X76848807Y-102778571D01*
X76896426Y-102683333D01*
X76991664Y-102635714D01*
X77182141Y-102635714D01*
X77277379Y-102683333D01*
X76848807Y-103254762D02*
X76944045Y-103302381D01*
X77182141Y-103302381D01*
X77277379Y-103254762D01*
X77324998Y-103159524D01*
X77324998Y-103064286D01*
X77277379Y-102969048D01*
X77182141Y-102921429D01*
X76944045Y-102921429D01*
X76848807Y-102873810D01*
X101586904Y-104857143D02*
X101634523Y-104904762D01*
X101777380Y-104952381D01*
X101872618Y-104952381D01*
X102015476Y-104904762D01*
X102110714Y-104809524D01*
X102158333Y-104714286D01*
X102205952Y-104523810D01*
X102205952Y-104380952D01*
X102158333Y-104190476D01*
X102110714Y-104095238D01*
X102015476Y-104000000D01*
X101872618Y-103952381D01*
X101777380Y-103952381D01*
X101634523Y-104000000D01*
X101586904Y-104047619D01*
X101158333Y-104952381D02*
X101158333Y-103952381D01*
X100729762Y-104666667D02*
X100253571Y-104666667D01*
X100825000Y-104952381D02*
X100491667Y-103952381D01*
X100158333Y-104952381D01*
X99872619Y-104666667D02*
X99396428Y-104666667D01*
X99967857Y-104952381D02*
X99634524Y-103952381D01*
X99301190Y-104952381D01*
X98967857Y-104571429D02*
X98205952Y-104571429D01*
X97729762Y-104952381D02*
X97729762Y-103952381D01*
X97348809Y-103952381D01*
X97253571Y-104000000D01*
X97205952Y-104047619D01*
X97158333Y-104142857D01*
X97158333Y-104285714D01*
X97205952Y-104380952D01*
X97253571Y-104428571D01*
X97348809Y-104476190D01*
X97729762Y-104476190D01*
X96729762Y-104952381D02*
X96729762Y-103952381D01*
X95682143Y-104857143D02*
X95729762Y-104904762D01*
X95872619Y-104952381D01*
X95967857Y-104952381D01*
X96110715Y-104904762D01*
X96205953Y-104809524D01*
X96253572Y-104714286D01*
X96301191Y-104523810D01*
X96301191Y-104380952D01*
X96253572Y-104190476D01*
X96205953Y-104095238D01*
X96110715Y-104000000D01*
X95967857Y-103952381D01*
X95872619Y-103952381D01*
X95729762Y-104000000D01*
X95682143Y-104047619D01*
X94586905Y-104285714D02*
X94348810Y-104952381D01*
X94110714Y-104285714D01*
X93205952Y-104952381D02*
X93777381Y-104952381D01*
X93491667Y-104952381D02*
X93491667Y-103952381D01*
X93586905Y-104095238D01*
X93682143Y-104190476D01*
X93777381Y-104238095D01*
X92777381Y-104857143D02*
X92729762Y-104904762D01*
X92777381Y-104952381D01*
X92825000Y-104904762D01*
X92777381Y-104857143D01*
X92777381Y-104952381D01*
X92110715Y-103952381D02*
X92015476Y-103952381D01*
X91920238Y-104000000D01*
X91872619Y-104047619D01*
X91825000Y-104142857D01*
X91777381Y-104333333D01*
X91777381Y-104571429D01*
X91825000Y-104761905D01*
X91872619Y-104857143D01*
X91920238Y-104904762D01*
X92015476Y-104952381D01*
X92110715Y-104952381D01*
X92205953Y-104904762D01*
X92253572Y-104857143D01*
X92301191Y-104761905D01*
X92348810Y-104571429D01*
X92348810Y-104333333D01*
X92301191Y-104142857D01*
X92253572Y-104047619D01*
X92205953Y-104000000D01*
X92110715Y-103952381D01*
X89682143Y-104380952D02*
X89777381Y-104333333D01*
X89825000Y-104285714D01*
X89872619Y-104190476D01*
X89872619Y-104142857D01*
X89825000Y-104047619D01*
X89777381Y-104000000D01*
X89682143Y-103952381D01*
X89491666Y-103952381D01*
X89396428Y-104000000D01*
X89348809Y-104047619D01*
X89301190Y-104142857D01*
X89301190Y-104190476D01*
X89348809Y-104285714D01*
X89396428Y-104333333D01*
X89491666Y-104380952D01*
X89682143Y-104380952D01*
X89777381Y-104428571D01*
X89825000Y-104476190D01*
X89872619Y-104571429D01*
X89872619Y-104761905D01*
X89825000Y-104857143D01*
X89777381Y-104904762D01*
X89682143Y-104952381D01*
X89491666Y-104952381D01*
X89396428Y-104904762D01*
X89348809Y-104857143D01*
X89301190Y-104761905D01*
X89301190Y-104571429D01*
X89348809Y-104476190D01*
X89396428Y-104428571D01*
X89491666Y-104380952D01*
X88158333Y-103904762D02*
X89015476Y-105190476D01*
X87872619Y-104047619D02*
X87825000Y-104000000D01*
X87729762Y-103952381D01*
X87491666Y-103952381D01*
X87396428Y-104000000D01*
X87348809Y-104047619D01*
X87301190Y-104142857D01*
X87301190Y-104238095D01*
X87348809Y-104380952D01*
X87920238Y-104952381D01*
X87301190Y-104952381D01*
X86158333Y-103904762D02*
X87015476Y-105190476D01*
X85872619Y-104047619D02*
X85825000Y-104000000D01*
X85729762Y-103952381D01*
X85491666Y-103952381D01*
X85396428Y-104000000D01*
X85348809Y-104047619D01*
X85301190Y-104142857D01*
X85301190Y-104238095D01*
X85348809Y-104380952D01*
X85920238Y-104952381D01*
X85301190Y-104952381D01*
X84682143Y-103952381D02*
X84586904Y-103952381D01*
X84491666Y-104000000D01*
X84444047Y-104047619D01*
X84396428Y-104142857D01*
X84348809Y-104333333D01*
X84348809Y-104571429D01*
X84396428Y-104761905D01*
X84444047Y-104857143D01*
X84491666Y-104904762D01*
X84586904Y-104952381D01*
X84682143Y-104952381D01*
X84777381Y-104904762D01*
X84825000Y-104857143D01*
X84872619Y-104761905D01*
X84920238Y-104571429D01*
X84920238Y-104333333D01*
X84872619Y-104142857D01*
X84825000Y-104047619D01*
X84777381Y-104000000D01*
X84682143Y-103952381D01*
X83396428Y-104952381D02*
X83967857Y-104952381D01*
X83682143Y-104952381D02*
X83682143Y-103952381D01*
X83777381Y-104095238D01*
X83872619Y-104190476D01*
X83967857Y-104238095D01*
X82539285Y-103952381D02*
X82729762Y-103952381D01*
X82825000Y-104000000D01*
X82872619Y-104047619D01*
X82967857Y-104190476D01*
X83015476Y-104380952D01*
X83015476Y-104761905D01*
X82967857Y-104857143D01*
X82920238Y-104904762D01*
X82825000Y-104952381D01*
X82634523Y-104952381D01*
X82539285Y-104904762D01*
X82491666Y-104857143D01*
X82444047Y-104761905D01*
X82444047Y-104523810D01*
X82491666Y-104428571D01*
X82539285Y-104380952D01*
X82634523Y-104333333D01*
X82825000Y-104333333D01*
X82920238Y-104380952D01*
X82967857Y-104428571D01*
X83015476Y-104523810D01*
X102158333Y-105935714D02*
X101967857Y-106602381D01*
X101777380Y-106126190D01*
X101586904Y-106602381D01*
X101396428Y-105935714D01*
X101110714Y-105935714D02*
X100920238Y-106602381D01*
X100729761Y-106126190D01*
X100539285Y-106602381D01*
X100348809Y-105935714D01*
X100063095Y-105935714D02*
X99872619Y-106602381D01*
X99682142Y-106126190D01*
X99491666Y-106602381D01*
X99301190Y-105935714D01*
X98920238Y-106507143D02*
X98872619Y-106554762D01*
X98920238Y-106602381D01*
X98967857Y-106554762D01*
X98920238Y-106507143D01*
X98920238Y-106602381D01*
X98444048Y-105935714D02*
X98444048Y-106935714D01*
X98444048Y-105983333D02*
X98348810Y-105935714D01*
X98158333Y-105935714D01*
X98063095Y-105983333D01*
X98015476Y-106030952D01*
X97967857Y-106126190D01*
X97967857Y-106411905D01*
X98015476Y-106507143D01*
X98063095Y-106554762D01*
X98158333Y-106602381D01*
X98348810Y-106602381D01*
X98444048Y-106554762D01*
X97539286Y-106602381D02*
X97539286Y-105935714D01*
X97539286Y-106126190D02*
X97491667Y-106030952D01*
X97444048Y-105983333D01*
X97348810Y-105935714D01*
X97253571Y-105935714D01*
X96777381Y-106602381D02*
X96872619Y-106554762D01*
X96920238Y-106507143D01*
X96967857Y-106411905D01*
X96967857Y-106126190D01*
X96920238Y-106030952D01*
X96872619Y-105983333D01*
X96777381Y-105935714D01*
X96634523Y-105935714D01*
X96539285Y-105983333D01*
X96491666Y-106030952D01*
X96444047Y-106126190D01*
X96444047Y-106411905D01*
X96491666Y-106507143D01*
X96539285Y-106554762D01*
X96634523Y-106602381D01*
X96777381Y-106602381D01*
X96110714Y-105935714D02*
X95872619Y-106602381D01*
X95634523Y-105935714D02*
X95872619Y-106602381D01*
X95967857Y-106840476D01*
X96015476Y-106888095D01*
X96110714Y-106935714D01*
X94872618Y-106554762D02*
X94967856Y-106602381D01*
X95158333Y-106602381D01*
X95253571Y-106554762D01*
X95301190Y-106459524D01*
X95301190Y-106078571D01*
X95253571Y-105983333D01*
X95158333Y-105935714D01*
X94967856Y-105935714D01*
X94872618Y-105983333D01*
X94824999Y-106078571D01*
X94824999Y-106173810D01*
X95301190Y-106269048D01*
X93967856Y-106554762D02*
X94063094Y-106602381D01*
X94253571Y-106602381D01*
X94348809Y-106554762D01*
X94396428Y-106507143D01*
X94444047Y-106411905D01*
X94444047Y-106126190D01*
X94396428Y-106030952D01*
X94348809Y-105983333D01*
X94253571Y-105935714D01*
X94063094Y-105935714D01*
X93967856Y-105983333D01*
X93682142Y-105935714D02*
X93301190Y-105935714D01*
X93539285Y-105602381D02*
X93539285Y-106459524D01*
X93491666Y-106554762D01*
X93396428Y-106602381D01*
X93301190Y-106602381D01*
X92824999Y-106602381D02*
X92920237Y-106554762D01*
X92967856Y-106507143D01*
X93015475Y-106411905D01*
X93015475Y-106126190D01*
X92967856Y-106030952D01*
X92920237Y-105983333D01*
X92824999Y-105935714D01*
X92682141Y-105935714D01*
X92586903Y-105983333D01*
X92539284Y-106030952D01*
X92491665Y-106126190D01*
X92491665Y-106411905D01*
X92539284Y-106507143D01*
X92586903Y-106554762D01*
X92682141Y-106602381D01*
X92824999Y-106602381D01*
X92063094Y-106221429D02*
X91301189Y-106221429D01*
X90396427Y-106554762D02*
X90491665Y-106602381D01*
X90682142Y-106602381D01*
X90777380Y-106554762D01*
X90824999Y-106507143D01*
X90872618Y-106411905D01*
X90872618Y-106126190D01*
X90824999Y-106030952D01*
X90777380Y-105983333D01*
X90682142Y-105935714D01*
X90491665Y-105935714D01*
X90396427Y-105983333D01*
X89967856Y-106602381D02*
X89967856Y-105935714D01*
X89967856Y-105602381D02*
X90015475Y-105650000D01*
X89967856Y-105697619D01*
X89920237Y-105650000D01*
X89967856Y-105602381D01*
X89967856Y-105697619D01*
X89063094Y-106602381D02*
X89063094Y-106078571D01*
X89110713Y-105983333D01*
X89205951Y-105935714D01*
X89396428Y-105935714D01*
X89491666Y-105983333D01*
X89063094Y-106554762D02*
X89158332Y-106602381D01*
X89396428Y-106602381D01*
X89491666Y-106554762D01*
X89539285Y-106459524D01*
X89539285Y-106364286D01*
X89491666Y-106269048D01*
X89396428Y-106221429D01*
X89158332Y-106221429D01*
X89063094Y-106173810D01*
X88158332Y-106602381D02*
X88158332Y-106078571D01*
X88205951Y-105983333D01*
X88301189Y-105935714D01*
X88491666Y-105935714D01*
X88586904Y-105983333D01*
X88158332Y-106554762D02*
X88253570Y-106602381D01*
X88491666Y-106602381D01*
X88586904Y-106554762D01*
X88634523Y-106459524D01*
X88634523Y-106364286D01*
X88586904Y-106269048D01*
X88491666Y-106221429D01*
X88253570Y-106221429D01*
X88158332Y-106173810D01*
X87682142Y-106507143D02*
X87634523Y-106554762D01*
X87682142Y-106602381D01*
X87729761Y-106554762D01*
X87682142Y-106507143D01*
X87682142Y-106602381D01*
X86777380Y-106554762D02*
X86872618Y-106602381D01*
X87063095Y-106602381D01*
X87158333Y-106554762D01*
X87205952Y-106507143D01*
X87253571Y-106411905D01*
X87253571Y-106126190D01*
X87205952Y-106030952D01*
X87158333Y-105983333D01*
X87063095Y-105935714D01*
X86872618Y-105935714D01*
X86777380Y-105983333D01*
X86205952Y-106602381D02*
X86301190Y-106554762D01*
X86348809Y-106507143D01*
X86396428Y-106411905D01*
X86396428Y-106126190D01*
X86348809Y-106030952D01*
X86301190Y-105983333D01*
X86205952Y-105935714D01*
X86063094Y-105935714D01*
X85967856Y-105983333D01*
X85920237Y-106030952D01*
X85872618Y-106126190D01*
X85872618Y-106411905D01*
X85920237Y-106507143D01*
X85967856Y-106554762D01*
X86063094Y-106602381D01*
X86205952Y-106602381D01*
X85444047Y-106602381D02*
X85444047Y-105935714D01*
X85444047Y-106030952D02*
X85396428Y-105983333D01*
X85301190Y-105935714D01*
X85158332Y-105935714D01*
X85063094Y-105983333D01*
X85015475Y-106078571D01*
X85015475Y-106602381D01*
X85015475Y-106078571D02*
X84967856Y-105983333D01*
X84872618Y-105935714D01*
X84729761Y-105935714D01*
X84634523Y-105983333D01*
X84586904Y-106078571D01*
X84586904Y-106602381D01*
X84110714Y-106507143D02*
X84063095Y-106554762D01*
X84110714Y-106602381D01*
X84158333Y-106554762D01*
X84110714Y-106507143D01*
X84110714Y-106602381D01*
X83205952Y-106602381D02*
X83205952Y-106078571D01*
X83253571Y-105983333D01*
X83348809Y-105935714D01*
X83539286Y-105935714D01*
X83634524Y-105983333D01*
X83205952Y-106554762D02*
X83301190Y-106602381D01*
X83539286Y-106602381D01*
X83634524Y-106554762D01*
X83682143Y-106459524D01*
X83682143Y-106364286D01*
X83634524Y-106269048D01*
X83539286Y-106221429D01*
X83301190Y-106221429D01*
X83205952Y-106173810D01*
X82729762Y-106602381D02*
X82729762Y-105935714D01*
X82729762Y-106126190D02*
X82682143Y-106030952D01*
X82634524Y-105983333D01*
X82539286Y-105935714D01*
X82444047Y-105935714D01*
D11*
X174304500Y-89409500D02*
X174304500Y-89536500D01*
X175193500Y-89409500D02*
X174304500Y-89409500D01*
X175193500Y-89536500D02*
X175193500Y-89409500D01*
X174304500Y-91695500D02*
X174304500Y-91568500D01*
X175193500Y-91695500D02*
X174304500Y-91695500D01*
X175193500Y-91568500D02*
X175193500Y-91695500D01*
X175066500Y-89663500D02*
X174939500Y-89663500D01*
X175066500Y-91568500D02*
X175066500Y-89663500D01*
X175193500Y-91568500D02*
X174939500Y-91568500D01*
X175193500Y-89536500D02*
X174939500Y-89536500D01*
X175193500Y-91568500D02*
X175193500Y-89536500D01*
X89683981Y-53975000D02*
G75*
G03X89683981Y-53975000I-283981J0D01*
G01*
D15*
X129116380Y-42487580D02*
X129116380Y-42987960D01*
X129116380Y-42987960D02*
X127787960Y-42987960D01*
X127787960Y-42487580D02*
X127787960Y-42987960D01*
X129116380Y-42487580D02*
X127787960Y-42487580D01*
X129116380Y-43757580D02*
X129116380Y-44257960D01*
X129116380Y-44257960D02*
X127787960Y-44257960D01*
X127787960Y-43757580D02*
X127787960Y-44257960D01*
X129116380Y-43757580D02*
X127787960Y-43757580D01*
X129116380Y-45027580D02*
X129116380Y-45527960D01*
X129116380Y-45527960D02*
X127787960Y-45527960D01*
X127787960Y-45027580D02*
X127787960Y-45527960D01*
X129116380Y-45027580D02*
X127787960Y-45027580D01*
X129116380Y-46297580D02*
X129116380Y-46797960D01*
X129116380Y-46797960D02*
X127787960Y-46797960D01*
X127787960Y-46297580D02*
X127787960Y-46797960D01*
X129116380Y-46297580D02*
X127787960Y-46297580D01*
X129116380Y-47565040D02*
X129116380Y-48065420D01*
X129116380Y-48065420D02*
X127787960Y-48065420D01*
X127787960Y-47565040D02*
X127787960Y-48065420D01*
X129116380Y-47565040D02*
X127787960Y-47565040D01*
X129116380Y-48835040D02*
X129116380Y-49335420D01*
X129116380Y-49335420D02*
X127787960Y-49335420D01*
X127787960Y-48835040D02*
X127787960Y-49335420D01*
X129116380Y-48835040D02*
X127787960Y-48835040D01*
X129116380Y-50105040D02*
X129116380Y-50605420D01*
X129116380Y-50605420D02*
X127787960Y-50605420D01*
X127787960Y-50105040D02*
X127787960Y-50605420D01*
X129116380Y-50105040D02*
X127787960Y-50105040D01*
X129116380Y-51375040D02*
X129116380Y-51875420D01*
X129116380Y-51875420D02*
X127787960Y-51875420D01*
X127787960Y-51375040D02*
X127787960Y-51875420D01*
X129116380Y-51375040D02*
X127787960Y-51375040D01*
X121570040Y-51375040D02*
X121570040Y-51875420D01*
X121570040Y-51875420D02*
X120241620Y-51875420D01*
X120241620Y-51375040D02*
X120241620Y-51875420D01*
X121570040Y-51375040D02*
X120241620Y-51375040D01*
X121570040Y-50105040D02*
X121570040Y-50605420D01*
X121570040Y-50605420D02*
X120241620Y-50605420D01*
X120241620Y-50105040D02*
X120241620Y-50605420D01*
X121570040Y-50105040D02*
X120241620Y-50105040D01*
X121570040Y-48835040D02*
X121570040Y-49335420D01*
X121570040Y-49335420D02*
X120241620Y-49335420D01*
X120241620Y-48835040D02*
X120241620Y-49335420D01*
X121570040Y-48835040D02*
X120241620Y-48835040D01*
X121570040Y-47565040D02*
X121570040Y-48065420D01*
X121570040Y-48065420D02*
X120241620Y-48065420D01*
X120241620Y-47565040D02*
X120241620Y-48065420D01*
X121570040Y-47565040D02*
X120241620Y-47565040D01*
X121570040Y-46297580D02*
X121570040Y-46797960D01*
X121570040Y-46797960D02*
X120241620Y-46797960D01*
X120241620Y-46297580D02*
X120241620Y-46797960D01*
X121570040Y-46297580D02*
X120241620Y-46297580D01*
X121570040Y-45027580D02*
X121570040Y-45527960D01*
X121570040Y-45527960D02*
X120241620Y-45527960D01*
X120241620Y-45027580D02*
X120241620Y-45527960D01*
X121570040Y-45027580D02*
X120241620Y-45027580D01*
X121570040Y-43757580D02*
X121570040Y-44257960D01*
X121570040Y-44257960D02*
X120241620Y-44257960D01*
X120241620Y-43757580D02*
X120241620Y-44257960D01*
X121570040Y-43757580D02*
X120241620Y-43757580D01*
X121570040Y-42487580D02*
X121570040Y-42987960D01*
X121570040Y-42987960D02*
X120241620Y-42987960D01*
X120241620Y-42487580D02*
X120241620Y-42987960D01*
X121570040Y-42487580D02*
X120241620Y-42487580D01*
D16*
X121669100Y-52805060D02*
X127688900Y-52805060D01*
X127688900Y-41578260D02*
X121669100Y-41578260D01*
X127688900Y-52805060D02*
X127688900Y-41578260D01*
X121669100Y-41578260D02*
X121669100Y-52805060D01*
D15*
X105126080Y-45779420D02*
X105626460Y-45779420D01*
X105626460Y-45779420D02*
X105626460Y-47107840D01*
X105126080Y-47107840D02*
X105626460Y-47107840D01*
X105126080Y-45779420D02*
X105126080Y-47107840D01*
X106396080Y-45779420D02*
X106896460Y-45779420D01*
X106896460Y-45779420D02*
X106896460Y-47107840D01*
X106396080Y-47107840D02*
X106896460Y-47107840D01*
X106396080Y-45779420D02*
X106396080Y-47107840D01*
X107666080Y-45779420D02*
X108166460Y-45779420D01*
X108166460Y-45779420D02*
X108166460Y-47107840D01*
X107666080Y-47107840D02*
X108166460Y-47107840D01*
X107666080Y-45779420D02*
X107666080Y-47107840D01*
X108936080Y-45779420D02*
X109436460Y-45779420D01*
X109436460Y-45779420D02*
X109436460Y-47107840D01*
X108936080Y-47107840D02*
X109436460Y-47107840D01*
X108936080Y-45779420D02*
X108936080Y-47107840D01*
X110203540Y-45779420D02*
X110703920Y-45779420D01*
X110703920Y-45779420D02*
X110703920Y-47107840D01*
X110203540Y-47107840D02*
X110703920Y-47107840D01*
X110203540Y-45779420D02*
X110203540Y-47107840D01*
X111473540Y-45779420D02*
X111973920Y-45779420D01*
X111973920Y-45779420D02*
X111973920Y-47107840D01*
X111473540Y-47107840D02*
X111973920Y-47107840D01*
X111473540Y-45779420D02*
X111473540Y-47107840D01*
X112743540Y-45779420D02*
X113243920Y-45779420D01*
X113243920Y-45779420D02*
X113243920Y-47107840D01*
X112743540Y-47107840D02*
X113243920Y-47107840D01*
X112743540Y-45779420D02*
X112743540Y-47107840D01*
X114013540Y-45779420D02*
X114513920Y-45779420D01*
X114513920Y-45779420D02*
X114513920Y-47107840D01*
X114013540Y-47107840D02*
X114513920Y-47107840D01*
X114013540Y-45779420D02*
X114013540Y-47107840D01*
X114013540Y-53325760D02*
X114513920Y-53325760D01*
X114513920Y-53325760D02*
X114513920Y-54654180D01*
X114013540Y-54654180D02*
X114513920Y-54654180D01*
X114013540Y-53325760D02*
X114013540Y-54654180D01*
X112743540Y-53325760D02*
X113243920Y-53325760D01*
X113243920Y-53325760D02*
X113243920Y-54654180D01*
X112743540Y-54654180D02*
X113243920Y-54654180D01*
X112743540Y-53325760D02*
X112743540Y-54654180D01*
X111473540Y-53325760D02*
X111973920Y-53325760D01*
X111973920Y-53325760D02*
X111973920Y-54654180D01*
X111473540Y-54654180D02*
X111973920Y-54654180D01*
X111473540Y-53325760D02*
X111473540Y-54654180D01*
X110203540Y-53325760D02*
X110703920Y-53325760D01*
X110703920Y-53325760D02*
X110703920Y-54654180D01*
X110203540Y-54654180D02*
X110703920Y-54654180D01*
X110203540Y-53325760D02*
X110203540Y-54654180D01*
X108936080Y-53325760D02*
X109436460Y-53325760D01*
X109436460Y-53325760D02*
X109436460Y-54654180D01*
X108936080Y-54654180D02*
X109436460Y-54654180D01*
X108936080Y-53325760D02*
X108936080Y-54654180D01*
X107666080Y-53325760D02*
X108166460Y-53325760D01*
X108166460Y-53325760D02*
X108166460Y-54654180D01*
X107666080Y-54654180D02*
X108166460Y-54654180D01*
X107666080Y-53325760D02*
X107666080Y-54654180D01*
X106396080Y-53325760D02*
X106896460Y-53325760D01*
X106896460Y-53325760D02*
X106896460Y-54654180D01*
X106396080Y-54654180D02*
X106896460Y-54654180D01*
X106396080Y-53325760D02*
X106396080Y-54654180D01*
X105126080Y-53325760D02*
X105626460Y-53325760D01*
X105626460Y-53325760D02*
X105626460Y-54654180D01*
X105126080Y-54654180D02*
X105626460Y-54654180D01*
X105126080Y-53325760D02*
X105126080Y-54654180D01*
D16*
X115443560Y-53226700D02*
X115443560Y-47206900D01*
X104216760Y-47206900D02*
X104216760Y-53226700D01*
X115443560Y-47206900D02*
X104216760Y-47206900D01*
X104216760Y-53226700D02*
X115443560Y-53226700D01*
D17*
X86801000Y-91856000D02*
X89849000Y-91856000D01*
X89849000Y-91856000D02*
X89849000Y-91094000D01*
X89849000Y-91094000D02*
X86801000Y-91094000D01*
X86801000Y-91094000D02*
X86801000Y-91856000D01*
X79399000Y-91144000D02*
X76351000Y-91144000D01*
X76351000Y-91144000D02*
X76351000Y-91906000D01*
X76351000Y-91906000D02*
X79399000Y-91906000D01*
X79399000Y-91906000D02*
X79399000Y-91144000D01*
D10*
X65606000Y-76306000D02*
X66368000Y-76306000D01*
X65606000Y-76306000D02*
X65352000Y-76306000D01*
X65352000Y-76306000D02*
X65352000Y-74274000D01*
X65352000Y-74274000D02*
X66368000Y-74274000D01*
X65630000Y-74290000D02*
X66380000Y-74290000D01*
X65630000Y-76290000D02*
X66380000Y-76290000D01*
D18*
X68273000Y-74477200D02*
X68273000Y-76102800D01*
X65987000Y-76102800D02*
X65987000Y-74477200D01*
X65529800Y-76102800D02*
X65529800Y-74477200D01*
X65529800Y-74477200D02*
X68730200Y-74477200D01*
X68730200Y-74477200D02*
X68730200Y-76102800D01*
X68730200Y-76102800D02*
X65529800Y-76102800D01*
X65793600Y-78541200D02*
X66606400Y-78541200D01*
X66581000Y-79658800D02*
X65793600Y-79658800D01*
X66606400Y-79912800D02*
X66606400Y-78287200D01*
X66606400Y-78287200D02*
X65793600Y-78287200D01*
X65793600Y-78287200D02*
X65793600Y-79912800D01*
X65793600Y-79912800D02*
X66606400Y-79912800D01*
X64023600Y-78411200D02*
X64836400Y-78411200D01*
X64811000Y-79528800D02*
X64023600Y-79528800D01*
X64836400Y-79782800D02*
X64836400Y-78157200D01*
X64836400Y-78157200D02*
X64023600Y-78157200D01*
X64023600Y-78157200D02*
X64023600Y-79782800D01*
X64023600Y-79782800D02*
X64836400Y-79782800D01*
X73813600Y-73881200D02*
X74626400Y-73881200D01*
X74601000Y-74998800D02*
X73813600Y-74998800D01*
X74626400Y-75252800D02*
X74626400Y-73627200D01*
X74626400Y-73627200D02*
X73813600Y-73627200D01*
X73813600Y-73627200D02*
X73813600Y-75252800D01*
X73813600Y-75252800D02*
X74626400Y-75252800D01*
X70602400Y-72441800D02*
X69789600Y-72441800D01*
X69815000Y-71324200D02*
X70602400Y-71324200D01*
X69789600Y-71070200D02*
X69789600Y-72695800D01*
X69789600Y-72695800D02*
X70602400Y-72695800D01*
X70602400Y-72695800D02*
X70602400Y-71070200D01*
X70602400Y-71070200D02*
X69789600Y-71070200D01*
X73966200Y-80431400D02*
X73966200Y-79618600D01*
X75083800Y-79644000D02*
X75083800Y-80431400D01*
X75337800Y-79618600D02*
X73712200Y-79618600D01*
X73712200Y-79618600D02*
X73712200Y-80431400D01*
X73712200Y-80431400D02*
X75337800Y-80431400D01*
X75337800Y-80431400D02*
X75337800Y-79618600D01*
X76268600Y-79366200D02*
X77081400Y-79366200D01*
X77056000Y-80483800D02*
X76268600Y-80483800D01*
X77081400Y-80737800D02*
X77081400Y-79112200D01*
X77081400Y-79112200D02*
X76268600Y-79112200D01*
X76268600Y-79112200D02*
X76268600Y-80737800D01*
X76268600Y-80737800D02*
X77081400Y-80737800D01*
X71753600Y-73841200D02*
X72566400Y-73841200D01*
X72541000Y-74958800D02*
X71753600Y-74958800D01*
X72566400Y-75212800D02*
X72566400Y-73587200D01*
X72566400Y-73587200D02*
X71753600Y-73587200D01*
X71753600Y-73587200D02*
X71753600Y-75212800D01*
X71753600Y-75212800D02*
X72566400Y-75212800D01*
X55946600Y-88494600D02*
X56759400Y-88494600D01*
X56734000Y-89612200D02*
X55946600Y-89612200D01*
X56759400Y-89866200D02*
X56759400Y-88240600D01*
X56759400Y-88240600D02*
X55946600Y-88240600D01*
X55946600Y-88240600D02*
X55946600Y-89866200D01*
X55946600Y-89866200D02*
X56759400Y-89866200D01*
X56835600Y-85751400D02*
X56022800Y-85751400D01*
X56048200Y-84633800D02*
X56835600Y-84633800D01*
X56022800Y-84379800D02*
X56022800Y-86005400D01*
X56022800Y-86005400D02*
X56835600Y-86005400D01*
X56835600Y-86005400D02*
X56835600Y-84379800D01*
X56835600Y-84379800D02*
X56022800Y-84379800D01*
X48885400Y-84735400D02*
X48885400Y-85548200D01*
X47767800Y-85522800D02*
X47767800Y-84735400D01*
X47513800Y-85548200D02*
X49139400Y-85548200D01*
X49139400Y-85548200D02*
X49139400Y-84735400D01*
X49139400Y-84735400D02*
X47513800Y-84735400D01*
X47513800Y-84735400D02*
X47513800Y-85548200D01*
X55481400Y-92158800D02*
X54668600Y-92158800D01*
X54694000Y-91041200D02*
X55481400Y-91041200D01*
X54668600Y-90787200D02*
X54668600Y-92412800D01*
X54668600Y-92412800D02*
X55481400Y-92412800D01*
X55481400Y-92412800D02*
X55481400Y-90787200D01*
X55481400Y-90787200D02*
X54668600Y-90787200D01*
X82647080Y-77699600D02*
X81834280Y-77699600D01*
X81859680Y-76582000D02*
X82647080Y-76582000D01*
X81834280Y-76328000D02*
X81834280Y-77953600D01*
X81834280Y-77953600D02*
X82647080Y-77953600D01*
X82647080Y-77953600D02*
X82647080Y-76328000D01*
X82647080Y-76328000D02*
X81834280Y-76328000D01*
D10*
X160721600Y-73534000D02*
X160721600Y-74296000D01*
X160721600Y-73534000D02*
X160721600Y-73280000D01*
X160721600Y-73280000D02*
X162753600Y-73280000D01*
X162753600Y-73280000D02*
X162753600Y-74296000D01*
X162737600Y-73558000D02*
X162737600Y-74308000D01*
X160737600Y-73558000D02*
X160737600Y-74308000D01*
D18*
X162550400Y-76201000D02*
X160924800Y-76201000D01*
X160924800Y-73915000D02*
X162550400Y-73915000D01*
X160924800Y-73457800D02*
X162550400Y-73457800D01*
X162550400Y-73457800D02*
X162550400Y-76658200D01*
X162550400Y-76658200D02*
X160924800Y-76658200D01*
X160924800Y-76658200D02*
X160924800Y-73457800D01*
X99406000Y-53290200D02*
X99406000Y-54103000D01*
X98288400Y-54077600D02*
X98288400Y-53290200D01*
X98034400Y-54103000D02*
X99660000Y-54103000D01*
X99660000Y-54103000D02*
X99660000Y-53290200D01*
X99660000Y-53290200D02*
X98034400Y-53290200D01*
X98034400Y-53290200D02*
X98034400Y-54103000D01*
X96205600Y-48591200D02*
X97018400Y-48591200D01*
X96993000Y-49708800D02*
X96205600Y-49708800D01*
X97018400Y-49962800D02*
X97018400Y-48337200D01*
X97018400Y-48337200D02*
X96205600Y-48337200D01*
X96205600Y-48337200D02*
X96205600Y-49962800D01*
X96205600Y-49962800D02*
X97018400Y-49962800D01*
D10*
X145459000Y-44976000D02*
X145459000Y-45738000D01*
X145459000Y-44976000D02*
X145459000Y-44722000D01*
X145459000Y-44722000D02*
X147491000Y-44722000D01*
X147491000Y-44722000D02*
X147491000Y-45738000D01*
X147475000Y-45000000D02*
X147475000Y-45750000D01*
X145475000Y-45000000D02*
X145475000Y-45750000D01*
D18*
X147287800Y-47643000D02*
X145662200Y-47643000D01*
X145662200Y-45357000D02*
X147287800Y-45357000D01*
X145662200Y-44899800D02*
X147287800Y-44899800D01*
X147287800Y-44899800D02*
X147287800Y-48100200D01*
X147287800Y-48100200D02*
X145662200Y-48100200D01*
X145662200Y-48100200D02*
X145662200Y-44899800D01*
X68651680Y-58799460D02*
X67838880Y-58799460D01*
X67864280Y-57681860D02*
X68651680Y-57681860D01*
X67838880Y-57427860D02*
X67838880Y-59053460D01*
X67838880Y-59053460D02*
X68651680Y-59053460D01*
X68651680Y-59053460D02*
X68651680Y-57427860D01*
X68651680Y-57427860D02*
X67838880Y-57427860D01*
X58981900Y-44730400D02*
X58169100Y-44730400D01*
X58194500Y-43612800D02*
X58981900Y-43612800D01*
X58169100Y-43358800D02*
X58169100Y-44984400D01*
X58169100Y-44984400D02*
X58981900Y-44984400D01*
X58981900Y-44984400D02*
X58981900Y-43358800D01*
X58981900Y-43358800D02*
X58169100Y-43358800D01*
D10*
X174685500Y-79630500D02*
X174685500Y-78868500D01*
X174685500Y-79630500D02*
X174685500Y-79884500D01*
X174685500Y-79884500D02*
X172653500Y-79884500D01*
X172653500Y-79884500D02*
X172653500Y-78868500D01*
X172669500Y-79606500D02*
X172669500Y-78856500D01*
X174669500Y-79606500D02*
X174669500Y-78856500D01*
D18*
X172856700Y-76963500D02*
X174482300Y-76963500D01*
X174482300Y-79249500D02*
X172856700Y-79249500D01*
X174482300Y-79706700D02*
X172856700Y-79706700D01*
X172856700Y-79706700D02*
X172856700Y-76506300D01*
X172856700Y-76506300D02*
X174482300Y-76506300D01*
X174482300Y-76506300D02*
X174482300Y-79706700D01*
X170469100Y-77547700D02*
X171281900Y-77547700D01*
X171256500Y-78665300D02*
X170469100Y-78665300D01*
X171281900Y-78919300D02*
X171281900Y-77293700D01*
X171281900Y-77293700D02*
X170469100Y-77293700D01*
X170469100Y-77293700D02*
X170469100Y-78919300D01*
X170469100Y-78919300D02*
X171281900Y-78919300D01*
X76850800Y-42393600D02*
X76850800Y-43206400D01*
X75733200Y-43181000D02*
X75733200Y-42393600D01*
X75479200Y-43206400D02*
X77104800Y-43206400D01*
X77104800Y-43206400D02*
X77104800Y-42393600D01*
X77104800Y-42393600D02*
X75479200Y-42393600D01*
X75479200Y-42393600D02*
X75479200Y-43206400D01*
X98364600Y-40971200D02*
X99177400Y-40971200D01*
X99152000Y-42088800D02*
X98364600Y-42088800D01*
X99177400Y-42342800D02*
X99177400Y-40717200D01*
X99177400Y-40717200D02*
X98364600Y-40717200D01*
X98364600Y-40717200D02*
X98364600Y-42342800D01*
X98364600Y-42342800D02*
X99177400Y-42342800D01*
X75142900Y-55424300D02*
X74330100Y-55424300D01*
X74355500Y-54306700D02*
X75142900Y-54306700D01*
X74330100Y-54052700D02*
X74330100Y-55678300D01*
X74330100Y-55678300D02*
X75142900Y-55678300D01*
X75142900Y-55678300D02*
X75142900Y-54052700D01*
X75142900Y-54052700D02*
X74330100Y-54052700D01*
X74507900Y-51741300D02*
X73695100Y-51741300D01*
X73720500Y-50623700D02*
X74507900Y-50623700D01*
X73695100Y-50369700D02*
X73695100Y-51995300D01*
X73695100Y-51995300D02*
X74507900Y-51995300D01*
X74507900Y-51995300D02*
X74507900Y-50369700D01*
X74507900Y-50369700D02*
X73695100Y-50369700D01*
X95545200Y-40285400D02*
X95545200Y-39472600D01*
X96662800Y-39498000D02*
X96662800Y-40285400D01*
X96916800Y-39472600D02*
X95291200Y-39472600D01*
X95291200Y-39472600D02*
X95291200Y-40285400D01*
X95291200Y-40285400D02*
X96916800Y-40285400D01*
X96916800Y-40285400D02*
X96916800Y-39472600D01*
X95240400Y-72695800D02*
X94427600Y-72695800D01*
X94453000Y-71578200D02*
X95240400Y-71578200D01*
X94427600Y-71324200D02*
X94427600Y-72949800D01*
X94427600Y-72949800D02*
X95240400Y-72949800D01*
X95240400Y-72949800D02*
X95240400Y-71324200D01*
X95240400Y-71324200D02*
X94427600Y-71324200D01*
X73491900Y-104573300D02*
X72679100Y-104573300D01*
X72704500Y-103455700D02*
X73491900Y-103455700D01*
X72679100Y-103201700D02*
X72679100Y-104827300D01*
X72679100Y-104827300D02*
X73491900Y-104827300D01*
X73491900Y-104827300D02*
X73491900Y-103201700D01*
X73491900Y-103201700D02*
X72679100Y-103201700D01*
X123561400Y-54877700D02*
X123561400Y-55690500D01*
X122443800Y-55665100D02*
X122443800Y-54877700D01*
X122189800Y-55690500D02*
X123815400Y-55690500D01*
X123815400Y-55690500D02*
X123815400Y-54877700D01*
X123815400Y-54877700D02*
X122189800Y-54877700D01*
X122189800Y-54877700D02*
X122189800Y-55690500D01*
X116144600Y-56084200D02*
X116957400Y-56084200D01*
X116932000Y-57201800D02*
X116144600Y-57201800D01*
X116957400Y-57455800D02*
X116957400Y-55830200D01*
X116957400Y-55830200D02*
X116144600Y-55830200D01*
X116144600Y-55830200D02*
X116144600Y-57455800D01*
X116144600Y-57455800D02*
X116957400Y-57455800D01*
X107889600Y-61672200D02*
X108702400Y-61672200D01*
X108677000Y-62789800D02*
X107889600Y-62789800D01*
X108702400Y-63043800D02*
X108702400Y-61418200D01*
X108702400Y-61418200D02*
X107889600Y-61418200D01*
X107889600Y-61418200D02*
X107889600Y-63043800D01*
X107889600Y-63043800D02*
X108702400Y-63043800D01*
X71351700Y-68631800D02*
X70538900Y-68631800D01*
X70564300Y-67514200D02*
X71351700Y-67514200D01*
X70538900Y-67260200D02*
X70538900Y-68885800D01*
X70538900Y-68885800D02*
X71351700Y-68885800D01*
X71351700Y-68885800D02*
X71351700Y-67260200D01*
X71351700Y-67260200D02*
X70538900Y-67260200D01*
X102398120Y-53330840D02*
X102398120Y-54143640D01*
X101280520Y-54118240D02*
X101280520Y-53330840D01*
X101026520Y-54143640D02*
X102652120Y-54143640D01*
X102652120Y-54143640D02*
X102652120Y-53330840D01*
X102652120Y-53330840D02*
X101026520Y-53330840D01*
X101026520Y-53330840D02*
X101026520Y-54143640D01*
X99075800Y-74626200D02*
X99075800Y-75439000D01*
X97958200Y-75413600D02*
X97958200Y-74626200D01*
X97704200Y-75439000D02*
X99329800Y-75439000D01*
X99329800Y-75439000D02*
X99329800Y-74626200D01*
X99329800Y-74626200D02*
X97704200Y-74626200D01*
X97704200Y-74626200D02*
X97704200Y-75439000D01*
X87366400Y-68098400D02*
X87366400Y-67285600D01*
X88484000Y-67311000D02*
X88484000Y-68098400D01*
X88738000Y-67285600D02*
X87112400Y-67285600D01*
X87112400Y-67285600D02*
X87112400Y-68098400D01*
X87112400Y-68098400D02*
X88738000Y-68098400D01*
X88738000Y-68098400D02*
X88738000Y-67285600D01*
X109616800Y-79833200D02*
X109616800Y-79020400D01*
X110734400Y-79045800D02*
X110734400Y-79833200D01*
X110988400Y-79020400D02*
X109362800Y-79020400D01*
X109362800Y-79020400D02*
X109362800Y-79833200D01*
X109362800Y-79833200D02*
X110988400Y-79833200D01*
X110988400Y-79833200D02*
X110988400Y-79020400D01*
X100980800Y-75413600D02*
X100980800Y-74600800D01*
X102098400Y-74626200D02*
X102098400Y-75413600D01*
X102352400Y-74600800D02*
X100726800Y-74600800D01*
X100726800Y-74600800D02*
X100726800Y-75413600D01*
X100726800Y-75413600D02*
X102352400Y-75413600D01*
X102352400Y-75413600D02*
X102352400Y-74600800D01*
X116417900Y-81205300D02*
X115605100Y-81205300D01*
X115630500Y-80087700D02*
X116417900Y-80087700D01*
X115605100Y-79833700D02*
X115605100Y-81459300D01*
X115605100Y-81459300D02*
X116417900Y-81459300D01*
X116417900Y-81459300D02*
X116417900Y-79833700D01*
X116417900Y-79833700D02*
X115605100Y-79833700D01*
X126469700Y-63793100D02*
X126469700Y-62980300D01*
X127587300Y-63005700D02*
X127587300Y-63793100D01*
X127841300Y-62980300D02*
X126215700Y-62980300D01*
X126215700Y-62980300D02*
X126215700Y-63793100D01*
X126215700Y-63793100D02*
X127841300Y-63793100D01*
X127841300Y-63793100D02*
X127841300Y-62980300D01*
X113776300Y-78970100D02*
X113776300Y-79782900D01*
X112658700Y-79757500D02*
X112658700Y-78970100D01*
X112404700Y-79782900D02*
X114030300Y-79782900D01*
X114030300Y-79782900D02*
X114030300Y-78970100D01*
X114030300Y-78970100D02*
X112404700Y-78970100D01*
X112404700Y-78970100D02*
X112404700Y-79782900D01*
X115509600Y-77648800D02*
X115509600Y-76836000D01*
X116627200Y-76861400D02*
X116627200Y-77648800D01*
X116881200Y-76836000D02*
X115255600Y-76836000D01*
X115255600Y-76836000D02*
X115255600Y-77648800D01*
X115255600Y-77648800D02*
X116881200Y-77648800D01*
X116881200Y-77648800D02*
X116881200Y-76836000D01*
X137480600Y-67895200D02*
X138293400Y-67895200D01*
X138268000Y-69012800D02*
X137480600Y-69012800D01*
X138293400Y-69266800D02*
X138293400Y-67641200D01*
X138293400Y-67641200D02*
X137480600Y-67641200D01*
X137480600Y-67641200D02*
X137480600Y-69266800D01*
X137480600Y-69266800D02*
X138293400Y-69266800D01*
X93665600Y-48591200D02*
X94478400Y-48591200D01*
X94453000Y-49708800D02*
X93665600Y-49708800D01*
X94478400Y-49962800D02*
X94478400Y-48337200D01*
X94478400Y-48337200D02*
X93665600Y-48337200D01*
X93665600Y-48337200D02*
X93665600Y-49962800D01*
X93665600Y-49962800D02*
X94478400Y-49962800D01*
X152923800Y-54458600D02*
X152923800Y-55271400D01*
X151806200Y-55246000D02*
X151806200Y-54458600D01*
X151552200Y-55271400D02*
X153177800Y-55271400D01*
X153177800Y-55271400D02*
X153177800Y-54458600D01*
X153177800Y-54458600D02*
X151552200Y-54458600D01*
X151552200Y-54458600D02*
X151552200Y-55271400D01*
X141524280Y-67275440D02*
X141524280Y-68088240D01*
X140406680Y-68062840D02*
X140406680Y-67275440D01*
X140152680Y-68088240D02*
X141778280Y-68088240D01*
X141778280Y-68088240D02*
X141778280Y-67275440D01*
X141778280Y-67275440D02*
X140152680Y-67275440D01*
X140152680Y-67275440D02*
X140152680Y-68088240D01*
X160315200Y-55271400D02*
X160315200Y-54458600D01*
X161432800Y-54484000D02*
X161432800Y-55271400D01*
X161686800Y-54458600D02*
X160061200Y-54458600D01*
X160061200Y-54458600D02*
X160061200Y-55271400D01*
X160061200Y-55271400D02*
X161686800Y-55271400D01*
X161686800Y-55271400D02*
X161686800Y-54458600D01*
X140493600Y-51441200D02*
X141306400Y-51441200D01*
X141281000Y-52558800D02*
X140493600Y-52558800D01*
X141306400Y-52812800D02*
X141306400Y-51187200D01*
X141306400Y-51187200D02*
X140493600Y-51187200D01*
X140493600Y-51187200D02*
X140493600Y-52812800D01*
X140493600Y-52812800D02*
X141306400Y-52812800D01*
X147193600Y-51541200D02*
X148006400Y-51541200D01*
X147981000Y-52658800D02*
X147193600Y-52658800D01*
X148006400Y-52912800D02*
X148006400Y-51287200D01*
X148006400Y-51287200D02*
X147193600Y-51287200D01*
X147193600Y-51287200D02*
X147193600Y-52912800D01*
X147193600Y-52912800D02*
X148006400Y-52912800D01*
X161051800Y-51372500D02*
X160239000Y-51372500D01*
X160264400Y-50254900D02*
X161051800Y-50254900D01*
X160239000Y-50000900D02*
X160239000Y-51626500D01*
X160239000Y-51626500D02*
X161051800Y-51626500D01*
X161051800Y-51626500D02*
X161051800Y-50000900D01*
X161051800Y-50000900D02*
X160239000Y-50000900D01*
X86812680Y-82444320D02*
X85999880Y-82444320D01*
X86025280Y-81326720D02*
X86812680Y-81326720D01*
X85999880Y-81072720D02*
X85999880Y-82698320D01*
X85999880Y-82698320D02*
X86812680Y-82698320D01*
X86812680Y-82698320D02*
X86812680Y-81072720D01*
X86812680Y-81072720D02*
X85999880Y-81072720D01*
X123637600Y-59132200D02*
X124450400Y-59132200D01*
X124425000Y-60249800D02*
X123637600Y-60249800D01*
X124450400Y-60503800D02*
X124450400Y-58878200D01*
X124450400Y-58878200D02*
X123637600Y-58878200D01*
X123637600Y-58878200D02*
X123637600Y-60503800D01*
X123637600Y-60503800D02*
X124450400Y-60503800D01*
X124125280Y-67125580D02*
X124125280Y-67938380D01*
X123007680Y-67912980D02*
X123007680Y-67125580D01*
X122753680Y-67938380D02*
X124379280Y-67938380D01*
X124379280Y-67938380D02*
X124379280Y-67125580D01*
X124379280Y-67125580D02*
X122753680Y-67125580D01*
X122753680Y-67125580D02*
X122753680Y-67938380D01*
X125405440Y-64610980D02*
X125405440Y-65423780D01*
X124287840Y-65398380D02*
X124287840Y-64610980D01*
X124033840Y-65423780D02*
X125659440Y-65423780D01*
X125659440Y-65423780D02*
X125659440Y-64610980D01*
X125659440Y-64610980D02*
X124033840Y-64610980D01*
X124033840Y-64610980D02*
X124033840Y-65423780D01*
X127587300Y-60973700D02*
X127587300Y-61786500D01*
X126469700Y-61761100D02*
X126469700Y-60973700D01*
X126215700Y-61786500D02*
X127841300Y-61786500D01*
X127841300Y-61786500D02*
X127841300Y-60973700D01*
X127841300Y-60973700D02*
X126215700Y-60973700D01*
X126215700Y-60973700D02*
X126215700Y-61786500D01*
X72024800Y-40234600D02*
X72024800Y-41047400D01*
X70907200Y-41022000D02*
X70907200Y-40234600D01*
X70653200Y-41047400D02*
X72278800Y-41047400D01*
X72278800Y-41047400D02*
X72278800Y-40234600D01*
X72278800Y-40234600D02*
X70653200Y-40234600D01*
X70653200Y-40234600D02*
X70653200Y-41047400D01*
X72024800Y-38710600D02*
X72024800Y-39523400D01*
X70907200Y-39498000D02*
X70907200Y-38710600D01*
X70653200Y-39523400D02*
X72278800Y-39523400D01*
X72278800Y-39523400D02*
X72278800Y-38710600D01*
X72278800Y-38710600D02*
X70653200Y-38710600D01*
X70653200Y-38710600D02*
X70653200Y-39523400D01*
X98858800Y-84793600D02*
X98858800Y-85606400D01*
X97741200Y-85581000D02*
X97741200Y-84793600D01*
X97487200Y-85606400D02*
X99112800Y-85606400D01*
X99112800Y-85606400D02*
X99112800Y-84793600D01*
X99112800Y-84793600D02*
X97487200Y-84793600D01*
X97487200Y-84793600D02*
X97487200Y-85606400D01*
X52568400Y-106096800D02*
X51755600Y-106096800D01*
X51781000Y-104979200D02*
X52568400Y-104979200D01*
X51755600Y-104725200D02*
X51755600Y-106350800D01*
X51755600Y-106350800D02*
X52568400Y-106350800D01*
X52568400Y-106350800D02*
X52568400Y-104725200D01*
X52568400Y-104725200D02*
X51755600Y-104725200D01*
X56657800Y-106122200D02*
X55845000Y-106122200D01*
X55870400Y-105004600D02*
X56657800Y-105004600D01*
X55845000Y-104750600D02*
X55845000Y-106376200D01*
X55845000Y-106376200D02*
X56657800Y-106376200D01*
X56657800Y-106376200D02*
X56657800Y-104750600D01*
X56657800Y-104750600D02*
X55845000Y-104750600D01*
X57191200Y-101372400D02*
X57191200Y-100559600D01*
X58308800Y-100585000D02*
X58308800Y-101372400D01*
X58562800Y-100559600D02*
X56937200Y-100559600D01*
X56937200Y-100559600D02*
X56937200Y-101372400D01*
X56937200Y-101372400D02*
X58562800Y-101372400D01*
X58562800Y-101372400D02*
X58562800Y-100559600D01*
X75707800Y-82779600D02*
X76520600Y-82779600D01*
X76495200Y-83897200D02*
X75707800Y-83897200D01*
X76520600Y-84151200D02*
X76520600Y-82525600D01*
X76520600Y-82525600D02*
X75707800Y-82525600D01*
X75707800Y-82525600D02*
X75707800Y-84151200D01*
X75707800Y-84151200D02*
X76520600Y-84151200D01*
X144406400Y-47158800D02*
X143593600Y-47158800D01*
X143619000Y-46041200D02*
X144406400Y-46041200D01*
X143593600Y-45787200D02*
X143593600Y-47412800D01*
X143593600Y-47412800D02*
X144406400Y-47412800D01*
X144406400Y-47412800D02*
X144406400Y-45787200D01*
X144406400Y-45787200D02*
X143593600Y-45787200D01*
X120970600Y-81738200D02*
X120970600Y-80925400D01*
X122088200Y-80950800D02*
X122088200Y-81738200D01*
X122342200Y-80925400D02*
X120716600Y-80925400D01*
X120716600Y-80925400D02*
X120716600Y-81738200D01*
X120716600Y-81738200D02*
X122342200Y-81738200D01*
X122342200Y-81738200D02*
X122342200Y-80925400D01*
X171491200Y-85751400D02*
X171491200Y-84938600D01*
X172608800Y-84964000D02*
X172608800Y-85751400D01*
X172862800Y-84938600D02*
X171237200Y-84938600D01*
X171237200Y-84938600D02*
X171237200Y-85751400D01*
X171237200Y-85751400D02*
X172862800Y-85751400D01*
X172862800Y-85751400D02*
X172862800Y-84938600D01*
D10*
X150725000Y-109800000D02*
X159025000Y-109800000D01*
X159025000Y-103400000D02*
X150725000Y-103400000D01*
X156541000Y-95650000D02*
X156033000Y-95650000D01*
X155525000Y-94761000D02*
X155525000Y-94507000D01*
X155525000Y-94507000D02*
X156033000Y-94507000D01*
X156033000Y-94507000D02*
X156033000Y-96666000D01*
X156033000Y-96666000D02*
X156414000Y-96666000D01*
X156414000Y-96666000D02*
X156414000Y-96412000D01*
X154509000Y-94888000D02*
X154509000Y-96412000D01*
X154509000Y-96412000D02*
X156033000Y-95650000D01*
X156033000Y-95650000D02*
X154509000Y-94888000D01*
X157684000Y-95650000D02*
X156541000Y-95650000D01*
X153366000Y-95650000D02*
X154509000Y-95650000D01*
X157684000Y-97682000D02*
X153366000Y-97682000D01*
X157684000Y-93618000D02*
X153366000Y-93618000D01*
X153366000Y-93618000D02*
X153366000Y-97682000D01*
X157684000Y-93618000D02*
X157684000Y-97682000D01*
D16*
X93700900Y-87899700D02*
X92075300Y-87899700D01*
X93700900Y-86350300D02*
X92100700Y-86350300D01*
X92100700Y-86350300D02*
X92088000Y-86350300D01*
D15*
X93713600Y-87912400D02*
X93104000Y-87912400D01*
X93104000Y-87912400D02*
X93104000Y-86337600D01*
X93713600Y-86337600D02*
X93104000Y-86337600D01*
X93713600Y-87912400D02*
X93713600Y-86337600D01*
D16*
X92352160Y-86627160D02*
X93347840Y-87125000D01*
X93347840Y-87125000D02*
X92352160Y-87622840D01*
X92352160Y-87622840D02*
X92352160Y-86627160D01*
X83750900Y-87849700D02*
X82125300Y-87849700D01*
X83750900Y-86300300D02*
X82150700Y-86300300D01*
X82150700Y-86300300D02*
X82138000Y-86300300D01*
D15*
X83763600Y-87862400D02*
X83154000Y-87862400D01*
X83154000Y-87862400D02*
X83154000Y-86287600D01*
X83763600Y-86287600D02*
X83154000Y-86287600D01*
X83763600Y-87862400D02*
X83763600Y-86287600D01*
D16*
X82402160Y-86577160D02*
X83397840Y-87075000D01*
X83397840Y-87075000D02*
X82402160Y-87572840D01*
X82402160Y-87572840D02*
X82402160Y-86577160D01*
X114325900Y-87949700D02*
X112700300Y-87949700D01*
X114325900Y-86400300D02*
X112725700Y-86400300D01*
X112725700Y-86400300D02*
X112713000Y-86400300D01*
D15*
X114338600Y-87962400D02*
X113729000Y-87962400D01*
X113729000Y-87962400D02*
X113729000Y-86387600D01*
X114338600Y-86387600D02*
X113729000Y-86387600D01*
X114338600Y-87962400D02*
X114338600Y-86387600D01*
D16*
X112977160Y-86677160D02*
X113972840Y-87175000D01*
X113972840Y-87175000D02*
X112977160Y-87672840D01*
X112977160Y-87672840D02*
X112977160Y-86677160D01*
X104650900Y-87899700D02*
X103025300Y-87899700D01*
X104650900Y-86350300D02*
X103050700Y-86350300D01*
X103050700Y-86350300D02*
X103038000Y-86350300D01*
D15*
X104663600Y-87912400D02*
X104054000Y-87912400D01*
X104054000Y-87912400D02*
X104054000Y-86337600D01*
X104663600Y-86337600D02*
X104054000Y-86337600D01*
X104663600Y-87912400D02*
X104663600Y-86337600D01*
D16*
X103302160Y-86627160D02*
X104297840Y-87125000D01*
X104297840Y-87125000D02*
X103302160Y-87622840D01*
X103302160Y-87622840D02*
X103302160Y-86627160D01*
D18*
X71569120Y-57723000D02*
X70863000Y-57723000D01*
X70863000Y-57723000D02*
X70863000Y-56326000D01*
X70863000Y-56326000D02*
X71569120Y-56326000D01*
X73276000Y-57723000D02*
X72569880Y-57723000D01*
X73276000Y-57723000D02*
X73276000Y-56326000D01*
X73276000Y-56326000D02*
X72569880Y-56326000D01*
X55946600Y-57430400D02*
X53660600Y-57430400D01*
X53660600Y-57430400D02*
X53660600Y-58700400D01*
X53660600Y-58700400D02*
X55946600Y-58700400D01*
X55946600Y-58700400D02*
X55946600Y-57430400D01*
X122558100Y-65423780D02*
X122558100Y-66129900D01*
X122558100Y-66129900D02*
X121161100Y-66129900D01*
X121161100Y-66129900D02*
X121161100Y-65423780D01*
X122558100Y-63716900D02*
X122558100Y-64423020D01*
X122558100Y-63716900D02*
X121161100Y-63716900D01*
X121161100Y-63716900D02*
X121161100Y-64423020D01*
X74990500Y-102871500D02*
X74990500Y-105157500D01*
X74990500Y-105157500D02*
X76260500Y-105157500D01*
X76260500Y-105157500D02*
X76260500Y-102871500D01*
X76260500Y-102871500D02*
X74990500Y-102871500D01*
X132172000Y-67184000D02*
X129632000Y-67184000D01*
X129632000Y-65406000D02*
X132172000Y-65406000D01*
X129632000Y-65406000D02*
X129632000Y-67184000D01*
X132172000Y-67184000D02*
X132172000Y-65406000D01*
X132172000Y-69216000D02*
X129632000Y-69216000D01*
X129632000Y-67438000D02*
X132172000Y-67438000D01*
X129632000Y-67438000D02*
X129632000Y-69216000D01*
X132172000Y-69216000D02*
X132172000Y-67438000D01*
X86166500Y-47118500D02*
X86166500Y-43308500D01*
X86166500Y-43308500D02*
X87944500Y-43308500D01*
X87944500Y-43308500D02*
X87944500Y-47118500D01*
X86166500Y-47118500D02*
X87944500Y-47118500D01*
X89976500Y-46610500D02*
X92516500Y-46610500D01*
X92516500Y-48388500D02*
X89976500Y-48388500D01*
X92516500Y-48388500D02*
X92516500Y-46610500D01*
X89976500Y-46610500D02*
X89976500Y-48388500D01*
X83880500Y-48134500D02*
X83880500Y-51944500D01*
X83880500Y-51944500D02*
X82102500Y-51944500D01*
X82102500Y-51944500D02*
X82102500Y-48134500D01*
X83880500Y-48134500D02*
X82102500Y-48134500D01*
X74133000Y-41784000D02*
X74133000Y-44324000D01*
X72355000Y-44324000D02*
X72355000Y-41784000D01*
X72355000Y-44324000D02*
X74133000Y-44324000D01*
X74133000Y-41784000D02*
X72355000Y-41784000D01*
X68132500Y-54611500D02*
X68132500Y-50801500D01*
X68132500Y-50801500D02*
X69910500Y-50801500D01*
X69910500Y-50801500D02*
X69910500Y-54611500D01*
X68132500Y-54611500D02*
X69910500Y-54611500D01*
X70196000Y-41784000D02*
X70196000Y-44324000D01*
X68418000Y-44324000D02*
X68418000Y-41784000D01*
X68418000Y-44324000D02*
X70196000Y-44324000D01*
X70196000Y-41784000D02*
X68418000Y-41784000D01*
X68513500Y-48642500D02*
X68513500Y-44832500D01*
X68513500Y-44832500D02*
X70291500Y-44832500D01*
X70291500Y-44832500D02*
X70291500Y-48642500D01*
X68513500Y-48642500D02*
X70291500Y-48642500D01*
X67465000Y-79519000D02*
X67465000Y-81805000D01*
X67465000Y-81805000D02*
X68735000Y-81805000D01*
X68735000Y-81805000D02*
X68735000Y-79519000D01*
X68735000Y-79519000D02*
X67465000Y-79519000D01*
D10*
X157064000Y-40361600D02*
X157064000Y-40666400D01*
X157064000Y-40666400D02*
X158842000Y-41784000D01*
X158842000Y-42114200D02*
X158842000Y-41784000D01*
X158486400Y-42266600D02*
X157343400Y-42266600D01*
X157343400Y-42266600D02*
X157343400Y-40234600D01*
X157343400Y-40234600D02*
X158537200Y-40234600D01*
X158537200Y-40234600D02*
X158537200Y-42266600D01*
X156073400Y-38885600D02*
X156073400Y-43615600D01*
X159985000Y-43615600D02*
X159985000Y-38885600D01*
X153101600Y-40412400D02*
X153101600Y-40717200D01*
X153101600Y-40717200D02*
X154879600Y-41834800D01*
X154879600Y-42165000D02*
X154879600Y-41834800D01*
X154524000Y-42317400D02*
X153381000Y-42317400D01*
X153381000Y-42317400D02*
X153381000Y-40285400D01*
X153381000Y-40285400D02*
X154574800Y-40285400D01*
X154574800Y-40285400D02*
X154574800Y-42317400D01*
X152111000Y-38936400D02*
X152111000Y-43666400D01*
X156022600Y-43666400D02*
X156022600Y-38936400D01*
D18*
X83340500Y-71748380D02*
X83340500Y-72454500D01*
X83340500Y-72454500D02*
X81943500Y-72454500D01*
X81943500Y-72454500D02*
X81943500Y-71748380D01*
X83340500Y-70041500D02*
X83340500Y-70747620D01*
X83340500Y-70041500D02*
X81943500Y-70041500D01*
X81943500Y-70041500D02*
X81943500Y-70747620D01*
X79941980Y-69774800D02*
X80648100Y-69774800D01*
X80648100Y-69774800D02*
X80648100Y-71171800D01*
X80648100Y-71171800D02*
X79941980Y-71171800D01*
X78235100Y-69774800D02*
X78941220Y-69774800D01*
X78235100Y-69774800D02*
X78235100Y-71171800D01*
X78235100Y-71171800D02*
X78941220Y-71171800D01*
X84437780Y-62650100D02*
X85143900Y-62650100D01*
X85143900Y-62650100D02*
X85143900Y-64047100D01*
X85143900Y-64047100D02*
X84437780Y-64047100D01*
X82730900Y-62650100D02*
X83437020Y-62650100D01*
X82730900Y-62650100D02*
X82730900Y-64047100D01*
X82730900Y-64047100D02*
X83437020Y-64047100D01*
X72685200Y-67471020D02*
X72685200Y-66764900D01*
X72685200Y-66764900D02*
X74082200Y-66764900D01*
X74082200Y-66764900D02*
X74082200Y-67471020D01*
X72685200Y-69177900D02*
X72685200Y-68471780D01*
X72685200Y-69177900D02*
X74082200Y-69177900D01*
X74082200Y-69177900D02*
X74082200Y-68471780D01*
X60658300Y-88641920D02*
X60658300Y-87935800D01*
X60658300Y-87935800D02*
X62055300Y-87935800D01*
X62055300Y-87935800D02*
X62055300Y-88641920D01*
X60658300Y-90348800D02*
X60658300Y-89642680D01*
X60658300Y-90348800D02*
X62055300Y-90348800D01*
X62055300Y-90348800D02*
X62055300Y-89642680D01*
X61451500Y-78489620D02*
X61451500Y-77783500D01*
X61451500Y-77783500D02*
X62848500Y-77783500D01*
X62848500Y-77783500D02*
X62848500Y-78489620D01*
X61451500Y-80196500D02*
X61451500Y-79490380D01*
X61451500Y-80196500D02*
X62848500Y-80196500D01*
X62848500Y-80196500D02*
X62848500Y-79490380D01*
X99901300Y-62096380D02*
X99901300Y-62802500D01*
X99901300Y-62802500D02*
X98504300Y-62802500D01*
X98504300Y-62802500D02*
X98504300Y-62096380D01*
X99901300Y-60389500D02*
X99901300Y-61095620D01*
X99901300Y-60389500D02*
X98504300Y-60389500D01*
X98504300Y-60389500D02*
X98504300Y-61095620D01*
X110830920Y-62472300D02*
X110124800Y-62472300D01*
X110124800Y-62472300D02*
X110124800Y-61075300D01*
X110124800Y-61075300D02*
X110830920Y-61075300D01*
X112537800Y-62472300D02*
X111831680Y-62472300D01*
X112537800Y-62472300D02*
X112537800Y-61075300D01*
X112537800Y-61075300D02*
X111831680Y-61075300D01*
X48889620Y-95488500D02*
X48183500Y-95488500D01*
X48183500Y-95488500D02*
X48183500Y-94091500D01*
X48183500Y-94091500D02*
X48889620Y-94091500D01*
X50596500Y-95488500D02*
X49890380Y-95488500D01*
X50596500Y-95488500D02*
X50596500Y-94091500D01*
X50596500Y-94091500D02*
X49890380Y-94091500D01*
X72494700Y-84727780D02*
X72494700Y-85433900D01*
X72494700Y-85433900D02*
X71097700Y-85433900D01*
X71097700Y-85433900D02*
X71097700Y-84727780D01*
X72494700Y-83020900D02*
X72494700Y-83727020D01*
X72494700Y-83020900D02*
X71097700Y-83020900D01*
X71097700Y-83020900D02*
X71097700Y-83727020D01*
X158092700Y-45982620D02*
X158092700Y-45276500D01*
X158092700Y-45276500D02*
X159489700Y-45276500D01*
X159489700Y-45276500D02*
X159489700Y-45982620D01*
X158092700Y-47689500D02*
X158092700Y-46983380D01*
X158092700Y-47689500D02*
X159489700Y-47689500D01*
X159489700Y-47689500D02*
X159489700Y-46983380D01*
X161394700Y-47034180D02*
X161394700Y-47740300D01*
X161394700Y-47740300D02*
X159997700Y-47740300D01*
X159997700Y-47740300D02*
X159997700Y-47034180D01*
X161394700Y-45327300D02*
X161394700Y-46033420D01*
X161394700Y-45327300D02*
X159997700Y-45327300D01*
X159997700Y-45327300D02*
X159997700Y-46033420D01*
X157279900Y-46983380D02*
X157279900Y-47689500D01*
X157279900Y-47689500D02*
X155882900Y-47689500D01*
X155882900Y-47689500D02*
X155882900Y-46983380D01*
X157279900Y-45276500D02*
X157279900Y-45982620D01*
X157279900Y-45276500D02*
X155882900Y-45276500D01*
X155882900Y-45276500D02*
X155882900Y-45982620D01*
X151818900Y-45982620D02*
X151818900Y-45276500D01*
X151818900Y-45276500D02*
X153215900Y-45276500D01*
X153215900Y-45276500D02*
X153215900Y-45982620D01*
X151818900Y-47689500D02*
X151818900Y-46983380D01*
X151818900Y-47689500D02*
X153215900Y-47689500D01*
X153215900Y-47689500D02*
X153215900Y-46983380D01*
X155222500Y-46983380D02*
X155222500Y-47689500D01*
X155222500Y-47689500D02*
X153825500Y-47689500D01*
X153825500Y-47689500D02*
X153825500Y-46983380D01*
X155222500Y-45276500D02*
X155222500Y-45982620D01*
X155222500Y-45276500D02*
X153825500Y-45276500D01*
X153825500Y-45276500D02*
X153825500Y-45982620D01*
D10*
X146622800Y-38970400D02*
X146622800Y-42870400D01*
X149572800Y-42870400D02*
X149572800Y-38970400D01*
X146201000Y-41768000D02*
X146201000Y-39768000D01*
X144051000Y-39768000D02*
X144051000Y-41768000D01*
X142137000Y-41768000D02*
X142137000Y-39768000D01*
X139987000Y-39768000D02*
X139987000Y-41768000D01*
X136803000Y-41260000D02*
X136803000Y-39260000D01*
X134653000Y-39260000D02*
X134653000Y-41260000D01*
X130124000Y-37915000D02*
X128124000Y-37915000D01*
X128124000Y-40065000D02*
X130124000Y-40065000D01*
X118769000Y-41514000D02*
X118769000Y-39514000D01*
X116619000Y-39514000D02*
X116619000Y-41514000D01*
X114197000Y-41768000D02*
X114197000Y-39768000D01*
X112047000Y-39768000D02*
X112047000Y-41768000D01*
X110895000Y-41514000D02*
X110895000Y-39514000D01*
X108745000Y-39514000D02*
X108745000Y-41514000D01*
X106069000Y-41514000D02*
X106069000Y-39514000D01*
X103919000Y-39514000D02*
X103919000Y-41514000D01*
X157489700Y-102998500D02*
X156753100Y-102998500D01*
X156753100Y-102998500D02*
X154771900Y-100026700D01*
X154771900Y-100026700D02*
X153959100Y-100026700D01*
X157565900Y-100661700D02*
X157565900Y-102287300D01*
X157565900Y-102287300D02*
X153730500Y-102287300D01*
X153730500Y-102287300D02*
X153730500Y-100661700D01*
X153730500Y-100636300D02*
X157565900Y-100636300D01*
X160935500Y-99004500D02*
X160935500Y-103944500D01*
X160935500Y-98974500D02*
X150335500Y-98974500D01*
X160935500Y-103974500D02*
X150335500Y-103974500D01*
X150335500Y-99004500D02*
X150335500Y-103944500D01*
X123790000Y-104826800D02*
X123790000Y-105207800D01*
X123790000Y-105207800D02*
X122088200Y-106909600D01*
X122088200Y-106909600D02*
X122088200Y-107239800D01*
X122901000Y-107468400D02*
X123409000Y-107468400D01*
X123409000Y-104572800D02*
X123409000Y-107417600D01*
X122901000Y-104572800D02*
X123409000Y-104572800D01*
X122901000Y-104318800D02*
X122901000Y-104572800D01*
X122901000Y-104572800D02*
X122393000Y-104572800D01*
X122393000Y-104572800D02*
X122393000Y-107468400D01*
X122393000Y-107468400D02*
X122901000Y-107468400D01*
X122901000Y-107468400D02*
X122901000Y-107671600D01*
X124701000Y-108546000D02*
X124701000Y-103546000D01*
X121101000Y-103546000D02*
X121101000Y-108546000D01*
X165400840Y-57645840D02*
X165400840Y-59645840D01*
X165400840Y-59645840D02*
X162600840Y-59645840D01*
X162600840Y-59645840D02*
X162600840Y-57645840D01*
X162600840Y-57645840D02*
X165400840Y-57645840D01*
X165800840Y-59845840D02*
G75*
G03X165800840Y-59845840I-200000J0D01*
G01*
X168037920Y-98680500D02*
G75*
G03X168037920Y-98680500I-718420J0D01*
G01*
X165795500Y-105792500D02*
X165795500Y-97156500D01*
X165795500Y-97156500D02*
X175955500Y-97156500D01*
X175955500Y-97156500D02*
X175955500Y-105792500D01*
D15*
X63251640Y-57659000D02*
X62761420Y-57659000D01*
X62761420Y-57659000D02*
X62761420Y-56559180D01*
X63251640Y-56559180D02*
X62761420Y-56559180D01*
X63251640Y-57659000D02*
X63251640Y-56559180D01*
X61981640Y-57659000D02*
X61491420Y-57659000D01*
X61491420Y-57659000D02*
X61491420Y-56559180D01*
X61981640Y-56559180D02*
X61491420Y-56559180D01*
X61981640Y-57659000D02*
X61981640Y-56559180D01*
X60714180Y-57659000D02*
X60223960Y-57659000D01*
X60223960Y-57659000D02*
X60223960Y-56559180D01*
X60714180Y-56559180D02*
X60223960Y-56559180D01*
X60714180Y-57659000D02*
X60714180Y-56559180D01*
X59444180Y-57659000D02*
X58953960Y-57659000D01*
X58953960Y-57659000D02*
X58953960Y-56559180D01*
X59444180Y-56559180D02*
X58953960Y-56559180D01*
X59444180Y-57659000D02*
X59444180Y-56559180D01*
X59444180Y-52561220D02*
X58953960Y-52561220D01*
X58953960Y-52561220D02*
X58953960Y-51461400D01*
X59444180Y-51461400D02*
X58953960Y-51461400D01*
X59444180Y-52561220D02*
X59444180Y-51461400D01*
X60714180Y-52561220D02*
X60223960Y-52561220D01*
X60223960Y-52561220D02*
X60223960Y-51461400D01*
X60714180Y-51461400D02*
X60223960Y-51461400D01*
X60714180Y-52561220D02*
X60714180Y-51461400D01*
X61981640Y-52561220D02*
X61491420Y-52561220D01*
X61491420Y-52561220D02*
X61491420Y-51461400D01*
X61981640Y-51461400D02*
X61491420Y-51461400D01*
X61981640Y-52561220D02*
X61981640Y-51461400D01*
X63251640Y-52561220D02*
X62761420Y-52561220D01*
X62761420Y-52561220D02*
X62761420Y-51461400D01*
X63251640Y-51461400D02*
X62761420Y-51461400D01*
X63251640Y-52561220D02*
X63251640Y-51461400D01*
D16*
X58705040Y-52660280D02*
X58705040Y-55959740D01*
X58705040Y-55959740D02*
X58705040Y-56460120D01*
X58705040Y-56460120D02*
X63500560Y-56460120D01*
X63500560Y-56460120D02*
X63500560Y-55959740D01*
X63500560Y-55959740D02*
X63500560Y-52660280D01*
X63500560Y-52660280D02*
X58705040Y-52660280D01*
X58705040Y-55959740D02*
X63500560Y-55959740D01*
D15*
X174755100Y-58951860D02*
X174755100Y-59442080D01*
X174755100Y-59442080D02*
X173655280Y-59442080D01*
X173655280Y-58951860D02*
X173655280Y-59442080D01*
X174755100Y-58951860D02*
X173655280Y-58951860D01*
X174755100Y-60221860D02*
X174755100Y-60712080D01*
X174755100Y-60712080D02*
X173655280Y-60712080D01*
X173655280Y-60221860D02*
X173655280Y-60712080D01*
X174755100Y-60221860D02*
X173655280Y-60221860D01*
X174755100Y-61489320D02*
X174755100Y-61979540D01*
X174755100Y-61979540D02*
X173655280Y-61979540D01*
X173655280Y-61489320D02*
X173655280Y-61979540D01*
X174755100Y-61489320D02*
X173655280Y-61489320D01*
X174755100Y-62759320D02*
X174755100Y-63249540D01*
X174755100Y-63249540D02*
X173655280Y-63249540D01*
X173655280Y-62759320D02*
X173655280Y-63249540D01*
X174755100Y-62759320D02*
X173655280Y-62759320D01*
X169657320Y-62759320D02*
X169657320Y-63249540D01*
X169657320Y-63249540D02*
X168557500Y-63249540D01*
X168557500Y-62759320D02*
X168557500Y-63249540D01*
X169657320Y-62759320D02*
X168557500Y-62759320D01*
X169657320Y-61489320D02*
X169657320Y-61979540D01*
X169657320Y-61979540D02*
X168557500Y-61979540D01*
X168557500Y-61489320D02*
X168557500Y-61979540D01*
X169657320Y-61489320D02*
X168557500Y-61489320D01*
X169657320Y-60221860D02*
X169657320Y-60712080D01*
X169657320Y-60712080D02*
X168557500Y-60712080D01*
X168557500Y-60221860D02*
X168557500Y-60712080D01*
X169657320Y-60221860D02*
X168557500Y-60221860D01*
X169657320Y-58951860D02*
X169657320Y-59442080D01*
X169657320Y-59442080D02*
X168557500Y-59442080D01*
X168557500Y-58951860D02*
X168557500Y-59442080D01*
X169657320Y-58951860D02*
X168557500Y-58951860D01*
D16*
X169756380Y-63498460D02*
X173055840Y-63498460D01*
X173055840Y-63498460D02*
X173556220Y-63498460D01*
X173556220Y-63498460D02*
X173556220Y-58702940D01*
X173556220Y-58702940D02*
X173055840Y-58702940D01*
X173055840Y-58702940D02*
X169756380Y-58702940D01*
X169756380Y-58702940D02*
X169756380Y-63498460D01*
X173055840Y-63498460D02*
X173055840Y-58702940D01*
X76260500Y-43943500D02*
X76260500Y-48769500D01*
X76260500Y-48769500D02*
X79816500Y-48769500D01*
X79816500Y-48769500D02*
X79816500Y-43943500D01*
X79816500Y-43943500D02*
X76260500Y-43943500D01*
X79562500Y-44578500D02*
G75*
G03X79562500Y-44578500I-381000J0D01*
G01*
D19*
X145349520Y-59508120D02*
X146848120Y-58009520D01*
X156845560Y-59508120D02*
X156845560Y-58009520D01*
X156845560Y-58009520D02*
X155346960Y-58009520D01*
X156845560Y-68006960D02*
X156845560Y-69505560D01*
X156845560Y-69505560D02*
X155346960Y-69505560D01*
X145349520Y-68006960D02*
X145349520Y-69505560D01*
X145349520Y-69505560D02*
X146848120Y-69505560D01*
X147348500Y-59259200D02*
X147348500Y-61258180D01*
D20*
X145910860Y-57509140D02*
G75*
G03X145910860Y-57509140I-187960J0D01*
G01*
D15*
X133708700Y-54646560D02*
X133708700Y-55136780D01*
X133708700Y-55136780D02*
X132608880Y-55136780D01*
X132608880Y-54646560D02*
X132608880Y-55136780D01*
X133708700Y-54646560D02*
X132608880Y-54646560D01*
X133708700Y-55916560D02*
X133708700Y-56406780D01*
X133708700Y-56406780D02*
X132608880Y-56406780D01*
X132608880Y-55916560D02*
X132608880Y-56406780D01*
X133708700Y-55916560D02*
X132608880Y-55916560D01*
X133708700Y-57184020D02*
X133708700Y-57674240D01*
X133708700Y-57674240D02*
X132608880Y-57674240D01*
X132608880Y-57184020D02*
X132608880Y-57674240D01*
X133708700Y-57184020D02*
X132608880Y-57184020D01*
X133708700Y-58454020D02*
X133708700Y-58944240D01*
X133708700Y-58944240D02*
X132608880Y-58944240D01*
X132608880Y-58454020D02*
X132608880Y-58944240D01*
X133708700Y-58454020D02*
X132608880Y-58454020D01*
X128610920Y-58454020D02*
X128610920Y-58944240D01*
X128610920Y-58944240D02*
X127511100Y-58944240D01*
X127511100Y-58454020D02*
X127511100Y-58944240D01*
X128610920Y-58454020D02*
X127511100Y-58454020D01*
X128610920Y-57184020D02*
X128610920Y-57674240D01*
X128610920Y-57674240D02*
X127511100Y-57674240D01*
X127511100Y-57184020D02*
X127511100Y-57674240D01*
X128610920Y-57184020D02*
X127511100Y-57184020D01*
X128610920Y-55916560D02*
X128610920Y-56406780D01*
X128610920Y-56406780D02*
X127511100Y-56406780D01*
X127511100Y-55916560D02*
X127511100Y-56406780D01*
X128610920Y-55916560D02*
X127511100Y-55916560D01*
X128610920Y-54646560D02*
X128610920Y-55136780D01*
X128610920Y-55136780D02*
X127511100Y-55136780D01*
X127511100Y-54646560D02*
X127511100Y-55136780D01*
X128610920Y-54646560D02*
X127511100Y-54646560D01*
D16*
X128709980Y-59193160D02*
X132009440Y-59193160D01*
X132009440Y-59193160D02*
X132509820Y-59193160D01*
X132509820Y-59193160D02*
X132509820Y-54397640D01*
X132509820Y-54397640D02*
X132009440Y-54397640D01*
X132009440Y-54397640D02*
X128709980Y-54397640D01*
X128709980Y-54397640D02*
X128709980Y-59193160D01*
X132009440Y-59193160D02*
X132009440Y-54397640D01*
D21*
X89847980Y-55807340D02*
G75*
G02X89847980Y-56361060I0J-276860D01*
G01*
X89847980Y-55812420D02*
X89847980Y-54440820D01*
X89847980Y-54440820D02*
X94745100Y-54440820D01*
X94745100Y-54440820D02*
X94745100Y-57732660D01*
X94745100Y-57732660D02*
X89847980Y-57732660D01*
X89847980Y-57732660D02*
X89847980Y-56361060D01*
X50610060Y-96741980D02*
G75*
G02X50056340Y-96741980I-276860J0D01*
G01*
X50604980Y-96741980D02*
X51976580Y-96741980D01*
X51976580Y-96741980D02*
X51976580Y-101639100D01*
X51976580Y-101639100D02*
X48684740Y-101639100D01*
X48684740Y-101639100D02*
X48684740Y-96741980D01*
X48684740Y-96741980D02*
X50056340Y-96741980D01*
D18*
X144821200Y-95809800D02*
X143043200Y-95809800D01*
X143043200Y-95809800D02*
X143043200Y-98857800D01*
X143043200Y-98857800D02*
X144821200Y-98857800D01*
X144821200Y-98857800D02*
X144821200Y-95809800D01*
D15*
X83287160Y-54179200D02*
X83777380Y-54179200D01*
X83777380Y-54179200D02*
X83777380Y-55279020D01*
X83287160Y-55279020D02*
X83777380Y-55279020D01*
X83287160Y-54179200D02*
X83287160Y-55279020D01*
X84557160Y-54179200D02*
X85047380Y-54179200D01*
X85047380Y-54179200D02*
X85047380Y-55279020D01*
X84557160Y-55279020D02*
X85047380Y-55279020D01*
X84557160Y-54179200D02*
X84557160Y-55279020D01*
X85824620Y-54179200D02*
X86314840Y-54179200D01*
X86314840Y-54179200D02*
X86314840Y-55279020D01*
X85824620Y-55279020D02*
X86314840Y-55279020D01*
X85824620Y-54179200D02*
X85824620Y-55279020D01*
X87094620Y-54179200D02*
X87584840Y-54179200D01*
X87584840Y-54179200D02*
X87584840Y-55279020D01*
X87094620Y-55279020D02*
X87584840Y-55279020D01*
X87094620Y-54179200D02*
X87094620Y-55279020D01*
X87094620Y-59276980D02*
X87584840Y-59276980D01*
X87584840Y-59276980D02*
X87584840Y-60376800D01*
X87094620Y-60376800D02*
X87584840Y-60376800D01*
X87094620Y-59276980D02*
X87094620Y-60376800D01*
X85824620Y-59276980D02*
X86314840Y-59276980D01*
X86314840Y-59276980D02*
X86314840Y-60376800D01*
X85824620Y-60376800D02*
X86314840Y-60376800D01*
X85824620Y-59276980D02*
X85824620Y-60376800D01*
X84557160Y-59276980D02*
X85047380Y-59276980D01*
X85047380Y-59276980D02*
X85047380Y-60376800D01*
X84557160Y-60376800D02*
X85047380Y-60376800D01*
X84557160Y-59276980D02*
X84557160Y-60376800D01*
X83287160Y-59276980D02*
X83777380Y-59276980D01*
X83777380Y-59276980D02*
X83777380Y-60376800D01*
X83287160Y-60376800D02*
X83777380Y-60376800D01*
X83287160Y-59276980D02*
X83287160Y-60376800D01*
D16*
X87833760Y-59177920D02*
X87833760Y-55878460D01*
X87833760Y-55878460D02*
X87833760Y-55378080D01*
X87833760Y-55378080D02*
X83038240Y-55378080D01*
X83038240Y-55378080D02*
X83038240Y-55878460D01*
X83038240Y-55878460D02*
X83038240Y-59177920D01*
X83038240Y-59177920D02*
X87833760Y-59177920D01*
X87833760Y-55878460D02*
X83038240Y-55878460D01*
D18*
X129124000Y-95886000D02*
X127346000Y-95886000D01*
X127346000Y-95886000D02*
X127346000Y-98934000D01*
X127346000Y-98934000D02*
X129124000Y-98934000D01*
X129124000Y-98934000D02*
X129124000Y-95886000D01*
X136591600Y-95886000D02*
X134813600Y-95886000D01*
X134813600Y-95886000D02*
X134813600Y-98934000D01*
X134813600Y-98934000D02*
X136591600Y-98934000D01*
X136591600Y-98934000D02*
X136591600Y-95886000D01*
X121732600Y-98934000D02*
X123510600Y-98934000D01*
X123510600Y-98934000D02*
X123510600Y-95886000D01*
X123510600Y-95886000D02*
X121732600Y-95886000D01*
X121732600Y-95886000D02*
X121732600Y-98934000D01*
D10*
X141955605Y-55924000D02*
G75*
G03X141955605Y-55924000I-179605J0D01*
G01*
X146602000Y-55670000D02*
X142157000Y-55670000D01*
X142157000Y-55670000D02*
X142157000Y-50717000D01*
X142157000Y-50717000D02*
X146602000Y-50717000D01*
X146602000Y-50717000D02*
X146602000Y-55670000D01*
D15*
X162501500Y-99648280D02*
X162501500Y-99399360D01*
X162501500Y-99399360D02*
X163847700Y-99399360D01*
X163847700Y-99648280D02*
X163847700Y-99399360D01*
X162501500Y-99648280D02*
X163847700Y-99648280D01*
X162501500Y-94400640D02*
X162501500Y-94151720D01*
X162501500Y-94151720D02*
X163847700Y-94151720D01*
X163847700Y-94400640D02*
X163847700Y-94151720D01*
X162501500Y-94400640D02*
X163847700Y-94400640D01*
X162150980Y-98299540D02*
X162150980Y-97999820D01*
X162150980Y-97999820D02*
X164249020Y-97999820D01*
X164249020Y-98299540D02*
X164249020Y-97999820D01*
X162150980Y-98299540D02*
X164249020Y-98299540D01*
D22*
X164299820Y-99297760D02*
X164299820Y-94502240D01*
X164299820Y-94502240D02*
X162100180Y-94502240D01*
X162100180Y-94502240D02*
X162100180Y-99297760D01*
X162100180Y-99297760D02*
X164299820Y-99297760D01*
X163200000Y-98098880D02*
X163898500Y-96851740D01*
X163898500Y-96851740D02*
X162501500Y-96851740D01*
X162501500Y-96851740D02*
X163200000Y-98098880D01*
D18*
X90008000Y-40514000D02*
X89804800Y-40514000D01*
X88484000Y-42419000D02*
X93056000Y-42419000D01*
X93056000Y-42419000D02*
X93056000Y-41784000D01*
X91430400Y-38609000D02*
X91430400Y-42419000D01*
X91760600Y-38609000D02*
X91760600Y-42419000D01*
X88484000Y-39244000D02*
X88484000Y-38609000D01*
X88484000Y-38609000D02*
X93056000Y-38609000D01*
X93056000Y-38609000D02*
X93056000Y-39244000D01*
X88484000Y-41784000D02*
X88484000Y-42419000D01*
X90643000Y-40514000D02*
X90008000Y-40988980D01*
X90008000Y-40988980D02*
X90008000Y-40514000D01*
X90008000Y-40514000D02*
X90008000Y-40039020D01*
X90008000Y-40039020D02*
X90643000Y-40514000D01*
X90643000Y-40514000D02*
X90643000Y-40831500D01*
X90643000Y-40831500D02*
X90485520Y-40988980D01*
X90643000Y-40514000D02*
X90643000Y-40196500D01*
X90643000Y-40196500D02*
X90800480Y-40039020D01*
X90643000Y-40514000D02*
X91752980Y-40514000D01*
X83404000Y-40641000D02*
X83200800Y-40641000D01*
X81880000Y-42546000D02*
X86452000Y-42546000D01*
X86452000Y-42546000D02*
X86452000Y-41911000D01*
X84826400Y-38736000D02*
X84826400Y-42546000D01*
X85156600Y-38736000D02*
X85156600Y-42546000D01*
X81880000Y-39371000D02*
X81880000Y-38736000D01*
X81880000Y-38736000D02*
X86452000Y-38736000D01*
X86452000Y-38736000D02*
X86452000Y-39371000D01*
X81880000Y-41911000D02*
X81880000Y-42546000D01*
X84039000Y-40641000D02*
X83404000Y-41115980D01*
X83404000Y-41115980D02*
X83404000Y-40641000D01*
X83404000Y-40641000D02*
X83404000Y-40166020D01*
X83404000Y-40166020D02*
X84039000Y-40641000D01*
X84039000Y-40641000D02*
X84039000Y-40958500D01*
X84039000Y-40958500D02*
X83881520Y-41115980D01*
X84039000Y-40641000D02*
X84039000Y-40323500D01*
X84039000Y-40323500D02*
X84196480Y-40166020D01*
X84039000Y-40641000D02*
X85148980Y-40641000D01*
X76546000Y-39879000D02*
X76342800Y-39879000D01*
X75022000Y-41784000D02*
X79594000Y-41784000D01*
X79594000Y-41784000D02*
X79594000Y-41149000D01*
X77968400Y-37974000D02*
X77968400Y-41784000D01*
X78298600Y-37974000D02*
X78298600Y-41784000D01*
X75022000Y-38609000D02*
X75022000Y-37974000D01*
X75022000Y-37974000D02*
X79594000Y-37974000D01*
X79594000Y-37974000D02*
X79594000Y-38609000D01*
X75022000Y-41149000D02*
X75022000Y-41784000D01*
X77181000Y-39879000D02*
X76546000Y-40353980D01*
X76546000Y-40353980D02*
X76546000Y-39879000D01*
X76546000Y-39879000D02*
X76546000Y-39404020D01*
X76546000Y-39404020D02*
X77181000Y-39879000D01*
X77181000Y-39879000D02*
X77181000Y-40196500D01*
X77181000Y-40196500D02*
X77023520Y-40353980D01*
X77181000Y-39879000D02*
X77181000Y-39561500D01*
X77181000Y-39561500D02*
X77338480Y-39404020D01*
X77181000Y-39879000D02*
X78290980Y-39879000D01*
D21*
X170505680Y-91049840D02*
X170505680Y-91151440D01*
X170505680Y-89149920D02*
X170505680Y-89048320D01*
X170421860Y-91049840D02*
X170421860Y-91151440D01*
X170421860Y-89149920D02*
X170421860Y-89048320D01*
X170338040Y-91049840D02*
X170338040Y-91151440D01*
X170338040Y-89149920D02*
X170338040Y-89048320D01*
X170256760Y-91049840D02*
X170256760Y-91151440D01*
X170256760Y-89149920D02*
X170256760Y-89048320D01*
X170172940Y-91049840D02*
X170172940Y-91151440D01*
X170172940Y-89149920D02*
X170172940Y-89048320D01*
X170089120Y-91049840D02*
X170089120Y-91151440D01*
X170089120Y-89149920D02*
X170089120Y-89048320D01*
X170005300Y-91049840D02*
X170005300Y-91151440D01*
X170005300Y-89149920D02*
X170005300Y-89048320D01*
X170505680Y-89149920D02*
X170505680Y-89048320D01*
X170505680Y-89048320D02*
X169880840Y-89048320D01*
X170505680Y-91049840D02*
X170505680Y-91151440D01*
X170505680Y-91151440D02*
X169880840Y-91151440D01*
X174381720Y-91049840D02*
X169880840Y-91049840D01*
X169880840Y-91049840D02*
X169880840Y-89149920D01*
X169880840Y-89149920D02*
X174381720Y-89149920D01*
X174381720Y-89149920D02*
X174381720Y-91049840D01*
D23*
X85723590Y-45437020D02*
G75*
G03X85723590Y-45437020I-159070J0D01*
G01*
X83118500Y-44578500D02*
X83118500Y-45594500D01*
X85722000Y-44578500D02*
X85722000Y-45594500D01*
X83118500Y-45594500D02*
X85722000Y-45594500D01*
X85722000Y-44578500D02*
X83118500Y-44578500D01*
X79498050Y-51596520D02*
G75*
G03X79498050Y-51596520I-159070J0D01*
G01*
X80197500Y-49150500D02*
X79181500Y-49150500D01*
X80197500Y-51754000D02*
X79181500Y-51754000D01*
X79181500Y-49150500D02*
X79181500Y-51754000D01*
X80197500Y-51754000D02*
X80197500Y-49150500D01*
X73150590Y-54073020D02*
G75*
G03X73150590Y-54073020I-159070J0D01*
G01*
X70545500Y-53214500D02*
X70545500Y-54230500D01*
X73149000Y-53214500D02*
X73149000Y-54230500D01*
X70545500Y-54230500D02*
X73149000Y-54230500D01*
X73149000Y-53214500D02*
X70545500Y-53214500D01*
X73404590Y-46961020D02*
G75*
G03X73404590Y-46961020I-159070J0D01*
G01*
X70799500Y-46102500D02*
X70799500Y-47118500D01*
X73403000Y-46102500D02*
X73403000Y-47118500D01*
X70799500Y-47118500D02*
X73403000Y-47118500D01*
X73403000Y-46102500D02*
X70799500Y-46102500D01*
D10*
X56964500Y-51961400D02*
X56964500Y-50961400D01*
X55614500Y-50961400D02*
X55614500Y-51961400D01*
X63933000Y-50936000D02*
X63933000Y-51936000D01*
X65283000Y-51936000D02*
X65283000Y-50936000D01*
X90190500Y-43570500D02*
X90190500Y-44570500D01*
X91540500Y-44570500D02*
X91540500Y-43570500D01*
X79094000Y-43475000D02*
X80094000Y-43475000D01*
X80094000Y-42125000D02*
X79094000Y-42125000D01*
X88412500Y-43824500D02*
X88412500Y-44824500D01*
X89762500Y-44824500D02*
X89762500Y-43824500D01*
X96477000Y-41617000D02*
X95477000Y-41617000D01*
X95477000Y-42967000D02*
X96477000Y-42967000D01*
X77062500Y-55238500D02*
X77062500Y-54238500D01*
X75712500Y-54238500D02*
X75712500Y-55238500D01*
X93286500Y-46269500D02*
X94286500Y-46269500D01*
X94286500Y-44919500D02*
X93286500Y-44919500D01*
X76554500Y-51682500D02*
X76554500Y-50682500D01*
X75204500Y-50682500D02*
X75204500Y-51682500D01*
X90984500Y-48856500D02*
X89984500Y-48856500D01*
X89984500Y-50206500D02*
X90984500Y-50206500D01*
X85777500Y-50253500D02*
X84777500Y-50253500D01*
X84777500Y-51603500D02*
X85777500Y-51603500D01*
X88063500Y-47713500D02*
X87063500Y-47713500D01*
X87063500Y-49063500D02*
X88063500Y-49063500D01*
X85698500Y-49142500D02*
X85698500Y-48142500D01*
X84348500Y-48142500D02*
X84348500Y-49142500D01*
X142546000Y-40395000D02*
X142546000Y-41395000D01*
X143896000Y-41395000D02*
X143896000Y-40395000D01*
X140165000Y-43268000D02*
X139165000Y-43268000D01*
X139165000Y-44618000D02*
X140165000Y-44618000D01*
X137847000Y-40395000D02*
X137847000Y-41395000D01*
X139197000Y-41395000D02*
X139197000Y-40395000D01*
X132513000Y-40395000D02*
X132513000Y-41395000D01*
X133863000Y-41395000D02*
X133863000Y-40395000D01*
X115498800Y-41877600D02*
X115498800Y-40877600D01*
X114148800Y-40877600D02*
X114148800Y-41877600D01*
X108183600Y-41877600D02*
X108183600Y-40877600D01*
X106833600Y-40877600D02*
X106833600Y-41877600D01*
X103383000Y-41877600D02*
X103383000Y-40877600D01*
X102033000Y-40877600D02*
X102033000Y-41877600D01*
X69711500Y-86470600D02*
X69711500Y-87470600D01*
X71061500Y-87470600D02*
X71061500Y-86470600D01*
X161342000Y-66049000D02*
X161342000Y-67049000D01*
X162692000Y-67049000D02*
X162692000Y-66049000D01*
X133656000Y-64906000D02*
X133656000Y-65906000D01*
X135006000Y-65906000D02*
X135006000Y-64906000D01*
X87889000Y-66109200D02*
X87889000Y-65109200D01*
X86539000Y-65109200D02*
X86539000Y-66109200D01*
X112146000Y-72891000D02*
X112146000Y-71891000D01*
X110796000Y-71891000D02*
X110796000Y-72891000D01*
X81412000Y-66820400D02*
X81412000Y-65820400D01*
X80062000Y-65820400D02*
X80062000Y-66820400D01*
X140435000Y-66398500D02*
X141435000Y-66398500D01*
X141435000Y-65048500D02*
X140435000Y-65048500D01*
X149865000Y-54730000D02*
X149865000Y-53730000D01*
X148515000Y-53730000D02*
X148515000Y-54730000D01*
X156310000Y-55540000D02*
X157310000Y-55540000D01*
X157310000Y-54190000D02*
X156310000Y-54190000D01*
X106227800Y-62807200D02*
X106227800Y-61807200D01*
X104877800Y-61807200D02*
X104877800Y-62807200D01*
X109000000Y-69850000D02*
X108000000Y-69850000D01*
X108000000Y-71200000D02*
X109000000Y-71200000D01*
X131224200Y-60705100D02*
X130224200Y-60705100D01*
X130224200Y-62055100D02*
X131224200Y-62055100D01*
X137292000Y-56762000D02*
X137292000Y-55762000D01*
X135942000Y-55762000D02*
X135942000Y-56762000D01*
X137847000Y-54238000D02*
X137847000Y-55238000D01*
X139197000Y-55238000D02*
X139197000Y-54238000D01*
X137292000Y-59810000D02*
X137292000Y-58810000D01*
X135942000Y-58810000D02*
X135942000Y-59810000D01*
X123064200Y-93633400D02*
X123064200Y-94633400D01*
X124414200Y-94633400D02*
X124414200Y-93633400D01*
X137440600Y-93658800D02*
X137440600Y-94658800D01*
X138790600Y-94658800D02*
X138790600Y-93658800D01*
X87850000Y-95075000D02*
X88850000Y-95075000D01*
X88850000Y-93725000D02*
X87850000Y-93725000D01*
X78425000Y-88075000D02*
X77425000Y-88075000D01*
X77425000Y-89425000D02*
X78425000Y-89425000D01*
X81200000Y-78400000D02*
X80200000Y-78400000D01*
X80200000Y-79750000D02*
X81200000Y-79750000D01*
X116911300Y-43052100D02*
X115911300Y-43052100D01*
X115911300Y-44402100D02*
X116911300Y-44402100D01*
X109050000Y-95075000D02*
X110050000Y-95075000D01*
X110050000Y-93725000D02*
X109050000Y-93725000D01*
X99300000Y-88025000D02*
X98300000Y-88025000D01*
X98300000Y-89375000D02*
X99300000Y-89375000D01*
X130868600Y-86511500D02*
X129868600Y-86511500D01*
X129868600Y-87861500D02*
X130868600Y-87861500D01*
X130881300Y-88403800D02*
X129881300Y-88403800D01*
X129881300Y-89753800D02*
X130881300Y-89753800D01*
X130868600Y-84619200D02*
X129868600Y-84619200D01*
X129868600Y-85969200D02*
X130868600Y-85969200D01*
X70283500Y-48983500D02*
X69283500Y-48983500D01*
X69283500Y-50333500D02*
X70283500Y-50333500D01*
X66314500Y-49666500D02*
X66314500Y-50666500D01*
X67664500Y-50666500D02*
X67664500Y-49666500D01*
X70635000Y-42180000D02*
X70635000Y-43180000D01*
X71985000Y-43180000D02*
X71985000Y-42180000D01*
X66314500Y-52714500D02*
X66314500Y-53714500D01*
X67664500Y-53714500D02*
X67664500Y-52714500D01*
X64028500Y-43316500D02*
X64028500Y-44316500D01*
X65378500Y-44316500D02*
X65378500Y-43316500D01*
X66568500Y-45729500D02*
X66568500Y-46729500D01*
X67918500Y-46729500D02*
X67918500Y-45729500D01*
X67442000Y-42284000D02*
X67442000Y-41284000D01*
X66092000Y-41284000D02*
X66092000Y-42284000D01*
X64663500Y-46618500D02*
X64663500Y-47618500D01*
X66013500Y-47618500D02*
X66013500Y-46618500D01*
X68426500Y-93846500D02*
X68426500Y-92846500D01*
X67076500Y-92846500D02*
X67076500Y-93846500D01*
X66140500Y-93846500D02*
X66140500Y-92846500D01*
X64790500Y-92846500D02*
X64790500Y-93846500D01*
X63886000Y-93846000D02*
X63886000Y-92846000D01*
X62536000Y-92846000D02*
X62536000Y-93846000D01*
X61473000Y-93846000D02*
X61473000Y-92846000D01*
X60123000Y-92846000D02*
X60123000Y-93846000D01*
X80531900Y-73516600D02*
X80531900Y-74516600D01*
X81881900Y-74516600D02*
X81881900Y-73516600D01*
X57250000Y-99863000D02*
X58250000Y-99863000D01*
X58250000Y-98513000D02*
X57250000Y-98513000D01*
X140435000Y-64493500D02*
X141435000Y-64493500D01*
X141435000Y-63143500D02*
X140435000Y-63143500D01*
X87936000Y-81339800D02*
X87936000Y-82339800D01*
X89286000Y-82339800D02*
X89286000Y-81339800D01*
X57250000Y-98085000D02*
X58250000Y-98085000D01*
X58250000Y-96735000D02*
X57250000Y-96735000D01*
X139625000Y-93671500D02*
X139625000Y-94671500D01*
X140975000Y-94671500D02*
X140975000Y-93671500D01*
X130815000Y-94608000D02*
X130815000Y-93608000D01*
X129465000Y-93608000D02*
X129465000Y-94608000D01*
D21*
X96761860Y-63213980D02*
G75*
G02X96208140Y-63213980I-276860J0D01*
G01*
X96756780Y-63213980D02*
X98128380Y-63213980D01*
X98128380Y-63213980D02*
X98128380Y-68111100D01*
X98128380Y-68111100D02*
X94836540Y-68111100D01*
X94836540Y-68111100D02*
X94836540Y-63213980D01*
X94836540Y-63213980D02*
X96208140Y-63213980D01*
X110731860Y-64483980D02*
G75*
G02X110178140Y-64483980I-276860J0D01*
G01*
X110726780Y-64483980D02*
X112098380Y-64483980D01*
X112098380Y-64483980D02*
X112098380Y-69381100D01*
X112098380Y-69381100D02*
X108806540Y-69381100D01*
X108806540Y-69381100D02*
X108806540Y-64483980D01*
X108806540Y-64483980D02*
X110178140Y-64483980D01*
D17*
X108051000Y-91856000D02*
X111099000Y-91856000D01*
X111099000Y-91856000D02*
X111099000Y-91094000D01*
X111099000Y-91094000D02*
X108051000Y-91094000D01*
X108051000Y-91094000D02*
X108051000Y-91856000D01*
X100424000Y-91094000D02*
X97376000Y-91094000D01*
X97376000Y-91094000D02*
X97376000Y-91856000D01*
X97376000Y-91856000D02*
X100424000Y-91856000D01*
X100424000Y-91856000D02*
X100424000Y-91094000D01*
D10*
X65056220Y-105464860D02*
X64695540Y-106935520D01*
X64695540Y-106935520D02*
X64416140Y-105873800D01*
X64416140Y-105873800D02*
X64106260Y-106945680D01*
X64106260Y-106945680D02*
X63765900Y-105495340D01*
X66476080Y-106155740D02*
X65686140Y-106145580D01*
X65686140Y-106145580D02*
X65675980Y-106155740D01*
X65675980Y-106155740D02*
X65675980Y-106145580D01*
X65635340Y-105434380D02*
X65635340Y-106976160D01*
X66524340Y-105424220D02*
X66524340Y-106993940D01*
X66524340Y-106993940D02*
X66514180Y-106983780D01*
X67075520Y-105525820D02*
X67426040Y-105444540D01*
X67426040Y-105444540D02*
X67746080Y-105434380D01*
X67746080Y-105434380D02*
X67984840Y-105635040D01*
X67984840Y-105635040D02*
X68015320Y-105904280D01*
X68015320Y-105904280D02*
X67774020Y-106145580D01*
X67774020Y-106145580D02*
X67385400Y-106275120D01*
X67385400Y-106275120D02*
X67205060Y-106435140D01*
X67205060Y-106435140D02*
X67164420Y-106734860D01*
X67164420Y-106734860D02*
X67395560Y-106955840D01*
X67395560Y-106955840D02*
X67715600Y-106983780D01*
X67715600Y-106983780D02*
X68066120Y-106874560D01*
X69104980Y-105424220D02*
X69353900Y-105444540D01*
X69353900Y-105444540D02*
X69595200Y-105685840D01*
X69595200Y-105685840D02*
X69684100Y-106176060D01*
X69684100Y-106176060D02*
X69656160Y-106524040D01*
X69656160Y-106524040D02*
X69455500Y-106844080D01*
X69455500Y-106844080D02*
X69204040Y-106966000D01*
X69204040Y-106966000D02*
X68894160Y-106894880D01*
X68894160Y-106894880D02*
X68675720Y-106714540D01*
X68675720Y-106714540D02*
X68604600Y-106254800D01*
X68604600Y-106254800D02*
X68655400Y-105845860D01*
X68655400Y-105845860D02*
X68764620Y-105563920D01*
X68764620Y-105563920D02*
X69125300Y-105434380D01*
X68505540Y-103704640D02*
X68764620Y-104265980D01*
X68764620Y-104265980D02*
X68226140Y-104784140D01*
X68226140Y-104784140D02*
X67705440Y-104514900D01*
X67705440Y-104514900D02*
X67426040Y-104674920D01*
X65985860Y-104654600D02*
X65655660Y-104464100D01*
X65655660Y-104464100D02*
X65216240Y-104794300D01*
X65216240Y-104794300D02*
X64743800Y-104304080D01*
X64743800Y-104304080D02*
X65025740Y-103824020D01*
X65025740Y-103824020D02*
X64835240Y-103354120D01*
X64835240Y-103354120D02*
X64225640Y-103166160D01*
X64225640Y-103166160D02*
X64225640Y-102485440D01*
X64225640Y-102485440D02*
X64784440Y-102345740D01*
X64784440Y-102345740D02*
X64985100Y-101774240D01*
X64985100Y-101774240D02*
X64715860Y-101304340D01*
X64715860Y-101304340D02*
X65185760Y-100793800D01*
X65185760Y-100793800D02*
X65703920Y-101055420D01*
X65703920Y-101055420D02*
X66173820Y-100854760D01*
X66173820Y-100854760D02*
X66344000Y-100313740D01*
X66344000Y-100313740D02*
X67034880Y-100295960D01*
X67034880Y-100295960D02*
X67245700Y-100844600D01*
X67245700Y-100844600D02*
X67664800Y-101014780D01*
X67664800Y-101014780D02*
X68215980Y-100745540D01*
X68215980Y-100745540D02*
X68734140Y-101273860D01*
X68734140Y-101273860D02*
X68485220Y-101814880D01*
X68485220Y-101814880D02*
X68655400Y-102294940D01*
X68655400Y-102294940D02*
X69204040Y-102394000D01*
X69204040Y-102394000D02*
X69214200Y-103095040D01*
X69214200Y-103095040D02*
X68655400Y-103295700D01*
X68655400Y-103295700D02*
X68515700Y-103694480D01*
X66374480Y-103674160D02*
X66074760Y-103524300D01*
X66074760Y-103524300D02*
X65874100Y-103326180D01*
X65874100Y-103326180D02*
X65724240Y-102924860D01*
X65724240Y-102924860D02*
X65724240Y-102526080D01*
X65724240Y-102526080D02*
X65874100Y-102175560D01*
X65874100Y-102175560D02*
X66326220Y-101825040D01*
X66326220Y-101825040D02*
X66775800Y-101774240D01*
X66775800Y-101774240D02*
X67174580Y-101875840D01*
X67174580Y-101875840D02*
X67575900Y-102223820D01*
X67575900Y-102223820D02*
X67725760Y-102675940D01*
X67725760Y-102675940D02*
X67674960Y-103173780D01*
X67674960Y-103173780D02*
X67426040Y-103476040D01*
X67426040Y-103476040D02*
X67075520Y-103674160D01*
X67075520Y-103674160D02*
X67426040Y-104674920D01*
X66374480Y-103674160D02*
X65975700Y-104674920D01*
D24*
X126221143Y-43311024D02*
X126946857Y-43311024D01*
X126584000Y-43311024D02*
X126584000Y-42041024D01*
X126704952Y-42222452D01*
X126825905Y-42343405D01*
X126946857Y-42403881D01*
X105849524Y-48587857D02*
X105849524Y-47862143D01*
X105849524Y-48225000D02*
X104579524Y-48225000D01*
X104760952Y-48104048D01*
X104881905Y-47983095D01*
X104942381Y-47862143D01*
%LPC*%
D25*
X48447500Y-43943500D03*
X48447500Y-69343500D03*
D26*
X50987500Y-51182500D03*
D27*
X50987500Y-53976500D03*
X50987500Y-56770500D03*
X50987500Y-59437500D03*
X50987500Y-62231500D03*
X48447500Y-60834500D03*
X48447500Y-58040500D03*
X48447500Y-55373500D03*
X48447500Y-52579500D03*
D28*
X113122000Y-99696000D03*
X113122000Y-94616000D03*
X113122000Y-89536000D03*
D29*
X105502000Y-99816000D03*
D28*
X105502000Y-94616000D03*
X105502000Y-89536000D03*
D30*
X113122000Y-81916000D03*
D31*
X105502000Y-81916000D03*
D29*
X105502000Y-92116000D03*
D32*
X128278180Y-42736500D03*
X128278180Y-44006500D03*
X128278180Y-45276500D03*
X128278180Y-46546500D03*
X128278180Y-47816500D03*
X128278180Y-49086500D03*
X128278180Y-50356500D03*
X128278180Y-51626500D03*
X121079820Y-51626500D03*
X121079820Y-50356500D03*
X121079820Y-49086500D03*
X121079820Y-47816500D03*
X121079820Y-46546500D03*
X121079820Y-45276500D03*
X121079820Y-44006500D03*
X121079820Y-42736500D03*
D33*
X105375000Y-46617620D03*
X106645000Y-46617620D03*
X107915000Y-46617620D03*
X109185000Y-46617620D03*
X110455000Y-46617620D03*
X111725000Y-46617620D03*
X112995000Y-46617620D03*
X114265000Y-46617620D03*
X114265000Y-53815980D03*
X112995000Y-53815980D03*
X111725000Y-53815980D03*
X110455000Y-53815980D03*
X109185000Y-53815980D03*
X107915000Y-53815980D03*
X106645000Y-53815980D03*
X105375000Y-53815980D03*
D34*
X45215100Y-90107500D03*
X45215100Y-78677500D03*
D27*
X51565100Y-79947500D03*
X54105100Y-80582500D03*
X51565100Y-82487500D03*
X54105100Y-83122500D03*
X51565100Y-85027500D03*
X54105100Y-85662500D03*
X51565100Y-87567500D03*
D35*
X48263100Y-92139500D03*
X48263100Y-76645500D03*
D27*
X58931100Y-81471500D03*
X58931100Y-87313500D03*
X58931100Y-78931500D03*
X58931100Y-89853500D03*
D26*
X54105100Y-88202500D03*
D28*
X81118000Y-99696000D03*
X81118000Y-94616000D03*
X81118000Y-89536000D03*
D29*
X73498000Y-99816000D03*
D28*
X73498000Y-94616000D03*
X73498000Y-89536000D03*
D30*
X81118000Y-81916000D03*
D31*
X73498000Y-81916000D03*
D29*
X73498000Y-92116000D03*
D28*
X102454000Y-99696000D03*
X102454000Y-94616000D03*
X102454000Y-89536000D03*
D29*
X94834000Y-99816000D03*
D28*
X94834000Y-94616000D03*
X94834000Y-89536000D03*
D30*
X102454000Y-81916000D03*
D31*
X94834000Y-81916000D03*
D29*
X94834000Y-92116000D03*
D28*
X91786000Y-99696000D03*
X91786000Y-94616000D03*
X91786000Y-89536000D03*
D29*
X84166000Y-99816000D03*
D28*
X84166000Y-94616000D03*
X84166000Y-89536000D03*
D30*
X91786000Y-81916000D03*
D31*
X84166000Y-81916000D03*
D29*
X84166000Y-92116000D03*
D36*
X87436000Y-92491000D03*
X89214000Y-92491000D03*
X88325000Y-90459000D03*
X78764000Y-90509000D03*
X76986000Y-90509000D03*
X77875000Y-92541000D03*
D37*
X143570500Y-36196500D03*
D35*
X138490500Y-36196500D03*
X133410500Y-36196500D03*
D38*
X68527000Y-75290000D03*
X65733000Y-75290000D03*
D39*
X66200000Y-78348160D03*
X66200000Y-79851840D03*
X64430000Y-78218160D03*
X64430000Y-79721840D03*
X74220000Y-73688160D03*
X74220000Y-75191840D03*
X70196000Y-72634840D03*
X70196000Y-71131160D03*
D40*
X73773160Y-80025000D03*
X75276840Y-80025000D03*
D39*
X76675000Y-79173160D03*
X76675000Y-80676840D03*
X72160000Y-73648160D03*
X72160000Y-75151840D03*
X56353000Y-88301560D03*
X56353000Y-89805240D03*
X56429200Y-85944440D03*
X56429200Y-84440760D03*
D40*
X49078440Y-85141800D03*
X47574760Y-85141800D03*
D39*
X55075000Y-92351840D03*
X55075000Y-90848160D03*
X82240680Y-77892640D03*
X82240680Y-76388960D03*
D41*
X161737600Y-76455000D03*
X161737600Y-73661000D03*
D40*
X99599040Y-53696600D03*
X98095360Y-53696600D03*
D39*
X96612000Y-48398160D03*
X96612000Y-49901840D03*
D41*
X146475000Y-47897000D03*
X146475000Y-45103000D03*
D39*
X68245280Y-58992500D03*
X68245280Y-57488820D03*
X58575500Y-44923440D03*
X58575500Y-43419760D03*
D41*
X173669500Y-76709500D03*
X173669500Y-79503500D03*
D39*
X170875500Y-77354660D03*
X170875500Y-78858340D03*
D40*
X77043840Y-42800000D03*
X75540160Y-42800000D03*
D39*
X98771000Y-40778160D03*
X98771000Y-42281840D03*
X74736500Y-55617340D03*
X74736500Y-54113660D03*
X74101500Y-51934340D03*
X74101500Y-50430660D03*
D40*
X95352160Y-39879000D03*
X96855840Y-39879000D03*
D39*
X94834000Y-72888840D03*
X94834000Y-71385160D03*
X73085500Y-104766340D03*
X73085500Y-103262660D03*
D40*
X123754440Y-55284100D03*
X122250760Y-55284100D03*
D39*
X116551000Y-55891160D03*
X116551000Y-57394840D03*
X108296000Y-61479160D03*
X108296000Y-62982840D03*
X70945300Y-68824840D03*
X70945300Y-67321160D03*
D40*
X102591160Y-53737240D03*
X101087480Y-53737240D03*
X99268840Y-75032600D03*
X97765160Y-75032600D03*
X87173360Y-67692000D03*
X88677040Y-67692000D03*
X109423760Y-79426800D03*
X110927440Y-79426800D03*
X100787760Y-75007200D03*
X102291440Y-75007200D03*
D39*
X116011500Y-81398340D03*
X116011500Y-79894660D03*
D40*
X126276660Y-63386700D03*
X127780340Y-63386700D03*
X113969340Y-79376500D03*
X112465660Y-79376500D03*
X115316560Y-77242400D03*
X116820240Y-77242400D03*
D39*
X137887000Y-67702160D03*
X137887000Y-69205840D03*
X94072000Y-48398160D03*
X94072000Y-49901840D03*
D40*
X153116840Y-54865000D03*
X151613160Y-54865000D03*
X141717320Y-67681840D03*
X140213640Y-67681840D03*
X160122160Y-54865000D03*
X161625840Y-54865000D03*
D39*
X140900000Y-51248160D03*
X140900000Y-52751840D03*
X147600000Y-51348160D03*
X147600000Y-52851840D03*
X160645400Y-51565540D03*
X160645400Y-50061860D03*
X86406280Y-82637360D03*
X86406280Y-81133680D03*
X124044000Y-58939160D03*
X124044000Y-60442840D03*
D40*
X124318320Y-67531980D03*
X122814640Y-67531980D03*
X125598480Y-65017380D03*
X124094800Y-65017380D03*
X127780340Y-61380100D03*
X126276660Y-61380100D03*
X72217840Y-40641000D03*
X70714160Y-40641000D03*
X72217840Y-39117000D03*
X70714160Y-39117000D03*
X99051840Y-85200000D03*
X97548160Y-85200000D03*
D39*
X52162000Y-106289840D03*
X52162000Y-104786160D03*
X56251400Y-106315240D03*
X56251400Y-104811560D03*
D40*
X56998160Y-100966000D03*
X58501840Y-100966000D03*
D39*
X76114200Y-82586560D03*
X76114200Y-84090240D03*
X144000000Y-47351840D03*
X144000000Y-45848160D03*
D40*
X120777560Y-81331800D03*
X122281240Y-81331800D03*
X171298160Y-85345000D03*
X172801840Y-85345000D03*
D42*
X150625000Y-106600000D03*
X157825000Y-106600000D03*
D43*
X153175500Y-95650000D03*
X157874500Y-95650000D03*
D44*
X91150740Y-87125000D03*
X94549260Y-87125000D03*
X81200740Y-87075000D03*
X84599260Y-87075000D03*
X111775740Y-87175000D03*
X115174260Y-87175000D03*
X102100740Y-87125000D03*
X105499260Y-87125000D03*
D45*
X71307500Y-57024500D03*
X72831500Y-57024500D03*
X55565600Y-58065400D03*
X54041600Y-58065400D03*
D46*
X121859600Y-65685400D03*
X121859600Y-64161400D03*
X75625500Y-103252500D03*
X75625500Y-104776500D03*
D47*
X131537000Y-66295000D03*
X130267000Y-66295000D03*
X131537000Y-68327000D03*
X130267000Y-68327000D03*
D37*
X158810500Y-36196500D03*
D35*
X153730500Y-36196500D03*
X148650500Y-36196500D03*
D37*
X72450500Y-36196500D03*
D35*
X67370500Y-36196500D03*
X62290500Y-36196500D03*
D37*
X128330500Y-36196500D03*
D35*
X123250500Y-36196500D03*
X118170500Y-36196500D03*
D37*
X113090500Y-36196500D03*
D35*
X108010500Y-36196500D03*
X102930500Y-36196500D03*
D37*
X82642000Y-112396000D03*
D35*
X87722000Y-112396000D03*
X92802000Y-112396000D03*
D37*
X72482000Y-112396000D03*
D35*
X77562000Y-112396000D03*
D37*
X108042000Y-112396000D03*
D35*
X113122000Y-112396000D03*
X118202000Y-112396000D03*
D37*
X138490500Y-112396500D03*
D35*
X143570500Y-112396500D03*
X148650500Y-112396500D03*
D37*
X97882000Y-112396000D03*
D35*
X102962000Y-112396000D03*
D37*
X123250500Y-112396500D03*
D35*
X128330500Y-112396500D03*
X133410500Y-112396500D03*
D37*
X97850500Y-36196500D03*
D35*
X92770500Y-36196500D03*
X87690500Y-36196500D03*
D37*
X82610500Y-36196500D03*
D35*
X77530500Y-36196500D03*
D37*
X153730500Y-112396500D03*
D35*
X158810500Y-112396500D03*
D37*
X62290500Y-112396500D03*
D35*
X67370500Y-112396500D03*
D48*
X87055500Y-46483500D03*
X87055500Y-45213500D03*
X87055500Y-43943500D03*
D47*
X90611500Y-47499500D03*
X91881500Y-47499500D03*
D48*
X82991500Y-48769500D03*
X82991500Y-50039500D03*
X82991500Y-51309500D03*
X73244000Y-42419000D03*
X73244000Y-43689000D03*
X69021500Y-53976500D03*
X69021500Y-52706500D03*
X69021500Y-51436500D03*
X69307000Y-42419000D03*
X69307000Y-43689000D03*
X69402500Y-48007500D03*
X69402500Y-46737500D03*
X69402500Y-45467500D03*
D46*
X68100000Y-79900000D03*
X68100000Y-81424000D03*
D49*
X134902500Y-82335100D03*
D50*
X134902500Y-79795100D03*
X137442500Y-82335100D03*
X137442500Y-79795100D03*
X139982500Y-82335100D03*
X139982500Y-79795100D03*
X142522500Y-82335100D03*
X142522500Y-79795100D03*
X145062500Y-82335100D03*
X145062500Y-79795100D03*
X147602500Y-82335100D03*
X147602500Y-79795100D03*
D49*
X76800000Y-63755000D03*
D50*
X74260000Y-63755000D03*
X71720000Y-63755000D03*
X69180000Y-63755000D03*
X66640000Y-63755000D03*
X64100000Y-63755000D03*
D26*
X137556800Y-89497900D03*
D27*
X137556800Y-86957900D03*
X140096800Y-89497900D03*
X140096800Y-86957900D03*
X142636800Y-89497900D03*
X142636800Y-86957900D03*
X145176800Y-89497900D03*
X145176800Y-86957900D03*
D49*
X90262000Y-75439000D03*
D50*
X90262000Y-77979000D03*
X87722000Y-75439000D03*
X87722000Y-77979000D03*
X85182000Y-75439000D03*
X85182000Y-77979000D03*
D51*
X158029200Y-39150600D03*
X158029200Y-43350600D03*
X154066800Y-39201400D03*
X154066800Y-43401400D03*
D46*
X82642000Y-72010000D03*
X82642000Y-70486000D03*
D45*
X80203600Y-70473300D03*
X78679600Y-70473300D03*
X84699400Y-63348600D03*
X83175400Y-63348600D03*
D46*
X73383700Y-67209400D03*
X73383700Y-68733400D03*
X61356800Y-88380300D03*
X61356800Y-89904300D03*
X62150000Y-78228000D03*
X62150000Y-79752000D03*
X99202800Y-62358000D03*
X99202800Y-60834000D03*
D45*
X110569300Y-61773800D03*
X112093300Y-61773800D03*
X48628000Y-94790000D03*
X50152000Y-94790000D03*
D46*
X71796200Y-84989400D03*
X71796200Y-83465400D03*
X158791200Y-45721000D03*
X158791200Y-47245000D03*
X160696200Y-47295800D03*
X160696200Y-45771800D03*
X156581400Y-47245000D03*
X156581400Y-45721000D03*
X152517400Y-45721000D03*
X152517400Y-47245000D03*
X154524000Y-47245000D03*
X154524000Y-45721000D03*
D52*
X148097800Y-43370400D03*
X148097800Y-38470400D03*
D53*
X145126000Y-39318000D03*
X145126000Y-42218000D03*
X141062000Y-39318000D03*
X141062000Y-42218000D03*
X135728000Y-38810000D03*
X135728000Y-41710000D03*
D54*
X127674000Y-38990000D03*
X130574000Y-38990000D03*
D53*
X117694000Y-39064000D03*
X117694000Y-41964000D03*
X113122000Y-39318000D03*
X113122000Y-42218000D03*
X109820000Y-39064000D03*
X109820000Y-41964000D03*
X104994000Y-39064000D03*
X104994000Y-41964000D03*
D55*
X151935500Y-101474500D03*
X159335500Y-101525300D03*
D52*
X122901000Y-108546000D03*
X122901000Y-103546000D03*
D56*
X164800840Y-59045840D03*
X163200840Y-59045840D03*
X163200840Y-58195840D03*
X164800840Y-58195840D03*
D57*
X170875500Y-94159300D03*
X172577300Y-94159300D03*
X174279100Y-94159300D03*
X169173700Y-94159300D03*
X167471900Y-94159300D03*
D58*
X170875500Y-104840000D03*
D59*
X170875500Y-107380000D03*
D33*
X63007800Y-57158620D03*
X61737800Y-57158620D03*
X60467800Y-57158620D03*
X59197800Y-57158620D03*
X59197800Y-51961780D03*
X60467800Y-51961780D03*
X61737800Y-51961780D03*
X63007800Y-51961780D03*
D32*
X174254720Y-59195700D03*
X174254720Y-60465700D03*
X174254720Y-61735700D03*
X174254720Y-63005700D03*
X169057880Y-63005700D03*
X169057880Y-61735700D03*
X169057880Y-60465700D03*
X169057880Y-59195700D03*
D60*
X80832500Y-44426100D03*
X80832500Y-45061100D03*
X80832500Y-45721500D03*
X80832500Y-46356500D03*
X80832500Y-47016900D03*
X80832500Y-47664600D03*
X80832500Y-48312300D03*
X75244500Y-48312300D03*
X75244500Y-47664600D03*
X75244500Y-47016900D03*
X75244500Y-46356500D03*
X75244500Y-45708800D03*
X75244500Y-45061100D03*
X75244500Y-44413400D03*
D61*
X147348500Y-58004440D03*
X147848880Y-58004440D03*
X148349260Y-58004440D03*
X148849640Y-58004440D03*
X149350020Y-58004440D03*
X149847860Y-58004440D03*
X150348240Y-58004440D03*
X150848620Y-58004440D03*
X151346460Y-58004440D03*
X151846840Y-58004440D03*
X152347220Y-58004440D03*
X152845060Y-58004440D03*
X153345440Y-58004440D03*
X153845820Y-58004440D03*
X154346200Y-58004440D03*
X154846580Y-58004440D03*
D62*
X156845560Y-60003420D03*
X156845560Y-60503800D03*
X156845560Y-61004180D03*
X156845560Y-61504560D03*
X156845560Y-62004940D03*
X156845560Y-62502780D03*
X156845560Y-63003160D03*
X156845560Y-63503540D03*
X156845560Y-64001380D03*
X156845560Y-64501760D03*
X156845560Y-65002140D03*
X156845560Y-65499980D03*
X156845560Y-66000360D03*
X156845560Y-66500740D03*
X156845560Y-67001120D03*
X156845560Y-67501500D03*
D61*
X154846580Y-69500480D03*
X154346200Y-69500480D03*
X153845820Y-69500480D03*
X153345440Y-69500480D03*
X152845060Y-69500480D03*
X152347220Y-69500480D03*
X151846840Y-69500480D03*
X151346460Y-69500480D03*
X150848620Y-69500480D03*
X150348240Y-69500480D03*
X149847860Y-69500480D03*
X149350020Y-69500480D03*
X148849640Y-69500480D03*
X148349260Y-69500480D03*
X147848880Y-69500480D03*
X147348500Y-69500480D03*
D62*
X145349520Y-67501500D03*
X145349520Y-67001120D03*
X145349520Y-66500740D03*
X145349520Y-66000360D03*
X145349520Y-65499980D03*
X145349520Y-65002140D03*
X145349520Y-64501760D03*
X145349520Y-64001380D03*
X145349520Y-63503540D03*
X145349520Y-63003160D03*
X145349520Y-62502780D03*
X145349520Y-62004940D03*
X145349520Y-61504560D03*
X145349520Y-61004180D03*
X145349520Y-60503800D03*
X145349520Y-60003420D03*
D32*
X133208320Y-54890400D03*
X133208320Y-56160400D03*
X133208320Y-57430400D03*
X133208320Y-58700400D03*
X128011480Y-58700400D03*
X128011480Y-57430400D03*
X128011480Y-56160400D03*
X128011480Y-54890400D03*
D63*
X90391540Y-53432440D03*
X91661540Y-53432440D03*
X92929000Y-53432440D03*
X94199000Y-53432440D03*
X94199000Y-58730880D03*
X92929000Y-58730880D03*
X91661540Y-58730880D03*
X90391540Y-58730880D03*
D64*
X52984960Y-97285540D03*
X52984960Y-98555540D03*
X52984960Y-99823000D03*
X52984960Y-101093000D03*
X47686520Y-101093000D03*
X47686520Y-99823000D03*
X47686520Y-98555540D03*
X47686520Y-97285540D03*
D65*
X142662200Y-98286300D03*
X142662200Y-96381300D03*
X145202200Y-98286300D03*
X142662200Y-97333800D03*
X145202200Y-96381300D03*
D33*
X83531000Y-54679580D03*
X84801000Y-54679580D03*
X86071000Y-54679580D03*
X87341000Y-54679580D03*
X87341000Y-59876420D03*
X86071000Y-59876420D03*
X84801000Y-59876420D03*
X83531000Y-59876420D03*
D65*
X126965000Y-98362500D03*
X126965000Y-96457500D03*
X129505000Y-98362500D03*
X126965000Y-97410000D03*
X129505000Y-96457500D03*
X134432600Y-98362500D03*
X134432600Y-96457500D03*
X136972600Y-98362500D03*
X134432600Y-97410000D03*
X136972600Y-96457500D03*
X123891600Y-96457500D03*
X123891600Y-98362500D03*
X121351600Y-96457500D03*
X123891600Y-97410000D03*
X121351600Y-98362500D03*
D66*
X143300000Y-54400000D03*
X143300000Y-51860000D03*
X145509800Y-51860000D03*
X145509800Y-54400000D03*
D67*
X163200000Y-94352380D03*
X163200000Y-99447620D03*
D68*
X88763400Y-40514000D03*
X92776600Y-40514000D03*
X82159400Y-40641000D03*
X86172600Y-40641000D03*
X75301400Y-39879000D03*
X79314600Y-39879000D03*
D69*
X173558760Y-90102420D03*
X170703800Y-90102420D03*
D70*
X84388500Y-43986680D03*
X83436000Y-46186320D03*
X85341000Y-46186320D03*
D71*
X80789320Y-50420500D03*
X78589680Y-49468000D03*
X78589680Y-51373000D03*
D70*
X71815500Y-52622680D03*
X70863000Y-54822320D03*
X72768000Y-54822320D03*
X72069500Y-45510680D03*
X71117000Y-47710320D03*
X73022000Y-47710320D03*
D72*
X56289500Y-50711400D03*
X56289500Y-52211400D03*
X64608000Y-52186000D03*
X64608000Y-50686000D03*
X90865500Y-44820500D03*
X90865500Y-43320500D03*
D73*
X80344000Y-42800000D03*
X78844000Y-42800000D03*
D72*
X89087500Y-45074500D03*
X89087500Y-43574500D03*
D73*
X95227000Y-42292000D03*
X96727000Y-42292000D03*
D72*
X76387500Y-53988500D03*
X76387500Y-55488500D03*
D73*
X94536500Y-45594500D03*
X93036500Y-45594500D03*
D72*
X75879500Y-50432500D03*
X75879500Y-51932500D03*
D73*
X89734500Y-49531500D03*
X91234500Y-49531500D03*
X84527500Y-50928500D03*
X86027500Y-50928500D03*
X86813500Y-48388500D03*
X88313500Y-48388500D03*
D72*
X85023500Y-47892500D03*
X85023500Y-49392500D03*
X143221000Y-41645000D03*
X143221000Y-40145000D03*
D73*
X138915000Y-43943000D03*
X140415000Y-43943000D03*
D72*
X138522000Y-41645000D03*
X138522000Y-40145000D03*
X133188000Y-41645000D03*
X133188000Y-40145000D03*
X114823800Y-40627600D03*
X114823800Y-42127600D03*
X107508600Y-40627600D03*
X107508600Y-42127600D03*
X102708000Y-40627600D03*
X102708000Y-42127600D03*
X70386500Y-87720600D03*
X70386500Y-86220600D03*
X162017000Y-67299000D03*
X162017000Y-65799000D03*
X134331000Y-66156000D03*
X134331000Y-64656000D03*
X87214000Y-64859200D03*
X87214000Y-66359200D03*
X111471000Y-71641000D03*
X111471000Y-73141000D03*
X80737000Y-65570400D03*
X80737000Y-67070400D03*
D73*
X141685000Y-65723500D03*
X140185000Y-65723500D03*
D72*
X149190000Y-53480000D03*
X149190000Y-54980000D03*
D73*
X157560000Y-54865000D03*
X156060000Y-54865000D03*
D72*
X105552800Y-61557200D03*
X105552800Y-63057200D03*
D73*
X107750000Y-70525000D03*
X109250000Y-70525000D03*
X129974200Y-61380100D03*
X131474200Y-61380100D03*
D72*
X136617000Y-55512000D03*
X136617000Y-57012000D03*
X138522000Y-55488000D03*
X138522000Y-53988000D03*
X136617000Y-58560000D03*
X136617000Y-60060000D03*
X123739200Y-94883400D03*
X123739200Y-93383400D03*
X138115600Y-94908800D03*
X138115600Y-93408800D03*
D73*
X89100000Y-94400000D03*
X87600000Y-94400000D03*
X77175000Y-88750000D03*
X78675000Y-88750000D03*
X79950000Y-79075000D03*
X81450000Y-79075000D03*
X115661300Y-43727100D03*
X117161300Y-43727100D03*
X110300000Y-94400000D03*
X108800000Y-94400000D03*
X98050000Y-88700000D03*
X99550000Y-88700000D03*
X129618600Y-87186500D03*
X131118600Y-87186500D03*
X129631300Y-89078800D03*
X131131300Y-89078800D03*
X129618600Y-85294200D03*
X131118600Y-85294200D03*
X69033500Y-49658500D03*
X70533500Y-49658500D03*
D72*
X66989500Y-50916500D03*
X66989500Y-49416500D03*
X71310000Y-43430000D03*
X71310000Y-41930000D03*
X66989500Y-53964500D03*
X66989500Y-52464500D03*
X64703500Y-44566500D03*
X64703500Y-43066500D03*
X67243500Y-46979500D03*
X67243500Y-45479500D03*
X66767000Y-41034000D03*
X66767000Y-42534000D03*
X65338500Y-47868500D03*
X65338500Y-46368500D03*
X67751500Y-92596500D03*
X67751500Y-94096500D03*
X65465500Y-92596500D03*
X65465500Y-94096500D03*
X63211000Y-92596000D03*
X63211000Y-94096000D03*
X60798000Y-92596000D03*
X60798000Y-94096000D03*
X81206900Y-74766600D03*
X81206900Y-73266600D03*
D73*
X58500000Y-99188000D03*
X57000000Y-99188000D03*
X141685000Y-63818500D03*
X140185000Y-63818500D03*
D72*
X88611000Y-82589800D03*
X88611000Y-81089800D03*
D73*
X58500000Y-97410000D03*
X57000000Y-97410000D03*
D72*
X140300000Y-94921500D03*
X140300000Y-93421500D03*
X130140000Y-93358000D03*
X130140000Y-94858000D03*
D64*
X99136760Y-63757540D03*
X99136760Y-65027540D03*
X99136760Y-66295000D03*
X99136760Y-67565000D03*
X93838320Y-67565000D03*
X93838320Y-66295000D03*
X93838320Y-65027540D03*
X93838320Y-63757540D03*
X113106760Y-65027540D03*
X113106760Y-66297540D03*
X113106760Y-67565000D03*
X113106760Y-68835000D03*
X107808320Y-68835000D03*
X107808320Y-67565000D03*
X107808320Y-66297540D03*
X107808320Y-65027540D03*
D36*
X108686000Y-92491000D03*
X110464000Y-92491000D03*
X109575000Y-90459000D03*
X99789000Y-90459000D03*
X98011000Y-90459000D03*
X98900000Y-92491000D03*
D74*
X111000000Y-103700000D03*
X168400000Y-51600000D03*
X54200000Y-70300000D03*
D75*
X174400000Y-112400000D03*
X174100000Y-36100000D03*
X46945500Y-36156500D03*
X46945500Y-112406500D03*
M02*
