G04 #@! TF.FileFunction,Soldermask,Top*
%FSLAX46Y46*%
G04 Gerber Fmt 4.6, Leading zero omitted, Abs format (unit mm)*
G04 Created by KiCad (PCBNEW 4.0.2+dfsg1-2~bpo8+1-stable) date vie 30 sep 2016 00:33:51 ART*
%MOMM*%
G01*
G04 APERTURE LIST*
%ADD10C,0.150000*%
%ADD11R,1.750800X1.550800*%
%ADD12C,3.860800*%
%ADD13R,1.574800X1.574800*%
%ADD14C,1.574800*%
%ADD15R,1.450800X2.150800*%
%ADD16R,1.550800X1.750800*%
%ADD17C,1.550800*%
%ADD18C,2.250800*%
%ADD19C,1.850800*%
%ADD20R,1.850800X1.850800*%
%ADD21R,2.451100X6.051300*%
%ADD22R,3.708400X2.082800*%
%ADD23R,1.066800X2.082800*%
%ADD24C,3.901440*%
%ADD25C,2.590800*%
%ADD26R,0.848360X0.848360*%
%ADD27R,2.590800X2.590800*%
%ADD28R,1.051560X0.949960*%
%ADD29R,0.949960X1.051560*%
%ADD30R,3.649980X1.651000*%
%ADD31R,1.854200X1.651000*%
%ADD32R,1.651000X1.854200*%
%ADD33R,1.399540X0.701040*%
%ADD34R,2.250440X1.849120*%
%ADD35R,0.751840X1.051560*%
%ADD36R,1.193800X0.685800*%
%ADD37R,0.685800X1.193800*%
%ADD38R,1.320800X1.016000*%
%ADD39R,1.399540X0.449580*%
%ADD40R,1.551940X2.151380*%
%ADD41R,1.950720X2.451100*%
%ADD42R,1.950720X1.851660*%
%ADD43R,1.016000X1.320800*%
%ADD44R,2.049780X7.650480*%
%ADD45R,1.651000X1.651000*%
%ADD46C,1.651000*%
%ADD47R,1.549400X1.049020*%
%ADD48R,2.049780X1.049020*%
%ADD49O,3.749040X2.250440*%
%ADD50O,1.549400X1.049020*%
%ADD51R,0.850900X1.051560*%
%ADD52R,1.750800X0.950800*%
%ADD53R,1.050800X2.550800*%
%ADD54R,2.550800X1.050800*%
%ADD55R,0.500800X0.500800*%
%ADD56R,1.193800X0.304800*%
%ADD57R,0.304800X1.193800*%
%ADD58R,1.320800X0.431800*%
%ADD59R,1.249680X1.051560*%
%ADD60R,1.521460X0.469900*%
%ADD61R,1.551940X0.304800*%
%ADD62R,0.304800X1.551940*%
%ADD63R,1.851660X2.250440*%
%ADD64R,1.051560X0.850900*%
%ADD65R,0.950800X0.550800*%
%ADD66R,0.550800X0.950800*%
%ADD67R,2.250440X0.650240*%
%ADD68R,0.650240X2.250440*%
%ADD69C,2.540000*%
%ADD70C,4.550800*%
G04 APERTURE END LIST*
D10*
D11*
X81880000Y-76074000D03*
X79340000Y-76074000D03*
X79340000Y-78283800D03*
X81880000Y-78283800D03*
D12*
X48447500Y-43943500D03*
X48447500Y-69343500D03*
D13*
X50987500Y-51182500D03*
D14*
X50987500Y-53976500D03*
X50987500Y-56770500D03*
X50987500Y-59437500D03*
X50987500Y-62231500D03*
X48447500Y-60834500D03*
X48447500Y-58040500D03*
X48447500Y-55373500D03*
X48447500Y-52579500D03*
D15*
X82388000Y-49785000D03*
X86188000Y-49785000D03*
X86188000Y-58885000D03*
X82388000Y-58885000D03*
D16*
X118659200Y-80671400D03*
X118659200Y-78131400D03*
X116449400Y-78131400D03*
X116449400Y-80671400D03*
D17*
X113122000Y-99696000D03*
X113122000Y-94616000D03*
X113122000Y-89536000D03*
D18*
X105502000Y-99816000D03*
D17*
X105502000Y-94616000D03*
X105502000Y-89536000D03*
D19*
X113122000Y-81916000D03*
D20*
X105502000Y-81916000D03*
D18*
X105502000Y-92116000D03*
D21*
X160800000Y-104875000D03*
X160800000Y-94874500D03*
D22*
X158302500Y-63628500D03*
D23*
X158302500Y-70232500D03*
X160588500Y-70232500D03*
X156016500Y-70232500D03*
D24*
X45215100Y-90107500D03*
X45215100Y-78677500D03*
D14*
X51565100Y-79947500D03*
X54105100Y-80582500D03*
X51565100Y-82487500D03*
X54105100Y-83122500D03*
X51565100Y-85027500D03*
X54105100Y-85662500D03*
X51565100Y-87567500D03*
D25*
X48263100Y-92139500D03*
X48263100Y-76645500D03*
D14*
X58931100Y-81471500D03*
X58931100Y-87313500D03*
X58931100Y-78931500D03*
X58931100Y-89853500D03*
D13*
X54105100Y-88202500D03*
D26*
X66481500Y-90311200D03*
X66481500Y-91809800D03*
D17*
X81118000Y-99696000D03*
X81118000Y-94616000D03*
X81118000Y-89536000D03*
D18*
X73498000Y-99816000D03*
D17*
X73498000Y-94616000D03*
X73498000Y-89536000D03*
D19*
X81118000Y-81916000D03*
D20*
X73498000Y-81916000D03*
D18*
X73498000Y-92116000D03*
D26*
X64449500Y-90311200D03*
X64449500Y-91809800D03*
D17*
X102454000Y-99696000D03*
X102454000Y-94616000D03*
X102454000Y-89536000D03*
D18*
X94834000Y-99816000D03*
D17*
X94834000Y-94616000D03*
X94834000Y-89536000D03*
D19*
X102454000Y-81916000D03*
D20*
X94834000Y-81916000D03*
D18*
X94834000Y-92116000D03*
D17*
X91786000Y-99696000D03*
X91786000Y-94616000D03*
X91786000Y-89536000D03*
D18*
X84166000Y-99816000D03*
D17*
X84166000Y-94616000D03*
X84166000Y-89536000D03*
D19*
X91786000Y-81916000D03*
D20*
X84166000Y-81916000D03*
D18*
X84166000Y-92116000D03*
D27*
X143570500Y-36196500D03*
D25*
X138490500Y-36196500D03*
X133410500Y-36196500D03*
D28*
X65738300Y-73434940D03*
X65738300Y-71931260D03*
D29*
X47648160Y-96925000D03*
X49151840Y-96925000D03*
D30*
X175181820Y-95886000D03*
X169680180Y-95886000D03*
D28*
X147767600Y-42967640D03*
X147767600Y-41463960D03*
X74666400Y-59142360D03*
X74666400Y-60646040D03*
D29*
X62845240Y-55652400D03*
X61341560Y-55652400D03*
X58090360Y-62358000D03*
X59594040Y-62358000D03*
X62880800Y-57689480D03*
X61377120Y-57689480D03*
D31*
X64100000Y-53087000D03*
X64100000Y-50293000D03*
D29*
X59898840Y-54230000D03*
X58395160Y-54230000D03*
X122281240Y-81027000D03*
X120777560Y-81027000D03*
D32*
X85842400Y-46000400D03*
X83048400Y-46000400D03*
D28*
X71504100Y-50036460D03*
X71504100Y-51540140D03*
D29*
X94157340Y-42800500D03*
X92653660Y-42800500D03*
X83139840Y-41403000D03*
X81636160Y-41403000D03*
X71603160Y-47245000D03*
X73106840Y-47245000D03*
D28*
X73339500Y-42790340D03*
X73339500Y-41286660D03*
X124933000Y-54981840D03*
X124933000Y-53478160D03*
D29*
X135971840Y-63755000D03*
X134468160Y-63755000D03*
D28*
X76133500Y-44969660D03*
X76133500Y-46473340D03*
D29*
X47658160Y-94820000D03*
X49161840Y-94820000D03*
D28*
X149761500Y-58748660D03*
X149761500Y-60252340D03*
D31*
X145475500Y-61723500D03*
X145475500Y-58929500D03*
D28*
X80241700Y-53097160D03*
X80241700Y-54600840D03*
X153127000Y-69861160D03*
X153127000Y-71364840D03*
D29*
X152685040Y-59818000D03*
X151181360Y-59818000D03*
D28*
X127701600Y-57440560D03*
X127701600Y-58944240D03*
X157927600Y-81956640D03*
X157927600Y-80452960D03*
X143697500Y-56760340D03*
X143697500Y-55256660D03*
D31*
X140141500Y-57659500D03*
X140141500Y-54865500D03*
D29*
X145263160Y-67565000D03*
X146766840Y-67565000D03*
X112471760Y-79401400D03*
X113975440Y-79401400D03*
D28*
X55813500Y-106290340D03*
X55813500Y-104786660D03*
X115916000Y-82942160D03*
X115916000Y-84445840D03*
X67751500Y-43298340D03*
X67751500Y-41794660D03*
X78705000Y-58156840D03*
X78705000Y-56653160D03*
X80254400Y-58131440D03*
X80254400Y-56627760D03*
D29*
X165123420Y-77852000D03*
X166627100Y-77852000D03*
D33*
X166740380Y-61342500D03*
X164342620Y-61342500D03*
D26*
X165287500Y-66689200D03*
X165287500Y-68187800D03*
D33*
X171548880Y-77825000D03*
X169151120Y-77825000D03*
D34*
X156886200Y-42512980D03*
X156886200Y-47608220D03*
X153304800Y-47506620D03*
X153304800Y-42411380D03*
X160493000Y-47532020D03*
X160493000Y-42436780D03*
D26*
X105743300Y-46483000D03*
X104244700Y-46483000D03*
X99647300Y-49277000D03*
X98148700Y-49277000D03*
X109299300Y-48261000D03*
X107800700Y-48261000D03*
X113109300Y-48261000D03*
X111610700Y-48261000D03*
X116919300Y-49912000D03*
X115420700Y-49912000D03*
X119357700Y-48388000D03*
X120856300Y-48388000D03*
X129502460Y-50028840D03*
X128003860Y-50028840D03*
X133449620Y-49972960D03*
X131951020Y-49972960D03*
X118194380Y-86957900D03*
X118194380Y-85459300D03*
X120157800Y-86932500D03*
X120157800Y-85433900D03*
X70545500Y-90311200D03*
X70545500Y-91809800D03*
X68513500Y-90311200D03*
X68513500Y-91809800D03*
X166995400Y-66714100D03*
X166995400Y-68212700D03*
X121887540Y-86983300D03*
X121887540Y-85484700D03*
X123840800Y-86932500D03*
X123840800Y-85433900D03*
D35*
X69529500Y-105284500D03*
X68577000Y-102744500D03*
X70482000Y-102744500D03*
D26*
X141455700Y-64161400D03*
X139957100Y-64161400D03*
X141430300Y-62485000D03*
X139931700Y-62485000D03*
D36*
X170907000Y-68631800D03*
X170907000Y-70155800D03*
D37*
X94167500Y-41022500D03*
X92643500Y-41022500D03*
X86579000Y-41403000D03*
X85055000Y-41403000D03*
X76895500Y-43181500D03*
X75371500Y-43181500D03*
D36*
X69529500Y-41784500D03*
X69529500Y-43308500D03*
X171100000Y-54638000D03*
X171100000Y-56162000D03*
D37*
X151163000Y-58040500D03*
X152687000Y-58040500D03*
D36*
X137347500Y-57786500D03*
X137347500Y-59310500D03*
D37*
X170729200Y-62688200D03*
X169205200Y-62688200D03*
X55311600Y-56338200D03*
X53787600Y-56338200D03*
X55387800Y-53747400D03*
X53863800Y-53747400D03*
X54930600Y-65177400D03*
X56454600Y-65177400D03*
X171084800Y-75616800D03*
X169560800Y-75616800D03*
X56530800Y-62358000D03*
X55006800Y-62358000D03*
X56530800Y-59538600D03*
X55006800Y-59538600D03*
D38*
X75657000Y-66117200D03*
X75657000Y-67387200D03*
X75657000Y-68657200D03*
D27*
X158810500Y-36196500D03*
D25*
X153730500Y-36196500D03*
X148650500Y-36196500D03*
D27*
X72450500Y-36196500D03*
D25*
X67370500Y-36196500D03*
X62290500Y-36196500D03*
D39*
X174685500Y-73077300D03*
X174685500Y-73727540D03*
X174685500Y-72427060D03*
X174685500Y-74377780D03*
X174685500Y-71776820D03*
D40*
X174685500Y-76277700D03*
X174685500Y-69876900D03*
D41*
X177334720Y-76877140D03*
X177334720Y-69277460D03*
D42*
X177334720Y-74227920D03*
X177334720Y-71926680D03*
D39*
X174634700Y-58840900D03*
X174634700Y-59491140D03*
X174634700Y-58190660D03*
X174634700Y-60141380D03*
X174634700Y-57540420D03*
D40*
X174634700Y-62041300D03*
X174634700Y-55640500D03*
D41*
X177283920Y-62640740D03*
X177283920Y-55041060D03*
D42*
X177283920Y-59991520D03*
X177283920Y-57690280D03*
D27*
X128330500Y-36196500D03*
D25*
X123250500Y-36196500D03*
X118170500Y-36196500D03*
D27*
X113090500Y-36196500D03*
D25*
X108010500Y-36196500D03*
X102930500Y-36196500D03*
D27*
X82642000Y-112396000D03*
D25*
X87722000Y-112396000D03*
X92802000Y-112396000D03*
D27*
X72482000Y-112396000D03*
D25*
X77562000Y-112396000D03*
D27*
X108042000Y-112396000D03*
D25*
X113122000Y-112396000D03*
X118202000Y-112396000D03*
D27*
X138490500Y-112396500D03*
D25*
X143570500Y-112396500D03*
X148650500Y-112396500D03*
D27*
X97882000Y-112396000D03*
D25*
X102962000Y-112396000D03*
D27*
X123250500Y-112396500D03*
D25*
X128330500Y-112396500D03*
X133410500Y-112396500D03*
D27*
X97850500Y-36196500D03*
D25*
X92770500Y-36196500D03*
X87690500Y-36196500D03*
D27*
X82610500Y-36196500D03*
D25*
X77530500Y-36196500D03*
D27*
X153730500Y-112396500D03*
D25*
X158810500Y-112396500D03*
D27*
X62290500Y-112396500D03*
D25*
X67370500Y-112396500D03*
D43*
X161128000Y-50420000D03*
X159858000Y-50420000D03*
X156302000Y-50420000D03*
X157572000Y-50420000D03*
D38*
X139969800Y-47753000D03*
X139969800Y-46483000D03*
D43*
X152873000Y-50420000D03*
X154143000Y-50420000D03*
D38*
X60569400Y-50496200D03*
X60569400Y-51766200D03*
X57927800Y-50572400D03*
X57927800Y-51842400D03*
D43*
X88452500Y-41403500D03*
X89722500Y-41403500D03*
D38*
X53051000Y-99950000D03*
X53051000Y-101220000D03*
X53051000Y-102490000D03*
D44*
X169149320Y-83897200D03*
X174747480Y-83897200D03*
D45*
X134902500Y-82335100D03*
D46*
X134902500Y-79795100D03*
X137442500Y-82335100D03*
X137442500Y-79795100D03*
X139982500Y-82335100D03*
X139982500Y-79795100D03*
X142522500Y-82335100D03*
X142522500Y-79795100D03*
X145062500Y-82335100D03*
X145062500Y-79795100D03*
X147602500Y-82335100D03*
X147602500Y-79795100D03*
D45*
X76800000Y-63755000D03*
D46*
X74260000Y-63755000D03*
X71720000Y-63755000D03*
X69180000Y-63755000D03*
X66640000Y-63755000D03*
X64100000Y-63755000D03*
D13*
X137556800Y-89497900D03*
D14*
X137556800Y-86957900D03*
X140096800Y-89497900D03*
X140096800Y-86957900D03*
X142636800Y-89497900D03*
X142636800Y-86957900D03*
X145176800Y-89497900D03*
X145176800Y-86957900D03*
D45*
X90262000Y-75439000D03*
D46*
X90262000Y-77979000D03*
X87722000Y-75439000D03*
X87722000Y-77979000D03*
X85182000Y-75439000D03*
X85182000Y-77979000D03*
D47*
X58406840Y-102261900D03*
D48*
X58660840Y-103760500D03*
D49*
X61325300Y-103760500D03*
D50*
X58406840Y-105259100D03*
D22*
X120615000Y-101347000D03*
D23*
X120615000Y-94743000D03*
X118329000Y-94743000D03*
X122901000Y-94743000D03*
D22*
X130140000Y-101347000D03*
D23*
X130140000Y-94743000D03*
X127854000Y-94743000D03*
X132426000Y-94743000D03*
D22*
X139665000Y-101347000D03*
D23*
X139665000Y-94743000D03*
X137379000Y-94743000D03*
X141951000Y-94743000D03*
D22*
X149190000Y-101347000D03*
D23*
X149190000Y-94743000D03*
X146904000Y-94743000D03*
X151476000Y-94743000D03*
D51*
X70196000Y-99525820D03*
X69243500Y-97326180D03*
X71148500Y-97326180D03*
D36*
X64400000Y-78262000D03*
X64400000Y-76738000D03*
X64100000Y-71838000D03*
X64100000Y-73362000D03*
X68800000Y-78962000D03*
X68800000Y-77438000D03*
X66000000Y-78262000D03*
X66000000Y-76738000D03*
X71313600Y-67387200D03*
X71313600Y-68911200D03*
X69484800Y-67361800D03*
X69484800Y-68885800D03*
X73142400Y-67412600D03*
X73142400Y-68936600D03*
D37*
X81499000Y-67565000D03*
X79975000Y-67565000D03*
X81499000Y-69851000D03*
X79975000Y-69851000D03*
D36*
X84750200Y-67006200D03*
X84750200Y-68530200D03*
X77663600Y-66752200D03*
X77663600Y-68276200D03*
D37*
X81486300Y-72124300D03*
X79962300Y-72124300D03*
D36*
X68800000Y-80338000D03*
X68800000Y-81862000D03*
D37*
X77308000Y-79198200D03*
X75784000Y-79198200D03*
X80000400Y-73800700D03*
X81524400Y-73800700D03*
D36*
X163255500Y-68200500D03*
X163255500Y-66676500D03*
D37*
X135880400Y-44451000D03*
X137404400Y-44451000D03*
X137379000Y-46711600D03*
X135855000Y-46711600D03*
X137379000Y-48921400D03*
X135855000Y-48921400D03*
X74768000Y-56135000D03*
X76292000Y-56135000D03*
D52*
X67148000Y-99368000D03*
X67148000Y-96468000D03*
D53*
X118115000Y-105665000D03*
X123115000Y-105665000D03*
X127640000Y-105665000D03*
X132640000Y-105665000D03*
X142165000Y-105665000D03*
X137165000Y-105665000D03*
X146690000Y-105665000D03*
X151690000Y-105665000D03*
X157970000Y-85710000D03*
X152970000Y-85710000D03*
X153060000Y-90180000D03*
X158060000Y-90180000D03*
D54*
X55560520Y-108890160D03*
X55560520Y-113890160D03*
D55*
X147285000Y-74550000D03*
X145685000Y-74550000D03*
X145685000Y-75400000D03*
X147285000Y-75400000D03*
D56*
X69631100Y-75419180D03*
X69631100Y-74918800D03*
X69631100Y-74418420D03*
X69631100Y-75919560D03*
D57*
X70573440Y-76861900D03*
X71073820Y-76861900D03*
X71574200Y-76861900D03*
X72074580Y-76861900D03*
X72572420Y-76861900D03*
X73072800Y-76861900D03*
X73573180Y-76861900D03*
X74073560Y-76861900D03*
D56*
X75015900Y-72419440D03*
X75015900Y-75919560D03*
X75015900Y-75419180D03*
X75015900Y-74918800D03*
X75015900Y-74418420D03*
X75015900Y-73920580D03*
X75015900Y-73420200D03*
X75015900Y-72919820D03*
D57*
X74073560Y-71477100D03*
X73573180Y-71477100D03*
X73072800Y-71477100D03*
X72572420Y-71477100D03*
X72074580Y-71477100D03*
X71574200Y-71477100D03*
X71073820Y-71477100D03*
X70573440Y-71477100D03*
D56*
X69631100Y-72419440D03*
X69631100Y-72919820D03*
X69631100Y-73420200D03*
X69631100Y-73920580D03*
D27*
X72323500Y-74169500D03*
D58*
X65745920Y-55764160D03*
X65745920Y-56414400D03*
X65745920Y-57064640D03*
X65745920Y-57714880D03*
X65745920Y-58365120D03*
X65745920Y-59015360D03*
X65745920Y-59665600D03*
X65745920Y-60315840D03*
X71344080Y-60315840D03*
X71344080Y-59665600D03*
X71344080Y-59015360D03*
X71344080Y-58365120D03*
X71344080Y-57714880D03*
X71344080Y-57064640D03*
X71344080Y-56414400D03*
X71344080Y-55764160D03*
D51*
X60061400Y-42411380D03*
X61013900Y-44611020D03*
X59108900Y-44611020D03*
D59*
X126672900Y-73909920D03*
D51*
X124922840Y-76307680D03*
X124922840Y-73909920D03*
X126822760Y-76307680D03*
D60*
X140335560Y-68967080D03*
X140335560Y-68316840D03*
X140335560Y-67666600D03*
X140335560Y-67016360D03*
X134742480Y-70907640D03*
X140335560Y-70917800D03*
X140335560Y-70267560D03*
X140335560Y-69617320D03*
X134737400Y-66366120D03*
X134737400Y-67016360D03*
X134737400Y-67666600D03*
X134737400Y-68316840D03*
X134737400Y-68967080D03*
X134737400Y-69617320D03*
X140335560Y-66366120D03*
X134742480Y-70267560D03*
X140335560Y-71568040D03*
X140335560Y-65715880D03*
X134737400Y-65715880D03*
X134737400Y-71568040D03*
D61*
X94877180Y-56152780D03*
X94877180Y-56650620D03*
X94877180Y-57151000D03*
X94877180Y-57651380D03*
X94877180Y-58151760D03*
X94877180Y-58652140D03*
X94877180Y-59152520D03*
X94877180Y-59652900D03*
X94877180Y-60150740D03*
X94877180Y-60651120D03*
X94877180Y-61151500D03*
X94877180Y-61651880D03*
X94877180Y-62152260D03*
X94877180Y-62652640D03*
X94877180Y-63153020D03*
X94877180Y-63650860D03*
X94877180Y-64151240D03*
X94877180Y-64651620D03*
X94877180Y-65149460D03*
X94877180Y-65649840D03*
X94877180Y-66150220D03*
X94877180Y-66648060D03*
X94877180Y-67148440D03*
X94877180Y-67648820D03*
X94877180Y-68149200D03*
X94877180Y-68649580D03*
X94877180Y-69149960D03*
X94877180Y-69650340D03*
X94877180Y-70148180D03*
X94877180Y-70648560D03*
X94877180Y-71148940D03*
X94877180Y-71649320D03*
X94877180Y-72149700D03*
X94877180Y-72650080D03*
X94877180Y-73150460D03*
X94877180Y-73648300D03*
D62*
X96878700Y-75649820D03*
X97376540Y-75649820D03*
X97876920Y-75649820D03*
X98377300Y-75649820D03*
X98877680Y-75649820D03*
X99378060Y-75649820D03*
X99878440Y-75649820D03*
X100378820Y-75649820D03*
X100876660Y-75649820D03*
X101377040Y-75649820D03*
X101877420Y-75649820D03*
X102377800Y-75649820D03*
X102878180Y-75649820D03*
X103378560Y-75649820D03*
X103878940Y-75649820D03*
X104376780Y-75649820D03*
X104877160Y-75649820D03*
X105377540Y-75649820D03*
X105875380Y-75649820D03*
X106375760Y-75649820D03*
X106876140Y-75649820D03*
X107373980Y-75649820D03*
X107874360Y-75649820D03*
X108374740Y-75649820D03*
X108875120Y-75649820D03*
X109375500Y-75649820D03*
X109875880Y-75649820D03*
X110376260Y-75649820D03*
X110874100Y-75649820D03*
X111374480Y-75649820D03*
X111874860Y-75649820D03*
X112375240Y-75649820D03*
X112875620Y-75649820D03*
X113376000Y-75649820D03*
X113876380Y-75649820D03*
X114374220Y-75649820D03*
D61*
X116375740Y-73648300D03*
X116375740Y-73150460D03*
X116375740Y-72650080D03*
X116375740Y-72149700D03*
X116375740Y-71649320D03*
X116375740Y-71148940D03*
X116375740Y-70648560D03*
X116375740Y-70148180D03*
X116375740Y-69650340D03*
X116375740Y-69149960D03*
X116375740Y-68649580D03*
X116375740Y-68149200D03*
X116375740Y-67648820D03*
X116375740Y-67148440D03*
X116375740Y-66648060D03*
X116375740Y-66150220D03*
X116375740Y-65649840D03*
X116375740Y-65149460D03*
X116375740Y-64651620D03*
X116375740Y-64151240D03*
X116375740Y-63650860D03*
X116375740Y-63153020D03*
X116375740Y-62652640D03*
X116375740Y-62152260D03*
X116375740Y-61651880D03*
X116375740Y-61151500D03*
X116375740Y-60651120D03*
X116375740Y-60150740D03*
X116375740Y-59652900D03*
X116375740Y-59152520D03*
X116375740Y-58652140D03*
X116375740Y-58151760D03*
X116375740Y-57651380D03*
X116375740Y-57151000D03*
X116375740Y-56650620D03*
X116375740Y-56152780D03*
D62*
X114374220Y-54151260D03*
X113876380Y-54151260D03*
X113376000Y-54151260D03*
X112875620Y-54151260D03*
X112375240Y-54151260D03*
X111874860Y-54151260D03*
X111374480Y-54151260D03*
X110874100Y-54151260D03*
X110376260Y-54151260D03*
X109875880Y-54151260D03*
X109375500Y-54151260D03*
X108875120Y-54151260D03*
X108374740Y-54151260D03*
X107874360Y-54151260D03*
X107373980Y-54151260D03*
X106876140Y-54151260D03*
X106375760Y-54151260D03*
X105875380Y-54151260D03*
X105377540Y-54151260D03*
X104877160Y-54151260D03*
X104376780Y-54151260D03*
X103878940Y-54151260D03*
X103378560Y-54151260D03*
X102878180Y-54151260D03*
X102377800Y-54151260D03*
X101877420Y-54151260D03*
X101377040Y-54151260D03*
X100876660Y-54151260D03*
X100378820Y-54151260D03*
X99878440Y-54151260D03*
X99378060Y-54151260D03*
X98877680Y-54151260D03*
X98377300Y-54151260D03*
X97876920Y-54151260D03*
X97376540Y-54151260D03*
X96878700Y-54151260D03*
D16*
X124044000Y-60072000D03*
X124044000Y-57532000D03*
X121834200Y-57532000D03*
X121834200Y-60072000D03*
D51*
X91405000Y-49320180D03*
X92357500Y-51519820D03*
X90452500Y-51519820D03*
D63*
X100906600Y-42500000D03*
X96893400Y-42500000D03*
D64*
X49400180Y-105400000D03*
X51599820Y-104447500D03*
X51599820Y-106352500D03*
D65*
X60417000Y-46622000D03*
X60417000Y-48122000D03*
X57826200Y-46647400D03*
X57826200Y-48147400D03*
D66*
X87200000Y-70625000D03*
X88700000Y-70625000D03*
X87200000Y-72800000D03*
X88700000Y-72800000D03*
X85194000Y-43689000D03*
X86694000Y-43689000D03*
X73105000Y-45467000D03*
X71605000Y-45467000D03*
X76145500Y-41149500D03*
X77645500Y-41149500D03*
X105744000Y-44705000D03*
X104244000Y-44705000D03*
D65*
X58353500Y-98414500D03*
X58353500Y-96914500D03*
X58353500Y-94120500D03*
X58353500Y-95620500D03*
D66*
X58524000Y-107316000D03*
X60024000Y-107316000D03*
X146765000Y-65914000D03*
X145265000Y-65914000D03*
X146765000Y-64263000D03*
X145265000Y-64263000D03*
D65*
X131181400Y-65870120D03*
X131181400Y-67370120D03*
X129350060Y-65844720D03*
X129350060Y-67344720D03*
X84674000Y-73268000D03*
X84674000Y-71768000D03*
D66*
X123548000Y-72137000D03*
X125048000Y-72137000D03*
X125046600Y-77953600D03*
X126546600Y-77953600D03*
D65*
X66640000Y-101486000D03*
X66640000Y-102986000D03*
D66*
X63000000Y-107300000D03*
X61500000Y-107300000D03*
D65*
X166970000Y-63284400D03*
X166970000Y-64784400D03*
D66*
X129669400Y-88431100D03*
X131169400Y-88431100D03*
D65*
X71561500Y-42788500D03*
X71561500Y-41288500D03*
X65719500Y-41796500D03*
X65719500Y-43296500D03*
X118252800Y-89078100D03*
X118252800Y-90578100D03*
X120140020Y-89070480D03*
X120140020Y-90570480D03*
X121935800Y-89085720D03*
X121935800Y-90585720D03*
D66*
X104244000Y-42723800D03*
X105744000Y-42723800D03*
X81487000Y-65660000D03*
X79987000Y-65660000D03*
X88726000Y-65990200D03*
X87226000Y-65990200D03*
X101553000Y-47626000D03*
X100053000Y-47626000D03*
X100078400Y-45568600D03*
X101578400Y-45568600D03*
X109325400Y-42622200D03*
X107825400Y-42622200D03*
X107800000Y-44730400D03*
X109300000Y-44730400D03*
X87226000Y-67819000D03*
X88726000Y-67819000D03*
X113160800Y-42596800D03*
X111660800Y-42596800D03*
X128160640Y-45527960D03*
X129660640Y-45527960D03*
X128125080Y-47803800D03*
X129625080Y-47803800D03*
X131858880Y-47753000D03*
X133358880Y-47753000D03*
X131823320Y-45512720D03*
X133323320Y-45512720D03*
D65*
X123739200Y-89070480D03*
X123739200Y-90570480D03*
D66*
X111635400Y-44781200D03*
X113135400Y-44781200D03*
X116996200Y-46940200D03*
X115496200Y-46940200D03*
X115496200Y-44755800D03*
X116996200Y-44755800D03*
X120730000Y-44882800D03*
X119230000Y-44882800D03*
X120730000Y-42596800D03*
X119230000Y-42596800D03*
D67*
X143619780Y-44959000D03*
X143619780Y-46229000D03*
X143619780Y-47499000D03*
X143619780Y-48769000D03*
X148816620Y-48769000D03*
X148816620Y-47499000D03*
X148816620Y-46229000D03*
X148816620Y-44959000D03*
D68*
X64576500Y-94304080D03*
X63306500Y-94304080D03*
X62036500Y-94304080D03*
X60766500Y-94304080D03*
X60766500Y-99500920D03*
X62036500Y-99500920D03*
X63306500Y-99500920D03*
X64576500Y-99500920D03*
D69*
X111000000Y-103700000D03*
X168400000Y-51600000D03*
X54200000Y-70300000D03*
D70*
X174400000Y-112400000D03*
X174100000Y-36100000D03*
X46945500Y-36156500D03*
X46945500Y-112406500D03*
M02*
