G04 #@! TF.FileFunction,Legend,Top*
%FSLAX46Y46*%
G04 Gerber Fmt 4.6, Leading zero omitted, Abs format (unit mm)*
G04 Created by KiCad (PCBNEW 4.0.2+dfsg1-2~bpo8+1-stable) date vie 30 sep 2016 00:33:51 ART*
%MOMM*%
G01*
G04 APERTURE LIST*
%ADD10C,0.150000*%
%ADD11C,0.125000*%
%ADD12C,0.279400*%
%ADD13C,0.200000*%
%ADD14C,0.300000*%
%ADD15C,0.250000*%
%ADD16C,0.304800*%
%ADD17C,0.127000*%
%ADD18C,0.203200*%
%ADD19C,0.066040*%
%ADD20C,0.101600*%
%ADD21C,0.099060*%
%ADD22C,0.254000*%
%ADD23C,0.177800*%
%ADD24C,0.000120*%
%ADD25C,0.198120*%
%ADD26C,0.078740*%
%ADD27C,0.119380*%
%ADD28C,0.508000*%
%ADD29C,0.381000*%
%ADD30R,1.750800X1.550800*%
%ADD31C,3.860800*%
%ADD32R,1.574800X1.574800*%
%ADD33C,1.574800*%
%ADD34R,1.450800X2.150800*%
%ADD35R,1.550800X1.750800*%
%ADD36C,1.550800*%
%ADD37C,2.250800*%
%ADD38C,1.850800*%
%ADD39R,1.850800X1.850800*%
%ADD40R,2.451100X6.051300*%
%ADD41R,3.708400X2.082800*%
%ADD42R,1.066800X2.082800*%
%ADD43C,3.901440*%
%ADD44C,2.590800*%
%ADD45R,0.848360X0.848360*%
%ADD46R,2.590800X2.590800*%
%ADD47R,1.051560X0.949960*%
%ADD48R,0.949960X1.051560*%
%ADD49R,3.649980X1.651000*%
%ADD50R,1.854200X1.651000*%
%ADD51R,1.651000X1.854200*%
%ADD52R,1.399540X0.701040*%
%ADD53R,2.250440X1.849120*%
%ADD54R,0.751840X1.051560*%
%ADD55R,1.193800X0.685800*%
%ADD56R,0.685800X1.193800*%
%ADD57R,1.320800X1.016000*%
%ADD58R,1.399540X0.449580*%
%ADD59R,1.551940X2.151380*%
%ADD60R,1.950720X2.451100*%
%ADD61R,1.950720X1.851660*%
%ADD62R,1.016000X1.320800*%
%ADD63R,2.049780X7.650480*%
%ADD64R,1.651000X1.651000*%
%ADD65C,1.651000*%
%ADD66R,1.549400X1.049020*%
%ADD67R,2.049780X1.049020*%
%ADD68O,3.749040X2.250440*%
%ADD69O,1.549400X1.049020*%
%ADD70R,0.850900X1.051560*%
%ADD71R,1.750800X0.950800*%
%ADD72R,1.050800X2.550800*%
%ADD73R,2.550800X1.050800*%
%ADD74R,0.500800X0.500800*%
%ADD75R,1.193800X0.304800*%
%ADD76R,0.304800X1.193800*%
%ADD77R,1.320800X0.431800*%
%ADD78R,1.249680X1.051560*%
%ADD79R,1.521460X0.469900*%
%ADD80R,1.551940X0.304800*%
%ADD81R,0.304800X1.551940*%
%ADD82R,1.851660X2.250440*%
%ADD83R,1.051560X0.850900*%
%ADD84R,0.950800X0.550800*%
%ADD85R,0.550800X0.950800*%
%ADD86R,2.250440X0.650240*%
%ADD87R,0.650240X2.250440*%
%ADD88C,2.540000*%
%ADD89C,4.550800*%
G04 APERTURE END LIST*
D10*
D11*
X178500000Y-50433330D02*
X178966667Y-50299997D01*
X178633333Y-50166663D01*
X178966667Y-50033330D01*
X178500000Y-49899997D01*
X178500000Y-49699997D02*
X178966667Y-49566664D01*
X178633333Y-49433330D01*
X178966667Y-49299997D01*
X178500000Y-49166664D01*
X178500000Y-48966664D02*
X178966667Y-48833331D01*
X178633333Y-48699997D01*
X178966667Y-48566664D01*
X178500000Y-48433331D01*
X178900000Y-48166664D02*
X178933333Y-48133331D01*
X178966667Y-48166664D01*
X178933333Y-48199998D01*
X178900000Y-48166664D01*
X178966667Y-48166664D01*
X178500000Y-47833331D02*
X179200000Y-47833331D01*
X178533333Y-47833331D02*
X178500000Y-47766665D01*
X178500000Y-47633331D01*
X178533333Y-47566665D01*
X178566667Y-47533331D01*
X178633333Y-47499998D01*
X178833333Y-47499998D01*
X178900000Y-47533331D01*
X178933333Y-47566665D01*
X178966667Y-47633331D01*
X178966667Y-47766665D01*
X178933333Y-47833331D01*
X178966667Y-47199998D02*
X178500000Y-47199998D01*
X178633333Y-47199998D02*
X178566667Y-47166665D01*
X178533333Y-47133332D01*
X178500000Y-47066665D01*
X178500000Y-46999998D01*
X178966667Y-46666665D02*
X178933333Y-46733332D01*
X178900000Y-46766665D01*
X178833333Y-46799999D01*
X178633333Y-46799999D01*
X178566667Y-46766665D01*
X178533333Y-46733332D01*
X178500000Y-46666665D01*
X178500000Y-46566665D01*
X178533333Y-46499999D01*
X178566667Y-46466665D01*
X178633333Y-46433332D01*
X178833333Y-46433332D01*
X178900000Y-46466665D01*
X178933333Y-46499999D01*
X178966667Y-46566665D01*
X178966667Y-46666665D01*
X178500000Y-46199999D02*
X178966667Y-46033332D01*
X178500000Y-45866666D02*
X178966667Y-46033332D01*
X179133333Y-46099999D01*
X179166667Y-46133332D01*
X179200000Y-46199999D01*
X178933333Y-45333333D02*
X178966667Y-45399999D01*
X178966667Y-45533333D01*
X178933333Y-45599999D01*
X178866667Y-45633333D01*
X178600000Y-45633333D01*
X178533333Y-45599999D01*
X178500000Y-45533333D01*
X178500000Y-45399999D01*
X178533333Y-45333333D01*
X178600000Y-45299999D01*
X178666667Y-45299999D01*
X178733333Y-45633333D01*
X178933333Y-44699999D02*
X178966667Y-44766666D01*
X178966667Y-44899999D01*
X178933333Y-44966666D01*
X178900000Y-44999999D01*
X178833333Y-45033333D01*
X178633333Y-45033333D01*
X178566667Y-44999999D01*
X178533333Y-44966666D01*
X178500000Y-44899999D01*
X178500000Y-44766666D01*
X178533333Y-44699999D01*
X178500000Y-44499999D02*
X178500000Y-44233333D01*
X178266667Y-44399999D02*
X178866667Y-44399999D01*
X178933333Y-44366666D01*
X178966667Y-44299999D01*
X178966667Y-44233333D01*
X178966667Y-43899999D02*
X178933333Y-43966666D01*
X178900000Y-43999999D01*
X178833333Y-44033333D01*
X178633333Y-44033333D01*
X178566667Y-43999999D01*
X178533333Y-43966666D01*
X178500000Y-43899999D01*
X178500000Y-43799999D01*
X178533333Y-43733333D01*
X178566667Y-43699999D01*
X178633333Y-43666666D01*
X178833333Y-43666666D01*
X178900000Y-43699999D01*
X178933333Y-43733333D01*
X178966667Y-43799999D01*
X178966667Y-43899999D01*
X178700000Y-43366666D02*
X178700000Y-42833333D01*
X178933333Y-42199999D02*
X178966667Y-42266666D01*
X178966667Y-42399999D01*
X178933333Y-42466666D01*
X178900000Y-42499999D01*
X178833333Y-42533333D01*
X178633333Y-42533333D01*
X178566667Y-42499999D01*
X178533333Y-42466666D01*
X178500000Y-42399999D01*
X178500000Y-42266666D01*
X178533333Y-42199999D01*
X178966667Y-41899999D02*
X178500000Y-41899999D01*
X178266667Y-41899999D02*
X178300000Y-41933333D01*
X178333333Y-41899999D01*
X178300000Y-41866666D01*
X178266667Y-41899999D01*
X178333333Y-41899999D01*
X178966667Y-41266666D02*
X178600000Y-41266666D01*
X178533333Y-41300000D01*
X178500000Y-41366666D01*
X178500000Y-41500000D01*
X178533333Y-41566666D01*
X178933333Y-41266666D02*
X178966667Y-41333333D01*
X178966667Y-41500000D01*
X178933333Y-41566666D01*
X178866667Y-41600000D01*
X178800000Y-41600000D01*
X178733333Y-41566666D01*
X178700000Y-41500000D01*
X178700000Y-41333333D01*
X178666667Y-41266666D01*
X178966667Y-40633333D02*
X178600000Y-40633333D01*
X178533333Y-40666667D01*
X178500000Y-40733333D01*
X178500000Y-40866667D01*
X178533333Y-40933333D01*
X178933333Y-40633333D02*
X178966667Y-40700000D01*
X178966667Y-40866667D01*
X178933333Y-40933333D01*
X178866667Y-40966667D01*
X178800000Y-40966667D01*
X178733333Y-40933333D01*
X178700000Y-40866667D01*
X178700000Y-40700000D01*
X178666667Y-40633333D01*
X178900000Y-40300000D02*
X178933333Y-40266667D01*
X178966667Y-40300000D01*
X178933333Y-40333334D01*
X178900000Y-40300000D01*
X178966667Y-40300000D01*
X178933333Y-39666667D02*
X178966667Y-39733334D01*
X178966667Y-39866667D01*
X178933333Y-39933334D01*
X178900000Y-39966667D01*
X178833333Y-40000001D01*
X178633333Y-40000001D01*
X178566667Y-39966667D01*
X178533333Y-39933334D01*
X178500000Y-39866667D01*
X178500000Y-39733334D01*
X178533333Y-39666667D01*
X178966667Y-39266667D02*
X178933333Y-39333334D01*
X178900000Y-39366667D01*
X178833333Y-39400001D01*
X178633333Y-39400001D01*
X178566667Y-39366667D01*
X178533333Y-39333334D01*
X178500000Y-39266667D01*
X178500000Y-39166667D01*
X178533333Y-39100001D01*
X178566667Y-39066667D01*
X178633333Y-39033334D01*
X178833333Y-39033334D01*
X178900000Y-39066667D01*
X178933333Y-39100001D01*
X178966667Y-39166667D01*
X178966667Y-39266667D01*
X178966667Y-38733334D02*
X178500000Y-38733334D01*
X178566667Y-38733334D02*
X178533333Y-38700001D01*
X178500000Y-38633334D01*
X178500000Y-38533334D01*
X178533333Y-38466668D01*
X178600000Y-38433334D01*
X178966667Y-38433334D01*
X178600000Y-38433334D02*
X178533333Y-38400001D01*
X178500000Y-38333334D01*
X178500000Y-38233334D01*
X178533333Y-38166668D01*
X178600000Y-38133334D01*
X178966667Y-38133334D01*
X178900000Y-37800001D02*
X178933333Y-37766668D01*
X178966667Y-37800001D01*
X178933333Y-37833335D01*
X178900000Y-37800001D01*
X178966667Y-37800001D01*
X178966667Y-37166668D02*
X178600000Y-37166668D01*
X178533333Y-37200002D01*
X178500000Y-37266668D01*
X178500000Y-37400002D01*
X178533333Y-37466668D01*
X178933333Y-37166668D02*
X178966667Y-37233335D01*
X178966667Y-37400002D01*
X178933333Y-37466668D01*
X178866667Y-37500002D01*
X178800000Y-37500002D01*
X178733333Y-37466668D01*
X178700000Y-37400002D01*
X178700000Y-37233335D01*
X178666667Y-37166668D01*
X178966667Y-36833335D02*
X178500000Y-36833335D01*
X178633333Y-36833335D02*
X178566667Y-36800002D01*
X178533333Y-36766669D01*
X178500000Y-36700002D01*
X178500000Y-36633335D01*
D12*
X174687600Y-43057800D02*
X176237000Y-43591200D01*
X174687600Y-42295800D02*
X176237000Y-41762400D01*
X174687600Y-42295800D02*
X176237000Y-41762400D01*
X174687600Y-43057800D02*
X176237000Y-43591200D01*
X174687600Y-42930800D02*
X176237000Y-42397400D01*
X174687600Y-42930800D02*
X176237000Y-42397400D01*
D13*
X177283181Y-40527217D02*
G75*
G03X177375000Y-47025000I12791819J-3068783D01*
G01*
D14*
X176185714Y-44967857D02*
X176257143Y-45039286D01*
X176328571Y-45253572D01*
X176328571Y-45396429D01*
X176257143Y-45610714D01*
X176114286Y-45753572D01*
X175971429Y-45825000D01*
X175685714Y-45896429D01*
X175471429Y-45896429D01*
X175185714Y-45825000D01*
X175042857Y-45753572D01*
X174900000Y-45610714D01*
X174828571Y-45396429D01*
X174828571Y-45253572D01*
X174900000Y-45039286D01*
X174971429Y-44967857D01*
X176328571Y-44325000D02*
X174828571Y-44325000D01*
D10*
X143161905Y-64076190D02*
X142780952Y-64342857D01*
X143161905Y-64533333D02*
X142361905Y-64533333D01*
X142361905Y-64228571D01*
X142400000Y-64152380D01*
X142438095Y-64114285D01*
X142514286Y-64076190D01*
X142628571Y-64076190D01*
X142704762Y-64114285D01*
X142742857Y-64152380D01*
X142780952Y-64228571D01*
X142780952Y-64533333D01*
X143161905Y-63809523D02*
X142628571Y-63390476D01*
X142628571Y-63809523D02*
X143161905Y-63390476D01*
X142461905Y-63077381D02*
X142461905Y-62620238D01*
X143261905Y-62848809D02*
X142461905Y-62848809D01*
X143261905Y-62429761D02*
X142728571Y-62010714D01*
X142728571Y-62429761D02*
X143261905Y-62010714D01*
X175344048Y-65686905D02*
X175496429Y-65686905D01*
X175572620Y-65725000D01*
X175648810Y-65801190D01*
X175686905Y-65953571D01*
X175686905Y-66220238D01*
X175648810Y-66372619D01*
X175572620Y-66448810D01*
X175496429Y-66486905D01*
X175344048Y-66486905D01*
X175267858Y-66448810D01*
X175191667Y-66372619D01*
X175153572Y-66220238D01*
X175153572Y-65953571D01*
X175191667Y-65801190D01*
X175267858Y-65725000D01*
X175344048Y-65686905D01*
X175915476Y-65686905D02*
X176372619Y-65686905D01*
X176144048Y-66486905D02*
X176144048Y-65686905D01*
X177058334Y-65725000D02*
X176982143Y-65686905D01*
X176867858Y-65686905D01*
X176753572Y-65725000D01*
X176677381Y-65801190D01*
X176639286Y-65877381D01*
X176601191Y-66029762D01*
X176601191Y-66144048D01*
X176639286Y-66296429D01*
X176677381Y-66372619D01*
X176753572Y-66448810D01*
X176867858Y-66486905D01*
X176944048Y-66486905D01*
X177058334Y-66448810D01*
X177096429Y-66410714D01*
X177096429Y-66144048D01*
X176944048Y-66144048D01*
X172442857Y-51336905D02*
X172442857Y-51908333D01*
X172404761Y-52022619D01*
X172328571Y-52098810D01*
X172214285Y-52136905D01*
X172138095Y-52136905D01*
X172709523Y-51336905D02*
X173166666Y-51336905D01*
X172938095Y-52136905D02*
X172938095Y-51336905D01*
X173395238Y-51908333D02*
X173776190Y-51908333D01*
X173319047Y-52136905D02*
X173585714Y-51336905D01*
X173852381Y-52136905D01*
X174538095Y-51375000D02*
X174461904Y-51336905D01*
X174347619Y-51336905D01*
X174233333Y-51375000D01*
X174157142Y-51451190D01*
X174119047Y-51527381D01*
X174080952Y-51679762D01*
X174080952Y-51794048D01*
X174119047Y-51946429D01*
X174157142Y-52022619D01*
X174233333Y-52098810D01*
X174347619Y-52136905D01*
X174423809Y-52136905D01*
X174538095Y-52098810D01*
X174576190Y-52060714D01*
X174576190Y-51794048D01*
X174423809Y-51794048D01*
X174919047Y-51832143D02*
X175528571Y-51832143D01*
X175909523Y-52136905D02*
X175909523Y-51336905D01*
X176099999Y-51336905D01*
X176214285Y-51375000D01*
X176290476Y-51451190D01*
X176328571Y-51527381D01*
X176366666Y-51679762D01*
X176366666Y-51794048D01*
X176328571Y-51946429D01*
X176290476Y-52022619D01*
X176214285Y-52098810D01*
X176099999Y-52136905D01*
X175909523Y-52136905D01*
X177014285Y-52098810D02*
X176938095Y-52136905D01*
X176785714Y-52136905D01*
X176709523Y-52098810D01*
X176671428Y-52022619D01*
X176671428Y-51717857D01*
X176709523Y-51641667D01*
X176785714Y-51603571D01*
X176938095Y-51603571D01*
X177014285Y-51641667D01*
X177052380Y-51717857D01*
X177052380Y-51794048D01*
X176671428Y-51870238D01*
X177395237Y-52136905D02*
X177395237Y-51336905D01*
X177395237Y-51641667D02*
X177471428Y-51603571D01*
X177623809Y-51603571D01*
X177699999Y-51641667D01*
X177738094Y-51679762D01*
X177776190Y-51755952D01*
X177776190Y-51984524D01*
X177738094Y-52060714D01*
X177699999Y-52098810D01*
X177623809Y-52136905D01*
X177471428Y-52136905D01*
X177395237Y-52098810D01*
X178461904Y-51603571D02*
X178461904Y-52136905D01*
X178119047Y-51603571D02*
X178119047Y-52022619D01*
X178157142Y-52098810D01*
X178233333Y-52136905D01*
X178347619Y-52136905D01*
X178423809Y-52098810D01*
X178461904Y-52060714D01*
X179185714Y-51603571D02*
X179185714Y-52251190D01*
X179147619Y-52327381D01*
X179109524Y-52365476D01*
X179033333Y-52403571D01*
X178919048Y-52403571D01*
X178842857Y-52365476D01*
X179185714Y-52098810D02*
X179109524Y-52136905D01*
X178957143Y-52136905D01*
X178880952Y-52098810D01*
X178842857Y-52060714D01*
X178804762Y-51984524D01*
X178804762Y-51755952D01*
X178842857Y-51679762D01*
X178880952Y-51641667D01*
X178957143Y-51603571D01*
X179109524Y-51603571D01*
X179185714Y-51641667D01*
X166357143Y-69161905D02*
X166852381Y-69161905D01*
X166585714Y-69466667D01*
X166700000Y-69466667D01*
X166776190Y-69504762D01*
X166814286Y-69542857D01*
X166852381Y-69619048D01*
X166852381Y-69809524D01*
X166814286Y-69885714D01*
X166776190Y-69923810D01*
X166700000Y-69961905D01*
X166471428Y-69961905D01*
X166395238Y-69923810D01*
X166357143Y-69885714D01*
X167195238Y-69885714D02*
X167233333Y-69923810D01*
X167195238Y-69961905D01*
X167157143Y-69923810D01*
X167195238Y-69885714D01*
X167195238Y-69961905D01*
X167500000Y-69161905D02*
X167995238Y-69161905D01*
X167728571Y-69466667D01*
X167842857Y-69466667D01*
X167919047Y-69504762D01*
X167957143Y-69542857D01*
X167995238Y-69619048D01*
X167995238Y-69809524D01*
X167957143Y-69885714D01*
X167919047Y-69923810D01*
X167842857Y-69961905D01*
X167614285Y-69961905D01*
X167538095Y-69923810D01*
X167500000Y-69885714D01*
X168261905Y-69428571D02*
X168452381Y-69961905D01*
X168642857Y-69428571D01*
X164885715Y-69136905D02*
X164504762Y-69136905D01*
X164466667Y-69517857D01*
X164504762Y-69479762D01*
X164580953Y-69441667D01*
X164771429Y-69441667D01*
X164847619Y-69479762D01*
X164885715Y-69517857D01*
X164923810Y-69594048D01*
X164923810Y-69784524D01*
X164885715Y-69860714D01*
X164847619Y-69898810D01*
X164771429Y-69936905D01*
X164580953Y-69936905D01*
X164504762Y-69898810D01*
X164466667Y-69860714D01*
X165190477Y-69403571D02*
X165380953Y-69936905D01*
X165571429Y-69403571D01*
X163129762Y-50901905D02*
X162863095Y-50520952D01*
X162672619Y-50901905D02*
X162672619Y-50101905D01*
X162977381Y-50101905D01*
X163053572Y-50140000D01*
X163091667Y-50178095D01*
X163129762Y-50254286D01*
X163129762Y-50368571D01*
X163091667Y-50444762D01*
X163053572Y-50482857D01*
X162977381Y-50520952D01*
X162672619Y-50520952D01*
X163472619Y-50825714D02*
X163510714Y-50863810D01*
X163472619Y-50901905D01*
X163434524Y-50863810D01*
X163472619Y-50825714D01*
X163472619Y-50901905D01*
X163739285Y-50368571D02*
X164044047Y-50368571D01*
X163853571Y-50101905D02*
X163853571Y-50787619D01*
X163891666Y-50863810D01*
X163967857Y-50901905D01*
X164044047Y-50901905D01*
X164615476Y-50863810D02*
X164539286Y-50901905D01*
X164386905Y-50901905D01*
X164310714Y-50863810D01*
X164272619Y-50787619D01*
X164272619Y-50482857D01*
X164310714Y-50406667D01*
X164386905Y-50368571D01*
X164539286Y-50368571D01*
X164615476Y-50406667D01*
X164653571Y-50482857D01*
X164653571Y-50559048D01*
X164272619Y-50635238D01*
X164996428Y-50901905D02*
X164996428Y-50368571D01*
X164996428Y-50520952D02*
X165034523Y-50444762D01*
X165072619Y-50406667D01*
X165148809Y-50368571D01*
X165225000Y-50368571D01*
X165491666Y-50901905D02*
X165491666Y-50368571D01*
X165491666Y-50444762D02*
X165529761Y-50406667D01*
X165605952Y-50368571D01*
X165720238Y-50368571D01*
X165796428Y-50406667D01*
X165834523Y-50482857D01*
X165834523Y-50901905D01*
X165834523Y-50482857D02*
X165872619Y-50406667D01*
X165948809Y-50368571D01*
X166063095Y-50368571D01*
X166139285Y-50406667D01*
X166177380Y-50482857D01*
X166177380Y-50901905D01*
X163148809Y-52171905D02*
X162882142Y-51790952D01*
X162691666Y-52171905D02*
X162691666Y-51371905D01*
X162996428Y-51371905D01*
X163072619Y-51410000D01*
X163110714Y-51448095D01*
X163148809Y-51524286D01*
X163148809Y-51638571D01*
X163110714Y-51714762D01*
X163072619Y-51752857D01*
X162996428Y-51790952D01*
X162691666Y-51790952D01*
X163453571Y-52133810D02*
X163567857Y-52171905D01*
X163758333Y-52171905D01*
X163834523Y-52133810D01*
X163872619Y-52095714D01*
X163910714Y-52019524D01*
X163910714Y-51943333D01*
X163872619Y-51867143D01*
X163834523Y-51829048D01*
X163758333Y-51790952D01*
X163605952Y-51752857D01*
X163529761Y-51714762D01*
X163491666Y-51676667D01*
X163453571Y-51600476D01*
X163453571Y-51524286D01*
X163491666Y-51448095D01*
X163529761Y-51410000D01*
X163605952Y-51371905D01*
X163796428Y-51371905D01*
X163910714Y-51410000D01*
X164596428Y-51638571D02*
X164596428Y-52171905D01*
X164405952Y-51333810D02*
X164215476Y-51905238D01*
X164710714Y-51905238D01*
X165129762Y-51714762D02*
X165053571Y-51676667D01*
X165015476Y-51638571D01*
X164977381Y-51562381D01*
X164977381Y-51524286D01*
X165015476Y-51448095D01*
X165053571Y-51410000D01*
X165129762Y-51371905D01*
X165282143Y-51371905D01*
X165358333Y-51410000D01*
X165396429Y-51448095D01*
X165434524Y-51524286D01*
X165434524Y-51562381D01*
X165396429Y-51638571D01*
X165358333Y-51676667D01*
X165282143Y-51714762D01*
X165129762Y-51714762D01*
X165053571Y-51752857D01*
X165015476Y-51790952D01*
X164977381Y-51867143D01*
X164977381Y-52019524D01*
X165015476Y-52095714D01*
X165053571Y-52133810D01*
X165129762Y-52171905D01*
X165282143Y-52171905D01*
X165358333Y-52133810D01*
X165396429Y-52095714D01*
X165434524Y-52019524D01*
X165434524Y-51867143D01*
X165396429Y-51790952D01*
X165358333Y-51752857D01*
X165282143Y-51714762D01*
X166158334Y-51371905D02*
X165777381Y-51371905D01*
X165739286Y-51752857D01*
X165777381Y-51714762D01*
X165853572Y-51676667D01*
X166044048Y-51676667D01*
X166120238Y-51714762D01*
X166158334Y-51752857D01*
X166196429Y-51829048D01*
X166196429Y-52019524D01*
X166158334Y-52095714D01*
X166120238Y-52133810D01*
X166044048Y-52171905D01*
X165853572Y-52171905D01*
X165777381Y-52133810D01*
X165739286Y-52095714D01*
D13*
X56478600Y-66168000D02*
X56478600Y-74677000D01*
X56478600Y-74677000D02*
X63082600Y-74677000D01*
X63082600Y-74677000D02*
X63082600Y-66168000D01*
X56478600Y-66168000D02*
X63082600Y-66168000D01*
D12*
X60517200Y-70587600D02*
X59983800Y-72137000D01*
X60644200Y-70587600D02*
X61177600Y-72137000D01*
X61279200Y-70587600D02*
X61812600Y-72137000D01*
D14*
X58795543Y-72088514D02*
X58724114Y-72159943D01*
X58509828Y-72231371D01*
X58366971Y-72231371D01*
X58152686Y-72159943D01*
X58009828Y-72017086D01*
X57938400Y-71874229D01*
X57866971Y-71588514D01*
X57866971Y-71374229D01*
X57938400Y-71088514D01*
X58009828Y-70945657D01*
X58152686Y-70802800D01*
X58366971Y-70731371D01*
X58509828Y-70731371D01*
X58724114Y-70802800D01*
X58795543Y-70874229D01*
X59438400Y-72231371D02*
X59438400Y-70731371D01*
D10*
X53579762Y-49876905D02*
X53313095Y-49495952D01*
X53122619Y-49876905D02*
X53122619Y-49076905D01*
X53427381Y-49076905D01*
X53503572Y-49115000D01*
X53541667Y-49153095D01*
X53579762Y-49229286D01*
X53579762Y-49343571D01*
X53541667Y-49419762D01*
X53503572Y-49457857D01*
X53427381Y-49495952D01*
X53122619Y-49495952D01*
X53922619Y-49800714D02*
X53960714Y-49838810D01*
X53922619Y-49876905D01*
X53884524Y-49838810D01*
X53922619Y-49800714D01*
X53922619Y-49876905D01*
X54189285Y-49343571D02*
X54494047Y-49343571D01*
X54303571Y-49076905D02*
X54303571Y-49762619D01*
X54341666Y-49838810D01*
X54417857Y-49876905D01*
X54494047Y-49876905D01*
X55065476Y-49838810D02*
X54989286Y-49876905D01*
X54836905Y-49876905D01*
X54760714Y-49838810D01*
X54722619Y-49762619D01*
X54722619Y-49457857D01*
X54760714Y-49381667D01*
X54836905Y-49343571D01*
X54989286Y-49343571D01*
X55065476Y-49381667D01*
X55103571Y-49457857D01*
X55103571Y-49534048D01*
X54722619Y-49610238D01*
X55446428Y-49876905D02*
X55446428Y-49343571D01*
X55446428Y-49495952D02*
X55484523Y-49419762D01*
X55522619Y-49381667D01*
X55598809Y-49343571D01*
X55675000Y-49343571D01*
X55941666Y-49876905D02*
X55941666Y-49343571D01*
X55941666Y-49419762D02*
X55979761Y-49381667D01*
X56055952Y-49343571D01*
X56170238Y-49343571D01*
X56246428Y-49381667D01*
X56284523Y-49457857D01*
X56284523Y-49876905D01*
X56284523Y-49457857D02*
X56322619Y-49381667D01*
X56398809Y-49343571D01*
X56513095Y-49343571D01*
X56589285Y-49381667D01*
X56627380Y-49457857D01*
X56627380Y-49876905D01*
X54360715Y-51070714D02*
X54322620Y-51108810D01*
X54208334Y-51146905D01*
X54132144Y-51146905D01*
X54017858Y-51108810D01*
X53941667Y-51032619D01*
X53903572Y-50956429D01*
X53865477Y-50804048D01*
X53865477Y-50689762D01*
X53903572Y-50537381D01*
X53941667Y-50461190D01*
X54017858Y-50385000D01*
X54132144Y-50346905D01*
X54208334Y-50346905D01*
X54322620Y-50385000D01*
X54360715Y-50423095D01*
X54665477Y-50918333D02*
X55046429Y-50918333D01*
X54589286Y-51146905D02*
X54855953Y-50346905D01*
X55122620Y-51146905D01*
X55389286Y-51146905D02*
X55389286Y-50346905D01*
X55846429Y-51146905D01*
X55846429Y-50346905D01*
D11*
X76213510Y-62241290D02*
X76046843Y-62003195D01*
X75927796Y-62241290D02*
X75927796Y-61741290D01*
X76118272Y-61741290D01*
X76165891Y-61765100D01*
X76189700Y-61788910D01*
X76213510Y-61836529D01*
X76213510Y-61907957D01*
X76189700Y-61955576D01*
X76165891Y-61979386D01*
X76118272Y-62003195D01*
X75927796Y-62003195D01*
X76427796Y-61979386D02*
X76594462Y-61979386D01*
X76665891Y-62241290D02*
X76427796Y-62241290D01*
X76427796Y-61741290D01*
X76665891Y-61741290D01*
X76856367Y-62217481D02*
X76927796Y-62241290D01*
X77046843Y-62241290D01*
X77094462Y-62217481D01*
X77118272Y-62193671D01*
X77142081Y-62146052D01*
X77142081Y-62098433D01*
X77118272Y-62050814D01*
X77094462Y-62027005D01*
X77046843Y-62003195D01*
X76951605Y-61979386D01*
X76903986Y-61955576D01*
X76880177Y-61931767D01*
X76856367Y-61884148D01*
X76856367Y-61836529D01*
X76880177Y-61788910D01*
X76903986Y-61765100D01*
X76951605Y-61741290D01*
X77070653Y-61741290D01*
X77142081Y-61765100D01*
X77356367Y-61979386D02*
X77523033Y-61979386D01*
X77594462Y-62241290D02*
X77356367Y-62241290D01*
X77356367Y-61741290D01*
X77594462Y-61741290D01*
X77737319Y-61741290D02*
X78023033Y-61741290D01*
X77880176Y-62241290D02*
X77880176Y-61741290D01*
D15*
X68948810Y-62127381D02*
X68948810Y-61127381D01*
X69996429Y-62032143D02*
X69948810Y-62079762D01*
X69805953Y-62127381D01*
X69710715Y-62127381D01*
X69567857Y-62079762D01*
X69472619Y-61984524D01*
X69425000Y-61889286D01*
X69377381Y-61698810D01*
X69377381Y-61555952D01*
X69425000Y-61365476D01*
X69472619Y-61270238D01*
X69567857Y-61175000D01*
X69710715Y-61127381D01*
X69805953Y-61127381D01*
X69948810Y-61175000D01*
X69996429Y-61222619D01*
X70377381Y-62079762D02*
X70520238Y-62127381D01*
X70758334Y-62127381D01*
X70853572Y-62079762D01*
X70901191Y-62032143D01*
X70948810Y-61936905D01*
X70948810Y-61841667D01*
X70901191Y-61746429D01*
X70853572Y-61698810D01*
X70758334Y-61651190D01*
X70567857Y-61603571D01*
X70472619Y-61555952D01*
X70425000Y-61508333D01*
X70377381Y-61413095D01*
X70377381Y-61317857D01*
X70425000Y-61222619D01*
X70472619Y-61175000D01*
X70567857Y-61127381D01*
X70805953Y-61127381D01*
X70948810Y-61175000D01*
X71377381Y-62127381D02*
X71377381Y-61127381D01*
X71758334Y-61127381D01*
X71853572Y-61175000D01*
X71901191Y-61222619D01*
X71948810Y-61317857D01*
X71948810Y-61460714D01*
X71901191Y-61555952D01*
X71853572Y-61603571D01*
X71758334Y-61651190D01*
X71377381Y-61651190D01*
D14*
X58795543Y-72088514D02*
X58724114Y-72159943D01*
X58509828Y-72231371D01*
X58366971Y-72231371D01*
X58152686Y-72159943D01*
X58009828Y-72017086D01*
X57938400Y-71874229D01*
X57866971Y-71588514D01*
X57866971Y-71374229D01*
X57938400Y-71088514D01*
X58009828Y-70945657D01*
X58152686Y-70802800D01*
X58366971Y-70731371D01*
X58509828Y-70731371D01*
X58724114Y-70802800D01*
X58795543Y-70874229D01*
X59438400Y-72231371D02*
X59438400Y-70731371D01*
D12*
X61279200Y-70587600D02*
X61812600Y-72137000D01*
X60644200Y-70587600D02*
X61177600Y-72137000D01*
D13*
X62976383Y-73315181D02*
G75*
G03X56478600Y-73407000I-3068783J-12791819D01*
G01*
D12*
X60517200Y-70587600D02*
X59983800Y-72137000D01*
D13*
X56478600Y-66168000D02*
X63082600Y-66168000D01*
X63082600Y-74677000D02*
X63082600Y-66168000D01*
X56478600Y-74677000D02*
X63082600Y-74677000D01*
X56478600Y-66168000D02*
X56478600Y-74677000D01*
D10*
X83583605Y-74550000D02*
G75*
G03X83583605Y-74550000I-179605J0D01*
G01*
X83150000Y-79376000D02*
X83150000Y-74931000D01*
X83150000Y-74931000D02*
X78197000Y-74931000D01*
X78197000Y-74931000D02*
X78197000Y-79376000D01*
X78197000Y-79376000D02*
X83150000Y-79376000D01*
D16*
X41843500Y-65799500D02*
X34223500Y-65799500D01*
X41843500Y-65799500D02*
X34223500Y-65799500D01*
X41843500Y-65799500D02*
X34223500Y-65799500D01*
X41843500Y-65799500D02*
X34223500Y-65799500D01*
X51843500Y-40499500D02*
X44223500Y-40499500D01*
X51843500Y-40499500D02*
X44223500Y-40499500D01*
X51843500Y-40499500D02*
X44223500Y-40499500D01*
X51843500Y-40499500D02*
X44223500Y-40499500D01*
X48843500Y-40499500D02*
X41223500Y-40499500D01*
X48843500Y-40499500D02*
X41223500Y-40499500D01*
X48843500Y-40499500D02*
X41223500Y-40499500D01*
X48843500Y-40499500D02*
X41223500Y-40499500D01*
X41843500Y-47499500D02*
X34223500Y-47499500D01*
X41843500Y-47499500D02*
X34223500Y-47499500D01*
X41843500Y-47499500D02*
X34223500Y-47499500D01*
X44223500Y-72787500D02*
X51843500Y-72787500D01*
X44223500Y-72787500D02*
X51843500Y-72787500D01*
X44223500Y-72787500D02*
X51843500Y-72787500D01*
X44223500Y-72787500D02*
X51843500Y-72787500D01*
X41223500Y-72787500D02*
X48843500Y-72787500D01*
X41223500Y-72787500D02*
X48843500Y-72787500D01*
X41223500Y-72787500D02*
X48843500Y-72787500D01*
X52003500Y-72899500D02*
X52003500Y-40387500D01*
X41223500Y-40387500D02*
X41223500Y-72899500D01*
X41223500Y-72787500D02*
X48843500Y-72787500D01*
X41843500Y-65787500D02*
X41843500Y-47499500D01*
X41843500Y-47499500D02*
X34223500Y-47499500D01*
X33587500Y-64263500D02*
X33587500Y-49023500D01*
D10*
X86388000Y-54185000D02*
G75*
G03X86388000Y-54185000I-2200000J0D01*
G01*
X81388000Y-51285000D02*
X87138000Y-51285000D01*
X87138000Y-51285000D02*
X87138000Y-57285000D01*
X87138000Y-57285000D02*
X81388000Y-57285000D01*
X81388000Y-57285000D02*
X81388000Y-51285000D01*
X120362805Y-82195400D02*
G75*
G03X120362805Y-82195400I-179605J0D01*
G01*
X115357200Y-81941400D02*
X119802200Y-81941400D01*
X119802200Y-81941400D02*
X119802200Y-76988400D01*
X119802200Y-76988400D02*
X115357200Y-76988400D01*
X115357200Y-76988400D02*
X115357200Y-81941400D01*
D17*
X111090000Y-80616000D02*
X111090000Y-82170000D01*
X111090000Y-82170000D02*
X107534000Y-82170000D01*
X107534000Y-82170000D02*
X107534000Y-80616000D01*
X104302000Y-80616000D02*
X114322000Y-80616000D01*
X104302000Y-100996000D02*
X104302000Y-80616000D01*
X114322000Y-100996000D02*
X114322000Y-80616000D01*
X104302000Y-100996000D02*
X114322000Y-100996000D01*
X167007000Y-93668000D02*
X156593000Y-93668000D01*
X167007000Y-93668000D02*
X156593000Y-93668000D01*
X167007000Y-103320000D02*
X167007000Y-93668000D01*
X154593000Y-95918000D02*
X154593000Y-105570000D01*
X154593000Y-93668000D02*
X154593000Y-103320000D01*
X155355000Y-106332000D02*
X164245000Y-106332000D01*
X154593000Y-105570000D02*
X155355000Y-106332000D01*
X154593000Y-105570000D02*
X155355000Y-106332000D01*
X155355000Y-106332000D02*
X164245000Y-106332000D01*
X157605000Y-106332000D02*
X166495000Y-106332000D01*
X165007000Y-93668000D02*
X154593000Y-93668000D01*
D10*
X167009871Y-100125000D02*
G75*
G03X167009871Y-100125000I-6209871J0D01*
G01*
D17*
X159784000Y-94049000D02*
X161816000Y-94049000D01*
X162197000Y-94176000D02*
X159276000Y-94176000D01*
X159022000Y-94303000D02*
X162578000Y-94303000D01*
X162959000Y-94430000D02*
X158641000Y-94430000D01*
X158387000Y-94557000D02*
X163213000Y-94557000D01*
X163340000Y-94684000D02*
X158260000Y-94684000D01*
X165007000Y-93668000D02*
X154593000Y-93668000D01*
X154593000Y-93668000D02*
X154593000Y-103320000D01*
X157605000Y-106332000D02*
X166495000Y-106332000D01*
X166245000Y-106332000D02*
X167007000Y-105570000D01*
X167007000Y-105570000D02*
X167007000Y-95918000D01*
X163050000Y-107947000D02*
X163050000Y-107185000D01*
X163431000Y-107566000D02*
X162669000Y-107566000D01*
D18*
X154746500Y-65406500D02*
X154746500Y-64644500D01*
X154746500Y-64644500D02*
X156270500Y-62358500D01*
X156270500Y-62358500D02*
X160334500Y-62358500D01*
X160334500Y-62358500D02*
X161858500Y-64644500D01*
X161858500Y-64644500D02*
X161858500Y-65406500D01*
D16*
X34039100Y-92139500D02*
X45977100Y-92139500D01*
X49152100Y-92139500D02*
X59058100Y-92139500D01*
X34039100Y-76137500D02*
X45977100Y-76137500D01*
X49152100Y-76137500D02*
X59058100Y-76137500D01*
X59058100Y-92139500D02*
X59058100Y-91123500D01*
X59058100Y-82741500D02*
X59058100Y-86043500D01*
X59058100Y-76137500D02*
X59058100Y-77407500D01*
X33993380Y-76137500D02*
X33993380Y-92139500D01*
D19*
X66931080Y-91510080D02*
X66031920Y-91510080D01*
X66031920Y-91510080D02*
X66031920Y-91908860D01*
X66931080Y-91908860D02*
X66031920Y-91908860D01*
X66931080Y-91510080D02*
X66931080Y-91908860D01*
X66931080Y-90212140D02*
X66031920Y-90212140D01*
X66031920Y-90212140D02*
X66031920Y-90610920D01*
X66931080Y-90610920D02*
X66031920Y-90610920D01*
X66931080Y-90212140D02*
X66931080Y-90610920D01*
X66931080Y-91060500D02*
X66781220Y-91060500D01*
X66781220Y-91060500D02*
X66781220Y-91360220D01*
X66931080Y-91360220D02*
X66781220Y-91360220D01*
X66931080Y-91060500D02*
X66931080Y-91360220D01*
X66181780Y-91060500D02*
X66031920Y-91060500D01*
X66031920Y-91060500D02*
X66031920Y-91360220D01*
X66181780Y-91360220D02*
X66031920Y-91360220D01*
X66181780Y-91060500D02*
X66181780Y-91360220D01*
X66631360Y-91060500D02*
X66331640Y-91060500D01*
X66331640Y-91060500D02*
X66331640Y-91360220D01*
X66631360Y-91360220D02*
X66331640Y-91360220D01*
X66631360Y-91060500D02*
X66631360Y-91360220D01*
D20*
X66880280Y-91510080D02*
X66880280Y-90610920D01*
X66082720Y-91510080D02*
X66082720Y-90610920D01*
D17*
X79086000Y-80616000D02*
X79086000Y-82170000D01*
X79086000Y-82170000D02*
X75530000Y-82170000D01*
X75530000Y-82170000D02*
X75530000Y-80616000D01*
X72298000Y-80616000D02*
X82318000Y-80616000D01*
X72298000Y-100996000D02*
X72298000Y-80616000D01*
X82318000Y-100996000D02*
X82318000Y-80616000D01*
X72298000Y-100996000D02*
X82318000Y-100996000D01*
D19*
X64899080Y-91510080D02*
X63999920Y-91510080D01*
X63999920Y-91510080D02*
X63999920Y-91908860D01*
X64899080Y-91908860D02*
X63999920Y-91908860D01*
X64899080Y-91510080D02*
X64899080Y-91908860D01*
X64899080Y-90212140D02*
X63999920Y-90212140D01*
X63999920Y-90212140D02*
X63999920Y-90610920D01*
X64899080Y-90610920D02*
X63999920Y-90610920D01*
X64899080Y-90212140D02*
X64899080Y-90610920D01*
X64899080Y-91060500D02*
X64749220Y-91060500D01*
X64749220Y-91060500D02*
X64749220Y-91360220D01*
X64899080Y-91360220D02*
X64749220Y-91360220D01*
X64899080Y-91060500D02*
X64899080Y-91360220D01*
X64149780Y-91060500D02*
X63999920Y-91060500D01*
X63999920Y-91060500D02*
X63999920Y-91360220D01*
X64149780Y-91360220D02*
X63999920Y-91360220D01*
X64149780Y-91060500D02*
X64149780Y-91360220D01*
X64599360Y-91060500D02*
X64299640Y-91060500D01*
X64299640Y-91060500D02*
X64299640Y-91360220D01*
X64599360Y-91360220D02*
X64299640Y-91360220D01*
X64599360Y-91060500D02*
X64599360Y-91360220D01*
D20*
X64848280Y-91510080D02*
X64848280Y-90610920D01*
X64050720Y-91510080D02*
X64050720Y-90610920D01*
D17*
X100422000Y-80616000D02*
X100422000Y-82170000D01*
X100422000Y-82170000D02*
X96866000Y-82170000D01*
X96866000Y-82170000D02*
X96866000Y-80616000D01*
X93634000Y-80616000D02*
X103654000Y-80616000D01*
X93634000Y-100996000D02*
X93634000Y-80616000D01*
X103654000Y-100996000D02*
X103654000Y-80616000D01*
X93634000Y-100996000D02*
X103654000Y-100996000D01*
X89754000Y-80616000D02*
X89754000Y-82170000D01*
X89754000Y-82170000D02*
X86198000Y-82170000D01*
X86198000Y-82170000D02*
X86198000Y-80616000D01*
X82966000Y-80616000D02*
X92986000Y-80616000D01*
X82966000Y-100996000D02*
X82966000Y-80616000D01*
X92986000Y-100996000D02*
X92986000Y-80616000D01*
X82966000Y-100996000D02*
X92986000Y-100996000D01*
D16*
X146110500Y-32386500D02*
X146110500Y-40006500D01*
X130870500Y-32386500D02*
X130870500Y-40006500D01*
X146110500Y-33656500D02*
X130870500Y-33656500D01*
X146110500Y-40006500D02*
X130870500Y-40006500D01*
X146110500Y-32386500D02*
X130870500Y-32386500D01*
D17*
X65331900Y-73241900D02*
X66144700Y-73241900D01*
X66119300Y-72124300D02*
X65331900Y-72124300D01*
X66144700Y-71870300D02*
X66144700Y-73495900D01*
X66144700Y-73495900D02*
X65331900Y-73495900D01*
X65331900Y-73495900D02*
X65331900Y-71870300D01*
X65331900Y-71870300D02*
X66144700Y-71870300D01*
X47841200Y-96518600D02*
X47841200Y-97331400D01*
X48958800Y-97306000D02*
X48958800Y-96518600D01*
X49212800Y-97331400D02*
X47587200Y-97331400D01*
X47587200Y-97331400D02*
X47587200Y-96518600D01*
X47587200Y-96518600D02*
X49212800Y-96518600D01*
X49212800Y-96518600D02*
X49212800Y-97331400D01*
X169510000Y-95124000D02*
X169510000Y-96648000D01*
X169637000Y-97029000D02*
X169637000Y-94743000D01*
X169764000Y-94489000D02*
X169764000Y-97283000D01*
X169891000Y-97537000D02*
X169891000Y-94235000D01*
X170018000Y-94108000D02*
X170018000Y-97664000D01*
X175479000Y-95886000D02*
G75*
G03X175479000Y-95886000I-3048000J0D01*
G01*
X169129000Y-92584000D02*
X169129000Y-99188000D01*
X169129000Y-99188000D02*
X174971000Y-99188000D01*
X174971000Y-99188000D02*
X175733000Y-98426000D01*
X175733000Y-98426000D02*
X175733000Y-93346000D01*
X175733000Y-93346000D02*
X174971000Y-92584000D01*
X174971000Y-92584000D02*
X169129000Y-92584000D01*
X174590000Y-95886000D02*
X173828000Y-95886000D01*
X174209000Y-95505000D02*
X174209000Y-96267000D01*
X147361200Y-42774600D02*
X148174000Y-42774600D01*
X148148600Y-41657000D02*
X147361200Y-41657000D01*
X148174000Y-41403000D02*
X148174000Y-43028600D01*
X148174000Y-43028600D02*
X147361200Y-43028600D01*
X147361200Y-43028600D02*
X147361200Y-41403000D01*
X147361200Y-41403000D02*
X148174000Y-41403000D01*
X75072800Y-59335400D02*
X74260000Y-59335400D01*
X74285400Y-60453000D02*
X75072800Y-60453000D01*
X74260000Y-60707000D02*
X74260000Y-59081400D01*
X74260000Y-59081400D02*
X75072800Y-59081400D01*
X75072800Y-59081400D02*
X75072800Y-60707000D01*
X75072800Y-60707000D02*
X74260000Y-60707000D01*
X62652200Y-56058800D02*
X62652200Y-55246000D01*
X61534600Y-55271400D02*
X61534600Y-56058800D01*
X61280600Y-55246000D02*
X62906200Y-55246000D01*
X62906200Y-55246000D02*
X62906200Y-56058800D01*
X62906200Y-56058800D02*
X61280600Y-56058800D01*
X61280600Y-56058800D02*
X61280600Y-55246000D01*
X58283400Y-61951600D02*
X58283400Y-62764400D01*
X59401000Y-62739000D02*
X59401000Y-61951600D01*
X59655000Y-62764400D02*
X58029400Y-62764400D01*
X58029400Y-62764400D02*
X58029400Y-61951600D01*
X58029400Y-61951600D02*
X59655000Y-61951600D01*
X59655000Y-61951600D02*
X59655000Y-62764400D01*
X62687760Y-58095880D02*
X62687760Y-57283080D01*
X61570160Y-57308480D02*
X61570160Y-58095880D01*
X61316160Y-57283080D02*
X62941760Y-57283080D01*
X62941760Y-57283080D02*
X62941760Y-58095880D01*
X62941760Y-58095880D02*
X61316160Y-58095880D01*
X61316160Y-58095880D02*
X61316160Y-57283080D01*
D10*
X65116000Y-50166000D02*
X65116000Y-50928000D01*
X65116000Y-50166000D02*
X65116000Y-49912000D01*
X65116000Y-49912000D02*
X63084000Y-49912000D01*
X63084000Y-49912000D02*
X63084000Y-50928000D01*
X63100000Y-50190000D02*
X63100000Y-50940000D01*
X65100000Y-50190000D02*
X65100000Y-50940000D01*
D17*
X63287200Y-52833000D02*
X64912800Y-52833000D01*
X64912800Y-50547000D02*
X63287200Y-50547000D01*
X64912800Y-50089800D02*
X63287200Y-50089800D01*
X63287200Y-50089800D02*
X63287200Y-53290200D01*
X63287200Y-53290200D02*
X64912800Y-53290200D01*
X64912800Y-53290200D02*
X64912800Y-50089800D01*
X59705800Y-54636400D02*
X59705800Y-53823600D01*
X58588200Y-53849000D02*
X58588200Y-54636400D01*
X58334200Y-53823600D02*
X59959800Y-53823600D01*
X59959800Y-53823600D02*
X59959800Y-54636400D01*
X59959800Y-54636400D02*
X58334200Y-54636400D01*
X58334200Y-54636400D02*
X58334200Y-53823600D01*
X122088200Y-81433400D02*
X122088200Y-80620600D01*
X120970600Y-80646000D02*
X120970600Y-81433400D01*
X120716600Y-80620600D02*
X122342200Y-80620600D01*
X122342200Y-80620600D02*
X122342200Y-81433400D01*
X122342200Y-81433400D02*
X120716600Y-81433400D01*
X120716600Y-81433400D02*
X120716600Y-80620600D01*
D10*
X82921400Y-44984400D02*
X83683400Y-44984400D01*
X82921400Y-44984400D02*
X82667400Y-44984400D01*
X82667400Y-44984400D02*
X82667400Y-47016400D01*
X82667400Y-47016400D02*
X83683400Y-47016400D01*
X82945400Y-47000400D02*
X83695400Y-47000400D01*
X82945400Y-45000400D02*
X83695400Y-45000400D01*
D17*
X85588400Y-46813200D02*
X85588400Y-45187600D01*
X83302400Y-45187600D02*
X83302400Y-46813200D01*
X82845200Y-45187600D02*
X82845200Y-46813200D01*
X82845200Y-46813200D02*
X86045600Y-46813200D01*
X86045600Y-46813200D02*
X86045600Y-45187600D01*
X86045600Y-45187600D02*
X82845200Y-45187600D01*
X71910500Y-50229500D02*
X71097700Y-50229500D01*
X71123100Y-51347100D02*
X71910500Y-51347100D01*
X71097700Y-51601100D02*
X71097700Y-49975500D01*
X71097700Y-49975500D02*
X71910500Y-49975500D01*
X71910500Y-49975500D02*
X71910500Y-51601100D01*
X71910500Y-51601100D02*
X71097700Y-51601100D01*
X93964300Y-43206900D02*
X93964300Y-42394100D01*
X92846700Y-42419500D02*
X92846700Y-43206900D01*
X92592700Y-42394100D02*
X94218300Y-42394100D01*
X94218300Y-42394100D02*
X94218300Y-43206900D01*
X94218300Y-43206900D02*
X92592700Y-43206900D01*
X92592700Y-43206900D02*
X92592700Y-42394100D01*
X82946800Y-41809400D02*
X82946800Y-40996600D01*
X81829200Y-41022000D02*
X81829200Y-41809400D01*
X81575200Y-40996600D02*
X83200800Y-40996600D01*
X83200800Y-40996600D02*
X83200800Y-41809400D01*
X83200800Y-41809400D02*
X81575200Y-41809400D01*
X81575200Y-41809400D02*
X81575200Y-40996600D01*
X71796200Y-46838600D02*
X71796200Y-47651400D01*
X72913800Y-47626000D02*
X72913800Y-46838600D01*
X73167800Y-47651400D02*
X71542200Y-47651400D01*
X71542200Y-47651400D02*
X71542200Y-46838600D01*
X71542200Y-46838600D02*
X73167800Y-46838600D01*
X73167800Y-46838600D02*
X73167800Y-47651400D01*
X72933100Y-42597300D02*
X73745900Y-42597300D01*
X73720500Y-41479700D02*
X72933100Y-41479700D01*
X73745900Y-41225700D02*
X73745900Y-42851300D01*
X73745900Y-42851300D02*
X72933100Y-42851300D01*
X72933100Y-42851300D02*
X72933100Y-41225700D01*
X72933100Y-41225700D02*
X73745900Y-41225700D01*
X124526600Y-54788800D02*
X125339400Y-54788800D01*
X125314000Y-53671200D02*
X124526600Y-53671200D01*
X125339400Y-53417200D02*
X125339400Y-55042800D01*
X125339400Y-55042800D02*
X124526600Y-55042800D01*
X124526600Y-55042800D02*
X124526600Y-53417200D01*
X124526600Y-53417200D02*
X125339400Y-53417200D01*
X135778800Y-64161400D02*
X135778800Y-63348600D01*
X134661200Y-63374000D02*
X134661200Y-64161400D01*
X134407200Y-63348600D02*
X136032800Y-63348600D01*
X136032800Y-63348600D02*
X136032800Y-64161400D01*
X136032800Y-64161400D02*
X134407200Y-64161400D01*
X134407200Y-64161400D02*
X134407200Y-63348600D01*
X76539900Y-45162700D02*
X75727100Y-45162700D01*
X75752500Y-46280300D02*
X76539900Y-46280300D01*
X75727100Y-46534300D02*
X75727100Y-44908700D01*
X75727100Y-44908700D02*
X76539900Y-44908700D01*
X76539900Y-44908700D02*
X76539900Y-46534300D01*
X76539900Y-46534300D02*
X75727100Y-46534300D01*
X47851200Y-94413600D02*
X47851200Y-95226400D01*
X48968800Y-95201000D02*
X48968800Y-94413600D01*
X49222800Y-95226400D02*
X47597200Y-95226400D01*
X47597200Y-95226400D02*
X47597200Y-94413600D01*
X47597200Y-94413600D02*
X49222800Y-94413600D01*
X49222800Y-94413600D02*
X49222800Y-95226400D01*
X150167900Y-58941700D02*
X149355100Y-58941700D01*
X149380500Y-60059300D02*
X150167900Y-60059300D01*
X149355100Y-60313300D02*
X149355100Y-58687700D01*
X149355100Y-58687700D02*
X150167900Y-58687700D01*
X150167900Y-58687700D02*
X150167900Y-60313300D01*
X150167900Y-60313300D02*
X149355100Y-60313300D01*
D10*
X146491500Y-58802500D02*
X146491500Y-59564500D01*
X146491500Y-58802500D02*
X146491500Y-58548500D01*
X146491500Y-58548500D02*
X144459500Y-58548500D01*
X144459500Y-58548500D02*
X144459500Y-59564500D01*
X144475500Y-58826500D02*
X144475500Y-59576500D01*
X146475500Y-58826500D02*
X146475500Y-59576500D01*
D17*
X144662700Y-61469500D02*
X146288300Y-61469500D01*
X146288300Y-59183500D02*
X144662700Y-59183500D01*
X146288300Y-58726300D02*
X144662700Y-58726300D01*
X144662700Y-58726300D02*
X144662700Y-61926700D01*
X144662700Y-61926700D02*
X146288300Y-61926700D01*
X146288300Y-61926700D02*
X146288300Y-58726300D01*
X80648100Y-53290200D02*
X79835300Y-53290200D01*
X79860700Y-54407800D02*
X80648100Y-54407800D01*
X79835300Y-54661800D02*
X79835300Y-53036200D01*
X79835300Y-53036200D02*
X80648100Y-53036200D01*
X80648100Y-53036200D02*
X80648100Y-54661800D01*
X80648100Y-54661800D02*
X79835300Y-54661800D01*
X153533400Y-70054200D02*
X152720600Y-70054200D01*
X152746000Y-71171800D02*
X153533400Y-71171800D01*
X152720600Y-71425800D02*
X152720600Y-69800200D01*
X152720600Y-69800200D02*
X153533400Y-69800200D01*
X153533400Y-69800200D02*
X153533400Y-71425800D01*
X153533400Y-71425800D02*
X152720600Y-71425800D01*
X152492000Y-60224400D02*
X152492000Y-59411600D01*
X151374400Y-59437000D02*
X151374400Y-60224400D01*
X151120400Y-59411600D02*
X152746000Y-59411600D01*
X152746000Y-59411600D02*
X152746000Y-60224400D01*
X152746000Y-60224400D02*
X151120400Y-60224400D01*
X151120400Y-60224400D02*
X151120400Y-59411600D01*
X128108000Y-57633600D02*
X127295200Y-57633600D01*
X127320600Y-58751200D02*
X128108000Y-58751200D01*
X127295200Y-59005200D02*
X127295200Y-57379600D01*
X127295200Y-57379600D02*
X128108000Y-57379600D01*
X128108000Y-57379600D02*
X128108000Y-59005200D01*
X128108000Y-59005200D02*
X127295200Y-59005200D01*
X157521200Y-81763600D02*
X158334000Y-81763600D01*
X158308600Y-80646000D02*
X157521200Y-80646000D01*
X158334000Y-80392000D02*
X158334000Y-82017600D01*
X158334000Y-82017600D02*
X157521200Y-82017600D01*
X157521200Y-82017600D02*
X157521200Y-80392000D01*
X157521200Y-80392000D02*
X158334000Y-80392000D01*
X143291100Y-56567300D02*
X144103900Y-56567300D01*
X144078500Y-55449700D02*
X143291100Y-55449700D01*
X144103900Y-55195700D02*
X144103900Y-56821300D01*
X144103900Y-56821300D02*
X143291100Y-56821300D01*
X143291100Y-56821300D02*
X143291100Y-55195700D01*
X143291100Y-55195700D02*
X144103900Y-55195700D01*
D10*
X141157500Y-54738500D02*
X141157500Y-55500500D01*
X141157500Y-54738500D02*
X141157500Y-54484500D01*
X141157500Y-54484500D02*
X139125500Y-54484500D01*
X139125500Y-54484500D02*
X139125500Y-55500500D01*
X139141500Y-54762500D02*
X139141500Y-55512500D01*
X141141500Y-54762500D02*
X141141500Y-55512500D01*
D17*
X139328700Y-57405500D02*
X140954300Y-57405500D01*
X140954300Y-55119500D02*
X139328700Y-55119500D01*
X140954300Y-54662300D02*
X139328700Y-54662300D01*
X139328700Y-54662300D02*
X139328700Y-57862700D01*
X139328700Y-57862700D02*
X140954300Y-57862700D01*
X140954300Y-57862700D02*
X140954300Y-54662300D01*
X145456200Y-67158600D02*
X145456200Y-67971400D01*
X146573800Y-67946000D02*
X146573800Y-67158600D01*
X146827800Y-67971400D02*
X145202200Y-67971400D01*
X145202200Y-67971400D02*
X145202200Y-67158600D01*
X145202200Y-67158600D02*
X146827800Y-67158600D01*
X146827800Y-67158600D02*
X146827800Y-67971400D01*
X112664800Y-78995000D02*
X112664800Y-79807800D01*
X113782400Y-79782400D02*
X113782400Y-78995000D01*
X114036400Y-79807800D02*
X112410800Y-79807800D01*
X112410800Y-79807800D02*
X112410800Y-78995000D01*
X112410800Y-78995000D02*
X114036400Y-78995000D01*
X114036400Y-78995000D02*
X114036400Y-79807800D01*
X55407100Y-106097300D02*
X56219900Y-106097300D01*
X56194500Y-104979700D02*
X55407100Y-104979700D01*
X56219900Y-104725700D02*
X56219900Y-106351300D01*
X56219900Y-106351300D02*
X55407100Y-106351300D01*
X55407100Y-106351300D02*
X55407100Y-104725700D01*
X55407100Y-104725700D02*
X56219900Y-104725700D01*
X116322400Y-83135200D02*
X115509600Y-83135200D01*
X115535000Y-84252800D02*
X116322400Y-84252800D01*
X115509600Y-84506800D02*
X115509600Y-82881200D01*
X115509600Y-82881200D02*
X116322400Y-82881200D01*
X116322400Y-82881200D02*
X116322400Y-84506800D01*
X116322400Y-84506800D02*
X115509600Y-84506800D01*
X67345100Y-43105300D02*
X68157900Y-43105300D01*
X68132500Y-41987700D02*
X67345100Y-41987700D01*
X68157900Y-41733700D02*
X68157900Y-43359300D01*
X68157900Y-43359300D02*
X67345100Y-43359300D01*
X67345100Y-43359300D02*
X67345100Y-41733700D01*
X67345100Y-41733700D02*
X68157900Y-41733700D01*
X78298600Y-57963800D02*
X79111400Y-57963800D01*
X79086000Y-56846200D02*
X78298600Y-56846200D01*
X79111400Y-56592200D02*
X79111400Y-58217800D01*
X79111400Y-58217800D02*
X78298600Y-58217800D01*
X78298600Y-58217800D02*
X78298600Y-56592200D01*
X78298600Y-56592200D02*
X79111400Y-56592200D01*
X79848000Y-57938400D02*
X80660800Y-57938400D01*
X80635400Y-56820800D02*
X79848000Y-56820800D01*
X80660800Y-56566800D02*
X80660800Y-58192400D01*
X80660800Y-58192400D02*
X79848000Y-58192400D01*
X79848000Y-58192400D02*
X79848000Y-56566800D01*
X79848000Y-56566800D02*
X80660800Y-56566800D01*
X165316460Y-77445600D02*
X165316460Y-78258400D01*
X166434060Y-78233000D02*
X166434060Y-77445600D01*
X166688060Y-78258400D02*
X165062460Y-78258400D01*
X165062460Y-78258400D02*
X165062460Y-77445600D01*
X165062460Y-77445600D02*
X166688060Y-77445600D01*
X166688060Y-77445600D02*
X166688060Y-78258400D01*
D21*
X164792200Y-60641460D02*
X164792200Y-62043540D01*
X164642340Y-60641460D02*
X166440660Y-60641460D01*
X166440660Y-60641460D02*
X166440660Y-62043540D01*
X166440660Y-62043540D02*
X164642340Y-62043540D01*
X164642340Y-62043540D02*
X164642340Y-60641460D01*
D19*
X165737080Y-67888080D02*
X164837920Y-67888080D01*
X164837920Y-67888080D02*
X164837920Y-68286860D01*
X165737080Y-68286860D02*
X164837920Y-68286860D01*
X165737080Y-67888080D02*
X165737080Y-68286860D01*
X165737080Y-66590140D02*
X164837920Y-66590140D01*
X164837920Y-66590140D02*
X164837920Y-66988920D01*
X165737080Y-66988920D02*
X164837920Y-66988920D01*
X165737080Y-66590140D02*
X165737080Y-66988920D01*
X165737080Y-67438500D02*
X165587220Y-67438500D01*
X165587220Y-67438500D02*
X165587220Y-67738220D01*
X165737080Y-67738220D02*
X165587220Y-67738220D01*
X165737080Y-67438500D02*
X165737080Y-67738220D01*
X164987780Y-67438500D02*
X164837920Y-67438500D01*
X164837920Y-67438500D02*
X164837920Y-67738220D01*
X164987780Y-67738220D02*
X164837920Y-67738220D01*
X164987780Y-67438500D02*
X164987780Y-67738220D01*
X165437360Y-67438500D02*
X165137640Y-67438500D01*
X165137640Y-67438500D02*
X165137640Y-67738220D01*
X165437360Y-67738220D02*
X165137640Y-67738220D01*
X165437360Y-67438500D02*
X165437360Y-67738220D01*
D20*
X165686280Y-67888080D02*
X165686280Y-66988920D01*
X164888720Y-67888080D02*
X164888720Y-66988920D01*
D21*
X169600700Y-77123960D02*
X169600700Y-78526040D01*
X169450840Y-77123960D02*
X171249160Y-77123960D01*
X171249160Y-77123960D02*
X171249160Y-78526040D01*
X171249160Y-78526040D02*
X169450840Y-78526040D01*
X169450840Y-78526040D02*
X169450840Y-77123960D01*
D19*
X157584700Y-47808880D02*
X157584700Y-47559960D01*
X157584700Y-47559960D02*
X156238500Y-47559960D01*
X156238500Y-47808880D02*
X156238500Y-47559960D01*
X157584700Y-47808880D02*
X156238500Y-47808880D01*
X157584700Y-42561240D02*
X157584700Y-42312320D01*
X157584700Y-42312320D02*
X156238500Y-42312320D01*
X156238500Y-42561240D02*
X156238500Y-42312320D01*
X157584700Y-42561240D02*
X156238500Y-42561240D01*
X157935220Y-46460140D02*
X157935220Y-46160420D01*
X157935220Y-46160420D02*
X155837180Y-46160420D01*
X155837180Y-46460140D02*
X155837180Y-46160420D01*
X157935220Y-46460140D02*
X155837180Y-46460140D01*
D22*
X155786380Y-47458360D02*
X155786380Y-42662840D01*
X155786380Y-42662840D02*
X157986020Y-42662840D01*
X157986020Y-42662840D02*
X157986020Y-47458360D01*
X157986020Y-47458360D02*
X155786380Y-47458360D01*
X156886200Y-46259480D02*
X156187700Y-45012340D01*
X156187700Y-45012340D02*
X157584700Y-45012340D01*
X157584700Y-45012340D02*
X156886200Y-46259480D01*
D19*
X152606300Y-42210720D02*
X152606300Y-42459640D01*
X152606300Y-42459640D02*
X153952500Y-42459640D01*
X153952500Y-42210720D02*
X153952500Y-42459640D01*
X152606300Y-42210720D02*
X153952500Y-42210720D01*
X152606300Y-47458360D02*
X152606300Y-47707280D01*
X152606300Y-47707280D02*
X153952500Y-47707280D01*
X153952500Y-47458360D02*
X153952500Y-47707280D01*
X152606300Y-47458360D02*
X153952500Y-47458360D01*
X152255780Y-43559460D02*
X152255780Y-43859180D01*
X152255780Y-43859180D02*
X154353820Y-43859180D01*
X154353820Y-43559460D02*
X154353820Y-43859180D01*
X152255780Y-43559460D02*
X154353820Y-43559460D01*
D22*
X154404620Y-42561240D02*
X154404620Y-47356760D01*
X154404620Y-47356760D02*
X152204980Y-47356760D01*
X152204980Y-47356760D02*
X152204980Y-42561240D01*
X152204980Y-42561240D02*
X154404620Y-42561240D01*
X153304800Y-43760120D02*
X154003300Y-45007260D01*
X154003300Y-45007260D02*
X152606300Y-45007260D01*
X152606300Y-45007260D02*
X153304800Y-43760120D01*
D19*
X159794500Y-42236120D02*
X159794500Y-42485040D01*
X159794500Y-42485040D02*
X161140700Y-42485040D01*
X161140700Y-42236120D02*
X161140700Y-42485040D01*
X159794500Y-42236120D02*
X161140700Y-42236120D01*
X159794500Y-47483760D02*
X159794500Y-47732680D01*
X159794500Y-47732680D02*
X161140700Y-47732680D01*
X161140700Y-47483760D02*
X161140700Y-47732680D01*
X159794500Y-47483760D02*
X161140700Y-47483760D01*
X159443980Y-43584860D02*
X159443980Y-43884580D01*
X159443980Y-43884580D02*
X161542020Y-43884580D01*
X161542020Y-43584860D02*
X161542020Y-43884580D01*
X159443980Y-43584860D02*
X161542020Y-43584860D01*
D22*
X161592820Y-42586640D02*
X161592820Y-47382160D01*
X161592820Y-47382160D02*
X159393180Y-47382160D01*
X159393180Y-47382160D02*
X159393180Y-42586640D01*
X159393180Y-42586640D02*
X161592820Y-42586640D01*
X160493000Y-43785520D02*
X161191500Y-45032660D01*
X161191500Y-45032660D02*
X159794500Y-45032660D01*
X159794500Y-45032660D02*
X160493000Y-43785520D01*
D19*
X104544420Y-46932580D02*
X104544420Y-46033420D01*
X104544420Y-46033420D02*
X104145640Y-46033420D01*
X104145640Y-46932580D02*
X104145640Y-46033420D01*
X104544420Y-46932580D02*
X104145640Y-46932580D01*
X105842360Y-46932580D02*
X105842360Y-46033420D01*
X105842360Y-46033420D02*
X105443580Y-46033420D01*
X105443580Y-46932580D02*
X105443580Y-46033420D01*
X105842360Y-46932580D02*
X105443580Y-46932580D01*
X104994000Y-46932580D02*
X104994000Y-46782720D01*
X104994000Y-46782720D02*
X104694280Y-46782720D01*
X104694280Y-46932580D02*
X104694280Y-46782720D01*
X104994000Y-46932580D02*
X104694280Y-46932580D01*
X104994000Y-46183280D02*
X104994000Y-46033420D01*
X104994000Y-46033420D02*
X104694280Y-46033420D01*
X104694280Y-46183280D02*
X104694280Y-46033420D01*
X104994000Y-46183280D02*
X104694280Y-46183280D01*
X104994000Y-46632860D02*
X104994000Y-46333140D01*
X104994000Y-46333140D02*
X104694280Y-46333140D01*
X104694280Y-46632860D02*
X104694280Y-46333140D01*
X104994000Y-46632860D02*
X104694280Y-46632860D01*
D20*
X104544420Y-46881780D02*
X105443580Y-46881780D01*
X104544420Y-46084220D02*
X105443580Y-46084220D01*
D19*
X98448420Y-49726580D02*
X98448420Y-48827420D01*
X98448420Y-48827420D02*
X98049640Y-48827420D01*
X98049640Y-49726580D02*
X98049640Y-48827420D01*
X98448420Y-49726580D02*
X98049640Y-49726580D01*
X99746360Y-49726580D02*
X99746360Y-48827420D01*
X99746360Y-48827420D02*
X99347580Y-48827420D01*
X99347580Y-49726580D02*
X99347580Y-48827420D01*
X99746360Y-49726580D02*
X99347580Y-49726580D01*
X98898000Y-49726580D02*
X98898000Y-49576720D01*
X98898000Y-49576720D02*
X98598280Y-49576720D01*
X98598280Y-49726580D02*
X98598280Y-49576720D01*
X98898000Y-49726580D02*
X98598280Y-49726580D01*
X98898000Y-48977280D02*
X98898000Y-48827420D01*
X98898000Y-48827420D02*
X98598280Y-48827420D01*
X98598280Y-48977280D02*
X98598280Y-48827420D01*
X98898000Y-48977280D02*
X98598280Y-48977280D01*
X98898000Y-49426860D02*
X98898000Y-49127140D01*
X98898000Y-49127140D02*
X98598280Y-49127140D01*
X98598280Y-49426860D02*
X98598280Y-49127140D01*
X98898000Y-49426860D02*
X98598280Y-49426860D01*
D20*
X98448420Y-49675780D02*
X99347580Y-49675780D01*
X98448420Y-48878220D02*
X99347580Y-48878220D01*
D19*
X108100420Y-48710580D02*
X108100420Y-47811420D01*
X108100420Y-47811420D02*
X107701640Y-47811420D01*
X107701640Y-48710580D02*
X107701640Y-47811420D01*
X108100420Y-48710580D02*
X107701640Y-48710580D01*
X109398360Y-48710580D02*
X109398360Y-47811420D01*
X109398360Y-47811420D02*
X108999580Y-47811420D01*
X108999580Y-48710580D02*
X108999580Y-47811420D01*
X109398360Y-48710580D02*
X108999580Y-48710580D01*
X108550000Y-48710580D02*
X108550000Y-48560720D01*
X108550000Y-48560720D02*
X108250280Y-48560720D01*
X108250280Y-48710580D02*
X108250280Y-48560720D01*
X108550000Y-48710580D02*
X108250280Y-48710580D01*
X108550000Y-47961280D02*
X108550000Y-47811420D01*
X108550000Y-47811420D02*
X108250280Y-47811420D01*
X108250280Y-47961280D02*
X108250280Y-47811420D01*
X108550000Y-47961280D02*
X108250280Y-47961280D01*
X108550000Y-48410860D02*
X108550000Y-48111140D01*
X108550000Y-48111140D02*
X108250280Y-48111140D01*
X108250280Y-48410860D02*
X108250280Y-48111140D01*
X108550000Y-48410860D02*
X108250280Y-48410860D01*
D20*
X108100420Y-48659780D02*
X108999580Y-48659780D01*
X108100420Y-47862220D02*
X108999580Y-47862220D01*
D19*
X111910420Y-48710580D02*
X111910420Y-47811420D01*
X111910420Y-47811420D02*
X111511640Y-47811420D01*
X111511640Y-48710580D02*
X111511640Y-47811420D01*
X111910420Y-48710580D02*
X111511640Y-48710580D01*
X113208360Y-48710580D02*
X113208360Y-47811420D01*
X113208360Y-47811420D02*
X112809580Y-47811420D01*
X112809580Y-48710580D02*
X112809580Y-47811420D01*
X113208360Y-48710580D02*
X112809580Y-48710580D01*
X112360000Y-48710580D02*
X112360000Y-48560720D01*
X112360000Y-48560720D02*
X112060280Y-48560720D01*
X112060280Y-48710580D02*
X112060280Y-48560720D01*
X112360000Y-48710580D02*
X112060280Y-48710580D01*
X112360000Y-47961280D02*
X112360000Y-47811420D01*
X112360000Y-47811420D02*
X112060280Y-47811420D01*
X112060280Y-47961280D02*
X112060280Y-47811420D01*
X112360000Y-47961280D02*
X112060280Y-47961280D01*
X112360000Y-48410860D02*
X112360000Y-48111140D01*
X112360000Y-48111140D02*
X112060280Y-48111140D01*
X112060280Y-48410860D02*
X112060280Y-48111140D01*
X112360000Y-48410860D02*
X112060280Y-48410860D01*
D20*
X111910420Y-48659780D02*
X112809580Y-48659780D01*
X111910420Y-47862220D02*
X112809580Y-47862220D01*
D19*
X115720420Y-50361580D02*
X115720420Y-49462420D01*
X115720420Y-49462420D02*
X115321640Y-49462420D01*
X115321640Y-50361580D02*
X115321640Y-49462420D01*
X115720420Y-50361580D02*
X115321640Y-50361580D01*
X117018360Y-50361580D02*
X117018360Y-49462420D01*
X117018360Y-49462420D02*
X116619580Y-49462420D01*
X116619580Y-50361580D02*
X116619580Y-49462420D01*
X117018360Y-50361580D02*
X116619580Y-50361580D01*
X116170000Y-50361580D02*
X116170000Y-50211720D01*
X116170000Y-50211720D02*
X115870280Y-50211720D01*
X115870280Y-50361580D02*
X115870280Y-50211720D01*
X116170000Y-50361580D02*
X115870280Y-50361580D01*
X116170000Y-49612280D02*
X116170000Y-49462420D01*
X116170000Y-49462420D02*
X115870280Y-49462420D01*
X115870280Y-49612280D02*
X115870280Y-49462420D01*
X116170000Y-49612280D02*
X115870280Y-49612280D01*
X116170000Y-50061860D02*
X116170000Y-49762140D01*
X116170000Y-49762140D02*
X115870280Y-49762140D01*
X115870280Y-50061860D02*
X115870280Y-49762140D01*
X116170000Y-50061860D02*
X115870280Y-50061860D01*
D20*
X115720420Y-50310780D02*
X116619580Y-50310780D01*
X115720420Y-49513220D02*
X116619580Y-49513220D01*
D19*
X120556580Y-47938420D02*
X120556580Y-48837580D01*
X120556580Y-48837580D02*
X120955360Y-48837580D01*
X120955360Y-47938420D02*
X120955360Y-48837580D01*
X120556580Y-47938420D02*
X120955360Y-47938420D01*
X119258640Y-47938420D02*
X119258640Y-48837580D01*
X119258640Y-48837580D02*
X119657420Y-48837580D01*
X119657420Y-47938420D02*
X119657420Y-48837580D01*
X119258640Y-47938420D02*
X119657420Y-47938420D01*
X120107000Y-47938420D02*
X120107000Y-48088280D01*
X120107000Y-48088280D02*
X120406720Y-48088280D01*
X120406720Y-47938420D02*
X120406720Y-48088280D01*
X120107000Y-47938420D02*
X120406720Y-47938420D01*
X120107000Y-48687720D02*
X120107000Y-48837580D01*
X120107000Y-48837580D02*
X120406720Y-48837580D01*
X120406720Y-48687720D02*
X120406720Y-48837580D01*
X120107000Y-48687720D02*
X120406720Y-48687720D01*
X120107000Y-48238140D02*
X120107000Y-48537860D01*
X120107000Y-48537860D02*
X120406720Y-48537860D01*
X120406720Y-48238140D02*
X120406720Y-48537860D01*
X120107000Y-48238140D02*
X120406720Y-48238140D01*
D20*
X120556580Y-47989220D02*
X119657420Y-47989220D01*
X120556580Y-48786780D02*
X119657420Y-48786780D01*
D19*
X128303580Y-50478420D02*
X128303580Y-49579260D01*
X128303580Y-49579260D02*
X127904800Y-49579260D01*
X127904800Y-50478420D02*
X127904800Y-49579260D01*
X128303580Y-50478420D02*
X127904800Y-50478420D01*
X129601520Y-50478420D02*
X129601520Y-49579260D01*
X129601520Y-49579260D02*
X129202740Y-49579260D01*
X129202740Y-50478420D02*
X129202740Y-49579260D01*
X129601520Y-50478420D02*
X129202740Y-50478420D01*
X128753160Y-50478420D02*
X128753160Y-50328560D01*
X128753160Y-50328560D02*
X128453440Y-50328560D01*
X128453440Y-50478420D02*
X128453440Y-50328560D01*
X128753160Y-50478420D02*
X128453440Y-50478420D01*
X128753160Y-49729120D02*
X128753160Y-49579260D01*
X128753160Y-49579260D02*
X128453440Y-49579260D01*
X128453440Y-49729120D02*
X128453440Y-49579260D01*
X128753160Y-49729120D02*
X128453440Y-49729120D01*
X128753160Y-50178700D02*
X128753160Y-49878980D01*
X128753160Y-49878980D02*
X128453440Y-49878980D01*
X128453440Y-50178700D02*
X128453440Y-49878980D01*
X128753160Y-50178700D02*
X128453440Y-50178700D01*
D20*
X128303580Y-50427620D02*
X129202740Y-50427620D01*
X128303580Y-49630060D02*
X129202740Y-49630060D01*
D19*
X132250740Y-50422540D02*
X132250740Y-49523380D01*
X132250740Y-49523380D02*
X131851960Y-49523380D01*
X131851960Y-50422540D02*
X131851960Y-49523380D01*
X132250740Y-50422540D02*
X131851960Y-50422540D01*
X133548680Y-50422540D02*
X133548680Y-49523380D01*
X133548680Y-49523380D02*
X133149900Y-49523380D01*
X133149900Y-50422540D02*
X133149900Y-49523380D01*
X133548680Y-50422540D02*
X133149900Y-50422540D01*
X132700320Y-50422540D02*
X132700320Y-50272680D01*
X132700320Y-50272680D02*
X132400600Y-50272680D01*
X132400600Y-50422540D02*
X132400600Y-50272680D01*
X132700320Y-50422540D02*
X132400600Y-50422540D01*
X132700320Y-49673240D02*
X132700320Y-49523380D01*
X132700320Y-49523380D02*
X132400600Y-49523380D01*
X132400600Y-49673240D02*
X132400600Y-49523380D01*
X132700320Y-49673240D02*
X132400600Y-49673240D01*
X132700320Y-50122820D02*
X132700320Y-49823100D01*
X132700320Y-49823100D02*
X132400600Y-49823100D01*
X132400600Y-50122820D02*
X132400600Y-49823100D01*
X132700320Y-50122820D02*
X132400600Y-50122820D01*
D20*
X132250740Y-50371740D02*
X133149900Y-50371740D01*
X132250740Y-49574180D02*
X133149900Y-49574180D01*
D19*
X117744800Y-85759020D02*
X118643960Y-85759020D01*
X118643960Y-85759020D02*
X118643960Y-85360240D01*
X117744800Y-85360240D02*
X118643960Y-85360240D01*
X117744800Y-85759020D02*
X117744800Y-85360240D01*
X117744800Y-87056960D02*
X118643960Y-87056960D01*
X118643960Y-87056960D02*
X118643960Y-86658180D01*
X117744800Y-86658180D02*
X118643960Y-86658180D01*
X117744800Y-87056960D02*
X117744800Y-86658180D01*
X117744800Y-86208600D02*
X117894660Y-86208600D01*
X117894660Y-86208600D02*
X117894660Y-85908880D01*
X117744800Y-85908880D02*
X117894660Y-85908880D01*
X117744800Y-86208600D02*
X117744800Y-85908880D01*
X118494100Y-86208600D02*
X118643960Y-86208600D01*
X118643960Y-86208600D02*
X118643960Y-85908880D01*
X118494100Y-85908880D02*
X118643960Y-85908880D01*
X118494100Y-86208600D02*
X118494100Y-85908880D01*
X118044520Y-86208600D02*
X118344240Y-86208600D01*
X118344240Y-86208600D02*
X118344240Y-85908880D01*
X118044520Y-85908880D02*
X118344240Y-85908880D01*
X118044520Y-86208600D02*
X118044520Y-85908880D01*
D20*
X117795600Y-85759020D02*
X117795600Y-86658180D01*
X118593160Y-85759020D02*
X118593160Y-86658180D01*
D19*
X119708220Y-85733620D02*
X120607380Y-85733620D01*
X120607380Y-85733620D02*
X120607380Y-85334840D01*
X119708220Y-85334840D02*
X120607380Y-85334840D01*
X119708220Y-85733620D02*
X119708220Y-85334840D01*
X119708220Y-87031560D02*
X120607380Y-87031560D01*
X120607380Y-87031560D02*
X120607380Y-86632780D01*
X119708220Y-86632780D02*
X120607380Y-86632780D01*
X119708220Y-87031560D02*
X119708220Y-86632780D01*
X119708220Y-86183200D02*
X119858080Y-86183200D01*
X119858080Y-86183200D02*
X119858080Y-85883480D01*
X119708220Y-85883480D02*
X119858080Y-85883480D01*
X119708220Y-86183200D02*
X119708220Y-85883480D01*
X120457520Y-86183200D02*
X120607380Y-86183200D01*
X120607380Y-86183200D02*
X120607380Y-85883480D01*
X120457520Y-85883480D02*
X120607380Y-85883480D01*
X120457520Y-86183200D02*
X120457520Y-85883480D01*
X120007940Y-86183200D02*
X120307660Y-86183200D01*
X120307660Y-86183200D02*
X120307660Y-85883480D01*
X120007940Y-85883480D02*
X120307660Y-85883480D01*
X120007940Y-86183200D02*
X120007940Y-85883480D01*
D20*
X119759020Y-85733620D02*
X119759020Y-86632780D01*
X120556580Y-85733620D02*
X120556580Y-86632780D01*
D19*
X70995080Y-91510080D02*
X70095920Y-91510080D01*
X70095920Y-91510080D02*
X70095920Y-91908860D01*
X70995080Y-91908860D02*
X70095920Y-91908860D01*
X70995080Y-91510080D02*
X70995080Y-91908860D01*
X70995080Y-90212140D02*
X70095920Y-90212140D01*
X70095920Y-90212140D02*
X70095920Y-90610920D01*
X70995080Y-90610920D02*
X70095920Y-90610920D01*
X70995080Y-90212140D02*
X70995080Y-90610920D01*
X70995080Y-91060500D02*
X70845220Y-91060500D01*
X70845220Y-91060500D02*
X70845220Y-91360220D01*
X70995080Y-91360220D02*
X70845220Y-91360220D01*
X70995080Y-91060500D02*
X70995080Y-91360220D01*
X70245780Y-91060500D02*
X70095920Y-91060500D01*
X70095920Y-91060500D02*
X70095920Y-91360220D01*
X70245780Y-91360220D02*
X70095920Y-91360220D01*
X70245780Y-91060500D02*
X70245780Y-91360220D01*
X70695360Y-91060500D02*
X70395640Y-91060500D01*
X70395640Y-91060500D02*
X70395640Y-91360220D01*
X70695360Y-91360220D02*
X70395640Y-91360220D01*
X70695360Y-91060500D02*
X70695360Y-91360220D01*
D20*
X70944280Y-91510080D02*
X70944280Y-90610920D01*
X70146720Y-91510080D02*
X70146720Y-90610920D01*
D19*
X68963080Y-91510080D02*
X68063920Y-91510080D01*
X68063920Y-91510080D02*
X68063920Y-91908860D01*
X68963080Y-91908860D02*
X68063920Y-91908860D01*
X68963080Y-91510080D02*
X68963080Y-91908860D01*
X68963080Y-90212140D02*
X68063920Y-90212140D01*
X68063920Y-90212140D02*
X68063920Y-90610920D01*
X68963080Y-90610920D02*
X68063920Y-90610920D01*
X68963080Y-90212140D02*
X68963080Y-90610920D01*
X68963080Y-91060500D02*
X68813220Y-91060500D01*
X68813220Y-91060500D02*
X68813220Y-91360220D01*
X68963080Y-91360220D02*
X68813220Y-91360220D01*
X68963080Y-91060500D02*
X68963080Y-91360220D01*
X68213780Y-91060500D02*
X68063920Y-91060500D01*
X68063920Y-91060500D02*
X68063920Y-91360220D01*
X68213780Y-91360220D02*
X68063920Y-91360220D01*
X68213780Y-91060500D02*
X68213780Y-91360220D01*
X68663360Y-91060500D02*
X68363640Y-91060500D01*
X68363640Y-91060500D02*
X68363640Y-91360220D01*
X68663360Y-91360220D02*
X68363640Y-91360220D01*
X68663360Y-91060500D02*
X68663360Y-91360220D01*
D20*
X68912280Y-91510080D02*
X68912280Y-90610920D01*
X68114720Y-91510080D02*
X68114720Y-90610920D01*
D19*
X167444980Y-67912980D02*
X166545820Y-67912980D01*
X166545820Y-67912980D02*
X166545820Y-68311760D01*
X167444980Y-68311760D02*
X166545820Y-68311760D01*
X167444980Y-67912980D02*
X167444980Y-68311760D01*
X167444980Y-66615040D02*
X166545820Y-66615040D01*
X166545820Y-66615040D02*
X166545820Y-67013820D01*
X167444980Y-67013820D02*
X166545820Y-67013820D01*
X167444980Y-66615040D02*
X167444980Y-67013820D01*
X167444980Y-67463400D02*
X167295120Y-67463400D01*
X167295120Y-67463400D02*
X167295120Y-67763120D01*
X167444980Y-67763120D02*
X167295120Y-67763120D01*
X167444980Y-67463400D02*
X167444980Y-67763120D01*
X166695680Y-67463400D02*
X166545820Y-67463400D01*
X166545820Y-67463400D02*
X166545820Y-67763120D01*
X166695680Y-67763120D02*
X166545820Y-67763120D01*
X166695680Y-67463400D02*
X166695680Y-67763120D01*
X167145260Y-67463400D02*
X166845540Y-67463400D01*
X166845540Y-67463400D02*
X166845540Y-67763120D01*
X167145260Y-67763120D02*
X166845540Y-67763120D01*
X167145260Y-67463400D02*
X167145260Y-67763120D01*
D20*
X167394180Y-67912980D02*
X167394180Y-67013820D01*
X166596620Y-67912980D02*
X166596620Y-67013820D01*
D19*
X121437960Y-85784420D02*
X122337120Y-85784420D01*
X122337120Y-85784420D02*
X122337120Y-85385640D01*
X121437960Y-85385640D02*
X122337120Y-85385640D01*
X121437960Y-85784420D02*
X121437960Y-85385640D01*
X121437960Y-87082360D02*
X122337120Y-87082360D01*
X122337120Y-87082360D02*
X122337120Y-86683580D01*
X121437960Y-86683580D02*
X122337120Y-86683580D01*
X121437960Y-87082360D02*
X121437960Y-86683580D01*
X121437960Y-86234000D02*
X121587820Y-86234000D01*
X121587820Y-86234000D02*
X121587820Y-85934280D01*
X121437960Y-85934280D02*
X121587820Y-85934280D01*
X121437960Y-86234000D02*
X121437960Y-85934280D01*
X122187260Y-86234000D02*
X122337120Y-86234000D01*
X122337120Y-86234000D02*
X122337120Y-85934280D01*
X122187260Y-85934280D02*
X122337120Y-85934280D01*
X122187260Y-86234000D02*
X122187260Y-85934280D01*
X121737680Y-86234000D02*
X122037400Y-86234000D01*
X122037400Y-86234000D02*
X122037400Y-85934280D01*
X121737680Y-85934280D02*
X122037400Y-85934280D01*
X121737680Y-86234000D02*
X121737680Y-85934280D01*
D20*
X121488760Y-85784420D02*
X121488760Y-86683580D01*
X122286320Y-85784420D02*
X122286320Y-86683580D01*
D19*
X123391220Y-85733620D02*
X124290380Y-85733620D01*
X124290380Y-85733620D02*
X124290380Y-85334840D01*
X123391220Y-85334840D02*
X124290380Y-85334840D01*
X123391220Y-85733620D02*
X123391220Y-85334840D01*
X123391220Y-87031560D02*
X124290380Y-87031560D01*
X124290380Y-87031560D02*
X124290380Y-86632780D01*
X123391220Y-86632780D02*
X124290380Y-86632780D01*
X123391220Y-87031560D02*
X123391220Y-86632780D01*
X123391220Y-86183200D02*
X123541080Y-86183200D01*
X123541080Y-86183200D02*
X123541080Y-85883480D01*
X123391220Y-85883480D02*
X123541080Y-85883480D01*
X123391220Y-86183200D02*
X123391220Y-85883480D01*
X124140520Y-86183200D02*
X124290380Y-86183200D01*
X124290380Y-86183200D02*
X124290380Y-85883480D01*
X124140520Y-85883480D02*
X124290380Y-85883480D01*
X124140520Y-86183200D02*
X124140520Y-85883480D01*
X123690940Y-86183200D02*
X123990660Y-86183200D01*
X123990660Y-86183200D02*
X123990660Y-85883480D01*
X123690940Y-85883480D02*
X123990660Y-85883480D01*
X123690940Y-86183200D02*
X123690940Y-85883480D01*
D20*
X123442020Y-85733620D02*
X123442020Y-86632780D01*
X124239580Y-85733620D02*
X124239580Y-86632780D01*
D17*
X70037500Y-103252500D02*
X70799500Y-103760500D01*
X68259500Y-103252500D02*
X70863000Y-103252500D01*
X70863000Y-103252500D02*
X70863000Y-104776500D01*
X70863000Y-104776500D02*
X68259500Y-104776500D01*
X68259500Y-104776500D02*
X68259500Y-103252500D01*
D19*
X140256820Y-64610980D02*
X140256820Y-63711820D01*
X140256820Y-63711820D02*
X139858040Y-63711820D01*
X139858040Y-64610980D02*
X139858040Y-63711820D01*
X140256820Y-64610980D02*
X139858040Y-64610980D01*
X141554760Y-64610980D02*
X141554760Y-63711820D01*
X141554760Y-63711820D02*
X141155980Y-63711820D01*
X141155980Y-64610980D02*
X141155980Y-63711820D01*
X141554760Y-64610980D02*
X141155980Y-64610980D01*
X140706400Y-64610980D02*
X140706400Y-64461120D01*
X140706400Y-64461120D02*
X140406680Y-64461120D01*
X140406680Y-64610980D02*
X140406680Y-64461120D01*
X140706400Y-64610980D02*
X140406680Y-64610980D01*
X140706400Y-63861680D02*
X140706400Y-63711820D01*
X140706400Y-63711820D02*
X140406680Y-63711820D01*
X140406680Y-63861680D02*
X140406680Y-63711820D01*
X140706400Y-63861680D02*
X140406680Y-63861680D01*
X140706400Y-64311260D02*
X140706400Y-64011540D01*
X140706400Y-64011540D02*
X140406680Y-64011540D01*
X140406680Y-64311260D02*
X140406680Y-64011540D01*
X140706400Y-64311260D02*
X140406680Y-64311260D01*
D20*
X140256820Y-64560180D02*
X141155980Y-64560180D01*
X140256820Y-63762620D02*
X141155980Y-63762620D01*
D19*
X140231420Y-62934580D02*
X140231420Y-62035420D01*
X140231420Y-62035420D02*
X139832640Y-62035420D01*
X139832640Y-62934580D02*
X139832640Y-62035420D01*
X140231420Y-62934580D02*
X139832640Y-62934580D01*
X141529360Y-62934580D02*
X141529360Y-62035420D01*
X141529360Y-62035420D02*
X141130580Y-62035420D01*
X141130580Y-62934580D02*
X141130580Y-62035420D01*
X141529360Y-62934580D02*
X141130580Y-62934580D01*
X140681000Y-62934580D02*
X140681000Y-62784720D01*
X140681000Y-62784720D02*
X140381280Y-62784720D01*
X140381280Y-62934580D02*
X140381280Y-62784720D01*
X140681000Y-62934580D02*
X140381280Y-62934580D01*
X140681000Y-62185280D02*
X140681000Y-62035420D01*
X140681000Y-62035420D02*
X140381280Y-62035420D01*
X140381280Y-62185280D02*
X140381280Y-62035420D01*
X140681000Y-62185280D02*
X140381280Y-62185280D01*
X140681000Y-62634860D02*
X140681000Y-62335140D01*
X140681000Y-62335140D02*
X140381280Y-62335140D01*
X140381280Y-62634860D02*
X140381280Y-62335140D01*
X140681000Y-62634860D02*
X140381280Y-62634860D01*
D20*
X140231420Y-62883780D02*
X141130580Y-62883780D01*
X140231420Y-62086220D02*
X141130580Y-62086220D01*
D17*
X171542000Y-68250800D02*
X171542000Y-70536800D01*
X171542000Y-70536800D02*
X170272000Y-70536800D01*
X170272000Y-70536800D02*
X170272000Y-68250800D01*
X170272000Y-68250800D02*
X171542000Y-68250800D01*
X94548500Y-41657500D02*
X92262500Y-41657500D01*
X92262500Y-41657500D02*
X92262500Y-40387500D01*
X92262500Y-40387500D02*
X94548500Y-40387500D01*
X94548500Y-40387500D02*
X94548500Y-41657500D01*
X86960000Y-42038000D02*
X84674000Y-42038000D01*
X84674000Y-42038000D02*
X84674000Y-40768000D01*
X84674000Y-40768000D02*
X86960000Y-40768000D01*
X86960000Y-40768000D02*
X86960000Y-42038000D01*
X77276500Y-43816500D02*
X74990500Y-43816500D01*
X74990500Y-43816500D02*
X74990500Y-42546500D01*
X74990500Y-42546500D02*
X77276500Y-42546500D01*
X77276500Y-42546500D02*
X77276500Y-43816500D01*
X70164500Y-41403500D02*
X70164500Y-43689500D01*
X70164500Y-43689500D02*
X68894500Y-43689500D01*
X68894500Y-43689500D02*
X68894500Y-41403500D01*
X68894500Y-41403500D02*
X70164500Y-41403500D01*
X171735000Y-54257000D02*
X171735000Y-56543000D01*
X171735000Y-56543000D02*
X170465000Y-56543000D01*
X170465000Y-56543000D02*
X170465000Y-54257000D01*
X170465000Y-54257000D02*
X171735000Y-54257000D01*
X150782000Y-57405500D02*
X153068000Y-57405500D01*
X153068000Y-57405500D02*
X153068000Y-58675500D01*
X153068000Y-58675500D02*
X150782000Y-58675500D01*
X150782000Y-58675500D02*
X150782000Y-57405500D01*
X137982500Y-57405500D02*
X137982500Y-59691500D01*
X137982500Y-59691500D02*
X136712500Y-59691500D01*
X136712500Y-59691500D02*
X136712500Y-57405500D01*
X136712500Y-57405500D02*
X137982500Y-57405500D01*
X171110200Y-63323200D02*
X168824200Y-63323200D01*
X168824200Y-63323200D02*
X168824200Y-62053200D01*
X168824200Y-62053200D02*
X171110200Y-62053200D01*
X171110200Y-62053200D02*
X171110200Y-63323200D01*
X55692600Y-56973200D02*
X53406600Y-56973200D01*
X53406600Y-56973200D02*
X53406600Y-55703200D01*
X53406600Y-55703200D02*
X55692600Y-55703200D01*
X55692600Y-55703200D02*
X55692600Y-56973200D01*
X55768800Y-54382400D02*
X53482800Y-54382400D01*
X53482800Y-54382400D02*
X53482800Y-53112400D01*
X53482800Y-53112400D02*
X55768800Y-53112400D01*
X55768800Y-53112400D02*
X55768800Y-54382400D01*
X54549600Y-64542400D02*
X56835600Y-64542400D01*
X56835600Y-64542400D02*
X56835600Y-65812400D01*
X56835600Y-65812400D02*
X54549600Y-65812400D01*
X54549600Y-65812400D02*
X54549600Y-64542400D01*
X171465800Y-76251800D02*
X169179800Y-76251800D01*
X169179800Y-76251800D02*
X169179800Y-74981800D01*
X169179800Y-74981800D02*
X171465800Y-74981800D01*
X171465800Y-74981800D02*
X171465800Y-76251800D01*
X56911800Y-62993000D02*
X54625800Y-62993000D01*
X54625800Y-62993000D02*
X54625800Y-61723000D01*
X54625800Y-61723000D02*
X56911800Y-61723000D01*
X56911800Y-61723000D02*
X56911800Y-62993000D01*
X56911800Y-60173600D02*
X54625800Y-60173600D01*
X54625800Y-60173600D02*
X54625800Y-58903600D01*
X54625800Y-58903600D02*
X56911800Y-58903600D01*
X56911800Y-58903600D02*
X56911800Y-60173600D01*
X74768000Y-65482200D02*
X74768000Y-69292200D01*
X74768000Y-69292200D02*
X76546000Y-69292200D01*
X76546000Y-69292200D02*
X76546000Y-65482200D01*
X74768000Y-65482200D02*
X76546000Y-65482200D01*
D16*
X161350500Y-32386500D02*
X161350500Y-40006500D01*
X146110500Y-32386500D02*
X146110500Y-40006500D01*
X161350500Y-33656500D02*
X146110500Y-33656500D01*
X161350500Y-40006500D02*
X146110500Y-40006500D01*
X161350500Y-32386500D02*
X146110500Y-32386500D01*
X74990500Y-32386500D02*
X74990500Y-40006500D01*
X59750500Y-32386500D02*
X59750500Y-40006500D01*
X74990500Y-33656500D02*
X59750500Y-33656500D01*
X74990500Y-40006500D02*
X59750500Y-40006500D01*
X74990500Y-32386500D02*
X59750500Y-32386500D01*
D23*
X174286720Y-70976720D02*
X174286720Y-71477100D01*
X174286720Y-75177880D02*
X174286720Y-74677500D01*
X176285700Y-76877140D02*
X175485600Y-76877140D01*
X176285700Y-69277460D02*
X175485600Y-69277460D01*
X178785060Y-76877140D02*
X178785060Y-69277460D01*
X178785060Y-69277460D02*
X178386280Y-69277460D01*
X178785060Y-76877140D02*
X178386280Y-76877140D01*
X174235920Y-56740320D02*
X174235920Y-57240700D01*
X174235920Y-60941480D02*
X174235920Y-60441100D01*
X176234900Y-62640740D02*
X175434800Y-62640740D01*
X176234900Y-55041060D02*
X175434800Y-55041060D01*
X178734260Y-62640740D02*
X178734260Y-55041060D01*
X178734260Y-55041060D02*
X178335480Y-55041060D01*
X178734260Y-62640740D02*
X178335480Y-62640740D01*
D16*
X130870500Y-32386500D02*
X130870500Y-40006500D01*
X115630500Y-32386500D02*
X115630500Y-40006500D01*
X130870500Y-33656500D02*
X115630500Y-33656500D01*
X130870500Y-40006500D02*
X115630500Y-40006500D01*
X130870500Y-32386500D02*
X115630500Y-32386500D01*
X115630500Y-32386500D02*
X115630500Y-40006500D01*
X100390500Y-32386500D02*
X100390500Y-40006500D01*
X115630500Y-33656500D02*
X100390500Y-33656500D01*
X115630500Y-40006500D02*
X100390500Y-40006500D01*
X115630500Y-32386500D02*
X100390500Y-32386500D01*
X80102000Y-116206000D02*
X80102000Y-108586000D01*
X95342000Y-116206000D02*
X95342000Y-108586000D01*
X80102000Y-114936000D02*
X95342000Y-114936000D01*
X80102000Y-108586000D02*
X95342000Y-108586000D01*
X80102000Y-116206000D02*
X95342000Y-116206000D01*
X80102000Y-114936000D02*
X69942000Y-114936000D01*
X80102000Y-116206000D02*
X80102000Y-108586000D01*
X80102000Y-108586000D02*
X69942000Y-108586000D01*
X69942000Y-108586000D02*
X69942000Y-116206000D01*
X69942000Y-116206000D02*
X80102000Y-116206000D01*
X105502000Y-116206000D02*
X105502000Y-108586000D01*
X120742000Y-116206000D02*
X120742000Y-108586000D01*
X105502000Y-114936000D02*
X120742000Y-114936000D01*
X105502000Y-108586000D02*
X120742000Y-108586000D01*
X105502000Y-116206000D02*
X120742000Y-116206000D01*
X135950500Y-116206500D02*
X135950500Y-108586500D01*
X151190500Y-116206500D02*
X151190500Y-108586500D01*
X135950500Y-114936500D02*
X151190500Y-114936500D01*
X135950500Y-108586500D02*
X151190500Y-108586500D01*
X135950500Y-116206500D02*
X151190500Y-116206500D01*
X105502000Y-114936000D02*
X95342000Y-114936000D01*
X105502000Y-116206000D02*
X105502000Y-108586000D01*
X105502000Y-108586000D02*
X95342000Y-108586000D01*
X95342000Y-108586000D02*
X95342000Y-116206000D01*
X95342000Y-116206000D02*
X105502000Y-116206000D01*
X120710500Y-116206500D02*
X120710500Y-108586500D01*
X135950500Y-116206500D02*
X135950500Y-108586500D01*
X120710500Y-114936500D02*
X135950500Y-114936500D01*
X120710500Y-108586500D02*
X135950500Y-108586500D01*
X120710500Y-116206500D02*
X135950500Y-116206500D01*
X100390500Y-32386500D02*
X100390500Y-40006500D01*
X85150500Y-32386500D02*
X85150500Y-40006500D01*
X100390500Y-33656500D02*
X85150500Y-33656500D01*
X100390500Y-40006500D02*
X85150500Y-40006500D01*
X100390500Y-32386500D02*
X85150500Y-32386500D01*
X74990500Y-33656500D02*
X85150500Y-33656500D01*
X74990500Y-32386500D02*
X74990500Y-40006500D01*
X74990500Y-40006500D02*
X85150500Y-40006500D01*
X85150500Y-40006500D02*
X85150500Y-32386500D01*
X85150500Y-32386500D02*
X74990500Y-32386500D01*
X161350500Y-114936500D02*
X151190500Y-114936500D01*
X161350500Y-116206500D02*
X161350500Y-108586500D01*
X161350500Y-108586500D02*
X151190500Y-108586500D01*
X151190500Y-108586500D02*
X151190500Y-116206500D01*
X151190500Y-116206500D02*
X161350500Y-116206500D01*
X69910500Y-114936500D02*
X59750500Y-114936500D01*
X69910500Y-116206500D02*
X69910500Y-108586500D01*
X69910500Y-108586500D02*
X59750500Y-108586500D01*
X59750500Y-108586500D02*
X59750500Y-116206500D01*
X59750500Y-116206500D02*
X69910500Y-116206500D01*
D17*
X161763000Y-49531000D02*
X159223000Y-49531000D01*
X159223000Y-51309000D02*
X161763000Y-51309000D01*
X159223000Y-51309000D02*
X159223000Y-49531000D01*
X161763000Y-49531000D02*
X161763000Y-51309000D01*
X155667000Y-51309000D02*
X158207000Y-51309000D01*
X158207000Y-49531000D02*
X155667000Y-49531000D01*
X158207000Y-49531000D02*
X158207000Y-51309000D01*
X155667000Y-51309000D02*
X155667000Y-49531000D01*
X140858800Y-48388000D02*
X140858800Y-45848000D01*
X139080800Y-45848000D02*
X139080800Y-48388000D01*
X139080800Y-45848000D02*
X140858800Y-45848000D01*
X140858800Y-48388000D02*
X139080800Y-48388000D01*
X152238000Y-51309000D02*
X154778000Y-51309000D01*
X154778000Y-49531000D02*
X152238000Y-49531000D01*
X154778000Y-49531000D02*
X154778000Y-51309000D01*
X152238000Y-51309000D02*
X152238000Y-49531000D01*
X59680400Y-49861200D02*
X59680400Y-52401200D01*
X61458400Y-52401200D02*
X61458400Y-49861200D01*
X61458400Y-52401200D02*
X59680400Y-52401200D01*
X59680400Y-49861200D02*
X61458400Y-49861200D01*
X57038800Y-49937400D02*
X57038800Y-52477400D01*
X58816800Y-52477400D02*
X58816800Y-49937400D01*
X58816800Y-52477400D02*
X57038800Y-52477400D01*
X57038800Y-49937400D02*
X58816800Y-49937400D01*
X87817500Y-42292500D02*
X90357500Y-42292500D01*
X90357500Y-40514500D02*
X87817500Y-40514500D01*
X90357500Y-40514500D02*
X90357500Y-42292500D01*
X87817500Y-42292500D02*
X87817500Y-40514500D01*
X52162000Y-99315000D02*
X52162000Y-103125000D01*
X52162000Y-103125000D02*
X53940000Y-103125000D01*
X53940000Y-103125000D02*
X53940000Y-99315000D01*
X52162000Y-99315000D02*
X53940000Y-99315000D01*
D22*
X167698980Y-87897700D02*
X167947900Y-88146620D01*
X176197820Y-87897700D02*
X175948900Y-88146620D01*
X175948900Y-79647780D02*
X176197820Y-79896700D01*
X167947900Y-79647780D02*
X167698980Y-79896700D01*
X167698980Y-79647780D02*
X176197820Y-79647780D01*
X176197820Y-79647780D02*
X176197820Y-88146620D01*
X176197820Y-88146620D02*
X167698980Y-88146620D01*
X167698980Y-88146620D02*
X167698980Y-79647780D01*
X167947900Y-79896700D02*
X175948900Y-79896700D01*
X175948900Y-79896700D02*
X175948900Y-87897700D01*
X175948900Y-87897700D02*
X167947900Y-87897700D01*
X167947900Y-87897700D02*
X167947900Y-79896700D01*
D24*
X133632500Y-83605100D02*
X148872500Y-83605100D01*
X148872500Y-83605100D02*
X148872500Y-78525100D01*
X148872500Y-78525100D02*
X133632500Y-78525100D01*
X133632500Y-78525100D02*
X133632500Y-83605100D01*
X78070000Y-62485000D02*
X62830000Y-62485000D01*
X62830000Y-62485000D02*
X62830000Y-65025000D01*
X62830000Y-65025000D02*
X78070000Y-65025000D01*
X78070000Y-65025000D02*
X78070000Y-62485000D01*
D16*
X136286800Y-85687900D02*
X146446800Y-85687900D01*
X146446800Y-85687900D02*
X146446800Y-90767900D01*
X146446800Y-90767900D02*
X136286800Y-90767900D01*
X136286800Y-90767900D02*
X136286800Y-85687900D01*
D24*
X91532000Y-74169000D02*
X83912000Y-74169000D01*
X83912000Y-74169000D02*
X83912000Y-79249000D01*
X83912000Y-79249000D02*
X91532000Y-79249000D01*
X91532000Y-79249000D02*
X91532000Y-74169000D01*
D19*
X58277300Y-102033300D02*
X58277300Y-102490500D01*
X58277300Y-102490500D02*
X59115500Y-102490500D01*
X59115500Y-102033300D02*
X59115500Y-102490500D01*
X58277300Y-102033300D02*
X59115500Y-102033300D01*
X58277300Y-105030500D02*
X58277300Y-105487700D01*
X58277300Y-105487700D02*
X59115500Y-105487700D01*
X59115500Y-105030500D02*
X59115500Y-105487700D01*
X58277300Y-105030500D02*
X59115500Y-105030500D01*
X58277300Y-103481100D02*
X58277300Y-104039900D01*
X58277300Y-104039900D02*
X59115500Y-104039900D01*
X59115500Y-103481100D02*
X59115500Y-104039900D01*
X58277300Y-103481100D02*
X59115500Y-103481100D01*
X57705800Y-103361720D02*
X57705800Y-104159280D01*
X57705800Y-104159280D02*
X59107880Y-104159280D01*
X59107880Y-103361720D02*
X59107880Y-104159280D01*
X57705800Y-103361720D02*
X59107880Y-103361720D01*
X57611820Y-101736120D02*
X57611820Y-102787680D01*
X57611820Y-102787680D02*
X59186620Y-102787680D01*
X59186620Y-101736120D02*
X59186620Y-102787680D01*
X57611820Y-101736120D02*
X59186620Y-101736120D01*
X57611820Y-104733320D02*
X57611820Y-105784880D01*
X57611820Y-105784880D02*
X59186620Y-105784880D01*
X59186620Y-104733320D02*
X59186620Y-105784880D01*
X57611820Y-104733320D02*
X59186620Y-104733320D01*
X57611820Y-103237260D02*
X57611820Y-104283740D01*
X57611820Y-104283740D02*
X59186620Y-104283740D01*
X59186620Y-103237260D02*
X59186620Y-104283740D01*
X57611820Y-103237260D02*
X59186620Y-103237260D01*
X57705800Y-104860320D02*
X57705800Y-105660420D01*
X57705800Y-105660420D02*
X59107880Y-105660420D01*
X59107880Y-104860320D02*
X59107880Y-105660420D01*
X57705800Y-104860320D02*
X59107880Y-104860320D01*
X57705800Y-101860580D02*
X57705800Y-102660680D01*
X57705800Y-102660680D02*
X59107880Y-102660680D01*
X59107880Y-101860580D02*
X59107880Y-102660680D01*
X57705800Y-101860580D02*
X59107880Y-101860580D01*
D17*
X59140900Y-105993160D02*
X59140900Y-101527840D01*
X61602160Y-105993160D02*
X59140900Y-105993160D01*
X59140900Y-101527840D02*
X61602160Y-101527840D01*
X61602160Y-101527840D02*
X61602160Y-105993160D01*
D25*
X61960300Y-102973100D02*
X62392100Y-103404900D01*
X62392100Y-103404900D02*
X62392100Y-104116100D01*
X62392100Y-104116100D02*
X61960300Y-104547900D01*
X61960300Y-104547900D02*
X61678360Y-104547900D01*
X61678360Y-104547900D02*
X61678360Y-102973100D01*
X61678360Y-102973100D02*
X61960300Y-102973100D01*
X61706300Y-102973100D02*
X61960300Y-102973100D01*
X61960300Y-102973100D02*
X62392100Y-103404900D01*
X62392100Y-103404900D02*
X62392100Y-104065300D01*
X62392100Y-104065300D02*
X62392100Y-104116100D01*
X62392100Y-104116100D02*
X61960300Y-104547900D01*
X61960300Y-104547900D02*
X61678360Y-104547900D01*
X61678360Y-104547900D02*
X61678360Y-102973100D01*
X61678360Y-102973100D02*
X61706300Y-102973100D01*
D18*
X124171000Y-96521000D02*
X124171000Y-93473000D01*
X124171000Y-93473000D02*
X117059000Y-93473000D01*
X117059000Y-93473000D02*
X117059000Y-96521000D01*
X124171000Y-99569000D02*
X124171000Y-100331000D01*
X124171000Y-100331000D02*
X122647000Y-102617000D01*
X122647000Y-102617000D02*
X118583000Y-102617000D01*
X118583000Y-102617000D02*
X117059000Y-100331000D01*
X117059000Y-100331000D02*
X117059000Y-99569000D01*
X133696000Y-96521000D02*
X133696000Y-93473000D01*
X133696000Y-93473000D02*
X126584000Y-93473000D01*
X126584000Y-93473000D02*
X126584000Y-96521000D01*
X133696000Y-99569000D02*
X133696000Y-100331000D01*
X133696000Y-100331000D02*
X132172000Y-102617000D01*
X132172000Y-102617000D02*
X128108000Y-102617000D01*
X128108000Y-102617000D02*
X126584000Y-100331000D01*
X126584000Y-100331000D02*
X126584000Y-99569000D01*
X143221000Y-96521000D02*
X143221000Y-93473000D01*
X143221000Y-93473000D02*
X136109000Y-93473000D01*
X136109000Y-93473000D02*
X136109000Y-96521000D01*
X143221000Y-99569000D02*
X143221000Y-100331000D01*
X143221000Y-100331000D02*
X141697000Y-102617000D01*
X141697000Y-102617000D02*
X137633000Y-102617000D01*
X137633000Y-102617000D02*
X136109000Y-100331000D01*
X136109000Y-100331000D02*
X136109000Y-99569000D01*
X152746000Y-96521000D02*
X152746000Y-93473000D01*
X152746000Y-93473000D02*
X145634000Y-93473000D01*
X145634000Y-93473000D02*
X145634000Y-96521000D01*
X152746000Y-99569000D02*
X152746000Y-100331000D01*
X152746000Y-100331000D02*
X151222000Y-102617000D01*
X151222000Y-102617000D02*
X147158000Y-102617000D01*
X147158000Y-102617000D02*
X145634000Y-100331000D01*
X145634000Y-100331000D02*
X145634000Y-99569000D01*
D26*
X71531090Y-98075480D02*
G75*
G03X71531090Y-98075480I-159070J0D01*
G01*
X68926000Y-98934000D02*
X68926000Y-97918000D01*
X71529500Y-98934000D02*
X71529500Y-97918000D01*
X68926000Y-97918000D02*
X71529500Y-97918000D01*
X71529500Y-98934000D02*
X68926000Y-98934000D01*
D17*
X63701500Y-78000380D02*
X63701500Y-78706500D01*
X63701500Y-78706500D02*
X65098500Y-78706500D01*
X65098500Y-78706500D02*
X65098500Y-78000380D01*
X63701500Y-76293500D02*
X63701500Y-76999620D01*
X63701500Y-76293500D02*
X65098500Y-76293500D01*
X65098500Y-76293500D02*
X65098500Y-76999620D01*
X64798500Y-72099620D02*
X64798500Y-71393500D01*
X64798500Y-71393500D02*
X63401500Y-71393500D01*
X63401500Y-71393500D02*
X63401500Y-72099620D01*
X64798500Y-73806500D02*
X64798500Y-73100380D01*
X64798500Y-73806500D02*
X63401500Y-73806500D01*
X63401500Y-73806500D02*
X63401500Y-73100380D01*
X68101500Y-78700380D02*
X68101500Y-79406500D01*
X68101500Y-79406500D02*
X69498500Y-79406500D01*
X69498500Y-79406500D02*
X69498500Y-78700380D01*
X68101500Y-76993500D02*
X68101500Y-77699620D01*
X68101500Y-76993500D02*
X69498500Y-76993500D01*
X69498500Y-76993500D02*
X69498500Y-77699620D01*
X65301500Y-78000380D02*
X65301500Y-78706500D01*
X65301500Y-78706500D02*
X66698500Y-78706500D01*
X66698500Y-78706500D02*
X66698500Y-78000380D01*
X65301500Y-76293500D02*
X65301500Y-76999620D01*
X65301500Y-76293500D02*
X66698500Y-76293500D01*
X66698500Y-76293500D02*
X66698500Y-76999620D01*
X72012100Y-67648820D02*
X72012100Y-66942700D01*
X72012100Y-66942700D02*
X70615100Y-66942700D01*
X70615100Y-66942700D02*
X70615100Y-67648820D01*
X72012100Y-69355700D02*
X72012100Y-68649580D01*
X72012100Y-69355700D02*
X70615100Y-69355700D01*
X70615100Y-69355700D02*
X70615100Y-68649580D01*
X70183300Y-67623420D02*
X70183300Y-66917300D01*
X70183300Y-66917300D02*
X68786300Y-66917300D01*
X68786300Y-66917300D02*
X68786300Y-67623420D01*
X70183300Y-69330300D02*
X70183300Y-68624180D01*
X70183300Y-69330300D02*
X68786300Y-69330300D01*
X68786300Y-69330300D02*
X68786300Y-68624180D01*
X73840900Y-67674220D02*
X73840900Y-66968100D01*
X73840900Y-66968100D02*
X72443900Y-66968100D01*
X72443900Y-66968100D02*
X72443900Y-67674220D01*
X73840900Y-69381100D02*
X73840900Y-68674980D01*
X73840900Y-69381100D02*
X72443900Y-69381100D01*
X72443900Y-69381100D02*
X72443900Y-68674980D01*
X81237380Y-68263500D02*
X81943500Y-68263500D01*
X81943500Y-68263500D02*
X81943500Y-66866500D01*
X81943500Y-66866500D02*
X81237380Y-66866500D01*
X79530500Y-68263500D02*
X80236620Y-68263500D01*
X79530500Y-68263500D02*
X79530500Y-66866500D01*
X79530500Y-66866500D02*
X80236620Y-66866500D01*
X81237380Y-70549500D02*
X81943500Y-70549500D01*
X81943500Y-70549500D02*
X81943500Y-69152500D01*
X81943500Y-69152500D02*
X81237380Y-69152500D01*
X79530500Y-70549500D02*
X80236620Y-70549500D01*
X79530500Y-70549500D02*
X79530500Y-69152500D01*
X79530500Y-69152500D02*
X80236620Y-69152500D01*
X85448700Y-67267820D02*
X85448700Y-66561700D01*
X85448700Y-66561700D02*
X84051700Y-66561700D01*
X84051700Y-66561700D02*
X84051700Y-67267820D01*
X85448700Y-68974700D02*
X85448700Y-68268580D01*
X85448700Y-68974700D02*
X84051700Y-68974700D01*
X84051700Y-68974700D02*
X84051700Y-68268580D01*
X78362100Y-67013820D02*
X78362100Y-66307700D01*
X78362100Y-66307700D02*
X76965100Y-66307700D01*
X76965100Y-66307700D02*
X76965100Y-67013820D01*
X78362100Y-68720700D02*
X78362100Y-68014580D01*
X78362100Y-68720700D02*
X76965100Y-68720700D01*
X76965100Y-68720700D02*
X76965100Y-68014580D01*
X81224680Y-72822800D02*
X81930800Y-72822800D01*
X81930800Y-72822800D02*
X81930800Y-71425800D01*
X81930800Y-71425800D02*
X81224680Y-71425800D01*
X79517800Y-72822800D02*
X80223920Y-72822800D01*
X79517800Y-72822800D02*
X79517800Y-71425800D01*
X79517800Y-71425800D02*
X80223920Y-71425800D01*
X69498500Y-80599620D02*
X69498500Y-79893500D01*
X69498500Y-79893500D02*
X68101500Y-79893500D01*
X68101500Y-79893500D02*
X68101500Y-80599620D01*
X69498500Y-82306500D02*
X69498500Y-81600380D01*
X69498500Y-82306500D02*
X68101500Y-82306500D01*
X68101500Y-82306500D02*
X68101500Y-81600380D01*
X77046380Y-79896700D02*
X77752500Y-79896700D01*
X77752500Y-79896700D02*
X77752500Y-78499700D01*
X77752500Y-78499700D02*
X77046380Y-78499700D01*
X75339500Y-79896700D02*
X76045620Y-79896700D01*
X75339500Y-79896700D02*
X75339500Y-78499700D01*
X75339500Y-78499700D02*
X76045620Y-78499700D01*
X80262020Y-73102200D02*
X79555900Y-73102200D01*
X79555900Y-73102200D02*
X79555900Y-74499200D01*
X79555900Y-74499200D02*
X80262020Y-74499200D01*
X81968900Y-73102200D02*
X81262780Y-73102200D01*
X81968900Y-73102200D02*
X81968900Y-74499200D01*
X81968900Y-74499200D02*
X81262780Y-74499200D01*
X162557000Y-67938880D02*
X162557000Y-68645000D01*
X162557000Y-68645000D02*
X163954000Y-68645000D01*
X163954000Y-68645000D02*
X163954000Y-67938880D01*
X162557000Y-66232000D02*
X162557000Y-66938120D01*
X162557000Y-66232000D02*
X163954000Y-66232000D01*
X163954000Y-66232000D02*
X163954000Y-66938120D01*
X136142020Y-43752500D02*
X135435900Y-43752500D01*
X135435900Y-43752500D02*
X135435900Y-45149500D01*
X135435900Y-45149500D02*
X136142020Y-45149500D01*
X137848900Y-43752500D02*
X137142780Y-43752500D01*
X137848900Y-43752500D02*
X137848900Y-45149500D01*
X137848900Y-45149500D02*
X137142780Y-45149500D01*
X137117380Y-47410100D02*
X137823500Y-47410100D01*
X137823500Y-47410100D02*
X137823500Y-46013100D01*
X137823500Y-46013100D02*
X137117380Y-46013100D01*
X135410500Y-47410100D02*
X136116620Y-47410100D01*
X135410500Y-47410100D02*
X135410500Y-46013100D01*
X135410500Y-46013100D02*
X136116620Y-46013100D01*
X137117380Y-49619900D02*
X137823500Y-49619900D01*
X137823500Y-49619900D02*
X137823500Y-48222900D01*
X137823500Y-48222900D02*
X137117380Y-48222900D01*
X135410500Y-49619900D02*
X136116620Y-49619900D01*
X135410500Y-49619900D02*
X135410500Y-48222900D01*
X135410500Y-48222900D02*
X136116620Y-48222900D01*
X75029620Y-55436500D02*
X74323500Y-55436500D01*
X74323500Y-55436500D02*
X74323500Y-56833500D01*
X74323500Y-56833500D02*
X75029620Y-56833500D01*
X76736500Y-55436500D02*
X76030380Y-55436500D01*
X76736500Y-55436500D02*
X76736500Y-56833500D01*
X76736500Y-56833500D02*
X76030380Y-56833500D01*
D10*
X68223000Y-96918000D02*
X68223000Y-98918000D01*
X66073000Y-98918000D02*
X66073000Y-96918000D01*
X121834200Y-104776000D02*
X121453200Y-104776000D01*
X121453200Y-104776000D02*
X119751400Y-106477800D01*
X119751400Y-106477800D02*
X119421200Y-106477800D01*
X119192600Y-105665000D02*
X119192600Y-105157000D01*
X122088200Y-105157000D02*
X119243400Y-105157000D01*
X122088200Y-105665000D02*
X122088200Y-105157000D01*
X122342200Y-105665000D02*
X122088200Y-105665000D01*
X122088200Y-105665000D02*
X122088200Y-106173000D01*
X122088200Y-106173000D02*
X119192600Y-106173000D01*
X119192600Y-106173000D02*
X119192600Y-105665000D01*
X119192600Y-105665000D02*
X118989400Y-105665000D01*
X118115000Y-103865000D02*
X123115000Y-103865000D01*
X123115000Y-107465000D02*
X118115000Y-107465000D01*
X131359200Y-104776000D02*
X130978200Y-104776000D01*
X130978200Y-104776000D02*
X129276400Y-106477800D01*
X129276400Y-106477800D02*
X128946200Y-106477800D01*
X128717600Y-105665000D02*
X128717600Y-105157000D01*
X131613200Y-105157000D02*
X128768400Y-105157000D01*
X131613200Y-105665000D02*
X131613200Y-105157000D01*
X131867200Y-105665000D02*
X131613200Y-105665000D01*
X131613200Y-105665000D02*
X131613200Y-106173000D01*
X131613200Y-106173000D02*
X128717600Y-106173000D01*
X128717600Y-106173000D02*
X128717600Y-105665000D01*
X128717600Y-105665000D02*
X128514400Y-105665000D01*
X127640000Y-103865000D02*
X132640000Y-103865000D01*
X132640000Y-107465000D02*
X127640000Y-107465000D01*
X138445800Y-106554000D02*
X138826800Y-106554000D01*
X138826800Y-106554000D02*
X140528600Y-104852200D01*
X140528600Y-104852200D02*
X140858800Y-104852200D01*
X141087400Y-105665000D02*
X141087400Y-106173000D01*
X138191800Y-106173000D02*
X141036600Y-106173000D01*
X138191800Y-105665000D02*
X138191800Y-106173000D01*
X137937800Y-105665000D02*
X138191800Y-105665000D01*
X138191800Y-105665000D02*
X138191800Y-105157000D01*
X138191800Y-105157000D02*
X141087400Y-105157000D01*
X141087400Y-105157000D02*
X141087400Y-105665000D01*
X141087400Y-105665000D02*
X141290600Y-105665000D01*
X142165000Y-107465000D02*
X137165000Y-107465000D01*
X137165000Y-103865000D02*
X142165000Y-103865000D01*
X150409200Y-104776000D02*
X150028200Y-104776000D01*
X150028200Y-104776000D02*
X148326400Y-106477800D01*
X148326400Y-106477800D02*
X147996200Y-106477800D01*
X147767600Y-105665000D02*
X147767600Y-105157000D01*
X150663200Y-105157000D02*
X147818400Y-105157000D01*
X150663200Y-105665000D02*
X150663200Y-105157000D01*
X150917200Y-105665000D02*
X150663200Y-105665000D01*
X150663200Y-105665000D02*
X150663200Y-106173000D01*
X150663200Y-106173000D02*
X147767600Y-106173000D01*
X147767600Y-106173000D02*
X147767600Y-105665000D01*
X147767600Y-105665000D02*
X147564400Y-105665000D01*
X146690000Y-103865000D02*
X151690000Y-103865000D01*
X151690000Y-107465000D02*
X146690000Y-107465000D01*
X154250800Y-86599000D02*
X154631800Y-86599000D01*
X154631800Y-86599000D02*
X156333600Y-84897200D01*
X156333600Y-84897200D02*
X156663800Y-84897200D01*
X156892400Y-85710000D02*
X156892400Y-86218000D01*
X153996800Y-86218000D02*
X156841600Y-86218000D01*
X153996800Y-85710000D02*
X153996800Y-86218000D01*
X153742800Y-85710000D02*
X153996800Y-85710000D01*
X153996800Y-85710000D02*
X153996800Y-85202000D01*
X153996800Y-85202000D02*
X156892400Y-85202000D01*
X156892400Y-85202000D02*
X156892400Y-85710000D01*
X156892400Y-85710000D02*
X157095600Y-85710000D01*
X157970000Y-87510000D02*
X152970000Y-87510000D01*
X152970000Y-83910000D02*
X157970000Y-83910000D01*
X156779200Y-89291000D02*
X156398200Y-89291000D01*
X156398200Y-89291000D02*
X154696400Y-90992800D01*
X154696400Y-90992800D02*
X154366200Y-90992800D01*
X154137600Y-90180000D02*
X154137600Y-89672000D01*
X157033200Y-89672000D02*
X154188400Y-89672000D01*
X157033200Y-90180000D02*
X157033200Y-89672000D01*
X157287200Y-90180000D02*
X157033200Y-90180000D01*
X157033200Y-90180000D02*
X157033200Y-90688000D01*
X157033200Y-90688000D02*
X154137600Y-90688000D01*
X154137600Y-90688000D02*
X154137600Y-90180000D01*
X154137600Y-90180000D02*
X153934400Y-90180000D01*
X153060000Y-88380000D02*
X158060000Y-88380000D01*
X158060000Y-91980000D02*
X153060000Y-91980000D01*
X56449520Y-112609360D02*
X56449520Y-112228360D01*
X56449520Y-112228360D02*
X54747720Y-110526560D01*
X54747720Y-110526560D02*
X54747720Y-110196360D01*
X55560520Y-109967760D02*
X56068520Y-109967760D01*
X56068520Y-112863360D02*
X56068520Y-110018560D01*
X55560520Y-112863360D02*
X56068520Y-112863360D01*
X55560520Y-113117360D02*
X55560520Y-112863360D01*
X55560520Y-112863360D02*
X55052520Y-112863360D01*
X55052520Y-112863360D02*
X55052520Y-109967760D01*
X55052520Y-109967760D02*
X55560520Y-109967760D01*
X55560520Y-109967760D02*
X55560520Y-109764560D01*
X57360520Y-108890160D02*
X57360520Y-113890160D01*
X53760520Y-113890160D02*
X53760520Y-108890160D01*
X147885000Y-75950000D02*
X147885000Y-73950000D01*
X147885000Y-73950000D02*
X145085000Y-73950000D01*
X145085000Y-73950000D02*
X145085000Y-75950000D01*
X145085000Y-75950000D02*
X147885000Y-75950000D01*
X148285000Y-73750000D02*
G75*
G03X148285000Y-73750000I-200000J0D01*
G01*
D23*
X75371500Y-77217500D02*
X74355500Y-77217500D01*
X69275500Y-71121500D02*
X70291500Y-71121500D01*
X75371500Y-71121500D02*
X74355500Y-71121500D01*
X75371500Y-72137500D02*
X75371500Y-71121500D01*
X75371500Y-77217500D02*
X75371500Y-76201500D01*
X70291500Y-77217500D02*
X69275500Y-76201500D01*
X69275500Y-71121500D02*
X69275500Y-72137500D01*
D22*
X70450000Y-55246000D02*
X70450000Y-60580000D01*
X70450000Y-60580000D02*
X66767000Y-60580000D01*
X66767000Y-60580000D02*
X66767000Y-55246000D01*
X66767000Y-55246000D02*
X70450000Y-55246000D01*
X67712039Y-55837820D02*
G75*
G03X67712039Y-55837820I-325279J0D01*
G01*
D26*
X59044450Y-43861720D02*
G75*
G03X59044450Y-43861720I-159070J0D01*
G01*
X61331400Y-43003200D02*
X61331400Y-44019200D01*
X58727900Y-43003200D02*
X58727900Y-44019200D01*
X61331400Y-44019200D02*
X58727900Y-44019200D01*
X58727900Y-43003200D02*
X61331400Y-43003200D01*
D27*
X124371660Y-73259680D02*
X127373940Y-73259680D01*
X127373940Y-73259680D02*
X127373940Y-74509360D01*
X124371660Y-74509360D02*
X124371660Y-73259680D01*
X127373940Y-75708240D02*
X127373940Y-76957920D01*
X127373940Y-76957920D02*
X124371660Y-76957920D01*
X124371660Y-76957920D02*
X124371660Y-75708240D01*
X127373940Y-75708240D02*
X127373940Y-74509360D01*
X124371660Y-75708240D02*
X124371660Y-74509360D01*
D17*
X127371400Y-75705700D02*
X124374200Y-75705700D01*
X124374200Y-74511900D02*
X127371400Y-74511900D01*
X135250480Y-65339960D02*
X135250480Y-71943960D01*
X135250480Y-71943960D02*
X139822480Y-71943960D01*
X139822480Y-71943960D02*
X139822480Y-65339960D01*
X139822480Y-65339960D02*
X135250480Y-65339960D01*
X139344461Y-71054960D02*
G75*
G03X139344461Y-71054960I-283981J0D01*
G01*
D16*
X96383400Y-54151260D02*
X94882260Y-55652400D01*
X96383400Y-75649820D02*
X94882260Y-75649820D01*
X94882260Y-75649820D02*
X94882260Y-74148680D01*
X114879680Y-75649820D02*
X116380820Y-75649820D01*
X116380820Y-75649820D02*
X116380820Y-74148680D01*
X114879680Y-54151260D02*
X116380820Y-54151260D01*
X116380820Y-54151260D02*
X116380820Y-55652400D01*
X96131940Y-56152780D02*
X98133460Y-56152780D01*
D28*
X94569840Y-54527180D02*
G75*
G03X94569840Y-54527180I-187960J0D01*
G01*
D10*
X125747605Y-61596000D02*
G75*
G03X125747605Y-61596000I-179605J0D01*
G01*
X120742000Y-61342000D02*
X125187000Y-61342000D01*
X125187000Y-61342000D02*
X125187000Y-56389000D01*
X125187000Y-56389000D02*
X120742000Y-56389000D01*
X120742000Y-56389000D02*
X120742000Y-61342000D01*
D26*
X90388050Y-50770520D02*
G75*
G03X90388050Y-50770520I-159070J0D01*
G01*
X92675000Y-49912000D02*
X92675000Y-50928000D01*
X90071500Y-49912000D02*
X90071500Y-50928000D01*
X92675000Y-50928000D02*
X90071500Y-50928000D01*
X90071500Y-49912000D02*
X92675000Y-49912000D01*
D17*
X99662000Y-42500000D02*
X99865200Y-42500000D01*
X101186000Y-44405000D02*
X96614000Y-44405000D01*
X96614000Y-44405000D02*
X96614000Y-43770000D01*
X98239600Y-40595000D02*
X98239600Y-44405000D01*
X97909400Y-40595000D02*
X97909400Y-44405000D01*
X101186000Y-41230000D02*
X101186000Y-40595000D01*
X101186000Y-40595000D02*
X96614000Y-40595000D01*
X96614000Y-40595000D02*
X96614000Y-41230000D01*
X101186000Y-43770000D02*
X101186000Y-44405000D01*
X99027000Y-42500000D02*
X99662000Y-42974980D01*
X99662000Y-42974980D02*
X99662000Y-42500000D01*
X99662000Y-42500000D02*
X99662000Y-42025020D01*
X99662000Y-42025020D02*
X99027000Y-42500000D01*
X99027000Y-42500000D02*
X99027000Y-42817500D01*
X99027000Y-42817500D02*
X99184480Y-42974980D01*
X99027000Y-42500000D02*
X99027000Y-42182500D01*
X99027000Y-42182500D02*
X98869520Y-42025020D01*
X99027000Y-42500000D02*
X97917020Y-42500000D01*
D26*
X51009590Y-106576020D02*
G75*
G03X51009590Y-106576020I-159070J0D01*
G01*
X49992000Y-104130000D02*
X51008000Y-104130000D01*
X49992000Y-106733500D02*
X51008000Y-106733500D01*
X51008000Y-104130000D02*
X51008000Y-106733500D01*
X49992000Y-106733500D02*
X49992000Y-104130000D01*
D10*
X59742000Y-47872000D02*
X59742000Y-46872000D01*
X61092000Y-46872000D02*
X61092000Y-47872000D01*
X57151200Y-47897400D02*
X57151200Y-46897400D01*
X58501200Y-46897400D02*
X58501200Y-47897400D01*
X88450000Y-71300000D02*
X87450000Y-71300000D01*
X87450000Y-69950000D02*
X88450000Y-69950000D01*
X88450000Y-73475000D02*
X87450000Y-73475000D01*
X87450000Y-72125000D02*
X88450000Y-72125000D01*
X86444000Y-44364000D02*
X85444000Y-44364000D01*
X85444000Y-43014000D02*
X86444000Y-43014000D01*
X71855000Y-44792000D02*
X72855000Y-44792000D01*
X72855000Y-46142000D02*
X71855000Y-46142000D01*
X77395500Y-41824500D02*
X76395500Y-41824500D01*
X76395500Y-40474500D02*
X77395500Y-40474500D01*
X104494000Y-44030000D02*
X105494000Y-44030000D01*
X105494000Y-45380000D02*
X104494000Y-45380000D01*
X59028500Y-97164500D02*
X59028500Y-98164500D01*
X57678500Y-98164500D02*
X57678500Y-97164500D01*
X57678500Y-95370500D02*
X57678500Y-94370500D01*
X59028500Y-94370500D02*
X59028500Y-95370500D01*
X59774000Y-107991000D02*
X58774000Y-107991000D01*
X58774000Y-106641000D02*
X59774000Y-106641000D01*
X145515000Y-65239000D02*
X146515000Y-65239000D01*
X146515000Y-66589000D02*
X145515000Y-66589000D01*
X145515000Y-63588000D02*
X146515000Y-63588000D01*
X146515000Y-64938000D02*
X145515000Y-64938000D01*
X130506400Y-67120120D02*
X130506400Y-66120120D01*
X131856400Y-66120120D02*
X131856400Y-67120120D01*
X128675060Y-67094720D02*
X128675060Y-66094720D01*
X130025060Y-66094720D02*
X130025060Y-67094720D01*
X85349000Y-72018000D02*
X85349000Y-73018000D01*
X83999000Y-73018000D02*
X83999000Y-72018000D01*
X124798000Y-72812000D02*
X123798000Y-72812000D01*
X123798000Y-71462000D02*
X124798000Y-71462000D01*
X126296600Y-78628600D02*
X125296600Y-78628600D01*
X125296600Y-77278600D02*
X126296600Y-77278600D01*
X65965000Y-102736000D02*
X65965000Y-101736000D01*
X67315000Y-101736000D02*
X67315000Y-102736000D01*
X61750000Y-106625000D02*
X62750000Y-106625000D01*
X62750000Y-107975000D02*
X61750000Y-107975000D01*
X166295000Y-64534400D02*
X166295000Y-63534400D01*
X167645000Y-63534400D02*
X167645000Y-64534400D01*
X130919400Y-89106100D02*
X129919400Y-89106100D01*
X129919400Y-87756100D02*
X130919400Y-87756100D01*
X72236500Y-41538500D02*
X72236500Y-42538500D01*
X70886500Y-42538500D02*
X70886500Y-41538500D01*
X65044500Y-43046500D02*
X65044500Y-42046500D01*
X66394500Y-42046500D02*
X66394500Y-43046500D01*
X117577800Y-90328100D02*
X117577800Y-89328100D01*
X118927800Y-89328100D02*
X118927800Y-90328100D01*
X119465020Y-90320480D02*
X119465020Y-89320480D01*
X120815020Y-89320480D02*
X120815020Y-90320480D01*
X121260800Y-90335720D02*
X121260800Y-89335720D01*
X122610800Y-89335720D02*
X122610800Y-90335720D01*
X105494000Y-43398800D02*
X104494000Y-43398800D01*
X104494000Y-42048800D02*
X105494000Y-42048800D01*
X80237000Y-64985000D02*
X81237000Y-64985000D01*
X81237000Y-66335000D02*
X80237000Y-66335000D01*
X87476000Y-65315200D02*
X88476000Y-65315200D01*
X88476000Y-66665200D02*
X87476000Y-66665200D01*
X100303000Y-46951000D02*
X101303000Y-46951000D01*
X101303000Y-48301000D02*
X100303000Y-48301000D01*
X101328400Y-46243600D02*
X100328400Y-46243600D01*
X100328400Y-44893600D02*
X101328400Y-44893600D01*
X108075400Y-41947200D02*
X109075400Y-41947200D01*
X109075400Y-43297200D02*
X108075400Y-43297200D01*
X109050000Y-45405400D02*
X108050000Y-45405400D01*
X108050000Y-44055400D02*
X109050000Y-44055400D01*
X88476000Y-68494000D02*
X87476000Y-68494000D01*
X87476000Y-67144000D02*
X88476000Y-67144000D01*
X111910800Y-41921800D02*
X112910800Y-41921800D01*
X112910800Y-43271800D02*
X111910800Y-43271800D01*
X129410640Y-46202960D02*
X128410640Y-46202960D01*
X128410640Y-44852960D02*
X129410640Y-44852960D01*
X129375080Y-48478800D02*
X128375080Y-48478800D01*
X128375080Y-47128800D02*
X129375080Y-47128800D01*
X133108880Y-48428000D02*
X132108880Y-48428000D01*
X132108880Y-47078000D02*
X133108880Y-47078000D01*
X133073320Y-46187720D02*
X132073320Y-46187720D01*
X132073320Y-44837720D02*
X133073320Y-44837720D01*
X123064200Y-90320480D02*
X123064200Y-89320480D01*
X124414200Y-89320480D02*
X124414200Y-90320480D01*
X112885400Y-45456200D02*
X111885400Y-45456200D01*
X111885400Y-44106200D02*
X112885400Y-44106200D01*
X115746200Y-46265200D02*
X116746200Y-46265200D01*
X116746200Y-47615200D02*
X115746200Y-47615200D01*
X116746200Y-45430800D02*
X115746200Y-45430800D01*
X115746200Y-44080800D02*
X116746200Y-44080800D01*
X119480000Y-44207800D02*
X120480000Y-44207800D01*
X120480000Y-45557800D02*
X119480000Y-45557800D01*
X119480000Y-41921800D02*
X120480000Y-41921800D01*
X120480000Y-43271800D02*
X119480000Y-43271800D01*
D19*
X143119400Y-44715160D02*
X143119400Y-45205380D01*
X143119400Y-45205380D02*
X144219220Y-45205380D01*
X144219220Y-44715160D02*
X144219220Y-45205380D01*
X143119400Y-44715160D02*
X144219220Y-44715160D01*
X143119400Y-45985160D02*
X143119400Y-46475380D01*
X143119400Y-46475380D02*
X144219220Y-46475380D01*
X144219220Y-45985160D02*
X144219220Y-46475380D01*
X143119400Y-45985160D02*
X144219220Y-45985160D01*
X143119400Y-47252620D02*
X143119400Y-47742840D01*
X143119400Y-47742840D02*
X144219220Y-47742840D01*
X144219220Y-47252620D02*
X144219220Y-47742840D01*
X143119400Y-47252620D02*
X144219220Y-47252620D01*
X143119400Y-48522620D02*
X143119400Y-49012840D01*
X143119400Y-49012840D02*
X144219220Y-49012840D01*
X144219220Y-48522620D02*
X144219220Y-49012840D01*
X143119400Y-48522620D02*
X144219220Y-48522620D01*
X148217180Y-48522620D02*
X148217180Y-49012840D01*
X148217180Y-49012840D02*
X149317000Y-49012840D01*
X149317000Y-48522620D02*
X149317000Y-49012840D01*
X148217180Y-48522620D02*
X149317000Y-48522620D01*
X148217180Y-47252620D02*
X148217180Y-47742840D01*
X148217180Y-47742840D02*
X149317000Y-47742840D01*
X149317000Y-47252620D02*
X149317000Y-47742840D01*
X148217180Y-47252620D02*
X149317000Y-47252620D01*
X148217180Y-45985160D02*
X148217180Y-46475380D01*
X148217180Y-46475380D02*
X149317000Y-46475380D01*
X149317000Y-45985160D02*
X149317000Y-46475380D01*
X148217180Y-45985160D02*
X149317000Y-45985160D01*
X148217180Y-44715160D02*
X148217180Y-45205380D01*
X148217180Y-45205380D02*
X149317000Y-45205380D01*
X149317000Y-44715160D02*
X149317000Y-45205380D01*
X148217180Y-44715160D02*
X149317000Y-44715160D01*
D18*
X148118120Y-49261760D02*
X144818660Y-49261760D01*
X144818660Y-49261760D02*
X144318280Y-49261760D01*
X144318280Y-49261760D02*
X144318280Y-44466240D01*
X144318280Y-44466240D02*
X144818660Y-44466240D01*
X144818660Y-44466240D02*
X148118120Y-44466240D01*
X148118120Y-44466240D02*
X148118120Y-49261760D01*
X144818660Y-49261760D02*
X144818660Y-44466240D01*
D19*
X64820340Y-93803700D02*
X64330120Y-93803700D01*
X64330120Y-93803700D02*
X64330120Y-94903520D01*
X64820340Y-94903520D02*
X64330120Y-94903520D01*
X64820340Y-93803700D02*
X64820340Y-94903520D01*
X63550340Y-93803700D02*
X63060120Y-93803700D01*
X63060120Y-93803700D02*
X63060120Y-94903520D01*
X63550340Y-94903520D02*
X63060120Y-94903520D01*
X63550340Y-93803700D02*
X63550340Y-94903520D01*
X62282880Y-93803700D02*
X61792660Y-93803700D01*
X61792660Y-93803700D02*
X61792660Y-94903520D01*
X62282880Y-94903520D02*
X61792660Y-94903520D01*
X62282880Y-93803700D02*
X62282880Y-94903520D01*
X61012880Y-93803700D02*
X60522660Y-93803700D01*
X60522660Y-93803700D02*
X60522660Y-94903520D01*
X61012880Y-94903520D02*
X60522660Y-94903520D01*
X61012880Y-93803700D02*
X61012880Y-94903520D01*
X61012880Y-98901480D02*
X60522660Y-98901480D01*
X60522660Y-98901480D02*
X60522660Y-100001300D01*
X61012880Y-100001300D02*
X60522660Y-100001300D01*
X61012880Y-98901480D02*
X61012880Y-100001300D01*
X62282880Y-98901480D02*
X61792660Y-98901480D01*
X61792660Y-98901480D02*
X61792660Y-100001300D01*
X62282880Y-100001300D02*
X61792660Y-100001300D01*
X62282880Y-98901480D02*
X62282880Y-100001300D01*
X63550340Y-98901480D02*
X63060120Y-98901480D01*
X63060120Y-98901480D02*
X63060120Y-100001300D01*
X63550340Y-100001300D02*
X63060120Y-100001300D01*
X63550340Y-98901480D02*
X63550340Y-100001300D01*
X64820340Y-98901480D02*
X64330120Y-98901480D01*
X64330120Y-98901480D02*
X64330120Y-100001300D01*
X64820340Y-100001300D02*
X64330120Y-100001300D01*
X64820340Y-98901480D02*
X64820340Y-100001300D01*
D18*
X60273740Y-98802420D02*
X60273740Y-95502960D01*
X60273740Y-95502960D02*
X60273740Y-95002580D01*
X60273740Y-95002580D02*
X65069260Y-95002580D01*
X65069260Y-95002580D02*
X65069260Y-95502960D01*
X65069260Y-95502960D02*
X65069260Y-98802420D01*
X65069260Y-98802420D02*
X60273740Y-98802420D01*
X60273740Y-95502960D02*
X65069260Y-95502960D01*
D29*
X176686000Y-112400000D02*
G75*
G03X176686000Y-112400000I-2286000J0D01*
G01*
X176386000Y-36100000D02*
G75*
G03X176386000Y-36100000I-2286000J0D01*
G01*
X49231500Y-36156500D02*
G75*
G03X49231500Y-36156500I-2286000J0D01*
G01*
X49231500Y-112406500D02*
G75*
G03X49231500Y-112406500I-2286000J0D01*
G01*
D10*
X171514860Y-42131220D02*
X172985520Y-41770540D01*
X172985520Y-41770540D02*
X171923800Y-41491140D01*
X171923800Y-41491140D02*
X172995680Y-41181260D01*
X172995680Y-41181260D02*
X171545340Y-40840900D01*
X172205740Y-43551080D02*
X172195580Y-42761140D01*
X172195580Y-42761140D02*
X172205740Y-42750980D01*
X172205740Y-42750980D02*
X172195580Y-42750980D01*
X171484380Y-42710340D02*
X173026160Y-42710340D01*
X171474220Y-43599340D02*
X173043940Y-43599340D01*
X173043940Y-43599340D02*
X173033780Y-43589180D01*
X171575820Y-44150520D02*
X171494540Y-44501040D01*
X171494540Y-44501040D02*
X171484380Y-44821080D01*
X171484380Y-44821080D02*
X171685040Y-45059840D01*
X171685040Y-45059840D02*
X171954280Y-45090320D01*
X171954280Y-45090320D02*
X172195580Y-44849020D01*
X172195580Y-44849020D02*
X172325120Y-44460400D01*
X172325120Y-44460400D02*
X172485140Y-44280060D01*
X172485140Y-44280060D02*
X172784860Y-44239420D01*
X172784860Y-44239420D02*
X173005840Y-44470560D01*
X173005840Y-44470560D02*
X173033780Y-44790600D01*
X173033780Y-44790600D02*
X172924560Y-45141120D01*
X171474220Y-46179980D02*
X171494540Y-46428900D01*
X171494540Y-46428900D02*
X171735840Y-46670200D01*
X171735840Y-46670200D02*
X172226060Y-46759100D01*
X172226060Y-46759100D02*
X172574040Y-46731160D01*
X172574040Y-46731160D02*
X172894080Y-46530500D01*
X172894080Y-46530500D02*
X173016000Y-46279040D01*
X173016000Y-46279040D02*
X172944880Y-45969160D01*
X172944880Y-45969160D02*
X172764540Y-45750720D01*
X172764540Y-45750720D02*
X172304800Y-45679600D01*
X172304800Y-45679600D02*
X171895860Y-45730400D01*
X171895860Y-45730400D02*
X171613920Y-45839620D01*
X171613920Y-45839620D02*
X171484380Y-46200300D01*
X169754640Y-45580540D02*
X170315980Y-45839620D01*
X170315980Y-45839620D02*
X170834140Y-45301140D01*
X170834140Y-45301140D02*
X170564900Y-44780440D01*
X170564900Y-44780440D02*
X170724920Y-44501040D01*
X170704600Y-43060860D02*
X170514100Y-42730660D01*
X170514100Y-42730660D02*
X170844300Y-42291240D01*
X170844300Y-42291240D02*
X170354080Y-41818800D01*
X170354080Y-41818800D02*
X169874020Y-42100740D01*
X169874020Y-42100740D02*
X169404120Y-41910240D01*
X169404120Y-41910240D02*
X169216160Y-41300640D01*
X169216160Y-41300640D02*
X168535440Y-41300640D01*
X168535440Y-41300640D02*
X168395740Y-41859440D01*
X168395740Y-41859440D02*
X167824240Y-42060100D01*
X167824240Y-42060100D02*
X167354340Y-41790860D01*
X167354340Y-41790860D02*
X166843800Y-42260760D01*
X166843800Y-42260760D02*
X167105420Y-42778920D01*
X167105420Y-42778920D02*
X166904760Y-43248820D01*
X166904760Y-43248820D02*
X166363740Y-43419000D01*
X166363740Y-43419000D02*
X166345960Y-44109880D01*
X166345960Y-44109880D02*
X166894600Y-44320700D01*
X166894600Y-44320700D02*
X167064780Y-44739800D01*
X167064780Y-44739800D02*
X166795540Y-45290980D01*
X166795540Y-45290980D02*
X167323860Y-45809140D01*
X167323860Y-45809140D02*
X167864880Y-45560220D01*
X167864880Y-45560220D02*
X168344940Y-45730400D01*
X168344940Y-45730400D02*
X168444000Y-46279040D01*
X168444000Y-46279040D02*
X169145040Y-46289200D01*
X169145040Y-46289200D02*
X169345700Y-45730400D01*
X169345700Y-45730400D02*
X169744480Y-45590700D01*
X169724160Y-43449480D02*
X169574300Y-43149760D01*
X169574300Y-43149760D02*
X169376180Y-42949100D01*
X169376180Y-42949100D02*
X168974860Y-42799240D01*
X168974860Y-42799240D02*
X168576080Y-42799240D01*
X168576080Y-42799240D02*
X168225560Y-42949100D01*
X168225560Y-42949100D02*
X167875040Y-43401220D01*
X167875040Y-43401220D02*
X167824240Y-43850800D01*
X167824240Y-43850800D02*
X167925840Y-44249580D01*
X167925840Y-44249580D02*
X168273820Y-44650900D01*
X168273820Y-44650900D02*
X168725940Y-44800760D01*
X168725940Y-44800760D02*
X169223780Y-44749960D01*
X169223780Y-44749960D02*
X169526040Y-44501040D01*
X169526040Y-44501040D02*
X169724160Y-44150520D01*
X169724160Y-44150520D02*
X170724920Y-44501040D01*
X169724160Y-43449480D02*
X170724920Y-43050700D01*
%LPC*%
D30*
X81880000Y-76074000D03*
X79340000Y-76074000D03*
X79340000Y-78283800D03*
X81880000Y-78283800D03*
D31*
X48447500Y-43943500D03*
X48447500Y-69343500D03*
D32*
X50987500Y-51182500D03*
D33*
X50987500Y-53976500D03*
X50987500Y-56770500D03*
X50987500Y-59437500D03*
X50987500Y-62231500D03*
X48447500Y-60834500D03*
X48447500Y-58040500D03*
X48447500Y-55373500D03*
X48447500Y-52579500D03*
D34*
X82388000Y-49785000D03*
X86188000Y-49785000D03*
X86188000Y-58885000D03*
X82388000Y-58885000D03*
D35*
X118659200Y-80671400D03*
X118659200Y-78131400D03*
X116449400Y-78131400D03*
X116449400Y-80671400D03*
D36*
X113122000Y-99696000D03*
X113122000Y-94616000D03*
X113122000Y-89536000D03*
D37*
X105502000Y-99816000D03*
D36*
X105502000Y-94616000D03*
X105502000Y-89536000D03*
D38*
X113122000Y-81916000D03*
D39*
X105502000Y-81916000D03*
D37*
X105502000Y-92116000D03*
D40*
X160800000Y-104875000D03*
X160800000Y-94874500D03*
D41*
X158302500Y-63628500D03*
D42*
X158302500Y-70232500D03*
X160588500Y-70232500D03*
X156016500Y-70232500D03*
D43*
X45215100Y-90107500D03*
X45215100Y-78677500D03*
D33*
X51565100Y-79947500D03*
X54105100Y-80582500D03*
X51565100Y-82487500D03*
X54105100Y-83122500D03*
X51565100Y-85027500D03*
X54105100Y-85662500D03*
X51565100Y-87567500D03*
D44*
X48263100Y-92139500D03*
X48263100Y-76645500D03*
D33*
X58931100Y-81471500D03*
X58931100Y-87313500D03*
X58931100Y-78931500D03*
X58931100Y-89853500D03*
D32*
X54105100Y-88202500D03*
D45*
X66481500Y-90311200D03*
X66481500Y-91809800D03*
D36*
X81118000Y-99696000D03*
X81118000Y-94616000D03*
X81118000Y-89536000D03*
D37*
X73498000Y-99816000D03*
D36*
X73498000Y-94616000D03*
X73498000Y-89536000D03*
D38*
X81118000Y-81916000D03*
D39*
X73498000Y-81916000D03*
D37*
X73498000Y-92116000D03*
D45*
X64449500Y-90311200D03*
X64449500Y-91809800D03*
D36*
X102454000Y-99696000D03*
X102454000Y-94616000D03*
X102454000Y-89536000D03*
D37*
X94834000Y-99816000D03*
D36*
X94834000Y-94616000D03*
X94834000Y-89536000D03*
D38*
X102454000Y-81916000D03*
D39*
X94834000Y-81916000D03*
D37*
X94834000Y-92116000D03*
D36*
X91786000Y-99696000D03*
X91786000Y-94616000D03*
X91786000Y-89536000D03*
D37*
X84166000Y-99816000D03*
D36*
X84166000Y-94616000D03*
X84166000Y-89536000D03*
D38*
X91786000Y-81916000D03*
D39*
X84166000Y-81916000D03*
D37*
X84166000Y-92116000D03*
D46*
X143570500Y-36196500D03*
D44*
X138490500Y-36196500D03*
X133410500Y-36196500D03*
D47*
X65738300Y-73434940D03*
X65738300Y-71931260D03*
D48*
X47648160Y-96925000D03*
X49151840Y-96925000D03*
D49*
X175181820Y-95886000D03*
X169680180Y-95886000D03*
D47*
X147767600Y-42967640D03*
X147767600Y-41463960D03*
X74666400Y-59142360D03*
X74666400Y-60646040D03*
D48*
X62845240Y-55652400D03*
X61341560Y-55652400D03*
X58090360Y-62358000D03*
X59594040Y-62358000D03*
X62880800Y-57689480D03*
X61377120Y-57689480D03*
D50*
X64100000Y-53087000D03*
X64100000Y-50293000D03*
D48*
X59898840Y-54230000D03*
X58395160Y-54230000D03*
X122281240Y-81027000D03*
X120777560Y-81027000D03*
D51*
X85842400Y-46000400D03*
X83048400Y-46000400D03*
D47*
X71504100Y-50036460D03*
X71504100Y-51540140D03*
D48*
X94157340Y-42800500D03*
X92653660Y-42800500D03*
X83139840Y-41403000D03*
X81636160Y-41403000D03*
X71603160Y-47245000D03*
X73106840Y-47245000D03*
D47*
X73339500Y-42790340D03*
X73339500Y-41286660D03*
X124933000Y-54981840D03*
X124933000Y-53478160D03*
D48*
X135971840Y-63755000D03*
X134468160Y-63755000D03*
D47*
X76133500Y-44969660D03*
X76133500Y-46473340D03*
D48*
X47658160Y-94820000D03*
X49161840Y-94820000D03*
D47*
X149761500Y-58748660D03*
X149761500Y-60252340D03*
D50*
X145475500Y-61723500D03*
X145475500Y-58929500D03*
D47*
X80241700Y-53097160D03*
X80241700Y-54600840D03*
X153127000Y-69861160D03*
X153127000Y-71364840D03*
D48*
X152685040Y-59818000D03*
X151181360Y-59818000D03*
D47*
X127701600Y-57440560D03*
X127701600Y-58944240D03*
X157927600Y-81956640D03*
X157927600Y-80452960D03*
X143697500Y-56760340D03*
X143697500Y-55256660D03*
D50*
X140141500Y-57659500D03*
X140141500Y-54865500D03*
D48*
X145263160Y-67565000D03*
X146766840Y-67565000D03*
X112471760Y-79401400D03*
X113975440Y-79401400D03*
D47*
X55813500Y-106290340D03*
X55813500Y-104786660D03*
X115916000Y-82942160D03*
X115916000Y-84445840D03*
X67751500Y-43298340D03*
X67751500Y-41794660D03*
X78705000Y-58156840D03*
X78705000Y-56653160D03*
X80254400Y-58131440D03*
X80254400Y-56627760D03*
D48*
X165123420Y-77852000D03*
X166627100Y-77852000D03*
D52*
X166740380Y-61342500D03*
X164342620Y-61342500D03*
D45*
X165287500Y-66689200D03*
X165287500Y-68187800D03*
D52*
X171548880Y-77825000D03*
X169151120Y-77825000D03*
D53*
X156886200Y-42512980D03*
X156886200Y-47608220D03*
X153304800Y-47506620D03*
X153304800Y-42411380D03*
X160493000Y-47532020D03*
X160493000Y-42436780D03*
D45*
X105743300Y-46483000D03*
X104244700Y-46483000D03*
X99647300Y-49277000D03*
X98148700Y-49277000D03*
X109299300Y-48261000D03*
X107800700Y-48261000D03*
X113109300Y-48261000D03*
X111610700Y-48261000D03*
X116919300Y-49912000D03*
X115420700Y-49912000D03*
X119357700Y-48388000D03*
X120856300Y-48388000D03*
X129502460Y-50028840D03*
X128003860Y-50028840D03*
X133449620Y-49972960D03*
X131951020Y-49972960D03*
X118194380Y-86957900D03*
X118194380Y-85459300D03*
X120157800Y-86932500D03*
X120157800Y-85433900D03*
X70545500Y-90311200D03*
X70545500Y-91809800D03*
X68513500Y-90311200D03*
X68513500Y-91809800D03*
X166995400Y-66714100D03*
X166995400Y-68212700D03*
X121887540Y-86983300D03*
X121887540Y-85484700D03*
X123840800Y-86932500D03*
X123840800Y-85433900D03*
D54*
X69529500Y-105284500D03*
X68577000Y-102744500D03*
X70482000Y-102744500D03*
D45*
X141455700Y-64161400D03*
X139957100Y-64161400D03*
X141430300Y-62485000D03*
X139931700Y-62485000D03*
D55*
X170907000Y-68631800D03*
X170907000Y-70155800D03*
D56*
X94167500Y-41022500D03*
X92643500Y-41022500D03*
X86579000Y-41403000D03*
X85055000Y-41403000D03*
X76895500Y-43181500D03*
X75371500Y-43181500D03*
D55*
X69529500Y-41784500D03*
X69529500Y-43308500D03*
X171100000Y-54638000D03*
X171100000Y-56162000D03*
D56*
X151163000Y-58040500D03*
X152687000Y-58040500D03*
D55*
X137347500Y-57786500D03*
X137347500Y-59310500D03*
D56*
X170729200Y-62688200D03*
X169205200Y-62688200D03*
X55311600Y-56338200D03*
X53787600Y-56338200D03*
X55387800Y-53747400D03*
X53863800Y-53747400D03*
X54930600Y-65177400D03*
X56454600Y-65177400D03*
X171084800Y-75616800D03*
X169560800Y-75616800D03*
X56530800Y-62358000D03*
X55006800Y-62358000D03*
X56530800Y-59538600D03*
X55006800Y-59538600D03*
D57*
X75657000Y-66117200D03*
X75657000Y-67387200D03*
X75657000Y-68657200D03*
D46*
X158810500Y-36196500D03*
D44*
X153730500Y-36196500D03*
X148650500Y-36196500D03*
D46*
X72450500Y-36196500D03*
D44*
X67370500Y-36196500D03*
X62290500Y-36196500D03*
D58*
X174685500Y-73077300D03*
X174685500Y-73727540D03*
X174685500Y-72427060D03*
X174685500Y-74377780D03*
X174685500Y-71776820D03*
D59*
X174685500Y-76277700D03*
X174685500Y-69876900D03*
D60*
X177334720Y-76877140D03*
X177334720Y-69277460D03*
D61*
X177334720Y-74227920D03*
X177334720Y-71926680D03*
D58*
X174634700Y-58840900D03*
X174634700Y-59491140D03*
X174634700Y-58190660D03*
X174634700Y-60141380D03*
X174634700Y-57540420D03*
D59*
X174634700Y-62041300D03*
X174634700Y-55640500D03*
D60*
X177283920Y-62640740D03*
X177283920Y-55041060D03*
D61*
X177283920Y-59991520D03*
X177283920Y-57690280D03*
D46*
X128330500Y-36196500D03*
D44*
X123250500Y-36196500D03*
X118170500Y-36196500D03*
D46*
X113090500Y-36196500D03*
D44*
X108010500Y-36196500D03*
X102930500Y-36196500D03*
D46*
X82642000Y-112396000D03*
D44*
X87722000Y-112396000D03*
X92802000Y-112396000D03*
D46*
X72482000Y-112396000D03*
D44*
X77562000Y-112396000D03*
D46*
X108042000Y-112396000D03*
D44*
X113122000Y-112396000D03*
X118202000Y-112396000D03*
D46*
X138490500Y-112396500D03*
D44*
X143570500Y-112396500D03*
X148650500Y-112396500D03*
D46*
X97882000Y-112396000D03*
D44*
X102962000Y-112396000D03*
D46*
X123250500Y-112396500D03*
D44*
X128330500Y-112396500D03*
X133410500Y-112396500D03*
D46*
X97850500Y-36196500D03*
D44*
X92770500Y-36196500D03*
X87690500Y-36196500D03*
D46*
X82610500Y-36196500D03*
D44*
X77530500Y-36196500D03*
D46*
X153730500Y-112396500D03*
D44*
X158810500Y-112396500D03*
D46*
X62290500Y-112396500D03*
D44*
X67370500Y-112396500D03*
D62*
X161128000Y-50420000D03*
X159858000Y-50420000D03*
X156302000Y-50420000D03*
X157572000Y-50420000D03*
D57*
X139969800Y-47753000D03*
X139969800Y-46483000D03*
D62*
X152873000Y-50420000D03*
X154143000Y-50420000D03*
D57*
X60569400Y-50496200D03*
X60569400Y-51766200D03*
X57927800Y-50572400D03*
X57927800Y-51842400D03*
D62*
X88452500Y-41403500D03*
X89722500Y-41403500D03*
D57*
X53051000Y-99950000D03*
X53051000Y-101220000D03*
X53051000Y-102490000D03*
D63*
X169149320Y-83897200D03*
X174747480Y-83897200D03*
D64*
X134902500Y-82335100D03*
D65*
X134902500Y-79795100D03*
X137442500Y-82335100D03*
X137442500Y-79795100D03*
X139982500Y-82335100D03*
X139982500Y-79795100D03*
X142522500Y-82335100D03*
X142522500Y-79795100D03*
X145062500Y-82335100D03*
X145062500Y-79795100D03*
X147602500Y-82335100D03*
X147602500Y-79795100D03*
D64*
X76800000Y-63755000D03*
D65*
X74260000Y-63755000D03*
X71720000Y-63755000D03*
X69180000Y-63755000D03*
X66640000Y-63755000D03*
X64100000Y-63755000D03*
D32*
X137556800Y-89497900D03*
D33*
X137556800Y-86957900D03*
X140096800Y-89497900D03*
X140096800Y-86957900D03*
X142636800Y-89497900D03*
X142636800Y-86957900D03*
X145176800Y-89497900D03*
X145176800Y-86957900D03*
D64*
X90262000Y-75439000D03*
D65*
X90262000Y-77979000D03*
X87722000Y-75439000D03*
X87722000Y-77979000D03*
X85182000Y-75439000D03*
X85182000Y-77979000D03*
D66*
X58406840Y-102261900D03*
D67*
X58660840Y-103760500D03*
D68*
X61325300Y-103760500D03*
D69*
X58406840Y-105259100D03*
D41*
X120615000Y-101347000D03*
D42*
X120615000Y-94743000D03*
X118329000Y-94743000D03*
X122901000Y-94743000D03*
D41*
X130140000Y-101347000D03*
D42*
X130140000Y-94743000D03*
X127854000Y-94743000D03*
X132426000Y-94743000D03*
D41*
X139665000Y-101347000D03*
D42*
X139665000Y-94743000D03*
X137379000Y-94743000D03*
X141951000Y-94743000D03*
D41*
X149190000Y-101347000D03*
D42*
X149190000Y-94743000D03*
X146904000Y-94743000D03*
X151476000Y-94743000D03*
D70*
X70196000Y-99525820D03*
X69243500Y-97326180D03*
X71148500Y-97326180D03*
D55*
X64400000Y-78262000D03*
X64400000Y-76738000D03*
X64100000Y-71838000D03*
X64100000Y-73362000D03*
X68800000Y-78962000D03*
X68800000Y-77438000D03*
X66000000Y-78262000D03*
X66000000Y-76738000D03*
X71313600Y-67387200D03*
X71313600Y-68911200D03*
X69484800Y-67361800D03*
X69484800Y-68885800D03*
X73142400Y-67412600D03*
X73142400Y-68936600D03*
D56*
X81499000Y-67565000D03*
X79975000Y-67565000D03*
X81499000Y-69851000D03*
X79975000Y-69851000D03*
D55*
X84750200Y-67006200D03*
X84750200Y-68530200D03*
X77663600Y-66752200D03*
X77663600Y-68276200D03*
D56*
X81486300Y-72124300D03*
X79962300Y-72124300D03*
D55*
X68800000Y-80338000D03*
X68800000Y-81862000D03*
D56*
X77308000Y-79198200D03*
X75784000Y-79198200D03*
X80000400Y-73800700D03*
X81524400Y-73800700D03*
D55*
X163255500Y-68200500D03*
X163255500Y-66676500D03*
D56*
X135880400Y-44451000D03*
X137404400Y-44451000D03*
X137379000Y-46711600D03*
X135855000Y-46711600D03*
X137379000Y-48921400D03*
X135855000Y-48921400D03*
X74768000Y-56135000D03*
X76292000Y-56135000D03*
D71*
X67148000Y-99368000D03*
X67148000Y-96468000D03*
D72*
X118115000Y-105665000D03*
X123115000Y-105665000D03*
X127640000Y-105665000D03*
X132640000Y-105665000D03*
X142165000Y-105665000D03*
X137165000Y-105665000D03*
X146690000Y-105665000D03*
X151690000Y-105665000D03*
X157970000Y-85710000D03*
X152970000Y-85710000D03*
X153060000Y-90180000D03*
X158060000Y-90180000D03*
D73*
X55560520Y-108890160D03*
X55560520Y-113890160D03*
D74*
X147285000Y-74550000D03*
X145685000Y-74550000D03*
X145685000Y-75400000D03*
X147285000Y-75400000D03*
D75*
X69631100Y-75419180D03*
X69631100Y-74918800D03*
X69631100Y-74418420D03*
X69631100Y-75919560D03*
D76*
X70573440Y-76861900D03*
X71073820Y-76861900D03*
X71574200Y-76861900D03*
X72074580Y-76861900D03*
X72572420Y-76861900D03*
X73072800Y-76861900D03*
X73573180Y-76861900D03*
X74073560Y-76861900D03*
D75*
X75015900Y-72419440D03*
X75015900Y-75919560D03*
X75015900Y-75419180D03*
X75015900Y-74918800D03*
X75015900Y-74418420D03*
X75015900Y-73920580D03*
X75015900Y-73420200D03*
X75015900Y-72919820D03*
D76*
X74073560Y-71477100D03*
X73573180Y-71477100D03*
X73072800Y-71477100D03*
X72572420Y-71477100D03*
X72074580Y-71477100D03*
X71574200Y-71477100D03*
X71073820Y-71477100D03*
X70573440Y-71477100D03*
D75*
X69631100Y-72419440D03*
X69631100Y-72919820D03*
X69631100Y-73420200D03*
X69631100Y-73920580D03*
D46*
X72323500Y-74169500D03*
D77*
X65745920Y-55764160D03*
X65745920Y-56414400D03*
X65745920Y-57064640D03*
X65745920Y-57714880D03*
X65745920Y-58365120D03*
X65745920Y-59015360D03*
X65745920Y-59665600D03*
X65745920Y-60315840D03*
X71344080Y-60315840D03*
X71344080Y-59665600D03*
X71344080Y-59015360D03*
X71344080Y-58365120D03*
X71344080Y-57714880D03*
X71344080Y-57064640D03*
X71344080Y-56414400D03*
X71344080Y-55764160D03*
D70*
X60061400Y-42411380D03*
X61013900Y-44611020D03*
X59108900Y-44611020D03*
D78*
X126672900Y-73909920D03*
D70*
X124922840Y-76307680D03*
X124922840Y-73909920D03*
X126822760Y-76307680D03*
D79*
X140335560Y-68967080D03*
X140335560Y-68316840D03*
X140335560Y-67666600D03*
X140335560Y-67016360D03*
X134742480Y-70907640D03*
X140335560Y-70917800D03*
X140335560Y-70267560D03*
X140335560Y-69617320D03*
X134737400Y-66366120D03*
X134737400Y-67016360D03*
X134737400Y-67666600D03*
X134737400Y-68316840D03*
X134737400Y-68967080D03*
X134737400Y-69617320D03*
X140335560Y-66366120D03*
X134742480Y-70267560D03*
X140335560Y-71568040D03*
X140335560Y-65715880D03*
X134737400Y-65715880D03*
X134737400Y-71568040D03*
D80*
X94877180Y-56152780D03*
X94877180Y-56650620D03*
X94877180Y-57151000D03*
X94877180Y-57651380D03*
X94877180Y-58151760D03*
X94877180Y-58652140D03*
X94877180Y-59152520D03*
X94877180Y-59652900D03*
X94877180Y-60150740D03*
X94877180Y-60651120D03*
X94877180Y-61151500D03*
X94877180Y-61651880D03*
X94877180Y-62152260D03*
X94877180Y-62652640D03*
X94877180Y-63153020D03*
X94877180Y-63650860D03*
X94877180Y-64151240D03*
X94877180Y-64651620D03*
X94877180Y-65149460D03*
X94877180Y-65649840D03*
X94877180Y-66150220D03*
X94877180Y-66648060D03*
X94877180Y-67148440D03*
X94877180Y-67648820D03*
X94877180Y-68149200D03*
X94877180Y-68649580D03*
X94877180Y-69149960D03*
X94877180Y-69650340D03*
X94877180Y-70148180D03*
X94877180Y-70648560D03*
X94877180Y-71148940D03*
X94877180Y-71649320D03*
X94877180Y-72149700D03*
X94877180Y-72650080D03*
X94877180Y-73150460D03*
X94877180Y-73648300D03*
D81*
X96878700Y-75649820D03*
X97376540Y-75649820D03*
X97876920Y-75649820D03*
X98377300Y-75649820D03*
X98877680Y-75649820D03*
X99378060Y-75649820D03*
X99878440Y-75649820D03*
X100378820Y-75649820D03*
X100876660Y-75649820D03*
X101377040Y-75649820D03*
X101877420Y-75649820D03*
X102377800Y-75649820D03*
X102878180Y-75649820D03*
X103378560Y-75649820D03*
X103878940Y-75649820D03*
X104376780Y-75649820D03*
X104877160Y-75649820D03*
X105377540Y-75649820D03*
X105875380Y-75649820D03*
X106375760Y-75649820D03*
X106876140Y-75649820D03*
X107373980Y-75649820D03*
X107874360Y-75649820D03*
X108374740Y-75649820D03*
X108875120Y-75649820D03*
X109375500Y-75649820D03*
X109875880Y-75649820D03*
X110376260Y-75649820D03*
X110874100Y-75649820D03*
X111374480Y-75649820D03*
X111874860Y-75649820D03*
X112375240Y-75649820D03*
X112875620Y-75649820D03*
X113376000Y-75649820D03*
X113876380Y-75649820D03*
X114374220Y-75649820D03*
D80*
X116375740Y-73648300D03*
X116375740Y-73150460D03*
X116375740Y-72650080D03*
X116375740Y-72149700D03*
X116375740Y-71649320D03*
X116375740Y-71148940D03*
X116375740Y-70648560D03*
X116375740Y-70148180D03*
X116375740Y-69650340D03*
X116375740Y-69149960D03*
X116375740Y-68649580D03*
X116375740Y-68149200D03*
X116375740Y-67648820D03*
X116375740Y-67148440D03*
X116375740Y-66648060D03*
X116375740Y-66150220D03*
X116375740Y-65649840D03*
X116375740Y-65149460D03*
X116375740Y-64651620D03*
X116375740Y-64151240D03*
X116375740Y-63650860D03*
X116375740Y-63153020D03*
X116375740Y-62652640D03*
X116375740Y-62152260D03*
X116375740Y-61651880D03*
X116375740Y-61151500D03*
X116375740Y-60651120D03*
X116375740Y-60150740D03*
X116375740Y-59652900D03*
X116375740Y-59152520D03*
X116375740Y-58652140D03*
X116375740Y-58151760D03*
X116375740Y-57651380D03*
X116375740Y-57151000D03*
X116375740Y-56650620D03*
X116375740Y-56152780D03*
D81*
X114374220Y-54151260D03*
X113876380Y-54151260D03*
X113376000Y-54151260D03*
X112875620Y-54151260D03*
X112375240Y-54151260D03*
X111874860Y-54151260D03*
X111374480Y-54151260D03*
X110874100Y-54151260D03*
X110376260Y-54151260D03*
X109875880Y-54151260D03*
X109375500Y-54151260D03*
X108875120Y-54151260D03*
X108374740Y-54151260D03*
X107874360Y-54151260D03*
X107373980Y-54151260D03*
X106876140Y-54151260D03*
X106375760Y-54151260D03*
X105875380Y-54151260D03*
X105377540Y-54151260D03*
X104877160Y-54151260D03*
X104376780Y-54151260D03*
X103878940Y-54151260D03*
X103378560Y-54151260D03*
X102878180Y-54151260D03*
X102377800Y-54151260D03*
X101877420Y-54151260D03*
X101377040Y-54151260D03*
X100876660Y-54151260D03*
X100378820Y-54151260D03*
X99878440Y-54151260D03*
X99378060Y-54151260D03*
X98877680Y-54151260D03*
X98377300Y-54151260D03*
X97876920Y-54151260D03*
X97376540Y-54151260D03*
X96878700Y-54151260D03*
D35*
X124044000Y-60072000D03*
X124044000Y-57532000D03*
X121834200Y-57532000D03*
X121834200Y-60072000D03*
D70*
X91405000Y-49320180D03*
X92357500Y-51519820D03*
X90452500Y-51519820D03*
D82*
X100906600Y-42500000D03*
X96893400Y-42500000D03*
D83*
X49400180Y-105400000D03*
X51599820Y-104447500D03*
X51599820Y-106352500D03*
D84*
X60417000Y-46622000D03*
X60417000Y-48122000D03*
X57826200Y-46647400D03*
X57826200Y-48147400D03*
D85*
X87200000Y-70625000D03*
X88700000Y-70625000D03*
X87200000Y-72800000D03*
X88700000Y-72800000D03*
X85194000Y-43689000D03*
X86694000Y-43689000D03*
X73105000Y-45467000D03*
X71605000Y-45467000D03*
X76145500Y-41149500D03*
X77645500Y-41149500D03*
X105744000Y-44705000D03*
X104244000Y-44705000D03*
D84*
X58353500Y-98414500D03*
X58353500Y-96914500D03*
X58353500Y-94120500D03*
X58353500Y-95620500D03*
D85*
X58524000Y-107316000D03*
X60024000Y-107316000D03*
X146765000Y-65914000D03*
X145265000Y-65914000D03*
X146765000Y-64263000D03*
X145265000Y-64263000D03*
D84*
X131181400Y-65870120D03*
X131181400Y-67370120D03*
X129350060Y-65844720D03*
X129350060Y-67344720D03*
X84674000Y-73268000D03*
X84674000Y-71768000D03*
D85*
X123548000Y-72137000D03*
X125048000Y-72137000D03*
X125046600Y-77953600D03*
X126546600Y-77953600D03*
D84*
X66640000Y-101486000D03*
X66640000Y-102986000D03*
D85*
X63000000Y-107300000D03*
X61500000Y-107300000D03*
D84*
X166970000Y-63284400D03*
X166970000Y-64784400D03*
D85*
X129669400Y-88431100D03*
X131169400Y-88431100D03*
D84*
X71561500Y-42788500D03*
X71561500Y-41288500D03*
X65719500Y-41796500D03*
X65719500Y-43296500D03*
X118252800Y-89078100D03*
X118252800Y-90578100D03*
X120140020Y-89070480D03*
X120140020Y-90570480D03*
X121935800Y-89085720D03*
X121935800Y-90585720D03*
D85*
X104244000Y-42723800D03*
X105744000Y-42723800D03*
X81487000Y-65660000D03*
X79987000Y-65660000D03*
X88726000Y-65990200D03*
X87226000Y-65990200D03*
X101553000Y-47626000D03*
X100053000Y-47626000D03*
X100078400Y-45568600D03*
X101578400Y-45568600D03*
X109325400Y-42622200D03*
X107825400Y-42622200D03*
X107800000Y-44730400D03*
X109300000Y-44730400D03*
X87226000Y-67819000D03*
X88726000Y-67819000D03*
X113160800Y-42596800D03*
X111660800Y-42596800D03*
X128160640Y-45527960D03*
X129660640Y-45527960D03*
X128125080Y-47803800D03*
X129625080Y-47803800D03*
X131858880Y-47753000D03*
X133358880Y-47753000D03*
X131823320Y-45512720D03*
X133323320Y-45512720D03*
D84*
X123739200Y-89070480D03*
X123739200Y-90570480D03*
D85*
X111635400Y-44781200D03*
X113135400Y-44781200D03*
X116996200Y-46940200D03*
X115496200Y-46940200D03*
X115496200Y-44755800D03*
X116996200Y-44755800D03*
X120730000Y-44882800D03*
X119230000Y-44882800D03*
X120730000Y-42596800D03*
X119230000Y-42596800D03*
D86*
X143619780Y-44959000D03*
X143619780Y-46229000D03*
X143619780Y-47499000D03*
X143619780Y-48769000D03*
X148816620Y-48769000D03*
X148816620Y-47499000D03*
X148816620Y-46229000D03*
X148816620Y-44959000D03*
D87*
X64576500Y-94304080D03*
X63306500Y-94304080D03*
X62036500Y-94304080D03*
X60766500Y-94304080D03*
X60766500Y-99500920D03*
X62036500Y-99500920D03*
X63306500Y-99500920D03*
X64576500Y-99500920D03*
D88*
X111000000Y-103700000D03*
X168400000Y-51600000D03*
X54200000Y-70300000D03*
D89*
X174400000Y-112400000D03*
X174100000Y-36100000D03*
X46945500Y-36156500D03*
X46945500Y-112406500D03*
M02*
