G04 #@! TF.FileFunction,Soldermask,Bot*
%FSLAX46Y46*%
G04 Gerber Fmt 4.6, Leading zero omitted, Abs format (unit mm)*
G04 Created by KiCad (PCBNEW 4.0.2+dfsg1-2~bpo8+1-stable) date vie 30 sep 2016 00:33:51 ART*
%MOMM*%
G01*
G04 APERTURE LIST*
%ADD10C,0.150000*%
%ADD11C,3.860800*%
%ADD12R,1.574800X1.574800*%
%ADD13C,1.574800*%
%ADD14C,1.550800*%
%ADD15C,2.250800*%
%ADD16C,1.850800*%
%ADD17R,1.850800X1.850800*%
%ADD18R,2.250440X0.650240*%
%ADD19R,0.650240X2.250440*%
%ADD20C,3.901440*%
%ADD21C,2.590800*%
%ADD22R,0.965200X0.965200*%
%ADD23R,2.590800X2.590800*%
%ADD24R,1.651000X1.854200*%
%ADD25R,1.051560X0.949960*%
%ADD26R,0.949960X1.051560*%
%ADD27R,1.854200X1.651000*%
%ADD28R,2.650800X3.250800*%
%ADD29R,1.574800X3.251200*%
%ADD30R,1.450340X1.849120*%
%ADD31R,0.685800X1.193800*%
%ADD32R,1.193800X0.685800*%
%ADD33R,1.016000X1.320800*%
%ADD34R,1.320800X1.016000*%
%ADD35R,1.651000X1.651000*%
%ADD36C,1.651000*%
%ADD37R,3.250800X1.550800*%
%ADD38R,2.550800X1.050800*%
%ADD39R,1.750800X0.950800*%
%ADD40R,0.950800X1.750800*%
%ADD41R,2.750800X3.150800*%
%ADD42R,0.500800X0.500800*%
%ADD43R,1.120800X2.210800*%
%ADD44R,8.382000X7.035800*%
%ADD45R,10.845800X1.955800*%
%ADD46R,1.351280X0.350520*%
%ADD47R,0.304800X1.551940*%
%ADD48R,1.551940X0.304800*%
%ADD49R,0.652780X1.752600*%
%ADD50R,1.752600X0.652780*%
%ADD51R,0.812800X0.558800*%
%ADD52R,1.550800X1.750800*%
%ADD53R,2.250440X1.849120*%
%ADD54R,1.851660X2.250440*%
%ADD55R,1.391920X1.851660*%
%ADD56R,0.850900X1.051560*%
%ADD57R,1.051560X0.850900*%
%ADD58R,0.950800X0.550800*%
%ADD59R,0.550800X0.950800*%
%ADD60C,2.540000*%
%ADD61C,4.550800*%
G04 APERTURE END LIST*
D10*
D11*
X48447500Y-43943500D03*
X48447500Y-69343500D03*
D12*
X50987500Y-51182500D03*
D13*
X50987500Y-53976500D03*
X50987500Y-56770500D03*
X50987500Y-59437500D03*
X50987500Y-62231500D03*
X48447500Y-60834500D03*
X48447500Y-58040500D03*
X48447500Y-55373500D03*
X48447500Y-52579500D03*
D14*
X113122000Y-99696000D03*
X113122000Y-94616000D03*
X113122000Y-89536000D03*
D15*
X105502000Y-99816000D03*
D14*
X105502000Y-94616000D03*
X105502000Y-89536000D03*
D16*
X113122000Y-81916000D03*
D17*
X105502000Y-81916000D03*
D15*
X105502000Y-92116000D03*
D18*
X128278180Y-42736500D03*
X128278180Y-44006500D03*
X128278180Y-45276500D03*
X128278180Y-46546500D03*
X128278180Y-47816500D03*
X128278180Y-49086500D03*
X128278180Y-50356500D03*
X128278180Y-51626500D03*
X121079820Y-51626500D03*
X121079820Y-50356500D03*
X121079820Y-49086500D03*
X121079820Y-47816500D03*
X121079820Y-46546500D03*
X121079820Y-45276500D03*
X121079820Y-44006500D03*
X121079820Y-42736500D03*
D19*
X105375000Y-46617620D03*
X106645000Y-46617620D03*
X107915000Y-46617620D03*
X109185000Y-46617620D03*
X110455000Y-46617620D03*
X111725000Y-46617620D03*
X112995000Y-46617620D03*
X114265000Y-46617620D03*
X114265000Y-53815980D03*
X112995000Y-53815980D03*
X111725000Y-53815980D03*
X110455000Y-53815980D03*
X109185000Y-53815980D03*
X107915000Y-53815980D03*
X106645000Y-53815980D03*
X105375000Y-53815980D03*
D20*
X45215100Y-90107500D03*
X45215100Y-78677500D03*
D13*
X51565100Y-79947500D03*
X54105100Y-80582500D03*
X51565100Y-82487500D03*
X54105100Y-83122500D03*
X51565100Y-85027500D03*
X54105100Y-85662500D03*
X51565100Y-87567500D03*
D21*
X48263100Y-92139500D03*
X48263100Y-76645500D03*
D13*
X58931100Y-81471500D03*
X58931100Y-87313500D03*
X58931100Y-78931500D03*
X58931100Y-89853500D03*
D12*
X54105100Y-88202500D03*
D14*
X81118000Y-99696000D03*
X81118000Y-94616000D03*
X81118000Y-89536000D03*
D15*
X73498000Y-99816000D03*
D14*
X73498000Y-94616000D03*
X73498000Y-89536000D03*
D16*
X81118000Y-81916000D03*
D17*
X73498000Y-81916000D03*
D15*
X73498000Y-92116000D03*
D14*
X102454000Y-99696000D03*
X102454000Y-94616000D03*
X102454000Y-89536000D03*
D15*
X94834000Y-99816000D03*
D14*
X94834000Y-94616000D03*
X94834000Y-89536000D03*
D16*
X102454000Y-81916000D03*
D17*
X94834000Y-81916000D03*
D15*
X94834000Y-92116000D03*
D14*
X91786000Y-99696000D03*
X91786000Y-94616000D03*
X91786000Y-89536000D03*
D15*
X84166000Y-99816000D03*
D14*
X84166000Y-94616000D03*
X84166000Y-89536000D03*
D16*
X91786000Y-81916000D03*
D17*
X84166000Y-81916000D03*
D15*
X84166000Y-92116000D03*
D22*
X87436000Y-92491000D03*
X89214000Y-92491000D03*
X88325000Y-90459000D03*
X78764000Y-90509000D03*
X76986000Y-90509000D03*
X77875000Y-92541000D03*
D23*
X143570500Y-36196500D03*
D21*
X138490500Y-36196500D03*
X133410500Y-36196500D03*
D24*
X68527000Y-75290000D03*
X65733000Y-75290000D03*
D25*
X66200000Y-78348160D03*
X66200000Y-79851840D03*
X64430000Y-78218160D03*
X64430000Y-79721840D03*
X74220000Y-73688160D03*
X74220000Y-75191840D03*
X70196000Y-72634840D03*
X70196000Y-71131160D03*
D26*
X73773160Y-80025000D03*
X75276840Y-80025000D03*
D25*
X76675000Y-79173160D03*
X76675000Y-80676840D03*
X72160000Y-73648160D03*
X72160000Y-75151840D03*
X56353000Y-88301560D03*
X56353000Y-89805240D03*
X56429200Y-85944440D03*
X56429200Y-84440760D03*
D26*
X49078440Y-85141800D03*
X47574760Y-85141800D03*
D25*
X55075000Y-92351840D03*
X55075000Y-90848160D03*
X82240680Y-77892640D03*
X82240680Y-76388960D03*
D27*
X161737600Y-76455000D03*
X161737600Y-73661000D03*
D26*
X99599040Y-53696600D03*
X98095360Y-53696600D03*
D25*
X96612000Y-48398160D03*
X96612000Y-49901840D03*
D27*
X146475000Y-47897000D03*
X146475000Y-45103000D03*
D25*
X68245280Y-58992500D03*
X68245280Y-57488820D03*
X58575500Y-44923440D03*
X58575500Y-43419760D03*
D27*
X173669500Y-76709500D03*
X173669500Y-79503500D03*
D25*
X170875500Y-77354660D03*
X170875500Y-78858340D03*
D26*
X77043840Y-42800000D03*
X75540160Y-42800000D03*
D25*
X98771000Y-40778160D03*
X98771000Y-42281840D03*
X74736500Y-55617340D03*
X74736500Y-54113660D03*
X74101500Y-51934340D03*
X74101500Y-50430660D03*
D26*
X95352160Y-39879000D03*
X96855840Y-39879000D03*
D25*
X94834000Y-72888840D03*
X94834000Y-71385160D03*
X73085500Y-104766340D03*
X73085500Y-103262660D03*
D26*
X123754440Y-55284100D03*
X122250760Y-55284100D03*
D25*
X116551000Y-55891160D03*
X116551000Y-57394840D03*
X108296000Y-61479160D03*
X108296000Y-62982840D03*
X70945300Y-68824840D03*
X70945300Y-67321160D03*
D26*
X102591160Y-53737240D03*
X101087480Y-53737240D03*
X99268840Y-75032600D03*
X97765160Y-75032600D03*
X87173360Y-67692000D03*
X88677040Y-67692000D03*
X109423760Y-79426800D03*
X110927440Y-79426800D03*
X100787760Y-75007200D03*
X102291440Y-75007200D03*
D25*
X116011500Y-81398340D03*
X116011500Y-79894660D03*
D26*
X126276660Y-63386700D03*
X127780340Y-63386700D03*
X113969340Y-79376500D03*
X112465660Y-79376500D03*
X115316560Y-77242400D03*
X116820240Y-77242400D03*
D25*
X137887000Y-67702160D03*
X137887000Y-69205840D03*
X94072000Y-48398160D03*
X94072000Y-49901840D03*
D26*
X153116840Y-54865000D03*
X151613160Y-54865000D03*
X141717320Y-67681840D03*
X140213640Y-67681840D03*
X160122160Y-54865000D03*
X161625840Y-54865000D03*
D25*
X140900000Y-51248160D03*
X140900000Y-52751840D03*
X147600000Y-51348160D03*
X147600000Y-52851840D03*
X160645400Y-51565540D03*
X160645400Y-50061860D03*
X86406280Y-82637360D03*
X86406280Y-81133680D03*
X124044000Y-58939160D03*
X124044000Y-60442840D03*
D26*
X124318320Y-67531980D03*
X122814640Y-67531980D03*
X125598480Y-65017380D03*
X124094800Y-65017380D03*
X127780340Y-61380100D03*
X126276660Y-61380100D03*
X72217840Y-40641000D03*
X70714160Y-40641000D03*
X72217840Y-39117000D03*
X70714160Y-39117000D03*
X99051840Y-85200000D03*
X97548160Y-85200000D03*
D25*
X52162000Y-106289840D03*
X52162000Y-104786160D03*
X56251400Y-106315240D03*
X56251400Y-104811560D03*
D26*
X56998160Y-100966000D03*
X58501840Y-100966000D03*
D25*
X76114200Y-82586560D03*
X76114200Y-84090240D03*
X144000000Y-47351840D03*
X144000000Y-45848160D03*
D26*
X120777560Y-81331800D03*
X122281240Y-81331800D03*
X171298160Y-85345000D03*
X172801840Y-85345000D03*
D28*
X150625000Y-106600000D03*
X157825000Y-106600000D03*
D29*
X153175500Y-95650000D03*
X157874500Y-95650000D03*
D30*
X91150740Y-87125000D03*
X94549260Y-87125000D03*
X81200740Y-87075000D03*
X84599260Y-87075000D03*
X111775740Y-87175000D03*
X115174260Y-87175000D03*
X102100740Y-87125000D03*
X105499260Y-87125000D03*
D31*
X71307500Y-57024500D03*
X72831500Y-57024500D03*
X55565600Y-58065400D03*
X54041600Y-58065400D03*
D32*
X121859600Y-65685400D03*
X121859600Y-64161400D03*
X75625500Y-103252500D03*
X75625500Y-104776500D03*
D33*
X131537000Y-66295000D03*
X130267000Y-66295000D03*
X131537000Y-68327000D03*
X130267000Y-68327000D03*
D23*
X158810500Y-36196500D03*
D21*
X153730500Y-36196500D03*
X148650500Y-36196500D03*
D23*
X72450500Y-36196500D03*
D21*
X67370500Y-36196500D03*
X62290500Y-36196500D03*
D23*
X128330500Y-36196500D03*
D21*
X123250500Y-36196500D03*
X118170500Y-36196500D03*
D23*
X113090500Y-36196500D03*
D21*
X108010500Y-36196500D03*
X102930500Y-36196500D03*
D23*
X82642000Y-112396000D03*
D21*
X87722000Y-112396000D03*
X92802000Y-112396000D03*
D23*
X72482000Y-112396000D03*
D21*
X77562000Y-112396000D03*
D23*
X108042000Y-112396000D03*
D21*
X113122000Y-112396000D03*
X118202000Y-112396000D03*
D23*
X138490500Y-112396500D03*
D21*
X143570500Y-112396500D03*
X148650500Y-112396500D03*
D23*
X97882000Y-112396000D03*
D21*
X102962000Y-112396000D03*
D23*
X123250500Y-112396500D03*
D21*
X128330500Y-112396500D03*
X133410500Y-112396500D03*
D23*
X97850500Y-36196500D03*
D21*
X92770500Y-36196500D03*
X87690500Y-36196500D03*
D23*
X82610500Y-36196500D03*
D21*
X77530500Y-36196500D03*
D23*
X153730500Y-112396500D03*
D21*
X158810500Y-112396500D03*
D23*
X62290500Y-112396500D03*
D21*
X67370500Y-112396500D03*
D34*
X87055500Y-46483500D03*
X87055500Y-45213500D03*
X87055500Y-43943500D03*
D33*
X90611500Y-47499500D03*
X91881500Y-47499500D03*
D34*
X82991500Y-48769500D03*
X82991500Y-50039500D03*
X82991500Y-51309500D03*
X73244000Y-42419000D03*
X73244000Y-43689000D03*
X69021500Y-53976500D03*
X69021500Y-52706500D03*
X69021500Y-51436500D03*
X69307000Y-42419000D03*
X69307000Y-43689000D03*
X69402500Y-48007500D03*
X69402500Y-46737500D03*
X69402500Y-45467500D03*
D32*
X68100000Y-79900000D03*
X68100000Y-81424000D03*
D35*
X134902500Y-82335100D03*
D36*
X134902500Y-79795100D03*
X137442500Y-82335100D03*
X137442500Y-79795100D03*
X139982500Y-82335100D03*
X139982500Y-79795100D03*
X142522500Y-82335100D03*
X142522500Y-79795100D03*
X145062500Y-82335100D03*
X145062500Y-79795100D03*
X147602500Y-82335100D03*
X147602500Y-79795100D03*
D35*
X76800000Y-63755000D03*
D36*
X74260000Y-63755000D03*
X71720000Y-63755000D03*
X69180000Y-63755000D03*
X66640000Y-63755000D03*
X64100000Y-63755000D03*
D12*
X137556800Y-89497900D03*
D13*
X137556800Y-86957900D03*
X140096800Y-89497900D03*
X140096800Y-86957900D03*
X142636800Y-89497900D03*
X142636800Y-86957900D03*
X145176800Y-89497900D03*
X145176800Y-86957900D03*
D35*
X90262000Y-75439000D03*
D36*
X90262000Y-77979000D03*
X87722000Y-75439000D03*
X87722000Y-77979000D03*
X85182000Y-75439000D03*
X85182000Y-77979000D03*
D37*
X158029200Y-39150600D03*
X158029200Y-43350600D03*
X154066800Y-39201400D03*
X154066800Y-43401400D03*
D32*
X82642000Y-72010000D03*
X82642000Y-70486000D03*
D31*
X80203600Y-70473300D03*
X78679600Y-70473300D03*
X84699400Y-63348600D03*
X83175400Y-63348600D03*
D32*
X73383700Y-67209400D03*
X73383700Y-68733400D03*
X61356800Y-88380300D03*
X61356800Y-89904300D03*
X62150000Y-78228000D03*
X62150000Y-79752000D03*
X99202800Y-62358000D03*
X99202800Y-60834000D03*
D31*
X110569300Y-61773800D03*
X112093300Y-61773800D03*
X48628000Y-94790000D03*
X50152000Y-94790000D03*
D32*
X71796200Y-84989400D03*
X71796200Y-83465400D03*
X158791200Y-45721000D03*
X158791200Y-47245000D03*
X160696200Y-47295800D03*
X160696200Y-45771800D03*
X156581400Y-47245000D03*
X156581400Y-45721000D03*
X152517400Y-45721000D03*
X152517400Y-47245000D03*
X154524000Y-47245000D03*
X154524000Y-45721000D03*
D38*
X148097800Y-43370400D03*
X148097800Y-38470400D03*
D39*
X145126000Y-39318000D03*
X145126000Y-42218000D03*
X141062000Y-39318000D03*
X141062000Y-42218000D03*
X135728000Y-38810000D03*
X135728000Y-41710000D03*
D40*
X127674000Y-38990000D03*
X130574000Y-38990000D03*
D39*
X117694000Y-39064000D03*
X117694000Y-41964000D03*
X113122000Y-39318000D03*
X113122000Y-42218000D03*
X109820000Y-39064000D03*
X109820000Y-41964000D03*
X104994000Y-39064000D03*
X104994000Y-41964000D03*
D41*
X151935500Y-101474500D03*
X159335500Y-101525300D03*
D38*
X122901000Y-108546000D03*
X122901000Y-103546000D03*
D42*
X164800840Y-59045840D03*
X163200840Y-59045840D03*
X163200840Y-58195840D03*
X164800840Y-58195840D03*
D43*
X170875500Y-94159300D03*
X172577300Y-94159300D03*
X174279100Y-94159300D03*
X169173700Y-94159300D03*
X167471900Y-94159300D03*
D44*
X170875500Y-104840000D03*
D45*
X170875500Y-107380000D03*
D19*
X63007800Y-57158620D03*
X61737800Y-57158620D03*
X60467800Y-57158620D03*
X59197800Y-57158620D03*
X59197800Y-51961780D03*
X60467800Y-51961780D03*
X61737800Y-51961780D03*
X63007800Y-51961780D03*
D18*
X174254720Y-59195700D03*
X174254720Y-60465700D03*
X174254720Y-61735700D03*
X174254720Y-63005700D03*
X169057880Y-63005700D03*
X169057880Y-61735700D03*
X169057880Y-60465700D03*
X169057880Y-59195700D03*
D46*
X80832500Y-44426100D03*
X80832500Y-45061100D03*
X80832500Y-45721500D03*
X80832500Y-46356500D03*
X80832500Y-47016900D03*
X80832500Y-47664600D03*
X80832500Y-48312300D03*
X75244500Y-48312300D03*
X75244500Y-47664600D03*
X75244500Y-47016900D03*
X75244500Y-46356500D03*
X75244500Y-45708800D03*
X75244500Y-45061100D03*
X75244500Y-44413400D03*
D47*
X147348500Y-58004440D03*
X147848880Y-58004440D03*
X148349260Y-58004440D03*
X148849640Y-58004440D03*
X149350020Y-58004440D03*
X149847860Y-58004440D03*
X150348240Y-58004440D03*
X150848620Y-58004440D03*
X151346460Y-58004440D03*
X151846840Y-58004440D03*
X152347220Y-58004440D03*
X152845060Y-58004440D03*
X153345440Y-58004440D03*
X153845820Y-58004440D03*
X154346200Y-58004440D03*
X154846580Y-58004440D03*
D48*
X156845560Y-60003420D03*
X156845560Y-60503800D03*
X156845560Y-61004180D03*
X156845560Y-61504560D03*
X156845560Y-62004940D03*
X156845560Y-62502780D03*
X156845560Y-63003160D03*
X156845560Y-63503540D03*
X156845560Y-64001380D03*
X156845560Y-64501760D03*
X156845560Y-65002140D03*
X156845560Y-65499980D03*
X156845560Y-66000360D03*
X156845560Y-66500740D03*
X156845560Y-67001120D03*
X156845560Y-67501500D03*
D47*
X154846580Y-69500480D03*
X154346200Y-69500480D03*
X153845820Y-69500480D03*
X153345440Y-69500480D03*
X152845060Y-69500480D03*
X152347220Y-69500480D03*
X151846840Y-69500480D03*
X151346460Y-69500480D03*
X150848620Y-69500480D03*
X150348240Y-69500480D03*
X149847860Y-69500480D03*
X149350020Y-69500480D03*
X148849640Y-69500480D03*
X148349260Y-69500480D03*
X147848880Y-69500480D03*
X147348500Y-69500480D03*
D48*
X145349520Y-67501500D03*
X145349520Y-67001120D03*
X145349520Y-66500740D03*
X145349520Y-66000360D03*
X145349520Y-65499980D03*
X145349520Y-65002140D03*
X145349520Y-64501760D03*
X145349520Y-64001380D03*
X145349520Y-63503540D03*
X145349520Y-63003160D03*
X145349520Y-62502780D03*
X145349520Y-62004940D03*
X145349520Y-61504560D03*
X145349520Y-61004180D03*
X145349520Y-60503800D03*
X145349520Y-60003420D03*
D18*
X133208320Y-54890400D03*
X133208320Y-56160400D03*
X133208320Y-57430400D03*
X133208320Y-58700400D03*
X128011480Y-58700400D03*
X128011480Y-57430400D03*
X128011480Y-56160400D03*
X128011480Y-54890400D03*
D49*
X90391540Y-53432440D03*
X91661540Y-53432440D03*
X92929000Y-53432440D03*
X94199000Y-53432440D03*
X94199000Y-58730880D03*
X92929000Y-58730880D03*
X91661540Y-58730880D03*
X90391540Y-58730880D03*
D50*
X52984960Y-97285540D03*
X52984960Y-98555540D03*
X52984960Y-99823000D03*
X52984960Y-101093000D03*
X47686520Y-101093000D03*
X47686520Y-99823000D03*
X47686520Y-98555540D03*
X47686520Y-97285540D03*
D51*
X142662200Y-98286300D03*
X142662200Y-96381300D03*
X145202200Y-98286300D03*
X142662200Y-97333800D03*
X145202200Y-96381300D03*
D19*
X83531000Y-54679580D03*
X84801000Y-54679580D03*
X86071000Y-54679580D03*
X87341000Y-54679580D03*
X87341000Y-59876420D03*
X86071000Y-59876420D03*
X84801000Y-59876420D03*
X83531000Y-59876420D03*
D51*
X126965000Y-98362500D03*
X126965000Y-96457500D03*
X129505000Y-98362500D03*
X126965000Y-97410000D03*
X129505000Y-96457500D03*
X134432600Y-98362500D03*
X134432600Y-96457500D03*
X136972600Y-98362500D03*
X134432600Y-97410000D03*
X136972600Y-96457500D03*
X123891600Y-96457500D03*
X123891600Y-98362500D03*
X121351600Y-96457500D03*
X123891600Y-97410000D03*
X121351600Y-98362500D03*
D52*
X143300000Y-54400000D03*
X143300000Y-51860000D03*
X145509800Y-51860000D03*
X145509800Y-54400000D03*
D53*
X163200000Y-94352380D03*
X163200000Y-99447620D03*
D54*
X88763400Y-40514000D03*
X92776600Y-40514000D03*
X82159400Y-40641000D03*
X86172600Y-40641000D03*
X75301400Y-39879000D03*
X79314600Y-39879000D03*
D55*
X173558760Y-90102420D03*
X170703800Y-90102420D03*
D56*
X84388500Y-43986680D03*
X83436000Y-46186320D03*
X85341000Y-46186320D03*
D57*
X80789320Y-50420500D03*
X78589680Y-49468000D03*
X78589680Y-51373000D03*
D56*
X71815500Y-52622680D03*
X70863000Y-54822320D03*
X72768000Y-54822320D03*
X72069500Y-45510680D03*
X71117000Y-47710320D03*
X73022000Y-47710320D03*
D58*
X56289500Y-50711400D03*
X56289500Y-52211400D03*
X64608000Y-52186000D03*
X64608000Y-50686000D03*
X90865500Y-44820500D03*
X90865500Y-43320500D03*
D59*
X80344000Y-42800000D03*
X78844000Y-42800000D03*
D58*
X89087500Y-45074500D03*
X89087500Y-43574500D03*
D59*
X95227000Y-42292000D03*
X96727000Y-42292000D03*
D58*
X76387500Y-53988500D03*
X76387500Y-55488500D03*
D59*
X94536500Y-45594500D03*
X93036500Y-45594500D03*
D58*
X75879500Y-50432500D03*
X75879500Y-51932500D03*
D59*
X89734500Y-49531500D03*
X91234500Y-49531500D03*
X84527500Y-50928500D03*
X86027500Y-50928500D03*
X86813500Y-48388500D03*
X88313500Y-48388500D03*
D58*
X85023500Y-47892500D03*
X85023500Y-49392500D03*
X143221000Y-41645000D03*
X143221000Y-40145000D03*
D59*
X138915000Y-43943000D03*
X140415000Y-43943000D03*
D58*
X138522000Y-41645000D03*
X138522000Y-40145000D03*
X133188000Y-41645000D03*
X133188000Y-40145000D03*
X114823800Y-40627600D03*
X114823800Y-42127600D03*
X107508600Y-40627600D03*
X107508600Y-42127600D03*
X102708000Y-40627600D03*
X102708000Y-42127600D03*
X70386500Y-87720600D03*
X70386500Y-86220600D03*
X162017000Y-67299000D03*
X162017000Y-65799000D03*
X134331000Y-66156000D03*
X134331000Y-64656000D03*
X87214000Y-64859200D03*
X87214000Y-66359200D03*
X111471000Y-71641000D03*
X111471000Y-73141000D03*
X80737000Y-65570400D03*
X80737000Y-67070400D03*
D59*
X141685000Y-65723500D03*
X140185000Y-65723500D03*
D58*
X149190000Y-53480000D03*
X149190000Y-54980000D03*
D59*
X157560000Y-54865000D03*
X156060000Y-54865000D03*
D58*
X105552800Y-61557200D03*
X105552800Y-63057200D03*
D59*
X107750000Y-70525000D03*
X109250000Y-70525000D03*
X129974200Y-61380100D03*
X131474200Y-61380100D03*
D58*
X136617000Y-55512000D03*
X136617000Y-57012000D03*
X138522000Y-55488000D03*
X138522000Y-53988000D03*
X136617000Y-58560000D03*
X136617000Y-60060000D03*
X123739200Y-94883400D03*
X123739200Y-93383400D03*
X138115600Y-94908800D03*
X138115600Y-93408800D03*
D59*
X89100000Y-94400000D03*
X87600000Y-94400000D03*
X77175000Y-88750000D03*
X78675000Y-88750000D03*
X79950000Y-79075000D03*
X81450000Y-79075000D03*
X115661300Y-43727100D03*
X117161300Y-43727100D03*
X110300000Y-94400000D03*
X108800000Y-94400000D03*
X98050000Y-88700000D03*
X99550000Y-88700000D03*
X129618600Y-87186500D03*
X131118600Y-87186500D03*
X129631300Y-89078800D03*
X131131300Y-89078800D03*
X129618600Y-85294200D03*
X131118600Y-85294200D03*
X69033500Y-49658500D03*
X70533500Y-49658500D03*
D58*
X66989500Y-50916500D03*
X66989500Y-49416500D03*
X71310000Y-43430000D03*
X71310000Y-41930000D03*
X66989500Y-53964500D03*
X66989500Y-52464500D03*
X64703500Y-44566500D03*
X64703500Y-43066500D03*
X67243500Y-46979500D03*
X67243500Y-45479500D03*
X66767000Y-41034000D03*
X66767000Y-42534000D03*
X65338500Y-47868500D03*
X65338500Y-46368500D03*
X67751500Y-92596500D03*
X67751500Y-94096500D03*
X65465500Y-92596500D03*
X65465500Y-94096500D03*
X63211000Y-92596000D03*
X63211000Y-94096000D03*
X60798000Y-92596000D03*
X60798000Y-94096000D03*
X81206900Y-74766600D03*
X81206900Y-73266600D03*
D59*
X58500000Y-99188000D03*
X57000000Y-99188000D03*
X141685000Y-63818500D03*
X140185000Y-63818500D03*
D58*
X88611000Y-82589800D03*
X88611000Y-81089800D03*
D59*
X58500000Y-97410000D03*
X57000000Y-97410000D03*
D58*
X140300000Y-94921500D03*
X140300000Y-93421500D03*
X130140000Y-93358000D03*
X130140000Y-94858000D03*
D50*
X99136760Y-63757540D03*
X99136760Y-65027540D03*
X99136760Y-66295000D03*
X99136760Y-67565000D03*
X93838320Y-67565000D03*
X93838320Y-66295000D03*
X93838320Y-65027540D03*
X93838320Y-63757540D03*
X113106760Y-65027540D03*
X113106760Y-66297540D03*
X113106760Y-67565000D03*
X113106760Y-68835000D03*
X107808320Y-68835000D03*
X107808320Y-67565000D03*
X107808320Y-66297540D03*
X107808320Y-65027540D03*
D22*
X108686000Y-92491000D03*
X110464000Y-92491000D03*
X109575000Y-90459000D03*
X99789000Y-90459000D03*
X98011000Y-90459000D03*
X98900000Y-92491000D03*
D60*
X111000000Y-103700000D03*
X168400000Y-51600000D03*
X54200000Y-70300000D03*
D61*
X174400000Y-112400000D03*
X174100000Y-36100000D03*
X46945500Y-36156500D03*
X46945500Y-112406500D03*
M02*
