M48
;DRILL file {KiCad 4.0.2+dfsg1-2~bpo8+1-stable} date vie 30 sep 2016 00:33:56 ART
;FORMAT={-:-/ absolute / metric / decimal}
FMAT,2
METRIC,TZ
T1C0.254
T2C0.406
T3C0.410
T4C1.000
T5C1.016
T6C1.200
T7C1.500
T8C1.524
T9C1.778
T10C3.048
T11C3.302
T12C4.000
%
G90
G05
M71
T1
X46.328Y-97.286
X48.2Y-105.4
X49.3Y-107.
X49.52Y-86.2
X49.675Y-98.575
X49.843Y-79.559
X50.175Y-96.
X50.225Y-100.8
X52.15Y-107.525
X54.021Y-90.014
X55.019Y-106.245
X55.845Y-98.934
X55.845Y-103.125
X56.074Y-94.87
X56.378Y-55.094
X56.597Y-83.318
X56.836Y-57.862
X56.95Y-76.8
X57.369Y-107.418
X57.445Y-91.035
X57.75Y-64.847
X58.106Y-41.911
X59.147Y-49.912
X59.655Y-61.037
X59.998Y-43.841
X60.087Y-55.386
X60.442Y-82.195
X60.531Y-87.047
X60.56Y-78.11
X61.306Y-64.06
X61.43Y-76.76
X61.941Y-54.357
X62.068Y-45.721
X62.131Y-101.588
X62.919Y-88.075
X63.109Y-89.231
X63.575Y-107.3
X64.275Y-80.7
X64.506Y-88.977
X64.6Y-102.068
X65.414Y-77.576
X65.424Y-81.424
X65.497Y-49.023
X65.497Y-54.611
X65.548Y-89.003
X65.738Y-71.101
X65.751Y-40.895
X66.767Y-73.407
X66.8Y-86.6
X67.036Y-59.005
X67.054Y-57.458
X67.656Y-44.324
X68.012Y-72.429
X68.139Y-56.084
X68.316Y-61.24
X68.575Y-89.15
X68.709Y-94.096
X68.8Y-78.276
X69.3Y-81.176
X69.7Y-88.6
X69.729Y-40.717
X70.18Y-51.14
X70.348Y-65.698
X70.55Y-89.3
X70.8Y-79.9
X70.967Y-95.833
X71.12Y-44.47
X71.339Y-53.722
X71.529Y-65.685
X71.883Y-48.835
X72.213Y-66.366
X72.368Y-62.523
X72.4Y-95.3
X72.672Y-50.991
X72.736Y-55.881
X72.774Y-59.755
X73.079Y-60.593
X73.153Y-84.807
X73.396Y-78.893
X73.59Y-56.08
X73.752Y-40.006
X73.752Y-53.214
X73.854Y-83.491
X73.904Y-57.164
X74.133Y-49.023
X74.146Y-66.041
X74.448Y-95.746
X74.514Y-42.8
X74.641Y-78.131
X74.773Y-70.313
X75.225Y-96.975
X75.26Y-52.88
X75.657Y-69.876
X75.733Y-58.51
X75.898Y-59.45
X75.911Y-35.053
X76.002Y-49.313
X76.355Y-60.224
X76.442Y-47.466
X76.99Y-57.824
X77.029Y-76.15
X77.049Y-71.842
X77.13Y-70.384
X77.181Y-73.407
X77.189Y-44.995
X77.245Y-58.84
X77.252Y-51.53
X77.308Y-46.102
X77.758Y-55.929
X77.765Y-80.976
X77.892Y-43.849
X78.07Y-53.976
X78.388Y-59.323
X78.646Y-79.875
X78.959Y-52.452
X79.01Y-55.246
X79.102Y-89.625
X79.238Y-59.361
X79.34Y-48.007
X79.47Y-44.131
X79.475Y-45.5
X79.873Y-62.498
X80.077Y-51.69
X80.673Y-59.335
X80.737Y-68.606
X80.953Y-60.199
X81.2Y-85.3
X81.474Y-62.079
X81.88Y-42.482
X82.2Y-80.1
X82.319Y-56.62
X82.54Y-73.105
X82.655Y-68.327
X82.794Y-66.79
X83.02Y-57.291
X83.173Y-79.409
X83.26Y-43.21
X83.34Y-67.578
X83.353Y-68.911
X83.401Y-56.544
X83.404Y-65.99
X83.658Y-38.863
X83.75Y-58.1
X84.191Y-69.775
X84.293Y-52.96
X84.37Y-47.163
X84.56Y-46.186
X84.661Y-65.8
X84.725Y-58.218
X85.893Y-66.13
X86.198Y-47.626
X86.332Y-86.55
X87.404Y-42.508
X87.747Y-50.42
X87.773Y-79.655
X88.075Y-93.375
X88.103Y-51.436
X88.23Y-54.611
X88.425Y-86.55
X89.172Y-51.555
X89.386Y-59.17
X89.551Y-54.078
X89.558Y-55.896
X89.867Y-69.473
X89.906Y-68.124
X89.97Y-62.015
X90.135Y-38.736
X90.618Y-62.637
X90.643Y-64.314
X90.897Y-42.216
X91.583Y-64.644
X91.977Y-46.28
X92.4Y-76.2
X92.75Y-79.3
X93.869Y-75.642
X93.945Y-43.943
X94.072Y-38.736
X94.262Y-47.093
X94.351Y-74.931
X95.342Y-50.153
X95.444Y-53.379
X96.175Y-87.075
X96.249Y-73.224
X96.485Y-64.136
X96.485Y-65.152
X96.604Y-47.108
X96.612Y-50.801
X97.12Y-72.137
X97.963Y-72.31
X98.2Y-77.915
X98.517Y-45.213
X99.025Y-47.626
X99.05Y-78.652
X99.1Y-83.6
X99.335Y-71.675
X99.406Y-43.943
X99.444Y-51.233
X99.678Y-70.311
X100.168Y-51.703
X100.3Y-88.625
X100.364Y-56.412
X100.422Y-52.579
X101.232Y-51.378
X101.336Y-73.74
X101.6Y-78.325
X101.646Y-80.117
X102.079Y-79.079
X102.263Y-73.737
X102.611Y-57.039
X102.875Y-80.125
X102.962Y-49.658
X103.775Y-57.799
X103.851Y-37.974
X103.914Y-60.91
X104.05Y-88.35
X104.194Y-72.785
X104.435Y-57.011
X104.765Y-70.461
X105.299Y-72.721
X105.489Y-57.062
X106.213Y-77.928
X106.391Y-72.747
X106.559Y-80.453
X106.579Y-79.508
X106.772Y-43.689
X106.861Y-78.666
X106.975Y-55.614
X107.Y-95.4
X107.026Y-63.857
X107.336Y-50.857
X107.407Y-72.747
X107.534Y-39.041
X107.864Y-55.691
X107.864Y-84.1
X108.4Y-50.593
X108.73Y-73.316
X109.102Y-86.046
X109.16Y-51.792
X109.221Y-77.735
X109.464Y-56.389
X109.8Y-86.675
X109.872Y-78.285
X109.922Y-51.182
X110.15Y-73.28
X110.172Y-87.825
X110.328Y-56.567
X110.836Y-51.08
X110.963Y-43.689
X111.446Y-70.537
X111.573Y-39.041
X112.017Y-77.814
X112.233Y-55.817
X112.843Y-51.639
X113.046Y-69.838
X113.198Y-61.812
X113.224Y-60.631
X113.376Y-62.968
X113.478Y-50.928
X113.859Y-57.659
X113.96Y-58.624
X113.96Y-59.488
X114.24Y-61.977
X114.29Y-48.591
X114.646Y-56.897
X115.154Y-66.168
X115.37Y-53.531
X115.764Y-39.041
X116.526Y-48.591
X118.075Y-45.848
X118.075Y-56.135
X118.253Y-96.648
X118.304Y-50.014
X118.304Y-73.343
X118.977Y-69.826
X119.345Y-76.455
X119.358Y-72.975
X119.833Y-82.399
X119.98Y-59.691
X120.209Y-73.661
X120.361Y-65.66
X120.463Y-64.161
X120.691Y-41.2
X120.882Y-70.156
X121.656Y-40.565
X121.758Y-77.75
X121.898Y-82.642
X121.987Y-73.077
X122.203Y-53.963
X122.342Y-92.889
X122.901Y-51.563
X122.901Y-82.475
X122.926Y-43.994
X123.196Y-46.585
X123.272Y-49.175
X123.536Y-61.723
X123.892Y-50.014
X124.806Y-66.168
X124.933Y-56.135
X125.568Y-67.946
X125.898Y-76.277
X126.076Y-57.43
X126.076Y-58.675
X126.076Y-82.03
X126.076Y-94.591
X126.851Y-87.679
X127.575Y-77.877
X127.648Y-67.273
X127.675Y-80.15
X127.737Y-60.214
X128.35Y-97.325
X128.705Y-73.61
X128.756Y-80.341
X128.921Y-76.125
X128.982Y-63.432
X129.276Y-53.62
X129.746Y-73.623
X130.12Y-44.233
X130.529Y-62.81
X130.712Y-73.471
X130.762Y-96.699
X131.156Y-70.168
X131.778Y-73.572
X131.981Y-70.549
X132.477Y-96.673
X132.484Y-64.641
X132.617Y-71.121
X133.124Y-71.819
X133.34Y-42.902
X133.422Y-77.339
X133.62Y-73.57
X133.721Y-94.616
X133.899Y-43.867
X134.123Y-46.666
X134.24Y-47.753
X134.458Y-62.739
X134.57Y-44.68
X135.464Y-72.813
X135.715Y-54.509
X135.906Y-51.525
X136.49Y-53.087
X136.49Y-68.327
X136.553Y-47.893
X136.693Y-50.928
X136.744Y-67.438
X137.178Y-63.699
X137.379Y-65.406
X137.907Y-66.384
X137.907Y-70.776
X138.09Y-96.902
X138.446Y-46.051
X138.796Y-64.215
X138.814Y-62.472
X139.538Y-38.863
X139.621Y-96.291
X139.64Y-42.698
X140.427Y-96.521
X141.3Y-49.8
X141.325Y-91.775
X141.8Y-56.5
X141.946Y-59.348
X142.078Y-43.765
X142.522Y-62.193
X142.773Y-58.373
X143.094Y-67.692
X143.114Y-77.065
X143.196Y-42.902
X143.5Y-49.9
X143.716Y-58.878
X143.856Y-68.2
X144.44Y-73.89
X144.491Y-73.001
X144.694Y-94.692
X145.253Y-77.598
X146.225Y-43.575
X146.383Y-56.453
X147.107Y-61.571
X147.3Y-55.
X147.793Y-59.691
X147.92Y-65.025
X147.92Y-71.756
X148.237Y-67.501
X148.733Y-96.978
X148.95Y-42.1
X149.063Y-56.135
X149.063Y-66.739
X149.3Y-51.5
X149.825Y-65.85
X150.46Y-71.375
X150.638Y-62.104
X150.65Y-64.453
X150.765Y-63.095
X150.917Y-46.839
X151.095Y-48.261
X151.476Y-42.419
X151.603Y-53.722
X151.603Y-56.389
X153.127Y-67.692
X153.279Y-53.531
X153.33Y-61.291
X154.13Y-52.023
X154.651Y-54.103
X154.651Y-60.529
X154.765Y-76.653
X155.273Y-49.267
X155.984Y-57.532
X156.Y-53.6
X156.302Y-52.071
X157.521Y-56.262
X157.851Y-57.278
X158.4Y-53.7
X158.613Y-59.996
X158.715Y-41.276
X158.775Y-44.65
X158.791Y-61.494
X158.88Y-48.896
X159.426Y-74.931
X160.112Y-66.803
X161.661Y-63.958
X162.22Y-45.721
X162.779Y-54.738
X163.033Y-48.515
X164.75Y-75.925
X165.175Y-78.8
X165.3Y-69.5
X165.319Y-64.263
X166.2Y-59.1
X166.3Y-58.2
X169.175Y-78.85
X169.6Y-56.2
X171.999Y-76.734
X172.304Y-71.4
X172.4Y-68.7
X172.6Y-65.3
T2
X52.746Y-39.117
X67.483Y-66.849
X71.72Y-102.744
X71.72Y-105.03
X73.307Y-65.533
X76.038Y-101.982
X77.664Y-77.865
X100.9Y-60.8
X100.9Y-63.7
X110.823Y-77.217
X110.963Y-81.154
X111.3Y-99.8
X111.7Y-67.6
X113.05Y-105.425
X113.086Y-104.433
X113.1Y-103.375
X114.1Y-105.45
X114.118Y-104.415
X114.125Y-103.4
X116.894Y-91.314
X117.374Y-93.143
X121.7Y-79.4
X125.35Y-100.225
X125.67Y-93.473
X126.33Y-60.453
X134.975Y-100.25
X145.38Y-93.803
X151.108Y-72.098
X154.397Y-71.248
X156.016Y-72.01
X156.465Y-80.453
X157.35Y-72.05
X157.525Y-68.45
X158.204Y-66.68
X159.075Y-67.575
X159.1Y-66.65
X159.83Y-76.483
X159.883Y-85.828
X160.036Y-90.288
X162.144Y-102.236
X162.4Y-70.774
X162.416Y-69.675
X162.906Y-60.392
X163.2Y-93.
X163.343Y-104.025
X163.35Y-102.
X163.35Y-103.011
X164.278Y-75.007
X164.303Y-102.
X164.303Y-103.011
X164.303Y-104.05
X165.035Y-84.987
X165.057Y-86.917
X165.057Y-87.862
X165.07Y-85.934
X166.063Y-84.997
X166.063Y-85.957
X166.086Y-86.93
X166.089Y-87.88
X167.85Y-78.875
X167.859Y-77.796
X167.875Y-76.675
X169.129Y-91.822
X169.175Y-97.95
X169.175Y-99.025
X170.175Y-97.975
X170.175Y-99.
X171.925Y-86.625
X171.925Y-87.975
X173.1Y-87.975
X173.125Y-86.6
X175.775Y-90.075
T3
X173.066Y-84.075
T4
X73.498Y-89.536
X73.498Y-94.616
X81.118Y-89.536
X81.118Y-94.616
X81.118Y-99.696
X84.166Y-89.536
X84.166Y-94.616
X91.786Y-89.536
X91.786Y-94.616
X91.786Y-99.696
X94.834Y-89.536
X94.834Y-94.616
X102.454Y-89.536
X102.454Y-94.616
X102.454Y-99.696
X105.502Y-89.536
X105.502Y-94.616
X113.122Y-89.536
X113.122Y-94.616
X113.122Y-99.696
T5
X48.447Y-52.579
X48.447Y-55.373
X48.447Y-58.04
X48.447Y-60.834
X50.987Y-51.182
X50.987Y-53.976
X50.987Y-56.77
X50.987Y-59.438
X50.987Y-62.231
X51.565Y-79.947
X51.565Y-82.487
X51.565Y-85.027
X51.565Y-87.567
X54.105Y-80.582
X54.105Y-83.123
X54.105Y-85.662
X54.105Y-88.203
X58.931Y-78.931
X58.931Y-81.471
X58.931Y-87.313
X58.931Y-89.853
X64.1Y-63.755
X66.64Y-63.755
X69.18Y-63.755
X71.72Y-63.755
X74.26Y-63.755
X76.8Y-63.755
X85.182Y-75.439
X85.182Y-77.979
X87.722Y-75.439
X87.722Y-77.979
X90.262Y-75.439
X90.262Y-77.979
X134.903Y-79.795
X134.903Y-82.335
X137.442Y-79.795
X137.442Y-82.335
X137.557Y-86.958
X137.557Y-89.498
X139.982Y-79.795
X139.982Y-82.335
X140.097Y-86.958
X140.097Y-89.498
X142.522Y-79.795
X142.522Y-82.335
X142.637Y-86.958
X142.637Y-89.498
X145.062Y-79.795
X145.062Y-82.335
X145.177Y-86.958
X145.177Y-89.498
X147.602Y-79.795
X147.602Y-82.335
T6
X73.498Y-81.916
X81.118Y-81.916
X84.166Y-81.916
X91.786Y-81.916
X94.834Y-81.916
X102.454Y-81.916
X105.502Y-81.916
X113.122Y-81.916
T7
X73.498Y-92.116
X73.498Y-99.816
X84.166Y-92.116
X84.166Y-99.816
X94.834Y-92.116
X94.834Y-99.816
X105.502Y-92.116
X105.502Y-99.816
T8
X62.29Y-36.197
X62.29Y-112.396
X67.37Y-36.197
X67.37Y-112.396
X72.45Y-36.197
X72.482Y-112.396
X77.531Y-36.197
X77.562Y-112.396
X82.611Y-36.197
X82.642Y-112.396
X87.691Y-36.197
X87.722Y-112.396
X92.77Y-36.197
X92.802Y-112.396
X97.85Y-36.197
X97.882Y-112.396
X102.93Y-36.197
X102.962Y-112.396
X108.01Y-36.197
X108.042Y-112.396
X113.09Y-36.197
X113.122Y-112.396
X118.17Y-36.197
X118.202Y-112.396
X123.25Y-36.197
X123.25Y-112.396
X128.331Y-36.197
X128.331Y-112.396
X133.41Y-36.197
X133.41Y-112.396
X138.49Y-36.197
X138.49Y-112.396
X143.57Y-36.197
X143.57Y-112.396
X148.65Y-36.197
X148.65Y-112.396
X153.731Y-36.197
X153.731Y-112.396
X158.81Y-36.197
X158.81Y-112.396
T9
X48.263Y-76.645
X48.263Y-92.139
T10
X48.447Y-43.944
X48.447Y-69.343
T11
X45.215Y-78.677
X45.215Y-90.108
T12
X46.945Y-36.157
X46.945Y-112.406
X174.1Y-36.1
X174.4Y-112.4
T0
M30
